<?xml version="1.0" standalone="no"?>
<!DOCTYPE svg PUBLIC "-//W3C//DTD SVG 1.1//EN" "http://www.w3.org/Graphics/SVG/1.1/DTD/svg11.dtd" >
<svg xmlns="http://www.w3.org/2000/svg" xmlns:xlink="http://www.w3.org/1999/xlink" version="1.1">
<metadata></metadata>
<defs>
<font id="neue_hans_kendrickSBdIt" horiz-adv-x="0" >
<font-face units-per-em="2048" ascent="1536" descent="-512" />
<missing-glyph horiz-adv-x="504" />
<glyph unicode="fi" horiz-adv-x="1228" d="M536 963h625l-35 -201l-133 -762h-246l133 762h-379l-133 -762h-248l133 762h-162l35 201h162l48 268q27 155 126.5 242t246.5 87q114 0 156 -35l-25 -217q-34 31 -97 31q-62 0 -109 -43.5t-58 -110.5zM1104 1419q65 0 104.5 -47t26.5 -114q-9 -53 -52.5 -89.5 t-96.5 -36.5q-65 0 -104.5 47.5t-29.5 114.5q10 53 54 89t98 36z" />
<glyph unicode="fl" horiz-adv-x="1259" d="M775 963l-35 -201h-238l-134 -762h-248l134 762h-163l35 201h163l47 268q27 155 126.5 242t246.5 87q114 0 156 -35l-25 -217q-34 31 -97 31q-62 0 -109 -43.5t-58 -110.5l-39 -222h238zM1044 1536h248l-270 -1536h-248z" />
<glyph unicode=" "  horiz-adv-x="504" />
<glyph unicode="&#x09;" horiz-adv-x="504" />
<glyph unicode="&#xa0;" horiz-adv-x="504" />
<glyph unicode="!" horiz-adv-x="652" d="M197 487l185 1049h248l-185 -1049h-248zM248 -20q-67 0 -106.5 48.5t-28.5 116.5q10 54 55 92t99 38q68 0 108 -48.5t28 -117.5q-10 -53 -55 -91t-100 -38z" />
<glyph unicode="&#x22;" horiz-adv-x="1034" d="M295 887l94 649h234l-130 -649h-198zM683 887l99 649h235l-135 -649h-199z" />
<glyph unicode="#" horiz-adv-x="1558" d="M230 0l110 345h-289l55 179h289l139 425h-292l62 177h284l112 350h178l-109 -350h358l110 350h181l-112 -350h292l-60 -177h-287l-135 -425h286l-55 -179h-287l-113 -345h-178l110 345h-362l-108 -345h-179zM576 524h358l138 425h-361z" />
<glyph unicode="$" horiz-adv-x="1341" d="M751 894q38 -16 62 -26.5t59.5 -27.5t58 -31t52 -34.5t47.5 -41t38 -46.5t30 -55.5t17.5 -64t6.5 -75t-9 -85.5q-30 -173 -154.5 -281.5t-296.5 -136.5l-28 -159h-228l29 161q-134 24 -237.5 93.5t-162.5 157.5l196 164q116 -204 324 -204q121 0 205.5 62t102.5 166 q8 47 -3.5 83.5t-53.5 68.5t-72 49t-102 51q-20 10 -31 15q-37 17 -56 26t-53.5 26.5t-54 30t-48.5 33t-45 39t-36 43.5t-29 52t-17 59t-7.5 69.5t7.5 78.5q30 167 154.5 272.5t293.5 125.5l28 156h228l-31 -172q169 -46 290 -204l-174 -144q-63 87 -129 119t-145 32 q-97 0 -171.5 -54t-89.5 -146q-7 -37 3.5 -69.5t27.5 -54t55.5 -46t66.5 -38t82 -37.5z" />
<glyph unicode="%" horiz-adv-x="1649" d="M440 871q-149 0 -236 106t-60 257q23 134 135.5 228t248.5 94q97 0 170.5 -48t107 -130.5t16.5 -179.5q-25 -136 -136.5 -231.5t-245.5 -95.5zM127 0l1144 1536h245l-1140 -1536h-249zM440 1063q69 0 127 50t71 121q9 54 -23 93t-87 39q-70 0 -129 -49.5t-71 -118.5 q-10 -56 22.5 -95.5t89.5 -39.5zM1126 -16q-149 0 -236 105.5t-61 255.5q25 134 137 228.5t246 94.5q148 0 234.5 -105.5t60.5 -253.5q-23 -135 -135 -230t-246 -95zM1126 175q70 0 127.5 49.5t70.5 120.5q10 55 -23 93.5t-89 38.5q-70 0 -128 -49.5t-71 -118.5 q-10 -56 23 -95t90 -39z" />
<glyph unicode="&#x26;" horiz-adv-x="1496" d="M488 -23q-207 0 -320 129t-76 338q10 60 33.5 111.5t54 92.5t84 87.5t103.5 83t133 92.5q-59 86 -80.5 161.5t-6.5 158.5q25 141 136 232.5t259 91.5q159 0 247.5 -98.5t62.5 -248.5q-10 -56 -35 -103.5t-70.5 -92t-88 -77.5t-113.5 -81l197 -328l267 271l139 -145 l-292 -295l216 -359h-278l-116 188q-247 -209 -456 -209zM688 1000q10 7 39 26.5t39.5 27t34.5 25t33.5 27.5t26.5 27.5t24.5 31.5t15.5 32.5t11 38.5q9 55 -22 87t-84 33q-70 2 -123.5 -42t-66.5 -117q-2 -14 -2 -27.5t1.5 -25t6.5 -24.5t9 -22.5t12 -23.5t13.5 -23.5 t15.5 -25t16 -25.5zM483 190q82 0 165 48t182 131l-220 358q-10 -7 -43 -28t-46 -30t-42 -29t-43 -32.5t-37 -33t-35 -37.5t-26.5 -38.5t-23 -44.5t-12.5 -47q-16 -88 38.5 -152.5t142.5 -64.5z" />
<glyph unicode="'" horiz-adv-x="645" d="M295 887l95 649h237l-133 -649h-199z" />
<glyph unicode="(" horiz-adv-x="671" d="M360 -458q-176 141 -239.5 433t5.5 711q70 392 233.5 686.5t382.5 433.5l116 -173q-179 -112 -320.5 -370t-204.5 -613q-60 -357 -13.5 -602t186.5 -354z" />
<glyph unicode=")" horiz-adv-x="672" d="M-4 -469l-116 174q180 112 320 367t203 614q60 352 14.5 600t-184.5 358l146 150q174 -140 237 -435.5t-6 -708.5q-69 -395 -231.5 -687t-382.5 -432z" />
<glyph unicode="*" horiz-adv-x="978" d="M430 854l-110 70l210 243l-299 -22l23 135l299 -23l-128 245l122 67l82 -263l175 263l114 -67l-213 -245l299 23l-23 -135l-299 22l131 -243l-125 -70l-81 264z" />
<glyph unicode="+" horiz-adv-x="1198" d="M497 195v394h-393v204h393v393h204v-393h394v-204h-394v-394h-204z" />
<glyph unicode="," horiz-adv-x="627" d="M288 275q67 0 107 -49t29 -117q-7 -39 -37 -74l-235 -410h-150l186 380q-31 22 -46 59.5t-8 80.5q9 53 55 91.5t99 38.5z" />
<glyph unicode="-" horiz-adv-x="1010" d="M130 389l33 185h717l-33 -185h-717z" />
<glyph unicode="." horiz-adv-x="637" d="M247 -20q-66 0 -106.5 49t-28.5 116q8 53 54 91.5t99 38.5q67 0 107 -49t29 -117q-10 -53 -55.5 -91t-98.5 -38z" />
<glyph unicode="/" horiz-adv-x="1270" d="M-179 -381l1454 2089h240l-1453 -2089h-241z" />
<glyph unicode="0" horiz-adv-x="1286" d="M572 -20q-128 0 -226.5 59t-154.5 165.5t-73.5 254.5t16.5 327q61 347 245.5 558.5t437.5 211.5q132 0 231 -59t153.5 -165.5t70.5 -254.5t-17 -327q-61 -344 -249.5 -557t-433.5 -213zM579 201q148 0 266 160t165 425q45 253 -12 395t-187 142q-145 0 -264.5 -153 t-166.5 -420q-44 -252 9 -400.5t190 -148.5z" />
<glyph unicode="1" horiz-adv-x="1286" d="M496 0l229 1303h-306l42 233h558l-271 -1536h-252z" />
<glyph unicode="2" horiz-adv-x="1286" d="M1215 1115q-18 -103 -69 -200.5t-148.5 -206.5t-216 -216t-304.5 -259h644l-41 -233h-1064l15 125q296 253 476 417.5t278.5 277.5t134 179.5t48.5 141.5q18 100 -36 149t-145 49q-116 0 -197 -72t-101 -191l-258 19q26 142 106.5 248t200 161t261.5 55 q217 -2 334 -123.5t82 -320.5z" />
<glyph unicode="3" horiz-adv-x="1286" d="M557 -20q-156 0 -272.5 53.5t-175 162.5t-32.5 257l253 -16q-21 -116 45 -175.5t187 -59.5q141 0 237 75.5t119 201.5q20 111 -46.5 171.5t-195.5 60.5h-140l37 209h109q103 0 183.5 65t98.5 168q16 86 -31 134t-144 48q-105 0 -180.5 -55.5t-90.5 -150.5l-250 17 q34 190 180.5 300t341.5 110q136 0 238 -53.5t149.5 -150t25.5 -216.5q-19 -108 -89 -187t-169 -119q120 -37 183 -140.5t35 -260.5q-36 -205 -204 -327t-402 -122z" />
<glyph unicode="4" horiz-adv-x="1286" d="M1255 534l-41 -227h-251l-54 -307h-252l54 307h-697l33 196l806 1033h326l-176 -1002h252zM310 534h441l132 756z" />
<glyph unicode="5" horiz-adv-x="1286" d="M1273 1307h-663l-119 -366q135 94 302 94q101 0 184 -37t138 -103t77 -164.5t1 -215.5q-27 -157 -119 -279.5t-224.5 -188.5t-281.5 -66q-142 0 -255 55t-174 163.5t-43 249.5l260 -7q0 -58 18.5 -101t51 -68.5t72.5 -37.5t87 -12q128 0 228 89.5t125 230.5 q23 127 -37.5 204.5t-169.5 77.5q-81 0 -163.5 -42t-141.5 -112l-263 7l299 858h852z" />
<glyph unicode="6" horiz-adv-x="1286" d="M799 1016q88 0 169 -39t138.5 -105t85 -163t10.5 -204q-34 -216 -218.5 -369.5t-404.5 -153.5q-157 0 -276.5 70t-176.5 193t-35 272q28 181 190 360l630 659h301l-516 -530q44 10 103 10zM960 540q14 126 -56.5 204t-193.5 78q-149 0 -253.5 -97.5t-120.5 -240.5 q-14 -123 57 -197t202 -74q142 0 246 95t119 232z" />
<glyph unicode="7" horiz-adv-x="1286" d="M282 1536h1108l-29 -179l-979 -1357h-298l962 1308h-804z" />
<glyph unicode="8" horiz-adv-x="1286" d="M571 -20q-150 0 -261 65t-161 178t-26 250q22 127 104.5 228.5t203.5 158.5q-130 110 -93 318q29 161 165.5 269.5t314.5 108.5q190 0 296 -119.5t75 -294.5q-17 -96 -68 -173t-131 -125q99 -64 144 -170.5t22 -236.5q-35 -195 -201.5 -326t-383.5 -131zM714 923 q93 0 166 65t87 160q12 81 -34.5 135t-126.5 54q-95 0 -169 -65t-88 -160q-11 -80 36 -134.5t129 -54.5zM585 200q119 0 213.5 86t111.5 207q16 106 -45 176.5t-168 70.5q-119 0 -211.5 -81.5t-110.5 -201.5q-16 -107 44.5 -182t165.5 -75z" />
<glyph unicode="9" horiz-adv-x="1286" d="M699 1554q157 0 276.5 -70t176.5 -193t35 -272q-28 -181 -190 -360l-630 -659h-301l516 530q-44 -10 -103 -10q-88 0 -169 39t-138.5 105t-85 163t-10.5 204q34 216 218.5 369.5t404.5 153.5zM942 1052q14 123 -57 197t-202 74q-142 0 -246 -95t-119 -232 q-14 -126 56.5 -204t193.5 -78q149 0 253.5 97.5t120.5 240.5z" />
<glyph unicode=":" horiz-adv-x="618" d="M373 749q-66 0 -106.5 49t-28.5 117q8 52 54 90.5t100 38.5q66 0 106 -49t29 -116q-10 -54 -55.5 -92t-98.5 -38zM237 -20q-66 0 -106.5 49t-28.5 116q8 53 54 91.5t100 38.5q66 0 106 -49.5t29 -116.5q-10 -53 -55.5 -91t-98.5 -38z" />
<glyph unicode=";" horiz-adv-x="614" d="M403 1044q67 0 106.5 -49t28.5 -116q-9 -54 -54.5 -92t-99.5 -38q-67 0 -107 49t-28 117q9 53 54.5 91t99.5 38zM267 275q67 0 106.5 -49t28.5 -117q-8 -42 -36 -73l-235 -411h-150l186 380q-31 22 -46 59.5t-8 80.5q9 53 55 91.5t99 38.5z" />
<glyph unicode="&#x3c;" horiz-adv-x="1343" d="M1218 1436v-225l-919 -464l919 -464v-230l-1130 572v244z" />
<glyph unicode="=" horiz-adv-x="1277" d="M229 806v204h819v-204h-819zM229 374v203h819v-203h-819z" />
<glyph unicode="&#x3e;" horiz-adv-x="1343" d="M125 1436l1131 -567v-244l-1131 -572v230l919 464l-919 464v225z" />
<glyph unicode="?" horiz-adv-x="1090" d="M423 464l21 123q14 78 44.5 135t69 89.5t82.5 57t87 46t80.5 47t65.5 69t38 103.5q16 93 -42 150.5t-164 57.5q-118 0 -209 -76.5t-114 -190.5l-217 17q36 203 188.5 330.5t355.5 127.5q211 0 329.5 -129.5t84.5 -322.5q-14 -77 -44.5 -136t-69 -95t-82 -63.5t-86 -49 t-79 -44.5t-62.5 -58t-34 -81l-19 -107h-224zM473 -20q-68 0 -107.5 48.5t-27.5 116.5q8 54 53.5 92t100.5 38q67 0 106.5 -49t28.5 -117q-10 -54 -54.5 -91.5t-99.5 -37.5z" />
<glyph unicode="@" horiz-adv-x="1750" d="M1033 1286q146 0 270.5 -44.5t213.5 -127.5t127 -214.5t9 -294.5q-22 -123 -72 -219.5t-115.5 -153t-137 -85.5t-144.5 -29q-85 0 -131.5 38.5t-49.5 95.5q-34 -50 -104 -91.5t-158 -41.5q-144 0 -212 100t-40 256q14 82 55.5 161.5t101.5 144t143 104t172 39.5 q85 0 141 -38t68 -90l1 8l35 91l153 -8q-137 -368 -154 -415q-13 -32 -20.5 -54.5t-14 -47.5t-6.5 -41.5t5 -31t18.5 -21t34.5 -6.5q86 0 164 99.5t106 256.5q22 123 -2 220t-87 158.5t-156 93.5t-210 32q-184 0 -341 -84t-258 -227.5t-132 -322.5q-48 -270 92 -428 t402 -158q278 0 495 152l84 -135q-252 -173 -588 -173q-173 0 -311 58t-225 160.5t-121 248t-5 314.5q38 213 172.5 386t327.5 269t404 96zM1075 589q39 190 -106 190q-74 0 -142.5 -53.5t-111.5 -131.5t-57 -161q-7 -25 -4.5 -54.5t11 -54.5t34 -42t65.5 -17q62 0 118 31.5 t94 81t63 104t36 107.5z" />
<glyph unicode="A" horiz-adv-x="1408" d="M1039 0l-43 240h-667l-128 -240h-284l873 1536h195l334 -1536h-280zM448 462h509l-128 714z" />
<glyph unicode="B" horiz-adv-x="1381" d="M1327 1100q-39 -228 -247 -322q115 -45 167.5 -143t26.5 -241q-32 -179 -172 -286.5t-327 -107.5h-667l270 1536h558q132 0 228.5 -53.5t141 -153.5t21.5 -229zM1077 1104q16 89 -35 144t-148 55h-310l-73 -425h298q100 0 175.5 64t92.5 162zM1035 454q15 87 -36.5 145.5 t-157.5 58.5h-367l-73 -425h365q101 0 176.5 62t92.5 159z" />
<glyph unicode="C" horiz-adv-x="1510" d="M797 -20q-164 0 -302 64t-226.5 172t-126 257.5t-8.5 313.5q28 157 114 299.5t207.5 245.5t275 163.5t310.5 60.5q181 0 326.5 -75t234.5 -207l-218 -141q-56 85 -147 130.5t-206 45.5q-151 0 -290 -74t-233.5 -203t-120.5 -283q-24 -142 22.5 -259.5t151.5 -185.5 t248 -68q120 0 234.5 48t205.5 133l180 -170q-130 -125 -294.5 -196t-337.5 -71z" />
<glyph unicode="D" horiz-adv-x="1514" d="M108 0l270 1536h456q171 0 307.5 -62t219.5 -168.5t115.5 -250.5t3.5 -305q-27 -155 -106.5 -292t-196 -238.5t-271.5 -160.5t-326 -59h-472zM405 237h191q232 0 408.5 156.5t218.5 392.5q26 147 -16 263t-148 183t-259 67h-209z" />
<glyph unicode="E" horiz-adv-x="1195" d="M1237 1303h-644l-73 -418h558l-42 -234h-558l-73 -418h644l-40 -233h-901l270 1536h901z" />
<glyph unicode="F" horiz-adv-x="1150" d="M1237 1303h-644l-73 -418h558l-42 -234h-557l-114 -651h-257l270 1536h901z" />
<glyph unicode="G" horiz-adv-x="1636" d="M893 619l39 223h639l-147 -842h-193l-7 127q-184 -147 -425 -147q-219 0 -385.5 107.5t-241.5 293t-36 405.5q28 158 113.5 300.5t207 245.5t275.5 163.5t312 60.5q169 0 316 -73.5t235 -195.5l-207 -148q-58 83 -151 127t-203 44q-153 0 -291.5 -73.5t-232.5 -202 t-122 -284.5q-39 -224 81.5 -374t339.5 -150q123 0 237.5 47.5t198.5 135.5l36 210h-388z" />
<glyph unicode="H" horiz-adv-x="1624" d="M1362 1536h257l-271 -1536h-256l114 650h-727l-114 -650h-257l270 1536h257l-114 -648h727z" />
<glyph unicode="I" horiz-adv-x="640" d="M108 0l270 1536h257l-270 -1536h-257z" />
<glyph unicode="J" horiz-adv-x="1060" d="M301 -20q-211 0 -351 98l138 207q41 -32 101.5 -50t118.5 -18q133 0 224 90t114 229l177 1000h257l-188 -1063q-39 -220 -199.5 -356.5t-391.5 -136.5z" />
<glyph unicode="K" horiz-adv-x="1421" d="M1567 1536l-788 -759l533 -777h-328l-490 734l-129 -734h-257l270 1536h257l-126 -715l725 715h333z" />
<glyph unicode="L" horiz-adv-x="1020" d="M408 237h536l-42 -237h-794l270 1536h257z" />
<glyph unicode="M" horiz-adv-x="1888" d="M1716 1536h187l-270 -1536h-255l172 986l-658 -819l-373 823l-174 -990h-256l270 1536h185l419 -923z" />
<glyph unicode="N" horiz-adv-x="1599" d="M1358 1536h257l-271 -1536h-135l-682 1038l-182 -1038h-256l270 1536h134l683 -1035z" />
<glyph unicode="O" horiz-adv-x="1739" d="M798 -20q-164 0 -301.5 63.5t-226.5 171.5t-126.5 257.5t-8.5 313.5q37 210 171.5 387.5t330 280t406.5 102.5q164 0 301.5 -63.5t226.5 -171.5t126.5 -257.5t8.5 -313.5q-37 -210 -171.5 -387.5t-330 -280t-406.5 -102.5zM815 230q152 0 290 73.5t230.5 201.5t118.5 281 q24 144 -23 263.5t-153.5 188t-250.5 68.5q-152 0 -290 -73.5t-231 -201.5t-119 -281q-24 -144 23.5 -263.5t154 -188t250.5 -68.5z" />
<glyph unicode="P" horiz-adv-x="1377" d="M1023 1536q209 0 324 -135t80 -329q-33 -183 -183.5 -302.5t-356.5 -119.5h-410l-112 -650h-257l270 1536h645zM1183 1095q15 90 -38 149t-150 59h-405l-74 -429h380q111 0 190 58t97 163z" />
<glyph unicode="Q" horiz-adv-x="1784" d="M1043 1556q164 0 301.5 -63.5t226.5 -171.5t126.5 -257.5t8.5 -313.5q-45 -252 -226 -452l160 -181l-177 -155l-154 185q-240 -167 -511 -167q-164 0 -301.5 63.5t-226.5 171.5t-126.5 257.5t-8.5 313.5q37 210 171.5 387.5t330 280t406.5 102.5zM1171 649l149 -169 q110 138 138 306q24 144 -23 263.5t-154.5 188t-253.5 68.5q-154 0 -293 -73.5t-232.5 -201.5t-118.5 -281q-24 -144 23.5 -263t155 -188t253.5 -69q181 0 339 101l-146 175z" />
<glyph unicode="R" horiz-adv-x="1424" d="M1039 1536q198 0 310.5 -135.5t77.5 -328.5q-27 -149 -134.5 -260t-255.5 -147l230 -665h-271l-220 650h-299l-112 -650h-257l270 1536h661zM1183 1096q15 93 -33.5 150t-150.5 57h-409l-74 -429h358q123 0 207 58.5t102 163.5z" />
<glyph unicode="S" horiz-adv-x="1174" d="M529 -20q-176 0 -311.5 77t-208.5 185l196 164q116 -204 324 -204q121 0 205.5 62t102.5 166q8 47 -3.5 83.5t-53.5 68.5t-72 49t-102 51q-20 10 -31 15q-37 17 -56 26t-53.5 26.5t-54 30t-48.5 33t-45 39t-36 43.5t-29 52t-17 59t-7.5 69.5t7.5 78.5q22 124 100.5 216.5 t187 139t231.5 46.5q273 0 444 -224l-174 -144q-63 87 -129 119t-145 32q-97 0 -171.5 -54t-89.5 -146q-7 -37 3.5 -69.5t27.5 -54t55.5 -46t66.5 -38t82 -37.5q38 -16 62 -26.5t59.5 -27.5t58 -31t52 -34.5t47.5 -41t38 -46.5t30 -55.5t17.5 -64t6.5 -75t-9 -85.5 q-24 -135 -109 -234t-201 -146t-248 -47z" />
<glyph unicode="T" horiz-adv-x="1132" d="M1285 1536l-43 -237h-403l-229 -1299h-256l229 1299h-405l42 237h1065z" />
<glyph unicode="U" horiz-adv-x="1538" d="M695 -20q-176 0 -307 70t-191 194.5t-33 278.5l180 1013h256l-174 -984q-26 -151 52 -243t225 -92q159 0 282.5 99.5t151.5 252.5l170 967h257l-183 -1030q-27 -154 -125 -274.5t-245 -186t-316 -65.5z" />
<glyph unicode="V" horiz-adv-x="1391" d="M1297 1536h285l-875 -1536h-189l-332 1536h273l219 -1137z" />
<glyph unicode="W" horiz-adv-x="2054" d="M1963 1536h281l-860 -1536h-209l-130 573l-332 -573h-213l-314 1536h271l217 -1198l301 545l-148 653h257l67 -334l185 334h268l-386 -665l108 -533z" />
<glyph unicode="X" horiz-adv-x="1398" d="M1536 1536l-643 -759l387 -777h-292l-264 574l-468 -574h-308l671 794l-371 742h293l247 -538l444 538h304z" />
<glyph unicode="Y" horiz-adv-x="1357" d="M1530 1536l-683 -815l-126 -721h-257l128 728l-393 808h295l264 -575l470 575h302z" />
<glyph unicode="Z" horiz-adv-x="1349" d="M1492 1536l-6 -50l-1071 -1249h814l-42 -237h-1237l6 56l1065 1243h-766l42 237h1195z" />
<glyph unicode="[" horiz-adv-x="695" d="M7 -512l412 2329h481l-32 -179h-264l-348 -1971h265l-33 -179h-481z" />
<glyph unicode="\" horiz-adv-x="1257" d="M907 -381l-719 2089h230l716 -2089h-227z" />
<glyph unicode="]" horiz-adv-x="695" d="M-145 -512l32 179h265l347 1971h-264l32 179h480l-412 -2329h-480z" />
<glyph unicode="^" horiz-adv-x="1497" d="M1412 406h-201l-307 937l-637 -937h-216l770 1130h222z" />
<glyph unicode="_" horiz-adv-x="1440" d="M82 -236l32 185h1024l-32 -185h-1024z" />
<glyph unicode="`" horiz-adv-x="499" d="M498 1135l-299 289l145 139l252 -331z" />
<glyph unicode="a" horiz-adv-x="1256" d="M940 963h248l-168 -963h-232l15 125q-141 -144 -340 -144q-129 0 -228.5 67.5t-144.5 187.5t-20 265q24 136 105.5 247.5t196 173.5t235.5 62q213 0 310 -157zM532 202q123 0 221 87t117 212q18 110 -45.5 186t-173.5 76q-121 0 -219.5 -87t-118.5 -211 q-17 -110 46.5 -186.5t172.5 -76.5z" />
<glyph unicode="b" horiz-adv-x="1255" d="M793 984q96 0 178 -40t136 -108t76 -165t3 -206q-24 -136 -105.5 -248t-196 -174t-235.5 -62q-222 0 -317 168l-33 -149h-231l270 1536h248l-118 -683q136 131 325 131zM943 501q18 110 -46 186t-174 76q-121 0 -219.5 -87t-118.5 -211q-17 -110 47 -186.5t173 -76.5 q122 0 220.5 87t117.5 212z" />
<glyph unicode="c" horiz-adv-x="1086" d="M501 -18q-146 0 -255 69t-157.5 187.5t-23.5 260.5q36 203 202 342.5t377 139.5q160 0 273 -85.5t148 -222.5l-222 -73q-21 73 -77.5 114t-135.5 41q-123 0 -218.5 -84.5t-113.5 -207.5q-17 -109 44.5 -182t172.5 -73q89 0 166 48t121 124l197 -107 q-80 -134 -213.5 -212.5t-284.5 -78.5z" />
<glyph unicode="d" horiz-adv-x="1258" d="M1042 1536h249l-271 -1536h-232l15 125q-141 -144 -340 -144q-129 0 -228.5 67.5t-144.5 187.5t-20 265q24 136 105.5 247.5t196 173.5t235.5 62q213 0 312 -159zM532 202q123 0 221 87t117 212q18 110 -45.5 186t-173.5 76q-121 0 -219.5 -87t-118.5 -211 q-17 -110 46.5 -186.5t172.5 -76.5z" />
<glyph unicode="e" horiz-adv-x="1127" d="M645 982q106 0 194 -37.5t145 -102.5t80.5 -158.5t4.5 -200.5l-7 -45h-762q-12 -117 46 -186t164 -69q79 0 152 37.5t125 101.5l195 -93q-80 -118 -203 -182.5t-269 -64.5q-154 0 -264.5 69t-157 187t-21.5 260q36 204 201 344t377 140zM646 784q-93 0 -170 -48 t-124 -131h488q-10 80 -61 129.5t-133 49.5z" />
<glyph unicode="f" horiz-adv-x="706" d="M743 1339q-62 0 -109 -43.5t-58 -110.5l-39 -222h238l-35 -201h-238l-134 -762h-248l134 762h-163l35 201h163l47 268q27 155 126.5 242t246.5 87q114 0 156 -35l-25 -217q-34 31 -97 31z" />
<glyph unicode="g" horiz-adv-x="1262" d="M943 963h250l-166 -947q-42 -237 -210 -376.5t-394 -139.5q-139 0 -260.5 64.5t-183.5 179.5l169 136q46 -80 116.5 -121.5t153.5 -41.5q131 0 234.5 89t127.5 226l13 79q-132 -130 -317 -130q-137 0 -239.5 67.5t-148 187t-19.5 265.5q25 137 106 248t198 173t245 62 q211 0 303 -156zM531 202q121 0 220.5 88t117.5 211q18 110 -46 186t-173 76q-122 0 -220 -87t-118 -211q-17 -110 46 -186.5t173 -76.5z" />
<glyph unicode="h" horiz-adv-x="1128" d="M729 981q150 0 237 -108t61 -259l-108 -614h-248l102 585q14 85 -24.5 132.5t-109.5 47.5q-78 0 -139 -49.5t-80 -121.5l-104 -594h-248l269 1536h248l-114 -652q114 97 258 97z" />
<glyph unicode="i" horiz-adv-x="549" d="M407 1132q-65 0 -104.5 47.5t-29.5 114.5q10 53 54 89t98 36q65 0 104.5 -47t26.5 -114q-9 -53 -52.5 -89.5t-96.5 -36.5zM68 0l168 963h246l-168 -963h-246z" />
<glyph unicode="j" horiz-adv-x="554" d="M409 1132q-66 0 -105.5 47.5t-29.5 114.5q10 53 54 89t99 36q65 0 104 -47t26 -114q-9 -52 -52 -89t-96 -37zM-16 -481l254 1444h247l-254 -1444h-247z" />
<glyph unicode="k" horiz-adv-x="1117" d="M1158 963l-498 -448l375 -515h-310l-327 465l-82 -465h-248l270 1536h248l-172 -978l426 405h318z" />
<glyph unicode="l" horiz-adv-x="553" d="M68 0l270 1536h248l-270 -1536h-248z" />
<glyph unicode="m" horiz-adv-x="1675" d="M1266 981q158 0 245.5 -110.5t60.5 -268.5l-105 -602h-248l102 582q15 82 -20 130t-101 48q-73 0 -128.5 -48t-75.5 -118l-105 -594h-248l104 587q14 79 -21.5 126t-103.5 47q-75 0 -131 -51.5t-73 -125.5l-102 -583h-248l168 963h248l-15 -86q106 104 236 104 q82 0 149.5 -40t106.5 -109q59 70 138 109.5t167 39.5z" />
<glyph unicode="n" horiz-adv-x="1128" d="M729 981q150 0 237 -108t61 -259l-108 -614h-248l102 585q14 85 -24.5 132.5t-109.5 47.5q-79 0 -141 -51.5t-79 -125.5l-103 -588h-248l168 963h248l-14 -79q115 97 259 97z" />
<glyph unicode="o" horiz-adv-x="1145" d="M501 -18q-146 0 -255 69t-157.5 187.5t-23.5 260.5q23 133 106.5 243.5t208.5 174.5t264 64q145 0 254 -69t157.5 -188t23.5 -261q-23 -132 -107 -242.5t-208.5 -174.5t-262.5 -64zM507 205q119 0 217.5 85t120.5 209q20 111 -40 185t-167 74q-121 0 -219 -84.5 t-120 -210.5q-20 -112 39.5 -185t168.5 -73z" />
<glyph unicode="p" horiz-adv-x="1258" d="M795 982q129 0 228.5 -67.5t144.5 -187.5t19 -265q-23 -136 -104.5 -247.5t-196 -174t-235.5 -62.5q-213 0 -312 160l-109 -630h-248l256 1455h231l-15 -126q140 145 341 145zM944 498q16 109 -49.5 186t-174.5 77q-122 0 -218.5 -87.5t-113.5 -211.5q-16 -110 49 -186.5 t175 -76.5q122 0 218.5 87t113.5 212z" />
<glyph unicode="q" horiz-adv-x="1256" d="M956 963h232l-256 -1455h-248l104 601q-138 -131 -325 -131q-129 0 -228.5 67.5t-144.5 187.5t-20 265q23 136 105 247.5t196.5 174t235.5 62.5q220 0 317 -168zM532 199q122 0 220.5 87t117.5 212q17 110 -46.5 186.5t-172.5 76.5q-122 0 -220.5 -87.5t-117.5 -211.5 q-18 -110 45.5 -186.5t173.5 -76.5z" />
<glyph unicode="r" horiz-adv-x="791" d="M714 982q85 0 154 -52l-110 -203q-52 29 -103 29q-91 0 -163 -80t-96 -220l-80 -456h-248l168 963h249l-30 -145q45 74 112 119t147 45z" />
<glyph unicode="s" horiz-adv-x="920" d="M390 -19q-218 0 -395 129l130 165q48 -43 121.5 -71.5t143.5 -28.5q76 0 128.5 34t62.5 90q3 15 0 27t-12.5 21t-20 16t-30 13.5t-35.5 11.5t-42.5 13t-45.5 15q-49 13 -85 25.5t-76.5 36t-63.5 52.5t-34 74.5t-1 102.5q24 133 141 204t274 71q194 0 339 -104l-128 -149 q-49 35 -112.5 54t-116.5 19q-69 0 -115.5 -28.5t-54.5 -76.5q-3 -14 0.5 -26t14.5 -21.5t23 -16.5t32 -14t36.5 -12t42.5 -12t43 -13q69 -16 117 -37t87.5 -55.5t53.5 -87t1 -122.5q-25 -144 -138.5 -221.5t-284.5 -77.5z" />
<glyph unicode="t" horiz-adv-x="680" d="M736 963l-35 -201h-186l-134 -762h-249l133 762h-189l35 201h189l61 346h250l-61 -346h186z" />
<glyph unicode="u" horiz-adv-x="1087" d="M468 -19q-201 0 -297.5 106t-66.5 282l104 594h248l-103 -589q-15 -86 18 -130.5t102 -44.5q82 0 144 52t77 140l99 572h249l-107 -611q-31 -175 -153.5 -273t-313.5 -98z" />
<glyph unicode="v" horiz-adv-x="1019" d="M830 963h269l-588 -963h-173l-247 963h261l126 -636z" />
<glyph unicode="w" horiz-adv-x="1543" d="M1364 963h258l-508 -963h-202l-113 636l-341 -636h-202l-164 963h251l89 -634l339 634h165l112 -638z" />
<glyph unicode="x" horiz-adv-x="1140" d="M-72 0l493 481l-315 482h289l196 -315l315 315h306l-494 -483l316 -480h-291l-195 313l-312 -313h-308z" />
<glyph unicode="y" horiz-adv-x="1051" d="M859 963h267l-839 -1455h-262l289 506l-222 949h269l127 -700z" />
<glyph unicode="z" horiz-adv-x="974" d="M1006 963l-620 -763h478l-35 -200h-872l617 762h-450l35 201h847z" />
<glyph unicode="{" horiz-adv-x="646" d="M309 -501q-122 0 -185 90.5t-40 218.5l84 481q12 67 15.5 105.5t2.5 71.5t-15 52.5t-35 35t-59 33.5l11 159q73 29 111 61t62 88.5t43 161.5l85 480q23 130 108 211t207 81h121l-34 -194h-55q-53 0 -91 -42t-50 -116l-79 -450q-10 -59 -20.5 -99t-30 -84t-45.5 -75 t-67 -60t-97 -51q71 -34 106 -89.5t36 -125.5t-13 -159l-80 -452q-15 -76 0 -107t71 -31h72l-35 -195h-104z" />
<glyph unicode="|" horiz-adv-x="619" d="M92 -307l325 1843h157l-325 -1843h-157z" />
<glyph unicode="}" horiz-adv-x="647" d="M-115 -501l35 195h55q112 0 141 155l79 452q13 74 27.5 122t42.5 98t74.5 86t115.5 64q-72 33 -107 88.5t-35.5 125.5t13.5 159l80 450q12 75 -3.5 108t-67.5 33h-72l33 194h105q122 0 185 -90t40 -219l-85 -480q-10 -55 -14.5 -90t-4 -66.5t6.5 -50t20.5 -36.5t33.5 -30 t51 -26l-11 -159q-74 -30 -112.5 -61.5t-62.5 -87.5t-42 -161l-84 -481q-23 -128 -108.5 -210t-206.5 -82h-122z" />
<glyph unicode="~" horiz-adv-x="1384" d="M902 323q-28 0 -56 5t-48.5 11.5t-44.5 20t-37.5 22t-34 27t-27.5 25t-25 25.5t-20 21q-58 61 -108 61q-68 0 -104.5 -58.5t-35.5 -142.5h-191q-9 175 82.5 283t252.5 108q86 0 144.5 -35t117.5 -112q20 -24 32.5 -37t36 -25.5t49.5 -12.5q61 0 101 54.5t34 143.5h189 q15 -163 -73 -273.5t-234 -110.5z" />
<glyph unicode="&#xa1;" horiz-adv-x="665" d="M396 749q-67 0 -107 49t-27 117q8 53 53.5 91t99.5 38q67 0 107 -48.5t29 -116.5q-10 -55 -55 -92.5t-100 -37.5zM32 -512l186 1049h249l-187 -1049h-248z" />
<glyph unicode="&#xa2;" horiz-adv-x="1202" d="M850 1436l-46 -262h-149l47 262h148zM564 325q89 0 166 48t121 124l197 -107q-71 -120 -186 -195.5t-247 -91.5l-19 -105h-148l19 107q-187 29 -287 173t-66 338q36 203 202 342.5t377 139.5q160 0 273 -85.5t148 -222.5l-222 -73q-21 73 -77.5 114t-135.5 41 q-123 0 -218.5 -84.5t-113.5 -207.5q-17 -109 44.5 -182t172.5 -73z" />
<glyph unicode="&#xa3;" horiz-adv-x="1535" d="M606 641l-74 -418h727l-38 -223h-1133l34 192l167 19l76 430h-165l37 206h164l35 197q39 227 202 369.5t380 142.5q167 0 291 -104.5t144 -261.5l-239 -81q2 90 -58.5 148t-147.5 58q-128 0 -219.5 -80t-114.5 -208l-32 -180h381l-37 -206h-380z" />
<glyph unicode="&#xa4;" horiz-adv-x="1382" d="M690 267q-143 0 -263 80l-109 -109l-131 139l107 106q-80 114 -80 260q0 147 80 261l-105 104l131 139l109 -110q118 83 264 83q140 0 259 -81l106 106l135 -133l-106 -106q80 -116 80 -263q0 -146 -80 -263l105 -103l-132 -139l-108 109q-120 -80 -262 -80zM690 454 q121 0 205 85.5t84 204.5t-85 203t-204 84q-120 0 -204.5 -86t-84.5 -206q0 -121 85 -203t204 -82z" />
<glyph unicode="&#xa5;" horiz-adv-x="1583" d="M1524 1536l-658 -786h357l-46 -178h-362l-27 -155h347l-44 -170h-333l-43 -247h-257l43 247h-393l44 170h379l27 155h-365l45 178h337l-382 786h295l264 -575l470 575h302z" />
<glyph unicode="&#xa6;" horiz-adv-x="619" d="M286 799l131 737h157l-131 -737h-157zM92 -307l131 737h157l-131 -737h-157z" />
<glyph unicode="&#xa7;" horiz-adv-x="1217" d="M433 -620q-135 4 -241 67t-165 159l195 134q70 -130 223 -136q98 -2 175 49t96 146q11 50 -5.5 90t-53 67.5t-85.5 54.5t-104.5 50t-109.5 54t-100.5 67.5t-78.5 89.5t-42 120.5t9 160.5q43 182 194 298q-123 116 -82 315q20 96 72 173t123 125.5t155.5 72.5t172.5 21 q134 -4 238 -66.5t164 -159.5l-194 -134q-70 129 -221 136q-99 2 -176 -48.5t-97 -146.5q-11 -50 5.5 -90t52.5 -67.5t85.5 -54.5t104.5 -50t109.5 -54t100.5 -67.5t78 -89.5t42 -120.5t-8 -160.5q-41 -183 -193 -298q119 -119 80 -315q-20 -96 -72 -173t-122.5 -125.5 t-154 -72.5t-170.5 -21zM653 228q66 20 115 74.5t63 124.5q10 49 -2 88t-53 71.5t-72.5 50.5t-99.5 51q-30 14 -45 22q-68 -21 -116.5 -75t-61.5 -124q-4 -26 -4.5 -48t8 -42t19 -36.5t28 -32t36 -28t42.5 -25.5t47 -24.5t50 -24.5q31 -15 46 -22z" />
<glyph unicode="&#xa8;" horiz-adv-x="902" d="M380 1135q-61 0 -98 45t-26 107q8 49 48.5 82.5t89.5 33.5q62 0 99 -44.5t26 -107.5q-9 -48 -49.5 -82t-89.5 -34zM785 1135q-61 0 -98 45t-26 107q8 49 49 82.5t90 33.5q62 0 98.5 -44t25.5 -108q-9 -48 -49 -82t-90 -34z" />
<glyph unicode="&#xa9;" horiz-adv-x="1811" d="M906 -20q-160 0 -306 62.5t-252 168t-168.5 251.5t-62.5 306t62.5 306t168.5 251.5t252 168t306 62.5t306 -62.5t251.5 -168t168 -251.5t62.5 -306t-62.5 -306t-168 -251.5t-251.5 -168t-306 -62.5zM906 116q180 0 330 86.5t236.5 236.5t86.5 329t-86.5 329t-236.5 236.5 t-330 86.5q-135 0 -255.5 -51t-207.5 -138t-138 -208t-51 -255t51 -255t138 -208t207.5 -138t255.5 -51zM909 330q-182 0 -310 128t-128 310q0 183 128 310.5t310 127.5q93 0 180 -39.5t146 -107.5l-107 -89q-41 47 -98 72.5t-121 25.5q-125 0 -211 -86t-86 -214 q0 -126 86 -212t211 -86q134 0 219 99l107 -91q-59 -68 -146.5 -108t-179.5 -40z" />
<glyph unicode="&#xaa;" horiz-adv-x="894" d="M789 1536h140l-109 -614h-133l21 110q-98 -123 -243 -123q-133 0 -210.5 98.5t-52.5 239.5q22 125 121.5 213t220.5 88q78 0 135 -36t86 -98zM504 1039q85 0 152 61t78 147q9 71 -35 120t-116 49q-85 0 -152 -60t-78 -145q-9 -71 35 -121.5t116 -50.5z" />
<glyph unicode="&#xab;" horiz-adv-x="1062" d="M294 104l-249 377l374 377h209l-382 -377l241 -377h-193zM728 104l-248 377l374 377h211l-381 -377l240 -377h-196z" />
<glyph unicode="&#xac;" horiz-adv-x="1629" d="M1220 209v524h-1112v182h1292v-706h-180z" />
<glyph unicode="&#xad;" horiz-adv-x="1013" d="M130 381l34 193h717l-34 -193h-717z" />
<glyph unicode="&#xae;" horiz-adv-x="1811" d="M906 1556q160 0 306 -62.5t251.5 -168t168 -251.5t62.5 -306t-62.5 -306t-168 -251.5t-251.5 -168t-306 -62.5t-306 62.5t-252 168t-168.5 251.5t-62.5 306t62.5 306t168.5 251.5t252 168t306 62.5zM906 116q180 0 330 86.5t236.5 236.5t86.5 329t-86.5 329t-236.5 236.5 t-330 86.5q-135 0 -255.5 -51t-207.5 -138t-138 -208t-51 -255t51 -255t138 -208t207.5 -138t255.5 -51zM1257 965q0 -82 -42.5 -147t-112.5 -96l183 -418h-163l-167 394h-179v-394h-151v929h363q113 0 191 -78t78 -190zM776 1096v-265h192q62 0 102 35.5t40 95.5 q0 59 -40.5 96.5t-101.5 37.5h-192z" />
<glyph unicode="&#xaf;" horiz-adv-x="931" d="M279 1218l27 153h634l-27 -153h-634z" />
<glyph unicode="&#xb0;" horiz-adv-x="929" d="M464 1079q-128 0 -218 90t-90 217q0 128 90 218t218 90q127 0 217 -90t90 -218q0 -127 -90 -217t-217 -90zM464 1201q77 0 131 54t54 131q0 78 -54 132t-131 54q-78 0 -132 -54t-54 -132q0 -77 54 -131t132 -54z" />
<glyph unicode="&#xb2;" horiz-adv-x="710" d="M762 1257q-18 -106 -104.5 -219.5t-252.5 -252.5h302l-30 -171h-625l6 77q214 184 332 303t153.5 174.5t44.5 107.5q11 61 -14 84t-68 22q-65 -1 -106 -42t-49 -96l-181 17q21 132 114.5 210.5t224.5 78.5q134 0 204.5 -80.5t48.5 -212.5z" />
<glyph unicode="&#xb3;" horiz-adv-x="692" d="M732 1281q-18 -102 -104 -160q53 -41 76 -103t9 -137q-21 -117 -120 -198t-224 -81q-133 0 -211.5 81t-58.5 200l184 -15q-7 -43 17.5 -67t67.5 -24q61 0 109 42.5t59 104.5q9 46 -17 69.5t-80 23.5h-98l28 163h69q43 0 82 35.5t48 83.5q6 35 -13.5 55t-55.5 20 q-45 0 -80 -26t-41 -61l-179 20q19 109 102 175t195 66q120 0 188 -76.5t48 -190.5z" />
<glyph unicode="&#xb4;" horiz-adv-x="502" d="M246 1131l-79 101l359 331l105 -139z" />
<glyph unicode="&#xb5;" horiz-adv-x="1218" d="M902 963h247l-168 -963h-247l19 107q-131 -125 -295 -125q-114 0 -201 63l-92 -526h-181l254 1444h248l-100 -573q-15 -83 28.5 -137.5t122.5 -54.5q95 0 174.5 62t93.5 147z" />
<glyph unicode="&#xb6;" horiz-adv-x="1173" d="M353 -307l204 1157h-40q-171 0 -255 95t-54 267q28 159 135 241.5t278 82.5h186l-326 -1843h-128zM673 -307l326 1843h129l-326 -1843h-129z" />
<glyph unicode="&#xb7;" horiz-adv-x="595" d="M337 616q-55 0 -89 40.5t-24 98.5q8 42 44.5 73t78.5 31q54 0 89.5 -42.5t25.5 -97.5q-8 -43 -45 -73t-80 -30z" />
<glyph unicode="&#xb8;" horiz-adv-x="598" d="M142 -532q-80 0 -145.5 46.5t-80.5 109.5l116 25q11 -26 40.5 -41.5t58.5 -15.5q45 0 84 33.5t47 80.5q9 54 -36.5 67t-125.5 -20l-96 62l129 189h134l-102 -128q104 19 168.5 -42t47.5 -164q-16 -86 -85 -144t-154 -58z" />
<glyph unicode="&#xb9;" horiz-adv-x="462" d="M181 614l132 750h-130l29 172h313l-161 -922h-183z" />
<glyph unicode="&#xba;" horiz-adv-x="801" d="M491 909q-147 0 -232.5 98.5t-61.5 239.5q23 126 131 213.5t242 87.5q148 0 234.5 -98.5t61.5 -238.5q-23 -127 -131 -214.5t-244 -87.5zM492 1039q84 0 151 61t78 147q9 70 -35 119.5t-115 49.5q-85 0 -153 -60t-78 -145q-9 -71 35.5 -121.5t116.5 -50.5z" />
<glyph unicode="&#xbb;" horiz-adv-x="1059" d="M-7 104l382 377l-241 377h193l249 -377l-374 -377h-209zM428 104l381 377l-240 377h196l248 -377l-374 -377h-211z" />
<glyph unicode="&#xbc;" horiz-adv-x="1756" d="M1382 1536h199l-1341 -1536h-202zM395 614h-182l134 751h-131l30 171h313zM1655 922l-98 -556h79l-30 -171h-79l-34 -195h-183l34 195h-438l18 115l487 612h244zM1169 366h205l62 354z" />
<glyph unicode="&#xbd;" horiz-adv-x="1772" d="M1382 1536h199l-1341 -1536h-202zM395 614h-182l134 751h-131l30 171h313zM1678 662q-9 -117 -106.5 -234.5t-286.5 -256.5h337l-29 -171h-625l6 77q216 187 333 303.5t154 174t43 107.5q7 57 -19.5 82t-73.5 24q-58 -1 -97.5 -43t-46.5 -95l-181 17q20 134 110.5 211.5 t226.5 77.5q124 0 196 -75t59 -199z" />
<glyph unicode="&#xbe;" horiz-adv-x="1948" d="M737 881q-21 -117 -120 -198t-225 -81q-132 0 -211 81.5t-58 200.5l184 -16q-7 -43 17 -66.5t67 -23.5q61 0 109.5 42t59.5 104q9 46 -17 69.5t-81 23.5h-97l27 163h70q44 0 82.5 35.5t46.5 84.5q6 34 -14 54.5t-56 20.5q-45 0 -79 -26t-41 -62l-179 20q20 109 103 175 t194 66q120 0 188.5 -76.5t48.5 -190.5q-18 -101 -104 -160q52 -41 75 -103t10 -137zM1601 1536h200l-1341 -1536h-202zM1874 922l-97 -556h79l-31 -171h-78l-34 -195h-184l34 195h-437l18 115l487 612h243zM1389 366h204l62 353z" />
<glyph unicode="&#xbf;" horiz-adv-x="1089" d="M609 751q-67 0 -107 49t-27 117q9 54 53.5 92t99.5 38q68 0 108 -49t28 -117q-10 -54 -55 -92t-100 -38zM393 -524q-211 0 -330 129.5t-86 322.5q14 77 44.5 136t69 95t82.5 63.5t86.5 49t79 44.5t63 58t34.5 81l19 107h224l-22 -122q-14 -78 -44.5 -135t-69 -89.5 t-82.5 -57.5t-87.5 -46.5t-80.5 -47t-65 -69t-39 -103.5q-16 -93 43 -150.5t164 -57.5q119 0 209.5 76t114.5 191l216 -17q-37 -203 -188.5 -330.5t-354.5 -127.5z" />
<glyph unicode="&#xc0;" horiz-adv-x="1408" d="M1025 1744l-98 -97l-299 289l145 139zM1039 0l-43 240h-667l-128 -240h-284l873 1536h195l334 -1536h-280zM448 462h509l-128 714z" />
<glyph unicode="&#xc1;" horiz-adv-x="1408" d="M1277 1936l-385 -293l-79 101l359 331zM1039 0l-43 240h-667l-128 -240h-284l873 1536h195l334 -1536h-280zM448 462h509l-128 714z" />
<glyph unicode="&#xc2;" horiz-adv-x="1408" d="M954 1860l-252 -219l-102 67l277 299h184l179 -299l-115 -67zM1039 0l-43 240h-667l-128 -240h-284l873 1536h195l334 -1536h-280zM448 462h509l-128 714z" />
<glyph unicode="&#xc3;" horiz-adv-x="1408" d="M814 1796q-48 0 -82.5 -46.5t-47.5 -114.5l-137 17q23 129 93 209.5t175 80.5q43 0 76.5 -17t50 -36t36.5 -51q13 -20 21 -29.5t24.5 -19.5t37.5 -10q47 0 79 43t45 118l137 -18q-24 -132 -92.5 -210.5t-168.5 -78.5q-48 0 -83.5 17.5t-52 36.5t-34.5 50 q-13 21 -21.5 31.5t-23 19t-32.5 8.5zM790 1536h195l334 -1536h-280l-43 240h-667l-128 -240h-284zM448 462h509l-128 714z" />
<glyph unicode="&#xc4;" horiz-adv-x="1408" d="M724 1647q-61 0 -98 45t-27 107q9 48 50.5 82t89.5 34q61 0 98.5 -45t26.5 -108q-9 -48 -50 -81.5t-90 -33.5zM1130 1647q-62 0 -99 44.5t-26 107.5q9 49 49.5 82.5t89.5 33.5q62 0 98.5 -44.5t26.5 -108.5q-9 -48 -49.5 -81.5t-89.5 -33.5zM1039 0l-43 240h-667 l-128 -240h-284l873 1536h195l334 -1536h-280zM448 462h509l-128 714z" />
<glyph unicode="&#xc5;" horiz-adv-x="1408" d="M931 1665q-103 0 -164.5 74.5t-43.5 176.5q16 88 91 151t165 63q101 0 160.5 -73.5t41.5 -176.5q-15 -89 -88.5 -152t-161.5 -63zM836 1880q-3 -45 23 -73.5t70 -28.5q57 0 99 39.5t46 98.5q5 42 -23 73.5t-71 31.5q-55 0 -97 -42t-47 -99zM1039 0l-43 240h-667 l-128 -240h-284l873 1536h195l334 -1536h-280zM448 462h509l-128 714z" />
<glyph unicode="&#xc6;" horiz-adv-x="1903" d="M1943 1300h-643l-74 -414h557l-41 -234h-557l-73 -416h644l-42 -236h-886l60 342h-462l-191 -342h-294l887 1536h1157zM926 557l134 761h-87l-426 -761h379z" />
<glyph unicode="&#xc7;" horiz-adv-x="1503" d="M1429 247q-125 -119 -281 -189.5t-321 -76.5l-83 -105q104 19 168.5 -42t47.5 -164q-16 -86 -85 -144t-154 -58q-80 0 -145.5 46.5t-80.5 109.5l116 25q11 -26 40.5 -41.5t58.5 -15.5q45 0 84 33.5t47 80.5q9 54 -36.5 67t-125.5 -20l-96 62l117 171q-144 18 -262.5 88 t-194 175.5t-106 245.5t-3.5 292q28 157 114 299.5t207.5 245.5t275 163.5t310.5 60.5q181 0 326.5 -75t234.5 -207l-218 -141q-56 85 -147 130.5t-206 45.5q-151 0 -290 -74t-233.5 -203t-120.5 -283q-24 -142 22.5 -259.5t151.5 -185.5t248 -68q120 0 234.5 48t205.5 133z " />
<glyph unicode="&#xc8;" horiz-adv-x="1195" d="M963 1744l-98 -97l-299 289l145 139zM1237 1303h-644l-73 -418h558l-42 -234h-558l-73 -418h644l-40 -233h-901l270 1536h901z" />
<glyph unicode="&#xc9;" horiz-adv-x="1195" d="M1215 1936l-385 -293l-79 101l359 331zM1237 1303h-644l-73 -418h558l-42 -234h-558l-73 -418h644l-40 -233h-901l270 1536h901z" />
<glyph unicode="&#xca;" horiz-adv-x="1195" d="M892 1860l-252 -219l-102 67l277 299h184l179 -299l-115 -67zM1237 1303h-644l-73 -418h558l-42 -234h-558l-73 -418h644l-40 -233h-901l270 1536h901z" />
<glyph unicode="&#xcb;" horiz-adv-x="1195" d="M662 1647q-61 0 -98 45t-27 107q9 48 50.5 82t89.5 34q61 0 98.5 -45t26.5 -108q-9 -48 -50 -81.5t-90 -33.5zM1068 1647q-62 0 -99 44.5t-26 107.5q9 49 49.5 82.5t89.5 33.5q62 0 98.5 -44.5t26.5 -108.5q-9 -48 -49.5 -81.5t-89.5 -33.5zM1237 1303h-644l-73 -418h558 l-42 -234h-558l-73 -418h644l-40 -233h-901l270 1536h901z" />
<glyph unicode="&#xcc;" horiz-adv-x="640" d="M541 1647l-299 289l145 139l252 -331zM108 0l270 1536h257l-270 -1536h-257z" />
<glyph unicode="&#xcd;" horiz-adv-x="640" d="M506 1643l-79 101l359 331l105 -139zM108 0l270 1536h257l-270 -1536h-257z" />
<glyph unicode="&#xce;" horiz-adv-x="640" d="M316 1641l-102 67l277 299h184l179 -299l-115 -67l-171 219zM108 0l270 1536h257l-270 -1536h-257z" />
<glyph unicode="&#xcf;" horiz-adv-x="640" d="M338 1647q-61 0 -98 45t-27 107q9 48 50.5 82t89.5 34q61 0 98.5 -45t26.5 -108q-9 -48 -50 -81.5t-90 -33.5zM744 1647q-62 0 -99 44.5t-26 107.5q9 49 49.5 82.5t89.5 33.5q62 0 98.5 -44.5t26.5 -108.5q-9 -48 -49.5 -81.5t-89.5 -33.5zM108 0l270 1536h257 l-270 -1536h-257z" />
<glyph unicode="&#xd0;" horiz-adv-x="1514" d="M834 1536q171 0 307.5 -62t219.5 -168.5t115.5 -250.5t3.5 -305q-27 -155 -106.5 -292t-196 -238.5t-271.5 -160.5t-326 -59h-472l120 683h-151l28 158h151l122 695h456zM1223 786q26 147 -16 263t-148 183t-259 67h-209l-80 -458h253l-28 -158h-253l-78 -446h191 q232 0 408.5 156.5t218.5 392.5z" />
<glyph unicode="&#xd1;" horiz-adv-x="1599" d="M891 1796q-48 0 -82.5 -46.5t-47.5 -114.5l-137 17q23 129 93 209.5t175 80.5q43 0 76.5 -17t50 -36t36.5 -51q13 -20 21 -29.5t24.5 -19.5t37.5 -10q47 0 79 43t45 118l137 -18q-24 -132 -92.5 -210.5t-168.5 -78.5q-48 0 -83.5 17.5t-52 36.5t-34.5 50 q-13 21 -21.5 31.5t-23 19t-32.5 8.5zM1358 1536h257l-271 -1536h-135l-682 1038l-182 -1038h-256l270 1536h134l683 -1035z" />
<glyph unicode="&#xd2;" horiz-adv-x="1739" d="M1092 1647l-299 289l145 139l252 -331zM798 -20q-164 0 -301.5 63.5t-226.5 171.5t-126.5 257.5t-8.5 313.5q37 210 171.5 387.5t330 280t406.5 102.5q164 0 301.5 -63.5t226.5 -171.5t126.5 -257.5t8.5 -313.5q-37 -210 -171.5 -387.5t-330 -280t-406.5 -102.5zM815 230 q152 0 290 73.5t230.5 201.5t118.5 281q24 144 -23 263.5t-153.5 188t-250.5 68.5q-152 0 -290 -73.5t-231 -201.5t-119 -281q-24 -144 23.5 -263.5t154 -188t250.5 -68.5z" />
<glyph unicode="&#xd3;" horiz-adv-x="1739" d="M1057 1643l-79 101l359 331l105 -139zM798 -20q-164 0 -301.5 63.5t-226.5 171.5t-126.5 257.5t-8.5 313.5q37 210 171.5 387.5t330 280t406.5 102.5q164 0 301.5 -63.5t226.5 -171.5t126.5 -257.5t8.5 -313.5q-37 -210 -171.5 -387.5t-330 -280t-406.5 -102.5zM815 230 q152 0 290 73.5t230.5 201.5t118.5 281q24 144 -23 263.5t-153.5 188t-250.5 68.5q-152 0 -290 -73.5t-231 -201.5t-119 -281q-24 -144 23.5 -263.5t154 -188t250.5 -68.5z" />
<glyph unicode="&#xd4;" horiz-adv-x="1739" d="M867 1641l-102 67l277 299h184l179 -299l-115 -67l-171 219zM798 -20q-164 0 -301.5 63.5t-226.5 171.5t-126.5 257.5t-8.5 313.5q37 210 171.5 387.5t330 280t406.5 102.5q164 0 301.5 -63.5t226.5 -171.5t126.5 -257.5t8.5 -313.5q-37 -210 -171.5 -387.5t-330 -280 t-406.5 -102.5zM815 230q152 0 290 73.5t230.5 201.5t118.5 281q24 144 -23 263.5t-153.5 188t-250.5 68.5q-152 0 -290 -73.5t-231 -201.5t-119 -281q-24 -144 23.5 -263.5t154 -188t250.5 -68.5z" />
<glyph unicode="&#xd5;" horiz-adv-x="1739" d="M1226 1633q-48 0 -83.5 17.5t-52 36.5t-34.5 50q-13 21 -21.5 31.5t-23 19t-32.5 8.5q-48 0 -82.5 -46.5t-47.5 -114.5l-137 17q23 129 93 209.5t175 80.5q43 0 76.5 -17t50 -36t36.5 -51q13 -20 21 -29.5t24.5 -19.5t37.5 -10q47 0 79 43t45 118l137 -18 q-24 -132 -92.5 -210.5t-168.5 -78.5zM798 -20q-164 0 -301.5 63.5t-226.5 171.5t-126.5 257.5t-8.5 313.5q37 210 171.5 387.5t330 280t406.5 102.5q164 0 301.5 -63.5t226.5 -171.5t126.5 -257.5t8.5 -313.5q-37 -210 -171.5 -387.5t-330 -280t-406.5 -102.5zM815 230 q152 0 290 73.5t230.5 201.5t118.5 281q24 144 -23 263.5t-153.5 188t-250.5 68.5q-152 0 -290 -73.5t-231 -201.5t-119 -281q-24 -144 23.5 -263.5t154 -188t250.5 -68.5z" />
<glyph unicode="&#xd6;" horiz-adv-x="1739" d="M889 1647q-61 0 -98 45t-27 107q9 48 50.5 82t89.5 34q61 0 98.5 -45t26.5 -108q-9 -48 -50 -81.5t-90 -33.5zM1295 1647q-62 0 -99 44.5t-26 107.5q9 49 49.5 82.5t89.5 33.5q62 0 98.5 -44.5t26.5 -108.5q-9 -48 -49.5 -81.5t-89.5 -33.5zM798 -20q-164 0 -301.5 63.5 t-226.5 171.5t-126.5 257.5t-8.5 313.5q37 210 171.5 387.5t330 280t406.5 102.5q164 0 301.5 -63.5t226.5 -171.5t126.5 -257.5t8.5 -313.5q-37 -210 -171.5 -387.5t-330 -280t-406.5 -102.5zM815 230q152 0 290 73.5t230.5 201.5t118.5 281q24 144 -23 263.5t-153.5 188 t-250.5 68.5q-152 0 -290 -73.5t-231 -201.5t-119 -281q-24 -144 23.5 -263.5t154 -188t250.5 -68.5z" />
<glyph unicode="&#xd7;" horiz-adv-x="1067" d="M266 272l-143 145l267 266l-267 266l143 144l268 -265l266 265l145 -144l-268 -266l268 -266l-145 -145l-266 267z" />
<glyph unicode="&#xd8;" horiz-adv-x="1739" d="M1534 1361q111 -112 157.5 -271.5t14.5 -339.5q-37 -210 -171.5 -387.5t-330 -280t-406.5 -102.5q-213 0 -377 103l-160 -184l-124 78l171 197q-112 112 -158.5 271.5t-14.5 340.5q37 210 171.5 387.5t330 280t406.5 102.5q213 0 378 -104l161 184l121 -80zM387 750 q-18 -112 6.5 -209t87.5 -169l768 882q-99 52 -222 52q-152 0 -290 -73.5t-231 -201.5t-119 -281zM1454 786q18 111 -6.5 208.5t-85.5 169.5l-768 -882q99 -52 221 -52q152 0 290 73.5t230.5 201.5t118.5 281z" />
<glyph unicode="&#xd9;" horiz-adv-x="1538" d="M989 1647l-299 289l145 139l252 -331zM695 -20q-176 0 -307 70t-191 194.5t-33 278.5l180 1013h256l-174 -984q-26 -151 52 -243t225 -92q159 0 282.5 99.5t151.5 252.5l170 967h257l-183 -1030q-27 -154 -125 -274.5t-245 -186t-316 -65.5z" />
<glyph unicode="&#xda;" horiz-adv-x="1538" d="M954 1643l-79 101l359 331l105 -139zM695 -20q-176 0 -307 70t-191 194.5t-33 278.5l180 1013h256l-174 -984q-26 -151 52 -243t225 -92q159 0 282.5 99.5t151.5 252.5l170 967h257l-183 -1030q-27 -154 -125 -274.5t-245 -186t-316 -65.5z" />
<glyph unicode="&#xdb;" horiz-adv-x="1538" d="M764 1641l-102 67l277 299h184l179 -299l-115 -67l-171 219zM695 -20q-176 0 -307 70t-191 194.5t-33 278.5l180 1013h256l-174 -984q-26 -151 52 -243t225 -92q159 0 282.5 99.5t151.5 252.5l170 967h257l-183 -1030q-27 -154 -125 -274.5t-245 -186t-316 -65.5z" />
<glyph unicode="&#xdc;" horiz-adv-x="1538" d="M786 1647q-61 0 -98 45t-27 107q9 48 50.5 82t89.5 34q61 0 98.5 -45t26.5 -108q-9 -48 -50 -81.5t-90 -33.5zM1192 1647q-62 0 -99 44.5t-26 107.5q9 49 49.5 82.5t89.5 33.5q62 0 98.5 -44.5t26.5 -108.5q-9 -48 -49.5 -81.5t-89.5 -33.5zM695 -20q-176 0 -307 70 t-191 194.5t-33 278.5l180 1013h256l-174 -984q-26 -151 52 -243t225 -92q159 0 282.5 99.5t151.5 252.5l170 967h257l-183 -1030q-27 -154 -125 -274.5t-245 -186t-316 -65.5z" />
<glyph unicode="&#xdd;" horiz-adv-x="1357" d="M1250 1936l-385 -293l-79 101l359 331zM1530 1536l-683 -815l-126 -721h-257l128 728l-393 808h295l264 -575l470 575h302z" />
<glyph unicode="&#xde;" horiz-adv-x="1290" d="M931 1317q121 0 213.5 -62t134.5 -169.5t20 -235.5q-32 -176 -178 -296.5t-330 -120.5h-361l-75 -433h-248l76 433h-1l149 842l7 42l38 215h248l-38 -215h345zM1068 881q15 92 -32 149t-149 57h-342l-74 -424h295q126 0 205.5 60t96.5 158z" />
<glyph unicode="&#xdf;" horiz-adv-x="1319" d="M1271 1089q-32 -180 -185 -300q90 -65 131 -168t20 -226q-32 -175 -166.5 -287.5t-307.5 -106.5l-188 -1l40 232h126q87 2 162.5 60t92.5 154q17 93 -41.5 157t-162.5 64h-103l36 205h30q97 0 182.5 73.5t104.5 174.5q16 87 -40.5 142.5t-160.5 55.5q-127 0 -223.5 -80 t-120.5 -214l-180 -1024h-249l185 1049q25 147 111 259t210.5 170t268.5 58q219 0 340.5 -127.5t87.5 -319.5z" />
<glyph unicode="&#xe0;" horiz-adv-x="1256" d="M804 1173l-98 -97l-299 289l145 139zM940 963h248l-168 -963h-232l15 125q-141 -144 -340 -144q-129 0 -228.5 67.5t-144.5 187.5t-20 265q24 136 105.5 247.5t196 173.5t235.5 62q213 0 310 -157zM532 202q123 0 221 87t117 212q18 110 -45.5 186t-173.5 76 q-121 0 -219.5 -87t-118.5 -211q-17 -110 46.5 -186.5t172.5 -76.5z" />
<glyph unicode="&#xe1;" horiz-adv-x="1256" d="M1056 1365l-385 -293l-79 101l359 331zM940 963h248l-168 -963h-232l15 125q-141 -144 -340 -144q-129 0 -228.5 67.5t-144.5 187.5t-20 265q24 136 105.5 247.5t196 173.5t235.5 62q213 0 310 -157zM532 202q123 0 221 87t117 212q18 110 -45.5 186t-173.5 76 q-121 0 -219.5 -87t-118.5 -211q-17 -110 46.5 -186.5t172.5 -76.5z" />
<glyph unicode="&#xe2;" horiz-adv-x="1256" d="M733 1289l-252 -219l-102 67l277 299h184l179 -299l-115 -67zM940 963h248l-168 -963h-232l15 125q-141 -144 -340 -144q-129 0 -228.5 67.5t-144.5 187.5t-20 265q24 136 105.5 247.5t196 173.5t235.5 62q213 0 310 -157zM532 202q123 0 221 87t117 212 q18 110 -45.5 186t-173.5 76q-121 0 -219.5 -87t-118.5 -211q-17 -110 46.5 -186.5t172.5 -76.5z" />
<glyph unicode="&#xe3;" horiz-adv-x="1256" d="M593 1225q-48 0 -82.5 -46.5t-47.5 -114.5l-137 17q23 129 93 209.5t175 80.5q43 0 76.5 -17t50 -36t36.5 -51q13 -20 21 -29.5t24.5 -19.5t37.5 -10q47 0 79 43t45 118l137 -18q-24 -132 -92.5 -210.5t-168.5 -78.5q-48 0 -83.5 17.5t-52 36.5t-34.5 50 q-13 21 -21.5 31.5t-23 19t-32.5 8.5zM940 963h248l-168 -963h-232l15 125q-141 -144 -340 -144q-129 0 -228.5 67.5t-144.5 187.5t-20 265q24 136 105.5 247.5t196 173.5t235.5 62q213 0 310 -157zM532 202q123 0 221 87t117 212q18 110 -45.5 186t-173.5 76 q-121 0 -219.5 -87t-118.5 -211q-17 -110 46.5 -186.5t172.5 -76.5z" />
<glyph unicode="&#xe4;" horiz-adv-x="1256" d="M514 1137q-61 0 -98 45t-26 107q8 49 48.5 82.5t89.5 33.5q62 0 99 -44.5t26 -107.5q-9 -48 -49.5 -82t-89.5 -34zM919 1137q-61 0 -98 45t-26 107q8 49 49 82.5t90 33.5q62 0 98.5 -44t25.5 -108q-9 -48 -49 -82t-90 -34zM940 963h248l-168 -963h-232l15 125 q-141 -144 -340 -144q-129 0 -228.5 67.5t-144.5 187.5t-20 265q24 136 105.5 247.5t196 173.5t235.5 62q213 0 310 -157zM532 202q123 0 221 87t117 212q18 110 -45.5 186t-173.5 76q-121 0 -219.5 -87t-118.5 -211q-17 -110 46.5 -186.5t172.5 -76.5z" />
<glyph unicode="&#xe5;" horiz-adv-x="1256" d="M725 1110q-103 0 -164 74.5t-42 176.5q15 88 89.5 151t164.5 63q101 0 161 -73.5t43 -176.5q-17 -89 -90.5 -152t-161.5 -63zM632 1325q-4 -45 21.5 -73.5t69.5 -28.5q57 0 99.5 39.5t46.5 98.5q4 42 -23.5 73.5t-70.5 31.5q-55 0 -97 -42.5t-46 -98.5zM940 963h248 l-168 -963h-232l15 125q-141 -144 -340 -144q-129 0 -228.5 67.5t-144.5 187.5t-20 265q24 136 105.5 247.5t196 173.5t235.5 62q213 0 310 -157zM532 202q123 0 221 87t117 212q18 110 -45.5 186t-173.5 76q-121 0 -219.5 -87t-118.5 -211q-17 -110 46.5 -186.5 t172.5 -76.5z" />
<glyph unicode="&#xe6;" horiz-adv-x="1753" d="M1270 982q106 0 194 -37.5t145 -102.5t80.5 -158.5t4.5 -200.5l-7 -45h-762q-12 -117 46 -186t164 -69q79 0 152 37.5t125 101.5l195 -93q-80 -118 -203 -182.5t-269 -64.5q-120 0 -214 42.5t-153 119.5q-203 -163 -420 -163q-171 0 -255.5 87t-59.5 231q50 284 557 284 h124l9 25l4 25q15 83 -22.5 127.5t-114.5 46.5q-75 1 -139 -36t-94 -96l-202 83q64 111 176 168.5t260 57.5q220 0 323 -124q161 122 356 122zM1271 784q-93 0 -170 -48t-124 -131h488q-10 80 -61 129.5t-133 49.5zM398 159q69 0 149.5 43t143.5 117q-9 49 -7 105h-104 q-271 0 -299 -155q-9 -52 22.5 -81t94.5 -29z" />
<glyph unicode="&#xe7;" horiz-adv-x="1086" d="M515 208q89 0 166 48t121 124l197 -107q-76 -127 -200 -204.5t-267 -85.5l-85 -107q104 19 168.5 -42t47.5 -164q-16 -86 -85 -144t-154 -58q-80 0 -145.5 46.5t-80.5 109.5l116 25q11 -26 40.5 -41.5t58.5 -15.5q45 0 84 33.5t47 80.5q9 54 -36.5 67t-125.5 -20l-96 62 l120 175q-182 33 -278 175.5t-63 333.5q36 203 202 342.5t377 139.5q160 0 273 -85.5t148 -222.5l-222 -73q-21 73 -77.5 114t-135.5 41q-123 0 -218.5 -84.5t-113.5 -207.5q-17 -109 44.5 -182t172.5 -73z" />
<glyph unicode="&#xe8;" horiz-adv-x="1127" d="M803 1177l-98 -97l-299 289l145 139zM645 982q106 0 194 -37.5t145 -102.5t80.5 -158.5t4.5 -200.5l-7 -45h-762q-12 -117 46 -186t164 -69q79 0 152 37.5t125 101.5l195 -93q-80 -118 -203 -182.5t-269 -64.5q-154 0 -264.5 69t-157 187t-21.5 260q36 204 201 344 t377 140zM646 784q-93 0 -170 -48t-124 -131h488q-10 80 -61 129.5t-133 49.5z" />
<glyph unicode="&#xe9;" horiz-adv-x="1127" d="M1055 1369l-385 -293l-79 101l359 331zM645 982q106 0 194 -37.5t145 -102.5t80.5 -158.5t4.5 -200.5l-7 -45h-762q-12 -117 46 -186t164 -69q79 0 152 37.5t125 101.5l195 -93q-80 -118 -203 -182.5t-269 -64.5q-154 0 -264.5 69t-157 187t-21.5 260q36 204 201 344 t377 140zM646 784q-93 0 -170 -48t-124 -131h488q-10 80 -61 129.5t-133 49.5z" />
<glyph unicode="&#xea;" horiz-adv-x="1127" d="M732 1293l-252 -219l-102 67l277 299h184l179 -299l-115 -67zM645 982q106 0 194 -37.5t145 -102.5t80.5 -158.5t4.5 -200.5l-7 -45h-762q-12 -117 46 -186t164 -69q79 0 152 37.5t125 101.5l195 -93q-80 -118 -203 -182.5t-269 -64.5q-154 0 -264.5 69t-157 187 t-21.5 260q36 204 201 344t377 140zM646 784q-93 0 -170 -48t-124 -131h488q-10 80 -61 129.5t-133 49.5z" />
<glyph unicode="&#xeb;" horiz-adv-x="1127" d="M513 1141q-61 0 -98 45t-26 107q8 49 48.5 82.5t89.5 33.5q62 0 99 -44.5t26 -107.5q-9 -48 -49.5 -82t-89.5 -34zM918 1141q-61 0 -98 45t-26 107q8 49 49 82.5t90 33.5q62 0 98.5 -44t25.5 -108q-9 -48 -49 -82t-90 -34zM645 982q106 0 194 -37.5t145 -102.5 t80.5 -158.5t4.5 -200.5l-7 -45h-762q-12 -117 46 -186t164 -69q79 0 152 37.5t125 101.5l195 -93q-80 -118 -203 -182.5t-269 -64.5q-154 0 -264.5 69t-157 187t-21.5 260q36 204 201 344t377 140zM646 784q-93 0 -170 -48t-124 -131h488q-10 80 -61 129.5t-133 49.5z" />
<glyph unicode="&#xec;" horiz-adv-x="551" d="M396 1074l-299 289l145 139l252 -331zM68 0l168 963h248l-168 -963h-248z" />
<glyph unicode="&#xed;" horiz-adv-x="551" d="M361 1070l-79 101l359 331l105 -139zM68 0l168 963h248l-168 -963h-248z" />
<glyph unicode="&#xee;" horiz-adv-x="551" d="M171 1068l-102 67l277 299h184l179 -299l-115 -67l-171 219zM68 0l168 963h248l-168 -963h-248z" />
<glyph unicode="&#xef;" horiz-adv-x="551" d="M204 1135q-61 0 -98 45t-26 107q8 49 48.5 82.5t89.5 33.5q62 0 99 -44.5t26 -107.5q-9 -48 -49.5 -82t-89.5 -34zM609 1135q-61 0 -98 45t-26 107q8 49 49 82.5t90 33.5q62 0 98.5 -44t25.5 -108q-9 -48 -49 -82t-90 -34zM68 0l168 963h248l-168 -963h-248z" />
<glyph unicode="&#xf0;" horiz-adv-x="1191" d="M845 1330q156 -136 230 -349.5t28 -477.5l-2 1q-1 -2 -1 -6t-1 -6q-27 -155 -113.5 -272t-210.5 -177.5t-267 -60.5q-148 0 -259 69t-160.5 187.5t-24.5 260.5q23 133 108 243.5t212 174.5t268 64q147 0 260 -73q-38 199 -173 310l-137 -145l-96 76l129 135 q-101 49 -238 71l70 146q148 -15 281 -100l114 119l91 -75zM870 499q20 115 -44.5 194t-178.5 79q-128 0 -233 -90.5t-127 -218.5q-20 -115 45 -193t181 -78q126 0 230.5 89.5t126.5 217.5z" />
<glyph unicode="&#xf1;" horiz-adv-x="1128" d="M588 1223q-48 0 -82.5 -46.5t-47.5 -114.5l-137 17q23 129 93 209.5t175 80.5q43 0 76.5 -17t50 -36t36.5 -51q13 -20 21 -29.5t24.5 -19.5t37.5 -10q47 0 79 43t45 118l137 -18q-24 -132 -92.5 -210.5t-168.5 -78.5q-48 0 -83.5 17.5t-52 36.5t-34.5 50 q-13 21 -21.5 31.5t-23 19t-32.5 8.5zM729 981q150 0 237 -108t61 -259l-108 -614h-248l102 585q14 85 -24.5 132.5t-109.5 47.5q-79 0 -141 -51.5t-79 -125.5l-103 -588h-248l168 963h248l-14 -79q115 97 259 97z" />
<glyph unicode="&#xf2;" horiz-adv-x="1145" d="M693 1073l-299 289l145 139l252 -331zM501 -18q-146 0 -255 69t-157.5 187.5t-23.5 260.5q23 133 106.5 243.5t208.5 174.5t264 64q145 0 254 -69t157.5 -188t23.5 -261q-23 -132 -107 -242.5t-208.5 -174.5t-262.5 -64zM507 205q119 0 217.5 85t120.5 209 q20 111 -40 185t-167 74q-121 0 -219 -84.5t-120 -210.5q-20 -112 39.5 -185t168.5 -73z" />
<glyph unicode="&#xf3;" horiz-adv-x="1145" d="M658 1069l-79 101l359 331l105 -139zM501 -18q-146 0 -255 69t-157.5 187.5t-23.5 260.5q23 133 106.5 243.5t208.5 174.5t264 64q145 0 254 -69t157.5 -188t23.5 -261q-23 -132 -107 -242.5t-208.5 -174.5t-262.5 -64zM507 205q119 0 217.5 85t120.5 209q20 111 -40 185 t-167 74q-121 0 -219 -84.5t-120 -210.5q-20 -112 39.5 -185t168.5 -73z" />
<glyph unicode="&#xf4;" horiz-adv-x="1145" d="M468 1067l-102 67l277 299h184l179 -299l-115 -67l-171 219zM501 -18q-146 0 -255 69t-157.5 187.5t-23.5 260.5q23 133 106.5 243.5t208.5 174.5t264 64q145 0 254 -69t157.5 -188t23.5 -261q-23 -132 -107 -242.5t-208.5 -174.5t-262.5 -64zM507 205q119 0 217.5 85 t120.5 209q20 111 -40 185t-167 74q-121 0 -219 -84.5t-120 -210.5q-20 -112 39.5 -185t168.5 -73z" />
<glyph unicode="&#xf5;" horiz-adv-x="1145" d="M827 1059q-48 0 -83.5 17.5t-52 36.5t-34.5 50q-13 21 -21.5 31.5t-23 19t-32.5 8.5q-48 0 -82.5 -46.5t-47.5 -114.5l-137 17q23 129 93 209.5t175 80.5q43 0 76.5 -17t50 -36t36.5 -51q13 -20 21 -29.5t24.5 -19.5t37.5 -10q47 0 79 43t45 118l137 -18 q-24 -132 -92.5 -210.5t-168.5 -78.5zM501 -18q-146 0 -255 69t-157.5 187.5t-23.5 260.5q23 133 106.5 243.5t208.5 174.5t264 64q145 0 254 -69t157.5 -188t23.5 -261q-23 -132 -107 -242.5t-208.5 -174.5t-262.5 -64zM507 205q119 0 217.5 85t120.5 209q20 111 -40 185 t-167 74q-121 0 -219 -84.5t-120 -210.5q-20 -112 39.5 -185t168.5 -73z" />
<glyph unicode="&#xf6;" horiz-adv-x="1145" d="M501 1134q-61 0 -98 45t-26 107q8 49 48.5 82.5t89.5 33.5q62 0 99 -44.5t26 -107.5q-9 -48 -49.5 -82t-89.5 -34zM906 1134q-61 0 -98 45t-26 107q8 49 49 82.5t90 33.5q62 0 98.5 -44t25.5 -108q-9 -48 -49 -82t-90 -34zM501 -18q-146 0 -255 69t-157.5 187.5 t-23.5 260.5q23 133 106.5 243.5t208.5 174.5t264 64q145 0 254 -69t157.5 -188t23.5 -261q-23 -132 -107 -242.5t-208.5 -174.5t-262.5 -64zM507 205q119 0 217.5 85t120.5 209q20 111 -40 185t-167 74q-121 0 -219 -84.5t-120 -210.5q-20 -112 39.5 -185t168.5 -73z" />
<glyph unicode="&#xf7;" horiz-adv-x="1025" d="M507 919q-57 0 -99 41t-42 100q0 57 42.5 99.5t98.5 42.5q57 0 100 -42.5t43 -99.5q0 -59 -42.5 -100t-100.5 -41zM103 589v204h819v-204h-819zM507 179q-57 0 -99 41t-42 101q0 56 42.5 98.5t98.5 42.5q57 0 100 -42.5t43 -98.5q0 -60 -42.5 -101t-100.5 -41z" />
<glyph unicode="&#xf8;" horiz-adv-x="1145" d="M965 859q73 -73 104 -176t10 -220q-23 -132 -107 -242.5t-208.5 -174.5t-262.5 -64t-245 63l-109 -125l-80 50l115 132q-75 72 -106.5 175.5t-10.5 221.5q23 133 106.5 243.5t208.5 174.5t264 64q141 0 246 -65l109 125l79 -52zM299 463q-19 -110 38 -183l398 458 q-43 20 -97 20q-121 0 -219 -84.5t-120 -210.5zM845 499q19 107 -37 180l-397 -455q44 -19 96 -19q119 0 217.5 85t120.5 209z" />
<glyph unicode="&#xf9;" horiz-adv-x="1087" d="M661 1074l-299 289l145 139l252 -331zM468 -19q-201 0 -297.5 106t-66.5 282l104 594h248l-103 -589q-15 -86 18 -130.5t102 -44.5q82 0 144 52t77 140l99 572h249l-107 -611q-31 -175 -153.5 -273t-313.5 -98z" />
<glyph unicode="&#xfa;" horiz-adv-x="1087" d="M626 1070l-79 101l359 331l105 -139zM468 -19q-201 0 -297.5 106t-66.5 282l104 594h248l-103 -589q-15 -86 18 -130.5t102 -44.5q82 0 144 52t77 140l99 572h249l-107 -611q-31 -175 -153.5 -273t-313.5 -98z" />
<glyph unicode="&#xfb;" horiz-adv-x="1087" d="M436 1068l-102 67l277 299h184l179 -299l-115 -67l-171 219zM468 -19q-201 0 -297.5 106t-66.5 282l104 594h248l-103 -589q-15 -86 18 -130.5t102 -44.5q82 0 144 52t77 140l99 572h249l-107 -611q-31 -175 -153.5 -273t-313.5 -98z" />
<glyph unicode="&#xfc;" horiz-adv-x="1087" d="M469 1135q-61 0 -98 45t-26 107q8 49 48.5 82.5t89.5 33.5q62 0 99 -44.5t26 -107.5q-9 -48 -49.5 -82t-89.5 -34zM874 1135q-61 0 -98 45t-26 107q8 49 49 82.5t90 33.5q62 0 98.5 -44t25.5 -108q-9 -48 -49 -82t-90 -34zM468 -19q-201 0 -297.5 106t-66.5 282l104 594 h248l-103 -589q-15 -86 18 -130.5t102 -44.5q82 0 144 52t77 140l99 572h249l-107 -611q-31 -175 -153.5 -273t-313.5 -98z" />
<glyph unicode="&#xfd;" horiz-adv-x="1051" d="M977 1363l-385 -293l-79 101l359 331zM859 963h267l-839 -1455h-262l289 506l-222 949h269l127 -700z" />
<glyph unicode="&#xfe;" horiz-adv-x="1246" d="M778 981q132 0 233 -69t147 -188.5t21 -260.5q-23 -132 -104.5 -242.5t-199 -174.5t-241.5 -64q-195 0 -300 134l-103 -598l-248 1l356 2017h248l-115 -662q134 107 306 107zM936 499q16 108 -46.5 182.5t-169.5 74.5q-120 0 -218 -86t-117 -207q-17 -107 46 -181.5 t172 -74.5q119 0 216.5 85.5t116.5 206.5z" />
<glyph unicode="&#xff;" horiz-adv-x="1051" d="M435 1135q-61 0 -98 45t-26 107q8 49 48.5 82.5t89.5 33.5q62 0 99 -44.5t26 -107.5q-9 -48 -49.5 -82t-89.5 -34zM840 1135q-61 0 -98 45t-26 107q8 49 49 82.5t90 33.5q62 0 98.5 -44t25.5 -108q-9 -48 -49 -82t-90 -34zM859 963h267l-839 -1455h-262l289 506l-222 949 h269l127 -700z" />
<glyph unicode="&#x100;" horiz-adv-x="1408" d="M1269 1883l-27 -153h-634l27 153h634zM1039 0l-43 240h-667l-128 -240h-284l873 1536h195l334 -1536h-280zM448 462h509l-128 714z" />
<glyph unicode="&#x101;" horiz-adv-x="1256" d="M1048 1312l-27 -153h-634l27 153h634zM940 963h248l-168 -963h-232l15 125q-141 -144 -340 -144q-129 0 -228.5 67.5t-144.5 187.5t-20 265q24 136 105.5 247.5t196 173.5t235.5 62q213 0 310 -157zM532 202q123 0 221 87t117 212q18 110 -45.5 186t-173.5 76 q-121 0 -219.5 -87t-118.5 -211q-17 -110 46.5 -186.5t172.5 -76.5z" />
<glyph unicode="&#x102;" horiz-adv-x="1408" d="M935 1701q-164 0 -251.5 91t-58.5 244h160q-14 -89 26 -143.5t128 -54.5q100 0 160 58t75 140h160q-28 -164 -135 -249.5t-264 -85.5zM790 1536h195l334 -1536h-280l-43 240h-667l-128 -240h-284zM448 462h509l-128 714z" />
<glyph unicode="&#x103;" horiz-adv-x="1256" d="M714 1130q-164 0 -251.5 91t-58.5 244h160q-14 -89 26 -143.5t128 -54.5q100 0 160 58t75 140h160q-28 -164 -135 -249.5t-264 -85.5zM940 963h248l-168 -963h-232l15 125q-141 -144 -340 -144q-129 0 -228.5 67.5t-144.5 187.5t-20 265q24 136 105.5 247.5t196 173.5 t235.5 62q213 0 310 -157zM532 202q123 0 221 87t117 212q18 110 -45.5 186t-173.5 76q-121 0 -219.5 -87t-118.5 -211q-17 -110 46.5 -186.5t172.5 -76.5z" />
<glyph unicode="&#x104;" horiz-adv-x="1408" d="M1283 -272l83 -145q-137 -118 -309 -108q-119 7 -177.5 76t-38.5 175q29 171 268 274h-70l-43 240h-667l-128 -240h-284l873 1536h195l334 -1535l2 -1q-292 -117 -320 -273q-15 -89 83 -89q99 0 199 90zM448 462h509l-128 714z" />
<glyph unicode="&#x105;" horiz-adv-x="1256" d="M783 -362q99 0 199 90l83 -145q-137 -118 -309 -108q-119 7 -177.5 76t-38.5 175q29 171 268 274h-20l15 125q-141 -144 -340 -144q-129 0 -228.5 67.5t-144.5 187.5t-20 265q24 136 105.5 247.5t196 173.5t235.5 62q213 0 310 -157l23 136h248l-168 -963 q-292 -117 -320 -273q-15 -89 83 -89zM532 202q123 0 221 87t117 212q18 110 -45.5 186t-173.5 76q-121 0 -219.5 -87t-118.5 -211q-17 -110 46.5 -186.5t172.5 -76.5z" />
<glyph unicode="&#x106;" horiz-adv-x="1503" d="M1069 1643l-79 101l359 331l105 -139zM797 -20q-164 0 -302 64t-226.5 172t-126 257.5t-8.5 313.5q28 157 114 299.5t207.5 245.5t275 163.5t310.5 60.5q181 0 326.5 -75t234.5 -207l-218 -141q-56 85 -147 130.5t-206 45.5q-151 0 -290 -74t-233.5 -203t-120.5 -283 q-24 -142 22.5 -259.5t151.5 -185.5t248 -68q120 0 234.5 48t205.5 133l180 -170q-130 -125 -294.5 -196t-337.5 -71z" />
<glyph unicode="&#x107;" horiz-adv-x="1086" d="M647 1070l-79 101l359 331l105 -139zM501 -18q-146 0 -255 69t-157.5 187.5t-23.5 260.5q36 203 202 342.5t377 139.5q160 0 273 -85.5t148 -222.5l-222 -73q-21 73 -77.5 114t-135.5 41q-123 0 -218.5 -84.5t-113.5 -207.5q-17 -109 44.5 -182t172.5 -73q89 0 166 48 t121 124l197 -107q-80 -134 -213.5 -212.5t-284.5 -78.5z" />
<glyph unicode="&#x10a;" horiz-adv-x="1503" d="M1112 1692q-60 0 -97.5 45t-28.5 106q10 50 50.5 84t88.5 34q63 0 100 -45t25 -109q-8 -47 -48.5 -81t-89.5 -34zM797 -20q-164 0 -302 64t-226.5 172t-126 257.5t-8.5 313.5q28 157 114 299.5t207.5 245.5t275 163.5t310.5 60.5q181 0 326.5 -75t234.5 -207l-218 -141 q-56 85 -147 130.5t-206 45.5q-151 0 -290 -74t-233.5 -203t-120.5 -283q-24 -142 22.5 -259.5t151.5 -185.5t248 -68q120 0 234.5 48t205.5 133l180 -170q-130 -125 -294.5 -196t-337.5 -71z" />
<glyph unicode="&#x10b;" horiz-adv-x="1086" d="M690 1119q-60 0 -97.5 45t-28.5 106q10 50 50.5 84t88.5 34q63 0 100 -45t25 -109q-8 -47 -48.5 -81t-89.5 -34zM501 -18q-146 0 -255 69t-157.5 187.5t-23.5 260.5q36 203 202 342.5t377 139.5q160 0 273 -85.5t148 -222.5l-222 -73q-21 73 -77.5 114t-135.5 41 q-123 0 -218.5 -84.5t-113.5 -207.5q-17 -109 44.5 -182t172.5 -73q89 0 166 48t121 124l197 -107q-80 -134 -213.5 -212.5t-284.5 -78.5z" />
<glyph unicode="&#x10c;" horiz-adv-x="1503" d="M1003 1681l-175 299l114 67l172 -219l252 219l101 -67l-279 -299h-185zM797 -20q-164 0 -302 64t-226.5 172t-126 257.5t-8.5 313.5q28 157 114 299.5t207.5 245.5t275 163.5t310.5 60.5q181 0 326.5 -75t234.5 -207l-218 -141q-56 85 -147 130.5t-206 45.5 q-151 0 -290 -74t-233.5 -203t-120.5 -283q-24 -142 22.5 -259.5t151.5 -185.5t248 -68q120 0 234.5 48t205.5 133l180 -170q-130 -125 -294.5 -196t-337.5 -71z" />
<glyph unicode="&#x10d;" horiz-adv-x="1086" d="M581 1108l-175 299l114 67l172 -219l252 219l101 -67l-279 -299h-185zM501 -18q-146 0 -255 69t-157.5 187.5t-23.5 260.5q36 203 202 342.5t377 139.5q160 0 273 -85.5t148 -222.5l-222 -73q-21 73 -77.5 114t-135.5 41q-123 0 -218.5 -84.5t-113.5 -207.5 q-17 -109 44.5 -182t172.5 -73q89 0 166 48t121 124l197 -107q-80 -134 -213.5 -212.5t-284.5 -78.5z" />
<glyph unicode="&#x10e;" horiz-adv-x="1514" d="M777 1681l-175 299l114 67l172 -219l252 219l101 -67l-279 -299h-185zM108 0l270 1536h456q171 0 307.5 -62t219.5 -168.5t115.5 -250.5t3.5 -305q-27 -155 -106.5 -292t-196 -238.5t-271.5 -160.5t-326 -59h-472zM405 237h191q232 0 408.5 156.5t218.5 392.5 q26 147 -16 263t-148 183t-259 67h-209z" />
<glyph unicode="&#x10f;" horiz-adv-x="1258" d="M1637 1557q64 0 102 -35.5t38 -87.5q0 -56 -39 -102l-280 -365h-165l228 321q-31 20 -44.5 60.5t0.5 96.5q19 46 66 79t94 33zM919 825l123 711h249l-271 -1536h-232l15 125q-141 -144 -340 -144q-129 0 -228.5 67.5t-144.5 187.5t-20 265q24 136 105.5 247.5t196 173.5 t235.5 62q213 0 312 -159zM532 202q123 0 221 87t117 212q18 110 -45.5 186t-173.5 76q-121 0 -219.5 -87t-118.5 -211q-17 -110 46.5 -186.5t172.5 -76.5z" />
<glyph unicode="&#x110;" horiz-adv-x="1514" d="M834 1536q171 0 307.5 -62t219.5 -168.5t115.5 -250.5t3.5 -305q-27 -155 -106.5 -292t-196 -238.5t-271.5 -160.5t-326 -59h-472l120 683h-151l28 158h151l122 695h456zM1223 786q26 147 -16 263t-148 183t-259 67h-209l-80 -458h253l-28 -158h-253l-78 -446h191 q232 0 408.5 156.5t218.5 392.5z" />
<glyph unicode="&#x111;" horiz-adv-x="1258" d="M1388 1328l-28 -158h-134l-206 -1170h-232l15 125q-141 -144 -340 -144q-129 0 -228.5 67.5t-144.5 187.5t-20 265q24 136 105.5 247.5t196 173.5t235.5 62q213 0 312 -159l59 345h-277l28 158h277l36 208h249l-37 -208h134zM532 202q123 0 221 87t117 212 q18 110 -45.5 186t-173.5 76q-121 0 -219.5 -87t-118.5 -211q-17 -110 46.5 -186.5t172.5 -76.5z" />
<glyph unicode="&#x112;" horiz-adv-x="1195" d="M1207 1883l-27 -153h-634l27 153h634zM1237 1303h-644l-73 -418h558l-42 -234h-558l-73 -418h644l-40 -233h-901l270 1536h901z" />
<glyph unicode="&#x113;" horiz-adv-x="1127" d="M1047 1316l-27 -153h-634l27 153h634zM645 982q106 0 194 -37.5t145 -102.5t80.5 -158.5t4.5 -200.5l-7 -45h-762q-12 -117 46 -186t164 -69q79 0 152 37.5t125 101.5l195 -93q-80 -118 -203 -182.5t-269 -64.5q-154 0 -264.5 69t-157 187t-21.5 260q36 204 201 344 t377 140zM646 784q-93 0 -170 -48t-124 -131h488q-10 80 -61 129.5t-133 49.5z" />
<glyph unicode="&#x116;" horiz-adv-x="1195" d="M873 1692q-60 0 -97.5 45t-28.5 106q10 50 50.5 84t88.5 34q63 0 100 -45t25 -109q-8 -47 -48.5 -81t-89.5 -34zM1237 1303h-644l-73 -418h558l-42 -234h-558l-73 -418h644l-40 -233h-901l270 1536h901z" />
<glyph unicode="&#x117;" horiz-adv-x="1127" d="M713 1125q-60 0 -97.5 45t-28.5 106q10 50 50.5 84t88.5 34q63 0 100 -45t25 -109q-8 -47 -48.5 -81t-89.5 -34zM645 982q106 0 194 -37.5t145 -102.5t80.5 -158.5t4.5 -200.5l-7 -45h-762q-12 -117 46 -186t164 -69q79 0 152 37.5t125 101.5l195 -93 q-80 -118 -203 -182.5t-269 -64.5q-154 0 -264.5 69t-157 187t-21.5 260q36 204 201 344t377 140zM646 784q-93 0 -170 -48t-124 -131h488q-10 80 -61 129.5t-133 49.5z" />
<glyph unicode="&#x118;" horiz-adv-x="1195" d="M1237 1303h-644l-73 -418h558l-42 -234h-558l-73 -418h644l-40 -233q-292 -117 -320 -273q-15 -89 83 -89q99 0 199 90l83 -145q-137 -118 -309 -108q-119 7 -177.5 76t-38.5 175q29 171 268 274h-689l270 1536h901z" />
<glyph unicode="&#x119;" horiz-adv-x="1127" d="M645 982q106 0 194 -37.5t145 -102.5t80.5 -158.5t4.5 -200.5l-7 -45h-762q-12 -117 46 -186t164 -69q79 0 152 37.5t125 101.5l195 -93q-124 -181 -334 -231q-189 -101 -211 -223q-15 -89 83 -89q99 0 199 90l83 -145q-137 -118 -309 -108q-119 7 -177.5 76t-38.5 175 q20 123 154 213q-197 27 -298 170.5t-66 340.5q36 204 201 344t377 140zM646 784q-93 0 -170 -48t-124 -131h488q-10 80 -61 129.5t-133 49.5z" />
<glyph unicode="&#x11a;" horiz-adv-x="1195" d="M949 1681h-185l-175 299l114 67l172 -219l252 219l101 -67zM1237 1303h-644l-73 -418h558l-42 -234h-558l-73 -418h644l-40 -233h-901l270 1536h901z" />
<glyph unicode="&#x11b;" horiz-adv-x="1127" d="M789 1114h-185l-175 299l114 67l172 -219l252 219l101 -67zM645 982q106 0 194 -37.5t145 -102.5t80.5 -158.5t4.5 -200.5l-7 -45h-762q-12 -117 46 -186t164 -69q79 0 152 37.5t125 101.5l195 -93q-80 -118 -203 -182.5t-269 -64.5q-154 0 -264.5 69t-157 187t-21.5 260 q36 204 201 344t377 140zM646 784q-93 0 -170 -48t-124 -131h488q-10 80 -61 129.5t-133 49.5z" />
<glyph unicode="&#x11e;" horiz-adv-x="1636" d="M1124 1701q-164 0 -251.5 91t-58.5 244h160q-14 -89 26 -143.5t128 -54.5q100 0 160 58t75 140h160q-28 -164 -135 -249.5t-264 -85.5zM893 619l39 223h639l-147 -842h-193l-7 127q-184 -147 -425 -147q-219 0 -385.5 107.5t-241.5 293t-36 405.5q28 158 113.5 300.5 t207 245.5t275.5 163.5t312 60.5q169 0 316 -73.5t235 -195.5l-207 -148q-58 83 -151 127t-203 44q-153 0 -291.5 -73.5t-232.5 -202t-122 -284.5q-39 -224 81.5 -374t339.5 -150q123 0 237.5 47.5t198.5 135.5l36 210h-388z" />
<glyph unicode="&#x11f;" horiz-adv-x="1262" d="M716 1128q-164 0 -251.5 91t-58.5 244h160q-14 -89 26 -143.5t128 -54.5q100 0 160 58t75 140h160q-28 -164 -135 -249.5t-264 -85.5zM943 963h250l-166 -947q-42 -237 -210 -376.5t-394 -139.5q-139 0 -260.5 64.5t-183.5 179.5l169 136q46 -80 116.5 -121.5 t153.5 -41.5q131 0 234.5 89t127.5 226l13 79q-132 -130 -317 -130q-137 0 -239.5 67.5t-148 187t-19.5 265.5q25 137 106 248t198 173t245 62q211 0 303 -156zM531 202q121 0 220.5 88t117.5 211q18 110 -46 186t-173 76q-122 0 -220 -87t-118 -211q-17 -110 46 -186.5 t173 -76.5z" />
<glyph unicode="&#x120;" horiz-adv-x="1636" d="M1124 1692q-60 0 -97.5 45t-28.5 106q10 50 50.5 84t88.5 34q63 0 100 -45t25 -109q-8 -47 -48.5 -81t-89.5 -34zM893 619l39 223h639l-147 -842h-193l-7 127q-184 -147 -425 -147q-219 0 -385.5 107.5t-241.5 293t-36 405.5q28 158 113.5 300.5t207 245.5t275.5 163.5 t312 60.5q169 0 316 -73.5t235 -195.5l-207 -148q-58 83 -151 127t-203 44q-153 0 -291.5 -73.5t-232.5 -202t-122 -284.5q-39 -224 81.5 -374t339.5 -150q123 0 237.5 47.5t198.5 135.5l36 210h-388z" />
<glyph unicode="&#x121;" horiz-adv-x="1262" d="M716 1119q-60 0 -97.5 45t-28.5 106q10 50 50.5 84t88.5 34q63 0 100 -45t25 -109q-8 -47 -48.5 -81t-89.5 -34zM943 963h250l-166 -947q-42 -237 -210 -376.5t-394 -139.5q-139 0 -260.5 64.5t-183.5 179.5l169 136q46 -80 116.5 -121.5t153.5 -41.5q131 0 234.5 89 t127.5 226l13 79q-132 -130 -317 -130q-137 0 -239.5 67.5t-148 187t-19.5 265.5q25 137 106 248t198 173t245 62q211 0 303 -156zM531 202q121 0 220.5 88t117.5 211q18 110 -46 186t-173 76q-122 0 -220 -87t-118 -211q-17 -110 46 -186.5t173 -76.5z" />
<glyph unicode="&#x122;" horiz-adv-x="1636" d="M893 619l39 223h639l-147 -842h-193l-7 127q-184 -147 -425 -147q-219 0 -385.5 107.5t-241.5 293t-36 405.5q28 158 113.5 300.5t207 245.5t275.5 163.5t312 60.5q169 0 316 -73.5t235 -195.5l-207 -148q-58 83 -151 127t-203 44q-153 0 -291.5 -73.5t-232.5 -202 t-122 -284.5q-39 -224 81.5 -374t339.5 -150q123 0 237.5 47.5t198.5 135.5l36 210h-388zM441 -559l285 466l180 -86l-344 -435z" />
<glyph unicode="&#x123;" horiz-adv-x="1262" d="M708 1077q-68 0 -107 48.5t-26 118.5q4 21 16 50l253 433h131l-182 -369q38 -19 58.5 -61t11.5 -90q-10 -53 -55.5 -91.5t-99.5 -38.5zM943 963h250l-166 -947q-42 -237 -210 -376.5t-394 -139.5q-139 0 -260.5 64.5t-183.5 179.5l169 136q46 -80 116.5 -121.5 t153.5 -41.5q131 0 234.5 89t127.5 226l13 79q-132 -130 -317 -130q-137 0 -239.5 67.5t-148 187t-19.5 265.5q25 137 106 248t198 173t245 62q211 0 303 -156zM531 202q121 0 220.5 88t117.5 211q18 110 -46 186t-173 76q-122 0 -220 -87t-118 -211q-17 -110 46 -186.5 t173 -76.5z" />
<glyph unicode="&#x126;" horiz-adv-x="1624" d="M1690 1268l-22 -125h-118l-202 -1143h-256l114 650h-727l-114 -650h-257l201 1143h-122l22 125h122l47 268h257l-47 -268h727l47 268h257l-47 -268h118zM1248 888l45 255h-727l-45 -255h727z" />
<glyph unicode="&#x127;" horiz-adv-x="1128" d="M729 981q150 0 237 -108t61 -259l-108 -614h-248l102 585q14 85 -24.5 132.5t-109.5 47.5q-78 0 -139 -49.5t-80 -121.5l-104 -594h-248l205 1171h-136l28 158h136l36 207h248l-36 -207h275l-28 -158h-275l-50 -287q114 97 258 97z" />
<glyph unicode="&#x128;" horiz-adv-x="640" d="M675 1633q-48 0 -83.5 17.5t-52 36.5t-34.5 50q-13 21 -21.5 31.5t-23 19t-32.5 8.5q-48 0 -82.5 -46.5t-47.5 -114.5l-137 17q23 129 93 209.5t175 80.5q43 0 76.5 -17t50 -36t36.5 -51q13 -20 21 -29.5t24.5 -19.5t37.5 -10q47 0 79 43t45 118l137 -18 q-24 -132 -92.5 -210.5t-168.5 -78.5zM108 0l270 1536h257l-270 -1536h-257z" />
<glyph unicode="&#x129;" horiz-adv-x="551" d="M530 1060q-48 0 -83.5 17.5t-52 36.5t-34.5 50q-13 21 -21.5 31.5t-23 19t-32.5 8.5q-48 0 -82.5 -46.5t-47.5 -114.5l-137 17q23 129 93 209.5t175 80.5q43 0 76.5 -17t50 -36t36.5 -51q13 -20 21 -29.5t24.5 -19.5t37.5 -10q47 0 79 43t45 118l137 -18 q-24 -132 -92.5 -210.5t-168.5 -78.5zM68 0l168 963h248l-168 -963h-248z" />
<glyph unicode="&#x12a;" horiz-adv-x="640" d="M222 1730l27 153h634l-27 -153h-634zM108 0l270 1536h257l-270 -1536h-257z" />
<glyph unicode="&#x12b;" horiz-adv-x="551" d="M77 1157l27 153h634l-27 -153h-634zM68 0l168 963h248l-168 -963h-248z" />
<glyph unicode="&#x12e;" horiz-adv-x="640" d="M128 -362q99 0 199 90l83 -145q-137 -118 -309 -108q-119 7 -177.5 76t-38.5 175q29 171 268 274h-45l270 1536h257l-270 -1536q-292 -117 -320 -273q-15 -89 83 -89z" />
<glyph unicode="&#x12f;" horiz-adv-x="551" d="M417 1388q63 0 100 -45t25 -109q-8 -47 -48.5 -81t-89.5 -34q-60 0 -97.5 45t-28.5 106q10 50 50.5 84t88.5 34zM316 0q-292 -117 -320 -273q-15 -89 83 -89q99 0 199 90l83 -145q-137 -118 -309 -108q-119 7 -177.5 76t-38.5 175q29 171 268 274h-36l168 963h248z" />
<glyph unicode="&#x130;" horiz-adv-x="640" d="M549 1692q-60 0 -97.5 45t-28.5 106q10 50 50.5 84t88.5 34q63 0 100 -45t25 -109q-8 -47 -48.5 -81t-89.5 -34zM108 0l270 1536h257l-270 -1536h-257z" />
<glyph unicode="&#x131;" horiz-adv-x="551" d="M68 0l168 963h248l-168 -963h-248z" />
<glyph unicode="&#x136;" horiz-adv-x="1421" d="M1567 1536l-788 -759l533 -777h-328l-490 734l-129 -734h-257l270 1536h257l-126 -715l725 715h333zM262 -559l285 466l180 -86l-344 -435z" />
<glyph unicode="&#x137;" horiz-adv-x="1117" d="M1158 963l-498 -448l375 -515h-310l-327 465l-82 -465h-248l270 1536h248l-172 -978l426 405h318zM135 -559l285 466l180 -86l-344 -435z" />
<glyph unicode="&#x139;" horiz-adv-x="1020" d="M892 1936l-385 -293l-79 101l359 331zM408 237h536l-42 -237h-794l270 1536h257z" />
<glyph unicode="&#x13a;" horiz-adv-x="553" d="M463 1643l-79 101l359 331l105 -139zM68 0l270 1536h248l-270 -1536h-248z" />
<glyph unicode="&#x13b;" horiz-adv-x="1020" d="M408 237h536l-42 -237h-794l270 1536h257zM158 -559l285 466l180 -86l-344 -435z" />
<glyph unicode="&#x13c;" horiz-adv-x="553" d="M68 0l270 1536h248l-270 -1536h-248zM-34 -614l-121 55l285 466l180 -86z" />
<glyph unicode="&#x13d;" horiz-adv-x="1020" d="M1024 1557q64 0 102 -35.5t38 -87.5q0 -56 -39 -102l-280 -365h-165l228 321q-31 20 -44.5 60.5t0.5 96.5q19 46 66 79t94 33zM635 1536l-227 -1299h536l-42 -237h-794l270 1536h257z" />
<glyph unicode="&#x13e;" horiz-adv-x="649" d="M581 967l228 321q-31 20 -44.5 60.5t0.5 96.5q19 46 66 79t94 33q64 0 102 -35.5t38 -87.5q0 -56 -39 -102l-280 -365h-165zM68 0l270 1536h248l-270 -1536h-248z" />
<glyph unicode="&#x13f;" horiz-adv-x="1034" d="M635 1536l-227 -1299h536l-42 -237h-794l270 1536h257zM853 1049q54 0 89.5 -42.5t25.5 -97.5q-8 -43 -45 -73t-80 -30q-55 0 -89 40.5t-24 98.5q8 42 44.5 73t78.5 31z" />
<glyph unicode="&#x140;" horiz-adv-x="753" d="M68 0l270 1536h248l-270 -1536h-248zM699 680q-62 0 -101 46.5t-28 112.5q10 48 51.5 83.5t89.5 35.5q62 0 102 -48.5t29 -111.5q-9 -49 -51.5 -83.5t-91.5 -34.5z" />
<glyph unicode="&#x141;" horiz-adv-x="1020" d="M408 237h536l-42 -237h-794l96 545l-123 -81l30 190l127 83l140 799h257l-106 -608l321 211l-31 -190l-324 -213z" />
<glyph unicode="&#x142;" horiz-adv-x="634" d="M671 985l-32 -175l-150 -92l-126 -718h-248l96 547l-165 -102l32 177l164 100l143 814h248l-113 -644z" />
<glyph unicode="&#x143;" horiz-adv-x="1599" d="M1354 1936l-385 -293l-79 101l359 331zM1358 1536h257l-271 -1536h-135l-682 1038l-182 -1038h-256l270 1536h134l683 -1035z" />
<glyph unicode="&#x144;" horiz-adv-x="1128" d="M1051 1363l-385 -293l-79 101l359 331zM729 981q150 0 237 -108t61 -259l-108 -614h-248l102 585q14 85 -24.5 132.5t-109.5 47.5q-79 0 -141 -51.5t-79 -125.5l-103 -588h-248l168 963h248l-14 -79q115 97 259 97z" />
<glyph unicode="&#x145;" horiz-adv-x="1599" d="M1358 1536h257l-271 -1536h-135l-682 1038l-182 -1038h-256l270 1536h134l683 -1035zM348 -559l285 466l180 -86l-344 -435z" />
<glyph unicode="&#x146;" horiz-adv-x="1128" d="M729 981q150 0 237 -108t61 -259l-108 -614h-248l102 585q14 85 -24.5 132.5t-109.5 47.5q-79 0 -141 -51.5t-79 -125.5l-103 -588h-248l168 963h248l-14 -79q115 97 259 97zM148 -559l285 466l180 -86l-344 -435z" />
<glyph unicode="&#x147;" horiz-adv-x="1599" d="M1088 1681h-185l-175 299l114 67l172 -219l252 219l101 -67zM1358 1536h257l-271 -1536h-135l-682 1038l-182 -1038h-256l270 1536h134l683 -1035z" />
<glyph unicode="&#x148;" horiz-adv-x="1128" d="M785 1108h-185l-175 299l114 67l172 -219l252 219l101 -67zM729 981q150 0 237 -108t61 -259l-108 -614h-248l102 585q14 85 -24.5 132.5t-109.5 47.5q-79 0 -141 -51.5t-79 -125.5l-103 -588h-248l168 963h248l-14 -79q115 97 259 97z" />
<glyph unicode="&#x14a;" horiz-adv-x="1741" d="M1735 1536l-270 -1536h-2l-10 -62q-18 -103 -48.5 -173t-84 -121t-135 -74.5t-196.5 -23.5h-61l21 170q55 0 92 8.5t69.5 33.5t53 72t33.5 120l8 50l4 2l-645 1134l-199 -1136h-257l270 1536h254l647 -1132l201 1132h255z" />
<glyph unicode="&#x14b;" horiz-adv-x="1128" d="M455 -476l16 188q35 0 61.5 6.5t46 25t32.5 38t24.5 57.5t18.5 71t17 90l102 585q14 85 -24.5 132.5t-109.5 47.5q-80 0 -142 -52t-79 -127l-102 -586h-248l168 963h248l-14 -82q112 100 259 100q150 0 237 -108t61 -259l-108 -614q-22 -140 -50.5 -224.5t-81 -144.5 t-131.5 -83.5t-201 -23.5z" />
<glyph unicode="&#x14c;" horiz-adv-x="1739" d="M773 1730l27 153h634l-27 -153h-634zM798 -20q-164 0 -301.5 63.5t-226.5 171.5t-126.5 257.5t-8.5 313.5q37 210 171.5 387.5t330 280t406.5 102.5q164 0 301.5 -63.5t226.5 -171.5t126.5 -257.5t8.5 -313.5q-37 -210 -171.5 -387.5t-330 -280t-406.5 -102.5zM815 230 q152 0 290 73.5t230.5 201.5t118.5 281q24 144 -23 263.5t-153.5 188t-250.5 68.5q-152 0 -290 -73.5t-231 -201.5t-119 -281q-24 -144 23.5 -263.5t154 -188t250.5 -68.5z" />
<glyph unicode="&#x14d;" horiz-adv-x="1145" d="M374 1156l27 153h634l-27 -153h-634zM501 -18q-146 0 -255 69t-157.5 187.5t-23.5 260.5q23 133 106.5 243.5t208.5 174.5t264 64q145 0 254 -69t157.5 -188t23.5 -261q-23 -132 -107 -242.5t-208.5 -174.5t-262.5 -64zM507 205q119 0 217.5 85t120.5 209q20 111 -40 185 t-167 74q-121 0 -219 -84.5t-120 -210.5q-20 -112 39.5 -185t168.5 -73z" />
<glyph unicode="&#x150;" horiz-adv-x="1739" d="M844 1677l-91 119l391 313l101 -131zM1266 1677l-93 119l392 313l101 -131zM798 -20q-164 0 -301.5 63.5t-226.5 171.5t-126.5 257.5t-8.5 313.5q37 210 171.5 387.5t330 280t406.5 102.5q164 0 301.5 -63.5t226.5 -171.5t126.5 -257.5t8.5 -313.5 q-37 -210 -171.5 -387.5t-330 -280t-406.5 -102.5zM815 230q152 0 290 73.5t230.5 201.5t118.5 281q24 144 -23 263.5t-153.5 188t-250.5 68.5q-152 0 -290 -73.5t-231 -201.5t-119 -281q-24 -144 23.5 -263.5t154 -188t250.5 -68.5z" />
<glyph unicode="&#x151;" horiz-adv-x="1145" d="M445 1103l-91 119l391 313l101 -131zM867 1103l-93 119l392 313l101 -131zM501 -18q-146 0 -255 69t-157.5 187.5t-23.5 260.5q23 133 106.5 243.5t208.5 174.5t264 64q145 0 254 -69t157.5 -188t23.5 -261q-23 -132 -107 -242.5t-208.5 -174.5t-262.5 -64zM507 205 q119 0 217.5 85t120.5 209q20 111 -40 185t-167 74q-121 0 -219 -84.5t-120 -210.5q-20 -112 39.5 -185t168.5 -73z" />
<glyph unicode="&#x152;" horiz-adv-x="2394" d="M2437 1307h-634l-75 -424h549l-41 -230h-548l-75 -424h634l-39 -229h-843l39 222q-128 -114 -285 -178t-321 -64t-301.5 63.5t-226.5 171.5t-126.5 257.5t-8.5 313.5q37 210 171.5 387.5t330 280t406.5 102.5q174 0 316.5 -70t233.5 -194l43 244h842zM829 228 q152 0 291 74.5t233 203t118 280.5q23 143 -28 263t-160.5 189.5t-252.5 69.5q-153 0 -292.5 -74.5t-233.5 -202.5t-118 -281q-23 -143 27.5 -263t160.5 -189.5t255 -69.5z" />
<glyph unicode="&#x153;" horiz-adv-x="1933" d="M1452 982q216 0 337.5 -141t86.5 -358l-10 -45h-759q-12 -117 46 -186t164 -69q82 0 157.5 40t125.5 108l191 -100q-80 -119 -204.5 -184t-270.5 -65q-125 0 -222.5 47t-155.5 131q-85 -83 -196 -130.5t-230 -47.5q-148 0 -259.5 69t-162.5 188t-26 260 q23 133 109.5 243.5t214.5 174.5t268 64q120 0 218 -47.5t158 -131.5q82 84 191 132t229 48zM1452 784q-92 0 -169.5 -48t-123.5 -131h485q-9 86 -57.5 132.5t-134.5 46.5zM523 199q123 0 224.5 88t120.5 213q16 111 -48.5 187t-174.5 76q-125 0 -227 -87.5t-121 -213.5 q-17 -110 48.5 -186.5t177.5 -76.5z" />
<glyph unicode="&#x154;" horiz-adv-x="1424" d="M1233 1936l-385 -293l-79 101l359 331zM1039 1536q198 0 310.5 -135.5t77.5 -328.5q-27 -149 -134.5 -260t-255.5 -147l230 -665h-271l-220 650h-299l-112 -650h-257l270 1536h661zM1183 1096q15 93 -33.5 150t-150.5 57h-409l-74 -429h358q123 0 207 58.5t102 163.5z " />
<glyph unicode="&#x155;" horiz-adv-x="791" d="M522 1070l-79 101l359 331l105 -139zM714 982q85 0 154 -52l-110 -203q-52 29 -103 29q-91 0 -163 -80t-96 -220l-80 -456h-248l168 963h249l-30 -145q45 74 112 119t147 45z" />
<glyph unicode="&#x156;" horiz-adv-x="1424" d="M1039 1536q198 0 310.5 -135.5t77.5 -328.5q-27 -149 -134.5 -260t-255.5 -147l230 -665h-271l-220 650h-299l-112 -650h-257l270 1536h661zM1183 1096q15 93 -33.5 150t-150.5 57h-409l-74 -429h358q123 0 207 58.5t102 163.5zM230 -559l285 466l180 -86l-344 -435z" />
<glyph unicode="&#x157;" horiz-adv-x="791" d="M714 982q85 0 154 -52l-110 -203q-52 29 -103 29q-91 0 -163 -80t-96 -220l-80 -456h-248l168 963h249l-30 -145q45 74 112 119t147 45zM-34 -614l-121 55l285 466l180 -86z" />
<glyph unicode="&#x158;" horiz-adv-x="1424" d="M967 1681h-185l-175 299l114 67l172 -219l252 219l101 -67zM1039 1536q198 0 310.5 -135.5t77.5 -328.5q-27 -149 -134.5 -260t-255.5 -147l230 -665h-271l-220 650h-299l-112 -650h-257l270 1536h661zM1183 1096q15 93 -33.5 150t-150.5 57h-409l-74 -429h358 q123 0 207 58.5t102 163.5z" />
<glyph unicode="&#x159;" horiz-adv-x="791" d="M456 1108l-175 299l114 67l172 -219l252 219l101 -67l-279 -299h-185zM714 982q85 0 154 -52l-110 -203q-52 29 -103 29q-91 0 -163 -80t-96 -220l-80 -456h-248l168 963h249l-30 -145q45 74 112 119t147 45z" />
<glyph unicode="&#x15a;" horiz-adv-x="1174" d="M771 1643l-79 101l359 331l105 -139zM529 -20q-176 0 -311.5 77t-208.5 185l196 164q116 -204 324 -204q121 0 205.5 62t102.5 166q8 47 -3.5 83.5t-53.5 68.5t-72 49t-102 51q-20 10 -31 15q-37 17 -56 26t-53.5 26.5t-54 30t-48.5 33t-45 39t-36 43.5t-29 52t-17 59 t-7.5 69.5t7.5 78.5q22 124 100.5 216.5t187 139t231.5 46.5q273 0 444 -224l-174 -144q-63 87 -129 119t-145 32q-97 0 -171.5 -54t-89.5 -146q-7 -37 3.5 -69.5t27.5 -54t55.5 -46t66.5 -38t82 -37.5q38 -16 62 -26.5t59.5 -27.5t58 -31t52 -34.5t47.5 -41t38 -46.5 t30 -55.5t17.5 -64t6.5 -75t-9 -85.5q-24 -135 -109 -234t-201 -146t-248 -47z" />
<glyph unicode="&#x15b;" horiz-adv-x="920" d="M536 1074l-79 101l359 331l105 -139zM390 -19q-218 0 -395 129l130 165q48 -43 121.5 -71.5t143.5 -28.5q76 0 128.5 34t62.5 90q3 15 0 27t-12.5 21t-20 16t-30 13.5t-35.5 11.5t-42.5 13t-45.5 15q-49 13 -85 25.5t-76.5 36t-63.5 52.5t-34 74.5t-1 102.5 q24 133 141 204t274 71q194 0 339 -104l-128 -149q-49 35 -112.5 54t-116.5 19q-69 0 -115.5 -28.5t-54.5 -76.5q-3 -14 0.5 -26t14.5 -21.5t23 -16.5t32 -14t36.5 -12t42.5 -12t43 -13q69 -16 117 -37t87.5 -55.5t53.5 -87t1 -122.5q-25 -144 -138.5 -221.5t-284.5 -77.5z " />
<glyph unicode="&#x15e;" horiz-adv-x="1174" d="M725 894q38 -16 62 -26.5t59.5 -27.5t58 -31t52 -34.5t47.5 -41t38 -46.5t30 -55.5t17.5 -64t6.5 -75t-9 -85.5q-23 -132 -104.5 -229t-193 -145.5t-240.5 -52.5l-84 -105q104 19 168.5 -42t47.5 -164q-16 -86 -85 -144t-154 -58q-80 0 -145.5 46.5t-80.5 109.5l116 25 q11 -26 40.5 -41.5t58.5 -15.5q45 0 84 33.5t47 80.5q9 54 -36.5 67t-125.5 -20l-96 62l119 174q-139 22 -246 93t-168 161l196 164q116 -204 324 -204q121 0 205.5 62t102.5 166q8 47 -3.5 83.5t-53.5 68.5t-72 49t-102 51q-20 10 -31 15q-37 17 -56 26t-53.5 26.5t-54 30 t-48.5 33t-45 39t-36 43.5t-29 52t-17 59t-7.5 69.5t7.5 78.5q22 124 100.5 216.5t187 139t231.5 46.5q273 0 444 -224l-174 -144q-63 87 -129 119t-145 32q-97 0 -171.5 -54t-89.5 -146q-7 -37 3.5 -69.5t27.5 -54t55.5 -46t66.5 -38t82 -37.5z" />
<glyph unicode="&#x15f;" horiz-adv-x="920" d="M554 582q69 -16 117 -37t87.5 -55.5t53.5 -87t1 -122.5q-23 -130 -119 -206.5t-243 -89.5l-83 -104q104 19 168.5 -42t47.5 -164q-16 -86 -85 -144t-154 -58q-80 0 -145.5 46.5t-80.5 109.5l116 25q11 -26 40.5 -41.5t58.5 -15.5q45 0 84 33.5t47 80.5q9 54 -36.5 67 t-125.5 -20l-96 62l113 165q-176 18 -325 126l130 165q48 -43 121.5 -71.5t143.5 -28.5q76 0 128.5 34t62.5 90q3 15 0 27t-12.5 21t-20 16t-30 13.5t-35.5 11.5t-42.5 13t-45.5 15q-49 13 -85 25.5t-76.5 36t-63.5 52.5t-34 74.5t-1 102.5q24 133 141 204t274 71 q194 0 339 -104l-128 -149q-49 35 -112.5 54t-116.5 19q-69 0 -115.5 -28.5t-54.5 -76.5q-3 -14 0.5 -26t14.5 -21.5t23 -16.5t32 -14t36.5 -12t42.5 -12t43 -13z" />
<glyph unicode="&#x160;" horiz-adv-x="1174" d="M705 1681l-175 299l114 67l172 -219l252 219l101 -67l-279 -299h-185zM529 -20q-176 0 -311.5 77t-208.5 185l196 164q116 -204 324 -204q121 0 205.5 62t102.5 166q8 47 -3.5 83.5t-53.5 68.5t-72 49t-102 51q-20 10 -31 15q-37 17 -56 26t-53.5 26.5t-54 30t-48.5 33 t-45 39t-36 43.5t-29 52t-17 59t-7.5 69.5t7.5 78.5q22 124 100.5 216.5t187 139t231.5 46.5q273 0 444 -224l-174 -144q-63 87 -129 119t-145 32q-97 0 -171.5 -54t-89.5 -146q-7 -37 3.5 -69.5t27.5 -54t55.5 -46t66.5 -38t82 -37.5q38 -16 62 -26.5t59.5 -27.5t58 -31 t52 -34.5t47.5 -41t38 -46.5t30 -55.5t17.5 -64t6.5 -75t-9 -85.5q-24 -135 -109 -234t-201 -146t-248 -47z" />
<glyph unicode="&#x161;" horiz-adv-x="920" d="M470 1112l-175 299l114 67l172 -219l252 219l101 -67l-279 -299h-185zM390 -19q-218 0 -395 129l130 165q48 -43 121.5 -71.5t143.5 -28.5q76 0 128.5 34t62.5 90q3 15 0 27t-12.5 21t-20 16t-30 13.5t-35.5 11.5t-42.5 13t-45.5 15q-49 13 -85 25.5t-76.5 36t-63.5 52.5 t-34 74.5t-1 102.5q24 133 141 204t274 71q194 0 339 -104l-128 -149q-49 35 -112.5 54t-116.5 19q-69 0 -115.5 -28.5t-54.5 -76.5q-3 -14 0.5 -26t14.5 -21.5t23 -16.5t32 -14t36.5 -12t42.5 -12t43 -13q69 -16 117 -37t87.5 -55.5t53.5 -87t1 -122.5 q-25 -144 -138.5 -221.5t-284.5 -77.5z" />
<glyph unicode="&#x162;" horiz-adv-x="1132" d="M610 0h-63l-99 -124q104 19 168.5 -42t47.5 -164q-16 -86 -85 -144t-154 -58q-80 0 -145.5 46.5t-80.5 109.5l116 25q11 -26 40.5 -41.5t58.5 -15.5q45 0 84 33.5t47 80.5q9 54 -36.5 67t-125.5 -20l-96 62l126 185h-59l229 1299h-405l42 237h1065l-43 -237h-403z" />
<glyph unicode="&#x163;" horiz-adv-x="680" d="M381 0h-58l-99 -124q104 19 168.5 -42t47.5 -164q-16 -86 -85 -144t-154 -58q-80 0 -145.5 46.5t-80.5 109.5l116 25q11 -26 40.5 -41.5t58.5 -15.5q45 0 84 33.5t47 80.5q9 54 -36.5 67t-125.5 -20l-96 62l126 185h-57l133 762h-189l35 201h189l61 346h250l-61 -346h186 l-35 -201h-186z" />
<glyph unicode="&#x164;" horiz-adv-x="1132" d="M872 1681h-185l-175 299l114 67l172 -219l252 219l101 -67zM1285 1536l-43 -237h-403l-229 -1299h-256l229 1299h-405l42 237h1065z" />
<glyph unicode="&#x165;" horiz-adv-x="680" d="M994 1667q64 0 102 -35.5t38 -87.5q0 -56 -39 -102l-280 -365h-165l228 321q-31 20 -44.5 60.5t0.5 96.5q19 46 66 79t94 33zM611 1309l-61 -346h186l-35 -201h-186l-134 -762h-249l133 762h-189l35 201h189l61 346h250z" />
<glyph unicode="&#x166;" horiz-adv-x="1132" d="M1242 1299h-403l-81 -458h199l-28 -158h-199l-120 -683h-256l120 683h-204l28 158h204l81 458h-405l42 237h1065z" />
<glyph unicode="&#x167;" horiz-adv-x="680" d="M701 762h-186l-45 -254h138l-22 -158h-144l-61 -350h-249l61 350h-140l23 158h145l44 254h-189l35 201h189l61 346h250l-61 -346h186z" />
<glyph unicode="&#x168;" horiz-adv-x="1538" d="M1123 1633q-48 0 -83.5 17.5t-52 36.5t-34.5 50q-13 21 -21.5 31.5t-23 19t-32.5 8.5q-48 0 -82.5 -46.5t-47.5 -114.5l-137 17q23 129 93 209.5t175 80.5q43 0 76.5 -17t50 -36t36.5 -51q13 -20 21 -29.5t24.5 -19.5t37.5 -10q47 0 79 43t45 118l137 -18 q-24 -132 -92.5 -210.5t-168.5 -78.5zM695 -20q-176 0 -307 70t-191 194.5t-33 278.5l180 1013h256l-174 -984q-26 -151 52 -243t225 -92q159 0 282.5 99.5t151.5 252.5l170 967h257l-183 -1030q-27 -154 -125 -274.5t-245 -186t-316 -65.5z" />
<glyph unicode="&#x169;" horiz-adv-x="1087" d="M795 1060q-48 0 -83.5 17.5t-52 36.5t-34.5 50q-13 21 -21.5 31.5t-23 19t-32.5 8.5q-48 0 -82.5 -46.5t-47.5 -114.5l-137 17q23 129 93 209.5t175 80.5q43 0 76.5 -17t50 -36t36.5 -51q13 -20 21 -29.5t24.5 -19.5t37.5 -10q47 0 79 43t45 118l137 -18 q-24 -132 -92.5 -210.5t-168.5 -78.5zM468 -19q-201 0 -297.5 106t-66.5 282l104 594h248l-103 -589q-15 -86 18 -130.5t102 -44.5q82 0 144 52t77 140l99 572h249l-107 -611q-31 -175 -153.5 -273t-313.5 -98z" />
<glyph unicode="&#x16a;" horiz-adv-x="1538" d="M670 1730l27 153h634l-27 -153h-634zM695 -20q-176 0 -307 70t-191 194.5t-33 278.5l180 1013h256l-174 -984q-26 -151 52 -243t225 -92q159 0 282.5 99.5t151.5 252.5l170 967h257l-183 -1030q-27 -154 -125 -274.5t-245 -186t-316 -65.5z" />
<glyph unicode="&#x16b;" horiz-adv-x="1087" d="M342 1157l27 153h634l-27 -153h-634zM468 -19q-201 0 -297.5 106t-66.5 282l104 594h248l-103 -589q-15 -86 18 -130.5t102 -44.5q82 0 144 52t77 140l99 572h249l-107 -611q-31 -175 -153.5 -273t-313.5 -98z" />
<glyph unicode="&#x16e;" horiz-adv-x="1538" d="M993 1665q-103 0 -164.5 74.5t-43.5 176.5q16 88 91 151t165 63q101 0 160.5 -73.5t41.5 -176.5q-15 -89 -88.5 -152t-161.5 -63zM991 1778q57 0 99 39.5t46 98.5q5 42 -23 73.5t-71 31.5q-55 0 -97 -42t-47 -99q-3 -45 23 -73.5t70 -28.5zM695 -20q-176 0 -307 70 t-191 194.5t-33 278.5l180 1013h256l-174 -984q-26 -151 52 -243t225 -92q159 0 282.5 99.5t151.5 252.5l170 967h257l-183 -1030q-27 -154 -125 -274.5t-245 -186t-316 -65.5z" />
<glyph unicode="&#x16f;" horiz-adv-x="1087" d="M680 1108q-103 0 -164 74.5t-42 176.5q15 88 89.5 151t164.5 63q101 0 161 -73.5t43 -176.5q-17 -89 -90.5 -152t-161.5 -63zM678 1221q57 0 99.5 39.5t46.5 98.5q4 42 -23.5 73.5t-70.5 31.5q-55 0 -97 -42.5t-46 -98.5q-4 -45 21.5 -73.5t69.5 -28.5zM468 -19 q-201 0 -297.5 106t-66.5 282l104 594h248l-103 -589q-15 -86 18 -130.5t102 -44.5q82 0 144 52t77 140l99 572h249l-107 -611q-31 -175 -153.5 -273t-313.5 -98z" />
<glyph unicode="&#x170;" horiz-adv-x="1538" d="M741 1677l-91 119l391 313l101 -131zM1163 1677l-93 119l392 313l101 -131zM695 -20q-176 0 -307 70t-191 194.5t-33 278.5l180 1013h256l-174 -984q-26 -151 52 -243t225 -92q159 0 282.5 99.5t151.5 252.5l170 967h257l-183 -1030q-27 -154 -125 -274.5t-245 -186 t-316 -65.5z" />
<glyph unicode="&#x171;" horiz-adv-x="1087" d="M413 1104l-91 119l391 313l101 -131zM835 1104l-93 119l392 313l101 -131zM468 -19q-201 0 -297.5 106t-66.5 282l104 594h248l-103 -589q-15 -86 18 -130.5t102 -44.5q82 0 144 52t77 140l99 572h249l-107 -611q-31 -175 -153.5 -273t-313.5 -98z" />
<glyph unicode="&#x172;" horiz-adv-x="1538" d="M1307 1536h257l-183 -1030q-34 -193 -175.5 -329t-343.5 -179q-203 -103 -226 -231q-15 -89 83 -89q99 0 199 90l83 -145q-137 -118 -309 -108q-119 7 -177.5 76t-38.5 175q22 127 159 216q-160 12 -276 84.5t-168.5 192t-26.5 264.5l180 1013h256l-174 -984 q-26 -151 52 -243t225 -92q159 0 282.5 99.5t151.5 252.5z" />
<glyph unicode="&#x173;" horiz-adv-x="1087" d="M793 963h249l-107 -611q-27 -152 -125 -247.5t-252 -117.5q-262 -113 -289 -260q-15 -89 83 -89q99 0 199 90l83 -145q-137 -118 -309 -108q-119 7 -177.5 76t-38.5 175q27 164 248 265q-146 28 -212.5 128.5t-40.5 249.5l104 594h248l-103 -589q-15 -86 18 -130.5 t102 -44.5q82 0 144 52t77 140z" />
<glyph unicode="&#x174;" horiz-adv-x="2054" d="M1277 1860l-252 -219l-102 67l277 299h184l179 -299l-115 -67zM1963 1536h281l-860 -1536h-209l-130 573l-332 -573h-213l-314 1536h271l217 -1198l301 545l-148 653h257l67 -334l185 334h268l-386 -665l108 -533z" />
<glyph unicode="&#x175;" horiz-adv-x="1543" d="M921 1287l-252 -219l-102 67l277 299h184l179 -299l-115 -67zM1364 963h258l-508 -963h-202l-113 636l-341 -636h-202l-164 963h251l89 -634l339 634h165l112 -638z" />
<glyph unicode="&#x176;" horiz-adv-x="1357" d="M927 1860l-252 -219l-102 67l277 299h184l179 -299l-115 -67zM1530 1536l-683 -815l-126 -721h-257l128 728l-393 808h295l264 -575l470 575h302z" />
<glyph unicode="&#x177;" horiz-adv-x="1051" d="M654 1287l-252 -219l-102 67l277 299h184l179 -299l-115 -67zM859 963h267l-839 -1455h-262l289 506l-222 949h269l127 -700z" />
<glyph unicode="&#x178;" horiz-adv-x="1357" d="M697 1647q-61 0 -98 45t-27 107q9 48 50.5 82t89.5 34q61 0 98.5 -45t26.5 -108q-9 -48 -50 -81.5t-90 -33.5zM1103 1647q-62 0 -99 44.5t-26 107.5q9 49 49.5 82.5t89.5 33.5q62 0 98.5 -44.5t26.5 -108.5q-9 -48 -49.5 -81.5t-89.5 -33.5zM1530 1536l-683 -815 l-126 -721h-257l128 728l-393 808h295l264 -575l470 575h302z" />
<glyph unicode="&#x179;" horiz-adv-x="1349" d="M1267 1936l-385 -293l-79 101l359 331zM1492 1536l-6 -50l-1071 -1249h814l-42 -237h-1237l6 56l1065 1243h-766l42 237h1195z" />
<glyph unicode="&#x17a;" horiz-adv-x="974" d="M973 1363l-385 -293l-79 101l359 331zM1006 963l-620 -763h478l-35 -200h-872l617 762h-450l35 201h847z" />
<glyph unicode="&#x17b;" horiz-adv-x="1349" d="M925 1692q-60 0 -97.5 45t-28.5 106q10 50 50.5 84t88.5 34q63 0 100 -45t25 -109q-8 -47 -48.5 -81t-89.5 -34zM1492 1536l-6 -50l-1071 -1249h814l-42 -237h-1237l6 56l1065 1243h-766l42 237h1195z" />
<glyph unicode="&#x17c;" horiz-adv-x="974" d="M631 1119q-60 0 -97.5 45t-28.5 106q10 50 50.5 84t88.5 34q63 0 100 -45t25 -109q-8 -47 -48.5 -81t-89.5 -34zM1006 963l-620 -763h478l-35 -200h-872l617 762h-450l35 201h847z" />
<glyph unicode="&#x17d;" horiz-adv-x="1349" d="M1001 1681h-185l-175 299l114 67l172 -219l252 219l101 -67zM1492 1536l-6 -50l-1071 -1249h814l-42 -237h-1237l6 56l1065 1243h-766l42 237h1195z" />
<glyph unicode="&#x17e;" horiz-adv-x="974" d="M707 1108h-185l-175 299l114 67l172 -219l252 219l101 -67zM1006 963l-620 -763h478l-35 -200h-872l617 762h-450l35 201h847z" />
<glyph unicode="&#x192;" horiz-adv-x="1056" d="M841 1361q-78 0 -131 -50.5t-67 -136.5l-24 -150h278l-31 -206h-280l-212 -1330h-243l210 1330h-171l32 206h172l29 186q24 147 143.5 246.5t266.5 99.5q48 0 91 -11t62 -25l-22 -191q-38 32 -103 32z" />
<glyph unicode="&#x1a0;" horiz-adv-x="1739" d="M1776 1514h157l-23 -132q-23 -128 -84.5 -185t-137.5 -57h-14q69 -180 32 -390t-171.5 -387.5t-330 -280t-406.5 -102.5q-164 0 -301.5 63.5t-226.5 171.5t-126.5 257.5t-8.5 313.5q37 210 171.5 387.5t330 280t406.5 102.5q197 0 352 -88.5t240 -241.5q53 6 85.5 46 t38.5 95zM1454 786q24 144 -23 263.5t-153.5 188t-250.5 68.5q-152 0 -290 -73.5t-231 -201.5t-119 -281q-24 -144 23.5 -263.5t154 -188t250.5 -68.5q152 0 290 73.5t230.5 201.5t118.5 281z" />
<glyph unicode="&#x1a1;" horiz-adv-x="1145" d="M1190 1031h157l-23 -132q-23 -128 -84.5 -185t-137.5 -57q-18 0 -27 1q22 -93 4 -195q-23 -132 -107 -242.5t-208.5 -174.5t-262.5 -64q-146 0 -255 69t-157.5 187.5t-23.5 260.5q23 133 106.5 243.5t208.5 174.5t264 64q140 0 246 -64t157 -174q53 6 86.5 46t39.5 95z M845 499q20 111 -40 185t-167 74q-121 0 -219 -84.5t-120 -210.5q-20 -112 39.5 -185t168.5 -73q119 0 217.5 85t120.5 209z" />
<glyph unicode="&#x1af;" horiz-adv-x="1538" d="M1713 1682h157l-23 -132q-23 -128 -84.5 -185t-137.5 -57q-46 0 -99 17l-145 -819q-27 -154 -125 -274.5t-245 -186t-316 -65.5q-176 0 -307 70t-191 194.5t-33 278.5l180 1013h256l-174 -984q-26 -151 52 -243t225 -92q159 0 282.5 99.5t151.5 252.5l170 967h257 l-25 -142q6 -1 15 -1q60 0 98 41t44 101z" />
<glyph unicode="&#x1b0;" horiz-adv-x="1087" d="M1169 962h157l-23 -132q-23 -128 -84.5 -185t-137.5 -57q-49 0 -102 18l-44 -254q-31 -175 -153.5 -273t-313.5 -98q-201 0 -297.5 106t-66.5 282l104 594h248l-103 -589q-15 -86 18 -130.5t102 -44.5q82 0 144 52t77 140l99 572h249l-51 -289q8 -1 19 -1q60 0 98 41 t44 101z" />
<glyph unicode="&#x1cd;" horiz-adv-x="1408" d="M1011 1681h-185l-175 299l114 67l172 -219l252 219l101 -67zM1039 0l-43 240h-667l-128 -240h-284l873 1536h195l334 -1536h-280zM448 462h509l-128 714z" />
<glyph unicode="&#x1ce;" horiz-adv-x="1256" d="M790 1110h-185l-175 299l114 67l172 -219l252 219l101 -67zM940 963h248l-168 -963h-232l15 125q-141 -144 -340 -144q-129 0 -228.5 67.5t-144.5 187.5t-20 265q24 136 105.5 247.5t196 173.5t235.5 62q213 0 310 -157zM532 202q123 0 221 87t117 212q18 110 -45.5 186 t-173.5 76q-121 0 -219.5 -87t-118.5 -211q-17 -110 46.5 -186.5t172.5 -76.5z" />
<glyph unicode="&#x1cf;" horiz-adv-x="640" d="M440 1681l-175 299l114 67l172 -219l252 219l101 -67l-279 -299h-185zM108 0l270 1536h257l-270 -1536h-257z" />
<glyph unicode="&#x1d0;" horiz-adv-x="551" d="M295 1108l-175 299l114 67l172 -219l252 219l101 -67l-279 -299h-185zM68 0l168 963h248l-168 -963h-248z" />
<glyph unicode="&#x1d1;" horiz-adv-x="1739" d="M991 1681l-175 299l114 67l172 -219l252 219l101 -67l-279 -299h-185zM798 -20q-164 0 -301.5 63.5t-226.5 171.5t-126.5 257.5t-8.5 313.5q37 210 171.5 387.5t330 280t406.5 102.5q164 0 301.5 -63.5t226.5 -171.5t126.5 -257.5t8.5 -313.5q-37 -210 -171.5 -387.5 t-330 -280t-406.5 -102.5zM815 230q152 0 290 73.5t230.5 201.5t118.5 281q24 144 -23 263.5t-153.5 188t-250.5 68.5q-152 0 -290 -73.5t-231 -201.5t-119 -281q-24 -144 23.5 -263.5t154 -188t250.5 -68.5z" />
<glyph unicode="&#x1d2;" horiz-adv-x="1145" d="M592 1107l-175 299l114 67l172 -219l252 219l101 -67l-279 -299h-185zM501 -18q-146 0 -255 69t-157.5 187.5t-23.5 260.5q23 133 106.5 243.5t208.5 174.5t264 64q145 0 254 -69t157.5 -188t23.5 -261q-23 -132 -107 -242.5t-208.5 -174.5t-262.5 -64zM507 205 q119 0 217.5 85t120.5 209q20 111 -40 185t-167 74q-121 0 -219 -84.5t-120 -210.5q-20 -112 39.5 -185t168.5 -73z" />
<glyph unicode="&#x1d3;" horiz-adv-x="1538" d="M888 1681l-175 299l114 67l172 -219l252 219l101 -67l-279 -299h-185zM695 -20q-176 0 -307 70t-191 194.5t-33 278.5l180 1013h256l-174 -984q-26 -151 52 -243t225 -92q159 0 282.5 99.5t151.5 252.5l170 967h257l-183 -1030q-27 -154 -125 -274.5t-245 -186 t-316 -65.5z" />
<glyph unicode="&#x1d4;" horiz-adv-x="1087" d="M560 1108l-175 299l114 67l172 -219l252 219l101 -67l-279 -299h-185zM468 -19q-201 0 -297.5 106t-66.5 282l104 594h248l-103 -589q-15 -86 18 -130.5t102 -44.5q82 0 144 52t77 140l99 572h249l-107 -611q-31 -175 -153.5 -273t-313.5 -98z" />
<glyph unicode="&#x1d5;" horiz-adv-x="1538" d="M737 2109l27 153h634l-27 -153h-634zM786 1647q-61 0 -98 45t-27 107q9 48 50.5 82t89.5 34q61 0 98.5 -45t26.5 -108q-9 -48 -50 -81.5t-90 -33.5zM1192 1647q-62 0 -99 44.5t-26 107.5q9 49 49.5 82.5t89.5 33.5q62 0 98.5 -44.5t26.5 -108.5q-9 -48 -49.5 -81.5 t-89.5 -33.5zM695 -20q-176 0 -307 70t-191 194.5t-33 278.5l180 1013h256l-174 -984q-26 -151 52 -243t225 -92q159 0 282.5 99.5t151.5 252.5l170 967h257l-183 -1030q-27 -154 -125 -274.5t-245 -186t-316 -65.5z" />
<glyph unicode="&#x1d6;" horiz-adv-x="1087" d="M419 1597l27 153h634l-27 -153h-634zM469 1135q-61 0 -98 45t-26 107q8 49 48.5 82.5t89.5 33.5q62 0 99 -44.5t26 -107.5q-9 -48 -49.5 -82t-89.5 -34zM874 1135q-61 0 -98 45t-26 107q8 49 49 82.5t90 33.5q62 0 98.5 -44t25.5 -108q-9 -48 -49 -82t-90 -34zM468 -19 q-201 0 -297.5 106t-66.5 282l104 594h248l-103 -589q-15 -86 18 -130.5t102 -44.5q82 0 144 52t77 140l99 572h249l-107 -611q-31 -175 -153.5 -273t-313.5 -98z" />
<glyph unicode="&#x1d7;" horiz-adv-x="1538" d="M1021 2022l-79 101l359 331l105 -139zM786 1647q-61 0 -98 45t-27 107q9 48 50.5 82t89.5 34q61 0 98.5 -45t26.5 -108q-9 -48 -50 -81.5t-90 -33.5zM1192 1647q-62 0 -99 44.5t-26 107.5q9 49 49.5 82.5t89.5 33.5q62 0 98.5 -44.5t26.5 -108.5q-9 -48 -49.5 -81.5 t-89.5 -33.5zM695 -20q-176 0 -307 70t-191 194.5t-33 278.5l180 1013h256l-174 -984q-26 -151 52 -243t225 -92q159 0 282.5 99.5t151.5 252.5l170 967h257l-183 -1030q-27 -154 -125 -274.5t-245 -186t-316 -65.5z" />
<glyph unicode="&#x1d8;" horiz-adv-x="1087" d="M703 1510l-79 101l359 331l105 -139zM469 1135q-61 0 -98 45t-26 107q8 49 48.5 82.5t89.5 33.5q62 0 99 -44.5t26 -107.5q-9 -48 -49.5 -82t-89.5 -34zM874 1135q-61 0 -98 45t-26 107q8 49 49 82.5t90 33.5q62 0 98.5 -44t25.5 -108q-9 -48 -49 -82t-90 -34zM468 -19 q-201 0 -297.5 106t-66.5 282l104 594h248l-103 -589q-15 -86 18 -130.5t102 -44.5q82 0 144 52t77 140l99 572h249l-107 -611q-31 -175 -153.5 -273t-313.5 -98z" />
<glyph unicode="&#x1d9;" horiz-adv-x="1538" d="M955 2060l-175 299l114 67l172 -219l252 219l101 -67l-279 -299h-185zM786 1647q-61 0 -98 45t-27 107q9 48 50.5 82t89.5 34q61 0 98.5 -45t26.5 -108q-9 -48 -50 -81.5t-90 -33.5zM1192 1647q-62 0 -99 44.5t-26 107.5q9 49 49.5 82.5t89.5 33.5q62 0 98.5 -44.5 t26.5 -108.5q-9 -48 -49.5 -81.5t-89.5 -33.5zM695 -20q-176 0 -307 70t-191 194.5t-33 278.5l180 1013h256l-174 -984q-26 -151 52 -243t225 -92q159 0 282.5 99.5t151.5 252.5l170 967h257l-183 -1030q-27 -154 -125 -274.5t-245 -186t-316 -65.5z" />
<glyph unicode="&#x1da;" horiz-adv-x="1087" d="M637 1548l-175 299l114 67l172 -219l252 219l101 -67l-279 -299h-185zM469 1135q-61 0 -98 45t-26 107q8 49 48.5 82.5t89.5 33.5q62 0 99 -44.5t26 -107.5q-9 -48 -49.5 -82t-89.5 -34zM874 1135q-61 0 -98 45t-26 107q8 49 49 82.5t90 33.5q62 0 98.5 -44t25.5 -108 q-9 -48 -49 -82t-90 -34zM468 -19q-201 0 -297.5 106t-66.5 282l104 594h248l-103 -589q-15 -86 18 -130.5t102 -44.5q82 0 144 52t77 140l99 572h249l-107 -611q-31 -175 -153.5 -273t-313.5 -98z" />
<glyph unicode="&#x1db;" horiz-adv-x="1538" d="M1056 2026l-299 289l145 139l252 -331zM786 1647q-61 0 -98 45t-27 107q9 48 50.5 82t89.5 34q61 0 98.5 -45t26.5 -108q-9 -48 -50 -81.5t-90 -33.5zM1192 1647q-62 0 -99 44.5t-26 107.5q9 49 49.5 82.5t89.5 33.5q62 0 98.5 -44.5t26.5 -108.5q-9 -48 -49.5 -81.5 t-89.5 -33.5zM695 -20q-176 0 -307 70t-191 194.5t-33 278.5l180 1013h256l-174 -984q-26 -151 52 -243t225 -92q159 0 282.5 99.5t151.5 252.5l170 967h257l-183 -1030q-27 -154 -125 -274.5t-245 -186t-316 -65.5z" />
<glyph unicode="&#x1dc;" horiz-adv-x="1087" d="M738 1514l-299 289l145 139l252 -331zM469 1135q-61 0 -98 45t-26 107q8 49 48.5 82.5t89.5 33.5q62 0 99 -44.5t26 -107.5q-9 -48 -49.5 -82t-89.5 -34zM874 1135q-61 0 -98 45t-26 107q8 49 49 82.5t90 33.5q62 0 98.5 -44t25.5 -108q-9 -48 -49 -82t-90 -34zM468 -19 q-201 0 -297.5 106t-66.5 282l104 594h248l-103 -589q-15 -86 18 -130.5t102 -44.5q82 0 144 52t77 140l99 572h249l-107 -611q-31 -175 -153.5 -273t-313.5 -98z" />
<glyph unicode="&#x218;" horiz-adv-x="1174" d="M529 -20q-176 0 -311.5 77t-208.5 185l196 164q116 -204 324 -204q121 0 205.5 62t102.5 166q8 47 -3.5 83.5t-53.5 68.5t-72 49t-102 51q-20 10 -31 15q-37 17 -56 26t-53.5 26.5t-54 30t-48.5 33t-45 39t-36 43.5t-29 52t-17 59t-7.5 69.5t7.5 78.5q22 124 100.5 216.5 t187 139t231.5 46.5q273 0 444 -224l-174 -144q-63 87 -129 119t-145 32q-97 0 -171.5 -54t-89.5 -146q-7 -37 3.5 -69.5t27.5 -54t55.5 -46t66.5 -38t82 -37.5q38 -16 62 -26.5t59.5 -27.5t58 -31t52 -34.5t47.5 -41t38 -46.5t30 -55.5t17.5 -64t6.5 -75t-9 -85.5 q-24 -135 -109 -234t-201 -146t-248 -47zM272 -615l-121 55l285 466l180 -86z" />
<glyph unicode="&#x219;" horiz-adv-x="920" d="M390 -19q-218 0 -395 129l130 165q48 -43 121.5 -71.5t143.5 -28.5q76 0 128.5 34t62.5 90q3 15 0 27t-12.5 21t-20 16t-30 13.5t-35.5 11.5t-42.5 13t-45.5 15q-49 13 -85 25.5t-76.5 36t-63.5 52.5t-34 74.5t-1 102.5q24 133 141 204t274 71q194 0 339 -104l-128 -149 q-49 35 -112.5 54t-116.5 19q-69 0 -115.5 -28.5t-54.5 -76.5q-3 -14 0.5 -26t14.5 -21.5t23 -16.5t32 -14t36.5 -12t42.5 -12t43 -13q69 -16 117 -37t87.5 -55.5t53.5 -87t1 -122.5q-25 -144 -138.5 -221.5t-284.5 -77.5zM175 -610l-121 55l285 466l180 -86z" />
<glyph unicode="&#x21a;" horiz-adv-x="1132" d="M1285 1536l-43 -237h-403l-229 -1299h-256l229 1299h-405l42 237h1065zM134 -559l285 466l180 -86l-344 -435z" />
<glyph unicode="&#x21b;" horiz-adv-x="680" d="M736 963l-35 -201h-186l-134 -762h-249l133 762h-189l35 201h189l61 346h250l-61 -346h186zM-90 -559l285 466l180 -86l-344 -435z" />
<glyph unicode="&#x237;" horiz-adv-x="555" d="M-25 -512l263 1475h248l-262 -1475h-249z" />
<glyph unicode="&#x2c6;" horiz-adv-x="750" d="M291 1170l-102 67l277 299h184l179 -299l-115 -67l-171 219z" />
<glyph unicode="&#x2c7;" horiz-adv-x="753" d="M406 1169l-175 299l114 67l172 -219l252 219l101 -67l-279 -299h-185z" />
<glyph unicode="&#x2d8;" horiz-adv-x="888" d="M581 1189q-165 0 -252 92.5t-58 254.5h160q-14 -97 25.5 -153.5t128.5 -56.5q101 0 160.5 60t74.5 150h161q-28 -172 -135 -259.5t-265 -87.5z" />
<glyph unicode="&#x2d9;" horiz-adv-x="494" d="M389 1192q-60 0 -97.5 45t-28.5 106q10 50 50.5 84t88.5 34q63 0 100 -45t25 -109q-8 -47 -48.5 -81t-89.5 -34z" />
<glyph unicode="&#x2da;" horiz-adv-x="652" d="M455 1108q-103 0 -164 74.5t-42 176.5q15 88 89.5 151t164.5 63q101 0 161 -73.5t43 -176.5q-17 -89 -90.5 -152t-161.5 -63zM453 1221q57 0 99.5 39.5t46.5 98.5q4 42 -23.5 73.5t-70.5 31.5q-55 0 -97 -42.5t-46 -98.5q-4 -45 21.5 -73.5t69.5 -28.5z" />
<glyph unicode="&#x2db;" horiz-adv-x="659" d="M158 -529q-118 7 -177 76t-39 175q32 192 353 331l127 -57q-292 -117 -320 -273q-15 -89 83 -89q99 0 199 90l83 -145q-137 -118 -309 -108z" />
<glyph unicode="&#x2dc;" horiz-adv-x="944" d="M756 1238q-134 0 -181 131q-27 32 -56 32q-47 0 -82 -46.5t-47 -114.5l-146 17q23 130 93 210t169 80q71 0 116.5 -37t65.5 -94q2 -2 12 -11t14 -11.5t13.5 -6t19.5 -3.5q47 0 80.5 43t46.5 118l145 -18q-23 -130 -91.5 -209.5t-171.5 -79.5z" />
<glyph unicode="&#x2dd;" horiz-adv-x="502" d="M246 1131l-79 101l359 331l105 -139z" />
<glyph unicode="&#x300;" d="M-1 1135l-299 289l145 139l252 -331z" />
<glyph unicode="&#x301;" d="M-256 1131l-79 101l359 331l105 -139z" />
<glyph unicode="&#x302;" d="M-459 1170l-102 67l277 299h184l179 -299l-115 -67l-171 219z" />
<glyph unicode="&#x303;" d="M-186 1238q-48 0 -83.5 17.5t-52 36.5t-34.5 50q-13 21 -21.5 31.5t-23 19t-32.5 8.5q-48 0 -82.5 -46.5t-47.5 -114.5l-137 17q23 129 93 209.5t175 80.5q43 0 76.5 -17t50 -36t36.5 -51q13 -20 21 -29.5t24.5 -19.5t37.5 -10q47 0 79 43t45 118l137 -18 q-24 -132 -92.5 -210.5t-168.5 -78.5z" />
<glyph unicode="&#x304;" d="M-652 1218l27 153h634l-27 -153h-634z" />
<glyph unicode="&#x306;" d="M-308 1189q-164 0 -251.5 91t-58.5 244h160q-14 -89 26 -143.5t128 -54.5q100 0 160 58t75 140h160q-28 -164 -135 -249.5t-264 -85.5z" />
<glyph unicode="&#x307;" d="M-105 1192q-60 0 -97.5 45t-28.5 106q10 50 50.5 84t88.5 34q63 0 100 -45t25 -109q-8 -47 -48.5 -81t-89.5 -34z" />
<glyph unicode="&#x308;" d="M-522 1135q-61 0 -98 45t-26 107q8 49 48.5 82.5t89.5 33.5q62 0 99 -44.5t26 -107.5q-9 -48 -49.5 -82t-89.5 -34zM-117 1135q-61 0 -98 45t-26 107q8 49 49 82.5t90 33.5q62 0 98.5 -44t25.5 -108q-9 -48 -49 -82t-90 -34z" />
<glyph unicode="&#x309;" d="M-279 1055l22 181q166 29 178 131q4 33 -16 53t-55 20q-63 0 -119 -46l-74 131q92 64 194 64q110 0 173.5 -70t45.5 -178q-13 -66 -59.5 -117.5t-128.5 -73.5l-24 -95h-137z" />
<glyph unicode="&#x30a;" d="M-197 1108q-103 0 -164 74.5t-42 176.5q15 88 89.5 151t164.5 63q101 0 161 -73.5t43 -176.5q-17 -89 -90.5 -152t-161.5 -63zM-199 1221q57 0 99.5 39.5t46.5 98.5q4 42 -23.5 73.5t-70.5 31.5q-55 0 -97 -42.5t-46 -98.5q-4 -45 21.5 -73.5t69.5 -28.5z" />
<glyph unicode="&#x30b;" d="M-685 1165l-91 119l391 313l101 -131zM-263 1165l-93 119l392 313l101 -131z" />
<glyph unicode="&#x30c;" d="M-347 1169l-175 299l114 67l172 -219l252 219l101 -67l-279 -299h-185z" />
<glyph unicode="&#x312;" d="M-63 1358q38 -19 58.5 -61t11.5 -90q-10 -53 -55.5 -91.5t-99.5 -38.5q-68 0 -107 48.5t-26 118.5q4 21 16 50l253 433h131z" />
<glyph unicode="&#x31b;" d="M-252 780q-107 0 -212 73l59 37q42 -25 82 -25q60 0 98 41t44 101l17 147h157l-23 -132q-23 -128 -84.5 -185t-137.5 -57z" />
<glyph unicode="&#x323;" d="M-406 -501q-62 0 -99.5 45.5t-26.5 108.5q9 49 50.5 84.5t90.5 35.5q62 0 100 -46.5t27 -109.5q-8 -49 -50 -83.5t-92 -34.5z" />
<glyph unicode="&#x326;" d="M-448 -292l-121 55l285 466l180 -86z" />
<glyph unicode="&#x327;" d="M-456 -532q-80 0 -145.5 46.5t-80.5 109.5l116 25q11 -26 40.5 -41.5t58.5 -15.5q45 0 84 33.5t47 80.5q9 54 -36.5 67t-125.5 -20l-96 62l129 189h134l-102 -128q104 19 168.5 -42t47.5 -164q-16 -86 -85 -144t-154 -58z" />
<glyph unicode="&#x328;" d="M-502 -529q-119 7 -177.5 76t-38.5 175q36 212 387 317l93 -43q-292 -117 -320 -273q-15 -89 83 -89q99 0 199 90l83 -145q-137 -118 -309 -108z" />
<glyph unicode="&#x335;" d="M-814 438l28 158h659l-28 -158h-659z" />
<glyph unicode="&#x336;" d="M-1647 470l22 125h1499l-22 -125h-1499z" />
<glyph unicode="&#x337;" d="M-712 228l29 181l706 464l-29 -182z" />
<glyph unicode="&#x338;" d="M-1232 -110l-124 78l1445 1659l121 -80z" />
<glyph unicode="&#x394;" horiz-adv-x="1557" d="M1099 1536l346 -1536h-1506l886 1536h274zM337 229h798l-216 1033z" />
<glyph unicode="&#x3a9;" horiz-adv-x="1768" d="M18 0l37 211h278l11 17q-86 95 -131.5 258t-12.5 354q34 197 153.5 356.5t305 252t400.5 92.5q101 0 189.5 -20.5t156.5 -58t124 -90t91 -116t57.5 -136.5t23.5 -152t-11 -161q-30 -173 -129.5 -335.5t-221.5 -256.5l-6 -4h286l-37 -211h-645l21 162q75 38 145 97 t131.5 137t107 181t65.5 216q26 146 -3.5 265.5t-119 193.5t-228.5 74q-216 0 -382 -160.5t-210 -411.5q-36 -207 29.5 -369t190.5 -231l-19 -154h-647z" />
<glyph unicode="&#x3bc;" horiz-adv-x="1218" d="M902 963h247l-168 -963h-247l19 107q-131 -125 -295 -125q-114 0 -201 63l-92 -526h-181l254 1444h248l-100 -573q-15 -83 28.5 -137.5t122.5 -54.5q95 0 174.5 62t93.5 147z" />
<glyph unicode="&#x3c0;" horiz-adv-x="1288" d="M59 9q77 147 159.5 371.5t125.5 397.5q-154 -11 -231 -42l-14 171q90 56 341 56h906l-54 -193h-162l-86 -489q-35 -194 -27 -290l-214 17q-28 56 10 274l86 488l-338 -9q-39 -180 -120 -415t-154 -355z" />
<glyph unicode="&#x1e80;" horiz-adv-x="2054" d="M1348 1744l-98 -97l-299 289l145 139zM1963 1536h281l-860 -1536h-209l-130 573l-332 -573h-213l-314 1536h271l217 -1198l301 545l-148 653h257l67 -334l185 334h268l-386 -665l108 -533z" />
<glyph unicode="&#x1e81;" horiz-adv-x="1543" d="M992 1171l-98 -97l-299 289l145 139zM1364 963h258l-508 -963h-202l-113 636l-341 -636h-202l-164 963h251l89 -634l339 634h165l112 -638z" />
<glyph unicode="&#x1e82;" horiz-adv-x="2054" d="M1600 1936l-385 -293l-79 101l359 331zM1963 1536h281l-860 -1536h-209l-130 573l-332 -573h-213l-314 1536h271l217 -1198l301 545l-148 653h257l67 -334l185 334h268l-386 -665l108 -533z" />
<glyph unicode="&#x1e83;" horiz-adv-x="1543" d="M1244 1363l-385 -293l-79 101l359 331zM1364 963h258l-508 -963h-202l-113 636l-341 -636h-202l-164 963h251l89 -634l339 634h165l112 -638z" />
<glyph unicode="&#x1e84;" horiz-adv-x="2054" d="M1047 1647q-61 0 -98 45t-27 107q9 48 50.5 82t89.5 34q61 0 98.5 -45t26.5 -108q-9 -48 -50 -81.5t-90 -33.5zM1453 1647q-62 0 -99 44.5t-26 107.5q9 49 49.5 82.5t89.5 33.5q62 0 98.5 -44.5t26.5 -108.5q-9 -48 -49.5 -81.5t-89.5 -33.5zM1963 1536h281l-860 -1536 h-209l-130 573l-332 -573h-213l-314 1536h271l217 -1198l301 545l-148 653h257l67 -334l185 334h268l-386 -665l108 -533z" />
<glyph unicode="&#x1e85;" horiz-adv-x="1543" d="M702 1135q-61 0 -98 45t-26 107q8 49 48.5 82.5t89.5 33.5q62 0 99 -44.5t26 -107.5q-9 -48 -49.5 -82t-89.5 -34zM1107 1135q-61 0 -98 45t-26 107q8 49 49 82.5t90 33.5q62 0 98.5 -44t25.5 -108q-9 -48 -49 -82t-90 -34zM1364 963h258l-508 -963h-202l-113 636 l-341 -636h-202l-164 963h251l89 -634l339 634h165l112 -638z" />
<glyph unicode="&#x1ea0;" horiz-adv-x="1408" d="M1319 0h-280l-43 240h-667l-128 -240h-284l873 1536h195zM448 462h509l-128 714zM582 -126q62 0 100 -46.5t27 -109.5q-8 -49 -50 -83.5t-92 -34.5q-62 0 -99.5 45.5t-26.5 108.5q9 49 50.5 84.5t90.5 35.5z" />
<glyph unicode="&#x1ea1;" horiz-adv-x="1256" d="M940 963h248l-168 -963h-232l15 125q-141 -144 -340 -144q-129 0 -228.5 67.5t-144.5 187.5t-20 265q24 136 105.5 247.5t196 173.5t235.5 62q213 0 310 -157zM532 202q123 0 221 87t117 212q18 110 -45.5 186t-173.5 76q-121 0 -219.5 -87t-118.5 -211 q-17 -110 46.5 -186.5t172.5 -76.5zM504 -126q62 0 100 -46.5t27 -109.5q-8 -49 -50 -83.5t-92 -34.5q-62 0 -99.5 45.5t-26.5 108.5q9 49 50.5 84.5t90.5 35.5z" />
<glyph unicode="&#x1ea2;" horiz-adv-x="1408" d="M968 2013q-63 0 -119 -46l-74 131q92 64 194 64q110 0 173.5 -70t45.5 -178q-13 -66 -59.5 -117.5t-128.5 -73.5l-24 -95h-137l22 181q166 29 178 131q4 33 -16 53t-55 20zM1039 0l-43 240h-667l-128 -240h-284l873 1536h195l334 -1536h-280zM448 462h509l-128 714z" />
<glyph unicode="&#x1ea3;" horiz-adv-x="1256" d="M747 1442q-63 0 -119 -46l-74 131q92 64 194 64q110 0 173.5 -70t45.5 -178q-13 -66 -59.5 -117.5t-128.5 -73.5l-24 -95h-137l22 181q166 29 178 131q4 33 -16 53t-55 20zM940 963h248l-168 -963h-232l15 125q-141 -144 -340 -144q-129 0 -228.5 67.5t-144.5 187.5 t-20 265q24 136 105.5 247.5t196 173.5t235.5 62q213 0 310 -157zM532 202q123 0 221 87t117 212q18 110 -45.5 186t-173.5 76q-121 0 -219.5 -87t-118.5 -211q-17 -110 46.5 -186.5t172.5 -76.5z" />
<glyph unicode="&#x1ea4;" horiz-adv-x="1408" d="M1358 2407l-385 -293l-79 101l359 331zM954 1860l-252 -219l-102 67l277 299h184l179 -299l-115 -67zM790 1536h195l334 -1536h-280l-43 240h-667l-128 -240h-284zM448 462h509l-128 714z" />
<glyph unicode="&#x1ea5;" horiz-adv-x="1256" d="M1137 1836l-385 -293l-79 101l359 331zM733 1289l-252 -219l-102 67l277 299h184l179 -299l-115 -67zM940 963h248l-168 -963h-232l15 125q-141 -144 -340 -144q-129 0 -228.5 67.5t-144.5 187.5t-20 265q24 136 105.5 247.5t196 173.5t235.5 62q213 0 310 -157zM532 202 q123 0 221 87t117 212q18 110 -45.5 186t-173.5 76q-121 0 -219.5 -87t-118.5 -211q-17 -110 46.5 -186.5t172.5 -76.5z" />
<glyph unicode="&#x1ea6;" horiz-adv-x="1408" d="M1106 2215l-98 -97l-298 289l145 139zM954 1860l-252 -219l-102 67l276 299h185l178 -299l-115 -67zM1039 0l-43 240h-667l-128 -240h-284l873 1536h195l334 -1536h-280zM448 462h509l-128 714z" />
<glyph unicode="&#x1ea7;" horiz-adv-x="1256" d="M885 1644l-98 -97l-298 289l145 139zM733 1289l-252 -219l-102 67l276 299h185l178 -299l-115 -67zM940 963h248l-168 -963h-232l15 125q-141 -144 -340 -144q-129 0 -228.5 67.5t-144.5 187.5t-20 265q24 136 105.5 247.5t196 173.5t235.5 62q213 0 310 -157zM532 202 q123 0 221 87t117 212q18 110 -45.5 186t-173.5 76q-121 0 -219.5 -87t-118.5 -211q-17 -110 46.5 -186.5t172.5 -76.5z" />
<glyph unicode="&#x1ea8;" horiz-adv-x="1408" d="M1057 2490q-64 0 -126 -52l-74 131q90 65 194 65q110 0 173 -70.5t44 -177.5q-11 -66 -57.5 -118t-129.5 -73l-25 -96h-136l22 181q75 13 121.5 49t56.5 92q6 31 -10 50t-53 19zM954 1860l-252 -219l-102 67l276 299h185l178 -299l-115 -67zM1039 0l-43 240h-667 l-128 -240h-284l873 1536h195l334 -1536h-280zM448 462h509l-128 714z" />
<glyph unicode="&#x1ea9;" horiz-adv-x="1256" d="M836 1919q-64 0 -126 -52l-74 131q90 65 194 65q110 0 173 -70.5t44 -177.5q-11 -66 -57.5 -118t-129.5 -73l-25 -96h-136l22 181q75 13 121.5 49t56.5 92q6 31 -10 50t-53 19zM733 1289l-252 -219l-102 67l276 299h185l178 -299l-115 -67zM940 963h248l-168 -963h-232 l15 125q-141 -144 -340 -144q-129 0 -228.5 67.5t-144.5 187.5t-20 265q24 136 105.5 247.5t196 173.5t235.5 62q213 0 310 -157zM532 202q123 0 221 87t117 212q18 110 -45.5 186t-173.5 76q-121 0 -219.5 -87t-118.5 -211q-17 -110 46.5 -186.5t172.5 -76.5z" />
<glyph unicode="&#x1eaa;" horiz-adv-x="1408" d="M905 2267q-48 0 -83.5 -47t-47.5 -114l-146 17q23 131 93 210.5t169 79.5q70 0 115.5 -37t67.5 -94q2 -2 8 -7.5t8 -7.5t8 -6.5t10 -6t10.5 -3t13.5 -1.5q47 0 80 43t47 118l145 -17q-23 -130 -92 -210t-172 -80q-133 0 -180 131q-27 32 -54 32zM954 1860l-252 -219 l-102 67l276 299h185l178 -299l-115 -67zM790 1536h195l334 -1536h-280l-43 240h-667l-128 -240h-284zM448 462h509l-128 714z" />
<glyph unicode="&#x1eab;" horiz-adv-x="1256" d="M684 1696q-48 0 -83.5 -47t-47.5 -114l-146 17q23 131 93 210.5t169 79.5q70 0 115.5 -37t67.5 -94q2 -2 8 -7.5t8 -7.5t8 -6.5t10 -6t10.5 -3t13.5 -1.5q47 0 80 43t47 118l145 -17q-23 -130 -92 -210t-172 -80q-133 0 -180 131q-27 32 -54 32zM733 1289l-252 -219 l-102 67l276 299h185l178 -299l-115 -67zM940 963h248l-168 -963h-232l15 125q-141 -144 -340 -144q-129 0 -228.5 67.5t-144.5 187.5t-20 265q24 136 105.5 247.5t196 173.5t235.5 62q213 0 310 -157zM532 202q123 0 221 87t117 212q18 110 -45.5 186t-173.5 76 q-121 0 -219.5 -87t-118.5 -211q-17 -110 46.5 -186.5t172.5 -76.5z" />
<glyph unicode="&#x1eac;" horiz-adv-x="1408" d="M954 1860l-252 -219l-102 67l277 299h184l179 -299l-115 -67zM1319 0h-280l-43 240h-667l-128 -240h-284l873 1536h195zM448 462h509l-128 714zM582 -126q62 0 100 -46.5t27 -109.5q-8 -49 -50 -83.5t-92 -34.5q-62 0 -99.5 45.5t-26.5 108.5q9 49 50.5 84.5t90.5 35.5z " />
<glyph unicode="&#x1ead;" horiz-adv-x="1256" d="M733 1289l-252 -219l-102 67l277 299h184l179 -299l-115 -67zM940 963h248l-168 -963h-232l15 125q-141 -144 -340 -144q-129 0 -228.5 67.5t-144.5 187.5t-20 265q24 136 105.5 247.5t196 173.5t235.5 62q213 0 310 -157zM532 202q123 0 221 87t117 212 q18 110 -45.5 186t-173.5 76q-121 0 -219.5 -87t-118.5 -211q-17 -110 46.5 -186.5t172.5 -76.5zM504 -126q62 0 100 -46.5t27 -109.5q-8 -49 -50 -83.5t-92 -34.5q-62 0 -99.5 45.5t-26.5 108.5q9 49 50.5 84.5t90.5 35.5z" />
<glyph unicode="&#x1eae;" horiz-adv-x="1408" d="M1361 2411l-385 -293l-79 101l359 331zM939 1838q100 0 160 58t75 140h160q-28 -164 -135 -249.5t-264 -85.5q-164 0 -251.5 91t-58.5 244h160q-14 -89 26 -143.5t128 -54.5zM790 1536h195l334 -1536h-280l-43 240h-667l-128 -240h-284zM448 462h509l-128 714z" />
<glyph unicode="&#x1eaf;" horiz-adv-x="1256" d="M1140 1840l-385 -293l-79 101l359 331zM714 1130q-164 0 -251.5 91t-58.5 244h160q-14 -89 26 -143.5t128 -54.5q100 0 160 58t75 140h160q-28 -164 -135 -249.5t-264 -85.5zM940 963h248l-168 -963h-232l15 125q-141 -144 -340 -144q-129 0 -228.5 67.5t-144.5 187.5 t-20 265q24 136 105.5 247.5t196 173.5t235.5 62q213 0 310 -157zM532 202q123 0 221 87t117 212q18 110 -45.5 186t-173.5 76q-121 0 -219.5 -87t-118.5 -211q-17 -110 46.5 -186.5t172.5 -76.5z" />
<glyph unicode="&#x1eb0;" horiz-adv-x="1408" d="M1109 2219l-98 -97l-299 289l145 139zM935 1701q-164 0 -251.5 91t-58.5 244h160q-14 -89 26 -143.5t128 -54.5q100 0 160 58t75 140h160q-28 -164 -135 -249.5t-264 -85.5zM790 1536h195l334 -1536h-280l-43 240h-667l-128 -240h-284zM448 462h509l-128 714z" />
<glyph unicode="&#x1eb1;" horiz-adv-x="1256" d="M888 1648l-98 -97l-299 289l145 139zM714 1130q-164 0 -251.5 91t-58.5 244h160q-14 -89 26 -143.5t128 -54.5q100 0 160 58t75 140h160q-28 -164 -135 -249.5t-264 -85.5zM940 963h248l-168 -963h-232l15 125q-141 -144 -340 -144q-129 0 -228.5 67.5t-144.5 187.5 t-20 265q24 136 105.5 247.5t196 173.5t235.5 62q213 0 310 -157zM532 202q123 0 221 87t117 212q18 110 -45.5 186t-173.5 76q-121 0 -219.5 -87t-118.5 -211q-17 -110 46.5 -186.5t172.5 -76.5z" />
<glyph unicode="&#x1eb2;" horiz-adv-x="1408" d="M1052 2488q-63 0 -119 -46l-74 131q92 64 194 64q110 0 173.5 -70t45.5 -178q-13 -66 -59.5 -117.5t-128.5 -73.5l-24 -95h-137l22 181q166 29 178 131q4 33 -16 53t-55 20zM935 1701q-164 0 -251.5 91t-58.5 244h160q-14 -89 26 -143.5t128 -54.5q100 0 160 58t75 140 h160q-28 -164 -135 -249.5t-264 -85.5zM790 1536h195l334 -1536h-280l-43 240h-667l-128 -240h-284zM448 462h509l-128 714z" />
<glyph unicode="&#x1eb3;" horiz-adv-x="1256" d="M831 1917q-63 0 -119 -46l-74 131q92 64 194 64q110 0 173.5 -70t45.5 -178q-13 -66 -59.5 -117.5t-128.5 -73.5l-24 -95h-137l22 181q166 29 178 131q4 33 -16 53t-55 20zM714 1130q-164 0 -251.5 91t-58.5 244h160q-14 -89 26 -143.5t128 -54.5q100 0 160 58t75 140 h160q-28 -164 -135 -249.5t-264 -85.5zM940 963h248l-168 -963h-232l15 125q-141 -144 -340 -144q-129 0 -228.5 67.5t-144.5 187.5t-20 265q24 136 105.5 247.5t196 173.5t235.5 62q213 0 310 -157zM532 202q123 0 221 87t117 212q18 110 -45.5 186t-173.5 76 q-121 0 -219.5 -87t-118.5 -211q-17 -110 46.5 -186.5t172.5 -76.5z" />
<glyph unicode="&#x1eb4;" horiz-adv-x="1408" d="M898 2271q-48 0 -82.5 -46.5t-47.5 -114.5l-137 17q23 129 93 209.5t175 80.5q43 0 76.5 -17t50 -36t36.5 -51q13 -20 21 -29.5t24.5 -19.5t37.5 -10q47 0 79 43t45 118l137 -18q-24 -132 -92.5 -210.5t-168.5 -78.5q-48 0 -83.5 17.5t-52 36.5t-34.5 50 q-13 21 -21.5 31.5t-23 19t-32.5 8.5zM939 1838q100 0 160 58t75 140h160q-28 -164 -135 -249.5t-264 -85.5q-164 0 -251.5 91t-58.5 244h160q-14 -89 26 -143.5t128 -54.5zM790 1536h195l334 -1536h-280l-43 240h-667l-128 -240h-284zM448 462h509l-128 714z" />
<glyph unicode="&#x1eb5;" horiz-adv-x="1256" d="M677 1700q-48 0 -82.5 -46.5t-47.5 -114.5l-137 17q23 129 93 209.5t175 80.5q43 0 76.5 -17t50 -36t36.5 -51q13 -20 21 -29.5t24.5 -19.5t37.5 -10q47 0 79 43t45 118l137 -18q-24 -132 -92.5 -210.5t-168.5 -78.5q-48 0 -83.5 17.5t-52 36.5t-34.5 50 q-13 21 -21.5 31.5t-23 19t-32.5 8.5zM714 1130q-164 0 -251.5 91t-58.5 244h160q-14 -89 26 -143.5t128 -54.5q100 0 160 58t75 140h160q-28 -164 -135 -249.5t-264 -85.5zM940 963h248l-168 -963h-232l15 125q-141 -144 -340 -144q-129 0 -228.5 67.5t-144.5 187.5 t-20 265q24 136 105.5 247.5t196 173.5t235.5 62q213 0 310 -157zM532 202q123 0 221 87t117 212q18 110 -45.5 186t-173.5 76q-121 0 -219.5 -87t-118.5 -211q-17 -110 46.5 -186.5t172.5 -76.5z" />
<glyph unicode="&#x1eb6;" horiz-adv-x="1408" d="M935 1701q-164 0 -251.5 91t-58.5 244h160q-14 -89 26 -143.5t128 -54.5q100 0 160 58t75 140h160q-28 -164 -135 -249.5t-264 -85.5zM790 1536h195l334 -1536h-280l-43 240h-667l-128 -240h-284zM448 462h509l-128 714zM582 -126q62 0 100 -46.5t27 -109.5 q-8 -49 -50 -83.5t-92 -34.5q-62 0 -99.5 45.5t-26.5 108.5q9 49 50.5 84.5t90.5 35.5z" />
<glyph unicode="&#x1eb7;" horiz-adv-x="1256" d="M714 1130q-164 0 -251.5 91t-58.5 244h160q-14 -89 26 -143.5t128 -54.5q100 0 160 58t75 140h160q-28 -164 -135 -249.5t-264 -85.5zM940 963h248l-168 -963h-232l15 125q-141 -144 -340 -144q-129 0 -228.5 67.5t-144.5 187.5t-20 265q24 136 105.5 247.5t196 173.5 t235.5 62q213 0 310 -157zM532 202q123 0 221 87t117 212q18 110 -45.5 186t-173.5 76q-121 0 -219.5 -87t-118.5 -211q-17 -110 46.5 -186.5t172.5 -76.5zM504 -126q62 0 100 -46.5t27 -109.5q-8 -49 -50 -83.5t-92 -34.5q-62 0 -99.5 45.5t-26.5 108.5q9 49 50.5 84.5 t90.5 35.5z" />
<glyph unicode="&#x1eb8;" horiz-adv-x="1195" d="M1237 1303h-644l-73 -418h558l-42 -234h-558l-73 -418h644l-40 -233h-901l270 1536h901zM519 -126q62 0 100 -46.5t27 -109.5q-8 -49 -50 -83.5t-92 -34.5q-62 0 -99.5 45.5t-26.5 108.5q9 49 50.5 84.5t90.5 35.5z" />
<glyph unicode="&#x1eb9;" horiz-adv-x="1127" d="M645 982q106 0 194 -37.5t145 -102.5t80.5 -158.5t4.5 -200.5l-7 -45h-762q-12 -117 46 -186t164 -69q79 0 152 37.5t125 101.5l195 -93q-80 -118 -203 -182.5t-269 -64.5q-154 0 -264.5 69t-157 187t-21.5 260q36 204 201 344t377 140zM646 784q-93 0 -170 -48 t-124 -131h488q-10 80 -61 129.5t-133 49.5zM468 -127q62 0 100 -46.5t27 -109.5q-8 -49 -50 -83.5t-92 -34.5q-62 0 -99.5 45.5t-26.5 108.5q9 49 50.5 84.5t90.5 35.5z" />
<glyph unicode="&#x1eba;" horiz-adv-x="1195" d="M906 2013q-63 0 -119 -46l-74 131q92 64 194 64q110 0 173.5 -70t45.5 -178q-13 -66 -59.5 -117.5t-128.5 -73.5l-24 -95h-137l22 181q166 29 178 131q4 33 -16 53t-55 20zM1237 1303h-644l-73 -418h558l-42 -234h-558l-73 -418h644l-40 -233h-901l270 1536h901z" />
<glyph unicode="&#x1ebb;" horiz-adv-x="1127" d="M746 1446q-63 0 -119 -46l-74 131q92 64 194 64q110 0 173.5 -70t45.5 -178q-13 -66 -59.5 -117.5t-128.5 -73.5l-24 -95h-137l22 181q166 29 178 131q4 33 -16 53t-55 20zM645 982q106 0 194 -37.5t145 -102.5t80.5 -158.5t4.5 -200.5l-7 -45h-762q-12 -117 46 -186 t164 -69q79 0 152 37.5t125 101.5l195 -93q-80 -118 -203 -182.5t-269 -64.5q-154 0 -264.5 69t-157 187t-21.5 260q36 204 201 344t377 140zM646 784q-93 0 -170 -48t-124 -131h488q-10 80 -61 129.5t-133 49.5z" />
<glyph unicode="&#x1ebc;" horiz-adv-x="1195" d="M752 1796q-48 0 -82.5 -46.5t-47.5 -114.5l-137 17q23 129 93 209.5t175 80.5q43 0 76.5 -17t50 -36t36.5 -51q13 -20 21 -29.5t24.5 -19.5t37.5 -10q47 0 79 43t45 118l137 -18q-24 -132 -92.5 -210.5t-168.5 -78.5q-48 0 -83.5 17.5t-52 36.5t-34.5 50 q-13 21 -21.5 31.5t-23 19t-32.5 8.5zM1237 1303h-644l-73 -418h558l-42 -234h-558l-73 -418h644l-40 -233h-901l270 1536h901z" />
<glyph unicode="&#x1ebd;" horiz-adv-x="1127" d="M592 1229q-48 0 -82.5 -46.5t-47.5 -114.5l-137 17q23 129 93 209.5t175 80.5q43 0 76.5 -17t50 -36t36.5 -51q13 -20 21 -29.5t24.5 -19.5t37.5 -10q47 0 79 43t45 118l137 -18q-24 -132 -92.5 -210.5t-168.5 -78.5q-48 0 -83.5 17.5t-52 36.5t-34.5 50 q-13 21 -21.5 31.5t-23 19t-32.5 8.5zM645 982q106 0 194 -37.5t145 -102.5t80.5 -158.5t4.5 -200.5l-7 -45h-762q-12 -117 46 -186t164 -69q79 0 152 37.5t125 101.5l195 -93q-80 -118 -203 -182.5t-269 -64.5q-154 0 -264.5 69t-157 187t-21.5 260q36 204 201 344t377 140 zM646 784q-93 0 -170 -48t-124 -131h488q-10 80 -61 129.5t-133 49.5z" />
<glyph unicode="&#x1ebe;" horiz-adv-x="1195" d="M1296 2407l-385 -293l-79 101l359 331zM892 1860l-252 -219l-102 67l277 299h184l179 -299l-115 -67zM108 0l270 1536h901l-42 -233h-644l-73 -418h558l-42 -234h-558l-73 -418h644l-40 -233h-901z" />
<glyph unicode="&#x1ebf;" horiz-adv-x="1127" d="M1136 1840l-385 -293l-79 101l359 331zM732 1293l-252 -219l-102 67l277 299h184l179 -299l-115 -67zM645 982q106 0 194 -37.5t145 -102.5t80.5 -158.5t4.5 -200.5l-7 -45h-762q-12 -117 46 -186t164 -69q79 0 152 37.5t125 101.5l195 -93q-80 -118 -203 -182.5 t-269 -64.5q-154 0 -264.5 69t-157 187t-21.5 260q36 204 201 344t377 140zM646 784q-93 0 -170 -48t-124 -131h488q-10 80 -61 129.5t-133 49.5z" />
<glyph unicode="&#x1ec0;" horiz-adv-x="1195" d="M1044 2215l-98 -97l-298 289l145 139zM892 1860l-252 -219l-102 67l276 299h185l178 -299l-115 -67zM1237 1303h-644l-73 -418h558l-42 -234h-558l-73 -418h644l-40 -233h-901l270 1536h901z" />
<glyph unicode="&#x1ec1;" horiz-adv-x="1127" d="M884 1648l-98 -97l-298 289l145 139zM732 1293l-252 -219l-102 67l276 299h185l178 -299l-115 -67zM645 982q106 0 194 -37.5t145 -102.5t80.5 -158.5t4.5 -200.5l-7 -45h-762q-12 -117 46 -186t164 -69q79 0 152 37.5t125 101.5l195 -93q-80 -118 -203 -182.5 t-269 -64.5q-154 0 -264.5 69t-157 187t-21.5 260q36 204 201 344t377 140zM646 784q-93 0 -170 -48t-124 -131h488q-10 80 -61 129.5t-133 49.5z" />
<glyph unicode="&#x1ec2;" horiz-adv-x="1195" d="M995 2490q-64 0 -126 -52l-74 131q90 65 194 65q110 0 173 -70.5t44 -177.5q-11 -66 -57.5 -118t-129.5 -73l-25 -96h-136l22 181q75 13 121.5 49t56.5 92q6 31 -10 50t-53 19zM892 1860l-252 -219l-102 67l276 299h185l178 -299l-115 -67zM1237 1303h-644l-73 -418h558 l-42 -234h-558l-73 -418h644l-40 -233h-901l270 1536h901z" />
<glyph unicode="&#x1ec3;" horiz-adv-x="1127" d="M835 1923q-64 0 -126 -52l-74 131q90 65 194 65q110 0 173 -70.5t44 -177.5q-11 -66 -57.5 -118t-129.5 -73l-25 -96h-136l22 181q75 13 121.5 49t56.5 92q6 31 -10 50t-53 19zM732 1293l-252 -219l-102 67l276 299h185l178 -299l-115 -67zM645 982q106 0 194 -37.5 t145 -102.5t80.5 -158.5t4.5 -200.5l-7 -45h-762q-12 -117 46 -186t164 -69q79 0 152 37.5t125 101.5l195 -93q-80 -118 -203 -182.5t-269 -64.5q-154 0 -264.5 69t-157 187t-21.5 260q36 204 201 344t377 140zM646 784q-93 0 -170 -48t-124 -131h488q-10 80 -61 129.5 t-133 49.5z" />
<glyph unicode="&#x1ec4;" horiz-adv-x="1195" d="M843 2267q-48 0 -83.5 -47t-47.5 -114l-146 17q23 131 93 210.5t169 79.5q70 0 115.5 -37t67.5 -94q2 -2 8 -7.5t8 -7.5t8 -6.5t10 -6t10.5 -3t13.5 -1.5q47 0 80 43t47 118l145 -17q-23 -130 -92 -210t-172 -80q-133 0 -180 131q-27 32 -54 32zM892 1860l-252 -219 l-102 67l276 299h185l178 -299l-115 -67zM108 0l270 1536h901l-42 -233h-644l-73 -418h558l-42 -234h-558l-73 -418h644l-40 -233h-901z" />
<glyph unicode="&#x1ec5;" horiz-adv-x="1127" d="M1036 1844l145 -17q-23 -130 -92 -210t-172 -80q-133 0 -180 131q-27 32 -54 32q-48 0 -83.5 -47t-47.5 -114l-146 17q23 131 93 210.5t169 79.5q70 0 115.5 -37t67.5 -94q2 -2 8 -7.5t8 -7.5t8 -6.5t10 -6t10.5 -3t13.5 -1.5q47 0 80 43t47 118zM902 1074l-170 219 l-252 -219l-102 67l276 299h185l178 -299zM645 982q106 0 194 -37.5t145 -102.5t80.5 -158.5t4.5 -200.5l-7 -45h-762q-12 -117 46 -186t164 -69q79 0 152 37.5t125 101.5l195 -93q-80 -118 -203 -182.5t-269 -64.5q-154 0 -264.5 69t-157 187t-21.5 260q36 204 201 344 t377 140zM646 784q-93 0 -170 -48t-124 -131h488q-10 80 -61 129.5t-133 49.5z" />
<glyph unicode="&#x1ec6;" horiz-adv-x="1195" d="M892 1860l-252 -219l-102 67l277 299h184l179 -299l-115 -67zM1237 1303h-644l-73 -418h558l-42 -234h-558l-73 -418h644l-40 -233h-901l270 1536h901zM519 -126q62 0 100 -46.5t27 -109.5q-8 -49 -50 -83.5t-92 -34.5q-62 0 -99.5 45.5t-26.5 108.5q9 49 50.5 84.5 t90.5 35.5z" />
<glyph unicode="&#x1ec7;" horiz-adv-x="1127" d="M732 1293l-252 -219l-102 67l277 299h184l179 -299l-115 -67zM645 982q106 0 194 -37.5t145 -102.5t80.5 -158.5t4.5 -200.5l-7 -45h-762q-12 -117 46 -186t164 -69q79 0 152 37.5t125 101.5l195 -93q-80 -118 -203 -182.5t-269 -64.5q-154 0 -264.5 69t-157 187 t-21.5 260q36 204 201 344t377 140zM646 784q-93 0 -170 -48t-124 -131h488q-10 80 -61 129.5t-133 49.5zM468 -127q62 0 100 -46.5t27 -109.5q-8 -49 -50 -83.5t-92 -34.5q-62 0 -99.5 45.5t-26.5 108.5q9 49 50.5 84.5t90.5 35.5z" />
<glyph unicode="&#x1ec8;" horiz-adv-x="640" d="M453 1628l22 181q166 29 178 131q4 33 -16 53t-55 20q-63 0 -119 -46l-74 131q92 64 194 64q110 0 173.5 -70t45.5 -178q-13 -66 -59.5 -117.5t-128.5 -73.5l-24 -95h-137zM108 0l270 1536h257l-270 -1536h-257z" />
<glyph unicode="&#x1ec9;" horiz-adv-x="551" d="M308 1055l22 181q166 29 178 131q4 33 -16 53t-55 20q-63 0 -119 -46l-74 131q92 64 194 64q110 0 173.5 -70t45.5 -178q-13 -66 -59.5 -117.5t-128.5 -73.5l-24 -95h-137zM68 0l168 963h248l-168 -963h-248z" />
<glyph unicode="&#x1eca;" horiz-adv-x="640" d="M108 0l270 1536h257l-270 -1536h-257zM181 -400q-62 0 -99.5 45.5t-26.5 108.5q9 49 50.5 84.5t90.5 35.5q62 0 100 -46.5t27 -109.5q-8 -49 -50 -83.5t-92 -34.5z" />
<glyph unicode="&#x1ecb;" horiz-adv-x="549" d="M407 1132q-65 0 -104.5 47.5t-29.5 114.5q10 53 54 89t98 36q65 0 104.5 -47t26.5 -114q-9 -53 -52.5 -89.5t-96.5 -36.5zM68 0l168 963h246l-168 -963h-246zM90 -501q-62 0 -99.5 45.5t-26.5 108.5q9 49 50.5 84.5t90.5 35.5q62 0 100 -46.5t27 -109.5q-8 -49 -50 -83.5 t-92 -34.5z" />
<glyph unicode="&#x1ecc;" horiz-adv-x="1739" d="M798 -20q-164 0 -301.5 63.5t-226.5 171.5t-126.5 257.5t-8.5 313.5q37 210 171.5 387.5t330 280t406.5 102.5q164 0 301.5 -63.5t226.5 -171.5t126.5 -257.5t8.5 -313.5q-37 -210 -171.5 -387.5t-330 -280t-406.5 -102.5zM815 230q152 0 290 73.5t230.5 201.5t118.5 281 q24 144 -23 263.5t-153.5 188t-250.5 68.5q-152 0 -290 -73.5t-231 -201.5t-119 -281q-24 -144 23.5 -263.5t154 -188t250.5 -68.5zM732 -400q-62 0 -99.5 45.5t-26.5 108.5q9 49 50.5 84.5t90.5 35.5q62 0 100 -46.5t27 -109.5q-8 -49 -50 -83.5t-92 -34.5z" />
<glyph unicode="&#x1ecd;" horiz-adv-x="1145" d="M501 -18q-146 0 -255 69t-157.5 187.5t-23.5 260.5q23 133 106.5 243.5t208.5 174.5t264 64q145 0 254 -69t157.5 -188t23.5 -261q-23 -132 -107 -242.5t-208.5 -174.5t-262.5 -64zM507 205q119 0 217.5 85t120.5 209q20 111 -40 185t-167 74q-121 0 -219 -84.5 t-120 -210.5q-20 -112 39.5 -185t168.5 -73zM435 -400q-62 0 -99.5 45.5t-26.5 108.5q9 49 50.5 84.5t90.5 35.5q62 0 100 -46.5t27 -109.5q-8 -49 -50 -83.5t-92 -34.5z" />
<glyph unicode="&#x1ece;" horiz-adv-x="1739" d="M1004 1628l22 181q166 29 178 131q4 33 -16 53t-55 20q-63 0 -119 -46l-74 131q92 64 194 64q110 0 173.5 -70t45.5 -178q-13 -66 -59.5 -117.5t-128.5 -73.5l-24 -95h-137zM798 -20q-164 0 -301.5 63.5t-226.5 171.5t-126.5 257.5t-8.5 313.5q37 210 171.5 387.5 t330 280t406.5 102.5q164 0 301.5 -63.5t226.5 -171.5t126.5 -257.5t8.5 -313.5q-37 -210 -171.5 -387.5t-330 -280t-406.5 -102.5zM815 230q152 0 290 73.5t230.5 201.5t118.5 281q24 144 -23 263.5t-153.5 188t-250.5 68.5q-152 0 -290 -73.5t-231 -201.5t-119 -281 q-24 -144 23.5 -263.5t154 -188t250.5 -68.5z" />
<glyph unicode="&#x1ecf;" horiz-adv-x="1145" d="M605 1054l22 181q166 29 178 131q4 33 -16 53t-55 20q-63 0 -119 -46l-74 131q92 64 194 64q110 0 173.5 -70t45.5 -178q-13 -66 -59.5 -117.5t-128.5 -73.5l-24 -95h-137zM501 -18q-146 0 -255 69t-157.5 187.5t-23.5 260.5q23 133 106.5 243.5t208.5 174.5t264 64 q145 0 254 -69t157.5 -188t23.5 -261q-23 -132 -107 -242.5t-208.5 -174.5t-262.5 -64zM507 205q119 0 217.5 85t120.5 209q20 111 -40 185t-167 74q-121 0 -219 -84.5t-120 -210.5q-20 -112 39.5 -185t168.5 -73z" />
<glyph unicode="&#x1ed0;" horiz-adv-x="1739" d="M1138 2114l-79 101l359 331l105 -139zM867 1641l-102 67l277 299h184l179 -299l-115 -67l-171 219zM798 -20q-164 0 -301.5 63.5t-226.5 171.5t-126.5 257.5t-8.5 313.5q37 210 171.5 387.5t330 280t406.5 102.5q164 0 301.5 -63.5t226.5 -171.5t126.5 -257.5t8.5 -313.5 q-37 -210 -171.5 -387.5t-330 -280t-406.5 -102.5zM815 230q152 0 290 73.5t230.5 201.5t118.5 281q24 144 -23 263.5t-153.5 188t-250.5 68.5q-152 0 -290 -73.5t-231 -201.5t-119 -281q-24 -144 23.5 -263.5t154 -188t250.5 -68.5z" />
<glyph unicode="&#x1ed1;" horiz-adv-x="1145" d="M739 1540l-79 101l359 331l105 -139zM468 1067l-102 67l277 299h184l179 -299l-115 -67l-171 219zM501 -18q-146 0 -255 69t-157.5 187.5t-23.5 260.5q23 133 106.5 243.5t208.5 174.5t264 64q145 0 254 -69t157.5 -188t23.5 -261q-23 -132 -107 -242.5t-208.5 -174.5 t-262.5 -64zM507 205q119 0 217.5 85t120.5 209q20 111 -40 185t-167 74q-121 0 -219 -84.5t-120 -210.5q-20 -112 39.5 -185t168.5 -73z" />
<glyph unicode="&#x1ed2;" horiz-adv-x="1739" d="M1173 2118l-298 289l145 139l251 -331zM867 1641l-102 67l276 299h185l178 -299l-115 -67l-170 219zM798 -20q-164 0 -301.5 63.5t-226.5 171.5t-126.5 257.5t-8.5 313.5q37 210 171.5 387.5t330 280t406.5 102.5q164 0 301.5 -63.5t226.5 -171.5t126.5 -257.5 t8.5 -313.5q-37 -210 -171.5 -387.5t-330 -280t-406.5 -102.5zM815 230q152 0 290 73.5t230.5 201.5t118.5 281q24 144 -23 263.5t-153.5 188t-250.5 68.5q-152 0 -290 -73.5t-231 -201.5t-119 -281q-24 -144 23.5 -263.5t154 -188t250.5 -68.5z" />
<glyph unicode="&#x1ed3;" horiz-adv-x="1145" d="M774 1544l-298 289l145 139l251 -331zM468 1067l-102 67l276 299h185l178 -299l-115 -67l-170 219zM501 -18q-146 0 -255 69t-157.5 187.5t-23.5 260.5q23 133 106.5 243.5t208.5 174.5t264 64q145 0 254 -69t157.5 -188t23.5 -261q-23 -132 -107 -242.5t-208.5 -174.5 t-262.5 -64zM507 205q119 0 217.5 85t120.5 209q20 111 -40 185t-167 74q-121 0 -219 -84.5t-120 -210.5q-20 -112 39.5 -185t168.5 -73z" />
<glyph unicode="&#x1ed4;" horiz-adv-x="1739" d="M1085 2099l22 181q75 13 121.5 49t56.5 92q6 31 -10 50t-53 19q-64 0 -126 -52l-74 131q90 65 194 65q110 0 173 -70.5t44 -177.5q-11 -66 -57.5 -118t-129.5 -73l-25 -96h-136zM867 1641l-102 67l276 299h185l178 -299l-115 -67l-170 219zM798 -20q-164 0 -301.5 63.5 t-226.5 171.5t-126.5 257.5t-8.5 313.5q37 210 171.5 387.5t330 280t406.5 102.5q164 0 301.5 -63.5t226.5 -171.5t126.5 -257.5t8.5 -313.5q-37 -210 -171.5 -387.5t-330 -280t-406.5 -102.5zM815 230q152 0 290 73.5t230.5 201.5t118.5 281q24 144 -23 263.5t-153.5 188 t-250.5 68.5q-152 0 -290 -73.5t-231 -201.5t-119 -281q-24 -144 23.5 -263.5t154 -188t250.5 -68.5z" />
<glyph unicode="&#x1ed5;" horiz-adv-x="1145" d="M686 1525l22 181q75 13 121.5 49t56.5 92q6 31 -10 50t-53 19q-64 0 -126 -52l-74 131q90 65 194 65q110 0 173 -70.5t44 -177.5q-11 -66 -57.5 -118t-129.5 -73l-25 -96h-136zM468 1067l-102 67l276 299h185l178 -299l-115 -67l-170 219zM501 -18q-146 0 -255 69 t-157.5 187.5t-23.5 260.5q23 133 106.5 243.5t208.5 174.5t264 64q145 0 254 -69t157.5 -188t23.5 -261q-23 -132 -107 -242.5t-208.5 -174.5t-262.5 -64zM507 205q119 0 217.5 85t120.5 209q20 111 -40 185t-167 74q-121 0 -219 -84.5t-120 -210.5q-20 -112 39.5 -185 t168.5 -73z" />
<glyph unicode="&#x1ed6;" horiz-adv-x="1739" d="M1304 2104q-133 0 -180 131q-27 32 -54 32q-48 0 -83.5 -47t-47.5 -114l-146 17q23 131 93 210.5t169 79.5q70 0 115.5 -37t67.5 -94q2 -2 8 -7.5t8 -7.5t8 -6.5t10 -6t10.5 -3t13.5 -1.5q47 0 80 43t47 118l145 -17q-23 -130 -92 -210t-172 -80zM867 1641l-102 67 l276 299h185l178 -299l-115 -67l-170 219zM798 -20q-164 0 -301.5 63.5t-226.5 171.5t-126.5 257.5t-8.5 313.5q37 210 171.5 387.5t330 280t406.5 102.5q164 0 301.5 -63.5t226.5 -171.5t126.5 -257.5t8.5 -313.5q-37 -210 -171.5 -387.5t-330 -280t-406.5 -102.5zM815 230 q152 0 290 73.5t230.5 201.5t118.5 281q24 144 -23 263.5t-153.5 188t-250.5 68.5q-152 0 -290 -73.5t-231 -201.5t-119 -281q-24 -144 23.5 -263.5t154 -188t250.5 -68.5z" />
<glyph unicode="&#x1ed7;" horiz-adv-x="1145" d="M905 1530q-133 0 -180 131q-27 32 -54 32q-48 0 -83.5 -47t-47.5 -114l-146 17q23 131 93 210.5t169 79.5q70 0 115.5 -37t67.5 -94q2 -2 8 -7.5t8 -7.5t8 -6.5t10 -6t10.5 -3t13.5 -1.5q47 0 80 43t47 118l145 -17q-23 -130 -92 -210t-172 -80zM468 1067l-102 67 l276 299h185l178 -299l-115 -67l-170 219zM501 -18q-146 0 -255 69t-157.5 187.5t-23.5 260.5q23 133 106.5 243.5t208.5 174.5t264 64q145 0 254 -69t157.5 -188t23.5 -261q-23 -132 -107 -242.5t-208.5 -174.5t-262.5 -64zM507 205q119 0 217.5 85t120.5 209 q20 111 -40 185t-167 74q-121 0 -219 -84.5t-120 -210.5q-20 -112 39.5 -185t168.5 -73z" />
<glyph unicode="&#x1ed8;" horiz-adv-x="1739" d="M867 1641l-102 67l277 299h184l179 -299l-115 -67l-171 219zM798 -20q-164 0 -301.5 63.5t-226.5 171.5t-126.5 257.5t-8.5 313.5q37 210 171.5 387.5t330 280t406.5 102.5q164 0 301.5 -63.5t226.5 -171.5t126.5 -257.5t8.5 -313.5q-37 -210 -171.5 -387.5t-330 -280 t-406.5 -102.5zM815 230q152 0 290 73.5t230.5 201.5t118.5 281q24 144 -23 263.5t-153.5 188t-250.5 68.5q-152 0 -290 -73.5t-231 -201.5t-119 -281q-24 -144 23.5 -263.5t154 -188t250.5 -68.5zM732 -400q-62 0 -99.5 45.5t-26.5 108.5q9 49 50.5 84.5t90.5 35.5 q62 0 100 -46.5t27 -109.5q-8 -49 -50 -83.5t-92 -34.5z" />
<glyph unicode="&#x1ed9;" horiz-adv-x="1145" d="M468 1067l-102 67l277 299h184l179 -299l-115 -67l-171 219zM501 -18q-146 0 -255 69t-157.5 187.5t-23.5 260.5q23 133 106.5 243.5t208.5 174.5t264 64q145 0 254 -69t157.5 -188t23.5 -261q-23 -132 -107 -242.5t-208.5 -174.5t-262.5 -64zM507 205q119 0 217.5 85 t120.5 209q20 111 -40 185t-167 74q-121 0 -219 -84.5t-120 -210.5q-20 -112 39.5 -185t168.5 -73zM435 -400q-62 0 -99.5 45.5t-26.5 108.5q9 49 50.5 84.5t90.5 35.5q62 0 100 -46.5t27 -109.5q-8 -49 -50 -83.5t-92 -34.5z" />
<glyph unicode="&#x1eda;" horiz-adv-x="1739" d="M1442 1936l-385 -293l-79 101l359 331zM1776 1514h157l-23 -132q-23 -128 -84.5 -185t-137.5 -57h-14q69 -180 32 -390t-171.5 -387.5t-330 -280t-406.5 -102.5q-164 0 -301.5 63.5t-226.5 171.5t-126.5 257.5t-8.5 313.5q37 210 171.5 387.5t330 280t406.5 102.5 q197 0 352 -88.5t240 -241.5q53 6 85.5 46t38.5 95zM1454 786q24 144 -23 263.5t-153.5 188t-250.5 68.5q-152 0 -290 -73.5t-231 -201.5t-119 -281q-24 -144 23.5 -263.5t154 -188t250.5 -68.5q152 0 290 73.5t230.5 201.5t118.5 281z" />
<glyph unicode="&#x1edb;" horiz-adv-x="1145" d="M1043 1362l-385 -293l-79 101l359 331zM1190 1031h157l-23 -132q-23 -128 -84.5 -185t-137.5 -57q-18 0 -27 1q22 -93 4 -195q-23 -132 -107 -242.5t-208.5 -174.5t-262.5 -64q-146 0 -255 69t-157.5 187.5t-23.5 260.5q23 133 106.5 243.5t208.5 174.5t264 64 q140 0 246 -64t157 -174q53 6 86.5 46t39.5 95zM845 499q20 111 -40 185t-167 74q-121 0 -219 -84.5t-120 -210.5q-20 -112 39.5 -185t168.5 -73q119 0 217.5 85t120.5 209z" />
<glyph unicode="&#x1edc;" horiz-adv-x="1739" d="M1190 1744l-98 -97l-299 289l145 139zM1776 1514h157l-23 -132q-23 -128 -84.5 -185t-137.5 -57h-14q69 -180 32 -390t-171.5 -387.5t-330 -280t-406.5 -102.5q-164 0 -301.5 63.5t-226.5 171.5t-126.5 257.5t-8.5 313.5q37 210 171.5 387.5t330 280t406.5 102.5 q197 0 352 -88.5t240 -241.5q53 6 85.5 46t38.5 95zM1454 786q24 144 -23 263.5t-153.5 188t-250.5 68.5q-152 0 -290 -73.5t-231 -201.5t-119 -281q-24 -144 23.5 -263.5t154 -188t250.5 -68.5q152 0 290 73.5t230.5 201.5t118.5 281z" />
<glyph unicode="&#x1edd;" horiz-adv-x="1145" d="M791 1170l-98 -97l-299 289l145 139zM1190 1031h157l-23 -132q-23 -128 -84.5 -185t-137.5 -57q-18 0 -27 1q22 -93 4 -195q-23 -132 -107 -242.5t-208.5 -174.5t-262.5 -64q-146 0 -255 69t-157.5 187.5t-23.5 260.5q23 133 106.5 243.5t208.5 174.5t264 64 q140 0 246 -64t157 -174q53 6 86.5 46t39.5 95zM845 499q20 111 -40 185t-167 74q-121 0 -219 -84.5t-120 -210.5q-20 -112 39.5 -185t168.5 -73q119 0 217.5 85t120.5 209z" />
<glyph unicode="&#x1ede;" horiz-adv-x="1739" d="M1133 2013q-63 0 -119 -46l-74 131q92 64 194 64q110 0 173.5 -70t45.5 -178q-13 -66 -59.5 -117.5t-128.5 -73.5l-24 -95h-137l22 181q166 29 178 131q4 33 -16 53t-55 20zM1776 1514h157l-23 -132q-23 -128 -84.5 -185t-137.5 -57h-14q69 -180 32 -390t-171.5 -387.5 t-330 -280t-406.5 -102.5q-164 0 -301.5 63.5t-226.5 171.5t-126.5 257.5t-8.5 313.5q37 210 171.5 387.5t330 280t406.5 102.5q197 0 352 -88.5t240 -241.5q53 6 85.5 46t38.5 95zM1454 786q24 144 -23 263.5t-153.5 188t-250.5 68.5q-152 0 -290 -73.5t-231 -201.5 t-119 -281q-24 -144 23.5 -263.5t154 -188t250.5 -68.5q152 0 290 73.5t230.5 201.5t118.5 281z" />
<glyph unicode="&#x1edf;" horiz-adv-x="1145" d="M734 1439q-63 0 -119 -46l-74 131q92 64 194 64q110 0 173.5 -70t45.5 -178q-13 -66 -59.5 -117.5t-128.5 -73.5l-24 -95h-137l22 181q166 29 178 131q4 33 -16 53t-55 20zM1190 1031h157l-23 -132q-23 -128 -84.5 -185t-137.5 -57q-18 0 -27 1q22 -93 4 -195 q-23 -132 -107 -242.5t-208.5 -174.5t-262.5 -64q-146 0 -255 69t-157.5 187.5t-23.5 260.5q23 133 106.5 243.5t208.5 174.5t264 64q140 0 246 -64t157 -174q53 6 86.5 46t39.5 95zM845 499q20 111 -40 185t-167 74q-121 0 -219 -84.5t-120 -210.5q-20 -112 39.5 -185 t168.5 -73q119 0 217.5 85t120.5 209z" />
<glyph unicode="&#x1ee0;" horiz-adv-x="1739" d="M979 1796q-48 0 -82.5 -46.5t-47.5 -114.5l-137 17q23 129 93 209.5t175 80.5q43 0 76.5 -17t50 -36t36.5 -51q13 -20 21 -29.5t24.5 -19.5t37.5 -10q47 0 79 43t45 118l137 -18q-24 -132 -92.5 -210.5t-168.5 -78.5q-48 0 -83.5 17.5t-52 36.5t-34.5 50 q-13 21 -21.5 31.5t-23 19t-32.5 8.5zM1776 1514h157l-23 -132q-23 -128 -84.5 -185t-137.5 -57h-14q69 -180 32 -390t-171.5 -387.5t-330 -280t-406.5 -102.5q-164 0 -301.5 63.5t-226.5 171.5t-126.5 257.5t-8.5 313.5q37 210 171.5 387.5t330 280t406.5 102.5 q197 0 352 -88.5t240 -241.5q53 6 85.5 46t38.5 95zM1454 786q24 144 -23 263.5t-153.5 188t-250.5 68.5q-152 0 -290 -73.5t-231 -201.5t-119 -281q-24 -144 23.5 -263.5t154 -188t250.5 -68.5q152 0 290 73.5t230.5 201.5t118.5 281z" />
<glyph unicode="&#x1ee1;" horiz-adv-x="1145" d="M580 1222q-48 0 -82.5 -46.5t-47.5 -114.5l-137 17q23 129 93 209.5t175 80.5q43 0 76.5 -17t50 -36t36.5 -51q13 -20 21 -29.5t24.5 -19.5t37.5 -10q47 0 79 43t45 118l137 -18q-24 -132 -92.5 -210.5t-168.5 -78.5q-48 0 -83.5 17.5t-52 36.5t-34.5 50 q-13 21 -21.5 31.5t-23 19t-32.5 8.5zM1190 1031h157l-23 -132q-23 -128 -84.5 -185t-137.5 -57q-18 0 -27 1q22 -93 4 -195q-23 -132 -107 -242.5t-208.5 -174.5t-262.5 -64q-146 0 -255 69t-157.5 187.5t-23.5 260.5q23 133 106.5 243.5t208.5 174.5t264 64q140 0 246 -64 t157 -174q53 6 86.5 46t39.5 95zM845 499q20 111 -40 185t-167 74q-121 0 -219 -84.5t-120 -210.5q-20 -112 39.5 -185t168.5 -73q119 0 217.5 85t120.5 209z" />
<glyph unicode="&#x1ee2;" horiz-adv-x="1739" d="M1776 1514h157l-23 -132q-23 -128 -84.5 -185t-137.5 -57h-14q69 -180 32 -390t-171.5 -387.5t-330 -280t-406.5 -102.5q-164 0 -301.5 63.5t-226.5 171.5t-126.5 257.5t-8.5 313.5q37 210 171.5 387.5t330 280t406.5 102.5q197 0 352 -88.5t240 -241.5q53 6 85.5 46 t38.5 95zM1454 786q24 144 -23 263.5t-153.5 188t-250.5 68.5q-152 0 -290 -73.5t-231 -201.5t-119 -281q-24 -144 23.5 -263.5t154 -188t250.5 -68.5q152 0 290 73.5t230.5 201.5t118.5 281zM747 -126q62 0 100 -46.5t27 -109.5q-8 -49 -50 -83.5t-92 -34.5 q-62 0 -99.5 45.5t-26.5 108.5q9 49 50.5 84.5t90.5 35.5z" />
<glyph unicode="&#x1ee3;" horiz-adv-x="1145" d="M1190 1031h157l-23 -132q-23 -128 -84.5 -185t-137.5 -57q-18 0 -27 1q22 -93 4 -195q-23 -132 -107 -242.5t-208.5 -174.5t-262.5 -64q-146 0 -255 69t-157.5 187.5t-23.5 260.5q23 133 106.5 243.5t208.5 174.5t264 64q140 0 246 -64t157 -174q53 6 86.5 46t39.5 95z M845 499q20 111 -40 185t-167 74q-121 0 -219 -84.5t-120 -210.5q-20 -112 39.5 -185t168.5 -73q119 0 217.5 85t120.5 209zM450 -126q62 0 100 -46.5t27 -109.5q-8 -49 -50 -83.5t-92 -34.5q-62 0 -99.5 45.5t-26.5 108.5q9 49 50.5 84.5t90.5 35.5z" />
<glyph unicode="&#x1ee4;" horiz-adv-x="1538" d="M695 -20q-176 0 -307 70t-191 194.5t-33 278.5l180 1013h256l-174 -984q-26 -151 52 -243t225 -92q159 0 282.5 99.5t151.5 252.5l170 967h257l-183 -1030q-27 -154 -125 -274.5t-245 -186t-316 -65.5zM628 -400q-62 0 -99.5 45.5t-26.5 108.5q9 49 50.5 84.5t90.5 35.5 q62 0 100 -46.5t27 -109.5q-8 -49 -50 -83.5t-92 -34.5z" />
<glyph unicode="&#x1ee5;" horiz-adv-x="1087" d="M468 -19q-201 0 -297.5 106t-66.5 282l104 594h248l-103 -589q-15 -86 18 -130.5t102 -44.5q82 0 144 52t77 140l99 572h249l-107 -611q-31 -175 -153.5 -273t-313.5 -98zM403 -400q-62 0 -99.5 45.5t-26.5 108.5q9 49 50.5 84.5t90.5 35.5q62 0 100 -46.5t27 -109.5 q-8 -49 -50 -83.5t-92 -34.5z" />
<glyph unicode="&#x1ee6;" horiz-adv-x="1538" d="M901 1628l22 181q166 29 178 131q4 33 -16 53t-55 20q-63 0 -119 -46l-74 131q92 64 194 64q110 0 173.5 -70t45.5 -178q-13 -66 -59.5 -117.5t-128.5 -73.5l-24 -95h-137zM695 -20q-176 0 -307 70t-191 194.5t-33 278.5l180 1013h256l-174 -984q-26 -151 52 -243 t225 -92q159 0 282.5 99.5t151.5 252.5l170 967h257l-183 -1030q-27 -154 -125 -274.5t-245 -186t-316 -65.5z" />
<glyph unicode="&#x1ee7;" horiz-adv-x="1087" d="M573 1055l22 181q166 29 178 131q4 33 -16 53t-55 20q-63 0 -119 -46l-74 131q92 64 194 64q110 0 173.5 -70t45.5 -178q-13 -66 -59.5 -117.5t-128.5 -73.5l-24 -95h-137zM468 -19q-201 0 -297.5 106t-66.5 282l104 594h248l-103 -589q-15 -86 18 -130.5t102 -44.5 q82 0 144 52t77 140l99 572h249l-107 -611q-31 -175 -153.5 -273t-313.5 -98z" />
<glyph unicode="&#x1ee8;" horiz-adv-x="1538" d="M1339 1936l-385 -293l-79 101l359 331zM1713 1682h157l-23 -132q-23 -128 -84.5 -185t-137.5 -57q-46 0 -99 17l-145 -819q-27 -154 -125 -274.5t-245 -186t-316 -65.5q-176 0 -307 70t-191 194.5t-33 278.5l180 1013h256l-174 -984q-26 -151 52 -243t225 -92 q159 0 282.5 99.5t151.5 252.5l170 967h257l-25 -142q6 -1 15 -1q60 0 98 41t44 101z" />
<glyph unicode="&#x1ee9;" horiz-adv-x="1087" d="M1011 1363l-385 -293l-79 101l359 331zM1169 962h157l-23 -132q-23 -128 -84.5 -185t-137.5 -57q-49 0 -102 18l-44 -254q-31 -175 -153.5 -273t-313.5 -98q-201 0 -297.5 106t-66.5 282l104 594h248l-103 -589q-15 -86 18 -130.5t102 -44.5q82 0 144 52t77 140l99 572 h249l-51 -289q8 -1 19 -1q60 0 98 41t44 101z" />
<glyph unicode="&#x1eea;" horiz-adv-x="1538" d="M1087 1744l-98 -97l-299 289l145 139zM1713 1682h157l-23 -132q-23 -128 -84.5 -185t-137.5 -57q-46 0 -99 17l-145 -819q-27 -154 -125 -274.5t-245 -186t-316 -65.5q-176 0 -307 70t-191 194.5t-33 278.5l180 1013h256l-174 -984q-26 -151 52 -243t225 -92 q159 0 282.5 99.5t151.5 252.5l170 967h257l-25 -142q6 -1 15 -1q60 0 98 41t44 101z" />
<glyph unicode="&#x1eeb;" horiz-adv-x="1087" d="M759 1171l-98 -97l-299 289l145 139zM1169 962h157l-23 -132q-23 -128 -84.5 -185t-137.5 -57q-49 0 -102 18l-44 -254q-31 -175 -153.5 -273t-313.5 -98q-201 0 -297.5 106t-66.5 282l104 594h248l-103 -589q-15 -86 18 -130.5t102 -44.5q82 0 144 52t77 140l99 572h249 l-51 -289q8 -1 19 -1q60 0 98 41t44 101z" />
<glyph unicode="&#x1eec;" horiz-adv-x="1538" d="M1030 2013q-63 0 -119 -46l-74 131q92 64 194 64q110 0 173.5 -70t45.5 -178q-13 -66 -59.5 -117.5t-128.5 -73.5l-24 -95h-137l22 181q166 29 178 131q4 33 -16 53t-55 20zM1713 1682h157l-23 -132q-23 -128 -84.5 -185t-137.5 -57q-46 0 -99 17l-145 -819 q-27 -154 -125 -274.5t-245 -186t-316 -65.5q-176 0 -307 70t-191 194.5t-33 278.5l180 1013h256l-174 -984q-26 -151 52 -243t225 -92q159 0 282.5 99.5t151.5 252.5l170 967h257l-25 -142q6 -1 15 -1q60 0 98 41t44 101z" />
<glyph unicode="&#x1eed;" horiz-adv-x="1087" d="M702 1440q-63 0 -119 -46l-74 131q92 64 194 64q110 0 173.5 -70t45.5 -178q-13 -66 -59.5 -117.5t-128.5 -73.5l-24 -95h-137l22 181q166 29 178 131q4 33 -16 53t-55 20zM1169 962h157l-23 -132q-23 -128 -84.5 -185t-137.5 -57q-49 0 -102 18l-44 -254 q-31 -175 -153.5 -273t-313.5 -98q-201 0 -297.5 106t-66.5 282l104 594h248l-103 -589q-15 -86 18 -130.5t102 -44.5q82 0 144 52t77 140l99 572h249l-51 -289q8 -1 19 -1q60 0 98 41t44 101z" />
<glyph unicode="&#x1eee;" horiz-adv-x="1538" d="M876 1796q-48 0 -82.5 -46.5t-47.5 -114.5l-137 17q23 129 93 209.5t175 80.5q43 0 76.5 -17t50 -36t36.5 -51q13 -20 21 -29.5t24.5 -19.5t37.5 -10q47 0 79 43t45 118l137 -18q-24 -132 -92.5 -210.5t-168.5 -78.5q-48 0 -83.5 17.5t-52 36.5t-34.5 50 q-13 21 -21.5 31.5t-23 19t-32.5 8.5zM1713 1682h157l-23 -132q-23 -128 -84.5 -185t-137.5 -57q-46 0 -99 17l-145 -819q-27 -154 -125 -274.5t-245 -186t-316 -65.5q-176 0 -307 70t-191 194.5t-33 278.5l180 1013h256l-174 -984q-26 -151 52 -243t225 -92 q159 0 282.5 99.5t151.5 252.5l170 967h257l-25 -142q6 -1 15 -1q60 0 98 41t44 101z" />
<glyph unicode="&#x1eef;" horiz-adv-x="1087" d="M548 1223q-48 0 -82.5 -46.5t-47.5 -114.5l-137 17q23 129 93 209.5t175 80.5q43 0 76.5 -17t50 -36t36.5 -51q13 -20 21 -29.5t24.5 -19.5t37.5 -10q47 0 79 43t45 118l137 -18q-24 -132 -92.5 -210.5t-168.5 -78.5q-48 0 -83.5 17.5t-52 36.5t-34.5 50 q-13 21 -21.5 31.5t-23 19t-32.5 8.5zM1169 962h157l-23 -132q-23 -128 -84.5 -185t-137.5 -57q-49 0 -102 18l-44 -254q-31 -175 -153.5 -273t-313.5 -98q-201 0 -297.5 106t-66.5 282l104 594h248l-103 -589q-15 -86 18 -130.5t102 -44.5q82 0 144 52t77 140l99 572h249 l-51 -289q8 -1 19 -1q60 0 98 41t44 101z" />
<glyph unicode="&#x1ef0;" horiz-adv-x="1538" d="M1713 1682h157l-23 -132q-23 -128 -84.5 -185t-137.5 -57q-46 0 -99 17l-145 -819q-27 -154 -125 -274.5t-245 -186t-316 -65.5q-176 0 -307 70t-191 194.5t-33 278.5l180 1013h256l-174 -984q-26 -151 52 -243t225 -92q159 0 282.5 99.5t151.5 252.5l170 967h257 l-25 -142q6 -1 15 -1q60 0 98 41t44 101zM643 -126q62 0 100 -46.5t27 -109.5q-8 -49 -50 -83.5t-92 -34.5q-62 0 -99.5 45.5t-26.5 108.5q9 49 50.5 84.5t90.5 35.5z" />
<glyph unicode="&#x1ef1;" horiz-adv-x="1087" d="M1169 962h157l-23 -132q-23 -128 -84.5 -185t-137.5 -57q-49 0 -102 18l-44 -254q-31 -175 -153.5 -273t-313.5 -98q-201 0 -297.5 106t-66.5 282l104 594h248l-103 -589q-15 -86 18 -130.5t102 -44.5q82 0 144 52t77 140l99 572h249l-51 -289q8 -1 19 -1q60 0 98 41 t44 101zM418 -126q62 0 100 -46.5t27 -109.5q-8 -49 -50 -83.5t-92 -34.5q-62 0 -99.5 45.5t-26.5 108.5q9 49 50.5 84.5t90.5 35.5z" />
<glyph unicode="&#x1ef2;" horiz-adv-x="1357" d="M998 1744l-98 -97l-299 289l145 139zM1530 1536l-683 -815l-126 -721h-257l128 728l-393 808h295l264 -575l470 575h302z" />
<glyph unicode="&#x1ef3;" horiz-adv-x="1051" d="M725 1171l-98 -97l-299 289l145 139zM859 963h267l-839 -1455h-262l289 506l-222 949h269l127 -700z" />
<glyph unicode="&#x1ef4;" horiz-adv-x="1357" d="M1530 1536l-683 -815l-126 -721h-257l128 728l-393 808h295l264 -575l470 575h302zM555 -126q62 0 100 -46.5t27 -109.5q-8 -49 -50 -83.5t-92 -34.5q-62 0 -99.5 45.5t-26.5 108.5q9 49 50.5 84.5t90.5 35.5z" />
<glyph unicode="&#x1ef5;" horiz-adv-x="1051" d="M859 963h267l-839 -1455h-262l289 506l-222 949h269l127 -700zM693 -214q62 0 100 -46.5t27 -109.5q-8 -49 -50 -83.5t-92 -34.5q-62 0 -99.5 45.5t-26.5 108.5q9 49 50.5 84.5t90.5 35.5z" />
<glyph unicode="&#x1ef6;" horiz-adv-x="1357" d="M941 2013q-63 0 -119 -46l-74 131q92 64 194 64q110 0 173.5 -70t45.5 -178q-13 -66 -59.5 -117.5t-128.5 -73.5l-24 -95h-137l22 181q166 29 178 131q4 33 -16 53t-55 20zM1530 1536l-683 -815l-126 -721h-257l128 728l-393 808h295l264 -575l470 575h302z" />
<glyph unicode="&#x1ef7;" horiz-adv-x="1051" d="M668 1440q-63 0 -119 -46l-74 131q92 64 194 64q110 0 173.5 -70t45.5 -178q-13 -66 -59.5 -117.5t-128.5 -73.5l-24 -95h-137l22 181q166 29 178 131q4 33 -16 53t-55 20zM859 963h267l-839 -1455h-262l289 506l-222 949h269l127 -700z" />
<glyph unicode="&#x1ef8;" horiz-adv-x="1357" d="M787 1796q-48 0 -82.5 -46.5t-47.5 -114.5l-137 17q23 129 93 209.5t175 80.5q43 0 76.5 -17t50 -36t36.5 -51q13 -20 21 -29.5t24.5 -19.5t37.5 -10q47 0 79 43t45 118l137 -18q-24 -132 -92.5 -210.5t-168.5 -78.5q-48 0 -83.5 17.5t-52 36.5t-34.5 50 q-13 21 -21.5 31.5t-23 19t-32.5 8.5zM1530 1536l-683 -815l-126 -721h-257l128 728l-393 808h295l264 -575l470 575h302z" />
<glyph unicode="&#x1ef9;" horiz-adv-x="1051" d="M514 1223q-48 0 -82.5 -46.5t-47.5 -114.5l-137 17q23 129 93 209.5t175 80.5q43 0 76.5 -17t50 -36t36.5 -51q13 -20 21 -29.5t24.5 -19.5t37.5 -10q47 0 79 43t45 118l137 -18q-24 -132 -92.5 -210.5t-168.5 -78.5q-48 0 -83.5 17.5t-52 36.5t-34.5 50 q-13 21 -21.5 31.5t-23 19t-32.5 8.5zM859 963h267l-839 -1455h-262l289 506l-222 949h269l127 -700z" />
<glyph unicode="&#x2000;" horiz-adv-x="1318" />
<glyph unicode="&#x2001;" horiz-adv-x="2637" />
<glyph unicode="&#x2002;" horiz-adv-x="1318" />
<glyph unicode="&#x2003;" horiz-adv-x="2637" />
<glyph unicode="&#x2004;" horiz-adv-x="879" />
<glyph unicode="&#x2005;" horiz-adv-x="659" />
<glyph unicode="&#x2006;" horiz-adv-x="439" />
<glyph unicode="&#x2007;" horiz-adv-x="439" />
<glyph unicode="&#x2008;" horiz-adv-x="329" />
<glyph unicode="&#x2009;" horiz-adv-x="527" />
<glyph unicode="&#x200a;" horiz-adv-x="146" />
<glyph unicode="&#x2010;" horiz-adv-x="1010" d="M130 389l33 185h717l-33 -185h-717z" />
<glyph unicode="&#x2011;" horiz-adv-x="1010" d="M130 389l33 185h717l-33 -185h-717z" />
<glyph unicode="&#x2012;" horiz-adv-x="1010" d="M130 389l33 185h717l-33 -185h-717z" />
<glyph unicode="&#x2013;" horiz-adv-x="1317" d="M130 389l33 185h1024l-33 -185h-1024z" />
<glyph unicode="&#x2014;" horiz-adv-x="2048" d="M-16 389l32 185h2048l-32 -185h-2048z" />
<glyph unicode="&#x2018;" horiz-adv-x="565" d="M343 886q-67 0 -107.5 49.5t-28.5 116.5q8 43 37 74l234 410h151l-187 -380q32 -23 47 -60t7 -80q-9 -53 -54.5 -91.5t-98.5 -38.5z" />
<glyph unicode="&#x2019;" horiz-adv-x="565" d="M483 1557q67 0 107 -49t29 -117q-8 -41 -35 -71l-236 -413h-151l187 380q-32 22 -46.5 59t-7.5 81q9 53 54.5 91.5t98.5 38.5z" />
<glyph unicode="&#x201a;" horiz-adv-x="565" d="M257 275q67 0 107 -49t29 -117q-8 -42 -37 -74l-234 -410h-151l187 380q-32 22 -46.5 59t-7.5 81q8 53 53.5 91.5t99.5 38.5z" />
<glyph unicode="&#x201c;" horiz-adv-x="987" d="M345 886q-67 0 -107.5 49.5t-28.5 116.5q4 22 18 51l253 433h152l-195 -376q33 -19 51.5 -58t9.5 -86q-9 -53 -54.5 -91.5t-98.5 -38.5zM767 886q-67 0 -107.5 49.5t-28.5 116.5q2 15 17 51l254 433h151l-194 -376q33 -19 51.5 -58t9.5 -86q-9 -53 -54.5 -91.5 t-98.5 -38.5z" />
<glyph unicode="&#x201d;" horiz-adv-x="988" d="M481 1556q67 0 107.5 -49.5t28.5 -116.5q-2 -15 -17 -51l-254 -433h-151l194 376q-33 19 -51.5 58t-9.5 86q9 53 54.5 91.5t98.5 38.5zM903 1556q67 0 107.5 -49.5t28.5 -116.5q-4 -22 -18 -51l-253 -433h-152l195 376q-33 19 -51.5 58t-9.5 86q9 53 54.5 91.5t98.5 38.5 z" />
<glyph unicode="&#x201e;" horiz-adv-x="977" d="M393 109q-8 -42 -37 -74l-234 -410h-151l187 380q-32 22 -46.5 59t-7.5 81q8 53 53.5 91.5t99.5 38.5q67 0 107 -49t29 -117zM669 275q67 0 107 -49t29 -117q-8 -41 -35 -71l-236 -413h-151l187 380q-32 22 -46.5 59t-7.5 81q8 53 53.5 91.5t99.5 38.5z" />
<glyph unicode="&#x2020;" horiz-adv-x="978" d="M1003 997l-29 -160h-345l-209 -1185h-161l209 1185h-340l29 160h339l66 375h161l-66 -375h346z" />
<glyph unicode="&#x2021;" horiz-adv-x="1058" d="M1014 837h-346l-112 -637h346l-28 -158h-346l-69 -390h-160l69 390h-341l29 158h340l112 637h-340l28 160h340l66 375h160l-66 -375h346z" />
<glyph unicode="&#x2022;" horiz-adv-x="888" d="M442 373q-128 0 -205.5 91.5t-54.5 222.5q20 113 118.5 197t212.5 84q125 0 203 -95t56 -222q-21 -117 -118.5 -197.5t-211.5 -80.5z" />
<glyph unicode="&#x2026;" horiz-adv-x="1894" d="M247 -20q-66 0 -106.5 49t-28.5 116q8 53 54 91.5t99 38.5q67 0 107 -49t29 -117q-10 -53 -55.5 -91t-98.5 -38zM871 -20q-66 0 -106 49t-29 116q9 53 55 91.5t99 38.5q67 0 107 -49t29 -117q-10 -53 -55.5 -91t-99.5 -38zM1504 -20q-66 0 -106.5 49t-28.5 116 q8 53 54 91.5t99 38.5q67 0 107 -49t29 -117q-10 -53 -55.5 -91t-98.5 -38z" />
<glyph unicode="&#x202f;" horiz-adv-x="527" />
<glyph unicode="&#x2030;" horiz-adv-x="2367" d="M440 871q-149 0 -236 106t-60 257q23 134 135.5 228t248.5 94q97 0 170.5 -48t107 -130.5t16.5 -179.5q-25 -136 -136.5 -231.5t-245.5 -95.5zM127 0l1144 1536h245l-1140 -1536h-249zM452 1063q69 0 123 50.5t59 120.5q5 54 -29.5 93t-89.5 39q-70 0 -124.5 -49.5 t-59.5 -118.5q-6 -56 29 -95.5t92 -39.5zM1126 -16q-149 0 -236 105.5t-61 255.5q25 134 137 228.5t246 94.5q148 0 234.5 -105.5t60.5 -253.5q-23 -135 -135 -230t-246 -95zM1897 -16q-149 0 -236 105.5t-60 255.5q24 134 136 228.5t247 94.5q148 0 234 -105.5t60 -253.5 q-23 -135 -134.5 -230t-246.5 -95zM1138 175q69 0 123 50t60 120q6 55 -29.5 93.5t-91.5 38.5q-70 0 -124 -49.5t-59 -118.5q-7 -56 28 -95t93 -39zM1909 175q69 0 122.5 50t60.5 120q6 55 -29.5 93.5t-91.5 38.5q-69 0 -122.5 -49.5t-60.5 -118.5q-6 -56 29 -95t92 -39z " />
<glyph unicode="&#x2039;" horiz-adv-x="625" d="M294 104l-249 377l374 377h209l-382 -377l241 -377h-193z" />
<glyph unicode="&#x203a;" horiz-adv-x="621" d="M-7 104l382 377l-241 377h193l249 -377l-374 -377h-209z" />
<glyph unicode="&#x2044;" horiz-adv-x="528" d="M-458 0l1344 1536h200l-1342 -1536h-202z" />
<glyph unicode="&#x205f;" horiz-adv-x="659" />
<glyph unicode="&#x20ac;" horiz-adv-x="1844" d="M896 236q120 0 234.5 48t205.5 133l180 -170q-130 -125 -294.5 -196t-337.5 -71q-256 0 -436 145.5t-226 378.5h-128l46 178h69q3 51 12 105q7 38 13 61h-49l46 178h70q117 234 344.5 382t482.5 148q181 0 326.5 -75t234.5 -207l-218 -141q-56 85 -147 130.5t-206 45.5 q-154 0 -294 -76.5t-233 -206.5h657l-46 -178h-703q-15 -45 -25 -99q-5 -31 -7 -67h690l-46 -178h-619q43 -123 149.5 -195.5t254.5 -72.5z" />
<glyph unicode="&#x2113;" horiz-adv-x="1240" d="M1055 406l96 -118q-221 -300 -533 -300q-101 0 -175.5 31t-116.5 86t-60.5 123.5t-14.5 148.5l-4 -2q-17 -12 -64.5 -45.5t-73.5 -50.5l-58 140q33 23 108.5 72.5t113.5 76.5l105 565q21 118 58.5 212t84.5 156t104 102.5t116 58t122 17.5q70 0 124 -21t87 -58t53.5 -87 t21.5 -108t-8 -121q-33 -188 -192 -375.5t-442 -401.5l-17 -66q-23 -129 32 -196t151 -67q107 0 209.5 67.5t172.5 160.5zM613 1146l-79 -413q189 161 304.5 305t139.5 279q17 95 -5.5 146t-97.5 51q-79 0 -154 -89t-108 -279z" />
<glyph unicode="&#x2116;" horiz-adv-x="2865" d="M1194 501l182 1035h257l-271 -1536h-135l-682 1038l-182 -1038h-256l270 1536h134zM2359 1364q145 0 254 -69t157.5 -188t23.5 -261q-23 -132 -107 -242.5t-208.5 -174.5t-262.5 -64q-146 0 -255 69t-157.5 187.5t-23.5 260.5q23 133 106.5 243.5t208.5 174.5t264 64z M2560 882q20 111 -40 185t-167 74q-121 0 -219 -84.5t-120 -210.5q-20 -112 39.5 -185t168.5 -73q119 0 217.5 85t120.5 209zM1712 0l28 168h924l-29 -168h-923z" />
<glyph unicode="&#x2122;" horiz-adv-x="1700" d="M647 1420h-189l-106 -601h-132l106 601h-185l20 116h506zM1391 1536h143l-127 -717h-130l89 506l-311 -369l-192 377l-91 -514h-132l127 717h139l178 -360z" />
<glyph unicode="&#x212e;" horiz-adv-x="1946" d="M988 -18q-178 0 -340 62t-279 167.5t-186 250.5t-69 304q0 215 117 397t318 287.5t439 105.5q179 0 341.5 -62.5t280 -168t186.5 -252t69 -307.5v-21h-1417q-13 0 -13 -8v-430q0 -22 19 -49q106 -109 245 -171t291 -62q167 0 313.5 69.5t252.5 192.5h125 q-119 -141 -301.5 -223t-391.5 -82zM448 788h1087q8 0 8 15v430q0 34 -20 51q-106 105 -243.5 165t-289.5 60q-150 0 -288 -61.5t-246 -169.5q-21 -24 -21 -53v-422q0 -5 3.5 -10t9.5 -5z" />
<glyph unicode="&#x2190;" horiz-adv-x="1745" d="M1611 850v-248h-1038v-260l-498 385l498 385v-262h1038z" />
<glyph unicode="&#x2191;" horiz-adv-x="884" d="M319 0v1038h-262l385 498l385 -498h-260v-1038h-248z" />
<glyph unicode="&#x2192;" horiz-adv-x="1750" d="M134 850h1038v262l498 -385l-498 -385v260h-1038v248z" />
<glyph unicode="&#x2193;" horiz-adv-x="884" d="M319 1536h248v-1038h260l-385 -498l-385 498h262v1038z" />
<glyph unicode="&#x2194;" horiz-adv-x="2173" d="M571 295l-498 387l498 385v-260l1024 -2v260l498 -385l-498 -385v262l-1024 2v-264z" />
<glyph unicode="&#x2195;" horiz-adv-x="937" d="M469 -145l-385 497h262v672h-262l385 498l385 -498h-260v-672h260z" />
<glyph unicode="&#x2196;" horiz-adv-x="1357" d="M1295 314l-175 -175l-734 734l-184 -184l-80 624l624 -80l-185 -185z" />
<glyph unicode="&#x2197;" horiz-adv-x="1357" d="M62 314l734 734l-185 185l624 80l-80 -624l-184 184l-734 -734z" />
<glyph unicode="&#x2198;" horiz-adv-x="1357" d="M62 1222l175 175l734 -734l184 184l80 -624l-624 80l185 185z" />
<glyph unicode="&#x2199;" horiz-adv-x="1357" d="M1295 1222l-734 -734l185 -185l-624 -80l80 624l184 -184l734 734z" />
<glyph unicode="&#x2202;" horiz-adv-x="1191" d="M343 1452q146 30 280 -17.5t229.5 -153t151 -265t52.5 -344.5q-3 -192 -72.5 -344.5t-191 -237t-272.5 -84.5q-124 0 -217.5 47t-142.5 130t-55 196.5t45 246.5q43 114 113 199t154 128.5t180.5 54t190.5 -24.5q-53 164 -168 241t-277 43v185zM827 672q1 53 -2 115 q-144 87 -270 27t-192 -246q-40 -122 -27 -209.5t64.5 -136t127.5 -48.5q114 0 203 136t96 362z" />
<glyph unicode="&#x2205;" horiz-adv-x="1507" d="M1220 993q146 -172 146 -397q0 -166 -82 -307t-223.5 -223t-307.5 -82q-226 0 -396 146l-89 -89l-70 70l89 89q-146 170 -146 396q0 166 82 307t223 223t307 82q225 0 397 -146l89 89l69 -70zM342 596q0 -141 87 -254l578 578q-113 87 -254 87q-171 0 -291 -120 t-120 -291zM753 185q171 0 291 120t120 291q0 143 -87 254l-578 -578q111 -87 254 -87z" />
<glyph unicode="&#x220f;" horiz-adv-x="1714" d="M367 0v1220h-131v220h1395v-220h-131v-1220h-219v1220h-693v-1220h-221z" />
<glyph unicode="&#x2211;" horiz-adv-x="1608" d="M224 -241v163l710 676l-710 676v166h1198v-207h-850l649 -635l-649 -635h850v-204h-1198z" />
<glyph unicode="&#x2212;" horiz-adv-x="1269" d="M225 589v204h819v-204h-819z" />
<glyph unicode="&#x221a;" horiz-adv-x="1448" d="M437 -160l-225 695h-144v175h270l193 -593l695 1454l162 -67l-796 -1664h-155z" />
<glyph unicode="&#x221e;" horiz-adv-x="1696" d="M471 269q-133 0 -220 91.5t-92 235.5q5 144 92 235.5t220 91.5q181 0 375 -197q93 95 190 146t185 51q140 0 224 -88t88 -239q-4 -151 -88 -239t-224 -88q-88 0 -185 51t-190 146q-194 -197 -375 -197zM471 444q112 0 258 152q-146 152 -258 152q-57 0 -97 -43.5 t-41 -108.5q1 -65 41 -108.5t97 -43.5zM1221 444q59 0 97.5 41.5t40.5 110.5q-2 69 -40.5 110.5t-97.5 41.5q-112 0 -259 -152q147 -152 259 -152z" />
<glyph unicode="&#x222b;" horiz-adv-x="925" d="M63 -457v240q153 0 211.5 55.5t58.5 195.5v1090q0 141 91 232.5t227 91.5q137 0 222 -78l-102 -190q-43 43 -98 43q-45 0 -73.5 -33.5t-28.5 -105.5v-1066q0 -222 -139 -348.5t-369 -126.5z" />
<glyph unicode="&#x2248;" horiz-adv-x="1387" d="M905 669q-67 0 -130 29.5t-88 51.5t-65 66l-10 10q-55 59 -109 59q-65 0 -101 -55.5t-37 -143.5h-191q1 178 89.5 285t242.5 107q80 0 140.5 -35.5t124.5 -113.5q22 -26 32 -36.5t35 -24.5t52 -14q59 0 96 53.5t38 144.5h188q-1 -168 -83 -275.5t-224 -107.5zM905 202 q-67 0 -130 29.5t-88 51.5t-65 66q-3 2 -4 3.5t-3 3t-3 3.5q-31 33 -53.5 46.5t-55.5 12.5q-66 -2 -101.5 -56.5t-36.5 -142.5h-191q1 179 90 286t242 107q79 0 139.5 -35t125.5 -114q19 -24 30 -35.5t36.5 -26t52.5 -14.5q59 0 96 53t38 146h188q-1 -168 -83 -276 t-224 -108z" />
<glyph unicode="&#x2264;" horiz-adv-x="1402" d="M1252 1485v-225l-904 -397l904 -399v-228l-1130 504v246zM122 0v158h1130v-158h-1130z" />
<glyph unicode="&#x2265;" horiz-adv-x="1402" d="M150 1485l1131 -499v-246l-1131 -504v228l905 399l-905 397v225zM150 0v158h1131v-158h-1131z" />
<glyph unicode="&#x25ca;" horiz-adv-x="1355" d="M679 106l-619 617l619 618l616 -616zM680 381l341 344l-341 342l-345 -344z" />
<glyph unicode="&#x25fc;" horiz-adv-x="965" d="M0 965h965v-965h-965v965z" />
<glyph unicode="&#xf8ff;" horiz-adv-x="1792" d="M895 0q-158 0 -302 62t-248 166t-166 248t-62 302t62 302.5t166 248.5t248 165.5t302 61.5q127 0 246 -39t214.5 -111t167.5 -168t111.5 -214.5t39.5 -245.5q0 -211 -104.5 -390t-284 -283.5t-390.5 -104.5zM895 74q144 0 274.5 56t224.5 150.5t150 224.5t56 273 t-55.5 273.5t-150 225t-225 150.5t-274.5 56q-143 0 -273 -56t-224.5 -150.5t-150.5 -225t-56 -273.5t56 -273t150.5 -224.5t224.5 -150.5t273 -56zM1303 444q-14 0 -25 13l-297 295q-11 12 -11 27t11 26l297 297q11 10 26 10t26 -10q10 -11 10 -26.5t-10 -26.5l-271 -271 l271 -270q22 -22 0 -51q-11 -13 -27 -13zM488 444q-16 0 -26.5 11t-10.5 26v594q0 16 10.5 26.5t26.5 10.5q15 0 26 -10.5t11 -26.5v-594q0 -15 -11 -26t-26 -11zM895 444q-15 0 -25.5 11t-10.5 26v594q0 16 10.5 26.5t25.5 10.5q16 0 26.5 -10.5t10.5 -26.5v-594 q0 -15 -10.5 -26t-26.5 -11zM598 741q-15 0 -25.5 11t-10.5 26q0 16 10.5 26.5t25.5 10.5h187q15 0 26 -10.5t11 -26.5q0 -15 -11 -26t-26 -11h-187z" />
<glyph unicode="&#xfb00;" horiz-adv-x="1385" d="M775 963l-35 -201h-238l-134 -762h-248l134 762h-163l35 201h163l47 268q27 155 126.5 242t246.5 87q114 0 156 -35l-25 -217q-34 31 -97 31q-62 0 -109 -43.5t-58 -110.5l-39 -222h238zM1422 1339q-62 0 -109 -43.5t-58 -110.5l-39 -222h238l-35 -201h-238l-134 -762 h-248l134 762h-163l35 201h163l47 268q27 155 126.5 242t246.5 87q114 0 156 -35l-25 -217q-34 31 -97 31z" />
<glyph unicode="&#xfb03;" horiz-adv-x="1864" d="M147 0l134 762h-169l35 201h168l49 268q27 155 126.5 242t246.5 87q114 0 156 -35l-25 -217q-34 31 -97 31q-62 0 -109 -43.5t-58 -110.5l-40 -222h364l48 268q27 155 127 242t247 87q113 0 155 -35l-25 -217q-34 31 -97 31q-62 0 -108.5 -43.5t-58.5 -110.5l-40 -222 h621l-168 -963h-246l133 762h-375l-133 -762h-248l133 762h-364l-133 -762h-249zM1722 1132q-65 0 -104.5 47.5t-29.5 114.5q10 53 54 89t98 36q65 0 104.5 -47t26.5 -114q-9 -53 -52.5 -89.5t-96.5 -36.5z" />
<glyph unicode="&#xfb04;" horiz-adv-x="1938" d="M775 963l-35 -201h-238l-134 -762h-248l134 762h-163l35 201h163l47 268q27 155 126.5 242t246.5 87q114 0 156 -35l-25 -217q-34 31 -97 31q-62 0 -109 -43.5t-58 -110.5l-39 -222h238zM1454 963l-35 -201h-238l-134 -762h-248l134 762h-163l35 201h163l47 268 q27 155 126.5 242t246.5 87q114 0 156 -35l-25 -217q-34 31 -97 31q-62 0 -109 -43.5t-58 -110.5l-39 -222h238zM1723 1536h248l-270 -1536h-248z" />
<glyph horiz-adv-x="1020" d="M635 1536l-227 -1299h536l-42 -237h-794l270 1536h257zM1208 1536l-387 -573h-154l284 573h257z" />
<glyph horiz-adv-x="1020" d="M635 1536l-227 -1299h536l-42 -237h-794l270 1536h257zM1208 1536l-387 -573h-154l284 573h257z" />
<glyph horiz-adv-x="551" d="M404 1119q-60 0 -97.5 45t-28.5 106q10 50 50.5 84t88.5 34q63 0 100 -45t25 -109q-8 -47 -48.5 -81t-89.5 -34zM68 0l168 963h248l-168 -963h-248z" />
<glyph horiz-adv-x="1039" d="M569 983q201 0 299 -106t65 -294l-102 -583h-219l8 98q-130 -116 -297 -116q-151 0 -233 82t-56 224q23 134 148 212t392 102l127 11q16 91 -22.5 137t-125.5 46q-136 0 -296 -113l-88 173q182 127 400 127zM383 160q73 0 142 37.5t121 104.5l25 140l-78 -9 q-119 -11 -191 -36.5t-98.5 -55t-34.5 -71.5q-9 -55 21.5 -82.5t92.5 -27.5z" />
<glyph horiz-adv-x="1039" d="M975 1363l-385 -293l-79 101l359 331zM569 983q201 0 299 -106t65 -294l-102 -583h-219l8 98q-130 -116 -297 -116q-151 0 -233 82t-56 224q23 134 148 212t392 102l127 11q16 91 -22.5 137t-125.5 46q-136 0 -296 -113l-88 173q182 127 400 127zM383 160q73 0 142 37.5 t121 104.5l25 140l-78 -9q-119 -11 -191 -36.5t-98.5 -55t-34.5 -71.5q-9 -55 21.5 -82.5t92.5 -27.5z" />
<glyph horiz-adv-x="1039" d="M633 1128q-164 0 -251.5 91t-58.5 244h160q-14 -89 26 -143.5t128 -54.5q100 0 160 58t75 140h160q-28 -164 -135 -249.5t-264 -85.5zM569 983q201 0 299 -106t65 -294l-102 -583h-219l8 98q-130 -116 -297 -116q-151 0 -233 82t-56 224q23 134 148 212t392 102l127 11 q16 91 -22.5 137t-125.5 46q-136 0 -296 -113l-88 173q182 127 400 127zM383 160q73 0 142 37.5t121 104.5l25 140l-78 -9q-119 -11 -191 -36.5t-98.5 -55t-34.5 -71.5q-9 -55 21.5 -82.5t92.5 -27.5z" />
<glyph horiz-adv-x="1039" d="M1059 1838l-385 -293l-79 101l359 331zM637 1265q100 0 160 58t75 140h160q-28 -164 -135 -249.5t-264 -85.5q-164 0 -251.5 91t-58.5 244h160q-14 -89 26 -143.5t128 -54.5zM569 983q201 0 299 -106t65 -294l-102 -583h-219l8 98q-130 -116 -297 -116q-151 0 -233 82 t-56 224q23 134 148 212t392 102l127 11q16 91 -22.5 137t-125.5 46q-136 0 -296 -113l-88 173q182 127 400 127zM383 160q73 0 142 37.5t121 104.5l25 140l-78 -9q-119 -11 -191 -36.5t-98.5 -55t-34.5 -71.5q-9 -55 21.5 -82.5t92.5 -27.5z" />
<glyph horiz-adv-x="1039" d="M633 1128q-164 0 -251.5 91t-58.5 244h160q-14 -89 26 -143.5t128 -54.5q100 0 160 58t75 140h160q-28 -164 -135 -249.5t-264 -85.5zM569 983q201 0 299 -106t65 -294l-102 -583h-219l8 98q-130 -116 -297 -116q-151 0 -233 82t-56 224q23 134 148 212t392 102l127 11 q16 91 -22.5 137t-125.5 46q-136 0 -296 -113l-88 173q182 127 400 127zM383 160q73 0 142 37.5t121 104.5l25 140l-78 -9q-119 -11 -191 -36.5t-98.5 -55t-34.5 -71.5q-9 -55 21.5 -82.5t92.5 -27.5zM382 -126q62 0 100 -46.5t27 -109.5q-8 -49 -50 -83.5t-92 -34.5 q-62 0 -99.5 45.5t-26.5 108.5q9 49 50.5 84.5t90.5 35.5z" />
<glyph horiz-adv-x="1039" d="M807 1646l-98 -97l-299 289l145 139zM633 1128q-164 0 -251.5 91t-58.5 244h160q-14 -89 26 -143.5t128 -54.5q100 0 160 58t75 140h160q-28 -164 -135 -249.5t-264 -85.5zM569 983q201 0 299 -106t65 -294l-102 -583h-219l8 98q-130 -116 -297 -116q-151 0 -233 82 t-56 224q23 134 148 212t392 102l127 11q16 91 -22.5 137t-125.5 46q-136 0 -296 -113l-88 173q182 127 400 127zM383 160q73 0 142 37.5t121 104.5l25 140l-78 -9q-119 -11 -191 -36.5t-98.5 -55t-34.5 -71.5q-9 -55 21.5 -82.5t92.5 -27.5z" />
<glyph horiz-adv-x="1039" d="M750 1915q-63 0 -119 -46l-74 131q92 64 194 64q110 0 173.5 -70t45.5 -178q-13 -66 -59.5 -117.5t-128.5 -73.5l-24 -95h-137l22 181q166 29 178 131q4 33 -16 53t-55 20zM633 1128q-164 0 -251.5 91t-58.5 244h160q-14 -89 26 -143.5t128 -54.5q100 0 160 58t75 140 h160q-28 -164 -135 -249.5t-264 -85.5zM569 983q201 0 299 -106t65 -294l-102 -583h-219l8 98q-130 -116 -297 -116q-151 0 -233 82t-56 224q23 134 148 212t392 102l127 11q16 91 -22.5 137t-125.5 46q-136 0 -296 -113l-88 173q182 127 400 127zM383 160q73 0 142 37.5 t121 104.5l25 140l-78 -9q-119 -11 -191 -36.5t-98.5 -55t-34.5 -71.5q-9 -55 21.5 -82.5t92.5 -27.5z" />
<glyph horiz-adv-x="1039" d="M596 1698q-48 0 -82.5 -46.5t-47.5 -114.5l-137 17q23 129 93 209.5t175 80.5q43 0 76.5 -17t50 -36t36.5 -51q13 -20 21 -29.5t24.5 -19.5t37.5 -10q47 0 79 43t45 118l137 -18q-24 -132 -92.5 -210.5t-168.5 -78.5q-48 0 -83.5 17.5t-52 36.5t-34.5 50 q-13 21 -21.5 31.5t-23 19t-32.5 8.5zM637 1265q100 0 160 58t75 140h160q-28 -164 -135 -249.5t-264 -85.5q-164 0 -251.5 91t-58.5 244h160q-14 -89 26 -143.5t128 -54.5zM569 983q201 0 299 -106t65 -294l-102 -583h-219l8 98q-130 -116 -297 -116q-151 0 -233 82 t-56 224q23 134 148 212t392 102l127 11q16 91 -22.5 137t-125.5 46q-136 0 -296 -113l-88 173q182 127 400 127zM383 160q73 0 142 37.5t121 104.5l25 140l-78 -9q-119 -11 -191 -36.5t-98.5 -55t-34.5 -71.5q-9 -55 21.5 -82.5t92.5 -27.5z" />
<glyph horiz-adv-x="1039" d="M709 1108h-185l-175 299l114 67l172 -219l252 219l101 -67zM569 983q201 0 299 -106t65 -294l-102 -583h-219l8 98q-130 -116 -297 -116q-151 0 -233 82t-56 224q23 134 148 212t392 102l127 11q16 91 -22.5 137t-125.5 46q-136 0 -296 -113l-88 173q182 127 400 127z M383 160q73 0 142 37.5t121 104.5l25 140l-78 -9q-119 -11 -191 -36.5t-98.5 -55t-34.5 -71.5q-9 -55 21.5 -82.5t92.5 -27.5z" />
<glyph horiz-adv-x="1039" d="M652 1287l-252 -219l-102 67l277 299h184l179 -299l-115 -67zM569 983q201 0 299 -106t65 -294l-102 -583h-219l8 98q-130 -116 -297 -116q-151 0 -233 82t-56 224q23 134 148 212t392 102l127 11q16 91 -22.5 137t-125.5 46q-136 0 -296 -113l-88 173q182 127 400 127z M383 160q73 0 142 37.5t121 104.5l25 140l-78 -9q-119 -11 -191 -36.5t-98.5 -55t-34.5 -71.5q-9 -55 21.5 -82.5t92.5 -27.5z" />
<glyph horiz-adv-x="1039" d="M433 1135q-61 0 -98 45t-26 107q8 49 48.5 82.5t89.5 33.5q62 0 99 -44.5t26 -107.5q-9 -48 -49.5 -82t-89.5 -34zM853 1403q62 0 98.5 -44t25.5 -108q-9 -48 -49 -82t-90 -34q-61 0 -98 45t-26 107q8 49 49 82.5t90 33.5zM569 983q201 0 299 -106t65 -294l-102 -583 h-219l8 98q-130 -116 -297 -116q-151 0 -233 82t-56 224q23 134 148 212t392 102l127 11q16 91 -22.5 137t-125.5 46q-136 0 -296 -113l-88 173q182 127 400 127zM383 160q73 0 142 37.5t121 104.5l25 140l-78 -9q-119 -11 -191 -36.5t-98.5 -55t-34.5 -71.5 q-9 -55 21.5 -82.5t92.5 -27.5z" />
<glyph horiz-adv-x="1039" d="M723 1171l-98 -97l-299 289l145 139zM569 983q201 0 299 -106t65 -294l-102 -583h-219l8 98q-130 -116 -297 -116q-151 0 -233 82t-56 224q23 134 148 212t392 102l127 11q16 91 -22.5 137t-125.5 46q-136 0 -296 -113l-88 173q182 127 400 127zM383 160q73 0 142 37.5 t121 104.5l25 140l-78 -9q-119 -11 -191 -36.5t-98.5 -55t-34.5 -71.5q-9 -55 21.5 -82.5t92.5 -27.5z" />
<glyph horiz-adv-x="1039" d="M967 1310l-27 -153h-634l27 153h634zM569 983q201 0 299 -106t65 -294l-102 -583h-219l8 98q-130 -116 -297 -116q-151 0 -233 82t-56 224q23 134 148 212t392 102l127 11q16 91 -22.5 137t-125.5 46q-136 0 -296 -113l-88 173q182 127 400 127zM383 160q73 0 142 37.5 t121 104.5l25 140l-78 -9q-119 -11 -191 -36.5t-98.5 -55t-34.5 -71.5q-9 -55 21.5 -82.5t92.5 -27.5z" />
<glyph horiz-adv-x="1039" d="M831 0q-292 -117 -320 -273q-15 -89 83 -89q99 0 199 90l83 -145q-137 -118 -309 -108q-119 7 -177.5 76t-38.5 175q29 171 268 274h-7l8 98q-130 -116 -297 -116q-151 0 -233 82t-56 224q23 134 148 212t392 102l127 11q16 91 -22.5 137t-125.5 46q-136 0 -296 -113 l-88 173q182 127 400 127q201 0 299 -106t65 -294zM383 160q73 0 142 37.5t121 104.5l25 140l-78 -9q-119 -11 -191 -36.5t-98.5 -55t-34.5 -71.5q-9 -55 21.5 -82.5t92.5 -27.5z" />
<glyph horiz-adv-x="1039" d="M644 1108q-103 0 -164 74.5t-42 176.5q15 88 89.5 151t164.5 63q101 0 161 -73.5t43 -176.5q-17 -89 -90.5 -152t-161.5 -63zM551 1323q-4 -45 21.5 -73.5t69.5 -28.5q57 0 99.5 39.5t46.5 98.5q4 42 -23.5 73.5t-70.5 31.5q-55 0 -97 -42.5t-46 -98.5zM569 983 q201 0 299 -106t65 -294l-102 -583h-219l8 98q-130 -116 -297 -116q-151 0 -233 82t-56 224q23 134 148 212t392 102l127 11q16 91 -22.5 137t-125.5 46q-136 0 -296 -113l-88 173q182 127 400 127zM383 160q73 0 142 37.5t121 104.5l25 140l-78 -9q-119 -11 -191 -36.5 t-98.5 -55t-34.5 -71.5q-9 -55 21.5 -82.5t92.5 -27.5z" />
<glyph horiz-adv-x="1039" d="M900 1367l137 -18q-24 -132 -92.5 -210.5t-168.5 -78.5q-48 0 -83.5 17.5t-52 36.5t-34.5 50q-13 21 -21.5 31.5t-23 19t-32.5 8.5q-48 0 -82.5 -46.5t-47.5 -114.5l-137 17q23 129 93 209.5t175 80.5q43 0 76.5 -17t50 -36t36.5 -51q13 -20 21 -29.5t24.5 -19.5 t37.5 -10q47 0 79 43t45 118zM560 983q201 0 299 -106t65 -294l-102 -583h-219l8 98q-130 -116 -297 -116q-151 0 -233 82t-56 224q23 134 148 212t392 102l127 11q16 91 -22.5 137t-125.5 46q-136 0 -296 -113l-88 173q182 127 400 127zM374 160q73 0 142 37.5t121 104.5 l25 140l-78 -9q-119 -11 -191 -36.5t-98.5 -55t-34.5 -71.5q-9 -55 21.5 -82.5t92.5 -27.5z" />
<glyph horiz-adv-x="1258" d="M1042 1536h249l-271 -1536h-232l15 125q-141 -144 -340 -144q-129 0 -228.5 67.5t-144.5 187.5t-20 265q24 136 105.5 247.5t196 173.5t235.5 62q213 0 312 -159zM1564 1536h257l-387 -573h-154zM532 202q123 0 221 87t117 212q18 110 -45.5 186t-173.5 76 q-121 0 -219.5 -87t-118.5 -211q-17 -110 46.5 -186.5t172.5 -76.5z" />
<glyph horiz-adv-x="1262" d="M1027 1535l-208 -419h-252l312 419h148zM943 963h250l-166 -947q-42 -237 -210 -376.5t-394 -139.5q-139 0 -260.5 64.5t-183.5 179.5l169 136q46 -80 116.5 -121.5t153.5 -41.5q131 0 234.5 89t127.5 226l13 79q-132 -130 -317 -130q-137 0 -239.5 67.5t-148 187 t-19.5 265.5q25 137 106 248t198 173t245 62q211 0 303 -156zM531 202q121 0 220.5 88t117.5 211q18 110 -46 186t-173 76q-122 0 -220 -87t-118 -211q-17 -110 46 -186.5t173 -76.5z" />
<glyph horiz-adv-x="553" d="M68 0l270 1536h248l-270 -1536h-248zM568 963l284 573h257l-387 -573h-154z" />
<glyph horiz-adv-x="680" d="M921 1646h257l-387 -573h-154zM611 1309l-61 -346h186l-35 -201h-186l-134 -762h-249l133 762h-189l35 201h189l61 346h250z" />
<glyph horiz-adv-x="1258" d="M1042 1536h249l-271 -1536h-232l15 125q-141 -144 -340 -144q-129 0 -228.5 67.5t-144.5 187.5t-20 265q24 136 105.5 247.5t196 173.5t235.5 62q213 0 312 -159zM1564 1536h257l-387 -573h-154zM532 202q123 0 221 87t117 212q18 110 -45.5 186t-173.5 76 q-121 0 -219.5 -87t-118.5 -211q-17 -110 46.5 -186.5t172.5 -76.5z" />
<glyph horiz-adv-x="1262" d="M1027 1535l-208 -419h-252l312 419h148zM943 963h250l-166 -947q-42 -237 -210 -376.5t-394 -139.5q-139 0 -260.5 64.5t-183.5 179.5l169 136q46 -80 116.5 -121.5t153.5 -41.5q131 0 234.5 89t127.5 226l13 79q-132 -130 -317 -130q-137 0 -239.5 67.5t-148 187 t-19.5 265.5q25 137 106 248t198 173t245 62q211 0 303 -156zM531 202q121 0 220.5 88t117.5 211q18 110 -46 186t-173 76q-122 0 -220 -87t-118 -211q-17 -110 46 -186.5t173 -76.5z" />
<glyph horiz-adv-x="553" d="M68 0l270 1536h248l-270 -1536h-248zM568 963l284 573h257l-387 -573h-154z" />
<glyph horiz-adv-x="680" d="M921 1646h257l-387 -573h-154zM611 1309l-61 -346h186l-35 -201h-186l-134 -762h-249l133 762h-189l35 201h189l61 346h250z" />
<glyph horiz-adv-x="1297" d="M1353 963l-35 -201h-186l-134 -762h-249l133 762h-380l-134 -762h-248l134 762h-163l35 201h163l47 268q27 155 126.5 242t246.5 87q114 0 156 -35l-25 -217q-34 31 -97 31q-62 0 -109 -43.5t-58 -110.5l-39 -222h380l61 346h250l-61 -346h186z" />
<glyph horiz-adv-x="1286" d="M1341 963l-35 -201h-186l-134 -762h-249l133 762h-355l-134 -762h-249l133 762h-189l35 201h189l61 346h250l-61 -346h355l61 346h250l-61 -346h186z" />
<glyph horiz-adv-x="1320" d="M589 -20q-171 0 -286.5 103t-153.5 282t1 421q61 347 245.5 558.5t438.5 211.5q132 0 230.5 -59t153 -165.5t70.5 -254.5t-17 -327q-61 -344 -249 -557t-433 -213zM595 201q148 0 266 160t165 425q45 254 -11.5 395.5t-187.5 141.5q-145 0 -264 -152.5t-167 -420.5 q-44 -252 9 -400.5t190 -148.5z" />
<glyph horiz-adv-x="768" d="M248 0l229 1303h-306l42 233h557l-270 -1536h-252z" />
<glyph horiz-adv-x="1187" d="M1168 1115q-18 -103 -69 -200.5t-148.5 -206.5t-216.5 -216t-305 -259h644l-40 -233h-1065l16 125q296 253 476 418t278 277.5t133.5 179t48.5 141.5q18 100 -35.5 149t-144.5 49q-117 0 -198 -72t-101 -191l-257 19q38 214 195 339.5t372 124.5q217 -2 334 -123.5 t83 -320.5z" />
<glyph horiz-adv-x="1221" d="M527 -20q-116 0 -212 31.5t-163 90t-96 149.5t-9 202l252 -16q-20 -116 45.5 -175.5t186.5 -59.5q141 0 237.5 75.5t119.5 201.5q20 111 -46.5 171.5t-195.5 60.5h-141l37 209h110q103 0 183.5 65t97.5 168q16 85 -31 133.5t-143 48.5q-105 0 -180.5 -55.5t-91.5 -150.5 l-249 17q33 190 180 300t342 110q136 0 238 -53.5t149.5 -150t25.5 -216.5q-20 -108 -89.5 -187t-169.5 -119q120 -37 183.5 -140.5t35.5 -260.5q-36 -204 -204.5 -326.5t-401.5 -122.5z" />
<glyph horiz-adv-x="1270" d="M1247 534l-41 -227h-251l-54 -307h-252l54 307h-696l32 196l806 1033h326l-176 -1002h252zM302 534h441l132 756z" />
<glyph horiz-adv-x="1260" d="M1258 1307h-663l-116 -347q131 82 305 82q209 0 322 -146.5t72 -380.5q-27 -157 -119 -279.5t-224.5 -188.5t-281.5 -66q-142 0 -255 55t-174 163.5t-43 249.5l260 -7q0 -58 18.5 -101t51 -68.5t72.5 -37.5t87 -12q128 0 228 89.5t125 230.5q23 127 -37.5 204.5 t-169.5 77.5q-83 0 -164.5 -39.5t-139.5 -114.5l-264 7l300 858h851z" />
<glyph horiz-adv-x="1223" d="M768 1037q88 -6 168.5 -47.5t139 -109.5t86 -166.5t10.5 -208.5q-23 -142 -115.5 -263t-228.5 -190.5t-280 -69.5q-156 0 -276 70t-176.5 193t-34.5 272q27 181 190 360l630 659h301l-488 -500q30 3 74 1zM931 540q17 126 -51 204t-191 78q-149 0 -256 -97.5t-128 -240.5 q-17 -123 51.5 -197t199.5 -74q141 0 248 95t127 232z" />
<glyph horiz-adv-x="1175" d="M224 1536h1108l-29 -179l-979 -1357h-298l962 1308h-804z" />
<glyph horiz-adv-x="1196" d="M525 -20q-150 0 -261 65t-161 178t-26 250q22 127 104.5 228.5t203.5 158.5q-130 110 -93 318q29 161 165.5 269.5t314.5 108.5q190 0 296 -119.5t75 -294.5q-17 -96 -68 -173t-131 -125q99 -64 144 -170.5t22 -236.5q-35 -195 -201.5 -326t-383.5 -131zM668 923 q93 0 166 65t87 160q12 81 -34.5 135t-126.5 54q-95 0 -169 -65t-88 -160q-11 -80 36 -134.5t129 -54.5zM539 200q119 0 213.5 86t111.5 207q16 106 -45 176.5t-168 70.5q-119 0 -211.5 -81.5t-110.5 -201.5q-16 -107 44.5 -182t165.5 -75z" />
<glyph horiz-adv-x="1224" d="M671 1554q157 0 276.5 -70t176.5 -193t35 -272q-28 -181 -190 -360l-630 -659h-301l516 530q-44 -10 -103 -10q-88 0 -169 39t-138.5 105t-85 163t-10.5 204q34 216 218.5 369.5t404.5 153.5zM914 1052q14 123 -57 197t-202 74q-142 0 -246 -95t-119 -232 q-14 -126 56.5 -204t193.5 -78q149 0 253.5 97.5t120.5 240.5z" />
<glyph horiz-adv-x="791" d="M324 -12q-162 0 -236.5 135t-35.5 356q36 207 146 331t260 124q161 0 237 -135.5t37 -355.5q-36 -206 -147.5 -330.5t-260.5 -124.5zM324 165q76 0 141 86.5t89 227.5q22 127 -3.5 202t-88.5 75q-78 0 -142.5 -86t-89.5 -227q-22 -128 3.5 -203t90.5 -75z" />
<glyph horiz-adv-x="462" d="M73 0l132 750h-130l29 172h313l-161 -922h-183z" />
<glyph horiz-adv-x="710" d="M654 643q-18 -106 -104.5 -219.5t-252.5 -252.5h302l-30 -171h-625l6 77q214 184 332 303t153.5 174.5t44.5 107.5q11 61 -14 84t-68 22q-65 -1 -106 -42t-49 -96l-181 17q21 132 114.5 210.5t224.5 78.5q134 0 204.5 -80.5t48.5 -212.5z" />
<glyph horiz-adv-x="692" d="M624 667q-18 -102 -104 -160q53 -41 76 -103t9 -137q-21 -117 -120 -198t-224 -81q-133 0 -211.5 81t-58.5 200l184 -15q-7 -43 17.5 -67t67.5 -24q61 0 109 42.5t59 104.5q9 46 -17 69.5t-80 23.5h-98l28 163h69q43 0 82 35.5t48 83.5q6 35 -13.5 55t-55.5 20 q-45 0 -80 -26t-41 -61l-179 20q19 109 102 175t195 66q120 0 188 -76.5t48 -190.5z" />
<glyph horiz-adv-x="761" d="M697 922l-98 -556h79l-30 -171h-79l-34 -195h-183l34 195h-438l18 115l487 612h244zM211 366h205l62 354z" />
<glyph horiz-adv-x="794" d="M745 755h-395l-58 -173q73 48 173 48q126 0 193.5 -88t41.5 -234q-26 -144 -131.5 -231.5t-241.5 -87.5q-135 0 -224 78t-80 204l192 -3q7 -103 118 -103q64 0 115.5 48.5t65.5 128.5q10 61 -17 96t-80 35q-43 0 -89.5 -24.5t-78.5 -62.5l-195 8l188 528h533z" />
<glyph horiz-adv-x="718" d="M430 624q49 -5 95 -31t81.5 -67.5t51.5 -102.5t4 -128q-22 -130 -134.5 -220t-243.5 -85q-148 4 -235 99.5t-63 236.5q17 91 100 195l376 401h220l-285 -294q22 -2 33 -4zM489 331q10 63 -20.5 101t-90.5 42q-84 4 -142.5 -48t-72.5 -135q-9 -61 21.5 -96t95.5 -39 q78 -3 137.5 48t71.5 127z" />
<glyph horiz-adv-x="653" d="M105 922h633l-20 -134l-561 -788h-217l549 755h-414z" />
<glyph horiz-adv-x="740" d="M299 -12q-145 0 -226.5 88.5t-58.5 218.5q13 73 59 131t114 93q-65 68 -45 190q17 97 99.5 161t192.5 64q120 0 188.5 -75.5t48.5 -185.5q-19 -113 -105 -171q115 -87 88 -243q-20 -116 -121 -193.5t-234 -77.5zM375 561q51 0 89.5 36t45.5 87q5 39 -17.5 64.5 t-60.5 25.5q-51 0 -90.5 -36.5t-44.5 -89.5q-5 -37 17.5 -62t60.5 -25zM303 147q65 0 115.5 48t56.5 115q7 52 -23.5 86t-83.5 34q-65 0 -114 -45t-57 -111q-7 -53 23.5 -90t82.5 -37z" />
<glyph horiz-adv-x="719" d="M429 933q147 0 234.5 -98t62.5 -240q-18 -98 -100 -194l-376 -401h-222l288 298q-14 0 -21 1q-120 6 -195 95t-51 233q21 129 133.5 217.5t246.5 88.5zM548 630q11 62 -21.5 98t-98.5 36q-74 0 -133 -50t-72 -123q-10 -63 22 -102.5t95 -39.5q80 0 137.5 50.5t70.5 130.5 z" />
<glyph horiz-adv-x="791" d="M433 607q-162 0 -236.5 135t-35.5 356q36 207 146 331t260 124q161 0 237 -135.5t37 -355.5q-36 -206 -147.5 -330.5t-260.5 -124.5zM433 784q76 0 141 86.5t89 227.5q22 127 -3.5 202t-88.5 75q-78 0 -142.5 -86t-89.5 -227q-22 -128 3.5 -203t90.5 -75z" />
<glyph horiz-adv-x="462" d="M181 614l132 750h-130l29 172h313l-161 -922h-183z" />
<glyph horiz-adv-x="710" d="M762 1257q-18 -106 -104.5 -219.5t-252.5 -252.5h302l-30 -171h-625l6 77q214 184 332 303t153.5 174.5t44.5 107.5q11 61 -14 84t-68 22q-65 -1 -106 -42t-49 -96l-181 17q21 132 114.5 210.5t224.5 78.5q134 0 204.5 -80.5t48.5 -212.5z" />
<glyph horiz-adv-x="692" d="M732 1281q-18 -102 -104 -160q53 -41 76 -103t9 -137q-21 -117 -120 -198t-224 -81q-133 0 -211.5 81t-58.5 200l184 -15q-7 -43 17.5 -67t67.5 -24q61 0 109 42.5t59 104.5q9 46 -17 69.5t-80 23.5h-98l28 163h69q43 0 82 35.5t48 83.5q6 35 -13.5 55t-55.5 20 q-45 0 -80 -26t-41 -61l-179 20q19 109 102 175t195 66q120 0 188 -76.5t48 -190.5z" />
<glyph horiz-adv-x="761" d="M805 1536l-98 -556h79l-30 -171h-79l-34 -195h-183l34 195h-438l18 115l487 612h244zM319 980h205l62 354z" />
<glyph horiz-adv-x="794" d="M853 1369h-395l-58 -173q73 48 173 48q126 0 193.5 -88t41.5 -234q-26 -144 -131.5 -231.5t-241.5 -87.5q-135 0 -224 78t-80 204l192 -3q7 -103 118 -103q64 0 115.5 48.5t65.5 128.5q10 61 -17 96t-80 35q-43 0 -89.5 -24.5t-78.5 -62.5l-195 8l188 528h533z" />
<glyph horiz-adv-x="718" d="M538 1238q49 -5 95 -31t81.5 -67.5t51.5 -102.5t4 -128q-22 -130 -134.5 -220t-243.5 -85q-148 4 -235 99.5t-63 236.5q17 91 100 195l376 401h220l-285 -294q23 -2 33 -4zM597 945q10 63 -20.5 101t-90.5 42q-84 4 -142.5 -48t-72.5 -135q-9 -61 21.5 -96t95.5 -39 q78 -3 137.5 48t71.5 127z" />
<glyph horiz-adv-x="653" d="M213 1536h633l-20 -134l-561 -788h-217l549 755h-414z" />
<glyph horiz-adv-x="740" d="M407 602q-145 0 -226.5 88.5t-58.5 218.5q13 73 59 131t114 93q-65 68 -45 190q17 97 99.5 161t192.5 64q120 0 188.5 -75.5t48.5 -185.5q-19 -113 -105 -171q115 -87 88 -243q-20 -116 -121 -193.5t-234 -77.5zM483 1175q51 0 89.5 36t45.5 87q5 39 -17.5 64.5 t-60.5 25.5q-51 0 -90.5 -36.5t-44.5 -89.5q-5 -37 17.5 -62t60.5 -25zM411 761q65 0 115.5 48t56.5 115q7 52 -23.5 86t-83.5 34q-65 0 -114 -45t-57 -111q-7 -53 23.5 -90t82.5 -37z" />
<glyph horiz-adv-x="719" d="M537 1547q147 0 234.5 -98t62.5 -240q-18 -98 -100 -194l-376 -401h-222l288 298q-14 0 -21 1q-120 6 -195 95t-51 233q21 129 133.5 217.5t246.5 88.5zM656 1244q11 62 -21.5 98t-98.5 36q-74 0 -133 -50t-72 -123q-10 -63 22 -102.5t95 -39.5q80 0 137.5 50.5 t70.5 130.5z" />
<glyph horiz-adv-x="636" d="M16 -375l208 646h251l-311 -646h-148z" />
<glyph horiz-adv-x="636" d="M408 749q-68 0 -108 49t-27 117q8 52 53.5 90.5t99.5 38.5q67 0 107 -49t29 -116q-10 -54 -55.5 -92t-98.5 -38zM-18 -375l209 646h251l-311 -646h-149z" />
<glyph horiz-adv-x="636" d="M16 -375l208 646h251l-311 -646h-148z" />
<glyph horiz-adv-x="636" d="M408 749q-68 0 -108 49t-27 117q8 52 53.5 90.5t99.5 38.5q67 0 107 -49t29 -116q-10 -54 -55.5 -92t-98.5 -38zM-18 -375l209 646h251l-311 -646h-149z" />
<glyph horiz-adv-x="977" d="M393 109q-8 -42 -37 -74l-234 -410h-151l187 380q-32 22 -46.5 59t-7.5 81q8 53 53.5 91.5t99.5 38.5q67 0 107 -49t29 -117zM669 275q67 0 107 -49t29 -117q-8 -41 -35 -71l-236 -413h-151l187 380q-32 22 -46.5 59t-7.5 81q8 53 53.5 91.5t99.5 38.5z" />
<glyph horiz-adv-x="987" d="M165 890l312 646h149l-208 -646h-253zM576 890l312 646h149l-208 -646h-253z" />
<glyph horiz-adv-x="987" d="M209 890l208 646h253l-312 -646h-149zM620 890l208 646h253l-312 -646h-149z" />
<glyph horiz-adv-x="575" d="M165 890l312 646h148l-208 -646h-252z" />
<glyph horiz-adv-x="576" d="M209 890l208 646h253l-312 -646h-149z" />
<glyph horiz-adv-x="564" d="M43 -375l94 646h248l-197 -646h-145z" />
<glyph horiz-adv-x="987" d="M165 890l312 646h149l-208 -646h-253zM576 890l312 646h149l-208 -646h-253z" />
<glyph horiz-adv-x="987" d="M209 890l208 646h253l-312 -646h-149zM620 890l208 646h253l-312 -646h-149z" />
<glyph horiz-adv-x="576" d="M165 890l312 646h149l-208 -646h-253z" />
<glyph horiz-adv-x="576" d="M209 890l208 646h253l-312 -646h-149z" />
<glyph horiz-adv-x="564" d="M43 -375l94 646h248l-197 -646h-145z" />
<glyph d="M-374 967l228 321q-31 20 -44.5 60.5t0.5 96.5q19 46 66 79t94 33q64 0 102 -35.5t38 -87.5q0 -56 -39 -102l-280 -365h-165z" />
<glyph d="M-533 1074q-61 0 -98 45t-27 107q9 48 50.5 82t89.5 34q61 0 98.5 -45t26.5 -108q-9 -48 -50 -81.5t-90 -33.5zM-127 1074q-62 0 -99 44.5t-26 107.5q9 49 49.5 82.5t89.5 33.5q62 0 98.5 -44.5t26.5 -108.5q-9 -48 -49.5 -81.5t-89.5 -33.5z" />
<glyph d="M-199 1092q-103 0 -164.5 74.5t-43.5 176.5q16 88 91 151t165 63q101 0 160.5 -73.5t41.5 -176.5q-15 -89 -88.5 -152t-161.5 -63zM-201 1205q57 0 99 39.5t46 98.5q5 42 -23 73.5t-71 31.5q-55 0 -97 -42t-47 -99q-3 -45 23 -73.5t70 -28.5z" />
<glyph d="M-388 963l284 573h257l-387 -573h-154z" />
<glyph d="M-267 1606l-79 101l359 331l105 -139zM-308 1189q-164 0 -251.5 91t-58.5 244h160q-14 -89 26 -143.5t128 -54.5q100 0 160 58t75 140h160q-28 -164 -135 -249.5t-264 -85.5z" />
<glyph d="M-232 1610l-299 289l145 139l252 -331zM-308 1189q-164 0 -251.5 91t-58.5 244h160q-14 -89 26 -143.5t128 -54.5q100 0 160 58t75 140h160q-28 -164 -135 -249.5t-264 -85.5z" />
<glyph d="M-320 1591l22 181q166 29 178 131q4 33 -16 53t-55 20q-63 0 -119 -46l-74 131q92 64 194 64q110 0 173.5 -70t45.5 -178q-13 -66 -59.5 -117.5t-128.5 -73.5l-24 -95h-137zM-308 1189q-164 0 -251.5 91t-58.5 244h160q-14 -89 26 -143.5t128 -54.5q100 0 160 58t75 140 h160q-28 -164 -135 -249.5t-264 -85.5z" />
<glyph d="M-130 1596q-48 0 -83.5 17.5t-52 36.5t-34.5 50q-13 21 -21.5 31.5t-23 19t-32.5 8.5q-48 0 -82.5 -46.5t-47.5 -114.5l-137 17q23 129 93 209.5t175 80.5q43 0 76.5 -17t50 -36t36.5 -51q13 -20 21 -29.5t24.5 -19.5t37.5 -10q47 0 79 43t45 118l137 -18 q-24 -132 -92.5 -210.5t-168.5 -78.5zM-340 1189q-164 0 -251.5 91t-58.5 244h160q-14 -89 26 -143.5t128 -54.5q100 0 160 58t75 140h160q-28 -164 -135 -249.5t-264 -85.5z" />
<glyph d="M-175 1643l-79 101l359 331l105 -139zM-446 1170l-102 67l277 299h184l179 -299l-115 -67l-171 219z" />
<glyph d="M-96 1647l-298 289l145 139l251 -331zM-402 1170l-102 67l276 299h185l178 -299l-115 -67l-170 219z" />
<glyph d="M-213 1628l22 181q75 13 121.5 49t56.5 92q6 31 -10 50t-53 19q-64 0 -126 -52l-74 131q90 65 194 65q110 0 173 -70.5t44 -177.5q-11 -66 -57.5 -118t-129.5 -73l-25 -96h-136zM-431 1170l-102 67l276 299h185l178 -299l-115 -67l-170 219z" />
<glyph d="M-68 1633q-133 0 -180 131q-27 32 -54 32q-48 0 -83.5 -47t-47.5 -114l-146 17q23 131 93 210.5t169 79.5q70 0 115.5 -37t67.5 -94q2 -2 8 -7.5t8 -7.5t8 -6.5t10 -6t10.5 -3t13.5 -1.5q47 0 80 43t47 118l145 -17q-23 -130 -92 -210t-172 -80zM-505 1170l-102 67 l276 299h185l178 -299l-115 -67l-170 219z" />
</font>
</defs>
</svg>
