<?xml version="1.0" standalone="no"?>
<!DOCTYPE svg PUBLIC "-//W3C//DTD SVG 1.1//EN" "http://www.w3.org/Graphics/SVG/1.1/DTD/svg11.dtd" >
<svg xmlns="http://www.w3.org/2000/svg" xmlns:xlink="http://www.w3.org/1999/xlink" version="1.1">
<metadata></metadata>
<defs>
<font id="neue_hans_kendrickregular" horiz-adv-x="0" >
<font-face units-per-em="2048" ascent="1536" descent="-512" />
<missing-glyph horiz-adv-x="512" />
<glyph unicode="fi" horiz-adv-x="1141" d="M385 963h582v-963h-166v809h-416v-809h-168v809h-162v154h162v297q0 138 78 218.5t209 80.5q91 0 131 -29v-166q-49 37 -111 37q-63 0 -101 -44.5t-38 -117.5v-276zM885 1141q-47 0 -80 32t-33 78q0 47 33 79t80 32q45 0 77.5 -32t32.5 -79q0 -45 -32.5 -77.5 t-77.5 -32.5z" />
<glyph unicode="fl" horiz-adv-x="1163" d="M385 1239v-276h254v-154h-254v-809h-168v809h-162v154h162v297q0 138 78 218.5t209 80.5q91 0 131 -29v-166q-49 37 -111 37q-63 0 -101 -44.5t-38 -117.5zM821 1536h168v-1536h-168v1536z" />
<glyph unicode=" "  horiz-adv-x="512" />
<glyph unicode="&#x09;" horiz-adv-x="512" />
<glyph unicode="&#xa0;" horiz-adv-x="512" />
<glyph unicode="!" horiz-adv-x="635" d="M225 442v1094h168v-1094h-168zM309 -20q-46 0 -80 34t-34 80q0 48 34 81.5t80 33.5q47 0 81 -33.5t34 -81.5q0 -46 -34.5 -80t-80.5 -34z" />
<glyph unicode="&#x22;" horiz-adv-x="987" d="M242 893v643h159l2 -643h-161zM582 893l2 643h161v-643h-163z" />
<glyph unicode="#" horiz-adv-x="1489" d="M322 0l51 358h-289l16 127h289l72 478h-291l20 124h285l53 361h123l-49 -361h387l51 361h125l-51 -361h291l-21 -124h-286l-68 -478h287l-17 -127h-286l-56 -358h-122l51 358h-391l-50 -358h-124zM516 485h387l70 478h-389z" />
<glyph unicode="$" horiz-adv-x="1221" d="M1098 406q0 -174 -104.5 -283t-270.5 -135v-164h-166v159q-137 15 -255 79.5t-194 158.5l125 125q149 -211 381 -211q136 0 223 72.5t87 191.5q0 36 -11 68.5t-25.5 57t-44.5 49.5t-53.5 41t-66.5 37.5t-69.5 32.5t-76.5 32q-54 23 -84.5 36.5t-78.5 39t-76.5 47.5 t-62.5 56t-52.5 69.5t-31.5 84t-13 103.5q0 168 106.5 276.5t272.5 124.5v162h166v-171q190 -36 328 -197l-105 -109q-87 92 -163.5 127t-170.5 35q-112 0 -186 -63t-74 -173q0 -48 17.5 -88t42.5 -68t69 -55t80.5 -44t93.5 -40q159 -65 212 -94q159 -87 207 -220 q24 -67 24 -150z" />
<glyph unicode="%" horiz-adv-x="1569" d="M418 928q-131 0 -223.5 92.5t-92.5 224.5q0 129 92.5 220t223.5 91q129 0 220 -91t91 -220q0 -132 -91 -224.5t-220 -92.5zM223 0l938 1536h180l-933 -1536h-185zM418 1067q72 0 123 52t51 126q0 71 -51 122.5t-123 51.5q-74 0 -126 -51.5t-52 -122.5q0 -74 52 -126 t126 -52zM1155 -16q-130 0 -221.5 92t-91.5 223q0 129 92 220t221 91t221 -91t92 -220q0 -130 -92 -222.5t-221 -92.5zM1155 121q73 0 124.5 52t51.5 126q0 72 -52 123t-124 51q-73 0 -124.5 -51t-51.5 -123q0 -74 51.5 -126t124.5 -52z" />
<glyph unicode="&#x26;" horiz-adv-x="1456" d="M555 -25q-196 0 -319 124.5t-123 318.5q0 45 8.5 85.5t21 73t38.5 68t48.5 61.5t64.5 62.5t73.5 61t87.5 67.5q-85 98 -121.5 177t-36.5 159q0 139 93.5 231t238.5 92q146 0 240 -90t94 -225q0 -46 -14.5 -89t-33.5 -75t-59.5 -72.5t-70.5 -66.5t-87 -72l306 -395 l202 256l129 -102l-225 -283l264 -342l-219 -4l-164 215q-110 -113 -215.5 -174.5t-220.5 -61.5zM596 975q107 80 140 114q65 68 65 146q0 74 -50.5 120.5t-121.5 49.5q-78 3 -125 -45t-47 -129q0 -19 3.5 -37t6.5 -31.5t13.5 -32.5t15.5 -28t21.5 -31t22 -29t28 -33.5 t28.5 -33.5zM543 141q86 0 168.5 54t175.5 149l-328 426q-75 -56 -115 -88.5t-84 -78t-62.5 -90t-18.5 -95.5q0 -107 77 -192t187 -85z" />
<glyph unicode="'" horiz-adv-x="647" d="M242 893v643h164v-643h-164z" />
<glyph unicode="(" horiz-adv-x="625" d="M528 -461q-195 127 -307 410.5t-112 697.5q0 409 112.5 697t306.5 413l76 -102q-170 -118 -266 -374.5t-96 -633.5q0 -382 95.5 -634.5t266.5 -368.5z" />
<glyph unicode=")" horiz-adv-x="625" d="M97 -461l-76 105q171 116 266.5 368.5t95.5 634.5q0 377 -96 633.5t-266 374.5l76 102q194 -125 306.5 -413t112.5 -697q0 -414 -112 -697.5t-307 -410.5z" />
<glyph unicode="*" horiz-adv-x="961" d="M350 930l-82 49l160 238l-291 -13v94l291 -16l-160 242l82 45l131 -250l129 250l84 -45l-162 -242l291 16v-94l-291 13l162 -238l-84 -49l-129 252z" />
<glyph unicode="+" horiz-adv-x="1200" d="M520 188v408h-407v160h407v407h160v-407h407v-160h-407v-408h-160z" />
<glyph unicode="," horiz-adv-x="635" d="M461 94q0 -18 -4 -31l-150 -440h-125l110 371q-27 15 -44 41.5t-17 58.5q0 46 34.5 80.5t80.5 34.5t80.5 -34.5t34.5 -80.5z" />
<glyph unicode="-" horiz-adv-x="1044" d="M164 416v131h717v-131h-717z" />
<glyph unicode="." horiz-adv-x="635" d="M317 -20q-46 0 -80 33.5t-34 80.5q0 46 34 80.5t80 34.5q47 0 81 -34.5t34 -80.5q0 -47 -34 -80.5t-81 -33.5z" />
<glyph unicode="/" horiz-adv-x="1174" d="M-35 -348l1082 2048h161l-1079 -2048h-164z" />
<glyph unicode="0" horiz-adv-x="1270" d="M635 -20q-157 0 -283.5 102.5t-198 282.5t-71.5 403q0 225 67 403.5t193.5 281.5t292.5 103q165 0 291.5 -103t194 -281.5t67.5 -403.5q0 -222 -72 -403t-199 -283t-282 -102zM637 133q172 0 274.5 174t102.5 461q0 291 -106 452.5t-271 161.5q-166 0 -272.5 -161.5 t-106.5 -452.5q0 -288 102.5 -461.5t276.5 -173.5z" />
<glyph unicode="1" horiz-adv-x="1270" d="M612 0v1362h-317v174h491v-1536h-174z" />
<glyph unicode="2" horiz-adv-x="1270" d="M470 174h673v-174h-1045v16q206 211 351 374t230 273t132 198.5t61.5 144t14.5 116.5q0 124 -79.5 193t-197.5 69q-127 0 -202.5 -78.5t-75.5 -205.5l-189 2q0 203 137 331t341 126q193 -2 316.5 -118t123.5 -306q0 -89 -29.5 -183t-77.5 -181t-128 -191.5t-160.5 -194.5 t-195.5 -211z" />
<glyph unicode="3" horiz-adv-x="1270" d="M618 -20q-223 0 -374.5 124.5t-151.5 321.5l174 2q0 -130 99.5 -207.5t252.5 -77.5q157 0 255 81t98 220q0 140 -98 218.5t-255 78.5h-155v164h147q121 0 194 71.5t73 178.5q0 106 -72 172t-195 66q-119 0 -193.5 -63t-74.5 -163h-174q0 172 126.5 280.5t315.5 108.5 q188 0 314.5 -108.5t126.5 -282.5q0 -113 -57.5 -196.5t-162.5 -128.5q148 -45 231 -150.5t83 -253.5q0 -102 -41 -188t-112.5 -144.5t-168 -91t-205.5 -32.5z" />
<glyph unicode="4" horiz-adv-x="1270" d="M1231 487v-163h-273v-324h-174v324h-741v112l698 1100h217v-1049h273zM272 487h512v835z" />
<glyph unicode="5" horiz-adv-x="1270" d="M672 1022q213 0 352 -142t139 -364q0 -232 -152 -382t-382 -150q-96 0 -184 29t-160 83t-119.5 141t-56.5 195h184q16 -93 69.5 -158t122 -92.5t146.5 -27.5q149 0 245.5 100t96.5 254q0 155 -96 254.5t-236 99.5q-86 0 -167 -40.5t-134 -112.5h-182l139 827h799v-168 h-660l-78 -452q123 106 314 106z" />
<glyph unicode="6" horiz-adv-x="1270" d="M1171 528q6 -143 -62.5 -269t-191 -200.5t-266.5 -74.5q-226 0 -387 142.5t-170 356.5q-8 196 131 369l543 684h215l-449 -535q61 23 148 23q78 0 161.5 -35.5t155 -97t120 -157.5t52.5 -206zM649 154q159 0 260.5 109.5t91.5 262.5q-9 158 -114.5 254.5t-253.5 96.5 q-172 0 -274 -113.5t-93 -278.5q10 -151 115.5 -241t267.5 -90z" />
<glyph unicode="7" horiz-adv-x="1270" d="M111 1536h1065v-115l-795 -1421h-205l783 1370h-848v166z" />
<glyph unicode="8" horiz-adv-x="1270" d="M635 -20q-208 0 -350 134.5t-142 329.5q0 132 69.5 240t186.5 166q-83 48 -125.5 132t-42.5 192q0 162 116.5 272t289.5 110q171 0 287 -110t116 -272q0 -227 -168 -324q118 -58 187 -165.5t69 -240.5q0 -196 -142 -330t-351 -134zM637 905q101 0 171.5 70.5t70.5 171.5 q0 103 -70.5 173.5t-171.5 70.5q-103 0 -173.5 -70.5t-70.5 -173.5q0 -101 70.5 -171.5t173.5 -70.5zM635 133q133 0 225 95.5t92 228.5t-92 225t-225 92q-132 0 -224 -92t-92 -225t92.5 -228.5t223.5 -95.5z" />
<glyph unicode="9" horiz-adv-x="1270" d="M1161 1053q8 -196 -131 -369l-543 -684h-215l449 535q-61 -23 -148 -23q-78 0 -161.5 35.5t-155 97t-120 157.5t-52.5 206q-6 143 62.5 269t191 200.5t266.5 74.5q226 0 387 -142.5t170 -356.5zM622 659q172 0 274 113.5t93 278.5q-10 151 -115.5 241t-267.5 90 q-159 0 -260.5 -109.5t-91.5 -262.5q9 -158 114.5 -254.5t253.5 -96.5z" />
<glyph unicode=":" horiz-adv-x="621" d="M309 815q-46 0 -80 33.5t-34 81.5q0 46 34 80t80 34t80.5 -34t34.5 -80q0 -48 -34 -81.5t-81 -33.5zM309 -20q-46 0 -80 33.5t-34 80.5q0 46 34 80.5t80 34.5q47 0 81 -34.5t34 -80.5q0 -47 -34 -80.5t-81 -33.5z" />
<glyph unicode=";" horiz-adv-x="623" d="M324 815q-48 0 -81.5 33.5t-33.5 81.5q0 46 33.5 80t81.5 34q46 0 80 -34t34 -80q0 -48 -34 -81.5t-80 -33.5zM324 209q46 0 80 -34.5t34 -80.5q0 -18 -4 -31l-149 -440h-125l110 371q-27 15 -44 41.5t-17 58.5q0 46 34.5 80.5t80.5 34.5z" />
<glyph unicode="&#x3c;" horiz-adv-x="1360" d="M1225 1382v-176l-963 -485l963 -488v-180l-1131 572v190z" />
<glyph unicode="=" horiz-adv-x="1243" d="M260 805v160h723v-160h-723zM260 391v158h723v-158h-723z" />
<glyph unicode="&#x3e;" horiz-adv-x="1360" d="M135 1382l1131 -567v-190l-1131 -572v180l963 488l-963 485v176z" />
<glyph unicode="?" horiz-adv-x="1036" d="M430 430v129q0 77 20.5 133t53 87t72 55t79.5 46t72.5 49.5t53 76t20.5 116.5q0 120 -83 197.5t-212 77.5q-123 0 -204.5 -78t-86.5 -197h-152q2 182 128 302t315 120q193 0 318.5 -119.5t125.5 -302.5q0 -81 -20 -142.5t-52.5 -98.5t-71.5 -65.5t-78 -50.5t-71.5 -45.5 t-52.5 -59t-20 -82.5v-148h-154zM514 -20q-46 0 -80.5 33.5t-34.5 80.5q0 46 34.5 80.5t80.5 34.5q48 0 81.5 -34t33.5 -81t-33.5 -80.5t-81.5 -33.5z" />
<glyph unicode="@" horiz-adv-x="1755" d="M901 -229q-216 0 -389 92t-273 262.5t-100 390.5q0 211 102 384.5t279 271.5t391 98q112 0 215.5 -26t193 -79.5t155.5 -129.5t103.5 -181.5t37.5 -230.5q0 -232 -110 -361t-271 -129q-81 0 -128.5 42t-55.5 106h-4q-38 -60 -106.5 -103t-149.5 -43q-130 0 -206.5 88.5 t-76.5 233.5q0 118 49.5 221t140.5 166t203 63q77 0 134 -33.5t83 -87.5h4l21 95h123q-31 -165 -78 -398q-12 -55 -15 -94t3.5 -71t29 -48t60.5 -16q93 0 156 96t63 258q0 250 -158 394.5t-418 144.5q-182 0 -324.5 -81.5t-220 -225.5t-77.5 -326q0 -141 48.5 -258.5 t133 -196.5t199.5 -122t247 -43q300 0 508 178l76 -95q-235 -206 -598 -206zM819 262q59 0 106.5 29.5t75 76t43 97.5t17.5 102q3 95 -34 155t-126 60q-71 0 -126.5 -51t-83 -125.5t-27.5 -154.5q0 -33 7.5 -64t24 -60t48.5 -47t75 -18z" />
<glyph unicode="A" horiz-adv-x="1360" d="M1137 0l-96 246h-722l-96 -246h-194l651 1578l651 -1578h-194zM383 408h595l-297 760z" />
<glyph unicode="B" horiz-adv-x="1366" d="M981 782q128 -40 201 -138t73 -238q0 -177 -121.5 -291.5t-299.5 -114.5h-617v1536h543q179 0 302.5 -115.5t123.5 -294.5q0 -119 -53.5 -207.5t-151.5 -136.5zM1012 1112q0 109 -78.5 179.5t-192.5 70.5h-352v-510h352q113 0 192 74.5t79 185.5zM811 174q114 0 192 71.5 t78 180.5q0 110 -78.5 184t-191.5 74h-422v-510h422z" />
<glyph unicode="C" horiz-adv-x="1495" d="M885 -20q-162 0 -308 62t-251.5 167.5t-167.5 251.5t-62 307t62 307t167.5 251.5t251.5 167.5t308 62q148 0 300.5 -63.5t256.5 -167.5l-125 -123q-83 85 -198 132.5t-234 47.5q-169 0 -310 -81t-223 -222.5t-82 -310.5t82 -310.5t223 -222.5t310 -81q119 0 234 47.5 t198 132.5l125 -123q-104 -104 -256.5 -167.5t-300.5 -63.5z" />
<glyph unicode="D" horiz-adv-x="1501" d="M217 0v1536h424q209 0 385.5 -103t279.5 -279.5t103 -385.5t-103 -385.5t-279.5 -279.5t-385.5 -103h-424zM389 174h250q165 0 301.5 76.5t215.5 213t79 304.5t-79 304.5t-215.5 213t-301.5 76.5h-250v-1188z" />
<glyph unicode="E" horiz-adv-x="1165" d="M1061 1368h-670v-516h584v-168h-584v-516h670v-168h-844v1536h844v-168z" />
<glyph unicode="F" horiz-adv-x="1118" d="M1061 1368h-670v-516h584v-168h-584v-684h-174v1536h844v-168z" />
<glyph unicode="G" horiz-adv-x="1630" d="M870 809h613v-809h-154l-10 113q-98 -63 -211.5 -98t-222.5 -35q-162 0 -308 62t-251.5 167.5t-167.5 251.5t-62 307t62 307t167.5 251.5t251.5 167.5t308 62q148 0 300.5 -63.5t256.5 -167.5l-125 -123q-83 85 -198 132.5t-234 47.5q-169 0 -310 -81t-223 -222.5 t-82 -310.5t82 -310.5t223 -222.5t310 -81q116 0 228.5 45.5t195.5 126.5v319h-439v164z" />
<glyph unicode="H" horiz-adv-x="1616" d="M1225 1536h174v-1536h-174v682h-834v-682h-174v1536h174v-680h834v680z" />
<glyph unicode="I" horiz-adv-x="608" d="M217 0v1536h174v-1536h-174z" />
<glyph unicode="J" horiz-adv-x="1026" d="M332 -20q-175 0 -314 81l80 156q47 -32 115.5 -49.5t130.5 -17.5q148 0 234 98.5t86 243.5v1044h174v-1073q0 -212 -141.5 -347.5t-364.5 -135.5z" />
<glyph unicode="K" horiz-adv-x="1296" d="M1268 0h-221l-656 761v-761h-174v1536h174v-733l631 733h221l-649 -754z" />
<glyph unicode="L" horiz-adv-x="987" d="M391 174h567v-174h-741v1536h174v-1362z" />
<glyph unicode="M" horiz-adv-x="1866" d="M932 507l715 1113v-1620h-172v1052l-545 -855l-537 851v-1048h-174v1620z" />
<glyph unicode="N" horiz-adv-x="1575" d="M1358 1536v-1603l-967 1193v-1126h-174v1603l969 -1192v1125h172z" />
<glyph unicode="O" horiz-adv-x="1765" d="M883 -20q-215 0 -396.5 105.5t-287 286.5t-105.5 396t105.5 396t287 286.5t396.5 105.5q214 0 395.5 -105.5t287 -287t105.5 -395.5t-105.5 -395.5t-287 -287t-395.5 -105.5zM883 154q126 0 240 48t196 130t130 196t48 240t-48 240t-130 196t-196 130t-240 48 q-167 0 -308.5 -81.5t-224 -223t-82.5 -309.5t82.5 -309.5t224 -223t308.5 -81.5z" />
<glyph unicode="P" horiz-adv-x="1348" d="M854 1536q179 0 304.5 -126t125.5 -304q0 -180 -125 -303t-305 -123h-463v-680h-174v1536h637zM838 846q118 0 195 68.5t77 189.5q0 118 -78 191t-194 73h-447v-522h447z" />
<glyph unicode="Q" horiz-adv-x="1821" d="M1729 94l-117 -117l-203 204q-106 -95 -241.5 -148t-284.5 -53q-215 0 -396.5 105.5t-287 286.5t-105.5 396t105.5 396t287 286.5t396.5 105.5q214 0 395.5 -105.5t287 -287t105.5 -395.5q0 -260 -153 -467zM883 154q231 0 404 149l-167 168l111 111l162 -159 q104 154 104 345q0 126 -48 240t-130 196t-196 130t-240 48q-167 0 -308.5 -81.5t-224 -223t-82.5 -309.5t82.5 -309.5t224 -223t308.5 -81.5z" />
<glyph unicode="R" horiz-adv-x="1405" d="M1133 0l-366 680h-376v-680h-174v1536h637q179 0 304.5 -126t125.5 -304q0 -152 -92.5 -267t-237.5 -148l367 -691h-188zM391 1368v-522h447q118 0 195 68.5t77 189.5q0 118 -78 191t-194 73h-447z" />
<glyph unicode="S" horiz-adv-x="1135" d="M580 -20q-157 0 -294 67t-223 174l125 125q149 -211 381 -211q136 0 223 72.5t87 191.5q0 36 -11 68.5t-25.5 57t-44.5 49.5t-53.5 41t-66.5 37.5t-69.5 32.5t-76.5 32q-54 23 -84.5 36.5t-78.5 39t-76.5 47.5t-62.5 56t-52.5 69.5t-31.5 84t-13 103.5q0 182 123 292.5 t307 110.5q265 0 443 -208l-105 -109q-87 92 -163.5 127t-170.5 35q-112 0 -186 -63t-74 -173q0 -48 17.5 -88t42.5 -68t69 -55t80.5 -44t93.5 -40q159 -65 212 -94q159 -87 207 -220q24 -67 24 -150q0 -102 -38 -184t-103.5 -134t-150.5 -80t-181 -28z" />
<glyph unicode="T" horiz-adv-x="1075" d="M1047 1536v-174h-422v-1362h-174v1362h-422v174h1018z" />
<glyph unicode="U" horiz-adv-x="1526" d="M762 -20q-252 0 -416 148.5t-164 375.5v1032h174v-1004q0 -164 114.5 -271t291.5 -107q176 0 291.5 107t115.5 271v1004h174v-1032q0 -150 -74.5 -269.5t-207 -187t-299.5 -67.5z" />
<glyph unicode="V" horiz-adv-x="1360" d="M1139 1536h192l-651 -1580l-651 1580h192l460 -1174z" />
<glyph unicode="W" horiz-adv-x="1946" d="M1917 1536l-651 -1580l-293 710l-293 -711l-651 1581h188l469 -1180l202 516l-274 664h183l176 -447l176 447h182l-273 -663l204 -517l467 1180h188z" />
<glyph unicode="X" horiz-adv-x="1319" d="M1278 0h-211l-408 635l-407 -635h-211l523 779l-509 757h209l396 -611l395 611h209l-510 -756z" />
<glyph unicode="Y" horiz-adv-x="1270" d="M1257 1536l-534 -808v-728h-174v725l-537 811h217l407 -629l408 629h213z" />
<glyph unicode="Z" horiz-adv-x="1356" d="M1297 1536l-928 -1362h915v-174h-1245l928 1362h-844v174h1174z" />
<glyph unicode="[" horiz-adv-x="647" d="M209 -512v2294h412v-129h-265v-2036h265v-129h-412z" />
<glyph unicode="\" horiz-adv-x="1174" d="M1047 -348l-1082 2048h164l1079 -2048h-161z" />
<glyph unicode="]" horiz-adv-x="647" d="M438 -512h-412v129h265v2036h-265v129h412v-2294z" />
<glyph unicode="^" horiz-adv-x="1448" d="M1370 406h-145l-501 995l-501 -995h-145l569 1130h154z" />
<glyph unicode="_" horiz-adv-x="1491" d="M234 -182v131h1024v-131h-1024z" />
<glyph unicode="`" horiz-adv-x="487" d="M348 1143l-336 289l98 108l301 -326z" />
<glyph unicode="a" horiz-adv-x="1253" d="M913 963h168v-963h-168v137q-132 -155 -356 -155q-127 0 -238 66.5t-177 182t-66 250.5q0 136 66 251.5t177 182t238 66.5q224 0 356 -155v137zM580 145q139 0 236 98t97 238t-97 238t-236 98q-140 0 -238 -98t-98 -238t98 -238t238 -98z" />
<glyph unicode="b" horiz-adv-x="1255" d="M698 981q127 0 238 -66.5t177 -182t66 -251.5q0 -135 -66 -250.5t-177 -182t-238 -66.5q-224 0 -356 155v-137h-168v1536h168v-710q132 155 356 155zM675 145q140 0 238 98t98 238t-98 238t-238 98q-139 0 -236 -98t-97 -238t97 -238t236 -98z" />
<glyph unicode="c" horiz-adv-x="1098" d="M578 -18q-138 0 -254 66.5t-183 181t-67 251.5t67 252t183 181.5t254 66.5q151 0 274 -79.5t182 -211.5l-153 -69q-42 89 -121.5 142.5t-181.5 53.5q-144 0 -240 -96t-96 -240q0 -143 96 -239.5t240 -96.5q102 0 181.5 53.5t121.5 143.5l153 -70q-59 -132 -181.5 -211 t-274.5 -79z" />
<glyph unicode="d" horiz-adv-x="1255" d="M913 1536h168v-1536h-168v137q-132 -155 -356 -155q-127 0 -238 66.5t-177 182t-66 250.5q0 136 66 251.5t177 182t238 66.5q224 0 356 -155v710zM580 145q139 0 236 98t97 238t-97 238t-236 98q-140 0 -238 -98t-98 -238t98 -238t238 -98z" />
<glyph unicode="e" horiz-adv-x="1139" d="M1077 492v-33h-844q7 -137 107.5 -231.5t237.5 -94.5q90 0 167 43.5t125 118.5l142 -57q-63 -119 -178 -187.5t-254 -68.5q-140 0 -256 67t-182 181.5t-66 250.5q0 208 146 354t356 146q136 0 250.5 -64t181.5 -176.5t67 -248.5zM578 829q-115 0 -203.5 -64.5 t-123.5 -170.5h649q-33 105 -121 170t-201 65z" />
<glyph unicode="f" horiz-adv-x="647" d="M639 963v-154h-254v-809h-168v809h-162v154h162v297q0 138 78 218.5t209 80.5q91 0 131 -29v-166q-49 37 -111 37q-63 0 -101 -44.5t-38 -117.5v-276h254z" />
<glyph unicode="g" horiz-adv-x="1253" d="M909 963h170v-963q0 -137 -67.5 -252t-183.5 -181.5t-253 -66.5q-145 0 -266.5 76t-185.5 201l135 94q42 -93 127 -150t190 -57q139 0 236.5 98t97.5 238v125q-122 -143 -336 -143q-102 0 -194.5 39.5t-159 106t-106 159t-39.5 194.5q0 137 66.5 252t181.5 181.5 t251 66.5q214 0 336 -143v125zM578 145q138 0 235.5 99t97.5 237q0 140 -97.5 238t-235.5 98q-141 0 -238.5 -97.5t-97.5 -238.5q0 -139 97.5 -237.5t238.5 -98.5z" />
<glyph unicode="h" horiz-adv-x="1071" d="M575 981q145 0 247 -102t102 -246v-633h-168v621q0 85 -60 144.5t-145 59.5q-87 0 -147 -57t-62 -140v-628h-168v1536h168v-643q99 88 233 88z" />
<glyph unicode="i" horiz-adv-x="514" d="M258 1141q-46 0 -79.5 32.5t-33.5 77.5q0 47 33.5 79t79.5 32q45 0 78 -32t33 -79q0 -45 -33 -77.5t-78 -32.5zM174 0v963h166v-963h-166z" />
<glyph unicode="j" horiz-adv-x="514" d="M258 1141q-46 0 -79.5 32.5t-33.5 77.5q0 47 33.5 79t79.5 32q45 0 78 -32t33 -79q0 -45 -33 -77.5t-78 -32.5zM174 -481v1444h166v-1444h-166z" />
<glyph unicode="k" horiz-adv-x="1016" d="M1022 0h-227l-453 502v-502h-168v1536h168v-990l373 417h227l-407 -433z" />
<glyph unicode="l" horiz-adv-x="516" d="M174 0v1536h168v-1536h-168z" />
<glyph unicode="m" horiz-adv-x="1614" d="M1110 981q150 0 254 -107.5t104 -261.5v-612h-168v610q0 86 -57.5 146.5t-138.5 60.5q-83 0 -141 -60.5t-58 -148.5v-608h-168v610q0 86 -57.5 146.5t-140.5 60.5t-140 -60.5t-57 -148.5v-608h-168v963h168v-87q94 105 221 105q74 0 144 -38t120 -103q51 66 124.5 103.5 t158.5 37.5z" />
<glyph unicode="n" horiz-adv-x="1071" d="M575 981q145 0 247 -102t102 -246v-633h-168v621q0 85 -60 144.5t-145 59.5q-87 0 -147 -57t-62 -140v-628h-168v963h168v-69q100 87 233 87z" />
<glyph unicode="o" horiz-adv-x="1155" d="M578 -18q-210 0 -357 146t-147 353q0 208 147 354t357 146q137 0 252 -66.5t182 -182t67 -251.5q0 -207 -146.5 -353t-354.5 -146zM578 145q138 0 235.5 98.5t97.5 237.5q0 140 -97.5 238t-235.5 98q-141 0 -238.5 -97.5t-97.5 -238.5q0 -140 97.5 -238t238.5 -98z" />
<glyph unicode="p" horiz-adv-x="1255" d="M698 981q127 0 238 -66.5t177.5 -182t66.5 -251.5q0 -135 -66.5 -250.5t-177.5 -182t-238 -66.5q-224 0 -356 155v-629h-168v1455h168v-137q132 155 356 155zM676 145q140 0 238 98.5t98 237.5q0 140 -98 238t-238 98t-237 -98t-97 -238t97 -238t237 -98z" />
<glyph unicode="q" horiz-adv-x="1255" d="M913 963h168v-1455h-168v629q-132 -155 -356 -155q-127 0 -238 66.5t-177.5 182t-66.5 250.5q0 136 66.5 251.5t177.5 182t238 66.5q224 0 356 -155v137zM579 145q140 0 237 98t97 238t-97 238t-237 98t-238 -98t-98 -238q0 -139 98.5 -237.5t237.5 -98.5z" />
<glyph unicode="r" horiz-adv-x="721" d="M590 981q81 0 139 -37l-57 -143q-40 16 -78 16q-108 0 -180 -87.5t-72 -219.5v-510h-168v963h168v-150q84 168 248 168z" />
<glyph unicode="s" horiz-adv-x="874" d="M432 -18q-191 0 -362 124l94 138q52 -48 124.5 -79.5t151.5 -31.5q85 0 136 38t51 103q0 27 -10.5 49t-28 36.5t-43.5 26.5t-52.5 20.5t-59.5 17.5q-10 3 -15 4q-133 37 -186 66q-121 67 -121 204q0 132 99 207.5t247 75.5q83 0 163.5 -25t143.5 -69l-96 -129 q-107 76 -226 76q-80 0 -127 -32t-47 -87q0 -31 16.5 -54.5t48.5 -39t65.5 -26t81.5 -23.5q19 -4 28 -7q49 -13 83 -25t74 -34.5t64.5 -50t41.5 -71t17 -97.5q0 -143 -96.5 -224t-259.5 -81z" />
<glyph unicode="t" horiz-adv-x="633" d="M602 963v-154h-201v-809h-170v809h-202v154h202v346h170v-346h201z" />
<glyph unicode="u" horiz-adv-x="1032" d="M516 -18q-168 0 -268.5 99t-100.5 267v615h168v-596q0 -102 56 -162t145 -60q90 0 145.5 60t55.5 162v596h168v-615q0 -168 -100.5 -267t-268.5 -99z" />
<glyph unicode="v" horiz-adv-x="942" d="M758 963h180l-468 -1006l-466 1006h180l287 -658z" />
<glyph unicode="w" horiz-adv-x="1432" d="M1415 963l-389 -1015l-311 682l-311 -682l-388 1015h183l222 -608l294 661l296 -666l222 613h182z" />
<glyph unicode="x" horiz-adv-x="1047" d="M20 0l402 481l-402 482h203l299 -361l301 361h203l-401 -482l401 -481h-203l-299 360l-299 -360h-205z" />
<glyph unicode="y" horiz-adv-x="985" d="M782 963h189l-584 -1455h-178l194 492l-391 963h187l300 -773z" />
<glyph unicode="z" horiz-adv-x="936" d="M881 963l-534 -809h527v-154h-831l533 809h-496v154h801z" />
<glyph unicode="{" horiz-adv-x="586" d="M428 -512q-90 0 -150.5 75.5t-60.5 186.5v498q0 150 -28 217.5t-126 114.5v110q98 47 126 115t28 217v496q0 113 60 188.5t151 75.5h90v-121h-55q-61 0 -87 -45.5t-26 -134.5v-488q0 -128 -28 -213.5t-113 -144.5q85 -59 113 -144.5t28 -214.5v-489q0 -89 26 -132.5 t87 -43.5h55v-123h-90z" />
<glyph unicode="|" horiz-adv-x="637" d="M262 -307v1843h113v-1843h-113z" />
<glyph unicode="}" horiz-adv-x="586" d="M158 -512h-90v123h55q61 0 87 43.5t26 132.5v489q0 129 28 214.5t113 144.5q-85 59 -113 144.5t-28 213.5v488q0 89 -26 134.5t-87 45.5h-55v121h90q91 0 151 -75.5t60 -188.5v-496q0 -149 28 -217t126 -115v-110q-98 -47 -126 -114.5t-28 -217.5v-498 q0 -111 -60.5 -186.5t-150.5 -75.5z" />
<glyph unicode="~" horiz-adv-x="1417" d="M924 342q-51 0 -95.5 14t-82 43.5t-55.5 47t-48 51.5q-37 42 -67.5 61t-67.5 19q-74 0 -117 -62.5t-41 -153.5h-149q-10 162 76.5 263.5t232.5 101.5q81 0 138 -35.5t120 -111.5q36 -45 67.5 -68t75.5 -23q70 0 115 59t39 154h149q13 -153 -71 -256.5t-219 -103.5z" />
<glyph unicode="&#xa1;" horiz-adv-x="651" d="M325 1044q46 0 80.5 -34t34.5 -80q0 -48 -34 -81.5t-81 -33.5q-46 0 -80 33.5t-34 81.5q0 46 34 80t80 34zM241 582h168v-1094h-168v1094z" />
<glyph unicode="&#xa2;" horiz-adv-x="1223" d="M639 385q102 0 181.5 53.5t121.5 143.5l153 -70q-53 -118 -158 -194.5t-237 -91.5v-228h-108v226q-194 17 -325.5 159t-131.5 338t131.5 338.5t325.5 159.5v217h108v-219q132 -15 237 -92t158 -195l-153 -69q-42 89 -121.5 142.5t-181.5 53.5q-144 0 -240 -96t-96 -240 q0 -143 96 -239.5t240 -96.5z" />
<glyph unicode="&#xa3;" horiz-adv-x="1376" d="M500 672v-508h731v-164h-1073v152l164 8v512h-164v153h164v242q0 214 133.5 351.5t343.5 137.5q149 0 277.5 -94t172.5 -237l-170 -76q-16 98 -98 163.5t-182 65.5q-135 0 -217 -85.5t-82 -225.5v-242h381v-153h-381z" />
<glyph unicode="&#xa4;" horiz-adv-x="1389" d="M692 295q-147 0 -266 90l-104 -106l-93 98l105 102q-88 114 -88 264q0 154 88 265l-103 100l93 98l104 -106q118 92 268 92q145 0 262 -90l103 102l94 -92l-102 -102q90 -119 90 -267q0 -147 -90 -266l102 -100l-92 -98l-105 106q-117 -90 -266 -90zM692 426 q132 0 225 92.5t93 224.5q0 131 -93.5 223.5t-224.5 92.5q-132 0 -224.5 -94t-92.5 -226q0 -131 93 -222t224 -91z" />
<glyph unicode="&#xa5;" horiz-adv-x="1456" d="M647 0v281h-405v143h405v172h-405v143h395l-526 797h217l407 -629l408 629h213l-527 -797h398v-143h-406v-172h404v-143h-404v-281h-174z" />
<glyph unicode="&#xa6;" horiz-adv-x="637" d="M262 799v737h113v-737h-113zM262 -307v737h113v-737h-113z" />
<glyph unicode="&#xa7;" horiz-adv-x="1196" d="M612 -621q-127 5 -233.5 63t-171.5 146l139 111q42 -67 112 -104.5t156 -40.5q113 -4 188.5 50.5t78.5 159.5q2 58 -22 104.5t-65.5 80t-96.5 62.5t-115.5 56t-121 56t-115 68t-95.5 86t-64 115.5t-20 152.5q9 185 135 299q-170 120 -162 321q6 184 132.5 292t312.5 102 q127 -5 232.5 -62.5t170.5 -146.5l-139 -111q-43 67 -111.5 104.5t-154.5 40.5q-73 3 -131.5 -18.5t-96.5 -71t-41 -120.5q-2 -58 22 -104.5t65.5 -80t96.5 -62.5t115.5 -56t121 -56t115 -68t95.5 -86t64 -115.5t20 -152.5q-6 -188 -133 -299q165 -122 160 -321 q-6 -184 -132 -292t-311 -102zM727 190q58 30 92 82.5t35 120.5q1 36 -8 68.5t-22 57t-40.5 50t-47.5 41.5t-61 38t-64 33t-72 34t-70 33q-126 -65 -129 -203q-1 -32 4.5 -60.5t20.5 -53.5t29.5 -45t42 -40.5t47.5 -34.5t56.5 -32.5t59 -29.5t64.5 -30t63 -29z" />
<glyph unicode="&#xa8;" horiz-adv-x="877" d="M250 1141q-47 0 -81 33t-34 79q0 49 34 82t81 33t81 -33t34 -82q0 -45 -34.5 -78.5t-80.5 -33.5zM627 1141q-47 0 -81 33t-34 79q0 49 34 82t81 33q48 0 81 -33t33 -82q0 -46 -33.5 -79t-80.5 -33z" />
<glyph unicode="&#xa9;" horiz-adv-x="1847" d="M924 -20q-160 0 -306 62.5t-252 168t-168.5 251.5t-62.5 306t62.5 306t168.5 251.5t252 168t306 62.5t306 -62.5t251.5 -168t168 -251.5t62.5 -306t-62.5 -306t-168 -251.5t-251.5 -168t-306 -62.5zM924 80q142 0 270 54t220 146t146 219.5t54 268.5t-54 268.5 t-146 219.5t-220 146t-270 54q-188 0 -346.5 -91.5t-250 -250t-91.5 -346.5t91.5 -346.5t250 -250t346.5 -91.5zM926 330q-183 0 -311 127.5t-128 310.5t128 310.5t311 127.5q82 0 166 -35t143 -94l-70 -67q-46 47 -109.5 73.5t-129.5 26.5q-144 0 -243 -99t-99 -243 q0 -142 99.5 -241t242.5 -99q66 0 129.5 26.5t109.5 73.5l70 -69q-59 -59 -143 -94t-166 -35z" />
<glyph unicode="&#xaa;" horiz-adv-x="1018" d="M690 1536h115v-614h-115v119q-40 -62 -102.5 -97t-138.5 -35q-128 0 -219 93.5t-91 226.5q0 132 91 225.5t219 93.5q76 0 138.5 -35t102.5 -97v120zM471 1010q91 0 155 64t64 155q0 89 -64 152t-155 63t-154 -63t-63 -152q0 -91 63 -155t154 -64z" />
<glyph unicode="&#xab;" horiz-adv-x="967" d="M367 104l-312 377l312 377h143l-311 -377l311 -377h-143zM743 104l-311 377l311 377h148l-311 -377l311 -377h-148z" />
<glyph unicode="&#xac;" horiz-adv-x="1638" d="M1231 225v525h-1112v149h1259v-674h-147z" />
<glyph unicode="&#xad;" horiz-adv-x="1053" d="M168 403v145h717v-145h-717z" />
<glyph unicode="&#xae;" horiz-adv-x="1847" d="M924 1556q160 0 306 -62.5t251.5 -168t168 -251.5t62.5 -306t-62.5 -306t-168 -251.5t-251.5 -168t-306 -62.5t-306 62.5t-252 168t-168.5 251.5t-62.5 306t62.5 306t168.5 251.5t252 168t306 62.5zM924 80q142 0 270 54t220 146t146 219.5t54 268.5t-54 268.5 t-146 219.5t-220 146t-270 54q-188 0 -346.5 -91.5t-250 -250t-91.5 -346.5t91.5 -346.5t250 -250t346.5 -91.5zM1280 987q0 -88 -48 -157t-127 -100l206 -458h-121l-197 439h-237v-439h-113v992h358q117 0 198 -80.5t81 -196.5zM756 1155v-336h235q77 0 126.5 44.5 t49.5 121.5q0 75 -50.5 122.5t-125.5 47.5h-235z" />
<glyph unicode="&#xaf;" horiz-adv-x="967" d="M166 1233v115h635v-115h-635z" />
<glyph unicode="&#xb0;" horiz-adv-x="1018" d="M508 1085q-136 0 -233 97.5t-97 232.5q0 137 97 233.5t233 96.5q135 0 232.5 -97t97.5 -233q0 -135 -97.5 -232.5t-232.5 -97.5zM508 1176q100 0 170 69.5t70 169.5t-70 170t-170 70t-170 -70t-70 -170t70 -169.5t170 -69.5z" />
<glyph unicode="&#xb2;" horiz-adv-x="713" d="M297 766h346v-152h-604v86q182 193 275 307.5t118 164.5t25 95q0 68 -35.5 98.5t-85.5 30.5q-59 0 -91 -36t-32 -97h-166q0 131 80.5 209t210.5 78q124 0 201.5 -72t78.5 -196q2 -107 -67.5 -217.5t-253.5 -298.5z" />
<glyph unicode="&#xb3;" horiz-adv-x="707" d="M506 1132q65 -36 102 -97t37 -138q0 -124 -88.5 -209.5t-218.5 -85.5q-125 0 -212 77.5t-87 196.5l168 2q0 -51 39 -85t94 -34q60 0 99.5 41t39.5 101q0 59 -39 96t-98 37h-86v141h76q47 0 78.5 33t31.5 80q0 46 -31.5 75t-78.5 29q-45 0 -73 -26.5t-28 -67.5l-163 2 q0 110 75 179t189 69q110 0 186 -70.5t76 -171.5q0 -112 -88 -174z" />
<glyph unicode="&#xb4;" horiz-adv-x="496" d="M111 1143l-66 71l303 326l96 -108z" />
<glyph unicode="&#xb5;" horiz-adv-x="1196" d="M856 963h166v-963h-166v140q-54 -74 -134 -116t-173 -42q-143 0 -248 94v-557h-127v1444h168v-582q0 -104 74 -178t180 -74q107 0 183.5 74t76.5 178v582z" />
<glyph unicode="&#xb6;" horiz-adv-x="1161" d="M518 -307v1157h-65q-171 0 -268 89.5t-97 254.5t96.5 253.5t268.5 88.5h159v-1843h-94zM805 -307v1843h94v-1843h-94z" />
<glyph unicode="&#xb7;" horiz-adv-x="604" d="M301 645q-37 0 -64.5 26.5t-27.5 65.5q0 37 27.5 64.5t64.5 27.5t65.5 -27.5t28.5 -64.5q0 -39 -28 -65.5t-66 -26.5z" />
<glyph unicode="&#xb8;" horiz-adv-x="614" d="M313 -532q-71 0 -139.5 39t-97.5 96l92 37q22 -30 64 -51t81 -21q47 0 79 32.5t32 80.5q0 69 -58 94.5t-141 -6.5l-80 51l93 184h100l-66 -139q105 22 178.5 -32.5t73.5 -151.5q0 -89 -61 -151t-150 -62z" />
<glyph unicode="&#xb9;" horiz-adv-x="477" d="M172 614v770h-133v152h299v-922h-166z" />
<glyph unicode="&#xba;" horiz-adv-x="938" d="M467 909q-138 0 -235 93.5t-97 226.5q0 132 97 225.5t235 93.5q139 0 236.5 -93.5t97.5 -225.5q0 -134 -97.5 -227t-236.5 -93zM467 1010q91 0 155 64t64 155q0 89 -64 152t-155 63t-154 -63t-63 -152q0 -91 63 -155t154 -64z" />
<glyph unicode="&#xbb;" horiz-adv-x="967" d="M76 104l311 377l-311 377h143l311 -377l-311 -377h-143zM453 104l311 377l-311 377h147l311 -377l-311 -377h-147z" />
<glyph unicode="&#xbc;" horiz-adv-x="1667" d="M172 614v770h-133v152h299v-922h-166zM1179 1536h177l-1072 -1536h-176zM1593 346v-151h-84v-195h-166v195h-438v104l383 623h221v-576h84zM1105 346h238v406z" />
<glyph unicode="&#xbd;" horiz-adv-x="1700" d="M172 614v770h-133v152h299v-922h-166zM1179 1536h177l-1072 -1536h-176zM1284 152h346v-152h-604v86q182 193 275 307.5t118 164.5t25 95q0 68 -35.5 98.5t-85.5 30.5q-59 0 -91 -36t-32 -97h-166q0 131 80.5 209t210.5 78q124 0 201.5 -72t78.5 -196 q2 -107 -67.5 -217.5t-253.5 -298.5z" />
<glyph unicode="&#xbe;" horiz-adv-x="1897" d="M645 897q0 -124 -88.5 -209.5t-218.5 -85.5q-125 0 -212 77.5t-87 196.5l168 2q0 -51 39 -85t94 -34q60 0 99.5 41t39.5 101q0 59 -39 96t-98 37h-86v141h76q47 0 78.5 33t31.5 80q0 46 -31.5 75t-78.5 29q-45 0 -73 -26.5t-28 -67.5l-163 2q0 110 75 179t189 69 q110 0 186 -70.5t76 -171.5q0 -112 -88 -174q65 -36 102 -97t37 -138zM1409 1536h177l-1072 -1536h-176zM1823 346v-151h-84v-195h-166v195h-438v104l383 623h221v-576h84zM1335 346h238v406z" />
<glyph unicode="&#xbf;" horiz-adv-x="1034" d="M522 1046q46 0 80.5 -33.5t34.5 -80.5q0 -46 -34.5 -80.5t-80.5 -34.5q-48 0 -81.5 34t-33.5 81t33.5 80.5t81.5 33.5zM606 596v-129q0 -77 -20.5 -133t-53 -87t-72 -55t-79.5 -46t-72.5 -49.5t-53 -76t-20.5 -116.5q0 -120 83 -197.5t212 -77.5q123 0 204.5 78t86.5 197 h152q-2 -182 -128 -302t-315 -120q-193 0 -318.5 119.5t-125.5 302.5q0 81 20 142.5t52.5 98.5t71.5 65.5t78 50.5t71.5 45.5t52.5 59t20 82.5v148h154z" />
<glyph unicode="&#xc0;" horiz-adv-x="1360" d="M747 1726l-63 -71l-336 289l98 108zM1137 0l-96 246h-722l-96 -246h-194l651 1578l651 -1578h-194zM383 408h595l-297 760z" />
<glyph unicode="&#xc1;" horiz-adv-x="1360" d="M974 1944l-333 -289l-66 71l303 326zM1137 0l-96 246h-722l-96 -246h-194l651 1578l651 -1578h-194zM383 408h595l-297 760z" />
<glyph unicode="&#xc2;" horiz-adv-x="1360" d="M682 1896l-205 -237l-84 51l200 297h173l202 -297l-86 -51zM1137 0l-96 246h-722l-96 -246h-194l651 1578l651 -1578h-194zM383 408h595l-297 760z" />
<glyph unicode="&#xc3;" horiz-adv-x="1360" d="M547 1808q-47 0 -72.5 -45t-25.5 -114h-125q0 122 59.5 202t159.5 80q110 0 188 -112q12 -17 21 -27t26.5 -19.5t38.5 -9.5q97 0 97 160h123q0 -124 -58 -203.5t-162 -79.5q-112 0 -188 113q-36 55 -82 55zM1137 0l-96 246h-722l-96 -246h-194l651 1578l651 -1578h-194z M383 408h595l-297 760z" />
<glyph unicode="&#xc4;" horiz-adv-x="1360" d="M494 1652q-47 0 -81 33.5t-34 79.5q0 48 34 81.5t81 33.5q46 0 80.5 -33.5t34.5 -81.5q0 -46 -34.5 -79.5t-80.5 -33.5zM871 1652q-47 0 -81 33.5t-34 79.5q0 48 34 81.5t81 33.5t80.5 -33t33.5 -82q0 -47 -33.5 -80t-80.5 -33zM1137 0l-96 246h-722l-96 -246h-194 l651 1578l651 -1578h-194zM383 408h595l-297 760z" />
<glyph unicode="&#xc5;" horiz-adv-x="1360" d="M682 1673q-89 0 -153 63.5t-64 151.5q0 89 64 152t153 63q88 0 150.5 -63t62.5 -152q0 -88 -62.5 -151.5t-150.5 -63.5zM682 2015q-52 0 -87.5 -38t-35.5 -89q0 -54 35 -89.5t88 -35.5q51 0 87 36t36 89q0 51 -36.5 89t-86.5 38zM1137 0l-96 246h-722l-96 -246h-194 l651 1578l651 -1578h-194zM383 408h595l-297 760z" />
<glyph unicode="&#xc6;" horiz-adv-x="1810" d="M1702 1362h-672v-506h586v-174h-586v-508h672v-174h-842v365h-492l-143 -365h-196l616 1536h1057v-174zM433 530h427v856h-92z" />
<glyph unicode="&#xc7;" horiz-adv-x="1495" d="M1442 211q-100 -100 -243.5 -162.5t-286.5 -67.5l-55 -116q105 22 178.5 -32.5t73.5 -151.5q0 -89 -61 -151t-150 -62q-71 0 -139.5 39t-97.5 96l92 37q22 -30 64 -51t81 -21q47 0 79 32.5t32 80.5q0 69 -58 94.5t-141 -6.5l-80 51l82 163q-149 13 -282 80t-228 170.5 t-150.5 242.5t-55.5 292q0 161 62 307t167.5 251.5t251.5 167.5t308 62q148 0 300.5 -63.5t256.5 -167.5l-125 -123q-83 85 -198 132.5t-234 47.5q-169 0 -310 -81t-223 -222.5t-82 -310.5t82 -310.5t223 -222.5t310 -81q119 0 234 47.5t198 132.5z" />
<glyph unicode="&#xc8;" horiz-adv-x="1165" d="M704 1726l-63 -71l-336 289l98 108zM1061 1368h-670v-516h584v-168h-584v-516h670v-168h-844v1536h844v-168z" />
<glyph unicode="&#xc9;" horiz-adv-x="1165" d="M931 1944l-333 -289l-66 71l303 326zM1061 1368h-670v-516h584v-168h-584v-516h670v-168h-844v1536h844v-168z" />
<glyph unicode="&#xca;" horiz-adv-x="1165" d="M639 1896l-205 -237l-84 51l200 297h173l202 -297l-86 -51zM1061 1368h-670v-516h584v-168h-584v-516h670v-168h-844v1536h844v-168z" />
<glyph unicode="&#xcb;" horiz-adv-x="1165" d="M451 1652q-47 0 -81 33.5t-34 79.5q0 48 34 81.5t81 33.5q46 0 80.5 -33.5t34.5 -81.5q0 -46 -34.5 -79.5t-80.5 -33.5zM828 1652q-47 0 -81 33.5t-34 79.5q0 48 34 81.5t81 33.5q48 0 81 -33t33 -82q0 -47 -33.5 -80t-80.5 -33zM1061 1368h-670v-516h584v-168h-584v-516 h670v-168h-844v1536h844v-168z" />
<glyph unicode="&#xcc;" horiz-adv-x="608" d="M305 1655l-336 289l98 108l301 -326zM217 0v1536h174v-1536h-174z" />
<glyph unicode="&#xcd;" horiz-adv-x="608" d="M262 1655l-66 71l303 326l96 -108zM217 0v1536h174v-1536h-174z" />
<glyph unicode="&#xce;" horiz-adv-x="608" d="M98 1659l-84 51l200 297h173l202 -297l-86 -51l-200 237zM217 0v1536h174v-1536h-174z" />
<glyph unicode="&#xcf;" horiz-adv-x="608" d="M115 1652q-47 0 -81 33.5t-34 79.5q0 48 34 81.5t81 33.5q46 0 80.5 -33.5t34.5 -81.5q0 -46 -34.5 -79.5t-80.5 -33.5zM492 1652q-47 0 -81 33.5t-34 79.5q0 48 34 81.5t81 33.5q48 0 81 -33t33 -82q0 -47 -33.5 -80t-80.5 -33zM217 0v1536h174v-1536h-174z" />
<glyph unicode="&#xd0;" horiz-adv-x="1501" d="M641 1536q209 0 385.5 -103t279.5 -279.5t103 -385.5t-103 -385.5t-279.5 -279.5t-385.5 -103h-424v698h-158v119h158v719h424zM639 174q165 0 301.5 76.5t215.5 213t79 304.5t-79 304.5t-215.5 213t-301.5 76.5h-250v-545h272v-119h-272v-524h250z" />
<glyph unicode="&#xd1;" horiz-adv-x="1575" d="M651 1808q-47 0 -72.5 -45t-25.5 -114h-125q0 122 59.5 202t159.5 80q110 0 188 -112q12 -17 21 -27t26.5 -19.5t38.5 -9.5q97 0 97 160h123q0 -124 -58 -203.5t-162 -79.5q-112 0 -188 113q-36 55 -82 55zM1358 1536v-1603l-967 1193v-1126h-174v1603l969 -1192v1125 h172z" />
<glyph unicode="&#xd2;" horiz-adv-x="1765" d="M885 1655l-336 289l98 108l301 -326zM883 -20q-215 0 -396.5 105.5t-287 286.5t-105.5 396t105.5 396t287 286.5t396.5 105.5q214 0 395.5 -105.5t287 -287t105.5 -395.5t-105.5 -395.5t-287 -287t-395.5 -105.5zM883 154q126 0 240 48t196 130t130 196t48 240t-48 240 t-130 196t-196 130t-240 48q-167 0 -308.5 -81.5t-224 -223t-82.5 -309.5t82.5 -309.5t224 -223t308.5 -81.5z" />
<glyph unicode="&#xd3;" horiz-adv-x="1765" d="M842 1655l-66 71l303 326l96 -108zM883 -20q-215 0 -396.5 105.5t-287 286.5t-105.5 396t105.5 396t287 286.5t396.5 105.5q214 0 395.5 -105.5t287 -287t105.5 -395.5t-105.5 -395.5t-287 -287t-395.5 -105.5zM883 154q126 0 240 48t196 130t130 196t48 240t-48 240 t-130 196t-196 130t-240 48q-167 0 -308.5 -81.5t-224 -223t-82.5 -309.5t82.5 -309.5t224 -223t308.5 -81.5z" />
<glyph unicode="&#xd4;" horiz-adv-x="1765" d="M678 1659l-84 51l200 297h173l202 -297l-86 -51l-200 237zM883 -20q-215 0 -396.5 105.5t-287 286.5t-105.5 396t105.5 396t287 286.5t396.5 105.5q214 0 395.5 -105.5t287 -287t105.5 -395.5t-105.5 -395.5t-287 -287t-395.5 -105.5zM883 154q126 0 240 48t196 130 t130 196t48 240t-48 240t-130 196t-196 130t-240 48q-167 0 -308.5 -81.5t-224 -223t-82.5 -309.5t82.5 -309.5t224 -223t308.5 -81.5z" />
<glyph unicode="&#xd5;" horiz-adv-x="1765" d="M1018 1640q-112 0 -188 113q-36 55 -82 55q-47 0 -72.5 -45t-25.5 -114h-125q0 122 59.5 202t159.5 80q110 0 188 -112q12 -17 21 -27t26.5 -19.5t38.5 -9.5q97 0 97 160h123q0 -124 -58 -203.5t-162 -79.5zM883 -20q-215 0 -396.5 105.5t-287 286.5t-105.5 396 t105.5 396t287 286.5t396.5 105.5q214 0 395.5 -105.5t287 -287t105.5 -395.5t-105.5 -395.5t-287 -287t-395.5 -105.5zM883 154q126 0 240 48t196 130t130 196t48 240t-48 240t-130 196t-196 130t-240 48q-167 0 -308.5 -81.5t-224 -223t-82.5 -309.5t82.5 -309.5t224 -223 t308.5 -81.5z" />
<glyph unicode="&#xd6;" horiz-adv-x="1765" d="M695 1652q-47 0 -81 33.5t-34 79.5q0 48 34 81.5t81 33.5q46 0 80.5 -33.5t34.5 -81.5q0 -46 -34.5 -79.5t-80.5 -33.5zM1072 1652q-47 0 -81 33.5t-34 79.5q0 48 34 81.5t81 33.5q48 0 81 -33t33 -82q0 -47 -33.5 -80t-80.5 -33zM883 -20q-215 0 -396.5 105.5 t-287 286.5t-105.5 396t105.5 396t287 286.5t396.5 105.5q214 0 395.5 -105.5t287 -287t105.5 -395.5t-105.5 -395.5t-287 -287t-395.5 -105.5zM883 154q126 0 240 48t196 130t130 196t48 240t-48 240t-130 196t-196 130t-240 48q-167 0 -308.5 -81.5t-224 -223 t-82.5 -309.5t82.5 -309.5t224 -223t308.5 -81.5z" />
<glyph unicode="&#xd7;" horiz-adv-x="1065" d="M262 283l-110 112l268 269l-268 266l110 112l270 -266l269 266l112 -112l-270 -266l270 -269l-112 -112l-269 268z" />
<glyph unicode="&#xd8;" horiz-adv-x="1765" d="M1394 1368q130 -110 203.5 -266t73.5 -334q0 -214 -105.5 -395.5t-287 -287t-395.5 -105.5q-207 0 -387 101l-125 -179l-129 78l130 187q-130 110 -204 266.5t-74 334.5q0 215 105.5 396t287 286.5t396.5 105.5q209 0 388 -102l124 178l127 -80zM268 768 q0 -135 54 -253.5t150 -204.5l699 1001q-131 71 -288 71q-167 0 -308.5 -81.5t-224 -223t-82.5 -309.5zM883 154q126 0 240 48t196 130t130 196t48 240q0 135 -53.5 253.5t-149.5 204.5l-698 -1002q134 -70 287 -70z" />
<glyph unicode="&#xd9;" horiz-adv-x="1526" d="M764 1655l-336 289l98 108l301 -326zM762 -20q-252 0 -416 148.5t-164 375.5v1032h174v-1004q0 -164 114.5 -271t291.5 -107q176 0 291.5 107t115.5 271v1004h174v-1032q0 -150 -74.5 -269.5t-207 -187t-299.5 -67.5z" />
<glyph unicode="&#xda;" horiz-adv-x="1526" d="M721 1655l-66 71l303 326l96 -108zM762 -20q-252 0 -416 148.5t-164 375.5v1032h174v-1004q0 -164 114.5 -271t291.5 -107q176 0 291.5 107t115.5 271v1004h174v-1032q0 -150 -74.5 -269.5t-207 -187t-299.5 -67.5z" />
<glyph unicode="&#xdb;" horiz-adv-x="1526" d="M557 1659l-84 51l200 297h173l202 -297l-86 -51l-200 237zM762 -20q-252 0 -416 148.5t-164 375.5v1032h174v-1004q0 -164 114.5 -271t291.5 -107q176 0 291.5 107t115.5 271v1004h174v-1032q0 -150 -74.5 -269.5t-207 -187t-299.5 -67.5z" />
<glyph unicode="&#xdc;" horiz-adv-x="1526" d="M574 1652q-47 0 -81 33.5t-34 79.5q0 48 34 81.5t81 33.5q46 0 80.5 -33.5t34.5 -81.5q0 -46 -34.5 -79.5t-80.5 -33.5zM951 1652q-47 0 -81 33.5t-34 79.5q0 48 34 81.5t81 33.5t80.5 -33t33.5 -82q0 -47 -33.5 -80t-80.5 -33zM762 -20q-252 0 -416 148.5t-164 375.5 v1032h174v-1004q0 -164 114.5 -271t291.5 -107q176 0 291.5 107t115.5 271v1004h174v-1032q0 -150 -74.5 -269.5t-207 -187t-299.5 -67.5z" />
<glyph unicode="&#xdd;" horiz-adv-x="1270" d="M929 1944l-333 -289l-66 71l303 326zM1257 1536l-534 -808v-728h-174v725l-537 811h217l407 -629l408 629h213z" />
<glyph unicode="&#xde;" horiz-adv-x="1260" d="M770 1323q177 0 302.5 -126.5t125.5 -305.5q0 -177 -125.5 -300.5t-302.5 -123.5h-385v-467h-168v1528h168v-205h385zM756 635q117 0 192.5 72.5t75.5 187.5t-75.5 187.5t-192.5 72.5h-371v-520h371z" />
<glyph unicode="&#xdf;" horiz-adv-x="1290" d="M961 785q114 -54 181.5 -156.5t67.5 -229.5q0 -174 -116.5 -286.5t-284.5 -112.5h-172v174h143q110 0 185 62t75 172q0 118 -84.5 200t-205.5 82h-117v141h49q117 0 199 82.5t82 200.5q0 119 -84.5 195.5t-216.5 76.5q-138 0 -229 -82t-91 -206v-1098h-168v1098 q0 190 138.5 314t346.5 124q201 0 332 -118.5t131 -299.5q0 -101 -43 -187.5t-118 -145.5z" />
<glyph unicode="&#xe0;" horiz-adv-x="1253" d="M643 1153l-63 -71l-336 289l98 108zM913 963h168v-963h-168v137q-132 -155 -356 -155q-127 0 -238 66.5t-177 182t-66 250.5q0 136 66 251.5t177 182t238 66.5q224 0 356 -155v137zM580 145q139 0 236 98t97 238t-97 238t-236 98q-140 0 -238 -98t-98 -238t98 -238 t238 -98z" />
<glyph unicode="&#xe1;" horiz-adv-x="1253" d="M870 1371l-333 -289l-66 71l303 326zM913 963h168v-963h-168v137q-132 -155 -356 -155q-127 0 -238 66.5t-177 182t-66 250.5q0 136 66 251.5t177 182t238 66.5q224 0 356 -155v137zM580 145q139 0 236 98t97 238t-97 238t-236 98q-140 0 -238 -98t-98 -238t98 -238 t238 -98z" />
<glyph unicode="&#xe2;" horiz-adv-x="1253" d="M578 1323l-205 -237l-84 51l200 297h173l202 -297l-86 -51zM913 963h168v-963h-168v137q-132 -155 -356 -155q-127 0 -238 66.5t-177 182t-66 250.5q0 136 66 251.5t177 182t238 66.5q224 0 356 -155v137zM580 145q139 0 236 98t97 238t-97 238t-236 98q-140 0 -238 -98 t-98 -238t98 -238t238 -98z" />
<glyph unicode="&#xe3;" horiz-adv-x="1253" d="M443 1235q-47 0 -72.5 -45t-25.5 -114h-125q0 122 59.5 202t159.5 80q110 0 188 -112q12 -17 21 -27t26.5 -19.5t38.5 -9.5q97 0 97 160h123q0 -124 -58 -203.5t-162 -79.5q-112 0 -188 113q-36 55 -82 55zM913 963h168v-963h-168v137q-132 -155 -356 -155 q-127 0 -238 66.5t-177 182t-66 250.5q0 136 66 251.5t177 182t238 66.5q224 0 356 -155v137zM580 145q139 0 236 98t97 238t-97 238t-236 98q-140 0 -238 -98t-98 -238t98 -238t238 -98z" />
<glyph unicode="&#xe4;" horiz-adv-x="1253" d="M390 1141q-47 0 -81 33t-34 79q0 49 34 82t81 33t81 -33t34 -82q0 -45 -34.5 -78.5t-80.5 -33.5zM767 1141q-47 0 -81 33t-34 79q0 49 34 82t81 33q48 0 81 -33t33 -82q0 -46 -33.5 -79t-80.5 -33zM913 963h168v-963h-168v137q-132 -155 -356 -155q-127 0 -238 66.5 t-177 182t-66 250.5q0 136 66 251.5t177 182t238 66.5q224 0 356 -155v137zM580 145q139 0 236 98t97 238t-97 238t-236 98q-140 0 -238 -98t-98 -238t98 -238t238 -98z" />
<glyph unicode="&#xe5;" horiz-adv-x="1253" d="M598 1126q-89 0 -153 64t-64 151q0 89 64 152t153 63q88 0 150.5 -63t62.5 -152q0 -87 -63 -151t-150 -64zM598 1468q-51 0 -87 -37.5t-36 -89.5q0 -53 35.5 -88.5t87.5 -35.5q51 0 87 35.5t36 88.5q0 51 -36 89t-87 38zM913 963h168v-963h-168v137q-132 -155 -356 -155 q-127 0 -238 66.5t-177 182t-66 250.5q0 136 66 251.5t177 182t238 66.5q224 0 356 -155v137zM580 145q139 0 236 98t97 238t-97 238t-236 98q-140 0 -238 -98t-98 -238t98 -238t238 -98z" />
<glyph unicode="&#xe6;" horiz-adv-x="1798" d="M1736 492v-33h-844q7 -137 107.5 -231.5t237.5 -94.5q90 0 167 43.5t125 118.5l142 -57q-63 -119 -178 -187.5t-254 -68.5q-119 0 -221.5 49.5t-172.5 135.5q-96 -87 -204 -136t-209 -49q-155 0 -251.5 84.5t-96.5 222.5q0 303 498 303h153v37q0 95 -63.5 156t-161.5 61 q-77 0 -139 -39t-80 -100l-164 53q37 99 143 160t242 61q115 0 205.5 -45.5t139.5 -125.5q70 80 168.5 125.5t211.5 45.5q136 0 250.5 -64t181.5 -176.5t67 -248.5zM1237 829q-115 0 -203.5 -64.5t-123.5 -170.5h649q-33 105 -121 170t-201 65zM438 129q78 0 166 47t163 128 q-25 64 -31 140h-224q-260 0 -260 -159q0 -73 50 -114.5t136 -41.5z" />
<glyph unicode="&#xe7;" horiz-adv-x="1098" d="M578 145q102 0 181.5 53.5t121.5 143.5l153 -70q-54 -122 -163.5 -199t-247.5 -89l-56 -119q105 22 178.5 -32.5t73.5 -151.5q0 -89 -61 -151t-150 -62q-71 0 -139.5 39t-97.5 96l92 37q22 -30 64 -51t81 -21q47 0 79 32.5t32 80.5q0 69 -58 94.5t-141 -6.5l-80 51 l83 165q-191 20 -320 161t-129 335q0 137 67 252t183 181.5t254 66.5q151 0 274 -79.5t182 -211.5l-153 -69q-42 89 -121.5 142.5t-181.5 53.5q-144 0 -240 -96t-96 -240q0 -143 96 -239.5t240 -96.5z" />
<glyph unicode="&#xe8;" horiz-adv-x="1139" d="M653 1163l-63 -71l-336 289l98 108zM1077 492v-33h-844q7 -137 107.5 -231.5t237.5 -94.5q90 0 167 43.5t125 118.5l142 -57q-63 -119 -178 -187.5t-254 -68.5q-140 0 -256 67t-182 181.5t-66 250.5q0 208 146 354t356 146q136 0 250.5 -64t181.5 -176.5t67 -248.5z M578 829q-115 0 -203.5 -64.5t-123.5 -170.5h649q-33 105 -121 170t-201 65z" />
<glyph unicode="&#xe9;" horiz-adv-x="1139" d="M880 1381l-333 -289l-66 71l303 326zM1077 492v-33h-844q7 -137 107.5 -231.5t237.5 -94.5q90 0 167 43.5t125 118.5l142 -57q-63 -119 -178 -187.5t-254 -68.5q-140 0 -256 67t-182 181.5t-66 250.5q0 208 146 354t356 146q136 0 250.5 -64t181.5 -176.5t67 -248.5z M578 829q-115 0 -203.5 -64.5t-123.5 -170.5h649q-33 105 -121 170t-201 65z" />
<glyph unicode="&#xea;" horiz-adv-x="1139" d="M588 1333l-205 -237l-84 51l200 297h173l202 -297l-86 -51zM1077 492v-33h-844q7 -137 107.5 -231.5t237.5 -94.5q90 0 167 43.5t125 118.5l142 -57q-63 -119 -178 -187.5t-254 -68.5q-140 0 -256 67t-182 181.5t-66 250.5q0 208 146 354t356 146q136 0 250.5 -64 t181.5 -176.5t67 -248.5zM578 829q-115 0 -203.5 -64.5t-123.5 -170.5h649q-33 105 -121 170t-201 65z" />
<glyph unicode="&#xeb;" horiz-adv-x="1139" d="M400 1151q-47 0 -81 33t-34 79q0 49 34 82t81 33t81 -33t34 -82q0 -45 -34.5 -78.5t-80.5 -33.5zM777 1151q-47 0 -81 33t-34 79q0 49 34 82t81 33q48 0 81 -33t33 -82q0 -46 -33.5 -79t-80.5 -33zM1077 492v-33h-844q7 -137 107.5 -231.5t237.5 -94.5q90 0 167 43.5 t125 118.5l142 -57q-63 -119 -178 -187.5t-254 -68.5q-140 0 -256 67t-182 181.5t-66 250.5q0 208 146 354t356 146q136 0 250.5 -64t181.5 -176.5t67 -248.5zM578 829q-115 0 -203.5 -64.5t-123.5 -170.5h649q-33 105 -121 170t-201 65z" />
<glyph unicode="&#xec;" horiz-adv-x="516" d="M260 1082l-336 289l98 108l301 -326zM174 0v963h168v-963h-168z" />
<glyph unicode="&#xed;" horiz-adv-x="516" d="M217 1082l-66 71l303 326l96 -108zM174 0v963h168v-963h-168z" />
<glyph unicode="&#xee;" horiz-adv-x="516" d="M53 1086l-84 51l200 297h173l202 -297l-86 -51l-200 237zM174 0v963h168v-963h-168z" />
<glyph unicode="&#xef;" horiz-adv-x="516" d="M70 1141q-47 0 -81 33t-34 79q0 49 34 82t81 33t81 -33t34 -82q0 -45 -34.5 -78.5t-80.5 -33.5zM447 1141q-47 0 -81 33t-34 79q0 49 34 82t81 33q48 0 81 -33t33 -82q0 -46 -33.5 -79t-80.5 -33zM174 0v963h168v-963h-168z" />
<glyph unicode="&#xf0;" horiz-adv-x="1217" d="M1106 465v-2q0 -215 -148 -348t-368 -133q-106 0 -202 39.5t-165 106t-110 159t-41 194.5t41 194.5t110 159.5t165 106.5t202 39.5q171 0 308 -107q-70 220 -223 343l-106 -136l-77 60l104 130q-130 74 -289 77l27 122q182 0 341 -99l89 112l74 -58l-86 -109 q164 -134 259 -357.5t95 -493.5zM590 127q145 0 247.5 103.5t102.5 250.5q0 148 -102 251.5t-248 103.5q-149 0 -251.5 -103.5t-102.5 -251.5t102.5 -251t251.5 -103z" />
<glyph unicode="&#xf1;" horiz-adv-x="1071" d="M416 1235q-47 0 -72.5 -45t-25.5 -114h-125q0 122 59.5 202t159.5 80q110 0 188 -112q12 -17 21 -27t26.5 -19.5t38.5 -9.5q97 0 97 160h123q0 -124 -58 -203.5t-162 -79.5q-112 0 -188 113q-36 55 -82 55zM575 981q145 0 247 -102t102 -246v-633h-168v621 q0 85 -60 144.5t-145 59.5q-87 0 -147 -57t-62 -140v-628h-168v963h168v-69q100 87 233 87z" />
<glyph unicode="&#xf2;" horiz-adv-x="1155" d="M580 1082l-336 289l98 108l301 -326zM578 -18q-210 0 -357 146t-147 353q0 208 147 354t357 146q137 0 252 -66.5t182 -182t67 -251.5q0 -207 -146.5 -353t-354.5 -146zM578 145q138 0 235.5 98.5t97.5 237.5q0 140 -97.5 238t-235.5 98q-141 0 -238.5 -97.5 t-97.5 -238.5q0 -140 97.5 -238t238.5 -98z" />
<glyph unicode="&#xf3;" horiz-adv-x="1155" d="M537 1082l-66 71l303 326l96 -108zM578 -18q-210 0 -357 146t-147 353q0 208 147 354t357 146q137 0 252 -66.5t182 -182t67 -251.5q0 -207 -146.5 -353t-354.5 -146zM578 145q138 0 235.5 98.5t97.5 237.5q0 140 -97.5 238t-235.5 98q-141 0 -238.5 -97.5t-97.5 -238.5 q0 -140 97.5 -238t238.5 -98z" />
<glyph unicode="&#xf4;" horiz-adv-x="1155" d="M373 1086l-84 51l200 297h173l202 -297l-86 -51l-200 237zM578 -18q-210 0 -357 146t-147 353q0 208 147 354t357 146q137 0 252 -66.5t182 -182t67 -251.5q0 -207 -146.5 -353t-354.5 -146zM578 145q138 0 235.5 98.5t97.5 237.5q0 140 -97.5 238t-235.5 98 q-141 0 -238.5 -97.5t-97.5 -238.5q0 -140 97.5 -238t238.5 -98z" />
<glyph unicode="&#xf5;" horiz-adv-x="1155" d="M713 1067q-112 0 -188 113q-36 55 -82 55q-47 0 -72.5 -45t-25.5 -114h-125q0 122 59.5 202t159.5 80q110 0 188 -112q12 -17 21 -27t26.5 -19.5t38.5 -9.5q97 0 97 160h123q0 -124 -58 -203.5t-162 -79.5zM578 -18q-210 0 -357 146t-147 353q0 208 147 354t357 146 q137 0 252 -66.5t182 -182t67 -251.5q0 -207 -146.5 -353t-354.5 -146zM578 145q138 0 235.5 98.5t97.5 237.5q0 140 -97.5 238t-235.5 98q-141 0 -238.5 -97.5t-97.5 -238.5q0 -140 97.5 -238t238.5 -98z" />
<glyph unicode="&#xf6;" horiz-adv-x="1155" d="M390 1141q-47 0 -81 33t-34 79q0 49 34 82t81 33t81 -33t34 -82q0 -45 -34.5 -78.5t-80.5 -33.5zM767 1141q-47 0 -81 33t-34 79q0 49 34 82t81 33q48 0 81 -33t33 -82q0 -46 -33.5 -79t-80.5 -33zM578 -18q-210 0 -357 146t-147 353q0 208 147 354t357 146 q137 0 252 -66.5t182 -182t67 -251.5q0 -207 -146.5 -353t-354.5 -146zM578 145q138 0 235.5 98.5t97.5 237.5q0 140 -97.5 238t-235.5 98q-141 0 -238.5 -97.5t-97.5 -238.5q0 -140 97.5 -238t238.5 -98z" />
<glyph unicode="&#xf7;" horiz-adv-x="952" d="M473 913q-48 0 -83.5 34.5t-35.5 84.5q0 49 35.5 85t83.5 36q50 0 86.5 -36t36.5 -85q0 -50 -36.5 -84.5t-86.5 -34.5zM115 596v160h723v-160h-723zM473 199q-48 0 -83.5 34.5t-35.5 85.5q0 48 36 83.5t83 35.5q50 0 86.5 -35.5t36.5 -83.5q0 -51 -36.5 -85.5 t-86.5 -34.5z" />
<glyph unicode="&#xf8;" horiz-adv-x="1155" d="M906 860q81 -70 127 -168.5t46 -210.5q0 -207 -146.5 -353t-354.5 -146q-130 0 -243 61l-105 -151l-88 53l109 156q-83 69 -130 168t-47 212q0 208 147 354t357 146q130 0 244 -62l104 149l87 -54zM242 481q0 -146 104 -244l380 545q-70 35 -148 35q-141 0 -238.5 -97.5 t-97.5 -238.5zM578 145q138 0 235.5 98.5t97.5 237.5q0 143 -101 242l-380 -545q69 -33 148 -33z" />
<glyph unicode="&#xf9;" horiz-adv-x="1032" d="M518 1082l-336 289l98 108l301 -326zM516 -18q-168 0 -268.5 99t-100.5 267v615h168v-596q0 -102 56 -162t145 -60q90 0 145.5 60t55.5 162v596h168v-615q0 -168 -100.5 -267t-268.5 -99z" />
<glyph unicode="&#xfa;" horiz-adv-x="1032" d="M475 1082l-66 71l303 326l96 -108zM516 -18q-168 0 -268.5 99t-100.5 267v615h168v-596q0 -102 56 -162t145 -60q90 0 145.5 60t55.5 162v596h168v-615q0 -168 -100.5 -267t-268.5 -99z" />
<glyph unicode="&#xfb;" horiz-adv-x="1032" d="M311 1086l-84 51l200 297h173l202 -297l-86 -51l-200 237zM516 -18q-168 0 -268.5 99t-100.5 267v615h168v-596q0 -102 56 -162t145 -60q90 0 145.5 60t55.5 162v596h168v-615q0 -168 -100.5 -267t-268.5 -99z" />
<glyph unicode="&#xfc;" horiz-adv-x="1032" d="M328 1141q-47 0 -81 33t-34 79q0 49 34 82t81 33t81 -33t34 -82q0 -45 -34.5 -78.5t-80.5 -33.5zM705 1141q-47 0 -81 33t-34 79q0 49 34 82t81 33q48 0 81 -33t33 -82q0 -46 -33.5 -79t-80.5 -33zM516 -18q-168 0 -268.5 99t-100.5 267v615h168v-596q0 -102 56 -162 t145 -60q90 0 145.5 60t55.5 162v596h168v-615q0 -168 -100.5 -267t-268.5 -99z" />
<glyph unicode="&#xfd;" horiz-adv-x="985" d="M773 1371l-333 -289l-66 71l303 326zM782 963h189l-584 -1455h-178l194 492l-391 963h187l300 -773z" />
<glyph unicode="&#xfe;" horiz-adv-x="1247" d="M690 981q127 0 238 -66.5t177 -182t66 -251.5q0 -135 -66 -250.5t-177 -182t-238 -66.5q-211 0 -346 143v-606h-168v2017h168v-699q134 144 346 144zM670 145q138 0 236 98.5t98 237.5q0 140 -98 238t-236 98q-140 0 -238 -98t-98 -238t98 -238t238 -98z" />
<glyph unicode="&#xff;" horiz-adv-x="985" d="M293 1141q-47 0 -81 33t-34 79q0 49 34 82t81 33t81 -33t34 -82q0 -45 -34.5 -78.5t-80.5 -33.5zM670 1141q-47 0 -81 33t-34 79q0 49 34 82t81 33q48 0 81 -33t33 -82q0 -46 -33.5 -79t-80.5 -33zM782 963h189l-584 -1455h-178l194 492l-391 963h187l300 -773z" />
<glyph unicode="&#x100;" horiz-adv-x="1360" d="M1000 1860v-115h-635v115h635zM1137 0l-96 246h-722l-96 -246h-194l651 1578l651 -1578h-194zM383 408h595l-297 760z" />
<glyph unicode="&#x101;" horiz-adv-x="1253" d="M896 1287v-115h-635v115h635zM913 963h168v-963h-168v137q-132 -155 -356 -155q-127 0 -238 66.5t-177 182t-66 250.5q0 136 66 251.5t177 182t238 66.5q224 0 356 -155v137zM580 145q139 0 236 98t97 238t-97 238t-236 98q-140 0 -238 -98t-98 -238t98 -238t238 -98z " />
<glyph unicode="&#x102;" horiz-adv-x="1360" d="M680 1712q-148 0 -243 86t-95 230h136q0 -91 52.5 -150t149.5 -59q99 0 152 59t53 150h135q0 -144 -95 -230t-245 -86zM1137 0l-96 246h-722l-96 -246h-194l651 1578l651 -1578h-194zM383 408h595l-297 760z" />
<glyph unicode="&#x103;" horiz-adv-x="1253" d="M576 1139q-148 0 -243 86t-95 230h136q0 -91 52.5 -150t149.5 -59q99 0 152 59t53 150h135q0 -144 -95 -230t-245 -86zM913 963h168v-963h-168v137q-132 -155 -356 -155q-127 0 -238 66.5t-177 182t-66 250.5q0 136 66 251.5t177 182t238 66.5q224 0 356 -155v137z M580 145q139 0 236 98t97 238t-97 238t-236 98q-140 0 -238 -98t-98 -238t98 -238t238 -98z" />
<glyph unicode="&#x104;" horiz-adv-x="1360" d="M1372 -311l82 -115q-112 -112 -277 -104q-105 5 -167 60t-62 151q0 172 215 319h-26l-96 246h-722l-96 -246h-194l651 1578l651 -1578q-114 -48 -189 -122.5t-75 -158.5q0 -55 33 -82.5t86 -27.5q47 0 98 21.5t88 58.5zM383 408h595l-297 760z" />
<glyph unicode="&#x105;" horiz-adv-x="1253" d="M1122 -311l82 -115q-112 -112 -277 -104q-105 5 -167 60t-62 151q0 172 215 319v137q-132 -155 -356 -155q-127 0 -238 66.5t-177 182t-66 250.5q0 136 66 251.5t177 182t238 66.5q224 0 356 -155v137h168v-963q-114 -48 -189 -122.5t-75 -158.5q0 -55 33 -82.5t86 -27.5 q47 0 98 21.5t88 58.5zM580 145q139 0 236 98t97 238t-97 238t-236 98q-140 0 -238 -98t-98 -238t98 -238t238 -98z" />
<glyph unicode="&#x106;" horiz-adv-x="1495" d="M844 1655l-66 71l303 326l96 -108zM885 -20q-162 0 -308 62t-251.5 167.5t-167.5 251.5t-62 307t62 307t167.5 251.5t251.5 167.5t308 62q148 0 300.5 -63.5t256.5 -167.5l-125 -123q-83 85 -198 132.5t-234 47.5q-169 0 -310 -81t-223 -222.5t-82 -310.5t82 -310.5 t223 -222.5t310 -81q119 0 234 47.5t198 132.5l125 -123q-104 -104 -256.5 -167.5t-300.5 -63.5z" />
<glyph unicode="&#x107;" horiz-adv-x="1098" d="M537 1082l-66 71l303 326l96 -108zM578 -18q-138 0 -254 66.5t-183 181t-67 251.5t67 252t183 181.5t254 66.5q151 0 274 -79.5t182 -211.5l-153 -69q-42 89 -121.5 142.5t-181.5 53.5q-144 0 -240 -96t-96 -240q0 -143 96 -239.5t240 -96.5q102 0 181.5 53.5 t121.5 143.5l153 -70q-59 -132 -181.5 -211t-274.5 -79z" />
<glyph unicode="&#x10a;" horiz-adv-x="1495" d="M885 1706q-47 0 -81 33.5t-34 79.5q0 49 34 82t81 33t81 -33t34 -82q0 -46 -34.5 -79.5t-80.5 -33.5zM885 -20q-162 0 -308 62t-251.5 167.5t-167.5 251.5t-62 307t62 307t167.5 251.5t251.5 167.5t308 62q148 0 300.5 -63.5t256.5 -167.5l-125 -123q-83 85 -198 132.5 t-234 47.5q-169 0 -310 -81t-223 -222.5t-82 -310.5t82 -310.5t223 -222.5t310 -81q119 0 234 47.5t198 132.5l125 -123q-104 -104 -256.5 -167.5t-300.5 -63.5z" />
<glyph unicode="&#x10b;" horiz-adv-x="1098" d="M578 1133q-47 0 -81 33.5t-34 79.5q0 49 34 82t81 33t81 -33t34 -82q0 -46 -34.5 -79.5t-80.5 -33.5zM578 -18q-138 0 -254 66.5t-183 181t-67 251.5t67 252t183 181.5t254 66.5q151 0 274 -79.5t182 -211.5l-153 -69q-42 89 -121.5 142.5t-181.5 53.5q-144 0 -240 -96 t-96 -240q0 -143 96 -239.5t240 -96.5q102 0 181.5 53.5t121.5 143.5l153 -70q-59 -132 -181.5 -211t-274.5 -79z" />
<glyph unicode="&#x10c;" horiz-adv-x="1495" d="M796 1698l-200 297l88 53l201 -240l198 240l88 -53l-202 -297h-173zM885 -20q-162 0 -308 62t-251.5 167.5t-167.5 251.5t-62 307t62 307t167.5 251.5t251.5 167.5t308 62q148 0 300.5 -63.5t256.5 -167.5l-125 -123q-83 85 -198 132.5t-234 47.5q-169 0 -310 -81 t-223 -222.5t-82 -310.5t82 -310.5t223 -222.5t310 -81q119 0 234 47.5t198 132.5l125 -123q-104 -104 -256.5 -167.5t-300.5 -63.5z" />
<glyph unicode="&#x10d;" horiz-adv-x="1098" d="M489 1125l-200 297l88 53l201 -240l198 240l88 -53l-202 -297h-173zM578 -18q-138 0 -254 66.5t-183 181t-67 251.5t67 252t183 181.5t254 66.5q151 0 274 -79.5t182 -211.5l-153 -69q-42 89 -121.5 142.5t-181.5 53.5q-144 0 -240 -96t-96 -240q0 -143 96 -239.5 t240 -96.5q102 0 181.5 53.5t121.5 143.5l153 -70q-59 -132 -181.5 -211t-274.5 -79z" />
<glyph unicode="&#x10e;" horiz-adv-x="1501" d="M550 1698l-200 297l88 53l201 -240l198 240l88 -53l-202 -297h-173zM217 0v1536h424q209 0 385.5 -103t279.5 -279.5t103 -385.5t-103 -385.5t-279.5 -279.5t-385.5 -103h-424zM389 174h250q165 0 301.5 76.5t215.5 213t79 304.5t-79 304.5t-215.5 213t-301.5 76.5h-250 v-1188z" />
<glyph unicode="&#x10f;" horiz-adv-x="1255" d="M1466 1411l-1 -3l-3 -7l-146 -430h-125l110 370q-27 15 -43.5 42t-16.5 59q0 46 34 80t80 34t80.5 -34t34.5 -80q0 -18 -4 -31zM913 826v710h168v-1536h-168v137q-132 -155 -356 -155q-127 0 -238 66.5t-177 182t-66 250.5q0 136 66 251.5t177 182t238 66.5 q224 0 356 -155zM580 145q139 0 236 98t97 238t-97 238t-236 98q-140 0 -238 -98t-98 -238t98 -238t238 -98z" />
<glyph unicode="&#x110;" horiz-adv-x="1501" d="M641 1536q209 0 385.5 -103t279.5 -279.5t103 -385.5t-103 -385.5t-279.5 -279.5t-385.5 -103h-424v698h-158v119h158v719h424zM639 174q165 0 301.5 76.5t215.5 213t79 304.5t-79 304.5t-215.5 213t-301.5 76.5h-250v-545h272v-119h-272v-524h250z" />
<glyph unicode="&#x111;" horiz-adv-x="1255" d="M1219 1304v-119h-138v-1185h-168v137q-132 -155 -356 -155q-127 0 -238 66.5t-177 182t-66 250.5q0 136 66 251.5t177 182t238 66.5q224 0 356 -155v359h-296v119h296v232h168v-232h138zM580 145q139 0 236 98t97 238t-97 238t-236 98q-140 0 -238 -98t-98 -238t98 -238 t238 -98z" />
<glyph unicode="&#x112;" horiz-adv-x="1165" d="M957 1860v-115h-635v115h635zM1061 1368h-670v-516h584v-168h-584v-516h670v-168h-844v1536h844v-168z" />
<glyph unicode="&#x113;" horiz-adv-x="1139" d="M906 1297v-115h-635v115h635zM1077 492v-33h-844q7 -137 107.5 -231.5t237.5 -94.5q90 0 167 43.5t125 118.5l142 -57q-63 -119 -178 -187.5t-254 -68.5q-140 0 -256 67t-182 181.5t-66 250.5q0 208 146 354t356 146q136 0 250.5 -64t181.5 -176.5t67 -248.5zM578 829 q-115 0 -203.5 -64.5t-123.5 -170.5h649q-33 105 -121 170t-201 65z" />
<glyph unicode="&#x116;" horiz-adv-x="1165" d="M639 1706q-47 0 -81 33.5t-34 79.5q0 49 34 82t81 33t81 -33t34 -82q0 -46 -34.5 -79.5t-80.5 -33.5zM1061 1368h-670v-516h584v-168h-584v-516h670v-168h-844v1536h844v-168z" />
<glyph unicode="&#x117;" horiz-adv-x="1139" d="M588 1143q-47 0 -81 33.5t-34 79.5q0 49 34 82t81 33t81 -33t34 -82q0 -46 -34.5 -79.5t-80.5 -33.5zM1077 492v-33h-844q7 -137 107.5 -231.5t237.5 -94.5q90 0 167 43.5t125 118.5l142 -57q-63 -119 -178 -187.5t-254 -68.5q-140 0 -256 67t-182 181.5t-66 250.5 q0 208 146 354t356 146q136 0 250.5 -64t181.5 -176.5t67 -248.5zM578 829q-115 0 -203.5 -64.5t-123.5 -170.5h649q-33 105 -121 170t-201 65z" />
<glyph unicode="&#x118;" horiz-adv-x="1165" d="M1102 -311l82 -115q-112 -112 -277 -104q-105 5 -167 60t-62 151q0 172 215 319h-676v1536h844v-168h-670v-516h584v-168h-584v-516h670v-168q-114 -48 -189 -122.5t-75 -158.5q0 -55 33 -82.5t86 -27.5q47 0 98 21.5t88 58.5z" />
<glyph unicode="&#x119;" horiz-adv-x="1139" d="M1077 492v-33h-844q7 -137 107.5 -231.5t237.5 -94.5q90 0 167 43.5t125 118.5l142 -57q-44 -83 -115 -142.5t-159 -88.5q-79 -48 -126 -108.5t-47 -126.5q0 -55 33 -82.5t86 -27.5q47 0 98 21.5t88 58.5l82 -115q-112 -112 -277 -104q-105 5 -167 60t-62 151 q0 131 125 248q-209 4 -352 149t-143 350q0 208 146 354t356 146q136 0 250.5 -64t181.5 -176.5t67 -248.5zM578 829q-115 0 -203.5 -64.5t-123.5 -170.5h649q-33 105 -121 170t-201 65z" />
<glyph unicode="&#x11a;" horiz-adv-x="1165" d="M723 1698h-173l-200 297l88 53l201 -240l198 240l88 -53zM1061 1368h-670v-516h584v-168h-584v-516h670v-168h-844v1536h844v-168z" />
<glyph unicode="&#x11b;" horiz-adv-x="1139" d="M672 1135h-173l-200 297l88 53l201 -240l198 240l88 -53zM1077 492v-33h-844q7 -137 107.5 -231.5t237.5 -94.5q90 0 167 43.5t125 118.5l142 -57q-63 -119 -178 -187.5t-254 -68.5q-140 0 -256 67t-182 181.5t-66 250.5q0 208 146 354t356 146q136 0 250.5 -64 t181.5 -176.5t67 -248.5zM578 829q-115 0 -203.5 -64.5t-123.5 -170.5h649q-33 105 -121 170t-201 65z" />
<glyph unicode="&#x11e;" horiz-adv-x="1630" d="M916 1712q-148 0 -243 86t-95 230h136q0 -91 52.5 -150t149.5 -59q99 0 152 59t53 150h135q0 -144 -95 -230t-245 -86zM870 809h613v-809h-154l-10 113q-98 -63 -211.5 -98t-222.5 -35q-162 0 -308 62t-251.5 167.5t-167.5 251.5t-62 307t62 307t167.5 251.5t251.5 167.5 t308 62q148 0 300.5 -63.5t256.5 -167.5l-125 -123q-83 85 -198 132.5t-234 47.5q-169 0 -310 -81t-223 -222.5t-82 -310.5t82 -310.5t223 -222.5t310 -81q116 0 228.5 45.5t195.5 126.5v319h-439v164z" />
<glyph unicode="&#x11f;" horiz-adv-x="1253" d="M576 1139q-148 0 -243 86t-95 230h136q0 -91 52.5 -150t149.5 -59q99 0 152 59t53 150h135q0 -144 -95 -230t-245 -86zM909 963h170v-963q0 -137 -67.5 -252t-183.5 -181.5t-253 -66.5q-145 0 -266.5 76t-185.5 201l135 94q42 -93 127 -150t190 -57q139 0 236.5 98 t97.5 238v125q-122 -143 -336 -143q-102 0 -194.5 39.5t-159 106t-106 159t-39.5 194.5q0 137 66.5 252t181.5 181.5t251 66.5q214 0 336 -143v125zM578 145q138 0 235.5 99t97.5 237q0 140 -97.5 238t-235.5 98q-141 0 -238.5 -97.5t-97.5 -238.5q0 -139 97.5 -237.5 t238.5 -98.5z" />
<glyph unicode="&#x120;" horiz-adv-x="1630" d="M918 1706q-47 0 -81 33.5t-34 79.5q0 49 34 82t81 33t81 -33t34 -82q0 -46 -34.5 -79.5t-80.5 -33.5zM870 809h613v-809h-154l-10 113q-98 -63 -211.5 -98t-222.5 -35q-162 0 -308 62t-251.5 167.5t-167.5 251.5t-62 307t62 307t167.5 251.5t251.5 167.5t308 62 q148 0 300.5 -63.5t256.5 -167.5l-125 -123q-83 85 -198 132.5t-234 47.5q-169 0 -310 -81t-223 -222.5t-82 -310.5t82 -310.5t223 -222.5t310 -81q116 0 228.5 45.5t195.5 126.5v319h-439v164z" />
<glyph unicode="&#x121;" horiz-adv-x="1253" d="M578 1133q-47 0 -81 33.5t-34 79.5q0 49 34 82t81 33t81 -33t34 -82q0 -46 -34.5 -79.5t-80.5 -33.5zM909 963h170v-963q0 -137 -67.5 -252t-183.5 -181.5t-253 -66.5q-145 0 -266.5 76t-185.5 201l135 94q42 -93 127 -150t190 -57q139 0 236.5 98t97.5 238v125 q-122 -143 -336 -143q-102 0 -194.5 39.5t-159 106t-106 159t-39.5 194.5q0 137 66.5 252t181.5 181.5t251 66.5q214 0 336 -143v125zM578 145q138 0 235.5 99t97.5 237q0 140 -97.5 238t-235.5 98q-141 0 -238.5 -97.5t-97.5 -238.5q0 -139 97.5 -237.5t238.5 -98.5z" />
<glyph unicode="&#x122;" horiz-adv-x="1630" d="M870 809h613v-809h-154l-10 113q-98 -63 -211.5 -98t-222.5 -35q-162 0 -308 62t-251.5 167.5t-167.5 251.5t-62 307t62 307t167.5 251.5t251.5 167.5t308 62q148 0 300.5 -63.5t256.5 -167.5l-125 -123q-83 85 -198 132.5t-234 47.5q-169 0 -310 -81t-223 -222.5 t-82 -310.5t82 -310.5t223 -222.5t310 -81q116 0 228.5 45.5t195.5 126.5v319h-439v164zM696 -524l188 440l144 -59l-240 -418z" />
<glyph unicode="&#x123;" horiz-adv-x="1253" d="M578 1083q-50 0 -81.5 33t-31.5 84q0 21 7 41l145 428h104l-108 -363q35 -10 57.5 -40t22.5 -68q0 -46 -34.5 -80.5t-80.5 -34.5zM909 963h170v-963q0 -137 -67.5 -252t-183.5 -181.5t-253 -66.5q-145 0 -266.5 76t-185.5 201l135 94q42 -93 127 -150t190 -57 q139 0 236.5 98t97.5 238v125q-122 -143 -336 -143q-102 0 -194.5 39.5t-159 106t-106 159t-39.5 194.5q0 137 66.5 252t181.5 181.5t251 66.5q214 0 336 -143v125zM578 145q138 0 235.5 99t97.5 237q0 140 -97.5 238t-235.5 98q-141 0 -238.5 -97.5t-97.5 -238.5 q0 -139 97.5 -237.5t238.5 -98.5z" />
<glyph unicode="&#x126;" horiz-adv-x="1616" d="M1538 1258v-119h-139v-1139h-174v682h-834v-682h-174v1139h-143v119h143v278h174v-278h834v278h174v-278h139zM1225 856v283h-834v-283h834z" />
<glyph unicode="&#x127;" horiz-adv-x="1071" d="M575 981q145 0 247 -102t102 -246v-633h-168v621q0 85 -60 144.5t-145 59.5q-87 0 -147 -57t-62 -140v-628h-168v1187h-141v119h141v230h168v-230h293v-119h-293v-294q99 88 233 88z" />
<glyph unicode="&#x128;" horiz-adv-x="608" d="M438 1640q-112 0 -188 113q-36 55 -82 55q-47 0 -72.5 -45t-25.5 -114h-125q0 122 59.5 202t159.5 80q110 0 188 -112q12 -17 21 -27t26.5 -19.5t38.5 -9.5q97 0 97 160h123q0 -124 -58 -203.5t-162 -79.5zM217 0v1536h174v-1536h-174z" />
<glyph unicode="&#x129;" horiz-adv-x="516" d="M393 1067q-112 0 -188 113q-36 55 -82 55q-47 0 -72.5 -45t-25.5 -114h-125q0 122 59.5 202t159.5 80q110 0 188 -112q12 -17 21 -27t26.5 -19.5t38.5 -9.5q97 0 97 160h123q0 -124 -58 -203.5t-162 -79.5zM174 0v963h168v-963h-168z" />
<glyph unicode="&#x12a;" horiz-adv-x="608" d="M-14 1745v115h635v-115h-635zM217 0v1536h174v-1536h-174z" />
<glyph unicode="&#x12b;" horiz-adv-x="516" d="M-59 1172v115h635v-115h-635zM174 0v963h168v-963h-168z" />
<glyph unicode="&#x12e;" horiz-adv-x="608" d="M432 -311l82 -115q-112 -112 -277 -104q-105 5 -167 60t-62 151q0 172 215 319h-6v1536h174v-1536q-114 -48 -189 -122.5t-75 -158.5q0 -55 33 -82.5t86 -27.5q47 0 98 21.5t88 58.5z" />
<glyph unicode="&#x12f;" horiz-adv-x="516" d="M258 1133q-47 0 -81 33.5t-34 79.5q0 49 34 82t81 33t81 -33t34 -82q0 -46 -34.5 -79.5t-80.5 -33.5zM383 -311l82 -115q-112 -112 -277 -104q-105 5 -167 60t-62 151q0 172 215 319v963h168v-963q-114 -48 -189 -122.5t-75 -158.5q0 -55 33 -82.5t86 -27.5q47 0 98 21.5 t88 58.5z" />
<glyph unicode="&#x130;" horiz-adv-x="608" d="M303 1706q-47 0 -81 33.5t-34 79.5q0 49 34 82t81 33t81 -33t34 -82q0 -46 -34.5 -79.5t-80.5 -33.5zM217 0v1536h174v-1536h-174z" />
<glyph unicode="&#x131;" horiz-adv-x="516" d="M174 0v963h168v-963h-168z" />
<glyph unicode="&#x136;" horiz-adv-x="1296" d="M594 782l674 -782h-221l-656 761v-761h-174v1536h174v-733l631 733h221zM428 -524l188 440l144 -59l-240 -418z" />
<glyph unicode="&#x137;" horiz-adv-x="1016" d="M535 530l487 -530h-227l-453 502v-502h-168v1536h168v-990l373 417h227zM311 -524l188 440l144 -59l-240 -418z" />
<glyph unicode="&#x139;" horiz-adv-x="987" d="M595 1944l-333 -289l-66 71l303 326zM391 174h567v-174h-741v1536h174v-1362z" />
<glyph unicode="&#x13a;" horiz-adv-x="516" d="M217 1655l-66 71l303 326l96 -108zM174 0v1536h168v-1536h-168z" />
<glyph unicode="&#x13b;" horiz-adv-x="987" d="M391 174h567v-174h-741v1536h174v-1362zM379 -524l188 440l144 -59l-240 -418z" />
<glyph unicode="&#x13c;" horiz-adv-x="516" d="M174 0v1536h168v-1536h-168zM141 -561l-92 37l188 440l144 -59z" />
<glyph unicode="&#x13d;" horiz-adv-x="987" d="M965 1411l-1 -3l-3 -7l-146 -430h-125l110 370q-27 15 -43.5 42t-16.5 59q0 46 34 80t80 34t80.5 -34t34.5 -80q0 -18 -4 -31zM391 1536v-1362h567v-174h-741v1536h174z" />
<glyph unicode="&#x13e;" horiz-adv-x="516" d="M731 1411l-1 -3l-3 -7l-146 -430h-125l110 370q-27 15 -43.5 42t-16.5 59q0 46 34 80t80 34t80.5 -34t34.5 -80q0 -18 -4 -31zM174 0v1536h168v-1536h-168z" />
<glyph unicode="&#x13f;" horiz-adv-x="1010" d="M391 174h567v-174h-741v1536h174v-1362zM786 835q-37 0 -64.5 26.5t-27.5 65.5q0 37 27.5 64.5t64.5 27.5t65.5 -27.5t28.5 -64.5q0 -39 -28 -65.5t-66 -26.5z" />
<glyph unicode="&#x140;" horiz-adv-x="631" d="M174 0v1536h168v-1536h-168zM532 727q-37 0 -64.5 26.5t-27.5 65.5q0 37 27.5 64.5t64.5 27.5t65.5 -27.5t28.5 -64.5q0 -39 -28 -65.5t-66 -26.5z" />
<glyph unicode="&#x141;" horiz-adv-x="987" d="M391 174h567v-174h-741v573l-108 -80v154l108 80v809h174v-679l298 222v-154l-298 -222v-529z" />
<glyph unicode="&#x142;" horiz-adv-x="590" d="M506 934v-154l-121 -90v-690h-168v566l-149 -111v153l149 111v817h168v-692z" />
<glyph unicode="&#x143;" horiz-adv-x="1575" d="M1078 1944l-333 -289l-66 71l303 326zM1358 1536v-1603l-967 1193v-1126h-174v1603l969 -1192v1125h172z" />
<glyph unicode="&#x144;" horiz-adv-x="1071" d="M843 1371l-333 -289l-66 71l303 326zM575 981q145 0 247 -102t102 -246v-633h-168v621q0 85 -60 144.5t-145 59.5q-87 0 -147 -57t-62 -140v-628h-168v963h168v-69q100 87 233 87z" />
<glyph unicode="&#x145;" horiz-adv-x="1575" d="M1186 1536h172v-1603l-967 1193v-1126h-174v1603l969 -1192v1125zM582 -524l188 440l144 -59l-240 -418z" />
<glyph unicode="&#x146;" horiz-adv-x="1071" d="M575 981q145 0 247 -102t102 -246v-633h-168v621q0 85 -60 144.5t-145 59.5q-87 0 -147 -57t-62 -140v-628h-168v963h168v-69q100 87 233 87zM344 -524l188 440l144 -59l-240 -418z" />
<glyph unicode="&#x147;" horiz-adv-x="1575" d="M870 1698h-173l-200 297l88 53l201 -240l198 240l88 -53zM1358 1536v-1603l-967 1193v-1126h-174v1603l969 -1192v1125h172z" />
<glyph unicode="&#x148;" horiz-adv-x="1071" d="M635 1125h-173l-200 297l88 53l201 -240l198 240l88 -53zM575 981q145 0 247 -102t102 -246v-633h-168v621q0 85 -60 144.5t-145 59.5q-87 0 -147 -57t-62 -140v-628h-168v963h168v-69q100 87 233 87z" />
<glyph unicode="&#x14a;" horiz-adv-x="1710" d="M1319 1536h172v-1604q0 -85 -15 -149t-51 -117t-102.5 -80.5t-163.5 -27.5h-45v123q81 -2 124.5 16t66 71t22.5 154v78l-936 1247v-1247h-174v1536h164l938 -1246v1246z" />
<glyph unicode="&#x14b;" horiz-adv-x="1069" d="M582 -453v154q38 -1 61.5 3t47 20.5t36 48.5t20 88t7.5 139v621q0 85 -60 144.5t-145 59.5q-87 0 -147 -56.5t-62 -139.5v-629h-168v963h168v-70q98 88 233 88q145 0 247 -102t102 -246v-633q0 -237 -79.5 -345.5t-260.5 -107.5z" />
<glyph unicode="&#x14c;" horiz-adv-x="1765" d="M566 1745v115h635v-115h-635zM883 -20q-215 0 -396.5 105.5t-287 286.5t-105.5 396t105.5 396t287 286.5t396.5 105.5q214 0 395.5 -105.5t287 -287t105.5 -395.5t-105.5 -395.5t-287 -287t-395.5 -105.5zM883 154q126 0 240 48t196 130t130 196t48 240t-48 240t-130 196 t-196 130t-240 48q-167 0 -308.5 -81.5t-224 -223t-82.5 -309.5t82.5 -309.5t224 -223t308.5 -81.5z" />
<glyph unicode="&#x14d;" horiz-adv-x="1155" d="M261 1172v115h635v-115h-635zM578 -18q-210 0 -357 146t-147 353q0 208 147 354t357 146q137 0 252 -66.5t182 -182t67 -251.5q0 -207 -146.5 -353t-354.5 -146zM578 145q138 0 235.5 98.5t97.5 237.5q0 140 -97.5 238t-235.5 98q-141 0 -238.5 -97.5t-97.5 -238.5 q0 -140 97.5 -238t238.5 -98z" />
<glyph unicode="&#x150;" horiz-adv-x="1765" d="M696 1704l-84 94l328 283l86 -94zM1067 1704l-84 94l328 283l86 -94zM883 -20q-215 0 -396.5 105.5t-287 286.5t-105.5 396t105.5 396t287 286.5t396.5 105.5q214 0 395.5 -105.5t287 -287t105.5 -395.5t-105.5 -395.5t-287 -287t-395.5 -105.5zM883 154q126 0 240 48 t196 130t130 196t48 240t-48 240t-130 196t-196 130t-240 48q-167 0 -308.5 -81.5t-224 -223t-82.5 -309.5t82.5 -309.5t224 -223t308.5 -81.5z" />
<glyph unicode="&#x151;" horiz-adv-x="1155" d="M391 1131l-84 94l328 283l86 -94zM762 1131l-84 94l328 283l86 -94zM578 -18q-210 0 -357 146t-147 353q0 208 147 354t357 146q137 0 252 -66.5t182 -182t67 -251.5q0 -207 -146.5 -353t-354.5 -146zM578 145q138 0 235.5 98.5t97.5 237.5q0 140 -97.5 238t-235.5 98 q-141 0 -238.5 -97.5t-97.5 -238.5q0 -140 97.5 -238t238.5 -98z" />
<glyph unicode="&#x152;" horiz-adv-x="2449" d="M2345 1368h-674v-516h588v-168h-588v-516h674v-168h-817v315q-108 -155 -278 -245t-367 -90q-215 0 -396.5 105.5t-287 286.5t-105.5 396t105.5 396t287 286.5t396.5 105.5q197 0 367 -90t278 -245v315h817v-168zM885 147q168 0 310.5 83t225 226t82.5 312t-82.5 312 t-225 226t-310.5 83q-170 0 -313.5 -83t-226.5 -226t-83 -312t83 -312t226.5 -226t313.5 -83z" />
<glyph unicode="&#x153;" horiz-adv-x="1991" d="M1929 492l-2 -33h-842q7 -137 107.5 -231.5t237.5 -94.5q90 0 167 43.5t125 118.5l142 -57q-63 -119 -178 -187.5t-254 -68.5q-136 0 -249 63t-180 171q-67 -108 -179.5 -171t-245.5 -63q-210 0 -357 146t-147 353q0 208 147 354t357 146q133 0 245.5 -63.5t179.5 -171.5 q67 108 180 171.5t247 63.5q207 0 350 -141t149 -348zM1430 829q-115 0 -203.5 -64.5t-123.5 -170.5h649q-33 105 -121 170t-201 65zM578 137q141 0 241.5 101t100.5 243q0 143 -100.5 243.5t-241.5 100.5q-145 0 -246 -100.5t-101 -243.5t101 -243.5t246 -100.5z" />
<glyph unicode="&#x154;" horiz-adv-x="1405" d="M937 1944l-333 -289l-66 71l303 326zM1133 0l-366 680h-376v-680h-174v1536h637q179 0 304.5 -126t125.5 -304q0 -152 -92.5 -267t-237.5 -148l367 -691h-188zM391 1368v-522h447q118 0 195 68.5t77 189.5q0 118 -78 191t-194 73h-447z" />
<glyph unicode="&#x155;" horiz-adv-x="721" d="M389 1082l-66 71l303 326l96 -108zM590 981q81 0 139 -37l-57 -143q-40 16 -78 16q-108 0 -180 -87.5t-72 -219.5v-510h-168v963h168v-150q84 168 248 168z" />
<glyph unicode="&#x156;" horiz-adv-x="1405" d="M954 691l367 -691h-188l-366 680h-376v-680h-174v1536h637q179 0 304.5 -126t125.5 -304q0 -152 -92.5 -267t-237.5 -148zM391 1368v-522h447q118 0 195 68.5t77 189.5q0 118 -78 191t-194 73h-447zM436 -524l188 440l144 -59l-240 -418z" />
<glyph unicode="&#x157;" horiz-adv-x="721" d="M590 981q81 0 139 -37l-57 -143q-40 16 -78 16q-108 0 -180 -87.5t-72 -219.5v-510h-168v963h168v-150q84 168 248 168zM141 -561l-92 37l188 440l144 -59z" />
<glyph unicode="&#x158;" horiz-adv-x="1405" d="M729 1698h-173l-200 297l88 53l201 -240l198 240l88 -53zM1133 0l-366 680h-376v-680h-174v1536h637q179 0 304.5 -126t125.5 -304q0 -152 -92.5 -267t-237.5 -148l367 -691h-188zM391 1368v-522h447q118 0 195 68.5t77 189.5q0 118 -78 191t-194 73h-447z" />
<glyph unicode="&#x159;" horiz-adv-x="721" d="M341 1125l-200 297l88 53l201 -240l198 240l88 -53l-202 -297h-173zM590 981q81 0 139 -37l-57 -143q-40 16 -78 16q-108 0 -180 -87.5t-72 -219.5v-510h-168v963h168v-150q84 168 248 168z" />
<glyph unicode="&#x15a;" horiz-adv-x="1135" d="M530 1655l-66 71l303 326l96 -108zM580 -20q-157 0 -294 67t-223 174l125 125q149 -211 381 -211q136 0 223 72.5t87 191.5q0 36 -11 68.5t-25.5 57t-44.5 49.5t-53.5 41t-66.5 37.5t-69.5 32.5t-76.5 32q-54 23 -84.5 36.5t-78.5 39t-76.5 47.5t-62.5 56t-52.5 69.5 t-31.5 84t-13 103.5q0 182 123 292.5t307 110.5q265 0 443 -208l-105 -109q-87 92 -163.5 127t-170.5 35q-112 0 -186 -63t-74 -173q0 -48 17.5 -88t42.5 -68t69 -55t80.5 -44t93.5 -40q159 -65 212 -94q159 -87 207 -220q24 -67 24 -150q0 -102 -38 -184t-103.5 -134 t-150.5 -80t-181 -28z" />
<glyph unicode="&#x15b;" horiz-adv-x="874" d="M399 1082l-66 71l303 326l96 -108zM432 -18q-191 0 -362 124l94 138q52 -48 124.5 -79.5t151.5 -31.5q85 0 136 38t51 103q0 27 -10.5 49t-28 36.5t-43.5 26.5t-52.5 20.5t-59.5 17.5q-10 3 -15 4q-133 37 -186 66q-121 67 -121 204q0 132 99 207.5t247 75.5 q83 0 163.5 -25t143.5 -69l-96 -129q-107 76 -226 76q-80 0 -127 -32t-47 -87q0 -31 16.5 -54.5t48.5 -39t65.5 -26t81.5 -23.5q19 -4 28 -7q49 -13 83 -25t74 -34.5t64.5 -50t41.5 -71t17 -97.5q0 -143 -96.5 -224t-259.5 -81z" />
<glyph unicode="&#x15e;" horiz-adv-x="1135" d="M1053 406q0 -132 -64 -229.5t-166.5 -145.5t-229.5 -51l-55 -115q105 22 178.5 -32.5t73.5 -151.5q0 -89 -61 -151t-150 -62q-71 0 -139.5 39t-97.5 96l92 37q22 -30 64 -51t81 -21q47 0 79 32.5t32 80.5q0 69 -58 94.5t-141 -6.5l-80 51l84 165q-132 17 -245 81 t-187 155l125 125q149 -211 381 -211q136 0 223 72.5t87 191.5q0 36 -11 68.5t-25.5 57t-44.5 49.5t-53.5 41t-66.5 37.5t-69.5 32.5t-76.5 32q-54 23 -84.5 36.5t-78.5 39t-76.5 47.5t-62.5 56t-52.5 69.5t-31.5 84t-13 103.5q0 182 123 292.5t307 110.5q265 0 443 -208 l-105 -109q-87 92 -163.5 127t-170.5 35q-112 0 -186 -63t-74 -173q0 -48 17.5 -88t42.5 -68t69 -55t80.5 -44t93.5 -40q159 -65 212 -94q159 -87 207 -220q24 -67 24 -150z" />
<glyph unicode="&#x15f;" horiz-adv-x="874" d="M788 287q0 -130 -81 -209.5t-221 -93.5l-57 -119q105 22 178.5 -32.5t73.5 -151.5q0 -89 -61 -151t-150 -62q-71 0 -139.5 39t-97.5 96l92 37q22 -30 64 -51t81 -21q47 0 79 32.5t32 80.5q0 69 -58 94.5t-141 -6.5l-80 51l83 164q-163 12 -315 122l94 138 q52 -48 124.5 -79.5t151.5 -31.5q85 0 136 38t51 103q0 27 -10.5 49t-28 36.5t-43.5 26.5t-52.5 20.5t-59.5 17.5q-10 3 -15 4q-133 37 -186 66q-121 67 -121 204q0 132 99 207.5t247 75.5q83 0 163.5 -25t143.5 -69l-96 -129q-107 76 -226 76q-80 0 -127 -32t-47 -87 q0 -31 16.5 -54.5t48.5 -39t65.5 -26t81.5 -23.5q19 -4 28 -7q49 -13 83 -25t74 -34.5t64.5 -50t41.5 -71t17 -97.5z" />
<glyph unicode="&#x160;" horiz-adv-x="1135" d="M482 1698l-200 297l88 53l201 -240l198 240l88 -53l-202 -297h-173zM580 -20q-157 0 -294 67t-223 174l125 125q149 -211 381 -211q136 0 223 72.5t87 191.5q0 36 -11 68.5t-25.5 57t-44.5 49.5t-53.5 41t-66.5 37.5t-69.5 32.5t-76.5 32q-54 23 -84.5 36.5t-78.5 39 t-76.5 47.5t-62.5 56t-52.5 69.5t-31.5 84t-13 103.5q0 182 123 292.5t307 110.5q265 0 443 -208l-105 -109q-87 92 -163.5 127t-170.5 35q-112 0 -186 -63t-74 -173q0 -48 17.5 -88t42.5 -68t69 -55t80.5 -44t93.5 -40q159 -65 212 -94q159 -87 207 -220q24 -67 24 -150 q0 -102 -38 -184t-103.5 -134t-150.5 -80t-181 -28z" />
<glyph unicode="&#x161;" horiz-adv-x="874" d="M351 1125l-200 297l88 53l201 -240l198 240l88 -53l-202 -297h-173zM432 -18q-191 0 -362 124l94 138q52 -48 124.5 -79.5t151.5 -31.5q85 0 136 38t51 103q0 27 -10.5 49t-28 36.5t-43.5 26.5t-52.5 20.5t-59.5 17.5q-10 3 -15 4q-133 37 -186 66q-121 67 -121 204 q0 132 99 207.5t247 75.5q83 0 163.5 -25t143.5 -69l-96 -129q-107 76 -226 76q-80 0 -127 -32t-47 -87q0 -31 16.5 -54.5t48.5 -39t65.5 -26t81.5 -23.5q19 -4 28 -7q49 -13 83 -25t74 -34.5t64.5 -50t41.5 -71t17 -97.5q0 -143 -96.5 -224t-259.5 -81z" />
<glyph unicode="&#x162;" horiz-adv-x="1075" d="M625 0h-39l-64 -135q105 22 178.5 -32.5t73.5 -151.5q0 -89 -61 -151t-150 -62q-71 0 -139.5 39t-97.5 96l92 37q22 -30 64 -51t81 -21q47 0 79 32.5t32 80.5q0 69 -58 94.5t-141 -6.5l-80 51l91 180h-35v1362h-422v174h1018v-174h-422v-1362z" />
<glyph unicode="&#x163;" horiz-adv-x="633" d="M401 0h-35l-64 -135q105 22 178.5 -32.5t73.5 -151.5q0 -89 -61 -151t-150 -62q-71 0 -139.5 39t-97.5 96l92 37q22 -30 64 -51t81 -21q47 0 79 32.5t32 80.5q0 69 -58 94.5t-141 -6.5l-80 51l91 180h-35v809h-202v154h202v346h170v-346h201v-154h-201v-809z" />
<glyph unicode="&#x164;" horiz-adv-x="1075" d="M621 1698h-173l-200 297l88 53l201 -240l198 240l88 -53zM1047 1536v-174h-422v-1362h-174v1362h-422v174h1018z" />
<glyph unicode="&#x165;" horiz-adv-x="633" d="M752 1513l-1 -3l-3 -7l-146 -430h-125l110 370q-27 15 -43.5 42t-16.5 59q0 46 34 80t80 34t80.5 -34t34.5 -80q0 -18 -4 -31zM401 1309v-346h201v-154h-201v-809h-170v809h-202v154h202v346h170z" />
<glyph unicode="&#x166;" horiz-adv-x="1075" d="M1047 1362h-422v-545h211v-119h-211v-698h-174v698h-217v119h217v545h-422v174h1018v-174z" />
<glyph unicode="&#x167;" horiz-adv-x="633" d="M602 809h-201v-283h152v-119h-152v-407h-170v407h-154v119h154v283h-202v154h202v346h170v-346h201v-154z" />
<glyph unicode="&#x168;" horiz-adv-x="1526" d="M897 1640q-112 0 -188 113q-36 55 -82 55q-47 0 -72.5 -45t-25.5 -114h-125q0 122 59.5 202t159.5 80q110 0 188 -112q12 -17 21 -27t26.5 -19.5t38.5 -9.5q97 0 97 160h123q0 -124 -58 -203.5t-162 -79.5zM762 -20q-252 0 -416 148.5t-164 375.5v1032h174v-1004 q0 -164 114.5 -271t291.5 -107q176 0 291.5 107t115.5 271v1004h174v-1032q0 -150 -74.5 -269.5t-207 -187t-299.5 -67.5z" />
<glyph unicode="&#x169;" horiz-adv-x="1032" d="M651 1067q-112 0 -188 113q-36 55 -82 55q-47 0 -72.5 -45t-25.5 -114h-125q0 122 59.5 202t159.5 80q110 0 188 -112q12 -17 21 -27t26.5 -19.5t38.5 -9.5q97 0 97 160h123q0 -124 -58 -203.5t-162 -79.5zM516 -18q-168 0 -268.5 99t-100.5 267v615h168v-596 q0 -102 56 -162t145 -60q90 0 145.5 60t55.5 162v596h168v-615q0 -168 -100.5 -267t-268.5 -99z" />
<glyph unicode="&#x16a;" horiz-adv-x="1526" d="M445 1745v115h635v-115h-635zM762 -20q-252 0 -416 148.5t-164 375.5v1032h174v-1004q0 -164 114.5 -271t291.5 -107q176 0 291.5 107t115.5 271v1004h174v-1032q0 -150 -74.5 -269.5t-207 -187t-299.5 -67.5z" />
<glyph unicode="&#x16b;" horiz-adv-x="1032" d="M199 1172v115h635v-115h-635zM516 -18q-168 0 -268.5 99t-100.5 267v615h168v-596q0 -102 56 -162t145 -60q90 0 145.5 60t55.5 162v596h168v-615q0 -168 -100.5 -267t-268.5 -99z" />
<glyph unicode="&#x16e;" horiz-adv-x="1526" d="M762 1673q-89 0 -153 63.5t-64 151.5q0 89 64 152t153 63q88 0 150.5 -63t62.5 -152q0 -88 -62.5 -151.5t-150.5 -63.5zM762 1763q51 0 87 36t36 89q0 51 -36.5 89t-86.5 38q-52 0 -87.5 -38t-35.5 -89q0 -54 35 -89.5t88 -35.5zM762 -20q-252 0 -416 148.5t-164 375.5 v1032h174v-1004q0 -164 114.5 -271t291.5 -107q176 0 291.5 107t115.5 271v1004h174v-1032q0 -150 -74.5 -269.5t-207 -187t-299.5 -67.5z" />
<glyph unicode="&#x16f;" horiz-adv-x="1032" d="M536 1126q-89 0 -153 64t-64 151q0 89 64 152t153 63q88 0 150.5 -63t62.5 -152q0 -87 -63 -151t-150 -64zM536 1217q51 0 87 35.5t36 88.5q0 51 -36 89t-87 38t-87 -37.5t-36 -89.5q0 -53 35.5 -88.5t87.5 -35.5zM516 -18q-168 0 -268.5 99t-100.5 267v615h168v-596 q0 -102 56 -162t145 -60q90 0 145.5 60t55.5 162v596h168v-615q0 -168 -100.5 -267t-268.5 -99z" />
<glyph unicode="&#x170;" horiz-adv-x="1526" d="M575 1704l-84 94l328 283l86 -94zM946 1704l-84 94l328 283l86 -94zM762 -20q-252 0 -416 148.5t-164 375.5v1032h174v-1004q0 -164 114.5 -271t291.5 -107q176 0 291.5 107t115.5 271v1004h174v-1032q0 -150 -74.5 -269.5t-207 -187t-299.5 -67.5z" />
<glyph unicode="&#x171;" horiz-adv-x="1032" d="M329 1131l-84 94l328 283l86 -94zM700 1131l-84 94l328 283l86 -94zM516 -18q-168 0 -268.5 99t-100.5 267v615h168v-596q0 -102 56 -162t145 -60q90 0 145.5 60t55.5 162v596h168v-615q0 -168 -100.5 -267t-268.5 -99z" />
<glyph unicode="&#x172;" horiz-adv-x="1526" d="M1169 1536h174v-1032q0 -192 -120 -330.5t-316 -179.5q-99 -48 -162 -117t-63 -146q0 -55 33 -82.5t86 -27.5q47 0 98 21.5t88 58.5l82 -115q-112 -112 -277 -104q-105 5 -167 60t-62 151q0 155 172 287q-242 9 -397.5 156t-155.5 368v1032h174v-1004q0 -164 114.5 -271 t291.5 -107q176 0 291.5 107t115.5 271v1004z" />
<glyph unicode="&#x173;" horiz-adv-x="1032" d="M717 963h168v-615q0 -142 -73 -236.5t-201 -120.5q-107 -48 -175.5 -120t-68.5 -152q0 -55 33 -82.5t86 -27.5q47 0 98 21.5t88 58.5l82 -115q-112 -112 -277 -104q-105 5 -167 60t-62 151q0 164 196 306q-137 20 -217 116t-80 245v615h168v-596q0 -102 56 -162t145 -60 q90 0 145.5 60t55.5 162v596z" />
<glyph unicode="&#x174;" horiz-adv-x="1946" d="M973 1896l-205 -237l-84 51l200 297h173l202 -297l-86 -51zM1917 1536l-651 -1580l-293 710l-293 -711l-651 1581h188l469 -1180l202 516l-274 664h183l176 -447l176 447h182l-273 -663l204 -517l467 1180h188z" />
<glyph unicode="&#x175;" horiz-adv-x="1432" d="M717 1323l-205 -237l-84 51l200 297h173l202 -297l-86 -51zM1415 963l-389 -1015l-311 682l-311 -682l-388 1015h183l222 -608l294 661l296 -666l222 613h182z" />
<glyph unicode="&#x176;" horiz-adv-x="1270" d="M637 1896l-205 -237l-84 51l200 297h173l202 -297l-86 -51zM1257 1536l-534 -808v-728h-174v725l-537 811h217l407 -629l408 629h213z" />
<glyph unicode="&#x177;" horiz-adv-x="985" d="M481 1323l-205 -237l-84 51l200 297h173l202 -297l-86 -51zM782 963h189l-584 -1455h-178l194 492l-391 963h187l300 -773z" />
<glyph unicode="&#x178;" horiz-adv-x="1270" d="M449 1652q-47 0 -81 33.5t-34 79.5q0 48 34 81.5t81 33.5q46 0 80.5 -33.5t34.5 -81.5q0 -46 -34.5 -79.5t-80.5 -33.5zM826 1652q-47 0 -81 33.5t-34 79.5q0 48 34 81.5t81 33.5q48 0 81 -33t33 -82q0 -47 -33.5 -80t-80.5 -33zM1257 1536l-534 -808v-728h-174v725 l-537 811h217l407 -629l408 629h213z" />
<glyph unicode="&#x179;" horiz-adv-x="1356" d="M982 1944l-333 -289l-66 71l303 326zM1297 1536l-928 -1362h915v-174h-1245l928 1362h-844v174h1174z" />
<glyph unicode="&#x17a;" horiz-adv-x="936" d="M773 1371l-333 -289l-66 71l303 326zM881 963l-534 -809h527v-154h-831l533 809h-496v154h801z" />
<glyph unicode="&#x17b;" horiz-adv-x="1356" d="M690 1706q-47 0 -81 33.5t-34 79.5q0 49 34 82t81 33t81 -33t34 -82q0 -46 -34.5 -79.5t-80.5 -33.5zM1297 1536l-928 -1362h915v-174h-1245l928 1362h-844v174h1174z" />
<glyph unicode="&#x17c;" horiz-adv-x="936" d="M481 1133q-47 0 -81 33.5t-34 79.5q0 49 34 82t81 33t81 -33t34 -82q0 -46 -34.5 -79.5t-80.5 -33.5zM881 963l-534 -809h527v-154h-831l533 809h-496v154h801z" />
<glyph unicode="&#x17d;" horiz-adv-x="1356" d="M774 1698h-173l-200 297l88 53l201 -240l198 240l88 -53zM1297 1536l-928 -1362h915v-174h-1245l928 1362h-844v174h1174z" />
<glyph unicode="&#x17e;" horiz-adv-x="936" d="M565 1125h-173l-200 297l88 53l201 -240l198 240l88 -53zM881 963l-534 -809h527v-154h-831l533 809h-496v154h801z" />
<glyph unicode="&#x192;" horiz-adv-x="1038" d="M819 1403q-77 0 -133 -51.5t-70 -134.5l-31 -193h283l-22 -160h-286l-220 -1376h-186l216 1376h-171l24 160h173l34 219q22 132 129.5 222.5t239.5 90.5q43 0 82 -10t59 -24l-18 -152q-39 33 -103 33z" />
<glyph unicode="&#x1a0;" horiz-adv-x="1765" d="M1628 1504h142v-125q0 -123 -53.5 -184.5t-132.5 -65.5q87 -168 87 -361q0 -214 -105.5 -395.5t-287 -287t-395.5 -105.5q-215 0 -396.5 105.5t-287 286.5t-105.5 396t105.5 396t287 286.5t396.5 105.5q201 0 374 -94t281 -255q47 4 68.5 45t21.5 88v164zM883 154 q126 0 240 48t196 130t130 196t48 240t-48 240t-130 196t-196 130t-240 48q-167 0 -308.5 -81.5t-224 -223t-82.5 -309.5t82.5 -309.5t224 -223t308.5 -81.5z" />
<glyph unicode="&#x1a1;" horiz-adv-x="1155" d="M1132 1014h142v-125q0 -128 -57 -189t-140 -61q-15 0 -24 1q26 -76 26 -159q0 -207 -146.5 -353t-354.5 -146q-210 0 -357 146t-147 353q0 208 147 354t357 146q142 0 260 -71.5t182 -191.5q5 -1 14 -1q51 0 74.5 42t23.5 91v164zM578 145q138 0 235.5 98.5t97.5 237.5 q0 140 -97.5 238t-235.5 98q-141 0 -238.5 -97.5t-97.5 -238.5q0 -140 97.5 -238t238.5 -98z" />
<glyph unicode="&#x1af;" horiz-adv-x="1679" d="M1450 1538h142v-125q0 -128 -57 -189t-140 -61q-20 0 -52 5v-664q0 -150 -74.5 -269.5t-207 -187t-299.5 -67.5q-252 0 -416 148.5t-164 375.5v1032h174v-1004q0 -164 114.5 -271t291.5 -107q176 0 291.5 107t115.5 271v1004h174v-295h9q51 0 74.5 42t23.5 91v164z" />
<glyph unicode="&#x1b0;" horiz-adv-x="1032" d="M1046 963h142v-125q0 -128 -57 -189t-140 -61q-49 0 -106 18v-258q0 -168 -100.5 -267t-268.5 -99t-268.5 99t-100.5 267v615h168v-596q0 -102 56 -162t145 -60q90 0 145.5 60t55.5 162v596h168v-284q34 -13 63 -13q51 0 74.5 42t23.5 91v164z" />
<glyph unicode="&#x1cd;" horiz-adv-x="1360" d="M766 1698h-173l-200 297l88 53l201 -240l198 240l88 -53zM1137 0l-96 246h-722l-96 -246h-194l651 1578l651 -1578h-194zM383 408h595l-297 760z" />
<glyph unicode="&#x1ce;" horiz-adv-x="1253" d="M662 1125h-173l-200 297l88 53l201 -240l198 240l88 -53zM913 963h168v-963h-168v137q-132 -155 -356 -155q-127 0 -238 66.5t-177 182t-66 250.5q0 136 66 251.5t177 182t238 66.5q224 0 356 -155v137zM580 145q139 0 236 98t97 238t-97 238t-236 98q-140 0 -238 -98 t-98 -238t98 -238t238 -98z" />
<glyph unicode="&#x1cf;" horiz-adv-x="608" d="M214 1698l-200 297l88 53l201 -240l198 240l88 -53l-202 -297h-173zM217 0v1536h174v-1536h-174z" />
<glyph unicode="&#x1d0;" horiz-adv-x="516" d="M169 1125l-200 297l88 53l201 -240l198 240l88 -53l-202 -297h-173zM174 0v963h168v-963h-168z" />
<glyph unicode="&#x1d1;" horiz-adv-x="1765" d="M794 1698l-200 297l88 53l201 -240l198 240l88 -53l-202 -297h-173zM883 -20q-215 0 -396.5 105.5t-287 286.5t-105.5 396t105.5 396t287 286.5t396.5 105.5q214 0 395.5 -105.5t287 -287t105.5 -395.5t-105.5 -395.5t-287 -287t-395.5 -105.5zM883 154q126 0 240 48 t196 130t130 196t48 240t-48 240t-130 196t-196 130t-240 48q-167 0 -308.5 -81.5t-224 -223t-82.5 -309.5t82.5 -309.5t224 -223t308.5 -81.5z" />
<glyph unicode="&#x1d2;" horiz-adv-x="1155" d="M489 1125l-200 297l88 53l201 -240l198 240l88 -53l-202 -297h-173zM578 -18q-210 0 -357 146t-147 353q0 208 147 354t357 146q137 0 252 -66.5t182 -182t67 -251.5q0 -207 -146.5 -353t-354.5 -146zM578 145q138 0 235.5 98.5t97.5 237.5q0 140 -97.5 238t-235.5 98 q-141 0 -238.5 -97.5t-97.5 -238.5q0 -140 97.5 -238t238.5 -98z" />
<glyph unicode="&#x1d3;" horiz-adv-x="1526" d="M673 1698l-200 297l88 53l201 -240l198 240l88 -53l-202 -297h-173zM762 -20q-252 0 -416 148.5t-164 375.5v1032h174v-1004q0 -164 114.5 -271t291.5 -107q176 0 291.5 107t115.5 271v1004h174v-1032q0 -150 -74.5 -269.5t-207 -187t-299.5 -67.5z" />
<glyph unicode="&#x1d4;" horiz-adv-x="1032" d="M427 1125l-200 297l88 53l201 -240l198 240l88 -53l-202 -297h-173zM516 -18q-168 0 -268.5 99t-100.5 267v615h168v-596q0 -102 56 -162t145 -60q90 0 145.5 60t55.5 162v596h168v-615q0 -168 -100.5 -267t-268.5 -99z" />
<glyph unicode="&#x1d5;" horiz-adv-x="1526" d="M445 2089v115h635v-115h-635zM574 1652q-47 0 -81 33.5t-34 79.5q0 48 34 81.5t81 33.5q46 0 80.5 -33.5t34.5 -81.5q0 -46 -34.5 -79.5t-80.5 -33.5zM951 1652q-47 0 -81 33.5t-34 79.5q0 48 34 81.5t81 33.5t80.5 -33t33.5 -82q0 -47 -33.5 -80t-80.5 -33zM762 -20 q-252 0 -416 148.5t-164 375.5v1032h174v-1004q0 -164 114.5 -271t291.5 -107q176 0 291.5 107t115.5 271v1004h174v-1032q0 -150 -74.5 -269.5t-207 -187t-299.5 -67.5z" />
<glyph unicode="&#x1d6;" horiz-adv-x="1032" d="M199 1577v115h635v-115h-635zM328 1141q-47 0 -81 33t-34 79q0 49 34 82t81 33t81 -33t34 -82q0 -45 -34.5 -78.5t-80.5 -33.5zM705 1141q-47 0 -81 33t-34 79q0 49 34 82t81 33q48 0 81 -33t33 -82q0 -46 -33.5 -79t-80.5 -33zM516 -18q-168 0 -268.5 99t-100.5 267v615 h168v-596q0 -102 56 -162t145 -60q90 0 145.5 60t55.5 162v596h168v-615q0 -168 -100.5 -267t-268.5 -99z" />
<glyph unicode="&#x1d7;" horiz-adv-x="1526" d="M721 1999l-66 71l303 326l96 -108zM574 1652q-47 0 -81 33.5t-34 79.5q0 48 34 81.5t81 33.5q46 0 80.5 -33.5t34.5 -81.5q0 -46 -34.5 -79.5t-80.5 -33.5zM951 1652q-47 0 -81 33.5t-34 79.5q0 48 34 81.5t81 33.5t80.5 -33t33.5 -82q0 -47 -33.5 -80t-80.5 -33z M762 -20q-252 0 -416 148.5t-164 375.5v1032h174v-1004q0 -164 114.5 -271t291.5 -107q176 0 291.5 107t115.5 271v1004h174v-1032q0 -150 -74.5 -269.5t-207 -187t-299.5 -67.5z" />
<glyph unicode="&#x1d8;" horiz-adv-x="1032" d="M475 1487l-66 71l303 326l96 -108zM328 1141q-47 0 -81 33t-34 79q0 49 34 82t81 33t81 -33t34 -82q0 -45 -34.5 -78.5t-80.5 -33.5zM705 1141q-47 0 -81 33t-34 79q0 49 34 82t81 33q48 0 81 -33t33 -82q0 -46 -33.5 -79t-80.5 -33zM516 -18q-168 0 -268.5 99 t-100.5 267v615h168v-596q0 -102 56 -162t145 -60q90 0 145.5 60t55.5 162v596h168v-615q0 -168 -100.5 -267t-268.5 -99z" />
<glyph unicode="&#x1d9;" horiz-adv-x="1526" d="M673 2042l-200 297l88 53l201 -240l198 240l88 -53l-202 -297h-173zM574 1652q-47 0 -81 33.5t-34 79.5q0 48 34 81.5t81 33.5q46 0 80.5 -33.5t34.5 -81.5q0 -46 -34.5 -79.5t-80.5 -33.5zM951 1652q-47 0 -81 33.5t-34 79.5q0 48 34 81.5t81 33.5t80.5 -33t33.5 -82 q0 -47 -33.5 -80t-80.5 -33zM762 -20q-252 0 -416 148.5t-164 375.5v1032h174v-1004q0 -164 114.5 -271t291.5 -107q176 0 291.5 107t115.5 271v1004h174v-1032q0 -150 -74.5 -269.5t-207 -187t-299.5 -67.5z" />
<glyph unicode="&#x1da;" horiz-adv-x="1032" d="M427 1530l-200 297l88 53l201 -240l198 240l88 -53l-202 -297h-173zM328 1141q-47 0 -81 33t-34 79q0 49 34 82t81 33t81 -33t34 -82q0 -45 -34.5 -78.5t-80.5 -33.5zM705 1141q-47 0 -81 33t-34 79q0 49 34 82t81 33q48 0 81 -33t33 -82q0 -46 -33.5 -79t-80.5 -33z M516 -18q-168 0 -268.5 99t-100.5 267v615h168v-596q0 -102 56 -162t145 -60q90 0 145.5 60t55.5 162v596h168v-615q0 -168 -100.5 -267t-268.5 -99z" />
<glyph unicode="&#x1db;" horiz-adv-x="1526" d="M764 1999l-336 289l98 108l301 -326zM574 1652q-47 0 -81 33.5t-34 79.5q0 48 34 81.5t81 33.5q46 0 80.5 -33.5t34.5 -81.5q0 -46 -34.5 -79.5t-80.5 -33.5zM951 1652q-47 0 -81 33.5t-34 79.5q0 48 34 81.5t81 33.5t80.5 -33t33.5 -82q0 -47 -33.5 -80t-80.5 -33z M762 -20q-252 0 -416 148.5t-164 375.5v1032h174v-1004q0 -164 114.5 -271t291.5 -107q176 0 291.5 107t115.5 271v1004h174v-1032q0 -150 -74.5 -269.5t-207 -187t-299.5 -67.5z" />
<glyph unicode="&#x1dc;" horiz-adv-x="1032" d="M518 1487l-336 289l98 108l301 -326zM328 1141q-47 0 -81 33t-34 79q0 49 34 82t81 33t81 -33t34 -82q0 -45 -34.5 -78.5t-80.5 -33.5zM705 1141q-47 0 -81 33t-34 79q0 49 34 82t81 33q48 0 81 -33t33 -82q0 -46 -33.5 -79t-80.5 -33zM516 -18q-168 0 -268.5 99 t-100.5 267v615h168v-596q0 -102 56 -162t145 -60q90 0 145.5 60t55.5 162v596h168v-615q0 -168 -100.5 -267t-268.5 -99z" />
<glyph unicode="&#x218;" horiz-adv-x="1135" d="M580 -20q-157 0 -294 67t-223 174l125 125q149 -211 381 -211q136 0 223 72.5t87 191.5q0 36 -11 68.5t-25.5 57t-44.5 49.5t-53.5 41t-66.5 37.5t-69.5 32.5t-76.5 32q-54 23 -84.5 36.5t-78.5 39t-76.5 47.5t-62.5 56t-52.5 69.5t-31.5 84t-13 103.5q0 182 123 292.5 t307 110.5q265 0 443 -208l-105 -109q-87 92 -163.5 127t-170.5 35q-112 0 -186 -63t-74 -173q0 -48 17.5 -88t42.5 -68t69 -55t80.5 -44t93.5 -40q159 -65 212 -94q159 -87 207 -220q24 -67 24 -150q0 -102 -38 -184t-103.5 -134t-150.5 -80t-181 -28zM436 -561l-92 37 l188 440l144 -59z" />
<glyph unicode="&#x219;" horiz-adv-x="874" d="M432 -18q-191 0 -362 124l94 138q52 -48 124.5 -79.5t151.5 -31.5q85 0 136 38t51 103q0 27 -10.5 49t-28 36.5t-43.5 26.5t-52.5 20.5t-59.5 17.5q-10 3 -15 4q-133 37 -186 66q-121 67 -121 204q0 132 99 207.5t247 75.5q83 0 163.5 -25t143.5 -69l-96 -129 q-107 76 -226 76q-80 0 -127 -32t-47 -87q0 -31 16.5 -54.5t48.5 -39t65.5 -26t81.5 -23.5q19 -4 28 -7q49 -13 83 -25t74 -34.5t64.5 -50t41.5 -71t17 -97.5q0 -143 -96.5 -224t-259.5 -81zM327 -561l-92 37l188 440l144 -59z" />
<glyph unicode="&#x21a;" horiz-adv-x="1075" d="M29 1536h1018v-174h-422v-1362h-174v1362h-422v174zM328 -524l188 440l144 -59l-240 -418z" />
<glyph unicode="&#x21b;" horiz-adv-x="633" d="M401 963h201v-154h-201v-809h-170v809h-202v154h202v346h170v-346zM108 -524l188 440l144 -59l-240 -418z" />
<glyph unicode="&#x237;" horiz-adv-x="514" d="M174 -481v1444h166v-1444h-166z" />
<glyph unicode="&#x2c6;" horiz-adv-x="727" d="M160 1188l-84 51l200 297h173l202 -297l-86 -51l-200 237z" />
<glyph unicode="&#x2c7;" horiz-adv-x="727" d="M278 1186l-200 297l88 53l201 -240l198 240l88 -53l-202 -297h-173z" />
<glyph unicode="&#x2d8;" horiz-adv-x="889" d="M473 1200q-148 0 -243 86t-95 230h136q0 -91 52.5 -150t149.5 -59q99 0 152 59t53 150h135q0 -144 -95 -230t-245 -86z" />
<glyph unicode="&#x2d9;" horiz-adv-x="500" d="M250 1214q-47 0 -81 33.5t-34 79.5q0 49 34 82t81 33t81 -33t34 -82q0 -46 -34.5 -79.5t-80.5 -33.5z" />
<glyph unicode="&#x2da;" horiz-adv-x="662" d="M352 1126q-89 0 -153 64t-64 151q0 89 64 152t153 63q88 0 150.5 -63t62.5 -152q0 -87 -63 -151t-150 -64zM352 1217q51 0 87 35.5t36 88.5q0 51 -36 89t-87 38t-87 -37.5t-36 -89.5q0 -53 35.5 -88.5t87.5 -35.5z" />
<glyph unicode="&#x2db;" horiz-adv-x="641" d="M331 -530q-105 5 -167 60t-62 151q0 201 293 368l90 -49q-114 -48 -189 -122.5t-75 -158.5q0 -55 33 -82.5t86 -27.5q47 0 98 21.5t88 58.5l82 -115q-112 -112 -277 -104z" />
<glyph unicode="&#x2dc;" horiz-adv-x="956" d="M661 1253q-112 0 -188 113q-36 55 -82 55q-47 0 -72.5 -45t-25.5 -114h-125q0 122 59.5 202t159.5 80q110 0 188 -112q12 -17 21 -27t26.5 -19.5t38.5 -9.5q97 0 97 160h123q0 -124 -58 -203.5t-162 -79.5z" />
<glyph unicode="&#x2dd;" horiz-adv-x="496" d="M111 1143l-66 71l303 326l96 -108z" />
<glyph unicode="&#x300;" d="M-108 1143l-336 289l98 108l301 -326z" />
<glyph unicode="&#x301;" d="M-385 1143l-66 71l303 326l96 -108z" />
<glyph unicode="&#x302;" d="M-567 1188l-84 51l200 297h173l202 -297l-86 -51l-200 237z" />
<glyph unicode="&#x303;" d="M-342 1253q-112 0 -188 113q-36 55 -82 55q-47 0 -72.5 -45t-25.5 -114h-125q0 122 59.5 202t159.5 80q110 0 188 -112q12 -17 21 -27t26.5 -19.5t38.5 -9.5q97 0 97 160h123q0 -124 -58 -203.5t-162 -79.5z" />
<glyph unicode="&#x304;" d="M-801 1233v115h635v-115h-635z" />
<glyph unicode="&#x306;" d="M-447 1200q-148 0 -243 86t-95 230h136q0 -91 52.5 -150t149.5 -59q99 0 152 59t53 150h135q0 -144 -95 -230t-245 -86z" />
<glyph unicode="&#x307;" d="M-250 1214q-47 0 -81 33.5t-34 79.5q0 49 34 82t81 33t81 -33t34 -82q0 -46 -34.5 -79.5t-80.5 -33.5z" />
<glyph unicode="&#x308;" d="M-627 1141q-47 0 -81 33t-34 79q0 49 34 82t81 33t81 -33t34 -82q0 -45 -34.5 -78.5t-80.5 -33.5zM-250 1141q-47 0 -81 33t-34 79q0 49 34 82t81 33q48 0 81 -33t33 -82q0 -46 -33.5 -79t-80.5 -33z" />
<glyph unicode="&#x309;" d="M-366 1063v154q143 29 143 129q0 39 -27.5 65.5t-72.5 26.5q-54 0 -107 -35l-65 92q77 61 168 61q95 0 160 -59.5t65 -150.5q0 -66 -40 -118.5t-116 -74.5v-90h-108z" />
<glyph unicode="&#x30a;" d="M-310 1126q-89 0 -153 64t-64 151q0 89 64 152t153 63q88 0 150.5 -63t62.5 -152q0 -87 -63 -151t-150 -64zM-310 1217q51 0 87 35.5t36 88.5q0 51 -36 89t-87 38t-87 -37.5t-36 -89.5q0 -53 35.5 -88.5t87.5 -35.5z" />
<glyph unicode="&#x30b;" d="M-754 1192l-84 94l328 283l86 -94zM-383 1192l-84 94l328 283l86 -94z" />
<glyph unicode="&#x30c;" d="M-451 1186l-200 297l88 53l201 -240l198 240l88 -53l-202 -297h-173z" />
<glyph unicode="&#x312;" d="M-242 1306q35 -10 57.5 -40t22.5 -68q0 -46 -34.5 -80.5t-80.5 -34.5q-50 0 -81.5 33t-31.5 84q0 21 7 41l145 428h104z" />
<glyph unicode="&#x31b;" d="M-338 772q-104 0 -213 68l74 39q52 -29 96 -29q51 0 74.5 42t23.5 91v164h142v-125q0 -128 -57 -189t-140 -61z" />
<glyph unicode="&#x323;" d="M-248 -512q-47 0 -81 33.5t-34 81.5q0 46 34.5 80t80.5 34t80 -34t34 -80q0 -48 -34 -81.5t-80 -33.5z" />
<glyph unicode="&#x326;" d="M-303 -305l-92 37l188 440l144 -59z" />
<glyph unicode="&#x327;" d="M-301 -532q-71 0 -139.5 39t-97.5 96l92 37q22 -30 64 -51t81 -21q47 0 79 32.5t32 80.5q0 69 -58 94.5t-141 -6.5l-80 51l93 184h100l-66 -139q105 22 178.5 -32.5t73.5 -151.5q0 -89 -61 -151t-150 -62z" />
<glyph unicode="&#x328;" d="M-324 -530q-105 5 -167 60t-62 151q0 201 293 368l90 -49q-114 -48 -189 -122.5t-75 -158.5q0 -55 33 -82.5t86 -27.5q47 0 98 21.5t88 58.5l82 -115q-112 -112 -277 -104z" />
<glyph unicode="&#x335;" d="M-766 465v119h602v-119h-602z" />
<glyph unicode="&#x336;" d="M-1628 473v119h1464v-119h-1464z" />
<glyph unicode="&#x337;" d="M-627 227v154l580 432v-154z" />
<glyph unicode="&#x338;" d="M-1252 -18l1153 1652l127 -80l-1151 -1650z" />
<glyph unicode="&#x394;" horiz-adv-x="1485" d="M840 1536l616 -1536h-1427l616 1536h195zM279 154h927l-463 1184z" />
<glyph unicode="&#x3a9;" horiz-adv-x="1800" d="M115 0v143h334v15q-127 101 -213 272.5t-86 376.5q0 153 56.5 288.5t155.5 232.5t240 153.5t303 56.5q167 0 309.5 -60.5t236.5 -161t147 -232t53 -273.5q0 -204 -89 -381t-214 -272v-15h338v-143h-607v106q76 40 142.5 103t121 146.5t86 193.5t31.5 231q0 115 -37 223.5 t-105 196t-175 140.5t-236 53q-166 0 -296.5 -82.5t-200.5 -222.5t-70 -312q0 -154 56.5 -294t141 -232.5t183.5 -143.5v-106h-606z" />
<glyph unicode="&#x3bc;" horiz-adv-x="1196" d="M856 963h166v-963h-166v140q-54 -74 -134 -116t-173 -42q-143 0 -248 94v-557h-127v1444h168v-582q0 -104 74 -178t180 -74q107 0 183.5 74t76.5 178v582z" />
<glyph unicode="&#x3c0;" horiz-adv-x="1257" d="M156 0q56 147 100 381.5t53 431.5q-98 0 -148 -9.5t-98 -35.5l-24 141q92 54 307 54h877l-15 -150h-178v-526q0 -194 29 -287h-156q-31 55 -31 270v543l-405 2q-10 -193 -56 -443.5t-102 -371.5h-153z" />
<glyph unicode="&#x1e80;" horiz-adv-x="1946" d="M1038 1726l-63 -71l-336 289l98 108zM1917 1536l-651 -1580l-293 710l-293 -711l-651 1581h188l469 -1180l202 516l-274 664h183l176 -447l176 447h182l-273 -663l204 -517l467 1180h188z" />
<glyph unicode="&#x1e81;" horiz-adv-x="1432" d="M782 1153l-63 -71l-336 289l98 108zM1415 963l-389 -1015l-311 682l-311 -682l-388 1015h183l222 -608l294 661l296 -666l222 613h182z" />
<glyph unicode="&#x1e82;" horiz-adv-x="1946" d="M1265 1944l-333 -289l-66 71l303 326zM1917 1536l-651 -1580l-293 710l-293 -711l-651 1581h188l469 -1180l202 516l-274 664h183l176 -447l176 447h182l-273 -663l204 -517l467 1180h188z" />
<glyph unicode="&#x1e83;" horiz-adv-x="1432" d="M1009 1371l-333 -289l-66 71l303 326zM1415 963l-389 -1015l-311 682l-311 -682l-388 1015h183l222 -608l294 661l296 -666l222 613h182z" />
<glyph unicode="&#x1e84;" horiz-adv-x="1946" d="M785 1652q-47 0 -81 33.5t-34 79.5q0 48 34 81.5t81 33.5q46 0 80.5 -33.5t34.5 -81.5q0 -46 -34.5 -79.5t-80.5 -33.5zM1162 1652q-47 0 -81 33.5t-34 79.5q0 48 34 81.5t81 33.5q48 0 81 -33t33 -82q0 -47 -33.5 -80t-80.5 -33zM1917 1536l-651 -1580l-293 710 l-293 -711l-651 1581h188l469 -1180l202 516l-274 664h183l176 -447l176 447h182l-273 -663l204 -517l467 1180h188z" />
<glyph unicode="&#x1e85;" horiz-adv-x="1432" d="M529 1141q-47 0 -81 33t-34 79q0 49 34 82t81 33t81 -33t34 -82q0 -45 -34.5 -78.5t-80.5 -33.5zM906 1141q-47 0 -81 33t-34 79q0 49 34 82t81 33q48 0 81 -33t33 -82q0 -46 -33.5 -79t-80.5 -33zM1415 963l-389 -1015l-311 682l-311 -682l-388 1015h183l222 -608 l294 661l296 -666l222 613h182z" />
<glyph unicode="&#x1ea0;" horiz-adv-x="1360" d="M1331 0h-194l-96 246h-722l-96 -246h-194l651 1578zM383 408h595l-297 760zM682 -142q46 0 80 -34t34 -80q0 -48 -34 -81.5t-80 -33.5q-47 0 -81 33.5t-34 81.5q0 46 34.5 80t80.5 34z" />
<glyph unicode="&#x1ea1;" horiz-adv-x="1253" d="M913 963h168v-963h-168v137q-132 -155 -356 -155q-127 0 -238 66.5t-177 182t-66 250.5q0 136 66 251.5t177 182t238 66.5q224 0 356 -155v137zM580 145q139 0 236 98t97 238t-97 238t-236 98q-140 0 -238 -98t-98 -238t98 -238t238 -98zM625 -142q46 0 80 -34t34 -80 q0 -48 -34 -81.5t-80 -33.5q-47 0 -81 33.5t-34 81.5q0 46 34.5 80t80.5 34z" />
<glyph unicode="&#x1ea2;" horiz-adv-x="1360" d="M670 2011q-54 0 -107 -35l-65 92q77 61 168 61q95 0 160 -59.5t65 -150.5q0 -66 -40 -118.5t-116 -74.5v-90h-108v154q143 29 143 129q0 39 -27.5 65.5t-72.5 26.5zM1137 0l-96 246h-722l-96 -246h-194l651 1578l651 -1578h-194zM383 408h595l-297 760z" />
<glyph unicode="&#x1ea3;" horiz-adv-x="1253" d="M566 1438q-54 0 -107 -35l-65 92q77 61 168 61q95 0 160 -59.5t65 -150.5q0 -66 -40 -118.5t-116 -74.5v-90h-108v154q143 29 143 129q0 39 -27.5 65.5t-72.5 26.5zM913 963h168v-963h-168v137q-132 -155 -356 -155q-127 0 -238 66.5t-177 182t-66 250.5q0 136 66 251.5 t177 182t238 66.5q224 0 356 -155v137zM580 145q139 0 236 98t97 238t-97 238t-236 98q-140 0 -238 -98t-98 -238t98 -238t238 -98z" />
<glyph unicode="&#x1ea4;" horiz-adv-x="1360" d="M971 2415l-333 -289l-66 71l303 326zM682 1896l-205 -237l-84 51l200 297h173l202 -297l-86 -51zM1137 0l-96 246h-722l-96 -246h-194l651 1578l651 -1578h-194zM383 408h595l-297 760z" />
<glyph unicode="&#x1ea5;" horiz-adv-x="1253" d="M867 1842l-333 -289l-66 71l303 326zM578 1323l-205 -237l-84 51l200 297h173l202 -297l-86 -51zM913 963h168v-963h-168v137q-132 -155 -356 -155q-127 0 -238 66.5t-177 182t-66 250.5q0 136 66 251.5t177 182t238 66.5q224 0 356 -155v137zM580 145q139 0 236 98 t97 238t-97 238t-236 98q-140 0 -238 -98t-98 -238t98 -238t238 -98z" />
<glyph unicode="&#x1ea6;" horiz-adv-x="1360" d="M744 2197l-63 -71l-336 289l98 108zM393 1710l200 297h173l202 -297l-86 -51l-200 237l-205 -237zM1137 0l-96 246h-722l-96 -246h-194l651 1578l651 -1578h-194zM383 408h595l-297 760z" />
<glyph unicode="&#x1ea7;" horiz-adv-x="1253" d="M640 1624l-63 -71l-336 289l98 108zM289 1137l200 297h173l202 -297l-86 -51l-200 237l-205 -237zM913 963h168v-963h-168v137q-132 -155 -356 -155q-127 0 -238 66.5t-177 182t-66 250.5q0 136 66 251.5t177 182t238 66.5q224 0 356 -155v137zM580 145q139 0 236 98 t97 238t-97 238t-236 98q-140 0 -238 -98t-98 -238t98 -238t238 -98z" />
<glyph unicode="&#x1ea8;" horiz-adv-x="1360" d="M667 2482q-55 0 -107 -35l-65 92q77 61 168 61q95 0 160 -59.5t65 -150.5q0 -66 -40 -118.5t-116 -74.5v-90h-108v154q143 29 143 129q0 39 -27.5 65.5t-72.5 26.5zM682 1896l-205 -237l-84 51l200 297h173l202 -297l-86 -51zM1137 0l-96 246h-722l-96 -246h-194 l651 1578l651 -1578h-194zM383 408h595l-297 760z" />
<glyph unicode="&#x1ea9;" horiz-adv-x="1253" d="M563 1909q-55 0 -107 -35l-65 92q77 61 168 61q95 0 160 -59.5t65 -150.5q0 -66 -40 -118.5t-116 -74.5v-90h-108v154q143 29 143 129q0 39 -27.5 65.5t-72.5 26.5zM578 1323l-205 -237l-84 51l200 297h173l202 -297l-86 -51zM913 963h168v-963h-168v137 q-132 -155 -356 -155q-127 0 -238 66.5t-177 182t-66 250.5q0 136 66 251.5t177 182t238 66.5q224 0 356 -155v137zM580 145q139 0 236 98t97 238t-97 238t-236 98q-140 0 -238 -98t-98 -238t98 -238t238 -98z" />
<glyph unicode="&#x1eaa;" horiz-adv-x="1360" d="M544 2279q-47 0 -72.5 -45t-25.5 -114h-125q0 122 59.5 202t159.5 80q110 0 188 -112q12 -17 21 -27t26.5 -19.5t38.5 -9.5q97 0 97 160h123q0 -124 -58 -203.5t-162 -79.5q-112 0 -188 113q-36 55 -82 55zM593 2007h173l202 -297l-86 -51l-200 237l-205 -237l-84 51z M1137 0l-96 246h-722l-96 -246h-194l651 1578l651 -1578h-194zM383 408h595l-297 760z" />
<glyph unicode="&#x1eab;" horiz-adv-x="1253" d="M440 1706q-47 0 -72.5 -45t-25.5 -114h-125q0 122 59.5 202t159.5 80q110 0 188 -112q12 -17 21 -27t26.5 -19.5t38.5 -9.5q97 0 97 160h123q0 -124 -58 -203.5t-162 -79.5q-112 0 -188 113q-36 55 -82 55zM489 1434h173l202 -297l-86 -51l-200 237l-205 -237l-84 51z M913 963h168v-963h-168v137q-132 -155 -356 -155q-127 0 -238 66.5t-177 182t-66 250.5q0 136 66 251.5t177 182t238 66.5q224 0 356 -155v137zM580 145q139 0 236 98t97 238t-97 238t-236 98q-140 0 -238 -98t-98 -238t98 -238t238 -98z" />
<glyph unicode="&#x1eac;" horiz-adv-x="1360" d="M682 1896l-205 -237l-84 51l200 297h173l202 -297l-86 -51zM1331 0h-194l-96 246h-722l-96 -246h-194l651 1578zM383 408h595l-297 760zM682 -142q46 0 80 -34t34 -80q0 -48 -34 -81.5t-80 -33.5q-47 0 -81 33.5t-34 81.5q0 46 34.5 80t80.5 34z" />
<glyph unicode="&#x1ead;" horiz-adv-x="1253" d="M578 1323l-205 -237l-84 51l200 297h173l202 -297l-86 -51zM913 963h168v-963h-168v137q-132 -155 -356 -155q-127 0 -238 66.5t-177 182t-66 250.5q0 136 66 251.5t177 182t238 66.5q224 0 356 -155v137zM580 145q139 0 236 98t97 238t-97 238t-236 98q-140 0 -238 -98 t-98 -238t98 -238t238 -98zM625 -142q46 0 80 -34t34 -80q0 -48 -34 -81.5t-80 -33.5q-47 0 -81 33.5t-34 81.5q0 46 34.5 80t80.5 34z" />
<glyph unicode="&#x1eae;" horiz-adv-x="1360" d="M974 2405l-333 -289l-66 71l303 326zM680 1712q-148 0 -243 86t-95 230h136q0 -91 52.5 -150t149.5 -59q99 0 152 59t53 150h135q0 -144 -95 -230t-245 -86zM1137 0l-96 246h-722l-96 -246h-194l651 1578l651 -1578h-194zM383 408h595l-297 760z" />
<glyph unicode="&#x1eaf;" horiz-adv-x="1253" d="M870 1832l-333 -289l-66 71l303 326zM576 1139q-148 0 -243 86t-95 230h136q0 -91 52.5 -150t149.5 -59q99 0 152 59t53 150h135q0 -144 -95 -230t-245 -86zM913 963h168v-963h-168v137q-132 -155 -356 -155q-127 0 -238 66.5t-177 182t-66 250.5q0 136 66 251.5t177 182 t238 66.5q224 0 356 -155v137zM580 145q139 0 236 98t97 238t-97 238t-236 98q-140 0 -238 -98t-98 -238t98 -238t238 -98z" />
<glyph unicode="&#x1eb0;" horiz-adv-x="1360" d="M747 2187l-63 -71l-336 289l98 108zM680 1712q-148 0 -243 86t-95 230h136q0 -91 52.5 -150t149.5 -59q99 0 152 59t53 150h135q0 -144 -95 -230t-245 -86zM1137 0l-96 246h-722l-96 -246h-194l651 1578l651 -1578h-194zM383 408h595l-297 760z" />
<glyph unicode="&#x1eb1;" horiz-adv-x="1253" d="M643 1614l-63 -71l-336 289l98 108zM576 1139q-148 0 -243 86t-95 230h136q0 -91 52.5 -150t149.5 -59q99 0 152 59t53 150h135q0 -144 -95 -230t-245 -86zM913 963h168v-963h-168v137q-132 -155 -356 -155q-127 0 -238 66.5t-177 182t-66 250.5q0 136 66 251.5t177 182 t238 66.5q224 0 356 -155v137zM580 145q139 0 236 98t97 238t-97 238t-236 98q-140 0 -238 -98t-98 -238t98 -238t238 -98z" />
<glyph unicode="&#x1eb2;" horiz-adv-x="1360" d="M670 2472q-54 0 -107 -35l-65 92q77 61 168 61q95 0 160 -59.5t65 -150.5q0 -66 -40 -118.5t-116 -74.5v-90h-108v154q143 29 143 129q0 39 -27.5 65.5t-72.5 26.5zM680 1712q-148 0 -243 86t-95 230h136q0 -91 52.5 -150t149.5 -59q99 0 152 59t53 150h135 q0 -144 -95 -230t-245 -86zM1137 0l-96 246h-722l-96 -246h-194l651 1578l651 -1578h-194zM383 408h595l-297 760z" />
<glyph unicode="&#x1eb3;" horiz-adv-x="1253" d="M566 1899q-54 0 -107 -35l-65 92q77 61 168 61q95 0 160 -59.5t65 -150.5q0 -66 -40 -118.5t-116 -74.5v-90h-108v154q143 29 143 129q0 39 -27.5 65.5t-72.5 26.5zM576 1139q-148 0 -243 86t-95 230h136q0 -91 52.5 -150t149.5 -59q99 0 152 59t53 150h135 q0 -144 -95 -230t-245 -86zM913 963h168v-963h-168v137q-132 -155 -356 -155q-127 0 -238 66.5t-177 182t-66 250.5q0 136 66 251.5t177 182t238 66.5q224 0 356 -155v137zM580 145q139 0 236 98t97 238t-97 238t-236 98q-140 0 -238 -98t-98 -238t98 -238t238 -98z" />
<glyph unicode="&#x1eb4;" horiz-adv-x="1360" d="M547 2269q-47 0 -72.5 -45t-25.5 -114h-125q0 122 59.5 202t159.5 80q110 0 188 -112q12 -17 21 -27t26.5 -19.5t38.5 -9.5q97 0 97 160h123q0 -124 -58 -203.5t-162 -79.5q-112 0 -188 113q-36 55 -82 55zM680 1819q99 0 152 59t53 150h135q0 -144 -95 -230t-245 -86 q-148 0 -243 86t-95 230h136q0 -91 52.5 -150t149.5 -59zM1137 0l-96 246h-722l-96 -246h-194l651 1578l651 -1578h-194zM383 408h595l-297 760z" />
<glyph unicode="&#x1eb5;" horiz-adv-x="1253" d="M443 1696q-47 0 -72.5 -45t-25.5 -114h-125q0 122 59.5 202t159.5 80q110 0 188 -112q12 -17 21 -27t26.5 -19.5t38.5 -9.5q97 0 97 160h123q0 -124 -58 -203.5t-162 -79.5q-112 0 -188 113q-36 55 -82 55zM576 1246q99 0 152 59t53 150h135q0 -144 -95 -230t-245 -86 q-148 0 -243 86t-95 230h136q0 -91 52.5 -150t149.5 -59zM913 963h168v-963h-168v137q-132 -155 -356 -155q-127 0 -238 66.5t-177 182t-66 250.5q0 136 66 251.5t177 182t238 66.5q224 0 356 -155v137zM580 145q139 0 236 98t97 238t-97 238t-236 98q-140 0 -238 -98 t-98 -238t98 -238t238 -98z" />
<glyph unicode="&#x1eb6;" horiz-adv-x="1360" d="M680 1712q-148 0 -243 86t-95 230h136q0 -91 52.5 -150t149.5 -59q99 0 152 59t53 150h135q0 -144 -95 -230t-245 -86zM1331 0h-194l-96 246h-722l-96 -246h-194l651 1578zM383 408h595l-297 760zM682 -142q46 0 80 -34t34 -80q0 -48 -34 -81.5t-80 -33.5q-47 0 -81 33.5 t-34 81.5q0 46 34.5 80t80.5 34z" />
<glyph unicode="&#x1eb7;" horiz-adv-x="1253" d="M576 1139q-148 0 -243 86t-95 230h136q0 -91 52.5 -150t149.5 -59q99 0 152 59t53 150h135q0 -144 -95 -230t-245 -86zM913 963h168v-963h-168v137q-132 -155 -356 -155q-127 0 -238 66.5t-177 182t-66 250.5q0 136 66 251.5t177 182t238 66.5q224 0 356 -155v137z M580 145q139 0 236 98t97 238t-97 238t-236 98q-140 0 -238 -98t-98 -238t98 -238t238 -98zM625 -142q46 0 80 -34t34 -80q0 -48 -34 -81.5t-80 -33.5q-47 0 -81 33.5t-34 81.5q0 46 34.5 80t80.5 34z" />
<glyph unicode="&#x1eb8;" horiz-adv-x="1165" d="M1061 1368h-670v-516h584v-168h-584v-516h670v-168h-844v1536h844v-168zM639 -142q46 0 80 -34t34 -80q0 -48 -34 -81.5t-80 -33.5q-47 0 -81 33.5t-34 81.5q0 46 34.5 80t80.5 34z" />
<glyph unicode="&#x1eb9;" horiz-adv-x="1139" d="M1077 492v-33h-844q7 -137 107.5 -231.5t237.5 -94.5q90 0 167 43.5t125 118.5l142 -57q-63 -119 -178 -187.5t-254 -68.5q-140 0 -256 67t-182 181.5t-66 250.5q0 208 146 354t356 146q136 0 250.5 -64t181.5 -176.5t67 -248.5zM578 829q-115 0 -203.5 -64.5 t-123.5 -170.5h649q-33 105 -121 170t-201 65zM590 -142q46 0 80 -34t34 -80q0 -48 -34 -81.5t-80 -33.5q-47 0 -81 33.5t-34 81.5q0 46 34.5 80t80.5 34z" />
<glyph unicode="&#x1eba;" horiz-adv-x="1165" d="M627 2011q-55 0 -107 -35l-65 92q77 61 168 61q95 0 160 -59.5t65 -150.5q0 -66 -40 -118.5t-116 -74.5v-90h-108v154q143 29 143 129q0 39 -27.5 65.5t-72.5 26.5zM1061 1368h-670v-516h584v-168h-584v-516h670v-168h-844v1536h844v-168z" />
<glyph unicode="&#x1ebb;" horiz-adv-x="1139" d="M576 1448q-54 0 -107 -35l-65 92q77 61 168 61q95 0 160 -59.5t65 -150.5q0 -66 -40 -118.5t-116 -74.5v-90h-108v154q143 29 143 129q0 39 -27.5 65.5t-72.5 26.5zM1077 492v-33h-844q7 -137 107.5 -231.5t237.5 -94.5q90 0 167 43.5t125 118.5l142 -57 q-63 -119 -178 -187.5t-254 -68.5q-140 0 -256 67t-182 181.5t-66 250.5q0 208 146 354t356 146q136 0 250.5 -64t181.5 -176.5t67 -248.5zM578 829q-115 0 -203.5 -64.5t-123.5 -170.5h649q-33 105 -121 170t-201 65z" />
<glyph unicode="&#x1ebc;" horiz-adv-x="1165" d="M504 1808q-47 0 -72.5 -45t-25.5 -114h-125q0 122 59.5 202t159.5 80q110 0 188 -112q12 -17 21 -27t26.5 -19.5t38.5 -9.5q97 0 97 160h123q0 -124 -58 -203.5t-162 -79.5q-112 0 -188 113q-36 55 -82 55zM1061 1368h-670v-516h584v-168h-584v-516h670v-168h-844v1536 h844v-168z" />
<glyph unicode="&#x1ebd;" horiz-adv-x="1139" d="M453 1245q-47 0 -72.5 -45t-25.5 -114h-125q0 122 59.5 202t159.5 80q110 0 188 -112q12 -17 21 -27t26.5 -19.5t38.5 -9.5q97 0 97 160h123q0 -124 -58 -203.5t-162 -79.5q-112 0 -188 113q-36 55 -82 55zM1077 492v-33h-844q7 -137 107.5 -231.5t237.5 -94.5 q90 0 167 43.5t125 118.5l142 -57q-63 -119 -178 -187.5t-254 -68.5q-140 0 -256 67t-182 181.5t-66 250.5q0 208 146 354t356 146q136 0 250.5 -64t181.5 -176.5t67 -248.5zM578 829q-115 0 -203.5 -64.5t-123.5 -170.5h649q-33 105 -121 170t-201 65z" />
<glyph unicode="&#x1ebe;" horiz-adv-x="1165" d="M928 2415l-333 -289l-66 71l303 326zM639 1896l-205 -237l-84 51l200 297h173l202 -297l-86 -51zM1061 1368h-670v-516h584v-168h-584v-516h670v-168h-844v1536h844v-168z" />
<glyph unicode="&#x1ebf;" horiz-adv-x="1139" d="M877 1852l-333 -289l-66 71l303 326zM588 1333l-205 -237l-84 51l200 297h173l202 -297l-86 -51zM1077 492v-33h-844q7 -137 107.5 -231.5t237.5 -94.5q90 0 167 43.5t125 118.5l142 -57q-63 -119 -178 -187.5t-254 -68.5q-140 0 -256 67t-182 181.5t-66 250.5 q0 208 146 354t356 146q136 0 250.5 -64t181.5 -176.5t67 -248.5zM578 829q-115 0 -203.5 -64.5t-123.5 -170.5h649q-33 105 -121 170t-201 65z" />
<glyph unicode="&#x1ec0;" horiz-adv-x="1165" d="M701 2197l-63 -71l-336 289l98 108zM350 1710l200 297h173l202 -297l-86 -51l-200 237l-205 -237zM1061 1368h-670v-516h584v-168h-584v-516h670v-168h-844v1536h844v-168z" />
<glyph unicode="&#x1ec1;" horiz-adv-x="1139" d="M650 1634l-63 -71l-336 289l98 108zM299 1147l200 297h173l202 -297l-86 -51l-200 237l-205 -237zM1077 492v-33h-844q7 -137 107.5 -231.5t237.5 -94.5q90 0 167 43.5t125 118.5l142 -57q-63 -119 -178 -187.5t-254 -68.5q-140 0 -256 67t-182 181.5t-66 250.5 q0 208 146 354t356 146q136 0 250.5 -64t181.5 -176.5t67 -248.5zM578 829q-115 0 -203.5 -64.5t-123.5 -170.5h649q-33 105 -121 170t-201 65z" />
<glyph unicode="&#x1ec2;" horiz-adv-x="1165" d="M624 2482q-54 0 -107 -35l-65 92q77 61 168 61q95 0 160 -59.5t65 -150.5q0 -66 -40 -118.5t-116 -74.5v-90h-108v154q143 29 143 129q0 39 -27.5 65.5t-72.5 26.5zM639 1896l-205 -237l-84 51l200 297h173l202 -297l-86 -51zM1061 1368h-670v-516h584v-168h-584v-516 h670v-168h-844v1536h844v-168z" />
<glyph unicode="&#x1ec3;" horiz-adv-x="1139" d="M573 1919q-55 0 -107 -35l-65 92q77 61 168 61q95 0 160 -59.5t65 -150.5q0 -66 -40 -118.5t-116 -74.5v-90h-108v154q143 29 143 129q0 39 -27.5 65.5t-72.5 26.5zM588 1333l-205 -237l-84 51l200 297h173l202 -297l-86 -51zM1077 492v-33h-844q7 -137 107.5 -231.5 t237.5 -94.5q90 0 167 43.5t125 118.5l142 -57q-63 -119 -178 -187.5t-254 -68.5q-140 0 -256 67t-182 181.5t-66 250.5q0 208 146 354t356 146q136 0 250.5 -64t181.5 -176.5t67 -248.5zM578 829q-115 0 -203.5 -64.5t-123.5 -170.5h649q-33 105 -121 170t-201 65z" />
<glyph unicode="&#x1ec4;" horiz-adv-x="1165" d="M501 2279q-47 0 -72.5 -45t-25.5 -114h-125q0 122 59.5 202t159.5 80q110 0 188 -112q12 -17 21 -27t26.5 -19.5t38.5 -9.5q97 0 97 160h123q0 -124 -58 -203.5t-162 -79.5q-112 0 -188 113q-36 55 -82 55zM550 2007h173l202 -297l-86 -51l-200 237l-205 -237l-84 51z M1061 1368h-670v-516h584v-168h-584v-516h670v-168h-844v1536h844v-168z" />
<glyph unicode="&#x1ec5;" horiz-adv-x="1139" d="M450 1716q-47 0 -72.5 -45t-25.5 -114h-125q0 122 59.5 202t159.5 80q110 0 188 -112q12 -17 21 -27t26.5 -19.5t38.5 -9.5q97 0 97 160h123q0 -124 -58 -203.5t-162 -79.5q-112 0 -188 113q-36 55 -82 55zM499 1444h173l202 -297l-86 -51l-200 237l-205 -237l-84 51z M1077 492v-33h-844q7 -137 107.5 -231.5t237.5 -94.5q90 0 167 43.5t125 118.5l142 -57q-63 -119 -178 -187.5t-254 -68.5q-140 0 -256 67t-182 181.5t-66 250.5q0 208 146 354t356 146q136 0 250.5 -64t181.5 -176.5t67 -248.5zM578 829q-115 0 -203.5 -64.5t-123.5 -170.5 h649q-33 105 -121 170t-201 65z" />
<glyph unicode="&#x1ec6;" horiz-adv-x="1165" d="M639 1896l-205 -237l-84 51l200 297h173l202 -297l-86 -51zM1061 1368h-670v-516h584v-168h-584v-516h670v-168h-844v1536h844v-168zM639 -142q46 0 80 -34t34 -80q0 -48 -34 -81.5t-80 -33.5q-47 0 -81 33.5t-34 81.5q0 46 34.5 80t80.5 34z" />
<glyph unicode="&#x1ec7;" horiz-adv-x="1139" d="M588 1333l-205 -237l-84 51l200 297h173l202 -297l-86 -51zM1077 492v-33h-844q7 -137 107.5 -231.5t237.5 -94.5q90 0 167 43.5t125 118.5l142 -57q-63 -119 -178 -187.5t-254 -68.5q-140 0 -256 67t-182 181.5t-66 250.5q0 208 146 354t356 146q136 0 250.5 -64 t181.5 -176.5t67 -248.5zM578 829q-115 0 -203.5 -64.5t-123.5 -170.5h649q-33 105 -121 170t-201 65zM590 -142q46 0 80 -34t34 -80q0 -48 -34 -81.5t-80 -33.5q-47 0 -81 33.5t-34 81.5q0 46 34.5 80t80.5 34z" />
<glyph unicode="&#x1ec8;" horiz-adv-x="608" d="M248 1636v154q143 29 143 129q0 39 -27.5 65.5t-72.5 26.5q-55 0 -107 -35l-65 92q77 61 168 61q95 0 160 -59.5t65 -150.5q0 -66 -40 -118.5t-116 -74.5v-90h-108zM217 0v1536h174v-1536h-174z" />
<glyph unicode="&#x1ec9;" horiz-adv-x="516" d="M203 1063v154q143 29 143 129q0 39 -27.5 65.5t-72.5 26.5q-54 0 -107 -35l-65 92q77 61 168 61q95 0 160 -59.5t65 -150.5q0 -66 -40 -118.5t-116 -74.5v-90h-108zM174 0v963h168v-963h-168z" />
<glyph unicode="&#x1eca;" horiz-adv-x="608" d="M217 0v1536h174v-1536h-174zM303 -371q-47 0 -81 33.5t-34 81.5q0 46 34.5 80t80.5 34t80 -34t34 -80q0 -48 -34 -81.5t-80 -33.5z" />
<glyph unicode="&#x1ecb;" horiz-adv-x="514" d="M258 1141q-46 0 -79.5 32.5t-33.5 77.5q0 47 33.5 79t79.5 32q45 0 78 -32t33 -79q0 -45 -33 -77.5t-78 -32.5zM174 0v963h166v-963h-166zM248 -512q-47 0 -81 33.5t-34 81.5q0 46 34.5 80t80.5 34t80 -34t34 -80q0 -48 -34 -81.5t-80 -33.5z" />
<glyph unicode="&#x1ecc;" horiz-adv-x="1765" d="M883 -20q-215 0 -396.5 105.5t-287 286.5t-105.5 396t105.5 396t287 286.5t396.5 105.5q214 0 395.5 -105.5t287 -287t105.5 -395.5t-105.5 -395.5t-287 -287t-395.5 -105.5zM883 154q126 0 240 48t196 130t130 196t48 240t-48 240t-130 196t-196 130t-240 48 q-167 0 -308.5 -81.5t-224 -223t-82.5 -309.5t82.5 -309.5t224 -223t308.5 -81.5zM883 -371q-47 0 -81 33.5t-34 81.5q0 46 34.5 80t80.5 34t80 -34t34 -80q0 -48 -34 -81.5t-80 -33.5z" />
<glyph unicode="&#x1ecd;" horiz-adv-x="1155" d="M578 -18q-210 0 -357 146t-147 353q0 208 147 354t357 146q137 0 252 -66.5t182 -182t67 -251.5q0 -207 -146.5 -353t-354.5 -146zM578 145q138 0 235.5 98.5t97.5 237.5q0 140 -97.5 238t-235.5 98q-141 0 -238.5 -97.5t-97.5 -238.5q0 -140 97.5 -238t238.5 -98z M578 -371q-47 0 -81 33.5t-34 81.5q0 46 34.5 80t80.5 34t80 -34t34 -80q0 -48 -34 -81.5t-80 -33.5z" />
<glyph unicode="&#x1ece;" horiz-adv-x="1765" d="M828 1636v154q143 29 143 129q0 39 -27.5 65.5t-72.5 26.5q-55 0 -107 -35l-65 92q77 61 168 61q95 0 160 -59.5t65 -150.5q0 -66 -40 -118.5t-116 -74.5v-90h-108zM883 -20q-215 0 -396.5 105.5t-287 286.5t-105.5 396t105.5 396t287 286.5t396.5 105.5 q214 0 395.5 -105.5t287 -287t105.5 -395.5t-105.5 -395.5t-287 -287t-395.5 -105.5zM883 154q126 0 240 48t196 130t130 196t48 240t-48 240t-130 196t-196 130t-240 48q-167 0 -308.5 -81.5t-224 -223t-82.5 -309.5t82.5 -309.5t224 -223t308.5 -81.5z" />
<glyph unicode="&#x1ecf;" horiz-adv-x="1155" d="M523 1063v154q143 29 143 129q0 39 -27.5 65.5t-72.5 26.5q-54 0 -107 -35l-65 92q77 61 168 61q95 0 160 -59.5t65 -150.5q0 -66 -40 -118.5t-116 -74.5v-90h-108zM578 -18q-210 0 -357 146t-147 353q0 208 147 354t357 146q137 0 252 -66.5t182 -182t67 -251.5 q0 -207 -146.5 -353t-354.5 -146zM578 145q138 0 235.5 98.5t97.5 237.5q0 140 -97.5 238t-235.5 98q-141 0 -238.5 -97.5t-97.5 -238.5q0 -140 97.5 -238t238.5 -98z" />
<glyph unicode="&#x1ed0;" horiz-adv-x="1765" d="M839 2126l-66 71l303 326l96 -108zM678 1659l-84 51l200 297h173l202 -297l-86 -51l-200 237zM883 -20q-215 0 -396.5 105.5t-287 286.5t-105.5 396t105.5 396t287 286.5t396.5 105.5q214 0 395.5 -105.5t287 -287t105.5 -395.5t-105.5 -395.5t-287 -287t-395.5 -105.5z M883 154q126 0 240 48t196 130t130 196t48 240t-48 240t-130 196t-196 130t-240 48q-167 0 -308.5 -81.5t-224 -223t-82.5 -309.5t82.5 -309.5t224 -223t308.5 -81.5z" />
<glyph unicode="&#x1ed1;" horiz-adv-x="1155" d="M534 1553l-66 71l303 326l96 -108zM373 1086l-84 51l200 297h173l202 -297l-86 -51l-200 237zM578 -18q-210 0 -357 146t-147 353q0 208 147 354t357 146q137 0 252 -66.5t182 -182t67 -251.5q0 -207 -146.5 -353t-354.5 -146zM578 145q138 0 235.5 98.5t97.5 237.5 q0 140 -97.5 238t-235.5 98q-141 0 -238.5 -97.5t-97.5 -238.5q0 -140 97.5 -238t238.5 -98z" />
<glyph unicode="&#x1ed2;" horiz-adv-x="1765" d="M882 2126l-336 289l98 108l301 -326zM678 1659l-84 51l200 297h173l202 -297l-86 -51l-200 237zM883 -20q-215 0 -396.5 105.5t-287 286.5t-105.5 396t105.5 396t287 286.5t396.5 105.5q214 0 395.5 -105.5t287 -287t105.5 -395.5t-105.5 -395.5t-287 -287t-395.5 -105.5 zM883 154q126 0 240 48t196 130t130 196t48 240t-48 240t-130 196t-196 130t-240 48q-167 0 -308.5 -81.5t-224 -223t-82.5 -309.5t82.5 -309.5t224 -223t308.5 -81.5z" />
<glyph unicode="&#x1ed3;" horiz-adv-x="1155" d="M577 1553l-336 289l98 108l301 -326zM373 1086l-84 51l200 297h173l202 -297l-86 -51l-200 237zM578 -18q-210 0 -357 146t-147 353q0 208 147 354t357 146q137 0 252 -66.5t182 -182t67 -251.5q0 -207 -146.5 -353t-354.5 -146zM578 145q138 0 235.5 98.5t97.5 237.5 q0 140 -97.5 238t-235.5 98q-141 0 -238.5 -97.5t-97.5 -238.5q0 -140 97.5 -238t238.5 -98z" />
<glyph unicode="&#x1ed4;" horiz-adv-x="1765" d="M825 2107v154q143 29 143 129q0 39 -27.5 65.5t-72.5 26.5q-55 0 -107 -35l-65 92q77 61 168 61q95 0 160 -59.5t65 -150.5q0 -66 -40 -118.5t-116 -74.5v-90h-108zM678 1659l-84 51l200 297h173l202 -297l-86 -51l-200 237zM883 -20q-215 0 -396.5 105.5t-287 286.5 t-105.5 396t105.5 396t287 286.5t396.5 105.5q214 0 395.5 -105.5t287 -287t105.5 -395.5t-105.5 -395.5t-287 -287t-395.5 -105.5zM883 154q126 0 240 48t196 130t130 196t48 240t-48 240t-130 196t-196 130t-240 48q-167 0 -308.5 -81.5t-224 -223t-82.5 -309.5 t82.5 -309.5t224 -223t308.5 -81.5z" />
<glyph unicode="&#x1ed5;" horiz-adv-x="1155" d="M520 1534v154q143 29 143 129q0 39 -27.5 65.5t-72.5 26.5q-55 0 -107 -35l-65 92q77 61 168 61q95 0 160 -59.5t65 -150.5q0 -66 -40 -118.5t-116 -74.5v-90h-108zM373 1086l-84 51l200 297h173l202 -297l-86 -51l-200 237zM578 -18q-210 0 -357 146t-147 353 q0 208 147 354t357 146q137 0 252 -66.5t182 -182t67 -251.5q0 -207 -146.5 -353t-354.5 -146zM578 145q138 0 235.5 98.5t97.5 237.5q0 140 -97.5 238t-235.5 98q-141 0 -238.5 -97.5t-97.5 -238.5q0 -140 97.5 -238t238.5 -98z" />
<glyph unicode="&#x1ed6;" horiz-adv-x="1765" d="M1015 2111q-112 0 -188 113q-36 55 -82 55q-47 0 -72.5 -45t-25.5 -114h-125q0 122 59.5 202t159.5 80q110 0 188 -112q12 -17 21 -27t26.5 -19.5t38.5 -9.5q97 0 97 160h123q0 -124 -58 -203.5t-162 -79.5zM678 1659l-84 51l200 297h173l202 -297l-86 -51l-200 237z M883 -20q-215 0 -396.5 105.5t-287 286.5t-105.5 396t105.5 396t287 286.5t396.5 105.5q214 0 395.5 -105.5t287 -287t105.5 -395.5t-105.5 -395.5t-287 -287t-395.5 -105.5zM883 154q126 0 240 48t196 130t130 196t48 240t-48 240t-130 196t-196 130t-240 48 q-167 0 -308.5 -81.5t-224 -223t-82.5 -309.5t82.5 -309.5t224 -223t308.5 -81.5z" />
<glyph unicode="&#x1ed7;" horiz-adv-x="1155" d="M710 1538q-112 0 -188 113q-36 55 -82 55q-47 0 -72.5 -45t-25.5 -114h-125q0 122 59.5 202t159.5 80q110 0 188 -112q12 -17 21 -27t26.5 -19.5t38.5 -9.5q97 0 97 160h123q0 -124 -58 -203.5t-162 -79.5zM373 1086l-84 51l200 297h173l202 -297l-86 -51l-200 237z M578 -18q-210 0 -357 146t-147 353q0 208 147 354t357 146q137 0 252 -66.5t182 -182t67 -251.5q0 -207 -146.5 -353t-354.5 -146zM578 145q138 0 235.5 98.5t97.5 237.5q0 140 -97.5 238t-235.5 98q-141 0 -238.5 -97.5t-97.5 -238.5q0 -140 97.5 -238t238.5 -98z" />
<glyph unicode="&#x1ed8;" horiz-adv-x="1765" d="M678 1659l-84 51l200 297h173l202 -297l-86 -51l-200 237zM883 -20q-215 0 -396.5 105.5t-287 286.5t-105.5 396t105.5 396t287 286.5t396.5 105.5q214 0 395.5 -105.5t287 -287t105.5 -395.5t-105.5 -395.5t-287 -287t-395.5 -105.5zM883 154q126 0 240 48t196 130 t130 196t48 240t-48 240t-130 196t-196 130t-240 48q-167 0 -308.5 -81.5t-224 -223t-82.5 -309.5t82.5 -309.5t224 -223t308.5 -81.5zM883 -371q-47 0 -81 33.5t-34 81.5q0 46 34.5 80t80.5 34t80 -34t34 -80q0 -48 -34 -81.5t-80 -33.5z" />
<glyph unicode="&#x1ed9;" horiz-adv-x="1155" d="M373 1086l-84 51l200 297h173l202 -297l-86 -51l-200 237zM578 -18q-210 0 -357 146t-147 353q0 208 147 354t357 146q137 0 252 -66.5t182 -182t67 -251.5q0 -207 -146.5 -353t-354.5 -146zM578 145q138 0 235.5 98.5t97.5 237.5q0 140 -97.5 238t-235.5 98 q-141 0 -238.5 -97.5t-97.5 -238.5q0 -140 97.5 -238t238.5 -98zM578 -371q-47 0 -81 33.5t-34 81.5q0 46 34.5 80t80.5 34t80 -34t34 -80q0 -48 -34 -81.5t-80 -33.5z" />
<glyph unicode="&#x1eda;" horiz-adv-x="1765" d="M1175 1944l-333 -289l-66 71l303 326zM1628 1504h142v-125q0 -123 -53.5 -184.5t-132.5 -65.5q87 -168 87 -361q0 -214 -105.5 -395.5t-287 -287t-395.5 -105.5q-215 0 -396.5 105.5t-287 286.5t-105.5 396t105.5 396t287 286.5t396.5 105.5q201 0 374 -94t281 -255 q47 4 68.5 45t21.5 88v164zM883 154q126 0 240 48t196 130t130 196t48 240t-48 240t-130 196t-196 130t-240 48q-167 0 -308.5 -81.5t-224 -223t-82.5 -309.5t82.5 -309.5t224 -223t308.5 -81.5z" />
<glyph unicode="&#x1edb;" horiz-adv-x="1155" d="M870 1371l-333 -289l-66 71l303 326zM1132 1014h142v-125q0 -128 -57 -189t-140 -61q-15 0 -24 1q26 -76 26 -159q0 -207 -146.5 -353t-354.5 -146q-210 0 -357 146t-147 353q0 208 147 354t357 146q142 0 260 -71.5t182 -191.5q5 -1 14 -1q51 0 74.5 42t23.5 91v164z M578 145q138 0 235.5 98.5t97.5 237.5q0 140 -97.5 238t-235.5 98q-141 0 -238.5 -97.5t-97.5 -238.5q0 -140 97.5 -238t238.5 -98z" />
<glyph unicode="&#x1edc;" horiz-adv-x="1765" d="M948 1726l-63 -71l-336 289l98 108zM1628 1504h142v-125q0 -123 -53.5 -184.5t-132.5 -65.5q87 -168 87 -361q0 -214 -105.5 -395.5t-287 -287t-395.5 -105.5q-215 0 -396.5 105.5t-287 286.5t-105.5 396t105.5 396t287 286.5t396.5 105.5q201 0 374 -94t281 -255 q47 4 68.5 45t21.5 88v164zM883 154q126 0 240 48t196 130t130 196t48 240t-48 240t-130 196t-196 130t-240 48q-167 0 -308.5 -81.5t-224 -223t-82.5 -309.5t82.5 -309.5t224 -223t308.5 -81.5z" />
<glyph unicode="&#x1edd;" horiz-adv-x="1155" d="M643 1153l-63 -71l-336 289l98 108zM1132 1014h142v-125q0 -128 -57 -189t-140 -61q-15 0 -24 1q26 -76 26 -159q0 -207 -146.5 -353t-354.5 -146q-210 0 -357 146t-147 353q0 208 147 354t357 146q142 0 260 -71.5t182 -191.5q5 -1 14 -1q51 0 74.5 42t23.5 91v164z M578 145q138 0 235.5 98.5t97.5 237.5q0 140 -97.5 238t-235.5 98q-141 0 -238.5 -97.5t-97.5 -238.5q0 -140 97.5 -238t238.5 -98z" />
<glyph unicode="&#x1ede;" horiz-adv-x="1765" d="M871 2011q-55 0 -107 -35l-65 92q77 61 168 61q95 0 160 -59.5t65 -150.5q0 -66 -40 -118.5t-116 -74.5v-90h-108v154q143 29 143 129q0 39 -27.5 65.5t-72.5 26.5zM1628 1504h142v-125q0 -123 -53.5 -184.5t-132.5 -65.5q87 -168 87 -361q0 -214 -105.5 -395.5 t-287 -287t-395.5 -105.5q-215 0 -396.5 105.5t-287 286.5t-105.5 396t105.5 396t287 286.5t396.5 105.5q201 0 374 -94t281 -255q47 4 68.5 45t21.5 88v164zM883 154q126 0 240 48t196 130t130 196t48 240t-48 240t-130 196t-196 130t-240 48q-167 0 -308.5 -81.5 t-224 -223t-82.5 -309.5t82.5 -309.5t224 -223t308.5 -81.5z" />
<glyph unicode="&#x1edf;" horiz-adv-x="1155" d="M566 1438q-54 0 -107 -35l-65 92q77 61 168 61q95 0 160 -59.5t65 -150.5q0 -66 -40 -118.5t-116 -74.5v-90h-108v154q143 29 143 129q0 39 -27.5 65.5t-72.5 26.5zM1132 1014h142v-125q0 -128 -57 -189t-140 -61q-15 0 -24 1q26 -76 26 -159q0 -207 -146.5 -353 t-354.5 -146q-210 0 -357 146t-147 353q0 208 147 354t357 146q142 0 260 -71.5t182 -191.5q5 -1 14 -1q51 0 74.5 42t23.5 91v164zM578 145q138 0 235.5 98.5t97.5 237.5q0 140 -97.5 238t-235.5 98q-141 0 -238.5 -97.5t-97.5 -238.5q0 -140 97.5 -238t238.5 -98z" />
<glyph unicode="&#x1ee0;" horiz-adv-x="1765" d="M748 1808q-47 0 -72.5 -45t-25.5 -114h-125q0 122 59.5 202t159.5 80q110 0 188 -112q12 -17 21 -27t26.5 -19.5t38.5 -9.5q97 0 97 160h123q0 -124 -58 -203.5t-162 -79.5q-112 0 -188 113q-36 55 -82 55zM1628 1504h142v-125q0 -123 -53.5 -184.5t-132.5 -65.5 q87 -168 87 -361q0 -214 -105.5 -395.5t-287 -287t-395.5 -105.5q-215 0 -396.5 105.5t-287 286.5t-105.5 396t105.5 396t287 286.5t396.5 105.5q201 0 374 -94t281 -255q47 4 68.5 45t21.5 88v164zM883 154q126 0 240 48t196 130t130 196t48 240t-48 240t-130 196t-196 130 t-240 48q-167 0 -308.5 -81.5t-224 -223t-82.5 -309.5t82.5 -309.5t224 -223t308.5 -81.5z" />
<glyph unicode="&#x1ee1;" horiz-adv-x="1155" d="M443 1235q-47 0 -72.5 -45t-25.5 -114h-125q0 122 59.5 202t159.5 80q110 0 188 -112q12 -17 21 -27t26.5 -19.5t38.5 -9.5q97 0 97 160h123q0 -124 -58 -203.5t-162 -79.5q-112 0 -188 113q-36 55 -82 55zM1132 1014h142v-125q0 -128 -57 -189t-140 -61q-15 0 -24 1 q26 -76 26 -159q0 -207 -146.5 -353t-354.5 -146q-210 0 -357 146t-147 353q0 208 147 354t357 146q142 0 260 -71.5t182 -191.5q5 -1 14 -1q51 0 74.5 42t23.5 91v164zM578 145q138 0 235.5 98.5t97.5 237.5q0 140 -97.5 238t-235.5 98q-141 0 -238.5 -97.5t-97.5 -238.5 q0 -140 97.5 -238t238.5 -98z" />
<glyph unicode="&#x1ee2;" horiz-adv-x="1765" d="M1628 1504h142v-125q0 -123 -53.5 -184.5t-132.5 -65.5q87 -168 87 -361q0 -214 -105.5 -395.5t-287 -287t-395.5 -105.5q-215 0 -396.5 105.5t-287 286.5t-105.5 396t105.5 396t287 286.5t396.5 105.5q201 0 374 -94t281 -255q47 4 68.5 45t21.5 88v164zM883 154 q126 0 240 48t196 130t130 196t48 240t-48 240t-130 196t-196 130t-240 48q-167 0 -308.5 -81.5t-224 -223t-82.5 -309.5t82.5 -309.5t224 -223t308.5 -81.5zM883 -142q46 0 80 -34t34 -80q0 -48 -34 -81.5t-80 -33.5q-47 0 -81 33.5t-34 81.5q0 46 34.5 80t80.5 34z" />
<glyph unicode="&#x1ee3;" horiz-adv-x="1155" d="M1132 1014h142v-125q0 -128 -57 -189t-140 -61q-15 0 -24 1q26 -76 26 -159q0 -207 -146.5 -353t-354.5 -146q-210 0 -357 146t-147 353q0 208 147 354t357 146q142 0 260 -71.5t182 -191.5q5 -1 14 -1q51 0 74.5 42t23.5 91v164zM578 145q138 0 235.5 98.5t97.5 237.5 q0 140 -97.5 238t-235.5 98q-141 0 -238.5 -97.5t-97.5 -238.5q0 -140 97.5 -238t238.5 -98zM578 -142q46 0 80 -34t34 -80q0 -48 -34 -81.5t-80 -33.5q-47 0 -81 33.5t-34 81.5q0 46 34.5 80t80.5 34z" />
<glyph unicode="&#x1ee4;" horiz-adv-x="1526" d="M762 -20q-252 0 -416 148.5t-164 375.5v1032h174v-1004q0 -164 114.5 -271t291.5 -107q176 0 291.5 107t115.5 271v1004h174v-1032q0 -150 -74.5 -269.5t-207 -187t-299.5 -67.5zM762 -371q-47 0 -81 33.5t-34 81.5q0 46 34.5 80t80.5 34t80 -34t34 -80q0 -48 -34 -81.5 t-80 -33.5z" />
<glyph unicode="&#x1ee5;" horiz-adv-x="1032" d="M516 -18q-168 0 -268.5 99t-100.5 267v615h168v-596q0 -102 56 -162t145 -60q90 0 145.5 60t55.5 162v596h168v-615q0 -168 -100.5 -267t-268.5 -99zM516 -371q-47 0 -81 33.5t-34 81.5q0 46 34.5 80t80.5 34t80 -34t34 -80q0 -48 -34 -81.5t-80 -33.5z" />
<glyph unicode="&#x1ee6;" horiz-adv-x="1526" d="M707 1636v154q143 29 143 129q0 39 -27.5 65.5t-72.5 26.5q-54 0 -107 -35l-65 92q77 61 168 61q95 0 160 -59.5t65 -150.5q0 -66 -40 -118.5t-116 -74.5v-90h-108zM762 -20q-252 0 -416 148.5t-164 375.5v1032h174v-1004q0 -164 114.5 -271t291.5 -107q176 0 291.5 107 t115.5 271v1004h174v-1032q0 -150 -74.5 -269.5t-207 -187t-299.5 -67.5z" />
<glyph unicode="&#x1ee7;" horiz-adv-x="1032" d="M461 1063v154q143 29 143 129q0 39 -27.5 65.5t-72.5 26.5q-55 0 -107 -35l-65 92q77 61 168 61q95 0 160 -59.5t65 -150.5q0 -66 -40 -118.5t-116 -74.5v-90h-108zM516 -18q-168 0 -268.5 99t-100.5 267v615h168v-596q0 -102 56 -162t145 -60q90 0 145.5 60t55.5 162 v596h168v-615q0 -168 -100.5 -267t-268.5 -99z" />
<glyph unicode="&#x1ee8;" horiz-adv-x="1679" d="M1054 1944l-333 -289l-66 71l303 326zM1450 1538h142v-125q0 -128 -57 -189t-140 -61q-20 0 -52 5v-664q0 -150 -74.5 -269.5t-207 -187t-299.5 -67.5q-252 0 -416 148.5t-164 375.5v1032h174v-1004q0 -164 114.5 -271t291.5 -107q176 0 291.5 107t115.5 271v1004h174 v-295h9q51 0 74.5 42t23.5 91v164z" />
<glyph unicode="&#x1ee9;" horiz-adv-x="1032" d="M808 1371l-333 -289l-66 71l303 326zM1046 963h142v-125q0 -128 -57 -189t-140 -61q-49 0 -106 18v-258q0 -168 -100.5 -267t-268.5 -99t-268.5 99t-100.5 267v615h168v-596q0 -102 56 -162t145 -60q90 0 145.5 60t55.5 162v596h168v-284q34 -13 63 -13q51 0 74.5 42 t23.5 91v164z" />
<glyph unicode="&#x1eea;" horiz-adv-x="1679" d="M827 1726l-63 -71l-336 289l98 108zM1450 1538h142v-125q0 -128 -57 -189t-140 -61q-20 0 -52 5v-664q0 -150 -74.5 -269.5t-207 -187t-299.5 -67.5q-252 0 -416 148.5t-164 375.5v1032h174v-1004q0 -164 114.5 -271t291.5 -107q176 0 291.5 107t115.5 271v1004h174v-295 h9q51 0 74.5 42t23.5 91v164z" />
<glyph unicode="&#x1eeb;" horiz-adv-x="1032" d="M581 1153l-63 -71l-336 289l98 108zM1046 963h142v-125q0 -128 -57 -189t-140 -61q-49 0 -106 18v-258q0 -168 -100.5 -267t-268.5 -99t-268.5 99t-100.5 267v615h168v-596q0 -102 56 -162t145 -60q90 0 145.5 60t55.5 162v596h168v-284q34 -13 63 -13q51 0 74.5 42 t23.5 91v164z" />
<glyph unicode="&#x1eec;" horiz-adv-x="1679" d="M750 2011q-54 0 -107 -35l-65 92q77 61 168 61q95 0 160 -59.5t65 -150.5q0 -66 -40 -118.5t-116 -74.5v-90h-108v154q143 29 143 129q0 39 -27.5 65.5t-72.5 26.5zM1450 1538h142v-125q0 -128 -57 -189t-140 -61q-20 0 -52 5v-664q0 -150 -74.5 -269.5t-207 -187 t-299.5 -67.5q-252 0 -416 148.5t-164 375.5v1032h174v-1004q0 -164 114.5 -271t291.5 -107q176 0 291.5 107t115.5 271v1004h174v-295h9q51 0 74.5 42t23.5 91v164z" />
<glyph unicode="&#x1eed;" horiz-adv-x="1032" d="M504 1438q-55 0 -107 -35l-65 92q77 61 168 61q95 0 160 -59.5t65 -150.5q0 -66 -40 -118.5t-116 -74.5v-90h-108v154q143 29 143 129q0 39 -27.5 65.5t-72.5 26.5zM1046 963h142v-125q0 -128 -57 -189t-140 -61q-49 0 -106 18v-258q0 -168 -100.5 -267t-268.5 -99 t-268.5 99t-100.5 267v615h168v-596q0 -102 56 -162t145 -60q90 0 145.5 60t55.5 162v596h168v-284q34 -13 63 -13q51 0 74.5 42t23.5 91v164z" />
<glyph unicode="&#x1eee;" horiz-adv-x="1679" d="M627 1808q-47 0 -72.5 -45t-25.5 -114h-125q0 122 59.5 202t159.5 80q110 0 188 -112q12 -17 21 -27t26.5 -19.5t38.5 -9.5q97 0 97 160h123q0 -124 -58 -203.5t-162 -79.5q-112 0 -188 113q-36 55 -82 55zM1450 1538h142v-125q0 -128 -57 -189t-140 -61q-20 0 -52 5 v-664q0 -150 -74.5 -269.5t-207 -187t-299.5 -67.5q-252 0 -416 148.5t-164 375.5v1032h174v-1004q0 -164 114.5 -271t291.5 -107q176 0 291.5 107t115.5 271v1004h174v-295h9q51 0 74.5 42t23.5 91v164z" />
<glyph unicode="&#x1eef;" horiz-adv-x="1032" d="M381 1235q-47 0 -72.5 -45t-25.5 -114h-125q0 122 59.5 202t159.5 80q110 0 188 -112q12 -17 21 -27t26.5 -19.5t38.5 -9.5q97 0 97 160h123q0 -124 -58 -203.5t-162 -79.5q-112 0 -188 113q-36 55 -82 55zM1046 963h142v-125q0 -128 -57 -189t-140 -61q-49 0 -106 18 v-258q0 -168 -100.5 -267t-268.5 -99t-268.5 99t-100.5 267v615h168v-596q0 -102 56 -162t145 -60q90 0 145.5 60t55.5 162v596h168v-284q34 -13 63 -13q51 0 74.5 42t23.5 91v164z" />
<glyph unicode="&#x1ef0;" horiz-adv-x="1679" d="M1450 1538h142v-125q0 -128 -57 -189t-140 -61q-20 0 -52 5v-664q0 -150 -74.5 -269.5t-207 -187t-299.5 -67.5q-252 0 -416 148.5t-164 375.5v1032h174v-1004q0 -164 114.5 -271t291.5 -107q176 0 291.5 107t115.5 271v1004h174v-295h9q51 0 74.5 42t23.5 91v164z M762 -142q46 0 80 -34t34 -80q0 -48 -34 -81.5t-80 -33.5q-47 0 -81 33.5t-34 81.5q0 46 34.5 80t80.5 34z" />
<glyph unicode="&#x1ef1;" horiz-adv-x="1032" d="M1046 963h142v-125q0 -128 -57 -189t-140 -61q-49 0 -106 18v-258q0 -168 -100.5 -267t-268.5 -99t-268.5 99t-100.5 267v615h168v-596q0 -102 56 -162t145 -60q90 0 145.5 60t55.5 162v596h168v-284q34 -13 63 -13q51 0 74.5 42t23.5 91v164zM516 -142q46 0 80 -34 t34 -80q0 -48 -34 -81.5t-80 -33.5q-47 0 -81 33.5t-34 81.5q0 46 34.5 80t80.5 34z" />
<glyph unicode="&#x1ef2;" horiz-adv-x="1270" d="M702 1726l-63 -71l-336 289l98 108zM1257 1536l-534 -808v-728h-174v725l-537 811h217l407 -629l408 629h213z" />
<glyph unicode="&#x1ef3;" horiz-adv-x="985" d="M546 1153l-63 -71l-336 289l98 108zM782 963h189l-584 -1455h-178l194 492l-391 963h187l300 -773z" />
<glyph unicode="&#x1ef4;" horiz-adv-x="1270" d="M549 0v725l-537 811h217l407 -629l408 629h213l-534 -808v-728h-174zM637 -142q46 0 80 -34t34 -80q0 -48 -34 -81.5t-80 -33.5q-47 0 -81 33.5t-34 81.5q0 46 34.5 80t80.5 34z" />
<glyph unicode="&#x1ef5;" horiz-adv-x="985" d="M782 963h189l-584 -1455h-178l194 492l-391 963h187l300 -773zM745 -269q46 0 80 -34t34 -80q0 -48 -34 -81.5t-80 -33.5q-47 0 -81 33.5t-34 81.5q0 46 34.5 80t80.5 34z" />
<glyph unicode="&#x1ef6;" horiz-adv-x="1270" d="M625 2011q-55 0 -107 -35l-65 92q77 61 168 61q95 0 160 -59.5t65 -150.5q0 -66 -40 -118.5t-116 -74.5v-90h-108v154q143 29 143 129q0 39 -27.5 65.5t-72.5 26.5zM1257 1536l-534 -808v-728h-174v725l-537 811h217l407 -629l408 629h213z" />
<glyph unicode="&#x1ef7;" horiz-adv-x="985" d="M469 1438q-55 0 -107 -35l-65 92q77 61 168 61q95 0 160 -59.5t65 -150.5q0 -66 -40 -118.5t-116 -74.5v-90h-108v154q143 29 143 129q0 39 -27.5 65.5t-72.5 26.5zM782 963h189l-584 -1455h-178l194 492l-391 963h187l300 -773z" />
<glyph unicode="&#x1ef8;" horiz-adv-x="1270" d="M502 1808q-47 0 -72.5 -45t-25.5 -114h-125q0 122 59.5 202t159.5 80q110 0 188 -112q12 -17 21 -27t26.5 -19.5t38.5 -9.5q97 0 97 160h123q0 -124 -58 -203.5t-162 -79.5q-112 0 -188 113q-36 55 -82 55zM1257 1536l-534 -808v-728h-174v725l-537 811h217l407 -629 l408 629h213z" />
<glyph unicode="&#x1ef9;" horiz-adv-x="985" d="M346 1235q-47 0 -72.5 -45t-25.5 -114h-125q0 122 59.5 202t159.5 80q110 0 188 -112q12 -17 21 -27t26.5 -19.5t38.5 -9.5q97 0 97 160h123q0 -124 -58 -203.5t-162 -79.5q-112 0 -188 113q-36 55 -82 55zM782 963h189l-584 -1455h-178l194 492l-391 963h187l300 -773z " />
<glyph unicode="&#x2000;" horiz-adv-x="1300" />
<glyph unicode="&#x2001;" horiz-adv-x="2600" />
<glyph unicode="&#x2002;" horiz-adv-x="1300" />
<glyph unicode="&#x2003;" horiz-adv-x="2600" />
<glyph unicode="&#x2004;" horiz-adv-x="866" />
<glyph unicode="&#x2005;" horiz-adv-x="650" />
<glyph unicode="&#x2006;" horiz-adv-x="433" />
<glyph unicode="&#x2007;" horiz-adv-x="433" />
<glyph unicode="&#x2008;" horiz-adv-x="325" />
<glyph unicode="&#x2009;" horiz-adv-x="520" />
<glyph unicode="&#x200a;" horiz-adv-x="144" />
<glyph unicode="&#x2010;" horiz-adv-x="1044" d="M164 416v131h717v-131h-717z" />
<glyph unicode="&#x2011;" horiz-adv-x="1044" d="M164 416v131h717v-131h-717z" />
<glyph unicode="&#x2012;" horiz-adv-x="1044" d="M164 416v131h717v-131h-717z" />
<glyph unicode="&#x2013;" horiz-adv-x="1352" d="M164 416v131h1024v-131h-1024z" />
<glyph unicode="&#x2014;" horiz-adv-x="2048" d="M0 416v131h2048v-131h-2048z" />
<glyph unicode="&#x2018;" horiz-adv-x="563" d="M306 1165q27 -15 44 -41.5t17 -58.5q0 -46 -34.5 -80.5t-80.5 -34.5t-80.5 34t-34.5 81q0 18 4 31l150 440h125z" />
<glyph unicode="&#x2019;" horiz-adv-x="565" d="M426 1442q0 -18 -4 -31l-150 -440h-125l110 371q-27 15 -44 41.5t-17 58.5q0 46 34.5 80.5t80.5 34.5q47 0 81 -34.5t34 -80.5z" />
<glyph unicode="&#x201a;" horiz-adv-x="565" d="M426 94q0 -18 -4 -31l-150 -440h-125l110 371q-27 15 -44 41.5t-17 58.5q0 46 34.5 80.5t80.5 34.5q47 0 81 -34.5t34 -80.5z" />
<glyph unicode="&#x201c;" horiz-adv-x="936" d="M291 1536h125l-110 -371q27 -15 44 -41.5t17 -58.5q0 -46 -34.5 -80.5t-80.5 -34.5t-80.5 34t-34.5 81q0 18 4 31zM679 1165q27 -15 44 -41.5t17 -58.5q0 -46 -34.5 -80.5t-80.5 -34.5q-47 0 -81 34t-34 81q0 18 4 31l150 440h125z" />
<glyph unicode="&#x201d;" horiz-adv-x="948" d="M811 1442q0 -18 -4 -31l-150 -440h-125l110 371q-27 15 -44 41.5t-17 58.5q0 46 34.5 80.5t80.5 34.5t80.5 -34.5t34.5 -80.5zM311 1555q47 0 81 -34.5t34 -80.5q0 -18 -4 -31l-150 -440h-125l110 371q-27 15 -44 41.5t-17 58.5q0 46 34.5 80.5t80.5 34.5z" />
<glyph unicode="&#x201e;" horiz-adv-x="909" d="M311 209q47 0 81 -34.5t34 -80.5q0 -18 -4 -31l-150 -440h-125l110 371q-27 15 -44 41.5t-17 58.5q0 46 34.5 80.5t80.5 34.5zM770 94q0 -18 -4 -31l-150 -440h-125l110 371q-27 15 -44 41.5t-17 58.5q0 46 34.5 80.5t80.5 34.5q47 0 81 -34.5t34 -80.5z" />
<glyph unicode="&#x2020;" horiz-adv-x="958" d="M891 969v-115h-359v-1202h-114v1202h-350v115h350v403h114v-403h359z" />
<glyph unicode="&#x2021;" horiz-adv-x="1051" d="M936 1018h-358v-676h358v-113h-358v-413h-115v413h-350v113h350v676h-350v115h350v403h115v-403h358v-115z" />
<glyph unicode="&#x2022;" horiz-adv-x="856" d="M428 414q-103 0 -177.5 72.5t-74.5 177.5q0 101 75.5 176t176.5 75q100 0 175 -75t75 -176q0 -105 -74.5 -177.5t-175.5 -72.5z" />
<glyph unicode="&#x2026;" horiz-adv-x="1767" d="M317 -20q-46 0 -80 33.5t-34 80.5q0 46 34 80.5t80 34.5q47 0 81 -34.5t34 -80.5q0 -47 -34 -80.5t-81 -33.5zM876 -20q-46 0 -80 33.5t-34 80.5q0 46 34 80.5t80 34.5t80.5 -34.5t34.5 -80.5q0 -47 -34 -80.5t-81 -33.5zM1450 -20q-46 0 -80 33.5t-34 80.5q0 46 34 80.5 t80 34.5t80.5 -34.5t34.5 -80.5q0 -47 -34 -80.5t-81 -33.5z" />
<glyph unicode="&#x202f;" horiz-adv-x="520" />
<glyph unicode="&#x2030;" horiz-adv-x="2255" d="M418 928q-131 0 -223.5 92.5t-92.5 224.5q0 129 92.5 220t223.5 91q129 0 220 -91t91 -220q0 -132 -91 -224.5t-220 -92.5zM223 0l938 1536h180l-933 -1536h-185zM418 1067q72 0 123 52t51 126q0 71 -51 122.5t-123 51.5q-74 0 -126 -51.5t-52 -122.5q0 -74 52 -126 t126 -52zM1155 -16q-130 0 -221.5 92t-91.5 223q0 129 92 220t221 91t221 -91t92 -220q0 -130 -92 -222.5t-221 -92.5zM1849 -16q-130 0 -221.5 92t-91.5 223q0 129 92 220t221 91t221.5 -91t92.5 -220q0 -130 -92.5 -222.5t-221.5 -92.5zM1155 121q73 0 124.5 52t51.5 126 q0 72 -52 123t-124 51q-73 0 -124.5 -51t-51.5 -123q0 -74 51.5 -126t124.5 -52zM1849 121q74 0 125 52t51 126q0 72 -51.5 123t-124.5 51t-124.5 -51t-51.5 -123q0 -74 51.5 -126t124.5 -52z" />
<glyph unicode="&#x2039;" horiz-adv-x="586" d="M367 104l-312 377l312 377h143l-311 -377l311 -377h-143z" />
<glyph unicode="&#x203a;" horiz-adv-x="586" d="M76 104l311 377l-311 377h143l311 -377l-311 -377h-143z" />
<glyph unicode="&#x2044;" horiz-adv-x="510" d="M-369 0l1071 1536h177l-1072 -1536h-176z" />
<glyph unicode="&#x205f;" horiz-adv-x="650" />
<glyph unicode="&#x20ac;" horiz-adv-x="1669" d="M1000 154q119 0 234 47.5t198 132.5l125 -123q-104 -104 -256.5 -167.5t-300.5 -63.5q-261 0 -466.5 150.5t-283.5 389.5h-113v144h81q-7 48 -7 104q0 42 5 94h-79v144h110q76 243 282.5 396.5t470.5 153.5q148 0 300.5 -63.5t256.5 -167.5l-125 -123q-83 85 -198 132.5 t-234 47.5q-191 0 -344.5 -103.5t-223.5 -272.5h715v-144h-755q-7 -43 -7 -94q0 -53 9 -104h753v-144h-711q71 -165 223.5 -265.5t340.5 -100.5z" />
<glyph unicode="&#x2113;" horiz-adv-x="1221" d="M684 -10q-98 0 -175 30.5t-124.5 82.5t-74.5 116t-34 137v23q-20 -12 -44 -28.5t-53 -38t-46 -33.5l-53 98q25 19 93 67t101 76v557q0 110 22 198t58 144.5t86 93.5t102.5 52.5t110.5 15.5q152 0 231 -99t79 -245q0 -185 -133.5 -369t-387.5 -391v-55q0 -144 82.5 -220.5 t196.5 -76.5q111 0 203.5 65t144.5 154l84 -74q-168 -280 -469 -280zM440 635q90 82 155.5 151t122.5 145.5t86.5 152t29.5 147.5q0 227 -183 227q-37 0 -72 -18t-67.5 -57t-52 -112t-19.5 -171v-465z" />
<glyph unicode="&#x2116;" horiz-adv-x="2798" d="M1227 411v1125h172v-1603l-967 1193v-1126h-174v1603zM2151 371q-210 0 -357 146t-147 353q0 208 147 354t357 146q137 0 252 -66.5t182 -182t67 -251.5q0 -207 -146.5 -353t-354.5 -146zM2151 1206q-141 0 -238.5 -97.5t-97.5 -238.5q0 -140 97.5 -238t238.5 -98 q138 0 235.5 98.5t97.5 237.5q0 140 -97.5 238t-235.5 98zM1706 0v127h924v-127h-924z" />
<glyph unicode="&#x2122;" horiz-adv-x="1602" d="M137 1442v94h447v-94h-174v-625h-101v625h-172zM1233 1536h108v-719h-100v549l-235 -391l-236 387v-545h-102v719h108l229 -380z" />
<glyph unicode="&#x212e;" horiz-adv-x="1974" d="M1006 -18q-178 0 -340 62t-279.5 167.5t-186.5 250.5t-69 304q0 215 117 397t318.5 287.5t439.5 105.5q179 0 341 -62.5t279.5 -168t186.5 -252t69 -307.5v-21h-1417q-12 0 -12 -8v-430q0 -24 18 -49q106 -109 245 -171t292 -62q167 0 313.5 69.5t251.5 192.5h125 q-119 -141 -301.5 -223t-390.5 -82zM465 788h1087q9 0 9 15v430q0 33 -21 51q-107 105 -243.5 165t-288.5 60q-151 0 -289 -61.5t-246 -169.5q-20 -23 -20 -53v-422q0 -15 12 -15z" />
<glyph unicode="&#x2190;" horiz-adv-x="1778" d="M1622 851v-247h-1038v-260l-498 385l498 385v-263h1038z" />
<glyph unicode="&#x2191;" horiz-adv-x="897" d="M326 0v1038h-263l385 498l385 -498h-260v-1038h-247z" />
<glyph unicode="&#x2192;" horiz-adv-x="1784" d="M156 851h1038v263l498 -385l-498 -385v260h-1038v247z" />
<glyph unicode="&#x2193;" horiz-adv-x="897" d="M326 1536h247v-1038h260l-385 -498l-385 498h263v1038z" />
<glyph unicode="&#x2194;" horiz-adv-x="2195" d="M582 295l-498 387l498 385v-260l1024 -2v260l497 -385l-497 -385v262l-1024 2v-264z" />
<glyph unicode="&#x2195;" horiz-adv-x="967" d="M483 -145l-385 497h262v672h-262l385 498l385 -498h-260v-672h260z" />
<glyph unicode="&#x2196;" horiz-adv-x="1382" d="M1312 315l-175 -175l-734 734l-183 -184l-80 625l624 -80l-186 -186z" />
<glyph unicode="&#x2197;" horiz-adv-x="1382" d="M70 315l734 734l-186 186l624 80l-80 -625l-183 184l-734 -734z" />
<glyph unicode="&#x2198;" horiz-adv-x="1382" d="M70 1221l175 175l734 -734l183 184l80 -625l-624 80l186 186z" />
<glyph unicode="&#x2199;" horiz-adv-x="1382" d="M1312 1221l-734 -734l186 -186l-624 -80l80 625l183 -184l734 734z" />
<glyph unicode="&#x2202;" horiz-adv-x="1169" d="M360 1446q180 28 330.5 -66t236.5 -282t85 -426q-1 -185 -66.5 -336.5t-179.5 -237.5t-252 -86q-96 0 -173 29.5t-126.5 85t-74 129.5t-18.5 167t44 195q43 115 114 199.5t156.5 125t183 45t192.5 -38.5q-51 188 -171 284t-281 72v141zM844 672q1 60 -5 124 q-158 102 -300.5 41.5t-216.5 -262.5q-43 -125 -32.5 -222t71.5 -155.5t155 -58.5q86 0 160.5 69.5t120 192.5t47.5 271z" />
<glyph unicode="&#x2205;" horiz-adv-x="1552" d="M1235 1002q154 -173 154 -406q0 -166 -82 -307t-223.5 -223t-307.5 -82q-231 0 -405 153l-88 -88l-54 53l89 89q-154 173 -154 405q0 166 82 307t223 223t307 82q230 0 406 -153l88 88l53 -53zM307 596q0 -174 112 -304l661 661q-130 112 -304 112q-195 0 -332 -137 t-137 -332zM776 127q195 0 332 137t137 332q0 174 -111 304l-662 -662q132 -111 304 -111z" />
<glyph unicode="&#x220f;" horiz-adv-x="1614" d="M289 0v1288h-150v152h1336v-152h-150v-1288h-151v1288h-734v-1288h-151z" />
<glyph unicode="&#x2211;" horiz-adv-x="1389" d="M98 -242v123l738 717l-738 717v125h1182v-162h-907l684 -680l-684 -680h907v-160h-1182z" />
<glyph unicode="&#x2212;" horiz-adv-x="1231" d="M254 596v160h723v-160h-723z" />
<glyph unicode="&#x221a;" horiz-adv-x="1423" d="M442 -160l-231 713h-139v139h239l203 -622l715 1495l129 -54l-799 -1671h-117z" />
<glyph unicode="&#x221e;" horiz-adv-x="1716" d="M481 287q-124 0 -207 87.5t-88 221.5q5 134 88 221.5t207 87.5q179 0 375 -205q92 98 189.5 151.5t185.5 53.5q129 0 209.5 -84.5t85.5 -224.5q-5 -140 -85.5 -224.5t-209.5 -84.5q-88 0 -185.5 53t-189.5 152q-194 -205 -375 -205zM481 426q124 0 283 170 q-159 170 -283 170q-63 0 -108.5 -49t-46.5 -121q1 -72 46.5 -121t108.5 -49zM1231 426q65 0 108.5 47.5t46.5 122.5q-3 75 -46.5 122.5t-108.5 47.5q-125 0 -283 -170q158 -170 283 -170z" />
<glyph unicode="&#x222b;" horiz-adv-x="901" d="M61 -457v172q163 0 234.5 68.5t71.5 224.5v1137q0 132 81.5 217.5t200.5 85.5q113 0 199 -70l-88 -135q-42 39 -101 39q-53 0 -88.5 -38t-35.5 -114v-1124q0 -220 -127 -341.5t-347 -121.5z" />
<glyph unicode="&#x2248;" horiz-adv-x="1430" d="M930 649q-51 0 -95.5 14t-82 43.5t-55.5 47t-48 51.5q-38 41 -68.5 59.5t-66.5 18.5q-74 0 -117 -60t-41 -153h-149q-3 163 82 263.5t227 100.5q78 0 135 -36t123 -113q26 -30 40 -44.5t43 -30t61 -15.5q68 0 111 58.5t42 154.5h150q3 -156 -77.5 -257.5t-213.5 -101.5z M930 227q-48 0 -90.5 13t-76.5 37.5t-55 43.5t-48 48l-6.5 6.5t-4.5 5.5q-39 43 -67.5 61.5t-67.5 18.5q-74 -1 -117 -61.5t-41 -151.5h-149q-3 163 82 263.5t227 100.5q79 0 137 -36t121 -113q23 -28 39 -44t44.5 -31t60.5 -15q69 0 111.5 58t41.5 155h150 q3 -156 -77.5 -257.5t-213.5 -101.5z" />
<glyph unicode="&#x2264;" horiz-adv-x="1425" d="M1264 1440v-176l-955 -436l955 -439v-180l-1131 522v193zM133 0v127h1131v-127h-1131z" />
<glyph unicode="&#x2265;" horiz-adv-x="1425" d="M162 1440l1130 -516v-193l-1130 -522v180l954 439l-954 436v176zM162 0v127h1130v-127h-1130z" />
<glyph unicode="&#x25ca;" horiz-adv-x="1370" d="M686 106l-618 617l618 618l617 -616zM688 297l424 428l-424 426l-428 -428z" />
<glyph unicode="&#x25fc;" horiz-adv-x="965" d="M0 965h965v-965h-965v965z" />
<glyph unicode="&#xf8ff;" horiz-adv-x="1827" d="M913 0q-158 0 -302 62t-248 166t-166 248t-62 302t62 302.5t166 248.5t248 165.5t302 61.5q127 0 246 -39t214.5 -111t167.5 -168t111.5 -214.5t39.5 -245.5q0 -211 -104.5 -390t-284 -283.5t-390.5 -104.5zM913 74q144 0 274.5 56t224.5 150.5t150 224.5t56 273 t-55.5 273.5t-150 225t-225 150.5t-274.5 56q-143 0 -273 -56t-224.5 -150.5t-150.5 -225t-56 -273.5t56 -273t150.5 -224.5t224.5 -150.5t273 -56zM1321 444q-14 0 -25 13l-297 295q-11 12 -11 27t11 26l297 297q11 10 26 10t26 -10q10 -11 10 -26.5t-10 -26.5l-271 -271 l271 -270q22 -22 0 -51q-11 -13 -27 -13zM506 444q-16 0 -26.5 11t-10.5 26v594q0 16 10.5 26.5t26.5 10.5q15 0 26 -10.5t11 -26.5v-594q0 -15 -11 -26t-26 -11zM913 444q-15 0 -25.5 11t-10.5 26v594q0 16 10.5 26.5t25.5 10.5q16 0 26.5 -10.5t10.5 -26.5v-594 q0 -15 -10.5 -26t-26.5 -11zM616 741q-15 0 -25.5 11t-10.5 26q0 16 10.5 26.5t25.5 10.5h187q15 0 26 -10.5t11 -26.5q0 -15 -11 -26t-26 -11h-187z" />
<glyph unicode="&#xfb00;" horiz-adv-x="1212" d="M1204 963v-160h-264v-803h-168v803h-387v-803h-168v803h-151v6h-11v154h162v297q0 138 78 218.5t209 80.5q91 0 131 -29v-166q-49 37 -111 37q-63 0 -101 -44.5t-38 -117.5v-276h387v297q0 138 78 218.5t209 80.5q91 0 131 -29v-166q-49 37 -111 37q-63 0 -101 -44.5 t-38 -117.5v-276h264z" />
<glyph unicode="&#xfb03;" horiz-adv-x="1675" d="M217 0v809h-162v154h162v297q0 138 78 218.5t209 80.5q91 0 131 -29v-166q-49 37 -111 37q-63 0 -101 -44.5t-38 -117.5v-276h387v297q0 138 78 218.5t209 80.5q91 0 131 -29v-166q-49 37 -111 37q-63 0 -101 -44.5t-38 -117.5v-276h561v-963h-166v809h-395v-809h-168 v809h-387v-809h-168zM1419 1141q-46 0 -79 32t-33 78q0 47 33 79t79 32t78.5 -32t32.5 -79q0 -45 -33 -77.5t-78 -32.5z" />
<glyph unicode="&#xfb04;" horiz-adv-x="1696" d="M940 963h264v-160h-264v-803h-168v803h-387v-803h-168v803h-151v6h-11v154h162v297q0 138 78 218.5t209 80.5q91 0 131 -29v-166q-49 37 -111 37q-63 0 -101 -44.5t-38 -117.5v-276h387v297q0 138 78 218.5t209 80.5q91 0 131 -29v-166q-49 37 -111 37q-63 0 -101 -44.5 t-38 -117.5v-276zM1354 1536h168v-1536h-168v1536z" />
<glyph horiz-adv-x="987" d="M391 1536v-1362h567v-174h-741v1536h174zM969 1536l-154 -573h-125l86 573h193z" />
<glyph horiz-adv-x="987" d="M391 1536v-1362h567v-174h-741v1536h174zM969 1536l-154 -573h-125l86 573h193z" />
<glyph horiz-adv-x="516" d="M258 1133q-47 0 -81 33.5t-34 79.5q0 49 34 82t81 33t81 -33t34 -82q0 -46 -34.5 -79.5t-80.5 -33.5zM174 0v963h168v-963h-168z" />
<glyph horiz-adv-x="1024" d="M494 983q173 0 279 -103.5t106 -275.5v-604h-158v109q-121 -127 -301 -127q-144 0 -240 76.5t-96 211.5q0 132 108 214.5t357 107.5l172 17q-1 107 -63 166t-166 59q-76 0 -144 -31t-141 -90l-84 131q176 139 371 139zM432 125q92 0 166 46t123 132v172l-115 -12 q-91 -10 -157 -25t-104 -32.5t-60 -40.5t-28.5 -43.5t-6.5 -47.5q0 -74 48.5 -111.5t133.5 -37.5z" />
<glyph horiz-adv-x="1024" d="M781 1371l-333 -289l-66 71l303 326zM494 983q173 0 279 -103.5t106 -275.5v-604h-158v109q-121 -127 -301 -127q-144 0 -240 76.5t-96 211.5q0 132 108 214.5t357 107.5l172 17q-1 107 -63 166t-166 59q-76 0 -144 -31t-141 -90l-84 131q176 139 371 139zM432 125 q92 0 166 46t123 132v172l-115 -12q-91 -10 -157 -25t-104 -32.5t-60 -40.5t-28.5 -43.5t-6.5 -47.5q0 -74 48.5 -111.5t133.5 -37.5z" />
<glyph horiz-adv-x="1024" d="M487 1139q-148 0 -243 86t-95 230h136q0 -91 52.5 -150t149.5 -59q99 0 152 59t53 150h135q0 -144 -95 -230t-245 -86zM494 983q173 0 279 -103.5t106 -275.5v-604h-158v109q-121 -127 -301 -127q-144 0 -240 76.5t-96 211.5q0 132 108 214.5t357 107.5l172 17 q-1 107 -63 166t-166 59q-76 0 -144 -31t-141 -90l-84 131q176 139 371 139zM432 125q92 0 166 46t123 132v172l-115 -12q-91 -10 -157 -25t-104 -32.5t-60 -40.5t-28.5 -43.5t-6.5 -47.5q0 -74 48.5 -111.5t133.5 -37.5z" />
<glyph horiz-adv-x="1024" d="M781 1832l-333 -289l-66 71l303 326zM487 1139q-148 0 -243 86t-95 230h136q0 -91 52.5 -150t149.5 -59q99 0 152 59t53 150h135q0 -144 -95 -230t-245 -86zM494 983q173 0 279 -103.5t106 -275.5v-604h-158v109q-121 -127 -301 -127q-144 0 -240 76.5t-96 211.5 q0 132 108 214.5t357 107.5l172 17q-1 107 -63 166t-166 59q-76 0 -144 -31t-141 -90l-84 131q176 139 371 139zM432 125q92 0 166 46t123 132v172l-115 -12q-91 -10 -157 -25t-104 -32.5t-60 -40.5t-28.5 -43.5t-6.5 -47.5q0 -74 48.5 -111.5t133.5 -37.5z" />
<glyph horiz-adv-x="1024" d="M487 1139q-148 0 -243 86t-95 230h136q0 -91 52.5 -150t149.5 -59q99 0 152 59t53 150h135q0 -144 -95 -230t-245 -86zM494 983q173 0 279 -103.5t106 -275.5v-604h-158v109q-121 -127 -301 -127q-144 0 -240 76.5t-96 211.5q0 132 108 214.5t357 107.5l172 17 q-1 107 -63 166t-166 59q-76 0 -144 -31t-141 -90l-84 131q176 139 371 139zM432 125q92 0 166 46t123 132v172l-115 -12q-91 -10 -157 -25t-104 -32.5t-60 -40.5t-28.5 -43.5t-6.5 -47.5q0 -74 48.5 -111.5t133.5 -37.5zM489 -142q46 0 80 -34t34 -80q0 -48 -34 -81.5 t-80 -33.5q-47 0 -81 33.5t-34 81.5q0 46 34.5 80t80.5 34z" />
<glyph horiz-adv-x="1024" d="M554 1614l-63 -71l-336 289l98 108zM487 1139q-148 0 -243 86t-95 230h136q0 -91 52.5 -150t149.5 -59q99 0 152 59t53 150h135q0 -144 -95 -230t-245 -86zM494 983q173 0 279 -103.5t106 -275.5v-604h-158v109q-121 -127 -301 -127q-144 0 -240 76.5t-96 211.5 q0 132 108 214.5t357 107.5l172 17q-1 107 -63 166t-166 59q-76 0 -144 -31t-141 -90l-84 131q176 139 371 139zM432 125q92 0 166 46t123 132v172l-115 -12q-91 -10 -157 -25t-104 -32.5t-60 -40.5t-28.5 -43.5t-6.5 -47.5q0 -74 48.5 -111.5t133.5 -37.5z" />
<glyph horiz-adv-x="1024" d="M477 1899q-55 0 -107 -35l-65 92q77 61 168 61q95 0 160 -59.5t65 -150.5q0 -66 -40 -118.5t-116 -74.5v-90h-108v154q143 29 143 129q0 39 -27.5 65.5t-72.5 26.5zM487 1139q-148 0 -243 86t-95 230h136q0 -91 52.5 -150t149.5 -59q99 0 152 59t53 150h135 q0 -144 -95 -230t-245 -86zM494 983q173 0 279 -103.5t106 -275.5v-604h-158v109q-121 -127 -301 -127q-144 0 -240 76.5t-96 211.5q0 132 108 214.5t357 107.5l172 17q-1 107 -63 166t-166 59q-76 0 -144 -31t-141 -90l-84 131q176 139 371 139zM432 125q92 0 166 46 t123 132v172l-115 -12q-91 -10 -157 -25t-104 -32.5t-60 -40.5t-28.5 -43.5t-6.5 -47.5q0 -74 48.5 -111.5t133.5 -37.5z" />
<glyph horiz-adv-x="1024" d="M354 1696q-47 0 -72.5 -45t-25.5 -114h-125q0 122 59.5 202t159.5 80q110 0 188 -112q12 -17 21 -27t26.5 -19.5t38.5 -9.5q97 0 97 160h123q0 -124 -58 -203.5t-162 -79.5q-112 0 -188 113q-36 55 -82 55zM487 1246q99 0 152 59t53 150h135q0 -144 -95 -230t-245 -86 q-148 0 -243 86t-95 230h136q0 -91 52.5 -150t149.5 -59zM494 983q173 0 279 -103.5t106 -275.5v-604h-158v109q-121 -127 -301 -127q-144 0 -240 76.5t-96 211.5q0 132 108 214.5t357 107.5l172 17q-1 107 -63 166t-166 59q-76 0 -144 -31t-141 -90l-84 131 q176 139 371 139zM432 125q92 0 166 46t123 132v172l-115 -12q-91 -10 -157 -25t-104 -32.5t-60 -40.5t-28.5 -43.5t-6.5 -47.5q0 -74 48.5 -111.5t133.5 -37.5z" />
<glyph horiz-adv-x="1024" d="M573 1125h-173l-200 297l88 53l201 -240l198 240l88 -53zM494 983q173 0 279 -103.5t106 -275.5v-604h-158v109q-121 -127 -301 -127q-144 0 -240 76.5t-96 211.5q0 132 108 214.5t357 107.5l172 17q-1 107 -63 166t-166 59q-76 0 -144 -31t-141 -90l-84 131 q176 139 371 139zM432 125q92 0 166 46t123 132v172l-115 -12q-91 -10 -157 -25t-104 -32.5t-60 -40.5t-28.5 -43.5t-6.5 -47.5q0 -74 48.5 -111.5t133.5 -37.5z" />
<glyph horiz-adv-x="1024" d="M489 1323l-205 -237l-84 51l200 297h173l202 -297l-86 -51zM494 983q173 0 279 -103.5t106 -275.5v-604h-158v109q-121 -127 -301 -127q-144 0 -240 76.5t-96 211.5q0 132 108 214.5t357 107.5l172 17q-1 107 -63 166t-166 59q-76 0 -144 -31t-141 -90l-84 131 q176 139 371 139zM432 125q92 0 166 46t123 132v172l-115 -12q-91 -10 -157 -25t-104 -32.5t-60 -40.5t-28.5 -43.5t-6.5 -47.5q0 -74 48.5 -111.5t133.5 -37.5z" />
<glyph horiz-adv-x="1024" d="M301 1141q-47 0 -81 33t-34 79q0 49 34 82t81 33t81 -33t34 -82q0 -45 -34.5 -78.5t-80.5 -33.5zM678 1141q-47 0 -81 33t-34 79q0 49 34 82t81 33q48 0 81 -33t33 -82q0 -46 -33.5 -79t-80.5 -33zM494 983q173 0 279 -103.5t106 -275.5v-604h-158v109 q-121 -127 -301 -127q-144 0 -240 76.5t-96 211.5q0 132 108 214.5t357 107.5l172 17q-1 107 -63 166t-166 59q-76 0 -144 -31t-141 -90l-84 131q176 139 371 139zM432 125q92 0 166 46t123 132v172l-115 -12q-91 -10 -157 -25t-104 -32.5t-60 -40.5t-28.5 -43.5t-6.5 -47.5 q0 -74 48.5 -111.5t133.5 -37.5z" />
<glyph horiz-adv-x="1024" d="M554 1153l-63 -71l-336 289l98 108zM494 983q173 0 279 -103.5t106 -275.5v-604h-158v109q-121 -127 -301 -127q-144 0 -240 76.5t-96 211.5q0 132 108 214.5t357 107.5l172 17q-1 107 -63 166t-166 59q-76 0 -144 -31t-141 -90l-84 131q176 139 371 139zM432 125 q92 0 166 46t123 132v172l-115 -12q-91 -10 -157 -25t-104 -32.5t-60 -40.5t-28.5 -43.5t-6.5 -47.5q0 -74 48.5 -111.5t133.5 -37.5z" />
<glyph horiz-adv-x="1024" d="M807 1287v-115h-635v115h635zM494 983q173 0 279 -103.5t106 -275.5v-604h-158v109q-121 -127 -301 -127q-144 0 -240 76.5t-96 211.5q0 132 108 214.5t357 107.5l172 17q-1 107 -63 166t-166 59q-76 0 -144 -31t-141 -90l-84 131q176 139 371 139zM432 125q92 0 166 46 t123 132v172l-115 -12q-91 -10 -157 -25t-104 -32.5t-60 -40.5t-28.5 -43.5t-6.5 -47.5q0 -74 48.5 -111.5t133.5 -37.5z" />
<glyph horiz-adv-x="1024" d="M909 -311l82 -115q-112 -112 -277 -104q-105 5 -167 60t-62 151q0 180 236 333v95q-121 -127 -301 -127q-144 0 -240 76.5t-96 211.5q0 132 108 214.5t357 107.5l172 17q-1 107 -63 166t-166 59q-76 0 -144 -31t-141 -90l-84 131q176 139 371 139q173 0 279 -103.5 t106 -275.5v-604h-11q-114 -48 -189 -122.5t-75 -158.5q0 -55 33 -82.5t86 -27.5q47 0 98 21.5t88 58.5zM432 125q92 0 166 46t123 132v172l-115 -12q-91 -10 -157 -25t-104 -32.5t-60 -40.5t-28.5 -43.5t-6.5 -47.5q0 -74 48.5 -111.5t133.5 -37.5z" />
<glyph horiz-adv-x="1024" d="M509 1126q-89 0 -153 64t-64 151q0 89 64 152t153 63q88 0 150.5 -63t62.5 -152q0 -87 -63 -151t-150 -64zM509 1468q-51 0 -87 -37.5t-36 -89.5q0 -53 35.5 -88.5t87.5 -35.5q51 0 87 35.5t36 88.5q0 51 -36 89t-87 38zM494 983q173 0 279 -103.5t106 -275.5v-604h-158 v109q-121 -127 -301 -127q-144 0 -240 76.5t-96 211.5q0 132 108 214.5t357 107.5l172 17q-1 107 -63 166t-166 59q-76 0 -144 -31t-141 -90l-84 131q176 139 371 139zM432 125q92 0 166 46t123 132v172l-115 -12q-91 -10 -157 -25t-104 -32.5t-60 -40.5t-28.5 -43.5 t-6.5 -47.5q0 -74 48.5 -111.5t133.5 -37.5z" />
<glyph horiz-adv-x="1024" d="M354 1235q-47 0 -72.5 -45t-25.5 -114h-125q0 122 59.5 202t159.5 80q110 0 188 -112q12 -17 21 -27t26.5 -19.5t38.5 -9.5q97 0 97 160h123q0 -124 -58 -203.5t-162 -79.5q-112 0 -188 113q-36 55 -82 55zM494 983q173 0 279 -103.5t106 -275.5v-604h-158v109 q-121 -127 -301 -127q-144 0 -240 76.5t-96 211.5q0 132 108 214.5t357 107.5l172 17q-1 107 -63 166t-166 59q-76 0 -144 -31t-141 -90l-84 131q176 139 371 139zM432 125q92 0 166 46t123 132v172l-115 -12q-91 -10 -157 -25t-104 -32.5t-60 -40.5t-28.5 -43.5t-6.5 -47.5 q0 -74 48.5 -111.5t133.5 -37.5z" />
<glyph horiz-adv-x="1255" d="M913 826v710h168v-1536h-168v137q-132 -155 -356 -155q-127 0 -238 66.5t-177 182t-66 250.5q0 136 66 251.5t177 182t238 66.5q224 0 356 -155zM1277 1536h193l-154 -573h-125zM580 145q139 0 236 98t97 238t-97 238t-236 98q-140 0 -238 -98t-98 -238t98 -238t238 -98z " />
<glyph horiz-adv-x="1253" d="M833 1535l-100 -416h-192l168 416h124zM909 963h170v-963q0 -137 -67.5 -252t-183.5 -181.5t-253 -66.5q-145 0 -266.5 76t-185.5 201l135 94q42 -93 127 -150t190 -57q139 0 236.5 98t97.5 238v125q-122 -143 -336 -143q-102 0 -194.5 39.5t-159 106t-106 159 t-39.5 194.5q0 137 66.5 252t181.5 181.5t251 66.5q214 0 336 -143v125zM578 145q138 0 235.5 99t97.5 237q0 140 -97.5 238t-235.5 98q-141 0 -238.5 -97.5t-97.5 -238.5q0 -139 97.5 -237.5t238.5 -98.5z" />
<glyph horiz-adv-x="516" d="M174 0v1536h168v-1536h-168zM581 963h-125l86 573h193z" />
<glyph horiz-adv-x="633" d="M563 1638h193l-154 -573h-125zM401 1309v-346h201v-154h-201v-809h-170v809h-202v154h202v346h170z" />
<glyph horiz-adv-x="1255" d="M913 826v710h168v-1536h-168v137q-132 -155 -356 -155q-127 0 -238 66.5t-177 182t-66 250.5q0 136 66 251.5t177 182t238 66.5q224 0 356 -155zM1277 1536h193l-154 -573h-125zM580 145q139 0 236 98t97 238t-97 238t-236 98q-140 0 -238 -98t-98 -238t98 -238t238 -98z " />
<glyph horiz-adv-x="1253" d="M833 1535l-100 -416h-192l168 416h124zM909 963h170v-963q0 -137 -67.5 -252t-183.5 -181.5t-253 -66.5q-145 0 -266.5 76t-185.5 201l135 94q42 -93 127 -150t190 -57q139 0 236.5 98t97.5 238v125q-122 -143 -336 -143q-102 0 -194.5 39.5t-159 106t-106 159 t-39.5 194.5q0 137 66.5 252t181.5 181.5t251 66.5q214 0 336 -143v125zM578 145q138 0 235.5 99t97.5 237q0 140 -97.5 238t-235.5 98q-141 0 -238.5 -97.5t-97.5 -238.5q0 -139 97.5 -237.5t238.5 -98.5z" />
<glyph horiz-adv-x="516" d="M174 0v1536h168v-1536h-168zM581 963h-125l86 573h193z" />
<glyph horiz-adv-x="633" d="M563 1638h193l-154 -573h-125zM401 1309v-346h201v-154h-201v-809h-170v809h-202v154h202v346h170z" />
<glyph horiz-adv-x="1219" d="M1188 963v-154h-201v-809h-170v809h-432v-809h-168v809h-162v154h162v297q0 138 78 218.5t209 80.5q91 0 131 -29v-166q-49 37 -111 37q-63 0 -101 -44.5t-38 -117.5v-276h432v346h170v-346h201z" />
<glyph horiz-adv-x="1198" d="M1167 963v-154h-201v-809h-170v809h-395v-809h-170v809h-202v154h202v346h170v-346h395v346h170v-346h201z" />
<glyph horiz-adv-x="1327" d="M664 -20q-157 0 -283.5 102.5t-198 282.5t-71.5 403q0 225 67 403.5t193.5 281.5t292.5 103q164 0 291 -103t194.5 -281.5t67.5 -403.5q0 -222 -72 -403t-199 -283t-282 -102zM666 133q172 0 274 174t102 461q0 291 -105.5 452.5t-270.5 161.5q-166 0 -272.5 -161.5 t-106.5 -452.5q0 -288 102.5 -461.5t276.5 -173.5z" />
<glyph horiz-adv-x="721" d="M338 0v1362h-318v174h492v-1536h-174z" />
<glyph horiz-adv-x="1157" d="M413 174h672v-174h-1044v16q206 211 350.5 374t229.5 273t132 198.5t61.5 144t14.5 116.5q0 124 -79 193t-197 69q-127 0 -203 -78.5t-76 -205.5l-188 2q0 134 63.5 239.5t172 162t241.5 55.5q194 -2 317.5 -117.5t123.5 -306.5q0 -89 -29.5 -183t-77.5 -181t-128 -191.5 t-160.5 -194.5t-195.5 -211z" />
<glyph horiz-adv-x="1204" d="M586 -20q-146 0 -266 55t-190.5 157.5t-70.5 233.5l174 2q0 -130 99.5 -207.5t253.5 -77.5q156 0 254 81t98 220q0 140 -98 218.5t-254 78.5h-156v164h148q121 0 193.5 71.5t72.5 178.5q0 106 -72 172t-194 66q-120 0 -194.5 -63t-74.5 -163h-174q0 172 127 280.5 t316 108.5q187 0 313.5 -108.5t126.5 -282.5q0 -113 -57.5 -196.5t-161.5 -128.5q147 -46 230 -151t83 -253q0 -136 -70.5 -240.5t-189.5 -160t-266 -55.5z" />
<glyph horiz-adv-x="1249" d="M1221 487v-163h-273v-324h-174v324h-741v112l698 1100h217v-1049h273zM261 487h513v836z" />
<glyph horiz-adv-x="1247" d="M659 1022q213 0 352.5 -142t139.5 -364q0 -232 -152 -382t-383 -150q-76 0 -148 18t-136 54.5t-113.5 89t-82 126t-40.5 160.5h185q15 -93 69 -158t122.5 -92.5t145.5 -27.5q149 0 246 100t97 254q0 155 -96 254.5t-236 99.5q-86 0 -167.5 -40.5t-133.5 -112.5h-183 l140 827h798v-168h-660l-77 -452q123 106 313 106z" />
<glyph horiz-adv-x="1202" d="M1139 528q6 -143 -63 -269t-191.5 -200.5t-266.5 -74.5q-226 0 -386.5 142.5t-170.5 356.5q-8 195 132 369l542 684h215l-449 -535q59 23 148 23q62 0 128.5 -22t129 -65t113 -101.5t83 -138.5t36.5 -169zM616 154q159 0 260.5 109.5t92.5 262.5q-10 158 -115.5 254.5 t-253.5 96.5q-171 0 -273.5 -113.5t-93.5 -278.5q10 -151 115.5 -241t267.5 -90z" />
<glyph horiz-adv-x="1128" d="M39 1536h1065v-115l-795 -1421h-205l783 1370h-848v166z" />
<glyph horiz-adv-x="1180" d="M588 -20q-208 0 -350 134.5t-142 329.5q0 132 69.5 240t186.5 166q-83 48 -125.5 132t-42.5 192q0 162 116.5 272t289.5 110q171 0 287 -110t116 -272q0 -227 -168 -324q118 -58 187 -165.5t69 -240.5q0 -196 -142 -330t-351 -134zM590 905q101 0 171 70.5t70 171.5 q0 103 -70 173.5t-171 70.5q-103 0 -173.5 -70.5t-70.5 -173.5q0 -101 70.5 -171.5t173.5 -70.5zM588 133q133 0 225 95.5t92 228.5t-91.5 225t-225.5 92q-132 0 -224 -92t-92 -225t92.5 -228.5t223.5 -95.5z" />
<glyph horiz-adv-x="1204" d="M1129 1053q8 -196 -131 -369l-543 -684h-215l449 535q-61 -23 -148 -23q-78 0 -161.5 35.5t-155 97t-120 157.5t-52.5 206q-6 143 62.5 269t191 200.5t266.5 74.5q226 0 387 -142.5t170 -356.5zM590 659q172 0 274 113.5t93 278.5q-10 151 -115.5 241t-267.5 90 q-159 0 -260.5 -109.5t-91.5 -262.5q9 -158 114.5 -254.5t253.5 -96.5z" />
<glyph horiz-adv-x="809" d="M403 -12q-154 0 -247 129.5t-93 343.5q0 213 93 343t247 130q155 0 248.5 -130t93.5 -343q0 -214 -93.5 -343.5t-248.5 -129.5zM406 147q74 0 123 87.5t49 226.5q0 138 -49 225.5t-123 87.5q-77 0 -126 -87t-49 -226q0 -140 49 -227t126 -87z" />
<glyph horiz-adv-x="477" d="M172 0v770h-133v152h299v-922h-166z" />
<glyph horiz-adv-x="713" d="M297 152h346v-152h-604v86q182 193 275 307.5t118 164.5t25 95q0 68 -35.5 98.5t-85.5 30.5q-59 0 -91 -36t-32 -97h-166q0 131 80.5 209t210.5 78q124 0 201.5 -72t78.5 -196q2 -107 -67.5 -217.5t-253.5 -298.5z" />
<glyph horiz-adv-x="707" d="M506 518q65 -36 102 -97t37 -138q0 -124 -88.5 -209.5t-218.5 -85.5q-125 0 -212 77.5t-87 196.5l168 2q0 -51 39 -85t94 -34q60 0 99.5 41t39.5 101q0 59 -39 96t-98 37h-86v141h76q47 0 78.5 33t31.5 80q0 46 -31.5 75t-78.5 29q-45 0 -73 -26.5t-28 -67.5l-163 2 q0 110 75 179t189 69q110 0 186 -70.5t76 -171.5q0 -112 -88 -174z" />
<glyph horiz-adv-x="762" d="M688 346v-151h-84v-195h-166v195h-438v104l383 623h221v-576h84zM200 346h238v406z" />
<glyph horiz-adv-x="807" d="M457 629q118 0 197 -84t79 -221q0 -150 -95 -243t-237 -93q-131 0 -226 76t-101 202l176 4q10 -60 54.5 -91.5t103.5 -31.5q67 0 111 47.5t44 124.5q0 76 -44.5 122t-110.5 46q-43 0 -83.5 -23t-66.5 -63l-170 2l90 519h520v-150h-398l-33 -204q75 61 190 61z" />
<glyph horiz-adv-x="723" d="M692 313q1 -135 -97 -229t-237 -94q-141 0 -240.5 90.5t-99.5 224.5q0 104 74 209l305 408h195l-233 -295q21 2 47 0q113 -12 199 -101.5t87 -212.5zM358 139q76 0 124 50.5t46 123.5q-1 74 -50 122t-122 48q-78 0 -125 -50.5t-45 -127.5q2 -74 49.5 -120t122.5 -46z" />
<glyph horiz-adv-x="653" d="M33 922h629v-121l-435 -801h-190l430 772h-434v150z" />
<glyph horiz-adv-x="754" d="M377 -12q-136 0 -227 82.5t-91 203.5q0 76 37.5 138.5t102.5 99.5q-84 62 -84 180q0 103 74.5 172.5t187.5 69.5q112 0 187 -69.5t75 -172.5q0 -115 -84 -180q65 -37 102 -99.5t37 -138.5q0 -121 -90.5 -203.5t-226.5 -82.5zM377 557q49 0 83 34t34 83q0 50 -34 84.5 t-83 34.5t-83 -34.5t-34 -84.5t34 -83.5t83 -33.5zM377 133q63 0 106 45.5t43 110.5q0 63 -43 105t-106 42t-106.5 -42t-43.5 -105q0 -65 43.5 -110.5t106.5 -45.5z" />
<glyph horiz-adv-x="723" d="M365 932q141 0 240.5 -91t99.5 -225q0 -108 -74 -208l-305 -408h-195l234 295q-21 -1 -48 0q-73 7 -137.5 48.5t-106 112t-42.5 152.5q-1 136 97 230t237 94zM367 438q78 0 125 50.5t45 127.5q-1 74 -49 120t-123 46q-76 0 -124 -50t-46 -124q1 -73 50 -121.5t122 -48.5z " />
<glyph horiz-adv-x="809" d="M403 611q-154 0 -247 129.5t-93 343.5q0 213 93 343t247 130q155 0 248.5 -130t93.5 -343q0 -214 -93.5 -343.5t-248.5 -129.5zM406 770q74 0 123 87.5t49 226.5q0 138 -49 225.5t-123 87.5q-77 0 -126 -87t-49 -226q0 -140 49 -227t126 -87z" />
<glyph horiz-adv-x="477" d="M172 614v770h-133v152h299v-922h-166z" />
<glyph horiz-adv-x="713" d="M297 766h346v-152h-604v86q182 193 275 307.5t118 164.5t25 95q0 68 -35.5 98.5t-85.5 30.5q-59 0 -91 -36t-32 -97h-166q0 131 80.5 209t210.5 78q124 0 201.5 -72t78.5 -196q2 -107 -67.5 -217.5t-253.5 -298.5z" />
<glyph horiz-adv-x="707" d="M506 1132q65 -36 102 -97t37 -138q0 -124 -88.5 -209.5t-218.5 -85.5q-125 0 -212 77.5t-87 196.5l168 2q0 -51 39 -85t94 -34q60 0 99.5 41t39.5 101q0 59 -39 96t-98 37h-86v141h76q47 0 78.5 33t31.5 80q0 46 -31.5 75t-78.5 29q-45 0 -73 -26.5t-28 -67.5l-163 2 q0 110 75 179t189 69q110 0 186 -70.5t76 -171.5q0 -112 -88 -174z" />
<glyph horiz-adv-x="762" d="M688 960v-151h-84v-195h-166v195h-438v104l383 623h221v-576h84zM200 960h238v406z" />
<glyph horiz-adv-x="807" d="M457 1243q118 0 197 -84t79 -221q0 -150 -95 -243t-237 -93q-131 0 -226 76t-101 202l176 4q10 -60 54.5 -91.5t103.5 -31.5q67 0 111 47.5t44 124.5q0 76 -44.5 122t-110.5 46q-43 0 -83.5 -23t-66.5 -63l-170 2l90 519h520v-150h-398l-33 -204q75 61 190 61z" />
<glyph horiz-adv-x="723" d="M692 927q1 -135 -97 -229t-237 -94q-141 0 -240.5 90.5t-99.5 224.5q0 104 74 209l305 408h195l-233 -295q21 2 47 0q113 -12 199 -101.5t87 -212.5zM358 753q76 0 124 50.5t46 123.5q-1 74 -50 122t-122 48q-78 0 -125 -50.5t-45 -127.5q2 -74 49.5 -120t122.5 -46z" />
<glyph horiz-adv-x="653" d="M33 1536h629v-121l-435 -801h-190l430 772h-434v150z" />
<glyph horiz-adv-x="754" d="M377 602q-136 0 -227 82.5t-91 203.5q0 76 37.5 138.5t102.5 99.5q-84 62 -84 180q0 103 74.5 172.5t187.5 69.5q112 0 187 -69.5t75 -172.5q0 -115 -84 -180q65 -37 102 -99.5t37 -138.5q0 -121 -90.5 -203.5t-226.5 -82.5zM377 1171q49 0 83 34t34 83q0 50 -34 84.5 t-83 34.5t-83 -34.5t-34 -84.5t34 -83.5t83 -33.5zM377 747q63 0 106 45.5t43 110.5q0 63 -43 105t-106 42t-106.5 -42t-43.5 -105q0 -65 43.5 -110.5t106.5 -45.5z" />
<glyph horiz-adv-x="723" d="M365 1546q141 0 240.5 -91t99.5 -225q0 -108 -74 -208l-305 -408h-195l234 295q-21 -1 -48 0q-73 7 -137.5 48.5t-106 112t-42.5 152.5q-1 136 97 230t237 94zM367 1052q78 0 125 50.5t45 127.5q-1 74 -49 120t-123 46q-76 0 -124 -50t-46 -124q1 -73 50 -121.5 t122 -48.5z" />
<glyph horiz-adv-x="645" d="M193 -377l100 627h192l-168 -627h-124z" />
<glyph horiz-adv-x="643" d="M385 815q-47 0 -81 33.5t-34 81.5q0 46 34 80t81 34q46 0 80.5 -34t34.5 -80q0 -47 -34.5 -81t-80.5 -34zM195 -377l100 627h192l-168 -627h-124z" />
<glyph horiz-adv-x="645" d="M193 -377l100 627h192l-168 -627h-124z" />
<glyph horiz-adv-x="643" d="M385 815q-47 0 -81 33.5t-34 81.5q0 46 34 80t81 34q46 0 80.5 -34t34.5 -80q0 -47 -34.5 -81t-80.5 -34zM195 -377l100 627h192l-168 -627h-124z" />
<glyph horiz-adv-x="909" d="M311 209q47 0 81 -34.5t34 -80.5q0 -18 -4 -31l-150 -440h-125l110 371q-27 15 -44 41.5t-17 58.5q0 46 34.5 80.5t80.5 34.5zM770 94q0 -18 -4 -31l-150 -440h-125l110 371q-27 15 -44 41.5t-17 58.5q0 46 34.5 80.5t80.5 34.5q47 0 81 -34.5t34 -80.5z" />
<glyph horiz-adv-x="942" d="M417 1536l-100 -627h-192l168 627h124zM784 1536l-100 -627h-192l168 627h124z" />
<glyph horiz-adv-x="942" d="M158 909l100 627h192l-168 -627h-124zM525 909l100 627h192l-168 -627h-124z" />
<glyph horiz-adv-x="575" d="M417 1536l-100 -627h-192l168 627h124z" />
<glyph horiz-adv-x="575" d="M158 909l100 627h192l-168 -627h-124z" />
<glyph horiz-adv-x="575" d="M158 -377l100 627h192l-168 -627h-124z" />
<glyph horiz-adv-x="1016" d="M491 1536l-100 -627h-192l168 627h124zM858 1536l-100 -627h-192l168 627h124z" />
<glyph horiz-adv-x="942" d="M158 909l100 627h192l-168 -627h-124zM525 909l100 627h192l-168 -627h-124z" />
<glyph horiz-adv-x="575" d="M417 1536l-100 -627h-192l168 627h124z" />
<glyph horiz-adv-x="575" d="M158 909l100 627h192l-168 -627h-124z" />
<glyph horiz-adv-x="575" d="M158 -377l100 627h192l-168 -627h-124z" />
<glyph d="M-143 1411l-1 -3l-3 -7l-146 -430h-125l110 370q-27 15 -43.5 42t-16.5 59q0 46 34 80t80 34t80.5 -34t34.5 -80q0 -18 -4 -31z" />
<glyph d="M-627 1079q-47 0 -81 33.5t-34 79.5q0 48 34 81.5t81 33.5q46 0 80.5 -33.5t34.5 -81.5q0 -46 -34.5 -79.5t-80.5 -33.5zM-250 1079q-47 0 -81 33.5t-34 79.5q0 48 34 81.5t81 33.5q48 0 81 -33.5t33 -81.5q0 -47 -33.5 -80t-80.5 -33z" />
<glyph d="M-330 1100q-89 0 -153 63.5t-64 151.5q0 89 64 152t153 63q88 0 150.5 -63t62.5 -152q0 -88 -62.5 -151.5t-150.5 -63.5zM-330 1190q51 0 87 36t36 89q0 51 -36.5 89t-86.5 38q-52 0 -87.5 -38t-35.5 -89q0 -54 35 -89.5t88 -35.5z" />
<glyph d="M-244 963h-125l86 573h193z" />
<glyph d="M-424 1604l-66 71l303 326l96 -108zM-385 1200q-148 0 -243 86t-95 230h136q0 -91 52.5 -150t149.5 -59q99 0 152 59t53 150h135q0 -144 -95 -230t-245 -86z" />
<glyph d="M-339 1604l-336 289l98 108l301 -326zM-343 1200q-148 0 -243 86t-95 230h136q0 -91 52.5 -150t149.5 -59q99 0 152 59t53 150h135q0 -144 -95 -230t-245 -86z" />
<glyph d="M-408 1585v154q143 29 143 129q0 39 -27.5 65.5t-72.5 26.5q-54 0 -107 -35l-65 92q77 61 168 61q95 0 160 -59.5t65 -150.5q0 -66 -40 -118.5t-116 -74.5v-90h-108zM-355 1200q-148 0 -243 86t-95 230h136q0 -91 52.5 -150t149.5 -59q99 0 152 59t53 150h135 q0 -144 -95 -230t-245 -86z" />
<glyph d="M-300 1589q-112 0 -188 113q-36 55 -82 55q-47 0 -72.5 -45t-25.5 -114h-125q0 122 59.5 202t159.5 80q110 0 188 -112q12 -17 21 -27t26.5 -19.5t38.5 -9.5q97 0 97 160h123q0 -124 -58 -203.5t-162 -79.5zM-437 1200q-148 0 -243 86t-95 230h136q0 -91 52.5 -150 t149.5 -59q99 0 152 59t53 150h135q0 -144 -95 -230t-245 -86z" />
<glyph d="M-390 1655l-66 71l303 326l96 -108zM-551 1188l-84 51l200 297h173l202 -297l-86 -51l-200 237z" />
<glyph d="M-285 1655l-336 289l98 108l301 -326zM-489 1188l-84 51l200 297h173l202 -297l-86 -51l-200 237z" />
<glyph d="M-379 1636v154q143 29 143 129q0 39 -27.5 65.5t-72.5 26.5q-54 0 -107 -35l-65 92q77 61 168 61q95 0 160 -59.5t65 -150.5q0 -66 -40 -118.5t-116 -74.5v-90h-108zM-526 1188l-84 51l200 297h173l202 -297l-86 -51l-200 237z" />
<glyph d="M-285 1640q-112 0 -188 113q-36 55 -82 55q-47 0 -72.5 -45t-25.5 -114h-125q0 122 59.5 202t159.5 80q110 0 188 -112q12 -17 21 -27t26.5 -19.5t38.5 -9.5q97 0 97 160h123q0 -124 -58 -203.5t-162 -79.5zM-622 1188l-84 51l200 297h173l202 -297l-86 -51l-200 237z " />
</font>
</defs>
</svg>
