<?xml version="1.0" standalone="no"?>
<!DOCTYPE svg PUBLIC "-//W3C//DTD SVG 1.1//EN" "http://www.w3.org/Graphics/SVG/1.1/DTD/svg11.dtd" >
<svg xmlns="http://www.w3.org/2000/svg" xmlns:xlink="http://www.w3.org/1999/xlink" version="1.1">
<metadata></metadata>
<defs>
<font id="neue_hans_kendrickmedium" horiz-adv-x="0" >
<font-face units-per-em="2048" ascent="1536" descent="-512" />
<missing-glyph horiz-adv-x="506" />
<glyph unicode="fi" horiz-adv-x="1209" d="M436 963h614v-963h-226v774h-388v-774h-228v774h-162v189h162v269q0 151 87 239.5t233 88.5q110 0 147 -30v-212q-49 37 -111 37q-58 0 -93 -41t-35 -109v-242zM938 1134q-56 0 -96.5 40t-40.5 96q0 57 40 96t97 39q56 0 96 -39t40 -96q0 -56 -40 -96t-96 -40z" />
<glyph unicode="fl" horiz-adv-x="1238" d="M436 1205v-242h243v-189h-243v-774h-228v774h-162v189h162v269q0 151 87 239.5t233 88.5q110 0 147 -30v-212q-49 37 -111 37q-58 0 -93 -41t-35 -109zM851 1536h228v-1536h-228v1536z" />
<glyph unicode=" "  horiz-adv-x="506" />
<glyph unicode="&#x09;" horiz-adv-x="506" />
<glyph unicode="&#xa0;" horiz-adv-x="506" />
<glyph unicode="!" horiz-adv-x="648" d="M203 476v1060h228v-1060h-228zM317 -20q-56 0 -97.5 41t-41.5 98t41 98.5t98 41.5t98.5 -41t41.5 -99q0 -57 -41.5 -98t-98.5 -41z" />
<glyph unicode="&#x22;" horiz-adv-x="1023" d="M229 889l-16 647h215l-10 -647h-189zM604 889l-10 647h216l-15 -647h-191z" />
<glyph unicode="#" horiz-adv-x="1539" d="M317 0l49 349h-289l22 165h289l66 439h-291l27 163h285l51 353h162l-48 -353h367l50 353h164l-50 -353h292l-27 -163h-287l-62 -439h287l-22 -165h-287l-53 -349h-162l49 349h-371l-47 -349h-164zM554 514h367l64 439h-369z" />
<glyph unicode="$" horiz-adv-x="1246" d="M1112 420q0 -173 -102.5 -284.5t-266.5 -143.5v-163h-212v156q-141 18 -261 87t-194 160l162 164q155 -211 374 -211q119 0 192 60.5t73 163.5q0 26 -6.5 49t-14.5 41.5t-26.5 38t-31.5 32t-42 29.5t-44.5 26t-52.5 25t-53 23t-58 24q-51 21 -83 35.5t-79.5 39.5 t-77 47.5t-64 57t-54 71.5t-32.5 86.5t-13 105.5q0 172 108.5 282t277.5 130v158h212v-171q183 -44 320 -198l-143 -145q-83 89 -158 124t-160 35q-96 0 -159 -52.5t-63 -143.5q0 -42 17.5 -78t40.5 -60t68.5 -50t78 -40t91.5 -38h1l1 -1h1l1 -1h1l2 -1q167 -68 240 -118 q175 -118 188 -317q1 -17 1 -35z" />
<glyph unicode="%" horiz-adv-x="1671" d="M429 885q-139 0 -237.5 99t-98.5 239q0 138 98.5 235.5t237.5 97.5t236.5 -97.5t97.5 -235.5q0 -140 -97.5 -239t-236.5 -99zM277 0l888 1536h225l-886 -1536h-227zM429 1064q66 0 111.5 46.5t45.5 112.5q0 64 -46.5 110t-110.5 46q-65 0 -112 -46t-47 -110 q0 -66 47 -112.5t112 -46.5zM1245 -16q-139 0 -237 98t-98 238q0 138 98.5 235.5t236.5 97.5q139 0 237 -97.5t98 -235.5q0 -139 -98 -237.5t-237 -98.5zM1245 161q66 0 112 46.5t46 112.5q0 64 -46.5 110t-111.5 46t-111.5 -46t-46.5 -110q0 -66 46.5 -112.5t111.5 -46.5z " />
<glyph unicode="&#x26;" horiz-adv-x="1486" d="M559 -23q-199 0 -328 123.5t-129 323.5q0 62 15.5 116.5t39.5 96t70.5 89t89.5 82.5t116 90q-79 90 -113.5 165.5t-34.5 154.5q0 146 98 241.5t250 95.5q151 0 250.5 -92.5t99.5 -233.5q0 -47 -14 -90t-33 -75.5t-56.5 -71.5t-67 -64t-81.5 -67l274 -349l215 268 l151 -134l-235 -293l278 -354l-268 -2l-155 199q-106 -106 -210 -162.5t-222 -56.5zM605 996q95 70 123 99q57 59 57 127q0 65 -44.5 105t-106.5 42q-67 2 -109.5 -39t-42.5 -111q0 -22 5.5 -43t10.5 -35.5t21.5 -37.5t23.5 -32t31 -38t31 -37zM549 178q79 0 154.5 48.5 t157.5 131.5l-301 384q-119 -88 -156 -124q-98 -94 -98 -195q0 -98 72.5 -171.5t170.5 -73.5z" />
<glyph unicode="'" horiz-adv-x="645" d="M228 889l-15 647h219l-14 -647h-190z" />
<glyph unicode="(" horiz-adv-x="657" d="M520 -463q-198 137 -311.5 429t-113.5 697q0 400 114 695.5t311 430.5l117 -147q-161 -112 -255 -367.5t-94 -611.5q0 -361 93.5 -613t255.5 -365z" />
<glyph unicode=")" horiz-adv-x="657" d="M137 -463l-117 148q162 113 255.5 365t93.5 613q0 356 -94 611.5t-255 367.5l117 147q197 -135 311 -430.5t114 -695.5q0 -405 -113.5 -697t-311.5 -429z" />
<glyph unicode="*" horiz-adv-x="973" d="M358 873l-108 65l166 241l-296 -19v124l296 -21l-166 244l108 62l129 -260l129 260l110 -62l-169 -244l296 21v-124l-296 19l169 -241l-110 -65l-129 261z" />
<glyph unicode="+" horiz-adv-x="1199" d="M503 193v397h-397v193h397v397h193v-397h397v-193h-397v-397h-193z" />
<glyph unicode="," horiz-adv-x="629" d="M480 119q0 -31 -14 -61l-165 -434h-140l115 372q-34 18 -54.5 51t-20.5 72q0 56 42 98t98 42t97.5 -42t41.5 -98z" />
<glyph unicode="-" horiz-adv-x="1019" d="M151 395v172h717v-172h-717z" />
<glyph unicode="." horiz-adv-x="637" d="M318 -20q-57 0 -98 41t-41 98q0 56 41.5 98t97.5 42q57 0 98.5 -42t41.5 -98q0 -57 -41.5 -98t-98.5 -41z" />
<glyph unicode="/" horiz-adv-x="1241" d="M-30 -373l1085 2079h216l-1084 -2079h-217z" />
<glyph unicode="0" horiz-adv-x="1282" d="M642 -20q-164 0 -292.5 100t-199 279.5t-70.5 408.5q0 231 67.5 409t195.5 278.5t299 100.5q170 0 298 -100.5t195.5 -278.5t67.5 -409q0 -229 -71 -408.5t-199 -279.5t-291 -100zM643 184q150 0 238.5 159t88.5 425q0 268 -91.5 419t-235.5 151q-146 0 -237.5 -150.5 t-91.5 -419.5q0 -266 89 -425t240 -159z" />
<glyph unicode="1" horiz-adv-x="1282" d="M588 0v1318h-308v218h541v-1536h-233z" />
<glyph unicode="2" horiz-adv-x="1282" d="M500 218h659v-218h-1059v93q202 204 340 355t221 253.5t127.5 182t58 130.5t13.5 109q0 111 -70.5 169.5t-172.5 58.5q-115 0 -181 -70.5t-66 -191.5l-242 1q0 212 139.5 341t356.5 128q206 -2 337 -118t132 -308q0 -107 -36.5 -210t-118.5 -218t-181 -223.5t-257 -263.5 z" />
<glyph unicode="3" horiz-adv-x="1282" d="M626 -20q-112 0 -210 30.5t-172 88t-116.5 145.5t-42.5 196l235 1q0 -120 86 -186.5t219 -66.5q141 0 223.5 72.5t82.5 196.5t-84.5 193t-221.5 69h-138v197h125q107 0 174 62t67 162q0 96 -63 153t-171 57q-104 0 -168 -54.5t-64 -150.5h-233q0 185 132 298t329 113 q198 0 330.5 -112.5t132.5 -286.5q0 -114 -57 -197t-150 -123q134 -41 214.5 -141.5t80.5 -251.5q0 -209 -151.5 -336.5t-388.5 -127.5z" />
<glyph unicode="4" horiz-adv-x="1282" d="M1241 522v-211h-257v-311h-232v311h-707v176l642 1049h297v-1014h257zM290 522h462v780z" />
<glyph unicode="5" horiz-adv-x="1282" d="M701 1032q100 0 187.5 -36t152.5 -100.5t102.5 -159.5t37.5 -207q0 -159 -72 -285t-195.5 -194t-276.5 -68q-101 0 -194 30.5t-167 87.5t-120.5 145.5t-53.5 196.5h245q20 -117 103.5 -176.5t192.5 -59.5q129 0 212.5 88t83.5 227q0 138 -84 226t-205 88 q-78 0 -152 -39.5t-122 -109.5h-239l146 850h837v-214h-662l-64 -398q126 108 307 108z" />
<glyph unicode="6" horiz-adv-x="1282" d="M1191 525q3 -110 -39 -210.5t-115.5 -173.5t-174.5 -116t-211 -43q-231 0 -394 147t-170 366q-6 189 134 371l517 670h275l-432 -535q57 17 130 17q83 0 167.5 -37t153 -100t112.5 -157t47 -199zM650 198q141 0 230 94.5t83 230.5q-6 139 -97.5 226t-225.5 87 q-150 0 -239 -97.5t-83 -240.5q5 -135 96.5 -217.5t235.5 -82.5z" />
<glyph unicode="7" horiz-adv-x="1282" d="M100 1536h1096v-163l-754 -1373h-268l746 1323h-820v213z" />
<glyph unicode="8" horiz-adv-x="1282" d="M641 -20q-218 0 -365 136t-147 336q0 129 65.5 235t178.5 165q-76 50 -115 130t-39 181q0 167 120.5 280t302.5 113q181 0 301.5 -113t120.5 -280q0 -101 -39 -181t-114 -130q113 -59 178.5 -164.5t65.5 -235.5q0 -200 -147 -336t-367 -136zM643 919q90 0 152.5 62 t62.5 153t-62.5 154t-152.5 63q-91 0 -154 -62.5t-63 -154.5q0 -91 62.5 -153t154.5 -62zM641 184q118 0 198.5 83.5t80.5 202.5q0 118 -80 198t-199 80q-117 0 -197 -80t-80 -198t80.5 -202t196.5 -84z" />
<glyph unicode="9" horiz-adv-x="1282" d="M1185 1041q6 -189 -134 -371l-517 -670h-275l432 535q-57 -17 -130 -17q-83 0 -167.5 37t-153 100t-112.5 157t-47 199q-3 110 39 210.5t115.5 173.5t174.5 116t211 43q231 0 394 -147t170 -366zM632 700q150 0 239 97.5t83 240.5q-5 135 -96.5 217.5t-235.5 82.5 q-141 0 -230 -94.5t-83 -230.5q6 -139 97.5 -226t225.5 -87z" />
<glyph unicode=":" horiz-adv-x="619" d="M309 765q-57 0 -98.5 41.5t-41.5 98.5q0 56 42 97.5t98 41.5t98 -41.5t42 -97.5q0 -57 -41.5 -98.5t-98.5 -41.5zM309 -20q-57 0 -98.5 41t-41.5 98q0 56 42 98t98 42t98 -42t42 -98q0 -57 -41.5 -98t-98.5 -41z" />
<glyph unicode=";" horiz-adv-x="618" d="M321 765q-58 0 -99 41t-41 99q0 57 41.5 98t98.5 41q56 0 97.5 -41.5t41.5 -97.5q0 -57 -41 -98.5t-98 -41.5zM321 259q56 0 97.5 -42t41.5 -98q0 -31 -14 -61l-165 -434h-140l115 372q-34 18 -54.5 51t-20.5 72q0 56 42 98t98 42z" />
<glyph unicode="&#x3c;" horiz-adv-x="1348" d="M1220 1423v-213l-931 -470l931 -470v-217l-1131 572v231z" />
<glyph unicode="=" horiz-adv-x="1268" d="M237 805v193h795v-193h-795zM237 378v192h795v-192h-795z" />
<glyph unicode="&#x3e;" horiz-adv-x="1348" d="M128 1423l1130 -567v-231l-1130 -572v217l931 470l-931 470v213z" />
<glyph unicode="?" horiz-adv-x="1077" d="M428 455v118q0 78 20.5 134.5t53 89t72 56.5t79 45t72 46.5t53 68.5t20.5 104q0 105 -76 172t-192 67t-190 -74t-78 -189h-202q1 198 133.5 326.5t336.5 128.5q202 0 335.5 -123t133.5 -308q0 -79 -20 -140t-52.5 -97.5t-71 -65t-77.5 -50.5t-71.5 -45t-52.5 -58.5 t-20 -81.5v-124h-206zM538 -20q-57 0 -98.5 41t-41.5 98t41.5 98.5t98.5 41.5t98 -41.5t41 -98.5q0 -58 -40.5 -98.5t-98.5 -40.5z" />
<glyph unicode="@" horiz-adv-x="1751" d="M1281 892q-29 -152 -81 -404q-26 -104 -14 -163t79 -59q89 0 147.5 94t58.5 248q0 126 -42.5 226.5t-118 166t-178.5 100t-225 34.5q-180 0 -319.5 -81.5t-214.5 -222.5t-75 -317q0 -140 47.5 -255t130.5 -192t196.5 -119t244.5 -42q278 0 473 155l87 -118 q-232 -185 -575 -185q-224 0 -401 95.5t-276.5 269t-99.5 394.5q0 216 105 392t284.5 274.5t394.5 98.5q142 0 270.5 -42.5t229 -123t160 -208t59.5 -285.5q0 -124 -33.5 -222.5t-90.5 -158t-126.5 -90.5t-145.5 -31q-85 0 -134 41.5t-55 103.5q-29 -54 -96 -98.5 t-158 -44.5q-136 0 -215.5 93t-79.5 241q0 86 29 169t80 148.5t128.5 105.5t168.5 40q78 0 136 -33t81 -85l20 90h144zM1057 570q3 91 -34 150.5t-123 59.5q-70 0 -125 -51t-82 -125t-27 -153q0 -32 7.5 -62.5t23.5 -59.5t47.5 -47t74.5 -18q48 0 88.5 20t66.5 51.5t45 73 t28 82t10 79.5z" />
<glyph unicode="A" horiz-adv-x="1372" d="M1112 0l-88 242h-678l-88 -242h-258l610 1536h150l612 -1536h-260zM422 449h527l-263 726z" />
<glyph unicode="B" horiz-adv-x="1378" d="M1015 783q125 -42 195.5 -137t70.5 -236q0 -184 -124.5 -297t-309.5 -113h-649v1536h574q187 0 312.5 -115.5t125.5 -300.5q0 -118 -51 -203.5t-144 -133.5zM979 1099q0 94 -68 156.5t-165 62.5h-317v-446h317q97 0 165 65.5t68 161.5zM815 218q98 0 166 63t68 158 t-68 160t-166 65h-386v-446h386z" />
<glyph unicode="C" horiz-adv-x="1500" d="M874 -20q-161 0 -307 62t-251.5 167.5t-167.5 251.5t-62 307t62 307t167.5 251.5t251.5 167.5t307 62t317 -69t262 -186l-174 -151q-75 84 -182 131t-223 47q-115 0 -218.5 -43.5t-177.5 -118t-117.5 -178.5t-43.5 -220t43.5 -220t117.5 -178.5t177.5 -118t218.5 -43.5 q116 0 223 47t182 131l174 -151q-106 -117 -262 -186t-317 -69z" />
<glyph unicode="D" horiz-adv-x="1511" d="M198 0v1536h455q167 0 312 -60.5t246 -164t158.5 -245t57.5 -298.5t-57.5 -298.5t-158.5 -245t-246 -164t-312 -60.5h-455zM433 221h212q237 0 388.5 155.5t151.5 391.5t-151.5 391.5t-388.5 155.5h-212v-1094z" />
<glyph unicode="E" horiz-adv-x="1188" d="M1085 1319h-651v-442h565v-218h-565v-442h651v-217h-887v1536h887v-217z" />
<glyph unicode="F" horiz-adv-x="1143" d="M1085 1319h-651v-442h565v-218h-565v-659h-236v1536h887v-217z" />
<glyph unicode="G" horiz-adv-x="1635" d="M869 834h633v-834h-184l-21 105q-200 -125 -423 -125q-161 0 -307 62t-251.5 167.5t-167.5 251.5t-62 307t62 307t167.5 251.5t251.5 167.5t307 62t317 -69t262 -186l-174 -151q-75 84 -182 131t-223 47q-115 0 -218.5 -43.5t-177.5 -118t-117.5 -178.5t-43.5 -220 t43.5 -220t117.5 -178.5t177.5 -118t218.5 -43.5q112 0 216.5 44t179.5 124v249h-401v209z" />
<glyph unicode="H" horiz-adv-x="1622" d="M1188 1536h236v-1536h-236v658h-754v-658h-236v1536h236v-656h754v656z" />
<glyph unicode="I" horiz-adv-x="632" d="M198 0v1536h236v-1536h-236z" />
<glyph unicode="J" horiz-adv-x="1052" d="M365 -20q-203 0 -346 91l104 201q48 -33 115 -52.5t128 -19.5q133 0 206.5 89t73.5 230v1017h236v-1059q0 -218 -142 -357.5t-375 -139.5z" />
<glyph unicode="K" horiz-adv-x="1393" d="M1367 0h-306l-627 741v-741h-236v1536h236v-721l609 721h301l-651 -758z" />
<glyph unicode="L" horiz-adv-x="1012" d="M434 221h545v-221h-781v1536h236v-1315z" />
<glyph unicode="M" horiz-adv-x="1872" d="M1538 1536h160v-1536h-234v1014l-530 -840l-522 834v-1008h-236v1536h162l597 -948z" />
<glyph unicode="N" horiz-adv-x="1577" d="M1167 1536h236v-1536h-94l-897 1041v-1041h-236v1536h92l899 -1037v1037z" />
<glyph unicode="O" horiz-adv-x="1746" d="M873 -20q-161 0 -307 62.5t-251.5 167.5t-168 251t-62.5 307t62.5 307t168 251t251.5 167.5t307 62.5q214 0 395.5 -105.5t287 -287t105.5 -395.5t-105.5 -395.5t-287 -287t-395.5 -105.5zM873 211q115 0 218.5 43.5t177.5 117.5t117.5 177.5t43.5 218.5t-43.5 218.5 t-117.5 177.5t-177.5 117.5t-218.5 43.5q-153 0 -281 -73.5t-202 -201.5t-74 -282t74 -282t202 -201.5t281 -73.5z" />
<glyph unicode="P" horiz-adv-x="1372" d="M872 1536q91 0 173 -35t140.5 -94.5t93 -141t34.5 -171.5q0 -185 -127.5 -310.5t-313.5 -125.5h-438v-658h-236v1536h674zM841 867q104 0 172.5 60.5t68.5 163.5q0 101 -69 164.5t-172 63.5h-407v-452h407z" />
<glyph unicode="Q" horiz-adv-x="1799" d="M1723 124l-159 -158l-192 192q-218 -178 -499 -178q-161 0 -307 62.5t-251.5 167.5t-168 251t-62.5 307t62.5 307t168 251t251.5 167.5t307 62.5q214 0 395.5 -105.5t287 -287t105.5 -395.5q0 -246 -140 -450zM873 211q188 0 336 110l-176 176l147 148l172 -165 q78 131 78 288q0 115 -43.5 218.5t-117.5 177.5t-177.5 117.5t-218.5 43.5q-153 0 -281 -73.5t-202 -201.5t-74 -282t74 -282t202 -201.5t281 -73.5z" />
<glyph unicode="R" horiz-adv-x="1422" d="M1091 0l-341 658h-316v-658h-236v1536h674q91 0 173 -35t140.5 -94.5t93 -141t34.5 -171.5q0 -152 -89 -267t-230 -153l353 -674h-256zM434 1319v-452h407q104 0 172.5 60.5t68.5 163.5q0 101 -69 164.5t-172 63.5h-407z" />
<glyph unicode="S" horiz-adv-x="1164" d="M597 -20q-167 0 -311.5 73t-230.5 179l162 164q155 -211 374 -211q119 0 192 60.5t73 163.5q0 26 -6.5 49t-14.5 41.5t-26.5 38t-31.5 32t-42 29.5t-44.5 26t-52.5 25t-53 23t-58 24q-51 21 -83 35.5t-79.5 39.5t-77 47.5t-64 57t-54 71.5t-32.5 86.5t-13 105.5 q0 189 131 302.5t324 113.5q271 0 463 -215l-143 -145q-83 89 -158 124t-160 35q-96 0 -159 -52.5t-63 -143.5q0 -42 17.5 -78t40.5 -60t68.5 -50t78 -40t91.5 -38h1l1 -1h1l1 -1h1l2 -1q167 -68 240 -118q175 -118 188 -317q1 -17 1 -35q0 -104 -40 -189t-108.5 -139 t-157 -83t-188.5 -29z" />
<glyph unicode="T" horiz-adv-x="1118" d="M1085 1536v-221h-408v-1315h-236v1315h-409v221h1053z" />
<glyph unicode="U" horiz-adv-x="1536" d="M767 -20q-171 0 -308.5 67.5t-215.5 189.5t-78 275v1024h236v-983q0 -155 103.5 -253.5t262.5 -98.5t263 99t104 253v983h237v-1024q0 -232 -171.5 -382t-432.5 -150z" />
<glyph unicode="V" horiz-adv-x="1360" d="M1108 1536h258l-612 -1536h-150l-610 1536h256l430 -1142z" />
<glyph unicode="W" horiz-adv-x="2013" d="M1763 1536h256l-600 -1536h-166l-247 610l-248 -610h-166l-598 1536h254l436 -1193l208 548l-261 645h243l132 -345l131 345h245l-262 -645l210 -549z" />
<glyph unicode="X" horiz-adv-x="1380" d="M1344 0h-278l-377 589l-376 -589h-278l527 783l-506 753h276l358 -556l358 556h276l-507 -751z" />
<glyph unicode="Y" horiz-adv-x="1335" d="M1322 1536l-535 -809v-727h-236v722l-538 814h279l377 -589l378 589h275z" />
<glyph unicode="Z" horiz-adv-x="1347" d="M1311 1536v-23l-881 -1292h843v-221h-1247v31l876 1284h-790v221h1199z" />
<glyph unicode="[" horiz-adv-x="683" d="M190 -512v2320h464v-166h-264v-1987h264v-167h-464z" />
<glyph unicode="\" horiz-adv-x="1241" d="M1055 -373l-1085 2079h217l1084 -2079h-216z" />
<glyph unicode="]" horiz-adv-x="683" d="M493 -512h-464v167h264v1987h-264v166h464v-2320z" />
<glyph unicode="^" horiz-adv-x="1485" d="M1414 406h-192l-479 952l-480 -952h-193l570 1130h205z" />
<glyph unicode="_" horiz-adv-x="1453" d="M214 -223v172h1024v-172h-1024z" />
<glyph unicode="`" horiz-adv-x="494" d="M343 1137l-340 289l119 131l302 -330z" />
<glyph unicode="a" horiz-adv-x="1256" d="M870 963h229v-963h-216l-5 139q-124 -158 -338 -158q-125 0 -233 65t-173 181t-65 256q0 210 139.5 355t331.5 145q207 0 330 -148v128zM589 188q121 0 206 86t85 209q0 122 -85 208t-206 86q-122 0 -207 -86t-85 -208q0 -123 85 -209t207 -86z" />
<glyph unicode="b" horiz-adv-x="1257" d="M717 983q192 0 331.5 -145t139.5 -355q0 -140 -65 -256t-173 -181t-233 -65q-214 0 -338 158l-5 -139h-216v1536h229v-701q123 148 330 148zM668 188q122 0 207 86t85 209q0 122 -85 208t-207 86q-121 0 -206 -86t-85 -208q0 -123 85 -209t206 -86z" />
<glyph unicode="c" horiz-adv-x="1086" d="M574 -18q-141 0 -258 66t-184 180.5t-67 252.5t67 252.5t184 181t258 66.5q154 0 277.5 -81.5t181.5 -216.5l-197 -85q-35 78 -104 125t-158 47q-124 0 -206.5 -83t-82.5 -206t82.5 -205.5t206.5 -82.5q89 0 158.5 46.5t103.5 124.5l197 -85q-58 -135 -181.5 -216 t-277.5 -81z" />
<glyph unicode="d" horiz-adv-x="1257" d="M870 1536h229v-1536h-216l-5 139q-124 -158 -338 -158q-125 0 -233 65t-173 181t-65 256q0 210 139.5 355t331.5 145q207 0 330 -148v701zM589 188q121 0 206 86t85 209q0 122 -85 208t-206 86q-122 0 -207 -86t-85 -208q0 -123 85 -209t207 -86z" />
<glyph unicode="e" horiz-adv-x="1130" d="M1071 492v-49h-781q13 -122 93.5 -197t195.5 -75q81 0 149 37.5t109 106.5l184 -76q-60 -120 -176.5 -188.5t-263.5 -68.5q-223 0 -368.5 144.5t-145.5 354.5q0 137 65.5 252t182.5 182t259 67q138 0 251.5 -62t179.5 -174.5t66 -253.5zM576 796q-97 0 -168 -52 t-101 -141h526q-30 90 -96.5 141.5t-160.5 51.5z" />
<glyph unicode="f" horiz-adv-x="692" d="M679 963v-189h-243v-774h-228v774h-162v189h162v269q0 151 87 239.5t233 88.5q110 0 147 -30v-212q-49 37 -111 37q-58 0 -93 -41t-35 -109v-242h243z" />
<glyph unicode="g" horiz-adv-x="1260" d="M871 963h230v-945q0 -230 -149 -374t-374 -144q-137 0 -264.5 65t-202.5 182l147 136q57 -84 138.5 -131.5t173.5 -47.5q129 0 215 88t86 226v107q-115 -144 -317 -144q-204 0 -345.5 144.5t-141.5 357.5q0 140 65 255t176.5 180t244.5 65q202 0 318 -144v124zM587 188 q121 0 206 86.5t85 208.5t-85 208t-206 86q-123 0 -207.5 -85.5t-84.5 -208.5t84.5 -209t207.5 -86z" />
<glyph unicode="h" horiz-adv-x="1117" d="M634 981q149 0 249.5 -103t100.5 -253v-625h-228v601q0 75 -51.5 125t-127.5 50q-80 0 -134.5 -50t-55.5 -124v-602h-228v1536h228v-656q101 101 247 101z" />
<glyph unicode="i" horiz-adv-x="544" d="M273 1134q-56 0 -96.5 40t-40.5 96q0 57 40 96t97 39q55 0 95.5 -39.5t40.5 -95.5t-40.5 -96t-95.5 -40zM159 0v963h226v-963h-226z" />
<glyph unicode="j" horiz-adv-x="544" d="M273 1134q-57 0 -97.5 40t-40.5 96q0 57 40.5 96t97.5 39q55 0 95 -39.5t40 -95.5t-40 -96t-95 -40zM159 -481v1444h226v-1444h-226z" />
<glyph unicode="k" horiz-adv-x="1096" d="M1100 0h-296l-417 473v-473h-228v1536h228v-981l362 408h290l-413 -444z" />
<glyph unicode="l" horiz-adv-x="546" d="M159 0v1536h228v-1536h-228z" />
<glyph unicode="m" horiz-adv-x="1664" d="M1175 981q152 0 254.5 -106.5t102.5 -263.5v-611h-228v595q0 76 -48.5 127.5t-121.5 51.5q-77 0 -126 -54.5t-49 -133.5v-586h-228v595q0 76 -48.5 127.5t-122.5 51.5q-77 0 -125 -54t-48 -134v-586h-228v963h228v-94q94 112 230 112q79 0 151 -39.5t120 -107.5 q50 69 124 108t163 39z" />
<glyph unicode="n" horiz-adv-x="1117" d="M638 981q145 0 245.5 -103.5t100.5 -252.5v-625h-228v600q0 78 -52.5 129t-129.5 51q-78 0 -132 -51.5t-55 -127.5v-601h-228v963h228v-83q103 101 251 101z" />
<glyph unicode="o" horiz-adv-x="1148" d="M574 -18q-141 0 -258 66.5t-184 181t-67 251.5t67 252t184 181.5t258 66.5q213 0 360 -145.5t147 -354.5q0 -208 -147 -353.5t-360 -145.5zM573 190q120 0 203 84t83 207t-83 207.5t-203 84.5q-121 0 -203.5 -84t-82.5 -208t82.5 -207.5t203.5 -83.5z" />
<glyph unicode="p" horiz-adv-x="1257" d="M717 982q126 0 234 -65.5t172.5 -181.5t64.5 -255t-64.5 -254.5t-172.5 -181t-234 -65.5q-207 0 -330 148v-619h-228v1455h216l5 -138q125 157 337 157zM668 186q122 0 207 85.5t85 208.5t-85 209t-207 86q-121 0 -205.5 -86t-84.5 -209t84.5 -208.5t205.5 -85.5z" />
<glyph unicode="q" horiz-adv-x="1257" d="M882 963h216v-1455h-228v619q-123 -148 -330 -148q-126 0 -234 65.5t-172.5 181t-64.5 254.5t64.5 255t172.5 181.5t234 65.5q212 0 337 -157zM589 186q121 0 205.5 85.5t84.5 208.5t-84.5 209t-205.5 86q-122 0 -207 -86t-85 -209t85 -208.5t207 -85.5z" />
<glyph unicode="r" horiz-adv-x="787" d="M643 982q83 0 148 -44l-78 -195q-44 22 -89 22q-100 0 -168.5 -81t-68.5 -208v-476h-228v963h228v-152q86 171 256 171z" />
<glyph unicode="s" horiz-adv-x="908" d="M454 -19q-211 0 -394 124l107 166q57 -45 135.5 -76t153.5 -31q74 0 117.5 31t43.5 84q0 14 -3 26t-11 22t-15.5 17.5t-23 15t-25.5 12.5t-31.5 11.5t-33 10t-37.5 10.5t-39 11q-53 14 -86 25t-78 34t-71 49.5t-45 70t-19 97.5q0 138 107 214.5t267 76.5q190 0 335 -98 l-108 -151q-118 77 -245 77q-67 0 -106 -25.5t-39 -69.5q0 -35 32.5 -60.5t63 -35.5t102.5 -28l12 -3t10.5 -3t11.5 -3q67 -17 113.5 -36.5t90.5 -52t66 -82t22 -116.5q0 -149 -103 -231.5t-277 -82.5z" />
<glyph unicode="t" horiz-adv-x="668" d="M640 963v-189h-191v-774h-229v774h-193v189h193v346h229v-346h191z" />
<glyph unicode="u" horiz-adv-x="1074" d="M536 -19q-188 0 -296 101.5t-108 274.5v606h228v-585q0 -90 49 -141.5t127 -51.5q80 0 129 51.5t49 141.5v585h228v-606q0 -173 -108.5 -274.5t-297.5 -101.5z" />
<glyph unicode="v" horiz-adv-x="1001" d="M752 963h243l-424 -963h-145l-420 963h242l252 -642z" />
<glyph unicode="w" horiz-adv-x="1522" d="M1282 963h234l-342 -963h-177l-238 647l-239 -647h-176l-338 963h232l213 -646l237 646h143l238 -650z" />
<glyph unicode="x" horiz-adv-x="1112" d="M16 0l403 481l-403 482h273l266 -326l268 326h274l-404 -482l404 -481h-275l-265 325l-265 -325h-276z" />
<glyph unicode="y" horiz-adv-x="1035" d="M779 963h245l-583 -1455h-236l195 496l-391 959h251l264 -720z" />
<glyph unicode="z" horiz-adv-x="958" d="M905 963l-498 -774h493v-189h-858l497 774h-466v189h832z" />
<glyph unicode="{" horiz-adv-x="628" d="M460 -503q-114 0 -185 83t-71 207v485q0 152 -28 210t-126 101v147q98 43 126 101t28 211v484q0 126 70.5 208.5t185.5 82.5h107v-176h-61q-107 0 -107 -157v-459q0 -143 -36 -229t-145 -139q109 -53 145 -139.5t36 -228.5v-462q0 -80 24.5 -116.5t82.5 -36.5h61v-177 h-107z" />
<glyph unicode="|" horiz-adv-x="623" d="M239 -307v1843h146v-1843h-146z" />
<glyph unicode="}" horiz-adv-x="628" d="M168 -503h-107v177h61q58 0 82.5 36.5t24.5 116.5v462q0 142 36 228.5t145 139.5q-109 53 -145 139t-36 229v459q0 157 -107 157h-61v176h107q115 0 185.5 -82.5t70.5 -208.5v-484q0 -153 28 -211t126 -101v-147q-98 -43 -126 -101t-28 -210v-485q0 -124 -71 -207 t-185 -83z" />
<glyph unicode="~" horiz-adv-x="1393" d="M907 328q-25 0 -48.5 3t-45 11t-38.5 14.5t-36 20t-30 21t-28.5 24t-23.5 22t-22 22.5t-18 19q-61 65 -115 65q-69 0 -107 -59.5t-37 -144.5h-180q-9 171 81 277.5t247 106.5q85 0 143 -35.5t118 -111.5q22 -26 35 -39t38 -26.5t52 -13.5q63 0 104 55.5t35 146.5h179 q15 -160 -72.5 -269t-230.5 -109z" />
<glyph unicode="&#xa1;" horiz-adv-x="662" d="M330 1044q57 0 98.5 -41t41.5 -98q0 -58 -41.5 -99t-98.5 -41q-56 0 -97.5 41.5t-41.5 98.5t41.5 98t97.5 41zM216 548h228v-1060h-228v1060z" />
<glyph unicode="&#xa2;" horiz-adv-x="1205" d="M706 1436v-263h-139v263h139zM602 310q89 0 158.5 46.5t103.5 124.5l197 -85q-47 -111 -141 -186.5t-214 -100.5v-111h-139v102q-203 13 -338.5 155t-135.5 343q0 138 67 252.5t184 181t258 66.5q154 0 277.5 -81.5t181.5 -216.5l-197 -85q-35 78 -104 125t-158 47 q-124 0 -206.5 -83t-82.5 -206t82.5 -205.5t206.5 -82.5z" />
<glyph unicode="&#xa3;" horiz-adv-x="1403" d="M535 648v-440h728v-208h-1118v182l164 16v450h-164v193h164v203q0 224 140.5 368t360.5 144q159 0 294.5 -99t181.5 -252l-213 -92q-15 93 -92 155.5t-171 62.5q-126 0 -200.5 -78.5t-74.5 -208.5v-203h381v-193h-381z" />
<glyph unicode="&#xa4;" horiz-adv-x="1384" d="M690 274q-145 0 -263 83l-108 -109l-122 129l107 105q-82 116 -82 261q0 147 82 262l-105 103l122 129l108 -109q116 85 265 85q143 0 260 -84l105 106l124 -123l-105 -105q83 -116 83 -264q0 -147 -83 -263l105 -103l-122 -129l-107 109q-118 -83 -264 -83zM690 447 q124 0 210 87.5t86 209.5q0 121 -87 207.5t-209 86.5q-123 0 -209.5 -88t-86.5 -211t87.5 -207.5t208.5 -84.5z" />
<glyph unicode="&#xa5;" horiz-adv-x="1491" d="M632 0v255h-374v164h374v159h-374v169h358l-521 789h279l377 -587l378 587h275l-522 -789h360v-169h-373v-159h372v-164h-372v-255h-237z" />
<glyph unicode="&#xa6;" horiz-adv-x="623" d="M239 799v737h146v-737h-146zM239 -307v737h146v-737h-146z" />
<glyph unicode="&#xa7;" horiz-adv-x="1211" d="M611 -620q-130 4 -242 64t-182 152l167 140q96 -139 262 -144q98 -3 163.5 44.5t67.5 140.5q2 53 -21.5 95.5t-65 72.5t-95.5 57t-113.5 52.5t-119 54t-113 67.5t-94 87t-63 118t-19.5 156q7 187 139 303q-151 118 -144 312q7 193 140.5 302.5t322.5 103.5 q130 -4 240.5 -63.5t181.5 -152.5l-167 -140q-98 139 -260 144q-98 3 -164 -44.5t-70 -140.5q-2 -53 21.5 -95.5t65 -72.5t95.5 -57t114 -52.5t119.5 -54t113 -67.5t94 -87t63 -118t19.5 -156q-6 -190 -138 -303q147 -120 142 -312q-6 -193 -138.5 -302.5t-321.5 -103.5z M717 220q57 21 91.5 70.5t35.5 114.5q1 25 -4 48.5t-12 42t-23.5 37.5t-29 32.5t-38 30.5t-40.5 26.5t-48 25.5t-48.5 23t-53 23.5t-52.5 23.5q-58 -21 -93 -70.5t-36 -114.5q-1 -25 4 -48.5t12 -42t24 -38t29 -32.5t38 -30t41 -26.5t48 -25.5t49 -23t53.5 -23.5t52.5 -23.5 z" />
<glyph unicode="&#xa8;" horiz-adv-x="895" d="M258 1136q-53 0 -91.5 38t-38.5 91q0 54 38.5 91.5t91.5 37.5t91.5 -37.5t38.5 -91.5q0 -53 -38.5 -91t-91.5 -38zM656 1136q-53 0 -91.5 38t-38.5 91q0 54 38 91.5t92 37.5t91.5 -37.5t37.5 -91.5q0 -53 -38 -91t-91 -38z" />
<glyph unicode="&#xa9;" horiz-adv-x="1820" d="M910 -20q-160 0 -306 62.5t-251.5 168t-168 251.5t-62.5 306t62.5 306t168 251.5t251.5 168t306 62.5q128 0 248.5 -40t217.5 -113t170 -170t113 -217t40 -248t-40 -248t-113 -217t-170 -170t-217.5 -113t-248.5 -40zM910 107q136 0 259 52t211.5 140t140.5 210.5 t52 258.5t-52 258.5t-140.5 210.5t-211.5 140t-259 52t-258.5 -52t-210.5 -140t-140 -210.5t-52 -258.5t52 -258.5t140 -210.5t210.5 -140t258.5 -52zM913 330q-182 0 -310 128t-128 310q0 183 128 310.5t310 127.5q90 0 176.5 -38.5t145.5 -103.5l-98 -84q-41 47 -100.5 73 t-123.5 26q-130 0 -219 -89.5t-89 -221.5q0 -130 89.5 -219.5t218.5 -89.5q64 0 123.5 26t100.5 73l98 -85q-59 -66 -145.5 -104.5t-176.5 -38.5z" />
<glyph unicode="&#xaa;" horiz-adv-x="974" d="M648 1536h140v-614h-140v103q-83 -116 -226 -116q-127 0 -217 93.5t-90 226.5t90 226t217 93q143 0 226 -116v104zM451 1032q81 0 139 57.5t58 139.5q0 81 -58 137.5t-139 56.5q-82 0 -139 -56.5t-57 -137.5q0 -82 57 -139.5t139 -57.5z" />
<glyph unicode="&#xab;" horiz-adv-x="1034" d="M359 104l-311 377l311 377h187l-312 -377l312 -377h-187zM779 104l-311 377l311 377h190l-311 -377l311 -377h-190z" />
<glyph unicode="&#xac;" horiz-adv-x="1631" d="M1223 213v524h-1112v174h1283v-698h-171z" />
<glyph unicode="&#xad;" horiz-adv-x="1024" d="M154 384v184h717v-184h-717z" />
<glyph unicode="&#xae;" horiz-adv-x="1820" d="M910 1556q128 0 248.5 -40t217.5 -113t170 -170t113 -217t40 -248t-40 -248t-113 -217t-170 -170t-217.5 -113t-248.5 -40q-160 0 -306 62.5t-251.5 168t-168 251.5t-62.5 306t62.5 306t168 251.5t251.5 168t306 62.5zM910 107q136 0 259 52t211.5 140t140.5 210.5 t52 258.5t-52 258.5t-140.5 210.5t-211.5 140t-259 52t-258.5 -52t-210.5 -140t-140 -210.5t-52 -258.5t52 -258.5t140 -210.5t210.5 -140t258.5 -52zM1263 971q0 -84 -44 -150.5t-116 -97.5l188 -427h-152l-174 405h-194v-405h-141v945h362q114 0 192.5 -79t78.5 -191z M771 1111v-283h203q65 0 107.5 38t42.5 102q0 63 -43 103t-107 40h-203z" />
<glyph unicode="&#xaf;" horiz-adv-x="940" d="M173 1222v143h635v-143h-635z" />
<glyph unicode="&#xb0;" horiz-adv-x="951" d="M475 1081q-130 0 -221.5 91.5t-91.5 221.5t91.5 221.5t221.5 91.5q129 0 221 -91.5t92 -221.5t-92 -221.5t-221 -91.5zM475 1195q83 0 141 58t58 141t-58 141t-141 58t-141 -58t-58 -141t58 -141t141 -58z" />
<glyph unicode="&#xb2;" horiz-adv-x="711" d="M328 780h322v-166h-619v75q137 141 224 240.5t128 162t54.5 98.5t13.5 71q0 68 -35 97t-84 28q-59 -1 -88 -38t-27 -93h-181q-1 132 83 213.5t219 81.5q127 0 206 -74.5t80 -198.5q1 -111 -69.5 -227t-226.5 -270z" />
<glyph unicode="&#xb3;" horiz-adv-x="696" d="M512 1129q61 -37 96 -97t35 -134q0 -124 -89 -210t-221 -86q-126 0 -214 77.5t-88 195.5l182 2q0 -45 36 -74.5t85 -29.5q56 0 93 37.5t37 93.5q0 55 -35.5 86t-91.5 31h-88l-1 158h78q44 0 73 30.5t29 73.5t-29 69.5t-73 26.5q-41 0 -66.5 -23t-25.5 -60l-177 3 q0 109 76.5 179t192.5 70q113 0 189.5 -70.5t76.5 -176.5t-80 -172z" />
<glyph unicode="&#xb4;" horiz-adv-x="502" d="M112 1134l-85 94l306 329l117 -131z" />
<glyph unicode="&#xb5;" horiz-adv-x="1213" d="M828 963h226v-963h-226v123q-55 -66 -131 -103.5t-162 -37.5q-113 0 -208 63v-526h-168v1444h228v-569q0 -89 62.5 -151t151.5 -62q95 0 161 62t66 151v569z" />
<glyph unicode="&#xb6;" horiz-adv-x="1170" d="M498 -307v1157h-52q-171 0 -268 89.5t-97 254.5t97 253.5t268 88.5h172v-1843h-120zM810 -307v1843h121v-1843h-121z" />
<glyph unicode="&#xb7;" horiz-adv-x="599" d="M299 624q-47 0 -80.5 32.5t-33.5 80.5q0 46 34 80.5t80 34.5q45 0 80 -34.5t35 -80.5q0 -48 -34.5 -80.5t-80.5 -32.5z" />
<glyph unicode="&#xb8;" horiz-adv-x="601" d="M305 -532q-74 0 -143 41.5t-95 102.5l111 40q18 -27 55.5 -46.5t71.5 -19.5q41 0 70 29t29 71q0 63 -54 84.5t-130 -11.5l-93 57l97 188h120l-67 -132q102 19 173.5 -35.5t71.5 -150.5q0 -92 -63 -155t-154 -63z" />
<glyph unicode="&#xb9;" horiz-adv-x="466" d="M161 614v755h-131v167h309v-922h-178z" />
<glyph unicode="&#xba;" horiz-adv-x="896" d="M447 909q-141 0 -238.5 93t-97.5 227q0 133 97.5 226t238.5 93t239 -93t98 -226q0 -134 -98 -227t-239 -93zM447 1032q81 0 139 57.5t58 139.5q0 81 -58 137.5t-139 56.5q-82 0 -139 -56.5t-57 -137.5q0 -82 57 -139.5t139 -57.5z" />
<glyph unicode="&#xbb;" horiz-adv-x="1034" d="M65 104l311 377l-311 377h186l311 -377l-311 -377h-186zM485 104l311 377l-311 377h189l312 -377l-312 -377h-189z" />
<glyph unicode="&#xbc;" horiz-adv-x="1680" d="M161 614v755h-131v167h309v-922h-178zM1168 1536h190l-1071 -1536h-190zM1615 361v-166h-81v-195h-179v195h-437v112l380 615h236v-561h81zM1139 361h216v372z" />
<glyph unicode="&#xbd;" horiz-adv-x="1700" d="M161 614v755h-131v167h309v-922h-178zM1168 1536h190l-1071 -1536h-190zM1317 166h322v-166h-619v75q137 141 224 240.5t128 162t54.5 98.5t13.5 71q0 68 -35 97t-84 28q-59 -1 -88 -38t-27 -93h-181q-1 132 83 213.5t219 81.5q127 0 206 -74.5t80 -198.5 q1 -111 -69.5 -227t-226.5 -270z" />
<glyph unicode="&#xbe;" horiz-adv-x="1910" d="M643 898q0 -124 -89 -210t-221 -86q-126 0 -214 77.5t-88 195.5l182 2q0 -45 36 -74.5t85 -29.5q56 0 93 37.5t37 93.5q0 55 -35.5 86t-91.5 31h-88l-1 158h78q44 0 73 30.5t29 73.5t-29 69.5t-73 26.5q-41 0 -66.5 -23t-25.5 -60l-177 3q0 109 76.5 179t192.5 70 q113 0 189.5 -70.5t76.5 -176.5t-80 -172q61 -37 96 -97t35 -134zM1398 1536h190l-1071 -1536h-190zM1845 361v-166h-81v-195h-179v195h-437v112l380 615h236v-561h81zM1369 361h216v372z" />
<glyph unicode="&#xbf;" horiz-adv-x="1075" d="M539 1046q57 0 98.5 -41t41.5 -98t-41.5 -98.5t-98.5 -41.5t-98 41.5t-41 98.5q0 58 40.5 98.5t98.5 40.5zM649 571v-118q0 -78 -20.5 -134.5t-53 -89t-72 -56.5t-79 -45t-72 -46.5t-53 -68.5t-20.5 -104q0 -105 76 -172t192 -67t190 74t78 189h202 q-1 -198 -133.5 -326.5t-336.5 -128.5q-202 0 -335.5 123t-133.5 308q0 79 20 140t52.5 97.5t71 65t77.5 50.5t71.5 45t52.5 58.5t20 81.5v124h206z" />
<glyph unicode="&#xc0;" horiz-adv-x="1372" d="M774 1739l-81 -90l-340 289l119 131zM1112 0l-88 242h-678l-88 -242h-258l610 1536h150l612 -1536h-260zM422 449h527l-263 726z" />
<glyph unicode="&#xc1;" horiz-adv-x="1372" d="M995 1938l-338 -292l-85 94l306 329zM1112 0l-88 242h-678l-88 -242h-258l610 1536h150l612 -1536h-260zM422 449h527l-263 726z" />
<glyph unicode="&#xc2;" horiz-adv-x="1372" d="M686 1869l-210 -224l-102 64l220 298h181l222 -298l-103 -64zM1112 0l-88 242h-678l-88 -242h-258l610 1536h150l612 -1536h-260zM422 449h527l-263 726z" />
<glyph unicode="&#xc3;" horiz-adv-x="1372" d="M554 1799q-43 0 -66 -43.5t-23 -110.5h-143q0 128 61 211t165 83q116 0 195 -115q33 -49 75 -49q86 0 86 154h142q0 -128 -59.5 -211t-166.5 -83q-119 0 -194 115q-33 49 -72 49zM1112 0l-88 242h-678l-88 -242h-258l610 1536h150l612 -1536h-260zM422 449h527l-263 726z " />
<glyph unicode="&#xc4;" horiz-adv-x="1372" d="M488 1648q-53 0 -91.5 38t-38.5 91q0 54 38.5 91.5t91.5 37.5t91.5 -37.5t38.5 -91.5q0 -53 -38.5 -91t-91.5 -38zM886 1648q-53 0 -91.5 38t-38.5 91q0 54 38 91.5t92 37.5t91.5 -37.5t37.5 -91.5q0 -53 -38 -91t-91 -38zM1112 0l-88 242h-678l-88 -242h-258l610 1536 h150l612 -1536h-260zM422 449h527l-263 726z" />
<glyph unicode="&#xc5;" horiz-adv-x="1372" d="M686 1667q-94 0 -162 67.5t-68 161.5t67.5 160.5t162.5 66.5q93 0 159.5 -66.5t66.5 -160.5t-66.5 -161.5t-159.5 -67.5zM686 2019q-50 0 -84.5 -37t-34.5 -86q0 -53 34 -87.5t85 -34.5t85.5 34.5t34.5 87.5q0 49 -35 86t-85 37zM1112 0l-88 242h-678l-88 -242h-258 l610 1536h150l612 -1536h-260zM422 449h527l-263 726z" />
<glyph unicode="&#xc6;" horiz-adv-x="1877" d="M1772 1316h-650v-438h564v-219h-564v-439h650v-220h-875v348h-471l-134 -348h-266l617 1536h1129v-220zM504 550h393v785h-90z" />
<glyph unicode="&#xc7;" horiz-adv-x="1500" d="M874 208q116 0 223 47t182 131l174 -151q-99 -110 -243 -178t-297 -76l-55 -109q102 19 173.5 -35.5t71.5 -150.5q0 -92 -63 -155t-154 -63q-74 0 -143 41.5t-95 102.5l111 40q18 -27 55.5 -46.5t71.5 -19.5q41 0 70 29t29 71q0 63 -53.5 84.5t-130.5 -11.5l-93 57 l87 168q-148 14 -279 81.5t-225.5 170.5t-149.5 242t-55 290q0 161 62 307t167.5 251.5t251.5 167.5t307 62t317 -69t262 -186l-174 -151q-75 84 -182 131t-223 47q-115 0 -218.5 -43.5t-177.5 -118t-117.5 -178.5t-43.5 -220t43.5 -220t117.5 -178.5t177.5 -118 t218.5 -43.5z" />
<glyph unicode="&#xc8;" horiz-adv-x="1188" d="M729 1739l-81 -90l-340 289l119 131zM1085 1319h-651v-442h565v-218h-565v-442h651v-217h-887v1536h887v-217z" />
<glyph unicode="&#xc9;" horiz-adv-x="1188" d="M950 1938l-338 -292l-85 94l306 329zM1085 1319h-651v-442h565v-218h-565v-442h651v-217h-887v1536h887v-217z" />
<glyph unicode="&#xca;" horiz-adv-x="1188" d="M641 1869l-210 -224l-102 64l220 298h181l222 -298l-103 -64zM1085 1319h-651v-442h565v-218h-565v-442h651v-217h-887v1536h887v-217z" />
<glyph unicode="&#xcb;" horiz-adv-x="1188" d="M443 1648q-53 0 -91.5 38t-38.5 91q0 54 38.5 91.5t91.5 37.5t91.5 -37.5t38.5 -91.5q0 -53 -38.5 -91t-91.5 -38zM841 1648q-53 0 -91.5 38t-38.5 91q0 54 38 91.5t92 37.5t91.5 -37.5t37.5 -91.5q0 -53 -38 -91t-91 -38zM1085 1319h-651v-442h565v-218h-565v-442h651 v-217h-887v1536h887v-217z" />
<glyph unicode="&#xcc;" horiz-adv-x="632" d="M322 1649l-340 289l119 131l302 -330zM198 0v1536h236v-1536h-236z" />
<glyph unicode="&#xcd;" horiz-adv-x="632" d="M286 1646l-85 94l306 329l117 -131zM198 0v1536h236v-1536h-236z" />
<glyph unicode="&#xce;" horiz-adv-x="632" d="M105 1645l-102 64l220 298h181l222 -298l-103 -64l-208 224zM198 0v1536h236v-1536h-236z" />
<glyph unicode="&#xcf;" horiz-adv-x="632" d="M117 1648q-53 0 -91.5 38t-38.5 91q0 54 38.5 91.5t91.5 37.5t91.5 -37.5t38.5 -91.5q0 -53 -38.5 -91t-91.5 -38zM515 1648q-53 0 -91.5 38t-38.5 91q0 54 38 91.5t92 37.5t91.5 -37.5t37.5 -91.5q0 -53 -38 -91t-91 -38zM198 0v1536h236v-1536h-236z" />
<glyph unicode="&#xd0;" horiz-adv-x="1511" d="M653 1536q167 0 312 -60.5t246 -164t158.5 -245t57.5 -298.5t-57.5 -298.5t-158.5 -245t-246 -164t-312 -60.5h-455v687h-153v148h153v701h455zM645 221q237 0 388.5 155.5t151.5 391.5t-151.5 391.5t-388.5 155.5h-212v-480h257v-148h-257v-466h212z" />
<glyph unicode="&#xd1;" horiz-adv-x="1577" d="M634 1799q-43 0 -66 -43.5t-23 -110.5h-143q0 128 61 211t165 83q116 0 195 -115q33 -49 75 -49q86 0 86 154h142q0 -128 -59.5 -211t-166.5 -83q-119 0 -194 115q-33 49 -72 49zM1167 1536h236v-1536h-94l-897 1041v-1041h-236v1536h92l899 -1037v1037z" />
<glyph unicode="&#xd2;" horiz-adv-x="1746" d="M880 1649l-340 289l119 131l302 -330zM873 -20q-161 0 -307 62.5t-251.5 167.5t-168 251t-62.5 307t62.5 307t168 251t251.5 167.5t307 62.5q214 0 395.5 -105.5t287 -287t105.5 -395.5t-105.5 -395.5t-287 -287t-395.5 -105.5zM873 211q115 0 218.5 43.5t177.5 117.5 t117.5 177.5t43.5 218.5t-43.5 218.5t-117.5 177.5t-177.5 117.5t-218.5 43.5q-153 0 -281 -73.5t-202 -201.5t-74 -282t74 -282t202 -201.5t281 -73.5z" />
<glyph unicode="&#xd3;" horiz-adv-x="1746" d="M844 1646l-85 94l306 329l117 -131zM873 -20q-161 0 -307 62.5t-251.5 167.5t-168 251t-62.5 307t62.5 307t168 251t251.5 167.5t307 62.5q214 0 395.5 -105.5t287 -287t105.5 -395.5t-105.5 -395.5t-287 -287t-395.5 -105.5zM873 211q115 0 218.5 43.5t177.5 117.5 t117.5 177.5t43.5 218.5t-43.5 218.5t-117.5 177.5t-177.5 117.5t-218.5 43.5q-153 0 -281 -73.5t-202 -201.5t-74 -282t74 -282t202 -201.5t281 -73.5z" />
<glyph unicode="&#xd4;" horiz-adv-x="1746" d="M663 1645l-102 64l220 298h181l222 -298l-103 -64l-208 224zM873 -20q-161 0 -307 62.5t-251.5 167.5t-168 251t-62.5 307t62.5 307t168 251t251.5 167.5t307 62.5q214 0 395.5 -105.5t287 -287t105.5 -395.5t-105.5 -395.5t-287 -287t-395.5 -105.5zM873 211 q115 0 218.5 43.5t177.5 117.5t117.5 177.5t43.5 218.5t-43.5 218.5t-117.5 177.5t-177.5 117.5t-218.5 43.5q-153 0 -281 -73.5t-202 -201.5t-74 -282t74 -282t202 -201.5t281 -73.5z" />
<glyph unicode="&#xd5;" horiz-adv-x="1746" d="M1007 1635q-119 0 -194 115q-33 49 -72 49q-43 0 -66 -43.5t-23 -110.5h-143q0 128 61 211t165 83q116 0 195 -115q33 -49 75 -49q86 0 86 154h142q0 -128 -59.5 -211t-166.5 -83zM873 -20q-161 0 -307 62.5t-251.5 167.5t-168 251t-62.5 307t62.5 307t168 251 t251.5 167.5t307 62.5q214 0 395.5 -105.5t287 -287t105.5 -395.5t-105.5 -395.5t-287 -287t-395.5 -105.5zM873 211q115 0 218.5 43.5t177.5 117.5t117.5 177.5t43.5 218.5t-43.5 218.5t-117.5 177.5t-177.5 117.5t-218.5 43.5q-153 0 -281 -73.5t-202 -201.5t-74 -282 t74 -282t202 -201.5t281 -73.5z" />
<glyph unicode="&#xd6;" horiz-adv-x="1746" d="M675 1648q-53 0 -91.5 38t-38.5 91q0 54 38.5 91.5t91.5 37.5t91.5 -37.5t38.5 -91.5q0 -53 -38.5 -91t-91.5 -38zM1073 1648q-53 0 -91.5 38t-38.5 91q0 54 38 91.5t92 37.5t91.5 -37.5t37.5 -91.5q0 -53 -38 -91t-91 -38zM873 -20q-161 0 -307 62.5t-251.5 167.5 t-168 251t-62.5 307t62.5 307t168 251t251.5 167.5t307 62.5q214 0 395.5 -105.5t287 -287t105.5 -395.5t-105.5 -395.5t-287 -287t-395.5 -105.5zM873 211q115 0 218.5 43.5t177.5 117.5t117.5 177.5t43.5 218.5t-43.5 218.5t-117.5 177.5t-177.5 117.5t-218.5 43.5 q-153 0 -281 -73.5t-202 -201.5t-74 -282t74 -282t202 -201.5t281 -73.5z" />
<glyph unicode="&#xd7;" horiz-adv-x="1067" d="M265 275l-135 136l267 267l-267 266l135 137l269 -266l266 266l137 -137l-269 -266l269 -267l-137 -136l-266 267z" />
<glyph unicode="&#xd8;" horiz-adv-x="1746" d="M1385 1368q129 -110 202.5 -266t73.5 -334q0 -214 -105.5 -395.5t-287 -287t-395.5 -105.5q-206 0 -386 101l-127 -182l-130 79l132 189q-130 111 -204 267.5t-74 333.5q0 161 62.5 307t168 251t251.5 167.5t307 62.5q206 0 387 -101l125 180l130 -80zM316 768 q0 -121 47 -227.5t131 -183.5l633 908q-115 60 -254 60q-153 0 -281 -73.5t-202 -201.5t-74 -282zM873 211q115 0 218.5 43.5t177.5 117.5t117.5 177.5t43.5 218.5q0 121 -47 227.5t-130 183.5l-634 -908q117 -60 254 -60z" />
<glyph unicode="&#xd9;" horiz-adv-x="1536" d="M774 1649l-340 289l119 131l302 -330zM767 -20q-171 0 -308.5 67.5t-215.5 189.5t-78 275v1024h236v-983q0 -155 103.5 -253.5t262.5 -98.5t263 99t104 253v983h237v-1024q0 -232 -171.5 -382t-432.5 -150z" />
<glyph unicode="&#xda;" horiz-adv-x="1536" d="M738 1646l-85 94l306 329l117 -131zM767 -20q-171 0 -308.5 67.5t-215.5 189.5t-78 275v1024h236v-983q0 -155 103.5 -253.5t262.5 -98.5t263 99t104 253v983h237v-1024q0 -232 -171.5 -382t-432.5 -150z" />
<glyph unicode="&#xdb;" horiz-adv-x="1536" d="M557 1645l-102 64l220 298h181l222 -298l-103 -64l-208 224zM767 -20q-171 0 -308.5 67.5t-215.5 189.5t-78 275v1024h236v-983q0 -155 103.5 -253.5t262.5 -98.5t263 99t104 253v983h237v-1024q0 -232 -171.5 -382t-432.5 -150z" />
<glyph unicode="&#xdc;" horiz-adv-x="1536" d="M569 1648q-53 0 -91.5 38t-38.5 91q0 54 38.5 91.5t91.5 37.5t91.5 -37.5t38.5 -91.5q0 -53 -38.5 -91t-91.5 -38zM967 1648q-53 0 -91.5 38t-38.5 91q0 54 38 91.5t92 37.5t91.5 -37.5t37.5 -91.5q0 -53 -38 -91t-91 -38zM767 -20q-171 0 -308.5 67.5t-215.5 189.5 t-78 275v1024h236v-983q0 -155 103.5 -253.5t262.5 -98.5t263 99t104 253v983h237v-1024q0 -232 -171.5 -382t-432.5 -150z" />
<glyph unicode="&#xdd;" horiz-adv-x="1335" d="M978 1938l-338 -292l-85 94l306 329zM1322 1536l-535 -809v-727h-236v722l-538 814h279l377 -589l378 589h275z" />
<glyph unicode="&#xde;" horiz-adv-x="1283" d="M787 1319q182 0 310.5 -130t128.5 -315q0 -181 -128.5 -307t-310.5 -126h-361v-441h-228v1531h228v-212h361zM773 656q100 0 165.5 63t65.5 161t-65.5 161t-165.5 63h-347v-448h347z" />
<glyph unicode="&#xdf;" horiz-adv-x="1312" d="M1015 794q105 -60 166 -161t61 -223q0 -118 -54.5 -213.5t-148.5 -147.5t-207 -49h-178v218h137q92 1 157 56t65 149q0 104 -76.5 177t-185.5 73h-100v189h41q102 0 174.5 71.5t72.5 171.5t-74.5 165t-190.5 65q-126 0 -206.5 -77.5t-80.5 -208.5v-1049h-228v1055 q0 214 145.5 347.5t366.5 133.5q210 0 346.5 -121t136.5 -305q0 -93 -36.5 -174.5t-102.5 -141.5z" />
<glyph unicode="&#xe0;" horiz-adv-x="1256" d="M671 1167l-81 -90l-340 289l119 131zM870 963h229v-963h-216l-5 139q-124 -158 -338 -158q-125 0 -233 65t-173 181t-65 256q0 210 139.5 355t331.5 145q207 0 330 -148v128zM589 188q121 0 206 86t85 209q0 122 -85 208t-206 86q-122 0 -207 -86t-85 -208 q0 -123 85 -209t207 -86z" />
<glyph unicode="&#xe1;" horiz-adv-x="1256" d="M892 1366l-338 -292l-85 94l306 329zM870 963h229v-963h-216l-5 139q-124 -158 -338 -158q-125 0 -233 65t-173 181t-65 256q0 210 139.5 355t331.5 145q207 0 330 -148v128zM589 188q121 0 206 86t85 209q0 122 -85 208t-206 86q-122 0 -207 -86t-85 -208 q0 -123 85 -209t207 -86z" />
<glyph unicode="&#xe2;" horiz-adv-x="1256" d="M583 1297l-210 -224l-102 64l220 298h181l222 -298l-103 -64zM870 963h229v-963h-216l-5 139q-124 -158 -338 -158q-125 0 -233 65t-173 181t-65 256q0 210 139.5 355t331.5 145q207 0 330 -148v128zM589 188q121 0 206 86t85 209q0 122 -85 208t-206 86q-122 0 -207 -86 t-85 -208q0 -123 85 -209t207 -86z" />
<glyph unicode="&#xe3;" horiz-adv-x="1256" d="M451 1227q-43 0 -66 -43.5t-23 -110.5h-143q0 128 61 211t165 83q116 0 195 -115q33 -49 75 -49q86 0 86 154h142q0 -128 -59.5 -211t-166.5 -83q-119 0 -194 115q-33 49 -72 49zM870 963h229v-963h-216l-5 139q-124 -158 -338 -158q-125 0 -233 65t-173 181t-65 256 q0 210 139.5 355t331.5 145q207 0 330 -148v128zM589 188q121 0 206 86t85 209q0 122 -85 208t-206 86q-122 0 -207 -86t-85 -208q0 -123 85 -209t207 -86z" />
<glyph unicode="&#xe4;" horiz-adv-x="1256" d="M385 1137q-53 0 -91.5 38t-38.5 91q0 54 38.5 91.5t91.5 37.5t91.5 -37.5t38.5 -91.5q0 -53 -38.5 -91t-91.5 -38zM783 1137q-53 0 -91.5 38t-38.5 91q0 54 38 91.5t92 37.5t91.5 -37.5t37.5 -91.5q0 -53 -38 -91t-91 -38zM870 963h229v-963h-216l-5 139 q-124 -158 -338 -158q-125 0 -233 65t-173 181t-65 256q0 210 139.5 355t331.5 145q207 0 330 -148v128zM589 188q121 0 206 86t85 209q0 122 -85 208t-206 86q-122 0 -207 -86t-85 -208q0 -123 85 -209t207 -86z" />
<glyph unicode="&#xe5;" horiz-adv-x="1256" d="M598 1114q-95 0 -162.5 67.5t-67.5 160.5q0 94 67.5 161t162.5 67q93 0 159.5 -67t66.5 -161q0 -93 -66.5 -160.5t-159.5 -67.5zM598 1466q-50 0 -85 -37t-35 -87q0 -53 34.5 -87t85.5 -34q50 0 84.5 34t34.5 87q0 50 -35 87t-84 37zM870 963h229v-963h-216l-5 139 q-124 -158 -338 -158q-125 0 -233 65t-173 181t-65 256q0 210 139.5 355t331.5 145q207 0 330 -148v128zM589 188q121 0 206 86t85 209q0 122 -85 208t-206 86q-122 0 -207 -86t-85 -208q0 -123 85 -209t207 -86z" />
<glyph unicode="&#xe6;" horiz-adv-x="1770" d="M778 422h-173q17 -100 80 -165q42 38 76 90l137 -118q-32 -38 -49 -55q21 -3 42 -3q81 0 149 37.5t109 106.5l184 -76q-60 -120 -176.5 -188.5t-263.5 -68.5q-129 0 -238 53q-114 -54 -231 -54q-161 0 -256.5 82.5t-95.5 219.5q0 235 315 288q24 138 118 245 q-68 -2 -120 -36t-71 -91l-199 63q43 109 149.5 170t254.5 61q104 0 188 -32q85 31 179 31q138 0 251.5 -62t179.5 -174.5t66 -253.5v-49h-483zM1145 603q-29 88 -93.5 139.5t-155.5 53.5q44 -76 44 -174v-19h205zM711 626q0 52 -21 93q-48 -46 -71 -116h92v23zM460 159 q10 0 32 2q-86 105 -107 238q-81 -32 -81 -112q0 -60 42 -94t114 -34z" />
<glyph unicode="&#xe7;" horiz-adv-x="1086" d="M574 193q89 0 158.5 46.5t103.5 124.5l197 -85q-53 -124 -163 -203.5t-250 -91.5l-57 -112q102 19 173.5 -35.5t71.5 -150.5q0 -92 -63 -155t-154 -63q-74 0 -143 41.5t-95 102.5l111 40q18 -27 55.5 -46.5t71.5 -19.5q41 0 70 29t29 71q0 63 -54 84.5t-130 -11.5l-93 57 l88 171q-189 25 -312.5 164t-123.5 330q0 138 67 252.5t184 181t258 66.5q154 0 277.5 -81.5t181.5 -216.5l-197 -85q-35 78 -104 125t-158 47q-124 0 -206.5 -83t-82.5 -206t82.5 -205.5t206.5 -82.5z" />
<glyph unicode="&#xe8;" horiz-adv-x="1130" d="M673 1173l-81 -90l-340 289l119 131zM1071 492v-49h-781q13 -122 93.5 -197t195.5 -75q81 0 149 37.5t109 106.5l184 -76q-60 -120 -176.5 -188.5t-263.5 -68.5q-223 0 -368.5 144.5t-145.5 354.5q0 137 65.5 252t182.5 182t259 67q138 0 251.5 -62t179.5 -174.5 t66 -253.5zM576 796q-97 0 -168 -52t-101 -141h526q-30 90 -96.5 141.5t-160.5 51.5z" />
<glyph unicode="&#xe9;" horiz-adv-x="1130" d="M894 1372l-338 -292l-85 94l306 329zM1071 492v-49h-781q13 -122 93.5 -197t195.5 -75q81 0 149 37.5t109 106.5l184 -76q-60 -120 -176.5 -188.5t-263.5 -68.5q-223 0 -368.5 144.5t-145.5 354.5q0 137 65.5 252t182.5 182t259 67q138 0 251.5 -62t179.5 -174.5 t66 -253.5zM576 796q-97 0 -168 -52t-101 -141h526q-30 90 -96.5 141.5t-160.5 51.5z" />
<glyph unicode="&#xea;" horiz-adv-x="1130" d="M585 1303l-210 -224l-102 64l220 298h181l222 -298l-103 -64zM1071 492v-49h-781q13 -122 93.5 -197t195.5 -75q81 0 149 37.5t109 106.5l184 -76q-60 -120 -176.5 -188.5t-263.5 -68.5q-223 0 -368.5 144.5t-145.5 354.5q0 137 65.5 252t182.5 182t259 67 q138 0 251.5 -62t179.5 -174.5t66 -253.5zM576 796q-97 0 -168 -52t-101 -141h526q-30 90 -96.5 141.5t-160.5 51.5z" />
<glyph unicode="&#xeb;" horiz-adv-x="1130" d="M387 1143q-53 0 -91.5 38t-38.5 91q0 54 38.5 91.5t91.5 37.5t91.5 -37.5t38.5 -91.5q0 -53 -38.5 -91t-91.5 -38zM785 1143q-53 0 -91.5 38t-38.5 91q0 54 38 91.5t92 37.5t91.5 -37.5t37.5 -91.5q0 -53 -38 -91t-91 -38zM1071 492v-49h-781q13 -122 93.5 -197 t195.5 -75q81 0 149 37.5t109 106.5l184 -76q-60 -120 -176.5 -188.5t-263.5 -68.5q-223 0 -368.5 144.5t-145.5 354.5q0 137 65.5 252t182.5 182t259 67q138 0 251.5 -62t179.5 -174.5t66 -253.5zM576 796q-97 0 -168 -52t-101 -141h526q-30 90 -96.5 141.5t-160.5 51.5z " />
<glyph unicode="&#xec;" horiz-adv-x="546" d="M280 1076l-340 289l119 131l302 -330zM159 0v963h228v-963h-228z" />
<glyph unicode="&#xed;" horiz-adv-x="546" d="M244 1073l-85 94l306 329l117 -131zM159 0v963h228v-963h-228z" />
<glyph unicode="&#xee;" horiz-adv-x="546" d="M63 1072l-102 64l220 298h181l222 -298l-103 -64l-208 224zM159 0v963h228v-963h-228z" />
<glyph unicode="&#xef;" horiz-adv-x="546" d="M75 1136q-53 0 -91.5 38t-38.5 91q0 54 38.5 91.5t91.5 37.5t91.5 -37.5t38.5 -91.5q0 -53 -38.5 -91t-91.5 -38zM473 1136q-53 0 -91.5 38t-38.5 91q0 54 38 91.5t92 37.5t91.5 -37.5t37.5 -91.5q0 -53 -38 -91t-91 -38zM159 0v963h228v-963h-228z" />
<glyph unicode="&#xf0;" horiz-adv-x="1197" d="M1101 475h-1v-7q0 -214 -148.5 -350t-369.5 -136q-143 0 -262 66.5t-187.5 181t-68.5 251.5t68.5 252t187.5 181.5t262 66.5q124 0 234 -55q-72 169 -206 276l-99 -127l-96 72l96 121q-114 62 -257 84l51 142q159 -12 308 -98l91 115l92 -71l-85 -109 q176 -137 283 -357.5t107 -498.5zM582 182q124 0 210.5 87t86.5 212t-86.5 213t-210.5 88q-126 0 -213 -87.5t-87 -213.5q0 -125 87 -212t213 -87z" />
<glyph unicode="&#xf1;" horiz-adv-x="1117" d="M443 1226q-43 0 -66 -43.5t-23 -110.5h-143q0 128 61 211t165 83q116 0 195 -115q33 -49 75 -49q86 0 86 154h142q0 -128 -59.5 -211t-166.5 -83q-119 0 -194 115q-33 49 -72 49zM638 981q145 0 245.5 -103.5t100.5 -252.5v-625h-228v600q0 78 -52.5 129t-129.5 51 q-78 0 -132 -51.5t-55 -127.5v-601h-228v963h228v-83q103 101 251 101z" />
<glyph unicode="&#xf2;" horiz-adv-x="1148" d="M581 1075l-340 289l119 131l302 -330zM574 -18q-141 0 -258 66.5t-184 181t-67 251.5t67 252t184 181.5t258 66.5q213 0 360 -145.5t147 -354.5q0 -208 -147 -353.5t-360 -145.5zM573 190q120 0 203 84t83 207t-83 207.5t-203 84.5q-121 0 -203.5 -84t-82.5 -208 t82.5 -207.5t203.5 -83.5z" />
<glyph unicode="&#xf3;" horiz-adv-x="1148" d="M545 1072l-85 94l306 329l117 -131zM574 -18q-141 0 -258 66.5t-184 181t-67 251.5t67 252t184 181.5t258 66.5q213 0 360 -145.5t147 -354.5q0 -208 -147 -353.5t-360 -145.5zM573 190q120 0 203 84t83 207t-83 207.5t-203 84.5q-121 0 -203.5 -84t-82.5 -208 t82.5 -207.5t203.5 -83.5z" />
<glyph unicode="&#xf4;" horiz-adv-x="1148" d="M364 1071l-102 64l220 298h181l222 -298l-103 -64l-208 224zM574 -18q-141 0 -258 66.5t-184 181t-67 251.5t67 252t184 181.5t258 66.5q213 0 360 -145.5t147 -354.5q0 -208 -147 -353.5t-360 -145.5zM573 190q120 0 203 84t83 207t-83 207.5t-203 84.5 q-121 0 -203.5 -84t-82.5 -208t82.5 -207.5t203.5 -83.5z" />
<glyph unicode="&#xf5;" horiz-adv-x="1148" d="M708 1061q-119 0 -194 115q-33 49 -72 49q-43 0 -66 -43.5t-23 -110.5h-143q0 128 61 211t165 83q116 0 195 -115q33 -49 75 -49q86 0 86 154h142q0 -128 -59.5 -211t-166.5 -83zM574 -18q-141 0 -258 66.5t-184 181t-67 251.5t67 252t184 181.5t258 66.5 q213 0 360 -145.5t147 -354.5q0 -208 -147 -353.5t-360 -145.5zM573 190q120 0 203 84t83 207t-83 207.5t-203 84.5q-121 0 -203.5 -84t-82.5 -208t82.5 -207.5t203.5 -83.5z" />
<glyph unicode="&#xf6;" horiz-adv-x="1148" d="M376 1135q-53 0 -91.5 38t-38.5 91q0 54 38.5 91.5t91.5 37.5t91.5 -37.5t38.5 -91.5q0 -53 -38.5 -91t-91.5 -38zM774 1135q-53 0 -91.5 38t-38.5 91q0 54 38 91.5t92 37.5t91.5 -37.5t37.5 -91.5q0 -53 -38 -91t-91 -38zM574 -18q-141 0 -258 66.5t-184 181t-67 251.5 t67 252t184 181.5t258 66.5q213 0 360 -145.5t147 -354.5q0 -208 -147 -353.5t-360 -145.5zM573 190q120 0 203 84t83 207t-83 207.5t-203 84.5q-121 0 -203.5 -84t-82.5 -208t82.5 -207.5t203.5 -83.5z" />
<glyph unicode="&#xf7;" horiz-adv-x="1007" d="M498 918q-55 0 -95 39t-40 96q0 55 40.5 96t94.5 41q56 0 97.5 -41t41.5 -96q0 -57 -41.5 -96t-97.5 -39zM106 590v193h795v-193h-795zM498 184q-55 0 -95 39.5t-40 97.5q0 54 40.5 94.5t94.5 40.5q56 0 97.5 -40.5t41.5 -94.5q0 -58 -41 -97.5t-98 -39.5z" />
<glyph unicode="&#xf8;" horiz-adv-x="1148" d="M902 864q84 -70 131.5 -169.5t47.5 -213.5q0 -208 -147 -353.5t-360 -145.5q-131 0 -246 60l-90 -129l-85 52l92 132q-85 70 -132.5 170t-47.5 214q0 137 67 252t184 181.5t258 66.5q132 0 246 -61l89 128l85 -52zM287 481q0 -123 82 -207l328 471q-58 28 -124 28 q-121 0 -203.5 -84t-82.5 -208zM573 190q120 0 203 84t83 207q0 121 -81 205l-328 -469q56 -27 123 -27z" />
<glyph unicode="&#xf9;" horiz-adv-x="1074" d="M544 1076l-340 289l119 131l302 -330zM536 -19q-188 0 -296 101.5t-108 274.5v606h228v-585q0 -90 49 -141.5t127 -51.5q80 0 129 51.5t49 141.5v585h228v-606q0 -173 -108.5 -274.5t-297.5 -101.5z" />
<glyph unicode="&#xfa;" horiz-adv-x="1074" d="M508 1073l-85 94l306 329l117 -131zM536 -19q-188 0 -296 101.5t-108 274.5v606h228v-585q0 -90 49 -141.5t127 -51.5q80 0 129 51.5t49 141.5v585h228v-606q0 -173 -108.5 -274.5t-297.5 -101.5z" />
<glyph unicode="&#xfb;" horiz-adv-x="1074" d="M327 1072l-102 64l220 298h181l222 -298l-103 -64l-208 224zM536 -19q-188 0 -296 101.5t-108 274.5v606h228v-585q0 -90 49 -141.5t127 -51.5q80 0 129 51.5t49 141.5v585h228v-606q0 -173 -108.5 -274.5t-297.5 -101.5z" />
<glyph unicode="&#xfc;" horiz-adv-x="1074" d="M339 1136q-53 0 -91.5 38t-38.5 91q0 54 38.5 91.5t91.5 37.5t91.5 -37.5t38.5 -91.5q0 -53 -38.5 -91t-91.5 -38zM737 1136q-53 0 -91.5 38t-38.5 91q0 54 38 91.5t92 37.5t91.5 -37.5t37.5 -91.5q0 -53 -38 -91t-91 -38zM536 -19q-188 0 -296 101.5t-108 274.5v606h228 v-585q0 -90 49 -141.5t127 -51.5q80 0 129 51.5t49 141.5v585h228v-606q0 -173 -108.5 -274.5t-297.5 -101.5z" />
<glyph unicode="&#xfd;" horiz-adv-x="1035" d="M812 1365l-338 -292l-85 94l306 329zM779 963h245l-583 -1455h-236l195 496l-391 959h251l264 -720z" />
<glyph unicode="&#xfe;" horiz-adv-x="1248" d="M704 981q195 0 336 -146.5t141 -353.5q0 -136 -65 -251t-174.5 -181.5t-237.5 -66.5q-190 0 -316 126v-590l-228 1v2017h228v-681q126 126 316 126zM665 191q120 0 204 84.5t84 205.5t-84 205.5t-204 84.5q-121 0 -205.5 -84.5t-84.5 -205.5t84.5 -205.5t205.5 -84.5z " />
<glyph unicode="&#xff;" horiz-adv-x="1035" d="M305 1136q-53 0 -91.5 38t-38.5 91q0 54 38.5 91.5t91.5 37.5t91.5 -37.5t38.5 -91.5q0 -53 -38.5 -91t-91.5 -38zM703 1136q-53 0 -91.5 38t-38.5 91q0 54 38 91.5t92 37.5t91.5 -37.5t37.5 -91.5q0 -53 -38 -91t-91 -38zM779 963h245l-583 -1455h-236l195 496l-391 959 h251l264 -720z" />
<glyph unicode="&#x100;" horiz-adv-x="1372" d="M1003 1877v-143h-635v143h635zM1112 0l-88 242h-678l-88 -242h-258l610 1536h150l612 -1536h-260zM422 449h527l-263 726z" />
<glyph unicode="&#x101;" horiz-adv-x="1256" d="M900 1305v-143h-635v143h635zM870 963h229v-963h-216l-5 139q-124 -158 -338 -158q-125 0 -233 65t-173 181t-65 256q0 210 139.5 355t331.5 145q207 0 330 -148v128zM589 188q121 0 206 86t85 209q0 122 -85 208t-206 86q-122 0 -207 -86t-85 -208q0 -123 85 -209 t207 -86z" />
<glyph unicode="&#x102;" horiz-adv-x="1372" d="M685 1704q-157 0 -254 88t-97 244h156q0 -83 51.5 -139.5t143.5 -56.5q93 0 145 56.5t52 139.5h156q0 -156 -97.5 -244t-255.5 -88zM1112 0l-88 242h-678l-88 -242h-258l610 1536h150l612 -1536h-260zM422 449h527l-263 726z" />
<glyph unicode="&#x103;" horiz-adv-x="1256" d="M582 1132q-157 0 -254 88t-97 244h156q0 -83 51.5 -139.5t143.5 -56.5q93 0 145 56.5t52 139.5h156q0 -156 -97.5 -244t-255.5 -88zM870 963h229v-963h-216l-5 139q-124 -158 -338 -158q-125 0 -233 65t-173 181t-65 256q0 210 139.5 355t331.5 145q207 0 330 -148v128z M589 188q121 0 206 86t85 209q0 122 -85 208t-206 86q-122 0 -207 -86t-85 -208q0 -123 85 -209t207 -86z" />
<glyph unicode="&#x104;" horiz-adv-x="1372" d="M1402 -290l92 -127q-60 -60 -137 -89t-158 -24q-112 7 -176.5 68.5t-64.5 159.5q0 170 212 302h-58l-88 242h-678l-88 -242h-258l610 1536h150l612 -1536q-119 -51 -191.5 -118.5t-72.5 -146.5q0 -53 31.5 -80t83.5 -27q99 0 179 82zM422 449h527l-263 726z" />
<glyph unicode="&#x105;" horiz-adv-x="1256" d="M1129 -290l92 -127q-60 -60 -137 -89t-158 -24q-112 7 -176.5 68.5t-64.5 159.5q0 170 212 302h-14l-5 139q-124 -158 -338 -158q-125 0 -233 65t-173 181t-65 256q0 210 139.5 355t331.5 145q207 0 330 -148v128h229v-963q-119 -51 -191.5 -118.5t-72.5 -146.5 q0 -53 31.5 -80t83.5 -27q99 0 179 82zM589 188q121 0 206 86t85 209q0 122 -85 208t-206 86q-122 0 -207 -86t-85 -208q0 -123 85 -209t207 -86z" />
<glyph unicode="&#x106;" horiz-adv-x="1500" d="M853 1646l-85 94l306 329l117 -131zM874 -20q-161 0 -307 62t-251.5 167.5t-167.5 251.5t-62 307t62 307t167.5 251.5t251.5 167.5t307 62t317 -69t262 -186l-174 -151q-75 84 -182 131t-223 47q-115 0 -218.5 -43.5t-177.5 -118t-117.5 -178.5t-43.5 -220t43.5 -220 t117.5 -178.5t177.5 -118t218.5 -43.5q116 0 223 47t182 131l174 -151q-106 -117 -262 -186t-317 -69z" />
<glyph unicode="&#x107;" horiz-adv-x="1086" d="M537 1073l-85 94l306 329l117 -131zM574 -18q-141 0 -258 66t-184 180.5t-67 252.5t67 252.5t184 181t258 66.5q154 0 277.5 -81.5t181.5 -216.5l-197 -85q-35 78 -104 125t-158 47q-124 0 -206.5 -83t-82.5 -206t82.5 -205.5t206.5 -82.5q89 0 158.5 46.5t103.5 124.5 l197 -85q-58 -135 -181.5 -216t-277.5 -81z" />
<glyph unicode="&#x10a;" horiz-adv-x="1500" d="M881 1696q-52 0 -90.5 38t-38.5 90q0 54 38.5 92t90.5 38q54 0 92 -38t38 -92q0 -52 -38.5 -90t-91.5 -38zM874 -20q-161 0 -307 62t-251.5 167.5t-167.5 251.5t-62 307t62 307t167.5 251.5t251.5 167.5t307 62t317 -69t262 -186l-174 -151q-75 84 -182 131t-223 47 q-115 0 -218.5 -43.5t-177.5 -118t-117.5 -178.5t-43.5 -220t43.5 -220t117.5 -178.5t177.5 -118t218.5 -43.5q116 0 223 47t182 131l174 -151q-106 -117 -262 -186t-317 -69z" />
<glyph unicode="&#x10b;" horiz-adv-x="1086" d="M565 1123q-52 0 -90.5 38t-38.5 90q0 54 38.5 92t90.5 38q54 0 92 -38t38 -92q0 -52 -38.5 -90t-91.5 -38zM574 -18q-141 0 -258 66t-184 180.5t-67 252.5t67 252.5t184 181t258 66.5q154 0 277.5 -81.5t181.5 -216.5l-197 -85q-35 78 -104 125t-158 47 q-124 0 -206.5 -83t-82.5 -206t82.5 -205.5t206.5 -82.5q89 0 158.5 46.5t103.5 124.5l197 -85q-58 -135 -181.5 -216t-277.5 -81z" />
<glyph unicode="&#x10c;" horiz-adv-x="1500" d="M789 1686l-219 298l102 63l210 -224l208 224l103 -63l-222 -298h-182zM874 -20q-161 0 -307 62t-251.5 167.5t-167.5 251.5t-62 307t62 307t167.5 251.5t251.5 167.5t307 62t317 -69t262 -186l-174 -151q-75 84 -182 131t-223 47q-115 0 -218.5 -43.5t-177.5 -118 t-117.5 -178.5t-43.5 -220t43.5 -220t117.5 -178.5t177.5 -118t218.5 -43.5q116 0 223 47t182 131l174 -151q-106 -117 -262 -186t-317 -69z" />
<glyph unicode="&#x10d;" horiz-adv-x="1086" d="M473 1113l-219 298l102 63l210 -224l208 224l103 -63l-222 -298h-182zM574 -18q-141 0 -258 66t-184 180.5t-67 252.5t67 252.5t184 181t258 66.5q154 0 277.5 -81.5t181.5 -216.5l-197 -85q-35 78 -104 125t-158 47q-124 0 -206.5 -83t-82.5 -206t82.5 -205.5 t206.5 -82.5q89 0 158.5 46.5t103.5 124.5l197 -85q-58 -135 -181.5 -216t-277.5 -81z" />
<glyph unicode="&#x10e;" horiz-adv-x="1511" d="M558 1686l-219 298l102 63l210 -224l208 224l103 -63l-222 -298h-182zM198 0v1536h455q167 0 312 -60.5t246 -164t158.5 -245t57.5 -298.5t-57.5 -298.5t-158.5 -245t-246 -164t-312 -60.5h-455zM433 221h212q237 0 388.5 155.5t151.5 391.5t-151.5 391.5t-388.5 155.5 h-212v-1094z" />
<glyph unicode="&#x10f;" horiz-adv-x="1257" d="M1508 1417q0 -31 -14 -59l-144 -390h-146l100 326q-34 18 -54.5 51t-20.5 72q0 57 41.5 98.5t97.5 41.5q57 0 98.5 -41.5t41.5 -98.5zM870 835v701h229v-1536h-216l-5 139q-124 -158 -338 -158q-125 0 -233 65t-173 181t-65 256q0 210 139.5 355t331.5 145 q207 0 330 -148zM589 188q121 0 206 86t85 209q0 122 -85 208t-206 86q-122 0 -207 -86t-85 -208q0 -123 85 -209t207 -86z" />
<glyph unicode="&#x110;" horiz-adv-x="1511" d="M653 1536q167 0 312 -60.5t246 -164t158.5 -245t57.5 -298.5t-57.5 -298.5t-158.5 -245t-246 -164t-312 -60.5h-455v687h-153v148h153v701h455zM645 221q237 0 388.5 155.5t151.5 391.5t-151.5 391.5t-388.5 155.5h-212v-480h257v-148h-257v-466h212z" />
<glyph unicode="&#x111;" horiz-adv-x="1257" d="M1234 1322v-148h-135v-1174h-216l-5 139q-124 -158 -338 -158q-125 0 -233 65t-173 181t-65 256q0 210 139.5 355t331.5 145q207 0 330 -148v339h-281v148h281v214h229v-214h135zM589 188q121 0 206 86t85 209q0 122 -85 208t-206 86q-122 0 -207 -86t-85 -208 q0 -123 85 -209t207 -86z" />
<glyph unicode="&#x112;" horiz-adv-x="1188" d="M958 1877v-143h-635v143h635zM1085 1319h-651v-442h565v-218h-565v-442h651v-217h-887v1536h887v-217z" />
<glyph unicode="&#x113;" horiz-adv-x="1130" d="M902 1311v-143h-635v143h635zM1071 492v-49h-781q13 -122 93.5 -197t195.5 -75q81 0 149 37.5t109 106.5l184 -76q-60 -120 -176.5 -188.5t-263.5 -68.5q-223 0 -368.5 144.5t-145.5 354.5q0 137 65.5 252t182.5 182t259 67q138 0 251.5 -62t179.5 -174.5t66 -253.5z M576 796q-97 0 -168 -52t-101 -141h526q-30 90 -96.5 141.5t-160.5 51.5z" />
<glyph unicode="&#x116;" horiz-adv-x="1188" d="M640 1696q-52 0 -90.5 38t-38.5 90q0 54 38.5 92t90.5 38q54 0 92 -38t38 -92q0 -52 -38.5 -90t-91.5 -38zM1085 1319h-651v-442h565v-218h-565v-442h651v-217h-887v1536h887v-217z" />
<glyph unicode="&#x117;" horiz-adv-x="1130" d="M584 1130q-52 0 -90.5 38t-38.5 90q0 54 38.5 92t90.5 38q54 0 92 -38t38 -92q0 -52 -38.5 -90t-91.5 -38zM1071 492v-49h-781q13 -122 93.5 -197t195.5 -75q81 0 149 37.5t109 106.5l184 -76q-60 -120 -176.5 -188.5t-263.5 -68.5q-223 0 -368.5 144.5t-145.5 354.5 q0 137 65.5 252t182.5 182t259 67q138 0 251.5 -62t179.5 -174.5t66 -253.5zM576 796q-97 0 -168 -52t-101 -141h526q-30 90 -96.5 141.5t-160.5 51.5z" />
<glyph unicode="&#x118;" horiz-adv-x="1188" d="M1115 -290l92 -127q-60 -60 -137 -89t-158 -24q-112 7 -176.5 68.5t-64.5 159.5q0 170 212 302h-685v1536h887v-217h-651v-442h565v-218h-565v-442h651v-217q-119 -51 -191.5 -118.5t-72.5 -146.5q0 -53 31.5 -80t83.5 -27q99 0 179 82z" />
<glyph unicode="&#x119;" horiz-adv-x="1130" d="M1071 492v-49h-781q13 -122 93.5 -197t195.5 -75q81 0 149 37.5t109 106.5l184 -76q-42 -83 -112.5 -143t-160.5 -88q-179 -103 -179 -224q0 -53 31.5 -80t83.5 -27q99 0 179 82l92 -127q-60 -60 -137 -89t-158 -24q-112 7 -176.5 68.5t-64.5 159.5q0 129 122 236 q-208 14 -341 155.5t-133 342.5q0 137 65.5 252t182.5 182t259 67q138 0 251.5 -62t179.5 -174.5t66 -253.5zM576 796q-97 0 -168 -52t-101 -141h526q-30 90 -96.5 141.5t-160.5 51.5z" />
<glyph unicode="&#x11a;" horiz-adv-x="1188" d="M730 1686h-182l-219 298l102 63l210 -224l208 224l103 -63zM1085 1319h-651v-442h565v-218h-565v-442h651v-217h-887v1536h887v-217z" />
<glyph unicode="&#x11b;" horiz-adv-x="1130" d="M674 1120h-182l-219 298l102 63l210 -224l208 224l103 -63zM1071 492v-49h-781q13 -122 93.5 -197t195.5 -75q81 0 149 37.5t109 106.5l184 -76q-60 -120 -176.5 -188.5t-263.5 -68.5q-223 0 -368.5 144.5t-145.5 354.5q0 137 65.5 252t182.5 182t259 67q138 0 251.5 -62 t179.5 -174.5t66 -253.5zM576 796q-97 0 -168 -52t-101 -141h526q-30 90 -96.5 141.5t-160.5 51.5z" />
<glyph unicode="&#x11e;" horiz-adv-x="1635" d="M899 1704q-157 0 -254 88t-97 244h156q0 -83 51.5 -139.5t143.5 -56.5q93 0 145 56.5t52 139.5h156q0 -156 -97.5 -244t-255.5 -88zM869 834h633v-834h-184l-21 105q-200 -125 -423 -125q-161 0 -307 62t-251.5 167.5t-167.5 251.5t-62 307t62 307t167.5 251.5 t251.5 167.5t307 62t317 -69t262 -186l-174 -151q-75 84 -182 131t-223 47q-115 0 -218.5 -43.5t-177.5 -118t-117.5 -178.5t-43.5 -220t43.5 -220t117.5 -178.5t177.5 -118t218.5 -43.5q112 0 216.5 44t179.5 124v249h-401v209z" />
<glyph unicode="&#x11f;" horiz-adv-x="1260" d="M584 1131q-157 0 -254 88t-97 244h156q0 -83 51.5 -139.5t143.5 -56.5q93 0 145 56.5t52 139.5h156q0 -156 -97.5 -244t-255.5 -88zM871 963h230v-945q0 -230 -149 -374t-374 -144q-137 0 -264.5 65t-202.5 182l147 136q57 -84 138.5 -131.5t173.5 -47.5q129 0 215 88 t86 226v107q-115 -144 -317 -144q-204 0 -345.5 144.5t-141.5 357.5q0 140 65 255t176.5 180t244.5 65q202 0 318 -144v124zM587 188q121 0 206 86.5t85 208.5t-85 208t-206 86q-123 0 -207.5 -85.5t-84.5 -208.5t84.5 -209t207.5 -86z" />
<glyph unicode="&#x120;" horiz-adv-x="1635" d="M899 1696q-52 0 -90.5 38t-38.5 90q0 54 38.5 92t90.5 38q54 0 92 -38t38 -92q0 -52 -38.5 -90t-91.5 -38zM869 834h633v-834h-184l-21 105q-200 -125 -423 -125q-161 0 -307 62t-251.5 167.5t-167.5 251.5t-62 307t62 307t167.5 251.5t251.5 167.5t307 62t317 -69 t262 -186l-174 -151q-75 84 -182 131t-223 47q-115 0 -218.5 -43.5t-177.5 -118t-117.5 -178.5t-43.5 -220t43.5 -220t117.5 -178.5t177.5 -118t218.5 -43.5q112 0 216.5 44t179.5 124v249h-401v209z" />
<glyph unicode="&#x121;" horiz-adv-x="1260" d="M584 1123q-52 0 -90.5 38t-38.5 90q0 54 38.5 92t90.5 38q54 0 92 -38t38 -92q0 -52 -38.5 -90t-91.5 -38zM871 963h230v-945q0 -230 -149 -374t-374 -144q-137 0 -264.5 65t-202.5 182l147 136q57 -84 138.5 -131.5t173.5 -47.5q129 0 215 88t86 226v107 q-115 -144 -317 -144q-204 0 -345.5 144.5t-141.5 357.5q0 140 65 255t176.5 180t244.5 65q202 0 318 -144v124zM587 188q121 0 206 86.5t85 208.5t-85 208t-206 86q-123 0 -207.5 -85.5t-84.5 -208.5t84.5 -209t207.5 -86z" />
<glyph unicode="&#x122;" horiz-adv-x="1635" d="M869 834h633v-834h-184l-21 105q-200 -125 -423 -125q-161 0 -307 62t-251.5 167.5t-167.5 251.5t-62 307t62 307t167.5 251.5t251.5 167.5t307 62t317 -69t262 -186l-174 -151q-75 84 -182 131t-223 47q-115 0 -218.5 -43.5t-177.5 -118t-117.5 -178.5t-43.5 -220 t43.5 -220t117.5 -178.5t177.5 -118t218.5 -43.5q112 0 216.5 44t179.5 124v249h-401v209zM644 -550l201 459l177 -79l-261 -430z" />
<glyph unicode="&#x123;" horiz-adv-x="1260" d="M585 1078q-60 0 -99 41t-39 101q0 24 10 54l168 439h120l-114 -365q41 -13 67 -49.5t26 -80.5q0 -56 -41.5 -98t-97.5 -42zM871 963h230v-945q0 -230 -149 -374t-374 -144q-137 0 -264.5 65t-202.5 182l147 136q57 -84 138.5 -131.5t173.5 -47.5q129 0 215 88t86 226v107 q-115 -144 -317 -144q-204 0 -345.5 144.5t-141.5 357.5q0 140 65 255t176.5 180t244.5 65q202 0 318 -144v124zM587 188q121 0 206 86.5t85 208.5t-85 208t-206 86q-123 0 -207.5 -85.5t-84.5 -208.5t84.5 -209t207.5 -86z" />
<glyph unicode="&#x126;" horiz-adv-x="1622" d="M1547 1265v-123h-123v-1142h-236v658h-754v-658h-236v1142h-127v123h127v271h236v-271h754v271h236v-271h123zM1188 880v262h-754v-262h754z" />
<glyph unicode="&#x127;" horiz-adv-x="1117" d="M634 981q149 0 249.5 -103t100.5 -253v-625h-228v601q0 75 -51.5 125t-127.5 50q-80 0 -134.5 -50t-55.5 -124v-602h-228v1175h-138v148h138v213h228v-213h279v-148h-279v-295q101 101 247 101z" />
<glyph unicode="&#x128;" horiz-adv-x="632" d="M449 1635q-119 0 -194 115q-33 49 -72 49q-43 0 -66 -43.5t-23 -110.5h-143q0 128 61 211t165 83q116 0 195 -115q33 -49 75 -49q86 0 86 154h142q0 -128 -59.5 -211t-166.5 -83zM198 0v1536h236v-1536h-236z" />
<glyph unicode="&#x129;" horiz-adv-x="546" d="M407 1062q-119 0 -194 115q-33 49 -72 49q-43 0 -66 -43.5t-23 -110.5h-143q0 128 61 211t165 83q116 0 195 -115q33 -49 75 -49q86 0 86 154h142q0 -128 -59.5 -211t-166.5 -83zM159 0v963h228v-963h-228z" />
<glyph unicode="&#x12a;" horiz-adv-x="632" d="M-3 1734v143h635v-143h-635zM198 0v1536h236v-1536h-236z" />
<glyph unicode="&#x12b;" horiz-adv-x="546" d="M-45 1161v143h635v-143h-635zM159 0v963h228v-963h-228z" />
<glyph unicode="&#x12e;" horiz-adv-x="632" d="M464 -290l92 -127q-60 -60 -137 -89t-158 -24q-112 7 -176.5 68.5t-64.5 159.5q0 170 212 302h-34v1536h236v-1536q-119 -51 -191.5 -118.5t-72.5 -146.5q0 -53 31.5 -80t83.5 -27q99 0 179 82z" />
<glyph unicode="&#x12f;" horiz-adv-x="546" d="M272 1123q-52 0 -90.5 38t-38.5 90q0 54 38.5 92t90.5 38q54 0 92 -38t38 -92q0 -52 -38.5 -90t-91.5 -38zM417 -290l92 -127q-60 -60 -137 -89t-158 -24q-112 7 -176.5 68.5t-64.5 159.5q0 170 212 302h-26v963h228v-963q-119 -51 -191.5 -118.5t-72.5 -146.5 q0 -53 31.5 -80t83.5 -27q99 0 179 82z" />
<glyph unicode="&#x130;" horiz-adv-x="632" d="M314 1696q-52 0 -90.5 38t-38.5 90q0 54 38.5 92t90.5 38q54 0 92 -38t38 -92q0 -52 -38.5 -90t-91.5 -38zM198 0v1536h236v-1536h-236z" />
<glyph unicode="&#x131;" horiz-adv-x="546" d="M159 0v963h228v-963h-228z" />
<glyph unicode="&#x136;" horiz-adv-x="1393" d="M693 778l674 -778h-306l-627 741v-741h-236v1536h236v-721l609 721h301zM442 -550l201 459l177 -79l-261 -430z" />
<glyph unicode="&#x137;" horiz-adv-x="1096" d="M626 519l474 -519h-296l-417 473v-473h-228v1536h228v-981l362 408h290zM319 -550l201 459l177 -79l-261 -430z" />
<glyph unicode="&#x139;" horiz-adv-x="1012" d="M624 1938l-338 -292l-85 94l306 329zM434 221h545v-221h-781v1536h236v-1315z" />
<glyph unicode="&#x13a;" horiz-adv-x="546" d="M244 1646l-85 94l306 329l117 -131zM159 0v1536h228v-1536h-228z" />
<glyph unicode="&#x13b;" horiz-adv-x="1012" d="M434 221h545v-221h-781v1536h236v-1315zM352 -550l201 459l177 -79l-261 -430z" />
<glyph unicode="&#x13c;" horiz-adv-x="546" d="M159 0v1536h228v-1536h-228zM153 -600l-117 50l201 459l177 -79z" />
<glyph unicode="&#x13d;" horiz-adv-x="1012" d="M830 968h-146l100 326q-34 18 -54.5 51t-20.5 72q0 57 41.5 98.5t97.5 41.5q57 0 98.5 -41.5t41.5 -98.5q0 -31 -14 -59zM434 1536v-1315h545v-221h-781v1536h236z" />
<glyph unicode="&#x13e;" horiz-adv-x="546" d="M800 1417q0 -31 -14 -59l-144 -390h-146l100 326q-34 18 -54.5 51t-20.5 72q0 57 41.5 98.5t97.5 41.5q57 0 98.5 -41.5t41.5 -98.5zM159 0v1536h228v-1536h-228z" />
<glyph unicode="&#x13f;" horiz-adv-x="1034" d="M434 221h545v-221h-781v1536h236v-1315zM801 814q-47 0 -80.5 32.5t-33.5 80.5q0 46 34 80.5t80 34.5q45 0 80 -34.5t35 -80.5q0 -48 -34.5 -80.5t-80.5 -32.5z" />
<glyph unicode="&#x140;" horiz-adv-x="733" d="M159 0v1536h228v-1536h-228zM610 694q-51 0 -88.5 36t-37.5 89q0 51 38 89.5t88 38.5t89 -38.5t39 -89.5q0 -53 -38.5 -89t-89.5 -36z" />
<glyph unicode="&#x141;" horiz-adv-x="1012" d="M434 221h545v-221h-781v554l-111 -82v179l111 82v803h236v-627l289 214v-179l-289 -214v-509z" />
<glyph unicode="&#x142;" horiz-adv-x="613" d="M540 978v-178l-133 -98v-702h-228v533l-116 -86v177l116 86v826h228v-657z" />
<glyph unicode="&#x143;" horiz-adv-x="1577" d="M1075 1938l-338 -292l-85 94l306 329zM1167 1536h236v-1536h-94l-897 1041v-1041h-236v1536h92l899 -1037v1037z" />
<glyph unicode="&#x144;" horiz-adv-x="1117" d="M884 1365l-338 -292l-85 94l306 329zM638 981q145 0 245.5 -103.5t100.5 -252.5v-625h-228v600q0 78 -52.5 129t-129.5 51q-78 0 -132 -51.5t-55 -127.5v-601h-228v963h228v-83q103 101 251 101z" />
<glyph unicode="&#x145;" horiz-adv-x="1577" d="M1167 1536h236v-1536h-94l-897 1041v-1041h-236v1536h92l899 -1037v1037zM529 -550l201 459l177 -79l-261 -430z" />
<glyph unicode="&#x146;" horiz-adv-x="1117" d="M638 981q145 0 245.5 -103.5t100.5 -252.5v-625h-228v600q0 78 -52.5 129t-129.5 51q-78 0 -132 -51.5t-55 -127.5v-601h-228v963h228v-83q103 101 251 101zM337 -550l201 459l177 -79l-261 -430z" />
<glyph unicode="&#x147;" horiz-adv-x="1577" d="M855 1686h-182l-219 298l102 63l210 -224l208 224l103 -63zM1167 1536h236v-1536h-94l-897 1041v-1041h-236v1536h92l899 -1037v1037z" />
<glyph unicode="&#x148;" horiz-adv-x="1117" d="M664 1113h-182l-219 298l102 63l210 -224l208 224l103 -63zM638 981q145 0 245.5 -103.5t100.5 -252.5v-625h-228v600q0 78 -52.5 129t-129.5 51q-78 0 -132 -51.5t-55 -127.5v-601h-228v963h228v-83q103 101 251 101z" />
<glyph unicode="&#x14a;" horiz-adv-x="1734" d="M1300 1536h235v-1593q0 -98 -18.5 -168t-62 -122.5t-119.5 -78t-186 -25.5h-51v158q57 0 91.5 7.5t61.5 31.5t38 70t11 120v64l-866 1162v-1162h-236v1536h234l868 -1159v1159z" />
<glyph unicode="&#x14b;" horiz-adv-x="1116" d="M587 -470v179q37 0 59 3.5t45.5 19.5t35.5 46.5t20 85.5t8 136v600q0 78 -52.5 129t-129.5 51q-79 0 -132.5 -52t-55.5 -129v-599h-228v963h228v-86q99 104 252 104q144 0 245 -103.5t101 -252.5v-625q0 -251 -97 -361t-299 -109z" />
<glyph unicode="&#x14c;" horiz-adv-x="1746" d="M555 1734v143h635v-143h-635zM873 -20q-161 0 -307 62.5t-251.5 167.5t-168 251t-62.5 307t62.5 307t168 251t251.5 167.5t307 62.5q214 0 395.5 -105.5t287 -287t105.5 -395.5t-105.5 -395.5t-287 -287t-395.5 -105.5zM873 211q115 0 218.5 43.5t177.5 117.5 t117.5 177.5t43.5 218.5t-43.5 218.5t-117.5 177.5t-177.5 117.5t-218.5 43.5q-153 0 -281 -73.5t-202 -201.5t-74 -282t74 -282t202 -201.5t281 -73.5z" />
<glyph unicode="&#x14d;" horiz-adv-x="1148" d="M256 1160v143h635v-143h-635zM574 -18q-141 0 -258 66.5t-184 181t-67 251.5t67 252t184 181.5t258 66.5q213 0 360 -145.5t147 -354.5q0 -208 -147 -353.5t-360 -145.5zM573 190q120 0 203 84t83 207t-83 207.5t-203 84.5q-121 0 -203.5 -84t-82.5 -208t82.5 -207.5 t203.5 -83.5z" />
<glyph unicode="&#x150;" horiz-adv-x="1746" d="M668 1684l-101 112l339 306l110 -122zM1076 1684l-101 112l339 306l110 -122zM873 -20q-161 0 -307 62.5t-251.5 167.5t-168 251t-62.5 307t62.5 307t168 251t251.5 167.5t307 62.5q214 0 395.5 -105.5t287 -287t105.5 -395.5t-105.5 -395.5t-287 -287t-395.5 -105.5z M873 211q115 0 218.5 43.5t177.5 117.5t117.5 177.5t43.5 218.5t-43.5 218.5t-117.5 177.5t-177.5 117.5t-218.5 43.5q-153 0 -281 -73.5t-202 -201.5t-74 -282t74 -282t202 -201.5t281 -73.5z" />
<glyph unicode="&#x151;" horiz-adv-x="1148" d="M369 1110l-101 112l339 306l110 -122zM777 1110l-101 112l339 306l110 -122zM574 -18q-141 0 -258 66.5t-184 181t-67 251.5t67 252t184 181.5t258 66.5q213 0 360 -145.5t147 -354.5q0 -208 -147 -353.5t-360 -145.5zM573 190q120 0 203 84t83 207t-83 207.5t-203 84.5 q-121 0 -203.5 -84t-82.5 -208t82.5 -207.5t203.5 -83.5z" />
<glyph unicode="&#x152;" horiz-adv-x="2408" d="M2305 1322h-644v-447h558v-214h-558v-447h644v-214h-836v252q-110 -128 -265 -200t-331 -72q-161 0 -307 62.5t-251.5 167.5t-168 251t-62.5 307t62.5 307t168 251t251.5 167.5t307 62.5q176 0 331 -72t265 -200v252h836v-214zM874 208q153 0 281.5 74.5t203 203.5 t74.5 282t-74.5 282t-203 203.5t-281.5 74.5q-154 0 -283 -74.5t-203.5 -203t-74.5 -282.5t74.5 -282.5t203.5 -203t283 -74.5z" />
<glyph unicode="&#x153;" horiz-adv-x="1944" d="M1885 492l-3 -49h-778q13 -122 93.5 -197t195.5 -75q81 0 149 37.5t108 106.5l185 -76q-60 -120 -176.5 -188.5t-263.5 -68.5q-127 0 -232.5 50t-175.5 138q-72 -88 -177.5 -138t-227.5 -50q-216 0 -366.5 145.5t-150.5 353.5q0 137 68.5 252t187.5 181.5t261 66.5 q122 0 227.5 -50t177.5 -139q70 89 174 139.5t227 50.5q209 0 351 -138t146 -352zM1390 796q-97 0 -168 -52t-101 -141h526q-30 90 -96.5 141.5t-160.5 51.5zM582 186q122 0 208 86t86 209t-86 209t-208 86q-124 0 -210.5 -86t-86.5 -209t86.5 -209t210.5 -86z" />
<glyph unicode="&#x154;" horiz-adv-x="1422" d="M966 1938l-338 -292l-85 94l306 329zM1091 0l-341 658h-316v-658h-236v1536h674q91 0 173 -35t140.5 -94.5t93 -141t34.5 -171.5q0 -152 -89 -267t-230 -153l353 -674h-256zM434 1319v-452h407q104 0 172.5 60.5t68.5 163.5q0 101 -69 164.5t-172 63.5h-407z" />
<glyph unicode="&#x155;" horiz-adv-x="787" d="M408 1073l-85 94l306 329l117 -131zM643 982q83 0 148 -44l-78 -195q-44 22 -89 22q-100 0 -168.5 -81t-68.5 -208v-476h-228v963h228v-152q86 171 256 171z" />
<glyph unicode="&#x156;" horiz-adv-x="1422" d="M994 674l353 -674h-256l-341 658h-316v-658h-236v1536h674q91 0 173 -35t140.5 -94.5t93 -141t34.5 -171.5q0 -152 -89 -267t-230 -153zM434 1319v-452h407q104 0 172.5 60.5t68.5 163.5q0 101 -69 164.5t-172 63.5h-407zM420 -550l201 459l177 -79l-261 -430z" />
<glyph unicode="&#x157;" horiz-adv-x="787" d="M643 982q83 0 148 -44l-78 -195q-44 22 -89 22q-100 0 -168.5 -81t-68.5 -208v-476h-228v963h228v-152q86 171 256 171zM153 -600l-117 50l201 459l177 -79z" />
<glyph unicode="&#x158;" horiz-adv-x="1422" d="M746 1686h-182l-219 298l102 63l210 -224l208 224l103 -63zM1091 0l-341 658h-316v-658h-236v1536h674q91 0 173 -35t140.5 -94.5t93 -141t34.5 -171.5q0 -152 -89 -267t-230 -153l353 -674h-256zM434 1319v-452h407q104 0 172.5 60.5t68.5 163.5q0 101 -69 164.5 t-172 63.5h-407z" />
<glyph unicode="&#x159;" horiz-adv-x="787" d="M344 1113l-219 298l102 63l210 -224l208 224l103 -63l-222 -298h-182zM643 982q83 0 148 -44l-78 -195q-44 22 -89 22q-100 0 -168.5 -81t-68.5 -208v-476h-228v963h228v-152q86 171 256 171z" />
<glyph unicode="&#x15a;" horiz-adv-x="1164" d="M554 1646l-85 94l306 329l117 -131zM597 -20q-167 0 -311.5 73t-230.5 179l162 164q155 -211 374 -211q119 0 192 60.5t73 163.5q0 26 -6.5 49t-14.5 41.5t-26.5 38t-31.5 32t-42 29.5t-44.5 26t-52.5 25t-53 23t-58 24q-51 21 -83 35.5t-79.5 39.5t-77 47.5t-64 57 t-54 71.5t-32.5 86.5t-13 105.5q0 189 131 302.5t324 113.5q271 0 463 -215l-143 -145q-83 89 -158 124t-160 35q-96 0 -159 -52.5t-63 -143.5q0 -42 17.5 -78t40.5 -60t68.5 -50t78 -40t91.5 -38h1l1 -1h1l1 -1h1l2 -1q167 -68 240 -118q175 -118 188 -317q1 -17 1 -35 q0 -104 -40 -189t-108.5 -139t-157 -83t-188.5 -29z" />
<glyph unicode="&#x15b;" horiz-adv-x="908" d="M419 1076l-85 94l306 329l117 -131zM454 -19q-211 0 -394 124l107 166q57 -45 135.5 -76t153.5 -31q74 0 117.5 31t43.5 84q0 14 -3 26t-11 22t-15.5 17.5t-23 15t-25.5 12.5t-31.5 11.5t-33 10t-37.5 10.5t-39 11q-53 14 -86 25t-78 34t-71 49.5t-45 70t-19 97.5 q0 138 107 214.5t267 76.5q190 0 335 -98l-108 -151q-118 77 -245 77q-67 0 -106 -25.5t-39 -69.5q0 -35 32.5 -60.5t63 -35.5t102.5 -28l12 -3t10.5 -3t11.5 -3q67 -17 113.5 -36.5t90.5 -52t66 -82t22 -116.5q0 -149 -103 -231.5t-277 -82.5z" />
<glyph unicode="&#x15e;" horiz-adv-x="1164" d="M1091 420q0 -133 -64 -232.5t-167.5 -150t-231.5 -56.5l-56 -110q102 19 173.5 -35.5t71.5 -150.5q0 -92 -63 -155t-154 -63q-74 0 -143 41.5t-95 102.5l111 40q18 -27 55.5 -46.5t71.5 -19.5q41 0 70 29t29 71q0 63 -53.5 84.5t-130.5 -11.5l-93 57l88 171 q-141 18 -261 86.5t-194 159.5l162 164q155 -211 374 -211q119 0 192 60.5t73 163.5q0 26 -6.5 49t-14.5 41.5t-26.5 38t-31.5 32t-42 29.5t-44.5 26t-52.5 25t-53 23t-58 24q-51 21 -83 35.5t-79.5 39.5t-77 47.5t-64 57t-54 71.5t-32.5 86.5t-13 105.5q0 189 131 302.5 t324 113.5q271 0 463 -215l-143 -145q-83 89 -158 124t-160 35q-96 0 -159 -52.5t-63 -143.5q0 -42 17.5 -78t40.5 -60t68.5 -50t78 -40t91.5 -38h1l1 -1h1l1 -1h1l2 -1q167 -68 240 -118q175 -118 188 -317q1 -17 1 -35z" />
<glyph unicode="&#x15f;" horiz-adv-x="908" d="M834 295q0 -132 -82.5 -213t-226.5 -97l-56 -110q102 19 173.5 -35.5t71.5 -150.5q0 -92 -63 -155t-154 -63q-74 0 -143 41.5t-95 102.5l111 40q18 -27 55.5 -46.5t71.5 -19.5q41 0 70 29t29 71q0 63 -54 84.5t-130 -11.5l-93 57l85 164q-184 13 -344 122l107 166 q57 -45 135.5 -76t153.5 -31q74 0 117.5 31t43.5 84q0 14 -3 26t-11 22t-15.5 17.5t-23 15t-25.5 12.5t-31.5 11.5t-33 10t-37.5 10.5t-39 11q-53 14 -86 25t-78 34t-71 49.5t-45 70t-19 97.5q0 138 107 214.5t267 76.5q190 0 335 -98l-108 -151q-118 77 -245 77 q-67 0 -106 -25.5t-39 -69.5q0 -35 32.5 -60.5t63 -35.5t102.5 -28l12 -3t10.5 -3t11.5 -3q67 -17 113.5 -36.5t90.5 -52t66 -82t22 -116.5z" />
<glyph unicode="&#x160;" horiz-adv-x="1164" d="M490 1686l-219 298l102 63l210 -224l208 224l103 -63l-222 -298h-182zM597 -20q-167 0 -311.5 73t-230.5 179l162 164q155 -211 374 -211q119 0 192 60.5t73 163.5q0 26 -6.5 49t-14.5 41.5t-26.5 38t-31.5 32t-42 29.5t-44.5 26t-52.5 25t-53 23t-58 24q-51 21 -83 35.5 t-79.5 39.5t-77 47.5t-64 57t-54 71.5t-32.5 86.5t-13 105.5q0 189 131 302.5t324 113.5q271 0 463 -215l-143 -145q-83 89 -158 124t-160 35q-96 0 -159 -52.5t-63 -143.5q0 -42 17.5 -78t40.5 -60t68.5 -50t78 -40t91.5 -38h1l1 -1h1l1 -1h1l2 -1q167 -68 240 -118 q175 -118 188 -317q1 -17 1 -35q0 -104 -40 -189t-108.5 -139t-157 -83t-188.5 -29z" />
<glyph unicode="&#x161;" horiz-adv-x="908" d="M355 1116l-219 298l102 63l210 -224l208 224l103 -63l-222 -298h-182zM454 -19q-211 0 -394 124l107 166q57 -45 135.5 -76t153.5 -31q74 0 117.5 31t43.5 84q0 14 -3 26t-11 22t-15.5 17.5t-23 15t-25.5 12.5t-31.5 11.5t-33 10t-37.5 10.5t-39 11q-53 14 -86 25t-78 34 t-71 49.5t-45 70t-19 97.5q0 138 107 214.5t267 76.5q190 0 335 -98l-108 -151q-118 77 -245 77q-67 0 -106 -25.5t-39 -69.5q0 -35 32.5 -60.5t63 -35.5t102.5 -28l12 -3t10.5 -3t11.5 -3q67 -17 113.5 -36.5t90.5 -52t66 -82t22 -116.5q0 -149 -103 -231.5t-277 -82.5z " />
<glyph unicode="&#x162;" horiz-adv-x="1118" d="M677 0h-60l-65 -128q102 19 173.5 -35.5t71.5 -150.5q0 -92 -63 -155t-154 -63q-74 0 -143 41.5t-95 102.5l111 40q18 -27 55.5 -46.5t71.5 -19.5q41 0 70 29t29 71q0 63 -53.5 84.5t-130.5 -11.5l-93 57l95 184h-56v1315h-409v221h1053v-221h-408v-1315z" />
<glyph unicode="&#x163;" horiz-adv-x="668" d="M449 0h-55l-65 -128q102 19 173.5 -35.5t71.5 -150.5q0 -92 -63 -155t-154 -63q-74 0 -143 41.5t-95 102.5l111 40q18 -27 55.5 -46.5t71.5 -19.5q41 0 70 29t29 71q0 63 -54 84.5t-130 -11.5l-93 57l95 184h-54v774h-193v189h193v346h229v-346h191v-189h-191v-774z" />
<glyph unicode="&#x164;" horiz-adv-x="1118" d="M647 1686h-182l-219 298l102 63l210 -224l208 224l103 -63zM1085 1536v-221h-408v-1315h-236v1315h-409v221h1053z" />
<glyph unicode="&#x165;" horiz-adv-x="668" d="M839 1525q0 -31 -14 -59l-144 -390h-146l100 326q-34 18 -54.5 51t-20.5 72q0 57 41.5 98.5t97.5 41.5q57 0 98.5 -41.5t41.5 -98.5zM449 1309v-346h191v-189h-191v-774h-229v774h-193v189h193v346h229z" />
<glyph unicode="&#x166;" horiz-adv-x="1118" d="M1085 1315h-408v-480h202v-148h-202v-687h-236v687h-207v148h207v480h-409v221h1053v-221z" />
<glyph unicode="&#x167;" horiz-adv-x="668" d="M640 774h-191v-262h144v-148h-144v-364h-229v364h-146v148h146v262h-193v189h193v346h229v-346h191v-189z" />
<glyph unicode="&#x168;" horiz-adv-x="1536" d="M901 1635q-119 0 -194 115q-33 49 -72 49q-43 0 -66 -43.5t-23 -110.5h-143q0 128 61 211t165 83q116 0 195 -115q33 -49 75 -49q86 0 86 154h142q0 -128 -59.5 -211t-166.5 -83zM767 -20q-171 0 -308.5 67.5t-215.5 189.5t-78 275v1024h236v-983q0 -155 103.5 -253.5 t262.5 -98.5t263 99t104 253v983h237v-1024q0 -232 -171.5 -382t-432.5 -150z" />
<glyph unicode="&#x169;" horiz-adv-x="1074" d="M671 1062q-119 0 -194 115q-33 49 -72 49q-43 0 -66 -43.5t-23 -110.5h-143q0 128 61 211t165 83q116 0 195 -115q33 -49 75 -49q86 0 86 154h142q0 -128 -59.5 -211t-166.5 -83zM536 -19q-188 0 -296 101.5t-108 274.5v606h228v-585q0 -90 49 -141.5t127 -51.5 q80 0 129 51.5t49 141.5v585h228v-606q0 -173 -108.5 -274.5t-297.5 -101.5z" />
<glyph unicode="&#x16a;" horiz-adv-x="1536" d="M449 1734v143h635v-143h-635zM767 -20q-171 0 -308.5 67.5t-215.5 189.5t-78 275v1024h236v-983q0 -155 103.5 -253.5t262.5 -98.5t263 99t104 253v983h237v-1024q0 -232 -171.5 -382t-432.5 -150z" />
<glyph unicode="&#x16b;" horiz-adv-x="1074" d="M219 1161v143h635v-143h-635zM536 -19q-188 0 -296 101.5t-108 274.5v606h228v-585q0 -90 49 -141.5t127 -51.5q80 0 129 51.5t49 141.5v585h228v-606q0 -173 -108.5 -274.5t-297.5 -101.5z" />
<glyph unicode="&#x16e;" horiz-adv-x="1536" d="M767 1667q-94 0 -162 67.5t-68 161.5t67.5 160.5t162.5 66.5q93 0 159.5 -66.5t66.5 -160.5t-66.5 -161.5t-159.5 -67.5zM767 1774q51 0 85.5 34.5t34.5 87.5q0 49 -35 86t-85 37t-84.5 -37t-34.5 -86q0 -53 34 -87.5t85 -34.5zM767 -20q-171 0 -308.5 67.5t-215.5 189.5 t-78 275v1024h236v-983q0 -155 103.5 -253.5t262.5 -98.5t263 99t104 253v983h237v-1024q0 -232 -171.5 -382t-432.5 -150z" />
<glyph unicode="&#x16f;" horiz-adv-x="1074" d="M552 1113q-95 0 -162.5 67.5t-67.5 160.5q0 94 67.5 161t162.5 67q93 0 159.5 -67t66.5 -161q0 -93 -66.5 -160.5t-159.5 -67.5zM552 1220q50 0 84.5 34t34.5 87q0 50 -35 87t-84 37q-50 0 -85 -37t-35 -87q0 -53 34.5 -87t85.5 -34zM536 -19q-188 0 -296 101.5 t-108 274.5v606h228v-585q0 -90 49 -141.5t127 -51.5q80 0 129 51.5t49 141.5v585h228v-606q0 -173 -108.5 -274.5t-297.5 -101.5z" />
<glyph unicode="&#x170;" horiz-adv-x="1536" d="M562 1684l-101 112l339 306l110 -122zM970 1684l-101 112l339 306l110 -122zM767 -20q-171 0 -308.5 67.5t-215.5 189.5t-78 275v1024h236v-983q0 -155 103.5 -253.5t262.5 -98.5t263 99t104 253v983h237v-1024q0 -232 -171.5 -382t-432.5 -150z" />
<glyph unicode="&#x171;" horiz-adv-x="1074" d="M332 1111l-101 112l339 306l110 -122zM740 1111l-101 112l339 306l110 -122zM536 -19q-188 0 -296 101.5t-108 274.5v606h228v-585q0 -90 49 -141.5t127 -51.5q80 0 129 51.5t49 141.5v585h228v-606q0 -173 -108.5 -274.5t-297.5 -101.5z" />
<glyph unicode="&#x172;" horiz-adv-x="1536" d="M1134 1536h237v-1024q0 -189 -116.5 -326.5t-308.5 -184.5q-197 -104 -197 -233q0 -53 31.5 -80t83.5 -27q99 0 179 82l92 -127q-60 -60 -137 -89t-158 -24q-112 7 -176.5 68.5t-64.5 159.5q0 138 138 250q-249 9 -410.5 157.5t-161.5 373.5v1024h236v-983 q0 -155 103.5 -253.5t262.5 -98.5t263 99t104 253v983z" />
<glyph unicode="&#x173;" horiz-adv-x="1074" d="M714 963h228v-606q0 -146 -78 -242.5t-220 -123.5q-243 -112 -243 -256q0 -53 31.5 -80t83.5 -27q99 0 179 82l92 -127q-60 -60 -137 -89t-158 -24q-112 7 -176.5 68.5t-64.5 159.5q0 162 193 290q-148 24 -230 121.5t-82 247.5v606h228v-585q0 -90 49 -141.5t127 -51.5 q80 0 129 51.5t49 141.5v585z" />
<glyph unicode="&#x174;" horiz-adv-x="2013" d="M1008 1869l-210 -224l-102 64l220 298h181l222 -298l-103 -64zM1763 1536h256l-600 -1536h-166l-247 610l-248 -610h-166l-598 1536h254l436 -1193l208 548l-261 645h243l132 -345l131 345h245l-262 -645l210 -549z" />
<glyph unicode="&#x175;" horiz-adv-x="1522" d="M762 1296l-210 -224l-102 64l220 298h181l222 -298l-103 -64zM1282 963h234l-342 -963h-177l-238 647l-239 -647h-176l-338 963h232l213 -646l237 646h143l238 -650z" />
<glyph unicode="&#x176;" horiz-adv-x="1335" d="M669 1869l-210 -224l-102 64l220 298h181l222 -298l-103 -64zM1322 1536l-535 -809v-727h-236v722l-538 814h279l377 -589l378 589h275z" />
<glyph unicode="&#x177;" horiz-adv-x="1035" d="M503 1296l-210 -224l-102 64l220 298h181l222 -298l-103 -64zM779 963h245l-583 -1455h-236l195 496l-391 959h251l264 -720z" />
<glyph unicode="&#x178;" horiz-adv-x="1335" d="M471 1648q-53 0 -91.5 38t-38.5 91q0 54 38.5 91.5t91.5 37.5t91.5 -37.5t38.5 -91.5q0 -53 -38.5 -91t-91.5 -38zM869 1648q-53 0 -91.5 38t-38.5 91q0 54 38 91.5t92 37.5t91.5 -37.5t37.5 -91.5q0 -53 -38 -91t-91 -38zM1322 1536l-535 -809v-727h-236v722l-538 814 h279l377 -589l378 589h275z" />
<glyph unicode="&#x179;" horiz-adv-x="1347" d="M1001 1938l-338 -292l-85 94l306 329zM1311 1536v-23l-881 -1292h843v-221h-1247v31l876 1284h-790v221h1199z" />
<glyph unicode="&#x17a;" horiz-adv-x="958" d="M803 1365l-338 -292l-85 94l306 329zM905 963l-498 -774h493v-189h-858l497 774h-466v189h832z" />
<glyph unicode="&#x17b;" horiz-adv-x="1347" d="M691 1696q-52 0 -90.5 38t-38.5 90q0 54 38.5 92t90.5 38q54 0 92 -38t38 -92q0 -52 -38.5 -90t-91.5 -38zM1311 1536v-23l-881 -1292h843v-221h-1247v31l876 1284h-790v221h1199z" />
<glyph unicode="&#x17c;" horiz-adv-x="958" d="M493 1123q-52 0 -90.5 38t-38.5 90q0 54 38.5 92t90.5 38q54 0 92 -38t38 -92q0 -52 -38.5 -90t-91.5 -38zM905 963l-498 -774h493v-189h-858l497 774h-466v189h832z" />
<glyph unicode="&#x17d;" horiz-adv-x="1347" d="M781 1686h-182l-219 298l102 63l210 -224l208 224l103 -63zM1311 1536v-23l-881 -1292h843v-221h-1247v31l876 1284h-790v221h1199z" />
<glyph unicode="&#x17e;" horiz-adv-x="958" d="M583 1113h-182l-219 298l102 63l210 -224l208 224l103 -63zM905 963l-498 -774h493v-189h-858l497 774h-466v189h832z" />
<glyph unicode="&#x192;" horiz-adv-x="1052" d="M836 1372q-78 0 -131.5 -51t-67.5 -136l-26 -161h279l-29 -194h-281l-214 -1342h-229l212 1342h-172l30 194h172l31 194q23 143 139.5 240.5t260.5 97.5q47 0 89 -10.5t61 -25.5l-22 -181q-37 33 -102 33z" />
<glyph unicode="&#x1a0;" horiz-adv-x="1746" d="M1602 1511h154v-124q0 -123 -53.5 -184.5t-132.5 -65.5q91 -173 91 -369q0 -214 -105.5 -395.5t-287 -287t-395.5 -105.5q-161 0 -307 62.5t-251.5 167.5t-168 251t-62.5 307t62.5 307t168 251t251.5 167.5t307 62.5q197 0 367 -90t278 -245q49 4 71.5 41.5t18.5 91.5z M873 211q115 0 218.5 43.5t177.5 117.5t117.5 177.5t43.5 218.5t-43.5 218.5t-117.5 177.5t-177.5 117.5t-218.5 43.5q-153 0 -281 -73.5t-202 -201.5t-74 -282t74 -282t202 -201.5t281 -73.5z" />
<glyph unicode="&#x1a1;" horiz-adv-x="1148" d="M1103 1026h154v-124q0 -128 -57 -189t-140 -61h-9q30 -80 30 -171q0 -208 -147 -353.5t-360 -145.5q-141 0 -258 66.5t-184 181t-67 251.5t67 252t184 181.5t258 66.5q139 0 255.5 -66.5t182.5 -178.5q53 0 77 38.5t20 94.5zM573 190q120 0 203 84t83 207t-83 207.5 t-203 84.5q-121 0 -203.5 -84t-82.5 -208t82.5 -207.5t203.5 -83.5z" />
<glyph unicode="&#x1af;" horiz-adv-x="1705" d="M1465 1537h154v-124q0 -128 -57 -189t-140 -61q-21 0 -51 5v-656q0 -232 -171.5 -382t-432.5 -150q-171 0 -308.5 67.5t-215.5 189.5t-78 275v1024h236v-983q0 -155 103.5 -253.5t262.5 -98.5t263 99t104 253v983h237v-289h2q54 0 78 38t20 95z" />
<glyph unicode="&#x1b0;" horiz-adv-x="1074" d="M1077 962h154v-124q0 -128 -57 -189t-140 -61q-41 0 -92 14v-245q0 -173 -108.5 -274.5t-297.5 -101.5q-188 0 -296 101.5t-108 274.5v606h228v-585q0 -90 49 -141.5t127 -51.5q80 0 129 51.5t49 141.5v585h228v-285q25 -6 43 -6q54 0 78 38t20 95z" />
<glyph unicode="&#x1cd;" horiz-adv-x="1372" d="M775 1686h-182l-219 298l102 63l210 -224l208 224l103 -63zM1112 0l-88 242h-678l-88 -242h-258l610 1536h150l612 -1536h-260zM422 449h527l-263 726z" />
<glyph unicode="&#x1ce;" horiz-adv-x="1256" d="M672 1114h-182l-219 298l102 63l210 -224l208 224l103 -63zM870 963h229v-963h-216l-5 139q-124 -158 -338 -158q-125 0 -233 65t-173 181t-65 256q0 210 139.5 355t331.5 145q207 0 330 -148v128zM589 188q121 0 206 86t85 209q0 122 -85 208t-206 86q-122 0 -207 -86 t-85 -208q0 -123 85 -209t207 -86z" />
<glyph unicode="&#x1cf;" horiz-adv-x="632" d="M222 1686l-219 298l102 63l210 -224l208 224l103 -63l-222 -298h-182zM198 0v1536h236v-1536h-236z" />
<glyph unicode="&#x1d0;" horiz-adv-x="546" d="M180 1113l-219 298l102 63l210 -224l208 224l103 -63l-222 -298h-182zM159 0v963h228v-963h-228z" />
<glyph unicode="&#x1d1;" horiz-adv-x="1746" d="M780 1686l-219 298l102 63l210 -224l208 224l103 -63l-222 -298h-182zM873 -20q-161 0 -307 62.5t-251.5 167.5t-168 251t-62.5 307t62.5 307t168 251t251.5 167.5t307 62.5q214 0 395.5 -105.5t287 -287t105.5 -395.5t-105.5 -395.5t-287 -287t-395.5 -105.5zM873 211 q115 0 218.5 43.5t177.5 117.5t117.5 177.5t43.5 218.5t-43.5 218.5t-117.5 177.5t-177.5 117.5t-218.5 43.5q-153 0 -281 -73.5t-202 -201.5t-74 -282t74 -282t202 -201.5t281 -73.5z" />
<glyph unicode="&#x1d2;" horiz-adv-x="1148" d="M481 1112l-219 298l102 63l210 -224l208 224l103 -63l-222 -298h-182zM574 -18q-141 0 -258 66.5t-184 181t-67 251.5t67 252t184 181.5t258 66.5q213 0 360 -145.5t147 -354.5q0 -208 -147 -353.5t-360 -145.5zM573 190q120 0 203 84t83 207t-83 207.5t-203 84.5 q-121 0 -203.5 -84t-82.5 -208t82.5 -207.5t203.5 -83.5z" />
<glyph unicode="&#x1d3;" horiz-adv-x="1536" d="M674 1686l-219 298l102 63l210 -224l208 224l103 -63l-222 -298h-182zM767 -20q-171 0 -308.5 67.5t-215.5 189.5t-78 275v1024h236v-983q0 -155 103.5 -253.5t262.5 -98.5t263 99t104 253v983h237v-1024q0 -232 -171.5 -382t-432.5 -150z" />
<glyph unicode="&#x1d4;" horiz-adv-x="1074" d="M444 1113l-219 298l102 63l210 -224l208 224l103 -63l-222 -298h-182zM536 -19q-188 0 -296 101.5t-108 274.5v606h228v-585q0 -90 49 -141.5t127 -51.5q80 0 129 51.5t49 141.5v585h228v-606q0 -173 -108.5 -274.5t-297.5 -101.5z" />
<glyph unicode="&#x1d5;" horiz-adv-x="1536" d="M449 2104v143h635v-143h-635zM569 1648q-53 0 -91.5 38t-38.5 91q0 54 38.5 91.5t91.5 37.5t91.5 -37.5t38.5 -91.5q0 -53 -38.5 -91t-91.5 -38zM967 1648q-53 0 -91.5 38t-38.5 91q0 54 38 91.5t92 37.5t91.5 -37.5t37.5 -91.5q0 -53 -38 -91t-91 -38zM767 -20 q-171 0 -308.5 67.5t-215.5 189.5t-78 275v1024h236v-983q0 -155 103.5 -253.5t262.5 -98.5t263 99t104 253v983h237v-1024q0 -232 -171.5 -382t-432.5 -150z" />
<glyph unicode="&#x1d6;" horiz-adv-x="1074" d="M219 1592v143h635v-143h-635zM339 1136q-53 0 -91.5 38t-38.5 91q0 54 38.5 91.5t91.5 37.5t91.5 -37.5t38.5 -91.5q0 -53 -38.5 -91t-91.5 -38zM737 1136q-53 0 -91.5 38t-38.5 91q0 54 38 91.5t92 37.5t91.5 -37.5t37.5 -91.5q0 -53 -38 -91t-91 -38zM536 -19 q-188 0 -296 101.5t-108 274.5v606h228v-585q0 -90 49 -141.5t127 -51.5q80 0 129 51.5t49 141.5v585h228v-606q0 -173 -108.5 -274.5t-297.5 -101.5z" />
<glyph unicode="&#x1d7;" horiz-adv-x="1536" d="M738 2016l-85 94l306 329l117 -131zM569 1648q-53 0 -91.5 38t-38.5 91q0 54 38.5 91.5t91.5 37.5t91.5 -37.5t38.5 -91.5q0 -53 -38.5 -91t-91.5 -38zM967 1648q-53 0 -91.5 38t-38.5 91q0 54 38 91.5t92 37.5t91.5 -37.5t37.5 -91.5q0 -53 -38 -91t-91 -38zM767 -20 q-171 0 -308.5 67.5t-215.5 189.5t-78 275v1024h236v-983q0 -155 103.5 -253.5t262.5 -98.5t263 99t104 253v983h237v-1024q0 -232 -171.5 -382t-432.5 -150z" />
<glyph unicode="&#x1d8;" horiz-adv-x="1074" d="M508 1504l-85 94l306 329l117 -131zM339 1136q-53 0 -91.5 38t-38.5 91q0 54 38.5 91.5t91.5 37.5t91.5 -37.5t38.5 -91.5q0 -53 -38.5 -91t-91.5 -38zM737 1136q-53 0 -91.5 38t-38.5 91q0 54 38 91.5t92 37.5t91.5 -37.5t37.5 -91.5q0 -53 -38 -91t-91 -38zM536 -19 q-188 0 -296 101.5t-108 274.5v606h228v-585q0 -90 49 -141.5t127 -51.5q80 0 129 51.5t49 141.5v585h228v-606q0 -173 -108.5 -274.5t-297.5 -101.5z" />
<glyph unicode="&#x1d9;" horiz-adv-x="1536" d="M674 2056l-219 298l102 63l210 -224l208 224l103 -63l-222 -298h-182zM569 1648q-53 0 -91.5 38t-38.5 91q0 54 38.5 91.5t91.5 37.5t91.5 -37.5t38.5 -91.5q0 -53 -38.5 -91t-91.5 -38zM967 1648q-53 0 -91.5 38t-38.5 91q0 54 38 91.5t92 37.5t91.5 -37.5t37.5 -91.5 q0 -53 -38 -91t-91 -38zM767 -20q-171 0 -308.5 67.5t-215.5 189.5t-78 275v1024h236v-983q0 -155 103.5 -253.5t262.5 -98.5t263 99t104 253v983h237v-1024q0 -232 -171.5 -382t-432.5 -150z" />
<glyph unicode="&#x1da;" horiz-adv-x="1074" d="M444 1544l-219 298l102 63l210 -224l208 224l103 -63l-222 -298h-182zM339 1136q-53 0 -91.5 38t-38.5 91q0 54 38.5 91.5t91.5 37.5t91.5 -37.5t38.5 -91.5q0 -53 -38.5 -91t-91.5 -38zM737 1136q-53 0 -91.5 38t-38.5 91q0 54 38 91.5t92 37.5t91.5 -37.5t37.5 -91.5 q0 -53 -38 -91t-91 -38zM536 -19q-188 0 -296 101.5t-108 274.5v606h228v-585q0 -90 49 -141.5t127 -51.5q80 0 129 51.5t49 141.5v585h228v-606q0 -173 -108.5 -274.5t-297.5 -101.5z" />
<glyph unicode="&#x1db;" horiz-adv-x="1536" d="M774 2019l-340 289l119 131l302 -330zM569 1648q-53 0 -91.5 38t-38.5 91q0 54 38.5 91.5t91.5 37.5t91.5 -37.5t38.5 -91.5q0 -53 -38.5 -91t-91.5 -38zM967 1648q-53 0 -91.5 38t-38.5 91q0 54 38 91.5t92 37.5t91.5 -37.5t37.5 -91.5q0 -53 -38 -91t-91 -38zM767 -20 q-171 0 -308.5 67.5t-215.5 189.5t-78 275v1024h236v-983q0 -155 103.5 -253.5t262.5 -98.5t263 99t104 253v983h237v-1024q0 -232 -171.5 -382t-432.5 -150z" />
<glyph unicode="&#x1dc;" horiz-adv-x="1074" d="M544 1507l-340 289l119 131l302 -330zM339 1136q-53 0 -91.5 38t-38.5 91q0 54 38.5 91.5t91.5 37.5t91.5 -37.5t38.5 -91.5q0 -53 -38.5 -91t-91.5 -38zM737 1136q-53 0 -91.5 38t-38.5 91q0 54 38 91.5t92 37.5t91.5 -37.5t37.5 -91.5q0 -53 -38 -91t-91 -38zM536 -19 q-188 0 -296 101.5t-108 274.5v606h228v-585q0 -90 49 -141.5t127 -51.5q80 0 129 51.5t49 141.5v585h228v-606q0 -173 -108.5 -274.5t-297.5 -101.5z" />
<glyph unicode="&#x218;" horiz-adv-x="1164" d="M597 -20q-167 0 -311.5 73t-230.5 179l162 164q155 -211 374 -211q119 0 192 60.5t73 163.5q0 26 -6.5 49t-14.5 41.5t-26.5 38t-31.5 32t-42 29.5t-44.5 26t-52.5 25t-53 23t-58 24q-51 21 -83 35.5t-79.5 39.5t-77 47.5t-64 57t-54 71.5t-32.5 86.5t-13 105.5 q0 189 131 302.5t324 113.5q271 0 463 -215l-143 -145q-83 89 -158 124t-160 35q-96 0 -159 -52.5t-63 -143.5q0 -42 17.5 -78t40.5 -60t68.5 -50t78 -40t91.5 -38h1l1 -1h1l1 -1h1l2 -1q167 -68 240 -118q175 -118 188 -317q1 -17 1 -35q0 -104 -40 -189t-108.5 -139 t-157 -83t-188.5 -29zM458 -601l-117 50l201 459l177 -79z" />
<glyph unicode="&#x219;" horiz-adv-x="908" d="M454 -19q-211 0 -394 124l107 166q57 -45 135.5 -76t153.5 -31q74 0 117.5 31t43.5 84q0 14 -3 26t-11 22t-15.5 17.5t-23 15t-25.5 12.5t-31.5 11.5t-33 10t-37.5 10.5t-39 11q-53 14 -86 25t-78 34t-71 49.5t-45 70t-19 97.5q0 138 107 214.5t267 76.5q190 0 335 -98 l-108 -151q-118 77 -245 77q-67 0 -106 -25.5t-39 -69.5q0 -35 32.5 -60.5t63 -35.5t102.5 -28l12 -3t10.5 -3t11.5 -3q67 -17 113.5 -36.5t90.5 -52t66 -82t22 -116.5q0 -149 -103 -231.5t-277 -82.5zM355 -597l-117 50l201 459l177 -79z" />
<glyph unicode="&#x21a;" horiz-adv-x="1118" d="M32 1536h1053v-221h-408v-1315h-236v1315h-409v221zM321 -550l201 459l177 -79l-261 -430z" />
<glyph unicode="&#x21b;" horiz-adv-x="668" d="M449 963h191v-189h-191v-774h-229v774h-193v189h193v346h229v-346zM98 -550l201 459l177 -79l-261 -430z" />
<glyph unicode="&#x237;" horiz-adv-x="544" d="M159 -481v1444h226v-1444h-226z" />
<glyph unicode="&#x2c6;" horiz-adv-x="745" d="M156 1174l-102 64l220 298h181l222 -298l-103 -64l-208 224z" />
<glyph unicode="&#x2c7;" horiz-adv-x="747" d="M276 1174l-219 298l102 63l210 -224l208 224l103 -63l-222 -298h-182z" />
<glyph unicode="&#x2d8;" horiz-adv-x="889" d="M465 1192q-157 0 -254 88t-97 244h156q0 -83 51.5 -139.5t143.5 -56.5q93 0 145 56.5t52 139.5h156q0 -156 -97.5 -244t-255.5 -88z" />
<glyph unicode="&#x2d9;" horiz-adv-x="497" d="M257 1198q-52 0 -90.5 38t-38.5 90q0 54 38.5 92t90.5 38q54 0 92 -38t38 -92q0 -52 -38.5 -90t-91.5 -38z" />
<glyph unicode="&#x2da;" horiz-adv-x="656" d="M344 1113q-95 0 -162.5 67.5t-67.5 160.5q0 94 67.5 161t162.5 67q93 0 159.5 -67t66.5 -161q0 -93 -66.5 -160.5t-159.5 -67.5zM344 1220q50 0 84.5 34t34.5 87q0 50 -35 87t-84 37q-50 0 -85 -37t-35 -87q0 -53 34.5 -87t85.5 -34z" />
<glyph unicode="&#x2db;" horiz-adv-x="651" d="M329 -530q-112 7 -176.5 68.5t-64.5 159.5q0 203 302 352l112 -50q-119 -51 -191.5 -118.5t-72.5 -146.5q0 -53 31.5 -80t83.5 -27q99 0 179 82l92 -127q-60 -60 -137 -89t-158 -24z" />
<glyph unicode="&#x2dc;" horiz-adv-x="940" d="M645 1242q-119 0 -194 115q-33 49 -72 49q-43 0 -66 -43.5t-23 -110.5h-143q0 128 61 211t165 83q116 0 195 -115q33 -49 75 -49q86 0 86 154h142q0 -128 -59.5 -211t-166.5 -83z" />
<glyph unicode="&#x2dd;" horiz-adv-x="502" d="M112 1134l-85 94l306 329l117 -131z" />
<glyph unicode="&#x300;" d="M-119 1137l-340 289l119 131l302 -330z" />
<glyph unicode="&#x301;" d="M-380 1134l-85 94l306 329l117 -131z" />
<glyph unicode="&#x302;" d="M-582 1174l-102 64l220 298h181l222 -298l-103 -64l-208 224z" />
<glyph unicode="&#x303;" d="M-335 1242q-119 0 -194 115q-33 49 -72 49q-43 0 -66 -43.5t-23 -110.5h-143q0 128 61 211t165 83q116 0 195 -115q33 -49 75 -49q86 0 86 154h142q0 -128 -59.5 -211t-166.5 -83z" />
<glyph unicode="&#x304;" d="M-788 1222v143h635v-143h-635z" />
<glyph unicode="&#x306;" d="M-446 1192q-157 0 -254 88t-97 244h156q0 -83 51.5 -139.5t143.5 -56.5q93 0 145 56.5t52 139.5h156q0 -156 -97.5 -244t-255.5 -88z" />
<glyph unicode="&#x307;" d="M-249 1198q-52 0 -90.5 38t-38.5 90q0 54 38.5 92t90.5 38q54 0 92 -38t38 -92q0 -52 -38.5 -90t-91.5 -38z" />
<glyph unicode="&#x308;" d="M-646 1136q-53 0 -91.5 38t-38.5 91q0 54 38.5 91.5t91.5 37.5t91.5 -37.5t38.5 -91.5q0 -53 -38.5 -91t-91.5 -38zM-248 1136q-53 0 -91.5 38t-38.5 91q0 54 38 91.5t92 37.5t91.5 -37.5t37.5 -91.5q0 -53 -38 -91t-91 -38z" />
<glyph unicode="&#x309;" d="M-378 1057v172q144 28 144 126q0 38 -25 63t-69 25q-60 0 -109 -42l-78 112q87 68 187 68q101 0 170.5 -63.5t69.5 -161.5q0 -70 -40.5 -125.5t-119.5 -77.5v-96h-130z" />
<glyph unicode="&#x30a;" d="M-312 1113q-95 0 -162.5 67.5t-67.5 160.5q0 94 67.5 161t162.5 67q93 0 159.5 -67t66.5 -161q0 -93 -66.5 -160.5t-159.5 -67.5zM-312 1220q50 0 84.5 34t34.5 87q0 50 -35 87t-84 37q-50 0 -85 -37t-35 -87q0 -53 34.5 -87t85.5 -34z" />
<glyph unicode="&#x30b;" d="M-798 1172l-101 112l339 306l110 -122zM-390 1172l-101 112l339 306l110 -122z" />
<glyph unicode="&#x30c;" d="M-466 1174l-219 298l102 63l210 -224l208 224l103 -63l-222 -298h-182z" />
<glyph unicode="&#x312;" d="M-232 1348q41 -13 67 -49.5t26 -80.5q0 -56 -41.5 -98t-97.5 -42q-60 0 -99 41t-39 101q0 24 10 54l168 439h120z" />
<glyph unicode="&#x31b;" d="M-324 778q-104 0 -213 68l67 44q52 -28 97 -28q54 0 78 38t20 95l-6 157h154v-124q0 -128 -57 -189t-140 -61z" />
<glyph unicode="&#x323;" d="M-249 -504q-53 0 -92 38.5t-39 92.5t39 93t92 39t92.5 -39t39.5 -93t-39 -92.5t-93 -38.5z" />
<glyph unicode="&#x326;" d="M-310 -295l-117 50l201 459l177 -79z" />
<glyph unicode="&#x327;" d="M-296 -532q-74 0 -143 41.5t-95 102.5l111 40q18 -27 55.5 -46.5t71.5 -19.5q41 0 70 29t29 71q0 63 -53.5 84.5t-130.5 -11.5l-93 57l97 188h120l-67 -132q102 19 173.5 -35.5t71.5 -150.5q0 -92 -63 -155t-154 -63z" />
<glyph unicode="&#x328;" d="M-332 -530q-112 7 -176.5 68.5t-64.5 159.5q0 203 302 352l112 -50q-119 -51 -191.5 -118.5t-72.5 -146.5q0 -53 31.5 -80t83.5 -27q99 0 179 82l92 -127q-60 -60 -137 -89t-158 -24z" />
<glyph unicode="&#x335;" d="M-796 445v148h645v-148h-645z" />
<glyph unicode="&#x336;" d="M-1641 471v123h1490v-123h-1490z" />
<glyph unicode="&#x337;" d="M-658 228v173l615 457v-173z" />
<glyph unicode="&#x338;" d="M-1260 -28l1155 1657l130 -80l-1155 -1656z" />
<glyph unicode="&#x394;" horiz-adv-x="1539" d="M896 1536l617 -1536h-1487l617 1536h253zM355 210h830l-415 1070z" />
<glyph unicode="&#x3a9;" horiz-adv-x="1776" d="M105 0v194h294v12q-107 96 -183 259.5t-76 353.5q0 151 55.5 284t153.5 229.5t239 152.5t305 56q170 0 312.5 -60t235.5 -160t144.5 -229.5t51.5 -270.5q0 -185 -77 -352.5t-188 -262.5v-12h299v-194h-635v145q147 81 245 246.5t98 384.5q0 152 -55 279.5t-167 207.5 t-262 80q-220 0 -359 -161t-139 -409q0 -216 101 -386t244 -242v-145h-637z" />
<glyph unicode="&#x3bc;" horiz-adv-x="1213" d="M828 963h226v-963h-226v123q-55 -66 -131 -103.5t-162 -37.5q-113 0 -208 63v-526h-168v1444h228v-569q0 -89 62.5 -151t151.5 -62q95 0 161 62t66 151v569z" />
<glyph unicode="&#x3c0;" horiz-adv-x="1280" d="M148 0q53 150 94.5 377.5t47.5 402.5q-154 0 -230 -34l-28 158q89 59 328 59h890l-18 -183h-165v-491q0 -186 27 -289h-207q-33 50 -33 273v507l-353 1q-9 -184 -51 -422.5t-95 -358.5h-207z" />
<glyph unicode="&#x1e80;" horiz-adv-x="2013" d="M1096 1739l-81 -90l-340 289l119 131zM1763 1536h256l-600 -1536h-166l-247 610l-248 -610h-166l-598 1536h254l436 -1193l208 548l-261 645h243l132 -345l131 345h245l-262 -645l210 -549z" />
<glyph unicode="&#x1e81;" horiz-adv-x="1522" d="M850 1166l-81 -90l-340 289l119 131zM1282 963h234l-342 -963h-177l-238 647l-239 -647h-176l-338 963h232l213 -646l237 646h143l238 -650z" />
<glyph unicode="&#x1e82;" horiz-adv-x="2013" d="M1317 1938l-338 -292l-85 94l306 329zM1763 1536h256l-600 -1536h-166l-247 610l-248 -610h-166l-598 1536h254l436 -1193l208 548l-261 645h243l132 -345l131 345h245l-262 -645l210 -549z" />
<glyph unicode="&#x1e83;" horiz-adv-x="1522" d="M1071 1365l-338 -292l-85 94l306 329zM1282 963h234l-342 -963h-177l-238 647l-239 -647h-176l-338 963h232l213 -646l237 646h143l238 -650z" />
<glyph unicode="&#x1e84;" horiz-adv-x="2013" d="M810 1648q-53 0 -91.5 38t-38.5 91q0 54 38.5 91.5t91.5 37.5t91.5 -37.5t38.5 -91.5q0 -53 -38.5 -91t-91.5 -38zM1208 1648q-53 0 -91.5 38t-38.5 91q0 54 38 91.5t92 37.5t91.5 -37.5t37.5 -91.5q0 -53 -38 -91t-91 -38zM1763 1536h256l-600 -1536h-166l-247 610 l-248 -610h-166l-598 1536h254l436 -1193l208 548l-261 645h243l132 -345l131 345h245l-262 -645l210 -549z" />
<glyph unicode="&#x1e85;" horiz-adv-x="1522" d="M564 1136q-53 0 -91.5 38t-38.5 91q0 54 38.5 91.5t91.5 37.5t91.5 -37.5t38.5 -91.5q0 -53 -38.5 -91t-91.5 -38zM962 1136q-53 0 -91.5 38t-38.5 91q0 54 38 91.5t92 37.5t91.5 -37.5t37.5 -91.5q0 -53 -38 -91t-91 -38zM1282 963h234l-342 -963h-177l-238 647 l-239 -647h-176l-338 963h232l213 -646l237 646h143l238 -650z" />
<glyph unicode="&#x1ea0;" horiz-adv-x="1372" d="M1372 0h-260l-88 242h-678l-88 -242h-258l610 1536h150zM422 449h527l-263 726zM686 -130q53 0 92.5 -39t39.5 -93t-39 -92.5t-93 -38.5q-53 0 -92 38.5t-39 92.5t39 93t92 39z" />
<glyph unicode="&#x1ea1;" horiz-adv-x="1256" d="M870 963h229v-963h-216l-5 139q-124 -158 -338 -158q-125 0 -233 65t-173 181t-65 256q0 210 139.5 355t331.5 145q207 0 330 -148v128zM589 188q121 0 206 86t85 209q0 122 -85 208t-206 86q-122 0 -207 -86t-85 -208q0 -123 85 -209t207 -86zM626 -130q53 0 92.5 -39 t39.5 -93t-39 -92.5t-93 -38.5q-53 0 -92 38.5t-39 92.5t39 93t92 39z" />
<glyph unicode="&#x1ea2;" horiz-adv-x="1372" d="M670 2016q-60 0 -109 -42l-78 112q87 68 187 68q101 0 170.5 -63.5t69.5 -161.5q0 -70 -40.5 -125.5t-119.5 -77.5v-96h-130v172q144 28 144 126q0 38 -25 63t-69 25zM1112 0l-88 242h-678l-88 -242h-258l610 1536h150l612 -1536h-260zM422 449h527l-263 726z" />
<glyph unicode="&#x1ea3;" horiz-adv-x="1256" d="M567 1444q-60 0 -109 -42l-78 112q87 68 187 68q101 0 170.5 -63.5t69.5 -161.5q0 -70 -40.5 -125.5t-119.5 -77.5v-96h-130v172q144 28 144 126q0 38 -25 63t-69 25zM870 963h229v-963h-216l-5 139q-124 -158 -338 -158q-125 0 -233 65t-173 181t-65 256 q0 210 139.5 355t331.5 145q207 0 330 -148v128zM589 188q121 0 206 86t85 209q0 122 -85 208t-206 86q-122 0 -207 -86t-85 -208q0 -123 85 -209t207 -86z" />
<glyph unicode="&#x1ea4;" horiz-adv-x="1372" d="M994 2409l-338 -292l-85 94l306 329zM686 1869l-210 -224l-102 64l220 298h181l222 -298l-103 -64zM1112 0l-88 242h-678l-88 -242h-258l610 1536h150l612 -1536h-260zM422 449h527l-263 726z" />
<glyph unicode="&#x1ea5;" horiz-adv-x="1256" d="M891 1837l-338 -292l-85 94l306 329zM583 1297l-210 -224l-102 64l220 298h181l222 -298l-103 -64zM870 963h229v-963h-216l-5 139q-124 -158 -338 -158q-125 0 -233 65t-173 181t-65 256q0 210 139.5 355t331.5 145q207 0 330 -148v128zM589 188q121 0 206 86t85 209 q0 122 -85 208t-206 86q-122 0 -207 -86t-85 -208q0 -123 85 -209t207 -86z" />
<glyph unicode="&#x1ea6;" horiz-adv-x="1372" d="M773 2210l-81 -90l-340 289l119 131zM374 1709l220 298h181l222 -298l-103 -64l-208 224l-210 -224zM1112 0l-88 242h-678l-88 -242h-258l610 1536h150l612 -1536h-260zM422 449h527l-263 726z" />
<glyph unicode="&#x1ea7;" horiz-adv-x="1256" d="M670 1638l-81 -90l-340 289l119 131zM271 1137l220 298h181l222 -298l-103 -64l-208 224l-210 -224zM870 963h229v-963h-216l-5 139q-124 -158 -338 -158q-125 0 -233 65t-173 181t-65 256q0 210 139.5 355t331.5 145q207 0 330 -148v128zM589 188q121 0 206 86t85 209 q0 122 -85 208t-206 86q-122 0 -207 -86t-85 -208q0 -123 85 -209t207 -86z" />
<glyph unicode="&#x1ea8;" horiz-adv-x="1372" d="M669 2487q-60 0 -109 -42l-78 112q87 68 187 68q101 0 170.5 -63.5t69.5 -161.5q0 -70 -40.5 -125.5t-119.5 -77.5v-96h-130v172q144 28 144 126q0 38 -25 63t-69 25zM686 1869l-210 -224l-102 64l220 298h181l222 -298l-103 -64zM1112 0l-88 242h-678l-88 -242h-258 l610 1536h150l612 -1536h-260zM422 449h527l-263 726z" />
<glyph unicode="&#x1ea9;" horiz-adv-x="1256" d="M566 1915q-60 0 -109 -42l-78 112q87 68 187 68q101 0 170.5 -63.5t69.5 -161.5q0 -70 -40.5 -125.5t-119.5 -77.5v-96h-130v172q144 28 144 126q0 38 -25 63t-69 25zM583 1297l-210 -224l-102 64l220 298h181l222 -298l-103 -64zM870 963h229v-963h-216l-5 139 q-124 -158 -338 -158q-125 0 -233 65t-173 181t-65 256q0 210 139.5 355t331.5 145q207 0 330 -148v128zM589 188q121 0 206 86t85 209q0 122 -85 208t-206 86q-122 0 -207 -86t-85 -208q0 -123 85 -209t207 -86z" />
<glyph unicode="&#x1eaa;" horiz-adv-x="1372" d="M553 2270q-43 0 -66 -43.5t-23 -110.5h-143q0 128 61 211t165 83q116 0 195 -115q33 -49 75 -49q86 0 86 154h142q0 -128 -59.5 -211t-166.5 -83q-119 0 -194 115q-33 49 -72 49zM594 2007h181l222 -298l-103 -64l-208 224l-210 -224l-102 64zM1112 0l-88 242h-678 l-88 -242h-258l610 1536h150l612 -1536h-260zM422 449h527l-263 726z" />
<glyph unicode="&#x1eab;" horiz-adv-x="1256" d="M450 1698q-43 0 -66 -43.5t-23 -110.5h-143q0 128 61 211t165 83q116 0 195 -115q33 -49 75 -49q86 0 86 154h142q0 -128 -59.5 -211t-166.5 -83q-119 0 -194 115q-33 49 -72 49zM491 1435h181l222 -298l-103 -64l-208 224l-210 -224l-102 64zM870 963h229v-963h-216 l-5 139q-124 -158 -338 -158q-125 0 -233 65t-173 181t-65 256q0 210 139.5 355t331.5 145q207 0 330 -148v128zM589 188q121 0 206 86t85 209q0 122 -85 208t-206 86q-122 0 -207 -86t-85 -208q0 -123 85 -209t207 -86z" />
<glyph unicode="&#x1eac;" horiz-adv-x="1372" d="M686 1869l-210 -224l-102 64l220 298h181l222 -298l-103 -64zM1372 0h-260l-88 242h-678l-88 -242h-258l610 1536h150zM422 449h527l-263 726zM686 -130q53 0 92.5 -39t39.5 -93t-39 -92.5t-93 -38.5q-53 0 -92 38.5t-39 92.5t39 93t92 39z" />
<glyph unicode="&#x1ead;" horiz-adv-x="1256" d="M583 1297l-210 -224l-102 64l220 298h181l222 -298l-103 -64zM870 963h229v-963h-216l-5 139q-124 -158 -338 -158q-125 0 -233 65t-173 181t-65 256q0 210 139.5 355t331.5 145q207 0 330 -148v128zM589 188q121 0 206 86t85 209q0 122 -85 208t-206 86q-122 0 -207 -86 t-85 -208q0 -123 85 -209t207 -86zM626 -130q53 0 92.5 -39t39.5 -93t-39 -92.5t-93 -38.5q-53 0 -92 38.5t-39 92.5t39 93t92 39z" />
<glyph unicode="&#x1eae;" horiz-adv-x="1372" d="M995 2409l-338 -292l-85 94l306 329zM685 1704q-157 0 -254 88t-97 244h156q0 -83 51.5 -139.5t143.5 -56.5q93 0 145 56.5t52 139.5h156q0 -156 -97.5 -244t-255.5 -88zM1112 0l-88 242h-678l-88 -242h-258l610 1536h150l612 -1536h-260zM422 449h527l-263 726z" />
<glyph unicode="&#x1eaf;" horiz-adv-x="1256" d="M892 1837l-338 -292l-85 94l306 329zM582 1132q-157 0 -254 88t-97 244h156q0 -83 51.5 -139.5t143.5 -56.5q93 0 145 56.5t52 139.5h156q0 -156 -97.5 -244t-255.5 -88zM870 963h229v-963h-216l-5 139q-124 -158 -338 -158q-125 0 -233 65t-173 181t-65 256 q0 210 139.5 355t331.5 145q207 0 330 -148v128zM589 188q121 0 206 86t85 209q0 122 -85 208t-206 86q-122 0 -207 -86t-85 -208q0 -123 85 -209t207 -86z" />
<glyph unicode="&#x1eb0;" horiz-adv-x="1372" d="M774 2210l-81 -90l-340 289l119 131zM685 1704q-157 0 -254 88t-97 244h156q0 -83 51.5 -139.5t143.5 -56.5q93 0 145 56.5t52 139.5h156q0 -156 -97.5 -244t-255.5 -88zM1112 0l-88 242h-678l-88 -242h-258l610 1536h150l612 -1536h-260zM422 449h527l-263 726z" />
<glyph unicode="&#x1eb1;" horiz-adv-x="1256" d="M671 1638l-81 -90l-340 289l119 131zM582 1132q-157 0 -254 88t-97 244h156q0 -83 51.5 -139.5t143.5 -56.5q93 0 145 56.5t52 139.5h156q0 -156 -97.5 -244t-255.5 -88zM870 963h229v-963h-216l-5 139q-124 -158 -338 -158q-125 0 -233 65t-173 181t-65 256 q0 210 139.5 355t331.5 145q207 0 330 -148v128zM589 188q121 0 206 86t85 209q0 122 -85 208t-206 86q-122 0 -207 -86t-85 -208q0 -123 85 -209t207 -86z" />
<glyph unicode="&#x1eb2;" horiz-adv-x="1372" d="M670 2487q-60 0 -109 -42l-78 112q87 68 187 68q101 0 170.5 -63.5t69.5 -161.5q0 -70 -40.5 -125.5t-119.5 -77.5v-96h-130v172q144 28 144 126q0 38 -25 63t-69 25zM685 1704q-157 0 -254 88t-97 244h156q0 -83 51.5 -139.5t143.5 -56.5q93 0 145 56.5t52 139.5h156 q0 -156 -97.5 -244t-255.5 -88zM1112 0l-88 242h-678l-88 -242h-258l610 1536h150l612 -1536h-260zM422 449h527l-263 726z" />
<glyph unicode="&#x1eb3;" horiz-adv-x="1256" d="M567 1915q-60 0 -109 -42l-78 112q87 68 187 68q101 0 170.5 -63.5t69.5 -161.5q0 -70 -40.5 -125.5t-119.5 -77.5v-96h-130v172q144 28 144 126q0 38 -25 63t-69 25zM582 1132q-157 0 -254 88t-97 244h156q0 -83 51.5 -139.5t143.5 -56.5q93 0 145 56.5t52 139.5h156 q0 -156 -97.5 -244t-255.5 -88zM870 963h229v-963h-216l-5 139q-124 -158 -338 -158q-125 0 -233 65t-173 181t-65 256q0 210 139.5 355t331.5 145q207 0 330 -148v128zM589 188q121 0 206 86t85 209q0 122 -85 208t-206 86q-122 0 -207 -86t-85 -208q0 -123 85 -209 t207 -86z" />
<glyph unicode="&#x1eb4;" horiz-adv-x="1372" d="M554 2270q-43 0 -66 -43.5t-23 -110.5h-143q0 128 61 211t165 83q116 0 195 -115q33 -49 75 -49q86 0 86 154h142q0 -128 -59.5 -211t-166.5 -83q-119 0 -194 115q-33 49 -72 49zM685 1840q93 0 145 56.5t52 139.5h156q0 -156 -97.5 -244t-255.5 -88q-157 0 -254 88 t-97 244h156q0 -83 51.5 -139.5t143.5 -56.5zM1112 0l-88 242h-678l-88 -242h-258l610 1536h150l612 -1536h-260zM422 449h527l-263 726z" />
<glyph unicode="&#x1eb5;" horiz-adv-x="1256" d="M451 1698q-43 0 -66 -43.5t-23 -110.5h-143q0 128 61 211t165 83q116 0 195 -115q33 -49 75 -49q86 0 86 154h142q0 -128 -59.5 -211t-166.5 -83q-119 0 -194 115q-33 49 -72 49zM582 1268q93 0 145 56.5t52 139.5h156q0 -156 -97.5 -244t-255.5 -88q-157 0 -254 88 t-97 244h156q0 -83 51.5 -139.5t143.5 -56.5zM870 963h229v-963h-216l-5 139q-124 -158 -338 -158q-125 0 -233 65t-173 181t-65 256q0 210 139.5 355t331.5 145q207 0 330 -148v128zM589 188q121 0 206 86t85 209q0 122 -85 208t-206 86q-122 0 -207 -86t-85 -208 q0 -123 85 -209t207 -86z" />
<glyph unicode="&#x1eb6;" horiz-adv-x="1372" d="M685 1704q-157 0 -254 88t-97 244h156q0 -83 51.5 -139.5t143.5 -56.5q93 0 145 56.5t52 139.5h156q0 -156 -97.5 -244t-255.5 -88zM1372 0h-260l-88 242h-678l-88 -242h-258l610 1536h150zM422 449h527l-263 726zM686 -130q53 0 92.5 -39t39.5 -93t-39 -92.5t-93 -38.5 q-53 0 -92 38.5t-39 92.5t39 93t92 39z" />
<glyph unicode="&#x1eb7;" horiz-adv-x="1256" d="M582 1132q-157 0 -254 88t-97 244h156q0 -83 51.5 -139.5t143.5 -56.5q93 0 145 56.5t52 139.5h156q0 -156 -97.5 -244t-255.5 -88zM870 963h229v-963h-216l-5 139q-124 -158 -338 -158q-125 0 -233 65t-173 181t-65 256q0 210 139.5 355t331.5 145q207 0 330 -148v128z M589 188q121 0 206 86t85 209q0 122 -85 208t-206 86q-122 0 -207 -86t-85 -208q0 -123 85 -209t207 -86zM626 -130q53 0 92.5 -39t39.5 -93t-39 -92.5t-93 -38.5q-53 0 -92 38.5t-39 92.5t39 93t92 39z" />
<glyph unicode="&#x1eb8;" horiz-adv-x="1188" d="M1085 1319h-651v-442h565v-218h-565v-442h651v-217h-887v1536h887v-217zM641 -130q53 0 92.5 -39t39.5 -93t-39 -92.5t-93 -38.5q-53 0 -92 38.5t-39 92.5t39 93t92 39z" />
<glyph unicode="&#x1eb9;" horiz-adv-x="1130" d="M1071 492v-49h-781q13 -122 93.5 -197t195.5 -75q81 0 149 37.5t109 106.5l184 -76q-60 -120 -176.5 -188.5t-263.5 -68.5q-223 0 -368.5 144.5t-145.5 354.5q0 137 65.5 252t182.5 182t259 67q138 0 251.5 -62t179.5 -174.5t66 -253.5zM576 796q-97 0 -168 -52 t-101 -141h526q-30 90 -96.5 141.5t-160.5 51.5zM592 -131q53 0 92.5 -39t39.5 -93t-39 -92.5t-93 -38.5q-53 0 -92 38.5t-39 92.5t39 93t92 39z" />
<glyph unicode="&#x1eba;" horiz-adv-x="1188" d="M625 2016q-60 0 -109 -42l-78 112q87 68 187 68q101 0 170.5 -63.5t69.5 -161.5q0 -70 -40.5 -125.5t-119.5 -77.5v-96h-130v172q144 28 144 126q0 38 -25 63t-69 25zM1085 1319h-651v-442h565v-218h-565v-442h651v-217h-887v1536h887v-217z" />
<glyph unicode="&#x1ebb;" horiz-adv-x="1130" d="M569 1450q-60 0 -109 -42l-78 112q87 68 187 68q101 0 170.5 -63.5t69.5 -161.5q0 -70 -40.5 -125.5t-119.5 -77.5v-96h-130v172q144 28 144 126q0 38 -25 63t-69 25zM1071 492v-49h-781q13 -122 93.5 -197t195.5 -75q81 0 149 37.5t109 106.5l184 -76 q-60 -120 -176.5 -188.5t-263.5 -68.5q-223 0 -368.5 144.5t-145.5 354.5q0 137 65.5 252t182.5 182t259 67q138 0 251.5 -62t179.5 -174.5t66 -253.5zM576 796q-97 0 -168 -52t-101 -141h526q-30 90 -96.5 141.5t-160.5 51.5z" />
<glyph unicode="&#x1ebc;" horiz-adv-x="1188" d="M509 1799q-43 0 -66 -43.5t-23 -110.5h-143q0 128 61 211t165 83q116 0 195 -115q33 -49 75 -49q86 0 86 154h142q0 -128 -59.5 -211t-166.5 -83q-119 0 -194 115q-33 49 -72 49zM1085 1319h-651v-442h565v-218h-565v-442h651v-217h-887v1536h887v-217z" />
<glyph unicode="&#x1ebd;" horiz-adv-x="1130" d="M453 1233q-43 0 -66 -43.5t-23 -110.5h-143q0 128 61 211t165 83q116 0 195 -115q33 -49 75 -49q86 0 86 154h142q0 -128 -59.5 -211t-166.5 -83q-119 0 -194 115q-33 49 -72 49zM1071 492v-49h-781q13 -122 93.5 -197t195.5 -75q81 0 149 37.5t109 106.5l184 -76 q-60 -120 -176.5 -188.5t-263.5 -68.5q-223 0 -368.5 144.5t-145.5 354.5q0 137 65.5 252t182.5 182t259 67q138 0 251.5 -62t179.5 -174.5t66 -253.5zM576 796q-97 0 -168 -52t-101 -141h526q-30 90 -96.5 141.5t-160.5 51.5z" />
<glyph unicode="&#x1ebe;" horiz-adv-x="1188" d="M949 2409l-338 -292l-85 94l306 329zM641 1869l-210 -224l-102 64l220 298h181l222 -298l-103 -64zM1085 1319h-651v-442h565v-218h-565v-442h651v-217h-887v1536h887v-217z" />
<glyph unicode="&#x1ebf;" horiz-adv-x="1130" d="M893 1843l-338 -292l-85 94l306 329zM585 1303l-210 -224l-102 64l220 298h181l222 -298l-103 -64zM1071 492v-49h-781q13 -122 93.5 -197t195.5 -75q81 0 149 37.5t109 106.5l184 -76q-60 -120 -176.5 -188.5t-263.5 -68.5q-223 0 -368.5 144.5t-145.5 354.5 q0 137 65.5 252t182.5 182t259 67q138 0 251.5 -62t179.5 -174.5t66 -253.5zM576 796q-97 0 -168 -52t-101 -141h526q-30 90 -96.5 141.5t-160.5 51.5z" />
<glyph unicode="&#x1ec0;" horiz-adv-x="1188" d="M728 2210l-81 -90l-340 289l119 131zM329 1709l220 298h181l222 -298l-103 -64l-208 224l-210 -224zM1085 1319h-651v-442h565v-218h-565v-442h651v-217h-887v1536h887v-217z" />
<glyph unicode="&#x1ec1;" horiz-adv-x="1130" d="M672 1644l-81 -90l-340 289l119 131zM273 1143l220 298h181l222 -298l-103 -64l-208 224l-210 -224zM1071 492v-49h-781q13 -122 93.5 -197t195.5 -75q81 0 149 37.5t109 106.5l184 -76q-60 -120 -176.5 -188.5t-263.5 -68.5q-223 0 -368.5 144.5t-145.5 354.5 q0 137 65.5 252t182.5 182t259 67q138 0 251.5 -62t179.5 -174.5t66 -253.5zM576 796q-97 0 -168 -52t-101 -141h526q-30 90 -96.5 141.5t-160.5 51.5z" />
<glyph unicode="&#x1ec2;" horiz-adv-x="1188" d="M624 2487q-60 0 -109 -42l-78 112q87 68 187 68q101 0 170.5 -63.5t69.5 -161.5q0 -70 -40.5 -125.5t-119.5 -77.5v-96h-130v172q144 28 144 126q0 38 -25 63t-69 25zM641 1869l-210 -224l-102 64l220 298h181l222 -298l-103 -64zM1085 1319h-651v-442h565v-218h-565 v-442h651v-217h-887v1536h887v-217z" />
<glyph unicode="&#x1ec3;" horiz-adv-x="1130" d="M568 1921q-60 0 -109 -42l-78 112q87 68 187 68q101 0 170.5 -63.5t69.5 -161.5q0 -70 -40.5 -125.5t-119.5 -77.5v-96h-130v172q144 28 144 126q0 38 -25 63t-69 25zM585 1303l-210 -224l-102 64l220 298h181l222 -298l-103 -64zM1071 492v-49h-781q13 -122 93.5 -197 t195.5 -75q81 0 149 37.5t109 106.5l184 -76q-60 -120 -176.5 -188.5t-263.5 -68.5q-223 0 -368.5 144.5t-145.5 354.5q0 137 65.5 252t182.5 182t259 67q138 0 251.5 -62t179.5 -174.5t66 -253.5zM576 796q-97 0 -168 -52t-101 -141h526q-30 90 -96.5 141.5t-160.5 51.5z " />
<glyph unicode="&#x1ec4;" horiz-adv-x="1188" d="M508 2270q-43 0 -66 -43.5t-23 -110.5h-143q0 128 61 211t165 83q116 0 195 -115q33 -49 75 -49q86 0 86 154h142q0 -128 -59.5 -211t-166.5 -83q-119 0 -194 115q-33 49 -72 49zM549 2007h181l222 -298l-103 -64l-208 224l-210 -224l-102 64zM1085 1319h-651v-442h565 v-218h-565v-442h651v-217h-887v1536h887v-217z" />
<glyph unicode="&#x1ec5;" horiz-adv-x="1130" d="M452 1704q-43 0 -66 -43.5t-23 -110.5h-143q0 128 61 211t165 83q116 0 195 -115q33 -49 75 -49q86 0 86 154h142q0 -128 -59.5 -211t-166.5 -83q-119 0 -194 115q-33 49 -72 49zM493 1441h181l222 -298l-103 -64l-208 224l-210 -224l-102 64zM1071 492v-49h-781 q13 -122 93.5 -197t195.5 -75q81 0 149 37.5t109 106.5l184 -76q-60 -120 -176.5 -188.5t-263.5 -68.5q-223 0 -368.5 144.5t-145.5 354.5q0 137 65.5 252t182.5 182t259 67q138 0 251.5 -62t179.5 -174.5t66 -253.5zM576 796q-97 0 -168 -52t-101 -141h526 q-30 90 -96.5 141.5t-160.5 51.5z" />
<glyph unicode="&#x1ec6;" horiz-adv-x="1188" d="M641 1869l-210 -224l-102 64l220 298h181l222 -298l-103 -64zM1085 1319h-651v-442h565v-218h-565v-442h651v-217h-887v1536h887v-217zM641 -130q53 0 92.5 -39t39.5 -93t-39 -92.5t-93 -38.5q-53 0 -92 38.5t-39 92.5t39 93t92 39z" />
<glyph unicode="&#x1ec7;" horiz-adv-x="1130" d="M585 1303l-210 -224l-102 64l220 298h181l222 -298l-103 -64zM1071 492v-49h-781q13 -122 93.5 -197t195.5 -75q81 0 149 37.5t109 106.5l184 -76q-60 -120 -176.5 -188.5t-263.5 -68.5q-223 0 -368.5 144.5t-145.5 354.5q0 137 65.5 252t182.5 182t259 67 q138 0 251.5 -62t179.5 -174.5t66 -253.5zM576 796q-97 0 -168 -52t-101 -141h526q-30 90 -96.5 141.5t-160.5 51.5zM592 -131q53 0 92.5 -39t39.5 -93t-39 -92.5t-93 -38.5q-53 0 -92 38.5t-39 92.5t39 93t92 39z" />
<glyph unicode="&#x1ec8;" horiz-adv-x="632" d="M249 1630v172q144 28 144 126q0 38 -25 63t-69 25q-60 0 -109 -42l-78 112q87 68 187 68q101 0 170.5 -63.5t69.5 -161.5q0 -70 -40.5 -125.5t-119.5 -77.5v-96h-130zM198 0v1536h236v-1536h-236z" />
<glyph unicode="&#x1ec9;" horiz-adv-x="546" d="M207 1057v172q144 28 144 126q0 38 -25 63t-69 25q-60 0 -109 -42l-78 112q87 68 187 68q101 0 170.5 -63.5t69.5 -161.5q0 -70 -40.5 -125.5t-119.5 -77.5v-96h-130zM159 0v963h228v-963h-228z" />
<glyph unicode="&#x1eca;" horiz-adv-x="632" d="M198 0v1536h236v-1536h-236zM315 -393q-53 0 -92 38.5t-39 92.5t39 93t92 39t92.5 -39t39.5 -93t-39 -92.5t-93 -38.5z" />
<glyph unicode="&#x1ecb;" horiz-adv-x="544" d="M273 1134q-56 0 -96.5 40t-40.5 96q0 57 40 96t97 39q55 0 95.5 -39.5t40.5 -95.5t-40.5 -96t-95.5 -40zM159 0v963h226v-963h-226zM248 -504q-53 0 -92 38.5t-39 92.5t39 93t92 39t92.5 -39t39.5 -93t-39 -92.5t-93 -38.5z" />
<glyph unicode="&#x1ecc;" horiz-adv-x="1746" d="M873 -20q-161 0 -307 62.5t-251.5 167.5t-168 251t-62.5 307t62.5 307t168 251t251.5 167.5t307 62.5q214 0 395.5 -105.5t287 -287t105.5 -395.5t-105.5 -395.5t-287 -287t-395.5 -105.5zM873 211q115 0 218.5 43.5t177.5 117.5t117.5 177.5t43.5 218.5t-43.5 218.5 t-117.5 177.5t-177.5 117.5t-218.5 43.5q-153 0 -281 -73.5t-202 -201.5t-74 -282t74 -282t202 -201.5t281 -73.5zM873 -393q-53 0 -92 38.5t-39 92.5t39 93t92 39t92.5 -39t39.5 -93t-39 -92.5t-93 -38.5z" />
<glyph unicode="&#x1ecd;" horiz-adv-x="1148" d="M574 -18q-141 0 -258 66.5t-184 181t-67 251.5t67 252t184 181.5t258 66.5q213 0 360 -145.5t147 -354.5q0 -208 -147 -353.5t-360 -145.5zM573 190q120 0 203 84t83 207t-83 207.5t-203 84.5q-121 0 -203.5 -84t-82.5 -208t82.5 -207.5t203.5 -83.5zM574 -393 q-53 0 -92 38.5t-39 92.5t39 93t92 39t92.5 -39t39.5 -93t-39 -92.5t-93 -38.5z" />
<glyph unicode="&#x1ece;" horiz-adv-x="1746" d="M807 1630v172q144 28 144 126q0 38 -25 63t-69 25q-60 0 -109 -42l-78 112q87 68 187 68q101 0 170.5 -63.5t69.5 -161.5q0 -70 -40.5 -125.5t-119.5 -77.5v-96h-130zM873 -20q-161 0 -307 62.5t-251.5 167.5t-168 251t-62.5 307t62.5 307t168 251t251.5 167.5t307 62.5 q214 0 395.5 -105.5t287 -287t105.5 -395.5t-105.5 -395.5t-287 -287t-395.5 -105.5zM873 211q115 0 218.5 43.5t177.5 117.5t117.5 177.5t43.5 218.5t-43.5 218.5t-117.5 177.5t-177.5 117.5t-218.5 43.5q-153 0 -281 -73.5t-202 -201.5t-74 -282t74 -282t202 -201.5 t281 -73.5z" />
<glyph unicode="&#x1ecf;" horiz-adv-x="1148" d="M508 1056v172q144 28 144 126q0 38 -25 63t-69 25q-60 0 -109 -42l-78 112q87 68 187 68q101 0 170.5 -63.5t69.5 -161.5q0 -70 -40.5 -125.5t-119.5 -77.5v-96h-130zM574 -18q-141 0 -258 66.5t-184 181t-67 251.5t67 252t184 181.5t258 66.5q213 0 360 -145.5 t147 -354.5q0 -208 -147 -353.5t-360 -145.5zM573 190q120 0 203 84t83 207t-83 207.5t-203 84.5q-121 0 -203.5 -84t-82.5 -208t82.5 -207.5t203.5 -83.5z" />
<glyph unicode="&#x1ed0;" horiz-adv-x="1746" d="M843 2117l-85 94l306 329l117 -131zM663 1645l-102 64l220 298h181l222 -298l-103 -64l-208 224zM873 -20q-161 0 -307 62.5t-251.5 167.5t-168 251t-62.5 307t62.5 307t168 251t251.5 167.5t307 62.5q214 0 395.5 -105.5t287 -287t105.5 -395.5t-105.5 -395.5t-287 -287 t-395.5 -105.5zM873 211q115 0 218.5 43.5t177.5 117.5t117.5 177.5t43.5 218.5t-43.5 218.5t-117.5 177.5t-177.5 117.5t-218.5 43.5q-153 0 -281 -73.5t-202 -201.5t-74 -282t74 -282t202 -201.5t281 -73.5z" />
<glyph unicode="&#x1ed1;" horiz-adv-x="1148" d="M544 1543l-85 94l306 329l117 -131zM364 1071l-102 64l220 298h181l222 -298l-103 -64l-208 224zM574 -18q-141 0 -258 66.5t-184 181t-67 251.5t67 252t184 181.5t258 66.5q213 0 360 -145.5t147 -354.5q0 -208 -147 -353.5t-360 -145.5zM573 190q120 0 203 84t83 207 t-83 207.5t-203 84.5q-121 0 -203.5 -84t-82.5 -208t82.5 -207.5t203.5 -83.5z" />
<glyph unicode="&#x1ed2;" horiz-adv-x="1746" d="M879 2120l-340 289l119 131l302 -330zM663 1645l-102 64l220 298h181l222 -298l-103 -64l-208 224zM873 -20q-161 0 -307 62.5t-251.5 167.5t-168 251t-62.5 307t62.5 307t168 251t251.5 167.5t307 62.5q214 0 395.5 -105.5t287 -287t105.5 -395.5t-105.5 -395.5 t-287 -287t-395.5 -105.5zM873 211q115 0 218.5 43.5t177.5 117.5t117.5 177.5t43.5 218.5t-43.5 218.5t-117.5 177.5t-177.5 117.5t-218.5 43.5q-153 0 -281 -73.5t-202 -201.5t-74 -282t74 -282t202 -201.5t281 -73.5z" />
<glyph unicode="&#x1ed3;" horiz-adv-x="1148" d="M580 1546l-340 289l119 131l302 -330zM364 1071l-102 64l220 298h181l222 -298l-103 -64l-208 224zM574 -18q-141 0 -258 66.5t-184 181t-67 251.5t67 252t184 181.5t258 66.5q213 0 360 -145.5t147 -354.5q0 -208 -147 -353.5t-360 -145.5zM573 190q120 0 203 84t83 207 t-83 207.5t-203 84.5q-121 0 -203.5 -84t-82.5 -208t82.5 -207.5t203.5 -83.5z" />
<glyph unicode="&#x1ed4;" horiz-adv-x="1746" d="M806 2101v172q144 28 144 126q0 38 -25 63t-69 25q-60 0 -109 -42l-78 112q87 68 187 68q101 0 170.5 -63.5t69.5 -161.5q0 -70 -40.5 -125.5t-119.5 -77.5v-96h-130zM663 1645l-102 64l220 298h181l222 -298l-103 -64l-208 224zM873 -20q-161 0 -307 62.5t-251.5 167.5 t-168 251t-62.5 307t62.5 307t168 251t251.5 167.5t307 62.5q214 0 395.5 -105.5t287 -287t105.5 -395.5t-105.5 -395.5t-287 -287t-395.5 -105.5zM873 211q115 0 218.5 43.5t177.5 117.5t117.5 177.5t43.5 218.5t-43.5 218.5t-117.5 177.5t-177.5 117.5t-218.5 43.5 q-153 0 -281 -73.5t-202 -201.5t-74 -282t74 -282t202 -201.5t281 -73.5z" />
<glyph unicode="&#x1ed5;" horiz-adv-x="1148" d="M507 1527v172q144 28 144 126q0 38 -25 63t-69 25q-60 0 -109 -42l-78 112q87 68 187 68q101 0 170.5 -63.5t69.5 -161.5q0 -70 -40.5 -125.5t-119.5 -77.5v-96h-130zM364 1071l-102 64l220 298h181l222 -298l-103 -64l-208 224zM574 -18q-141 0 -258 66.5t-184 181 t-67 251.5t67 252t184 181.5t258 66.5q213 0 360 -145.5t147 -354.5q0 -208 -147 -353.5t-360 -145.5zM573 190q120 0 203 84t83 207t-83 207.5t-203 84.5q-121 0 -203.5 -84t-82.5 -208t82.5 -207.5t203.5 -83.5z" />
<glyph unicode="&#x1ed6;" horiz-adv-x="1746" d="M1006 2106q-119 0 -194 115q-33 49 -72 49q-43 0 -66 -43.5t-23 -110.5h-143q0 128 61 211t165 83q116 0 195 -115q33 -49 75 -49q86 0 86 154h142q0 -128 -59.5 -211t-166.5 -83zM663 1645l-102 64l220 298h181l222 -298l-103 -64l-208 224zM873 -20q-161 0 -307 62.5 t-251.5 167.5t-168 251t-62.5 307t62.5 307t168 251t251.5 167.5t307 62.5q214 0 395.5 -105.5t287 -287t105.5 -395.5t-105.5 -395.5t-287 -287t-395.5 -105.5zM873 211q115 0 218.5 43.5t177.5 117.5t117.5 177.5t43.5 218.5t-43.5 218.5t-117.5 177.5t-177.5 117.5 t-218.5 43.5q-153 0 -281 -73.5t-202 -201.5t-74 -282t74 -282t202 -201.5t281 -73.5z" />
<glyph unicode="&#x1ed7;" horiz-adv-x="1148" d="M707 1532q-119 0 -194 115q-33 49 -72 49q-43 0 -66 -43.5t-23 -110.5h-143q0 128 61 211t165 83q116 0 195 -115q33 -49 75 -49q86 0 86 154h142q0 -128 -59.5 -211t-166.5 -83zM364 1071l-102 64l220 298h181l222 -298l-103 -64l-208 224zM574 -18q-141 0 -258 66.5 t-184 181t-67 251.5t67 252t184 181.5t258 66.5q213 0 360 -145.5t147 -354.5q0 -208 -147 -353.5t-360 -145.5zM573 190q120 0 203 84t83 207t-83 207.5t-203 84.5q-121 0 -203.5 -84t-82.5 -208t82.5 -207.5t203.5 -83.5z" />
<glyph unicode="&#x1ed8;" horiz-adv-x="1746" d="M663 1645l-102 64l220 298h181l222 -298l-103 -64l-208 224zM873 -20q-161 0 -307 62.5t-251.5 167.5t-168 251t-62.5 307t62.5 307t168 251t251.5 167.5t307 62.5q214 0 395.5 -105.5t287 -287t105.5 -395.5t-105.5 -395.5t-287 -287t-395.5 -105.5zM873 211 q115 0 218.5 43.5t177.5 117.5t117.5 177.5t43.5 218.5t-43.5 218.5t-117.5 177.5t-177.5 117.5t-218.5 43.5q-153 0 -281 -73.5t-202 -201.5t-74 -282t74 -282t202 -201.5t281 -73.5zM873 -393q-53 0 -92 38.5t-39 92.5t39 93t92 39t92.5 -39t39.5 -93t-39 -92.5t-93 -38.5 z" />
<glyph unicode="&#x1ed9;" horiz-adv-x="1148" d="M364 1071l-102 64l220 298h181l222 -298l-103 -64l-208 224zM574 -18q-141 0 -258 66.5t-184 181t-67 251.5t67 252t184 181.5t258 66.5q213 0 360 -145.5t147 -354.5q0 -208 -147 -353.5t-360 -145.5zM573 190q120 0 203 84t83 207t-83 207.5t-203 84.5 q-121 0 -203.5 -84t-82.5 -208t82.5 -207.5t203.5 -83.5zM574 -393q-53 0 -92 38.5t-39 92.5t39 93t92 39t92.5 -39t39.5 -93t-39 -92.5t-93 -38.5z" />
<glyph unicode="&#x1eda;" horiz-adv-x="1746" d="M1182 1938l-338 -292l-85 94l306 329zM1602 1511h154v-124q0 -123 -53.5 -184.5t-132.5 -65.5q91 -173 91 -369q0 -214 -105.5 -395.5t-287 -287t-395.5 -105.5q-161 0 -307 62.5t-251.5 167.5t-168 251t-62.5 307t62.5 307t168 251t251.5 167.5t307 62.5q197 0 367 -90 t278 -245q49 4 71.5 41.5t18.5 91.5zM873 211q115 0 218.5 43.5t177.5 117.5t117.5 177.5t43.5 218.5t-43.5 218.5t-117.5 177.5t-177.5 117.5t-218.5 43.5q-153 0 -281 -73.5t-202 -201.5t-74 -282t74 -282t202 -201.5t281 -73.5z" />
<glyph unicode="&#x1edb;" horiz-adv-x="1148" d="M883 1364l-338 -292l-85 94l306 329zM1103 1026h154v-124q0 -128 -57 -189t-140 -61h-9q30 -80 30 -171q0 -208 -147 -353.5t-360 -145.5q-141 0 -258 66.5t-184 181t-67 251.5t67 252t184 181.5t258 66.5q139 0 255.5 -66.5t182.5 -178.5q53 0 77 38.5t20 94.5zM573 190 q120 0 203 84t83 207t-83 207.5t-203 84.5q-121 0 -203.5 -84t-82.5 -208t82.5 -207.5t203.5 -83.5z" />
<glyph unicode="&#x1edc;" horiz-adv-x="1746" d="M961 1739l-81 -90l-340 289l119 131zM1602 1511h154v-124q0 -123 -53.5 -184.5t-132.5 -65.5q91 -173 91 -369q0 -214 -105.5 -395.5t-287 -287t-395.5 -105.5q-161 0 -307 62.5t-251.5 167.5t-168 251t-62.5 307t62.5 307t168 251t251.5 167.5t307 62.5q197 0 367 -90 t278 -245q49 4 71.5 41.5t18.5 91.5zM873 211q115 0 218.5 43.5t177.5 117.5t117.5 177.5t43.5 218.5t-43.5 218.5t-117.5 177.5t-177.5 117.5t-218.5 43.5q-153 0 -281 -73.5t-202 -201.5t-74 -282t74 -282t202 -201.5t281 -73.5z" />
<glyph unicode="&#x1edd;" horiz-adv-x="1148" d="M662 1165l-81 -90l-340 289l119 131zM1103 1026h154v-124q0 -128 -57 -189t-140 -61h-9q30 -80 30 -171q0 -208 -147 -353.5t-360 -145.5q-141 0 -258 66.5t-184 181t-67 251.5t67 252t184 181.5t258 66.5q139 0 255.5 -66.5t182.5 -178.5q53 0 77 38.5t20 94.5zM573 190 q120 0 203 84t83 207t-83 207.5t-203 84.5q-121 0 -203.5 -84t-82.5 -208t82.5 -207.5t203.5 -83.5z" />
<glyph unicode="&#x1ede;" horiz-adv-x="1746" d="M857 2016q-60 0 -109 -42l-78 112q87 68 187 68q101 0 170.5 -63.5t69.5 -161.5q0 -70 -40.5 -125.5t-119.5 -77.5v-96h-130v172q144 28 144 126q0 38 -25 63t-69 25zM1602 1511h154v-124q0 -123 -53.5 -184.5t-132.5 -65.5q91 -173 91 -369q0 -214 -105.5 -395.5 t-287 -287t-395.5 -105.5q-161 0 -307 62.5t-251.5 167.5t-168 251t-62.5 307t62.5 307t168 251t251.5 167.5t307 62.5q197 0 367 -90t278 -245q49 4 71.5 41.5t18.5 91.5zM873 211q115 0 218.5 43.5t177.5 117.5t117.5 177.5t43.5 218.5t-43.5 218.5t-117.5 177.5 t-177.5 117.5t-218.5 43.5q-153 0 -281 -73.5t-202 -201.5t-74 -282t74 -282t202 -201.5t281 -73.5z" />
<glyph unicode="&#x1edf;" horiz-adv-x="1148" d="M558 1442q-60 0 -109 -42l-78 112q87 68 187 68q101 0 170.5 -63.5t69.5 -161.5q0 -70 -40.5 -125.5t-119.5 -77.5v-96h-130v172q144 28 144 126q0 38 -25 63t-69 25zM1103 1026h154v-124q0 -128 -57 -189t-140 -61h-9q30 -80 30 -171q0 -208 -147 -353.5t-360 -145.5 q-141 0 -258 66.5t-184 181t-67 251.5t67 252t184 181.5t258 66.5q139 0 255.5 -66.5t182.5 -178.5q53 0 77 38.5t20 94.5zM573 190q120 0 203 84t83 207t-83 207.5t-203 84.5q-121 0 -203.5 -84t-82.5 -208t82.5 -207.5t203.5 -83.5z" />
<glyph unicode="&#x1ee0;" horiz-adv-x="1746" d="M741 1799q-43 0 -66 -43.5t-23 -110.5h-143q0 128 61 211t165 83q116 0 195 -115q33 -49 75 -49q86 0 86 154h142q0 -128 -59.5 -211t-166.5 -83q-119 0 -194 115q-33 49 -72 49zM1602 1511h154v-124q0 -123 -53.5 -184.5t-132.5 -65.5q91 -173 91 -369 q0 -214 -105.5 -395.5t-287 -287t-395.5 -105.5q-161 0 -307 62.5t-251.5 167.5t-168 251t-62.5 307t62.5 307t168 251t251.5 167.5t307 62.5q197 0 367 -90t278 -245q49 4 71.5 41.5t18.5 91.5zM873 211q115 0 218.5 43.5t177.5 117.5t117.5 177.5t43.5 218.5t-43.5 218.5 t-117.5 177.5t-177.5 117.5t-218.5 43.5q-153 0 -281 -73.5t-202 -201.5t-74 -282t74 -282t202 -201.5t281 -73.5z" />
<glyph unicode="&#x1ee1;" horiz-adv-x="1148" d="M442 1225q-43 0 -66 -43.5t-23 -110.5h-143q0 128 61 211t165 83q116 0 195 -115q33 -49 75 -49q86 0 86 154h142q0 -128 -59.5 -211t-166.5 -83q-119 0 -194 115q-33 49 -72 49zM1103 1026h154v-124q0 -128 -57 -189t-140 -61h-9q30 -80 30 -171q0 -208 -147 -353.5 t-360 -145.5q-141 0 -258 66.5t-184 181t-67 251.5t67 252t184 181.5t258 66.5q139 0 255.5 -66.5t182.5 -178.5q53 0 77 38.5t20 94.5zM573 190q120 0 203 84t83 207t-83 207.5t-203 84.5q-121 0 -203.5 -84t-82.5 -208t82.5 -207.5t203.5 -83.5z" />
<glyph unicode="&#x1ee2;" horiz-adv-x="1746" d="M1602 1511h154v-124q0 -123 -53.5 -184.5t-132.5 -65.5q91 -173 91 -369q0 -214 -105.5 -395.5t-287 -287t-395.5 -105.5q-161 0 -307 62.5t-251.5 167.5t-168 251t-62.5 307t62.5 307t168 251t251.5 167.5t307 62.5q197 0 367 -90t278 -245q49 4 71.5 41.5t18.5 91.5z M873 211q115 0 218.5 43.5t177.5 117.5t117.5 177.5t43.5 218.5t-43.5 218.5t-117.5 177.5t-177.5 117.5t-218.5 43.5q-153 0 -281 -73.5t-202 -201.5t-74 -282t74 -282t202 -201.5t281 -73.5zM873 -130q53 0 92.5 -39t39.5 -93t-39 -92.5t-93 -38.5q-53 0 -92 38.5 t-39 92.5t39 93t92 39z" />
<glyph unicode="&#x1ee3;" horiz-adv-x="1148" d="M1103 1026h154v-124q0 -128 -57 -189t-140 -61h-9q30 -80 30 -171q0 -208 -147 -353.5t-360 -145.5q-141 0 -258 66.5t-184 181t-67 251.5t67 252t184 181.5t258 66.5q139 0 255.5 -66.5t182.5 -178.5q53 0 77 38.5t20 94.5zM573 190q120 0 203 84t83 207t-83 207.5 t-203 84.5q-121 0 -203.5 -84t-82.5 -208t82.5 -207.5t203.5 -83.5zM574 -130q53 0 92.5 -39t39.5 -93t-39 -92.5t-93 -38.5q-53 0 -92 38.5t-39 92.5t39 93t92 39z" />
<glyph unicode="&#x1ee4;" horiz-adv-x="1536" d="M767 -20q-171 0 -308.5 67.5t-215.5 189.5t-78 275v1024h236v-983q0 -155 103.5 -253.5t262.5 -98.5t263 99t104 253v983h237v-1024q0 -232 -171.5 -382t-432.5 -150zM767 -393q-53 0 -92 38.5t-39 92.5t39 93t92 39t92.5 -39t39.5 -93t-39 -92.5t-93 -38.5z" />
<glyph unicode="&#x1ee5;" horiz-adv-x="1074" d="M536 -19q-188 0 -296 101.5t-108 274.5v606h228v-585q0 -90 49 -141.5t127 -51.5q80 0 129 51.5t49 141.5v585h228v-606q0 -173 -108.5 -274.5t-297.5 -101.5zM537 -393q-53 0 -92 38.5t-39 92.5t39 93t92 39t92.5 -39t39.5 -93t-39 -92.5t-93 -38.5z" />
<glyph unicode="&#x1ee6;" horiz-adv-x="1536" d="M701 1630v172q144 28 144 126q0 38 -25 63t-69 25q-60 0 -109 -42l-78 112q87 68 187 68q101 0 170.5 -63.5t69.5 -161.5q0 -70 -40.5 -125.5t-119.5 -77.5v-96h-130zM767 -20q-171 0 -308.5 67.5t-215.5 189.5t-78 275v1024h236v-983q0 -155 103.5 -253.5t262.5 -98.5 t263 99t104 253v983h237v-1024q0 -232 -171.5 -382t-432.5 -150z" />
<glyph unicode="&#x1ee7;" horiz-adv-x="1074" d="M471 1057v172q144 28 144 126q0 38 -25 63t-69 25q-60 0 -109 -42l-78 112q87 68 187 68q101 0 170.5 -63.5t69.5 -161.5q0 -70 -40.5 -125.5t-119.5 -77.5v-96h-130zM536 -19q-188 0 -296 101.5t-108 274.5v606h228v-585q0 -90 49 -141.5t127 -51.5q80 0 129 51.5 t49 141.5v585h228v-606q0 -173 -108.5 -274.5t-297.5 -101.5z" />
<glyph unicode="&#x1ee8;" horiz-adv-x="1705" d="M1076 1938l-338 -292l-85 94l306 329zM1465 1537h154v-124q0 -128 -57 -189t-140 -61q-21 0 -51 5v-656q0 -232 -171.5 -382t-432.5 -150q-171 0 -308.5 67.5t-215.5 189.5t-78 275v1024h236v-983q0 -155 103.5 -253.5t262.5 -98.5t263 99t104 253v983h237v-289h2 q54 0 78 38t20 95z" />
<glyph unicode="&#x1ee9;" horiz-adv-x="1074" d="M846 1365l-338 -292l-85 94l306 329zM1077 962h154v-124q0 -128 -57 -189t-140 -61q-41 0 -92 14v-245q0 -173 -108.5 -274.5t-297.5 -101.5q-188 0 -296 101.5t-108 274.5v606h228v-585q0 -90 49 -141.5t127 -51.5q80 0 129 51.5t49 141.5v585h228v-285q25 -6 43 -6 q54 0 78 38t20 95z" />
<glyph unicode="&#x1eea;" horiz-adv-x="1705" d="M855 1739l-81 -90l-340 289l119 131zM1465 1537h154v-124q0 -128 -57 -189t-140 -61q-21 0 -51 5v-656q0 -232 -171.5 -382t-432.5 -150q-171 0 -308.5 67.5t-215.5 189.5t-78 275v1024h236v-983q0 -155 103.5 -253.5t262.5 -98.5t263 99t104 253v983h237v-289h2 q54 0 78 38t20 95z" />
<glyph unicode="&#x1eeb;" horiz-adv-x="1074" d="M625 1166l-81 -90l-340 289l119 131zM1077 962h154v-124q0 -128 -57 -189t-140 -61q-41 0 -92 14v-245q0 -173 -108.5 -274.5t-297.5 -101.5q-188 0 -296 101.5t-108 274.5v606h228v-585q0 -90 49 -141.5t127 -51.5q80 0 129 51.5t49 141.5v585h228v-285q25 -6 43 -6 q54 0 78 38t20 95z" />
<glyph unicode="&#x1eec;" horiz-adv-x="1705" d="M751 2016q-60 0 -109 -42l-78 112q87 68 187 68q101 0 170.5 -63.5t69.5 -161.5q0 -70 -40.5 -125.5t-119.5 -77.5v-96h-130v172q144 28 144 126q0 38 -25 63t-69 25zM1465 1537h154v-124q0 -128 -57 -189t-140 -61q-21 0 -51 5v-656q0 -232 -171.5 -382t-432.5 -150 q-171 0 -308.5 67.5t-215.5 189.5t-78 275v1024h236v-983q0 -155 103.5 -253.5t262.5 -98.5t263 99t104 253v983h237v-289h2q54 0 78 38t20 95z" />
<glyph unicode="&#x1eed;" horiz-adv-x="1074" d="M521 1443q-60 0 -109 -42l-78 112q87 68 187 68q101 0 170.5 -63.5t69.5 -161.5q0 -70 -40.5 -125.5t-119.5 -77.5v-96h-130v172q144 28 144 126q0 38 -25 63t-69 25zM1077 962h154v-124q0 -128 -57 -189t-140 -61q-41 0 -92 14v-245q0 -173 -108.5 -274.5t-297.5 -101.5 q-188 0 -296 101.5t-108 274.5v606h228v-585q0 -90 49 -141.5t127 -51.5q80 0 129 51.5t49 141.5v585h228v-285q25 -6 43 -6q54 0 78 38t20 95z" />
<glyph unicode="&#x1eee;" horiz-adv-x="1705" d="M635 1799q-43 0 -66 -43.5t-23 -110.5h-143q0 128 61 211t165 83q116 0 195 -115q33 -49 75 -49q86 0 86 154h142q0 -128 -59.5 -211t-166.5 -83q-119 0 -194 115q-33 49 -72 49zM1465 1537h154v-124q0 -128 -57 -189t-140 -61q-21 0 -51 5v-656q0 -232 -171.5 -382 t-432.5 -150q-171 0 -308.5 67.5t-215.5 189.5t-78 275v1024h236v-983q0 -155 103.5 -253.5t262.5 -98.5t263 99t104 253v983h237v-289h2q54 0 78 38t20 95z" />
<glyph unicode="&#x1eef;" horiz-adv-x="1074" d="M405 1226q-43 0 -66 -43.5t-23 -110.5h-143q0 128 61 211t165 83q116 0 195 -115q33 -49 75 -49q86 0 86 154h142q0 -128 -59.5 -211t-166.5 -83q-119 0 -194 115q-33 49 -72 49zM1077 962h154v-124q0 -128 -57 -189t-140 -61q-41 0 -92 14v-245q0 -173 -108.5 -274.5 t-297.5 -101.5q-188 0 -296 101.5t-108 274.5v606h228v-585q0 -90 49 -141.5t127 -51.5q80 0 129 51.5t49 141.5v585h228v-285q25 -6 43 -6q54 0 78 38t20 95z" />
<glyph unicode="&#x1ef0;" horiz-adv-x="1705" d="M1465 1537h154v-124q0 -128 -57 -189t-140 -61q-21 0 -51 5v-656q0 -232 -171.5 -382t-432.5 -150q-171 0 -308.5 67.5t-215.5 189.5t-78 275v1024h236v-983q0 -155 103.5 -253.5t262.5 -98.5t263 99t104 253v983h237v-289h2q54 0 78 38t20 95zM767 -130q53 0 92.5 -39 t39.5 -93t-39 -92.5t-93 -38.5q-53 0 -92 38.5t-39 92.5t39 93t92 39z" />
<glyph unicode="&#x1ef1;" horiz-adv-x="1074" d="M1077 962h154v-124q0 -128 -57 -189t-140 -61q-41 0 -92 14v-245q0 -173 -108.5 -274.5t-297.5 -101.5q-188 0 -296 101.5t-108 274.5v606h228v-585q0 -90 49 -141.5t127 -51.5q80 0 129 51.5t49 141.5v585h228v-285q25 -6 43 -6q54 0 78 38t20 95zM537 -130 q53 0 92.5 -39t39.5 -93t-39 -92.5t-93 -38.5q-53 0 -92 38.5t-39 92.5t39 93t92 39z" />
<glyph unicode="&#x1ef2;" horiz-adv-x="1335" d="M757 1739l-81 -90l-340 289l119 131zM1322 1536l-535 -809v-727h-236v722l-538 814h279l377 -589l378 589h275z" />
<glyph unicode="&#x1ef3;" horiz-adv-x="1035" d="M591 1166l-81 -90l-340 289l119 131zM779 963h245l-583 -1455h-236l195 496l-391 959h251l264 -720z" />
<glyph unicode="&#x1ef4;" horiz-adv-x="1335" d="M551 0v722l-538 814h279l377 -589l378 589h275l-535 -809v-727h-236zM669 -130q53 0 92.5 -39t39.5 -93t-39 -92.5t-93 -38.5q-53 0 -92 38.5t-39 92.5t39 93t92 39z" />
<glyph unicode="&#x1ef5;" horiz-adv-x="1035" d="M779 963h245l-583 -1455h-236l195 496l-391 959h251l264 -720zM812 -227q53 0 92.5 -39t39.5 -93t-39 -92.5t-93 -38.5q-53 0 -92 38.5t-39 92.5t39 93t92 39z" />
<glyph unicode="&#x1ef6;" horiz-adv-x="1335" d="M653 2016q-60 0 -109 -42l-78 112q87 68 187 68q101 0 170.5 -63.5t69.5 -161.5q0 -70 -40.5 -125.5t-119.5 -77.5v-96h-130v172q144 28 144 126q0 38 -25 63t-69 25zM1322 1536l-535 -809v-727h-236v722l-538 814h279l377 -589l378 589h275z" />
<glyph unicode="&#x1ef7;" horiz-adv-x="1035" d="M487 1443q-60 0 -109 -42l-78 112q87 68 187 68q101 0 170.5 -63.5t69.5 -161.5q0 -70 -40.5 -125.5t-119.5 -77.5v-96h-130v172q144 28 144 126q0 38 -25 63t-69 25zM779 963h245l-583 -1455h-236l195 496l-391 959h251l264 -720z" />
<glyph unicode="&#x1ef8;" horiz-adv-x="1335" d="M537 1799q-43 0 -66 -43.5t-23 -110.5h-143q0 128 61 211t165 83q116 0 195 -115q33 -49 75 -49q86 0 86 154h142q0 -128 -59.5 -211t-166.5 -83q-119 0 -194 115q-33 49 -72 49zM1322 1536l-535 -809v-727h-236v722l-538 814h279l377 -589l378 589h275z" />
<glyph unicode="&#x1ef9;" horiz-adv-x="1035" d="M371 1226q-43 0 -66 -43.5t-23 -110.5h-143q0 128 61 211t165 83q116 0 195 -115q33 -49 75 -49q86 0 86 154h142q0 -128 -59.5 -211t-166.5 -83q-119 0 -194 115q-33 49 -72 49zM779 963h245l-583 -1455h-236l195 496l-391 959h251l264 -720z" />
<glyph unicode="&#x2000;" horiz-adv-x="1312" />
<glyph unicode="&#x2001;" horiz-adv-x="2625" />
<glyph unicode="&#x2002;" horiz-adv-x="1312" />
<glyph unicode="&#x2003;" horiz-adv-x="2625" />
<glyph unicode="&#x2004;" horiz-adv-x="875" />
<glyph unicode="&#x2005;" horiz-adv-x="656" />
<glyph unicode="&#x2006;" horiz-adv-x="437" />
<glyph unicode="&#x2007;" horiz-adv-x="437" />
<glyph unicode="&#x2008;" horiz-adv-x="328" />
<glyph unicode="&#x2009;" horiz-adv-x="525" />
<glyph unicode="&#x200a;" horiz-adv-x="145" />
<glyph unicode="&#x2010;" horiz-adv-x="1019" d="M151 395v172h717v-172h-717z" />
<glyph unicode="&#x2011;" horiz-adv-x="1019" d="M151 395v172h717v-172h-717z" />
<glyph unicode="&#x2012;" horiz-adv-x="1019" d="M151 395v172h717v-172h-717z" />
<glyph unicode="&#x2013;" horiz-adv-x="1326" d="M151 395v172h1024v-172h-1024z" />
<glyph unicode="&#x2014;" horiz-adv-x="2048" d="M0 395v172h2048v-172h-2048z" />
<glyph unicode="&#x2018;" horiz-adv-x="564" d="M320 1165q34 -18 54.5 -51t20.5 -72q0 -56 -42 -98t-98 -42t-97.5 42t-41.5 98q0 31 14 61l165 434h140z" />
<glyph unicode="&#x2019;" horiz-adv-x="566" d="M448 1417q0 -31 -14 -61l-165 -434h-140l115 372q-34 18 -54.5 51t-20.5 72q0 56 42 98t98 42t97.5 -42t41.5 -98z" />
<glyph unicode="&#x201a;" horiz-adv-x="566" d="M449 119q0 -31 -14 -61l-165 -434h-140l115 372q-34 18 -54.5 51t-20.5 72q0 56 42 98t98 42t97.5 -42t41.5 -98z" />
<glyph unicode="&#x201c;" horiz-adv-x="974" d="M295 1537h140l-115 -372q34 -18 54.5 -51t20.5 -72q0 -56 -42 -98t-98 -42t-97.5 42t-41.5 98q0 31 14 61zM730 1165q34 -18 54.5 -51t20.5 -72q0 -56 -42 -98t-98 -42t-97.5 42t-41.5 98q0 31 14 61l165 434h140z" />
<glyph unicode="&#x201d;" horiz-adv-x="983" d="M866 1416q0 -31 -14 -61l-165 -434h-140l115 372q-34 18 -54.5 51t-20.5 72q0 56 42 98t98 42t97.5 -42t41.5 -98zM309 1555q56 0 97.5 -42t41.5 -98q0 -31 -14 -61l-165 -434h-140l115 372q-34 18 -54.5 51t-20.5 72q0 56 42 98t98 42z" />
<glyph unicode="&#x201e;" horiz-adv-x="961" d="M310 259q56 0 97.5 -42t41.5 -98q0 -31 -14 -61l-165 -434h-140l115 372q-34 18 -54.5 51t-20.5 72q0 56 42 98t98 42zM844 119q0 -31 -14 -61l-165 -434h-140l115 372q-34 18 -54.5 51t-20.5 72q0 56 42 98t98 42t97.5 -42t41.5 -98z" />
<glyph unicode="&#x2020;" horiz-adv-x="973" d="M907 990v-149h-350v-1189h-149v1189h-342v149h342v382h149v-382h350z" />
<glyph unicode="&#x2021;" horiz-adv-x="1056" d="M948 1005h-350v-646h350v-147h-350v-396h-149v396h-342v147h342v646h-342v148h342v383h149v-383h350v-148z" />
<glyph unicode="&#x2022;" horiz-adv-x="880" d="M440 383q-117 0 -202 83t-85 202q0 116 85.5 201.5t201.5 85.5q114 0 199.5 -86t85.5 -201q0 -119 -84.5 -202t-200.5 -83z" />
<glyph unicode="&#x2026;" horiz-adv-x="1863" d="M318 -20q-57 0 -98 41t-41 98q0 56 41.5 98t97.5 42q57 0 98.5 -42t41.5 -98q0 -57 -41.5 -98t-98.5 -41zM926 -20q-57 0 -98 41t-41 98q0 56 41.5 98t97.5 42q57 0 98.5 -42t41.5 -98q0 -57 -41.5 -98t-98.5 -41zM1544 -20q-57 0 -98 41t-41 98q0 56 41.5 98t97.5 42 q57 0 98.5 -42t41.5 -98q0 -57 -41.5 -98t-98.5 -41z" />
<glyph unicode="&#x202f;" horiz-adv-x="525" />
<glyph unicode="&#x2030;" horiz-adv-x="2402" d="M429 885q-139 0 -237.5 99t-98.5 239q0 138 98.5 235.5t237.5 97.5t236.5 -97.5t97.5 -235.5q0 -140 -97.5 -239t-236.5 -99zM277 0l888 1536h225l-886 -1536h-227zM429 1064q66 0 111.5 46.5t45.5 112.5q0 64 -46.5 110t-110.5 46q-65 0 -112 -46t-47 -110 q0 -66 47 -112.5t112 -46.5zM1245 -16q-139 0 -237 98t-98 238q0 138 98.5 235.5t236.5 97.5q139 0 237 -97.5t98 -235.5q0 -139 -98 -237.5t-237 -98.5zM1982 -16q-139 0 -237 98t-98 238q0 138 98.5 235.5t236.5 97.5t236 -97.5t98 -235.5q0 -139 -98 -237.5t-236 -98.5z M1245 161q66 0 112 46.5t46 112.5q0 64 -46.5 110t-111.5 46t-111.5 -46t-46.5 -110q0 -66 46.5 -112.5t111.5 -46.5zM1982 161q66 0 112 46.5t46 112.5q0 64 -46.5 110t-111.5 46q-66 0 -112 -45.5t-46 -110.5q0 -66 46 -112.5t112 -46.5z" />
<glyph unicode="&#x2039;" horiz-adv-x="610" d="M359 104l-311 377l311 377h187l-312 -377l312 -377h-187z" />
<glyph unicode="&#x203a;" horiz-adv-x="610" d="M65 104l311 377l-311 377h186l311 -377l-311 -377h-186z" />
<glyph unicode="&#x2044;" horiz-adv-x="523" d="M-369 0l1071 1536h190l-1071 -1536h-190z" />
<glyph unicode="&#x205f;" horiz-adv-x="656" />
<glyph unicode="&#x20ac;" horiz-adv-x="1689" d="M940 208q116 0 223 47t182 131l174 -151q-106 -117 -262 -186t-317 -69q-256 0 -460 146.5t-285 381.5h-66v169h28q-5 50 -5 91q0 47 4 84h-27v169h64q80 237 284 386t463 149q161 0 317 -69t262 -186l-174 -151q-75 84 -182 131t-223 47q-164 0 -297.5 -83.5 t-201.5 -223.5h703v-169h-755q-6 -40 -6 -84q0 -49 7 -91h754v-169h-700q70 -137 202 -218.5t294 -81.5z" />
<glyph unicode="&#x2113;" horiz-adv-x="1235" d="M687 -11q-190 0 -293.5 98.5t-123.5 251.5v21q-25 -15 -75 -50.5t-60 -42.5l-64 120q14 10 87 61.5t108 80.5v530q0 138 33 241.5t90.5 162.5t126.5 87.5t150 28.5q108 0 183 -50.5t108 -128.5t33 -176q0 -181 -129.5 -360.5t-377.5 -381.5l1 -59q1 -124 74.5 -192 t178.5 -68q104 0 193 61t143 148l101 -94q-171 -289 -487 -289zM481 679q165 151 258 285.5t93 257.5q0 204 -162 204q-34 0 -65.5 -17t-60 -54t-46 -106t-17.5 -162v-408z" />
<glyph unicode="&#x2116;" horiz-adv-x="2823" d="M1186 499v1037h236v-1536h-94l-897 1041v-1041h-236v1536h92zM2185 366q-141 0 -258 66.5t-184 181t-67 251.5t67 252t184 181.5t258 66.5q213 0 360 -145.5t147 -354.5q0 -208 -147 -353.5t-360 -145.5zM2184 1157q-121 0 -203.5 -84t-82.5 -208t82.5 -207.5 t203.5 -83.5q120 0 203 84t83 207t-83 207.5t-203 84.5zM1737 0v158h923v-158h-923z" />
<glyph unicode="&#x2122;" horiz-adv-x="1595" d="M120 1426v110h456v-110h-169v-608h-120v608h-167zM1229 1536h129v-718h-119v518l-226 -375l-226 370v-513h-122v718h130l217 -363z" />
<glyph unicode="&#x212e;" horiz-adv-x="1953" d="M993 -18q-178 0 -340 62t-279.5 167.5t-186.5 250.5t-69 304q0 215 117 397t318.5 287.5t439.5 105.5q179 0 341 -62.5t279.5 -168t186.5 -252t69 -307.5v-21h-1417q-12 0 -12 -8v-430q0 -24 18 -49q106 -109 245 -171t292 -62q167 0 313.5 69.5t251.5 192.5h125 q-119 -141 -301.5 -223t-390.5 -82zM452 788h1087q9 0 9 15v430q0 34 -21 51q-107 105 -243.5 165t-288.5 60q-151 0 -289 -61.5t-246 -169.5q-20 -23 -20 -53v-422q0 -15 12 -15z" />
<glyph unicode="&#x2190;" horiz-adv-x="1753" d="M1613 850v-248h-1038v-260l-498 385l498 385v-262h1038z" />
<glyph unicode="&#x2191;" horiz-adv-x="887" d="M321 0v1038h-262l385 498l385 -498h-260v-1038h-248z" />
<glyph unicode="&#x2192;" horiz-adv-x="1759" d="M140 850h1038v262l498 -385l-498 -385v260h-1038v248z" />
<glyph unicode="&#x2193;" horiz-adv-x="887" d="M321 1536h248v-1038h260l-385 -498l-385 498h262v1038z" />
<glyph unicode="&#x2194;" horiz-adv-x="2178" d="M574 295l-498 387l498 385v-260l1024 -2v260l497 -385l-497 -385v262l-1024 2v-264z" />
<glyph unicode="&#x2195;" horiz-adv-x="945" d="M472 -145l-385 497h262v672h-262l385 498l385 -498h-260v-672h260z" />
<glyph unicode="&#x2196;" horiz-adv-x="1363" d="M1299 314l-175 -175l-734 734l-184 -184l-80 624l625 -80l-186 -185z" />
<glyph unicode="&#x2197;" horiz-adv-x="1363" d="M64 314l734 734l-186 185l625 80l-80 -624l-184 184l-734 -734z" />
<glyph unicode="&#x2198;" horiz-adv-x="1363" d="M64 1222l175 175l734 -734l184 184l80 -624l-625 80l186 185z" />
<glyph unicode="&#x2199;" horiz-adv-x="1363" d="M1299 1222l-734 -734l186 -185l-625 -80l80 624l184 -184l734 734z" />
<glyph unicode="&#x2202;" horiz-adv-x="1185" d="M348 1451q143 28 273.5 -20.5t223.5 -153.5t147.5 -263.5t52.5 -341.5q-2 -190 -71 -342.5t-188.5 -237.5t-267.5 -85q-98 0 -177.5 30t-131.5 86t-78.5 131.5t-20.5 170.5t44 199q43 114 113 198.5t154.5 128t181 52t191.5 -28.5q-52 171 -168 252.5t-278 49.5v175z M831 672q2 61 -3 117q-147 91 -277.5 31t-197.5 -250q-41 -123 -28.5 -213t66.5 -141t134 -51q118 0 208.5 140.5t97.5 366.5z" />
<glyph unicode="&#x2205;" horiz-adv-x="1518" d="M1223 994q148 -172 148 -398q0 -166 -82 -307t-223 -223t-307 -82q-226 0 -398 148l-89 -89l-66 66l89 89q-148 172 -148 398q0 166 82 307t223 223t307 82q226 0 398 -148l89 89l66 -66zM334 596q0 -151 93 -266l598 598q-115 93 -266 93q-177 0 -301 -124t-124 -301z M759 171q177 0 301 124t124 301q0 151 -93 266l-598 -598q115 -93 266 -93z" />
<glyph unicode="&#x220f;" horiz-adv-x="1639" d="M265 0v1237h-136v203h1381v-203h-136v-1237h-202v1237h-703v-1237h-204z" />
<glyph unicode="&#x2211;" horiz-adv-x="1393" d="M95 -241v153l717 686l-717 686v156h1194v-196h-865l659 -646l-659 -646h865v-193h-1194z" />
<glyph unicode="&#x2212;" horiz-adv-x="1260" d="M232 590v193h795v-193h-795z" />
<glyph unicode="&#x221a;" horiz-adv-x="1442" d="M439 -160l-227 699h-143v167h262l196 -601l700 1465l154 -64l-797 -1666h-145z" />
<glyph unicode="&#x221e;" horiz-adv-x="1701" d="M474 273q-131 0 -217.5 91t-91.5 232q5 141 91.5 232t217.5 91q180 0 375 -200q92 96 189 148t185 52q137 0 220 -87t88 -236q-5 -149 -88 -236t-220 -87q-88 0 -185 51.5t-189 147.5q-196 -199 -375 -199zM474 440q116 0 264 156q-148 156 -264 156q-58 0 -100 -44.5 t-43 -111.5q1 -67 43 -111.5t100 -44.5zM1223 440q61 0 101 43t42 113q-2 70 -42 113t-101 43q-116 0 -264 -156q148 -156 264 -156z" />
<glyph unicode="&#x222b;" horiz-adv-x="919" d="M63 -457v223q155 0 216.5 59t61.5 203v1101q0 139 89 229t220 90q133 0 217 -76l-99 -176q-43 42 -98 42q-48 0 -78 -35t-30 -108v-1080q0 -222 -136 -347t-363 -125z" />
<glyph unicode="&#x2248;" horiz-adv-x="1398" d="M911 664q-44 0 -85.5 12.5t-67.5 25.5t-59 42t-42 38.5t-35 38.5q-61 64 -116 64q-67 0 -105 -56.5t-39 -146.5h-180q0 174 88 279.5t239 105.5q79 0 138.5 -35.5t124.5 -113.5q22 -26 33.5 -38.5t37.5 -26.5t54 -14q61 0 99 54.5t39 147.5h179q0 -165 -81.5 -271 t-221.5 -106zM911 208q-51 0 -96.5 14t-81 40t-56.5 45.5t-47 47.5q-5 6 -8 9q-33 35 -57 50t-59 15q-68 -2 -105.5 -58t-38.5 -145h-180q0 175 88 280.5t239 105.5q78 0 138.5 -35.5t124.5 -113.5q19 -24 32 -37.5t39 -27.5t54 -14q61 0 99 54t39 148h179 q0 -165 -81.5 -271.5t-221.5 -106.5z" />
<glyph unicode="&#x2264;" horiz-adv-x="1408" d="M1255 1474v-213l-917 -406l917 -409v-217l-1130 509v232zM125 0v150h1130v-150h-1130z" />
<glyph unicode="&#x2265;" horiz-adv-x="1408" d="M153 1474l1131 -504v-232l-1131 -509v217l917 409l-917 406v213zM153 0v150h1131v-150h-1131z" />
<glyph unicode="&#x25ca;" horiz-adv-x="1359" d="M681 106l-619 617l619 618l616 -616zM682 360l362 365l-362 363l-365 -365z" />
<glyph unicode="&#x25fc;" horiz-adv-x="965" d="M0 965h965v-965h-965v965z" />
<glyph unicode="&#xf8ff;" horiz-adv-x="1800" d="M900 0q-158 0 -302 62t-248 166t-166 248t-62 302t62 302.5t166 248.5t248 165.5t302 61.5t302.5 -61.5t248.5 -165.5t165.5 -248.5t61.5 -302.5t-61.5 -302t-165.5 -248t-248.5 -166t-302.5 -62zM900 74q143 0 273.5 56t225 150.5t150 224.5t55.5 273t-55.5 273.5 t-150 225t-225 150.5t-273.5 56q-190 0 -352.5 -94.5t-257.5 -257t-95 -353.5q0 -190 95 -352.5t257.5 -257t352.5 -94.5zM1307 444q-14 0 -24 13l-297 295q-10 12 -10 27t10 26l297 297q11 10 26 10t25 -10q10 -11 10 -26.5t-10 -26.5l-270 -271l270 -270q22 -22 0 -51 q-10 -13 -27 -13zM492 444q-15 0 -26 11t-11 26v594q0 16 11 26.5t26 10.5q16 0 26.5 -10.5t10.5 -26.5v-594q0 -15 -10.5 -26t-26.5 -11zM900 444q-16 0 -26.5 11t-10.5 26v594q0 16 10.5 26.5t26.5 10.5q15 0 26 -10.5t11 -26.5v-594q0 -15 -11 -26t-26 -11zM603 741 q-16 0 -26.5 11t-10.5 26q0 16 10.5 26.5t26.5 10.5h186q16 0 26.5 -10.5t10.5 -26.5q0 -15 -10.5 -26t-26.5 -11h-186z" />
<glyph unicode="&#xfb00;" horiz-adv-x="1302" d="M1284 963v-194h-245v-769h-228v769h-370v-769h-228v769h-160v5h-2v189h162v269q0 151 87 239.5t233 88.5q109 0 147 -30v-212q-49 37 -111 37q-58 0 -93 -41t-35 -109v-242h370v269q0 151 87 239.5t233 88.5q109 0 147 -30v-212q-49 37 -111 37q-58 0 -93 -41t-35 -109 v-242h245z" />
<glyph unicode="&#xfb03;" horiz-adv-x="1804" d="M213 0v774h-167v189h167v269q0 151 87 239.5t233 88.5q109 0 147 -30v-212q-49 37 -111 37q-58 0 -93 -41t-35 -109v-242h370v269q0 151 87 239.5t233 88.5q109 0 147 -30v-212q-49 37 -111 37q-58 0 -93 -41t-35 -109v-242h606v-963h-226v774h-380v-774h-228v774h-370 v-774h-228zM1533 1134q-56 0 -96.5 40t-40.5 96q0 57 40 96t97 39q55 0 95.5 -39.5t40.5 -95.5t-40.5 -96t-95.5 -40z" />
<glyph unicode="&#xfb04;" horiz-adv-x="1811" d="M1039 963h245v-194h-245v-769h-228v769h-370v-769h-228v769h-160v5h-2v189h162v269q0 151 87 239.5t233 88.5q109 0 147 -30v-212q-49 37 -111 37q-58 0 -93 -41t-35 -109v-242h370v269q0 151 87 239.5t233 88.5q109 0 147 -30v-212q-49 37 -111 37q-58 0 -93 -41 t-35 -109v-242zM1424 1536h228v-1536h-228v1536z" />
<glyph horiz-adv-x="1012" d="M434 1536v-1315h545v-221h-781v1536h236zM995 1536l-176 -573h-140l82 573h234z" />
<glyph horiz-adv-x="1012" d="M434 1536v-1315h545v-221h-781v1536h236zM995 1536l-176 -573h-140l82 573h234z" />
<glyph horiz-adv-x="546" d="M272 1123q-52 0 -90.5 38t-38.5 90q0 54 38.5 92t90.5 38q54 0 92 -38t38 -92q0 -52 -38.5 -90t-91.5 -38zM159 0v963h228v-963h-228z" />
<glyph horiz-adv-x="1037" d="M497 983q189 0 299 -102.5t110 -285.5v-595h-204l-7 108q-118 -126 -294 -126q-145 0 -237 76.5t-92 211.5q0 139 113 222t372 107l131 13q-2 92 -56 142.5t-148 50.5q-133 0 -273 -110l-98 154q170 134 384 134zM449 153q151 0 239 138v160l-92 -10q-95 -9 -157.5 -25 t-93 -37.5t-42 -44t-11.5 -52.5q0 -65 42.5 -97t114.5 -32z" />
<glyph horiz-adv-x="1037" d="M810 1365l-338 -292l-85 94l306 329zM497 983q189 0 299 -102.5t110 -285.5v-595h-204l-7 108q-118 -126 -294 -126q-145 0 -237 76.5t-92 211.5q0 139 113 222t372 107l131 13q-2 92 -56 142.5t-148 50.5q-133 0 -273 -110l-98 154q170 134 384 134zM449 153 q151 0 239 138v160l-92 -10q-95 -9 -157.5 -25t-93 -37.5t-42 -44t-11.5 -52.5q0 -65 42.5 -97t114.5 -32z" />
<glyph horiz-adv-x="1037" d="M500 1131q-157 0 -254 88t-97 244h156q0 -83 51.5 -139.5t143.5 -56.5q93 0 145 56.5t52 139.5h156q0 -156 -97.5 -244t-255.5 -88zM497 983q189 0 299 -102.5t110 -285.5v-595h-204l-7 108q-118 -126 -294 -126q-145 0 -237 76.5t-92 211.5q0 139 113 222t372 107 l131 13q-2 92 -56 142.5t-148 50.5q-133 0 -273 -110l-98 154q170 134 384 134zM449 153q151 0 239 138v160l-92 -10q-95 -9 -157.5 -25t-93 -37.5t-42 -44t-11.5 -52.5q0 -65 42.5 -97t114.5 -32z" />
<glyph horiz-adv-x="1037" d="M810 1836l-338 -292l-85 94l306 329zM500 1131q-157 0 -254 88t-97 244h156q0 -83 51.5 -139.5t143.5 -56.5q93 0 145 56.5t52 139.5h156q0 -156 -97.5 -244t-255.5 -88zM497 983q189 0 299 -102.5t110 -285.5v-595h-204l-7 108q-118 -126 -294 -126q-145 0 -237 76.5 t-92 211.5q0 139 113 222t372 107l131 13q-2 92 -56 142.5t-148 50.5q-133 0 -273 -110l-98 154q170 134 384 134zM449 153q151 0 239 138v160l-92 -10q-95 -9 -157.5 -25t-93 -37.5t-42 -44t-11.5 -52.5q0 -65 42.5 -97t114.5 -32z" />
<glyph horiz-adv-x="1037" d="M500 1131q-157 0 -254 88t-97 244h156q0 -83 51.5 -139.5t143.5 -56.5q93 0 145 56.5t52 139.5h156q0 -156 -97.5 -244t-255.5 -88zM497 983q189 0 299 -102.5t110 -285.5v-595h-204l-7 108q-118 -126 -294 -126q-145 0 -237 76.5t-92 211.5q0 139 113 222t372 107 l131 13q-2 92 -56 142.5t-148 50.5q-133 0 -273 -110l-98 154q170 134 384 134zM449 153q151 0 239 138v160l-92 -10q-95 -9 -157.5 -25t-93 -37.5t-42 -44t-11.5 -52.5q0 -65 42.5 -97t114.5 -32zM501 -130q53 0 92.5 -39t39.5 -93t-39 -92.5t-93 -38.5q-53 0 -92 38.5 t-39 92.5t39 93t92 39z" />
<glyph horiz-adv-x="1037" d="M589 1637l-81 -90l-340 289l119 131zM500 1131q-157 0 -254 88t-97 244h156q0 -83 51.5 -139.5t143.5 -56.5q93 0 145 56.5t52 139.5h156q0 -156 -97.5 -244t-255.5 -88zM497 983q189 0 299 -102.5t110 -285.5v-595h-204l-7 108q-118 -126 -294 -126q-145 0 -237 76.5 t-92 211.5q0 139 113 222t372 107l131 13q-2 92 -56 142.5t-148 50.5q-133 0 -273 -110l-98 154q170 134 384 134zM449 153q151 0 239 138v160l-92 -10q-95 -9 -157.5 -25t-93 -37.5t-42 -44t-11.5 -52.5q0 -65 42.5 -97t114.5 -32z" />
<glyph horiz-adv-x="1037" d="M485 1914q-60 0 -109 -42l-78 112q87 68 187 68q101 0 170.5 -63.5t69.5 -161.5q0 -70 -40.5 -125.5t-119.5 -77.5v-96h-130v172q144 28 144 126q0 38 -25 63t-69 25zM500 1131q-157 0 -254 88t-97 244h156q0 -83 51.5 -139.5t143.5 -56.5q93 0 145 56.5t52 139.5h156 q0 -156 -97.5 -244t-255.5 -88zM497 983q189 0 299 -102.5t110 -285.5v-595h-204l-7 108q-118 -126 -294 -126q-145 0 -237 76.5t-92 211.5q0 139 113 222t372 107l131 13q-2 92 -56 142.5t-148 50.5q-133 0 -273 -110l-98 154q170 134 384 134zM449 153q151 0 239 138v160 l-92 -10q-95 -9 -157.5 -25t-93 -37.5t-42 -44t-11.5 -52.5q0 -65 42.5 -97t114.5 -32z" />
<glyph horiz-adv-x="1037" d="M369 1697q-43 0 -66 -43.5t-23 -110.5h-143q0 128 61 211t165 83q116 0 195 -115q33 -49 75 -49q86 0 86 154h142q0 -128 -59.5 -211t-166.5 -83q-119 0 -194 115q-33 49 -72 49zM500 1267q93 0 145 56.5t52 139.5h156q0 -156 -97.5 -244t-255.5 -88q-157 0 -254 88 t-97 244h156q0 -83 51.5 -139.5t143.5 -56.5zM497 983q189 0 299 -102.5t110 -285.5v-595h-204l-7 108q-118 -126 -294 -126q-145 0 -237 76.5t-92 211.5q0 139 113 222t372 107l131 13q-2 92 -56 142.5t-148 50.5q-133 0 -273 -110l-98 154q170 134 384 134zM449 153 q151 0 239 138v160l-92 -10q-95 -9 -157.5 -25t-93 -37.5t-42 -44t-11.5 -52.5q0 -65 42.5 -97t114.5 -32z" />
<glyph horiz-adv-x="1037" d="M590 1113h-182l-219 298l102 63l210 -224l208 224l103 -63zM497 983q189 0 299 -102.5t110 -285.5v-595h-204l-7 108q-118 -126 -294 -126q-145 0 -237 76.5t-92 211.5q0 139 113 222t372 107l131 13q-2 92 -56 142.5t-148 50.5q-133 0 -273 -110l-98 154 q170 134 384 134zM449 153q151 0 239 138v160l-92 -10q-95 -9 -157.5 -25t-93 -37.5t-42 -44t-11.5 -52.5q0 -65 42.5 -97t114.5 -32z" />
<glyph horiz-adv-x="1037" d="M501 1296l-210 -224l-102 64l220 298h181l222 -298l-103 -64zM497 983q189 0 299 -102.5t110 -285.5v-595h-204l-7 108q-118 -126 -294 -126q-145 0 -237 76.5t-92 211.5q0 139 113 222t372 107l131 13q-2 92 -56 142.5t-148 50.5q-133 0 -273 -110l-98 154 q170 134 384 134zM449 153q151 0 239 138v160l-92 -10q-95 -9 -157.5 -25t-93 -37.5t-42 -44t-11.5 -52.5q0 -65 42.5 -97t114.5 -32z" />
<glyph horiz-adv-x="1037" d="M303 1136q-53 0 -91.5 38t-38.5 91q0 54 38.5 91.5t91.5 37.5t91.5 -37.5t38.5 -91.5q0 -53 -38.5 -91t-91.5 -38zM701 1136q-53 0 -91.5 38t-38.5 91q0 54 38 91.5t92 37.5t91.5 -37.5t37.5 -91.5q0 -53 -38 -91t-91 -38zM497 983q189 0 299 -102.5t110 -285.5v-595 h-204l-7 108q-118 -126 -294 -126q-145 0 -237 76.5t-92 211.5q0 139 113 222t372 107l131 13q-2 92 -56 142.5t-148 50.5q-133 0 -273 -110l-98 154q170 134 384 134zM449 153q151 0 239 138v160l-92 -10q-95 -9 -157.5 -25t-93 -37.5t-42 -44t-11.5 -52.5q0 -65 42.5 -97 t114.5 -32z" />
<glyph horiz-adv-x="1037" d="M589 1166l-81 -90l-340 289l119 131zM497 983q189 0 299 -102.5t110 -285.5v-595h-204l-7 108q-118 -126 -294 -126q-145 0 -237 76.5t-92 211.5q0 139 113 222t372 107l131 13q-2 92 -56 142.5t-148 50.5q-133 0 -273 -110l-98 154q170 134 384 134zM449 153 q151 0 239 138v160l-92 -10q-95 -9 -157.5 -25t-93 -37.5t-42 -44t-11.5 -52.5q0 -65 42.5 -97t114.5 -32z" />
<glyph horiz-adv-x="1037" d="M818 1304v-143h-635v143h635zM497 983q189 0 299 -102.5t110 -285.5v-595h-204l-7 108q-118 -126 -294 -126q-145 0 -237 76.5t-92 211.5q0 139 113 222t372 107l131 13q-2 92 -56 142.5t-148 50.5q-133 0 -273 -110l-98 154q170 134 384 134zM449 153q151 0 239 138v160 l-92 -10q-95 -9 -157.5 -25t-93 -37.5t-42 -44t-11.5 -52.5q0 -65 42.5 -97t114.5 -32z" />
<glyph horiz-adv-x="1037" d="M930 -290l92 -127q-60 -60 -137 -89t-158 -24q-112 7 -176.5 68.5t-64.5 159.5q0 173 216 305l-7 105q-118 -126 -294 -126q-145 0 -237 76.5t-92 211.5q0 139 113 222t372 107l131 13q-2 92 -56 142.5t-148 50.5q-133 0 -273 -110l-98 154q170 134 384 134 q189 0 299 -102.5t110 -285.5v-595h-6q-119 -51 -191.5 -118.5t-72.5 -146.5q0 -53 31.5 -80t83.5 -27q99 0 179 82zM449 153q151 0 239 138v160l-92 -10q-95 -9 -157.5 -25t-93 -37.5t-42 -44t-11.5 -52.5q0 -65 42.5 -97t114.5 -32z" />
<glyph horiz-adv-x="1037" d="M516 1113q-95 0 -162.5 67.5t-67.5 160.5q0 94 67.5 161t162.5 67q93 0 159.5 -67t66.5 -161q0 -93 -66.5 -160.5t-159.5 -67.5zM516 1465q-50 0 -85 -37t-35 -87q0 -53 34.5 -87t85.5 -34q50 0 84.5 34t34.5 87q0 50 -35 87t-84 37zM497 983q189 0 299 -102.5 t110 -285.5v-595h-204l-7 108q-118 -126 -294 -126q-145 0 -237 76.5t-92 211.5q0 139 113 222t372 107l131 13q-2 92 -56 142.5t-148 50.5q-133 0 -273 -110l-98 154q170 134 384 134zM449 153q151 0 239 138v160l-92 -10q-95 -9 -157.5 -25t-93 -37.5t-42 -44t-11.5 -52.5 q0 -65 42.5 -97t114.5 -32z" />
<glyph horiz-adv-x="1037" d="M379 1226q-43 0 -66 -43.5t-23 -110.5h-143q0 128 61 211t165 83q116 0 195 -115q33 -49 75 -49q86 0 86 154h142q0 -128 -59.5 -211t-166.5 -83q-119 0 -194 115q-33 49 -72 49zM497 983q189 0 299 -102.5t110 -285.5v-595h-204l-7 108q-118 -126 -294 -126 q-145 0 -237 76.5t-92 211.5q0 139 113 222t372 107l131 13q-2 92 -56 142.5t-148 50.5q-133 0 -273 -110l-98 154q170 134 384 134zM449 153q151 0 239 138v160l-92 -10q-95 -9 -157.5 -25t-93 -37.5t-42 -44t-11.5 -52.5q0 -65 42.5 -97t114.5 -32z" />
<glyph horiz-adv-x="1257" d="M870 835v701h229v-1536h-216l-5 139q-124 -158 -338 -158q-125 0 -233 65t-173 181t-65 256q0 210 139.5 355t331.5 145q207 0 330 -148zM1281 1536h234l-176 -573h-140zM589 188q121 0 206 86t85 209q0 122 -85 208t-206 86q-122 0 -207 -86t-85 -208q0 -123 85 -209 t207 -86z" />
<glyph horiz-adv-x="1260" d="M837 1536l-97 -419h-234l190 419h141zM871 963h230v-945q0 -230 -149 -374t-374 -144q-137 0 -264.5 65t-202.5 182l147 136q57 -84 138.5 -131.5t173.5 -47.5q129 0 215 88t86 226v107q-115 -144 -317 -144q-204 0 -345.5 144.5t-141.5 357.5q0 140 65 255t176.5 180 t244.5 65q202 0 318 -144v124zM587 188q121 0 206 86.5t85 208.5t-85 208t-206 86q-123 0 -207.5 -85.5t-84.5 -208.5t84.5 -209t207.5 -86z" />
<glyph horiz-adv-x="546" d="M159 0v1536h228v-1536h-228zM631 963h-140l82 573h234z" />
<glyph horiz-adv-x="668" d="M612 1644h234l-176 -573h-140zM449 1309v-346h191v-189h-191v-774h-229v774h-193v189h193v346h229z" />
<glyph horiz-adv-x="1257" d="M870 835v701h229v-1536h-216l-5 139q-124 -158 -338 -158q-125 0 -233 65t-173 181t-65 256q0 210 139.5 355t331.5 145q207 0 330 -148zM1281 1536h234l-176 -573h-140zM589 188q121 0 206 86t85 209q0 122 -85 208t-206 86q-122 0 -207 -86t-85 -208q0 -123 85 -209 t207 -86z" />
<glyph horiz-adv-x="1260" d="M837 1536l-97 -419h-234l190 419h141zM871 963h230v-945q0 -230 -149 -374t-374 -144q-137 0 -264.5 65t-202.5 182l147 136q57 -84 138.5 -131.5t173.5 -47.5q129 0 215 88t86 226v107q-115 -144 -317 -144q-204 0 -345.5 144.5t-141.5 357.5q0 140 65 255t176.5 180 t244.5 65q202 0 318 -144v124zM587 188q121 0 206 86.5t85 208.5t-85 208t-206 86q-123 0 -207.5 -85.5t-84.5 -208.5t84.5 -209t207.5 -86z" />
<glyph horiz-adv-x="546" d="M159 0v1536h228v-1536h-228zM631 963h-140l82 573h234z" />
<glyph horiz-adv-x="668" d="M612 1644h234l-176 -573h-140zM449 1309v-346h191v-189h-191v-774h-229v774h-193v189h193v346h229z" />
<glyph horiz-adv-x="1278" d="M1249 963v-189h-191v-774h-229v774h-393v-774h-228v774h-162v189h162v269q0 151 87 239.5t233 88.5q110 0 147 -30v-212q-49 37 -111 37q-58 0 -93 -41t-35 -109v-242h393v346h229v-346h191z" />
<glyph horiz-adv-x="1264" d="M1235 963v-189h-191v-774h-229v774h-366v-774h-229v774h-193v189h193v346h229v-346h366v346h229v-346h191z" />
<glyph horiz-adv-x="1322" d="M661 -20q-164 0 -292 100t-198.5 279.5t-70.5 408.5q0 231 67 409t195 278.5t299 100.5q170 0 298 -100.5t195.5 -278.5t67.5 -409q0 -229 -71 -408.5t-199 -279.5t-291 -100zM663 184q150 0 238.5 159t88.5 425q0 268 -91.5 419t-235.5 151q-146 0 -238 -151t-92 -419 q0 -266 89 -425t241 -159z" />
<glyph horiz-adv-x="757" d="M334 0v1318h-309v218h541v-1536h-232z" />
<glyph horiz-adv-x="1180" d="M450 218h659v-218h-1059v93q202 204 340 355t221 253.5t127.5 182t58 130.5t13.5 109q0 111 -70.5 169.5t-172.5 58.5q-115 0 -180.5 -70.5t-65.5 -191.5l-243 1q0 212 139.5 341t356.5 128q206 -2 337 -118t132 -308q0 -107 -36.5 -210t-118.5 -218t-181 -223.5 t-257 -263.5z" />
<glyph horiz-adv-x="1217" d="M596 -20q-112 0 -210.5 30.5t-172.5 88t-116.5 145.5t-42.5 196l235 1q0 -120 86 -186.5t219 -66.5q141 0 224 72.5t83 196.5t-85 193t-222 69h-138v197h125q107 0 174 62t67 162q0 96 -63 153t-171 57q-104 0 -167.5 -54.5t-63.5 -150.5h-234q0 185 132 298t329 113 q198 0 330.5 -112.5t132.5 -286.5q0 -114 -57 -197t-150 -123q134 -41 214.5 -141.5t80.5 -251.5q0 -209 -151.5 -336.5t-387.5 -127.5z" />
<glyph horiz-adv-x="1265" d="M1233 522v-211h-257v-311h-233v311h-707v176l643 1049h297v-1014h257zM281 522h462v779z" />
<glyph horiz-adv-x="1257" d="M691 1037q205 0 340.5 -141.5t135.5 -366.5q0 -159 -72 -285t-195.5 -194t-276.5 -68q-101 0 -194 30.5t-167 87.5t-120.5 145.5t-53.5 196.5h245q20 -117 103.5 -176.5t192.5 -59.5q129 0 212.5 88t83.5 227q0 138 -84 226t-205 88q-78 0 -152.5 -39.5t-121.5 -109.5 h-239l146 850h837v-214h-662l-64 -382q122 97 311 97z" />
<glyph horiz-adv-x="1218" d="M1160 525q3 -110 -39 -210.5t-115.5 -173.5t-174.5 -116t-211 -43q-152 0 -279.5 66.5t-203.5 184.5t-80 262q-7 188 133 371l517 670h275l-412 -509q45 10 107 9q84 -5 168 -44.5t153.5 -104t114 -160t47.5 -202.5zM619 198q141 0 230 94.5t83 230.5q-6 139 -97.5 226 t-225.5 87q-150 0 -238.5 -97t-83.5 -241q5 -135 96.5 -217.5t235.5 -82.5z" />
<glyph horiz-adv-x="1163" d="M38 1536h1097v-163l-754 -1373h-269l747 1323h-821v213z" />
<glyph horiz-adv-x="1193" d="M595 -20q-218 0 -365 136t-147 336q0 129 65.5 235t177.5 165q-75 50 -114 130t-39 181q0 167 120.5 280t302.5 113q181 0 301.5 -113t120.5 -280q0 -101 -39 -181t-114 -130q113 -59 178 -164.5t65 -235.5q0 -200 -146.5 -336t-366.5 -136zM597 919q90 0 152 62t62 153 t-62 154t-152 63q-92 0 -154.5 -62.5t-62.5 -154.5q0 -91 62.5 -153t154.5 -62zM595 184q117 0 198 84t81 202t-80.5 198t-198.5 80q-117 0 -197.5 -80t-80.5 -198t81 -202t197 -84z" />
<glyph horiz-adv-x="1219" d="M1156 1041q6 -189 -134 -371l-517 -670h-275l432 535q-57 -17 -130 -17q-83 0 -167.5 37t-153 100t-112.5 157t-47 199q-3 110 39 210.5t115.5 173.5t174.5 116t211 43q231 0 394 -147t170 -366zM603 700q150 0 239 97.5t83 240.5q-5 135 -96.5 217.5t-235.5 82.5 q-141 0 -230 -94.5t-83 -230.5q6 -139 97.5 -226t225.5 -87z" />
<glyph horiz-adv-x="795" d="M397 -12q-156 0 -249 129.5t-93 343.5t93 343.5t249 129.5q155 0 249.5 -130t94.5 -343q0 -214 -94.5 -343.5t-249.5 -129.5zM399 161q71 0 116 82.5t45 217.5t-45 217.5t-116 82.5q-73 0 -118 -82t-45 -218t45 -218t118 -82z" />
<glyph horiz-adv-x="466" d="M161 0v755h-131v167h309v-922h-178z" />
<glyph horiz-adv-x="711" d="M328 166h322v-166h-619v75q137 141 224 240.5t128 162t54.5 98.5t13.5 71q0 68 -35 97t-84 28q-59 -1 -88 -38t-27 -93h-181q-1 132 83 213.5t219 81.5q127 0 206 -74.5t80 -198.5q1 -111 -69.5 -227t-226.5 -270z" />
<glyph horiz-adv-x="696" d="M512 515q61 -37 96 -97t35 -134q0 -124 -89 -210t-221 -86q-126 0 -214 77.5t-88 195.5l182 2q0 -45 36 -74.5t85 -29.5q56 0 93 37.5t37 93.5q0 55 -35.5 86t-91.5 31h-88l-1 158h78q44 0 73 30.5t29 73.5t-29 69.5t-73 26.5q-41 0 -66.5 -23t-25.5 -60l-177 3 q0 109 76.5 179t192.5 70q113 0 189.5 -70.5t76.5 -176.5t-80 -172z" />
<glyph horiz-adv-x="761" d="M696 361v-166h-81v-195h-179v195h-437v112l380 615h236v-561h81zM220 361h216v372z" />
<glyph horiz-adv-x="797" d="M455 630q120 0 198 -83t78 -222q0 -150 -95 -243t-237 -93q-131 0 -227.5 74.5t-108.5 199.5l191 12q11 -56 53.5 -85t98.5 -29q61 0 100 44t39 118q0 70 -40.5 111.5t-101.5 41.5q-39 0 -78.5 -22t-63.5 -59l-186 1l94 526h529v-163h-397l-33 -191q72 62 187 62z" />
<glyph horiz-adv-x="719" d="M695 313q1 -137 -100.5 -232t-239.5 -92q-142 3 -241 93.5t-99 225.5q0 99 73 206l302 408h209l-233 -294q25 2 51 -1q105 -12 191 -100.5t87 -213.5zM355 153q73 -3 119 43.5t45 116.5q-1 71 -45 115.5t-112 46.5q-79 4 -124 -43.5t-44 -123.5q2 -70 45 -111.5 t116 -43.5z" />
<glyph horiz-adv-x="653" d="M28 922h632v-131l-425 -791h-204l420 759h-423v163z" />
<glyph horiz-adv-x="743" d="M371 -12q-138 0 -229.5 82.5t-91.5 205.5q0 75 36 136t99 99q-80 62 -80 180q0 104 75.5 173.5t191.5 69.5q114 0 190 -69.5t76 -173.5q0 -116 -79 -180q63 -38 99 -99t36 -136q0 -123 -92 -205.5t-231 -82.5zM372 560q46 0 77 31.5t31 76.5q0 47 -31 78.5t-77 31.5 t-77 -31.5t-31 -78.5q0 -45 31 -76.5t77 -31.5zM371 144q60 0 101 43t41 104t-40.5 100.5t-101.5 39.5q-60 0 -100 -40t-40 -100q0 -61 40.5 -104t99.5 -43z" />
<glyph horiz-adv-x="720" d="M365 932q141 0 240.5 -91.5t99.5 -226.5q0 -106 -73 -206l-302 -408h-209l237 300q-21 -4 -46 -3q-54 4 -104.5 27t-91.5 62t-65.5 97t-25.5 126q-1 136 100 229.5t240 93.5zM364 446q75 0 119 46.5t43 120.5q-2 70 -46.5 113t-117.5 43q-70 0 -116 -46t-45 -114 q2 -71 47.5 -117t115.5 -46z" />
<glyph horiz-adv-x="795" d="M397 608q-156 0 -249 129.5t-93 343.5t93 343.5t249 129.5q155 0 249.5 -130t94.5 -343q0 -214 -94.5 -343.5t-249.5 -129.5zM399 781q71 0 116 82.5t45 217.5t-45 217.5t-116 82.5q-73 0 -118 -82t-45 -218t45 -218t118 -82z" />
<glyph horiz-adv-x="466" d="M161 614v755h-131v167h309v-922h-178z" />
<glyph horiz-adv-x="711" d="M328 780h322v-166h-619v75q137 141 224 240.5t128 162t54.5 98.5t13.5 71q0 68 -35 97t-84 28q-59 -1 -88 -38t-27 -93h-181q-1 132 83 213.5t219 81.5q127 0 206 -74.5t80 -198.5q1 -111 -69.5 -227t-226.5 -270z" />
<glyph horiz-adv-x="696" d="M512 1129q61 -37 96 -97t35 -134q0 -124 -89 -210t-221 -86q-126 0 -214 77.5t-88 195.5l182 2q0 -45 36 -74.5t85 -29.5q56 0 93 37.5t37 93.5q0 55 -35.5 86t-91.5 31h-88l-1 158h78q44 0 73 30.5t29 73.5t-29 69.5t-73 26.5q-41 0 -66.5 -23t-25.5 -60l-177 3 q0 109 76.5 179t192.5 70q113 0 189.5 -70.5t76.5 -176.5t-80 -172z" />
<glyph horiz-adv-x="761" d="M696 975v-166h-81v-195h-179v195h-437v112l380 615h236v-561h81zM220 975h216v372z" />
<glyph horiz-adv-x="797" d="M455 1244q120 0 198 -83t78 -222q0 -150 -95 -243t-237 -93q-131 0 -227.5 74.5t-108.5 199.5l191 12q11 -56 53.5 -85t98.5 -29q61 0 100 44t39 118q0 70 -40.5 111.5t-101.5 41.5q-39 0 -78.5 -22t-63.5 -59l-186 1l94 526h529v-163h-397l-33 -191q72 62 187 62z" />
<glyph horiz-adv-x="719" d="M695 927q1 -137 -100.5 -232t-239.5 -92q-142 3 -241 93.5t-99 225.5q0 99 73 206l302 408h209l-233 -294q25 2 51 -1q105 -12 191 -100.5t87 -213.5zM355 767q73 -3 119 43.5t45 116.5q-1 71 -45 115.5t-112 46.5q-79 4 -124 -43.5t-44 -123.5q2 -70 45 -111.5 t116 -43.5z" />
<glyph horiz-adv-x="653" d="M28 1536h632v-131l-425 -791h-204l420 759h-423v163z" />
<glyph horiz-adv-x="743" d="M371 602q-138 0 -229.5 82.5t-91.5 205.5q0 75 36 136t99 99q-80 62 -80 180q0 104 75.5 173.5t191.5 69.5q114 0 190 -69.5t76 -173.5q0 -116 -79 -180q63 -38 99 -99t36 -136q0 -123 -92 -205.5t-231 -82.5zM372 1174q46 0 77 31.5t31 76.5q0 47 -31 78.5t-77 31.5 t-77 -31.5t-31 -78.5q0 -45 31 -76.5t77 -31.5zM371 758q60 0 101 43t41 104t-40.5 100.5t-101.5 39.5q-60 0 -100 -40t-40 -100q0 -61 40.5 -104t99.5 -43z" />
<glyph horiz-adv-x="720" d="M365 1546q141 0 240.5 -91.5t99.5 -226.5q0 -106 -73 -206l-302 -408h-209l237 300q-21 -4 -46 -3q-54 4 -104.5 27t-91.5 62t-65.5 97t-25.5 126q-1 136 100 229.5t240 93.5zM364 1060q75 0 119 46.5t43 120.5q-2 70 -46.5 113t-117.5 43q-70 0 -116 -46t-45 -114 q2 -71 47.5 -117t115.5 -46z" />
<glyph horiz-adv-x="637" d="M173 -376l97 642h234l-190 -642h-141z" />
<glyph horiz-adv-x="636" d="M378 765q-58 0 -99 41t-41 99q0 57 41 98t99 41q56 0 98 -41.5t42 -97.5q0 -57 -41.5 -98.5t-98.5 -41.5zM173 -376l96 642h234l-190 -642h-140z" />
<glyph horiz-adv-x="637" d="M173 -376l97 642h234l-190 -642h-141z" />
<glyph horiz-adv-x="636" d="M378 765q-58 0 -99 41t-41 99q0 57 41 98t99 41q56 0 98 -41.5t42 -97.5q0 -57 -41.5 -98.5t-98.5 -41.5zM173 -376l96 642h234l-190 -642h-140z" />
<glyph horiz-adv-x="961" d="M310 259q56 0 97.5 -42t41.5 -98q0 -31 -14 -61l-165 -434h-140l115 372q-34 18 -54.5 51t-20.5 72q0 56 42 98t98 42zM844 119q0 -31 -14 -61l-165 -434h-140l115 372q-34 18 -54.5 51t-20.5 72q0 56 42 98t98 42t97.5 -42t41.5 -98z" />
<glyph horiz-adv-x="973" d="M432 1537l-97 -642h-234l190 642h141zM832 1537l-97 -642h-234l190 642h141z" />
<glyph horiz-adv-x="973" d="M141 894l97 642h234l-190 -642h-141zM541 894l97 642h234l-190 -642h-141z" />
<glyph horiz-adv-x="573" d="M432 1537l-97 -642h-234l190 642h141z" />
<glyph horiz-adv-x="573" d="M141 894l97 642h234l-190 -642h-141z" />
<glyph horiz-adv-x="573" d="M141 -376l97 642h234l-190 -642h-141z" />
<glyph horiz-adv-x="1024" d="M483 1537l-97 -642h-234l190 642h141zM883 1537l-97 -642h-234l190 642h141z" />
<glyph horiz-adv-x="973" d="M141 894l97 642h234l-190 -642h-141zM541 894l97 642h234l-190 -642h-141z" />
<glyph horiz-adv-x="573" d="M432 1537l-97 -642h-234l190 642h141z" />
<glyph horiz-adv-x="573" d="M141 894l97 642h234l-190 -642h-141z" />
<glyph horiz-adv-x="573" d="M141 -376l97 642h234l-190 -642h-141z" />
<glyph d="M-117 1417q0 -31 -14 -59l-144 -390h-146l100 326q-34 18 -54.5 51t-20.5 72q0 57 41.5 98.5t97.5 41.5q57 0 98.5 -41.5t41.5 -98.5z" />
<glyph d="M-646 1075q-53 0 -91.5 38t-38.5 91q0 54 38.5 91.5t91.5 37.5t91.5 -37.5t38.5 -91.5q0 -53 -38.5 -91t-91.5 -38zM-248 1075q-53 0 -91.5 38t-38.5 91q0 54 38 91.5t92 37.5t91.5 -37.5t37.5 -91.5q0 -53 -38 -91t-91 -38z" />
<glyph d="M-327 1094q-94 0 -162 67.5t-68 161.5t67.5 160.5t162.5 66.5q93 0 159.5 -66.5t66.5 -160.5t-66.5 -161.5t-159.5 -67.5zM-327 1201q51 0 85.5 34.5t34.5 87.5q0 49 -35 86t-85 37t-84.5 -37t-34.5 -86q0 -53 34 -87.5t85 -34.5z" />
<glyph d="M-246 963h-140l82 573h234z" />
<glyph d="M-419 1605l-85 94l306 329l117 -131zM-391 1192q-157 0 -254 88t-97 244h156q0 -83 51.5 -139.5t143.5 -56.5q93 0 145 56.5t52 139.5h156q0 -156 -97.5 -244t-255.5 -88z" />
<glyph d="M-347 1608l-340 289l119 131l302 -330zM-355 1192q-157 0 -254 88t-97 244h156q0 -83 51.5 -139.5t143.5 -56.5q93 0 145 56.5t52 139.5h156q0 -156 -97.5 -244t-255.5 -88z" />
<glyph d="M-430 1589v172q144 28 144 126q0 38 -25 63t-69 25q-60 0 -109 -42l-78 112q87 68 187 68q101 0 170.5 -63.5t69.5 -161.5q0 -70 -40.5 -125.5t-119.5 -77.5v-96h-130zM-365 1192q-157 0 -254 88t-97 244h156q0 -83 51.5 -139.5t143.5 -56.5q93 0 145 56.5t52 139.5h156 q0 -156 -97.5 -244t-255.5 -88z" />
<glyph d="M-306 1594q-119 0 -194 115q-33 49 -72 49q-43 0 -66 -43.5t-23 -110.5h-143q0 128 61 211t165 83q116 0 195 -115q33 -49 75 -49q86 0 86 154h142q0 -128 -59.5 -211t-166.5 -83zM-441 1192q-157 0 -254 88t-97 244h156q0 -83 51.5 -139.5t143.5 -56.5q93 0 145 56.5 t52 139.5h156q0 -156 -97.5 -244t-255.5 -88z" />
<glyph d="M-394 1646l-85 94l306 329l117 -131zM-574 1174l-102 64l220 298h181l222 -298l-103 -64l-208 224z" />
<glyph d="M-310 1649l-340 289l119 131l302 -330zM-526 1174l-102 64l220 298h181l222 -298l-103 -64l-208 224z" />
<glyph d="M-410 1630v172q144 28 144 126q0 38 -25 63t-69 25q-60 0 -109 -42l-78 112q87 68 187 68q101 0 170.5 -63.5t69.5 -161.5q0 -70 -40.5 -125.5t-119.5 -77.5v-96h-130zM-553 1174l-102 64l220 298h181l222 -298l-103 -64l-208 224z" />
<glyph d="M-293 1635q-119 0 -194 115q-33 49 -72 49q-43 0 -66 -43.5t-23 -110.5h-143q0 128 61 211t165 83q116 0 195 -115q33 -49 75 -49q86 0 86 154h142q0 -128 -59.5 -211t-166.5 -83zM-636 1174l-102 64l220 298h181l222 -298l-103 -64l-208 224z" />
</font>
</defs>
</svg>
