<?xml version="1.0" standalone="no"?>
<!DOCTYPE svg PUBLIC "-//W3C//DTD SVG 1.1//EN" "http://www.w3.org/Graphics/SVG/1.1/DTD/svg11.dtd" >
<svg xmlns="http://www.w3.org/2000/svg" xmlns:xlink="http://www.w3.org/1999/xlink" version="1.1">
<metadata></metadata>
<defs>
<font id="neue_hans_kendrickLtIt" horiz-adv-x="0" >
<font-face units-per-em="2048" ascent="1536" descent="-512" />
<missing-glyph horiz-adv-x="527" />
<glyph unicode="fi" horiz-adv-x="1087" d="M436 963h559l-168 -963h-135l146 837h-424l-146 -837h-137l147 837h-162l21 126h162l59 324q21 125 104.5 198.5t201.5 73.5q87 0 125 -33l-15 -130q-37 34 -98 34q-69 0 -121.5 -48t-65.5 -122zM986 1340q44 0 70 -31.5t19 -76.5q-8 -37 -38 -62.5t-66 -25.5 q-44 0 -71 32t-20 76q7 38 38 63t68 25z" />
<glyph unicode="fl" horiz-adv-x="1110" d="M489 1260l-52 -297h259l-21 -126h-260l-147 -837h-137l148 837h-163l21 126h164l57 324q21 125 104.5 198.5t201.5 73.5q87 0 125 -33l-15 -130q-37 34 -98 34q-69 0 -121.5 -48t-65.5 -122zM981 1536h136l-270 -1536h-136z" />
<glyph unicode=" "  horiz-adv-x="527" />
<glyph unicode="&#x09;" horiz-adv-x="527" />
<glyph unicode="&#xa0;" horiz-adv-x="527" />
<glyph unicode="!" horiz-adv-x="622" d="M227 424l196 1112h136l-196 -1112h-136zM226 -20q-44 0 -71.5 33.5t-19.5 77.5q7 38 39 64.5t69 26.5q45 0 72 -33t19 -78q-7 -37 -39 -64t-69 -27z" />
<glyph unicode="&#x22;" horiz-adv-x="949" d="M320 895l114 641h130l-112 -641h-132zM640 895l116 641h131l-114 -641h-133z" />
<glyph unicode="#" horiz-adv-x="1459" d="M237 0l116 364h-288l32 106h289l162 498h-290l35 104h285l118 365h104l-114 -365h396l116 365h106l-117 -365h291l-36 -104h-287l-158 -498h287l-33 -106h-287l-119 -364h-105l117 364h-400l-114 -364h-106zM493 470h396l160 498h-398z" />
<glyph unicode="$" horiz-adv-x="1307" d="M768 1430q-123 0 -221 -71.5t-120 -195.5q-11 -62 3.5 -110.5t60.5 -87t85 -61t112 -56.5q152 -65 212 -105q152 -100 157 -261q1 -45 -8 -96q-29 -167 -146.5 -270t-279.5 -128l-30 -168h-134l28 161q-142 8 -256 73.5t-184 168.5l113 93q123 -210 358 -210 q148 0 259.5 80.5t134.5 213.5q9 51 -4.5 95.5t-32 72.5t-69 62t-77 48t-96.5 47q-9 5 -14 7q-33 15 -56 25.5t-54 26.5t-52.5 30t-47.5 32.5t-43 38t-34.5 43t-27.5 49.5t-17 56.5t-6.5 65.5t7.5 74q21 118 93 206t172 132t212 45l29 165h135l-32 -179q165 -39 274 -190 l-95 -82q-70 90 -141 125t-167 35z" />
<glyph unicode="%" horiz-adv-x="1504" d="M445 956q-128 0 -203 91.5t-52 221.5q21 119 121 203t221 84q127 0 201 -90t52 -217q-22 -122 -121.5 -207.5t-218.5 -85.5zM93 0l1163 1537h150l-1158 -1537h-155zM445 1071q80 0 148 58.5t82 139.5q12 72 -29.5 123t-114.5 51q-81 0 -149.5 -57.5t-81.5 -136.5 q-13 -75 29 -126.5t116 -51.5zM980 -17q-128 0 -202.5 91t-51.5 219q22 121 121 204.5t219 83.5q127 0 202.5 -90.5t52.5 -216.5q-21 -121 -121 -206t-220 -85zM980 96q82 0 149.5 58t81.5 140q13 73 -29.5 123.5t-116.5 50.5q-81 0 -148 -57t-81 -137q-13 -74 28.5 -126 t115.5 -52z" />
<glyph unicode="&#x26;" horiz-adv-x="1439" d="M463 -24q-191 0 -290 125t-64 318q9 52 26.5 97t50 87.5t62 74t85.5 74t94.5 69.5t113.5 77q-67 104 -91.5 186t-9.5 162q23 129 124 213t235 84q142 0 217.5 -88.5t52.5 -221.5q-8 -45 -29.5 -87.5t-48 -75t-72.5 -71.5t-83 -66t-101 -71l258 -426l251 274l96 -82 l-276 -297l197 -327l-171 -10l-137 227q-131 -121 -250.5 -183t-239.5 -62zM659 954l52.5 35t46.5 31.5t47.5 35t38 32.5t37 37t26 36.5t23 42.5t11.5 44q12 76 -30 122.5t-116 48.5q-86 2 -149.5 -52t-79.5 -142q-4 -20 -3.5 -39.5t2.5 -36t10 -37.5t14 -35t20 -39 t22.5 -39.5t27.5 -44.5zM459 111q101 0 204 58t221 167l-273 448q-52 -34 -79 -51.5t-71 -48.5t-67.5 -51.5t-54.5 -51t-48 -56.5t-32 -59t-21 -67q-20 -116 43.5 -202t177.5 -86z" />
<glyph unicode="'" horiz-adv-x="629" d="M323 910l111 626h133l-111 -626h-133z" />
<glyph unicode="(" horiz-adv-x="619" d="M371 -455q-173 125 -234.5 404t7.5 702q72 401 232.5 687t373.5 408l54 -92q-193 -115 -339.5 -378.5t-213.5 -643.5q-65 -390 -14.5 -641t204.5 -365z" />
<glyph unicode=")" horiz-adv-x="619" d="M-73 -461l-55 93q195 115 339.5 375t212.5 644q65 385 15 640t-203 369l69 80q173 -123 234.5 -407t-8.5 -701q-71 -405 -230 -687.5t-374 -405.5z" />
<glyph unicode="*" horiz-adv-x="952" d="M431 949l-68 43l198 236l-289 -9l15 81l288 -14l-116 241l75 38l88 -246l173 246l69 -38l-199 -241l288 14l-14 -81l-289 9l118 -236l-76 -43l-86 249z" />
<glyph unicode="+" horiz-adv-x="1181" d="M526 196v412h-412v130h412v411h130v-411h411v-130h-411v-412h-130z" />
<glyph unicode="," horiz-adv-x="624" d="M284 182q44 0 71.5 -33.5t19.5 -77.5q-5 -28 -23 -49l-209 -390h-109l183 362q-53 33 -41 97q5 37 37.5 64t70.5 27z" />
<glyph unicode="-" horiz-adv-x="1052" d="M157 427l21 109h716l-20 -109h-717z" />
<glyph unicode="." horiz-adv-x="626" d="M234 -20q-45 0 -72 33t-19 78q6 37 38.5 64t69.5 27q44 0 71.5 -33.5t20.5 -77.5q-7 -39 -39 -65t-70 -26z" />
<glyph unicode="/" horiz-adv-x="1155" d="M-176 -348l1440 2048h136l-1437 -2048h-139z" />
<glyph unicode="0" horiz-adv-x="1270" d="M557 -20q-157 0 -267 104.5t-150.5 287.5t-0.5 406q39 220 137 397t239.5 279t299.5 102q122 0 216 -61t146.5 -168.5t69.5 -253t-15 -315.5q-39 -218 -141 -396.5t-243 -280t-291 -101.5zM560 105q121 0 231 85.5t189.5 239t114.5 348.5q51 293 -30.5 465.5 t-252.5 172.5q-180 0 -330.5 -179.5t-203.5 -478.5q-32 -195 -10.5 -340t98.5 -229t194 -84z" />
<glyph unicode="1" horiz-adv-x="1270" d="M545 0l245 1395h-322l25 141h463l-270 -1536h-141z" />
<glyph unicode="2" horiz-adv-x="1270" d="M1178 1128q-10 -62 -35 -124t-59.5 -120.5t-92.5 -128t-116 -131t-149.5 -146t-174 -157.5t-206.5 -180h739l-24 -141h-1048l-1 18q321 276 515.5 454.5t305 303.5t152 200.5t55.5 156.5q24 132 -46.5 207.5t-198.5 76.5q-141 1 -246 -87t-132 -227l-150 12 q39 200 191 322.5t349 120.5q194 -2 299 -119t73 -311z" />
<glyph unicode="3" horiz-adv-x="1270" d="M539 -20q-217 0 -344 128t-93 323l140 -9q-24 -139 62 -224t239 -85q162 0 285 93.5t149 243.5q26 143 -60 228.5t-245 85.5h-153l23 133h138q125 0 219 80.5t115 197.5q20 109 -42.5 178.5t-185.5 69.5q-126 0 -220.5 -72.5t-113.5 -181.5l-140 10q30 166 167 271.5 t313 105.5q182 0 286.5 -111t74.5 -282q-20 -112 -93.5 -195t-188.5 -128q136 -43 203 -154t40 -262q-34 -196 -199 -320t-376 -124z" />
<glyph unicode="4" horiz-adv-x="1270" d="M1218 457l-26 -133h-280l-57 -324h-141l57 324h-746l15 92l910 1120h175l-190 -1079h283zM795 457l158 901l-715 -901h557z" />
<glyph unicode="5" horiz-adv-x="1270" d="M1242 1399h-663l-163 -486q142 103 325 103q216 0 334.5 -147t79.5 -371q-39 -223 -212 -369t-398 -146q-91 0 -171 26.5t-142 76.5t-96.5 129.5t-31.5 179.5l147 -10q6 -134 92.5 -199.5t207.5 -65.5q167 0 295 112t157 279q29 163 -55 269t-234 106q-90 0 -182 -40.5 t-160 -111.5l-154 3l271 798h777z" />
<glyph unicode="6" horiz-adv-x="1270" d="M756 1019q86 0 167.5 -37.5t142 -103t90.5 -162.5t14 -206q-21 -140 -109.5 -261.5t-219.5 -193t-271 -71.5q-148 0 -262.5 67t-169 184.5t-34.5 259.5q26 183 192 360l677 681h180l-554 -542q69 25 157 25zM1035 528q22 163 -70 266.5t-248 103.5q-181 0 -317 -122.5 t-160 -297.5q-21 -159 72.5 -258t259.5 -99q172 0 306.5 119.5t156.5 287.5z" />
<glyph unicode="7" horiz-adv-x="1270" d="M291 1536h1072l-13 -88l-1074 -1448h-173l1053 1401h-889z" />
<glyph unicode="8" horiz-adv-x="1270" d="M557 -20q-135 0 -237 62.5t-148 170.5t-23 237q24 136 117.5 244.5t226.5 160.5q-81 49 -113.5 136t-12.5 197q27 156 156.5 262t293.5 106q170 0 266.5 -112.5t67.5 -274.5q-19 -109 -82 -193.5t-159 -129.5q113 -56 167.5 -167.5t30.5 -248.5q-34 -189 -193 -319.5 t-358 -130.5zM700 897q113 0 206 79t113 192q19 107 -41 180.5t-166 73.5q-114 0 -207 -79.5t-115 -193.5q-18 -106 43 -179t167 -73zM559 105q145 0 265 104.5t146 249.5q25 138 -54 233.5t-217 95.5q-145 0 -264.5 -102t-144.5 -247q-25 -138 53.5 -236t215.5 -98z" />
<glyph unicode="9" horiz-adv-x="1270" d="M689 1552q148 0 262.5 -67t169 -184.5t34.5 -259.5q-26 -183 -192 -360l-677 -681h-180l554 542q-69 -25 -157 -25q-86 0 -167.5 37.5t-142 103t-90.5 162.5t-14 206q21 140 109.5 261.5t219.5 193t271 71.5zM1019 1058q21 159 -72.5 258t-259.5 99q-172 0 -306.5 -119.5 t-156.5 -287.5q-22 -163 70 -266.5t248 -103.5q181 0 317 122.5t160 297.5z" />
<glyph unicode=":" horiz-adv-x="613" d="M380 842q-45 0 -72 33t-20 78q6 37 38.5 64t69.5 27q45 0 72 -33t20 -78q-7 -38 -38.5 -64.5t-69.5 -26.5zM228 -20q-45 0 -72.5 33t-19.5 78q6 37 38.5 64t69.5 27q45 0 72 -33t20 -78q-7 -38 -39 -64.5t-69 -26.5z" />
<glyph unicode=";" horiz-adv-x="615" d="M411 1044q45 0 72 -33t20 -78q-7 -38 -39 -64.5t-69 -26.5q-46 0 -73 32.5t-19 78.5q6 37 38 64t70 27zM259 182q44 0 71.5 -33.5t20.5 -77.5q-4 -27 -22 -49l-211 -390h-108l182 362q-53 33 -41 97q6 37 38.5 64t69.5 27z" />
<glyph unicode="&#x3c;" horiz-adv-x="1359" d="M1227 1346v-143l-994 -501l994 -502v-147l-1131 572v154z" />
<glyph unicode="=" horiz-adv-x="1239" d="M266 806v130h706v-130h-706zM266 403v129h706v-129h-706z" />
<glyph unicode="&#x3e;" horiz-adv-x="1359" d="M133 1346l1130 -567v-154l-1130 -572v147l994 502l-994 501v143z" />
<glyph unicode="?" horiz-adv-x="1016" d="M422 423l25 143q13 75 43.5 129.5t68.5 86.5t82 56.5t87.5 48.5t81.5 53.5t67.5 80t41.5 120.5q21 125 -48 203t-201 78q-128 0 -231 -80.5t-133 -201.5l-122 10q35 171 173 281.5t315 110.5q192 0 295 -119t70 -301q-14 -78 -44.5 -138.5t-69.5 -96.5t-83 -64.5 t-87 -51.5t-80 -47.5t-63.5 -62t-35.5 -87.5l-26 -151h-126zM424 -20q-45 0 -72 33t-20 78q6 37 38.5 64t69.5 27q45 0 72 -33t20 -78q-7 -39 -38 -65t-70 -26z" />
<glyph unicode="@" horiz-adv-x="1747" d="M770 -220q-117 0 -222 33t-187.5 95.5t-138 153.5t-73.5 207t5 255q37 209 165 377.5t317.5 263t402.5 94.5q142 0 260 -44t199 -124.5t115 -205.5t7 -277q-21 -120 -67.5 -212.5t-107 -146.5t-127 -81t-134.5 -27q-86 0 -128 46t-35 113l-4 -10q-50 -62 -126 -103 t-156 -41q-128 0 -189.5 88.5t-36.5 231.5q31 178 160 305t290 127q84 0 138 -36.5t69 -95.5l5 5l40 105l102 -6q-28 -82 -85.5 -241.5t-68.5 -191.5q-38 -89 -31 -142t77 -53q47 0 93.5 22.5t89 67t75.5 118t50 166.5q45 250 -86 395.5t-389 145.5q-143 0 -273.5 -49 t-230.5 -135t-169 -207.5t-94 -262.5q-21 -120 -5.5 -218t61 -173.5t114.5 -126.5t155 -77t182 -26q321 0 574 190l57 -85q-273 -207 -639 -207zM756 252q79 0 149 49t112 117.5t62 143.5q18 68 16 119.5t-36 82t-98 30.5q-78 0 -149.5 -52t-118 -131.5t-62.5 -168.5 q-6 -48 -1 -90t37.5 -71t88.5 -29z" />
<glyph unicode="A" horiz-adv-x="1335" d="M1061 0l-54 262h-749l-147 -262h-160l909 1573l356 -1573h-155zM332 394h647l-175 841z" />
<glyph unicode="B" horiz-adv-x="1354" d="M1278 1121q-20 -118 -91 -206.5t-178 -134.5q123 -40 182 -142.5t33 -244.5q-30 -170 -167 -281.5t-311 -111.5h-607l270 1536h520q86 0 158 -31.5t119.5 -86t67.5 -132t4 -165.5zM1139 1129q22 115 -47.5 190.5t-190.5 75.5h-380l-97 -559h368q122 0 224 85t123 208z M1090 428q20 116 -48.5 194t-189.5 78h-451l-97 -559h440q122 0 223 82.5t123 204.5z" />
<glyph unicode="C" horiz-adv-x="1516" d="M810 -20q-130 0 -245 40.5t-199 113t-142.5 173t-74.5 219.5t4 252q37 212 172.5 391t333 283t410.5 104q167 0 304.5 -65t228.5 -181l-114 -87q-72 92 -181.5 142.5t-243.5 50.5q-179 0 -345.5 -87.5t-281.5 -239.5t-146 -331q-31 -175 28.5 -321.5t191 -231.5 t305.5 -85q139 0 271.5 54t241.5 150l89 -103q-128 -114 -285.5 -177.5t-321.5 -63.5z" />
<glyph unicode="D" horiz-adv-x="1496" d="M139 0l270 1536h403q104 0 199 -28t170.5 -78.5t135 -121.5t93.5 -157.5t46 -186t-9 -206.5q-36 -206 -168 -380.5t-326 -276t-402 -101.5h-412zM303 141h261q173 0 333 83t271 229.5t142 324.5q31 173 -26.5 315t-186.5 222t-302 80h-272z" />
<glyph unicode="E" horiz-adv-x="1148" d="M1211 1400h-686l-99 -564h601l-25 -136h-600l-99 -564h686l-23 -136h-827l270 1536h827z" />
<glyph unicode="F" horiz-adv-x="1105" d="M1211 1400h-686l-99 -564h601l-25 -136h-599l-123 -700h-141l270 1536h827z" />
<glyph unicode="G" horiz-adv-x="1631" d="M906 666l23 133h606l-140 -799h-125l13 123q-111 -68 -234 -105.5t-237 -37.5q-163 0 -300 63t-225 169.5t-125 254.5t-8 311q37 213 172.5 392t333 282.5t410.5 103.5q153 0 293.5 -63.5t229.5 -170.5l-111 -93q-73 89 -182.5 138t-234.5 49q-180 0 -346.5 -87.5 t-281 -239t-146.5 -331.5q-31 -176 28.5 -322.5t191 -231t306.5 -84.5q128 0 257.5 50.5t234.5 139.5l62 356h-465z" />
<glyph unicode="H" horiz-adv-x="1603" d="M1426 1536h141l-271 -1536h-140l123 698h-876l-123 -698h-141l270 1536h141l-123 -697h876z" />
<glyph unicode="I" horiz-adv-x="586" d="M139 0l270 1536h141l-270 -1536h-141z" />
<glyph unicode="J" horiz-adv-x="1002" d="M245 -20q-171 0 -296 81l80 121q42 -32 104.5 -48.5t125.5 -16.5q156 0 267 103t137 256l187 1060h141l-192 -1092q-37 -207 -190 -335.5t-364 -128.5z" />
<glyph unicode="K" horiz-adv-x="1256" d="M1391 1536l-810 -755l558 -781h-175l-550 762l-134 -762h-141l270 1536h141l-129 -736l786 736h184z" />
<glyph unicode="L" horiz-adv-x="972" d="M305 141h578l-24 -141h-720l270 1536h141z" />
<glyph unicode="M" horiz-adv-x="1869" d="M930 478l915 1140l-285 -1618h-140l201 1146l-732 -922l-409 924l-201 -1148h-141l284 1612z" />
<glyph unicode="N" horiz-adv-x="1584" d="M1548 1536l-282 -1596l-776 1273l-212 -1213h-141l281 1598l777 -1273l214 1211h139z" />
<glyph unicode="O" horiz-adv-x="1776" d="M810 -20q-130 0 -245 40.5t-199 113t-142.5 173t-74.5 219.5t4 252q37 212 172.5 391t333 283t410.5 104q130 0 245 -40.5t199 -113t142.5 -173t74.5 -219.5t-4 -252q-37 -212 -173 -391t-333.5 -283t-409.5 -104zM815 120q134 0 265 52t234.5 140t177 209.5t97.5 256.5 q31 175 -28 321.5t-191 231.5t-307 85q-179 0 -345.5 -87.5t-281.5 -239.5t-146 -331q-31 -175 28.5 -321.5t191 -231.5t305.5 -85z" />
<glyph unicode="P" horiz-adv-x="1335" d="M1026 1536q177 0 280.5 -127.5t72.5 -305.5q-31 -173 -173.5 -292t-318.5 -119h-487l-120 -692h-141l270 1536h617zM1241 1121q22 122 -48 200.5t-194 78.5h-476l-99 -574h464q126 0 228 81.5t125 213.5z" />
<glyph unicode="Q" horiz-adv-x="1827" d="M1069 1556q130 0 245 -40.5t199 -113t142.5 -173t74.5 -219.5t-4 -252q-48 -268 -246 -476l179 -211l-109 -96l-175 211q-123 -98 -269 -152t-296 -54q-130 0 -245 40.5t-199 113t-142.5 173t-74.5 219.5t4 252q37 212 172.5 391t333 283t410.5 104zM1589 778 q31 175 -28 321.5t-191 231.5t-307 85q-179 0 -345.5 -87.5t-281.5 -239.5t-146 -331q-31 -175 28.5 -321.5t191 -231.5t305.5 -85q255 0 474 171l-149 180l103 90l148 -175q159 174 198 392z" />
<glyph unicode="R" horiz-adv-x="1388" d="M1026 1536q177 0 280.5 -127.5t72.5 -305.5q-27 -152 -142.5 -265t-268.5 -139l238 -699h-147l-239 692h-420l-120 -692h-141l270 1536h617zM1241 1121q22 122 -48 200.5t-194 78.5h-476l-99 -574h464q126 0 228 81.5t125 213.5z" />
<glyph unicode="S" horiz-adv-x="1129" d="M496 -20q-154 0 -278 66.5t-198 176.5l113 93q123 -210 358 -210q148 0 259.5 80.5t134.5 213.5q9 51 -4.5 95.5t-32 72.5t-69 62t-77 48t-96.5 47q-9 5 -14 7q-33 15 -56 25.5t-54 26.5t-52.5 30t-47.5 32.5t-43 38t-34.5 43t-27.5 49.5t-17 56.5t-6.5 65.5t7.5 74 q21 118 94 206.5t173 132.5t213 44q256 0 403 -204l-95 -82q-70 90 -141 125t-167 35q-123 0 -221 -71.5t-120 -195.5q-11 -62 3.5 -110.5t60.5 -87t85 -61t112 -56.5q152 -65 212 -105q152 -100 157 -261q1 -45 -8 -96q-17 -98 -68 -177t-123 -128t-157.5 -75t-177.5 -26z " />
<glyph unicode="T" horiz-adv-x="1056" d="M1214 1537l-25 -141h-429l-245 -1396h-141l245 1396h-429l25 141h999z" />
<glyph unicode="U" horiz-adv-x="1513" d="M676 -20q-163 0 -283.5 69.5t-174 191t-27.5 270.5l182 1025h141l-179 -1014q-31 -174 67.5 -288t278.5 -114q187 0 333 118.5t178 293.5l177 1004h141l-183 -1035q-27 -149 -120 -268t-232.5 -186t-298.5 -67z" />
<glyph unicode="V" horiz-adv-x="1335" d="M1328 1536h158l-911 -1573l-353 1573h151l260 -1241z" />
<glyph unicode="W" horiz-adv-x="1920" d="M2071 1536l-911 -1575l-164 728l-421 -728l-353 1575h148l265 -1245l322 573l-151 672h144l105 -498l280 498h151l-393 -680l119 -565l703 1245h156z" />
<glyph unicode="X" horiz-adv-x="1291" d="M1424 1536l-647 -763l383 -773h-166l-311 660l-545 -660h-176l662 781l-376 755h166l304 -642l534 642h172z" />
<glyph unicode="Y" horiz-adv-x="1247" d="M1416 1536l-679 -811l-128 -725h-141l128 727l-392 809h172l315 -663l550 663h175z" />
<glyph unicode="Z" horiz-adv-x="1338" d="M1458 1536l-1203 -1395h955l-24 -141h-1227l1200 1395h-881l25 141h1155z" />
<glyph unicode="[" horiz-adv-x="627" d="M38 -512l403 2284h385l-19 -108h-264l-364 -2068h264l-21 -108h-384z" />
<glyph unicode="\" horiz-adv-x="1148" d="M903 -348l-718 2048h131l717 -2048h-130z" />
<glyph unicode="]" horiz-adv-x="627" d="M-148 -512l21 108h264l364 2068h-264l18 108h385l-403 -2284h-385z" />
<glyph unicode="^" horiz-adv-x="1434" d="M1334 406h-115l-334 1017l-691 -1017h-125l770 1130h126z" />
<glyph unicode="_" horiz-adv-x="1501" d="M126 -160l18 109h1024l-18 -109h-1024z" />
<glyph unicode="`" horiz-adv-x="487" d="M504 1147l-289 289l93 89l258 -317z" />
<glyph unicode="a" horiz-adv-x="1261" d="M1032 963h136l-168 -963h-136l27 160q-78 -84 -182 -131t-222 -47q-131 0 -233 68t-149.5 185.5t-23.5 255.5q24 133 109 246.5t206 178.5t248 65q124 0 216 -51t142 -141zM508 115q156 0 284.5 110t157.5 266q27 149 -58.5 253t-234.5 104q-155 0 -284.5 -110.5 t-157.5 -265.5q-27 -149 58.5 -253t234.5 -104z" />
<glyph unicode="b" horiz-adv-x="1261" d="M774 981q131 0 233 -68t149.5 -185.5t23.5 -255.5q-24 -133 -109 -246.5t-206 -178.5t-248 -65q-125 0 -216.5 51t-141.5 142l-30 -175h-136l270 1536h136l-127 -731q78 83 181.5 129.5t220.5 46.5zM1047 491q26 149 -59.5 253t-234.5 104q-156 0 -284.5 -110 t-157.5 -266q-27 -149 58.5 -253t234.5 -104q156 0 285 110t158 266z" />
<glyph unicode="c" horiz-adv-x="1105" d="M503 -18q-105 0 -192.5 40t-144 108t-80.5 162.5t-6 198.5q37 205 205.5 347.5t373.5 142.5q152 0 262.5 -80t149.5 -211l-130 -47q-28 94 -103 149t-182 55q-159 0 -286.5 -108.5t-155.5 -266.5q-27 -152 57 -254.5t235 -102.5q113 0 212.5 59t162.5 156l118 -68 q-82 -128 -215.5 -204t-280.5 -76z" />
<glyph unicode="d" horiz-adv-x="1263" d="M1135 1536h136l-271 -1536h-136l27 160q-78 -84 -182 -131t-222 -47q-131 0 -233 68t-149.5 185.5t-23.5 255.5q24 133 109 246.5t206 178.5t248 65q125 0 217.5 -51.5t142.5 -143.5zM508 115q156 0 284.5 110t157.5 266q27 149 -58.5 253t-234.5 104 q-155 0 -284.5 -110.5t-157.5 -265.5q-27 -149 58.5 -253t234.5 -104z" />
<glyph unicode="e" horiz-adv-x="1143" d="M659 981q138 0 243.5 -65t154.5 -178.5t25 -248.5l-4 -22h-872v-1q-25 -151 62.5 -256t236.5 -105q97 0 188 45.5t157 124.5l111 -59q-85 -111 -205.5 -172.5t-251.5 -61.5q-105 0 -193 40.5t-144.5 108.5t-80 162t-5.5 198q36 204 204.5 347t373.5 143zM657 857 q-131 0 -245.5 -77.5t-170.5 -201.5h717q-5 123 -89 201t-212 78z" />
<glyph unicode="f" horiz-adv-x="618" d="M676 1430q-69 0 -121.5 -48t-65.5 -122l-52 -297h259l-21 -126h-260l-147 -837h-137l148 837h-163l21 126h164l57 324q21 125 104.5 198.5t201.5 73.5q87 0 125 -33l-15 -130q-37 34 -98 34z" />
<glyph unicode="g" horiz-adv-x="1261" d="M1029 963h138l-169 -964q-37 -207 -206 -350.5t-375 -143.5q-145 0 -255.5 76.5t-154.5 201.5l121 66q29 -97 107.5 -153.5t185.5 -56.5q155 0 284.5 109.5t155.5 261.5l25 140q-157 -168 -386 -168q-138 0 -243.5 68t-153 185.5t-23.5 255.5q37 205 205 347.5t371 142.5 q122 0 209.5 -48.5t134.5 -135.5zM506 115q155 0 285 110.5t157 265.5q27 149 -58.5 252.5t-233.5 103.5q-157 0 -285.5 -109.5t-156.5 -265.5q-26 -148 58.5 -252.5t233.5 -104.5z" />
<glyph unicode="h" horiz-adv-x="1058" d="M641 981q147 0 233 -104.5t61 -249.5l-111 -627h-136l110 627q16 97 -35.5 162.5t-142.5 65.5q-92 0 -171.5 -60t-105.5 -148l-114 -647h-136l270 1536h137l-115 -655q115 100 256 100z" />
<glyph unicode="i" horiz-adv-x="488" d="M372 1144q-44 0 -71 32t-20 76q7 38 37.5 63t68.5 25q43 0 69.5 -31.5t18.5 -76.5q-7 -37 -37 -62.5t-66 -25.5zM93 0l168 963h134l-168 -963h-134z" />
<glyph unicode="j" horiz-adv-x="492" d="M374 1144q-44 0 -71 32t-20 76q7 38 37.5 63t68.5 25q43 0 69.5 -31.5t18.5 -76.5q-7 -37 -37 -62.5t-66 -25.5zM9 -481l254 1444h134l-254 -1444h-134z" />
<glyph unicode="k" horiz-adv-x="972" d="M993 963l-515 -441l408 -522h-180l-389 499l-88 -499h-136l270 1536h137l-177 -1001l479 428h191z" />
<glyph unicode="l" horiz-adv-x="492" d="M93 0l270 1536h136l-270 -1536h-136z" />
<glyph unicode="m" horiz-adv-x="1607" d="M1188 981q149 0 234.5 -107t59.5 -259l-108 -615h-136l109 624q17 96 -32 159.5t-136 63.5q-90 0 -166 -61.5t-100 -151.5l-3 -19l-108 -615h-137l110 624q17 97 -32 160t-138 63q-95 0 -173.5 -68.5t-95.5 -166.5l-107 -612h-136l168 963h136l-17 -95q115 113 248 113 q79 0 146 -41.5t105 -111.5q59 71 140.5 112t168.5 41z" />
<glyph unicode="n" horiz-adv-x="1066" d="M646 981q147 0 234.5 -104.5t62.5 -249.5l-110 -627h-137l110 627q16 97 -36.5 162.5t-144.5 65.5q-98 0 -180 -64t-105 -156l-111 -635h-136l168 963h136l-15 -84q118 102 264 102z" />
<glyph unicode="o" horiz-adv-x="1163" d="M503 -18q-105 0 -192.5 40.5t-144 108.5t-80.5 162t-6 198q23 134 108.5 246.5t210.5 178t260 65.5q104 0 191.5 -40.5t144 -108.5t80.5 -162t6 -198q-23 -134 -108.5 -246.5t-210.5 -178t-259 -65.5zM506 115q155 0 284 110t158 266q27 149 -58.5 252.5t-233.5 103.5 q-157 0 -285.5 -109.5t-156.5 -265.5q-27 -149 58 -253t234 -104z" />
<glyph unicode="p" horiz-adv-x="1263" d="M776 981q131 0 233 -68t149.5 -185.5t23.5 -255.5q-24 -133 -108.5 -246.5t-205.5 -178.5t-248 -65q-125 0 -217.5 51.5t-142.5 143.5l-117 -669h-136l256 1455h136l-27 -160q78 84 182 131t222 47zM1049 491q26 149 -59.5 253t-234.5 104q-156 0 -284.5 -110 t-157.5 -266q-26 -149 59 -253t234 -104q156 0 285 110t158 266z" />
<glyph unicode="q" horiz-adv-x="1261" d="M1032 963h136l-256 -1455h-136l113 650q-78 -83 -181.5 -129.5t-220.5 -46.5q-131 0 -233 68t-149.5 185.5t-23.5 255.5q24 133 109 246.5t206 178.5t248 65q125 0 216.5 -51t141.5 -142zM508 115q156 0 284.5 110t157.5 266q27 149 -58.5 253t-234.5 104 q-155 0 -284.5 -110.5t-157.5 -265.5q-27 -149 58.5 -253t234.5 -104z" />
<glyph unicode="r" horiz-adv-x="708" d="M655 981q79 0 138 -38l-60 -113q-53 24 -104 24q-108 0 -195 -88t-113 -238l-92 -528h-136l168 963h136l-28 -154q114 172 286 172z" />
<glyph unicode="s" horiz-adv-x="857" d="M350 -18q-201 0 -345 133l91 105q44 -51 113 -83t148 -32q95 0 163 45.5t81 121.5q5 28 -3 51.5t-19.5 37.5t-40.5 30t-47.5 23t-59.5 22q-7 3 -11 4q-55 16 -85.5 26.5t-74.5 34t-65 50t-33.5 70t-2.5 97.5q14 85 70 146t132.5 89t164.5 28q168 0 287 -101l-89 -98 q-92 78 -211 78q-89 0 -152 -39.5t-75 -109.5q-6 -32 3.5 -56t38.5 -42t54 -28.5t72 -26.5q23 -8 35 -12q22 -6 40 -12t39.5 -14t37.5 -16.5t35 -19.5t31 -23t26 -28t20.5 -33.5t13 -39t4.5 -45.5t-5 -53q-24 -133 -127 -206.5t-254 -73.5z" />
<glyph unicode="t" horiz-adv-x="603" d="M661 963l-22 -126h-206l-147 -837h-138l146 837h-208l21 126h209l61 346h139l-61 -346h206z" />
<glyph unicode="u" horiz-adv-x="1031" d="M435 -18q-166 0 -252.5 102.5t-57.5 265.5l107 613h137l-106 -609q-19 -109 30.5 -174t144.5 -65q103 0 183.5 70t99.5 179l104 599h137l-109 -623q-28 -163 -143 -260.5t-275 -97.5z" />
<glyph unicode="v" horiz-adv-x="926" d="M849 963h150l-629 -1002l-275 1002h143l180 -713z" />
<glyph unicode="w" horiz-adv-x="1469" d="M1531 963l-561 -1009l-197 744l-462 -744l-205 1009h146l127 -676l445 729l189 -734l367 681h151z" />
<glyph unicode="x" horiz-adv-x="1020" d="M-61 0l488 481l-313 482h161l248 -383l387 383h171l-488 -482l313 -481h-161l-247 382l-386 -382h-173z" />
<glyph unicode="y" horiz-adv-x="958" d="M868 963h156l-840 -1455h-149l285 501l-219 954h150l172 -805z" />
<glyph unicode="z" horiz-adv-x="932" d="M960 963l-724 -837h576l-21 -126h-833l721 837h-538l22 126h797z" />
<glyph unicode="{" horiz-adv-x="570" d="M250 -514q-86 0 -131.5 73.5t-26.5 181.5l87 500q9 53 13.5 85t6 68.5t-4 60t-17 48t-33 43t-52.5 35.5l8 97q106 50 149 125t69 224l89 497q19 110 84.5 178t152.5 68h84l-17 -99h-48q-61 0 -99.5 -50.5t-53.5 -139.5l-87 -494q-12 -65 -24 -107.5t-35 -92.5t-61 -90 t-93 -73q53 -41 76.5 -102t23 -120.5t-15.5 -142.5l-87 -496q-16 -90 1 -132.5t77 -42.5h58l-18 -102h-75z" />
<glyph unicode="|" horiz-adv-x="631" d="M129 -307l326 1843h94l-325 -1843h-95z" />
<glyph unicode="}" horiz-adv-x="572" d="M-106 -514l18 102h48q121 0 153 186l87 495q12 65 24 108t35 93.5t61 90.5t93 73q-41 31 -64.5 71.5t-29.5 89t-3.5 95t13.5 107.5l87 494q15 92 -1.5 136t-76.5 44h-58l17 99h74q86 0 132.5 -73.5t26.5 -183.5l-88 -497q-14 -77 -17.5 -122t3.5 -89.5t32 -74t71 -55.5 l-8 -97q-107 -49 -150 -123.5t-69 -224.5l-87 -499q-19 -108 -86.5 -176.5t-153.5 -68.5h-83z" />
<glyph unicode="~" horiz-adv-x="1419" d="M927 355q-48 0 -90.5 13.5t-78 41.5t-54.5 47t-48 52q-41 48 -75.5 70.5t-78.5 22.5q-78 0 -125.5 -64t-47.5 -160h-122q-6 153 77.5 249.5t219.5 96.5q79 0 136 -37t118 -112q27 -32 45.5 -50.5t49.5 -33.5t65 -15q75 0 124.5 62t45.5 160h122q9 -146 -72.5 -244.5 t-210.5 -98.5z" />
<glyph unicode="&#xa1;" horiz-adv-x="634" d="M391 842q-45 0 -72.5 33t-19.5 78q6 37 38.5 64t69.5 27q44 0 71.5 -33.5t20.5 -77.5q-7 -38 -39 -64.5t-69 -26.5zM73 -512l197 1112h137l-198 -1112h-136z" />
<glyph unicode="&#xa2;" horiz-adv-x="1236" d="M842 1436l-46 -261h-91l46 261h91zM631 239q91 17 170.5 72.5t131.5 135.5l118 -68q-74 -116 -192.5 -190t-251.5 -87l-18 -104h-92l18 103q-129 10 -225 79.5t-138.5 182.5t-19.5 245q37 205 205.5 347.5t373.5 142.5q152 0 262.5 -80t149.5 -211l-130 -47 q-28 94 -103 149t-182 55q-159 0 -286.5 -108.5t-155.5 -266.5q-26 -146 51.5 -247.5t220.5 -108.5l5 29h92z" />
<glyph unicode="&#xa3;" horiz-adv-x="1469" d="M982 1412q-146 0 -252 -92.5t-132 -240.5l-47 -264h381l-23 -126h-380l-98 -556h743l-23 -133h-1051l22 124l165 6l98 559h-165l24 126h163l48 274q36 206 185 336.5t348 130.5q145 0 253 -89.5t131 -225.5l-145 -51q-5 98 -75.5 160t-169.5 62z" />
<glyph unicode="&#xa4;" horiz-adv-x="1377" d="M687 306q-150 0 -268 94l-103 -105l-76 81l103 102q-92 116 -92 265q0 152 93 266l-102 99l76 82l103 -105q119 96 270 96q146 0 263 -94l102 101l78 -76l-102 -101q94 -118 94 -268q0 -149 -94 -267l102 -100l-77 -81l-103 105q-117 -94 -267 -94zM687 415 q136 0 232.5 96t96.5 232q0 135 -96.5 231t-231.5 96q-137 0 -233.5 -96.5t-96.5 -233.5q0 -136 96.5 -230.5t232.5 -94.5z" />
<glyph unicode="&#xa5;" horiz-adv-x="1541" d="M761 725l-1 -4h446l-28 -118h-439l-33 -190h431l-29 -118h-423l-52 -295h-141l52 295h-419l29 118h411l33 190h-405l29 118h397l1 6l-392 809h172l315 -663l550 663h175z" />
<glyph unicode="&#xa6;" horiz-adv-x="631" d="M324 799l131 737h94l-131 -737h-94zM129 -307l131 737h95l-131 -737h-95z" />
<glyph unicode="&#xa7;" horiz-adv-x="1187" d="M419 -620q-126 4 -221.5 62t-144.5 145l124 80q32 -67 96 -105t152 -41q124 -4 223 60t123 185q13 60 -2.5 110t-52 84t-87 66.5t-107.5 58.5t-113.5 59t-105 68.5t-82.5 87t-46 114.5t6 151q42 183 197 296q-150 121 -106 325q38 178 178 278t314 94q126 -4 221 -62 t142 -145l-122 -80q-32 67 -96 105t-151 41q-124 4 -223 -60.5t-124 -184.5q-12 -55 -0.5 -100.5t41 -78.5t71.5 -63t91.5 -53.5t101 -51.5t100.5 -56t89 -66.5t67 -83.5t35.5 -107.5t-7.5 -138.5q-40 -188 -196 -296q148 -122 106 -325q-38 -178 -178 -278t-313 -94z M675 163q72 35 122 94t64 136q9 38 5.5 71t-14 60t-30 50.5t-43 43.5t-53.5 38.5t-61 35.5t-65 34q-63 32 -93 49q-72 -34 -122 -92.5t-64 -137.5q-14 -64 -1 -114t62.5 -92.5t84.5 -64t114 -61.5q64 -33 94 -50z" />
<glyph unicode="&#xa8;" horiz-adv-x="847" d="M370 1144q-44 0 -71.5 32.5t-19.5 76.5q7 39 38.5 65.5t69.5 26.5q44 0 71 -32.5t20 -78.5q-7 -37 -39 -63.5t-69 -26.5zM730 1144q-45 0 -72.5 32.5t-19.5 76.5q7 39 38.5 65.5t69.5 26.5q45 0 72 -32.5t19 -78.5q-7 -37 -38 -63.5t-69 -26.5z" />
<glyph unicode="&#xa9;" horiz-adv-x="1861" d="M930 -20q-160 0 -306 62.5t-251.5 168t-168 251.5t-62.5 306t62.5 306t168 251.5t251.5 168t306 62.5q128 0 248.5 -40t217.5 -113t170 -170t113 -217t40 -248t-40 -248t-113 -217t-170 -170t-217.5 -113t-248.5 -40zM930 65q193 0 355 93.5t256 255.5t94 354t-94 354 t-256 255.5t-355 93.5q-144 0 -274 -55.5t-224 -149t-149.5 -224t-55.5 -274.5t55.5 -274.5t149.5 -224t224 -149t274 -55.5zM931 328q-183 0 -312 128.5t-129 311.5t129 311.5t312 128.5q85 0 169 -35t143 -96l-59 -57q-49 50 -115.5 78t-137.5 28q-150 0 -254.5 -104 t-104.5 -254q0 -149 104.5 -252.5t254.5 -103.5q71 0 137.5 28t115.5 78l59 -59q-59 -61 -143 -96t-169 -35z" />
<glyph unicode="&#xaa;" horiz-adv-x="917" d="M829 1536h98l-109 -615h-97l23 125q-50 -64 -119.5 -100.5t-147.5 -36.5q-132 0 -209.5 96.5t-55.5 232.5q23 129 127.5 219.5t229.5 90.5q84 0 146 -41t90 -112zM490 995q101 0 184.5 71t101.5 172q17 92 -37 156.5t-148 64.5q-100 0 -183.5 -70.5t-100.5 -169.5 q-16 -94 37.5 -159t145.5 -65z" />
<glyph unicode="&#xab;" horiz-adv-x="936" d="M308 104l-248 377l376 377h126l-381 -377l242 -377h-115zM662 104l-247 377l375 377h129l-380 -377l242 -377h-119z" />
<glyph unicode="&#xac;" horiz-adv-x="1618" d="M1231 239v524h-1112v122h1233v-646h-121z" />
<glyph unicode="&#xad;" horiz-adv-x="1055" d="M157 418l22 118h717l-22 -118h-717z" />
<glyph unicode="&#xae;" horiz-adv-x="1861" d="M930 1556q128 0 248.5 -40t217.5 -113t170 -170t113 -217t40 -248t-40 -248t-113 -217t-170 -170t-217.5 -113t-248.5 -40q-160 0 -306 62.5t-251.5 168t-168 251.5t-62.5 306t62.5 306t168 251.5t251.5 168t306 62.5zM930 65q193 0 355 93.5t256 255.5t94 354t-94 354 t-256 255.5t-355 93.5q-144 0 -274 -55.5t-224 -149t-149.5 -224t-55.5 -274.5t55.5 -274.5t149.5 -224t224 -149t274 -55.5zM1281 991q0 -87 -49 -156.5t-128 -99.5l212 -464h-102l-203 446h-6h-253v-446h-94v994h347q115 0 195.5 -80t80.5 -194zM997 808q81 0 135.5 50 t54.5 132q0 80 -55 132t-135 52h-245v-366h245z" />
<glyph unicode="&#xaf;" horiz-adv-x="973" d="M304 1242l17 96h635l-18 -96h-634z" />
<glyph unicode="&#xb0;" horiz-adv-x="1009" d="M503 1076q-130 0 -223 93.5t-93 222.5q0 130 92.5 223t223.5 93q130 0 223 -93t93 -223q0 -129 -93 -222.5t-223 -93.5zM503 1154q99 0 168.5 69.5t69.5 168.5t-69.5 168.5t-168.5 69.5t-168.5 -69.5t-69.5 -168.5t69.5 -168.5t168.5 -69.5z" />
<glyph unicode="&#xb2;" horiz-adv-x="705" d="M753 1277q-15 -105 -108.5 -214t-346.5 -325h390l-22 -124h-611l8 71q237 208 352.5 319.5t156.5 168t51 109.5q13 72 -20 107t-91 35q-72 1 -123 -43.5t-65 -115.5l-134 10q24 128 113 201.5t213 72.5q123 0 189.5 -73.5t47.5 -198.5z" />
<glyph unicode="&#xb3;" horiz-adv-x="697" d="M725 1302q-21 -116 -128 -175q62 -38 91 -102.5t14 -143.5q-21 -117 -119 -198t-220 -81q-125 0 -199 80t-52 198l134 -9q-11 -61 25 -101t98 -40q72 0 130.5 50.5t70.5 123.5q13 65 -23.5 106t-104.5 41h-89l20 116h71q55 0 101.5 41.5t57.5 98.5q9 50 -19.5 82 t-79.5 32q-55 0 -99.5 -35.5t-52.5 -85.5l-132 12q19 105 100 170.5t186 65.5q110 0 173.5 -72t45.5 -174z" />
<glyph unicode="&#xb4;" horiz-adv-x="492" d="M225 1147l-48 61l364 318l66 -89z" />
<glyph unicode="&#xb5;" horiz-adv-x="1182" d="M951 963h137l-168 -963h-137l25 145q-65 -76 -152.5 -119.5t-180.5 -43.5q-162 0 -257 119l-102 -582h-107l254 1444h138l-103 -593q-19 -112 43.5 -189t172.5 -77q118 0 216.5 81.5t118.5 194.5z" />
<glyph unicode="&#xb6;" horiz-adv-x="1154" d="M392 -307l205 1157h-68q-171 0 -254 92.5t-53 261.5q29 162 138.5 247t280.5 85h158l-326 -1843h-81zM665 -307l326 1843h81l-326 -1843h-81z" />
<glyph unicode="&#xb7;" horiz-adv-x="602" d="M340 653q-38 0 -61 27.5t-16 66.5q5 30 31.5 52.5t56.5 22.5q38 0 62 -28.5t17 -65.5q-6 -32 -32.5 -53.5t-57.5 -21.5z" />
<glyph unicode="&#xb8;" horiz-adv-x="614" d="M146 -532q-70 0 -134 38.5t-87 93.5l78 25q17 -31 58 -51.5t81 -20.5q55 0 100 39t54 94q12 70 -42.5 95t-147.5 -7l-67 48l119 182h91l-98 -143q110 22 177.5 -36t50.5 -159q-15 -83 -82 -140.5t-151 -57.5z" />
<glyph unicode="&#xb9;" horiz-adv-x="450" d="M197 614l140 798h-137l22 124h272l-162 -922h-135z" />
<glyph unicode="&#xba;" horiz-adv-x="819" d="M493 909q-140 0 -222.5 96.5t-59.5 232.5q23 129 132.5 219.5t242.5 90.5q142 0 224.5 -97t57.5 -232q-23 -130 -131.5 -220t-243.5 -90zM489 995q101 0 184.5 71.5t100.5 171.5q17 92 -37 156.5t-147 64.5q-100 0 -183.5 -70.5t-101.5 -169.5q-16 -94 37.5 -159 t146.5 -65z" />
<glyph unicode="&#xbb;" horiz-adv-x="933" d="M14 104l380 377l-242 377h116l247 -377l-375 -377h-126zM368 104l381 377l-243 377h119l247 -377l-375 -377h-129z" />
<glyph unicode="&#xbc;" horiz-adv-x="1688" d="M1410 1536h148l-1341 -1536h-151zM392 614h-134l141 798h-137l22 124h272zM1572 922l-105 -604h89l-22 -123h-89l-34 -195h-135l34 195h-443l14 85l512 642h179zM1331 318l80 458l-354 -458h274z" />
<glyph unicode="&#xbd;" horiz-adv-x="1747" d="M1410 1536h148l-1341 -1536h-151zM392 614h-134l141 798h-137l22 124h272zM1656 663q-15 -105 -108 -214t-346 -325h389l-21 -124h-611l8 71q236 207 352 319t157 168.5t51 109.5q13 72 -20 107t-91 35q-72 1 -123 -43.5t-66 -115.5l-133 10q23 127 112 201t213 73 q124 0 190.5 -73.5t46.5 -198.5z" />
<glyph unicode="&#xbe;" horiz-adv-x="1911" d="M743 881q-20 -117 -118 -198t-220 -81q-125 0 -199 80t-53 198l134 -9q-10 -61 25.5 -100.5t97.5 -39.5q72 0 130.5 50t71.5 123q12 65 -24.5 106.5t-104.5 41.5h-88l20 115h70q55 0 102 41.5t58 98.5q7 51 -21.5 82.5t-79.5 31.5q-55 0 -98.5 -35t-52.5 -86l-131 12 q18 105 99.5 170.5t185.5 65.5q110 0 173.5 -71.5t45.5 -174.5q-20 -116 -127 -175q62 -37 90.5 -101.5t13.5 -144.5zM1635 1536h149l-1342 -1536h-150zM1798 922l-106 -604h90l-22 -123h-90l-34 -195h-134l34 195h-443l14 85l512 642h179zM1557 318l80 459l-354 -459h274z " />
<glyph unicode="&#xbf;" horiz-adv-x="1016" d="M588 844q-45 0 -72 33t-19 78q6 39 37 65.5t70 26.5q45 0 72.5 -33t19.5 -79q-7 -37 -39 -64t-69 -27zM356 -516q-192 0 -295.5 118.5t-71.5 301.5q14 78 45 138.5t70 96.5t83 64.5t87.5 51.5t80 47.5t63.5 62t36 87.5l26 151h126l-26 -143q-13 -75 -43 -129.5t-68 -86.5 t-82 -56.5t-87.5 -48.5t-81.5 -53.5t-67.5 -80t-41.5 -120.5q-22 -124 47.5 -202.5t201.5 -78.5q128 0 230.5 80.5t133.5 201.5l122 -10q-36 -171 -173.5 -281.5t-314.5 -110.5z" />
<glyph unicode="&#xc0;" horiz-adv-x="1335" d="M966 1720l-62 -61l-289 289l93 89zM1061 0l-54 262h-749l-147 -262h-160l909 1573l356 -1573h-155zM332 394h647l-175 841z" />
<glyph unicode="&#xc1;" horiz-adv-x="1335" d="M1225 1949l-382 -290l-48 61l364 318zM-49 0l909 1573l356 -1573h-155l-54 262h-749l-147 -262h-160zM332 394h647l-175 841z" />
<glyph unicode="&#xc2;" horiz-adv-x="1335" d="M928 1918l-244 -255l-69 43l253 306h140l149 -306l-78 -43zM1061 0l-54 262h-749l-147 -262h-160l909 1573l356 -1573h-155zM332 394h647l-175 841z" />
<glyph unicode="&#xc3;" horiz-adv-x="1335" d="M779 1825q-56 0 -95.5 -47.5t-52.5 -119.5l-102 10q20 112 85.5 185.5t161.5 73.5q65 0 101.5 -31.5t65.5 -85.5q28 -55 86 -55q53 0 91.5 44t51.5 122l100 -10q-21 -118 -86.5 -188.5t-160.5 -70.5q-37 0 -65 10t-47.5 30.5t-29.5 35.5t-24 41q-16 29 -33.5 42.5 t-46.5 13.5zM-49 0l909 1573l356 -1573h-155l-54 262h-749l-147 -262h-160zM332 394h647l-175 841z" />
<glyph unicode="&#xc4;" horiz-adv-x="1335" d="M709 1655q-44 0 -71.5 33t-19.5 77q6 39 37.5 65.5t69.5 26.5q45 0 72.5 -33t19.5 -79q-7 -37 -38.5 -63.5t-69.5 -26.5zM1069 1655q-45 0 -72.5 33t-19.5 77q7 39 39 65.5t69 26.5q46 0 72.5 -33t18.5 -79q-7 -38 -38 -64t-69 -26zM1061 0l-54 262h-749l-147 -262h-160 l909 1573l356 -1573h-155zM332 394h647l-175 841z" />
<glyph unicode="&#xc5;" horiz-adv-x="1335" d="M891 1667q-88 0 -140.5 63.5t-38.5 150.5q15 81 83 138t149 57q87 0 138.5 -63t35.5 -151q-14 -80 -80.5 -137.5t-146.5 -57.5zM789 1862q-8 -51 19.5 -84.5t77.5 -33.5q56 0 102 40t56 97q9 49 -18.5 84t-75.5 35q-56 0 -103 -41t-58 -97zM1061 0l-54 262h-749 l-147 -262h-160l909 1573l356 -1573h-155zM332 394h647l-175 841z" />
<glyph unicode="&#xc6;" horiz-adv-x="1768" d="M1829 1395h-688l-99 -556h602l-25 -141h-602l-97 -557h688l-24 -141h-826l65 373h-497l-213 -373h-163l888 1536h1016zM847 507l159 907h-86l-518 -907h445z" />
<glyph unicode="&#xc7;" horiz-adv-x="1505" d="M1069 1556q167 0 304.5 -65t228.5 -181l-114 -87q-72 92 -181.5 142.5t-243.5 50.5q-179 0 -345.5 -87.5t-281.5 -239.5t-146 -331q-31 -175 28.5 -321.5t191 -231.5t305.5 -85q139 0 271.5 54t241.5 150l89 -103q-125 -111 -277.5 -174t-311.5 -67l-82 -119 q110 22 177.5 -36t50.5 -159q-15 -83 -82 -140.5t-151 -57.5q-70 0 -134 38.5t-87 93.5l78 25q17 -31 58 -51.5t81 -20.5q55 0 100 39t54 94q12 70 -42.5 95t-147.5 -7l-67 48l105 161q-198 18 -345 127.5t-212 286t-29 381.5q37 212 172.5 391t333 283t410.5 104z" />
<glyph unicode="&#xc8;" horiz-adv-x="1148" d="M931 1720l-62 -61l-289 289l93 89zM1211 1400h-686l-99 -564h601l-25 -136h-600l-99 -564h686l-23 -136h-827l270 1536h827z" />
<glyph unicode="&#xc9;" horiz-adv-x="1148" d="M1190 1949l-382 -290l-48 61l364 318zM1211 1400h-686l-99 -564h601l-25 -136h-600l-99 -564h686l-23 -136h-827l270 1536h827z" />
<glyph unicode="&#xca;" horiz-adv-x="1148" d="M893 1918l-244 -255l-69 43l253 306h140l149 -306l-78 -43zM1211 1400h-686l-99 -564h601l-25 -136h-600l-99 -564h686l-23 -136h-827l270 1536h827z" />
<glyph unicode="&#xcb;" horiz-adv-x="1148" d="M674 1655q-44 0 -71.5 33t-19.5 77q6 39 37.5 65.5t69.5 26.5q45 0 72.5 -33t19.5 -79q-7 -37 -38.5 -63.5t-69.5 -26.5zM1034 1655q-45 0 -72.5 33t-19.5 77q7 39 39 65.5t69 26.5q46 0 72.5 -33t18.5 -79q-7 -38 -38 -64t-69 -26zM1211 1400h-686l-99 -564h601 l-25 -136h-600l-99 -564h686l-23 -136h-827l270 1536h827z" />
<glyph unicode="&#xcc;" horiz-adv-x="586" d="M525 1659l-289 289l93 89l258 -317zM139 0l270 1536h141l-270 -1536h-141z" />
<glyph unicode="&#xcd;" horiz-adv-x="586" d="M464 1659l-48 61l364 318l66 -89zM139 0l270 1536h141l-270 -1536h-141z" />
<glyph unicode="&#xce;" horiz-adv-x="586" d="M305 1663l-69 43l253 306h140l149 -306l-78 -43l-151 255zM139 0l270 1536h141l-270 -1536h-141z" />
<glyph unicode="&#xcf;" horiz-adv-x="586" d="M330 1655q-44 0 -71.5 33t-19.5 77q6 39 37.5 65.5t69.5 26.5q45 0 72.5 -33t19.5 -79q-7 -37 -38.5 -63.5t-69.5 -26.5zM690 1655q-45 0 -72.5 33t-19.5 77q7 39 39 65.5t69 26.5q46 0 72.5 -33t18.5 -79q-7 -38 -38 -64t-69 -26zM139 0l270 1536h141l-270 -1536h-141z " />
<glyph unicode="&#xd0;" horiz-adv-x="1496" d="M812 1536q104 0 199 -28t170.5 -78.5t135 -121.5t93.5 -157.5t46 -186t-9 -206.5q-36 -206 -168 -380.5t-326 -276t-402 -101.5h-412l125 711h-160l17 99h160l128 726h403zM1310 778q31 173 -26.5 315t-186.5 222t-302 80h-272l-103 -585h281l-17 -99h-281l-100 -570h261 q173 0 333 83t271 229.5t142 324.5z" />
<glyph unicode="&#xd1;" horiz-adv-x="1584" d="M894 1825q-56 0 -95.5 -47.5t-52.5 -119.5l-102 10q20 112 85.5 185.5t161.5 73.5q65 0 101.5 -31.5t65.5 -85.5q28 -55 86 -55q53 0 91.5 44t51.5 122l100 -10q-21 -118 -86.5 -188.5t-160.5 -70.5q-37 0 -65 10t-47.5 30.5t-29.5 35.5t-24 41q-16 29 -33.5 42.5 t-46.5 13.5zM1548 1536l-282 -1596l-776 1273l-212 -1213h-141l281 1598l777 -1273l214 1211h139z" />
<glyph unicode="&#xd2;" horiz-adv-x="1776" d="M1121 1659l-289 289l93 89l258 -317zM810 -20q-130 0 -245 40.5t-199 113t-142.5 173t-74.5 219.5t4 252q37 212 172.5 391t333 283t410.5 104q130 0 245 -40.5t199 -113t142.5 -173t74.5 -219.5t-4 -252q-37 -212 -173 -391t-333.5 -283t-409.5 -104zM815 120 q134 0 265 52t234.5 140t177 209.5t97.5 256.5q31 175 -28 321.5t-191 231.5t-307 85q-179 0 -345.5 -87.5t-281.5 -239.5t-146 -331q-31 -175 28.5 -321.5t191 -231.5t305.5 -85z" />
<glyph unicode="&#xd3;" horiz-adv-x="1776" d="M1060 1659l-48 61l364 318l66 -89zM810 -20q-130 0 -245 40.5t-199 113t-142.5 173t-74.5 219.5t4 252q37 212 172.5 391t333 283t410.5 104q130 0 245 -40.5t199 -113t142.5 -173t74.5 -219.5t-4 -252q-37 -212 -173 -391t-333.5 -283t-409.5 -104zM815 120 q134 0 265 52t234.5 140t177 209.5t97.5 256.5q31 175 -28 321.5t-191 231.5t-307 85q-179 0 -345.5 -87.5t-281.5 -239.5t-146 -331q-31 -175 28.5 -321.5t191 -231.5t305.5 -85z" />
<glyph unicode="&#xd4;" horiz-adv-x="1776" d="M901 1663l-69 43l253 306h140l149 -306l-78 -43l-151 255zM810 -20q-130 0 -245 40.5t-199 113t-142.5 173t-74.5 219.5t4 252q37 212 172.5 391t333 283t410.5 104q130 0 245 -40.5t199 -113t142.5 -173t74.5 -219.5t-4 -252q-37 -212 -173 -391t-333.5 -283 t-409.5 -104zM815 120q134 0 265 52t234.5 140t177 209.5t97.5 256.5q31 175 -28 321.5t-191 231.5t-307 85q-179 0 -345.5 -87.5t-281.5 -239.5t-146 -331q-31 -175 28.5 -321.5t191 -231.5t305.5 -85z" />
<glyph unicode="&#xd5;" horiz-adv-x="1776" d="M1242 1652q-37 0 -65 10t-47.5 30.5t-29.5 35.5t-24 41q-16 29 -33.5 42.5t-46.5 13.5q-56 0 -95.5 -47.5t-52.5 -119.5l-102 10q20 112 85.5 185.5t161.5 73.5q65 0 101.5 -31.5t65.5 -85.5q28 -55 86 -55q53 0 91.5 44t51.5 122l100 -10q-21 -118 -86.5 -188.5 t-160.5 -70.5zM810 -20q-130 0 -245 40.5t-199 113t-142.5 173t-74.5 219.5t4 252q37 212 172.5 391t333 283t410.5 104q130 0 245 -40.5t199 -113t142.5 -173t74.5 -219.5t-4 -252q-37 -212 -173 -391t-333.5 -283t-409.5 -104zM815 120q134 0 265 52t234.5 140t177 209.5 t97.5 256.5q31 175 -28 321.5t-191 231.5t-307 85q-179 0 -345.5 -87.5t-281.5 -239.5t-146 -331q-31 -175 28.5 -321.5t191 -231.5t305.5 -85z" />
<glyph unicode="&#xd6;" horiz-adv-x="1776" d="M926 1655q-44 0 -71.5 33t-19.5 77q6 39 37.5 65.5t69.5 26.5q45 0 72.5 -33t19.5 -79q-7 -37 -38.5 -63.5t-69.5 -26.5zM1286 1655q-45 0 -72.5 33t-19.5 77q7 39 39 65.5t69 26.5q46 0 72.5 -33t18.5 -79q-7 -38 -38 -64t-69 -26zM810 -20q-130 0 -245 40.5t-199 113 t-142.5 173t-74.5 219.5t4 252q37 212 172.5 391t333 283t410.5 104q130 0 245 -40.5t199 -113t142.5 -173t74.5 -219.5t-4 -252q-37 -212 -173 -391t-333.5 -283t-409.5 -104zM815 120q134 0 265 52t234.5 140t177 209.5t97.5 256.5q31 175 -28 321.5t-191 231.5t-307 85 q-179 0 -345.5 -87.5t-281.5 -239.5t-146 -331q-31 -175 28.5 -321.5t191 -231.5t305.5 -85z" />
<glyph unicode="&#xd7;" horiz-adv-x="1047" d="M246 287l-90 91l276 277l-276 275l90 91l278 -275l276 275l91 -92l-277 -274l277 -276l-91 -92l-276 276z" />
<glyph unicode="&#xd8;" horiz-adv-x="1776" d="M1545 1373q116 -112 164.5 -272t16.5 -343q-37 -212 -173 -391t-333.5 -283t-409.5 -104q-217 0 -384 109l-143 -164l-99 63l151 173q-116 112 -165 273t-17 344q37 212 172.5 391t333 283t410.5 104q220 0 387 -111l143 164l95 -65zM290 758q-26 -145 12 -272t128 -216 l931 1066q-130 80 -298 80q-179 0 -345.5 -87.5t-281.5 -239.5t-146 -331zM1589 778q25 145 -12 272t-126 215l-930 -1067q128 -78 294 -78q134 0 265 52t234.5 140t177 209.5t97.5 256.5z" />
<glyph unicode="&#xd9;" horiz-adv-x="1513" d="M987 1659l-289 289l93 89l258 -317zM676 -20q-163 0 -283.5 69.5t-174 191t-27.5 270.5l182 1025h141l-179 -1014q-31 -174 67.5 -288t278.5 -114q187 0 333 118.5t178 293.5l177 1004h141l-183 -1035q-27 -149 -120 -268t-232.5 -186t-298.5 -67z" />
<glyph unicode="&#xda;" horiz-adv-x="1513" d="M926 1659l-48 61l364 318l66 -89zM676 -20q-163 0 -283.5 69.5t-174 191t-27.5 270.5l182 1025h141l-179 -1014q-31 -174 67.5 -288t278.5 -114q187 0 333 118.5t178 293.5l177 1004h141l-183 -1035q-27 -149 -120 -268t-232.5 -186t-298.5 -67z" />
<glyph unicode="&#xdb;" horiz-adv-x="1513" d="M767 1663l-69 43l253 306h140l149 -306l-78 -43l-151 255zM676 -20q-163 0 -283.5 69.5t-174 191t-27.5 270.5l182 1025h141l-179 -1014q-31 -174 67.5 -288t278.5 -114q187 0 333 118.5t178 293.5l177 1004h141l-183 -1035q-27 -149 -120 -268t-232.5 -186t-298.5 -67z " />
<glyph unicode="&#xdc;" horiz-adv-x="1513" d="M792 1655q-44 0 -71.5 33t-19.5 77q6 39 37.5 65.5t69.5 26.5q45 0 72.5 -33t19.5 -79q-7 -37 -38.5 -63.5t-69.5 -26.5zM1152 1655q-45 0 -72.5 33t-19.5 77q7 39 39 65.5t69 26.5q46 0 72.5 -33t18.5 -79q-7 -38 -38 -64t-69 -26zM676 -20q-163 0 -283.5 69.5t-174 191 t-27.5 270.5l182 1025h141l-179 -1014q-31 -174 67.5 -288t278.5 -114q187 0 333 118.5t178 293.5l177 1004h141l-183 -1035q-27 -149 -120 -268t-232.5 -186t-298.5 -67z" />
<glyph unicode="&#xdd;" horiz-adv-x="1247" d="M1177 1949l-382 -290l-48 61l364 318zM1416 1536l-679 -811l-128 -725h-141l128 727l-392 809h172l315 -663l550 663h175z" />
<glyph unicode="&#xde;" horiz-adv-x="1245" d="M900 1325q175 0 278 -127.5t72 -307.5q-31 -171 -173 -290t-316 -119h-403l-84 -481h-136l232 1325h2l35 201h136l-35 -201h392zM1114 913q20 121 -47.5 198.5t-192.5 77.5h-390l-101 -572h380q127 0 227.5 84t123.5 212z" />
<glyph unicode="&#xdf;" horiz-adv-x="1270" d="M1211 1113q-18 -104 -79.5 -192t-152.5 -145q108 -51 161 -156.5t30 -236.5q-30 -168 -162 -275.5t-297 -107.5h-214l24 141h183q117 0 214 73t119 195t-50.5 206t-200.5 84h-131l20 117h49q125 0 230.5 91t129.5 222q22 124 -51 204.5t-210 80.5q-147 0 -262.5 -90 t-138.5 -222l-194 -1102h-136l196 1112q31 185 183.5 304.5t351.5 119.5q200 0 310 -120.5t78 -302.5z" />
<glyph unicode="&#xe0;" horiz-adv-x="1261" d="M773 1147l-62 -61l-289 289l93 89zM1032 963h136l-168 -963h-136l27 160q-78 -84 -182 -131t-222 -47q-131 0 -233 68t-149.5 185.5t-23.5 255.5q24 133 109 246.5t206 178.5t248 65q124 0 216 -51t142 -141zM508 115q156 0 284.5 110t157.5 266q27 149 -58.5 253 t-234.5 104q-155 0 -284.5 -110.5t-157.5 -265.5q-27 -149 58.5 -253t234.5 -104z" />
<glyph unicode="&#xe1;" horiz-adv-x="1261" d="M1032 1376l-382 -290l-48 61l364 318zM1032 963h136l-168 -963h-136l27 160q-78 -84 -182 -131t-222 -47q-131 0 -233 68t-149.5 185.5t-23.5 255.5q24 133 109 246.5t206 178.5t248 65q124 0 216 -51t142 -141zM508 115q156 0 284.5 110t157.5 266q27 149 -58.5 253 t-234.5 104q-155 0 -284.5 -110.5t-157.5 -265.5q-27 -149 58.5 -253t234.5 -104z" />
<glyph unicode="&#xe2;" horiz-adv-x="1261" d="M735 1345l-244 -255l-69 43l253 306h140l149 -306l-78 -43zM1032 963h136l-168 -963h-136l27 160q-78 -84 -182 -131t-222 -47q-131 0 -233 68t-149.5 185.5t-23.5 255.5q24 133 109 246.5t206 178.5t248 65q124 0 216 -51t142 -141zM508 115q156 0 284.5 110t157.5 266 q27 149 -58.5 253t-234.5 104q-155 0 -284.5 -110.5t-157.5 -265.5q-27 -149 58.5 -253t234.5 -104z" />
<glyph unicode="&#xe3;" horiz-adv-x="1261" d="M586 1252q-56 0 -95.5 -47.5t-52.5 -119.5l-102 10q20 112 85.5 185.5t161.5 73.5q65 0 101.5 -31.5t65.5 -85.5q28 -55 86 -55q53 0 91.5 44t51.5 122l100 -10q-21 -118 -86.5 -188.5t-160.5 -70.5q-37 0 -65 10t-47.5 30.5t-29.5 35.5t-24 41q-16 29 -33.5 42.5 t-46.5 13.5zM1032 963h136l-168 -963h-136l27 160q-78 -84 -182 -131t-222 -47q-131 0 -233 68t-149.5 185.5t-23.5 255.5q24 133 109 246.5t206 178.5t248 65q124 0 216 -51t142 -141zM508 115q156 0 284.5 110t157.5 266q27 149 -58.5 253t-234.5 104 q-155 0 -284.5 -110.5t-157.5 -265.5q-27 -149 58.5 -253t234.5 -104z" />
<glyph unicode="&#xe4;" horiz-adv-x="1261" d="M527 1144q-44 0 -71.5 32.5t-19.5 76.5q7 39 38.5 65.5t69.5 26.5q44 0 71 -32.5t20 -78.5q-7 -37 -39 -63.5t-69 -26.5zM887 1144q-45 0 -72.5 32.5t-19.5 76.5q7 39 38.5 65.5t69.5 26.5q45 0 72 -32.5t19 -78.5q-7 -37 -38 -63.5t-69 -26.5zM1032 963h136l-168 -963 h-136l27 160q-78 -84 -182 -131t-222 -47q-131 0 -233 68t-149.5 185.5t-23.5 255.5q24 133 109 246.5t206 178.5t248 65q124 0 216 -51t142 -141zM508 115q156 0 284.5 110t157.5 266q27 149 -58.5 253t-234.5 104q-155 0 -284.5 -110.5t-157.5 -265.5q-27 -149 58.5 -253 t234.5 -104z" />
<glyph unicode="&#xe5;" horiz-adv-x="1261" d="M723 1147q-88 0 -141 64t-37 150q13 81 81 138t149 57q87 0 138.5 -63t37.5 -151q-14 -80 -81 -137.5t-147 -57.5zM622 1342q-9 -51 18 -84t77 -33q56 0 103 39.5t57 96.5q8 49 -19.5 84.5t-76.5 35.5q-56 0 -102.5 -41.5t-56.5 -97.5zM1032 963h136l-168 -963h-136 l27 160q-78 -84 -182 -131t-222 -47q-131 0 -233 68t-149.5 185.5t-23.5 255.5q24 133 109 246.5t206 178.5t248 65q124 0 216 -51t142 -141zM508 115q156 0 284.5 110t157.5 266q27 149 -58.5 253t-234.5 104q-155 0 -284.5 -110.5t-157.5 -265.5q-27 -149 58.5 -253 t234.5 -104z" />
<glyph unicode="&#xe6;" horiz-adv-x="1813" d="M1329 981q138 0 243.5 -65t154.5 -178.5t25 -248.5l-4 -22h-872v-1q-25 -151 62.5 -256t236.5 -105q97 0 188 45.5t157 124.5l111 -59q-85 -111 -205.5 -172.5t-251.5 -61.5q-123 0 -220 53t-152 146q-110 -93 -228.5 -146.5t-214.5 -53.5q-158 0 -243.5 87.5 t-61.5 226.5q51 291 544 291h179q1 2 2.5 6t1.5 6l6 37q19 104 -37 169.5t-162 65.5q-88 0 -170 -45.5t-117 -113.5l-127 53q53 98 168 158t248 60q119 0 203.5 -49.5t117.5 -135.5q84 86 193.5 135t224.5 49zM1327 857q-127 0 -238 -72.5t-170 -189.5l-3 -17h712 q-5 123 -89 201t-212 78zM366 102q84 0 189 54.5t199 144.5q-18 83 -5 175h-172q-353 0 -391 -203q-13 -79 35.5 -125t144.5 -46z" />
<glyph unicode="&#xe7;" horiz-adv-x="1105" d="M506 115q113 0 212.5 59t162.5 156l118 -68q-77 -121 -201.5 -196t-262.5 -83l-84 -122q110 22 177.5 -36t50.5 -159q-15 -83 -82 -140.5t-151 -57.5q-70 0 -134 38.5t-87 93.5l78 25q17 -31 58 -51.5t81 -20.5q55 0 100 39t54 94q12 70 -42.5 95t-147.5 -7l-67 48 l107 163q-190 21 -295 165.5t-71 340.5q37 205 205.5 347.5t373.5 142.5q152 0 262.5 -80t149.5 -211l-130 -47q-28 94 -103 149t-182 55q-159 0 -286.5 -108.5t-155.5 -266.5q-27 -152 57 -254.5t235 -102.5z" />
<glyph unicode="&#xe8;" horiz-adv-x="1143" d="M784 1159l-62 -61l-289 289l93 89zM659 981q138 0 243.5 -65t154.5 -178.5t25 -248.5l-4 -22h-872v-1q-25 -151 62.5 -256t236.5 -105q97 0 188 45.5t157 124.5l111 -59q-85 -111 -205.5 -172.5t-251.5 -61.5q-105 0 -193 40.5t-144.5 108.5t-80 162t-5.5 198 q36 204 204.5 347t373.5 143zM657 857q-131 0 -245.5 -77.5t-170.5 -201.5h717q-5 123 -89 201t-212 78z" />
<glyph unicode="&#xe9;" horiz-adv-x="1143" d="M1043 1388l-382 -290l-48 61l364 318zM659 981q138 0 243.5 -65t154.5 -178.5t25 -248.5l-4 -22h-872v-1q-25 -151 62.5 -256t236.5 -105q97 0 188 45.5t157 124.5l111 -59q-85 -111 -205.5 -172.5t-251.5 -61.5q-105 0 -193 40.5t-144.5 108.5t-80 162t-5.5 198 q36 204 204.5 347t373.5 143zM657 857q-131 0 -245.5 -77.5t-170.5 -201.5h717q-5 123 -89 201t-212 78z" />
<glyph unicode="&#xea;" horiz-adv-x="1143" d="M746 1357l-244 -255l-69 43l253 306h140l149 -306l-78 -43zM659 981q138 0 243.5 -65t154.5 -178.5t25 -248.5l-4 -22h-872v-1q-25 -151 62.5 -256t236.5 -105q97 0 188 45.5t157 124.5l111 -59q-85 -111 -205.5 -172.5t-251.5 -61.5q-105 0 -193 40.5t-144.5 108.5 t-80 162t-5.5 198q36 204 204.5 347t373.5 143zM657 857q-131 0 -245.5 -77.5t-170.5 -201.5h717q-5 123 -89 201t-212 78z" />
<glyph unicode="&#xeb;" horiz-adv-x="1143" d="M538 1156q-44 0 -71.5 32.5t-19.5 76.5q7 39 38.5 65.5t69.5 26.5q44 0 71 -32.5t20 -78.5q-7 -37 -39 -63.5t-69 -26.5zM898 1156q-45 0 -72.5 32.5t-19.5 76.5q7 39 38.5 65.5t69.5 26.5q45 0 72 -32.5t19 -78.5q-7 -37 -38 -63.5t-69 -26.5zM659 981q138 0 243.5 -65 t154.5 -178.5t25 -248.5l-4 -22h-872v-1q-25 -151 62.5 -256t236.5 -105q97 0 188 45.5t157 124.5l111 -59q-85 -111 -205.5 -172.5t-251.5 -61.5q-105 0 -193 40.5t-144.5 108.5t-80 162t-5.5 198q36 204 204.5 347t373.5 143zM657 857q-131 0 -245.5 -77.5t-170.5 -201.5 h717q-5 123 -89 201t-212 78z" />
<glyph unicode="&#xec;" horiz-adv-x="489" d="M375 1085l-289 289l93 89l258 -317zM93 0l168 963h136l-168 -963h-136z" />
<glyph unicode="&#xed;" horiz-adv-x="489" d="M314 1085l-48 61l364 318l66 -89zM93 0l168 963h136l-168 -963h-136z" />
<glyph unicode="&#xee;" horiz-adv-x="489" d="M155 1089l-69 43l253 306h140l149 -306l-78 -43l-151 255zM93 0l168 963h136l-168 -963h-136z" />
<glyph unicode="&#xef;" horiz-adv-x="489" d="M191 1143q-44 0 -71.5 32.5t-19.5 76.5q7 39 38.5 65.5t69.5 26.5q44 0 71 -32.5t20 -78.5q-7 -37 -39 -63.5t-69 -26.5zM551 1143q-45 0 -72.5 32.5t-19.5 76.5q7 39 38.5 65.5t69.5 26.5q45 0 72 -32.5t19 -78.5q-7 -37 -38 -63.5t-69 -26.5zM93 0l168 963h136 l-168 -963h-136z" />
<glyph unicode="&#xf0;" horiz-adv-x="1217" d="M900 1308q137 -135 192 -357t9 -487l-2 1l-1 -7q-23 -138 -110 -248t-212 -169t-264 -59q-106 0 -196 40.5t-148 108.5t-83 162.5t-7 197.5q24 134 111 246.5t215 178t265 65.5q202 0 329 -143q-26 253 -170 393l-134 -141l-62 51l135 140q-121 85 -290 87l28 101 q189 0 337 -110l111 115l58 -49zM971 491q27 155 -61.5 263.5t-242.5 108.5q-163 0 -297 -114.5t-163 -276.5q-26 -156 62.5 -264.5t244.5 -108.5q161 0 294.5 114.5t162.5 277.5z" />
<glyph unicode="&#xf1;" horiz-adv-x="1066" d="M946 1348l100 -10q-21 -118 -86.5 -188.5t-160.5 -70.5q-37 0 -65 10t-47.5 30.5t-29.5 35.5t-24 41q-16 29 -33.5 42.5t-46.5 13.5q-56 0 -95.5 -47.5t-52.5 -119.5l-102 10q20 112 85.5 185.5t161.5 73.5q65 0 101.5 -31.5t65.5 -85.5q28 -55 86 -55q53 0 91.5 44 t51.5 122zM646 981q147 0 234.5 -104.5t62.5 -249.5l-110 -627h-137l110 627q16 97 -36.5 162.5t-144.5 65.5q-98 0 -180 -64t-105 -156l-111 -635h-136l168 963h136l-15 -84q118 102 264 102z" />
<glyph unicode="&#xf2;" horiz-adv-x="1163" d="M711 1086l-289 289l93 89l258 -317zM503 -18q-105 0 -192.5 40.5t-144 108.5t-80.5 162t-6 198q23 134 108.5 246.5t210.5 178t260 65.5q104 0 191.5 -40.5t144 -108.5t80.5 -162t6 -198q-23 -134 -108.5 -246.5t-210.5 -178t-259 -65.5zM506 115q155 0 284 110t158 266 q27 149 -58.5 252.5t-233.5 103.5q-157 0 -285.5 -109.5t-156.5 -265.5q-27 -149 58 -253t234 -104z" />
<glyph unicode="&#xf3;" horiz-adv-x="1163" d="M650 1086l-48 61l364 318l66 -89zM503 -18q-105 0 -192.5 40.5t-144 108.5t-80.5 162t-6 198q23 134 108.5 246.5t210.5 178t260 65.5q104 0 191.5 -40.5t144 -108.5t80.5 -162t6 -198q-23 -134 -108.5 -246.5t-210.5 -178t-259 -65.5zM506 115q155 0 284 110t158 266 q27 149 -58.5 252.5t-233.5 103.5q-157 0 -285.5 -109.5t-156.5 -265.5q-27 -149 58 -253t234 -104z" />
<glyph unicode="&#xf4;" horiz-adv-x="1163" d="M491 1090l-69 43l253 306h140l149 -306l-78 -43l-151 255zM503 -18q-105 0 -192.5 40.5t-144 108.5t-80.5 162t-6 198q23 134 108.5 246.5t210.5 178t260 65.5q104 0 191.5 -40.5t144 -108.5t80.5 -162t6 -198q-23 -134 -108.5 -246.5t-210.5 -178t-259 -65.5zM506 115 q155 0 284 110t158 266q27 149 -58.5 252.5t-233.5 103.5q-157 0 -285.5 -109.5t-156.5 -265.5q-27 -149 58 -253t234 -104z" />
<glyph unicode="&#xf5;" horiz-adv-x="1163" d="M832 1079q-37 0 -65 10t-47.5 30.5t-29.5 35.5t-24 41q-16 29 -33.5 42.5t-46.5 13.5q-56 0 -95.5 -47.5t-52.5 -119.5l-102 10q20 112 85.5 185.5t161.5 73.5q65 0 101.5 -31.5t65.5 -85.5q28 -55 86 -55q53 0 91.5 44t51.5 122l100 -10q-21 -118 -86.5 -188.5 t-160.5 -70.5zM503 -18q-105 0 -192.5 40.5t-144 108.5t-80.5 162t-6 198q23 134 108.5 246.5t210.5 178t260 65.5q104 0 191.5 -40.5t144 -108.5t80.5 -162t6 -198q-23 -134 -108.5 -246.5t-210.5 -178t-259 -65.5zM506 115q155 0 284 110t158 266q27 149 -58.5 252.5 t-233.5 103.5q-157 0 -285.5 -109.5t-156.5 -265.5q-27 -149 58 -253t234 -104z" />
<glyph unicode="&#xf6;" horiz-adv-x="1163" d="M527 1144q-44 0 -71.5 32.5t-19.5 76.5q7 39 38.5 65.5t69.5 26.5q44 0 71 -32.5t20 -78.5q-7 -37 -39 -63.5t-69 -26.5zM887 1144q-45 0 -72.5 32.5t-19.5 76.5q7 39 38.5 65.5t69.5 26.5q45 0 72 -32.5t19 -78.5q-7 -37 -38 -63.5t-69 -26.5zM503 -18 q-105 0 -192.5 40.5t-144 108.5t-80.5 162t-6 198q23 134 108.5 246.5t210.5 178t260 65.5q104 0 191.5 -40.5t144 -108.5t80.5 -162t6 -198q-23 -134 -108.5 -246.5t-210.5 -178t-259 -65.5zM506 115q155 0 284 110t158 266q27 149 -58.5 252.5t-233.5 103.5 q-157 0 -285.5 -109.5t-156.5 -265.5q-27 -149 58 -253t234 -104z" />
<glyph unicode="&#xf7;" horiz-adv-x="943" d="M468 923q-42 0 -73 30.5t-31 74.5q0 43 31.5 74.5t72.5 31.5q44 0 76 -31.5t32 -74.5q0 -44 -32 -74.5t-76 -30.5zM118 608v130h706v-130h-706zM468 213q-42 0 -73 30.5t-31 75.5q0 42 31.5 73t72.5 31q44 0 76 -31t32 -73q0 -45 -32 -75.5t-76 -30.5z" />
<glyph unicode="&#xf8;" horiz-adv-x="1163" d="M969 860q72 -71 102 -172t10 -216q-23 -134 -108.5 -246.5t-210.5 -178t-259 -65.5q-138 0 -242 67l-149 -171l-71 45l154 177q-73 71 -104 173t-11 218q23 134 108.5 246.5t210.5 178t260 65.5q140 0 245 -69l149 170l68 -47zM214 472q-30 -163 72 -269l527 604 q-69 40 -157 40q-157 0 -285.5 -109.5t-156.5 -265.5zM948 491q14 78 -4.5 146.5t-65.5 118.5l-526 -603q68 -38 154 -38q155 0 284 110t158 266z" />
<glyph unicode="&#xf9;" horiz-adv-x="1031" d="M643 1086l-289 289l93 89l258 -317zM435 -18q-166 0 -252.5 102.5t-57.5 265.5l107 613h137l-106 -609q-19 -109 30.5 -174t144.5 -65q103 0 183.5 70t99.5 179l104 599h137l-109 -623q-28 -163 -143 -260.5t-275 -97.5z" />
<glyph unicode="&#xfa;" horiz-adv-x="1031" d="M582 1086l-48 61l364 318l66 -89zM435 -18q-166 0 -252.5 102.5t-57.5 265.5l107 613h137l-106 -609q-19 -109 30.5 -174t144.5 -65q103 0 183.5 70t99.5 179l104 599h137l-109 -623q-28 -163 -143 -260.5t-275 -97.5z" />
<glyph unicode="&#xfb;" horiz-adv-x="1031" d="M423 1090l-69 43l253 306h140l149 -306l-78 -43l-151 255zM435 -18q-166 0 -252.5 102.5t-57.5 265.5l107 613h137l-106 -609q-19 -109 30.5 -174t144.5 -65q103 0 183.5 70t99.5 179l104 599h137l-109 -623q-28 -163 -143 -260.5t-275 -97.5z" />
<glyph unicode="&#xfc;" horiz-adv-x="1031" d="M459 1144q-44 0 -71.5 32.5t-19.5 76.5q7 39 38.5 65.5t69.5 26.5q44 0 71 -32.5t20 -78.5q-7 -37 -39 -63.5t-69 -26.5zM819 1144q-45 0 -72.5 32.5t-19.5 76.5q7 39 38.5 65.5t69.5 26.5q45 0 72 -32.5t19 -78.5q-7 -37 -38 -63.5t-69 -26.5zM435 -18 q-166 0 -252.5 102.5t-57.5 265.5l107 613h137l-106 -609q-19 -109 30.5 -174t144.5 -65q103 0 183.5 70t99.5 179l104 599h137l-109 -623q-28 -163 -143 -260.5t-275 -97.5z" />
<glyph unicode="&#xfd;" horiz-adv-x="958" d="M918 1376l-382 -290l-48 61l364 318zM868 963h156l-840 -1455h-149l285 501l-219 954h150l172 -805z" />
<glyph unicode="&#xfe;" horiz-adv-x="1254" d="M767 981q132 0 234 -68t149 -185.5t23 -255.5q-24 -133 -108.5 -246.5t-205.5 -178.5t-248 -65q-121 0 -211.5 49t-142.5 135l-112 -647h-137l357 2017h136l-127 -721q166 166 393 166zM1039 491q27 149 -58.5 252.5t-232.5 103.5q-156 0 -285 -109.5t-158 -265.5 q-27 -149 59 -253t235 -104q155 0 283.5 110t156.5 266z" />
<glyph unicode="&#xff;" horiz-adv-x="958" d="M413 1144q-44 0 -71.5 32.5t-19.5 76.5q7 39 38.5 65.5t69.5 26.5q44 0 71 -32.5t20 -78.5q-7 -37 -39 -63.5t-69 -26.5zM773 1144q-45 0 -72.5 32.5t-19.5 76.5q7 39 38.5 65.5t69.5 26.5q45 0 72 -32.5t19 -78.5q-7 -37 -38 -63.5t-69 -26.5zM868 963h156l-840 -1455 h-149l285 501l-219 954h150l172 -805z" />
<glyph unicode="&#x100;" horiz-adv-x="1335" d="M1231 1850l-18 -96h-634l17 96h635zM-49 0l909 1573l356 -1573h-155l-54 262h-749l-147 -262h-160zM332 394h647l-175 841z" />
<glyph unicode="&#x101;" horiz-adv-x="1261" d="M1038 1277l-18 -96h-634l17 96h635zM1032 963h136l-168 -963h-136l27 160q-78 -84 -182 -131t-222 -47q-131 0 -233 68t-149.5 185.5t-23.5 255.5q24 133 109 246.5t206 178.5t248 65q124 0 216 -51t142 -141zM508 115q156 0 284.5 110t157.5 266q27 149 -58.5 253 t-234.5 104q-155 0 -284.5 -110.5t-157.5 -265.5q-27 -149 58.5 -253t234.5 -104z" />
<glyph unicode="&#x102;" horiz-adv-x="1335" d="M898 1717q-147 0 -229 86t-57 220h110q-16 -96 29.5 -156t143.5 -60q105 0 179 63t91 153h110q-24 -140 -129.5 -223t-247.5 -83zM-49 0l909 1573l356 -1573h-155l-54 262h-749l-147 -262h-160zM332 394h647l-175 841z" />
<glyph unicode="&#x103;" horiz-adv-x="1261" d="M705 1144q-147 0 -229 86t-57 220h110q-16 -96 29.5 -156t143.5 -60q105 0 179 63t91 153h110q-24 -140 -129.5 -223t-247.5 -83zM1032 963h136l-168 -963h-136l27 160q-78 -84 -182 -131t-222 -47q-131 0 -233 68t-149.5 185.5t-23.5 255.5q24 133 109 246.5t206 178.5 t248 65q124 0 216 -51t142 -141zM508 115q156 0 284.5 110t157.5 266q27 149 -58.5 253t-234.5 104q-155 0 -284.5 -110.5t-157.5 -265.5q-27 -149 58.5 -253t234.5 -104z" />
<glyph unicode="&#x104;" horiz-adv-x="1335" d="M1218 -332l56 -100q-121 -102 -269 -97q-104 4 -156 62.5t-34 156.5q15 90 87.5 170t182.5 140h-24l-54 262h-749l-147 -262h-160l909 1573l356 -1572l2 -1q-116 -55 -201.5 -133t-102.5 -168q-10 -56 16.5 -84.5t82.5 -28.5q109 0 205 82zM332 394h647l-175 841z" />
<glyph unicode="&#x105;" horiz-adv-x="1261" d="M795 -414q109 0 205 82l56 -100q-121 -102 -269 -97q-104 4 -156 62.5t-34 156.5q15 90 87.5 170t182.5 140h-3l27 160q-78 -84 -182 -131t-222 -47q-131 0 -233 68t-149.5 185.5t-23.5 255.5q24 133 109 246.5t206 178.5t248 65q124 0 216 -51t142 -141l30 174h136 l-168 -963q-116 -55 -201.5 -133t-102.5 -168q-10 -56 16.5 -84.5t82.5 -28.5zM508 115q156 0 284.5 110t157.5 266q27 149 -58.5 253t-234.5 104q-155 0 -284.5 -110.5t-157.5 -265.5q-27 -149 58.5 -253t234.5 -104z" />
<glyph unicode="&#x106;" horiz-adv-x="1505" d="M1061 1659l-48 61l364 318l66 -89zM810 -20q-130 0 -245 40.5t-199 113t-142.5 173t-74.5 219.5t4 252q37 212 172.5 391t333 283t410.5 104q167 0 304.5 -65t228.5 -181l-114 -87q-72 92 -181.5 142.5t-243.5 50.5q-179 0 -345.5 -87.5t-281.5 -239.5t-146 -331 q-31 -175 28.5 -321.5t191 -231.5t305.5 -85q139 0 271.5 54t241.5 150l89 -103q-128 -114 -285.5 -177.5t-321.5 -63.5z" />
<glyph unicode="&#x107;" horiz-adv-x="1105" d="M651 1086l-48 61l364 318l66 -89zM503 -18q-105 0 -192.5 40t-144 108t-80.5 162.5t-6 198.5q37 205 205.5 347.5t373.5 142.5q152 0 262.5 -80t149.5 -211l-130 -47q-28 94 -103 149t-182 55q-159 0 -286.5 -108.5t-155.5 -266.5q-27 -152 57 -254.5t235 -102.5 q113 0 212.5 59t162.5 156l118 -68q-82 -128 -215.5 -204t-280.5 -76z" />
<glyph unicode="&#x10a;" horiz-adv-x="1505" d="M1120 1723q-44 0 -72 32.5t-21 76.5q8 40 39 66t69 26q45 0 73 -32.5t18 -78.5q-5 -37 -37 -63.5t-69 -26.5zM810 -20q-130 0 -245 40.5t-199 113t-142.5 173t-74.5 219.5t4 252q37 212 172.5 391t333 283t410.5 104q167 0 304.5 -65t228.5 -181l-114 -87 q-72 92 -181.5 142.5t-243.5 50.5q-179 0 -345.5 -87.5t-281.5 -239.5t-146 -331q-31 -175 28.5 -321.5t191 -231.5t305.5 -85q139 0 271.5 54t241.5 150l89 -103q-128 -114 -285.5 -177.5t-321.5 -63.5z" />
<glyph unicode="&#x10b;" horiz-adv-x="1105" d="M710 1150q-44 0 -72 32.5t-21 76.5q8 40 39 66t69 26q45 0 73 -32.5t18 -78.5q-5 -37 -37 -63.5t-69 -26.5zM503 -18q-105 0 -192.5 40t-144 108t-80.5 162.5t-6 198.5q37 205 205.5 347.5t373.5 142.5q152 0 262.5 -80t149.5 -211l-130 -47q-28 94 -103 149t-182 55 q-159 0 -286.5 -108.5t-155.5 -266.5q-27 -152 57 -254.5t235 -102.5q113 0 212.5 59t162.5 156l118 -68q-82 -128 -215.5 -204t-280.5 -76z" />
<glyph unicode="&#x10c;" horiz-adv-x="1505" d="M1035 1698l-147 305l81 45l148 -257l242 257l71 -45l-255 -305h-140zM810 -20q-130 0 -245 40.5t-199 113t-142.5 173t-74.5 219.5t4 252q37 212 172.5 391t333 283t410.5 104q167 0 304.5 -65t228.5 -181l-114 -87q-72 92 -181.5 142.5t-243.5 50.5q-179 0 -345.5 -87.5 t-281.5 -239.5t-146 -331q-31 -175 28.5 -321.5t191 -231.5t305.5 -85q139 0 271.5 54t241.5 150l89 -103q-128 -114 -285.5 -177.5t-321.5 -63.5z" />
<glyph unicode="&#x10d;" horiz-adv-x="1105" d="M625 1125l-147 305l81 45l148 -257l242 257l71 -45l-255 -305h-140zM503 -18q-105 0 -192.5 40t-144 108t-80.5 162.5t-6 198.5q37 205 205.5 347.5t373.5 142.5q152 0 262.5 -80t149.5 -211l-130 -47q-28 94 -103 149t-182 55q-159 0 -286.5 -108.5t-155.5 -266.5 q-27 -152 57 -254.5t235 -102.5q113 0 212.5 59t162.5 156l118 -68q-82 -128 -215.5 -204t-280.5 -76z" />
<glyph unicode="&#x10e;" horiz-adv-x="1496" d="M774 1698l-147 305l81 45l148 -257l242 257l71 -45l-255 -305h-140zM139 0l270 1536h403q104 0 199 -28t170.5 -78.5t135 -121.5t93.5 -157.5t46 -186t-9 -206.5q-36 -206 -168 -380.5t-326 -276t-402 -101.5h-412zM303 141h261q173 0 333 83t271 229.5t142 324.5 q31 173 -26.5 315t-186.5 222t-302 80h-272z" />
<glyph unicode="&#x10f;" horiz-adv-x="1263" d="M1636 1556q45 0 69 -21.5t24 -55.5q0 -40 -25 -73l-294 -399h-111l258 362q-24 11 -35 40t0 66q14 33 47.5 57t66.5 24zM1004 786l131 750h136l-271 -1536h-136l27 160q-78 -84 -182 -131t-222 -47q-131 0 -233 68t-149.5 185.5t-23.5 255.5q24 133 109 246.5t206 178.5 t248 65q125 0 217.5 -51.5t142.5 -143.5zM508 115q156 0 284.5 110t157.5 266q27 149 -58.5 253t-234.5 104q-155 0 -284.5 -110.5t-157.5 -265.5q-27 -149 58.5 -253t234.5 -104z" />
<glyph unicode="&#x110;" horiz-adv-x="1496" d="M812 1536q104 0 199 -28t170.5 -78.5t135 -121.5t93.5 -157.5t46 -186t-9 -206.5q-36 -206 -168 -380.5t-326 -276t-402 -101.5h-412l125 711h-160l17 99h160l128 726h403zM1310 778q31 173 -26.5 315t-186.5 222t-302 80h-272l-103 -585h281l-17 -99h-281l-100 -570h261 q173 0 333 83t271 229.5t142 324.5z" />
<glyph unicode="&#x111;" horiz-adv-x="1263" d="M1371 1286l-17 -99h-145l-209 -1187h-136l27 160q-78 -84 -182 -131t-222 -47q-131 0 -233 68t-149.5 185.5t-23.5 255.5q24 133 109 246.5t206 178.5t248 65q125 0 217.5 -51.5t142.5 -143.5l70 401h-300l17 99h300l44 250h136l-44 -250h144zM508 115q156 0 284.5 110 t157.5 266q27 149 -58.5 253t-234.5 104q-155 0 -284.5 -110.5t-157.5 -265.5q-27 -149 58.5 -253t234.5 -104z" />
<glyph unicode="&#x112;" horiz-adv-x="1148" d="M1196 1850l-18 -96h-634l17 96h635zM1211 1400h-686l-99 -564h601l-25 -136h-600l-99 -564h686l-23 -136h-827l270 1536h827z" />
<glyph unicode="&#x113;" horiz-adv-x="1143" d="M1049 1289l-18 -96h-634l17 96h635zM659 981q138 0 243.5 -65t154.5 -178.5t25 -248.5l-4 -22h-872v-1q-25 -151 62.5 -256t236.5 -105q97 0 188 45.5t157 124.5l111 -59q-85 -111 -205.5 -172.5t-251.5 -61.5q-105 0 -193 40.5t-144.5 108.5t-80 162t-5.5 198 q36 204 204.5 347t373.5 143zM657 857q-131 0 -245.5 -77.5t-170.5 -201.5h717q-5 123 -89 201t-212 78z" />
<glyph unicode="&#x116;" horiz-adv-x="1148" d="M867 1723q-44 0 -72 32.5t-21 76.5q8 40 39 66t69 26q45 0 73 -32.5t18 -78.5q-5 -37 -37 -63.5t-69 -26.5zM1211 1400h-686l-99 -564h601l-25 -136h-600l-99 -564h686l-23 -136h-827l270 1536h827z" />
<glyph unicode="&#x117;" horiz-adv-x="1143" d="M720 1162q-44 0 -72 32.5t-21 76.5q8 40 39 66t69 26q45 0 73 -32.5t18 -78.5q-5 -37 -37 -63.5t-69 -26.5zM659 981q138 0 243.5 -65t154.5 -178.5t25 -248.5l-4 -22h-872v-1q-25 -151 62.5 -256t236.5 -105q97 0 188 45.5t157 124.5l111 -59q-85 -111 -205.5 -172.5 t-251.5 -61.5q-105 0 -193 40.5t-144.5 108.5t-80 162t-5.5 198q36 204 204.5 347t373.5 143zM657 857q-131 0 -245.5 -77.5t-170.5 -201.5h717q-5 123 -89 201t-212 78z" />
<glyph unicode="&#x118;" horiz-adv-x="1148" d="M1211 1400h-686l-99 -564h601l-25 -136h-600l-99 -564h686l-23 -136q-116 -55 -201.5 -133t-102.5 -168q-10 -56 16.5 -84.5t82.5 -28.5q109 0 205 82l56 -100q-121 -102 -269 -97q-104 4 -156 62.5t-34 156.5q15 90 87.5 170t182.5 140h-694l270 1536h827z" />
<glyph unicode="&#x119;" horiz-adv-x="1143" d="M659 981q138 0 243.5 -65t154.5 -178.5t25 -248.5l-4 -22h-872v-1q-25 -151 62.5 -256t236.5 -105q97 0 188 45.5t157 124.5l111 -59q-118 -153 -293 -209q-154 -107 -176 -227q-10 -56 16.5 -84.5t82.5 -28.5q109 0 205 82l56 -100q-121 -102 -269 -97q-104 4 -156 62.5 t-34 156.5q19 112 129 211h-18q-105 0 -193 40.5t-144.5 108.5t-80 162t-5.5 198q36 204 204.5 347t373.5 143zM657 857q-131 0 -245.5 -77.5t-170.5 -201.5h717q-5 123 -89 201t-212 78z" />
<glyph unicode="&#x11a;" horiz-adv-x="1148" d="M922 1698h-140l-147 305l81 45l148 -257l242 257l71 -45zM1211 1400h-686l-99 -564h601l-25 -136h-600l-99 -564h686l-23 -136h-827l270 1536h827z" />
<glyph unicode="&#x11b;" horiz-adv-x="1143" d="M775 1137h-140l-147 305l81 45l148 -257l242 257l71 -45zM659 981q138 0 243.5 -65t154.5 -178.5t25 -248.5l-4 -22h-872v-1q-25 -151 62.5 -256t236.5 -105q97 0 188 45.5t157 124.5l111 -59q-85 -111 -205.5 -172.5t-251.5 -61.5q-105 0 -193 40.5t-144.5 108.5 t-80 162t-5.5 198q36 204 204.5 347t373.5 143zM657 857q-131 0 -245.5 -77.5t-170.5 -201.5h717q-5 123 -89 201t-212 78z" />
<glyph unicode="&#x11e;" horiz-adv-x="1631" d="M1149 1717q-147 0 -229 86t-57 220h110q-16 -96 29.5 -156t143.5 -60q105 0 179 63t91 153h110q-24 -140 -129.5 -223t-247.5 -83zM906 666l23 133h606l-140 -799h-125l13 123q-111 -68 -234 -105.5t-237 -37.5q-163 0 -300 63t-225 169.5t-125 254.5t-8 311 q37 213 172.5 392t333 282.5t410.5 103.5q153 0 293.5 -63.5t229.5 -170.5l-111 -93q-73 89 -182.5 138t-234.5 49q-180 0 -346.5 -87.5t-281 -239t-146.5 -331.5q-31 -176 28.5 -322.5t191 -231t306.5 -84.5q128 0 257.5 50.5t234.5 139.5l62 356h-465z" />
<glyph unicode="&#x11f;" horiz-adv-x="1261" d="M705 1144q-147 0 -229 86t-57 220h110q-16 -96 29.5 -156t143.5 -60q105 0 179 63t91 153h110q-24 -140 -129.5 -223t-247.5 -83zM1029 963h138l-169 -964q-37 -207 -206 -350.5t-375 -143.5q-145 0 -255.5 76.5t-154.5 201.5l121 66q29 -97 107.5 -153.5t185.5 -56.5 q155 0 284.5 109.5t155.5 261.5l25 140q-157 -168 -386 -168q-138 0 -243.5 68t-153 185.5t-23.5 255.5q37 205 205 347.5t371 142.5q122 0 209.5 -48.5t134.5 -135.5zM506 115q155 0 285 110.5t157 265.5q27 149 -58.5 252.5t-233.5 103.5q-157 0 -285.5 -109.5 t-156.5 -265.5q-26 -148 58.5 -252.5t233.5 -104.5z" />
<glyph unicode="&#x120;" horiz-adv-x="1631" d="M1153 1723q-44 0 -72 32.5t-21 76.5q8 40 39 66t69 26q45 0 73 -32.5t18 -78.5q-5 -37 -37 -63.5t-69 -26.5zM906 666l23 133h606l-140 -799h-125l13 123q-111 -68 -234 -105.5t-237 -37.5q-163 0 -300 63t-225 169.5t-125 254.5t-8 311q37 213 172.5 392t333 282.5 t410.5 103.5q153 0 293.5 -63.5t229.5 -170.5l-111 -93q-73 89 -182.5 138t-234.5 49q-180 0 -346.5 -87.5t-281 -239t-146.5 -331.5q-31 -176 28.5 -322.5t191 -231t306.5 -84.5q128 0 257.5 50.5t234.5 139.5l62 356h-465z" />
<glyph unicode="&#x121;" horiz-adv-x="1261" d="M709 1150q-44 0 -72 32.5t-21 76.5q8 40 39 66t69 26q45 0 73 -32.5t18 -78.5q-5 -37 -37 -63.5t-69 -26.5zM1029 963h138l-169 -964q-37 -207 -206 -350.5t-375 -143.5q-145 0 -255.5 76.5t-154.5 201.5l121 66q29 -97 107.5 -153.5t185.5 -56.5q155 0 284.5 109.5 t155.5 261.5l25 140q-157 -168 -386 -168q-138 0 -243.5 68t-153 185.5t-23.5 255.5q37 205 205 347.5t371 142.5q122 0 209.5 -48.5t134.5 -135.5zM506 115q155 0 285 110.5t157 265.5q27 149 -58.5 252.5t-233.5 103.5q-157 0 -285.5 -109.5t-156.5 -265.5 q-26 -148 58.5 -252.5t233.5 -104.5z" />
<glyph unicode="&#x122;" horiz-adv-x="1631" d="M906 666l23 133h606l-140 -799h-125l13 123q-111 -68 -234 -105.5t-237 -37.5q-163 0 -300 63t-225 169.5t-125 254.5t-8 311q37 213 172.5 392t333 282.5t410.5 103.5q153 0 293.5 -63.5t229.5 -170.5l-111 -93q-73 89 -182.5 138t-234.5 49q-180 0 -346.5 -87.5 t-281 -239t-146.5 -331.5q-31 -176 28.5 -322.5t191 -231t306.5 -84.5q128 0 257.5 50.5t234.5 139.5l62 356h-465zM541 -513l255 420l112 -48l-290 -404z" />
<glyph unicode="&#x123;" horiz-adv-x="1261" d="M698 1098q-48 0 -73 32t-15 80q0 8 8 34l221 404h93l-179 -356q29 -11 44.5 -39.5t8.5 -63.5q-7 -37 -39 -64t-69 -27zM1029 963h138l-169 -964q-37 -207 -206 -350.5t-375 -143.5q-145 0 -255.5 76.5t-154.5 201.5l121 66q29 -97 107.5 -153.5t185.5 -56.5 q155 0 284.5 109.5t155.5 261.5l25 140q-157 -168 -386 -168q-138 0 -243.5 68t-153 185.5t-23.5 255.5q37 205 205 347.5t371 142.5q122 0 209.5 -48.5t134.5 -135.5zM506 115q155 0 285 110.5t157 265.5q27 149 -58.5 252.5t-233.5 103.5q-157 0 -285.5 -109.5 t-156.5 -265.5q-26 -148 58.5 -252.5t233.5 -104.5z" />
<glyph unicode="&#x126;" horiz-adv-x="1603" d="M1660 1246l-18 -99h-144l-202 -1147h-140l123 698h-876l-123 -698h-141l202 1147h-149l17 99h149l51 290h141l-51 -290h876l51 290h141l-51 -290h144zM1303 839l55 308h-876l-55 -308h876z" />
<glyph unicode="&#x127;" horiz-adv-x="1058" d="M641 981q147 0 233 -104.5t61 -249.5l-111 -627h-136l110 627q16 97 -35.5 162.5t-142.5 65.5q-92 0 -171.5 -60t-105.5 -148l-114 -647h-136l209 1189h-138l17 99h138l44 248h137l-44 -248h305l-17 -99h-305l-54 -308q115 100 256 100z" />
<glyph unicode="&#x128;" horiz-adv-x="586" d="M646 1652q-37 0 -65 10t-47.5 30.5t-29.5 35.5t-24 41q-16 29 -33.5 42.5t-46.5 13.5q-56 0 -95.5 -47.5t-52.5 -119.5l-102 10q20 112 85.5 185.5t161.5 73.5q65 0 101.5 -31.5t65.5 -85.5q28 -55 86 -55q53 0 91.5 44t51.5 122l100 -10q-21 -118 -86.5 -188.5 t-160.5 -70.5zM139 0l270 1536h141l-270 -1536h-141z" />
<glyph unicode="&#x129;" horiz-adv-x="489" d="M496 1078q-37 0 -65 10t-47.5 30.5t-29.5 35.5t-24 41q-16 29 -33.5 42.5t-46.5 13.5q-56 0 -95.5 -47.5t-52.5 -119.5l-102 10q20 112 85.5 185.5t161.5 73.5q65 0 101.5 -31.5t65.5 -85.5q28 -55 86 -55q53 0 91.5 44t51.5 122l100 -10q-21 -118 -86.5 -188.5 t-160.5 -70.5zM93 0l168 963h136l-168 -963h-136z" />
<glyph unicode="&#x12a;" horiz-adv-x="586" d="M200 1754l17 96h635l-18 -96h-634zM139 0l270 1536h141l-270 -1536h-141z" />
<glyph unicode="&#x12b;" horiz-adv-x="489" d="M50 1180l17 96h635l-18 -96h-634zM93 0l168 963h136l-168 -963h-136z" />
<glyph unicode="&#x12e;" horiz-adv-x="586" d="M75 -414q109 0 205 82l56 -100q-121 -102 -269 -97q-104 4 -156 62.5t-34 156.5q15 90 87.5 170t182.5 140h-8l270 1536h141l-270 -1536q-116 -55 -201.5 -133t-102.5 -168q-10 -56 16.5 -84.5t82.5 -28.5z" />
<glyph unicode="&#x12f;" horiz-adv-x="489" d="M388 1350q45 0 73 -32.5t18 -78.5q-5 -37 -37 -63.5t-69 -26.5q-44 0 -72 32.5t-21 76.5q8 40 39 66t69 26zM229 0q-116 -55 -201.5 -133t-102.5 -168q-10 -56 16.5 -84.5t82.5 -28.5q109 0 205 82l56 -100q-121 -102 -269 -97q-104 4 -156 62.5t-34 156.5 q15 90 87.5 170t182.5 140h-3l168 963h136z" />
<glyph unicode="&#x130;" horiz-adv-x="586" d="M523 1723q-44 0 -72 32.5t-21 76.5q8 40 39 66t69 26q45 0 73 -32.5t18 -78.5q-5 -37 -37 -63.5t-69 -26.5zM139 0l270 1536h141l-270 -1536h-141z" />
<glyph unicode="&#x131;" horiz-adv-x="489" d="M93 0l168 963h136l-168 -963h-136z" />
<glyph unicode="&#x136;" horiz-adv-x="1256" d="M1391 1536l-810 -755l558 -781h-175l-550 762l-134 -762h-141l270 1536h141l-129 -736l786 736h184zM252 -513l255 420l112 -48l-290 -404z" />
<glyph unicode="&#x137;" horiz-adv-x="972" d="M993 963l-515 -441l408 -522h-180l-389 499l-88 -499h-136l270 1536h137l-177 -1001l479 428h191zM126 -513l255 420l112 -48l-290 -404z" />
<glyph unicode="&#x139;" horiz-adv-x="972" d="M846 1949l-382 -290l-48 61l364 318zM305 141h578l-24 -141h-720l270 1536h141z" />
<glyph unicode="&#x13a;" horiz-adv-x="492" d="M416 1659l-48 61l364 318l66 -89zM93 0l270 1536h136l-270 -1536h-136z" />
<glyph unicode="&#x13b;" horiz-adv-x="972" d="M305 141h578l-24 -141h-720l270 1536h141zM211 -513l255 420l112 -48l-290 -404z" />
<glyph unicode="&#x13c;" horiz-adv-x="492" d="M93 0l270 1536h136l-270 -1536h-136zM-50 -545l-77 32l255 420l112 -48z" />
<glyph unicode="&#x13d;" horiz-adv-x="972" d="M1010 1556q45 0 69 -21.5t24 -55.5q0 -40 -25 -73l-294 -399h-111l258 362q-24 11 -35 40t0 66q14 33 47.5 57t66.5 24zM550 1536l-245 -1395h578l-24 -141h-720l270 1536h141z" />
<glyph unicode="&#x13e;" horiz-adv-x="531" d="M534 1007l258 362q-24 11 -35 40t0 66q14 33 47.5 57t66.5 24q45 0 69 -21.5t24 -55.5q0 -40 -25 -73l-294 -399h-111zM93 0l270 1536h136l-270 -1536h-136z" />
<glyph unicode="&#x13f;" horiz-adv-x="979" d="M550 1536l-245 -1395h578l-24 -141h-720l270 1536h141zM822 1012q38 0 62 -28.5t17 -65.5q-6 -32 -32.5 -53.5t-57.5 -21.5q-38 0 -61 27.5t-16 66.5q5 30 31.5 52.5t56.5 22.5z" />
<glyph unicode="&#x140;" horiz-adv-x="551" d="M93 0l270 1536h136l-270 -1536h-136zM546 735q-38 0 -61 27.5t-16 66.5q5 30 31.5 52.5t56.5 22.5q38 0 62 -28.5t17 -65.5q-6 -32 -32.5 -53.5t-57.5 -21.5z" />
<glyph unicode="&#x141;" horiz-adv-x="972" d="M305 141h578l-24 -141h-720l107 611l-120 -80l19 127l124 82l140 796h141l-121 -690l322 214l-19 -127l-326 -216z" />
<glyph unicode="&#x142;" horiz-adv-x="565" d="M562 908l-20 -123l-151 -96l-121 -689h-136l104 592l-163 -104l20 121l165 105l144 822h136l-127 -724z" />
<glyph unicode="&#x143;" horiz-adv-x="1584" d="M1340 1949l-382 -290l-48 61l364 318zM1548 1536l-282 -1596l-776 1273l-212 -1213h-141l281 1598l777 -1273l214 1211h139z" />
<glyph unicode="&#x144;" horiz-adv-x="1066" d="M999 1376l-382 -290l-48 61l364 318zM646 981q147 0 234.5 -104.5t62.5 -249.5l-110 -627h-137l110 627q16 97 -36.5 162.5t-144.5 65.5q-98 0 -180 -64t-105 -156l-111 -635h-136l168 963h136l-15 -84q118 102 264 102z" />
<glyph unicode="&#x145;" horiz-adv-x="1584" d="M1409 1536h139l-282 -1596l-776 1273l-212 -1213h-141l281 1598l777 -1273zM425 -513l255 420l112 -48l-290 -404z" />
<glyph unicode="&#x146;" horiz-adv-x="1066" d="M646 981q147 0 234.5 -104.5t62.5 -249.5l-110 -627h-137l110 627q16 97 -36.5 162.5t-144.5 65.5q-98 0 -180 -64t-105 -156l-111 -635h-136l168 963h136l-15 -84q118 102 264 102zM178 -513l255 420l112 -48l-290 -404z" />
<glyph unicode="&#x147;" horiz-adv-x="1584" d="M1072 1698h-140l-147 305l81 45l148 -257l242 257l71 -45zM1548 1536l-282 -1596l-776 1273l-212 -1213h-141l281 1598l777 -1273l214 1211h139z" />
<glyph unicode="&#x148;" horiz-adv-x="1066" d="M731 1125h-140l-147 305l81 45l148 -257l242 257l71 -45zM646 981q147 0 234.5 -104.5t62.5 -249.5l-110 -627h-137l110 627q16 97 -36.5 162.5t-144.5 65.5q-98 0 -180 -64t-105 -156l-111 -635h-136l168 963h136l-15 -84q118 102 264 102z" />
<glyph unicode="&#x14a;" horiz-adv-x="1686" d="M1650 1536l-271 -1536h-2l-18 -108q-12 -71 -34 -124t-59.5 -96t-97.5 -65.5t-141 -22.5h-52l12 101q110 -2 164 42.5t75 167.5l20 114l2 1l-741 1285l-227 -1295h-141l270 1536h125l748 -1294l228 1294h140z" />
<glyph unicode="&#x14b;" horiz-adv-x="1065" d="M505 -425l12 125q36 -2 63 10.5t43.5 34.5t29.5 61t21 78t18 97q2 13 3 19l111 627q16 97 -37 162.5t-145 65.5q-98 0 -180 -64.5t-104 -155.5l-111 -635h-137l168 963h137l-16 -91q117 109 263 109q148 0 236 -104t63 -250l-112 -627q-10 -56 -17 -92.5t-17 -79t-20 -70 t-24.5 -57.5t-30.5 -47.5t-38 -35t-48 -26t-58.5 -13.5t-72.5 -4z" />
<glyph unicode="&#x14c;" horiz-adv-x="1776" d="M796 1754l17 96h635l-18 -96h-634zM810 -20q-130 0 -245 40.5t-199 113t-142.5 173t-74.5 219.5t4 252q37 212 172.5 391t333 283t410.5 104q130 0 245 -40.5t199 -113t142.5 -173t74.5 -219.5t-4 -252q-37 -212 -173 -391t-333.5 -283t-409.5 -104zM815 120 q134 0 265 52t234.5 140t177 209.5t97.5 256.5q31 175 -28 321.5t-191 231.5t-307 85q-179 0 -345.5 -87.5t-281.5 -239.5t-146 -331q-31 -175 28.5 -321.5t191 -231.5t305.5 -85z" />
<glyph unicode="&#x14d;" horiz-adv-x="1163" d="M386 1181l17 96h635l-18 -96h-634zM503 -18q-105 0 -192.5 40.5t-144 108.5t-80.5 162t-6 198q23 134 108.5 246.5t210.5 178t260 65.5q104 0 191.5 -40.5t144 -108.5t80.5 -162t6 -198q-23 -134 -108.5 -246.5t-210.5 -178t-259 -65.5zM506 115q155 0 284 110t158 266 q27 149 -58.5 252.5t-233.5 103.5q-157 0 -285.5 -109.5t-156.5 -265.5q-27 -149 58 -253t234 -104z" />
<glyph unicode="&#x150;" horiz-adv-x="1776" d="M902 1721l-60 79l356 269l60 -78zM1247 1721l-60 79l356 269l61 -78zM810 -20q-130 0 -245 40.5t-199 113t-142.5 173t-74.5 219.5t4 252q37 212 172.5 391t333 283t410.5 104q130 0 245 -40.5t199 -113t142.5 -173t74.5 -219.5t-4 -252q-37 -212 -173 -391t-333.5 -283 t-409.5 -104zM815 120q134 0 265 52t234.5 140t177 209.5t97.5 256.5q31 175 -28 321.5t-191 231.5t-307 85q-179 0 -345.5 -87.5t-281.5 -239.5t-146 -331q-31 -175 28.5 -321.5t191 -231.5t305.5 -85z" />
<glyph unicode="&#x151;" horiz-adv-x="1163" d="M492 1148l-60 79l356 269l60 -78zM837 1148l-60 79l356 269l61 -78zM503 -18q-105 0 -192.5 40.5t-144 108.5t-80.5 162t-6 198q23 134 108.5 246.5t210.5 178t260 65.5q104 0 191.5 -40.5t144 -108.5t80.5 -162t6 -198q-23 -134 -108.5 -246.5t-210.5 -178t-259 -65.5z M506 115q155 0 284 110t158 266q27 149 -58.5 252.5t-233.5 103.5q-157 0 -285.5 -109.5t-156.5 -265.5q-27 -149 58 -253t234 -104z" />
<glyph unicode="&#x152;" horiz-adv-x="2464" d="M2528 1400h-690l-99 -564h604l-25 -136h-603l-99 -564h690l-24 -136h-807l61 346q-134 -168 -327 -267t-399 -99q-130 0 -245 40.5t-199 113t-142.5 173t-74.5 219.5t4 252q37 212 172.5 391t333 283t410.5 104q212 0 374.5 -103t238.5 -277l63 360h808zM815 116 q134 0 266 52.5t236 141t178 211t98 257.5q23 132 -6.5 251t-100.5 204.5t-180.5 136t-240.5 50.5q-136 0 -268 -52.5t-236 -141t-178 -211t-98 -257.5q-23 -132 6.5 -250.5t100.5 -204.5t181 -136.5t242 -50.5z" />
<glyph unicode="&#x153;" horiz-adv-x="2022" d="M1539 981q137 0 240.5 -65t152 -178t29.5 -249l-5 -22h-871v-1q-25 -151 62.5 -256t236.5 -105q97 0 188 45.5t157 124.5l111 -59q-85 -111 -205.5 -172.5t-251.5 -61.5q-142 0 -248 70t-153 188q-83 -117 -211.5 -187.5t-267.5 -70.5q-105 0 -192.5 40.5t-144 108.5 t-80.5 162t-6 198q23 134 108.5 246.5t210.5 178t260 65.5q141 0 247 -70t153 -188q83 117 211.5 187.5t268.5 70.5zM1537 857q-132 0 -246.5 -77.5t-170.5 -201.5h717q-8 124 -90.5 201.5t-209.5 77.5zM505 109q158 0 289.5 112t159.5 270q27 151 -60 257t-237 106 q-159 0 -291 -112t-161 -270q-27 -152 60.5 -257.5t239.5 -105.5z" />
<glyph unicode="&#x154;" horiz-adv-x="1388" d="M1186 1949l-382 -290l-48 61l364 318zM1026 1536q177 0 280.5 -127.5t72.5 -305.5q-27 -152 -142.5 -265t-268.5 -139l238 -699h-147l-239 692h-420l-120 -692h-141l270 1536h617zM1241 1121q22 122 -48 200.5t-194 78.5h-476l-99 -574h464q126 0 228 81.5t125 213.5z " />
<glyph unicode="&#x155;" horiz-adv-x="708" d="M473 1086l-48 61l364 318l66 -89zM655 981q79 0 138 -38l-60 -113q-53 24 -104 24q-108 0 -195 -88t-113 -238l-92 -528h-136l168 963h136l-28 -154q114 172 286 172z" />
<glyph unicode="&#x156;" horiz-adv-x="1388" d="M1026 1536q177 0 280.5 -127.5t72.5 -305.5q-27 -152 -142.5 -265t-268.5 -139l238 -699h-147l-239 692h-420l-120 -692h-141l270 1536h617zM1241 1121q22 122 -48 200.5t-194 78.5h-476l-99 -574h464q126 0 228 81.5t125 213.5zM261 -513l255 420l112 -48l-290 -404z " />
<glyph unicode="&#x157;" horiz-adv-x="708" d="M655 981q79 0 138 -38l-60 -113q-53 24 -104 24q-108 0 -195 -88t-113 -238l-92 -528h-136l168 963h136l-28 -154q114 172 286 172zM-20 -545l-77 32l255 420l112 -48z" />
<glyph unicode="&#x158;" horiz-adv-x="1388" d="M918 1698h-140l-147 305l81 45l148 -257l242 257l71 -45zM1026 1536q177 0 280.5 -127.5t72.5 -305.5q-27 -152 -142.5 -265t-268.5 -139l238 -699h-147l-239 692h-420l-120 -692h-141l270 1536h617zM1241 1121q22 122 -48 200.5t-194 78.5h-476l-99 -574h464 q126 0 228 81.5t125 213.5z" />
<glyph unicode="&#x159;" horiz-adv-x="708" d="M447 1125l-147 305l81 45l148 -257l242 257l71 -45l-255 -305h-140zM655 981q79 0 138 -38l-60 -113q-53 24 -104 24q-108 0 -195 -88t-113 -238l-92 -528h-136l168 963h136l-28 -154q114 172 286 172z" />
<glyph unicode="&#x15a;" horiz-adv-x="1129" d="M743 1659l-48 61l364 318l66 -89zM496 -20q-154 0 -278 66.5t-198 176.5l113 93q123 -210 358 -210q148 0 259.5 80.5t134.5 213.5q9 51 -4.5 95.5t-32 72.5t-69 62t-77 48t-96.5 47q-9 5 -14 7q-33 15 -56 25.5t-54 26.5t-52.5 30t-47.5 32.5t-43 38t-34.5 43 t-27.5 49.5t-17 56.5t-6.5 65.5t7.5 74q21 118 94 206.5t173 132.5t213 44q256 0 403 -204l-95 -82q-70 90 -141 125t-167 35q-123 0 -221 -71.5t-120 -195.5q-11 -62 3.5 -110.5t60.5 -87t85 -61t112 -56.5q152 -65 212 -105q152 -100 157 -261q1 -45 -8 -96 q-17 -98 -68 -177t-123 -128t-157.5 -75t-177.5 -26z" />
<glyph unicode="&#x15b;" horiz-adv-x="857" d="M504 1086l-48 61l364 318l66 -89zM350 -18q-201 0 -345 133l91 105q44 -51 113 -83t148 -32q95 0 163 45.5t81 121.5q5 28 -3 51.5t-19.5 37.5t-40.5 30t-47.5 23t-59.5 22q-7 3 -11 4q-55 16 -85.5 26.5t-74.5 34t-65 50t-33.5 70t-2.5 97.5q14 85 70 146t132.5 89 t164.5 28q168 0 287 -101l-89 -98q-92 78 -211 78q-89 0 -152 -39.5t-75 -109.5q-6 -32 3.5 -56t38.5 -42t54 -28.5t72 -26.5q23 -8 35 -12q22 -6 40 -12t39.5 -14t37.5 -16.5t35 -19.5t31 -23t26 -28t20.5 -33.5t13 -39t4.5 -45.5t-5 -53q-24 -133 -127 -206.5t-254 -73.5z " />
<glyph unicode="&#x15e;" horiz-adv-x="1129" d="M741 1430q-123 0 -221 -71.5t-120 -195.5q-11 -62 3.5 -110.5t60.5 -87t85 -61t112 -56.5q152 -65 212 -105q152 -100 157 -261q1 -45 -8 -96q-34 -193 -184 -299.5t-341 -106.5l-82 -119q110 22 177.5 -36t50.5 -159q-15 -83 -82 -140.5t-151 -57.5q-70 0 -134 38.5 t-87 93.5l78 25q17 -31 58 -51.5t81 -20.5q55 0 100 39t54 94q12 70 -42.5 95t-147.5 -7l-67 48l107 164q-126 17 -226.5 80t-163.5 157l113 93q123 -210 358 -210q148 0 259.5 80.5t134.5 213.5q9 51 -4.5 95.5t-32 72.5t-69 62t-77 48t-96.5 47q-9 5 -14 7 q-33 15 -56 25.5t-54 26.5t-52.5 30t-47.5 32.5t-43 38t-34.5 43t-27.5 49.5t-17 56.5t-6.5 65.5t7.5 74q21 118 94 206.5t173 132.5t213 44q256 0 403 -204l-95 -82q-70 90 -141 125t-167 35z" />
<glyph unicode="&#x15f;" horiz-adv-x="857" d="M489 546q22 -6 40 -12t39.5 -14t37.5 -16.5t35 -19.5t31 -23t26 -28t20.5 -33.5t13 -39t4.5 -45.5t-5 -53q-22 -124 -115 -197t-230 -82l-84 -122q110 22 177.5 -36t50.5 -159q-15 -83 -82 -140.5t-151 -57.5q-70 0 -134 38.5t-87 93.5l78 25q17 -31 58 -51.5t81 -20.5 q55 0 100 39t54 94q12 70 -42.5 95t-147.5 -7l-67 48l106 163q-169 16 -291 130l91 105q44 -51 113 -83t148 -32q95 0 163 45.5t81 121.5q5 28 -3 51.5t-19.5 37.5t-40.5 30t-47.5 23t-59.5 22q-7 3 -11 4q-55 16 -85.5 26.5t-74.5 34t-65 50t-33.5 70t-2.5 97.5 q14 85 70 146t132.5 89t164.5 28q168 0 287 -101l-89 -98q-92 78 -211 78q-89 0 -152 -39.5t-75 -109.5q-6 -32 3.5 -56t38.5 -42t54 -28.5t72 -26.5q23 -8 35 -12z" />
<glyph unicode="&#x160;" horiz-adv-x="1129" d="M717 1698l-147 305l81 45l148 -257l242 257l71 -45l-255 -305h-140zM496 -20q-154 0 -278 66.5t-198 176.5l113 93q123 -210 358 -210q148 0 259.5 80.5t134.5 213.5q9 51 -4.5 95.5t-32 72.5t-69 62t-77 48t-96.5 47q-9 5 -14 7q-33 15 -56 25.5t-54 26.5t-52.5 30 t-47.5 32.5t-43 38t-34.5 43t-27.5 49.5t-17 56.5t-6.5 65.5t7.5 74q21 118 94 206.5t173 132.5t213 44q256 0 403 -204l-95 -82q-70 90 -141 125t-167 35q-123 0 -221 -71.5t-120 -195.5q-11 -62 3.5 -110.5t60.5 -87t85 -61t112 -56.5q152 -65 212 -105q152 -100 157 -261 q1 -45 -8 -96q-17 -98 -68 -177t-123 -128t-157.5 -75t-177.5 -26z" />
<glyph unicode="&#x161;" horiz-adv-x="857" d="M478 1125l-147 305l81 45l148 -257l242 257l71 -45l-255 -305h-140zM350 -18q-201 0 -345 133l91 105q44 -51 113 -83t148 -32q95 0 163 45.5t81 121.5q5 28 -3 51.5t-19.5 37.5t-40.5 30t-47.5 23t-59.5 22q-7 3 -11 4q-55 16 -85.5 26.5t-74.5 34t-65 50t-33.5 70 t-2.5 97.5q14 85 70 146t132.5 89t164.5 28q168 0 287 -101l-89 -98q-92 78 -211 78q-89 0 -152 -39.5t-75 -109.5q-6 -32 3.5 -56t38.5 -42t54 -28.5t72 -26.5q23 -8 35 -12q22 -6 40 -12t39.5 -14t37.5 -16.5t35 -19.5t31 -23t26 -28t20.5 -33.5t13 -39t4.5 -45.5t-5 -53 q-24 -133 -127 -206.5t-254 -73.5z" />
<glyph unicode="&#x162;" horiz-adv-x="1056" d="M515 0h-27l-95 -139q110 22 177.5 -36t50.5 -159q-15 -83 -82 -140.5t-151 -57.5q-70 0 -134 38.5t-87 93.5l78 25q17 -31 58 -51.5t81 -20.5q55 0 100 39t54 94q12 70 -42.5 95t-147.5 -7l-67 48l116 178h-23l245 1396h-429l25 141h999l-25 -141h-429z" />
<glyph unicode="&#x163;" horiz-adv-x="603" d="M286 0h-23l-95 -139q110 22 177.5 -36t50.5 -159q-15 -83 -82 -140.5t-151 -57.5q-70 0 -134 38.5t-87 93.5l78 25q17 -31 58 -51.5t81 -20.5q55 0 100 39t54 94q12 70 -42.5 95t-147.5 -7l-67 48l116 178h-24l146 837h-208l21 126h209l61 346h139l-61 -346h206l-22 -126 h-206z" />
<glyph unicode="&#x164;" horiz-adv-x="1056" d="M813 1698h-140l-147 305l81 45l148 -257l242 257l71 -45zM1214 1537l-25 -141h-429l-245 -1396h-141l245 1396h-429l25 141h999z" />
<glyph unicode="&#x165;" horiz-adv-x="603" d="M922 1658q45 0 69 -21.5t24 -55.5q0 -40 -25 -73l-294 -399h-111l258 362q-24 11 -35 40t0 66q14 33 47.5 57t66.5 24zM516 1309l-61 -346h206l-22 -126h-206l-147 -837h-138l146 837h-208l21 126h209l61 346h139z" />
<glyph unicode="&#x166;" horiz-adv-x="1056" d="M1189 1396h-429l-103 -586h217l-17 -99h-217l-125 -711h-141l125 711h-222l17 99h222l103 586h-429l25 141h999z" />
<glyph unicode="&#x167;" horiz-adv-x="603" d="M639 837h-206l-56 -317h162l-14 -99h-165l-74 -421h-138l74 421h-163l14 99h166l55 317h-208l21 126h209l61 346h139l-61 -346h206z" />
<glyph unicode="&#x168;" horiz-adv-x="1513" d="M1108 1652q-37 0 -65 10t-47.5 30.5t-29.5 35.5t-24 41q-16 29 -33.5 42.5t-46.5 13.5q-56 0 -95.5 -47.5t-52.5 -119.5l-102 10q20 112 85.5 185.5t161.5 73.5q65 0 101.5 -31.5t65.5 -85.5q28 -55 86 -55q53 0 91.5 44t51.5 122l100 -10q-21 -118 -86.5 -188.5 t-160.5 -70.5zM676 -20q-163 0 -283.5 69.5t-174 191t-27.5 270.5l182 1025h141l-179 -1014q-31 -174 67.5 -288t278.5 -114q187 0 333 118.5t178 293.5l177 1004h141l-183 -1035q-27 -149 -120 -268t-232.5 -186t-298.5 -67z" />
<glyph unicode="&#x169;" horiz-adv-x="1031" d="M764 1079q-37 0 -65 10t-47.5 30.5t-29.5 35.5t-24 41q-16 29 -33.5 42.5t-46.5 13.5q-56 0 -95.5 -47.5t-52.5 -119.5l-102 10q20 112 85.5 185.5t161.5 73.5q65 0 101.5 -31.5t65.5 -85.5q28 -55 86 -55q53 0 91.5 44t51.5 122l100 -10q-21 -118 -86.5 -188.5 t-160.5 -70.5zM435 -18q-166 0 -252.5 102.5t-57.5 265.5l107 613h137l-106 -609q-19 -109 30.5 -174t144.5 -65q103 0 183.5 70t99.5 179l104 599h137l-109 -623q-28 -163 -143 -260.5t-275 -97.5z" />
<glyph unicode="&#x16a;" horiz-adv-x="1513" d="M662 1754l17 96h635l-18 -96h-634zM676 -20q-163 0 -283.5 69.5t-174 191t-27.5 270.5l182 1025h141l-179 -1014q-31 -174 67.5 -288t278.5 -114q187 0 333 118.5t178 293.5l177 1004h141l-183 -1035q-27 -149 -120 -268t-232.5 -186t-298.5 -67z" />
<glyph unicode="&#x16b;" horiz-adv-x="1031" d="M318 1181l17 96h635l-18 -96h-634zM435 -18q-166 0 -252.5 102.5t-57.5 265.5l107 613h137l-106 -609q-19 -109 30.5 -174t144.5 -65q103 0 183.5 70t99.5 179l104 599h137l-109 -623q-28 -163 -143 -260.5t-275 -97.5z" />
<glyph unicode="&#x16e;" horiz-adv-x="1513" d="M974 1667q-88 0 -140.5 63.5t-38.5 150.5q15 81 83 138t149 57q87 0 138.5 -63t35.5 -151q-14 -80 -80.5 -137.5t-146.5 -57.5zM969 1744q56 0 102 40t56 97q9 49 -18.5 84t-75.5 35q-56 0 -103 -41t-58 -97q-8 -51 19.5 -84.5t77.5 -33.5zM676 -20q-163 0 -283.5 69.5 t-174 191t-27.5 270.5l182 1025h141l-179 -1014q-31 -174 67.5 -288t278.5 -114q187 0 333 118.5t178 293.5l177 1004h141l-183 -1035q-27 -149 -120 -268t-232.5 -186t-298.5 -67z" />
<glyph unicode="&#x16f;" horiz-adv-x="1031" d="M655 1147q-88 0 -141 64t-37 150q13 81 81 138t149 57q87 0 138.5 -63t37.5 -151q-14 -80 -81 -137.5t-147 -57.5zM649 1225q56 0 103 39.5t57 96.5q8 49 -19.5 84.5t-76.5 35.5q-56 0 -102.5 -41.5t-56.5 -97.5q-9 -51 18 -84t77 -33zM435 -18q-166 0 -252.5 102.5 t-57.5 265.5l107 613h137l-106 -609q-19 -109 30.5 -174t144.5 -65q103 0 183.5 70t99.5 179l104 599h137l-109 -623q-28 -163 -143 -260.5t-275 -97.5z" />
<glyph unicode="&#x170;" horiz-adv-x="1513" d="M768 1721l-60 79l356 269l60 -78zM1113 1721l-60 79l356 269l61 -78zM676 -20q-163 0 -283.5 69.5t-174 191t-27.5 270.5l182 1025h141l-179 -1014q-31 -174 67.5 -288t278.5 -114q187 0 333 118.5t178 293.5l177 1004h141l-183 -1035q-27 -149 -120 -268t-232.5 -186 t-298.5 -67z" />
<glyph unicode="&#x171;" horiz-adv-x="1031" d="M424 1148l-60 79l356 269l60 -78zM769 1148l-60 79l356 269l61 -78zM435 -18q-166 0 -252.5 102.5t-57.5 265.5l107 613h137l-106 -609q-19 -109 30.5 -174t144.5 -65q103 0 183.5 70t99.5 179l104 599h137l-109 -623q-28 -163 -143 -260.5t-275 -97.5z" />
<glyph unicode="&#x172;" horiz-adv-x="1513" d="M1369 1536h141l-183 -1035q-34 -190 -173.5 -327.5t-333.5 -178.5q-104 -55 -177.5 -127.5t-88.5 -154.5q-10 -56 16.5 -84.5t82.5 -28.5q109 0 205 82l56 -100q-121 -102 -269 -97q-104 4 -156 62.5t-34 156.5q26 153 213 276q-120 1 -219 42.5t-162 112t-89.5 168.5 t-6.5 208l182 1025h141l-179 -1014q-31 -174 67.5 -288t278.5 -114q187 0 333 118.5t178 293.5z" />
<glyph unicode="&#x173;" horiz-adv-x="1031" d="M825 963h137l-109 -623q-25 -144 -120 -238.5t-231 -114.5q-108 -55 -185 -129.5t-92 -158.5q-10 -56 16.5 -84.5t82.5 -28.5q109 0 205 82l56 -100q-121 -102 -269 -97q-104 4 -156 62.5t-34 156.5q14 85 80 161t166 135q-137 20 -204.5 119t-42.5 245l107 613h137 l-106 -609q-19 -109 30.5 -174t144.5 -65q103 0 183.5 70t99.5 179z" />
<glyph unicode="&#x174;" horiz-adv-x="1920" d="M1215 1918l-244 -255l-69 43l253 306h140l149 -306l-78 -43zM2071 1536l-911 -1575l-164 728l-421 -728l-353 1575h148l265 -1245l322 573l-151 672h144l105 -498l280 498h151l-393 -680l119 -565l703 1245h156z" />
<glyph unicode="&#x175;" horiz-adv-x="1469" d="M864 1345l-244 -255l-69 43l253 306h140l149 -306l-78 -43zM1531 963l-561 -1009l-197 744l-462 -744l-205 1009h146l127 -676l445 729l189 -734l367 681h151z" />
<glyph unicode="&#x176;" horiz-adv-x="1247" d="M880 1918l-244 -255l-69 43l253 306h140l149 -306l-78 -43zM1416 1536l-679 -811l-128 -725h-141l128 727l-392 809h172l315 -663l550 663h175z" />
<glyph unicode="&#x177;" horiz-adv-x="958" d="M621 1345l-244 -255l-69 43l253 306h140l149 -306l-78 -43zM868 963h156l-840 -1455h-149l285 501l-219 954h150l172 -805z" />
<glyph unicode="&#x178;" horiz-adv-x="1247" d="M661 1655q-44 0 -71.5 33t-19.5 77q6 39 37.5 65.5t69.5 26.5q45 0 72.5 -33t19.5 -79q-7 -37 -38.5 -63.5t-69.5 -26.5zM1021 1655q-45 0 -72.5 33t-19.5 77q7 39 39 65.5t69 26.5q46 0 72.5 -33t18.5 -79q-7 -38 -38 -64t-69 -26zM1416 1536l-679 -811l-128 -725h-141 l128 727l-392 809h172l315 -663l550 663h175z" />
<glyph unicode="&#x179;" horiz-adv-x="1338" d="M1231 1949l-382 -290l-48 61l364 318zM1458 1536l-1203 -1395h955l-24 -141h-1227l1200 1395h-881l25 141h1155z" />
<glyph unicode="&#x17a;" horiz-adv-x="932" d="M931 1376l-382 -290l-48 61l364 318zM960 963l-724 -837h576l-21 -126h-833l721 837h-538l22 126h797z" />
<glyph unicode="&#x17b;" horiz-adv-x="1338" d="M908 1723q-44 0 -72 32.5t-21 76.5q8 40 39 66t69 26q45 0 73 -32.5t18 -78.5q-5 -37 -37 -63.5t-69 -26.5zM1458 1536l-1203 -1395h955l-24 -141h-1227l1200 1395h-881l25 141h1155z" />
<glyph unicode="&#x17c;" horiz-adv-x="932" d="M608 1150q-44 0 -72 32.5t-21 76.5q8 40 39 66t69 26q45 0 73 -32.5t18 -78.5q-5 -37 -37 -63.5t-69 -26.5zM960 963l-724 -837h576l-21 -126h-833l721 837h-538l22 126h797z" />
<glyph unicode="&#x17d;" horiz-adv-x="1338" d="M963 1698h-140l-147 305l81 45l148 -257l242 257l71 -45zM1458 1536l-1203 -1395h955l-24 -141h-1227l1200 1395h-881l25 141h1155z" />
<glyph unicode="&#x17e;" horiz-adv-x="932" d="M663 1125h-140l-147 305l81 45l148 -257l242 257l71 -45zM960 963l-724 -837h576l-21 -126h-833l721 837h-538l22 126h797z" />
<glyph unicode="&#x192;" horiz-adv-x="1013" d="M794 1431q-78 0 -134.5 -52t-70.5 -134l-35 -221h286l-18 -130h-289l-225 -1406h-150l222 1406h-172l20 130h173l38 242q19 122 118 206t222 84q40 0 77.5 -10t55.5 -24l-15 -125q-40 34 -103 34z" />
<glyph unicode="&#x1a0;" horiz-adv-x="1776" d="M1820 1498h118l-18 -107q-22 -125 -79.5 -181.5t-133.5 -56.5q-10 0 -16 1q72 -183 35 -396q-37 -212 -173 -391t-333.5 -283t-409.5 -104q-130 0 -245 40.5t-199 113t-142.5 173t-74.5 219.5t4 252q37 212 172.5 391t333 283t410.5 104q197 0 352 -89.5t238 -244.5h6 q53 0 87.5 45t44.5 105zM1589 778q31 175 -28 321.5t-191 231.5t-307 85q-179 0 -345.5 -87.5t-281.5 -239.5t-146 -331q-31 -175 28.5 -321.5t191 -231.5t305.5 -85q134 0 265 52t234.5 140t177 209.5t97.5 256.5z" />
<glyph unicode="&#x1a1;" horiz-adv-x="1163" d="M1232 1008h118l-18 -107q-22 -125 -79.5 -181.5t-133.5 -56.5q-23 0 -43 4q23 -92 5 -195q-23 -134 -108.5 -246.5t-210.5 -178t-259 -65.5q-105 0 -192.5 40.5t-144 108.5t-80.5 162t-6 198q23 134 108.5 246.5t210.5 178t260 65.5q137 0 242 -67t153 -180q18 -2 23 -2 q53 0 87.5 45t44.5 105zM948 491q27 149 -58.5 252.5t-233.5 103.5q-157 0 -285.5 -109.5t-156.5 -265.5q-27 -149 58 -253t234 -104q155 0 284 110t158 266z" />
<glyph unicode="&#x1af;" horiz-adv-x="1513" d="M1675 1636h118l-18 -107q-22 -125 -79.5 -181.5t-133.5 -56.5q-42 0 -93 16l-142 -806q-27 -149 -120 -268t-232.5 -186t-298.5 -67q-163 0 -283.5 69.5t-174 191t-27.5 270.5l182 1025h141l-179 -1014q-31 -174 67.5 -288t278.5 -114q187 0 333 118.5t178 293.5 l177 1004h141l-30 -170q24 -6 40 -6q53 0 87.5 45t44.5 105z" />
<glyph unicode="&#x1b0;" horiz-adv-x="1031" d="M1134 981h118l-18 -107q-22 -125 -79.5 -181.5t-133.5 -56.5q-54 0 -112 23l-56 -319q-28 -163 -143 -260.5t-275 -97.5q-166 0 -252.5 102.5t-57.5 265.5l107 613h137l-106 -609q-19 -109 30.5 -174t144.5 -65q103 0 183.5 70t99.5 179l104 599h137l-43 -244 q34 -14 60 -14q53 0 87.5 45t44.5 105z" />
<glyph unicode="&#x1cd;" horiz-adv-x="1335" d="M957 1698h-140l-147 305l81 45l148 -257l242 257l71 -45zM1061 0l-54 262h-749l-147 -262h-160l909 1573l356 -1573h-155zM332 394h647l-175 841z" />
<glyph unicode="&#x1ce;" horiz-adv-x="1261" d="M764 1125h-140l-147 305l81 45l148 -257l242 257l71 -45zM1032 963h136l-168 -963h-136l27 160q-78 -84 -182 -131t-222 -47q-131 0 -233 68t-149.5 185.5t-23.5 255.5q24 133 109 246.5t206 178.5t248 65q124 0 216 -51t142 -141zM508 115q156 0 284.5 110t157.5 266 q27 149 -58.5 253t-234.5 104q-155 0 -284.5 -110.5t-157.5 -265.5q-27 -149 58.5 -253t234.5 -104z" />
<glyph unicode="&#x1cf;" horiz-adv-x="586" d="M438 1698l-147 305l81 45l148 -257l242 257l71 -45l-255 -305h-140zM139 0l270 1536h141l-270 -1536h-141z" />
<glyph unicode="&#x1d0;" horiz-adv-x="489" d="M288 1124l-147 305l81 45l148 -257l242 257l71 -45l-255 -305h-140zM93 0l168 963h136l-168 -963h-136z" />
<glyph unicode="&#x1d1;" horiz-adv-x="1776" d="M1034 1698l-147 305l81 45l148 -257l242 257l71 -45l-255 -305h-140zM810 -20q-130 0 -245 40.5t-199 113t-142.5 173t-74.5 219.5t4 252q37 212 172.5 391t333 283t410.5 104q130 0 245 -40.5t199 -113t142.5 -173t74.5 -219.5t-4 -252q-37 -212 -173 -391t-333.5 -283 t-409.5 -104zM815 120q134 0 265 52t234.5 140t177 209.5t97.5 256.5q31 175 -28 321.5t-191 231.5t-307 85q-179 0 -345.5 -87.5t-281.5 -239.5t-146 -331q-31 -175 28.5 -321.5t191 -231.5t305.5 -85z" />
<glyph unicode="&#x1d2;" horiz-adv-x="1163" d="M624 1125l-147 305l81 45l148 -257l242 257l71 -45l-255 -305h-140zM503 -18q-105 0 -192.5 40.5t-144 108.5t-80.5 162t-6 198q23 134 108.5 246.5t210.5 178t260 65.5q104 0 191.5 -40.5t144 -108.5t80.5 -162t6 -198q-23 -134 -108.5 -246.5t-210.5 -178t-259 -65.5z M506 115q155 0 284 110t158 266q27 149 -58.5 252.5t-233.5 103.5q-157 0 -285.5 -109.5t-156.5 -265.5q-27 -149 58 -253t234 -104z" />
<glyph unicode="&#x1d3;" horiz-adv-x="1513" d="M900 1698l-147 305l81 45l148 -257l242 257l71 -45l-255 -305h-140zM676 -20q-163 0 -283.5 69.5t-174 191t-27.5 270.5l182 1025h141l-179 -1014q-31 -174 67.5 -288t278.5 -114q187 0 333 118.5t178 293.5l177 1004h141l-183 -1035q-27 -149 -120 -268t-232.5 -186 t-298.5 -67z" />
<glyph unicode="&#x1d4;" horiz-adv-x="1031" d="M556 1125l-147 305l81 45l148 -257l242 257l71 -45l-255 -305h-140zM435 -18q-166 0 -252.5 102.5t-57.5 265.5l107 613h137l-106 -609q-19 -109 30.5 -174t144.5 -65q103 0 183.5 70t99.5 179l104 599h137l-109 -623q-28 -163 -143 -260.5t-275 -97.5z" />
<glyph unicode="&#x1d5;" horiz-adv-x="1513" d="M719 2075l17 96h635l-18 -96h-634zM792 1655q-44 0 -71.5 33t-19.5 77q6 39 37.5 65.5t69.5 26.5q45 0 72.5 -33t19.5 -79q-7 -37 -38.5 -63.5t-69.5 -26.5zM1152 1655q-45 0 -72.5 33t-19.5 77q7 39 39 65.5t69 26.5q46 0 72.5 -33t18.5 -79q-7 -38 -38 -64t-69 -26z M676 -20q-163 0 -283.5 69.5t-174 191t-27.5 270.5l182 1025h141l-179 -1014q-31 -174 67.5 -288t278.5 -114q187 0 333 118.5t178 293.5l177 1004h141l-183 -1035q-27 -149 -120 -268t-232.5 -186t-298.5 -67z" />
<glyph unicode="&#x1d6;" horiz-adv-x="1031" d="M386 1563l17 96h635l-18 -96h-634zM459 1144q-44 0 -71.5 32.5t-19.5 76.5q7 39 38.5 65.5t69.5 26.5q44 0 71 -32.5t20 -78.5q-7 -37 -39 -63.5t-69 -26.5zM819 1144q-45 0 -72.5 32.5t-19.5 76.5q7 39 38.5 65.5t69.5 26.5q45 0 72 -32.5t19 -78.5q-7 -37 -38 -63.5 t-69 -26.5zM435 -18q-166 0 -252.5 102.5t-57.5 265.5l107 613h137l-106 -609q-19 -109 30.5 -174t144.5 -65q103 0 183.5 70t99.5 179l104 599h137l-109 -623q-28 -163 -143 -260.5t-275 -97.5z" />
<glyph unicode="&#x1d7;" horiz-adv-x="1513" d="M983 1980l-48 61l364 318l66 -89zM792 1655q-44 0 -71.5 33t-19.5 77q6 39 37.5 65.5t69.5 26.5q45 0 72.5 -33t19.5 -79q-7 -37 -38.5 -63.5t-69.5 -26.5zM1152 1655q-45 0 -72.5 33t-19.5 77q7 39 39 65.5t69 26.5q46 0 72.5 -33t18.5 -79q-7 -38 -38 -64t-69 -26z M676 -20q-163 0 -283.5 69.5t-174 191t-27.5 270.5l182 1025h141l-179 -1014q-31 -174 67.5 -288t278.5 -114q187 0 333 118.5t178 293.5l177 1004h141l-183 -1035q-27 -149 -120 -268t-232.5 -186t-298.5 -67z" />
<glyph unicode="&#x1d8;" horiz-adv-x="1031" d="M650 1468l-48 61l364 318l66 -89zM459 1144q-44 0 -71.5 32.5t-19.5 76.5q7 39 38.5 65.5t69.5 26.5q44 0 71 -32.5t20 -78.5q-7 -37 -39 -63.5t-69 -26.5zM819 1144q-45 0 -72.5 32.5t-19.5 76.5q7 39 38.5 65.5t69.5 26.5q45 0 72 -32.5t19 -78.5q-7 -37 -38 -63.5 t-69 -26.5zM435 -18q-166 0 -252.5 102.5t-57.5 265.5l107 613h137l-106 -609q-19 -109 30.5 -174t144.5 -65q103 0 183.5 70t99.5 179l104 599h137l-109 -623q-28 -163 -143 -260.5t-275 -97.5z" />
<glyph unicode="&#x1d9;" horiz-adv-x="1513" d="M957 2019l-147 305l81 45l148 -257l242 257l71 -45l-255 -305h-140zM792 1655q-44 0 -71.5 33t-19.5 77q6 39 37.5 65.5t69.5 26.5q45 0 72.5 -33t19.5 -79q-7 -37 -38.5 -63.5t-69.5 -26.5zM1152 1655q-45 0 -72.5 33t-19.5 77q7 39 39 65.5t69 26.5q46 0 72.5 -33 t18.5 -79q-7 -38 -38 -64t-69 -26zM676 -20q-163 0 -283.5 69.5t-174 191t-27.5 270.5l182 1025h141l-179 -1014q-31 -174 67.5 -288t278.5 -114q187 0 333 118.5t178 293.5l177 1004h141l-183 -1035q-27 -149 -120 -268t-232.5 -186t-298.5 -67z" />
<glyph unicode="&#x1da;" horiz-adv-x="1031" d="M624 1507l-147 305l81 45l148 -257l242 257l71 -45l-255 -305h-140zM459 1144q-44 0 -71.5 32.5t-19.5 76.5q7 39 38.5 65.5t69.5 26.5q44 0 71 -32.5t20 -78.5q-7 -37 -39 -63.5t-69 -26.5zM819 1144q-45 0 -72.5 32.5t-19.5 76.5q7 39 38.5 65.5t69.5 26.5 q45 0 72 -32.5t19 -78.5q-7 -37 -38 -63.5t-69 -26.5zM435 -18q-166 0 -252.5 102.5t-57.5 265.5l107 613h137l-106 -609q-19 -109 30.5 -174t144.5 -65q103 0 183.5 70t99.5 179l104 599h137l-109 -623q-28 -163 -143 -260.5t-275 -97.5z" />
<glyph unicode="&#x1db;" horiz-adv-x="1513" d="M1044 1980l-289 289l93 89l258 -317zM792 1655q-44 0 -71.5 33t-19.5 77q6 39 37.5 65.5t69.5 26.5q45 0 72.5 -33t19.5 -79q-7 -37 -38.5 -63.5t-69.5 -26.5zM1152 1655q-45 0 -72.5 33t-19.5 77q7 39 39 65.5t69 26.5q46 0 72.5 -33t18.5 -79q-7 -38 -38 -64t-69 -26z M676 -20q-163 0 -283.5 69.5t-174 191t-27.5 270.5l182 1025h141l-179 -1014q-31 -174 67.5 -288t278.5 -114q187 0 333 118.5t178 293.5l177 1004h141l-183 -1035q-27 -149 -120 -268t-232.5 -186t-298.5 -67z" />
<glyph unicode="&#x1dc;" horiz-adv-x="1031" d="M711 1468l-289 289l93 89l258 -317zM459 1144q-44 0 -71.5 32.5t-19.5 76.5q7 39 38.5 65.5t69.5 26.5q44 0 71 -32.5t20 -78.5q-7 -37 -39 -63.5t-69 -26.5zM819 1144q-45 0 -72.5 32.5t-19.5 76.5q7 39 38.5 65.5t69.5 26.5q45 0 72 -32.5t19 -78.5q-7 -37 -38 -63.5 t-69 -26.5zM435 -18q-166 0 -252.5 102.5t-57.5 265.5l107 613h137l-106 -609q-19 -109 30.5 -174t144.5 -65q103 0 183.5 70t99.5 179l104 599h137l-109 -623q-28 -163 -143 -260.5t-275 -97.5z" />
<glyph unicode="&#x218;" horiz-adv-x="1129" d="M496 -20q-154 0 -278 66.5t-198 176.5l113 93q123 -210 358 -210q148 0 259.5 80.5t134.5 213.5q9 51 -4.5 95.5t-32 72.5t-69 62t-77 48t-96.5 47q-9 5 -14 7q-33 15 -56 25.5t-54 26.5t-52.5 30t-47.5 32.5t-43 38t-34.5 43t-27.5 49.5t-17 56.5t-6.5 65.5t7.5 74 q21 118 94 206.5t173 132.5t213 44q256 0 403 -204l-95 -82q-70 90 -141 125t-167 35q-123 0 -221 -71.5t-120 -195.5q-11 -62 3.5 -110.5t60.5 -87t85 -61t112 -56.5q152 -65 212 -105q152 -100 157 -261q1 -45 -8 -96q-17 -98 -68 -177t-123 -128t-157.5 -75t-177.5 -26z M254 -545l-77 32l255 420l112 -48z" />
<glyph unicode="&#x219;" horiz-adv-x="857" d="M350 -18q-201 0 -345 133l91 105q44 -51 113 -83t148 -32q95 0 163 45.5t81 121.5q5 28 -3 51.5t-19.5 37.5t-40.5 30t-47.5 23t-59.5 22q-7 3 -11 4q-55 16 -85.5 26.5t-74.5 34t-65 50t-33.5 70t-2.5 97.5q14 85 70 146t132.5 89t164.5 28q168 0 287 -101l-89 -98 q-92 78 -211 78q-89 0 -152 -39.5t-75 -109.5q-6 -32 3.5 -56t38.5 -42t54 -28.5t72 -26.5q23 -8 35 -12q22 -6 40 -12t39.5 -14t37.5 -16.5t35 -19.5t31 -23t26 -28t20.5 -33.5t13 -39t4.5 -45.5t-5 -53q-24 -133 -127 -206.5t-254 -73.5zM141 -545l-77 32l255 420l112 -48 z" />
<glyph unicode="&#x21a;" horiz-adv-x="1056" d="M1214 1537l-25 -141h-429l-245 -1396h-141l245 1396h-429l25 141h999zM155 -513l255 420l112 -48l-290 -404z" />
<glyph unicode="&#x21b;" horiz-adv-x="603" d="M661 963l-22 -126h-206l-147 -837h-138l146 837h-208l21 126h209l61 346h139l-61 -346h206zM-70 -513l255 420l112 -48l-290 -404z" />
<glyph unicode="&#x237;" horiz-adv-x="493" d="M0 -512l262 1475h136l-262 -1475h-136z" />
<glyph unicode="&#x2c6;" horiz-adv-x="700" d="M281 1187l-69 43l253 306h140l149 -306l-78 -43l-151 255z" />
<glyph unicode="&#x2c7;" horiz-adv-x="702" d="M405 1186l-147 305l81 45l148 -257l242 257l71 -45l-255 -305h-140z" />
<glyph unicode="&#x2d8;" horiz-adv-x="882" d="M575 1205q-148 0 -228.5 88.5t-56.5 232.5h110q-17 -106 28.5 -168.5t144.5 -62.5q107 0 180 65.5t89 165.5h110q-24 -150 -128.5 -235.5t-248.5 -85.5z" />
<glyph unicode="&#x2d9;" horiz-adv-x="485" d="M384 1226q-44 0 -72 32.5t-21 76.5q8 40 39 66t69 26q45 0 73 -32.5t18 -78.5q-5 -37 -37 -63.5t-69 -26.5z" />
<glyph unicode="&#x2da;" horiz-adv-x="652" d="M454 1147q-88 0 -141 64t-37 150q13 81 81 138t149 57q87 0 138.5 -63t37.5 -151q-14 -80 -81 -137.5t-147 -57.5zM448 1225q56 0 103 39.5t57 96.5q8 49 -19.5 84.5t-76.5 35.5q-56 0 -102.5 -41.5t-56.5 -97.5q-9 -51 18 -84t77 -33z" />
<glyph unicode="&#x2db;" horiz-adv-x="625" d="M148 -531q-104 4 -156 62.5t-33 156.5q17 101 100.5 186.5t221.5 167.5l80 -44q-117 -55 -202 -133t-101 -168q-9 -56 17 -84.5t81 -28.5q110 0 206 82l56 -100q-121 -102 -270 -97z" />
<glyph unicode="&#x2dc;" horiz-adv-x="965" d="M772 1267q-122 0 -168 118q-34 55 -82 55q-54 0 -94 -48t-53 -119l-102 10q21 115 87 187t158 72q120 0 167 -118q19 -27 37.5 -40.5t48.5 -13.5q54 0 93 44t52 122l100 -10q-20 -115 -85 -187t-159 -72z" />
<glyph unicode="&#x2dd;" horiz-adv-x="492" d="M225 1147l-48 61l364 318l66 -89z" />
<glyph unicode="&#x300;" d="M17 1147l-289 289l93 89l258 -317z" />
<glyph unicode="&#x301;" d="M-267 1147l-48 61l364 318l66 -89z" />
<glyph unicode="&#x302;" d="M-419 1187l-69 43l253 306h140l149 -306l-78 -43l-151 255z" />
<glyph unicode="&#x303;" d="M-196 1267q-37 0 -65 10t-47.5 30.5t-29.5 35.5t-24 41q-16 29 -33.5 42.5t-46.5 13.5q-56 0 -95.5 -47.5t-52.5 -119.5l-102 10q20 112 85.5 185.5t161.5 73.5q65 0 101.5 -31.5t65.5 -85.5q28 -55 86 -55q53 0 91.5 44t51.5 122l100 -10q-21 -118 -86.5 -188.5 t-160.5 -70.5z" />
<glyph unicode="&#x304;" d="M-669 1242l17 96h635l-18 -96h-634z" />
<glyph unicode="&#x306;" d="M-308 1205q-147 0 -229 86t-57 220h110q-16 -96 29.5 -156t143.5 -60q105 0 179 63t91 153h110q-24 -140 -129.5 -223t-247.5 -83z" />
<glyph unicode="&#x307;" d="M-101 1226q-44 0 -72 32.5t-21 76.5q8 40 39 66t69 26q45 0 73 -32.5t18 -78.5q-5 -37 -37 -63.5t-69 -26.5z" />
<glyph unicode="&#x308;" d="M-477 1144q-44 0 -71.5 32.5t-19.5 76.5q7 39 38.5 65.5t69.5 26.5q44 0 71 -32.5t20 -78.5q-7 -37 -39 -63.5t-69 -26.5zM-117 1144q-45 0 -72.5 32.5t-19.5 76.5q7 39 38.5 65.5t69.5 26.5q45 0 72 -32.5t19 -78.5q-7 -37 -38 -63.5t-69 -26.5z" />
<glyph unicode="&#x309;" d="M-249 1070l19 142q153 32 172 139q7 38 -14.5 63t-65.5 25q-56 0 -113 -36l-52 85q76 52 157 52q94 0 149 -60t39 -149q-11 -60 -57 -107t-123 -69l-19 -85h-92z" />
<glyph unicode="&#x30a;" d="M-198 1147q-88 0 -141 64t-37 150q13 81 81 138t149 57q87 0 138.5 -63t37.5 -151q-14 -80 -81 -137.5t-147 -57.5zM-204 1225q56 0 103 39.5t57 96.5q8 49 -19.5 84.5t-76.5 35.5q-56 0 -102.5 -41.5t-56.5 -97.5q-9 -51 18 -84t77 -33z" />
<glyph unicode="&#x30b;" d="M-586 1209l-60 79l356 269l60 -78zM-241 1209l-60 79l356 269l61 -78z" />
<glyph unicode="&#x30c;" d="M-297 1186l-147 305l81 45l148 -257l242 257l71 -45l-255 -305h-140z" />
<glyph unicode="&#x312;" d="M-93 1292q29 -11 44.5 -39.5t8.5 -63.5q-7 -37 -39 -64t-69 -27q-48 0 -73 32t-15 80q0 8 8 34l221 404h93z" />
<glyph unicode="&#x31b;" d="M-265 791q-98 0 -188 63l58 34q47 -28 88 -28q53 0 87.5 45t44.5 105l23 126h118l-18 -107q-22 -125 -79.5 -181.5t-133.5 -56.5z" />
<glyph unicode="&#x323;" d="M-408 -512q-45 0 -72 33t-19 78q7 38 39 65t69 27q44 0 71.5 -33.5t19.5 -77.5q-7 -39 -38.5 -65.5t-69.5 -26.5z" />
<glyph unicode="&#x326;" d="M-434 -308l-77 32l255 420l112 -48z" />
<glyph unicode="&#x327;" d="M-468 -532q-70 0 -134 38.5t-87 93.5l78 25q17 -31 58 -51.5t81 -20.5q55 0 100 39t54 94q12 70 -42.5 95t-147.5 -7l-67 48l119 182h91l-98 -143q110 22 177.5 -36t50.5 -159q-15 -83 -82 -140.5t-151 -57.5z" />
<glyph unicode="&#x328;" d="M-477 -531q-104 4 -156 62.5t-34 156.5q18 104 111.5 194.5t229.5 150.5l62 -35q-116 -55 -201.5 -133t-102.5 -168q-10 -56 16.5 -84.5t82.5 -28.5q109 0 205 82l56 -100q-121 -102 -269 -97z" />
<glyph unicode="&#x335;" d="M-747 482l17 99h580l-17 -99h-580z" />
<glyph unicode="&#x336;" d="M-1618 483l17 99h1451l-18 -99h-1450z" />
<glyph unicode="&#x337;" d="M-628 255l19 127l606 402l-19 -127z" />
<glyph unicode="&#x338;" d="M-1199 -73l-99 63l1415 1621l95 -65z" />
<glyph unicode="&#x394;" horiz-adv-x="1459" d="M993 1536l345 -1536h-1390l888 1536h157zM177 125h982l-270 1250z" />
<glyph unicode="&#x3a9;" horiz-adv-x="1807" d="M33 0l20 117h353l9 19q-119 104 -180.5 281.5t-24.5 392.5q36 204 161 370.5t313 261.5t401 95q112 0 210 -28t171 -78.5t129 -119.5t85 -151.5t39 -175t-9 -188.5q-19 -108 -64.5 -213.5t-106 -190t-128.5 -151.5t-138 -111l-5 -13h358l-20 -117h-591l10 88 q86 40 168 105t156 153t129 203.5t77 242.5q9 65 10 129.5t-14.5 126.5t-40 117t-66 102t-92.5 80.5t-119.5 52.5t-147.5 19q-135 0 -259.5 -52t-219 -140t-160.5 -207t-89 -252q-40 -232 44 -416.5t232 -267.5l-10 -84h-590z" />
<glyph unicode="&#x3bc;" horiz-adv-x="1182" d="M951 963h137l-168 -963h-137l25 145q-65 -76 -152.5 -119.5t-180.5 -43.5q-162 0 -257 119l-102 -582h-107l254 1444h138l-103 -593q-19 -112 43.5 -189t172.5 -77q118 0 216.5 81.5t118.5 194.5z" />
<glyph unicode="&#x3c0;" horiz-adv-x="1240" d="M69 5q83 144 172.5 385.5t139.5 451.5q-102 -4 -157 -14.5t-105 -34.5l-9 120q97 50 306 50h878l-35 -126h-184l-99 -556q-36 -201 -23 -286l-126 10q-22 56 14 269l100 563l-432 -3q-46 -201 -137.5 -459.5t-170.5 -379.5z" />
<glyph unicode="&#x1e80;" horiz-adv-x="1920" d="M1253 1720l-62 -61l-289 289l93 89zM2071 1536l-911 -1575l-164 728l-421 -728l-353 1575h148l265 -1245l322 573l-151 672h144l105 -498l280 498h151l-393 -680l119 -565l703 1245h156z" />
<glyph unicode="&#x1e81;" horiz-adv-x="1469" d="M902 1147l-62 -61l-289 289l93 89zM1531 963l-561 -1009l-197 744l-462 -744l-205 1009h146l127 -676l445 729l189 -734l367 681h151z" />
<glyph unicode="&#x1e82;" horiz-adv-x="1920" d="M1512 1949l-382 -290l-48 61l364 318zM2071 1536l-911 -1575l-164 728l-421 -728l-353 1575h148l265 -1245l322 573l-151 672h144l105 -498l280 498h151l-393 -680l119 -565l703 1245h156z" />
<glyph unicode="&#x1e83;" horiz-adv-x="1469" d="M1161 1376l-382 -290l-48 61l364 318zM1531 963l-561 -1009l-197 744l-462 -744l-205 1009h146l127 -676l445 729l189 -734l367 681h151z" />
<glyph unicode="&#x1e84;" horiz-adv-x="1920" d="M996 1655q-44 0 -71.5 33t-19.5 77q6 39 37.5 65.5t69.5 26.5q45 0 72.5 -33t19.5 -79q-7 -37 -38.5 -63.5t-69.5 -26.5zM1356 1655q-45 0 -72.5 33t-19.5 77q7 39 39 65.5t69 26.5q46 0 72.5 -33t18.5 -79q-7 -38 -38 -64t-69 -26zM2071 1536l-911 -1575l-164 728 l-421 -728l-353 1575h148l265 -1245l322 573l-151 672h144l105 -498l280 498h151l-393 -680l119 -565l703 1245h156z" />
<glyph unicode="&#x1e85;" horiz-adv-x="1469" d="M656 1144q-44 0 -71.5 32.5t-19.5 76.5q7 39 38.5 65.5t69.5 26.5q44 0 71 -32.5t20 -78.5q-7 -37 -39 -63.5t-69 -26.5zM1016 1144q-45 0 -72.5 32.5t-19.5 76.5q7 39 38.5 65.5t69.5 26.5q45 0 72 -32.5t19 -78.5q-7 -37 -38 -63.5t-69 -26.5zM1531 963l-561 -1009 l-197 744l-462 -744l-205 1009h146l127 -676l445 729l189 -734l367 681h151z" />
<glyph unicode="&#x1ea0;" horiz-adv-x="1335" d="M1216 0h-155l-54 262h-749l-147 -262h-160l909 1573zM332 394h647l-175 841zM551 -152q44 0 71.5 -33.5t19.5 -77.5q-7 -39 -38.5 -65.5t-69.5 -26.5q-45 0 -72 33t-19 78q7 38 39 65t69 27z" />
<glyph unicode="&#x1ea1;" horiz-adv-x="1261" d="M1032 963h136l-168 -963h-136l27 160q-78 -84 -182 -131t-222 -47q-131 0 -233 68t-149.5 185.5t-23.5 255.5q24 133 109 246.5t206 178.5t248 65q124 0 216 -51t142 -141zM508 115q156 0 284.5 110t157.5 266q27 149 -58.5 253t-234.5 104q-155 0 -284.5 -110.5 t-157.5 -265.5q-27 -149 58.5 -253t234.5 -104zM510 -152q44 0 71.5 -33.5t19.5 -77.5q-7 -39 -38.5 -65.5t-69.5 -26.5q-45 0 -72 33t-19 78q7 38 39 65t69 27z" />
<glyph unicode="&#x1ea2;" horiz-adv-x="1335" d="M942 2012q-56 0 -113 -36l-52 85q76 52 157 52q94 0 149 -60t39 -149q-11 -60 -57 -107t-123 -69l-19 -85h-92l19 142q153 32 172 139q7 38 -14.5 63t-65.5 25zM1061 0l-54 262h-749l-147 -262h-160l909 1573l356 -1573h-155zM332 394h647l-175 841z" />
<glyph unicode="&#x1ea3;" horiz-adv-x="1261" d="M749 1439q-56 0 -113 -36l-52 85q76 52 157 52q94 0 149 -60t39 -149q-11 -60 -57 -107t-123 -69l-19 -85h-92l19 142q153 32 172 139q7 38 -14.5 63t-65.5 25zM1032 963h136l-168 -963h-136l27 160q-78 -84 -182 -131t-222 -47q-131 0 -233 68t-149.5 185.5t-23.5 255.5 q24 133 109 246.5t206 178.5t248 65q124 0 216 -51t142 -141zM508 115q156 0 284.5 110t157.5 266q27 149 -58.5 253t-234.5 104q-155 0 -284.5 -110.5t-157.5 -265.5q-27 -149 58.5 -253t234.5 -104z" />
<glyph unicode="&#x1ea4;" horiz-adv-x="1335" d="M1306 2425l-382 -290l-48 61l364 318zM928 1918l-245 -255l-69 43l253 306h140l149 -306l-78 -43zM-49 0l909 1573l356 -1573h-155l-54 262h-749l-147 -262h-160zM332 394h647l-175 841z" />
<glyph unicode="&#x1ea5;" horiz-adv-x="1261" d="M1113 1852l-382 -290l-48 61l364 318zM735 1345l-245 -255l-69 43l253 306h140l149 -306l-78 -43zM1032 963h136l-168 -963h-136l27 160q-78 -84 -182 -131t-222 -47q-131 0 -233 68t-149.5 185.5t-23.5 255.5q24 133 109 246.5t206 178.5t248 65q124 0 216 -51t142 -141 zM508 115q156 0 284.5 110t157.5 266q27 149 -58.5 253t-234.5 104q-155 0 -284.5 -110.5t-157.5 -265.5q-27 -149 58.5 -253t234.5 -104z" />
<glyph unicode="&#x1ea6;" horiz-adv-x="1335" d="M1047 2196l-62 -61l-290 289l94 89zM928 1918l-244 -255l-69 43l252 306h140l149 -306l-78 -43zM1061 0l-54 262h-749l-147 -262h-160l909 1573l356 -1573h-155zM332 394h647l-175 841z" />
<glyph unicode="&#x1ea7;" horiz-adv-x="1261" d="M854 1623l-62 -61l-290 289l94 89zM735 1345l-244 -255l-69 43l252 306h140l149 -306l-78 -43zM1032 963h136l-168 -963h-136l27 160q-78 -84 -182 -131t-222 -47q-131 0 -233 68t-149.5 185.5t-23.5 255.5q24 133 109 246.5t206 178.5t248 65q124 0 216 -51t142 -141z M508 115q156 0 284.5 110t157.5 266q27 149 -58.5 253t-234.5 104q-155 0 -284.5 -110.5t-157.5 -265.5q-27 -149 58.5 -253t234.5 -104z" />
<glyph unicode="&#x1ea8;" horiz-adv-x="1335" d="M1023 2488q-59 0 -111 -35l-54 84q80 53 159 53q94 0 148 -60t38 -149q-9 -60 -55 -107.5t-124 -69.5l-19 -84h-93l20 141q154 33 172 139q6 38 -15.5 63t-65.5 25zM929 1918l-245 -255l-69 43l253 306h140l149 -306l-78 -43zM1061 0l-54 262h-749l-147 -262h-160 l909 1573l356 -1573h-155zM332 394h647l-175 841z" />
<glyph unicode="&#x1ea9;" horiz-adv-x="1261" d="M830 1915q-59 0 -111 -35l-54 84q79 53 159 53q94 0 148 -60t38 -149q-9 -60 -55 -107.5t-124 -69.5l-19 -84h-93l20 141q154 33 172 139q6 38 -15.5 63t-65.5 25zM736 1345l-245 -255l-69 43l253 306h140l149 -306l-78 -43zM1032 963h136l-168 -963h-136l27 160 q-78 -84 -182 -131t-222 -47q-131 0 -233 68t-149.5 185.5t-23.5 255.5q24 133 109 246.5t206 178.5t248 65q124 0 216 -51t142 -141zM508 115q156 0 284.5 110t157.5 266q27 149 -58.5 253t-234.5 104q-155 0 -284.5 -110.5t-157.5 -265.5q-27 -149 58.5 -253t234.5 -104z " />
<glyph unicode="&#x1eaa;" horiz-adv-x="1335" d="M1254 2397l101 -11q-19 -114 -85 -186t-160 -72q-120 0 -168 118q-30 54 -80 54q-55 0 -95 -48t-52 -119l-102 11q19 114 85 186.5t158 72.5q120 0 169 -119q34 -54 84 -54q54 0 93 44.5t52 122.5zM1079 1663l-150 255l-245 -255l-69 43l253 306h140l149 -306zM-49 0 l909 1573l356 -1573h-155l-54 262h-749l-147 -262h-160zM332 394h647l-175 841z" />
<glyph unicode="&#x1eab;" horiz-adv-x="1261" d="M669 1727q-55 0 -95 -48t-52 -119l-102 11q19 114 85 186.5t158 72.5q120 0 169 -119q34 -54 84 -54q54 0 93 44.5t52 122.5l101 -11q-19 -114 -85 -186t-160 -72q-120 0 -168 118q-30 54 -80 54zM675 1439h140l149 -306l-78 -43l-150 255l-245 -255l-69 43zM1032 963 h136l-168 -963h-136l27 160q-78 -84 -182 -131t-222 -47q-131 0 -233 68t-149.5 185.5t-23.5 255.5q24 133 109 246.5t206 178.5t248 65q124 0 216 -51t142 -141zM508 115q156 0 284.5 110t157.5 266q27 149 -58.5 253t-234.5 104q-155 0 -284.5 -110.5t-157.5 -265.5 q-27 -149 58.5 -253t234.5 -104z" />
<glyph unicode="&#x1eac;" horiz-adv-x="1335" d="M928 1918l-244 -255l-69 43l253 306h140l149 -306l-78 -43zM1216 0h-155l-54 262h-749l-147 -262h-160l909 1573zM332 394h647l-175 841zM551 -152q44 0 71.5 -33.5t19.5 -77.5q-7 -39 -38.5 -65.5t-69.5 -26.5q-45 0 -72 33t-19 78q7 38 39 65t69 27z" />
<glyph unicode="&#x1ead;" horiz-adv-x="1261" d="M735 1345l-244 -255l-69 43l253 306h140l149 -306l-78 -43zM1032 963h136l-168 -963h-136l27 160q-78 -84 -182 -131t-222 -47q-131 0 -233 68t-149.5 185.5t-23.5 255.5q24 133 109 246.5t206 178.5t248 65q124 0 216 -51t142 -141zM508 115q156 0 284.5 110t157.5 266 q27 149 -58.5 253t-234.5 104q-155 0 -284.5 -110.5t-157.5 -265.5q-27 -149 58.5 -253t234.5 -104zM510 -152q44 0 71.5 -33.5t19.5 -77.5q-7 -39 -38.5 -65.5t-69.5 -26.5q-45 0 -72 33t-19 78q7 38 39 65t69 27z" />
<glyph unicode="&#x1eae;" horiz-adv-x="1335" d="M1306 2408l-382 -290l-48 61l364 318zM895 1807q105 0 179 63t91 153h110q-24 -140 -129.5 -223t-247.5 -83q-147 0 -229 86t-57 220h110q-16 -96 29.5 -156t143.5 -60zM-49 0l909 1573l356 -1573h-155l-54 262h-749l-147 -262h-160zM332 394h647l-175 841z" />
<glyph unicode="&#x1eaf;" horiz-adv-x="1261" d="M1113 1835l-382 -290l-48 61l364 318zM705 1144q-147 0 -229 86t-57 220h110q-16 -96 29.5 -156t143.5 -60q105 0 179 63t91 153h110q-24 -140 -129.5 -223t-247.5 -83zM1032 963h136l-168 -963h-136l27 160q-78 -84 -182 -131t-222 -47q-131 0 -233 68t-149.5 185.5 t-23.5 255.5q24 133 109 246.5t206 178.5t248 65q124 0 216 -51t142 -141zM508 115q156 0 284.5 110t157.5 266q27 149 -58.5 253t-234.5 104q-155 0 -284.5 -110.5t-157.5 -265.5q-27 -149 58.5 -253t234.5 -104z" />
<glyph unicode="&#x1eb0;" horiz-adv-x="1335" d="M1047 2179l-62 -61l-289 289l93 89zM898 1717q-147 0 -229 86t-57 220h110q-16 -96 29.5 -156t143.5 -60q105 0 179 63t91 153h110q-24 -140 -129.5 -223t-247.5 -83zM-49 0l909 1573l356 -1573h-155l-54 262h-749l-147 -262h-160zM332 394h647l-175 841z" />
<glyph unicode="&#x1eb1;" horiz-adv-x="1261" d="M854 1606l-62 -61l-289 289l93 89zM705 1144q-147 0 -229 86t-57 220h110q-16 -96 29.5 -156t143.5 -60q105 0 179 63t91 153h110q-24 -140 -129.5 -223t-247.5 -83zM1032 963h136l-168 -963h-136l27 160q-78 -84 -182 -131t-222 -47q-131 0 -233 68t-149.5 185.5 t-23.5 255.5q24 133 109 246.5t206 178.5t248 65q124 0 216 -51t142 -141zM508 115q156 0 284.5 110t157.5 266q27 149 -58.5 253t-234.5 104q-155 0 -284.5 -110.5t-157.5 -265.5q-27 -149 58.5 -253t234.5 -104z" />
<glyph unicode="&#x1eb2;" horiz-adv-x="1335" d="M1023 2471q-56 0 -113 -36l-52 85q76 52 157 52q94 0 149 -60t39 -149q-11 -60 -57 -107t-123 -69l-19 -85h-92l19 142q153 32 172 139q7 38 -14.5 63t-65.5 25zM898 1717q-147 0 -229 86t-57 220h110q-16 -96 29.5 -156t143.5 -60q105 0 179 63t91 153h110 q-24 -140 -129.5 -223t-247.5 -83zM-49 0l909 1573l356 -1573h-155l-54 262h-749l-147 -262h-160zM332 394h647l-175 841z" />
<glyph unicode="&#x1eb3;" horiz-adv-x="1261" d="M830 1898q-56 0 -113 -36l-52 85q76 52 157 52q94 0 149 -60t39 -149q-11 -60 -57 -107t-123 -69l-19 -85h-92l19 142q153 32 172 139q7 38 -14.5 63t-65.5 25zM705 1144q-147 0 -229 86t-57 220h110q-16 -96 29.5 -156t143.5 -60q105 0 179 63t91 153h110 q-24 -140 -129.5 -223t-247.5 -83zM1032 963h136l-168 -963h-136l27 160q-78 -84 -182 -131t-222 -47q-131 0 -233 68t-149.5 185.5t-23.5 255.5q24 133 109 246.5t206 178.5t248 65q124 0 216 -51t142 -141zM508 115q156 0 284.5 110t157.5 266q27 149 -58.5 253 t-234.5 104q-155 0 -284.5 -110.5t-157.5 -265.5q-27 -149 58.5 -253t234.5 -104z" />
<glyph unicode="&#x1eb4;" horiz-adv-x="1335" d="M860 2284q-56 0 -95.5 -47.5t-52.5 -119.5l-102 10q20 112 85.5 185.5t161.5 73.5q65 0 101.5 -31.5t65.5 -85.5q28 -55 86 -55q53 0 91.5 44t51.5 122l100 -10q-21 -118 -86.5 -188.5t-160.5 -70.5q-37 0 -65 10t-47.5 30.5t-29.5 35.5t-24 41q-16 29 -33.5 42.5 t-46.5 13.5zM895 1807q105 0 179 63t91 153h110q-24 -140 -129.5 -223t-247.5 -83q-147 0 -229 86t-57 220h110q-16 -96 29.5 -156t143.5 -60zM-49 0l909 1573l356 -1573h-155l-54 262h-749l-147 -262h-160zM332 394h647l-175 841z" />
<glyph unicode="&#x1eb5;" horiz-adv-x="1261" d="M667 1711q-56 0 -95.5 -47.5t-52.5 -119.5l-102 10q20 112 85.5 185.5t161.5 73.5q65 0 101.5 -31.5t65.5 -85.5q28 -55 86 -55q53 0 91.5 44t51.5 122l100 -10q-21 -118 -86.5 -188.5t-160.5 -70.5q-37 0 -65 10t-47.5 30.5t-29.5 35.5t-24 41q-16 29 -33.5 42.5 t-46.5 13.5zM705 1144q-147 0 -229 86t-57 220h110q-16 -96 29.5 -156t143.5 -60q105 0 179 63t91 153h110q-24 -140 -129.5 -223t-247.5 -83zM1032 963h136l-168 -963h-136l27 160q-78 -84 -182 -131t-222 -47q-131 0 -233 68t-149.5 185.5t-23.5 255.5q24 133 109 246.5 t206 178.5t248 65q124 0 216 -51t142 -141zM508 115q156 0 284.5 110t157.5 266q27 149 -58.5 253t-234.5 104q-155 0 -284.5 -110.5t-157.5 -265.5q-27 -149 58.5 -253t234.5 -104z" />
<glyph unicode="&#x1eb6;" horiz-adv-x="1335" d="M898 1717q-147 0 -229 86t-57 220h110q-16 -96 29.5 -156t143.5 -60q105 0 179 63t91 153h110q-24 -140 -129.5 -223t-247.5 -83zM-49 0l909 1573l356 -1573h-155l-54 262h-749l-147 -262h-160zM332 394h647l-175 841zM551 -152q44 0 71.5 -33.5t19.5 -77.5 q-7 -39 -38.5 -65.5t-69.5 -26.5q-45 0 -72 33t-19 78q7 38 39 65t69 27z" />
<glyph unicode="&#x1eb7;" horiz-adv-x="1261" d="M705 1144q-147 0 -229 86t-57 220h110q-16 -96 29.5 -156t143.5 -60q105 0 179 63t91 153h110q-24 -140 -129.5 -223t-247.5 -83zM1032 963h136l-168 -963h-136l27 160q-78 -84 -182 -131t-222 -47q-131 0 -233 68t-149.5 185.5t-23.5 255.5q24 133 109 246.5t206 178.5 t248 65q124 0 216 -51t142 -141zM508 115q156 0 284.5 110t157.5 266q27 149 -58.5 253t-234.5 104q-155 0 -284.5 -110.5t-157.5 -265.5q-27 -149 58.5 -253t234.5 -104zM510 -152q44 0 71.5 -33.5t19.5 -77.5q-7 -39 -38.5 -65.5t-69.5 -26.5q-45 0 -72 33t-19 78 q7 38 39 65t69 27z" />
<glyph unicode="&#x1eb8;" horiz-adv-x="1148" d="M1211 1400h-686l-99 -564h601l-25 -136h-600l-99 -564h686l-23 -136h-827l270 1536h827zM516 -152q44 0 71.5 -33.5t19.5 -77.5q-7 -39 -38.5 -65.5t-69.5 -26.5q-45 0 -72 33t-19 78q7 38 39 65t69 27z" />
<glyph unicode="&#x1eb9;" horiz-adv-x="1143" d="M659 981q138 0 243.5 -65t154.5 -178.5t25 -248.5l-4 -22h-872v-1q-25 -151 62.5 -256t236.5 -105q97 0 188 45.5t157 124.5l111 -59q-85 -111 -205.5 -172.5t-251.5 -61.5q-105 0 -193 40.5t-144.5 108.5t-80 162t-5.5 198q36 204 204.5 347t373.5 143zM657 857 q-131 0 -245.5 -77.5t-170.5 -201.5h717q-5 123 -89 201t-212 78zM469 -152q44 0 71.5 -33.5t19.5 -77.5q-7 -39 -38.5 -65.5t-69.5 -26.5q-45 0 -72 33t-19 78q7 38 39 65t69 27z" />
<glyph unicode="&#x1eba;" horiz-adv-x="1148" d="M907 2012q-56 0 -113 -36l-52 85q76 52 157 52q94 0 149 -60t39 -149q-11 -60 -57 -107t-123 -69l-19 -85h-92l19 142q153 32 172 139q7 38 -14.5 63t-65.5 25zM1211 1400h-686l-99 -564h601l-25 -136h-600l-99 -564h686l-23 -136h-827l270 1536h827z" />
<glyph unicode="&#x1ebb;" horiz-adv-x="1143" d="M760 1451q-56 0 -113 -36l-52 85q76 52 157 52q94 0 149 -60t39 -149q-11 -60 -57 -107t-123 -69l-19 -85h-92l19 142q153 32 172 139q7 38 -14.5 63t-65.5 25zM659 981q138 0 243.5 -65t154.5 -178.5t25 -248.5l-4 -22h-872v-1q-25 -151 62.5 -256t236.5 -105 q97 0 188 45.5t157 124.5l111 -59q-85 -111 -205.5 -172.5t-251.5 -61.5q-105 0 -193 40.5t-144.5 108.5t-80 162t-5.5 198q36 204 204.5 347t373.5 143zM657 857q-131 0 -245.5 -77.5t-170.5 -201.5h717q-5 123 -89 201t-212 78z" />
<glyph unicode="&#x1ebc;" horiz-adv-x="1148" d="M744 1825q-56 0 -95.5 -47.5t-52.5 -119.5l-102 10q20 112 85.5 185.5t161.5 73.5q65 0 101.5 -31.5t65.5 -85.5q28 -55 86 -55q53 0 91.5 44t51.5 122l100 -10q-21 -118 -86.5 -188.5t-160.5 -70.5q-37 0 -65 10t-47.5 30.5t-29.5 35.5t-24 41q-16 29 -33.5 42.5 t-46.5 13.5zM139 0l270 1536h827l-25 -136h-686l-99 -564h601l-25 -136h-600l-99 -564h686l-23 -136h-827z" />
<glyph unicode="&#x1ebd;" horiz-adv-x="1143" d="M597 1264q-56 0 -95.5 -47.5t-52.5 -119.5l-102 10q20 112 85.5 185.5t161.5 73.5q65 0 101.5 -31.5t65.5 -85.5q28 -55 86 -55q53 0 91.5 44t51.5 122l100 -10q-21 -118 -86.5 -188.5t-160.5 -70.5q-37 0 -65 10t-47.5 30.5t-29.5 35.5t-24 41q-16 29 -33.5 42.5 t-46.5 13.5zM659 981q138 0 243.5 -65t154.5 -178.5t25 -248.5l-4 -22h-872v-1q-25 -151 62.5 -256t236.5 -105q97 0 188 45.5t157 124.5l111 -59q-85 -111 -205.5 -172.5t-251.5 -61.5q-105 0 -193 40.5t-144.5 108.5t-80 162t-5.5 198q36 204 204.5 347t373.5 143z M657 857q-131 0 -245.5 -77.5t-170.5 -201.5h717q-5 123 -89 201t-212 78z" />
<glyph unicode="&#x1ebe;" horiz-adv-x="1148" d="M1271 2425l-382 -290l-48 61l364 318zM893 1918l-245 -255l-69 43l253 306h140l149 -306l-78 -43zM139 0l270 1536h827l-25 -136h-686l-99 -564h601l-25 -136h-600l-99 -564h686l-23 -136h-827z" />
<glyph unicode="&#x1ebf;" horiz-adv-x="1143" d="M1124 1864l-382 -290l-48 61l364 318zM746 1357l-245 -255l-69 43l253 306h140l149 -306l-78 -43zM659 981q138 0 243.5 -65t154.5 -178.5t25 -248.5l-4 -22h-872v-1q-25 -151 62.5 -256t236.5 -105q97 0 188 45.5t157 124.5l111 -59q-85 -111 -205.5 -172.5 t-251.5 -61.5q-105 0 -193 40.5t-144.5 108.5t-80 162t-5.5 198q36 204 204.5 347t373.5 143zM657 857q-131 0 -245.5 -77.5t-170.5 -201.5h717q-5 123 -89 201t-212 78z" />
<glyph unicode="&#x1ec0;" horiz-adv-x="1148" d="M1012 2196l-62 -61l-290 289l94 89zM893 1918l-244 -255l-69 43l252 306h140l149 -306l-78 -43zM1211 1400h-686l-99 -564h601l-25 -136h-600l-99 -564h686l-23 -136h-827l270 1536h827z" />
<glyph unicode="&#x1ec1;" horiz-adv-x="1143" d="M865 1635l-62 -61l-290 289l94 89zM746 1357l-244 -255l-69 43l252 306h140l149 -306l-78 -43zM659 981q138 0 243.5 -65t154.5 -178.5t25 -248.5l-4 -22h-872v-1q-25 -151 62.5 -256t236.5 -105q97 0 188 45.5t157 124.5l111 -59q-85 -111 -205.5 -172.5t-251.5 -61.5 q-105 0 -193 40.5t-144.5 108.5t-80 162t-5.5 198q36 204 204.5 347t373.5 143zM657 857q-131 0 -245.5 -77.5t-170.5 -201.5h717q-5 123 -89 201t-212 78z" />
<glyph unicode="&#x1ec2;" horiz-adv-x="1148" d="M988 2488q-59 0 -111 -35l-54 84q79 53 159 53q94 0 148 -60t38 -149q-9 -60 -55 -107.5t-124 -69.5l-19 -84h-93l20 141q154 33 172 139q6 38 -15.5 63t-65.5 25zM894 1918l-245 -255l-69 43l253 306h140l149 -306l-78 -43zM1211 1400h-686l-99 -564h601l-25 -136h-600 l-99 -564h686l-23 -136h-827l270 1536h827z" />
<glyph unicode="&#x1ec3;" horiz-adv-x="1143" d="M841 1927q-59 0 -111 -35l-54 84q79 53 159 53q94 0 148 -60t38 -149q-9 -60 -55 -107.5t-124 -69.5l-19 -84h-93l20 141q154 33 172 139q6 38 -15.5 63t-65.5 25zM747 1357l-245 -255l-69 43l253 306h140l149 -306l-78 -43zM659 981q138 0 243.5 -65t154.5 -178.5 t25 -248.5l-4 -22h-872v-1q-25 -151 62.5 -256t236.5 -105q97 0 188 45.5t157 124.5l111 -59q-85 -111 -205.5 -172.5t-251.5 -61.5q-105 0 -193 40.5t-144.5 108.5t-80 162t-5.5 198q36 204 204.5 347t373.5 143zM657 857q-131 0 -245.5 -77.5t-170.5 -201.5h717 q-5 123 -89 201t-212 78z" />
<glyph unicode="&#x1ec4;" horiz-adv-x="1148" d="M827 2300q-55 0 -95 -48t-52 -119l-102 11q19 114 85 186.5t158 72.5q120 0 169 -119q34 -54 84 -54q54 0 93 44.5t52 122.5l101 -11q-19 -114 -85 -186t-160 -72q-120 0 -168 118q-30 54 -80 54zM833 2012h140l149 -306l-78 -43l-150 255l-245 -255l-69 43zM139 0 l270 1536h827l-25 -136h-686l-99 -564h601l-25 -136h-600l-99 -564h686l-23 -136h-827z" />
<glyph unicode="&#x1ec5;" horiz-adv-x="1143" d="M680 1739q-55 0 -95 -48t-52 -119l-102 11q19 114 85 186.5t158 72.5q120 0 169 -119q34 -54 84 -54q54 0 93 44.5t52 122.5l101 -11q-19 -114 -85 -186t-160 -72q-120 0 -168 118q-30 54 -80 54zM686 1451h140l149 -306l-78 -43l-150 255l-245 -255l-69 43zM659 981 q138 0 243.5 -65t154.5 -178.5t25 -248.5l-4 -22h-872v-1q-25 -151 62.5 -256t236.5 -105q97 0 188 45.5t157 124.5l111 -59q-85 -111 -205.5 -172.5t-251.5 -61.5q-105 0 -193 40.5t-144.5 108.5t-80 162t-5.5 198q36 204 204.5 347t373.5 143zM657 857 q-131 0 -245.5 -77.5t-170.5 -201.5h717q-5 123 -89 201t-212 78z" />
<glyph unicode="&#x1ec6;" horiz-adv-x="1148" d="M893 1918l-244 -255l-69 43l253 306h140l149 -306l-78 -43zM1211 1400h-686l-99 -564h601l-25 -136h-600l-99 -564h686l-23 -136h-827l270 1536h827zM516 -152q44 0 71.5 -33.5t19.5 -77.5q-7 -39 -38.5 -65.5t-69.5 -26.5q-45 0 -72 33t-19 78q7 38 39 65t69 27z" />
<glyph unicode="&#x1ec7;" horiz-adv-x="1143" d="M746 1357l-244 -255l-69 43l253 306h140l149 -306l-78 -43zM659 981q138 0 243.5 -65t154.5 -178.5t25 -248.5l-4 -22h-872v-1q-25 -151 62.5 -256t236.5 -105q97 0 188 45.5t157 124.5l111 -59q-85 -111 -205.5 -172.5t-251.5 -61.5q-105 0 -193 40.5t-144.5 108.5 t-80 162t-5.5 198q36 204 204.5 347t373.5 143zM657 857q-131 0 -245.5 -77.5t-170.5 -201.5h717q-5 123 -89 201t-212 78zM469 -152q44 0 71.5 -33.5t19.5 -77.5q-7 -39 -38.5 -65.5t-69.5 -26.5q-45 0 -72 33t-19 78q7 38 39 65t69 27z" />
<glyph unicode="&#x1ec8;" horiz-adv-x="586" d="M452 1643l19 142q153 32 172 139q7 38 -14.5 63t-65.5 25q-56 0 -113 -36l-52 85q76 52 157 52q94 0 149 -60t39 -149q-11 -60 -57 -107t-123 -69l-19 -85h-92zM139 0l270 1536h141l-270 -1536h-141z" />
<glyph unicode="&#x1ec9;" horiz-adv-x="489" d="M302 1069l19 142q153 32 172 139q7 38 -14.5 63t-65.5 25q-56 0 -113 -36l-52 85q76 52 157 52q94 0 149 -60t39 -149q-11 -60 -57 -107t-123 -69l-19 -85h-92zM93 0l168 963h136l-168 -963h-136z" />
<glyph unicode="&#x1eca;" horiz-adv-x="586" d="M139 0l270 1536h141l-270 -1536h-141zM155 -355q-45 0 -72 33t-19 78q7 38 39 65t69 27q44 0 71.5 -33.5t19.5 -77.5q-7 -39 -38.5 -65.5t-69.5 -26.5z" />
<glyph unicode="&#x1ecb;" horiz-adv-x="488" d="M372 1144q-44 0 -71 32t-20 76q7 38 37.5 63t68.5 25q43 0 69.5 -31.5t18.5 -76.5q-7 -37 -37 -62.5t-66 -25.5zM93 0l168 963h134l-168 -963h-134zM75 -512q-45 0 -72 33t-19 78q7 38 39 65t69 27q44 0 71.5 -33.5t19.5 -77.5q-7 -39 -38.5 -65.5t-69.5 -26.5z" />
<glyph unicode="&#x1ecc;" horiz-adv-x="1776" d="M810 -20q-130 0 -245 40.5t-199 113t-142.5 173t-74.5 219.5t4 252q37 212 172.5 391t333 283t410.5 104q130 0 245 -40.5t199 -113t142.5 -173t74.5 -219.5t-4 -252q-37 -212 -173 -391t-333.5 -283t-409.5 -104zM815 120q134 0 265 52t234.5 140t177 209.5t97.5 256.5 q31 175 -28 321.5t-191 231.5t-307 85q-179 0 -345.5 -87.5t-281.5 -239.5t-146 -331q-31 -175 28.5 -321.5t191 -231.5t305.5 -85zM751 -355q-45 0 -72 33t-19 78q7 38 39 65t69 27q44 0 71.5 -33.5t19.5 -77.5q-7 -39 -38.5 -65.5t-69.5 -26.5z" />
<glyph unicode="&#x1ecd;" horiz-adv-x="1163" d="M503 -18q-105 0 -192.5 40.5t-144 108.5t-80.5 162t-6 198q23 134 108.5 246.5t210.5 178t260 65.5q104 0 191.5 -40.5t144 -108.5t80.5 -162t6 -198q-23 -134 -108.5 -246.5t-210.5 -178t-259 -65.5zM506 115q155 0 284 110t158 266q27 149 -58.5 252.5t-233.5 103.5 q-157 0 -285.5 -109.5t-156.5 -265.5q-27 -149 58 -253t234 -104zM444 -355q-45 0 -72 33t-19 78q7 38 39 65t69 27q44 0 71.5 -33.5t19.5 -77.5q-7 -39 -38.5 -65.5t-69.5 -26.5z" />
<glyph unicode="&#x1ece;" horiz-adv-x="1776" d="M1048 1643l19 142q153 32 172 139q7 38 -14.5 63t-65.5 25q-56 0 -113 -36l-52 85q76 52 157 52q94 0 149 -60t39 -149q-11 -60 -57 -107t-123 -69l-19 -85h-92zM810 -20q-130 0 -245 40.5t-199 113t-142.5 173t-74.5 219.5t4 252q37 212 172.5 391t333 283t410.5 104 q130 0 245 -40.5t199 -113t142.5 -173t74.5 -219.5t-4 -252q-37 -212 -173 -391t-333.5 -283t-409.5 -104zM815 120q134 0 265 52t234.5 140t177 209.5t97.5 256.5q31 175 -28 321.5t-191 231.5t-307 85q-179 0 -345.5 -87.5t-281.5 -239.5t-146 -331q-31 -175 28.5 -321.5 t191 -231.5t305.5 -85z" />
<glyph unicode="&#x1ecf;" horiz-adv-x="1163" d="M638 1070l19 142q153 32 172 139q7 38 -14.5 63t-65.5 25q-56 0 -113 -36l-52 85q76 52 157 52q94 0 149 -60t39 -149q-11 -60 -57 -107t-123 -69l-19 -85h-92zM503 -18q-105 0 -192.5 40.5t-144 108.5t-80.5 162t-6 198q23 134 108.5 246.5t210.5 178t260 65.5 q104 0 191.5 -40.5t144 -108.5t80.5 -162t6 -198q-23 -134 -108.5 -246.5t-210.5 -178t-259 -65.5zM506 115q155 0 284 110t158 266q27 149 -58.5 252.5t-233.5 103.5q-157 0 -285.5 -109.5t-156.5 -265.5q-27 -149 58 -253t234 -104z" />
<glyph unicode="&#x1ed0;" horiz-adv-x="1776" d="M1141 2135l-48 61l364 318l66 -89zM900 1663l-69 43l253 306h140l149 -306l-78 -43l-150 255zM810 -20q-130 0 -245 40.5t-199 113t-142.5 173t-74.5 219.5t4 252q37 212 172.5 391t333 283t410.5 104q130 0 245 -40.5t199 -113t142.5 -173t74.5 -219.5t-4 -252 q-37 -212 -173 -391t-333.5 -283t-409.5 -104zM815 120q134 0 265 52t234.5 140t177 209.5t97.5 256.5q31 175 -28 321.5t-191 231.5t-307 85q-179 0 -345.5 -87.5t-281.5 -239.5t-146 -331q-31 -175 28.5 -321.5t191 -231.5t305.5 -85z" />
<glyph unicode="&#x1ed1;" horiz-adv-x="1163" d="M731 1562l-48 61l364 318l66 -89zM490 1090l-69 43l253 306h140l149 -306l-78 -43l-150 255zM503 -18q-105 0 -192.5 40.5t-144 108.5t-80.5 162t-6 198q23 134 108.5 246.5t210.5 178t260 65.5q104 0 191.5 -40.5t144 -108.5t80.5 -162t6 -198q-23 -134 -108.5 -246.5 t-210.5 -178t-259 -65.5zM506 115q155 0 284 110t158 266q27 149 -58.5 252.5t-233.5 103.5q-157 0 -285.5 -109.5t-156.5 -265.5q-27 -149 58 -253t234 -104z" />
<glyph unicode="&#x1ed2;" horiz-adv-x="1776" d="M1202 2135l-290 289l94 89l258 -317zM901 1663l-69 43l252 306h140l149 -306l-78 -43l-150 255zM810 -20q-130 0 -245 40.5t-199 113t-142.5 173t-74.5 219.5t4 252q37 212 172.5 391t333 283t410.5 104q130 0 245 -40.5t199 -113t142.5 -173t74.5 -219.5t-4 -252 q-37 -212 -173 -391t-333.5 -283t-409.5 -104zM815 120q134 0 265 52t234.5 140t177 209.5t97.5 256.5q31 175 -28 321.5t-191 231.5t-307 85q-179 0 -345.5 -87.5t-281.5 -239.5t-146 -331q-31 -175 28.5 -321.5t191 -231.5t305.5 -85z" />
<glyph unicode="&#x1ed3;" horiz-adv-x="1163" d="M792 1562l-290 289l94 89l258 -317zM491 1090l-69 43l252 306h140l149 -306l-78 -43l-150 255zM503 -18q-105 0 -192.5 40.5t-144 108.5t-80.5 162t-6 198q23 134 108.5 246.5t210.5 178t260 65.5q104 0 191.5 -40.5t144 -108.5t80.5 -162t6 -198q-23 -134 -108.5 -246.5 t-210.5 -178t-259 -65.5zM506 115q155 0 284 110t158 266q27 149 -58.5 252.5t-233.5 103.5q-157 0 -285.5 -109.5t-156.5 -265.5q-27 -149 58 -253t234 -104z" />
<glyph unicode="&#x1ed4;" horiz-adv-x="1776" d="M1129 2120l20 141q154 33 172 139q6 38 -15.5 63t-65.5 25q-59 0 -111 -35l-54 84q79 53 159 53q94 0 148 -60t38 -149q-9 -60 -55 -107.5t-124 -69.5l-19 -84h-93zM901 1663l-69 43l253 306h140l149 -306l-78 -43l-150 255zM810 -20q-130 0 -245 40.5t-199 113 t-142.5 173t-74.5 219.5t4 252q37 212 172.5 391t333 283t410.5 104q130 0 245 -40.5t199 -113t142.5 -173t74.5 -219.5t-4 -252q-37 -212 -173 -391t-333.5 -283t-409.5 -104zM815 120q134 0 265 52t234.5 140t177 209.5t97.5 256.5q31 175 -28 321.5t-191 231.5t-307 85 q-179 0 -345.5 -87.5t-281.5 -239.5t-146 -331q-31 -175 28.5 -321.5t191 -231.5t305.5 -85z" />
<glyph unicode="&#x1ed5;" horiz-adv-x="1163" d="M719 1547l20 141q154 33 172 139q6 38 -15.5 63t-65.5 25q-59 0 -111 -35l-54 84q79 53 159 53q94 0 148 -60t38 -149q-9 -60 -55 -107.5t-124 -69.5l-19 -84h-93zM491 1090l-69 43l253 306h140l149 -306l-78 -43l-150 255zM503 -18q-105 0 -192.5 40.5t-144 108.5 t-80.5 162t-6 198q23 134 108.5 246.5t210.5 178t260 65.5q104 0 191.5 -40.5t144 -108.5t80.5 -162t6 -198q-23 -134 -108.5 -246.5t-210.5 -178t-259 -65.5zM506 115q155 0 284 110t158 266q27 149 -58.5 252.5t-233.5 103.5q-157 0 -285.5 -109.5t-156.5 -265.5 q-27 -149 58 -253t234 -104z" />
<glyph unicode="&#x1ed6;" horiz-adv-x="1776" d="M1327 2128q-120 0 -168 118q-30 54 -80 54q-55 0 -95 -48t-52 -119l-102 11q19 114 85 186.5t158 72.5q120 0 169 -119q34 -54 84 -54q54 0 93 44.5t52 122.5l101 -11q-19 -114 -85 -186t-160 -72zM901 1663l-69 43l253 306h140l149 -306l-78 -43l-150 255zM810 -20 q-130 0 -245 40.5t-199 113t-142.5 173t-74.5 219.5t4 252q37 212 172.5 391t333 283t410.5 104q130 0 245 -40.5t199 -113t142.5 -173t74.5 -219.5t-4 -252q-37 -212 -173 -391t-333.5 -283t-409.5 -104zM815 120q134 0 265 52t234.5 140t177 209.5t97.5 256.5 q31 175 -28 321.5t-191 231.5t-307 85q-179 0 -345.5 -87.5t-281.5 -239.5t-146 -331q-31 -175 28.5 -321.5t191 -231.5t305.5 -85z" />
<glyph unicode="&#x1ed7;" horiz-adv-x="1163" d="M917 1555q-120 0 -168 118q-30 54 -80 54q-55 0 -95 -48t-52 -119l-102 11q19 114 85 186.5t158 72.5q120 0 169 -119q34 -54 84 -54q54 0 93 44.5t52 122.5l101 -11q-19 -114 -85 -186t-160 -72zM491 1090l-69 43l253 306h140l149 -306l-78 -43l-150 255zM503 -18 q-105 0 -192.5 40.5t-144 108.5t-80.5 162t-6 198q23 134 108.5 246.5t210.5 178t260 65.5q104 0 191.5 -40.5t144 -108.5t80.5 -162t6 -198q-23 -134 -108.5 -246.5t-210.5 -178t-259 -65.5zM506 115q155 0 284 110t158 266q27 149 -58.5 252.5t-233.5 103.5 q-157 0 -285.5 -109.5t-156.5 -265.5q-27 -149 58 -253t234 -104z" />
<glyph unicode="&#x1ed8;" horiz-adv-x="1776" d="M901 1663l-69 43l253 306h140l149 -306l-78 -43l-151 255zM810 -20q-130 0 -245 40.5t-199 113t-142.5 173t-74.5 219.5t4 252q37 212 172.5 391t333 283t410.5 104q130 0 245 -40.5t199 -113t142.5 -173t74.5 -219.5t-4 -252q-37 -212 -173 -391t-333.5 -283 t-409.5 -104zM815 120q134 0 265 52t234.5 140t177 209.5t97.5 256.5q31 175 -28 321.5t-191 231.5t-307 85q-179 0 -345.5 -87.5t-281.5 -239.5t-146 -331q-31 -175 28.5 -321.5t191 -231.5t305.5 -85zM751 -355q-45 0 -72 33t-19 78q7 38 39 65t69 27q44 0 71.5 -33.5 t19.5 -77.5q-7 -39 -38.5 -65.5t-69.5 -26.5z" />
<glyph unicode="&#x1ed9;" horiz-adv-x="1163" d="M491 1090l-69 43l253 306h140l149 -306l-78 -43l-151 255zM503 -18q-105 0 -192.5 40.5t-144 108.5t-80.5 162t-6 198q23 134 108.5 246.5t210.5 178t260 65.5q104 0 191.5 -40.5t144 -108.5t80.5 -162t6 -198q-23 -134 -108.5 -246.5t-210.5 -178t-259 -65.5zM506 115 q155 0 284 110t158 266q27 149 -58.5 252.5t-233.5 103.5q-157 0 -285.5 -109.5t-156.5 -265.5q-27 -149 58 -253t234 -104zM444 -355q-45 0 -72 33t-19 78q7 38 39 65t69 27q44 0 71.5 -33.5t19.5 -77.5q-7 -39 -38.5 -65.5t-69.5 -26.5z" />
<glyph unicode="&#x1eda;" horiz-adv-x="1776" d="M1442 1949l-382 -290l-48 61l364 318zM1820 1498h118l-18 -107q-22 -125 -79.5 -181.5t-133.5 -56.5q-10 0 -16 1q72 -183 35 -396q-37 -212 -173 -391t-333.5 -283t-409.5 -104q-130 0 -245 40.5t-199 113t-142.5 173t-74.5 219.5t4 252q37 212 172.5 391t333 283 t410.5 104q197 0 352 -89.5t238 -244.5h6q53 0 87.5 45t44.5 105zM1589 778q31 175 -28 321.5t-191 231.5t-307 85q-179 0 -345.5 -87.5t-281.5 -239.5t-146 -331q-31 -175 28.5 -321.5t191 -231.5t305.5 -85q134 0 265 52t234.5 140t177 209.5t97.5 256.5z" />
<glyph unicode="&#x1edb;" horiz-adv-x="1163" d="M1032 1376l-382 -290l-48 61l364 318zM1232 1008h118l-18 -107q-22 -125 -79.5 -181.5t-133.5 -56.5q-23 0 -43 4q23 -92 5 -195q-23 -134 -108.5 -246.5t-210.5 -178t-259 -65.5q-105 0 -192.5 40.5t-144 108.5t-80.5 162t-6 198q23 134 108.5 246.5t210.5 178t260 65.5 q137 0 242 -67t153 -180q18 -2 23 -2q53 0 87.5 45t44.5 105zM948 491q27 149 -58.5 252.5t-233.5 103.5q-157 0 -285.5 -109.5t-156.5 -265.5q-27 -149 58 -253t234 -104q155 0 284 110t158 266z" />
<glyph unicode="&#x1edc;" horiz-adv-x="1776" d="M1183 1720l-62 -61l-289 289l93 89zM1820 1498h118l-18 -107q-22 -125 -79.5 -181.5t-133.5 -56.5q-10 0 -16 1q72 -183 35 -396q-37 -212 -173 -391t-333.5 -283t-409.5 -104q-130 0 -245 40.5t-199 113t-142.5 173t-74.5 219.5t4 252q37 212 172.5 391t333 283 t410.5 104q197 0 352 -89.5t238 -244.5h6q53 0 87.5 45t44.5 105zM1589 778q31 175 -28 321.5t-191 231.5t-307 85q-179 0 -345.5 -87.5t-281.5 -239.5t-146 -331q-31 -175 28.5 -321.5t191 -231.5t305.5 -85q134 0 265 52t234.5 140t177 209.5t97.5 256.5z" />
<glyph unicode="&#x1edd;" horiz-adv-x="1163" d="M773 1147l-62 -61l-289 289l93 89zM1232 1008h118l-18 -107q-22 -125 -79.5 -181.5t-133.5 -56.5q-23 0 -43 4q23 -92 5 -195q-23 -134 -108.5 -246.5t-210.5 -178t-259 -65.5q-105 0 -192.5 40.5t-144 108.5t-80.5 162t-6 198q23 134 108.5 246.5t210.5 178t260 65.5 q137 0 242 -67t153 -180q18 -2 23 -2q53 0 87.5 45t44.5 105zM948 491q27 149 -58.5 252.5t-233.5 103.5q-157 0 -285.5 -109.5t-156.5 -265.5q-27 -149 58 -253t234 -104q155 0 284 110t158 266z" />
<glyph unicode="&#x1ede;" horiz-adv-x="1776" d="M1159 2012q-56 0 -113 -36l-52 85q76 52 157 52q94 0 149 -60t39 -149q-11 -60 -57 -107t-123 -69l-19 -85h-92l19 142q153 32 172 139q7 38 -14.5 63t-65.5 25zM1820 1498h118l-18 -107q-22 -125 -79.5 -181.5t-133.5 -56.5q-10 0 -16 1q72 -183 35 -396 q-37 -212 -173 -391t-333.5 -283t-409.5 -104q-130 0 -245 40.5t-199 113t-142.5 173t-74.5 219.5t4 252q37 212 172.5 391t333 283t410.5 104q197 0 352 -89.5t238 -244.5h6q53 0 87.5 45t44.5 105zM1589 778q31 175 -28 321.5t-191 231.5t-307 85q-179 0 -345.5 -87.5 t-281.5 -239.5t-146 -331q-31 -175 28.5 -321.5t191 -231.5t305.5 -85q134 0 265 52t234.5 140t177 209.5t97.5 256.5z" />
<glyph unicode="&#x1edf;" horiz-adv-x="1163" d="M749 1439q-56 0 -113 -36l-52 85q76 52 157 52q94 0 149 -60t39 -149q-11 -60 -57 -107t-123 -69l-19 -85h-92l19 142q153 32 172 139q7 38 -14.5 63t-65.5 25zM1232 1008h118l-18 -107q-22 -125 -79.5 -181.5t-133.5 -56.5q-23 0 -43 4q23 -92 5 -195 q-23 -134 -108.5 -246.5t-210.5 -178t-259 -65.5q-105 0 -192.5 40.5t-144 108.5t-80.5 162t-6 198q23 134 108.5 246.5t210.5 178t260 65.5q137 0 242 -67t153 -180q18 -2 23 -2q53 0 87.5 45t44.5 105zM948 491q27 149 -58.5 252.5t-233.5 103.5q-157 0 -285.5 -109.5 t-156.5 -265.5q-27 -149 58 -253t234 -104q155 0 284 110t158 266z" />
<glyph unicode="&#x1ee0;" horiz-adv-x="1776" d="M996 1825q-56 0 -95.5 -47.5t-52.5 -119.5l-102 10q20 112 85.5 185.5t161.5 73.5q65 0 101.5 -31.5t65.5 -85.5q28 -55 86 -55q53 0 91.5 44t51.5 122l100 -10q-21 -118 -86.5 -188.5t-160.5 -70.5q-37 0 -65 10t-47.5 30.5t-29.5 35.5t-24 41q-16 29 -33.5 42.5 t-46.5 13.5zM1820 1498h118l-18 -107q-22 -125 -79.5 -181.5t-133.5 -56.5q-10 0 -16 1q72 -183 35 -396q-37 -212 -173 -391t-333.5 -283t-409.5 -104q-130 0 -245 40.5t-199 113t-142.5 173t-74.5 219.5t4 252q37 212 172.5 391t333 283t410.5 104q197 0 352 -89.5 t238 -244.5h6q53 0 87.5 45t44.5 105zM1589 778q31 175 -28 321.5t-191 231.5t-307 85q-179 0 -345.5 -87.5t-281.5 -239.5t-146 -331q-31 -175 28.5 -321.5t191 -231.5t305.5 -85q134 0 265 52t234.5 140t177 209.5t97.5 256.5z" />
<glyph unicode="&#x1ee1;" horiz-adv-x="1163" d="M586 1252q-56 0 -95.5 -47.5t-52.5 -119.5l-102 10q20 112 85.5 185.5t161.5 73.5q65 0 101.5 -31.5t65.5 -85.5q28 -55 86 -55q53 0 91.5 44t51.5 122l100 -10q-21 -118 -86.5 -188.5t-160.5 -70.5q-37 0 -65 10t-47.5 30.5t-29.5 35.5t-24 41q-16 29 -33.5 42.5 t-46.5 13.5zM1232 1008h118l-18 -107q-22 -125 -79.5 -181.5t-133.5 -56.5q-23 0 -43 4q23 -92 5 -195q-23 -134 -108.5 -246.5t-210.5 -178t-259 -65.5q-105 0 -192.5 40.5t-144 108.5t-80.5 162t-6 198q23 134 108.5 246.5t210.5 178t260 65.5q137 0 242 -67t153 -180 q18 -2 23 -2q53 0 87.5 45t44.5 105zM948 491q27 149 -58.5 252.5t-233.5 103.5q-157 0 -285.5 -109.5t-156.5 -265.5q-27 -149 58 -253t234 -104q155 0 284 110t158 266z" />
<glyph unicode="&#x1ee2;" horiz-adv-x="1776" d="M1820 1498h118l-18 -107q-22 -125 -79.5 -181.5t-133.5 -56.5q-10 0 -16 1q72 -183 35 -396q-37 -212 -173 -391t-333.5 -283t-409.5 -104q-130 0 -245 40.5t-199 113t-142.5 173t-74.5 219.5t4 252q37 212 172.5 391t333 283t410.5 104q197 0 352 -89.5t238 -244.5h6 q53 0 87.5 45t44.5 105zM1589 778q31 175 -28 321.5t-191 231.5t-307 85q-179 0 -345.5 -87.5t-281.5 -239.5t-146 -331q-31 -175 28.5 -321.5t191 -231.5t305.5 -85q134 0 265 52t234.5 140t177 209.5t97.5 256.5zM768 -152q44 0 71.5 -33.5t19.5 -77.5q-7 -39 -38.5 -65.5 t-69.5 -26.5q-45 0 -72 33t-19 78q7 38 39 65t69 27z" />
<glyph unicode="&#x1ee3;" horiz-adv-x="1163" d="M1232 1008h118l-18 -107q-22 -125 -79.5 -181.5t-133.5 -56.5q-23 0 -43 4q23 -92 5 -195q-23 -134 -108.5 -246.5t-210.5 -178t-259 -65.5q-105 0 -192.5 40.5t-144 108.5t-80.5 162t-6 198q23 134 108.5 246.5t210.5 178t260 65.5q137 0 242 -67t153 -180q18 -2 23 -2 q53 0 87.5 45t44.5 105zM948 491q27 149 -58.5 252.5t-233.5 103.5q-157 0 -285.5 -109.5t-156.5 -265.5q-27 -149 58 -253t234 -104q155 0 284 110t158 266zM461 -152q44 0 71.5 -33.5t19.5 -77.5q-7 -39 -38.5 -65.5t-69.5 -26.5q-45 0 -72 33t-19 78q7 38 39 65t69 27z " />
<glyph unicode="&#x1ee4;" horiz-adv-x="1513" d="M676 -20q-163 0 -283.5 69.5t-174 191t-27.5 270.5l182 1025h141l-179 -1014q-31 -174 67.5 -288t278.5 -114q187 0 333 118.5t178 293.5l177 1004h141l-183 -1035q-27 -149 -120 -268t-232.5 -186t-298.5 -67zM617 -355q-45 0 -72 33t-19 78q7 38 39 65t69 27 q44 0 71.5 -33.5t19.5 -77.5q-7 -39 -38.5 -65.5t-69.5 -26.5z" />
<glyph unicode="&#x1ee5;" horiz-adv-x="1031" d="M435 -18q-166 0 -252.5 102.5t-57.5 265.5l107 613h137l-106 -609q-19 -109 30.5 -174t144.5 -65q103 0 183.5 70t99.5 179l104 599h137l-109 -623q-28 -163 -143 -260.5t-275 -97.5zM372 -355q-45 0 -72 33t-19 78q7 38 39 65t69 27q44 0 71.5 -33.5t19.5 -77.5 q-7 -39 -38.5 -65.5t-69.5 -26.5z" />
<glyph unicode="&#x1ee6;" horiz-adv-x="1513" d="M914 1643l19 142q153 32 172 139q7 38 -14.5 63t-65.5 25q-56 0 -113 -36l-52 85q76 52 157 52q94 0 149 -60t39 -149q-11 -60 -57 -107t-123 -69l-19 -85h-92zM676 -20q-163 0 -283.5 69.5t-174 191t-27.5 270.5l182 1025h141l-179 -1014q-31 -174 67.5 -288t278.5 -114 q187 0 333 118.5t178 293.5l177 1004h141l-183 -1035q-27 -149 -120 -268t-232.5 -186t-298.5 -67z" />
<glyph unicode="&#x1ee7;" horiz-adv-x="1031" d="M570 1070l19 142q153 32 172 139q7 38 -14.5 63t-65.5 25q-56 0 -113 -36l-52 85q76 52 157 52q94 0 149 -60t39 -149q-11 -60 -57 -107t-123 -69l-19 -85h-92zM435 -18q-166 0 -252.5 102.5t-57.5 265.5l107 613h137l-106 -609q-19 -109 30.5 -174t144.5 -65 q103 0 183.5 70t99.5 179l104 599h137l-109 -623q-28 -163 -143 -260.5t-275 -97.5z" />
<glyph unicode="&#x1ee8;" horiz-adv-x="1513" d="M1308 1949l-382 -290l-48 61l364 318zM1675 1636h118l-18 -107q-22 -125 -79.5 -181.5t-133.5 -56.5q-42 0 -93 16l-142 -806q-27 -149 -120 -268t-232.5 -186t-298.5 -67q-163 0 -283.5 69.5t-174 191t-27.5 270.5l182 1025h141l-179 -1014q-31 -174 67.5 -288 t278.5 -114q187 0 333 118.5t178 293.5l177 1004h141l-30 -170q24 -6 40 -6q53 0 87.5 45t44.5 105z" />
<glyph unicode="&#x1ee9;" horiz-adv-x="1031" d="M964 1376l-382 -290l-48 61l364 318zM1134 981h118l-18 -107q-22 -125 -79.5 -181.5t-133.5 -56.5q-54 0 -112 23l-56 -319q-28 -163 -143 -260.5t-275 -97.5q-166 0 -252.5 102.5t-57.5 265.5l107 613h137l-106 -609q-19 -109 30.5 -174t144.5 -65q103 0 183.5 70 t99.5 179l104 599h137l-43 -244q34 -14 60 -14q53 0 87.5 45t44.5 105z" />
<glyph unicode="&#x1eea;" horiz-adv-x="1513" d="M1049 1720l-62 -61l-289 289l93 89zM1675 1636h118l-18 -107q-22 -125 -79.5 -181.5t-133.5 -56.5q-42 0 -93 16l-142 -806q-27 -149 -120 -268t-232.5 -186t-298.5 -67q-163 0 -283.5 69.5t-174 191t-27.5 270.5l182 1025h141l-179 -1014q-31 -174 67.5 -288t278.5 -114 q187 0 333 118.5t178 293.5l177 1004h141l-30 -170q24 -6 40 -6q53 0 87.5 45t44.5 105z" />
<glyph unicode="&#x1eeb;" horiz-adv-x="1031" d="M705 1147l-62 -61l-289 289l93 89zM1134 981h118l-18 -107q-22 -125 -79.5 -181.5t-133.5 -56.5q-54 0 -112 23l-56 -319q-28 -163 -143 -260.5t-275 -97.5q-166 0 -252.5 102.5t-57.5 265.5l107 613h137l-106 -609q-19 -109 30.5 -174t144.5 -65q103 0 183.5 70 t99.5 179l104 599h137l-43 -244q34 -14 60 -14q53 0 87.5 45t44.5 105z" />
<glyph unicode="&#x1eec;" horiz-adv-x="1513" d="M1025 2012q-56 0 -113 -36l-52 85q76 52 157 52q94 0 149 -60t39 -149q-11 -60 -57 -107t-123 -69l-19 -85h-92l19 142q153 32 172 139q7 38 -14.5 63t-65.5 25zM1675 1636h118l-18 -107q-22 -125 -79.5 -181.5t-133.5 -56.5q-42 0 -93 16l-142 -806q-27 -149 -120 -268 t-232.5 -186t-298.5 -67q-163 0 -283.5 69.5t-174 191t-27.5 270.5l182 1025h141l-179 -1014q-31 -174 67.5 -288t278.5 -114q187 0 333 118.5t178 293.5l177 1004h141l-30 -170q24 -6 40 -6q53 0 87.5 45t44.5 105z" />
<glyph unicode="&#x1eed;" horiz-adv-x="1031" d="M681 1439q-56 0 -113 -36l-52 85q76 52 157 52q94 0 149 -60t39 -149q-11 -60 -57 -107t-123 -69l-19 -85h-92l19 142q153 32 172 139q7 38 -14.5 63t-65.5 25zM1134 981h118l-18 -107q-22 -125 -79.5 -181.5t-133.5 -56.5q-54 0 -112 23l-56 -319q-28 -163 -143 -260.5 t-275 -97.5q-166 0 -252.5 102.5t-57.5 265.5l107 613h137l-106 -609q-19 -109 30.5 -174t144.5 -65q103 0 183.5 70t99.5 179l104 599h137l-43 -244q34 -14 60 -14q53 0 87.5 45t44.5 105z" />
<glyph unicode="&#x1eee;" horiz-adv-x="1513" d="M862 1825q-56 0 -95.5 -47.5t-52.5 -119.5l-102 10q20 112 85.5 185.5t161.5 73.5q65 0 101.5 -31.5t65.5 -85.5q28 -55 86 -55q53 0 91.5 44t51.5 122l100 -10q-21 -118 -86.5 -188.5t-160.5 -70.5q-37 0 -65 10t-47.5 30.5t-29.5 35.5t-24 41q-16 29 -33.5 42.5 t-46.5 13.5zM1675 1636h118l-18 -107q-22 -125 -79.5 -181.5t-133.5 -56.5q-42 0 -93 16l-142 -806q-27 -149 -120 -268t-232.5 -186t-298.5 -67q-163 0 -283.5 69.5t-174 191t-27.5 270.5l182 1025h141l-179 -1014q-31 -174 67.5 -288t278.5 -114q187 0 333 118.5 t178 293.5l177 1004h141l-30 -170q24 -6 40 -6q53 0 87.5 45t44.5 105z" />
<glyph unicode="&#x1eef;" horiz-adv-x="1031" d="M518 1252q-56 0 -95.5 -47.5t-52.5 -119.5l-102 10q20 112 85.5 185.5t161.5 73.5q65 0 101.5 -31.5t65.5 -85.5q28 -55 86 -55q53 0 91.5 44t51.5 122l100 -10q-21 -118 -86.5 -188.5t-160.5 -70.5q-37 0 -65 10t-47.5 30.5t-29.5 35.5t-24 41q-16 29 -33.5 42.5 t-46.5 13.5zM1134 981h118l-18 -107q-22 -125 -79.5 -181.5t-133.5 -56.5q-54 0 -112 23l-56 -319q-28 -163 -143 -260.5t-275 -97.5q-166 0 -252.5 102.5t-57.5 265.5l107 613h137l-106 -609q-19 -109 30.5 -174t144.5 -65q103 0 183.5 70t99.5 179l104 599h137l-43 -244 q34 -14 60 -14q53 0 87.5 45t44.5 105z" />
<glyph unicode="&#x1ef0;" horiz-adv-x="1513" d="M1675 1636h118l-18 -107q-22 -125 -79.5 -181.5t-133.5 -56.5q-42 0 -93 16l-142 -806q-27 -149 -120 -268t-232.5 -186t-298.5 -67q-163 0 -283.5 69.5t-174 191t-27.5 270.5l182 1025h141l-179 -1014q-31 -174 67.5 -288t278.5 -114q187 0 333 118.5t178 293.5 l177 1004h141l-30 -170q24 -6 40 -6q53 0 87.5 45t44.5 105zM634 -152q44 0 71.5 -33.5t19.5 -77.5q-7 -39 -38.5 -65.5t-69.5 -26.5q-45 0 -72 33t-19 78q7 38 39 65t69 27z" />
<glyph unicode="&#x1ef1;" horiz-adv-x="1031" d="M1134 981h118l-18 -107q-22 -125 -79.5 -181.5t-133.5 -56.5q-54 0 -112 23l-56 -319q-28 -163 -143 -260.5t-275 -97.5q-166 0 -252.5 102.5t-57.5 265.5l107 613h137l-106 -609q-19 -109 30.5 -174t144.5 -65q103 0 183.5 70t99.5 179l104 599h137l-43 -244 q34 -14 60 -14q53 0 87.5 45t44.5 105zM389 -152q44 0 71.5 -33.5t19.5 -77.5q-7 -39 -38.5 -65.5t-69.5 -26.5q-45 0 -72 33t-19 78q7 38 39 65t69 27z" />
<glyph unicode="&#x1ef2;" horiz-adv-x="1247" d="M918 1720l-62 -61l-289 289l93 89zM1416 1536l-679 -811l-128 -725h-141l128 727l-392 809h172l315 -663l550 663h175z" />
<glyph unicode="&#x1ef3;" horiz-adv-x="958" d="M659 1147l-62 -61l-289 289l93 89zM868 963h156l-840 -1455h-149l285 501l-219 954h150l172 -805z" />
<glyph unicode="&#x1ef4;" horiz-adv-x="1247" d="M1416 1536l-679 -811l-128 -725h-141l128 727l-392 809h172l315 -663l550 663h175zM504 -152q44 0 71.5 -33.5t19.5 -77.5q-7 -39 -38.5 -65.5t-69.5 -26.5q-45 0 -72 33t-19 78q7 38 39 65t69 27z" />
<glyph unicode="&#x1ef5;" horiz-adv-x="958" d="M868 963h156l-840 -1455h-149l285 501l-219 954h150l172 -805zM559 -295q44 0 71.5 -33.5t19.5 -77.5q-7 -39 -38.5 -65.5t-69.5 -26.5q-45 0 -72 33t-19 78q7 38 39 65t69 27z" />
<glyph unicode="&#x1ef6;" horiz-adv-x="1247" d="M894 2012q-56 0 -113 -36l-52 85q76 52 157 52q94 0 149 -60t39 -149q-11 -60 -57 -107t-123 -69l-19 -85h-92l19 142q153 32 172 139q7 38 -14.5 63t-65.5 25zM1416 1536l-679 -811l-128 -725h-141l128 727l-392 809h172l315 -663l550 663h175z" />
<glyph unicode="&#x1ef7;" horiz-adv-x="958" d="M635 1439q-56 0 -113 -36l-52 85q76 52 157 52q94 0 149 -60t39 -149q-11 -60 -57 -107t-123 -69l-19 -85h-92l19 142q153 32 172 139q7 38 -14.5 63t-65.5 25zM868 963h156l-840 -1455h-149l285 501l-219 954h150l172 -805z" />
<glyph unicode="&#x1ef8;" horiz-adv-x="1247" d="M731 1825q-56 0 -95.5 -47.5t-52.5 -119.5l-102 10q20 112 85.5 185.5t161.5 73.5q65 0 101.5 -31.5t65.5 -85.5q28 -55 86 -55q53 0 91.5 44t51.5 122l100 -10q-21 -118 -86.5 -188.5t-160.5 -70.5q-37 0 -65 10t-47.5 30.5t-29.5 35.5t-24 41q-16 29 -33.5 42.5 t-46.5 13.5zM1416 1536l-679 -811l-128 -725h-141l128 727l-392 809h172l315 -663l550 663h175z" />
<glyph unicode="&#x1ef9;" horiz-adv-x="958" d="M472 1252q-56 0 -95.5 -47.5t-52.5 -119.5l-102 10q20 112 85.5 185.5t161.5 73.5q65 0 101.5 -31.5t65.5 -85.5q28 -55 86 -55q53 0 91.5 44t51.5 122l100 -10q-21 -118 -86.5 -188.5t-160.5 -70.5q-37 0 -65 10t-47.5 30.5t-29.5 35.5t-24 41q-16 29 -33.5 42.5 t-46.5 13.5zM868 963h156l-840 -1455h-149l285 501l-219 954h150l172 -805z" />
<glyph unicode="&#x2000;" horiz-adv-x="1295" />
<glyph unicode="&#x2001;" horiz-adv-x="2590" />
<glyph unicode="&#x2002;" horiz-adv-x="1295" />
<glyph unicode="&#x2003;" horiz-adv-x="2590" />
<glyph unicode="&#x2004;" horiz-adv-x="863" />
<glyph unicode="&#x2005;" horiz-adv-x="647" />
<glyph unicode="&#x2006;" horiz-adv-x="431" />
<glyph unicode="&#x2007;" horiz-adv-x="431" />
<glyph unicode="&#x2008;" horiz-adv-x="323" />
<glyph unicode="&#x2009;" horiz-adv-x="518" />
<glyph unicode="&#x200a;" horiz-adv-x="143" />
<glyph unicode="&#x2010;" horiz-adv-x="1052" d="M157 427l21 109h716l-20 -109h-717z" />
<glyph unicode="&#x2011;" horiz-adv-x="1052" d="M157 427l21 109h716l-20 -109h-717z" />
<glyph unicode="&#x2012;" horiz-adv-x="1052" d="M157 427l21 109h716l-20 -109h-717z" />
<glyph unicode="&#x2013;" horiz-adv-x="1359" d="M157 427l21 109h1024l-21 -109h-1024z" />
<glyph unicode="&#x2014;" horiz-adv-x="2048" d="M-10 427l20 109h2048l-20 -109h-2048z" />
<glyph unicode="&#x2018;" horiz-adv-x="552" d="M341 988q-44 0 -71.5 33t-20.5 78q6 29 23 49l210 388h108l-183 -361q23 -14 35 -39.5t7 -56.5q-8 -37 -39.5 -64t-68.5 -27z" />
<glyph unicode="&#x2019;" horiz-adv-x="553" d="M490 1556q45 0 72 -33t20 -78q-4 -25 -22 -48l-210 -390h-109l183 361q-53 33 -41 97q7 37 38.5 64t68.5 27z" />
<glyph unicode="&#x201a;" horiz-adv-x="553" d="M248 182q45 0 72 -33t20 -78q-5 -28 -23 -49l-209 -390h-109l183 362q-24 15 -35.5 40.5t-6.5 56.5q6 37 38.5 64t69.5 27z" />
<glyph unicode="&#x201c;" horiz-adv-x="884" d="M343 988q-44 0 -71.5 33t-20.5 77q0 11 12 35l221 403h108l-189 -358q25 -12 39 -39t9 -60q-7 -37 -39 -64t-69 -27zM674 988q-45 0 -72.5 33t-19.5 77q0 6 11 35l222 403h108l-189 -358q25 -12 39 -39t8 -60q-7 -37 -38.5 -64t-68.5 -27z" />
<glyph unicode="&#x201d;" horiz-adv-x="883" d="M488 1556q45 0 72.5 -33t19.5 -77q0 -6 -11 -35l-222 -403h-108l189 358q-25 12 -39 39t-8 60q7 37 38.5 64t68.5 27zM819 1556q44 0 71.5 -33t20.5 -77q0 -11 -12 -35l-221 -403h-108l189 358q-25 12 -39 39t-9 60q7 37 39 64t69 27z" />
<glyph unicode="&#x201e;" horiz-adv-x="870" d="M340 71q-5 -28 -23 -49l-209 -390h-109l183 362q-24 15 -35.5 40.5t-6.5 56.5q6 37 38.5 64t69.5 27q45 0 72 -33t20 -78zM565 182q45 0 72 -33t20 -78q-4 -28 -23 -50l-210 -389h-108l183 361q-25 15 -36.5 41t-5.5 57q6 37 38.5 64t69.5 27z" />
<glyph unicode="&#x2020;" horiz-adv-x="958" d="M970 957l-17 -96h-363l-213 -1209h-96l213 1209h-355l17 96h355l73 415h96l-73 -415h363z" />
<glyph unicode="&#x2021;" horiz-adv-x="1046" d="M996 861h-363l-122 -692h363l-17 -94h-362l-75 -423h-96l75 423h-356l17 94h355l122 692h-355l17 96h355l73 415h96l-73 -415h363z" />
<glyph unicode="&#x2022;" horiz-adv-x="838" d="M419 430q-98 0 -158 70.5t-41 170.5q16 91 93.5 157t167.5 66q96 0 156 -72.5t44 -169.5q-17 -94 -94 -158t-168 -64z" />
<glyph unicode="&#x2026;" horiz-adv-x="1729" d="M234 -20q-45 0 -72 33t-19 78q6 37 38.5 64t69.5 27q44 0 71.5 -33.5t20.5 -77.5q-7 -39 -39 -65t-70 -26zM782 -20q-45 0 -72.5 33t-19.5 78q6 37 38.5 64t69.5 27q45 0 72 -33t20 -78q-7 -38 -39 -64.5t-69 -26.5zM1338 -20q-45 0 -72.5 33t-19.5 78q6 37 38.5 64 t69.5 27q45 0 72 -33t20 -78q-7 -38 -39 -64.5t-69 -26.5z" />
<glyph unicode="&#x202f;" horiz-adv-x="518" />
<glyph unicode="&#x2030;" horiz-adv-x="2105" d="M445 956q-128 0 -203 91.5t-52 221.5q21 119 121 203t221 84q127 0 201 -90t52 -217q-22 -122 -121.5 -207.5t-218.5 -85.5zM93 0l1163 1537h150l-1158 -1537h-155zM445 1071q80 0 148 58.5t82 139.5q12 72 -29.5 123t-114.5 51q-81 0 -149.5 -57.5t-81.5 -136.5 q-13 -75 29 -126.5t116 -51.5zM980 -17q-128 0 -202.5 91t-51.5 219q22 121 121 204.5t219 83.5q127 0 202.5 -90.5t52.5 -216.5q-21 -121 -121 -206t-220 -85zM1663 -17q-128 0 -202.5 91t-51.5 219q22 120 121.5 204t219.5 84q126 0 201 -90.5t53 -216.5 q-20 -120 -120.5 -205.5t-220.5 -85.5zM980 96q82 0 149.5 58t81.5 140q13 73 -29.5 123.5t-116.5 50.5q-81 0 -148 -57t-81 -137q-13 -74 28.5 -126t115.5 -52zM1664 96q82 0 149 58t81 140q13 72 -29.5 123t-115.5 51q-82 0 -149 -57t-81 -137q-13 -74 29 -126t116 -52z " />
<glyph unicode="&#x2039;" horiz-adv-x="579" d="M308 104l-248 377l376 377h126l-381 -377l242 -377h-115z" />
<glyph unicode="&#x203a;" horiz-adv-x="575" d="M14 104l380 377l-242 377h116l247 -377l-375 -377h-126z" />
<glyph unicode="&#x2044;" horiz-adv-x="500" d="M-446 0l1344 1536h148l-1341 -1536h-151z" />
<glyph unicode="&#x205f;" horiz-adv-x="647" />
<glyph unicode="&#x20ac;" horiz-adv-x="1825" d="M1141 1556q167 0 304.5 -65t228.5 -181l-114 -87q-72 92 -181.5 142.5t-243.5 50.5q-208 0 -396.5 -118t-293.5 -307h798l-31 -118h-820q-19 -54 -30 -115q-10 -60 -10 -106h802l-31 -117h-761q36 -185 178.5 -300t346.5 -115q139 0 271.5 54t241.5 150l89 -103 q-128 -114 -285.5 -177.5t-321.5 -63.5q-264 0 -446 155.5t-216 399.5h-110l31 117h72q0 62 12 126q10 54 22 95h-48l31 118h61q114 248 349 406.5t501 158.5z" />
<glyph unicode="&#x2113;" horiz-adv-x="1214" d="M1040 348l67 -72q-212 -286 -500 -286q-100 0 -172 35t-110 95t-51.5 131.5t-4.5 152.5q0 1 -1 4t-1 5t2 4q-55 -37 -161 -114l-40 93q35 25 110 75t111 77l112 618q21 117 58.5 208.5t82 148.5t98.5 93.5t104 51t103 14.5q102 0 165 -52.5t81 -133t0 -179.5 q-34 -197 -203.5 -395t-465.5 -423l-13 -56q-14 -91 -3 -155.5t46 -106t80.5 -60.5t100.5 -19q118 0 227 74t178 172zM538 1175l-98 -532q114 94 196.5 171t161 165t125.5 175t62 172q45 251 -141 251q-41 0 -84 -21t-87 -65.5t-80 -126t-55 -189.5z" />
<glyph unicode="&#x2116;" horiz-adv-x="2847" d="M1216 325l214 1211h139l-282 -1596l-776 1273l-212 -1213h-141l281 1598zM2329 1370q104 0 191.5 -40.5t144 -108.5t80.5 -162t6 -198q-23 -134 -108.5 -246.5t-210.5 -178t-259 -65.5q-105 0 -192.5 40.5t-144 108.5t-80.5 162t-6 198q23 134 108.5 246.5t210.5 178 t260 65.5zM2618 880q27 149 -58.5 252.5t-233.5 103.5q-157 0 -285.5 -109.5t-156.5 -265.5q-27 -149 58 -253t234 -104q155 0 284 110t158 266zM1693 0l18 105h923l-18 -105h-923z" />
<glyph unicode="&#x2122;" horiz-adv-x="1696" d="M656 1456h-198l-114 -640h-90l114 640h-198l15 80h485zM1396 1536h97l-127 -720h-89l102 576l-342 -405l-205 406l-101 -577h-90l127 720h95l195 -397z" />
<glyph unicode="&#x212e;" horiz-adv-x="1987" d="M1012 -18q-178 0 -340 62t-279.5 167.5t-186.5 250.5t-69 304q0 215 117 397t318.5 287.5t439.5 105.5q179 0 341 -62.5t279.5 -168t186.5 -252t69 -307.5v-21h-1417q-12 0 -12 -8v-430q0 -24 18 -49q106 -109 245 -171t292 -62q167 0 313.5 69.5t251.5 192.5h125 q-119 -141 -301.5 -223t-390.5 -82zM471 788h1088q8 0 8 15v430q0 34 -21 51q-107 105 -243.5 165t-288.5 60q-151 0 -289 -61.5t-246 -169.5q-20 -23 -20 -53v-422q0 -15 12 -15z" />
<glyph unicode="&#x2190;" horiz-adv-x="1791" d="M1629 850v-247h-1038v-261l-498 385l498 386v-263h1038z" />
<glyph unicode="&#x2191;" horiz-adv-x="910" d="M333 0v1038h-263l386 498l385 -498h-261v-1038h-247z" />
<glyph unicode="&#x2192;" horiz-adv-x="1797" d="M162 850h1038v263l498 -386l-498 -385v261h-1038v247z" />
<glyph unicode="&#x2193;" horiz-adv-x="910" d="M333 1536h247v-1038h261l-385 -498l-386 498h263v1038z" />
<glyph unicode="&#x2194;" horiz-adv-x="2208" d="M588 295l-498 387l498 385v-260l1024 -2v260l497 -385l-497 -385v262l-1024 2v-264z" />
<glyph unicode="&#x2195;" horiz-adv-x="979" d="M489 -145l-385 497h263v672h-263l385 498l385 -498h-260v-672h260z" />
<glyph unicode="&#x2196;" horiz-adv-x="1395" d="M1319 314l-174 -174l-734 734l-185 -185l-79 624l624 -79l-185 -186z" />
<glyph unicode="&#x2197;" horiz-adv-x="1395" d="M76 314l733 734l-185 186l624 79l-79 -624l-185 185l-734 -734z" />
<glyph unicode="&#x2198;" horiz-adv-x="1395" d="M77 1222l174 174l734 -734l185 185l79 -624l-624 79l185 186z" />
<glyph unicode="&#x2199;" horiz-adv-x="1395" d="M1318 1222l-733 -734l185 -186l-624 -79l79 624l185 -185l734 734z" />
<glyph unicode="&#x2202;" horiz-adv-x="1154" d="M368 1443q172 22 315 -73.5t224.5 -280.5t80.5 -417q-1 -183 -64.5 -333.5t-173.5 -236.5t-244 -86q-115 0 -201.5 46t-129.5 126.5t-47 190t45 236.5q43 116 115 199t158 123.5t184.5 39.5t193.5 -46q-48 200 -170.5 307.5t-285.5 88.5v116zM851 672q1 63 -5 129 q-166 110 -318 48t-230 -270q-44 -132 -33 -233.5t76 -163t167 -61.5q91 0 169 72t125 199t49 280z" />
<glyph unicode="&#x2205;" horiz-adv-x="1565" d="M1238 1005q157 -175 157 -409q0 -166 -82 -307t-223.5 -223t-307.5 -82q-234 0 -408 156l-88 -88l-47 47l88 88q-157 173 -157 409q0 166 82 307t223 223t307 82q234 0 409 -156l88 88l47 -47zM288 596q0 -186 122 -326l698 699q-140 122 -326 122q-135 0 -248.5 -66 t-179.5 -180t-66 -249zM782 101q135 0 249 66t180 180t66 249q0 186 -122 326l-698 -699q138 -122 325 -122z" />
<glyph unicode="&#x220f;" horiz-adv-x="1658" d="M386 0v1316h-143v124h1311v-124h-143v-1316h-124v1316h-777v-1316h-124z" />
<glyph unicode="&#x2211;" horiz-adv-x="1592" d="M229 -242v95l756 745l-756 745v97h1171v-132h-944l709 -710l-709 -710h944v-130h-1171z" />
<glyph unicode="&#x2212;" horiz-adv-x="1224" d="M259 608v130h706v-130h-706z" />
<glyph unicode="&#x221a;" horiz-adv-x="1410" d="M446 -160l-235 725h-136v115h218l210 -643l729 1523l106 -44l-801 -1676h-91z" />
<glyph unicode="&#x221e;" horiz-adv-x="1708" d="M477 299q-117 0 -197 84.5t-85 212.5q5 128 85 212.5t197 84.5q180 0 375 -211q92 101 189.5 156t185.5 55q121 0 199 -82.5t83 -214.5q-5 -132 -83 -214.5t-199 -82.5q-88 0 -185.5 54.5t-189.5 155.5q-196 -210 -375 -210zM477 414q133 0 299 182q-166 182 -299 182 q-68 0 -117 -53t-51 -129q2 -76 51 -129t117 -53zM1227 414q69 0 116.5 51.5t51.5 130.5q-4 79 -52 130.5t-116 51.5q-136 0 -299 -182q163 -182 299 -182z" />
<glyph unicode="&#x222b;" horiz-adv-x="899" d="M65 -457v141q167 0 243.5 75t76.5 238v1158q0 128 77.5 210.5t192.5 82.5q107 0 185 -66l-75 -109q-44 40 -103 40q-61 0 -100.5 -44.5t-39.5 -122.5v-1146q0 -218 -121.5 -337.5t-335.5 -119.5z" />
<glyph unicode="&#x2248;" horiz-adv-x="1433" d="M934 652q-39 0 -76 11t-62 24t-53.5 38t-42 39.5t-37.5 41.5q-42 47 -76.5 69.5t-77.5 22.5q-78 0 -125.5 -63t-47.5 -160h-122q-1 155 81 250.5t216 95.5q77 0 133.5 -36.5t120.5 -113.5q21 -24 34 -37.5t33.5 -30t43.5 -24t49 -7.5q74 0 122.5 61.5t47.5 160.5h123 q2 -149 -77 -245.5t-207 -96.5zM934 244q-48 0 -89.5 13t-78 41t-54 45t-49.5 53q-43 49 -76 71t-78 22q-78 -1 -125.5 -64t-47.5 -159h-122q-1 155 81 251t216 96q78 0 135 -37t119 -114q39 -48 74.5 -73.5t85.5 -25.5q75 0 123 61.5t47 160.5h123q2 -148 -77 -244.5 t-207 -96.5z" />
<glyph unicode="&#x2264;" horiz-adv-x="1420" d="M1263 1410v-144l-989 -463l989 -466v-147l-1130 535v156zM133 0v105h1130v-105h-1130z" />
<glyph unicode="&#x2265;" horiz-adv-x="1420" d="M157 1410l1130 -529v-156l-1130 -535v147l989 466l-989 463v144zM157 0v105h1130v-105h-1130z" />
<glyph unicode="&#x25ca;" horiz-adv-x="1383" d="M692 106l-618 617l618 618l617 -616zM694 264l457 461l-457 459l-462 -461z" />
<glyph unicode="&#x25fc;" horiz-adv-x="965" d="M0 965h965v-965h-965v965z" />
<glyph unicode="&#xf8ff;" horiz-adv-x="1840" d="M920 0q-158 0 -302 62t-248 166t-166 248t-62 302t62 302.5t166 248.5t248 165.5t302 61.5t302.5 -61.5t248.5 -165.5t165.5 -248.5t61.5 -302.5t-61.5 -302t-165.5 -248t-248.5 -166t-302.5 -62zM920 74q143 0 273.5 56t225 150.5t150.5 224.5t56 273q0 191 -94.5 353.5 t-257 257t-353.5 94.5q-143 0 -273 -56t-224.5 -150.5t-150.5 -225t-56 -273.5t56 -273t150.5 -224.5t224.5 -150.5t273 -56zM1328 444q-15 0 -25 13l-297 295q-10 12 -10 27t10 26l297 297q11 10 26 10t25 -10q11 -11 11 -26.5t-11 -26.5l-270 -271l270 -270q24 -22 0 -51 q-10 -13 -26 -13zM513 444q-16 0 -26.5 11t-10.5 26v594q0 16 10.5 26.5t26.5 10.5q15 0 25.5 -10.5t10.5 -26.5v-594q0 -15 -10.5 -26t-25.5 -11zM920 444q-15 0 -26 11t-11 26v594q0 16 11 26.5t26 10.5q16 0 26.5 -10.5t10.5 -26.5v-594q0 -15 -10.5 -26t-26.5 -11z M623 741q-15 0 -26 11t-11 26q0 16 11 26.5t26 10.5h186q16 0 26.5 -10.5t10.5 -26.5q0 -15 -10.5 -26t-26.5 -11h-186z" />
<glyph unicode="&#xfb00;" horiz-adv-x="1153" d="M1211 1430q-69 0 -121.5 -48t-65.5 -122l-52 -297h259l-21 -126h-260l-147 -837h-137l148 837h-399l-147 -837h-137l148 837h-163l21 126h164l57 324q21 125 104.5 198.5t201.5 73.5q87 0 125 -33l-15 -130q-37 34 -98 34q-69 0 -121.5 -48t-65.5 -122l-52 -297h399 l57 324q21 125 104.5 198.5t201.5 73.5q87 0 125 -33l-15 -130q-37 34 -98 34z" />
<glyph unicode="&#xfb03;" horiz-adv-x="1636" d="M159 0l147 837h-162l21 126h162l59 324q21 125 104.5 198.5t201.5 73.5q87 0 125 -33l-15 -130q-37 34 -98 34q-69 0 -121 -48t-65 -122l-54 -297h398l59 324q21 125 104.5 198.5t200.5 73.5q88 0 126 -33l-15 -130q-39 34 -98 34q-69 0 -121.5 -48t-65.5 -122l-54 -297 h545l-168 -963h-134l146 837h-410l-147 -837h-136l146 837h-398l-146 -837h-137zM1520 1144q-44 0 -71.5 32t-20.5 76q7 38 38 63t68 25q44 0 70.5 -31.5t18.5 -76.5q-7 -37 -37 -62.5t-66 -25.5z" />
<glyph unicode="&#xfb04;" horiz-adv-x="1645" d="M1024 1260l-52 -297h259l-21 -126h-260l-147 -837h-137l148 837h-399l-147 -837h-137l148 837h-163l21 126h164l57 324q21 125 104.5 198.5t201.5 73.5q87 0 125 -33l-15 -130q-37 34 -98 34q-69 0 -121.5 -48t-65.5 -122l-52 -297h399l57 324q21 125 104.5 198.5 t201.5 73.5q87 0 125 -33l-15 -130q-37 34 -98 34q-69 0 -121.5 -48t-65.5 -122zM1516 1536h136l-270 -1536h-136z" />
<glyph horiz-adv-x="972" d="M550 1536l-245 -1395h578l-24 -141h-720l270 1536h141zM1128 1536l-353 -573h-109l302 573h160z" />
<glyph horiz-adv-x="972" d="M550 1536l-245 -1395h578l-24 -141h-720l270 1536h141zM1128 1536l-353 -573h-109l302 573h160z" />
<glyph horiz-adv-x="489" d="M373 1149q-44 0 -72 32.5t-21 76.5q8 40 39 66t69 26q45 0 73 -32.5t18 -78.5q-5 -37 -37 -63.5t-69 -26.5zM93 0l168 963h136l-168 -963h-136z" />
<glyph horiz-adv-x="1018" d="M567 982q174 0 264 -107t60 -279l-105 -596h-128l22 126q-153 -145 -343 -145q-148 0 -231 79t-59 214q14 83 66 142.5t165.5 103.5t288.5 60l195 18l2 9q21 120 -33 186.5t-167 66.5q-152 0 -316 -131l-61 111q72 60 172 101t208 41zM347 99q105 0 199.5 55.5 t165.5 156.5l31 177l-144 -15q-118 -12 -200 -33t-126.5 -50.5t-65.5 -60.5t-29 -71q-13 -79 32 -119t137 -40z" />
<glyph horiz-adv-x="1018" d="M941 1376l-382 -290l-48 61l364 318zM567 982q174 0 264 -107t60 -279l-105 -596h-128l22 126q-153 -145 -343 -145q-148 0 -231 79t-59 214q14 83 66 142.5t165.5 103.5t288.5 60l195 18l2 9q21 120 -33 186.5t-167 66.5q-152 0 -316 -131l-61 111q72 60 172 101t208 41 zM347 99q105 0 199.5 55.5t165.5 156.5l31 177l-144 -15q-118 -12 -200 -33t-126.5 -50.5t-65.5 -60.5t-29 -71q-13 -79 32 -119t137 -40z" />
<glyph horiz-adv-x="1018" d="M614 1144q-147 0 -229 86t-57 220h110q-16 -96 29.5 -156t143.5 -60q105 0 179 63t91 153h110q-24 -140 -129.5 -223t-247.5 -83zM567 982q174 0 264 -107t60 -279l-105 -596h-128l22 126q-153 -145 -343 -145q-148 0 -231 79t-59 214q14 83 66 142.5t165.5 103.5 t288.5 60l195 18l2 9q21 120 -33 186.5t-167 66.5q-152 0 -316 -131l-61 111q72 60 172 101t208 41zM347 99q105 0 199.5 55.5t165.5 156.5l31 177l-144 -15q-118 -12 -200 -33t-126.5 -50.5t-65.5 -60.5t-29 -71q-13 -79 32 -119t137 -40z" />
<glyph horiz-adv-x="1018" d="M1022 1835l-382 -290l-48 61l364 318zM611 1234q105 0 179 63t91 153h110q-24 -140 -129.5 -223t-247.5 -83q-147 0 -229 86t-57 220h110q-16 -96 29.5 -156t143.5 -60zM567 982q174 0 264 -107t60 -279l-105 -596h-128l22 126q-153 -145 -343 -145q-148 0 -231 79 t-59 214q14 83 66 142.5t165.5 103.5t288.5 60l195 18l2 9q21 120 -33 186.5t-167 66.5q-152 0 -316 -131l-61 111q72 60 172 101t208 41zM347 99q105 0 199.5 55.5t165.5 156.5l31 177l-144 -15q-118 -12 -200 -33t-126.5 -50.5t-65.5 -60.5t-29 -71q-13 -79 32 -119 t137 -40z" />
<glyph horiz-adv-x="1018" d="M614 1144q-147 0 -229 86t-57 220h110q-16 -96 29.5 -156t143.5 -60q105 0 179 63t91 153h110q-24 -140 -129.5 -223t-247.5 -83zM567 982q174 0 264 -107t60 -279l-105 -596h-128l22 126q-153 -145 -343 -145q-148 0 -231 79t-59 214q14 83 66 142.5t165.5 103.5 t288.5 60l195 18l2 9q21 120 -33 186.5t-167 66.5q-152 0 -316 -131l-61 111q72 60 172 101t208 41zM347 99q105 0 199.5 55.5t165.5 156.5l31 177l-144 -15q-118 -12 -200 -33t-126.5 -50.5t-65.5 -60.5t-29 -71q-13 -79 32 -119t137 -40zM371 -152q44 0 71.5 -33.5 t19.5 -77.5q-7 -39 -38.5 -65.5t-69.5 -26.5q-45 0 -72 33t-19 78q7 38 39 65t69 27z" />
<glyph horiz-adv-x="1018" d="M763 1606l-62 -61l-289 289l93 89zM614 1144q-147 0 -229 86t-57 220h110q-16 -96 29.5 -156t143.5 -60q105 0 179 63t91 153h110q-24 -140 -129.5 -223t-247.5 -83zM567 982q174 0 264 -107t60 -279l-105 -596h-128l22 126q-153 -145 -343 -145q-148 0 -231 79t-59 214 q14 83 66 142.5t165.5 103.5t288.5 60l195 18l2 9q21 120 -33 186.5t-167 66.5q-152 0 -316 -131l-61 111q72 60 172 101t208 41zM347 99q105 0 199.5 55.5t165.5 156.5l31 177l-144 -15q-118 -12 -200 -33t-126.5 -50.5t-65.5 -60.5t-29 -71q-13 -79 32 -119t137 -40z" />
<glyph horiz-adv-x="1018" d="M739 1898q-56 0 -113 -36l-52 85q76 52 157 52q94 0 149 -60t39 -149q-11 -60 -57 -107t-123 -69l-19 -85h-92l19 142q153 32 172 139q7 38 -14.5 63t-65.5 25zM614 1144q-147 0 -229 86t-57 220h110q-16 -96 29.5 -156t143.5 -60q105 0 179 63t91 153h110 q-24 -140 -129.5 -223t-247.5 -83zM567 982q174 0 264 -107t60 -279l-105 -596h-128l22 126q-153 -145 -343 -145q-148 0 -231 79t-59 214q14 83 66 142.5t165.5 103.5t288.5 60l195 18l2 9q21 120 -33 186.5t-167 66.5q-152 0 -316 -131l-61 111q72 60 172 101t208 41z M347 99q105 0 199.5 55.5t165.5 156.5l31 177l-144 -15q-118 -12 -200 -33t-126.5 -50.5t-65.5 -60.5t-29 -71q-13 -79 32 -119t137 -40z" />
<glyph horiz-adv-x="1018" d="M576 1711q-56 0 -95.5 -47.5t-52.5 -119.5l-102 10q20 112 85.5 185.5t161.5 73.5q65 0 101.5 -31.5t65.5 -85.5q28 -55 86 -55q53 0 91.5 44t51.5 122l100 -10q-21 -118 -86.5 -188.5t-160.5 -70.5q-37 0 -65 10t-47.5 30.5t-29.5 35.5t-24 41q-16 29 -33.5 42.5 t-46.5 13.5zM611 1234q105 0 179 63t91 153h110q-24 -140 -129.5 -223t-247.5 -83q-147 0 -229 86t-57 220h110q-16 -96 29.5 -156t143.5 -60zM567 982q174 0 264 -107t60 -279l-105 -596h-128l22 126q-153 -145 -343 -145q-148 0 -231 79t-59 214q14 83 66 142.5 t165.5 103.5t288.5 60l195 18l2 9q21 120 -33 186.5t-167 66.5q-152 0 -316 -131l-61 111q72 60 172 101t208 41zM347 99q105 0 199.5 55.5t165.5 156.5l31 177l-144 -15q-118 -12 -200 -33t-126.5 -50.5t-65.5 -60.5t-29 -71q-13 -79 32 -119t137 -40z" />
<glyph horiz-adv-x="1018" d="M673 1125h-140l-147 305l81 45l148 -257l242 257l71 -45zM567 982q174 0 264 -107t60 -279l-105 -596h-128l22 126q-153 -145 -343 -145q-148 0 -231 79t-59 214q14 83 66 142.5t165.5 103.5t288.5 60l195 18l2 9q21 120 -33 186.5t-167 66.5q-152 0 -316 -131l-61 111 q72 60 172 101t208 41zM347 99q105 0 199.5 55.5t165.5 156.5l31 177l-144 -15q-118 -12 -200 -33t-126.5 -50.5t-65.5 -60.5t-29 -71q-13 -79 32 -119t137 -40z" />
<glyph horiz-adv-x="1018" d="M644 1345l-244 -255l-69 43l253 306h140l149 -306l-78 -43zM567 982q174 0 264 -107t60 -279l-105 -596h-128l22 126q-153 -145 -343 -145q-148 0 -231 79t-59 214q14 83 66 142.5t165.5 103.5t288.5 60l195 18l2 9q21 120 -33 186.5t-167 66.5q-152 0 -316 -131l-61 111 q72 60 172 101t208 41zM347 99q105 0 199.5 55.5t165.5 156.5l31 177l-144 -15q-118 -12 -200 -33t-126.5 -50.5t-65.5 -60.5t-29 -71q-13 -79 32 -119t137 -40z" />
<glyph horiz-adv-x="1018" d="M436 1144q-44 0 -71.5 32.5t-19.5 76.5q7 39 38.5 65.5t69.5 26.5q44 0 71 -32.5t20 -78.5q-7 -37 -39 -63.5t-69 -26.5zM812 1345q45 0 72 -32.5t19 -78.5q-7 -37 -38 -63.5t-69 -26.5q-45 0 -72.5 32.5t-19.5 76.5q7 39 38.5 65.5t69.5 26.5zM567 982q174 0 264 -107 t60 -279l-105 -596h-128l22 126q-153 -145 -343 -145q-148 0 -231 79t-59 214q14 83 66 142.5t165.5 103.5t288.5 60l195 18l2 9q21 120 -33 186.5t-167 66.5q-152 0 -316 -131l-61 111q72 60 172 101t208 41zM347 99q105 0 199.5 55.5t165.5 156.5l31 177l-144 -15 q-118 -12 -200 -33t-126.5 -50.5t-65.5 -60.5t-29 -71q-13 -79 32 -119t137 -40z" />
<glyph horiz-adv-x="1018" d="M682 1147l-62 -61l-289 289l93 89zM567 982q174 0 264 -107t60 -279l-105 -596h-128l22 126q-153 -145 -343 -145q-148 0 -231 79t-59 214q14 83 66 142.5t165.5 103.5t288.5 60l195 18l2 9q21 120 -33 186.5t-167 66.5q-152 0 -316 -131l-61 111q72 60 172 101t208 41z M347 99q105 0 199.5 55.5t165.5 156.5l31 177l-144 -15q-118 -12 -200 -33t-126.5 -50.5t-65.5 -60.5t-29 -71q-13 -79 32 -119t137 -40z" />
<glyph horiz-adv-x="1018" d="M312 1277h635l-18 -96h-634zM567 982q174 0 264 -107t60 -279l-105 -596h-128l22 126q-153 -145 -343 -145q-148 0 -231 79t-59 214q14 83 66 142.5t165.5 103.5t288.5 60l195 18l2 9q21 120 -33 186.5t-167 66.5q-152 0 -316 -131l-61 111q72 60 172 101t208 41zM347 99 q105 0 199.5 55.5t165.5 156.5l31 177l-144 -15q-118 -12 -200 -33t-126.5 -50.5t-65.5 -60.5t-29 -71q-13 -79 32 -119t137 -40z" />
<glyph horiz-adv-x="1018" d="M786 0q-116 -55 -201.5 -133t-102.5 -168q-10 -56 16.5 -84.5t82.5 -28.5q109 0 205 82l56 -100q-121 -102 -269 -97q-104 4 -156 62.5t-34 156.5q16 91 90 171.5t186 141.5l21 123q-153 -145 -343 -145q-148 0 -231 79t-59 214q14 83 66 142.5t165.5 103.5t288.5 60 l195 18l2 9q21 120 -33 186.5t-167 66.5q-152 0 -316 -131l-61 111q72 60 172 101t208 41q174 0 264 -107t60 -279zM347 99q105 0 199.5 55.5t165.5 156.5l31 177l-144 -15q-118 -12 -200 -33t-126.5 -50.5t-65.5 -60.5t-29 -71q-13 -79 32 -119t137 -40z" />
<glyph horiz-adv-x="1018" d="M632 1147q-88 0 -141 64t-37 150q13 81 81 138t149 57q87 0 138.5 -63t37.5 -151q-14 -80 -81 -137.5t-147 -57.5zM531 1342q-9 -51 18 -84t77 -33q56 0 103 39.5t57 96.5q8 49 -19.5 84.5t-76.5 35.5q-56 0 -102.5 -41.5t-56.5 -97.5zM567 982q174 0 264 -107t60 -279 l-105 -596h-128l22 126q-153 -145 -343 -145q-148 0 -231 79t-59 214q14 83 66 142.5t165.5 103.5t288.5 60l195 18l2 9q21 120 -33 186.5t-167 66.5q-152 0 -316 -131l-61 111q72 60 172 101t208 41zM347 99q105 0 199.5 55.5t165.5 156.5l31 177l-144 -15 q-118 -12 -200 -33t-126.5 -50.5t-65.5 -60.5t-29 -71q-13 -79 32 -119t137 -40z" />
<glyph horiz-adv-x="1018" d="M495 1252q-56 0 -95.5 -47.5t-52.5 -119.5l-102 10q20 112 85.5 185.5t161.5 73.5q65 0 101.5 -31.5t65.5 -85.5q28 -55 86 -55q53 0 91.5 44t51.5 122l100 -10q-21 -118 -86.5 -188.5t-160.5 -70.5q-37 0 -65 10t-47.5 30.5t-29.5 35.5t-24 41q-16 29 -33.5 42.5 t-46.5 13.5zM567 982q174 0 264 -107t60 -279l-105 -596h-128l22 126q-153 -145 -343 -145q-148 0 -231 79t-59 214q14 83 66 142.5t165.5 103.5t288.5 60l195 18l2 9q21 120 -33 186.5t-167 66.5q-152 0 -316 -131l-61 111q72 60 172 101t208 41zM347 99q105 0 199.5 55.5 t165.5 156.5l31 177l-144 -15q-118 -12 -200 -33t-126.5 -50.5t-65.5 -60.5t-29 -71q-13 -79 32 -119t137 -40z" />
<glyph horiz-adv-x="1263" d="M1004 786l131 750h136l-271 -1536h-136l27 160q-78 -84 -182 -131t-222 -47q-131 0 -233 68t-149.5 185.5t-23.5 255.5q24 133 109 246.5t206 178.5t248 65q125 0 217.5 -51.5t142.5 -143.5zM1594 1536h160l-353 -573h-109zM508 115q156 0 284.5 110t157.5 266 q27 149 -58.5 253t-234.5 104q-155 0 -284.5 -110.5t-157.5 -265.5q-27 -149 58.5 -253t234.5 -104z" />
<glyph horiz-adv-x="1261" d="M1017 1535l-218 -406h-157l270 406h105zM1029 963h138l-169 -964q-37 -207 -206 -350.5t-375 -143.5q-145 0 -255.5 76.5t-154.5 201.5l121 66q29 -97 107.5 -153.5t185.5 -56.5q155 0 284.5 109.5t155.5 261.5l25 140q-157 -168 -386 -168q-138 0 -243.5 68t-153 185.5 t-23.5 255.5q37 205 205 347.5t371 142.5q122 0 209.5 -48.5t134.5 -135.5zM506 115q155 0 285 110.5t157 265.5q27 149 -58.5 252.5t-233.5 103.5q-157 0 -285.5 -109.5t-156.5 -265.5q-26 -148 58.5 -252.5t233.5 -104.5z" />
<glyph horiz-adv-x="492" d="M93 0l270 1536h136l-270 -1536h-136zM527 963l302 573h160l-353 -573h-109z" />
<glyph horiz-adv-x="603" d="M880 1638h160l-353 -573h-109zM516 1309l-61 -346h206l-22 -126h-206l-147 -837h-138l146 837h-208l21 126h209l61 346h139z" />
<glyph horiz-adv-x="1263" d="M1004 786l131 750h136l-271 -1536h-136l27 160q-78 -84 -182 -131t-222 -47q-131 0 -233 68t-149.5 185.5t-23.5 255.5q24 133 109 246.5t206 178.5t248 65q125 0 217.5 -51.5t142.5 -143.5zM1594 1536h160l-353 -573h-109zM508 115q156 0 284.5 110t157.5 266 q27 149 -58.5 253t-234.5 104q-155 0 -284.5 -110.5t-157.5 -265.5q-27 -149 58.5 -253t234.5 -104z" />
<glyph horiz-adv-x="1261" d="M1017 1535l-218 -406h-157l270 406h105zM1029 963h138l-169 -964q-37 -207 -206 -350.5t-375 -143.5q-145 0 -255.5 76.5t-154.5 201.5l121 66q29 -97 107.5 -153.5t185.5 -56.5q155 0 284.5 109.5t155.5 261.5l25 140q-157 -168 -386 -168q-138 0 -243.5 68t-153 185.5 t-23.5 255.5q37 205 205 347.5t371 142.5q122 0 209.5 -48.5t134.5 -135.5zM506 115q155 0 285 110.5t157 265.5q27 149 -58.5 252.5t-233.5 103.5q-157 0 -285.5 -109.5t-156.5 -265.5q-26 -148 58.5 -252.5t233.5 -104.5z" />
<glyph horiz-adv-x="492" d="M93 0l270 1536h136l-270 -1536h-136zM527 963l302 573h160l-353 -573h-109z" />
<glyph horiz-adv-x="603" d="M880 1638h160l-353 -573h-109zM516 1309l-61 -346h206l-22 -126h-206l-147 -837h-138l146 837h-208l21 126h209l61 346h139z" />
<glyph horiz-adv-x="1168" d="M1227 963l-22 -126h-206l-147 -837h-138l146 837h-445l-147 -837h-137l148 837h-163l21 126h164l57 324q21 125 104.5 198.5t201.5 73.5q87 0 125 -33l-15 -130q-37 34 -98 34q-69 0 -121.5 -48t-65.5 -122l-52 -297h445l61 346h139l-61 -346h206z" />
<glyph horiz-adv-x="1148" d="M1207 963l-22 -126h-206l-147 -837h-138l146 837h-407l-147 -837h-138l146 837h-208l21 126h209l61 346h139l-61 -346h407l61 346h139l-61 -346h206z" />
<glyph horiz-adv-x="1327" d="M585 -20q-156 0 -266 104.5t-150.5 287.5t-0.5 406q38 220 136 397t240 279t300 102q122 0 216 -61t146.5 -168.5t69.5 -253t-15 -315.5q-39 -218 -141 -396.5t-243.5 -280t-291.5 -101.5zM589 105q184 0 332.5 188.5t201.5 484.5q51 293 -30.5 465.5t-252.5 172.5 q-179 0 -329.5 -179.5t-203.5 -478.5q-32 -195 -10.5 -340t98.5 -229t194 -84z" />
<glyph horiz-adv-x="697" d="M259 0l245 1395h-322l25 141h463l-271 -1536h-140z" />
<glyph horiz-adv-x="1160" d="M1123 1128q-12 -72 -41 -142t-83.5 -146.5t-115 -146.5t-161.5 -165.5t-194 -178t-239 -208.5h740l-24 -141h-1048l-2 18q321 276 515.5 454.5t305.5 303.5t152.5 200.5t55.5 156.5q24 133 -47 208t-199 76q-141 1 -246 -87t-132 -227l-150 12q39 200 191.5 322.5 t349.5 120.5q194 -2 299 -119t73 -311z" />
<glyph horiz-adv-x="1175" d="M492 -20q-217 0 -344 128t-93 323l140 -9q-24 -139 61.5 -224t239.5 -85q162 0 284.5 93.5t149.5 243.5q26 143 -60 228.5t-245 85.5h-153l23 133h138q125 0 219 80.5t115 197.5q20 109 -42.5 178.5t-185.5 69.5q-126 0 -220.5 -72.5t-114.5 -181.5l-139 10 q30 166 167 271.5t312 105.5q183 0 287.5 -111t73.5 -282q-19 -111 -92.5 -194.5t-188.5 -128.5q136 -43 202.5 -154t39.5 -262q-34 -196 -198.5 -320t-375.5 -124z" />
<glyph horiz-adv-x="1231" d="M1199 457l-25 -133h-281l-57 -324h-141l57 324h-746l16 92l909 1120h175l-190 -1079h283zM776 457l158 901l-715 -901h557z" />
<glyph horiz-adv-x="1225" d="M1218 1399h-663l-163 -486q142 103 325 103q142 0 246 -66.5t149 -185t19 -266.5q-39 -223 -212 -369t-397 -146q-91 0 -171.5 26.5t-142.5 76.5t-96.5 129.5t-30.5 179.5l146 -10q3 -69 29.5 -122t70 -83t94 -45t107.5 -15q167 0 294.5 112t156.5 279q30 163 -54 269 t-234 106q-91 0 -182.5 -40.5t-160.5 -111.5l-153 3l270 798h778z" />
<glyph horiz-adv-x="1198" d="M721 1019q86 0 167.5 -38t142 -103t90.5 -162t14 -206q-21 -140 -109.5 -261.5t-220 -193t-270.5 -71.5q-149 0 -263 67t-168.5 184.5t-34.5 259.5q26 185 192 360l676 681h180l-552 -542q67 25 156 25zM1000 528q22 163 -70 266.5t-248 103.5q-181 0 -317 -122.5 t-160 -297.5q-21 -159 72.5 -258t259.5 -99q172 0 306 119.5t157 287.5z" />
<glyph horiz-adv-x="1134" d="M222 1536h1073l-14 -88l-1073 -1448h-173l1053 1401h-889z" />
<glyph horiz-adv-x="1164" d="M503 -20q-135 0 -237 62.5t-148 170.5t-23 237q24 136 117.5 244.5t226.5 160.5q-81 49 -113.5 136t-12.5 197q27 156 156.5 262t293.5 106q170 0 266.5 -112.5t67.5 -274.5q-19 -109 -82 -193.5t-159 -129.5q113 -56 167.5 -167.5t30.5 -248.5q-34 -189 -193 -319.5 t-358 -130.5zM646 897q113 0 206 79t113 192q19 107 -41 180.5t-166 73.5q-114 0 -207 -79.5t-115 -193.5q-18 -106 43 -179t167 -73zM505 105q145 0 265 104.5t146 249.5q25 138 -54 233.5t-217 95.5q-145 0 -264.5 -102t-144.5 -247q-25 -138 53.5 -236t215.5 -98z" />
<glyph horiz-adv-x="1199" d="M648 1552q148 0 262.5 -67t169 -184.5t34.5 -259.5q-26 -183 -192 -360l-677 -681h-180l554 542q-69 -25 -157 -25q-86 0 -167.5 37.5t-142 103t-90.5 162.5t-14 206q21 140 109.5 261.5t219.5 193t271 71.5zM978 1058q21 159 -72.5 258t-259.5 99q-172 0 -306.5 -119.5 t-156.5 -287.5q-22 -163 70 -266.5t248 -103.5q181 0 317 122.5t160 297.5z" />
<glyph horiz-adv-x="805" d="M324 -12q-154 0 -226 134.5t-35 348.5q37 206 150 334.5t259 128.5q153 0 226 -135t35 -348q-36 -206 -149.5 -334.5t-259.5 -128.5zM329 118q89 0 167 100.5t104 252.5q26 145 -11.5 239t-118.5 94q-91 0 -168.5 -100t-104.5 -253q-25 -147 12 -240t120 -93z" />
<glyph horiz-adv-x="450" d="M89 0l140 798h-137l22 124h272l-162 -922h-135z" />
<glyph horiz-adv-x="705" d="M645 663q-15 -105 -108.5 -214t-346.5 -325h390l-22 -124h-611l8 71q237 208 352.5 319.5t156.5 168t51 109.5q13 72 -20 107t-91 35q-72 1 -123 -43.5t-65 -115.5l-134 10q24 128 113 201.5t213 72.5q123 0 189.5 -73.5t47.5 -198.5z" />
<glyph horiz-adv-x="697" d="M617 688q-21 -116 -128 -175q62 -38 91 -102.5t14 -143.5q-21 -117 -119 -198t-220 -81q-125 0 -199 80t-52 198l134 -9q-11 -61 25 -101t98 -40q72 0 130.5 50.5t70.5 123.5q13 65 -23.5 106t-104.5 41h-89l20 116h71q55 0 101.5 41.5t57.5 98.5q9 50 -19.5 82t-79.5 32 q-55 0 -99.5 -35.5t-52.5 -85.5l-132 12q19 105 100 170.5t186 65.5q110 0 173.5 -72t45.5 -174z" />
<glyph horiz-adv-x="735" d="M653 922l-106 -604h89l-22 -123h-89l-34 -195h-135l34 195h-442l14 85l512 642h179zM411 318l80 457l-353 -457h273z" />
<glyph horiz-adv-x="783" d="M731 799h-399l-76 -233q83 56 189 56q124 0 193 -88.5t44 -226.5q-25 -141 -132 -230t-243 -89q-123 0 -204 69t-74 182l139 -4q7 -59 47.5 -88t99.5 -29q84 0 150 58t82 147q14 81 -27 132.5t-114 51.5q-48 0 -97.5 -24.5t-86.5 -64.5l-140 8l170 495h501z" />
<glyph horiz-adv-x="712" d="M399 620q118 -5 194 -96t56 -218q-19 -130 -127 -222t-240 -94q-142 -2 -227.5 90t-63.5 227q16 109 107 210l390 405h163l-297 -302q21 2 45 0zM520 325q11 79 -35 130t-125 49q-91 -2 -158 -64.5t-79 -151.5q-10 -79 35 -128.5t126 -47.5q88 2 156.5 64.5t79.5 148.5z " />
<glyph horiz-adv-x="636" d="M104 922h622l-14 -95l-602 -827h-162l593 800h-458z" />
<glyph horiz-adv-x="740" d="M292 -12q-134 0 -210 84.5t-54 207.5q14 79 65.5 141t126.5 96q-83 66 -63 191q17 96 97.5 161t185.5 65q111 0 173.5 -71t44.5 -175q-10 -58 -43 -105.5t-83 -75.5q62 -36 90.5 -101.5t14.5 -144.5q-20 -116 -119 -194.5t-226 -78.5zM373 550q59 0 108 41.5t60 101.5 q9 53 -20 89t-81 36q-60 0 -109.5 -42t-59.5 -103q-10 -52 19.5 -87.5t82.5 -35.5zM294 106q75 0 137 54.5t75 130.5q12 67 -26 113t-106 46q-75 0 -136.5 -52t-75.5 -126q-12 -69 26.5 -117.5t105.5 -48.5z" />
<glyph horiz-adv-x="713" d="M424 931q143 0 229.5 -91t62.5 -226q-23 -115 -109 -209l-388 -405h-165l295 301q-22 -2 -42 1q-119 7 -195.5 97t-55.5 217q22 131 129.5 223t238.5 92zM583 633q13 79 -32 127.5t-128 48.5q-87 0 -154.5 -62.5t-82.5 -149.5q-13 -79 33 -129t126 -50q90 0 157 63 t81 152z" />
<glyph horiz-adv-x="805" d="M434 611q-154 0 -226 134.5t-35 348.5q37 206 150 334.5t259 128.5q153 0 226 -135t35 -348q-36 -206 -149.5 -334.5t-259.5 -128.5zM439 741q89 0 167 100.5t104 252.5q26 145 -11.5 239t-118.5 94q-91 0 -168.5 -100t-104.5 -253q-25 -147 12 -240t120 -93z" />
<glyph horiz-adv-x="450" d="M197 614l140 798h-137l22 124h272l-162 -922h-135z" />
<glyph horiz-adv-x="705" d="M753 1277q-15 -105 -108.5 -214t-346.5 -325h390l-22 -124h-611l8 71q237 208 352.5 319.5t156.5 168t51 109.5q13 72 -20 107t-91 35q-72 1 -123 -43.5t-65 -115.5l-134 10q24 128 113 201.5t213 72.5q123 0 189.5 -73.5t47.5 -198.5z" />
<glyph horiz-adv-x="697" d="M725 1302q-21 -116 -128 -175q62 -38 91 -102.5t14 -143.5q-21 -117 -119 -198t-220 -81q-125 0 -199 80t-52 198l134 -9q-11 -61 25 -101t98 -40q72 0 130.5 50.5t70.5 123.5q13 65 -23.5 106t-104.5 41h-89l20 116h71q55 0 101.5 41.5t57.5 98.5q9 50 -19.5 82 t-79.5 32q-55 0 -99.5 -35.5t-52.5 -85.5l-132 12q19 105 100 170.5t186 65.5q110 0 173.5 -72t45.5 -174z" />
<glyph horiz-adv-x="735" d="M761 1536l-106 -604h89l-22 -123h-89l-34 -195h-135l34 195h-442l14 85l512 642h179zM519 932l80 457l-353 -457h273z" />
<glyph horiz-adv-x="783" d="M839 1413h-399l-76 -233q83 56 189 56q124 0 193 -88.5t44 -226.5q-25 -141 -132 -230t-243 -89q-123 0 -204 69t-74 182l139 -4q7 -59 47.5 -88t99.5 -29q84 0 150 58t82 147q14 81 -27 132.5t-114 51.5q-48 0 -97.5 -24.5t-86.5 -64.5l-140 8l170 495h501z" />
<glyph horiz-adv-x="712" d="M507 1234q118 -5 194 -96t56 -218q-19 -130 -127 -222t-240 -94q-142 -2 -227.5 90t-63.5 227q16 109 107 210l390 405h163l-297 -302q21 2 45 0zM628 939q11 79 -35 130t-125 49q-91 -2 -158 -64.5t-79 -151.5q-10 -79 35 -128.5t126 -47.5q88 2 156.5 64.5t79.5 148.5z " />
<glyph horiz-adv-x="636" d="M212 1536h622l-14 -95l-602 -827h-162l593 800h-458z" />
<glyph horiz-adv-x="740" d="M400 602q-134 0 -210 84.5t-54 207.5q14 79 65.5 141t126.5 96q-83 66 -63 191q17 96 97.5 161t185.5 65q111 0 173.5 -71t44.5 -175q-10 -58 -43 -105.5t-83 -75.5q62 -36 90.5 -101.5t14.5 -144.5q-20 -116 -119 -194.5t-226 -78.5zM481 1164q59 0 108 41.5t60 101.5 q9 53 -20 89t-81 36q-60 0 -109.5 -42t-59.5 -103q-10 -52 19.5 -87.5t82.5 -35.5zM402 720q75 0 137 54.5t75 130.5q12 67 -26 113t-106 46q-75 0 -136.5 -52t-75.5 -126q-12 -69 26.5 -117.5t105.5 -48.5z" />
<glyph horiz-adv-x="713" d="M532 1545q143 0 229.5 -91t62.5 -226q-23 -115 -109 -209l-388 -405h-165l295 301q-22 -2 -42 1q-119 7 -195.5 97t-55.5 217q22 131 129.5 223t238.5 92zM691 1247q13 79 -32 127.5t-128 48.5q-87 0 -154.5 -62.5t-82.5 -149.5q-13 -79 33 -129t126 -50q90 0 157 63 t81 152z" />
<glyph horiz-adv-x="629" d="M44 -368l218 614h156l-269 -614h-105z" />
<glyph horiz-adv-x="629" d="M419 842q-45 0 -72 32.5t-19 78.5q5 37 37.5 64t70.5 27q44 0 71.5 -33.5t19.5 -77.5q-7 -38 -38.5 -64.5t-69.5 -26.5zM8 -368l218 614h156l-269 -614h-105z" />
<glyph horiz-adv-x="629" d="M44 -368l218 614h156l-269 -614h-105z" />
<glyph horiz-adv-x="629" d="M419 842q-45 0 -72 32.5t-19 78.5q5 37 37.5 64t70.5 27q44 0 71.5 -33.5t19.5 -77.5q-7 -38 -38.5 -64.5t-69.5 -26.5zM8 -368l218 614h156l-269 -614h-105z" />
<glyph horiz-adv-x="870" d="M340 71q-5 -28 -23 -49l-209 -390h-109l183 362q-24 15 -35.5 40.5t-6.5 56.5q6 37 38.5 64t69.5 27q45 0 72 -33t20 -78zM565 182q45 0 72 -33t20 -78q-4 -28 -23 -50l-210 -389h-108l183 361q-25 15 -36.5 41t-5.5 57q6 37 38.5 64t69.5 27z" />
<glyph horiz-adv-x="891" d="M211 922l270 614h106l-218 -614h-158zM543 922l270 614h106l-218 -614h-158z" />
<glyph horiz-adv-x="891" d="M236 922l218 614h158l-269 -614h-107zM568 922l218 614h158l-270 -614h-106z" />
<glyph horiz-adv-x="558" d="M211 922l270 614h105l-218 -614h-157z" />
<glyph horiz-adv-x="559" d="M236 922l218 614h158l-269 -614h-107z" />
<glyph horiz-adv-x="554" d="M62 -368l110 614h155l-161 -614h-104z" />
<glyph horiz-adv-x="891" d="M211 922l270 614h106l-218 -614h-158zM543 922l270 614h106l-218 -614h-158z" />
<glyph horiz-adv-x="891" d="M236 922l218 614h158l-269 -614h-107zM568 922l218 614h158l-270 -614h-106z" />
<glyph horiz-adv-x="559" d="M211 922l270 614h106l-218 -614h-158z" />
<glyph horiz-adv-x="559" d="M236 922l218 614h158l-269 -614h-107z" />
<glyph horiz-adv-x="554" d="M62 -368l110 614h155l-161 -614h-104z" />
<glyph d="M-329 1007l258 362q-24 11 -35 40t0 66q14 33 47.5 57t66.5 24q45 0 69 -21.5t24 -55.5q0 -40 -25 -73l-294 -399h-111z" />
<glyph d="M-487 1082q-44 0 -71.5 33t-19.5 77q6 39 37.5 65.5t69.5 26.5q45 0 72.5 -33t19.5 -79q-7 -37 -38.5 -63.5t-69.5 -26.5zM-127 1082q-45 0 -72.5 33t-19.5 77q7 39 39 65.5t69 26.5q46 0 72.5 -33t18.5 -79q-7 -38 -38 -64t-69 -26z" />
<glyph d="M-207 1094q-88 0 -140.5 63.5t-38.5 150.5q15 81 83 138t149 57q87 0 138.5 -63t35.5 -151q-14 -80 -80.5 -137.5t-146.5 -57.5zM-212 1171q56 0 102 40t56 97q9 49 -18.5 84t-75.5 35q-56 0 -103 -41t-58 -97q-8 -51 19.5 -84.5t77.5 -33.5z" />
<glyph d="M-330 963l302 573h160l-353 -573h-109z" />
<glyph d="M-282 1606l-48 61l364 318l66 -89zM-308 1205q-147 0 -229 86t-57 220h110q-16 -96 29.5 -156t143.5 -60q105 0 179 63t91 153h110q-24 -140 -129.5 -223t-247.5 -83z" />
<glyph d="M-221 1606l-289 289l93 89l258 -317zM-308 1205q-147 0 -229 86t-57 220h110q-16 -96 29.5 -156t143.5 -60q105 0 179 63t91 153h110q-24 -140 -129.5 -223t-247.5 -83z" />
<glyph d="M-294 1590l19 142q153 32 172 139q7 38 -14.5 63t-65.5 25q-56 0 -113 -36l-52 85q76 52 157 52q94 0 149 -60t39 -149q-11 -60 -57 -107t-123 -69l-19 -85h-92zM-308 1205q-147 0 -229 86t-57 220h110q-16 -96 29.5 -156t143.5 -60q105 0 179 63t91 153h110 q-24 -140 -129.5 -223t-247.5 -83z" />
<glyph d="M-134 1599q-37 0 -65 10t-47.5 30.5t-29.5 35.5t-24 41q-16 29 -33.5 42.5t-46.5 13.5q-56 0 -95.5 -47.5t-52.5 -119.5l-102 10q20 112 85.5 185.5t161.5 73.5q65 0 101.5 -31.5t65.5 -85.5q28 -55 86 -55q53 0 91.5 44t51.5 122l100 -10q-21 -118 -86.5 -188.5 t-160.5 -70.5zM-342 1205q-147 0 -229 86t-57 220h110q-16 -96 29.5 -156t143.5 -60q105 0 179 63t91 153h110q-24 -140 -129.5 -223t-247.5 -83z" />
<glyph d="M-175 1659l-48 61l364 318l66 -89zM-416 1187l-69 43l253 306h140l149 -306l-78 -43l-150 255z" />
<glyph d="M-50 1659l-290 289l94 89l258 -317zM-351 1187l-69 43l252 306h140l149 -306l-78 -43l-150 255z" />
<glyph d="M-167 1644l20 141q154 33 172 139q6 38 -15.5 63t-65.5 25q-59 0 -111 -35l-54 84q79 53 159 53q94 0 148 -60t38 -149q-9 -60 -55 -107.5t-124 -69.5l-19 -84h-93zM-395 1187l-69 43l253 306h140l149 -306l-78 -43l-150 255z" />
<glyph d="M-58 1652q-120 0 -168 118q-30 54 -80 54q-55 0 -95 -48t-52 -119l-102 11q19 114 85 186.5t158 72.5q120 0 169 -119q34 -54 84 -54q54 0 93 44.5t52 122.5l101 -11q-19 -114 -85 -186t-160 -72zM-484 1187l-69 43l253 306h140l149 -306l-78 -43l-150 255z" />
</font>
</defs>
</svg>
