<?xml version="1.0" standalone="no"?>
<!DOCTYPE svg PUBLIC "-//W3C//DTD SVG 1.1//EN" "http://www.w3.org/Graphics/SVG/1.1/DTD/svg11.dtd" >
<svg xmlns="http://www.w3.org/2000/svg" xmlns:xlink="http://www.w3.org/1999/xlink" version="1.1">
<metadata></metadata>
<defs>
<font id="neue_hans_kendrickbold" horiz-adv-x="0" >
<font-face units-per-em="2048" ascent="1536" descent="-512" />
<missing-glyph horiz-adv-x="500" />
<glyph unicode="fi" horiz-adv-x="1277" d="M487 963h647v-963h-287v739h-360v-739h-288v739h-162v224h162v241q0 164 96 260.5t258 96.5q123 0 162 -30v-259q-49 37 -112 37q-53 0 -84.5 -37.5t-31.5 -100.5v-208zM992 1127q-67 0 -114.5 47.5t-47.5 113.5q0 67 47.5 113.5t114.5 46.5q66 0 113.5 -47t47.5 -113 t-48 -113.5t-113 -47.5z" />
<glyph unicode="fl" horiz-adv-x="1312" d="M487 1171v-208h232v-224h-232v-739h-288v739h-162v224h162v241q0 164 96 260.5t258 96.5q123 0 162 -30v-259q-49 37 -112 37q-53 0 -84.5 -37.5t-31.5 -100.5zM880 1536h289v-1536h-289v1536z" />
<glyph unicode=" "  horiz-adv-x="500" />
<glyph unicode="&#x09;" horiz-adv-x="500" />
<glyph unicode="&#xa0;" horiz-adv-x="500" />
<glyph unicode="!" horiz-adv-x="662" d="M181 510v1026h288v-1026h-288zM325 -20q-67 0 -115.5 48t-48.5 115q0 69 48.5 117t115.5 48q68 0 116.5 -48t48.5 -117q0 -67 -48.5 -115t-116.5 -48z" />
<glyph unicode="&#x22;" horiz-adv-x="1058" d="M216 884l-32 652h271l-23 -652h-216zM627 884l-24 652h271l-30 -652h-217z" />
<glyph unicode="#" horiz-adv-x="1590" d="M312 0l47 339h-289l28 204h289l60 400h-292l34 202h285l49 345h202l-47 -345h347l49 345h203l-49 -345h292l-32 -202h-287l-57 -400h287l-27 -204h-287l-52 -339h-201l47 339h-350l-46 -339h-203zM592 543h347l58 400h-349z" />
<glyph unicode="$" horiz-adv-x="1271" d="M1149 435q0 -179 -107.5 -294t-278.5 -149v-158h-259v158q-138 25 -253.5 95.5t-184.5 154.5l200 204q80 -105 168.5 -158t197.5 -53q103 0 162.5 49t59.5 134q0 28 -9 53t-20.5 44t-37 38.5t-44.5 32t-57.5 30.5t-61 27.5t-68.5 27.5q-4 1 -5.5 2t-4.5 2t-5 2 q-49 20 -82 34.5t-79.5 39.5t-77.5 48.5t-65.5 58.5t-54.5 73t-33.5 88.5t-13.5 107.5q0 169 103 279t266 140v158h259v-165q186 -45 336 -205l-183 -181q-140 156 -300 156q-80 0 -132 -42t-52 -114q0 -43 18.5 -76.5t66 -63.5t78 -44.5t105.5 -44.5q13 -5 19 -8 q54 -22 88 -37.5t84 -42.5t82 -51.5t69 -62t58 -78t35 -94.5t14 -115z" />
<glyph unicode="%" horiz-adv-x="1774" d="M441 843q-148 0 -252.5 105t-104.5 253q0 147 105 251t252 104q148 0 252 -103.5t104 -251.5t-104 -253t-252 -105zM330 0l839 1536h270l-839 -1536h-270zM441 1061q58 0 98.5 41t40.5 99q0 57 -41 97.5t-98 40.5q-58 0 -99 -40t-41 -98t41 -99t99 -41zM1336 -16 q-149 0 -253.5 104t-104.5 253q0 147 105 251t253 104q147 0 251 -104t104 -251t-104 -252t-251 -105zM1336 202q58 0 98.5 40.5t40.5 98.5q0 56 -41.5 97t-97.5 41q-58 0 -99.5 -40.5t-41.5 -97.5q0 -58 41 -98.5t100 -40.5z" />
<glyph unicode="&#x26;" horiz-adv-x="1516" d="M564 -22q-132 0 -239 53.5t-170.5 157.5t-63.5 241q0 62 15 116t38.5 96t67 88t86.5 82t112 87q-72 82 -105 154t-33 150q0 153 103.5 252t261.5 99q157 0 262 -94.5t105 -241.5q0 -59 -17.5 -110t-55.5 -96.5t-73.5 -77.5t-94.5 -78l244 -303l228 280l172 -167 l-245 -302l291 -366h-316l-147 183q-102 -98 -204 -150.5t-222 -52.5zM614 1017q4 3 25.5 18t26.5 19t22.5 17.5t23 20t18.5 19t17 22t11 22.5t9 26t2 28q0 56 -38 89.5t-91 33.5q-58 1 -95.5 -32.5t-37.5 -91.5q0 -22 5 -42t18.5 -41.5t22 -33.5t31 -38.5t30.5 -35.5z M555 214q72 0 139.5 43t140.5 115l-275 342q-9 -7 -40 -29t-45 -33.5t-40.5 -33.5t-40.5 -40t-30 -42.5t-23 -51t-7 -55.5q0 -89 67 -152t154 -63z" />
<glyph unicode="'" horiz-adv-x="643" d="M213 884l-28 652h273l-28 -652h-217z" />
<glyph unicode="(" horiz-adv-x="689" d="M512 -464q-200 146 -315 446.5t-115 695.5q0 393 115 695.5t315 447.5l159 -191q-153 -108 -244.5 -361.5t-91.5 -590.5q0 -339 91.5 -591t244.5 -360z" />
<glyph unicode=")" horiz-adv-x="689" d="M177 -464l-159 191q153 108 244.5 360t91.5 591q0 337 -91.5 590.5t-244.5 361.5l159 191q200 -145 315 -447.5t115 -695.5q0 -395 -115 -695.5t-315 -446.5z" />
<glyph unicode="*" horiz-adv-x="986" d="M365 817l-134 80l174 245l-302 -26v154l302 -26l-174 247l134 78l129 -270l127 270l137 -78l-176 -247l302 26v-154l-302 26l176 -245l-137 -80l-127 269z" />
<glyph unicode="+" horiz-adv-x="1198" d="M486 198v387h-387v226h387v387h226v-387h387v-226h-387v-387h-226z" />
<glyph unicode="," horiz-adv-x="623" d="M500 143q0 -38 -18 -74l-187 -443h-156l121 373q-40 21 -64.5 59.5t-24.5 84.5q0 67 49 116t115 49q67 0 116 -49t49 -116z" />
<glyph unicode="-" horiz-adv-x="993" d="M138 375v212h717v-212h-717z" />
<glyph unicode="." horiz-adv-x="639" d="M319 -20q-67 0 -115.5 48t-48.5 115t48.5 116t115.5 49t116 -49t49 -116t-49 -115t-116 -48z" />
<glyph unicode="/" horiz-adv-x="1309" d="M-25 -397l1089 2109h270l-1088 -2109h-271z" />
<glyph unicode="0" horiz-adv-x="1294" d="M648 -20q-260 0 -415 215t-155 573q0 237 68 415t197 275.5t305 97.5q264 0 416.5 -214t152.5 -574q0 -236 -69.5 -414.5t-198.5 -276t-301 -97.5zM649 235q127 0 202.5 144.5t75.5 388.5q0 245 -77 385t-201 140t-201.5 -140t-77.5 -385t75.5 -389t203.5 -144z" />
<glyph unicode="1" horiz-adv-x="1294" d="M564 0v1273h-300v263h591v-1536h-291z" />
<glyph unicode="2" horiz-adv-x="1294" d="M532 263h643v-263h-1074v170q248 246 393.5 401t221 260t97 164.5t21.5 128.5q0 98 -62 145.5t-148 47.5q-103 0 -159 -62.5t-56 -176.5h-296q0 220 142 350.5t373 130.5q219 -1 357.5 -117.5t139.5 -309.5q0 -70 -14 -134t-47.5 -131t-77.5 -129.5t-115.5 -141 t-149 -154t-189.5 -179.5z" />
<glyph unicode="3" horiz-adv-x="1294" d="M634 -20q-115 0 -214.5 29t-176.5 86t-121.5 149t-44.5 209l296 1q0 -110 73 -166t186 -56q124 0 192 64t68 173q0 107 -72 167t-188 60h-120v231h102q93 0 154.5 53.5t61.5 145.5q0 85 -55 133t-147 48q-88 0 -141.5 -46t-53.5 -138h-292q0 134 65 233.5t172.5 149.5 t241.5 50q208 0 347 -116t139 -292q0 -113 -57.5 -195.5t-138.5 -118.5q122 -36 199.5 -132t77.5 -250q0 -215 -152.5 -343.5t-400.5 -128.5z" />
<glyph unicode="4" horiz-adv-x="1294" d="M1252 557v-258h-242v-299h-291v299h-672v238l586 999h377v-979h242zM307 557h412v722z" />
<glyph unicode="5" horiz-adv-x="1294" d="M731 1042q94 0 178.5 -34.5t149 -97t102.5 -158t38 -210.5q0 -250 -159 -406t-395 -156q-143 0 -265 55t-201 164t-84 253h306q16 -95 87.5 -144.5t166.5 -49.5q108 0 179 76t71 200q0 122 -71.5 197.5t-174.5 75.5q-71 0 -138 -38.5t-109 -105.5h-296l153 873h875v-260 h-663l-51 -339q130 105 301 105z" />
<glyph unicode="6" horiz-adv-x="1294" d="M1211 521q1 -149 -75 -273.5t-205.5 -195.5t-280.5 -71q-236 0 -400.5 151.5t-168.5 374.5q-4 185 136 373l491 656h335l-420 -538q56 14 117 14q89 0 174 -38t150 -103t105.5 -157t41.5 -193zM650 242q123 0 200.5 80t74.5 198q-2 121 -80 198t-199 77q-127 0 -203 -81 t-74 -204q2 -119 79 -193.5t202 -74.5z" />
<glyph unicode="7" horiz-adv-x="1294" d="M88 1536h1129v-211l-713 -1325h-333l709 1277h-792v259z" />
<glyph unicode="8" horiz-adv-x="1294" d="M647 -20q-150 0 -272 63t-191 173t-69 244q0 126 62 229t170 165q-140 106 -140 299q0 172 125.5 287.5t315.5 115.5t315 -115.5t125 -287.5q0 -192 -138 -299q108 -62 169.5 -165t61.5 -229q0 -205 -152 -342.5t-382 -137.5zM649 932q80 0 134 54.5t54 134.5 q0 81 -54 135.5t-134 54.5q-81 0 -135 -54.5t-54 -135.5q0 -80 54 -134.5t135 -54.5zM647 234q103 0 172 73t69 177q0 103 -68.5 171t-172.5 68q-102 0 -170.5 -68.5t-68.5 -170.5q0 -104 69 -177t170 -73z" />
<glyph unicode="9" horiz-adv-x="1294" d="M1208 1029q4 -185 -136 -373l-491 -656h-335l420 538q-56 -14 -117 -14q-89 0 -174 38t-150 103t-105.5 157t-41.5 193q-1 149 75 273.5t205.5 195.5t280.5 71q236 0 400.5 -151.5t168.5 -374.5zM643 741q127 0 203 81t74 204q-2 119 -79 193.5t-202 74.5 q-123 0 -200.5 -80t-74.5 -198q2 -121 80 -198t199 -77z" />
<glyph unicode=":" horiz-adv-x="618" d="M308 716q-66 0 -115 48.5t-49 116.5q0 66 49 114.5t115 48.5q67 0 116 -48.5t49 -114.5q0 -68 -48.5 -116.5t-116.5 -48.5zM308 -20q-66 0 -115 48.5t-49 114.5q0 67 49 116t115 49q68 0 116.5 -49t48.5 -116t-48.5 -115t-116.5 -48z" />
<glyph unicode=";" horiz-adv-x="613" d="M317 716q-67 0 -115 48.5t-48 116.5q0 66 48 114.5t115 48.5t116.5 -48.5t49.5 -114.5q0 -68 -49 -116.5t-117 -48.5zM317 308q68 0 117 -49t49 -116q0 -38 -17 -72l-189 -445h-155l120 373q-40 21 -64 59.5t-24 84.5q0 67 48.5 116t114.5 49z" />
<glyph unicode="&#x3c;" horiz-adv-x="1335" d="M1215 1464v-250l-897 -453l897 -454v-254l-1131 572v271z" />
<glyph unicode="=" horiz-adv-x="1294" d="M213 806v226h867v-226h-867zM213 365v226h867v-226h-867z" />
<glyph unicode="&#x3e;" horiz-adv-x="1335" d="M120 1464l1131 -568v-271l-1131 -572v254l897 454l-897 453v250z" />
<glyph unicode="?" horiz-adv-x="1119" d="M425 480v107q0 78 20.5 136t53 91t72 57.5t79.5 44.5t72.5 43t53 61.5t20.5 91.5q0 90 -69 146t-173 56q-109 0 -175.5 -69t-68.5 -180h-254q1 214 140.5 351t357.5 137q210 0 352.5 -127t142.5 -314q0 -78 -20 -138t-52.5 -96.5t-71 -64.5t-77.5 -50t-71.5 -45 t-52.5 -57.5t-20 -79.5v-101h-259zM562 -20q-68 0 -116.5 48t-48.5 115q0 68 48.5 116.5t116.5 48.5t116 -48.5t48 -116.5q0 -67 -48 -115t-116 -48z" />
<glyph unicode="@" horiz-adv-x="1748" d="M1296 903l-84 -410q-25 -107 -16 -160.5t68 -53.5q84 0 139 91.5t55 237.5q0 127 -43 226.5t-119 161.5t-175.5 94t-216.5 32q-177 0 -313.5 -81t-208.5 -219t-72 -308q0 -183 80.5 -319.5t217.5 -206.5t310 -70q255 0 438 132l99 -141q-226 -163 -553 -163 q-173 0 -321 58t-251 159.5t-161 244.5t-58 309q0 220 108 399.5t289.5 278.5t397.5 99q145 0 275 -43t233 -124.5t164 -211.5t61 -291q0 -106 -24 -193.5t-64 -146t-93.5 -98.5t-110.5 -58t-117 -18q-87 0 -136.5 37.5t-57.5 94.5q-25 -48 -90 -89.5t-158 -41.5 q-143 0 -225 97t-82 249q0 84 28 167.5t79.5 152.5t132.5 112t178 43q77 0 134.5 -31.5t79.5 -78.5l17 81h166zM1053 573q2 88 -34 146t-120 58q-70 0 -124.5 -51t-80.5 -124.5t-26 -150.5q0 -31 7 -60.5t22.5 -59t47 -47.5t74.5 -18q59 0 106 30t73.5 78t40 99t14.5 100z " />
<glyph unicode="A" horiz-adv-x="1479" d="M1141 0l-81 237h-642l-81 -237h-327l585 1536h287l588 -1536h-329zM505 489h469l-235 685z" />
<glyph unicode="B" horiz-adv-x="1389" d="M1049 783q122 -42 190 -134.5t68 -233.5q0 -190 -127 -302.5t-319 -112.5h-682v1536h605q194 0 322.5 -115.5t128.5 -306.5q0 -231 -186 -331zM945 1085q0 80 -56.5 134t-138.5 54h-281v-382h281q81 0 138 56.5t57 137.5zM820 263q83 0 140 54.5t57 134.5t-57.5 136.5 t-139.5 56.5h-351v-382h351z" />
<glyph unicode="C" horiz-adv-x="1505" d="M864 -20q-161 0 -307 62t-251.5 167.5t-168 251.5t-62.5 307t62.5 307t168 251.5t251.5 167.5t307 62q173 0 332.5 -75t267.5 -204l-223 -179q-68 83 -166.5 129.5t-210.5 46.5q-212 0 -356 -145t-144 -361t144 -361t356 -145q112 0 210.5 46.5t166.5 129.5l223 -179 q-108 -129 -267.5 -204t-332.5 -75z" />
<glyph unicode="D" horiz-adv-x="1521" d="M179 0v1536h485q178 0 326.5 -60.5t247 -164.5t153 -244t54.5 -299t-54.5 -299t-153 -244t-247 -164.5t-326.5 -60.5h-485zM476 269h175q222 0 353 140.5t131 358.5t-131 358.5t-353 140.5h-175v-998z" />
<glyph unicode="E" horiz-adv-x="1211" d="M1109 1270h-632v-369h546v-266h-546v-369h632v-266h-930v1536h930v-266z" />
<glyph unicode="F" horiz-adv-x="1167" d="M1109 1270h-632v-369h546v-266h-546v-635h-298v1536h930v-266z" />
<glyph unicode="G" horiz-adv-x="1640" d="M868 858h653v-858h-214l-30 98q-192 -118 -413 -118q-161 0 -307 62t-251.5 167.5t-168 251.5t-62.5 307t62.5 307t168 251.5t251.5 167.5t307 62q173 0 332.5 -75t267.5 -204l-223 -179q-68 83 -166.5 129.5t-210.5 46.5q-212 0 -356 -145t-144 -361t144 -361t356 -145 q108 0 203.5 43t163.5 121v180h-363v252z" />
<glyph unicode="H" horiz-adv-x="1628" d="M1151 1536h298v-1536h-298v634h-674v-634h-298v1536h298v-632h674v632z" />
<glyph unicode="I" horiz-adv-x="656" d="M179 0v1536h298v-1536h-298z" />
<glyph unicode="J" horiz-adv-x="1079" d="M398 -20q-226 0 -378 100l129 248q49 -35 114 -56.5t125 -21.5q118 0 179 79t61 217v990h298v-1045q0 -225 -142.5 -368t-385.5 -143z" />
<glyph unicode="K" horiz-adv-x="1491" d="M1467 0h-392l-598 721v-721h-298v1536h298v-709l588 709h380l-652 -762z" />
<glyph unicode="L" horiz-adv-x="1036" d="M477 269h523v-269h-821v1536h298v-1267z" />
<glyph unicode="M" horiz-adv-x="1919" d="M1519 1536h235v-1536h-297v944l-499 -792l-494 789v-941h-298v1536h238l554 -875z" />
<glyph unicode="N" horiz-adv-x="1645" d="M1181 1536h298v-1536h-226l-789 1017v-1017h-298v1536h224l791 -1014v1014z" />
<glyph unicode="O" horiz-adv-x="1726" d="M863 -20q-214 0 -395.5 105.5t-287 287t-105.5 395.5t105.5 395.5t287 287t395.5 105.5q161 0 307 -62.5t251.5 -167.5t168 -251t62.5 -307t-62.5 -307t-168 -251t-251.5 -167.5t-307 -62.5zM863 268q211 0 355.5 144t144.5 356t-144.5 356t-355.5 144t-355.5 -144.5 t-144.5 -355.5t144.5 -355.5t355.5 -144.5z" />
<glyph unicode="P" horiz-adv-x="1396" d="M890 1536q125 0 229 -61t163.5 -165.5t59.5 -228.5q0 -190 -130.5 -317.5t-321.5 -127.5h-413v-636h-298v1536h711zM845 888q90 0 149 52t59 138q0 85 -59.5 138.5t-148.5 53.5h-368v-382h368z" />
<glyph unicode="Q" horiz-adv-x="1778" d="M1717 154l-200 -200l-182 182q-210 -156 -472 -156q-214 0 -395.5 105.5t-287 287t-105.5 395.5t105.5 395.5t287 287t395.5 105.5q161 0 307 -62.5t251.5 -167.5t168 -251t62.5 -307q0 -237 -128 -431zM863 268q144 0 266 73l-183 183l184 184l180 -170q53 108 53 230 q0 212 -144.5 356t-355.5 144t-355.5 -144.5t-144.5 -355.5t144.5 -355.5t355.5 -144.5z" />
<glyph unicode="R" horiz-adv-x="1438" d="M1049 0l-318 636h-254v-636h-298v1536h711q125 0 229 -61t163.5 -165.5t59.5 -228.5q0 -151 -85.5 -266t-223.5 -158l340 -657h-324zM477 1270v-382h368q90 0 149 52t59 138q0 85 -59.5 138.5t-148.5 53.5h-368z" />
<glyph unicode="S" horiz-adv-x="1194" d="M615 -20q-179 0 -330.5 78t-238.5 184l200 204q80 -105 168.5 -158t197.5 -53q103 0 162.5 49t59.5 134q0 28 -9 53t-20.5 44t-37 38.5t-44.5 32t-57.5 30.5t-61 27.5t-68.5 27.5q-4 1 -5.5 2t-4.5 2t-5 2q-49 20 -82 34.5t-79.5 39.5t-77.5 48.5t-65.5 58.5t-54.5 73 t-33.5 88.5t-13.5 107.5q0 132 66.5 231t174.5 148.5t239 49.5q276 0 484 -222l-183 -181q-140 156 -300 156q-80 0 -132 -42t-52 -114q0 -43 18.5 -76.5t66 -63.5t78 -44.5t105.5 -44.5q13 -5 19 -8q54 -22 88 -37.5t84 -42.5t82 -51.5t69 -62t58 -78t35 -94.5t14 -115 q0 -107 -41.5 -195t-113 -144t-163.5 -86t-196 -30z" />
<glyph unicode="T" horiz-adv-x="1160" d="M1124 1536v-269h-395v-1267h-297v1267h-396v269h1088z" />
<glyph unicode="U" horiz-adv-x="1545" d="M772 -20q-176 0 -318.5 68t-224 192t-81.5 280v1016h298v-962q0 -145 92.5 -235.5t233.5 -90.5t234 90.5t93 235.5v962h299v-1016q0 -156 -82 -280t-224.5 -192t-319.5 -68z" />
<glyph unicode="V" horiz-adv-x="1455" d="M1126 1536h323l-588 -1536h-269l-586 1536h322l399 -1124z" />
<glyph unicode="W" horiz-adv-x="2136" d="M1811 1536h318l-563 -1536h-301l-197 496l-198 -496h-301l-562 1536h317l413 -1204l191 516l-274 688h298l116 -311l115 311h299l-274 -689l191 -515z" />
<glyph unicode="X" horiz-adv-x="1441" d="M1411 0h-345l-346 543l-345 -543h-345l529 788l-502 748h344l319 -500l321 500h343l-503 -747z" />
<glyph unicode="Y" horiz-adv-x="1400" d="M1386 1536l-535 -810v-726h-298v720l-539 816h341l346 -546l348 546h337z" />
<glyph unicode="Z" horiz-adv-x="1339" d="M1287 1536v-102l-794 -1165h769v-269h-1218v106l793 1161h-735v269h1185z" />
<glyph unicode="[" horiz-adv-x="720" d="M172 -512v2347h515v-204h-264v-1939h264v-204h-515z" />
<glyph unicode="\" horiz-adv-x="1309" d="M1064 -397l-1089 2109h271l1088 -2109h-270z" />
<glyph unicode="]" horiz-adv-x="720" d="M548 -512h-515v204h264v1939h-264v204h515v-2347z" />
<glyph unicode="^" horiz-adv-x="1522" d="M1459 406h-240l-458 909l-458 -909h-240l569 1130h257z" />
<glyph unicode="_" horiz-adv-x="1415" d="M195 -264v212h1024v-212h-1024z" />
<glyph unicode="`" horiz-adv-x="501" d="M339 1130l-345 290l139 155l305 -335z" />
<glyph unicode="a" horiz-adv-x="1258" d="M827 963h289v-963h-264l-10 132q-114 -152 -318 -152q-124 0 -229.5 64t-169 180.5t-63.5 259.5q0 142 63.5 258t169 180t229.5 64q191 0 303 -136v113zM598 230q103 0 175.5 74t72.5 180t-72 179t-176 73t-175.5 -73t-71.5 -179t72 -180t175 -74z" />
<glyph unicode="b" horiz-adv-x="1259" d="M735 986q124 0 229.5 -64t169 -180t63.5 -258q0 -143 -63.5 -259.5t-169 -180.5t-229.5 -64q-204 0 -318 152l-10 -132h-264v1536h289v-686q112 136 303 136zM661 230q103 0 175 74t72 180t-71.5 179t-175.5 73t-176 -73t-72 -179t72.5 -180t175.5 -74z" />
<glyph unicode="c" horiz-adv-x="1074" d="M570 -18q-219 0 -366 144.5t-147 354.5q0 211 147 355.5t366 144.5q156 0 281 -83.5t181 -220.5l-240 -101q-28 67 -87 107.5t-135 40.5q-103 0 -172 -70t-69 -173q0 -102 69 -171.5t172 -69.5q76 0 135 39.5t87 106.5l240 -100q-56 -138 -180.5 -221t-281.5 -83z" />
<glyph unicode="d" horiz-adv-x="1259" d="M827 1536h289v-1536h-264l-10 132q-114 -152 -318 -152q-124 0 -229.5 64t-169 180.5t-63.5 259.5q0 142 63.5 258t169 180t229.5 64q191 0 303 -136v686zM598 230q103 0 175.5 74t72.5 180t-72 179t-176 73t-175.5 -73t-71.5 -179t72 -180t175 -74z" />
<glyph unicode="e" horiz-adv-x="1121" d="M1065 492v-64h-718q15 -105 77.5 -162.5t156.5 -57.5q71 0 129.5 32.5t92.5 94.5l227 -94q-57 -121 -174 -190t-274 -69q-233 0 -378 142.5t-145 355.5q0 104 38 196.5t105 160t163 106.5t206 39q213 0 353.5 -135t140.5 -355zM574 762q-79 0 -134 -39.5t-79 -111.5h410 q-46 151 -197 151z" />
<glyph unicode="f" horiz-adv-x="737" d="M719 963v-224h-232v-739h-288v739h-162v224h162v241q0 164 96 260.5t258 96.5q123 0 162 -30v-259q-49 37 -112 37q-53 0 -84.5 -37.5t-31.5 -100.5v-208h232z" />
<glyph unicode="g" horiz-adv-x="1266" d="M833 963h289v-926q0 -252 -150 -394.5t-392 -142.5q-131 0 -264 54t-218 163l160 177q140 -150 306 -150q120 0 194.5 77.5t74.5 214.5v83q-109 -139 -299 -139q-200 0 -337 143t-137 361q0 217 136.5 359.5t335.5 142.5q190 0 301 -140v117zM596 230q103 0 175.5 74.5 t72.5 179.5q0 106 -72 179t-176 73t-175.5 -73t-71.5 -179t71.5 -180t175.5 -74z" />
<glyph unicode="h" horiz-adv-x="1163" d="M692 981q153 0 253 -104.5t100 -259.5v-617h-288v582q0 65 -43 105t-110 40q-74 0 -122.5 -44t-49.5 -110v-573h-289v1536h289v-672q101 117 260 117z" />
<glyph unicode="i" horiz-adv-x="573" d="M288 1127q-67 0 -114.5 47.5t-47.5 113.5q0 67 47.5 113.5t114.5 46.5q66 0 113.5 -47t47.5 -113t-48 -113.5t-113 -47.5zM143 0v963h287v-963h-287z" />
<glyph unicode="j" horiz-adv-x="574" d="M288 1127q-67 0 -115 47.5t-48 113.5q0 67 47.5 113.5t115.5 46.5q65 0 112 -47t47 -113t-47 -113.5t-112 -47.5zM143 -481v1444h288v-1444h-288z" />
<glyph unicode="k" horiz-adv-x="1176" d="M1178 0h-364l-382 446v-446h-289v1536h289v-973l352 400h351l-417 -456z" />
<glyph unicode="l" horiz-adv-x="575" d="M143 0v1536h289v-1536h-289z" />
<glyph unicode="m" horiz-adv-x="1713" d="M1239 981q155 0 255.5 -106t100.5 -265v-610h-288v580q0 66 -39.5 108.5t-103.5 42.5q-70 0 -110.5 -48t-40.5 -119v-564h-288v580q0 66 -39.5 108.5t-105.5 42.5q-69 0 -108.5 -48t-39.5 -119v-564h-289v963h289v-100q94 118 239 118q84 0 157 -41t121 -113 q104 154 290 154z" />
<glyph unicode="n" horiz-adv-x="1163" d="M701 981q144 0 244 -105t100 -259v-617h-288v579q0 70 -45 112.5t-114 42.5q-72 0 -118.5 -46.5t-47.5 -118.5v-569h-289v963h289v-98q104 116 269 116z" />
<glyph unicode="o" horiz-adv-x="1140" d="M570 -18q-219 0 -366 144.5t-147 354.5q0 138 66.5 252.5t184.5 181t262 66.5q218 0 365.5 -145t147.5 -355t-147.5 -354.5t-365.5 -144.5zM569 235q101 0 169.5 70t68.5 176q0 107 -68.5 177.5t-169.5 70.5t-169.5 -70t-68.5 -178t68.5 -177t169.5 -69z" />
<glyph unicode="p" horiz-adv-x="1259" d="M735 982q124 0 229.5 -63.5t169 -180t63.5 -259.5t-63.5 -259t-169 -179.5t-229.5 -63.5q-191 0 -303 136v-605h-289v1455h264l10 -133q114 152 318 152zM661 227q104 0 175.5 73t71.5 179t-71.5 179.5t-175.5 73.5t-176 -73.5t-72 -179.5t72 -179t176 -73z" />
<glyph unicode="q" horiz-adv-x="1259" d="M852 963h264v-1455h-289v605q-112 -136 -303 -136q-124 0 -229.5 63.5t-169 179.5t-63.5 259t63.5 259.5t169 180t229.5 63.5q204 0 318 -152zM598 227q104 0 176 73t72 179t-72 179.5t-176 73.5t-175.5 -73.5t-71.5 -179.5t71.5 -179t175.5 -73z" />
<glyph unicode="r" horiz-adv-x="852" d="M697 982q88 0 155 -50l-98 -247q-50 28 -100 28q-93 0 -157.5 -74.5t-64.5 -196.5v-442h-289v963h289v-155q88 174 265 174z" />
<glyph unicode="s" horiz-adv-x="942" d="M476 -20q-233 0 -425 124l119 194q60 -43 145 -72.5t156 -29.5q63 0 99.5 23.5t36.5 64.5q0 15 -5.5 27t-17.5 21.5t-25 16t-36 13.5t-41.5 12t-50 13t-53.5 14q-49 14 -84 26.5t-77 36t-68 51.5t-44 71.5t-18 97.5q0 98 57 167t146 100t199 31q209 0 363 -101l-120 -174 q-57 34 -132 57t-133 23q-53 0 -84 -19t-31 -53q0 -15 5.5 -27t19.5 -22t26 -17t37.5 -15t39.5 -12t47.5 -12t47.5 -12q73 -18 124.5 -39.5t94.5 -55.5t64 -83.5t21 -115.5q0 -155 -109 -239.5t-294 -84.5z" />
<glyph unicode="t" horiz-adv-x="704" d="M677 963v-224h-180v-739h-289v739h-182v224h182v346h289v-346h180z" />
<glyph unicode="u" horiz-adv-x="1116" d="M557 -20q-210 0 -325 104t-115 283v596h288v-573q0 -79 42 -122t110 -43q69 0 111.5 43t42.5 122v573h288v-596q0 -179 -116 -283t-326 -104z" />
<glyph unicode="v" horiz-adv-x="1053" d="M742 963h307l-410 -963h-229l-406 963h306l215 -621z" />
<glyph unicode="w" horiz-adv-x="1585" d="M1279 963h298l-330 -964h-252l-203 616l-206 -616h-253l-325 964h296l179 -607l205 607h207l204 -608z" />
<glyph unicode="x" horiz-adv-x="1178" d="M11 0l405 481l-405 482h344l232 -292l235 292h345l-406 -483l406 -480h-346l-232 289l-231 -289h-347z" />
<glyph unicode="y" horiz-adv-x="1134" d="M836 963h301l-578 -1444h-295l191 481h-66l-395 963h316l262 -739z" />
<glyph unicode="z" horiz-adv-x="980" d="M929 963l-462 -739h459v-224h-884l460 739h-436v224h863z" />
<glyph unicode="{" horiz-adv-x="671" d="M492 -495q-137 0 -219.5 91t-82.5 228v473q0 83 -5 129t-25 78t-45 46.5t-79 36.5v183q43 17 65.5 29.5t43 32t28.5 49t12.5 71.5t4.5 109v473q0 137 82 228t220 91h124v-231h-67q-100 0 -100 -134v-431q0 -77 -8 -130.5t-30.5 -103.5t-68 -85t-115.5 -59 q70 -24 115.5 -59.5t68 -85.5t30.5 -103t8 -130v-434q0 -71 22.5 -101t77.5 -30h67v-231h-124z" />
<glyph unicode="|" horiz-adv-x="610" d="M215 -307v1843h179v-1843h-179z" />
<glyph unicode="}" horiz-adv-x="671" d="M179 -495h-124v231h67q55 0 77.5 30t22.5 101v434q0 77 8 130t30.5 103t68 85.5t115.5 59.5q-70 24 -115.5 59t-68 85t-30.5 103.5t-8 130.5v431q0 134 -100 134h-67v231h124q138 0 220 -91t82 -228v-473q0 -67 4.5 -109t12.5 -71.5t28.5 -49t43 -32t65.5 -29.5v-183 q-54 -22 -79 -36.5t-45 -46.5t-25 -78t-5 -129v-473q0 -137 -82.5 -228t-219.5 -91z" />
<glyph unicode="~" horiz-adv-x="1368" d="M890 314q-39 0 -76 9.5t-62 20t-55 32.5t-42 33t-37 36l-27 27q-50 50 -94 50q-64 0 -97 -56.5t-34 -136.5h-211q-9 181 85 292.5t263 111.5q88 0 146.5 -34.5t117.5 -111.5q17 -21 28 -33t32 -23.5t45 -11.5q57 0 94 52.5t31 138.5h209q17 -169 -74 -282.5t-242 -113.5z " />
<glyph unicode="&#xa1;" horiz-adv-x="672" d="M335 1044q68 0 116.5 -48t48.5 -115q0 -69 -48.5 -117t-116.5 -48q-67 0 -115.5 48t-48.5 117q0 67 48.5 115t115.5 48zM191 514h288v-1026h-288v1026z" />
<glyph unicode="&#xa2;" horiz-adv-x="1187" d="M711 1436v-259h-168v259h168zM596 357q76 0 135 39.5t87 106.5l240 -100q-45 -111 -136.5 -188t-210.5 -103v-114h-168v103q-200 19 -330 159.5t-130 337.5q0 211 147 355.5t366 144.5q156 0 281 -83.5t181 -220.5l-240 -101q-28 67 -87 107.5t-135 40.5q-103 0 -172 -70 t-69 -173q0 -102 69 -171.5t172 -69.5z" />
<glyph unicode="&#xa3;" horiz-adv-x="1430" d="M570 625v-373h725v-252h-1162v212l164 24v389h-164v232h164v163q0 234 147.5 385t376.5 151q168 0 311 -105t191 -266l-256 -109q-13 88 -85 148t-161 60q-116 0 -183.5 -71.5t-67.5 -192.5v-163h381v-232h-381z" />
<glyph unicode="&#xa4;" horiz-adv-x="1379" d="M689 253q-141 0 -262 75l-110 -111l-152 160l109 107q-76 116 -76 258q0 143 76 261l-106 105l151 160l110 -112q119 78 262 78q140 0 258 -77l108 109l155 -154l-108 -107q76 -118 76 -262q0 -143 -76 -261l106 -105l-151 -160l-110 111q-119 -75 -260 -75zM689 468 q115 0 194.5 82t79.5 195q0 112 -80.5 192t-193.5 80q-114 0 -194.5 -82t-80.5 -196q0 -115 81 -193t194 -78z" />
<glyph unicode="&#xa5;" horiz-adv-x="1526" d="M618 0v230h-344v184h344v146h-344v195h321l-516 781h341l347 -545l348 545h337l-517 -781h322v-195h-341v-146h341v-184h-341v-230h-298z" />
<glyph unicode="&#xa6;" horiz-adv-x="610" d="M215 799v737h179v-737h-179zM215 -307v737h179v-737h-179z" />
<glyph unicode="&#xa7;" horiz-adv-x="1227" d="M609 -619q-134 4 -251 65t-192 158l196 169q104 -138 255 -143q83 -2 139 38.5t58 120.5q2 48 -21.5 86.5t-64 66t-94 52t-112.5 49t-117.5 52t-111.5 67t-93 88t-62 120.5t-19 160q7 189 144 306q-133 116 -126 304q3 103 45 185.5t109.5 133t151.5 76t176 22.5 q134 -4 249.5 -65t191.5 -158l-196 -169q-107 138 -254 143q-84 2 -140 -38.5t-60 -120.5q-1 -48 22.5 -86.5t64 -66t94 -52t112.5 -49t118 -52t111.5 -67t92.5 -88t62.5 -120.5t19.5 -160q-6 -190 -143 -306q129 -121 124 -304q-4 -103 -45 -185.5t-108 -133.5t-150.5 -76 t-175.5 -22zM706 249q56 13 91 60t37 108q1 40 -14.5 74t-38.5 57.5t-64.5 48t-76 40.5t-88.5 39q-7 3 -11 4.5t-9.5 4t-10.5 4.5q-58 -13 -92.5 -59.5t-36.5 -108.5q-2 -49 16.5 -87t70 -72t82.5 -49.5t113 -49.5q21 -9 32 -14z" />
<glyph unicode="&#xa8;" horiz-adv-x="913" d="M264 1132q-59 0 -102 42.5t-43 102.5t43 102t102 42q60 0 103 -42t43 -102t-43 -102.5t-103 -42.5zM684 1132q-60 0 -102.5 42.5t-42.5 102.5t42.5 102t102.5 42t102 -42t42 -102t-42 -102.5t-102 -42.5z" />
<glyph unicode="&#xa9;" horiz-adv-x="1793" d="M897 -20q-160 0 -306 62.5t-252 168t-168.5 251.5t-62.5 306t62.5 306t168.5 251.5t252 168t306 62.5t306 -62.5t251.5 -168t168 -251.5t62.5 -306t-62.5 -306t-168 -251.5t-251.5 -168t-306 -62.5zM897 134q175 0 320.5 84t229.5 229.5t84 320.5t-84 320.5t-229.5 229.5 t-320.5 84t-320.5 -84t-229.5 -229.5t-84 -320.5t84 -320.5t229.5 -229.5t320.5 -84zM901 330q-181 0 -309.5 128t-128.5 310q0 183 128 310.5t310 127.5q97 0 186 -42t148 -114l-126 -101q-76 98 -208 98q-117 0 -195.5 -79.5t-78.5 -199.5q0 -119 78.5 -198t195.5 -79 q132 0 208 98l126 -102q-59 -72 -148.5 -114.5t-185.5 -42.5z" />
<glyph unicode="&#xaa;" horiz-adv-x="929" d="M605 1536h167v-614h-167v86q-80 -99 -209 -99q-127 0 -216 93.5t-89 226.5t89 226t216 93q129 0 209 -99v87zM430 1054q73 0 124 51.5t51 123.5t-51 122.5t-124 50.5q-72 0 -123 -50.5t-51 -122.5t51 -123.5t123 -51.5z" />
<glyph unicode="&#xab;" horiz-adv-x="1101" d="M352 104l-311 377l311 377h229l-311 -377l311 -377h-229zM815 104l-312 377l312 377h232l-311 -377l311 -377h-232z" />
<glyph unicode="&#xac;" horiz-adv-x="1624" d="M1215 201v524h-1112v197h1307v-721h-195z" />
<glyph unicode="&#xad;" horiz-adv-x="996" d="M140 368v221h717v-221h-717z" />
<glyph unicode="&#xae;" horiz-adv-x="1793" d="M897 1556q160 0 306 -62.5t251.5 -168t168 -251.5t62.5 -306t-62.5 -306t-168 -251.5t-251.5 -168t-306 -62.5t-306 62.5t-252 168t-168.5 251.5t-62.5 306t62.5 306t168.5 251.5t252 168t306 62.5zM897 134q175 0 320.5 84t229.5 229.5t84 320.5t-84 320.5t-229.5 229.5 t-320.5 84t-320.5 -84t-229.5 -229.5t-84 -320.5t84 -320.5t229.5 -229.5t320.5 -84zM1246 954q0 -79 -39.5 -141.5t-106.5 -94.5l171 -399h-183l-153 373h-149v-373h-170v899h366q111 0 187.5 -77t76.5 -187zM786 1067v-229h171q54 0 89 31t35 82t-35.5 83.5t-88.5 32.5 h-171z" />
<glyph unicode="&#xaf;" horiz-adv-x="913" d="M181 1211v171h635v-171h-635z" />
<glyph unicode="&#xb0;" horiz-adv-x="884" d="M442 1076q-124 0 -210.5 86.5t-86.5 209.5q0 124 86.5 210.5t210.5 86.5q123 0 209.5 -86.5t86.5 -210.5q0 -123 -86.5 -209.5t-209.5 -86.5zM442 1214q66 0 112 45.5t46 112.5t-46 113t-112 46q-67 0 -113 -46t-46 -113t46 -112.5t113 -45.5z" />
<glyph unicode="&#xb2;" horiz-adv-x="709" d="M362 795h296v-181h-635v64q136 136 224.5 236t129 164.5t54 102t13.5 73.5q0 69 -34 96.5t-82 24.5q-58 -2 -84.5 -39.5t-23.5 -88.5h-195q-4 133 85 218t228 85q131 0 211 -76.5t81 -201.5q0 -220 -268 -477z" />
<glyph unicode="&#xb3;" horiz-adv-x="684" d="M519 1127q57 -38 89.5 -96.5t32.5 -130.5q0 -125 -90 -211.5t-223 -86.5q-128 0 -216.5 77.5t-88.5 194.5l196 2q0 -39 32.5 -64.5t77.5 -25.5q52 0 86 35t34 87q0 50 -32 75t-85 25h-91l-1 175h79q41 0 68 27.5t27 67.5q0 39 -27 63t-66 24q-37 0 -60 -19.5t-23 -51.5 l-191 4q0 110 78 180t196 70q116 0 192.5 -71.5t76.5 -181.5q0 -103 -71 -168z" />
<glyph unicode="&#xb4;" horiz-adv-x="508" d="M114 1126l-105 115l309 334l138 -155z" />
<glyph unicode="&#xb5;" horiz-adv-x="1229" d="M800 963h286v-963h-286v107q-114 -125 -279 -125q-88 0 -168 39v-502h-210v1444h289v-556q0 -73 51 -124t124 -51q81 0 137 51t56 124v556z" />
<glyph unicode="&#xb6;" horiz-adv-x="1178" d="M479 -307v1157h-40q-171 0 -267.5 89.5t-96.5 254.5t96.5 253.5t267.5 88.5h186v-1843h-146zM816 -307v1843h147v-1843h-147z" />
<glyph unicode="&#xb7;" horiz-adv-x="594" d="M296 602q-55 0 -95 39.5t-40 95.5q0 55 40.5 96t94.5 41t95.5 -41.5t41.5 -95.5q0 -56 -41.5 -95.5t-95.5 -39.5z" />
<glyph unicode="&#xb8;" horiz-adv-x="589" d="M297 -532q-76 0 -146 44.5t-94 108.5l131 44q15 -25 47 -43t62 -18q36 0 61 25.5t25 62.5q0 57 -48.5 74t-119.5 -16l-106 62l102 192h139l-69 -126q100 18 170 -36.5t70 -149.5q0 -94 -65 -159t-159 -65z" />
<glyph unicode="&#xb9;" horiz-adv-x="455" d="M150 614v741h-130v181h320v-922h-190z" />
<glyph unicode="&#xba;" horiz-adv-x="854" d="M426 909q-142 0 -240.5 93t-98.5 227q0 133 98.5 226t240.5 93t242 -93t100 -226t-99.5 -226.5t-242.5 -93.5zM426 1054q73 0 124 51.5t51 123.5t-51 122.5t-124 50.5q-72 0 -123 -50.5t-51 -122.5t51 -123.5t123 -51.5z" />
<glyph unicode="&#xbb;" horiz-adv-x="1101" d="M54 104l311 377l-311 377h229l311 -377l-311 -377h-229zM517 104l311 377l-311 377h232l311 -377l-311 -377h-232z" />
<glyph unicode="&#xbc;" horiz-adv-x="1696" d="M150 614v741h-130v181h320v-922h-190zM1157 1536h204l-1071 -1536h-204zM1639 376v-181h-78v-195h-191v195h-436v120l377 607h250v-546h78zM1174 376h196v338z" />
<glyph unicode="&#xbd;" horiz-adv-x="1701" d="M150 614v741h-130v181h320v-922h-190zM1157 1536h204l-1071 -1536h-204zM1354 181h296v-181h-635v64q136 136 224.5 236t129 164.5t54 102t13.5 73.5q0 69 -34 96.5t-82 24.5q-58 -2 -84.5 -39.5t-23.5 -88.5h-195q-4 133 85 218t228 85q131 0 211 -76.5t81 -201.5 q0 -220 -268 -477z" />
<glyph unicode="&#xbe;" horiz-adv-x="1925" d="M641 900q0 -125 -90 -211.5t-223 -86.5q-128 0 -216.5 77.5t-88.5 194.5l196 2q0 -39 32.5 -64.5t77.5 -25.5q52 0 86 35t34 87q0 50 -32 75t-85 25h-91l-1 175h79q41 0 68 27.5t27 67.5q0 39 -27 63t-66 24q-37 0 -60 -19.5t-23 -51.5l-191 4q0 110 78 180t196 70 q116 0 192.5 -71.5t76.5 -181.5q0 -103 -71 -168q57 -38 89.5 -96.5t32.5 -130.5zM1386 1536h204l-1071 -1536h-204zM1868 376v-181h-78v-195h-191v195h-436v120l377 607h250v-546h78zM1403 376h196v338z" />
<glyph unicode="&#xbf;" horiz-adv-x="1117" d="M557 1046q68 0 116.5 -48t48.5 -115q0 -68 -48.5 -116.5t-116.5 -48.5t-116 48.5t-48 116.5q0 67 48 115t116 48zM694 546v-107q0 -78 -20.5 -136t-53 -91t-72 -57.5t-79.5 -44.5t-72.5 -43t-53 -61.5t-20.5 -91.5q0 -90 69 -146t173 -56q109 0 175.5 69t68.5 180h254 q-1 -214 -140.5 -351t-357.5 -137q-210 0 -352.5 127t-142.5 314q0 78 20 138t52.5 96.5t71 64.5t77.5 50t71.5 45t52.5 57.5t20 79.5v101h259z" />
<glyph unicode="&#xc0;" horiz-adv-x="1479" d="M853 1752l-99 -110l-345 290l139 155zM1141 0l-81 237h-642l-81 -237h-327l585 1536h287l588 -1536h-329zM505 489h469l-235 685z" />
<glyph unicode="&#xc1;" horiz-adv-x="1479" d="M1066 1932l-342 -294l-105 115l309 334zM1141 0l-81 237h-642l-81 -237h-327l585 1536h287l588 -1536h-329zM505 489h469l-235 685z" />
<glyph unicode="&#xc2;" horiz-adv-x="1479" d="M740 1842l-216 -210l-120 76l239 299h191l242 -299l-121 -76zM1141 0l-81 237h-642l-81 -237h-327l585 1536h287l588 -1536h-329zM505 489h469l-235 685z" />
<glyph unicode="&#xc3;" horiz-adv-x="1479" d="M611 1790q-39 0 -59 -41.5t-20 -107.5h-160q0 135 62.5 220.5t169.5 85.5q122 0 201 -118q10 -14 16.5 -21.5t19.5 -14.5t29 -7q76 0 76 149h161q0 -134 -61.5 -220t-172.5 -86q-121 0 -200 118q-28 43 -62 43zM1141 0l-81 237h-642l-81 -237h-327l585 1536h287 l588 -1536h-329zM505 489h469l-235 685z" />
<glyph unicode="&#xc4;" horiz-adv-x="1479" d="M530 1644q-59 0 -102 42t-43 102t43 102t102 42q60 0 103 -42t43 -102t-43 -102t-103 -42zM950 1644q-60 0 -102.5 42t-42.5 102t42.5 102t102.5 42t102 -41.5t42 -102.5q0 -60 -42 -102t-102 -42zM1141 0l-81 237h-642l-81 -237h-327l585 1536h287l588 -1536h-329z M505 489h469l-235 685z" />
<glyph unicode="&#xc5;" horiz-adv-x="1479" d="M740 1662q-100 0 -171.5 71t-71.5 171q0 98 71.5 168.5t171.5 70.5q98 0 168.5 -70.5t70.5 -168.5q0 -100 -70.5 -171t-168.5 -71zM740 2023q-49 0 -82.5 -36t-33.5 -83q0 -53 33 -86t83 -33t83.5 33.5t33.5 85.5q0 47 -34.5 83t-82.5 36zM1141 0l-81 237h-642l-81 -237 h-327l585 1536h287l588 -1536h-329zM505 489h469l-235 685z" />
<glyph unicode="&#xc6;" horiz-adv-x="1944" d="M1842 1270h-629v-370h543v-263h-543v-371h629v-266h-908v331h-450l-126 -331h-334l616 1536h1202v-266zM574 570h360v713h-89z" />
<glyph unicode="&#xc7;" horiz-adv-x="1505" d="M864 262q112 0 210.5 46.5t166.5 129.5l223 -179q-100 -119 -245 -193t-305 -84l-57 -104q100 18 170 -36.5t70 -149.5q0 -94 -65 -159t-159 -65q-76 0 -146 44.5t-94 108.5l131 44q15 -25 47 -43t62 -18q36 0 61 25.5t25 62.5q0 57 -48.5 74t-119.5 -16l-106 62l92 173 q-196 21 -356.5 129.5t-253 280.5t-92.5 373q0 161 62.5 307t168 251.5t251.5 167.5t307 62q173 0 332.5 -75t267.5 -204l-223 -179q-68 83 -166.5 129.5t-210.5 46.5q-212 0 -356 -145t-144 -361t144 -361t356 -145z" />
<glyph unicode="&#xc8;" horiz-adv-x="1211" d="M757 1752l-99 -110l-345 290l139 155zM1109 1270h-632v-369h546v-266h-546v-369h632v-266h-930v1536h930v-266z" />
<glyph unicode="&#xc9;" horiz-adv-x="1211" d="M970 1932l-342 -294l-105 115l309 334zM1109 1270h-632v-369h546v-266h-546v-369h632v-266h-930v1536h930v-266z" />
<glyph unicode="&#xca;" horiz-adv-x="1211" d="M644 1842l-216 -210l-120 76l239 299h191l242 -299l-121 -76zM1109 1270h-632v-369h546v-266h-546v-369h632v-266h-930v1536h930v-266z" />
<glyph unicode="&#xcb;" horiz-adv-x="1211" d="M434 1644q-59 0 -102 42t-43 102t43 102t102 42q60 0 103 -42t43 -102t-43 -102t-103 -42zM854 1644q-60 0 -102.5 42t-42.5 102t42.5 102t102.5 42t102 -41.5t42 -102.5q0 -60 -42 -102t-102 -42zM1109 1270h-632v-369h546v-266h-546v-369h632v-266h-930v1536h930v-266z " />
<glyph unicode="&#xcc;" horiz-adv-x="656" d="M340 1642l-345 290l139 155l305 -335zM179 0v1536h298v-1536h-298z" />
<glyph unicode="&#xcd;" horiz-adv-x="656" d="M310 1638l-105 115l309 334l138 -155zM179 0v1536h298v-1536h-298z" />
<glyph unicode="&#xce;" horiz-adv-x="656" d="M110 1632l-120 76l239 299h191l242 -299l-121 -76l-215 210zM179 0v1536h298v-1536h-298z" />
<glyph unicode="&#xcf;" horiz-adv-x="656" d="M116 1644q-59 0 -102 42t-43 102t43 102t102 42q60 0 103 -42t43 -102t-43 -102t-103 -42zM536 1644q-60 0 -102.5 42t-42.5 102t42.5 102t102.5 42t102 -41.5t42 -102.5q0 -60 -42 -102t-102 -42zM179 0v1536h298v-1536h-298z" />
<glyph unicode="&#xd0;" horiz-adv-x="1521" d="M664 1536q178 0 326.5 -60.5t247 -164.5t153 -244t54.5 -299t-54.5 -299t-153 -244t-247 -164.5t-326.5 -60.5h-485v675h-148v178h148v683h485zM651 269q222 0 353 140.5t131 358.5t-131 358.5t-353 140.5h-175v-414h243v-178h-243v-406h175z" />
<glyph unicode="&#xd1;" horiz-adv-x="1645" d="M684 1790q-39 0 -59 -41.5t-20 -107.5h-160q0 135 62.5 220.5t169.5 85.5q122 0 201 -118q10 -14 16.5 -21.5t19.5 -14.5t29 -7q76 0 76 149h161q0 -134 -61.5 -220t-172.5 -86q-121 0 -200 118q-28 43 -62 43zM1181 1536h298v-1536h-226l-789 1017v-1017h-298v1536h224 l791 -1014v1014z" />
<glyph unicode="&#xd2;" horiz-adv-x="1726" d="M877 1642l-345 290l139 155l305 -335zM863 -20q-214 0 -395.5 105.5t-287 287t-105.5 395.5t105.5 395.5t287 287t395.5 105.5q161 0 307 -62.5t251.5 -167.5t168 -251t62.5 -307t-62.5 -307t-168 -251t-251.5 -167.5t-307 -62.5zM863 268q211 0 355.5 144t144.5 356 t-144.5 356t-355.5 144t-355.5 -144.5t-144.5 -355.5t144.5 -355.5t355.5 -144.5z" />
<glyph unicode="&#xd3;" horiz-adv-x="1726" d="M847 1638l-105 115l309 334l138 -155zM863 -20q-214 0 -395.5 105.5t-287 287t-105.5 395.5t105.5 395.5t287 287t395.5 105.5q161 0 307 -62.5t251.5 -167.5t168 -251t62.5 -307t-62.5 -307t-168 -251t-251.5 -167.5t-307 -62.5zM863 268q211 0 355.5 144t144.5 356 t-144.5 356t-355.5 144t-355.5 -144.5t-144.5 -355.5t144.5 -355.5t355.5 -144.5z" />
<glyph unicode="&#xd4;" horiz-adv-x="1726" d="M647 1632l-120 76l239 299h191l242 -299l-121 -76l-215 210zM863 -20q-214 0 -395.5 105.5t-287 287t-105.5 395.5t105.5 395.5t287 287t395.5 105.5q161 0 307 -62.5t251.5 -167.5t168 -251t62.5 -307t-62.5 -307t-168 -251t-251.5 -167.5t-307 -62.5zM863 268 q211 0 355.5 144t144.5 356t-144.5 356t-355.5 144t-355.5 -144.5t-144.5 -355.5t144.5 -355.5t355.5 -144.5z" />
<glyph unicode="&#xd5;" horiz-adv-x="1726" d="M996 1629q-121 0 -200 118q-28 43 -62 43q-39 0 -59 -41.5t-20 -107.5h-160q0 135 62.5 220.5t169.5 85.5q122 0 201 -118q10 -14 16.5 -21.5t19.5 -14.5t29 -7q76 0 76 149h161q0 -134 -61.5 -220t-172.5 -86zM863 -20q-214 0 -395.5 105.5t-287 287t-105.5 395.5 t105.5 395.5t287 287t395.5 105.5q161 0 307 -62.5t251.5 -167.5t168 -251t62.5 -307t-62.5 -307t-168 -251t-251.5 -167.5t-307 -62.5zM863 268q211 0 355.5 144t144.5 356t-144.5 356t-355.5 144t-355.5 -144.5t-144.5 -355.5t144.5 -355.5t355.5 -144.5z" />
<glyph unicode="&#xd6;" horiz-adv-x="1726" d="M653 1644q-59 0 -102 42t-43 102t43 102t102 42q60 0 103 -42t43 -102t-43 -102t-103 -42zM1073 1644q-60 0 -102.5 42t-42.5 102t42.5 102t102.5 42t102 -41.5t42 -102.5q0 -60 -42 -102t-102 -42zM863 -20q-214 0 -395.5 105.5t-287 287t-105.5 395.5t105.5 395.5 t287 287t395.5 105.5q161 0 307 -62.5t251.5 -167.5t168 -251t62.5 -307t-62.5 -307t-168 -251t-251.5 -167.5t-307 -62.5zM863 268q211 0 355.5 144t144.5 356t-144.5 356t-355.5 144t-355.5 -144.5t-144.5 -355.5t144.5 -355.5t355.5 -144.5z" />
<glyph unicode="&#xd7;" horiz-adv-x="1069" d="M268 267l-159 160l265 266l-265 265l159 161l267 -265l265 265l160 -161l-267 -265l267 -266l-160 -160l-265 265z" />
<glyph unicode="&#xd8;" horiz-adv-x="1726" d="M1375 1368q130 -111 203.5 -267t73.5 -333q0 -161 -62.5 -307t-168 -251t-251.5 -167.5t-307 -62.5q-208 0 -385 100l-128 -183l-133 79l134 192q-129 111 -202.5 267t-73.5 333q0 214 105.5 395.5t287 287t395.5 105.5q208 0 386 -100l126 181l132 -80zM363 768 q0 -217 153 -364l568 815q-101 49 -221 49q-211 0 -355.5 -144.5t-144.5 -355.5zM863 268q211 0 355.5 144t144.5 356q0 107 -40 200.5t-112 163.5l-568 -815q101 -49 220 -49z" />
<glyph unicode="&#xd9;" horiz-adv-x="1545" d="M786 1642l-345 290l139 155l305 -335zM772 -20q-176 0 -318.5 68t-224 192t-81.5 280v1016h298v-962q0 -145 92.5 -235.5t233.5 -90.5t234 90.5t93 235.5v962h299v-1016q0 -156 -82 -280t-224.5 -192t-319.5 -68z" />
<glyph unicode="&#xda;" horiz-adv-x="1545" d="M756 1638l-105 115l309 334l138 -155zM772 -20q-176 0 -318.5 68t-224 192t-81.5 280v1016h298v-962q0 -145 92.5 -235.5t233.5 -90.5t234 90.5t93 235.5v962h299v-1016q0 -156 -82 -280t-224.5 -192t-319.5 -68z" />
<glyph unicode="&#xdb;" horiz-adv-x="1545" d="M556 1632l-120 76l239 299h191l242 -299l-121 -76l-215 210zM772 -20q-176 0 -318.5 68t-224 192t-81.5 280v1016h298v-962q0 -145 92.5 -235.5t233.5 -90.5t234 90.5t93 235.5v962h299v-1016q0 -156 -82 -280t-224.5 -192t-319.5 -68z" />
<glyph unicode="&#xdc;" horiz-adv-x="1545" d="M562 1644q-59 0 -102 42t-43 102t43 102t102 42q60 0 103 -42t43 -102t-43 -102t-103 -42zM982 1644q-60 0 -102.5 42t-42.5 102t42.5 102t102.5 42t102 -41.5t42 -102.5q0 -60 -42 -102t-102 -42zM772 -20q-176 0 -318.5 68t-224 192t-81.5 280v1016h298v-962 q0 -145 92.5 -235.5t233.5 -90.5t234 90.5t93 235.5v962h299v-1016q0 -156 -82 -280t-224.5 -192t-319.5 -68z" />
<glyph unicode="&#xdd;" horiz-adv-x="1400" d="M1028 1932l-342 -294l-105 115l309 334zM1386 1536l-535 -810v-726h-298v720l-539 816h341l346 -546l348 546h337z" />
<glyph unicode="&#xde;" horiz-adv-x="1306" d="M803 1314q188 0 319 -133t131 -325q0 -184 -131 -312.5t-319 -128.5h-336v-415h-288v1534h288v-220h336zM790 677q83 0 138 53.5t55 134.5q0 82 -55 135t-138 53h-323v-376h323z" />
<glyph unicode="&#xdf;" horiz-adv-x="1334" d="M1064 802q98 -64 154 -163.5t56 -218.5q0 -184 -120.5 -306.5t-297.5 -113.5h-185v261h130q75 2 129.5 50t54.5 127q0 90 -67.5 154t-164.5 64h-83v236h33q87 0 149.5 60.5t62.5 143.5q0 82 -64.5 134.5t-164.5 52.5q-114 0 -184 -73t-70 -211v-999h-289v1012 q0 158 71.5 278.5t193.5 183t275 62.5q219 0 361 -123.5t142 -311.5q0 -174 -122 -299z" />
<glyph unicode="&#xe0;" horiz-adv-x="1258" d="M702 1182l-99 -110l-345 290l139 155zM827 963h289v-963h-264l-10 132q-114 -152 -318 -152q-124 0 -229.5 64t-169 180.5t-63.5 259.5q0 142 63.5 258t169 180t229.5 64q191 0 303 -136v113zM598 230q103 0 175.5 74t72.5 180t-72 179t-176 73t-175.5 -73t-71.5 -179 t72 -180t175 -74z" />
<glyph unicode="&#xe1;" horiz-adv-x="1258" d="M915 1362l-342 -294l-105 115l309 334zM827 963h289v-963h-264l-10 132q-114 -152 -318 -152q-124 0 -229.5 64t-169 180.5t-63.5 259.5q0 142 63.5 258t169 180t229.5 64q191 0 303 -136v113zM598 230q103 0 175.5 74t72.5 180t-72 179t-176 73t-175.5 -73t-71.5 -179 t72 -180t175 -74z" />
<glyph unicode="&#xe2;" horiz-adv-x="1258" d="M589 1272l-216 -210l-120 76l239 299h191l242 -299l-121 -76zM827 963h289v-963h-264l-10 132q-114 -152 -318 -152q-124 0 -229.5 64t-169 180.5t-63.5 259.5q0 142 63.5 258t169 180t229.5 64q191 0 303 -136v113zM598 230q103 0 175.5 74t72.5 180t-72 179t-176 73 t-175.5 -73t-71.5 -179t72 -180t175 -74z" />
<glyph unicode="&#xe3;" horiz-adv-x="1258" d="M460 1220q-39 0 -59 -41.5t-20 -107.5h-160q0 135 62.5 220.5t169.5 85.5q122 0 201 -118q10 -14 16.5 -21.5t19.5 -14.5t29 -7q76 0 76 149h161q0 -134 -61.5 -220t-172.5 -86q-121 0 -200 118q-28 43 -62 43zM827 963h289v-963h-264l-10 132q-114 -152 -318 -152 q-124 0 -229.5 64t-169 180.5t-63.5 259.5q0 142 63.5 258t169 180t229.5 64q191 0 303 -136v113zM598 230q103 0 175.5 74t72.5 180t-72 179t-176 73t-175.5 -73t-71.5 -179t72 -180t175 -74z" />
<glyph unicode="&#xe4;" horiz-adv-x="1258" d="M379 1135q-59 0 -102 42.5t-43 102.5t43 102t102 42q60 0 103 -42t43 -102t-43 -102.5t-103 -42.5zM799 1135q-60 0 -102.5 42.5t-42.5 102.5t42.5 102t102.5 42t102 -42t42 -102t-42 -102.5t-102 -42.5zM827 963h289v-963h-264l-10 132q-114 -152 -318 -152 q-124 0 -229.5 64t-169 180.5t-63.5 259.5q0 142 63.5 258t169 180t229.5 64q191 0 303 -136v113zM598 230q103 0 175.5 74t72.5 180t-72 179t-176 73t-175.5 -73t-71.5 -179t72 -180t175 -74z" />
<glyph unicode="&#xe5;" horiz-adv-x="1258" d="M597 1102q-100 0 -171.5 71.5t-71.5 170.5t71.5 169.5t171.5 70.5q99 0 169 -70.5t70 -169.5t-70 -170.5t-169 -71.5zM597 1464q-49 0 -82 -36t-33 -84q0 -52 32.5 -85t82.5 -33t83.5 33t33.5 85q0 48 -34.5 84t-82.5 36zM827 963h289v-963h-264l-10 132 q-114 -152 -318 -152q-124 0 -229.5 64t-169 180.5t-63.5 259.5q0 142 63.5 258t169 180t229.5 64q191 0 303 -136v113zM598 230q103 0 175.5 74t72.5 180t-72 179t-176 73t-175.5 -73t-71.5 -179t72 -180t175 -74z" />
<glyph unicode="&#xe6;" horiz-adv-x="1742" d="M795 400h-140q12 -57 41 -98q20 28 33 58l158 -136l-12 -16h9q71 0 129.5 32.5t92.5 94.5l227 -94q-57 -121 -174 -190t-274 -69q-128 0 -236 47q-110 -49 -233 -49q-169 0 -263 80t-94 216q0 231 309 285q18 121 89 218q-89 -22 -121 -107l-232 72q97 242 422 242 q104 0 187 -27q77 23 161 23q213 0 353.5 -135t140.5 -355v-64h-420zM1074 611q-34 111 -125 141q26 -70 26 -141h99zM686 623q0 12 -2 32q-10 -18 -20 -44h22v12zM355 288q0 -40 25 -65t70 -32q-52 75 -72 159q-23 -24 -23 -62z" />
<glyph unicode="&#xe7;" horiz-adv-x="1074" d="M570 240q76 0 135 39.5t87 106.5l240 -100q-52 -128 -163 -209t-253 -93l-58 -106q100 18 170 -36.5t70 -149.5q0 -94 -65 -159t-159 -65q-76 0 -146 44.5t-94 108.5l131 44q15 -25 47 -43t62 -18q36 0 61 25.5t25 62.5q0 57 -49 74t-119 -16l-106 62l94 177 q-186 30 -304.5 167.5t-118.5 324.5q0 211 147 355.5t366 144.5q156 0 281 -83.5t181 -220.5l-240 -101q-28 67 -87 107.5t-135 40.5q-103 0 -172 -70t-69 -173q0 -102 69 -171.5t172 -69.5z" />
<glyph unicode="&#xe8;" horiz-adv-x="1121" d="M695 1183l-99 -110l-345 290l139 155zM1065 492v-64h-718q15 -105 77.5 -162.5t156.5 -57.5q71 0 129.5 32.5t92.5 94.5l227 -94q-57 -121 -174 -190t-274 -69q-233 0 -378 142.5t-145 355.5q0 104 38 196.5t105 160t163 106.5t206 39q213 0 353.5 -135t140.5 -355z M574 762q-79 0 -134 -39.5t-79 -111.5h410q-46 151 -197 151z" />
<glyph unicode="&#xe9;" horiz-adv-x="1121" d="M908 1363l-342 -294l-105 115l309 334zM1065 492v-64h-718q15 -105 77.5 -162.5t156.5 -57.5q71 0 129.5 32.5t92.5 94.5l227 -94q-57 -121 -174 -190t-274 -69q-233 0 -378 142.5t-145 355.5q0 104 38 196.5t105 160t163 106.5t206 39q213 0 353.5 -135t140.5 -355z M574 762q-79 0 -134 -39.5t-79 -111.5h410q-46 151 -197 151z" />
<glyph unicode="&#xea;" horiz-adv-x="1121" d="M582 1273l-216 -210l-120 76l239 299h191l242 -299l-121 -76zM1065 492v-64h-718q15 -105 77.5 -162.5t156.5 -57.5q71 0 129.5 32.5t92.5 94.5l227 -94q-57 -121 -174 -190t-274 -69q-233 0 -378 142.5t-145 355.5q0 104 38 196.5t105 160t163 106.5t206 39 q213 0 353.5 -135t140.5 -355zM574 762q-79 0 -134 -39.5t-79 -111.5h410q-46 151 -197 151z" />
<glyph unicode="&#xeb;" horiz-adv-x="1121" d="M372 1136q-59 0 -102 42.5t-43 102.5t43 102t102 42q60 0 103 -42t43 -102t-43 -102.5t-103 -42.5zM792 1136q-60 0 -102.5 42.5t-42.5 102.5t42.5 102t102.5 42t102 -42t42 -102t-42 -102.5t-102 -42.5zM1065 492v-64h-718q15 -105 77.5 -162.5t156.5 -57.5 q71 0 129.5 32.5t92.5 94.5l227 -94q-57 -121 -174 -190t-274 -69q-233 0 -378 142.5t-145 355.5q0 104 38 196.5t105 160t163 106.5t206 39q213 0 353.5 -135t140.5 -355zM574 762q-79 0 -134 -39.5t-79 -111.5h410q-46 151 -197 151z" />
<glyph unicode="&#xec;" horiz-adv-x="575" d="M302 1069l-345 290l139 155l305 -335zM143 0v963h289v-963h-289z" />
<glyph unicode="&#xed;" horiz-adv-x="575" d="M272 1065l-105 115l309 334l138 -155zM143 0v963h289v-963h-289z" />
<glyph unicode="&#xee;" horiz-adv-x="575" d="M72 1059l-120 76l239 299h191l242 -299l-121 -76l-215 210zM143 0v963h289v-963h-289z" />
<glyph unicode="&#xef;" horiz-adv-x="575" d="M78 1132q-59 0 -102 42.5t-43 102.5t43 102t102 42q60 0 103 -42t43 -102t-43 -102.5t-103 -42.5zM498 1132q-60 0 -102.5 42.5t-42.5 102.5t42.5 102t102.5 42t102 -42t42 -102t-42 -102.5t-102 -42.5zM143 0v963h289v-963h-289z" />
<glyph unicode="&#xf0;" horiz-adv-x="1178" d="M1096 486h-2v-12q0 -213 -148.5 -352.5t-370.5 -139.5q-221 0 -370 144.5t-149 354.5t149 355t370 145q85 0 160 -24q-71 136 -189 231l-93 -119l-114 84l89 113q-104 56 -226 90l74 162q135 -22 275 -98l94 119l109 -84l-85 -109q90 -66 164.5 -149.5t135 -189.5 t94 -239.5t33.5 -281.5zM575 236q102 0 172.5 71t70.5 174t-70.5 174.5t-172.5 71.5q-103 0 -174.5 -71.5t-71.5 -174.5t71.5 -174t174.5 -71z" />
<glyph unicode="&#xf1;" horiz-adv-x="1163" d="M470 1217q-39 0 -59 -41.5t-20 -107.5h-160q0 135 62.5 220.5t169.5 85.5q122 0 201 -118q10 -14 16.5 -21.5t19.5 -14.5t29 -7q76 0 76 149h161q0 -134 -61.5 -220t-172.5 -86q-121 0 -200 118q-28 43 -62 43zM701 981q144 0 244 -105t100 -259v-617h-288v579 q0 70 -45 112.5t-114 42.5q-72 0 -118.5 -46.5t-47.5 -118.5v-569h-289v963h289v-98q104 116 269 116z" />
<glyph unicode="&#xf2;" horiz-adv-x="1140" d="M584 1067l-345 290l139 155l305 -335zM570 -18q-219 0 -366 144.5t-147 354.5q0 138 66.5 252.5t184.5 181t262 66.5q218 0 365.5 -145t147.5 -355t-147.5 -354.5t-365.5 -144.5zM569 235q101 0 169.5 70t68.5 176q0 107 -68.5 177.5t-169.5 70.5t-169.5 -70t-68.5 -178 t68.5 -177t169.5 -69z" />
<glyph unicode="&#xf3;" horiz-adv-x="1140" d="M554 1063l-105 115l309 334l138 -155zM570 -18q-219 0 -366 144.5t-147 354.5q0 138 66.5 252.5t184.5 181t262 66.5q218 0 365.5 -145t147.5 -355t-147.5 -354.5t-365.5 -144.5zM569 235q101 0 169.5 70t68.5 176q0 107 -68.5 177.5t-169.5 70.5t-169.5 -70t-68.5 -178 t68.5 -177t169.5 -69z" />
<glyph unicode="&#xf4;" horiz-adv-x="1140" d="M354 1057l-120 76l239 299h191l242 -299l-121 -76l-215 210zM570 -18q-219 0 -366 144.5t-147 354.5q0 138 66.5 252.5t184.5 181t262 66.5q218 0 365.5 -145t147.5 -355t-147.5 -354.5t-365.5 -144.5zM569 235q101 0 169.5 70t68.5 176q0 107 -68.5 177.5t-169.5 70.5 t-169.5 -70t-68.5 -178t68.5 -177t169.5 -69z" />
<glyph unicode="&#xf5;" horiz-adv-x="1140" d="M703 1054q-121 0 -200 118q-28 43 -62 43q-39 0 -59 -41.5t-20 -107.5h-160q0 135 62.5 220.5t169.5 85.5q122 0 201 -118q10 -14 16.5 -21.5t19.5 -14.5t29 -7q76 0 76 149h161q0 -134 -61.5 -220t-172.5 -86zM570 -18q-219 0 -366 144.5t-147 354.5q0 138 66.5 252.5 t184.5 181t262 66.5q218 0 365.5 -145t147.5 -355t-147.5 -354.5t-365.5 -144.5zM569 235q101 0 169.5 70t68.5 176q0 107 -68.5 177.5t-169.5 70.5t-169.5 -70t-68.5 -178t68.5 -177t169.5 -69z" />
<glyph unicode="&#xf6;" horiz-adv-x="1140" d="M360 1130q-59 0 -102 42.5t-43 102.5t43 102t102 42q60 0 103 -42t43 -102t-43 -102.5t-103 -42.5zM780 1130q-60 0 -102.5 42.5t-42.5 102.5t42.5 102t102.5 42t102 -42t42 -102t-42 -102.5t-102 -42.5zM570 -18q-219 0 -366 144.5t-147 354.5q0 138 66.5 252.5 t184.5 181t262 66.5q218 0 365.5 -145t147.5 -355t-147.5 -354.5t-365.5 -144.5zM569 235q101 0 169.5 70t68.5 176q0 107 -68.5 177.5t-169.5 70.5t-169.5 -70t-68.5 -178t68.5 -177t169.5 -69z" />
<glyph unicode="&#xf7;" horiz-adv-x="1062" d="M523 922q-61 0 -106 44t-45 108q0 61 45.5 107t105.5 46q61 0 107.5 -46t46.5 -107q0 -64 -46 -108t-108 -44zM97 585v226h867v-226h-867zM523 169q-61 0 -106 44.5t-45 108.5q0 61 45.5 106.5t105.5 45.5q62 0 108 -45.5t46 -106.5q0 -64 -46 -108.5t-108 -44.5z" />
<glyph unicode="&#xf8;" horiz-adv-x="1140" d="M899 869q87 -69 135.5 -170t48.5 -218q0 -210 -147.5 -354.5t-365.5 -144.5q-136 0 -248 59l-74 -106l-84 49l77 110q-87 69 -135.5 169.5t-48.5 217.5q0 138 66.5 252.5t184.5 181t262 66.5q133 0 248 -60l74 106l82 -50zM331 481q0 -101 61 -170l277 397 q-48 21 -100 21q-101 0 -169.5 -70t-68.5 -178zM569 235q101 0 169.5 70t68.5 176q0 100 -61 169l-275 -395q46 -20 98 -20z" />
<glyph unicode="&#xf9;" horiz-adv-x="1116" d="M572 1069l-345 290l139 155l305 -335zM557 -20q-210 0 -325 104t-115 283v596h288v-573q0 -79 42 -122t110 -43q69 0 111.5 43t42.5 122v573h288v-596q0 -179 -116 -283t-326 -104z" />
<glyph unicode="&#xfa;" horiz-adv-x="1116" d="M542 1065l-105 115l309 334l138 -155zM557 -20q-210 0 -325 104t-115 283v596h288v-573q0 -79 42 -122t110 -43q69 0 111.5 43t42.5 122v573h288v-596q0 -179 -116 -283t-326 -104z" />
<glyph unicode="&#xfb;" horiz-adv-x="1116" d="M342 1059l-120 76l239 299h191l242 -299l-121 -76l-215 210zM557 -20q-210 0 -325 104t-115 283v596h288v-573q0 -79 42 -122t110 -43q69 0 111.5 43t42.5 122v573h288v-596q0 -179 -116 -283t-326 -104z" />
<glyph unicode="&#xfc;" horiz-adv-x="1116" d="M348 1132q-59 0 -102 42.5t-43 102.5t43 102t102 42q60 0 103 -42t43 -102t-43 -102.5t-103 -42.5zM768 1132q-60 0 -102.5 42.5t-42.5 102.5t42.5 102t102.5 42t102 -42t42 -102t-42 -102.5t-102 -42.5zM557 -20q-210 0 -325 104t-115 283v596h288v-573q0 -79 42 -122 t110 -43q69 0 111.5 43t42.5 122v573h288v-596q0 -179 -116 -283t-326 -104z" />
<glyph unicode="&#xfd;" horiz-adv-x="1134" d="M910 1359l-342 -294l-105 115l309 334zM836 963h301l-578 -1444h-295l191 481h-66l-395 963h316l262 -739z" />
<glyph unicode="&#xfe;" horiz-adv-x="1248" d="M717 981q129 0 237.5 -66.5t172 -181.5t63.5 -252t-63.5 -252t-172 -181t-237.5 -66q-170 0 -284 108v-573l-289 2v2017h289v-663q114 108 284 108zM660 238q101 0 171.5 70.5t70.5 172.5t-70.5 173t-171.5 71t-172.5 -71t-71.5 -173t71 -172.5t173 -70.5z" />
<glyph unicode="&#xff;" horiz-adv-x="1134" d="M374 1132q-59 0 -102 42.5t-43 102.5t43 102t102 42q60 0 103 -42t43 -102t-43 -102.5t-103 -42.5zM794 1132q-60 0 -102.5 42.5t-42.5 102.5t42.5 102t102.5 42t102 -42t42 -102t-42 -102.5t-102 -42.5zM836 963h301l-578 -1444h-295l191 481h-66l-395 963h316l262 -739 z" />
<glyph unicode="&#x100;" horiz-adv-x="1479" d="M1058 1894v-171h-635v171h635zM1141 0l-81 237h-642l-81 -237h-327l585 1536h287l588 -1536h-329zM505 489h469l-235 685z" />
<glyph unicode="&#x101;" horiz-adv-x="1258" d="M907 1324v-171h-635v171h635zM827 963h289v-963h-264l-10 132q-114 -152 -318 -152q-124 0 -229.5 64t-169 180.5t-63.5 259.5q0 142 63.5 258t169 180t229.5 64q191 0 303 -136v113zM598 230q103 0 175.5 74t72.5 180t-72 179t-176 73t-175.5 -73t-71.5 -179t72 -180 t175 -74z" />
<glyph unicode="&#x102;" horiz-adv-x="1479" d="M740 1695q-166 0 -265 90t-99 260h177q0 -76 50 -130.5t137 -54.5t137.5 54.5t50.5 130.5h177q0 -170 -99 -260t-266 -90zM1141 0l-81 237h-642l-81 -237h-327l585 1536h287l588 -1536h-329zM505 489h469l-235 685z" />
<glyph unicode="&#x103;" horiz-adv-x="1258" d="M589 1125q-166 0 -265 90t-99 260h177q0 -76 50 -130.5t137 -54.5t137.5 54.5t50.5 130.5h177q0 -170 -99 -260t-266 -90zM827 963h289v-963h-264l-10 132q-114 -152 -318 -152q-124 0 -229.5 64t-169 180.5t-63.5 259.5q0 142 63.5 258t169 180t229.5 64q191 0 303 -136 v113zM598 230q103 0 175.5 74t72.5 180t-72 179t-176 73t-175.5 -73t-71.5 -179t72 -180t175 -74z" />
<glyph unicode="&#x104;" horiz-adv-x="1479" d="M1489 -268l101 -141q-61 -63 -144 -94.5t-168 -25.5q-118 8 -185.5 75.5t-67.5 169.5q0 167 206 284h-90l-81 237h-642l-81 -237h-327l585 1536h287l588 -1536q-263 -115 -263 -249q0 -51 30 -77.5t81 -26.5q91 0 171 85zM505 489h469l-235 685z" />
<glyph unicode="&#x105;" horiz-adv-x="1258" d="M1135 -268l101 -141q-61 -63 -144 -94.5t-168 -25.5q-118 8 -185.5 75.5t-67.5 169.5q0 167 206 284h-25l-10 132q-114 -152 -318 -152q-124 0 -229.5 64t-169 180.5t-63.5 259.5q0 142 63.5 258t169 180t229.5 64q191 0 303 -136v113h289v-963q-263 -115 -263 -249 q0 -51 30 -77.5t81 -26.5q91 0 171 85zM598 230q103 0 175.5 74t72.5 180t-72 179t-176 73t-175.5 -73t-71.5 -179t72 -180t175 -74z" />
<glyph unicode="&#x106;" horiz-adv-x="1505" d="M864 1638l-105 115l309 334l138 -155zM864 -20q-161 0 -307 62t-251.5 167.5t-168 251.5t-62.5 307t62.5 307t168 251.5t251.5 167.5t307 62q173 0 332.5 -75t267.5 -204l-223 -179q-68 83 -166.5 129.5t-210.5 46.5q-212 0 -356 -145t-144 -361t144 -361t356 -145 q112 0 210.5 46.5t166.5 129.5l223 -179q-108 -129 -267.5 -204t-332.5 -75z" />
<glyph unicode="&#x107;" horiz-adv-x="1074" d="M538 1065l-105 115l309 334l138 -155zM570 -18q-219 0 -366 144.5t-147 354.5q0 211 147 355.5t366 144.5q156 0 281 -83.5t181 -220.5l-240 -101q-28 67 -87 107.5t-135 40.5q-103 0 -172 -70t-69 -173q0 -102 69 -171.5t172 -69.5q76 0 135 39.5t87 106.5l240 -100 q-56 -138 -180.5 -221t-281.5 -83z" />
<glyph unicode="&#x10a;" horiz-adv-x="1505" d="M879 1685q-58 0 -101 43t-43 101q0 60 43 102.5t101 42.5q60 0 103 -42.5t43 -102.5q0 -59 -43 -101.5t-103 -42.5zM864 -20q-161 0 -307 62t-251.5 167.5t-168 251.5t-62.5 307t62.5 307t168 251.5t251.5 167.5t307 62q173 0 332.5 -75t267.5 -204l-223 -179 q-68 83 -166.5 129.5t-210.5 46.5q-212 0 -356 -145t-144 -361t144 -361t356 -145q112 0 210.5 46.5t166.5 129.5l223 -179q-108 -129 -267.5 -204t-332.5 -75z" />
<glyph unicode="&#x10b;" horiz-adv-x="1074" d="M553 1112q-58 0 -101 43t-43 101q0 60 43 102.5t101 42.5q60 0 103 -42.5t43 -102.5q0 -59 -43 -101.5t-103 -42.5zM570 -18q-219 0 -366 144.5t-147 354.5q0 211 147 355.5t366 144.5q156 0 281 -83.5t181 -220.5l-240 -101q-28 67 -87 107.5t-135 40.5q-103 0 -172 -70 t-69 -173q0 -102 69 -171.5t172 -69.5q76 0 135 39.5t87 106.5l240 -100q-56 -138 -180.5 -221t-281.5 -83z" />
<glyph unicode="&#x10c;" horiz-adv-x="1505" d="M783 1673l-238 300l117 74l218 -209l218 209l118 -74l-242 -300h-191zM864 -20q-161 0 -307 62t-251.5 167.5t-168 251.5t-62.5 307t62.5 307t168 251.5t251.5 167.5t307 62q173 0 332.5 -75t267.5 -204l-223 -179q-68 83 -166.5 129.5t-210.5 46.5q-212 0 -356 -145 t-144 -361t144 -361t356 -145q112 0 210.5 46.5t166.5 129.5l223 -179q-108 -129 -267.5 -204t-332.5 -75z" />
<glyph unicode="&#x10d;" horiz-adv-x="1074" d="M457 1100l-238 300l117 74l218 -209l218 209l118 -74l-242 -300h-191zM570 -18q-219 0 -366 144.5t-147 354.5q0 211 147 355.5t366 144.5q156 0 281 -83.5t181 -220.5l-240 -101q-28 67 -87 107.5t-135 40.5q-103 0 -172 -70t-69 -173q0 -102 69 -171.5t172 -69.5 q76 0 135 39.5t87 106.5l240 -100q-56 -138 -180.5 -221t-281.5 -83z" />
<glyph unicode="&#x10e;" horiz-adv-x="1521" d="M567 1673l-238 300l117 74l218 -209l218 209l118 -74l-242 -300h-191zM179 0v1536h485q178 0 326.5 -60.5t247 -164.5t153 -244t54.5 -299t-54.5 -299t-153 -244t-247 -164.5t-326.5 -60.5h-485zM476 269h175q222 0 353 140.5t131 358.5t-131 358.5t-353 140.5h-175v-998 z" />
<glyph unicode="&#x10f;" horiz-adv-x="1259" d="M1545 1393q0 -37 -18 -75l-145 -352h-167l89 282q-40 21 -64 60t-24 85q0 67 48.5 116t115.5 49t116 -49t49 -116zM827 850v686h289v-1536h-264l-10 132q-114 -152 -318 -152q-124 0 -229.5 64t-169 180.5t-63.5 259.5q0 142 63.5 258t169 180t229.5 64q191 0 303 -136z M598 230q103 0 175.5 74t72.5 180t-72 179t-176 73t-175.5 -73t-71.5 -179t72 -180t175 -74z" />
<glyph unicode="&#x110;" horiz-adv-x="1521" d="M664 1536q178 0 326.5 -60.5t247 -164.5t153 -244t54.5 -299t-54.5 -299t-153 -244t-247 -164.5t-326.5 -60.5h-485v675h-148v178h148v683h485zM651 269q222 0 353 140.5t131 358.5t-131 358.5t-353 140.5h-175v-414h243v-178h-243v-406h175z" />
<glyph unicode="&#x111;" horiz-adv-x="1259" d="M1249 1339v-178h-133v-1161h-264l-10 132q-114 -152 -318 -152q-124 0 -229.5 64t-169 180.5t-63.5 259.5q0 142 63.5 258t169 180t229.5 64q191 0 303 -136v311h-266v178h266v197h289v-197h133zM598 230q103 0 175.5 74t72.5 180t-72 179t-176 73t-175.5 -73t-71.5 -179 t72 -180t175 -74z" />
<glyph unicode="&#x112;" horiz-adv-x="1211" d="M962 1894v-171h-635v171h635zM1109 1270h-632v-369h546v-266h-546v-369h632v-266h-930v1536h930v-266z" />
<glyph unicode="&#x113;" horiz-adv-x="1121" d="M900 1325v-171h-635v171h635zM1065 492v-64h-718q15 -105 77.5 -162.5t156.5 -57.5q71 0 129.5 32.5t92.5 94.5l227 -94q-57 -121 -174 -190t-274 -69q-233 0 -378 142.5t-145 355.5q0 104 38 196.5t105 160t163 106.5t206 39q213 0 353.5 -135t140.5 -355zM574 762 q-79 0 -134 -39.5t-79 -111.5h410q-46 151 -197 151z" />
<glyph unicode="&#x116;" horiz-adv-x="1211" d="M643 1685q-58 0 -101 43t-43 101q0 60 43 102.5t101 42.5q60 0 103 -42.5t43 -102.5q0 -59 -43 -101.5t-103 -42.5zM1109 1270h-632v-369h546v-266h-546v-369h632v-266h-930v1536h930v-266z" />
<glyph unicode="&#x117;" horiz-adv-x="1121" d="M581 1116q-58 0 -101 43t-43 101q0 60 43 102.5t101 42.5q60 0 103 -42.5t43 -102.5q0 -59 -43 -101.5t-103 -42.5zM1065 492v-64h-718q15 -105 77.5 -162.5t156.5 -57.5q71 0 129.5 32.5t92.5 94.5l227 -94q-57 -121 -174 -190t-274 -69q-233 0 -378 142.5t-145 355.5 q0 104 38 196.5t105 160t163 106.5t206 39q213 0 353.5 -135t140.5 -355zM574 762q-79 0 -134 -39.5t-79 -111.5h410q-46 151 -197 151z" />
<glyph unicode="&#x118;" horiz-adv-x="1211" d="M1128 -268l101 -141q-61 -63 -144 -94.5t-168 -25.5q-118 8 -185.5 75.5t-67.5 169.5q0 167 206 284h-691v1536h930v-266h-632v-369h546v-266h-546v-369h632v-266q-263 -115 -263 -249q0 -51 30 -77.5t81 -26.5q91 0 171 85z" />
<glyph unicode="&#x119;" horiz-adv-x="1121" d="M1065 492v-64h-718q15 -105 77.5 -162.5t156.5 -57.5q71 0 129.5 32.5t92.5 94.5l227 -94q-39 -84 -108.5 -144t-162.5 -89q-186 -98 -186 -212q0 -51 30 -77.5t81 -26.5q91 0 171 85l101 -141q-61 -63 -144 -94.5t-168 -25.5q-118 8 -185.5 75.5t-67.5 169.5 q0 127 118 225q-204 23 -327 161t-123 333q0 104 38 196.5t105 160t163 106.5t206 39q213 0 353.5 -135t140.5 -355zM574 762q-79 0 -134 -39.5t-79 -111.5h410q-46 151 -197 151z" />
<glyph unicode="&#x11a;" horiz-adv-x="1211" d="M738 1673h-191l-238 300l117 74l218 -209l218 209l118 -74zM1109 1270h-632v-369h546v-266h-546v-369h632v-266h-930v1536h930v-266z" />
<glyph unicode="&#x11b;" horiz-adv-x="1121" d="M676 1104h-191l-238 300l117 74l218 -209l218 209l118 -74zM1065 492v-64h-718q15 -105 77.5 -162.5t156.5 -57.5q71 0 129.5 32.5t92.5 94.5l227 -94q-57 -121 -174 -190t-274 -69q-233 0 -378 142.5t-145 355.5q0 104 38 196.5t105 160t163 106.5t206 39 q213 0 353.5 -135t140.5 -355zM574 762q-79 0 -134 -39.5t-79 -111.5h410q-46 151 -197 151z" />
<glyph unicode="&#x11e;" horiz-adv-x="1640" d="M882 1695q-166 0 -265 90t-99 260h177q0 -76 50 -130.5t137 -54.5t137.5 54.5t50.5 130.5h177q0 -170 -99 -260t-266 -90zM868 858h653v-858h-214l-30 98q-192 -118 -413 -118q-161 0 -307 62t-251.5 167.5t-168 251.5t-62.5 307t62.5 307t168 251.5t251.5 167.5t307 62 q173 0 332.5 -75t267.5 -204l-223 -179q-68 83 -166.5 129.5t-210.5 46.5q-212 0 -356 -145t-144 -361t144 -361t356 -145q108 0 203.5 43t163.5 121v180h-363v252z" />
<glyph unicode="&#x11f;" horiz-adv-x="1266" d="M592 1122q-166 0 -265 90t-99 260h177q0 -76 50 -130.5t137 -54.5t137.5 54.5t50.5 130.5h177q0 -170 -99 -260t-266 -90zM833 963h289v-926q0 -252 -150 -394.5t-392 -142.5q-131 0 -264 54t-218 163l160 177q140 -150 306 -150q120 0 194.5 77.5t74.5 214.5v83 q-109 -139 -299 -139q-200 0 -337 143t-137 361q0 217 136.5 359.5t335.5 142.5q190 0 301 -140v117zM596 230q103 0 175.5 74.5t72.5 179.5q0 106 -72 179t-176 73t-175.5 -73t-71.5 -179t71.5 -180t175.5 -74z" />
<glyph unicode="&#x120;" horiz-adv-x="1640" d="M881 1685q-58 0 -101 43t-43 101q0 60 43 102.5t101 42.5q60 0 103 -42.5t43 -102.5q0 -59 -43 -101.5t-103 -42.5zM868 858h653v-858h-214l-30 98q-192 -118 -413 -118q-161 0 -307 62t-251.5 167.5t-168 251.5t-62.5 307t62.5 307t168 251.5t251.5 167.5t307 62 q173 0 332.5 -75t267.5 -204l-223 -179q-68 83 -166.5 129.5t-210.5 46.5q-212 0 -356 -145t-144 -361t144 -361t356 -145q108 0 203.5 43t163.5 121v180h-363v252z" />
<glyph unicode="&#x121;" horiz-adv-x="1266" d="M591 1112q-58 0 -101 43t-43 101q0 60 43 102.5t101 42.5q60 0 103 -42.5t43 -102.5q0 -59 -43 -101.5t-103 -42.5zM833 963h289v-926q0 -252 -150 -394.5t-392 -142.5q-131 0 -264 54t-218 163l160 177q140 -150 306 -150q120 0 194.5 77.5t74.5 214.5v83 q-109 -139 -299 -139q-200 0 -337 143t-137 361q0 217 136.5 359.5t335.5 142.5q190 0 301 -140v117zM596 230q103 0 175.5 74.5t72.5 179.5q0 106 -72 179t-176 73t-175.5 -73t-71.5 -179t71.5 -180t175.5 -74z" />
<glyph unicode="&#x122;" horiz-adv-x="1640" d="M868 858h653v-858h-214l-30 98q-192 -118 -413 -118q-161 0 -307 62t-251.5 167.5t-168 251.5t-62.5 307t62.5 307t168 251.5t251.5 167.5t307 62q173 0 332.5 -75t267.5 -204l-223 -179q-68 83 -166.5 129.5t-210.5 46.5q-212 0 -356 -145t-144 -361t144 -361t356 -145 q108 0 203.5 43t163.5 121v180h-363v252zM591 -576l213 479l211 -99l-283 -443z" />
<glyph unicode="&#x123;" horiz-adv-x="1266" d="M592 1074q-69 0 -116.5 48t-47.5 117q0 33 15 68l190 449h135l-119 -365q46 -17 76.5 -59.5t30.5 -92.5q0 -67 -48.5 -116t-115.5 -49zM833 963h289v-926q0 -252 -150 -394.5t-392 -142.5q-131 0 -264 54t-218 163l160 177q140 -150 306 -150q120 0 194.5 77.5 t74.5 214.5v83q-109 -139 -299 -139q-200 0 -337 143t-137 361q0 217 136.5 359.5t335.5 142.5q190 0 301 -140v117zM596 230q103 0 175.5 74.5t72.5 179.5q0 106 -72 179t-176 73t-175.5 -73t-71.5 -179t71.5 -180t175.5 -74z" />
<glyph unicode="&#x126;" horiz-adv-x="1628" d="M1557 1273v-129h-108v-1144h-298v634h-674v-634h-298v1144h-110v129h110v263h298v-263h674v263h298v-263h108zM1151 904v240h-674v-240h674z" />
<glyph unicode="&#x127;" horiz-adv-x="1163" d="M692 981q153 0 253 -104.5t100 -259.5v-617h-288v582q0 65 -43 105t-110 40q-74 0 -122.5 -44t-49.5 -110v-573h-289v1162h-134v178h134v196h289v-196h265v-178h-265v-298q101 117 260 117z" />
<glyph unicode="&#x128;" horiz-adv-x="656" d="M459 1629q-121 0 -200 118q-28 43 -62 43q-39 0 -59 -41.5t-20 -107.5h-160q0 135 62.5 220.5t169.5 85.5q122 0 201 -118q10 -14 16.5 -21.5t19.5 -14.5t29 -7q76 0 76 149h161q0 -134 -61.5 -220t-172.5 -86zM179 0v1536h298v-1536h-298z" />
<glyph unicode="&#x129;" horiz-adv-x="575" d="M421 1056q-121 0 -200 118q-28 43 -62 43q-39 0 -59 -41.5t-20 -107.5h-160q0 135 62.5 220.5t169.5 85.5q122 0 201 -118q10 -14 16.5 -21.5t19.5 -14.5t29 -7q76 0 76 149h161q0 -134 -61.5 -220t-172.5 -86zM143 0v963h289v-963h-289z" />
<glyph unicode="&#x12a;" horiz-adv-x="656" d="M9 1723v171h635v-171h-635zM179 0v1536h298v-1536h-298z" />
<glyph unicode="&#x12b;" horiz-adv-x="575" d="M-29 1150v171h635v-171h-635zM143 0v963h289v-963h-289z" />
<glyph unicode="&#x12e;" horiz-adv-x="656" d="M496 -268l101 -141q-61 -63 -144 -94.5t-168 -25.5q-118 8 -185.5 75.5t-67.5 169.5q0 167 206 284h-59v1536h298v-1536q-263 -115 -263 -249q0 -51 30 -77.5t81 -26.5q91 0 171 85z" />
<glyph unicode="&#x12f;" horiz-adv-x="575" d="M287 1112q-58 0 -101 43t-43 101q0 60 43 102.5t101 42.5q60 0 103 -42.5t43 -102.5q0 -59 -43 -101.5t-103 -42.5zM451 -268l101 -141q-61 -63 -144 -94.5t-168 -25.5q-118 8 -185.5 75.5t-67.5 169.5q0 167 206 284h-50v963h289v-963q-263 -115 -263 -249 q0 -51 30 -77.5t81 -26.5q91 0 171 85z" />
<glyph unicode="&#x130;" horiz-adv-x="656" d="M325 1685q-58 0 -101 43t-43 101q0 60 43 102.5t101 42.5q60 0 103 -42.5t43 -102.5q0 -59 -43 -101.5t-103 -42.5zM179 0v1536h298v-1536h-298z" />
<glyph unicode="&#x131;" horiz-adv-x="575" d="M143 0v963h289v-963h-289z" />
<glyph unicode="&#x136;" horiz-adv-x="1491" d="M793 774l674 -774h-392l-598 721v-721h-298v1536h298v-709l588 709h380zM457 -576l213 479l211 -99l-283 -443z" />
<glyph unicode="&#x137;" horiz-adv-x="1176" d="M718 507l460 -507h-364l-382 446v-446h-289v1536h289v-973l352 400h351zM326 -576l213 479l211 -99l-283 -443z" />
<glyph unicode="&#x139;" horiz-adv-x="1036" d="M654 1932l-342 -294l-105 115l309 334zM477 269h523v-269h-821v1536h298v-1267z" />
<glyph unicode="&#x13a;" horiz-adv-x="575" d="M272 1638l-105 115l309 334l138 -155zM143 0v1536h289v-1536h-289z" />
<glyph unicode="&#x13b;" horiz-adv-x="1036" d="M477 269h523v-269h-821v1536h298v-1267zM325 -576l213 479l211 -99l-283 -443z" />
<glyph unicode="&#x13c;" horiz-adv-x="575" d="M143 0v1536h289v-1536h-289zM164 -639l-141 63l213 479l211 -99z" />
<glyph unicode="&#x13d;" horiz-adv-x="1036" d="M844 966h-167l89 282q-40 21 -64 60t-24 85q0 67 48.5 116t115.5 49t116 -49t49 -116q0 -37 -18 -75zM477 1536v-1267h523v-269h-821v1536h298z" />
<glyph unicode="&#x13e;" horiz-adv-x="575" d="M865 1393q0 -37 -18 -75l-145 -352h-167l89 282q-40 21 -64 60t-24 85q0 67 48.5 116t115.5 49t116 -49t49 -116zM143 0v1536h289v-1536h-289z" />
<glyph unicode="&#x13f;" horiz-adv-x="1058" d="M477 269h523v-269h-821v1536h298v-1267zM815 792q-55 0 -95 39.5t-40 95.5q0 55 40.5 96t94.5 41t95.5 -41.5t41.5 -95.5q0 -56 -41.5 -95.5t-95.5 -39.5z" />
<glyph unicode="&#x140;" horiz-adv-x="835" d="M143 0v1536h289v-1536h-289zM687 655q-67 0 -115.5 47.5t-48.5 116.5q0 66 49 116t115 50q65 0 115.5 -50t50.5 -116q0 -68 -50 -116t-116 -48z" />
<glyph unicode="&#x141;" horiz-adv-x="1036" d="M477 269h523v-269h-821v535l-114 -84v204l114 85v796h298v-575l283 210v-206l-283 -209v-487z" />
<glyph unicode="&#x142;" horiz-adv-x="635" d="M573 1022v-202l-122 -90v-730h-289v516l-103 -76v200l103 77v819h289v-605z" />
<glyph unicode="&#x143;" horiz-adv-x="1645" d="M1139 1932l-342 -294l-105 115l309 334zM1181 1536h298v-1536h-226l-789 1017v-1017h-298v1536h224l791 -1014v1014z" />
<glyph unicode="&#x144;" horiz-adv-x="1163" d="M925 1359l-342 -294l-105 115l309 334zM701 981q144 0 244 -105t100 -259v-617h-288v579q0 70 -45 112.5t-114 42.5q-72 0 -118.5 -46.5t-47.5 -118.5v-569h-289v963h289v-98q104 116 269 116z" />
<glyph unicode="&#x145;" horiz-adv-x="1645" d="M1181 1536h298v-1536h-226l-789 1017v-1017h-298v1536h224l791 -1014v1014zM540 -576l213 479l211 -99l-283 -443z" />
<glyph unicode="&#x146;" horiz-adv-x="1163" d="M701 981q144 0 244 -105t100 -259v-617h-288v579q0 70 -45 112.5t-114 42.5q-72 0 -118.5 -46.5t-47.5 -118.5v-569h-289v963h289v-98q104 116 269 116zM330 -576l213 479l211 -99l-283 -443z" />
<glyph unicode="&#x147;" horiz-adv-x="1645" d="M907 1673h-191l-238 300l117 74l218 -209l218 209l118 -74zM1181 1536h298v-1536h-226l-789 1017v-1017h-298v1536h224l791 -1014v1014z" />
<glyph unicode="&#x148;" horiz-adv-x="1163" d="M693 1100h-191l-238 300l117 74l218 -209l218 209l118 -74zM701 981q144 0 244 -105t100 -259v-617h-288v579q0 70 -45 112.5t-114 42.5q-72 0 -118.5 -46.5t-47.5 -118.5v-569h-289v963h289v-98q104 116 269 116z" />
<glyph unicode="&#x14a;" horiz-adv-x="1758" d="M1281 1536h297v-1583q0 -221 -97.5 -317t-340.5 -96h-59v193q54 0 85 7t58 28.5t38 65.5t11 116v50l-796 1074v-1074h-298v1536h304l798 -1071v1071z" />
<glyph unicode="&#x14b;" horiz-adv-x="1164" d="M593 -488v205q35 0 55.5 3.5t44 18.5t35.5 44.5t20 83.5t8 133v579q0 70 -44.5 112.5t-114.5 42.5q-72 0 -118.5 -46.5t-47.5 -118.5v-569h-288v963h288v-102q101 120 269 120q145 0 244.5 -105t99.5 -259v-617q0 -137 -30.5 -233t-91 -151t-140.5 -79.5t-189 -24.5z" />
<glyph unicode="&#x14c;" horiz-adv-x="1726" d="M546 1723v171h635v-171h-635zM863 -20q-214 0 -395.5 105.5t-287 287t-105.5 395.5t105.5 395.5t287 287t395.5 105.5q161 0 307 -62.5t251.5 -167.5t168 -251t62.5 -307t-62.5 -307t-168 -251t-251.5 -167.5t-307 -62.5zM863 268q211 0 355.5 144t144.5 356t-144.5 356 t-355.5 144t-355.5 -144.5t-144.5 -355.5t144.5 -355.5t355.5 -144.5z" />
<glyph unicode="&#x14d;" horiz-adv-x="1140" d="M253 1148v171h635v-171h-635zM570 -18q-219 0 -366 144.5t-147 354.5q0 138 66.5 252.5t184.5 181t262 66.5q218 0 365.5 -145t147.5 -355t-147.5 -354.5t-365.5 -144.5zM569 235q101 0 169.5 70t68.5 176q0 107 -68.5 177.5t-169.5 70.5t-169.5 -70t-68.5 -178 t68.5 -177t169.5 -69z" />
<glyph unicode="&#x150;" horiz-adv-x="1726" d="M638 1663l-117 131l350 329l134 -149zM1085 1663l-118 131l350 329l133 -149zM863 -20q-214 0 -395.5 105.5t-287 287t-105.5 395.5t105.5 395.5t287 287t395.5 105.5q161 0 307 -62.5t251.5 -167.5t168 -251t62.5 -307t-62.5 -307t-168 -251t-251.5 -167.5t-307 -62.5z M863 268q211 0 355.5 144t144.5 356t-144.5 356t-355.5 144t-355.5 -144.5t-144.5 -355.5t144.5 -355.5t355.5 -144.5z" />
<glyph unicode="&#x151;" horiz-adv-x="1140" d="M345 1088l-117 131l350 329l134 -149zM792 1088l-118 131l350 329l133 -149zM570 -18q-219 0 -366 144.5t-147 354.5q0 138 66.5 252.5t184.5 181t262 66.5q218 0 365.5 -145t147.5 -355t-147.5 -354.5t-365.5 -144.5zM569 235q101 0 169.5 70t68.5 176 q0 107 -68.5 177.5t-169.5 70.5t-169.5 -70t-68.5 -178t68.5 -177t169.5 -69z" />
<glyph unicode="&#x152;" horiz-adv-x="2367" d="M2265 1276h-613v-377h527v-262h-527v-377h613v-260h-855v200q-109 -104 -250 -162t-297 -58q-214 0 -395.5 105.5t-287 287t-105.5 395.5t105.5 395.5t287 287t395.5 105.5q156 0 297 -58t250 -162v200h855v-260zM864 268q137 0 251.5 66.5t181 181.5t66.5 252t-66.5 252 t-181 181.5t-251.5 66.5q-210 0 -355.5 -145.5t-145.5 -354.5t145.5 -354.5t355.5 -145.5z" />
<glyph unicode="&#x153;" horiz-adv-x="1897" d="M1841 492l-4 -64h-714q15 -105 77 -162.5t157 -57.5q71 0 129 32.5t93 94.5l227 -94q-57 -121 -174 -190t-274 -69q-239 0 -388 152q-73 -72 -172 -112t-211 -40q-147 0 -269.5 66t-192.5 181t-70 252t70 252t192.5 181.5t269.5 66.5q112 0 211.5 -40t172.5 -112 q70 72 166.5 112.5t209.5 40.5q212 0 351.5 -134.5t142.5 -355.5zM1350 762q-79 0 -134 -39.5t-79 -111.5h409q-46 151 -196 151zM587 236q102 0 173.5 71.5t71.5 173.5q0 103 -71.5 174.5t-173.5 71.5q-104 0 -175.5 -71.5t-71.5 -174.5t71.5 -174t175.5 -71z" />
<glyph unicode="&#x154;" horiz-adv-x="1438" d="M994 1932l-342 -294l-105 115l309 334zM1049 0l-318 636h-254v-636h-298v1536h711q125 0 229 -61t163.5 -165.5t59.5 -228.5q0 -151 -85.5 -266t-223.5 -158l340 -657h-324zM477 1270v-382h368q90 0 149 52t59 138q0 85 -59.5 138.5t-148.5 53.5h-368z" />
<glyph unicode="&#x155;" horiz-adv-x="852" d="M428 1065l-105 115l309 334l138 -155zM697 982q88 0 155 -50l-98 -247q-50 28 -100 28q-93 0 -157.5 -74.5t-64.5 -196.5v-442h-289v963h289v-155q88 174 265 174z" />
<glyph unicode="&#x156;" horiz-adv-x="1438" d="M1033 657l340 -657h-324l-318 636h-254v-636h-298v1536h711q125 0 229 -61t163.5 -165.5t59.5 -228.5q0 -151 -85.5 -266t-223.5 -158zM477 1270v-382h368q90 0 149 52t59 138q0 85 -59.5 138.5t-148.5 53.5h-368zM403 -576l213 479l211 -99l-283 -443z" />
<glyph unicode="&#x157;" horiz-adv-x="852" d="M697 982q88 0 155 -50l-98 -247q-50 28 -100 28q-93 0 -157.5 -74.5t-64.5 -196.5v-442h-289v963h289v-155q88 174 265 174zM164 -639l-141 63l213 479l211 -99z" />
<glyph unicode="&#x158;" horiz-adv-x="1438" d="M762 1673h-191l-238 300l117 74l218 -209l218 209l118 -74zM1049 0l-318 636h-254v-636h-298v1536h711q125 0 229 -61t163.5 -165.5t59.5 -228.5q0 -151 -85.5 -266t-223.5 -158l340 -657h-324zM477 1270v-382h368q90 0 149 52t59 138q0 85 -59.5 138.5t-148.5 53.5h-368 z" />
<glyph unicode="&#x159;" horiz-adv-x="852" d="M347 1100l-238 300l117 74l218 -209l218 209l118 -74l-242 -300h-191zM697 982q88 0 155 -50l-98 -247q-50 28 -100 28q-93 0 -157.5 -74.5t-64.5 -196.5v-442h-289v963h289v-155q88 174 265 174z" />
<glyph unicode="&#x15a;" horiz-adv-x="1194" d="M579 1638l-105 115l309 334l138 -155zM615 -20q-179 0 -330.5 78t-238.5 184l200 204q80 -105 168.5 -158t197.5 -53q103 0 162.5 49t59.5 134q0 28 -9 53t-20.5 44t-37 38.5t-44.5 32t-57.5 30.5t-61 27.5t-68.5 27.5q-4 1 -5.5 2t-4.5 2t-5 2q-49 20 -82 34.5 t-79.5 39.5t-77.5 48.5t-65.5 58.5t-54.5 73t-33.5 88.5t-13.5 107.5q0 132 66.5 231t174.5 148.5t239 49.5q276 0 484 -222l-183 -181q-140 156 -300 156q-80 0 -132 -42t-52 -114q0 -43 18.5 -76.5t66 -63.5t78 -44.5t105.5 -44.5q13 -5 19 -8q54 -22 88 -37.5t84 -42.5 t82 -51.5t69 -62t58 -78t35 -94.5t14 -115q0 -107 -41.5 -195t-113 -144t-163.5 -86t-196 -30z" />
<glyph unicode="&#x15b;" horiz-adv-x="942" d="M439 1071l-105 115l309 334l138 -155zM476 -20q-233 0 -425 124l119 194q60 -43 145 -72.5t156 -29.5q63 0 99.5 23.5t36.5 64.5q0 15 -5.5 27t-17.5 21.5t-25 16t-36 13.5t-41.5 12t-50 13t-53.5 14q-49 14 -84 26.5t-77 36t-68 51.5t-44 71.5t-18 97.5q0 98 57 167 t146 100t199 31q209 0 363 -101l-120 -174q-57 34 -132 57t-133 23q-53 0 -84 -19t-31 -53q0 -15 5.5 -27t19.5 -22t26 -17t37.5 -15t39.5 -12t47.5 -12t47.5 -12q73 -18 124.5 -39.5t94.5 -55.5t64 -83.5t21 -115.5q0 -155 -109 -239.5t-294 -84.5z" />
<glyph unicode="&#x15e;" horiz-adv-x="1194" d="M1129 435q0 -134 -65 -236t-169 -155t-234 -62l-57 -105q100 18 170 -36.5t70 -149.5q0 -94 -65 -159t-159 -65q-76 0 -146 44.5t-94 108.5l131 44q15 -25 47 -43t62 -18q36 0 61 25.5t25 62.5q0 57 -49 74t-119 -16l-106 62l93 175q-152 19 -278 92t-201 164l200 204 q80 -105 168.5 -158t197.5 -53q103 0 162.5 49t59.5 134q0 28 -9 53t-20.5 44t-37 38.5t-44.5 32t-57.5 30.5t-61 27.5t-68.5 27.5q-4 1 -5.5 2t-4.5 2t-5 2q-49 20 -82 34.5t-79.5 39.5t-77.5 48.5t-65.5 58.5t-54.5 73t-33.5 88.5t-13.5 107.5q0 132 66.5 231t174.5 148.5 t239 49.5q276 0 484 -222l-183 -181q-140 156 -300 156q-80 0 -132 -42t-52 -114q0 -43 18.5 -76.5t66 -63.5t78 -44.5t105.5 -44.5q13 -5 19 -8q54 -22 88 -37.5t84 -42.5t82 -51.5t69 -62t58 -78t35 -94.5t14 -115z" />
<glyph unicode="&#x15f;" horiz-adv-x="942" d="M879 304q0 -135 -84 -217.5t-231 -101.5l-56 -101q100 18 170 -36.5t70 -149.5q0 -94 -65 -159t-159 -65q-76 0 -146 44.5t-94 108.5l131 44q15 -25 47 -43t62 -18q36 0 61 25.5t25 62.5q0 57 -49 74t-119 -16l-106 62l87 164q-204 14 -372 122l119 194q60 -43 145 -72.5 t156 -29.5q63 0 99.5 23.5t36.5 64.5q0 15 -5.5 27t-17.5 21.5t-25 16t-36 13.5t-41.5 12t-50 13t-53.5 14q-49 14 -84 26.5t-77 36t-68 51.5t-44 71.5t-18 97.5q0 98 57 167t146 100t199 31q209 0 363 -101l-120 -174q-57 34 -132 57t-133 23q-53 0 -84 -19t-31 -53 q0 -15 5.5 -27t19.5 -22t26 -17t37.5 -15t39.5 -12t47.5 -12t47.5 -12q73 -18 124.5 -39.5t94.5 -55.5t64 -83.5t21 -115.5z" />
<glyph unicode="&#x160;" horiz-adv-x="1194" d="M498 1673l-238 300l117 74l218 -209l218 209l118 -74l-242 -300h-191zM615 -20q-179 0 -330.5 78t-238.5 184l200 204q80 -105 168.5 -158t197.5 -53q103 0 162.5 49t59.5 134q0 28 -9 53t-20.5 44t-37 38.5t-44.5 32t-57.5 30.5t-61 27.5t-68.5 27.5q-4 1 -5.5 2t-4.5 2 t-5 2q-49 20 -82 34.5t-79.5 39.5t-77.5 48.5t-65.5 58.5t-54.5 73t-33.5 88.5t-13.5 107.5q0 132 66.5 231t174.5 148.5t239 49.5q276 0 484 -222l-183 -181q-140 156 -300 156q-80 0 -132 -42t-52 -114q0 -43 18.5 -76.5t66 -63.5t78 -44.5t105.5 -44.5q13 -5 19 -8 q54 -22 88 -37.5t84 -42.5t82 -51.5t69 -62t58 -78t35 -94.5t14 -115q0 -107 -41.5 -195t-113 -144t-163.5 -86t-196 -30z" />
<glyph unicode="&#x161;" horiz-adv-x="942" d="M358 1106l-238 300l117 74l218 -209l218 209l118 -74l-242 -300h-191zM476 -20q-233 0 -425 124l119 194q60 -43 145 -72.5t156 -29.5q63 0 99.5 23.5t36.5 64.5q0 15 -5.5 27t-17.5 21.5t-25 16t-36 13.5t-41.5 12t-50 13t-53.5 14q-49 14 -84 26.5t-77 36t-68 51.5 t-44 71.5t-18 97.5q0 98 57 167t146 100t199 31q209 0 363 -101l-120 -174q-57 34 -132 57t-133 23q-53 0 -84 -19t-31 -53q0 -15 5.5 -27t19.5 -22t26 -17t37.5 -15t39.5 -12t47.5 -12t47.5 -12q73 -18 124.5 -39.5t94.5 -55.5t64 -83.5t21 -115.5q0 -155 -109 -239.5 t-294 -84.5z" />
<glyph unicode="&#x162;" horiz-adv-x="1160" d="M729 0h-80l-67 -122q100 18 170 -36.5t70 -149.5q0 -94 -65 -159t-159 -65q-76 0 -146 44.5t-94 108.5l131 44q15 -25 47 -43t62 -18q36 0 61 25.5t25 62.5q0 57 -49 74t-119 -16l-106 62l100 188h-78v1267h-396v269h1088v-269h-395v-1267z" />
<glyph unicode="&#x163;" horiz-adv-x="704" d="M497 0h-75l-67 -122q100 18 170 -36.5t70 -149.5q0 -94 -65 -159t-159 -65q-76 0 -146 44.5t-94 108.5l131 44q15 -25 47 -43t62 -18q36 0 61 25.5t25 62.5q0 57 -48.5 74t-119.5 -16l-106 62l100 188h-75v739h-182v224h182v346h289v-346h180v-224h-180v-739z" />
<glyph unicode="&#x164;" horiz-adv-x="1160" d="M674 1673h-191l-238 300l117 74l218 -209l218 209l118 -74zM1124 1536v-269h-395v-1267h-297v1267h-396v269h1088z" />
<glyph unicode="&#x165;" horiz-adv-x="704" d="M921 1507q0 -37 -18 -75l-145 -352h-167l89 282q-40 21 -64 60t-24 85q0 67 48.5 116t115.5 49t116 -49t49 -116zM497 1309v-346h180v-224h-180v-739h-289v739h-182v224h182v346h289z" />
<glyph unicode="&#x166;" horiz-adv-x="1160" d="M1124 1267h-395v-414h194v-178h-194v-675h-297v675h-197v178h197v414h-396v269h1088v-269z" />
<glyph unicode="&#x167;" horiz-adv-x="704" d="M677 739h-180v-241h136v-178h-136v-320h-289v320h-137v178h137v241h-182v224h182v346h289v-346h180v-224z" />
<glyph unicode="&#x168;" horiz-adv-x="1545" d="M905 1629q-121 0 -200 118q-28 43 -62 43q-39 0 -59 -41.5t-20 -107.5h-160q0 135 62.5 220.5t169.5 85.5q122 0 201 -118q10 -14 16.5 -21.5t19.5 -14.5t29 -7q76 0 76 149h161q0 -134 -61.5 -220t-172.5 -86zM772 -20q-176 0 -318.5 68t-224 192t-81.5 280v1016h298 v-962q0 -145 92.5 -235.5t233.5 -90.5t234 90.5t93 235.5v962h299v-1016q0 -156 -82 -280t-224.5 -192t-319.5 -68z" />
<glyph unicode="&#x169;" horiz-adv-x="1116" d="M691 1056q-121 0 -200 118q-28 43 -62 43q-39 0 -59 -41.5t-20 -107.5h-160q0 135 62.5 220.5t169.5 85.5q122 0 201 -118q10 -14 16.5 -21.5t19.5 -14.5t29 -7q76 0 76 149h161q0 -134 -61.5 -220t-172.5 -86zM557 -20q-210 0 -325 104t-115 283v596h288v-573 q0 -79 42 -122t110 -43q69 0 111.5 43t42.5 122v573h288v-596q0 -179 -116 -283t-326 -104z" />
<glyph unicode="&#x16a;" horiz-adv-x="1545" d="M455 1723v171h635v-171h-635zM772 -20q-176 0 -318.5 68t-224 192t-81.5 280v1016h298v-962q0 -145 92.5 -235.5t233.5 -90.5t234 90.5t93 235.5v962h299v-1016q0 -156 -82 -280t-224.5 -192t-319.5 -68z" />
<glyph unicode="&#x16b;" horiz-adv-x="1116" d="M241 1150v171h635v-171h-635zM557 -20q-210 0 -325 104t-115 283v596h288v-573q0 -79 42 -122t110 -43q69 0 111.5 43t42.5 122v573h288v-596q0 -179 -116 -283t-326 -104z" />
<glyph unicode="&#x16e;" horiz-adv-x="1545" d="M772 1662q-100 0 -171.5 71t-71.5 171q0 98 71.5 168.5t171.5 70.5q98 0 168.5 -70.5t70.5 -168.5q0 -100 -70.5 -171t-168.5 -71zM772 1785q50 0 83.5 33.5t33.5 85.5q0 47 -34.5 83t-82.5 36q-49 0 -82.5 -36t-33.5 -83q0 -53 33 -86t83 -33zM772 -20q-176 0 -318.5 68 t-224 192t-81.5 280v1016h298v-962q0 -145 92.5 -235.5t233.5 -90.5t234 90.5t93 235.5v962h299v-1016q0 -156 -82 -280t-224.5 -192t-319.5 -68z" />
<glyph unicode="&#x16f;" horiz-adv-x="1116" d="M566 1099q-100 0 -171.5 71.5t-71.5 170.5t71.5 169.5t171.5 70.5q99 0 169 -70.5t70 -169.5t-70 -170.5t-169 -71.5zM566 1223q50 0 83.5 33t33.5 85q0 48 -34.5 84t-82.5 36q-49 0 -82 -36t-33 -84q0 -52 32.5 -85t82.5 -33zM557 -20q-210 0 -325 104t-115 283v596h288 v-573q0 -79 42 -122t110 -43q69 0 111.5 43t42.5 122v573h288v-596q0 -179 -116 -283t-326 -104z" />
<glyph unicode="&#x170;" horiz-adv-x="1545" d="M547 1663l-117 131l350 329l134 -149zM994 1663l-118 131l350 329l133 -149zM772 -20q-176 0 -318.5 68t-224 192t-81.5 280v1016h298v-962q0 -145 92.5 -235.5t233.5 -90.5t234 90.5t93 235.5v962h299v-1016q0 -156 -82 -280t-224.5 -192t-319.5 -68z" />
<glyph unicode="&#x171;" horiz-adv-x="1116" d="M333 1090l-117 131l350 329l134 -149zM780 1090l-118 131l350 329l133 -149zM557 -20q-210 0 -325 104t-115 283v596h288v-573q0 -79 42 -122t110 -43q69 0 111.5 43t42.5 122v573h288v-596q0 -179 -116 -283t-326 -104z" />
<glyph unicode="&#x172;" horiz-adv-x="1545" d="M1099 1536h299v-1016q0 -185 -112 -321t-298 -189q-172 -96 -172 -205q0 -51 30 -77.5t81 -26.5q91 0 171 85l101 -141q-61 -63 -144 -94.5t-168 -25.5q-118 8 -185.5 75.5t-67.5 169.5q0 117 102 211q-255 11 -421.5 161t-166.5 378v1016h298v-962q0 -145 92.5 -235.5 t233.5 -90.5t234 90.5t93 235.5v962z" />
<glyph unicode="&#x173;" horiz-adv-x="1116" d="M711 963h288v-596q0 -152 -84 -250.5t-240 -126.5q-240 -111 -240 -239q0 -51 30 -77.5t81 -26.5q91 0 171 85l101 -141q-61 -63 -144 -94.5t-168 -25.5q-118 8 -185.5 75.5t-67.5 169.5q0 160 188 274q-156 27 -240 126t-84 251v596h288v-573q0 -79 42 -122t110 -43 q69 0 111.5 43t42.5 122v573z" />
<glyph unicode="&#x174;" horiz-adv-x="2136" d="M1069 1842l-216 -210l-120 76l239 299h191l242 -299l-121 -76zM1811 1536h318l-563 -1536h-301l-197 496l-198 -496h-301l-562 1536h317l413 -1204l191 516l-274 688h298l116 -311l115 311h299l-274 -689l191 -515z" />
<glyph unicode="&#x175;" horiz-adv-x="1585" d="M800 1269l-216 -210l-120 76l239 299h191l242 -299l-121 -76zM1279 963h298l-330 -964h-252l-203 616l-206 -616h-253l-325 964h296l179 -607l205 607h207l204 -608z" />
<glyph unicode="&#x176;" horiz-adv-x="1400" d="M702 1842l-216 -210l-120 76l239 299h191l242 -299l-121 -76zM1386 1536l-535 -810v-726h-298v720l-539 816h341l346 -546l348 546h337z" />
<glyph unicode="&#x177;" horiz-adv-x="1134" d="M584 1269l-216 -210l-120 76l239 299h191l242 -299l-121 -76zM836 963h301l-578 -1444h-295l191 481h-66l-395 963h316l262 -739z" />
<glyph unicode="&#x178;" horiz-adv-x="1400" d="M492 1644q-59 0 -102 42t-43 102t43 102t102 42q60 0 103 -42t43 -102t-43 -102t-103 -42zM912 1644q-60 0 -102.5 42t-42.5 102t42.5 102t102.5 42t102 -41.5t42 -102.5q0 -60 -42 -102t-102 -42zM1386 1536l-535 -810v-726h-298v720l-539 816h341l346 -546l348 546h337 z" />
<glyph unicode="&#x179;" horiz-adv-x="1339" d="M1020 1932l-342 -294l-105 115l309 334zM1287 1536v-102l-794 -1165h769v-269h-1218v106l793 1161h-735v269h1185z" />
<glyph unicode="&#x17a;" horiz-adv-x="980" d="M833 1359l-342 -294l-105 115l309 334zM929 963l-462 -739h459v-224h-884l460 739h-436v224h863z" />
<glyph unicode="&#x17b;" horiz-adv-x="1339" d="M693 1685q-58 0 -101 43t-43 101q0 60 43 102.5t101 42.5q60 0 103 -42.5t43 -102.5q0 -59 -43 -101.5t-103 -42.5zM1287 1536v-102l-794 -1165h769v-269h-1218v106l793 1161h-735v269h1185z" />
<glyph unicode="&#x17c;" horiz-adv-x="980" d="M506 1112q-58 0 -101 43t-43 101q0 60 43 102.5t101 42.5q60 0 103 -42.5t43 -102.5q0 -59 -43 -101.5t-103 -42.5zM929 963l-462 -739h459v-224h-884l460 739h-436v224h863z" />
<glyph unicode="&#x17d;" horiz-adv-x="1339" d="M788 1673h-191l-238 300l117 74l218 -209l218 209l118 -74zM1287 1536v-102l-794 -1165h769v-269h-1218v106l793 1161h-735v269h1185z" />
<glyph unicode="&#x17e;" horiz-adv-x="980" d="M601 1100h-191l-238 300l117 74l218 -209l218 209l118 -74zM929 963l-462 -739h459v-224h-884l460 739h-436v224h863z" />
<glyph unicode="&#x192;" horiz-adv-x="1065" d="M852 1340q-78 0 -129.5 -50t-65.5 -137l-21 -129h275l-34 -229h-277l-208 -1307h-272l207 1307h-171l35 229h172l27 169q25 155 150 259t281 104q52 0 96 -11t62 -26l-24 -210q-38 31 -103 31z" />
<glyph unicode="&#x1a0;" horiz-adv-x="1726" d="M1574 1520h166v-124q0 -124 -52.5 -185t-131.5 -65q96 -176 96 -378q0 -161 -62.5 -307t-168 -251t-251.5 -167.5t-307 -62.5q-214 0 -395.5 105.5t-287 287t-105.5 395.5t105.5 395.5t287 287t395.5 105.5q192 0 359 -86t277 -235q103 8 88 133zM863 268 q211 0 355.5 144t144.5 356t-144.5 356t-355.5 144t-355.5 -144.5t-144.5 -355.5t144.5 -355.5t355.5 -144.5z" />
<glyph unicode="&#x1a1;" horiz-adv-x="1140" d="M1074 1039h166v-124q0 -126 -55 -187t-136 -63q34 -88 34 -184q0 -210 -147.5 -354.5t-365.5 -144.5q-219 0 -366 144.5t-147 354.5q0 138 66.5 252.5t184.5 181t262 66.5q137 0 250.5 -60.5t181.5 -165.5q99 8 85 132zM569 235q101 0 169.5 70t68.5 176 q0 107 -68.5 177.5t-169.5 70.5t-169.5 -70t-68.5 -178t68.5 -177t169.5 -69z" />
<glyph unicode="&#x1af;" horiz-adv-x="1731" d="M1480 1537h166v-124q0 -128 -56.5 -189t-139.5 -61q-22 0 -52 5v-648q0 -156 -82 -280t-224.5 -192t-319.5 -68q-176 0 -318.5 68t-224 192t-81.5 280v1016h298v-962q0 -145 92.5 -235.5t233.5 -90.5t234 90.5t93 235.5v962h299v-284q110 3 95 133z" />
<glyph unicode="&#x1b0;" horiz-adv-x="1116" d="M1107 962h166v-124q0 -128 -56.5 -189t-139.5 -61q-38 0 -78 10v-231q0 -179 -116 -283t-326 -104t-325 104t-115 283v596h288v-573q0 -79 42 -122t110 -43q69 0 111.5 43t42.5 122v573h288v-284q16 -2 22 -2q114 0 99 133z" />
<glyph unicode="&#x1cd;" horiz-adv-x="1479" d="M834 1673h-191l-238 300l117 74l218 -209l218 209l118 -74zM1141 0l-81 237h-642l-81 -237h-327l585 1536h287l588 -1536h-329zM505 489h469l-235 685z" />
<glyph unicode="&#x1ce;" horiz-adv-x="1258" d="M683 1103h-191l-238 300l117 74l218 -209l218 209l118 -74zM827 963h289v-963h-264l-10 132q-114 -152 -318 -152q-124 0 -229.5 64t-169 180.5t-63.5 259.5q0 142 63.5 258t169 180t229.5 64q191 0 303 -136v113zM598 230q103 0 175.5 74t72.5 180t-72 179t-176 73 t-175.5 -73t-71.5 -179t72 -180t175 -74z" />
<glyph unicode="&#x1cf;" horiz-adv-x="656" d="M229 1673l-238 300l117 74l218 -209l218 209l118 -74l-242 -300h-191zM179 0v1536h298v-1536h-298z" />
<glyph unicode="&#x1d0;" horiz-adv-x="575" d="M191 1100l-238 300l117 74l218 -209l218 209l118 -74l-242 -300h-191zM143 0v963h289v-963h-289z" />
<glyph unicode="&#x1d1;" horiz-adv-x="1726" d="M766 1673l-238 300l117 74l218 -209l218 209l118 -74l-242 -300h-191zM863 -20q-214 0 -395.5 105.5t-287 287t-105.5 395.5t105.5 395.5t287 287t395.5 105.5q161 0 307 -62.5t251.5 -167.5t168 -251t62.5 -307t-62.5 -307t-168 -251t-251.5 -167.5t-307 -62.5zM863 268 q211 0 355.5 144t144.5 356t-144.5 356t-355.5 144t-355.5 -144.5t-144.5 -355.5t144.5 -355.5t355.5 -144.5z" />
<glyph unicode="&#x1d2;" horiz-adv-x="1140" d="M473 1098l-238 300l117 74l218 -209l218 209l118 -74l-242 -300h-191zM570 -18q-219 0 -366 144.5t-147 354.5q0 138 66.5 252.5t184.5 181t262 66.5q218 0 365.5 -145t147.5 -355t-147.5 -354.5t-365.5 -144.5zM569 235q101 0 169.5 70t68.5 176q0 107 -68.5 177.5 t-169.5 70.5t-169.5 -70t-68.5 -178t68.5 -177t169.5 -69z" />
<glyph unicode="&#x1d3;" horiz-adv-x="1545" d="M675 1673l-238 300l117 74l218 -209l218 209l118 -74l-242 -300h-191zM772 -20q-176 0 -318.5 68t-224 192t-81.5 280v1016h298v-962q0 -145 92.5 -235.5t233.5 -90.5t234 90.5t93 235.5v962h299v-1016q0 -156 -82 -280t-224.5 -192t-319.5 -68z" />
<glyph unicode="&#x1d4;" horiz-adv-x="1116" d="M461 1100l-238 300l117 74l218 -209l218 209l118 -74l-242 -300h-191zM557 -20q-210 0 -325 104t-115 283v596h288v-573q0 -79 42 -122t110 -43q69 0 111.5 43t42.5 122v573h288v-596q0 -179 -116 -283t-326 -104z" />
<glyph unicode="&#x1d5;" horiz-adv-x="1545" d="M455 2119v171h635v-171h-635zM562 1644q-59 0 -102 42t-43 102t43 102t102 42q60 0 103 -42t43 -102t-43 -102t-103 -42zM982 1644q-60 0 -102.5 42t-42.5 102t42.5 102t102.5 42t102 -41.5t42 -102.5q0 -60 -42 -102t-102 -42zM772 -20q-176 0 -318.5 68t-224 192 t-81.5 280v1016h298v-962q0 -145 92.5 -235.5t233.5 -90.5t234 90.5t93 235.5v962h299v-1016q0 -156 -82 -280t-224.5 -192t-319.5 -68z" />
<glyph unicode="&#x1d6;" horiz-adv-x="1116" d="M241 1608v171h635v-171h-635zM348 1132q-59 0 -102 42.5t-43 102.5t43 102t102 42q60 0 103 -42t43 -102t-43 -102.5t-103 -42.5zM768 1132q-60 0 -102.5 42.5t-42.5 102.5t42.5 102t102.5 42t102 -42t42 -102t-42 -102.5t-102 -42.5zM557 -20q-210 0 -325 104t-115 283 v596h288v-573q0 -79 42 -122t110 -43q69 0 111.5 43t42.5 122v573h288v-596q0 -179 -116 -283t-326 -104z" />
<glyph unicode="&#x1d7;" horiz-adv-x="1545" d="M756 2034l-105 115l309 334l138 -155zM562 1644q-59 0 -102 42t-43 102t43 102t102 42q60 0 103 -42t43 -102t-43 -102t-103 -42zM982 1644q-60 0 -102.5 42t-42.5 102t42.5 102t102.5 42t102 -41.5t42 -102.5q0 -60 -42 -102t-102 -42zM772 -20q-176 0 -318.5 68 t-224 192t-81.5 280v1016h298v-962q0 -145 92.5 -235.5t233.5 -90.5t234 90.5t93 235.5v962h299v-1016q0 -156 -82 -280t-224.5 -192t-319.5 -68z" />
<glyph unicode="&#x1d8;" horiz-adv-x="1116" d="M542 1523l-105 115l309 334l138 -155zM348 1132q-59 0 -102 42.5t-43 102.5t43 102t102 42q60 0 103 -42t43 -102t-43 -102.5t-103 -42.5zM768 1132q-60 0 -102.5 42.5t-42.5 102.5t42.5 102t102.5 42t102 -42t42 -102t-42 -102.5t-102 -42.5zM557 -20q-210 0 -325 104 t-115 283v596h288v-573q0 -79 42 -122t110 -43q69 0 111.5 43t42.5 122v573h288v-596q0 -179 -116 -283t-326 -104z" />
<glyph unicode="&#x1d9;" horiz-adv-x="1545" d="M675 2069l-238 300l117 74l218 -209l218 209l118 -74l-242 -300h-191zM562 1644q-59 0 -102 42t-43 102t43 102t102 42q60 0 103 -42t43 -102t-43 -102t-103 -42zM982 1644q-60 0 -102.5 42t-42.5 102t42.5 102t102.5 42t102 -41.5t42 -102.5q0 -60 -42 -102t-102 -42z M772 -20q-176 0 -318.5 68t-224 192t-81.5 280v1016h298v-962q0 -145 92.5 -235.5t233.5 -90.5t234 90.5t93 235.5v962h299v-1016q0 -156 -82 -280t-224.5 -192t-319.5 -68z" />
<glyph unicode="&#x1da;" horiz-adv-x="1116" d="M461 1558l-238 300l117 74l218 -209l218 209l118 -74l-242 -300h-191zM348 1132q-59 0 -102 42.5t-43 102.5t43 102t102 42q60 0 103 -42t43 -102t-43 -102.5t-103 -42.5zM768 1132q-60 0 -102.5 42.5t-42.5 102.5t42.5 102t102.5 42t102 -42t42 -102t-42 -102.5 t-102 -42.5zM557 -20q-210 0 -325 104t-115 283v596h288v-573q0 -79 42 -122t110 -43q69 0 111.5 43t42.5 122v573h288v-596q0 -179 -116 -283t-326 -104z" />
<glyph unicode="&#x1db;" horiz-adv-x="1545" d="M786 2038l-345 290l139 155l305 -335zM562 1644q-59 0 -102 42t-43 102t43 102t102 42q60 0 103 -42t43 -102t-43 -102t-103 -42zM982 1644q-60 0 -102.5 42t-42.5 102t42.5 102t102.5 42t102 -41.5t42 -102.5q0 -60 -42 -102t-102 -42zM772 -20q-176 0 -318.5 68 t-224 192t-81.5 280v1016h298v-962q0 -145 92.5 -235.5t233.5 -90.5t234 90.5t93 235.5v962h299v-1016q0 -156 -82 -280t-224.5 -192t-319.5 -68z" />
<glyph unicode="&#x1dc;" horiz-adv-x="1116" d="M572 1527l-345 290l139 155l305 -335zM348 1132q-59 0 -102 42.5t-43 102.5t43 102t102 42q60 0 103 -42t43 -102t-43 -102.5t-103 -42.5zM768 1132q-60 0 -102.5 42.5t-42.5 102.5t42.5 102t102.5 42t102 -42t42 -102t-42 -102.5t-102 -42.5zM557 -20q-210 0 -325 104 t-115 283v596h288v-573q0 -79 42 -122t110 -43q69 0 111.5 43t42.5 122v573h288v-596q0 -179 -116 -283t-326 -104z" />
<glyph unicode="&#x218;" horiz-adv-x="1194" d="M615 -20q-179 0 -330.5 78t-238.5 184l200 204q80 -105 168.5 -158t197.5 -53q103 0 162.5 49t59.5 134q0 28 -9 53t-20.5 44t-37 38.5t-44.5 32t-57.5 30.5t-61 27.5t-68.5 27.5q-4 1 -5.5 2t-4.5 2t-5 2q-49 20 -82 34.5t-79.5 39.5t-77.5 48.5t-65.5 58.5t-54.5 73 t-33.5 88.5t-13.5 107.5q0 132 66.5 231t174.5 148.5t239 49.5q276 0 484 -222l-183 -181q-140 156 -300 156q-80 0 -132 -42t-52 -114q0 -43 18.5 -76.5t66 -63.5t78 -44.5t105.5 -44.5q13 -5 19 -8q54 -22 88 -37.5t84 -42.5t82 -51.5t69 -62t58 -78t35 -94.5t14 -115 q0 -107 -41.5 -195t-113 -144t-163.5 -86t-196 -30zM478 -640l-141 63l213 479l211 -99z" />
<glyph unicode="&#x219;" horiz-adv-x="942" d="M476 -20q-233 0 -425 124l119 194q60 -43 145 -72.5t156 -29.5q63 0 99.5 23.5t36.5 64.5q0 15 -5.5 27t-17.5 21.5t-25 16t-36 13.5t-41.5 12t-50 13t-53.5 14q-49 14 -84 26.5t-77 36t-68 51.5t-44 71.5t-18 97.5q0 98 57 167t146 100t199 31q209 0 363 -101l-120 -174 q-57 34 -132 57t-133 23q-53 0 -84 -19t-31 -53q0 -15 5.5 -27t19.5 -22t26 -17t37.5 -15t39.5 -12t47.5 -12t47.5 -12q73 -18 124.5 -39.5t94.5 -55.5t64 -83.5t21 -115.5q0 -155 -109 -239.5t-294 -84.5zM382 -633l-141 63l213 479l211 -99z" />
<glyph unicode="&#x21a;" horiz-adv-x="1160" d="M36 1536h1088v-269h-395v-1267h-297v1267h-396v269zM315 -576l213 479l211 -99l-283 -443z" />
<glyph unicode="&#x21b;" horiz-adv-x="704" d="M497 963h180v-224h-180v-739h-289v739h-182v224h182v346h289v-346zM88 -576l213 479l211 -99l-283 -443z" />
<glyph unicode="&#x237;" horiz-adv-x="574" d="M143 -481v1444h288v-1444h-288z" />
<glyph unicode="&#x2c6;" horiz-adv-x="763" d="M151 1161l-120 76l239 299h191l242 -299l-121 -76l-215 210z" />
<glyph unicode="&#x2c7;" horiz-adv-x="766" d="M273 1161l-238 300l117 74l218 -209l218 209l118 -74l-242 -300h-191z" />
<glyph unicode="&#x2d8;" horiz-adv-x="890" d="M456 1183q-166 0 -265 90t-99 260h177q0 -76 50 -130.5t137 -54.5t137.5 54.5t50.5 130.5h177q0 -170 -99 -260t-266 -90z" />
<glyph unicode="&#x2d9;" horiz-adv-x="494" d="M263 1181q-58 0 -101 43t-43 101q0 60 43 102.5t101 42.5q60 0 103 -42.5t43 -102.5q0 -59 -43 -101.5t-103 -42.5z" />
<glyph unicode="&#x2da;" horiz-adv-x="650" d="M335 1099q-100 0 -171.5 71.5t-71.5 170.5t71.5 169.5t171.5 70.5q99 0 169 -70.5t70 -169.5t-70 -170.5t-169 -71.5zM335 1223q50 0 83.5 33t33.5 85q0 48 -34.5 84t-82.5 36q-49 0 -82 -36t-33 -84q0 -52 32.5 -85t82.5 -33z" />
<glyph unicode="&#x2db;" horiz-adv-x="662" d="M327 -529q-118 8 -185.5 75.5t-67.5 169.5q0 206 310 334l135 -50q-263 -115 -263 -249q0 -51 30 -77.5t81 -26.5q91 0 171 85l101 -141q-61 -63 -144 -94.5t-168 -25.5z" />
<glyph unicode="&#x2dc;" horiz-adv-x="923" d="M629 1230q-121 0 -200 118q-28 43 -62 43q-39 0 -59 -41.5t-20 -107.5h-160q0 135 62.5 220.5t169.5 85.5q122 0 201 -118q10 -14 16.5 -21.5t19.5 -14.5t29 -7q76 0 76 149h161q0 -134 -61.5 -220t-172.5 -86z" />
<glyph unicode="&#x2dd;" horiz-adv-x="508" d="M114 1126l-105 115l309 334l138 -155z" />
<glyph unicode="&#x300;" d="M-129 1130l-345 290l139 155l305 -335z" />
<glyph unicode="&#x301;" d="M-374 1126l-105 115l309 334l138 -155z" />
<glyph unicode="&#x302;" d="M-597 1161l-120 76l239 299h191l242 -299l-121 -76l-215 210z" />
<glyph unicode="&#x303;" d="M-328 1230q-121 0 -200 118q-28 43 -62 43q-39 0 -59 -41.5t-20 -107.5h-160q0 135 62.5 220.5t169.5 85.5q122 0 201 -118q10 -14 16.5 -21.5t19.5 -14.5t29 -7q76 0 76 149h161q0 -134 -61.5 -220t-172.5 -86z" />
<glyph unicode="&#x304;" d="M-774 1211v171h635v-171h-635z" />
<glyph unicode="&#x306;" d="M-446 1183q-166 0 -265 90t-99 260h177q0 -76 50 -130.5t137 -54.5t137.5 54.5t50.5 130.5h177q0 -170 -99 -260t-266 -90z" />
<glyph unicode="&#x307;" d="M-248 1181q-58 0 -101 43t-43 101q0 60 43 102.5t101 42.5q60 0 103 -42.5t43 -102.5q0 -59 -43 -101.5t-103 -42.5z" />
<glyph unicode="&#x308;" d="M-666 1132q-59 0 -102 42.5t-43 102.5t43 102t102 42q60 0 103 -42t43 -102t-43 -102.5t-103 -42.5zM-246 1132q-60 0 -102.5 42.5t-42.5 102.5t42.5 102t102.5 42t102 -42t42 -102t-42 -102.5t-102 -42.5z" />
<glyph unicode="&#x309;" d="M-389 1051v191q145 24 145 123q0 36 -22.5 60t-64.5 24q-60 0 -113 -50l-89 132q92 75 205 75q108 0 181.5 -67.5t73.5 -172.5q0 -74 -41 -132.5t-123 -80.5v-102h-152z" />
<glyph unicode="&#x30a;" d="M-315 1099q-100 0 -171.5 71.5t-71.5 170.5t71.5 169.5t171.5 70.5q99 0 169 -70.5t70 -169.5t-70 -170.5t-169 -71.5zM-315 1223q50 0 83.5 33t33.5 85q0 48 -34.5 84t-82.5 36q-49 0 -82 -36t-33 -84q0 -52 32.5 -85t82.5 -33z" />
<glyph unicode="&#x30b;" d="M-842 1151l-117 131l350 329l134 -149zM-395 1151l-118 131l350 329l133 -149z" />
<glyph unicode="&#x30c;" d="M-480 1161l-238 300l117 74l218 -209l218 209l118 -74l-242 -300h-191z" />
<glyph unicode="&#x312;" d="M-222 1391q46 -17 76.5 -59.5t30.5 -92.5q0 -67 -48.5 -116t-115.5 -49q-69 0 -116.5 48t-47.5 117q0 33 15 68l190 449h135z" />
<glyph unicode="&#x31b;" d="M-309 784q-106 0 -213 68l61 50q52 -29 96 -29q114 0 99 133l-13 152h166v-124q0 -128 -56.5 -189t-139.5 -61z" />
<glyph unicode="&#x323;" d="M-250 -496q-60 0 -104 43.5t-44 104.5t44 105t104 44q61 0 105 -44t44 -105t-44 -104.5t-105 -43.5z" />
<glyph unicode="&#x326;" d="M-318 -285l-141 63l213 479l211 -99z" />
<glyph unicode="&#x327;" d="M-292 -532q-76 0 -146 44.5t-94 108.5l131 44q15 -25 47 -43t62 -18q36 0 61 25.5t25 62.5q0 57 -49 74t-119 -16l-106 62l102 192h139l-69 -126q100 18 170 -36.5t70 -149.5q0 -94 -65 -159t-159 -65z" />
<glyph unicode="&#x328;" d="M-341 -529q-118 8 -185.5 75.5t-67.5 169.5q0 206 310 334l135 -50q-263 -115 -263 -249q0 -51 30 -77.5t81 -26.5q91 0 171 85l101 -141q-61 -63 -144 -94.5t-168 -25.5z" />
<glyph unicode="&#x335;" d="M-826 424v178h688v-178h-688z" />
<glyph unicode="&#x336;" d="M-1653 468v129h1516v-129h-1516z" />
<glyph unicode="&#x337;" d="M-689 229v191l651 483v-193z" />
<glyph unicode="&#x338;" d="M-1270 -38l1158 1661l132 -80l-1157 -1660z" />
<glyph unicode="&#x394;" horiz-adv-x="1593" d="M953 1536l616 -1536h-1545l616 1536h313zM429 267h736l-368 957z" />
<glyph unicode="&#x3a9;" horiz-adv-x="1752" d="M96 0v245h254v9q-88 90 -154 246t-66 330q0 150 54.5 281t151 226.5t238 150.5t307.5 55q173 0 316 -59t235 -158.5t142 -226.5t50 -267q0 -166 -65 -324.5t-162 -253.5v-9h259v-245h-664v184q135 77 220.5 230t85.5 358q0 149 -47.5 266t-143 186t-224.5 69 q-190 0 -309.5 -144t-119.5 -379q0 -204 89.5 -362.5t219.5 -223.5v-184h-667z" />
<glyph unicode="&#x3bc;" horiz-adv-x="1229" d="M800 963h286v-963h-286v107q-114 -125 -279 -125q-88 0 -168 39v-502h-210v1444h289v-556q0 -73 51 -124t124 -51q81 0 137 51t56 124v556z" />
<glyph unicode="&#x3c0;" horiz-adv-x="1303" d="M140 0q50 153 88.5 374t41.5 374q-145 0 -214 -24l-31 175q85 64 348 64h905l-22 -215h-152v-458q0 -186 26 -290h-260q-34 50 -34 275v473h-301q-8 -174 -46 -401.5t-89 -346.5h-260z" />
<glyph unicode="&#x1e80;" horiz-adv-x="2136" d="M1182 1752l-99 -110l-345 290l139 155zM1811 1536h318l-563 -1536h-301l-197 496l-198 -496h-301l-562 1536h317l413 -1204l191 516l-274 688h298l116 -311l115 311h299l-274 -689l191 -515z" />
<glyph unicode="&#x1e81;" horiz-adv-x="1585" d="M913 1179l-99 -110l-345 290l139 155zM1279 963h298l-330 -964h-252l-203 616l-206 -616h-253l-325 964h296l179 -607l205 607h207l204 -608z" />
<glyph unicode="&#x1e82;" horiz-adv-x="2136" d="M1395 1932l-342 -294l-105 115l309 334zM1811 1536h318l-563 -1536h-301l-197 496l-198 -496h-301l-562 1536h317l413 -1204l191 516l-274 688h298l116 -311l115 311h299l-274 -689l191 -515z" />
<glyph unicode="&#x1e83;" horiz-adv-x="1585" d="M1126 1359l-342 -294l-105 115l309 334zM1279 963h298l-330 -964h-252l-203 616l-206 -616h-253l-325 964h296l179 -607l205 607h207l204 -608z" />
<glyph unicode="&#x1e84;" horiz-adv-x="2136" d="M859 1644q-59 0 -102 42t-43 102t43 102t102 42q60 0 103 -42t43 -102t-43 -102t-103 -42zM1279 1644q-60 0 -102.5 42t-42.5 102t42.5 102t102.5 42t102 -41.5t42 -102.5q0 -60 -42 -102t-102 -42zM1811 1536h318l-563 -1536h-301l-197 496l-198 -496h-301l-562 1536 h317l413 -1204l191 516l-274 688h298l116 -311l115 311h299l-274 -689l191 -515z" />
<glyph unicode="&#x1e85;" horiz-adv-x="1585" d="M590 1132q-59 0 -102 42.5t-43 102.5t43 102t102 42q60 0 103 -42t43 -102t-43 -102.5t-103 -42.5zM1010 1132q-60 0 -102.5 42.5t-42.5 102.5t42.5 102t102.5 42t102 -42t42 -102t-42 -102.5t-102 -42.5zM1279 963h298l-330 -964h-252l-203 616l-206 -616h-253l-325 964 h296l179 -607l205 607h207l204 -608z" />
<glyph unicode="&#x1ea0;" horiz-adv-x="1479" d="M1470 0h-329l-81 237h-642l-81 -237h-327l585 1536h287zM505 489h469l-235 685zM740 -118q61 0 105 -44t44 -105t-44 -104.5t-105 -43.5q-60 0 -104 43.5t-44 104.5t44 105t104 44z" />
<glyph unicode="&#x1ea1;" horiz-adv-x="1258" d="M827 963h289v-963h-264l-10 132q-114 -152 -318 -152q-124 0 -229.5 64t-169 180.5t-63.5 259.5q0 142 63.5 258t169 180t229.5 64q191 0 303 -136v113zM598 230q103 0 175.5 74t72.5 180t-72 179t-176 73t-175.5 -73t-71.5 -179t72 -180t175 -74zM628 -118q61 0 105 -44 t44 -105t-44 -104.5t-105 -43.5q-60 0 -104 43.5t-44 104.5t44 105t104 44z" />
<glyph unicode="&#x1ea2;" horiz-adv-x="1479" d="M722 2022q-60 0 -113 -50l-89 132q92 75 205 75q108 0 181.5 -67.5t73.5 -172.5q0 -74 -41 -132.5t-123 -80.5v-102h-152v191q145 24 145 123q0 36 -22.5 60t-64.5 24zM1141 0l-81 237h-642l-81 -237h-327l585 1536h287l588 -1536h-329zM505 489h469l-235 685z" />
<glyph unicode="&#x1ea3;" horiz-adv-x="1258" d="M571 1452q-60 0 -113 -50l-89 132q92 75 205 75q108 0 181.5 -67.5t73.5 -172.5q0 -74 -41 -132.5t-123 -80.5v-102h-152v191q145 24 145 123q0 36 -22.5 60t-64.5 24zM827 963h289v-963h-264l-10 132q-114 -152 -318 -152q-124 0 -229.5 64t-169 180.5t-63.5 259.5 q0 142 63.5 258t169 180t229.5 64q191 0 303 -136v113zM598 230q103 0 175.5 74t72.5 180t-72 179t-176 73t-175.5 -73t-71.5 -179t72 -180t175 -74z" />
<glyph unicode="&#x1ea4;" horiz-adv-x="1479" d="M1065 2403l-342 -294l-105 115l309 334zM740 1842l-216 -210l-120 76l239 299h191l242 -299l-121 -76zM1141 0l-81 237h-642l-81 -237h-327l585 1536h287l588 -1536h-329zM505 489h469l-235 685z" />
<glyph unicode="&#x1ea5;" horiz-adv-x="1258" d="M914 1833l-342 -294l-105 115l309 334zM589 1272l-216 -210l-120 76l239 299h191l242 -299l-121 -76zM827 963h289v-963h-264l-10 132q-114 -152 -318 -152q-124 0 -229.5 64t-169 180.5t-63.5 259.5q0 142 63.5 258t169 180t229.5 64q191 0 303 -136v113zM598 230 q103 0 175.5 74t72.5 180t-72 179t-176 73t-175.5 -73t-71.5 -179t72 -180t175 -74z" />
<glyph unicode="&#x1ea6;" horiz-adv-x="1479" d="M852 2223l-99 -110l-345 290l139 155zM740 1842l-216 -210l-120 76l239 299h191l242 -299l-121 -76zM1141 0l-81 237h-642l-81 -237h-327l585 1536h287l588 -1536h-329zM505 489h469l-235 685z" />
<glyph unicode="&#x1ea7;" horiz-adv-x="1258" d="M701 1653l-99 -110l-345 290l139 155zM589 1272l-216 -210l-120 76l239 299h191l242 -299l-121 -76zM827 963h289v-963h-264l-10 132q-114 -152 -318 -152q-124 0 -229.5 64t-169 180.5t-63.5 259.5q0 142 63.5 258t169 180t229.5 64q191 0 303 -136v113zM598 230 q103 0 175.5 74t72.5 180t-72 179t-176 73t-175.5 -73t-71.5 -179t72 -180t175 -74z" />
<glyph unicode="&#x1ea8;" horiz-adv-x="1479" d="M721 2493q-60 0 -113 -50l-89 132q92 75 205 75q108 0 181.5 -67.5t73.5 -172.5q0 -74 -41 -132.5t-123 -80.5v-102h-152v191q145 24 145 123q0 36 -22.5 60t-64.5 24zM740 1842l-216 -210l-120 76l239 299h191l242 -299l-121 -76zM1141 0l-81 237h-642l-81 -237h-327 l585 1536h287l588 -1536h-329zM505 489h469l-235 685z" />
<glyph unicode="&#x1ea9;" horiz-adv-x="1258" d="M570 1923q-60 0 -113 -50l-89 132q92 75 205 75q108 0 181.5 -67.5t73.5 -172.5q0 -74 -41 -132.5t-123 -80.5v-102h-152v191q145 24 145 123q0 36 -22.5 60t-64.5 24zM589 1272l-216 -210l-120 76l239 299h191l242 -299l-121 -76zM827 963h289v-963h-264l-10 132 q-114 -152 -318 -152q-124 0 -229.5 64t-169 180.5t-63.5 259.5q0 142 63.5 258t169 180t229.5 64q191 0 303 -136v113zM598 230q103 0 175.5 74t72.5 180t-72 179t-176 73t-175.5 -73t-71.5 -179t72 -180t175 -74z" />
<glyph unicode="&#x1eaa;" horiz-adv-x="1479" d="M610 2261q-39 0 -59 -41.5t-20 -107.5h-160q0 135 62.5 220.5t169.5 85.5q122 0 201 -118q10 -14 16.5 -21.5t19.5 -14.5t29 -7q76 0 76 149h161q0 -134 -61.5 -220t-172.5 -86q-121 0 -200 118q-28 43 -62 43zM643 2007h191l242 -299l-121 -76l-215 210l-216 -210 l-120 76zM1141 0l-81 237h-642l-81 -237h-327l585 1536h287l588 -1536h-329zM505 489h469l-235 685z" />
<glyph unicode="&#x1eab;" horiz-adv-x="1258" d="M459 1691q-39 0 -59 -41.5t-20 -107.5h-160q0 135 62.5 220.5t169.5 85.5q122 0 201 -118q10 -14 16.5 -21.5t19.5 -14.5t29 -7q76 0 76 149h161q0 -134 -61.5 -220t-172.5 -86q-121 0 -200 118q-28 43 -62 43zM492 1437h191l242 -299l-121 -76l-215 210l-216 -210 l-120 76zM827 963h289v-963h-264l-10 132q-114 -152 -318 -152q-124 0 -229.5 64t-169 180.5t-63.5 259.5q0 142 63.5 258t169 180t229.5 64q191 0 303 -136v113zM598 230q103 0 175.5 74t72.5 180t-72 179t-176 73t-175.5 -73t-71.5 -179t72 -180t175 -74z" />
<glyph unicode="&#x1eac;" horiz-adv-x="1479" d="M740 1842l-216 -210l-120 76l239 299h191l242 -299l-121 -76zM1470 0h-329l-81 237h-642l-81 -237h-327l585 1536h287zM505 489h469l-235 685zM740 -118q61 0 105 -44t44 -105t-44 -104.5t-105 -43.5q-60 0 -104 43.5t-44 104.5t44 105t104 44z" />
<glyph unicode="&#x1ead;" horiz-adv-x="1258" d="M589 1272l-216 -210l-120 76l239 299h191l242 -299l-121 -76zM827 963h289v-963h-264l-10 132q-114 -152 -318 -152q-124 0 -229.5 64t-169 180.5t-63.5 259.5q0 142 63.5 258t169 180t229.5 64q191 0 303 -136v113zM598 230q103 0 175.5 74t72.5 180t-72 179t-176 73 t-175.5 -73t-71.5 -179t72 -180t175 -74zM628 -118q61 0 105 -44t44 -105t-44 -104.5t-105 -43.5q-60 0 -104 43.5t-44 104.5t44 105t104 44z" />
<glyph unicode="&#x1eae;" horiz-adv-x="1479" d="M1066 2414l-342 -294l-105 115l309 334zM740 1695q-166 0 -265 90t-99 260h177q0 -76 50 -130.5t137 -54.5t137.5 54.5t50.5 130.5h177q0 -170 -99 -260t-266 -90zM1141 0l-81 237h-642l-81 -237h-327l585 1536h287l588 -1536h-329zM505 489h469l-235 685z" />
<glyph unicode="&#x1eaf;" horiz-adv-x="1258" d="M915 1844l-342 -294l-105 115l309 334zM589 1125q-166 0 -265 90t-99 260h177q0 -76 50 -130.5t137 -54.5t137.5 54.5t50.5 130.5h177q0 -170 -99 -260t-266 -90zM827 963h289v-963h-264l-10 132q-114 -152 -318 -152q-124 0 -229.5 64t-169 180.5t-63.5 259.5 q0 142 63.5 258t169 180t229.5 64q191 0 303 -136v113zM598 230q103 0 175.5 74t72.5 180t-72 179t-176 73t-175.5 -73t-71.5 -179t72 -180t175 -74z" />
<glyph unicode="&#x1eb0;" horiz-adv-x="1479" d="M853 2234l-99 -110l-345 290l139 155zM740 1695q-166 0 -265 90t-99 260h177q0 -76 50 -130.5t137 -54.5t137.5 54.5t50.5 130.5h177q0 -170 -99 -260t-266 -90zM1141 0l-81 237h-642l-81 -237h-327l585 1536h287l588 -1536h-329zM505 489h469l-235 685z" />
<glyph unicode="&#x1eb1;" horiz-adv-x="1258" d="M702 1664l-99 -110l-345 290l139 155zM589 1125q-166 0 -265 90t-99 260h177q0 -76 50 -130.5t137 -54.5t137.5 54.5t50.5 130.5h177q0 -170 -99 -260t-266 -90zM827 963h289v-963h-264l-10 132q-114 -152 -318 -152q-124 0 -229.5 64t-169 180.5t-63.5 259.5 q0 142 63.5 258t169 180t229.5 64q191 0 303 -136v113zM598 230q103 0 175.5 74t72.5 180t-72 179t-176 73t-175.5 -73t-71.5 -179t72 -180t175 -74z" />
<glyph unicode="&#x1eb2;" horiz-adv-x="1479" d="M722 2504q-60 0 -113 -50l-89 132q92 75 205 75q108 0 181.5 -67.5t73.5 -172.5q0 -74 -41 -132.5t-123 -80.5v-102h-152v191q145 24 145 123q0 36 -22.5 60t-64.5 24zM740 1695q-166 0 -265 90t-99 260h177q0 -76 50 -130.5t137 -54.5t137.5 54.5t50.5 130.5h177 q0 -170 -99 -260t-266 -90zM1141 0l-81 237h-642l-81 -237h-327l585 1536h287l588 -1536h-329zM505 489h469l-235 685z" />
<glyph unicode="&#x1eb3;" horiz-adv-x="1258" d="M571 1934q-60 0 -113 -50l-89 132q92 75 205 75q108 0 181.5 -67.5t73.5 -172.5q0 -74 -41 -132.5t-123 -80.5v-102h-152v191q145 24 145 123q0 36 -22.5 60t-64.5 24zM589 1125q-166 0 -265 90t-99 260h177q0 -76 50 -130.5t137 -54.5t137.5 54.5t50.5 130.5h177 q0 -170 -99 -260t-266 -90zM827 963h289v-963h-264l-10 132q-114 -152 -318 -152q-124 0 -229.5 64t-169 180.5t-63.5 259.5q0 142 63.5 258t169 180t229.5 64q191 0 303 -136v113zM598 230q103 0 175.5 74t72.5 180t-72 179t-176 73t-175.5 -73t-71.5 -179t72 -180t175 -74 z" />
<glyph unicode="&#x1eb4;" horiz-adv-x="1479" d="M611 2272q-39 0 -59 -41.5t-20 -107.5h-160q0 135 62.5 220.5t169.5 85.5q122 0 201 -118q10 -14 16.5 -21.5t19.5 -14.5t29 -7q76 0 76 149h161q0 -134 -61.5 -220t-172.5 -86q-121 0 -200 118q-28 43 -62 43zM740 1860q87 0 137.5 54.5t50.5 130.5h177q0 -170 -99 -260 t-266 -90q-166 0 -265 90t-99 260h177q0 -76 50 -130.5t137 -54.5zM1141 0l-81 237h-642l-81 -237h-327l585 1536h287l588 -1536h-329zM505 489h469l-235 685z" />
<glyph unicode="&#x1eb5;" horiz-adv-x="1258" d="M460 1702q-39 0 -59 -41.5t-20 -107.5h-160q0 135 62.5 220.5t169.5 85.5q122 0 201 -118q10 -14 16.5 -21.5t19.5 -14.5t29 -7q76 0 76 149h161q0 -134 -61.5 -220t-172.5 -86q-121 0 -200 118q-28 43 -62 43zM589 1290q87 0 137.5 54.5t50.5 130.5h177q0 -170 -99 -260 t-266 -90q-166 0 -265 90t-99 260h177q0 -76 50 -130.5t137 -54.5zM827 963h289v-963h-264l-10 132q-114 -152 -318 -152q-124 0 -229.5 64t-169 180.5t-63.5 259.5q0 142 63.5 258t169 180t229.5 64q191 0 303 -136v113zM598 230q103 0 175.5 74t72.5 180t-72 179t-176 73 t-175.5 -73t-71.5 -179t72 -180t175 -74z" />
<glyph unicode="&#x1eb6;" horiz-adv-x="1479" d="M740 1695q-166 0 -265 90t-99 260h177q0 -76 50 -130.5t137 -54.5t137.5 54.5t50.5 130.5h177q0 -170 -99 -260t-266 -90zM1470 0h-329l-81 237h-642l-81 -237h-327l585 1536h287zM505 489h469l-235 685zM740 -118q61 0 105 -44t44 -105t-44 -104.5t-105 -43.5 q-60 0 -104 43.5t-44 104.5t44 105t104 44z" />
<glyph unicode="&#x1eb7;" horiz-adv-x="1258" d="M589 1125q-166 0 -265 90t-99 260h177q0 -76 50 -130.5t137 -54.5t137.5 54.5t50.5 130.5h177q0 -170 -99 -260t-266 -90zM827 963h289v-963h-264l-10 132q-114 -152 -318 -152q-124 0 -229.5 64t-169 180.5t-63.5 259.5q0 142 63.5 258t169 180t229.5 64q191 0 303 -136 v113zM598 230q103 0 175.5 74t72.5 180t-72 179t-176 73t-175.5 -73t-71.5 -179t72 -180t175 -74zM628 -118q61 0 105 -44t44 -105t-44 -104.5t-105 -43.5q-60 0 -104 43.5t-44 104.5t44 105t104 44z" />
<glyph unicode="&#x1eb8;" horiz-adv-x="1211" d="M1109 1270h-632v-369h546v-266h-546v-369h632v-266h-930v1536h930v-266zM644 -118q61 0 105 -44t44 -105t-44 -104.5t-105 -43.5q-60 0 -104 43.5t-44 104.5t44 105t104 44z" />
<glyph unicode="&#x1eb9;" horiz-adv-x="1121" d="M1065 492v-64h-718q15 -105 77.5 -162.5t156.5 -57.5q71 0 129.5 32.5t92.5 94.5l227 -94q-57 -121 -174 -190t-274 -69q-233 0 -378 142.5t-145 355.5q0 104 38 196.5t105 160t163 106.5t206 39q213 0 353.5 -135t140.5 -355zM574 762q-79 0 -134 -39.5t-79 -111.5h410 q-46 151 -197 151zM594 -119q61 0 105 -44t44 -105t-44 -104.5t-105 -43.5q-60 0 -104 43.5t-44 104.5t44 105t104 44z" />
<glyph unicode="&#x1eba;" horiz-adv-x="1211" d="M626 2022q-60 0 -113 -50l-89 132q92 75 205 75q108 0 181.5 -67.5t73.5 -172.5q0 -74 -41 -132.5t-123 -80.5v-102h-152v191q145 24 145 123q0 36 -22.5 60t-64.5 24zM1109 1270h-632v-369h546v-266h-546v-369h632v-266h-930v1536h930v-266z" />
<glyph unicode="&#x1ebb;" horiz-adv-x="1121" d="M564 1453q-60 0 -113 -50l-89 132q92 75 205 75q108 0 181.5 -67.5t73.5 -172.5q0 -74 -41 -132.5t-123 -80.5v-102h-152v191q145 24 145 123q0 36 -22.5 60t-64.5 24zM1065 492v-64h-718q15 -105 77.5 -162.5t156.5 -57.5q71 0 129.5 32.5t92.5 94.5l227 -94 q-57 -121 -174 -190t-274 -69q-233 0 -378 142.5t-145 355.5q0 104 38 196.5t105 160t163 106.5t206 39q213 0 353.5 -135t140.5 -355zM574 762q-79 0 -134 -39.5t-79 -111.5h410q-46 151 -197 151z" />
<glyph unicode="&#x1ebc;" horiz-adv-x="1211" d="M515 1790q-39 0 -59 -41.5t-20 -107.5h-160q0 135 62.5 220.5t169.5 85.5q122 0 201 -118q10 -14 16.5 -21.5t19.5 -14.5t29 -7q76 0 76 149h161q0 -134 -61.5 -220t-172.5 -86q-121 0 -200 118q-28 43 -62 43zM1109 1270h-632v-369h546v-266h-546v-369h632v-266h-930 v1536h930v-266z" />
<glyph unicode="&#x1ebd;" horiz-adv-x="1121" d="M453 1221q-39 0 -59 -41.5t-20 -107.5h-160q0 135 62.5 220.5t169.5 85.5q122 0 201 -118q10 -14 16.5 -21.5t19.5 -14.5t29 -7q76 0 76 149h161q0 -134 -61.5 -220t-172.5 -86q-121 0 -200 118q-28 43 -62 43zM1065 492v-64h-718q15 -105 77.5 -162.5t156.5 -57.5 q71 0 129.5 32.5t92.5 94.5l227 -94q-57 -121 -174 -190t-274 -69q-233 0 -378 142.5t-145 355.5q0 104 38 196.5t105 160t163 106.5t206 39q213 0 353.5 -135t140.5 -355zM574 762q-79 0 -134 -39.5t-79 -111.5h410q-46 151 -197 151z" />
<glyph unicode="&#x1ebe;" horiz-adv-x="1211" d="M969 2403l-342 -294l-105 115l309 334zM644 1842l-216 -210l-120 76l239 299h191l242 -299l-121 -76zM1109 1270h-632v-369h546v-266h-546v-369h632v-266h-930v1536h930v-266z" />
<glyph unicode="&#x1ebf;" horiz-adv-x="1121" d="M907 1834l-342 -294l-105 115l309 334zM582 1273l-216 -210l-120 76l239 299h191l242 -299l-121 -76zM1065 492v-64h-718q15 -105 77.5 -162.5t156.5 -57.5q71 0 129.5 32.5t92.5 94.5l227 -94q-57 -121 -174 -190t-274 -69q-233 0 -378 142.5t-145 355.5q0 104 38 196.5 t105 160t163 106.5t206 39q213 0 353.5 -135t140.5 -355zM574 762q-79 0 -134 -39.5t-79 -111.5h410q-46 151 -197 151z" />
<glyph unicode="&#x1ec0;" horiz-adv-x="1211" d="M756 2223l-99 -110l-345 290l139 155zM644 1842l-216 -210l-120 76l239 299h191l242 -299l-121 -76zM1109 1270h-632v-369h546v-266h-546v-369h632v-266h-930v1536h930v-266z" />
<glyph unicode="&#x1ec1;" horiz-adv-x="1121" d="M694 1654l-99 -110l-345 290l139 155zM582 1273l-216 -210l-120 76l239 299h191l242 -299l-121 -76zM1065 492v-64h-718q15 -105 77.5 -162.5t156.5 -57.5q71 0 129.5 32.5t92.5 94.5l227 -94q-57 -121 -174 -190t-274 -69q-233 0 -378 142.5t-145 355.5q0 104 38 196.5 t105 160t163 106.5t206 39q213 0 353.5 -135t140.5 -355zM574 762q-79 0 -134 -39.5t-79 -111.5h410q-46 151 -197 151z" />
<glyph unicode="&#x1ec2;" horiz-adv-x="1211" d="M625 2493q-60 0 -113 -50l-89 132q92 75 205 75q108 0 181.5 -67.5t73.5 -172.5q0 -74 -41 -132.5t-123 -80.5v-102h-152v191q145 24 145 123q0 36 -22.5 60t-64.5 24zM644 1842l-216 -210l-120 76l239 299h191l242 -299l-121 -76zM1109 1270h-632v-369h546v-266h-546 v-369h632v-266h-930v1536h930v-266z" />
<glyph unicode="&#x1ec3;" horiz-adv-x="1121" d="M563 1924q-60 0 -113 -50l-89 132q92 75 205 75q108 0 181.5 -67.5t73.5 -172.5q0 -74 -41 -132.5t-123 -80.5v-102h-152v191q145 24 145 123q0 36 -22.5 60t-64.5 24zM582 1273l-216 -210l-120 76l239 299h191l242 -299l-121 -76zM1065 492v-64h-718 q15 -105 77.5 -162.5t156.5 -57.5q71 0 129.5 32.5t92.5 94.5l227 -94q-57 -121 -174 -190t-274 -69q-233 0 -378 142.5t-145 355.5q0 104 38 196.5t105 160t163 106.5t206 39q213 0 353.5 -135t140.5 -355zM574 762q-79 0 -134 -39.5t-79 -111.5h410q-46 151 -197 151z" />
<glyph unicode="&#x1ec4;" horiz-adv-x="1211" d="M514 2261q-39 0 -59 -41.5t-20 -107.5h-160q0 135 62.5 220.5t169.5 85.5q122 0 201 -118q10 -14 16.5 -21.5t19.5 -14.5t29 -7q76 0 76 149h161q0 -134 -61.5 -220t-172.5 -86q-121 0 -200 118q-28 43 -62 43zM547 2007h191l242 -299l-121 -76l-215 210l-216 -210 l-120 76zM1109 1270h-632v-369h546v-266h-546v-369h632v-266h-930v1536h930v-266z" />
<glyph unicode="&#x1ec5;" horiz-adv-x="1121" d="M452 1692q-39 0 -59 -41.5t-20 -107.5h-160q0 135 62.5 220.5t169.5 85.5q122 0 201 -118q10 -14 16.5 -21.5t19.5 -14.5t29 -7q76 0 76 149h161q0 -134 -61.5 -220t-172.5 -86q-121 0 -200 118q-28 43 -62 43zM485 1438h191l242 -299l-121 -76l-215 210l-216 -210 l-120 76zM1065 492v-64h-718q15 -105 77.5 -162.5t156.5 -57.5q71 0 129.5 32.5t92.5 94.5l227 -94q-57 -121 -174 -190t-274 -69q-233 0 -378 142.5t-145 355.5q0 104 38 196.5t105 160t163 106.5t206 39q213 0 353.5 -135t140.5 -355zM574 762q-79 0 -134 -39.5 t-79 -111.5h410q-46 151 -197 151z" />
<glyph unicode="&#x1ec6;" horiz-adv-x="1211" d="M644 1842l-216 -210l-120 76l239 299h191l242 -299l-121 -76zM1109 1270h-632v-369h546v-266h-546v-369h632v-266h-930v1536h930v-266zM644 -118q61 0 105 -44t44 -105t-44 -104.5t-105 -43.5q-60 0 -104 43.5t-44 104.5t44 105t104 44z" />
<glyph unicode="&#x1ec7;" horiz-adv-x="1121" d="M582 1273l-216 -210l-120 76l239 299h191l242 -299l-121 -76zM1065 492v-64h-718q15 -105 77.5 -162.5t156.5 -57.5q71 0 129.5 32.5t92.5 94.5l227 -94q-57 -121 -174 -190t-274 -69q-233 0 -378 142.5t-145 355.5q0 104 38 196.5t105 160t163 106.5t206 39 q213 0 353.5 -135t140.5 -355zM574 762q-79 0 -134 -39.5t-79 -111.5h410q-46 151 -197 151zM594 -119q61 0 105 -44t44 -105t-44 -104.5t-105 -43.5q-60 0 -104 43.5t-44 104.5t44 105t104 44z" />
<glyph unicode="&#x1ec8;" horiz-adv-x="656" d="M250 1624v191q145 24 145 123q0 36 -22.5 60t-64.5 24q-60 0 -113 -50l-89 132q92 75 205 75q108 0 181.5 -67.5t73.5 -172.5q0 -74 -41 -132.5t-123 -80.5v-102h-152zM179 0v1536h298v-1536h-298z" />
<glyph unicode="&#x1ec9;" horiz-adv-x="575" d="M212 1051v191q145 24 145 123q0 36 -22.5 60t-64.5 24q-60 0 -113 -50l-89 132q92 75 205 75q108 0 181.5 -67.5t73.5 -172.5q0 -74 -41 -132.5t-123 -80.5v-102h-152zM143 0v963h289v-963h-289z" />
<glyph unicode="&#x1eca;" horiz-adv-x="656" d="M179 0v1536h298v-1536h-298zM326 -415q-60 0 -104 43.5t-44 104.5t44 105t104 44q61 0 105 -44t44 -105t-44 -104.5t-105 -43.5z" />
<glyph unicode="&#x1ecb;" horiz-adv-x="573" d="M288 1127q-67 0 -114.5 47.5t-47.5 113.5q0 67 47.5 113.5t114.5 46.5q66 0 113.5 -47t47.5 -113t-48 -113.5t-113 -47.5zM143 0v963h287v-963h-287zM248 -496q-60 0 -104 43.5t-44 104.5t44 105t104 44q61 0 105 -44t44 -105t-44 -104.5t-105 -43.5z" />
<glyph unicode="&#x1ecc;" horiz-adv-x="1726" d="M863 -20q-214 0 -395.5 105.5t-287 287t-105.5 395.5t105.5 395.5t287 287t395.5 105.5q161 0 307 -62.5t251.5 -167.5t168 -251t62.5 -307t-62.5 -307t-168 -251t-251.5 -167.5t-307 -62.5zM863 268q211 0 355.5 144t144.5 356t-144.5 356t-355.5 144t-355.5 -144.5 t-144.5 -355.5t144.5 -355.5t355.5 -144.5zM863 -415q-60 0 -104 43.5t-44 104.5t44 105t104 44q61 0 105 -44t44 -105t-44 -104.5t-105 -43.5z" />
<glyph unicode="&#x1ecd;" horiz-adv-x="1140" d="M570 -18q-219 0 -366 144.5t-147 354.5q0 138 66.5 252.5t184.5 181t262 66.5q218 0 365.5 -145t147.5 -355t-147.5 -354.5t-365.5 -144.5zM569 235q101 0 169.5 70t68.5 176q0 107 -68.5 177.5t-169.5 70.5t-169.5 -70t-68.5 -178t68.5 -177t169.5 -69zM570 -415 q-60 0 -104 43.5t-44 104.5t44 105t104 44q61 0 105 -44t44 -105t-44 -104.5t-105 -43.5z" />
<glyph unicode="&#x1ece;" horiz-adv-x="1726" d="M787 1624v191q145 24 145 123q0 36 -22.5 60t-64.5 24q-60 0 -113 -50l-89 132q92 75 205 75q108 0 181.5 -67.5t73.5 -172.5q0 -74 -41 -132.5t-123 -80.5v-102h-152zM863 -20q-214 0 -395.5 105.5t-287 287t-105.5 395.5t105.5 395.5t287 287t395.5 105.5 q161 0 307 -62.5t251.5 -167.5t168 -251t62.5 -307t-62.5 -307t-168 -251t-251.5 -167.5t-307 -62.5zM863 268q211 0 355.5 144t144.5 356t-144.5 356t-355.5 144t-355.5 -144.5t-144.5 -355.5t144.5 -355.5t355.5 -144.5z" />
<glyph unicode="&#x1ecf;" horiz-adv-x="1140" d="M494 1049v191q145 24 145 123q0 36 -22.5 60t-64.5 24q-60 0 -113 -50l-89 132q92 75 205 75q108 0 181.5 -67.5t73.5 -172.5q0 -74 -41 -132.5t-123 -80.5v-102h-152zM570 -18q-219 0 -366 144.5t-147 354.5q0 138 66.5 252.5t184.5 181t262 66.5q218 0 365.5 -145 t147.5 -355t-147.5 -354.5t-365.5 -144.5zM569 235q101 0 169.5 70t68.5 176q0 107 -68.5 177.5t-169.5 70.5t-169.5 -70t-68.5 -178t68.5 -177t169.5 -69z" />
<glyph unicode="&#x1ed0;" horiz-adv-x="1726" d="M846 2109l-105 115l309 334l138 -155zM647 1632l-120 76l239 299h191l242 -299l-121 -76l-215 210zM863 -20q-214 0 -395.5 105.5t-287 287t-105.5 395.5t105.5 395.5t287 287t395.5 105.5q161 0 307 -62.5t251.5 -167.5t168 -251t62.5 -307t-62.5 -307t-168 -251 t-251.5 -167.5t-307 -62.5zM863 268q211 0 355.5 144t144.5 356t-144.5 356t-355.5 144t-355.5 -144.5t-144.5 -355.5t144.5 -355.5t355.5 -144.5z" />
<glyph unicode="&#x1ed1;" horiz-adv-x="1140" d="M553 1534l-105 115l309 334l138 -155zM354 1057l-120 76l239 299h191l242 -299l-121 -76l-215 210zM570 -18q-219 0 -366 144.5t-147 354.5q0 138 66.5 252.5t184.5 181t262 66.5q218 0 365.5 -145t147.5 -355t-147.5 -354.5t-365.5 -144.5zM569 235q101 0 169.5 70 t68.5 176q0 107 -68.5 177.5t-169.5 70.5t-169.5 -70t-68.5 -178t68.5 -177t169.5 -69z" />
<glyph unicode="&#x1ed2;" horiz-adv-x="1726" d="M876 2113l-345 290l139 155l305 -335zM647 1632l-120 76l239 299h191l242 -299l-121 -76l-215 210zM863 -20q-214 0 -395.5 105.5t-287 287t-105.5 395.5t105.5 395.5t287 287t395.5 105.5q161 0 307 -62.5t251.5 -167.5t168 -251t62.5 -307t-62.5 -307t-168 -251 t-251.5 -167.5t-307 -62.5zM863 268q211 0 355.5 144t144.5 356t-144.5 356t-355.5 144t-355.5 -144.5t-144.5 -355.5t144.5 -355.5t355.5 -144.5z" />
<glyph unicode="&#x1ed3;" horiz-adv-x="1140" d="M583 1538l-345 290l139 155l305 -335zM354 1057l-120 76l239 299h191l242 -299l-121 -76l-215 210zM570 -18q-219 0 -366 144.5t-147 354.5q0 138 66.5 252.5t184.5 181t262 66.5q218 0 365.5 -145t147.5 -355t-147.5 -354.5t-365.5 -144.5zM569 235q101 0 169.5 70 t68.5 176q0 107 -68.5 177.5t-169.5 70.5t-169.5 -70t-68.5 -178t68.5 -177t169.5 -69z" />
<glyph unicode="&#x1ed4;" horiz-adv-x="1726" d="M786 2095v191q145 24 145 123q0 36 -22.5 60t-64.5 24q-60 0 -113 -50l-89 132q92 75 205 75q108 0 181.5 -67.5t73.5 -172.5q0 -74 -41 -132.5t-123 -80.5v-102h-152zM647 1632l-120 76l239 299h191l242 -299l-121 -76l-215 210zM863 -20q-214 0 -395.5 105.5t-287 287 t-105.5 395.5t105.5 395.5t287 287t395.5 105.5q161 0 307 -62.5t251.5 -167.5t168 -251t62.5 -307t-62.5 -307t-168 -251t-251.5 -167.5t-307 -62.5zM863 268q211 0 355.5 144t144.5 356t-144.5 356t-355.5 144t-355.5 -144.5t-144.5 -355.5t144.5 -355.5t355.5 -144.5z " />
<glyph unicode="&#x1ed5;" horiz-adv-x="1140" d="M493 1520v191q145 24 145 123q0 36 -22.5 60t-64.5 24q-60 0 -113 -50l-89 132q92 75 205 75q108 0 181.5 -67.5t73.5 -172.5q0 -74 -41 -132.5t-123 -80.5v-102h-152zM354 1057l-120 76l239 299h191l242 -299l-121 -76l-215 210zM570 -18q-219 0 -366 144.5t-147 354.5 q0 138 66.5 252.5t184.5 181t262 66.5q218 0 365.5 -145t147.5 -355t-147.5 -354.5t-365.5 -144.5zM569 235q101 0 169.5 70t68.5 176q0 107 -68.5 177.5t-169.5 70.5t-169.5 -70t-68.5 -178t68.5 -177t169.5 -69z" />
<glyph unicode="&#x1ed6;" horiz-adv-x="1726" d="M995 2100q-121 0 -200 118q-28 43 -62 43q-39 0 -59 -41.5t-20 -107.5h-160q0 135 62.5 220.5t169.5 85.5q122 0 201 -118q10 -14 16.5 -21.5t19.5 -14.5t29 -7q76 0 76 149h161q0 -134 -61.5 -220t-172.5 -86zM647 1632l-120 76l239 299h191l242 -299l-121 -76l-215 210 zM863 -20q-214 0 -395.5 105.5t-287 287t-105.5 395.5t105.5 395.5t287 287t395.5 105.5q161 0 307 -62.5t251.5 -167.5t168 -251t62.5 -307t-62.5 -307t-168 -251t-251.5 -167.5t-307 -62.5zM863 268q211 0 355.5 144t144.5 356t-144.5 356t-355.5 144t-355.5 -144.5 t-144.5 -355.5t144.5 -355.5t355.5 -144.5z" />
<glyph unicode="&#x1ed7;" horiz-adv-x="1140" d="M702 1525q-121 0 -200 118q-28 43 -62 43q-39 0 -59 -41.5t-20 -107.5h-160q0 135 62.5 220.5t169.5 85.5q122 0 201 -118q10 -14 16.5 -21.5t19.5 -14.5t29 -7q76 0 76 149h161q0 -134 -61.5 -220t-172.5 -86zM354 1057l-120 76l239 299h191l242 -299l-121 -76l-215 210 zM570 -18q-219 0 -366 144.5t-147 354.5q0 138 66.5 252.5t184.5 181t262 66.5q218 0 365.5 -145t147.5 -355t-147.5 -354.5t-365.5 -144.5zM569 235q101 0 169.5 70t68.5 176q0 107 -68.5 177.5t-169.5 70.5t-169.5 -70t-68.5 -178t68.5 -177t169.5 -69z" />
<glyph unicode="&#x1ed8;" horiz-adv-x="1726" d="M647 1632l-120 76l239 299h191l242 -299l-121 -76l-215 210zM863 -20q-214 0 -395.5 105.5t-287 287t-105.5 395.5t105.5 395.5t287 287t395.5 105.5q161 0 307 -62.5t251.5 -167.5t168 -251t62.5 -307t-62.5 -307t-168 -251t-251.5 -167.5t-307 -62.5zM863 268 q211 0 355.5 144t144.5 356t-144.5 356t-355.5 144t-355.5 -144.5t-144.5 -355.5t144.5 -355.5t355.5 -144.5zM863 -415q-60 0 -104 43.5t-44 104.5t44 105t104 44q61 0 105 -44t44 -105t-44 -104.5t-105 -43.5z" />
<glyph unicode="&#x1ed9;" horiz-adv-x="1140" d="M354 1057l-120 76l239 299h191l242 -299l-121 -76l-215 210zM570 -18q-219 0 -366 144.5t-147 354.5q0 138 66.5 252.5t184.5 181t262 66.5q218 0 365.5 -145t147.5 -355t-147.5 -354.5t-365.5 -144.5zM569 235q101 0 169.5 70t68.5 176q0 107 -68.5 177.5t-169.5 70.5 t-169.5 -70t-68.5 -178t68.5 -177t169.5 -69zM570 -415q-60 0 -104 43.5t-44 104.5t44 105t104 44q61 0 105 -44t44 -105t-44 -104.5t-105 -43.5z" />
<glyph unicode="&#x1eda;" horiz-adv-x="1726" d="M1189 1932l-342 -294l-105 115l309 334zM1574 1520h166v-124q0 -124 -52.5 -185t-131.5 -65q96 -176 96 -378q0 -161 -62.5 -307t-168 -251t-251.5 -167.5t-307 -62.5q-214 0 -395.5 105.5t-287 287t-105.5 395.5t105.5 395.5t287 287t395.5 105.5q192 0 359 -86 t277 -235q103 8 88 133zM863 268q211 0 355.5 144t144.5 356t-144.5 356t-355.5 144t-355.5 -144.5t-144.5 -355.5t144.5 -355.5t355.5 -144.5z" />
<glyph unicode="&#x1edb;" horiz-adv-x="1140" d="M896 1357l-342 -294l-105 115l309 334zM1074 1039h166v-124q0 -126 -55 -187t-136 -63q34 -88 34 -184q0 -210 -147.5 -354.5t-365.5 -144.5q-219 0 -366 144.5t-147 354.5q0 138 66.5 252.5t184.5 181t262 66.5q137 0 250.5 -60.5t181.5 -165.5q99 8 85 132zM569 235 q101 0 169.5 70t68.5 176q0 107 -68.5 177.5t-169.5 70.5t-169.5 -70t-68.5 -178t68.5 -177t169.5 -69z" />
<glyph unicode="&#x1edc;" horiz-adv-x="1726" d="M976 1752l-99 -110l-345 290l139 155zM1574 1520h166v-124q0 -124 -52.5 -185t-131.5 -65q96 -176 96 -378q0 -161 -62.5 -307t-168 -251t-251.5 -167.5t-307 -62.5q-214 0 -395.5 105.5t-287 287t-105.5 395.5t105.5 395.5t287 287t395.5 105.5q192 0 359 -86t277 -235 q103 8 88 133zM863 268q211 0 355.5 144t144.5 356t-144.5 356t-355.5 144t-355.5 -144.5t-144.5 -355.5t144.5 -355.5t355.5 -144.5z" />
<glyph unicode="&#x1edd;" horiz-adv-x="1140" d="M683 1177l-99 -110l-345 290l139 155zM1074 1039h166v-124q0 -126 -55 -187t-136 -63q34 -88 34 -184q0 -210 -147.5 -354.5t-365.5 -144.5q-219 0 -366 144.5t-147 354.5q0 138 66.5 252.5t184.5 181t262 66.5q137 0 250.5 -60.5t181.5 -165.5q99 8 85 132zM569 235 q101 0 169.5 70t68.5 176q0 107 -68.5 177.5t-169.5 70.5t-169.5 -70t-68.5 -178t68.5 -177t169.5 -69z" />
<glyph unicode="&#x1ede;" horiz-adv-x="1726" d="M845 2022q-60 0 -113 -50l-89 132q92 75 205 75q108 0 181.5 -67.5t73.5 -172.5q0 -74 -41 -132.5t-123 -80.5v-102h-152v191q145 24 145 123q0 36 -22.5 60t-64.5 24zM1574 1520h166v-124q0 -124 -52.5 -185t-131.5 -65q96 -176 96 -378q0 -161 -62.5 -307t-168 -251 t-251.5 -167.5t-307 -62.5q-214 0 -395.5 105.5t-287 287t-105.5 395.5t105.5 395.5t287 287t395.5 105.5q192 0 359 -86t277 -235q103 8 88 133zM863 268q211 0 355.5 144t144.5 356t-144.5 356t-355.5 144t-355.5 -144.5t-144.5 -355.5t144.5 -355.5t355.5 -144.5z" />
<glyph unicode="&#x1edf;" horiz-adv-x="1140" d="M552 1447q-60 0 -113 -50l-89 132q92 75 205 75q108 0 181.5 -67.5t73.5 -172.5q0 -74 -41 -132.5t-123 -80.5v-102h-152v191q145 24 145 123q0 36 -22.5 60t-64.5 24zM1074 1039h166v-124q0 -126 -55 -187t-136 -63q34 -88 34 -184q0 -210 -147.5 -354.5t-365.5 -144.5 q-219 0 -366 144.5t-147 354.5q0 138 66.5 252.5t184.5 181t262 66.5q137 0 250.5 -60.5t181.5 -165.5q99 8 85 132zM569 235q101 0 169.5 70t68.5 176q0 107 -68.5 177.5t-169.5 70.5t-169.5 -70t-68.5 -178t68.5 -177t169.5 -69z" />
<glyph unicode="&#x1ee0;" horiz-adv-x="1726" d="M734 1790q-39 0 -59 -41.5t-20 -107.5h-160q0 135 62.5 220.5t169.5 85.5q122 0 201 -118q10 -14 16.5 -21.5t19.5 -14.5t29 -7q76 0 76 149h161q0 -134 -61.5 -220t-172.5 -86q-121 0 -200 118q-28 43 -62 43zM1574 1520h166v-124q0 -124 -52.5 -185t-131.5 -65 q96 -176 96 -378q0 -161 -62.5 -307t-168 -251t-251.5 -167.5t-307 -62.5q-214 0 -395.5 105.5t-287 287t-105.5 395.5t105.5 395.5t287 287t395.5 105.5q192 0 359 -86t277 -235q103 8 88 133zM863 268q211 0 355.5 144t144.5 356t-144.5 356t-355.5 144t-355.5 -144.5 t-144.5 -355.5t144.5 -355.5t355.5 -144.5z" />
<glyph unicode="&#x1ee1;" horiz-adv-x="1140" d="M441 1215q-39 0 -59 -41.5t-20 -107.5h-160q0 135 62.5 220.5t169.5 85.5q122 0 201 -118q10 -14 16.5 -21.5t19.5 -14.5t29 -7q76 0 76 149h161q0 -134 -61.5 -220t-172.5 -86q-121 0 -200 118q-28 43 -62 43zM1074 1039h166v-124q0 -126 -55 -187t-136 -63 q34 -88 34 -184q0 -210 -147.5 -354.5t-365.5 -144.5q-219 0 -366 144.5t-147 354.5q0 138 66.5 252.5t184.5 181t262 66.5q137 0 250.5 -60.5t181.5 -165.5q99 8 85 132zM569 235q101 0 169.5 70t68.5 176q0 107 -68.5 177.5t-169.5 70.5t-169.5 -70t-68.5 -178t68.5 -177 t169.5 -69z" />
<glyph unicode="&#x1ee2;" horiz-adv-x="1726" d="M1574 1520h166v-124q0 -124 -52.5 -185t-131.5 -65q96 -176 96 -378q0 -161 -62.5 -307t-168 -251t-251.5 -167.5t-307 -62.5q-214 0 -395.5 105.5t-287 287t-105.5 395.5t105.5 395.5t287 287t395.5 105.5q192 0 359 -86t277 -235q103 8 88 133zM863 268 q211 0 355.5 144t144.5 356t-144.5 356t-355.5 144t-355.5 -144.5t-144.5 -355.5t144.5 -355.5t355.5 -144.5zM863 -118q61 0 105 -44t44 -105t-44 -104.5t-105 -43.5q-60 0 -104 43.5t-44 104.5t44 105t104 44z" />
<glyph unicode="&#x1ee3;" horiz-adv-x="1140" d="M1074 1039h166v-124q0 -126 -55 -187t-136 -63q34 -88 34 -184q0 -210 -147.5 -354.5t-365.5 -144.5q-219 0 -366 144.5t-147 354.5q0 138 66.5 252.5t184.5 181t262 66.5q137 0 250.5 -60.5t181.5 -165.5q99 8 85 132zM569 235q101 0 169.5 70t68.5 176 q0 107 -68.5 177.5t-169.5 70.5t-169.5 -70t-68.5 -178t68.5 -177t169.5 -69zM570 -118q61 0 105 -44t44 -105t-44 -104.5t-105 -43.5q-60 0 -104 43.5t-44 104.5t44 105t104 44z" />
<glyph unicode="&#x1ee4;" horiz-adv-x="1545" d="M772 -20q-176 0 -318.5 68t-224 192t-81.5 280v1016h298v-962q0 -145 92.5 -235.5t233.5 -90.5t234 90.5t93 235.5v962h299v-1016q0 -156 -82 -280t-224.5 -192t-319.5 -68zM772 -415q-60 0 -104 43.5t-44 104.5t44 105t104 44q61 0 105 -44t44 -105t-44 -104.5 t-105 -43.5z" />
<glyph unicode="&#x1ee5;" horiz-adv-x="1116" d="M557 -20q-210 0 -325 104t-115 283v596h288v-573q0 -79 42 -122t110 -43q69 0 111.5 43t42.5 122v573h288v-596q0 -179 -116 -283t-326 -104zM558 -415q-60 0 -104 43.5t-44 104.5t44 105t104 44q61 0 105 -44t44 -105t-44 -104.5t-105 -43.5z" />
<glyph unicode="&#x1ee6;" horiz-adv-x="1545" d="M696 1624v191q145 24 145 123q0 36 -22.5 60t-64.5 24q-60 0 -113 -50l-89 132q92 75 205 75q108 0 181.5 -67.5t73.5 -172.5q0 -74 -41 -132.5t-123 -80.5v-102h-152zM772 -20q-176 0 -318.5 68t-224 192t-81.5 280v1016h298v-962q0 -145 92.5 -235.5t233.5 -90.5 t234 90.5t93 235.5v962h299v-1016q0 -156 -82 -280t-224.5 -192t-319.5 -68z" />
<glyph unicode="&#x1ee7;" horiz-adv-x="1116" d="M482 1051v191q145 24 145 123q0 36 -22.5 60t-64.5 24q-60 0 -113 -50l-89 132q92 75 205 75q108 0 181.5 -67.5t73.5 -172.5q0 -74 -41 -132.5t-123 -80.5v-102h-152zM557 -20q-210 0 -325 104t-115 283v596h288v-573q0 -79 42 -122t110 -43q69 0 111.5 43t42.5 122v573 h288v-596q0 -179 -116 -283t-326 -104z" />
<glyph unicode="&#x1ee8;" horiz-adv-x="1731" d="M1098 1932l-342 -294l-105 115l309 334zM1480 1537h166v-124q0 -128 -56.5 -189t-139.5 -61q-22 0 -52 5v-648q0 -156 -82 -280t-224.5 -192t-319.5 -68q-176 0 -318.5 68t-224 192t-81.5 280v1016h298v-962q0 -145 92.5 -235.5t233.5 -90.5t234 90.5t93 235.5v962h299 v-284q110 3 95 133z" />
<glyph unicode="&#x1ee9;" horiz-adv-x="1116" d="M884 1359l-342 -294l-105 115l309 334zM1107 962h166v-124q0 -128 -56.5 -189t-139.5 -61q-38 0 -78 10v-231q0 -179 -116 -283t-326 -104t-325 104t-115 283v596h288v-573q0 -79 42 -122t110 -43q69 0 111.5 43t42.5 122v573h288v-284q16 -2 22 -2q114 0 99 133z" />
<glyph unicode="&#x1eea;" horiz-adv-x="1731" d="M885 1752l-99 -110l-345 290l139 155zM1480 1537h166v-124q0 -128 -56.5 -189t-139.5 -61q-22 0 -52 5v-648q0 -156 -82 -280t-224.5 -192t-319.5 -68q-176 0 -318.5 68t-224 192t-81.5 280v1016h298v-962q0 -145 92.5 -235.5t233.5 -90.5t234 90.5t93 235.5v962h299 v-284q110 3 95 133z" />
<glyph unicode="&#x1eeb;" horiz-adv-x="1116" d="M671 1179l-99 -110l-345 290l139 155zM1107 962h166v-124q0 -128 -56.5 -189t-139.5 -61q-38 0 -78 10v-231q0 -179 -116 -283t-326 -104t-325 104t-115 283v596h288v-573q0 -79 42 -122t110 -43q69 0 111.5 43t42.5 122v573h288v-284q16 -2 22 -2q114 0 99 133z" />
<glyph unicode="&#x1eec;" horiz-adv-x="1731" d="M754 2022q-60 0 -113 -50l-89 132q92 75 205 75q108 0 181.5 -67.5t73.5 -172.5q0 -74 -41 -132.5t-123 -80.5v-102h-152v191q145 24 145 123q0 36 -22.5 60t-64.5 24zM1480 1537h166v-124q0 -128 -56.5 -189t-139.5 -61q-22 0 -52 5v-648q0 -156 -82 -280t-224.5 -192 t-319.5 -68q-176 0 -318.5 68t-224 192t-81.5 280v1016h298v-962q0 -145 92.5 -235.5t233.5 -90.5t234 90.5t93 235.5v962h299v-284q110 3 95 133z" />
<glyph unicode="&#x1eed;" horiz-adv-x="1116" d="M540 1449q-60 0 -113 -50l-89 132q92 75 205 75q108 0 181.5 -67.5t73.5 -172.5q0 -74 -41 -132.5t-123 -80.5v-102h-152v191q145 24 145 123q0 36 -22.5 60t-64.5 24zM1107 962h166v-124q0 -128 -56.5 -189t-139.5 -61q-38 0 -78 10v-231q0 -179 -116 -283t-326 -104 t-325 104t-115 283v596h288v-573q0 -79 42 -122t110 -43q69 0 111.5 43t42.5 122v573h288v-284q16 -2 22 -2q114 0 99 133z" />
<glyph unicode="&#x1eee;" horiz-adv-x="1731" d="M643 1790q-39 0 -59 -41.5t-20 -107.5h-160q0 135 62.5 220.5t169.5 85.5q122 0 201 -118q10 -14 16.5 -21.5t19.5 -14.5t29 -7q76 0 76 149h161q0 -134 -61.5 -220t-172.5 -86q-121 0 -200 118q-28 43 -62 43zM1480 1537h166v-124q0 -128 -56.5 -189t-139.5 -61 q-22 0 -52 5v-648q0 -156 -82 -280t-224.5 -192t-319.5 -68q-176 0 -318.5 68t-224 192t-81.5 280v1016h298v-962q0 -145 92.5 -235.5t233.5 -90.5t234 90.5t93 235.5v962h299v-284q110 3 95 133z" />
<glyph unicode="&#x1eef;" horiz-adv-x="1116" d="M429 1217q-39 0 -59 -41.5t-20 -107.5h-160q0 135 62.5 220.5t169.5 85.5q122 0 201 -118q10 -14 16.5 -21.5t19.5 -14.5t29 -7q76 0 76 149h161q0 -134 -61.5 -220t-172.5 -86q-121 0 -200 118q-28 43 -62 43zM1107 962h166v-124q0 -128 -56.5 -189t-139.5 -61 q-38 0 -78 10v-231q0 -179 -116 -283t-326 -104t-325 104t-115 283v596h288v-573q0 -79 42 -122t110 -43q69 0 111.5 43t42.5 122v573h288v-284q16 -2 22 -2q114 0 99 133z" />
<glyph unicode="&#x1ef0;" horiz-adv-x="1731" d="M1480 1537h166v-124q0 -128 -56.5 -189t-139.5 -61q-22 0 -52 5v-648q0 -156 -82 -280t-224.5 -192t-319.5 -68q-176 0 -318.5 68t-224 192t-81.5 280v1016h298v-962q0 -145 92.5 -235.5t233.5 -90.5t234 90.5t93 235.5v962h299v-284q110 3 95 133zM772 -118 q61 0 105 -44t44 -105t-44 -104.5t-105 -43.5q-60 0 -104 43.5t-44 104.5t44 105t104 44z" />
<glyph unicode="&#x1ef1;" horiz-adv-x="1116" d="M1107 962h166v-124q0 -128 -56.5 -189t-139.5 -61q-38 0 -78 10v-231q0 -179 -116 -283t-326 -104t-325 104t-115 283v596h288v-573q0 -79 42 -122t110 -43q69 0 111.5 43t42.5 122v573h288v-284q16 -2 22 -2q114 0 99 133zM558 -118q61 0 105 -44t44 -105t-44 -104.5 t-105 -43.5q-60 0 -104 43.5t-44 104.5t44 105t104 44z" />
<glyph unicode="&#x1ef2;" horiz-adv-x="1400" d="M815 1752l-99 -110l-345 290l139 155zM1386 1536l-535 -810v-726h-298v720l-539 816h341l346 -546l348 546h337z" />
<glyph unicode="&#x1ef3;" horiz-adv-x="1134" d="M697 1179l-99 -110l-345 290l139 155zM836 963h301l-578 -1444h-295l191 481h-66l-395 963h316l262 -739z" />
<glyph unicode="&#x1ef4;" horiz-adv-x="1400" d="M1386 1536l-535 -810v-726h-298v720l-539 816h341l346 -546l348 546h337zM702 -118q61 0 105 -44t44 -105t-44 -104.5t-105 -43.5q-60 0 -104 43.5t-44 104.5t44 105t104 44z" />
<glyph unicode="&#x1ef5;" horiz-adv-x="1134" d="M836 963h301l-578 -1444h-295l191 481h-66l-395 963h316l262 -739zM939 -186q61 0 105 -44t44 -105t-44 -104.5t-105 -43.5q-60 0 -104 43.5t-44 104.5t44 105t104 44z" />
<glyph unicode="&#x1ef6;" horiz-adv-x="1400" d="M684 2022q-60 0 -113 -50l-89 132q92 75 205 75q108 0 181.5 -67.5t73.5 -172.5q0 -74 -41 -132.5t-123 -80.5v-102h-152v191q145 24 145 123q0 36 -22.5 60t-64.5 24zM1386 1536l-535 -810v-726h-298v720l-539 816h341l346 -546l348 546h337z" />
<glyph unicode="&#x1ef7;" horiz-adv-x="1134" d="M566 1449q-60 0 -113 -50l-89 132q92 75 205 75q108 0 181.5 -67.5t73.5 -172.5q0 -74 -41 -132.5t-123 -80.5v-102h-152v191q145 24 145 123q0 36 -22.5 60t-64.5 24zM836 963h301l-578 -1444h-295l191 481h-66l-395 963h316l262 -739z" />
<glyph unicode="&#x1ef8;" horiz-adv-x="1400" d="M573 1790q-39 0 -59 -41.5t-20 -107.5h-160q0 135 62.5 220.5t169.5 85.5q122 0 201 -118q10 -14 16.5 -21.5t19.5 -14.5t29 -7q76 0 76 149h161q0 -134 -61.5 -220t-172.5 -86q-121 0 -200 118q-28 43 -62 43zM1386 1536l-535 -810v-726h-298v720l-539 816h341l346 -546 l348 546h337z" />
<glyph unicode="&#x1ef9;" horiz-adv-x="1134" d="M455 1217q-39 0 -59 -41.5t-20 -107.5h-160q0 135 62.5 220.5t169.5 85.5q122 0 201 -118q10 -14 16.5 -21.5t19.5 -14.5t29 -7q76 0 76 149h161q0 -134 -61.5 -220t-172.5 -86q-121 0 -200 118q-28 43 -62 43zM836 963h301l-578 -1444h-295l191 481h-66l-395 963h316 l262 -739z" />
<glyph unicode="&#x2000;" horiz-adv-x="1330" />
<glyph unicode="&#x2001;" horiz-adv-x="2661" />
<glyph unicode="&#x2002;" horiz-adv-x="1330" />
<glyph unicode="&#x2003;" horiz-adv-x="2661" />
<glyph unicode="&#x2004;" horiz-adv-x="887" />
<glyph unicode="&#x2005;" horiz-adv-x="665" />
<glyph unicode="&#x2006;" horiz-adv-x="443" />
<glyph unicode="&#x2007;" horiz-adv-x="443" />
<glyph unicode="&#x2008;" horiz-adv-x="332" />
<glyph unicode="&#x2009;" horiz-adv-x="532" />
<glyph unicode="&#x200a;" horiz-adv-x="147" />
<glyph unicode="&#x2010;" horiz-adv-x="993" d="M138 375v212h717v-212h-717z" />
<glyph unicode="&#x2011;" horiz-adv-x="993" d="M138 375v212h717v-212h-717z" />
<glyph unicode="&#x2012;" horiz-adv-x="993" d="M138 375v212h717v-212h-717z" />
<glyph unicode="&#x2013;" horiz-adv-x="1300" d="M138 375v212h1024v-212h-1024z" />
<glyph unicode="&#x2014;" horiz-adv-x="2048" d="M0 375v212h2048v-212h-2048z" />
<glyph unicode="&#x2018;" horiz-adv-x="566" d="M334 1163q40 -21 64.5 -59.5t24.5 -84.5q0 -67 -49 -116t-115 -49q-67 0 -116 49t-49 116q0 38 18 74l187 443h156z" />
<glyph unicode="&#x2019;" horiz-adv-x="566" d="M472 1392q0 -38 -18 -74l-187 -443h-156l121 373q-40 21 -64.5 59.5t-24.5 84.5q0 67 49 116t115 49q67 0 116 -48.5t49 -116.5z" />
<glyph unicode="&#x201a;" horiz-adv-x="566" d="M473 143q0 -38 -18 -74l-187 -443h-156l121 373q-40 21 -64.5 59.5t-24.5 84.5q0 67 49 116t115 49q68 0 116.5 -49t48.5 -116z" />
<glyph unicode="&#x201c;" horiz-adv-x="1012" d="M299 1536h156l-121 -373q40 -21 64.5 -59.5t24.5 -84.5q0 -67 -49 -116t-115 -49q-67 0 -116 49t-49 116q0 38 18 74zM780 1163q40 -21 64.5 -59.5t24.5 -84.5q0 -67 -49 -116t-115 -49q-67 0 -116 49t-49 116q0 38 18 74l187 443h156z" />
<glyph unicode="&#x201d;" horiz-adv-x="1017" d="M923 1391q0 -38 -18 -74l-187 -443h-156l121 373q-40 21 -64.5 59.5t-24.5 84.5q0 67 49 116t115 49q68 0 116.5 -49t48.5 -116zM307 1555q67 0 116 -48.5t49 -116.5q0 -38 -18 -74l-187 -443h-156l121 373q-40 21 -64.5 59.5t-24.5 84.5q0 67 49 116t115 49z" />
<glyph unicode="&#x201e;" horiz-adv-x="1013" d="M308 308q68 0 116.5 -49t48.5 -116q0 -38 -18 -74l-187 -443h-156l121 373q-40 21 -64.5 59.5t-24.5 84.5q0 67 49 116t115 49zM919 143q0 -38 -18 -74l-187 -443h-156l121 373q-40 21 -64.5 59.5t-24.5 84.5q0 67 49 116t115 49q68 0 116.5 -49t48.5 -116z" />
<glyph unicode="&#x2020;" horiz-adv-x="988" d="M923 1010v-182h-341v-1176h-184v1176h-333v182h333v362h184v-362h341z" />
<glyph unicode="&#x2021;" horiz-adv-x="1062" d="M959 992h-341v-617h341v-181h-341v-378h-183v378h-333v181h333v617h-333v182h333v362h183v-362h341v-182z" />
<glyph unicode="&#x2022;" horiz-adv-x="904" d="M453 352q-132 0 -227 93t-95 227q0 130 96 226t226 96q128 0 224 -96t96 -226q0 -133 -95 -226.5t-225 -93.5z" />
<glyph unicode="&#x2026;" horiz-adv-x="1958" d="M319 -20q-67 0 -115.5 48t-48.5 115t48.5 116t115.5 49t116 -49t49 -116t-49 -115t-116 -48zM976 -20q-67 0 -115.5 48t-48.5 115t48.5 116t115.5 49t116 -49t49 -116t-49 -115t-116 -48zM1638 -20q-67 0 -115.5 48t-48.5 115t48.5 116t115.5 49t116 -49t49 -116 t-49 -115t-116 -48z" />
<glyph unicode="&#x202f;" horiz-adv-x="532" />
<glyph unicode="&#x2030;" horiz-adv-x="2550" d="M441 843q-148 0 -252.5 105t-104.5 253q0 147 105 251t252 104q148 0 252 -103.5t104 -251.5t-104 -253t-252 -105zM330 0l839 1536h270l-839 -1536h-270zM441 1061q58 0 98.5 41t40.5 99q0 57 -41 97.5t-98 40.5q-58 0 -99 -40t-41 -98t41 -99t99 -41zM1336 -16 q-149 0 -253.5 104t-104.5 253q0 147 105 251t253 104q147 0 251 -104t104 -251t-104 -252t-251 -105zM2115 -16q-149 0 -253.5 104t-104.5 253q0 147 105 251t253 104q147 0 251 -104t104 -251t-104 -252t-251 -105zM1336 202q58 0 98.5 40.5t40.5 98.5q0 56 -41.5 97 t-97.5 41q-58 0 -99.5 -40.5t-41.5 -97.5q0 -58 41 -98.5t100 -40.5zM2115 202q58 0 98.5 40.5t40.5 98.5q0 56 -41.5 97t-97.5 41q-58 0 -99.5 -40.5t-41.5 -97.5q0 -58 41 -98.5t100 -40.5z" />
<glyph unicode="&#x2039;" horiz-adv-x="635" d="M352 104l-311 377l311 377h229l-311 -377l311 -377h-229z" />
<glyph unicode="&#x203a;" horiz-adv-x="635" d="M54 104l311 377l-311 377h229l311 -377l-311 -377h-229z" />
<glyph unicode="&#x2044;" horiz-adv-x="537" d="M-369 0l1071 1536h204l-1071 -1536h-204z" />
<glyph unicode="&#x205f;" horiz-adv-x="665" />
<glyph unicode="&#x20ac;" horiz-adv-x="1708" d="M940 262q112 0 210.5 46.5t166.5 129.5l223 -179q-108 -129 -267.5 -204t-332.5 -75q-253 0 -455 143.5t-286 372.5h-79v195h35q-4 33 -4 77q0 37 3 73h-34v195h77q84 231 286.5 375.5t456.5 144.5q173 0 332.5 -75t267.5 -204l-223 -179q-68 83 -166.5 129.5 t-210.5 46.5q-136 0 -249.5 -64t-178.5 -174h629v-195h-696q-5 -40 -5 -73q0 -35 5 -77h696v-195h-627q66 -109 178 -171.5t248 -62.5z" />
<glyph unicode="&#x2113;" horiz-adv-x="1250" d="M690 -13q-191 0 -296 92t-130 242q0 14 -1 20q-24 -14 -68.5 -45t-57.5 -40l-74 142q23 17 63.5 44.5t72.5 50.5t59 44v503q0 139 33.5 244.5t92 168t132.5 93.5t162 31q86 0 152.5 -29.5t106.5 -80.5t60.5 -116t20.5 -140q0 -178 -125.5 -352.5t-369.5 -371.5l2 -64 q1 -104 67.5 -163t161.5 -59q97 0 182.5 58t141.5 142l117 -116q-91 -155 -221 -226.5t-284 -71.5zM523 723q307 286 307 491q0 180 -142 180q-31 0 -58.5 -16t-52.5 -50.5t-39.5 -100t-14.5 -153.5v-351z" />
<glyph unicode="&#x2116;" horiz-adv-x="2849" d="M1198 522v1014h298v-1536h-226l-789 1017v-1017h-298v1536h224zM2219 361q-219 0 -366 144.5t-147 354.5q0 138 66.5 252.5t184.5 181t262 66.5q218 0 365.5 -145t147.5 -355t-147.5 -354.5t-365.5 -144.5zM2218 1108q-101 0 -169.5 -70t-68.5 -178t68.5 -177t169.5 -69 t169.5 70t68.5 176q0 107 -68.5 177.5t-169.5 70.5zM1767 0v188h924v-188h-924z" />
<glyph unicode="&#x2122;" horiz-adv-x="1588" d="M103 1410v126h465v-126h-165v-590h-138v590h-162zM1226 1536h149v-716h-139v484l-216 -357l-217 356v-483h-140v716h150l206 -345z" />
<glyph unicode="&#x212e;" horiz-adv-x="1932" d="M980 -18q-178 0 -340 62t-279.5 167.5t-186.5 250.5t-69 304q0 215 117 397t318.5 287.5t439.5 105.5q179 0 341 -62.5t279.5 -168t186.5 -252t69 -307.5v-21h-1417q-12 0 -12 -8v-430q0 -24 18 -49q106 -109 245 -171t292 -62q167 0 313.5 69.5t251.5 192.5h125 q-119 -141 -301.5 -223t-390.5 -82zM439 788h1088q8 0 8 15v430q0 34 -21 51q-107 105 -243.5 165t-288.5 60q-151 0 -288.5 -61.5t-246.5 -169.5q-20 -23 -20 -53v-422q0 -15 12 -15z" />
<glyph unicode="&#x2190;" horiz-adv-x="1729" d="M1605 848v-248h-1038v-260l-498 385l498 385v-262h1038z" />
<glyph unicode="&#x2191;" horiz-adv-x="877" d="M316 0v1038h-262l385 498l385 -498h-260v-1038h-248z" />
<glyph unicode="&#x2192;" horiz-adv-x="1733" d="M124 848h1038v262l498 -385l-498 -385v260h-1038v248z" />
<glyph unicode="&#x2193;" horiz-adv-x="877" d="M316 1536h248v-1038h260l-385 -498l-385 498h262v1038z" />
<glyph unicode="&#x2194;" horiz-adv-x="2161" d="M566 295l-498 387l498 385v-260l1024 -2v260l497 -385l-497 -385v262l-1024 2v-264z" />
<glyph unicode="&#x2195;" horiz-adv-x="922" d="M461 -145l-385 497h262v672h-262l385 498l385 -498h-260v-672h260z" />
<glyph unicode="&#x2196;" horiz-adv-x="1344" d="M1286 313l-176 -176l-734 734l-183 -184l-80 625l624 -80l-185 -186z" />
<glyph unicode="&#x2197;" horiz-adv-x="1344" d="M58 313l734 733l-185 186l624 80l-80 -625l-183 184l-734 -734z" />
<glyph unicode="&#x2198;" horiz-adv-x="1344" d="M58 1223l176 176l734 -734l183 184l80 -625l-624 80l185 186z" />
<glyph unicode="&#x2199;" horiz-adv-x="1344" d="M1286 1223l-734 -733l185 -186l-624 -80l80 625l183 -184l734 734z" />
<glyph unicode="&#x2202;" horiz-adv-x="1201" d="M335 1456q152 35 291.5 -11.5t239.5 -153t158 -269t54 -350.5q-6 -297 -161 -483.5t-394 -186.5q-126 0 -221.5 47.5t-146 131.5t-57.5 199t45 250q85 228 262 328t371 41q-54 151 -166.5 219t-274.5 30v208zM818 672q2 63 -1 111q-136 78 -254 18.5t-179 -237.5 q-39 -120 -25 -202.5t61.5 -126.5t114.5 -44q104 0 189 127.5t94 353.5z" />
<glyph unicode="&#x2205;" horiz-adv-x="1484" d="M1212 988q142 -169 142 -392q0 -166 -82 -307t-223 -223t-307 -82q-223 0 -392 142l-89 -89l-78 78l89 89q-143 170 -143 392q0 166 82 307t223.5 223t307.5 82q223 0 392 -142l89 89l78 -78zM360 596q0 -127 75 -229l536 536q-102 75 -229 75q-159 0 -270.5 -111.5 t-111.5 -270.5zM742 214q159 0 270.5 111.5t111.5 270.5q0 127 -75 229l-536 -536q102 -75 229 -75z" />
<glyph unicode="&#x220f;" horiz-adv-x="1664" d="M242 0v1186h-122v254h1425v-254h-123v-1186h-252v1186h-673v-1186h-255z" />
<glyph unicode="&#x2211;" horiz-adv-x="1398" d="M92 -240v183l696 655l-696 655v187h1205v-230h-821l632 -612l-632 -612h821v-226h-1205z" />
<glyph unicode="&#x2212;" horiz-adv-x="1289" d="M211 585v226h867v-226h-867z" />
<glyph unicode="&#x221a;" horiz-adv-x="1460" d="M435 -160l-223 686h-146v193h285l189 -578l685 1434l178 -75l-795 -1660h-173z" />
<glyph unicode="&#x221e;" horiz-adv-x="1686" d="M467 260q-139 0 -228 93.5t-94 242.5q5 149 94 242.5t228 93.5q181 0 374 -193q193 193 375 193q145 0 231 -89.5t90 -246.5q-4 -157 -90 -246.5t-231 -89.5q-184 0 -375 193q-193 -193 -374 -193zM467 453q107 0 245 143q-138 143 -245 143q-54 0 -91.5 -40.5 t-38.5 -102.5q1 -62 38.5 -102.5t91.5 -40.5zM1216 453q56 0 92 38.5t37 104.5q-1 66 -37 104.5t-92 38.5q-104 0 -247 -143q143 -143 247 -143z" />
<glyph unicode="&#x222b;" horiz-adv-x="937" d="M64 -457v273q147 0 199.5 49.5t52.5 182.5v1065q0 146 96 240.5t240 94.5q63 0 126.5 -20t107.5 -62l-109 -217q-48 45 -97 45q-90 0 -90 -134v-1035q0 -224 -145.5 -353t-380.5 -129z" />
<glyph unicode="&#x2248;" horiz-adv-x="1366" d="M893 679q-147 0 -269 126q-8 8 -21 22l-9 10q-48 49 -96 49q-61 0 -94 -52.5t-35 -139.5h-211q2 185 92.5 295t250.5 110q82 0 143.5 -34.5t124.5 -113.5q1 -1 7.5 -8.5t8 -9t8 -9t9 -9.5t9.5 -8t11 -8t11.5 -5.5t13.5 -5t13.5 -3t15.5 -1.5q53 0 87 50.5t37 139.5h208 q-3 -174 -86 -284.5t-229 -110.5zM893 189q-54 0 -102.5 15t-85.5 42t-58 47t-46 47q-5 5 -7 8q-27 28 -46.5 39t-49.5 10q-63 -4 -95 -55t-34 -137h-211q2 186 93.5 296t249.5 110q79 0 141 -34.5t127 -113.5q1 -1 7 -8t7.5 -9t8 -9t9.5 -9.5t9.5 -8t11 -8t11.5 -6.5 t13.5 -5.5t14 -3t15.5 -1.5q54 0 87.5 50t36.5 141h208q-3 -175 -86 -286t-229 -111z" />
<glyph unicode="&#x2264;" horiz-adv-x="1391" d="M1246 1507v-250l-877 -376l877 -379v-253l-1130 496v272zM116 0v174h1130v-174h-1130z" />
<glyph unicode="&#x2265;" horiz-adv-x="1391" d="M145 1507l1130 -490v-272l-1130 -496v253l877 379l-877 376v250zM145 0v174h1130v-174h-1130z" />
<glyph unicode="&#x25ca;" horiz-adv-x="1348" d="M675 106l-618 617l618 618l616 -616zM676 422l300 303l-300 301l-303 -303z" />
<glyph unicode="&#x25fc;" horiz-adv-x="965" d="M0 965h965v-965h-965v965z" />
<glyph unicode="&#xf8ff;" horiz-adv-x="1774" d="M886 0q-158 0 -302 62t-248 166t-166 248t-62 302t62 302.5t166 248.5t248 165.5t302 61.5q127 0 246 -39t214.5 -111t167.5 -168t111.5 -214.5t39.5 -245.5q0 -211 -104.5 -390t-284 -283.5t-390.5 -104.5zM886 74q143 0 273.5 56t225 150.5t150.5 224.5t56 273 q0 191 -94.5 353.5t-257 257t-353.5 94.5q-143 0 -273 -56t-224.5 -150.5t-150.5 -225t-56 -273.5t56 -273t150.5 -224.5t224.5 -150.5t273 -56zM1294 444q-15 0 -25 13l-297 295q-10 12 -10 27t10 26l297 297q11 10 26 10t26 -10q11 -11 11 -26.5t-11 -26.5l-271 -271 l271 -270q22 -22 0 -51q-11 -13 -27 -13zM479 444q-16 0 -26.5 11t-10.5 26v594q0 16 10.5 26.5t26.5 10.5q15 0 26 -10.5t11 -26.5v-594q0 -15 -11 -26t-26 -11zM886 444q-15 0 -25.5 11t-10.5 26v594q0 16 10.5 26.5t25.5 10.5q16 0 26.5 -10.5t10.5 -26.5v-594 q0 -15 -10.5 -26t-26.5 -11zM589 741q-15 0 -25.5 11t-10.5 26q0 16 10.5 26.5t25.5 10.5h187q15 0 26 -10.5t11 -26.5q0 -15 -11 -26t-26 -11h-187z" />
<glyph unicode="&#xfb00;" horiz-adv-x="1392" d="M1370 963v-224h-6v-4h-226v-735h-288v735h-353v-735h-288v735h-168v228h168v241q0 164 96 260.5t258 96.5q123 0 162 -30v-259q-49 37 -112 37q-53 0 -84.5 -37.5t-31.5 -100.5v-208h353v241q0 164 96 260.5t258 96.5q123 0 162 -30v-259q-49 37 -112 37 q-53 0 -84.5 -37.5t-31.5 -100.5v-208h232z" />
<glyph unicode="&#xfb03;" horiz-adv-x="1932" d="M208 0v739h-171v224h171v241q0 164 96.5 260.5t258.5 96.5q123 0 162 -30v-259q-49 37 -112 37q-53 0 -84.5 -37.5t-31.5 -100.5v-208h353v241q0 164 96 260.5t258 96.5q123 0 162 -30v-259q-49 37 -112 37q-53 0 -84.5 -37.5t-31.5 -100.5v-208h651v-963h-287v739h-364 v-739h-288v739h-353v-739h-289zM1647 1127q-67 0 -114.5 47.5t-47.5 113.5q0 67 47.5 113.5t114.5 46.5q66 0 113.5 -47t47.5 -113t-48 -113.5t-113 -47.5z" />
<glyph unicode="&#xfb04;" horiz-adv-x="1926" d="M1138 963h232v-224h-6v-4h-226v-735h-288v735h-353v-735h-288v735h-168v228h168v241q0 164 96 260.5t258 96.5q123 0 162 -30v-259q-49 37 -112 37q-53 0 -84.5 -37.5t-31.5 -100.5v-208h353v241q0 164 96 260.5t258 96.5q123 0 162 -30v-259q-49 37 -112 37 q-53 0 -84.5 -37.5t-31.5 -100.5v-208zM1493 1536h289v-1536h-289v1536z" />
<glyph horiz-adv-x="1036" d="M477 1536v-1267h523v-269h-821v1536h298zM1022 1536l-199 -573h-156l79 573h276z" />
<glyph horiz-adv-x="1036" d="M477 1536v-1267h523v-269h-821v1536h298zM1022 1536l-199 -573h-156l79 573h276z" />
<glyph horiz-adv-x="575" d="M287 1112q-58 0 -101 43t-43 101q0 60 43 102.5t101 42.5q60 0 103 -42.5t43 -102.5q0 -59 -43 -101.5t-103 -42.5zM143 0v963h289v-963h-289z" />
<glyph horiz-adv-x="1050" d="M500 983q205 0 319.5 -101t114.5 -296v-586h-251l-13 109q-113 -127 -288 -127q-146 0 -234.5 76.5t-88.5 211.5q0 145 118.5 229.5t388.5 107.5l90 8q-3 78 -50 120t-130 42q-127 0 -262 -100l-111 177q165 129 397 129zM467 180q114 0 189 101v146l-69 -7 q-102 -10 -159 -29t-75 -42.5t-18 -59.5q0 -56 36 -82.5t96 -26.5z" />
<glyph horiz-adv-x="1050" d="M839 1359l-342 -294l-105 115l309 334zM500 983q205 0 319.5 -101t114.5 -296v-586h-251l-13 109q-113 -127 -288 -127q-146 0 -234.5 76.5t-88.5 211.5q0 145 118.5 229.5t388.5 107.5l90 8q-3 78 -50 120t-130 42q-127 0 -262 -100l-111 177q165 129 397 129zM467 180 q114 0 189 101v146l-69 -7q-102 -10 -159 -29t-75 -42.5t-18 -59.5q0 -56 36 -82.5t96 -26.5z" />
<glyph horiz-adv-x="1050" d="M513 1122q-166 0 -265 90t-99 260h177q0 -76 50 -130.5t137 -54.5t137.5 54.5t50.5 130.5h177q0 -170 -99 -260t-266 -90zM500 983q205 0 319.5 -101t114.5 -296v-586h-251l-13 109q-113 -127 -288 -127q-146 0 -234.5 76.5t-88.5 211.5q0 145 118.5 229.5t388.5 107.5 l90 8q-3 78 -50 120t-130 42q-127 0 -262 -100l-111 177q165 129 397 129zM467 180q114 0 189 101v146l-69 -7q-102 -10 -159 -29t-75 -42.5t-18 -59.5q0 -56 36 -82.5t96 -26.5z" />
<glyph horiz-adv-x="1050" d="M839 1841l-342 -294l-105 115l309 334zM513 1122q-166 0 -265 90t-99 260h177q0 -76 50 -130.5t137 -54.5t137.5 54.5t50.5 130.5h177q0 -170 -99 -260t-266 -90zM500 983q205 0 319.5 -101t114.5 -296v-586h-251l-13 109q-113 -127 -288 -127q-146 0 -234.5 76.5 t-88.5 211.5q0 145 118.5 229.5t388.5 107.5l90 8q-3 78 -50 120t-130 42q-127 0 -262 -100l-111 177q165 129 397 129zM467 180q114 0 189 101v146l-69 -7q-102 -10 -159 -29t-75 -42.5t-18 -59.5q0 -56 36 -82.5t96 -26.5z" />
<glyph horiz-adv-x="1050" d="M513 1122q-166 0 -265 90t-99 260h177q0 -76 50 -130.5t137 -54.5t137.5 54.5t50.5 130.5h177q0 -170 -99 -260t-266 -90zM500 983q205 0 319.5 -101t114.5 -296v-586h-251l-13 109q-113 -127 -288 -127q-146 0 -234.5 76.5t-88.5 211.5q0 145 118.5 229.5t388.5 107.5 l90 8q-3 78 -50 120t-130 42q-127 0 -262 -100l-111 177q165 129 397 129zM467 180q114 0 189 101v146l-69 -7q-102 -10 -159 -29t-75 -42.5t-18 -59.5q0 -56 36 -82.5t96 -26.5zM513 -118q61 0 105 -44t44 -105t-44 -104.5t-105 -43.5q-60 0 -104 43.5t-44 104.5t44 105 t104 44z" />
<glyph horiz-adv-x="1050" d="M626 1661l-99 -110l-345 290l139 155zM513 1122q-166 0 -265 90t-99 260h177q0 -76 50 -130.5t137 -54.5t137.5 54.5t50.5 130.5h177q0 -170 -99 -260t-266 -90zM500 983q205 0 319.5 -101t114.5 -296v-586h-251l-13 109q-113 -127 -288 -127q-146 0 -234.5 76.5 t-88.5 211.5q0 145 118.5 229.5t388.5 107.5l90 8q-3 78 -50 120t-130 42q-127 0 -262 -100l-111 177q165 129 397 129zM467 180q114 0 189 101v146l-69 -7q-102 -10 -159 -29t-75 -42.5t-18 -59.5q0 -56 36 -82.5t96 -26.5z" />
<glyph horiz-adv-x="1050" d="M495 1931q-60 0 -113 -50l-89 132q92 75 205 75q108 0 181.5 -67.5t73.5 -172.5q0 -74 -41 -132.5t-123 -80.5v-102h-152v191q145 24 145 123q0 36 -22.5 60t-64.5 24zM513 1122q-166 0 -265 90t-99 260h177q0 -76 50 -130.5t137 -54.5t137.5 54.5t50.5 130.5h177 q0 -170 -99 -260t-266 -90zM500 983q205 0 319.5 -101t114.5 -296v-586h-251l-13 109q-113 -127 -288 -127q-146 0 -234.5 76.5t-88.5 211.5q0 145 118.5 229.5t388.5 107.5l90 8q-3 78 -50 120t-130 42q-127 0 -262 -100l-111 177q165 129 397 129zM467 180q114 0 189 101 v146l-69 -7q-102 -10 -159 -29t-75 -42.5t-18 -59.5q0 -56 36 -82.5t96 -26.5z" />
<glyph horiz-adv-x="1050" d="M384 1699q-39 0 -59 -41.5t-20 -107.5h-160q0 135 62.5 220.5t169.5 85.5q122 0 201 -118q10 -14 16.5 -21.5t19.5 -14.5t29 -7q76 0 76 149h161q0 -134 -61.5 -220t-172.5 -86q-121 0 -200 118q-28 43 -62 43zM513 1287q87 0 137.5 54.5t50.5 130.5h177q0 -170 -99 -260 t-266 -90q-166 0 -265 90t-99 260h177q0 -76 50 -130.5t137 -54.5zM500 983q205 0 319.5 -101t114.5 -296v-586h-251l-13 109q-113 -127 -288 -127q-146 0 -234.5 76.5t-88.5 211.5q0 145 118.5 229.5t388.5 107.5l90 8q-3 78 -50 120t-130 42q-127 0 -262 -100l-111 177 q165 129 397 129zM467 180q114 0 189 101v146l-69 -7q-102 -10 -159 -29t-75 -42.5t-18 -59.5q0 -56 36 -82.5t96 -26.5z" />
<glyph horiz-adv-x="1050" d="M607 1100h-191l-238 300l117 74l218 -209l218 209l118 -74zM500 983q205 0 319.5 -101t114.5 -296v-586h-251l-13 109q-113 -127 -288 -127q-146 0 -234.5 76.5t-88.5 211.5q0 145 118.5 229.5t388.5 107.5l90 8q-3 78 -50 120t-130 42q-127 0 -262 -100l-111 177 q165 129 397 129zM467 180q114 0 189 101v146l-69 -7q-102 -10 -159 -29t-75 -42.5t-18 -59.5q0 -56 36 -82.5t96 -26.5z" />
<glyph horiz-adv-x="1050" d="M513 1269l-216 -210l-120 76l239 299h191l242 -299l-121 -76zM500 983q205 0 319.5 -101t114.5 -296v-586h-251l-13 109q-113 -127 -288 -127q-146 0 -234.5 76.5t-88.5 211.5q0 145 118.5 229.5t388.5 107.5l90 8q-3 78 -50 120t-130 42q-127 0 -262 -100l-111 177 q165 129 397 129zM467 180q114 0 189 101v146l-69 -7q-102 -10 -159 -29t-75 -42.5t-18 -59.5q0 -56 36 -82.5t96 -26.5z" />
<glyph horiz-adv-x="1050" d="M303 1132q-59 0 -102 42.5t-43 102.5t43 102t102 42q60 0 103 -42t43 -102t-43 -102.5t-103 -42.5zM723 1132q-60 0 -102.5 42.5t-42.5 102.5t42.5 102t102.5 42t102 -42t42 -102t-42 -102.5t-102 -42.5zM500 983q205 0 319.5 -101t114.5 -296v-586h-251l-13 109 q-113 -127 -288 -127q-146 0 -234.5 76.5t-88.5 211.5q0 145 118.5 229.5t388.5 107.5l90 8q-3 78 -50 120t-130 42q-127 0 -262 -100l-111 177q165 129 397 129zM467 180q114 0 189 101v146l-69 -7q-102 -10 -159 -29t-75 -42.5t-18 -59.5q0 -56 36 -82.5t96 -26.5z" />
<glyph horiz-adv-x="1050" d="M626 1179l-99 -110l-345 290l139 155zM500 983q205 0 319.5 -101t114.5 -296v-586h-251l-13 109q-113 -127 -288 -127q-146 0 -234.5 76.5t-88.5 211.5q0 145 118.5 229.5t388.5 107.5l90 8q-3 78 -50 120t-130 42q-127 0 -262 -100l-111 177q165 129 397 129zM467 180 q114 0 189 101v146l-69 -7q-102 -10 -159 -29t-75 -42.5t-18 -59.5q0 -56 36 -82.5t96 -26.5z" />
<glyph horiz-adv-x="1050" d="M831 1321v-171h-635v171h635zM500 983q205 0 319.5 -101t114.5 -296v-586h-251l-13 109q-113 -127 -288 -127q-146 0 -234.5 76.5t-88.5 211.5q0 145 118.5 229.5t388.5 107.5l90 8q-3 78 -50 120t-130 42q-127 0 -262 -100l-111 177q165 129 397 129zM467 180 q114 0 189 101v146l-69 -7q-102 -10 -159 -29t-75 -42.5t-18 -59.5q0 -56 36 -82.5t96 -26.5z" />
<glyph horiz-adv-x="1050" d="M951 -268l101 -141q-61 -63 -144 -94.5t-168 -25.5q-118 8 -185.5 75.5t-67.5 169.5q0 167 206 284h-10l-13 109q-113 -127 -288 -127q-146 0 -234.5 76.5t-88.5 211.5q0 145 118.5 229.5t388.5 107.5l90 8q-3 78 -50 120t-130 42q-127 0 -262 -100l-111 177 q165 129 397 129q205 0 319.5 -101t114.5 -296v-586h-2q-263 -115 -263 -249q0 -51 30 -77.5t81 -26.5q91 0 171 85zM467 180q114 0 189 101v146l-69 -7q-102 -10 -159 -29t-75 -42.5t-18 -59.5q0 -56 36 -82.5t96 -26.5z" />
<glyph horiz-adv-x="1050" d="M521 1099q-100 0 -171.5 71.5t-71.5 170.5t71.5 169.5t171.5 70.5q99 0 169 -70.5t70 -169.5t-70 -170.5t-169 -71.5zM521 1461q-49 0 -82 -36t-33 -84q0 -52 32.5 -85t82.5 -33t83.5 33t33.5 85q0 48 -34.5 84t-82.5 36zM500 983q205 0 319.5 -101t114.5 -296v-586h-251 l-13 109q-113 -127 -288 -127q-146 0 -234.5 76.5t-88.5 211.5q0 145 118.5 229.5t388.5 107.5l90 8q-3 78 -50 120t-130 42q-127 0 -262 -100l-111 177q165 129 397 129zM467 180q114 0 189 101v146l-69 -7q-102 -10 -159 -29t-75 -42.5t-18 -59.5q0 -56 36 -82.5t96 -26.5 z" />
<glyph horiz-adv-x="1050" d="M403 1217q-39 0 -59 -41.5t-20 -107.5h-160q0 135 62.5 220.5t169.5 85.5q122 0 201 -118q10 -14 16.5 -21.5t19.5 -14.5t29 -7q76 0 76 149h161q0 -134 -61.5 -220t-172.5 -86q-121 0 -200 118q-28 43 -62 43zM500 983q205 0 319.5 -101t114.5 -296v-586h-251l-13 109 q-113 -127 -288 -127q-146 0 -234.5 76.5t-88.5 211.5q0 145 118.5 229.5t388.5 107.5l90 8q-3 78 -50 120t-130 42q-127 0 -262 -100l-111 177q165 129 397 129zM467 180q114 0 189 101v146l-69 -7q-102 -10 -159 -29t-75 -42.5t-18 -59.5q0 -56 36 -82.5t96 -26.5z" />
<glyph horiz-adv-x="1259" d="M827 850v686h289v-1536h-264l-10 132q-114 -152 -318 -152q-124 0 -229.5 64t-169 180.5t-63.5 259.5q0 142 63.5 258t169 180t229.5 64q191 0 303 -136zM1284 1536h276l-199 -573h-156zM598 230q103 0 175.5 74t72.5 180t-72 179t-176 73t-175.5 -73t-71.5 -179t72 -180 t175 -74z" />
<glyph horiz-adv-x="1266" d="M841 1536l-92 -422h-276l212 422h156zM833 963h289v-926q0 -252 -150 -394.5t-392 -142.5q-131 0 -264 54t-218 163l160 177q140 -150 306 -150q120 0 194.5 77.5t74.5 214.5v83q-109 -139 -299 -139q-200 0 -337 143t-137 361q0 217 136.5 359.5t335.5 142.5 q190 0 301 -140v117zM596 230q103 0 175.5 74.5t72.5 179.5q0 106 -72 179t-176 73t-175.5 -73t-71.5 -179t71.5 -180t175.5 -74z" />
<glyph horiz-adv-x="575" d="M143 0v1536h289v-1536h-289zM681 963h-156l79 573h276z" />
<glyph horiz-adv-x="704" d="M660 1650h276l-199 -573h-156zM497 1309v-346h180v-224h-180v-739h-289v739h-182v224h182v346h289z" />
<glyph horiz-adv-x="1259" d="M827 850v686h289v-1536h-264l-10 132q-114 -152 -318 -152q-124 0 -229.5 64t-169 180.5t-63.5 259.5q0 142 63.5 258t169 180t229.5 64q191 0 303 -136zM1284 1536h276l-199 -573h-156zM598 230q103 0 175.5 74t72.5 180t-72 179t-176 73t-175.5 -73t-71.5 -179t72 -180 t175 -74z" />
<glyph horiz-adv-x="1266" d="M841 1536l-92 -422h-276l212 422h156zM833 963h289v-926q0 -252 -150 -394.5t-392 -142.5q-131 0 -264 54t-218 163l160 177q140 -150 306 -150q120 0 194.5 77.5t74.5 214.5v83q-109 -139 -299 -139q-200 0 -337 143t-137 361q0 217 136.5 359.5t335.5 142.5 q190 0 301 -140v117zM596 230q103 0 175.5 74.5t72.5 179.5q0 106 -72 179t-176 73t-175.5 -73t-71.5 -179t71.5 -180t175.5 -74z" />
<glyph horiz-adv-x="575" d="M143 0v1536h289v-1536h-289zM681 963h-156l79 573h276z" />
<glyph horiz-adv-x="704" d="M660 1650h276l-199 -573h-156zM497 1309v-346h180v-224h-180v-739h-289v739h-182v224h182v346h289z" />
<glyph horiz-adv-x="1337" d="M1309 963v-224h-180v-739h-289v739h-353v-739h-288v739h-162v224h162v241q0 164 96 260.5t258 96.5q123 0 162 -30v-259q-49 37 -112 37q-53 0 -84.5 -37.5t-31.5 -100.5v-208h353v346h289v-346h180z" />
<glyph horiz-adv-x="1330" d="M1302 963v-224h-180v-739h-289v739h-336v-739h-289v739h-182v224h182v346h289v-346h336v346h289v-346h180z" />
<glyph horiz-adv-x="1316" d="M659 -20q-261 0 -416 215t-155 573q0 237 68 415t197.5 275.5t305.5 97.5q175 0 304 -97.5t197 -275.5t68 -415q0 -358 -155 -573t-414 -215zM659 235q127 0 202.5 144.5t75.5 388.5q0 245 -77 385t-201 140t-201.5 -140t-77.5 -385q0 -244 75.5 -388.5t203.5 -144.5z " />
<glyph horiz-adv-x="792" d="M329 0v1273h-300v263h591v-1536h-291z" />
<glyph horiz-adv-x="1203" d="M489 263h643v-263h-1074v170q248 246 393.5 401t221 260t97 164.5t21.5 128.5q0 98 -61.5 145.5t-148.5 47.5q-103 0 -158.5 -62.5t-55.5 -176.5h-297q0 220 142 350.5t373 130.5q219 -1 357.5 -117.5t139.5 -309.5q0 -104 -31.5 -197.5t-110 -200t-180 -210.5 t-271.5 -261z" />
<glyph horiz-adv-x="1229" d="M605 -20q-115 0 -214.5 29t-176.5 86t-121.5 149t-44.5 209l296 1q0 -110 73 -166t186 -56q124 0 192 64t68 173q0 107 -72 167t-188 60h-120v231h102q93 0 154.5 53.5t61.5 145.5q0 85 -55 133t-148 48q-88 0 -141 -46.5t-53 -137.5h-292q0 134 65 233.5t172.5 149.5 t241.5 50q208 0 347 -116t139 -292q0 -113 -57.5 -195.5t-138.5 -118.5q122 -36 199.5 -132t77.5 -250q0 -215 -152.5 -343.5t-400.5 -128.5z" />
<glyph horiz-adv-x="1280" d="M1245 557v-258h-241v-299h-291v299h-673v238l587 999h377v-979h241zM300 557h413v724z" />
<glyph horiz-adv-x="1267" d="M723 1051q197 0 328.5 -140t131.5 -369q0 -250 -159 -406t-395 -156q-143 0 -265 55t-201 164t-84 253h306q16 -95 87.5 -144.5t166.5 -49.5q108 0 179 76t71 200q0 122 -71.5 197.5t-174.5 75.5q-70 0 -137.5 -38.5t-109.5 -105.5h-296l153 873h875v-260h-664l-51 -315 q125 90 310 90z" />
<glyph horiz-adv-x="1233" d="M1182 521q1 -149 -75 -273.5t-205.5 -195.5t-280.5 -71q-236 0 -400.5 151.5t-168.5 374.5q-4 185 136 373l491 656h335l-383 -490q32 4 74 1q90 -9 175 -52.5t152 -111t108 -162.5t42 -200zM621 242q123 0 200.5 80t74.5 198q-2 121 -80 198t-199 77q-127 0 -203 -81 t-74 -204q2 -119 79 -193.5t202 -74.5z" />
<glyph horiz-adv-x="1198" d="M38 1536h1129v-211l-714 -1325h-333l709 1277h-791v259z" />
<glyph horiz-adv-x="1205" d="M601 -20q-228 0 -380 138t-152 342q0 126 62 229t170 165q-140 106 -140 299q0 172 125.5 287.5t315.5 115.5t315 -115.5t125 -287.5q0 -192 -138 -299q108 -62 169.5 -165t61.5 -229q0 -205 -152 -342.5t-382 -137.5zM603 932q80 0 134 54.5t54 134.5q0 81 -54 135.5 t-134 54.5t-134.5 -54.5t-54.5 -135.5q0 -80 54.5 -134.5t134.5 -54.5zM601 234q103 0 172.5 73t69.5 177q0 103 -69 171t-173 68q-102 0 -170.5 -68.5t-68.5 -170.5q0 -104 69 -177t170 -73z" />
<glyph horiz-adv-x="1234" d="M1182 1029q4 -185 -136 -373l-491 -656h-335l420 538q-56 -14 -117 -14q-89 0 -174 38t-150 103t-105.5 157t-41.5 193q-1 149 75 273.5t205.5 195.5t280.5 71q236 0 400.5 -151.5t168.5 -374.5zM617 741q127 0 203 81t74 204q-2 119 -79 193.5t-202 74.5 q-123 0 -200.5 -80t-74.5 -198q2 -121 80 -198t199 -77z" />
<glyph horiz-adv-x="782" d="M390 -12q-156 0 -250 129.5t-94 343.5q0 213 94 343t250 130t251 -130t95 -343q0 -214 -95 -343.5t-251 -129.5zM392 174q67 0 109 77.5t42 209.5t-42 209t-109 77q-68 0 -110 -77t-42 -209t42 -209.5t110 -77.5z" />
<glyph horiz-adv-x="455" d="M150 0v741h-130v181h320v-922h-190z" />
<glyph horiz-adv-x="709" d="M362 181h296v-181h-635v64q136 136 224.5 236t129 164.5t54 102t13.5 73.5q0 69 -34 96.5t-82 24.5q-58 -2 -84.5 -39.5t-23.5 -88.5h-195q-4 133 85 218t228 85q131 0 211 -76.5t81 -201.5q0 -220 -268 -477z" />
<glyph horiz-adv-x="684" d="M519 513q57 -38 89.5 -96.5t32.5 -130.5q0 -125 -90 -211.5t-223 -86.5q-128 0 -216.5 77.5t-88.5 194.5l196 2q0 -39 32.5 -64.5t77.5 -25.5q52 0 86 35t34 87q0 50 -32 75t-85 25h-91l-1 175h79q41 0 68 27.5t27 67.5q0 39 -27 63t-66 24q-37 0 -60 -19.5t-23 -51.5 l-191 4q0 110 78 180t196 70q116 0 192.5 -71.5t76.5 -181.5q0 -103 -71 -168z" />
<glyph horiz-adv-x="761" d="M704 376v-181h-78v-195h-191v195h-436v120l377 607h250v-546h78zM239 376h196v338z" />
<glyph horiz-adv-x="787" d="M454 631q121 0 198 -82t77 -222q0 -151 -95 -244t-238 -93q-84 0 -157 31t-124 93.5t-63 145.5l205 20q14 -52 54.5 -79t92.5 -27q53 0 87.5 41t34.5 111q0 65 -35.5 102t-91.5 37q-37 0 -74.5 -21t-61.5 -56l-201 1l98 534h537v-177h-395l-32 -179q27 26 76 45t108 19z " />
<glyph horiz-adv-x="716" d="M428 627q44 -6 90 -30.5t87 -63.5t66.5 -97.5t25.5 -123.5q0 -138 -103.5 -234t-242.5 -89q-144 6 -242 96t-98 225q0 94 73 204l299 408h224l-233 -293q29 2 54 -2zM351 166q70 -5 114.5 38t43.5 108q-1 69 -40 109.5t-102 45.5q-79 7 -122 -37t-43 -119 q2 -132 149 -145z" />
<glyph horiz-adv-x="653" d="M24 922h635v-141l-416 -781h-218l410 746h-411v176z" />
<glyph horiz-adv-x="733" d="M366 -12q-140 0 -232.5 83t-92.5 207q0 73 34 133t95 99q-74 62 -74 180q0 104 76.5 174t194.5 70q116 0 193 -70t77 -174q0 -116 -73 -180q61 -39 95 -99t34 -133q0 -124 -93 -207t-234 -83zM367 563q43 0 71.5 29t28.5 71q0 43 -28.5 72t-71.5 29t-71.5 -29t-28.5 -72 q0 -42 28.5 -71t71.5 -29zM366 154q57 0 95 41t38 99q0 57 -38 94.5t-95 37.5t-94 -37.5t-37 -94.5q0 -58 37.5 -99t93.5 -41z" />
<glyph horiz-adv-x="717" d="M366 933q141 0 240.5 -92.5t99.5 -228.5q0 -104 -73 -204l-299 -408h-224l241 303q-21 -5 -45 -3q-54 2 -103.5 22.5t-91 57t-66.5 96t-25 133.5q0 90 47.5 165t127 117t171.5 42zM362 454q71 0 112 42.5t40 113.5q0 66 -41.5 105.5t-112.5 39.5q-65 0 -109 -41t-43 -105 q1 -68 43.5 -111.5t110.5 -43.5z" />
<glyph horiz-adv-x="782" d="M390 606q-156 0 -250 129.5t-94 343.5q0 213 94 343t250 130t251 -130t95 -343q0 -214 -95 -343.5t-251 -129.5zM392 792q67 0 109 77.5t42 209.5t-42 209t-109 77q-68 0 -110 -77t-42 -209t42 -209.5t110 -77.5z" />
<glyph horiz-adv-x="455" d="M150 614v741h-130v181h320v-922h-190z" />
<glyph horiz-adv-x="709" d="M362 795h296v-181h-635v64q136 136 224.5 236t129 164.5t54 102t13.5 73.5q0 69 -34 96.5t-82 24.5q-58 -2 -84.5 -39.5t-23.5 -88.5h-195q-4 133 85 218t228 85q131 0 211 -76.5t81 -201.5q0 -220 -268 -477z" />
<glyph horiz-adv-x="684" d="M519 1127q57 -38 89.5 -96.5t32.5 -130.5q0 -125 -90 -211.5t-223 -86.5q-128 0 -216.5 77.5t-88.5 194.5l196 2q0 -39 32.5 -64.5t77.5 -25.5q52 0 86 35t34 87q0 50 -32 75t-85 25h-91l-1 175h79q41 0 68 27.5t27 67.5q0 39 -27 63t-66 24q-37 0 -60 -19.5t-23 -51.5 l-191 4q0 110 78 180t196 70q116 0 192.5 -71.5t76.5 -181.5q0 -103 -71 -168z" />
<glyph horiz-adv-x="761" d="M704 990v-181h-78v-195h-191v195h-436v120l377 607h250v-546h78zM239 990h196v338z" />
<glyph horiz-adv-x="787" d="M454 1245q121 0 198 -82t77 -222q0 -151 -95 -244t-238 -93q-84 0 -157 31t-124 93.5t-63 145.5l205 20q14 -52 54.5 -79t92.5 -27q53 0 87.5 41t34.5 111q0 65 -35.5 102t-91.5 37q-37 0 -74.5 -21t-61.5 -56l-201 1l98 534h537v-177h-395l-32 -179q27 26 76 45t108 19z " />
<glyph horiz-adv-x="716" d="M428 1241q44 -6 90 -30.5t87 -63.5t66.5 -97.5t25.5 -123.5q0 -138 -103.5 -234t-242.5 -89q-144 6 -242 96t-98 225q0 94 73 204l299 408h224l-233 -293q29 2 54 -2zM351 780q70 -5 114.5 38t43.5 108q-1 69 -40 109.5t-102 45.5q-79 7 -122 -37t-43 -119 q2 -132 149 -145z" />
<glyph horiz-adv-x="653" d="M24 1536h635v-141l-416 -781h-218l410 746h-411v176z" />
<glyph horiz-adv-x="733" d="M366 602q-140 0 -232.5 83t-92.5 207q0 73 34 133t95 99q-74 62 -74 180q0 104 76.5 174t194.5 70q116 0 193 -70t77 -174q0 -116 -73 -180q61 -39 95 -99t34 -133q0 -124 -93 -207t-234 -83zM367 1177q43 0 71.5 29t28.5 71q0 43 -28.5 72t-71.5 29t-71.5 -29t-28.5 -72 q0 -42 28.5 -71t71.5 -29zM366 768q57 0 95 41t38 99q0 57 -38 94.5t-95 37.5t-94 -37.5t-37 -94.5q0 -58 37.5 -99t93.5 -41z" />
<glyph horiz-adv-x="717" d="M366 1547q141 0 240.5 -92.5t99.5 -228.5q0 -104 -73 -204l-299 -408h-224l241 303q-21 -5 -45 -3q-54 2 -103.5 22.5t-91 57t-66.5 96t-25 133.5q0 90 47.5 165t127 117t171.5 42zM362 1068q71 0 112 42.5t40 113.5q0 66 -41.5 105.5t-112.5 39.5q-65 0 -109 -41 t-43 -105q1 -68 43.5 -111.5t110.5 -43.5z" />
<glyph horiz-adv-x="628" d="M154 -374l92 656h276l-212 -656h-156z" />
<glyph horiz-adv-x="628" d="M370 716q-67 0 -115.5 48.5t-48.5 116.5q0 66 48.5 114.5t115.5 48.5t116 -48.5t49 -114.5q0 -68 -48.5 -116.5t-116.5 -48.5zM152 -374l91 656h276l-212 -656h-155z" />
<glyph horiz-adv-x="628" d="M154 -374l92 656h276l-212 -656h-156z" />
<glyph horiz-adv-x="628" d="M370 716q-67 0 -115.5 48.5t-48.5 116.5q0 66 48.5 114.5t115.5 48.5t116 -48.5t49 -114.5q0 -68 -48.5 -116.5t-116.5 -48.5zM152 -374l91 656h276l-212 -656h-155z" />
<glyph horiz-adv-x="1013" d="M308 308q68 0 116.5 -49t48.5 -116q0 -38 -18 -74l-187 -443h-156l121 373q-40 21 -64.5 59.5t-24.5 84.5q0 67 49 116t115 49zM919 143q0 -38 -18 -74l-187 -443h-156l121 373q-40 21 -64.5 59.5t-24.5 84.5q0 67 49 116t115 49q68 0 116.5 -49t48.5 -116z" />
<glyph horiz-adv-x="1004" d="M446 1536l-92 -656h-276l212 656h156zM879 1536l-92 -656h-276l212 656h156z" />
<glyph horiz-adv-x="1004" d="M125 880l92 656h276l-212 -656h-156zM558 880l92 656h276l-212 -656h-156z" />
<glyph horiz-adv-x="571" d="M446 1536l-92 -656h-276l212 656h156z" />
<glyph horiz-adv-x="571" d="M125 880l92 656h276l-212 -656h-156z" />
<glyph horiz-adv-x="571" d="M125 -374l92 656h276l-212 -656h-156z" />
<glyph horiz-adv-x="1033" d="M475 1536l-92 -656h-276l212 656h156zM908 1536l-92 -656h-276l212 656h156z" />
<glyph horiz-adv-x="1004" d="M125 880l92 656h276l-212 -656h-156zM558 880l92 656h276l-212 -656h-156z" />
<glyph horiz-adv-x="571" d="M446 1536l-92 -656h-276l212 656h156z" />
<glyph horiz-adv-x="571" d="M125 880l92 656h276l-212 -656h-156z" />
<glyph horiz-adv-x="571" d="M125 -374l92 656h276l-212 -656h-156z" />
<glyph d="M-93 1393q0 -37 -18 -75l-145 -352h-167l89 282q-40 21 -64 60t-24 85q0 67 48.5 116t115.5 49t116 -49t49 -116z" />
<glyph d="M-666 1071q-59 0 -102 42t-43 102t43 102t102 42q60 0 103 -42t43 -102t-43 -102t-103 -42zM-246 1071q-60 0 -102.5 42t-42.5 102t42.5 102t102.5 42t102 -41.5t42 -102.5q0 -60 -42 -102t-102 -42z" />
<glyph d="M-323 1089q-100 0 -171.5 71t-71.5 171q0 98 71.5 168.5t171.5 70.5q98 0 168.5 -70.5t70.5 -168.5q0 -100 -70.5 -171t-168.5 -71zM-323 1212q50 0 83.5 33.5t33.5 85.5q0 47 -34.5 83t-82.5 36q-49 0 -82.5 -36t-33.5 -83q0 -53 33 -86t83 -33z" />
<glyph d="M-247 963h-156l79 573h276z" />
<glyph d="M-412 1608l-105 115l309 334l138 -155zM-396 1183q-166 0 -265 90t-99 260h177q0 -76 50 -130.5t137 -54.5t137.5 54.5t50.5 130.5h177q0 -170 -99 -260t-266 -90z" />
<glyph d="M-355 1612l-345 290l139 155l305 -335zM-369 1183q-166 0 -265 90t-99 260h177q0 -76 50 -130.5t137 -54.5t137.5 54.5t50.5 130.5h177q0 -170 -99 -260t-266 -90z" />
<glyph d="M-451 1594v191q145 24 145 123q0 36 -22.5 60t-64.5 24q-60 0 -113 -50l-89 132q92 75 205 75q108 0 181.5 -67.5t73.5 -172.5q0 -74 -41 -132.5t-123 -80.5v-102h-152zM-375 1183q-166 0 -265 90t-99 260h177q0 -76 50 -130.5t137 -54.5t137.5 54.5t50.5 130.5h177 q0 -170 -99 -260t-266 -90z" />
<glyph d="M-313 1599q-121 0 -200 118q-28 43 -62 43q-39 0 -59 -41.5t-20 -107.5h-160q0 135 62.5 220.5t169.5 85.5q122 0 201 -118q10 -14 16.5 -21.5t19.5 -14.5t29 -7q76 0 76 149h161q0 -134 -61.5 -220t-172.5 -86zM-446 1183q-166 0 -265 90t-99 260h177q0 -76 50 -130.5 t137 -54.5t137.5 54.5t50.5 130.5h177q0 -170 -99 -260t-266 -90z" />
<glyph d="M-398 1638l-105 115l309 334l138 -155zM-597 1161l-120 76l239 299h191l242 -299l-121 -76l-215 210z" />
<glyph d="M-333 1642l-345 290l139 155l305 -335zM-562 1161l-120 76l239 299h191l242 -299l-121 -76l-215 210z" />
<glyph d="M-442 1624v191q145 24 145 123q0 36 -22.5 60t-64.5 24q-60 0 -113 -50l-89 132q92 75 205 75q108 0 181.5 -67.5t73.5 -172.5q0 -74 -41 -132.5t-123 -80.5v-102h-152zM-581 1161l-120 76l239 299h191l242 -299l-121 -76l-215 210z" />
<glyph d="M-300 1629q-121 0 -200 118q-28 43 -62 43q-39 0 -59 -41.5t-20 -107.5h-160q0 135 62.5 220.5t169.5 85.5q122 0 201 -118q10 -14 16.5 -21.5t19.5 -14.5t29 -7q76 0 76 149h161q0 -134 -61.5 -220t-172.5 -86zM-648 1161l-120 76l239 299h191l242 -299l-121 -76 l-215 210z" />
</font>
</defs>
</svg>
