<?xml version="1.0" standalone="no"?>
<!DOCTYPE svg PUBLIC "-//W3C//DTD SVG 1.1//EN" "http://www.w3.org/Graphics/SVG/1.1/DTD/svg11.dtd" >
<svg xmlns="http://www.w3.org/2000/svg" xmlns:xlink="http://www.w3.org/1999/xlink" version="1.1">
<metadata></metadata>
<defs>
<font id="neue_hans_kendrickHvIt" horiz-adv-x="0" >
<font-face units-per-em="2048" ascent="1536" descent="-512" />
<missing-glyph horiz-adv-x="492" />
<glyph unicode="fi" horiz-adv-x="1366" d="M639 963h690l-47 -271l-121 -692h-366l121 692h-324l-121 -692h-369l121 692h-162l48 271h161l39 217q32 180 150.5 281.5t294.5 101.5q67 0 118.5 -11.5t69.5 -27.5l-35 -305q-31 28 -94 28q-53 0 -94.5 -38.5t-52.5 -94.5zM1221 1505q88 0 141 -64.5t37 -154.5 q-13 -70 -71.5 -119t-129.5 -49q-88 0 -141 65.5t-37 155.5q12 70 70 118t131 48z" />
<glyph unicode="fl" horiz-adv-x="1409" d="M856 963l-47 -271h-217l-121 -692h-369l121 692h-162l48 271h162l38 217q32 180 150.5 281.5t294.5 101.5q67 0 118.5 -11.5t69.5 -27.5l-35 -305q-31 28 -94 28q-53 0 -94.5 -38.5t-52.5 -94.5l-26 -151h216zM1104 1536h369l-270 -1536h-369z" />
<glyph unicode=" "  horiz-adv-x="492" />
<glyph unicode="&#x09;" horiz-adv-x="492" />
<glyph unicode="&#xa0;" horiz-adv-x="492" />
<glyph unicode="!" horiz-adv-x="678" d="M164 555l174 981h369l-175 -981h-368zM270 -20q-90 0 -142.5 65.5t-37.5 157.5q12 72 71.5 122t131.5 50q92 0 145.5 -66t36.5 -159q-12 -71 -71.5 -120.5t-133.5 -49.5z" />
<glyph unicode="&#x22;" horiz-adv-x="1104" d="M268 879l62 657h346l-156 -657h-252zM727 879l74 657h344l-166 -657h-252z" />
<glyph unicode="#" horiz-adv-x="1661" d="M221 0l103 326h-289l80 256h288l115 348h-293l88 254h285l104 334h259l-105 -334h318l104 334h260l-106 -334h292l-86 -254h-286l-111 -348h287l-80 -256h-287l-106 -326h-256l102 326h-321l-101 -326h-258zM664 582h317l113 348h-322z" />
<glyph unicode="$" horiz-adv-x="1393" d="M868 936q40 -16 72 -31t67 -34.5t62 -38.5t54 -44.5t45.5 -52t33.5 -60t21.5 -70.5t6 -82t-9.5 -95q-22 -127 -99 -224.5t-183.5 -151t-231.5 -67.5l-26 -145h-322l31 178q-114 39 -199.5 107.5t-138.5 140.5l280 236q65 -104 138.5 -152.5t167.5 -48.5q91 0 146.5 41.5 t68.5 114.5q6 31 -2.5 55t-39 47t-54 35.5t-80.5 39.5q-13 6 -20 9.5t-18 8.5t-20 10q-138 67 -183 97q-147 96 -170 236q-10 64 3 142q27 151 133 253.5t255 142.5l30 163h322l-29 -157q189 -45 344 -224l-262 -209q-93 141 -238 141q-66 0 -117.5 -36t-60.5 -93 q-6 -30 7 -54.5t45.5 -46t67.5 -37.5t90 -39q9 -3 13 -5z" />
<glyph unicode="%" horiz-adv-x="1772" d="M414 786q-111 0 -195.5 55t-122.5 150t-18 207q26 149 150 253.5t274 104.5q111 0 195.5 -55t122.5 -149.5t18 -206.5q-26 -148 -150 -253.5t-274 -105.5zM193 0l1042 1536h338l-1045 -1536h-335zM414 1057q58 0 105.5 41t58.5 100q6 37 -16.5 62.5t-59.5 25.5 q-58 0 -106 -41t-58 -100q-6 -37 15.5 -62.5t60.5 -25.5zM1272 -16q-112 0 -197 54.5t-123 149t-18 207.5q26 149 150.5 254t275.5 105q168 0 265.5 -120.5t68.5 -291.5q-26 -148 -149 -253t-273 -105zM1272 256q57 0 105 40.5t59 98.5q6 35 -16.5 61.5t-59.5 26.5 q-57 0 -106.5 -41.5t-59.5 -99.5q-6 -37 16.5 -61.5t61.5 -24.5z" />
<glyph unicode="&#x26;" horiz-adv-x="1556" d="M504 -20q-104 0 -191 32.5t-148 92.5t-86 153.5t-5 206.5q12 72 39.5 130.5t79 113t111 101.5t153.5 110q-49 69 -68.5 137.5t-3.5 152.5q26 151 146 246.5t278 95.5q113 0 198.5 -46.5t126 -133t21.5 -196.5q-10 -56 -35.5 -104.5t-65.5 -89.5t-80.5 -72t-99.5 -68 l150 -234l295 295l172 -209l-313 -315l237 -383l-371 4l-104 154q-220 -174 -436 -174zM709 1040q13 9 42.5 29t44.5 32t35 31t31 40.5t15 46.5q6 33 -13 49.5t-53 13.5q-52 0 -96 -32t-53 -85q-3 -16 1.5 -34.5t11 -31t18 -31.5t16.5 -28zM502 262q37 0 74 11.5t81 39 t61.5 40t63.5 46.5l-178 269q-7 -4 -32.5 -19t-46.5 -28t-51 -36.5t-51.5 -47.5t-40 -57.5t-24.5 -69.5q-13 -68 33 -108t111 -40z" />
<glyph unicode="'" horiz-adv-x="641" d="M266 879l68 657h346l-162 -657h-252z" />
<glyph unicode="(" horiz-adv-x="737" d="M346 -459q-178 161 -243 475.5t3 708.5q67 375 233.5 682t393.5 465l189 -266q-160 -104 -297.5 -360t-194.5 -574q-53 -302 -11 -549t167 -348z" />
<glyph unicode=")" horiz-adv-x="739" d="M82 -475l-188 266q161 103 298 359.5t193 574.5q54 302 12 549t-166 348l240 233q177 -161 241.5 -475t-3.5 -708q-65 -374 -232 -681t-395 -466z" />
<glyph unicode="*" horiz-adv-x="1004" d="M428 741l-160 101l224 250l-310 -35l33 194l309 -32l-141 249l176 101l76 -283l178 283l164 -101l-227 -249l309 32l-33 -194l-309 35l145 -250l-180 -101l-78 281z" />
<glyph unicode="+" horiz-adv-x="1196" d="M463 205v373h-373v270h373v373h270v-373h373v-270h-373v-373h-270z" />
<glyph unicode="," horiz-adv-x="614" d="M287 375q91 0 145 -67t37 -158q-11 -60 -56 -105l-272 -418h-182l199 385q-44 30 -64 81t-10 110q12 70 72 121t131 51z" />
<glyph unicode="-" horiz-adv-x="958" d="M98 348l45 266h717l-45 -266h-717z" />
<glyph unicode="." horiz-adv-x="641" d="M254 -20q-89 0 -142.5 66t-37.5 157q12 70 71.5 121t130.5 51q91 0 145 -67t38 -158q-13 -70 -73 -120t-132 -50z" />
<glyph unicode="/" horiz-adv-x="1409" d="M-178 -430l1474 2150h351l-1473 -2150h-352z" />
<glyph unicode="0" horiz-adv-x="1311" d="M592 -20q-285 0 -407 216.5t-54 598.5q63 360 244.5 560.5t447.5 200.5q284 0 405.5 -216.5t53.5 -598.5q-63 -360 -244 -560.5t-446 -200.5zM602 303q105 0 193.5 133.5t128.5 358.5q36 205 6 321.5t-117 116.5q-107 0 -195.5 -133t-128.5 -359q-35 -205 -5 -321.5 t118 -116.5z" />
<glyph unicode="1" horiz-adv-x="1311" d="M449 0l213 1214h-289l57 322h657l-270 -1536h-368z" />
<glyph unicode="2" horiz-adv-x="1311" d="M1278 1104q-11 -64 -31 -117.5t-59 -111t-87.5 -110.5t-130.5 -124.5t-174 -143t-230 -175.5h601l-55 -322h-1094l41 283q172 142 280.5 233t207.5 175.5t153 137.5t99 100.5t66 83.5t33.5 67.5t19.5 70.5q6 38 -3 63.5t-30.5 37t-42.5 16t-47 4.5q-95 0 -155 -57.5 t-79 -163.5l-364 24q41 231 201.5 357.5t400.5 126.5q245 0 378.5 -125t100.5 -330z" />
<glyph unicode="3" horiz-adv-x="1311" d="M580 -20q-98 0 -182 18t-155 56t-115 97.5t-62 142t2 189.5l372 -24q-16 -96 25 -132t119 -36q111 0 177.5 60.5t84.5 160.5q13 76 -29.5 115t-130.5 39h-108l49 276h59q47 0 93 19t85 64t49 108q23 116 -114 116q-75 0 -129.5 -40.5t-69.5 -127.5l-367 25q20 111 73 198 t128.5 141.5t166.5 82.5t192 28q231 0 362.5 -129t97.5 -317q-18 -104 -87 -181t-144 -108q41 -11 77 -37t68.5 -73.5t42 -114.5t-3.5 -160q-37 -210 -205 -333t-421 -123z" />
<glyph unicode="4" horiz-adv-x="1311" d="M1288 604l-57 -321h-220l-50 -283h-369l49 283h-627l54 321l675 932h488l-164 -932h221zM355 604h342l111 639z" />
<glyph unicode="5" horiz-adv-x="1311" d="M1305 1214h-665l-74 -242q134 83 282 83q92 0 170.5 -34.5t134.5 -98t78 -165t0 -225.5q-29 -167 -125.5 -295t-231 -194t-284.5 -66q-118 0 -219.5 36.5t-171 100t-101 155.5t-12.5 196h379q3 -137 156 -137q89 0 162.5 68t93.5 182q16 91 -23.5 141.5t-108.5 50.5 q-67 0 -137 -42t-116 -107l-379 12l321 903h928z" />
<glyph unicode="6" horiz-adv-x="1311" d="M848 1004q134 0 233 -71.5t140.5 -190t17.5 -253.5q-27 -144 -126 -262t-239 -182.5t-290 -64.5q-165 0 -289.5 75.5t-181 206t-29.5 287.5q31 174 192 360l574 627h424l-497 -537q42 5 71 5zM883 543q8 86 -39.5 142t-141.5 56q-107 0 -177.5 -68t-80.5 -173 q-9 -86 36.5 -142.5t137.5 -56.5q108 0 181.5 69t83.5 173z" />
<glyph unicode="7" horiz-adv-x="1311" d="M260 1536h1172l-46 -274l-880 -1262h-428l872 1214h-747z" />
<glyph unicode="8" horiz-adv-x="1311" d="M590 -20q-251 0 -390.5 148t-101.5 370q21 119 95.5 215t187.5 155q-100 119 -70 297q29 169 173 280t337 111q211 0 327.5 -127t82.5 -317q-29 -166 -164 -268q89 -68 126.5 -171t16.5 -229q-35 -200 -210.5 -332t-409.5 -132zM733 950q74 0 128 52t61 128 q3 56 -30.5 91.5t-90.5 35.5q-75 0 -130 -51.5t-61 -128.5q-3 -55 31.5 -91t91.5 -36zM621 301q91 0 157 65.5t72 161.5q4 72 -38.5 116t-117.5 44q-91 0 -155.5 -60t-71.5 -153q-5 -74 38.5 -124t115.5 -50z" />
<glyph unicode="9" horiz-adv-x="1311" d="M727 1556q165 0 289.5 -75.5t181 -206t29.5 -287.5q-31 -174 -192 -360l-574 -627h-424l497 537q-42 -5 -71 -5q-134 0 -233 71.5t-140.5 190t-17.5 253.5q27 144 126 262t239 182.5t290 64.5zM867 1036q9 86 -36.5 142.5t-137.5 56.5q-108 0 -181.5 -69t-83.5 -173 q-8 -86 39.5 -142t141.5 -56q107 0 177.5 68t80.5 173z" />
<glyph unicode=":" horiz-adv-x="616" d="M360 649q-89 0 -142.5 67t-37.5 158q13 70 72.5 120t130.5 50q91 0 145 -66t37 -157q-12 -71 -72 -121.5t-133 -50.5zM242 -20q-89 0 -142.5 66t-38.5 157q13 71 73 121.5t130 50.5q91 0 145 -67t37 -158q-12 -70 -72 -120t-132 -50z" />
<glyph unicode=";" horiz-adv-x="604" d="M389 1044q91 0 145 -66t37 -157q-12 -71 -72 -121.5t-132 -50.5q-89 0 -143 67t-38 158q13 70 72.5 120t130.5 50zM270 375q91 0 145 -67t38 -158q-10 -58 -55 -104l-273 -419h-182l199 385q-44 31 -64 81.5t-10 109.5q12 70 71.5 121t130.5 51z" />
<glyph unicode="&#x3c;" horiz-adv-x="1319" d="M1208 1518v-299l-852 -431l852 -432v-303l-1130 572v325z" />
<glyph unicode="=" horiz-adv-x="1327" d="M182 807v270h963v-270h-963zM182 348v270h963v-270h-963z" />
<glyph unicode="&#x3e;" horiz-adv-x="1319" d="M111 1518l1130 -568v-325l-1130 -572v303l852 432l-852 431v299z" />
<glyph unicode="?" horiz-adv-x="1174" d="M428 514l18 104q14 79 44.5 138t69.5 93.5t83 60t87 45t79.5 41t63 56t34.5 81.5q11 59 -35.5 93t-126.5 34q-106 0 -182.5 -69.5t-95.5 -176.5l-317 24q41 236 206.5 378.5t395.5 142.5q151 0 266.5 -63.5t169.5 -174t31 -242.5q-18 -100 -67.5 -169t-108.5 -104 t-117 -64t-102.5 -70t-55.5 -101l-10 -57h-330zM528 -20q-91 0 -144 65t-38 158q12 72 71.5 122t133.5 50q91 0 144 -66t36 -159q-12 -71 -71 -120.5t-132 -49.5z" />
<glyph unicode="@" horiz-adv-x="1743" d="M1026 1311q120 0 227.5 -29t196 -86.5t147 -143t81 -199.5t-2.5 -255q-19 -109 -60.5 -197.5t-92 -144.5t-111.5 -93.5t-117.5 -53t-111.5 -15.5q-86 0 -136.5 32t-62.5 80q-24 -40 -87.5 -76t-154.5 -36q-107 0 -177.5 53t-95 140t-5.5 196q11 60 37.5 123t71 124.5 t100 110t129.5 78t155 29.5q82 0 138 -32t72 -77l30 79l199 -13q-73 -177 -164 -432q-37 -102 -37 -133q-1 -45 43 -45q67 0 136.5 99t92.5 241q20 102 5 179.5t-52 133t-98 90.5t-132 51.5t-155 16.5q-135 0 -257.5 -49.5t-213.5 -134t-152.5 -197t-82.5 -238.5 q-24 -130 0.5 -235.5t89 -174.5t162.5 -106t221 -37q222 0 418 107l106 -184q-226 -127 -530 -127q-186 0 -332 62.5t-234.5 171.5t-122 258.5t-4.5 322.5q39 219 179 396t337 273.5t408 96.5zM1071 604q29 170 -98 170q-111 0 -199.5 -109.5t-111.5 -240.5 q-5 -25 -4.5 -48.5t7.5 -49.5t31 -42t62 -16q52 0 99 22t82 57t63 80t44.5 90t24.5 87z" />
<glyph unicode="A" horiz-adv-x="1622" d="M1102 0l-32 231h-591l-114 -231h-426l823 1536h469l285 -1536h-414zM633 543h394l-87 623z" />
<glyph unicode="B" horiz-adv-x="1403" d="M1372 1079q-37 -215 -222 -303q225 -103 177 -381q-34 -189 -177.5 -292t-344.5 -103h-735l270 1536h590q154 0 262 -53.5t156.5 -157.5t23.5 -246zM1006 1073q11 66 -21.5 103.5t-103.5 37.5h-233l-50 -296h223q80 0 125.5 42t59.5 113zM977 477q11 59 -22 100t-130 41 h-278l-50 -296h289q84 0 131.5 41t59.5 114z" />
<glyph unicode="C" horiz-adv-x="1511" d="M782 -20q-165 0 -304 64.5t-228 174t-126.5 261t-8.5 317.5q36 208 168.5 382.5t326 275.5t402.5 101q197 0 351.5 -87.5t242.5 -239.5l-332 -195q-38 82 -110 123t-169 41q-186 0 -331 -132t-172 -327q-24 -166 61 -273.5t250 -107.5q100 0 193.5 41.5t166.5 114.5 l283 -233q-132 -140 -306 -220.5t-358 -80.5z" />
<glyph unicode="D" horiz-adv-x="1534" d="M70 0l270 1536h514q111 0 206.5 -21t168 -60t130 -94t93.5 -123t56.5 -147.5t20 -167.5t-15.5 -182q-27 -156 -98.5 -289t-183 -234.5t-272.5 -159.5t-353 -58h-536zM508 332h113q102 0 189.5 35.5t150.5 98.5t104.5 146.5t58.5 182.5q18 87 6 161.5t-48 129.5 t-108.5 86.5t-174.5 31.5h-137z" />
<glyph unicode="E" horiz-adv-x="1239" d="M1268 1204h-606l-48 -270h521l-60 -332h-519l-48 -270h606l-57 -332h-987l270 1536h987z" />
<glyph unicode="F" horiz-adv-x="1198" d="M1268 1204h-606l-47 -270h520l-60 -332h-518l-106 -602h-381l270 1536h987z" />
<glyph unicode="G" horiz-adv-x="1647" d="M938 891h680l-156 -891h-252l-31 124q-156 -144 -395 -144q-165 0 -304 64.5t-228 173.5t-126.5 260t-8.5 317q36 208 169 383t327 276.5t403 101.5q196 0 350.5 -87t241.5 -234l-314 -197q-40 81 -117 122.5t-178 41.5q-187 0 -329.5 -130t-177.5 -331 q-31 -179 53.5 -293t255.5 -114q259 0 385 184l10 62h-313z" />
<glyph unicode="H" horiz-adv-x="1636" d="M1288 1536h381l-270 -1536h-381l106 602h-567l-106 -602h-381l270 1536h381l-105 -600h567z" />
<glyph unicode="I" horiz-adv-x="688" d="M70 0l270 1536h381l-270 -1536h-381z" />
<glyph unicode="J" horiz-adv-x="1110" d="M373 -20q-258 0 -418 120l199 293q93 -76 208 -76q105 0 170 72t89 205l165 942h381l-184 -1038q-41 -234 -202 -376t-408 -142z" />
<glyph unicode="K" horiz-adv-x="1614" d="M1769 1536l-792 -768l532 -768h-495l-441 692l-122 -692h-381l270 1536h381l-121 -691l676 691h493z" />
<glyph unicode="L" horiz-adv-x="1069" d="M511 332h490l-57 -332h-874l270 1536h381z" />
<glyph unicode="M" horiz-adv-x="1982" d="M1675 1536h340l-270 -1536h-381l148 842l-578 -719l-332 736l-151 -859h-381l270 1536h334l359 -778z" />
<glyph unicode="N" horiz-adv-x="1735" d="M1386 1536h381l-270 -1536h-397l-480 965l-169 -965h-381l270 1536h395l482 -960z" />
<glyph unicode="O" horiz-adv-x="1700" d="M784 -20q-165 0 -304 64.5t-228 173.5t-126.5 260t-8.5 317q36 208 169 383t327 276.5t403 101.5q165 0 304 -64.5t228 -173.5t126.5 -260t8.5 -317q-36 -208 -169 -383t-327 -276.5t-403 -101.5zM817 344q187 0 325.5 128.5t166.5 322.5q24 172 -65 284.5t-259 112.5 q-189 0 -327.5 -128.5t-165.5 -322.5q-24 -173 65 -285t260 -112z" />
<glyph unicode="P" horiz-adv-x="1425" d="M1006 1536q168 0 285.5 -67.5t165 -180t22.5 -250.5q-35 -192 -196.5 -312t-408.5 -120h-319l-104 -606h-381l270 1536h666zM1122 1063q10 55 -27 98t-106 43h-331l-50 -289h289q201 0 225 148z" />
<glyph unicode="Q" horiz-adv-x="1729" d="M1016 1556q165 0 304 -64.5t228 -173.5t126.5 -260t8.5 -317q-41 -240 -213 -436l140 -153l-244 -213l-139 165q-215 -124 -443 -124q-165 0 -304 64.5t-228 173.5t-126.5 260t-8.5 317q36 208 169 383t327 276.5t403 101.5zM1061 750l170 -185q70 105 88 230 q25 173 -66 285t-268 112q-196 0 -336.5 -128.5t-167.5 -322.5q-23 -174 67.5 -285.5t268.5 -111.5q94 0 180 33l-153 182z" />
<glyph unicode="R" horiz-adv-x="1456" d="M1047 1536q149 0 257 -67t153.5 -180.5t21.5 -250.5q-26 -146 -126 -255t-242 -152l208 -631h-406l-179 606h-179l-104 -606h-381l270 1536h707zM1122 1067q25 137 -125 137h-339l-50 -289h236q253 0 278 152z" />
<glyph unicode="S" horiz-adv-x="1229" d="M569 -20q-107 0 -203.5 28t-167 74t-119 91t-83.5 93l280 236q65 -104 138.5 -152.5t167.5 -48.5q91 0 146.5 41.5t68.5 114.5q6 31 -2.5 55t-39 47t-54 35.5t-80.5 39.5q-13 6 -20 9.5t-18 8.5t-20 10q-138 67 -183 97q-147 96 -170 236q-10 64 3 142q24 132 110.5 229 t204.5 143.5t250 46.5q157 0 275 -64.5t215 -176.5l-262 -209q-93 141 -238 141q-66 0 -117.5 -36t-60.5 -93q-6 -30 7 -54.5t45.5 -46t67.5 -37.5t90 -39q9 -3 13 -5q40 -16 72 -31t67 -34.5t62 -38.5t54 -44.5t45.5 -52t33.5 -60t21.5 -70.5t6 -82t-9.5 -95 q-25 -140 -116 -244t-215.5 -154t-264.5 -50z" />
<glyph unicode="T" horiz-adv-x="1217" d="M1362 1536l-59 -332h-377l-211 -1204h-379l211 1204h-379l59 332h1135z" />
<glyph unicode="U" horiz-adv-x="1556" d="M711 -20q-140 0 -257.5 42t-195 116t-112 179t-13.5 226l176 993h381l-168 -946q-22 -131 35.5 -205t165.5 -74q126 0 227 85t125 218l162 922h381l-180 -1018q-28 -160 -134 -283.5t-260.5 -189t-332.5 -65.5z" />
<glyph unicode="V" horiz-adv-x="1581" d="M1327 1536h418l-827 -1536h-429l-280 1536h401l166 -1089z" />
<glyph unicode="W" horiz-adv-x="2300" d="M2054 1536h408l-785 -1536h-481l-70 336l-190 -336h-481l-244 1536h395l168 -1215l255 476l-155 739h361l49 -264l141 264h377l-427 -758l84 -457z" />
<glyph unicode="X" horiz-adv-x="1520" d="M1659 1536l-638 -754l392 -782h-424l-217 481l-391 -481h-444l680 807l-365 729h426l189 -427l352 427h440z" />
<glyph unicode="Y" horiz-adv-x="1487" d="M1659 1536l-686 -819l-125 -717h-381l127 729l-393 807h415l220 -489l395 489h428z" />
<glyph unicode="Z" horiz-adv-x="1333" d="M1444 1536l-33 -207l-852 -997h664l-58 -332h-1179l30 207l857 997h-656l59 332h1168z" />
<glyph unicode="[" horiz-adv-x="766" d="M-31 -512l422 2382h584l-45 -254h-264l-332 -1874h264l-45 -254h-584z" />
<glyph unicode="\" horiz-adv-x="1389" d="M915 -430l-714 2150h334l712 -2150h-332z" />
<glyph unicode="]" horiz-adv-x="766" d="M-139 -512l45 254h264l332 1874h-264l45 254h583l-422 -2382h-583z" />
<glyph unicode="^" horiz-adv-x="1571" d="M1499 406h-293l-279 852l-579 -852h-313l770 1130h325z" />
<glyph unicode="_" horiz-adv-x="1364" d="M29 -317l47 266h1024l-47 -266h-1024z" />
<glyph unicode="`" horiz-adv-x="514" d="M492 1122l-310 291l191 184l256 -340z" />
<glyph unicode="a" horiz-adv-x="1260" d="M854 963h369l-168 -963h-328l3 104q-115 -124 -294 -124q-95 0 -174.5 38.5t-131 108t-72.5 167.5t1 218q25 141 102.5 251t183.5 168t222 58q186 0 270 -132zM569 287q89 0 158 65.5t76 159.5q8 72 -35.5 121t-116.5 49q-87 0 -154.5 -65t-76.5 -158q-6 -73 36.5 -122.5 t112.5 -49.5z" />
<glyph unicode="b" horiz-adv-x="1257" d="M823 989q197 0 308 -148.5t71 -381.5q-25 -142 -102.5 -252.5t-184.5 -168.5t-223 -58q-206 0 -286 154l-41 -134h-328l270 1536h369l-111 -641q107 94 258 94zM840 512q8 72 -35 121t-115 49q-88 0 -156 -65t-77 -158q-6 -73 37.5 -122.5t113.5 -49.5q89 0 156.5 65.5 t75.5 159.5z" />
<glyph unicode="c" horiz-adv-x="1063" d="M500 -18q-154 0 -266.5 69.5t-161 190t-23.5 266.5q36 202 200 337.5t382 135.5q165 0 280.5 -91t147.5 -235l-316 -96q-15 50 -52.5 76.5t-88.5 26.5q-86 0 -148.5 -60.5t-68.5 -146.5q-5 -65 35.5 -108.5t107.5 -43.5q65 0 119 36t78 89l274 -145 q-78 -140 -211.5 -220.5t-287.5 -80.5z" />
<glyph unicode="d" horiz-adv-x="1262" d="M956 1536h369l-270 -1536h-328l3 104q-115 -124 -294 -124q-95 0 -174.5 38.5t-131 108t-72.5 167.5t1 218q25 141 102.5 251t183.5 168t222 58q188 0 272 -134zM569 287q89 0 158 65.5t76 159.5q8 72 -35.5 121t-116.5 49q-87 0 -154.5 -65t-76.5 -158 q-6 -73 36.5 -122.5t112.5 -49.5z" />
<glyph unicode="e" horiz-adv-x="1110" d="M633 983q224 0 344 -136t80 -368l-13 -71h-638q-5 -80 22.5 -115t91.5 -35q119 0 197 94l282 -127q-74 -118 -197 -180.5t-284 -62.5q-128 0 -226.5 40.5t-157 111.5t-80.5 166.5t-3 205.5q36 205 198 341t384 136zM637 717q-113 0 -172 -94h271q-6 43 -30.5 68.5 t-68.5 25.5z" />
<glyph unicode="f" horiz-adv-x="797" d="M813 1247q-53 0 -94.5 -38.5t-52.5 -94.5l-26 -151h216l-47 -271h-217l-121 -692h-369l121 692h-162l48 271h162l38 217q32 180 150.5 281.5t294.5 101.5q67 0 118.5 -11.5t69.5 -27.5l-35 -305q-31 28 -94 28z" />
<glyph unicode="g" horiz-adv-x="1274" d="M868 963h369l-160 -914q-50 -280 -218 -414.5t-423 -134.5q-60 0 -121 8.5t-129 28t-131 58.5t-108 92l203 215q121 -105 266 -105q114 0 193.5 70t103.5 205l3 17q-112 -109 -272 -109q-205 0 -316 148.5t-69 383.5q25 141 101.5 251t184 168t226.5 58q196 0 277 -151z M420 459q-6 -73 36.5 -122.5t112.5 -49.5q89 0 158 65.5t76 159.5q8 72 -35.5 121t-116.5 49q-87 0 -154.5 -65t-76.5 -158z" />
<glyph unicode="h" horiz-adv-x="1221" d="M848 981q152 0 238.5 -113t58.5 -274l-105 -594h-368l90 522q27 152 -98 152q-66 0 -110 -42.5t-57 -108.5l-91 -523h-369l268 1536h369l-119 -681q120 126 293 126z" />
<glyph unicode="i" horiz-adv-x="608" d="M440 1118q-87 0 -140 65.5t-38 155.5q13 70 71 118t130 48q89 0 142 -64.5t36 -154.5q-12 -69 -70.5 -118.5t-130.5 -49.5zM37 0l168 963h366l-168 -963h-366z" />
<glyph unicode="j" horiz-adv-x="614" d="M442 1118q-88 0 -141.5 65.5t-38.5 155.5q13 70 71.5 118t131.5 48q87 0 140 -64.5t36 -154.5q-12 -69 -70 -118.5t-129 -49.5zM-47 -481l254 1444h368l-253 -1444h-369z" />
<glyph unicode="k" horiz-adv-x="1276" d="M1352 963l-512 -471l350 -492h-445l-268 405l-71 -405h-369l270 1536h369l-169 -960l400 387h445z" />
<glyph unicode="l" horiz-adv-x="612" d="M37 0l270 1536h369l-270 -1536h-369z" />
<glyph unicode="m" horiz-adv-x="1774" d="M1389 981q165 0 251 -110.5t58 -274.5l-105 -596h-368l94 530q24 144 -80 144q-111 0 -144 -130l-96 -544h-368l96 543q22 131 -84 131q-65 0 -100 -43.5t-45 -108.5h-1l-91 -522h-369l168 963h368l-17 -96q106 114 251 114q93 0 163.5 -43.5t107.5 -119.5 q120 163 311 163z" />
<glyph unicode="n" horiz-adv-x="1221" d="M848 981q152 0 238.5 -113t58.5 -274l-105 -594h-368l90 522q27 152 -98 152q-68 0 -112.5 -45t-55.5 -113h-1l-89 -516h-369l168 963h368l-19 -109q120 127 294 127z" />
<glyph unicode="o" horiz-adv-x="1130" d="M500 -18q-154 0 -266.5 69.5t-161 190t-23.5 266.5q36 202 200 337.5t382 135.5q115 0 208.5 -41t153 -111t83.5 -167.5t5 -206.5q-36 -202 -200 -337.5t-381 -135.5zM508 295q83 0 150 59t83 154q14 74 -20 118t-100 44q-84 0 -150.5 -59t-83.5 -156 q-13 -77 20.5 -118.5t100.5 -41.5z" />
<glyph unicode="p" horiz-adv-x="1262" d="M825 983q96 0 175.5 -38.5t131 -108t72 -167.5t-1.5 -218q-25 -141 -102 -251t-183.5 -168.5t-222.5 -58.5q-187 0 -271 134l-104 -599h-368l256 1455h328l-4 -103q116 123 294 123zM840 504q2 72 -45 122t-117 50q-89 0 -152 -66t-65 -159q-3 -73 44 -121.5t120 -48.5 q87 0 149.5 64.5t65.5 158.5z" />
<glyph unicode="q" horiz-adv-x="1260" d="M895 963h328l-256 -1455h-369l96 559q-106 -94 -258 -94q-197 0 -308 149t-71 382q38 213 185 346t325 133q207 0 287 -156zM420 451q-8 -73 34.5 -121.5t114.5 -48.5q88 0 156.5 65t77.5 158q6 72 -38 122t-114 50q-89 0 -156 -66t-75 -159z" />
<glyph unicode="r" horiz-adv-x="895" d="M791 983q57 0 95.5 -17.5t76.5 -50.5l-164 -301q-55 37 -107 37q-77 0 -137 -73.5t-82 -192.5l-67 -385h-369l168 963h370l-32 -146q30 64 97.5 115t150.5 51z" />
<glyph unicode="s" horiz-adv-x="987" d="M440 -20q-257 0 -460 129l157 219q55 -39 141 -64.5t148 -25.5q56 0 94.5 22t44.5 57q3 17 -18 25t-80.5 20t-108.5 29q-289 72 -247 309q16 97 87.5 162.5t167 93t209.5 27.5q232 0 400 -113l-156 -190q-51 29 -130.5 52.5t-133.5 23.5q-44 0 -75 -18.5t-36 -49.5 q-2 -11 6 -19.5t27 -15.5t39.5 -12t51 -13t53.5 -16q168 -37 238.5 -111t45.5 -212q-27 -153 -150 -231t-315 -78z" />
<glyph unicode="t" horiz-adv-x="752" d="M811 963l-47 -271h-165l-122 -692h-368l121 692h-169l48 271h168l61 346h369l-61 -346h165z" />
<glyph unicode="u" horiz-adv-x="1171" d="M516 -20q-244 0 -357 112.5t-81 298.5l100 572h369l-101 -570q-10 -63 10.5 -88.5t65.5 -25.5q63 0 111.5 37t60.5 102l94 545h369l-104 -596q-33 -184 -170 -285.5t-367 -101.5z" />
<glyph unicode="v" horiz-adv-x="1122" d="M807 963h397l-561 -963h-340l-217 963h385l66 -567z" />
<glyph unicode="w" horiz-adv-x="1669" d="M1352 963h391l-483 -965h-355l-59 559l-258 -559h-357l-137 965h377l37 -544l258 544h291l65 -539z" />
<glyph unicode="x" horiz-adv-x="1274" d="M-82 0l498 481l-318 482h428l142 -246l237 246h451l-500 -484l320 -479h-433l-139 242l-233 -242h-453z" />
<glyph unicode="y" horiz-adv-x="1243" d="M942 963h384l-833 -1444h-380l275 481h-74l-227 963h394l106 -671z" />
<glyph unicode="z" horiz-adv-x="1018" d="M1055 963l-536 -693h409l-47 -270h-926l534 692h-391l47 271h910z" />
<glyph unicode="{" horiz-adv-x="735" d="M385 -483q-169 0 -252.5 107.5t-56.5 260.5l80 457q7 41 11.5 69.5t5 53t1.5 39t-5.5 28t-9.5 19.5t-16.5 13.5t-21.5 10t-28.5 9.5t-33.5 12l17 231q86 26 104 36q51 27 77 100q17 50 32 137l82 456q27 154 134.5 249.5t276.5 95.5h158l-53 -306h-64q-41 0 -78.5 -30.5 t-46.5 -83.5l-69 -394q-12 -72 -25 -118.5t-37 -93t-59 -76.5t-89.5 -55t-131.5 -42q105 -24 157.5 -77.5t58.5 -133t-11 -186.5l-70 -397q-10 -58 1.5 -73t61.5 -15h88l-53 -303h-135z" />
<glyph unicode="|" horiz-adv-x="592" d="M45 -307l326 1843h223l-326 -1843h-223z" />
<glyph unicode="}" horiz-adv-x="735" d="M-125 -483l53 303h64q104 0 125 112l69 398q12 71 25 117t37 93t59 77t89.5 55.5t131.5 42.5q-105 23 -157.5 76t-58.5 133t12 188l69 393q10 53 -6 71.5t-57 18.5h-88l53 306h137q113 0 190 -51.5t106 -134.5t11 -183l-80 -457q-7 -41 -11.5 -70t-5 -53.5t-1.5 -39.5 t5.5 -28.5t9.5 -19.5t17 -14t20.5 -10.5t29 -9.5t33.5 -11l-17 -231q-87 -28 -101 -35q-51 -26 -76 -92q-20 -50 -36 -144l-82 -456q-25 -153 -132.5 -248.5t-276.5 -95.5h-160z" />
<glyph unicode="~" horiz-adv-x="1335" d="M868 295q-49 0 -93.5 12t-80 34.5t-57.5 39.5t-48.5 43.5t-31.5 30.5q-35 30 -68 30q-57 0 -83.5 -52t-28.5 -126h-252q-9 194 90 312t283 118q93 0 152.5 -33.5t115.5 -111.5q37 -53 80 -53q48 0 80 48t26 128h248q20 -178 -75.5 -299t-256.5 -121z" />
<glyph unicode="&#xa1;" horiz-adv-x="686" d="M395 649q-91 0 -143.5 66t-36.5 159q12 71 71.5 120.5t131.5 49.5q92 0 145.5 -65.5t36.5 -157.5q-12 -72 -71.5 -122t-133.5 -50zM-18 -512l174 981h368l-174 -981h-368z" />
<glyph unicode="&#xa2;" horiz-adv-x="1165" d="M620 543q65 0 119 36t78 89l274 -145q-70 -126 -186 -204.5t-253 -93.5l-40 -227h-209l44 242q-169 45 -253.5 184.5t-52.5 323.5q31 175 162 303.5t314 160.5l40 224h209l-40 -225q127 -27 213 -112t112 -204l-316 -96q-15 50 -52.5 76.5t-88.5 26.5q-86 0 -148.5 -60.5 t-68.5 -146.5q-5 -65 35.5 -108.5t107.5 -43.5z" />
<glyph unicode="&#xa3;" horiz-adv-x="1595" d="M677 594l-50 -283h721l-54 -311h-1220l43 252l171 33l54 309h-164l49 285h166l21 122q43 246 219 400.5t409 154.5q187 0 326.5 -117t159.5 -292l-328 -107q3 79 -46.5 130t-123.5 51q-111 0 -188.5 -67.5t-96.5 -176.5l-17 -98h380l-49 -285h-382z" />
<glyph unicode="&#xa4;" horiz-adv-x="1372" d="M686 225q-135 0 -258 66l-115 -115l-190 201l110 110q-67 116 -67 254q0 140 67 258l-108 109l190 201l115 -115q121 68 258 68q136 0 254 -68l113 113l194 -195l-110 -111q65 -114 65 -258q0 -142 -65 -258l108 -108l-190 -201l-115 115q-120 -66 -256 -66zM686 496 q105 0 175.5 74.5t70.5 174.5q0 102 -72 173t-174 71t-174 -74t-72 -176q0 -105 73 -174t173 -69z" />
<glyph unicode="&#xa5;" horiz-adv-x="1616" d="M1559 1536l-645 -770h309l-60 -229h-322l-22 -129h311l-55 -211h-293l-34 -197h-381l34 197h-309l55 211h291l23 129h-281l60 229h236l-375 770h415l220 -489l395 489h428z" />
<glyph unicode="&#xa6;" horiz-adv-x="592" d="M240 799l131 737h223l-131 -737h-223zM45 -307l131 737h223l-131 -737h-223z" />
<glyph unicode="&#xa7;" horiz-adv-x="1247" d="M436 -618q-143 4 -259.5 71t-184.5 172l256 187q83 -128 207 -131q71 -2 128.5 38t71.5 113q10 44 -13.5 78.5t-68.5 57t-103 47.5t-119 50t-116.5 65.5t-94 94t-52 134.5t9.5 188q42 181 203 303q-86 113 -49 299q23 106 81 188t136.5 129.5t165 70t174.5 19.5 q143 -4 256.5 -70.5t185.5 -172.5l-256 -187q-86 128 -207 131q-71 2 -128.5 -38t-73.5 -113q-10 -44 13 -78.5t68 -57t103.5 -47.5t119.5 -50t116 -65.5t94 -94t53 -134.5t-8 -188q-41 -180 -203 -303q83 -118 47 -299q-23 -106 -80.5 -188t-134.5 -129.5t-163.5 -70 t-174.5 -19.5zM635 285q65 4 116.5 56t65.5 118q7 33 -4 60t-41.5 49t-61.5 38t-81 38l-21 9q-67 -6 -118.5 -57.5t-63.5 -116.5q-8 -34 0 -59.5t44.5 -50.5t56.5 -35t84 -38q16 -7 24 -11z" />
<glyph unicode="&#xa8;" horiz-adv-x="936" d="M381 1126q-76 0 -121.5 56.5t-32.5 136.5q10 57 58.5 97t107.5 40q77 0 123 -56t33 -134q-11 -59 -59.5 -99.5t-108.5 -40.5zM829 1126q-77 0 -122 56.5t-31 136.5q9 57 57.5 97t108.5 40q77 0 122 -56t31 -134q-11 -59 -58.5 -99.5t-107.5 -40.5z" />
<glyph unicode="&#xa9;" horiz-adv-x="1757" d="M879 -20q-160 0 -306 62.5t-252 168t-168.5 251.5t-62.5 306t62.5 306t168.5 251.5t252 168t306 62.5t306 -62.5t251.5 -168t168 -251.5t62.5 -306t-62.5 -306t-168 -251.5t-251.5 -168t-306 -62.5zM879 170q165 0 302.5 79t216.5 216.5t79 302.5t-79 302.5t-216.5 216.5 t-302.5 79t-302.5 -79t-216.5 -216.5t-79 -302.5t79 -302.5t216.5 -216.5t302.5 -79zM885 330q-182 0 -310.5 128.5t-128.5 309.5q0 120 59 221t160 159t220 58q106 0 198.5 -46.5t151.5 -127.5l-164 -123q-64 97 -186 97q-99 0 -164.5 -67t-65.5 -171q0 -102 65.5 -169 t164.5 -67q122 0 186 97l164 -123q-59 -81 -151.5 -128.5t-198.5 -47.5z" />
<glyph unicode="&#xaa;" horiz-adv-x="864" d="M754 1536h176l-109 -614h-159l22 110q-90 -123 -231 -123q-134 0 -211 101t-52 245q22 123 116.5 208t211.5 85q148 0 212 -124zM526 1083q69 0 118.5 50.5t49.5 121.5q0 51 -35 85t-86 34q-69 0 -119.5 -50t-50.5 -122q0 -49 36.5 -84t86.5 -35z" />
<glyph unicode="&#xab;" horiz-adv-x="1196" d="M281 104l-250 377l372 377h297l-383 -377l240 -377h-276zM801 104l-250 377l373 377h299l-383 -377l239 -377h-278z" />
<glyph unicode="&#xac;" horiz-adv-x="1614" d="M1204 184v525h-1112v229h1340v-754h-228z" />
<glyph unicode="&#xad;" horiz-adv-x="958" d="M98 348l45 266h717l-45 -266h-717z" />
<glyph unicode="&#xae;" horiz-adv-x="1757" d="M879 1556q160 0 306 -62.5t251.5 -168t168 -251.5t62.5 -306t-62.5 -306t-168 -251.5t-251.5 -168t-306 -62.5t-306 62.5t-252 168t-168.5 251.5t-62.5 306t62.5 306t168.5 251.5t252 168t306 62.5zM879 170q165 0 302.5 79t216.5 216.5t79 302.5t-79 302.5t-216.5 216.5 t-302.5 79t-302.5 -79t-216.5 -216.5t-79 -302.5t79 -302.5t216.5 -216.5t302.5 -79zM1223 932q0 -73 -34.5 -131t-92.5 -90l149 -361h-225l-123 330h-90v-330h-209v838h371q107 0 180.5 -75t73.5 -181zM807 1008v-158h127q38 0 64 22t26 56q0 35 -25.5 57.5t-64.5 22.5 h-127z" />
<glyph unicode="&#xaf;" horiz-adv-x="877" d="M248 1196l37 209h635l-37 -209h-635z" />
<glyph unicode="&#xb0;" horiz-adv-x="795" d="M397 1069q-115 0 -194.5 79.5t-79.5 194.5t79.5 195t194.5 80t195 -80t80 -195t-80 -194.5t-195 -79.5zM397 1239q45 0 75 30t30 74q0 45 -30 75t-75 30q-44 0 -74 -30t-30 -75q0 -44 30 -74t74 -30z" />
<glyph unicode="&#xb2;" horiz-adv-x="707" d="M770 1239q-18 -101 -96.5 -215.5t-187.5 -208.5h240l-34 -201h-656v57q161 131 269.5 232t163 170t77 112.5t29.5 85.5q6 31 1 51.5t-17 27.5t-27.5 10t-30.5 -1q-67 -3 -106 -47.5t-41 -87.5l-207 25q16 134 117 217.5t239 83.5q144 0 217.5 -87.5t49.5 -223.5z" />
<glyph unicode="&#xb3;" horiz-adv-x="670" d="M724 1261q-16 -93 -86 -150q95 -90 70 -235q-21 -115 -118.5 -194.5t-223.5 -79.5q-138 0 -220.5 82.5t-62.5 199.5l211 -22q-6 -30 12 -44t50 -14q55 0 98.5 39.5t54.5 96.5q6 33 -12.5 42t-69.5 9h-106l33 196h69q38 0 73 33.5t42 77.5q4 24 -9.5 36.5t-39.5 12.5 q-39 0 -70 -21t-37 -46l-204 28q19 110 102.5 175t198.5 65q127 0 197.5 -80.5t47.5 -206.5z" />
<glyph unicode="&#xb4;" horiz-adv-x="514" d="M268 1114l-112 146l362 337l144 -184z" />
<glyph unicode="&#xb5;" horiz-adv-x="1251" d="M846 963h366l-168 -963h-366l13 76q-117 -94 -255 -94q-71 0 -133 25l-86 -488h-264l152 867q1 1 1 3l101 574h368l-96 -551q-9 -51 13.5 -81t66.5 -30q70 0 127.5 41t67.5 94z" />
<glyph unicode="&#xb6;" horiz-adv-x="1190" d="M313 -307l205 1157h-12q-172 0 -256.5 97.5t-52.5 273.5q27 155 132 235t275 80h215l-325 -1843h-181zM684 -307l326 1843h182l-326 -1843h-182z" />
<glyph unicode="&#xb7;" horiz-adv-x="584" d="M330 573q-75 0 -121 56t-33 135q11 56 60 97.5t106 41.5q74 0 121 -58t35 -134q-11 -58 -60.5 -98t-107.5 -40z" />
<glyph unicode="&#xb8;" horiz-adv-x="571" d="M131 -532q-89 0 -156 53.5t-75 124.5l151 24q7 -21 25 -32t37 -11q37 0 69.5 29.5t38.5 69.5q8 40 -35 39q-36 -1 -98 -33l-125 75l139 197h177l-109 -115q100 16 161.5 -48.5t43.5 -168.5q-16 -86 -86.5 -145t-157.5 -59z" />
<glyph unicode="&#xb9;" horiz-adv-x="440" d="M159 614l127 721h-127l35 201h334l-162 -922h-207z" />
<glyph unicode="&#xba;" horiz-adv-x="780" d="M487 909q-153 0 -242 101t-63 245q22 124 128.5 208.5t242.5 84.5q154 0 244.5 -101t64.5 -245q-21 -123 -129.5 -208t-245.5 -85zM498 1083q69 0 118.5 50.5t49.5 121.5q0 51 -35 85t-86 34q-69 0 -119.5 -50t-50.5 -122q0 -49 36 -84t87 -35z" />
<glyph unicode="&#xbb;" horiz-adv-x="1194" d="M-29 104l383 377l-239 377h276l250 -377l-373 -377h-297zM492 104l382 377l-239 377h278l250 -377l-372 -377h-299z" />
<glyph unicode="&#xbc;" horiz-adv-x="1767" d="M1325 1536h229l-1341 -1536h-231zM365 614h-207l129 721h-127l35 201h333zM1673 922l-93 -527h75l-37 -200h-73l-34 -195h-208l34 195h-436l21 131l477 596h274zM1212 395h160l50 284z" />
<glyph unicode="&#xbd;" horiz-adv-x="1761" d="M1325 1536h229l-1341 -1536h-231zM365 614h-207l129 721h-127l35 201h333zM1657 672q0 -132 -102.5 -259.5t-250.5 -211.5h310l-35 -201h-655v57q216 177 337 296t161 184.5t40 119.5q0 96 -100 88q-50 -3 -84.5 -48.5t-36.5 -86.5l-207 25q18 138 109 219.5t241 81.5 q118 0 195.5 -74t77.5 -190z" />
<glyph unicode="&#xbe;" horiz-adv-x="1929" d="M709 877q-20 -115 -118 -195t-224 -80q-139 0 -222 83t-61 200l211 -23q-6 -30 11 -43.5t48 -13.5q57 0 101 39t53 96q7 33 -11.5 42t-68.5 9h-106l32 197h70q37 0 72 33t43 77q4 24 -10 37t-40 13q-40 0 -70.5 -21t-35.5 -47l-205 29q20 109 103 174t196 65 q129 0 200 -80t48 -206q-16 -93 -87 -151q96 -88 71 -234zM1554 1536h230l-1342 -1536h-231zM1903 922l-93 -527h74l-37 -200h-72l-34 -195h-209l34 195h-436l21 131l477 596h275zM1441 395h160l50 284z" />
<glyph unicode="&#xbf;" horiz-adv-x="1171" d="M633 651q-91 0 -144 66.5t-36 159.5q12 71 71 120.5t131 49.5q92 0 146 -66t37 -158q-13 -72 -72.5 -122t-132.5 -50zM432 -532q-151 0 -266.5 63t-169.5 173.5t-31 242.5q13 74 43 130.5t68 91t81.5 61t86 48t78.5 44t62 56t34 77.5l10 57h330l-19 -104 q-14 -79 -45 -138t-70 -93.5t-83 -60t-87.5 -45t-80 -41t-63 -55.5t-34.5 -81q-10 -59 37 -93t125 -34q108 0 185 69t96 176l315 -24q-41 -236 -206.5 -378t-395.5 -142z" />
<glyph unicode="&#xc0;" horiz-adv-x="1622" d="M1186 1769l-137 -135l-310 291l191 184zM1102 0l-32 231h-591l-114 -231h-426l823 1536h469l285 -1536h-414zM633 543h394l-87 623z" />
<glyph unicode="&#xc1;" horiz-adv-x="1622" d="M1419 1925l-394 -299l-112 146l362 337zM1102 0l-32 231h-591l-114 -231h-426l823 1536h469l285 -1536h-414zM633 543h394l-87 623z" />
<glyph unicode="&#xc2;" horiz-adv-x="1622" d="M1056 1806l-258 -192l-135 92l313 301h203l219 -301l-152 -92zM1102 0l-32 231h-591l-114 -231h-426l823 1536h469l285 -1536h-414zM633 543h394l-87 623z" />
<glyph unicode="&#xc3;" horiz-adv-x="1622" d="M921 1778q-41 0 -72 -45t-42 -108l-160 24q25 143 99 226t184 83q39 0 69.5 -12.5t46 -27t33.5 -37.5q4 -6 15.5 -22.5t17 -22.5t16 -16t21 -13.5t24.5 -3.5q43 0 71.5 42.5t39.5 110.5l162 -24q-24 -140 -94 -225t-173 -85q-114 0 -165 80q-4 6 -19 26.5t-21.5 27 t-21 14.5t-31.5 8zM1102 0l-32 231h-591l-114 -231h-426l823 1536h469l285 -1536h-414zM633 543h394l-87 623z" />
<glyph unicode="&#xc4;" horiz-adv-x="1622" d="M819 1638q-76 0 -122.5 56.5t-33.5 135.5q10 57 59.5 97.5t108.5 40.5q77 0 123 -56.5t33 -134.5q-11 -59 -59.5 -99t-108.5 -40zM1267 1638q-77 0 -123 56.5t-32 135.5q11 57 59.5 97.5t107.5 40.5q77 0 122.5 -56t31.5 -135q-11 -59 -58.5 -99t-107.5 -40zM1102 0 l-32 231h-591l-114 -231h-426l823 1536h469l285 -1536h-414zM633 543h394l-87 623z" />
<glyph unicode="&#xc5;" horiz-adv-x="1622" d="M1046 1654q-117 0 -186.5 84.5t-47.5 202.5q17 94 98 161.5t179 67.5q114 0 181.5 -83.5t47.5 -198.5q-17 -97 -96.5 -165.5t-175.5 -68.5zM1080 2029q-55 0 -90 -42.5t-30 -98.5q3 -41 29 -64.5t65 -23.5q58 0 93.5 39.5t31.5 101.5q-3 35 -32 61.5t-67 26.5zM1102 0 l-32 231h-591l-114 -231h-426l823 1536h469l285 -1536h-414zM633 543h394l-87 623z" />
<glyph unicode="&#xc6;" horiz-adv-x="2038" d="M2068 1208h-600l-49 -278h514l-57 -324h-514l-49 -278h600l-58 -328h-952l54 309h-419l-169 -309h-432l886 1536h1303zM1008 596l108 618h-82l-339 -618h313z" />
<glyph unicode="&#xc7;" horiz-adv-x="1516" d="M803 358q100 0 193.5 41.5t166.5 114.5l283 -233q-123 -131 -284 -210.5t-333 -89.5l-88 -92q100 16 161.5 -48.5t43.5 -168.5q-16 -86 -86.5 -145t-157.5 -59q-89 0 -156 53.5t-75 124.5l151 24q7 -21 25 -32t37 -11q37 0 69.5 29.5t38.5 69.5q8 40 -35 39 q-36 -1 -98 -33l-125 75l128 182q-188 29 -325.5 142.5t-197.5 289t-24 376.5q36 208 168.5 382.5t326 275.5t402.5 101q197 0 351.5 -87.5t242.5 -239.5l-332 -195q-38 82 -110 123t-169 41q-186 0 -331 -132t-172 -327q-24 -166 61 -273.5t250 -107.5z" />
<glyph unicode="&#xc8;" horiz-adv-x="1239" d="M1019 1769l-137 -135l-310 291l191 184zM1268 1204h-606l-48 -270h521l-60 -332h-519l-48 -270h606l-57 -332h-987l270 1536h987z" />
<glyph unicode="&#xc9;" horiz-adv-x="1239" d="M1252 1925l-394 -299l-112 146l362 337zM1268 1204h-606l-48 -270h521l-60 -332h-519l-48 -270h606l-57 -332h-987l270 1536h987z" />
<glyph unicode="&#xca;" horiz-adv-x="1239" d="M889 1806l-258 -192l-135 92l313 301h203l219 -301l-152 -92zM1268 1204h-606l-48 -270h521l-60 -332h-519l-48 -270h606l-57 -332h-987l270 1536h987z" />
<glyph unicode="&#xcb;" horiz-adv-x="1239" d="M652 1638q-76 0 -122.5 56.5t-33.5 135.5q10 57 59.5 97.5t108.5 40.5q77 0 123 -56.5t33 -134.5q-11 -59 -59.5 -99t-108.5 -40zM1100 1638q-77 0 -123 56.5t-32 135.5q11 57 59.5 97.5t107.5 40.5q77 0 122.5 -56t31.5 -135q-11 -59 -58.5 -99t-107.5 -40zM1268 1204 h-606l-48 -270h521l-60 -332h-519l-48 -270h606l-57 -332h-987l270 1536h987z" />
<glyph unicode="&#xcc;" horiz-adv-x="688" d="M576 1634l-310 291l191 184l256 -340zM70 0l270 1536h381l-270 -1536h-381z" />
<glyph unicode="&#xcd;" horiz-adv-x="688" d="M552 1626l-112 146l362 337l144 -184zM70 0l270 1536h381l-270 -1536h-381z" />
<glyph unicode="&#xce;" horiz-adv-x="688" d="M325 1614l-135 92l313 301h203l219 -301l-152 -92l-190 192zM70 0l270 1536h381l-270 -1536h-381z" />
<glyph unicode="&#xcf;" horiz-adv-x="688" d="M346 1638q-76 0 -122.5 56.5t-33.5 135.5q10 57 59.5 97.5t108.5 40.5q77 0 123 -56.5t33 -134.5q-11 -59 -59.5 -99t-108.5 -40zM794 1638q-77 0 -123 56.5t-32 135.5q11 57 59.5 97.5t107.5 40.5q77 0 122.5 -56t31.5 -135q-11 -59 -58.5 -99t-107.5 -40zM70 0 l270 1536h381l-270 -1536h-381z" />
<glyph unicode="&#xd0;" horiz-adv-x="1534" d="M854 1536q111 0 206.5 -21t168 -60t130 -94t93.5 -123t56.5 -147.5t20 -167.5t-15.5 -182q-27 -156 -98.5 -289t-183 -234.5t-272.5 -159.5t-353 -58h-536l116 659h-144l39 217h143l116 660h514zM1124 795q18 87 6 161.5t-48 129.5t-108.5 86.5t-174.5 31.5h-137 l-58 -328h223l-39 -217h-222l-58 -327h113q102 0 189.5 35.5t150.5 98.5t104.5 146.5t58.5 182.5z" />
<glyph unicode="&#xd1;" horiz-adv-x="1735" d="M983 1778q-41 0 -72 -45t-42 -108l-160 24q25 143 99 226t184 83q39 0 69.5 -12.5t46 -27t33.5 -37.5q4 -6 15.5 -22.5t17 -22.5t16 -16t21 -13.5t24.5 -3.5q43 0 71.5 42.5t39.5 110.5l162 -24q-24 -140 -94 -225t-173 -85q-114 0 -165 80q-4 6 -19 26.5t-21.5 27 t-21 14.5t-31.5 8zM1386 1536h381l-270 -1536h-397l-480 965l-169 -965h-381l270 1536h395l482 -960z" />
<glyph unicode="&#xd2;" horiz-adv-x="1700" d="M1084 1634l-310 291l191 184l256 -340zM784 -20q-165 0 -304 64.5t-228 173.5t-126.5 260t-8.5 317q36 208 169 383t327 276.5t403 101.5q165 0 304 -64.5t228 -173.5t126.5 -260t8.5 -317q-36 -208 -169 -383t-327 -276.5t-403 -101.5zM817 344q187 0 325.5 128.5 t166.5 322.5q24 172 -65 284.5t-259 112.5q-189 0 -327.5 -128.5t-165.5 -322.5q-24 -173 65 -285t260 -112z" />
<glyph unicode="&#xd3;" horiz-adv-x="1700" d="M1060 1626l-112 146l362 337l144 -184zM784 -20q-165 0 -304 64.5t-228 173.5t-126.5 260t-8.5 317q36 208 169 383t327 276.5t403 101.5q165 0 304 -64.5t228 -173.5t126.5 -260t8.5 -317q-36 -208 -169 -383t-327 -276.5t-403 -101.5zM817 344q187 0 325.5 128.5 t166.5 322.5q24 172 -65 284.5t-259 112.5q-189 0 -327.5 -128.5t-165.5 -322.5q-24 -173 65 -285t260 -112z" />
<glyph unicode="&#xd4;" horiz-adv-x="1700" d="M833 1614l-135 92l313 301h203l219 -301l-152 -92l-190 192zM784 -20q-165 0 -304 64.5t-228 173.5t-126.5 260t-8.5 317q36 208 169 383t327 276.5t403 101.5q165 0 304 -64.5t228 -173.5t126.5 -260t8.5 -317q-36 -208 -169 -383t-327 -276.5t-403 -101.5zM817 344 q187 0 325.5 128.5t166.5 322.5q24 172 -65 284.5t-259 112.5q-189 0 -327.5 -128.5t-165.5 -322.5q-24 -173 65 -285t260 -112z" />
<glyph unicode="&#xd5;" horiz-adv-x="1700" d="M1214 1622q-114 0 -165 80q-4 6 -19 26.5t-21.5 27t-21 14.5t-31.5 8q-41 0 -72 -45t-42 -108l-160 24q25 143 99 226t184 83q39 0 69.5 -12.5t46 -27t33.5 -37.5q4 -6 15.5 -22.5t17 -22.5t16 -16t21 -13.5t24.5 -3.5q43 0 71.5 42.5t39.5 110.5l162 -24 q-24 -140 -94 -225t-173 -85zM784 -20q-165 0 -304 64.5t-228 173.5t-126.5 260t-8.5 317q36 208 169 383t327 276.5t403 101.5q165 0 304 -64.5t228 -173.5t126.5 -260t8.5 -317q-36 -208 -169 -383t-327 -276.5t-403 -101.5zM817 344q187 0 325.5 128.5t166.5 322.5 q24 172 -65 284.5t-259 112.5q-189 0 -327.5 -128.5t-165.5 -322.5q-24 -173 65 -285t260 -112z" />
<glyph unicode="&#xd6;" horiz-adv-x="1700" d="M854 1638q-76 0 -122.5 56.5t-33.5 135.5q10 57 59.5 97.5t108.5 40.5q77 0 123 -56.5t33 -134.5q-11 -59 -59.5 -99t-108.5 -40zM1302 1638q-77 0 -123 56.5t-32 135.5q11 57 59.5 97.5t107.5 40.5q77 0 122.5 -56t31.5 -135q-11 -59 -58.5 -99t-107.5 -40zM784 -20 q-165 0 -304 64.5t-228 173.5t-126.5 260t-8.5 317q36 208 169 383t327 276.5t403 101.5q165 0 304 -64.5t228 -173.5t126.5 -260t8.5 -317q-36 -208 -169 -383t-327 -276.5t-403 -101.5zM817 344q187 0 325.5 128.5t166.5 322.5q24 172 -65 284.5t-259 112.5 q-189 0 -327.5 -128.5t-165.5 -322.5q-24 -173 65 -285t260 -112z" />
<glyph unicode="&#xd7;" horiz-adv-x="1071" d="M272 256l-192 193l264 264l-264 264l192 192l265 -264l262 264l192 -192l-264 -264l264 -264l-192 -193l-262 264z" />
<glyph unicode="&#xd8;" horiz-adv-x="1700" d="M1512 1357q111 -114 157 -274t14 -342q-36 -208 -169 -383t-327 -276.5t-403 -101.5q-214 0 -379 104l-166 -190l-129 80l178 205q-111 114 -157 274t-14 342q36 208 169 383t327 276.5t403 101.5q214 0 379 -104l165 189l129 -80zM492 741q-21 -159 52 -268l597 687 q-67 32 -156 32q-189 0 -327.5 -128.5t-165.5 -322.5zM1309 795q23 159 -53 268l-597 -686q71 -33 158 -33q187 0 325.5 128.5t166.5 322.5z" />
<glyph unicode="&#xd9;" horiz-adv-x="1556" d="M1011 1634l-310 291l191 184l256 -340zM711 -20q-140 0 -257.5 42t-195 116t-112 179t-13.5 226l176 993h381l-168 -946q-22 -131 35.5 -205t165.5 -74q126 0 227 85t125 218l162 922h381l-180 -1018q-28 -160 -134 -283.5t-260.5 -189t-332.5 -65.5z" />
<glyph unicode="&#xda;" horiz-adv-x="1556" d="M987 1626l-112 146l362 337l144 -184zM711 -20q-140 0 -257.5 42t-195 116t-112 179t-13.5 226l176 993h381l-168 -946q-22 -131 35.5 -205t165.5 -74q126 0 227 85t125 218l162 922h381l-180 -1018q-28 -160 -134 -283.5t-260.5 -189t-332.5 -65.5z" />
<glyph unicode="&#xdb;" horiz-adv-x="1556" d="M760 1614l-135 92l313 301h203l219 -301l-152 -92l-190 192zM711 -20q-140 0 -257.5 42t-195 116t-112 179t-13.5 226l176 993h381l-168 -946q-22 -131 35.5 -205t165.5 -74q126 0 227 85t125 218l162 922h381l-180 -1018q-28 -160 -134 -283.5t-260.5 -189t-332.5 -65.5 z" />
<glyph unicode="&#xdc;" horiz-adv-x="1556" d="M781 1638q-76 0 -122.5 56.5t-33.5 135.5q10 57 59.5 97.5t108.5 40.5q77 0 123 -56.5t33 -134.5q-11 -59 -59.5 -99t-108.5 -40zM1229 1638q-77 0 -123 56.5t-32 135.5q11 57 59.5 97.5t107.5 40.5q77 0 122.5 -56t31.5 -135q-11 -59 -58.5 -99t-107.5 -40zM711 -20 q-140 0 -257.5 42t-195 116t-112 179t-13.5 226l176 993h381l-168 -946q-22 -131 35.5 -205t165.5 -74q126 0 227 85t125 218l162 922h381l-180 -1018q-28 -160 -134 -283.5t-260.5 -189t-332.5 -65.5z" />
<glyph unicode="&#xdd;" horiz-adv-x="1487" d="M1346 1925l-394 -299l-112 146l362 337zM1659 1536l-686 -819l-125 -717h-381l127 729l-393 807h415l220 -489l395 489h428z" />
<glyph unicode="&#xde;" horiz-adv-x="1335" d="M958 1309q129 0 226.5 -66.5t141.5 -182.5t20 -253q-32 -181 -183.5 -303.5t-345.5 -122.5h-315l-66 -381h-368l67 381h-2l131 738l33 190l41 229h369l-41 -229h292zM1020 842q25 143 -123 143h-288l-50 -280h191q139 0 199.5 36t70.5 101z" />
<glyph unicode="&#xdf;" horiz-adv-x="1364" d="M1331 1063q-27 -151 -146 -264q75 -72 107.5 -173t12.5 -218q-22 -118 -91 -214t-175 -149t-226 -43l-203 -2l56 319h108q55 4 109 51t65 115q11 61 -32 104.5t-121 43.5h-74l53 299h10q68 0 132.5 54t76.5 124q10 47 -28.5 75.5t-108.5 28.5q-106 0 -183.5 -72.5 t-103.5 -219.5l-161 -922h-369l170 967q32 180 128 310.5t230 194.5t293 64q240 0 373 -135t98 -338z" />
<glyph unicode="&#xe0;" horiz-adv-x="1260" d="M867 1202l-137 -135l-310 291l191 184zM854 963h369l-168 -963h-328l3 104q-115 -124 -294 -124q-95 0 -174.5 38.5t-131 108t-72.5 167.5t1 218q25 141 102.5 251t183.5 168t222 58q186 0 270 -132zM569 287q89 0 158 65.5t76 159.5q8 72 -35.5 121t-116.5 49 q-87 0 -154.5 -65t-76.5 -158q-6 -73 36.5 -122.5t112.5 -49.5z" />
<glyph unicode="&#xe1;" horiz-adv-x="1260" d="M1100 1358l-394 -299l-112 146l362 337zM854 963h369l-168 -963h-328l3 104q-115 -124 -294 -124q-95 0 -174.5 38.5t-131 108t-72.5 167.5t1 218q25 141 102.5 251t183.5 168t222 58q186 0 270 -132zM569 287q89 0 158 65.5t76 159.5q8 72 -35.5 121t-116.5 49 q-87 0 -154.5 -65t-76.5 -158q-6 -73 36.5 -122.5t112.5 -49.5z" />
<glyph unicode="&#xe2;" horiz-adv-x="1260" d="M737 1239l-258 -192l-135 92l313 301h203l219 -301l-152 -92zM854 963h369l-168 -963h-328l3 104q-115 -124 -294 -124q-95 0 -174.5 38.5t-131 108t-72.5 167.5t1 218q25 141 102.5 251t183.5 168t222 58q186 0 270 -132zM569 287q89 0 158 65.5t76 159.5 q8 72 -35.5 121t-116.5 49q-87 0 -154.5 -65t-76.5 -158q-6 -73 36.5 -122.5t112.5 -49.5z" />
<glyph unicode="&#xe3;" horiz-adv-x="1260" d="M602 1211q-41 0 -72 -45t-42 -108l-160 24q25 143 99 226t184 83q39 0 69.5 -12.5t46 -27t33.5 -37.5q4 -6 15.5 -22.5t17 -22.5t16 -16t21 -13.5t24.5 -3.5q43 0 71.5 42.5t39.5 110.5l162 -24q-24 -140 -94 -225t-173 -85q-114 0 -165 80q-4 6 -19 26.5t-21.5 27 t-21 14.5t-31.5 8zM854 963h369l-168 -963h-328l3 104q-115 -124 -294 -124q-95 0 -174.5 38.5t-131 108t-72.5 167.5t1 218q25 141 102.5 251t183.5 168t222 58q186 0 270 -132zM569 287q89 0 158 65.5t76 159.5q8 72 -35.5 121t-116.5 49q-87 0 -154.5 -65t-76.5 -158 q-6 -73 36.5 -122.5t112.5 -49.5z" />
<glyph unicode="&#xe4;" horiz-adv-x="1260" d="M510 1132q-76 0 -121.5 56.5t-32.5 136.5q10 57 58.5 97t107.5 40q77 0 123 -56t33 -134q-11 -59 -59.5 -99.5t-108.5 -40.5zM958 1132q-77 0 -122 56.5t-31 136.5q9 57 57.5 97t108.5 40q77 0 122 -56t31 -134q-11 -59 -58.5 -99.5t-107.5 -40.5zM854 963h369l-168 -963 h-328l3 104q-115 -124 -294 -124q-95 0 -174.5 38.5t-131 108t-72.5 167.5t1 218q25 141 102.5 251t183.5 168t222 58q186 0 270 -132zM569 287q89 0 158 65.5t76 159.5q8 72 -35.5 121t-116.5 49q-87 0 -154.5 -65t-76.5 -158q-6 -73 36.5 -122.5t112.5 -49.5z" />
<glyph unicode="&#xe5;" horiz-adv-x="1260" d="M727 1087q-117 0 -186.5 84.5t-47.5 202.5q17 94 98 161.5t179 67.5q114 0 181.5 -83.5t47.5 -198.5q-17 -97 -96.5 -165.5t-175.5 -68.5zM761 1462q-55 0 -90 -42.5t-30 -98.5q3 -41 29 -64.5t65 -23.5q58 0 93.5 39.5t31.5 101.5q-3 35 -32 61.5t-67 26.5zM854 963h369 l-168 -963h-328l3 104q-115 -124 -294 -124q-95 0 -174.5 38.5t-131 108t-72.5 167.5t1 218q25 141 102.5 251t183.5 168t222 58q186 0 270 -132zM569 287q89 0 158 65.5t76 159.5q8 72 -35.5 121t-116.5 49q-87 0 -154.5 -65t-76.5 -158q-6 -73 36.5 -122.5t112.5 -49.5z " />
<glyph unicode="&#xe6;" horiz-adv-x="1706" d="M1229 983q224 0 344 -136t80 -368l-13 -71h-638q-5 -80 22.5 -115t91.5 -35q119 0 197 94l282 -127q-74 -118 -197 -180.5t-284 -62.5q-243 0 -372 139q-167 -141 -404 -141q-188 0 -271.5 84t-58.5 231q48 274 576 274h78q1 4 12 37l4 25q11 65 -8 88t-70 29 q-133 6 -203 -111l-268 108q77 132 187.5 188t281.5 56q206 0 325 -88q139 82 306 82zM1233 717q-113 0 -172 -94h271q-6 43 -30.5 68.5t-68.5 25.5zM451 205q50 0 105 34t87 96q-2 12 -4 36h-41q-102 0 -154.5 -29.5t-60.5 -77.5q-4 -28 15 -43.5t53 -15.5z" />
<glyph unicode="&#xe7;" horiz-adv-x="1063" d="M528 303q65 0 119 36t78 89l274 -145q-75 -134 -200.5 -213.5t-272.5 -86.5l-89 -94q100 16 161.5 -48.5t43.5 -168.5q-16 -86 -86.5 -145t-157.5 -59q-89 0 -156 53.5t-75 124.5l151 24q7 -21 25 -32t37 -11q37 0 69.5 29.5t38.5 69.5q8 40 -35 39q-36 -1 -98 -33 l-125 75l135 191q-174 42 -261 182.5t-55 327.5q36 202 200 337.5t382 135.5q165 0 280.5 -91t147.5 -235l-316 -96q-15 50 -52.5 76.5t-88.5 26.5q-86 0 -148.5 -60.5t-68.5 -146.5q-5 -65 35.5 -108.5t107.5 -43.5z" />
<glyph unicode="&#xe8;" horiz-adv-x="1110" d="M847 1196l-137 -135l-310 291l191 184zM633 983q224 0 344 -136t80 -368l-13 -71h-638q-5 -80 22.5 -115t91.5 -35q119 0 197 94l282 -127q-74 -118 -197 -180.5t-284 -62.5q-128 0 -226.5 40.5t-157 111.5t-80.5 166.5t-3 205.5q36 205 198 341t384 136zM637 717 q-113 0 -172 -94h271q-6 43 -30.5 68.5t-68.5 25.5z" />
<glyph unicode="&#xe9;" horiz-adv-x="1110" d="M1080 1352l-394 -299l-112 146l362 337zM633 983q224 0 344 -136t80 -368l-13 -71h-638q-5 -80 22.5 -115t91.5 -35q119 0 197 94l282 -127q-74 -118 -197 -180.5t-284 -62.5q-128 0 -226.5 40.5t-157 111.5t-80.5 166.5t-3 205.5q36 205 198 341t384 136zM637 717 q-113 0 -172 -94h271q-6 43 -30.5 68.5t-68.5 25.5z" />
<glyph unicode="&#xea;" horiz-adv-x="1110" d="M717 1233l-258 -192l-135 92l313 301h203l219 -301l-152 -92zM633 983q224 0 344 -136t80 -368l-13 -71h-638q-5 -80 22.5 -115t91.5 -35q119 0 197 94l282 -127q-74 -118 -197 -180.5t-284 -62.5q-128 0 -226.5 40.5t-157 111.5t-80.5 166.5t-3 205.5q36 205 198 341 t384 136zM637 717q-113 0 -172 -94h271q-6 43 -30.5 68.5t-68.5 25.5z" />
<glyph unicode="&#xeb;" horiz-adv-x="1110" d="M490 1126q-76 0 -121.5 56.5t-32.5 136.5q10 57 58.5 97t107.5 40q77 0 123 -56t33 -134q-11 -59 -59.5 -99.5t-108.5 -40.5zM951 1456q77 0 122 -56t31 -134q-11 -59 -58.5 -99.5t-107.5 -40.5q-77 0 -122 56.5t-31 136.5q9 57 57.5 97t108.5 40zM633 983 q224 0 344 -136t80 -368l-13 -71h-638q-5 -80 22.5 -115t91.5 -35q119 0 197 94l282 -127q-74 -118 -197 -180.5t-284 -62.5q-128 0 -226.5 40.5t-157 111.5t-80.5 166.5t-3 205.5q36 205 198 341t384 136zM637 717q-113 0 -172 -94h271q-6 43 -30.5 68.5t-68.5 25.5z" />
<glyph unicode="&#xec;" horiz-adv-x="610" d="M437 1061l-310 291l191 184l256 -340zM37 0l168 963h368l-167 -963h-369z" />
<glyph unicode="&#xed;" horiz-adv-x="610" d="M413 1053l-112 146l362 337l144 -184zM37 0l168 963h368l-167 -963h-369z" />
<glyph unicode="&#xee;" horiz-adv-x="610" d="M186 1041l-135 92l313 301h203l219 -301l-152 -92l-190 192zM37 0l168 963h368l-167 -963h-369z" />
<glyph unicode="&#xef;" horiz-adv-x="610" d="M217 1126q-76 0 -121.5 56.5t-32.5 136.5q10 57 58.5 97t107.5 40q77 0 123 -56t33 -134q-11 -59 -59.5 -99.5t-108.5 -40.5zM665 1126q-77 0 -122 56.5t-31 136.5q9 57 57.5 97t108.5 40q77 0 122 -56t31 -134q-11 -59 -58.5 -99.5t-107.5 -40.5zM37 0l168 963h368 l-167 -963h-369z" />
<glyph unicode="&#xf0;" horiz-adv-x="1153" d="M765 1359q48 -36 90 -74t83 -86t71.5 -99t56.5 -111.5t37 -125.5t13 -140t-14 -154h-2q0 -4 -2 -14q-47 -270 -211 -421.5t-387 -151.5q-154 0 -266.5 69.5t-161 190t-23.5 266.5q36 202 200 337.5t382 135.5q100 0 191 -32q-46 165 -192 266l-145 -154l-129 100l127 133 q-71 33 -188 72l119 180q110 -40 214 -99l124 130l122 -102zM762 508q13 72 -27 120t-112 48q-91 0 -166 -64.5t-90 -156.5q-14 -72 26.5 -119t114.5 -47q90 0 164 63.5t90 155.5z" />
<glyph unicode="&#xf1;" horiz-adv-x="1221" d="M633 1205q-41 0 -72 -45t-42 -108l-160 24q25 143 99 226t184 83q39 0 69.5 -12.5t46 -27t33.5 -37.5q4 -6 15.5 -22.5t17 -22.5t16 -16t21 -13.5t24.5 -3.5q43 0 71.5 42.5t39.5 110.5l162 -24q-24 -140 -94 -225t-173 -85q-114 0 -165 80q-4 6 -19 26.5t-21.5 27 t-21 14.5t-31.5 8zM848 981q152 0 238.5 -113t58.5 -274l-105 -594h-368l90 522q27 152 -98 152q-68 0 -112.5 -45t-55.5 -113h-1l-89 -516h-369l168 963h368l-19 -109q120 127 294 127z" />
<glyph unicode="&#xf2;" horiz-adv-x="1130" d="M697 1059l-310 291l191 184l256 -340zM500 -18q-154 0 -266.5 69.5t-161 190t-23.5 266.5q36 202 200 337.5t382 135.5q115 0 208.5 -41t153 -111t83.5 -167.5t5 -206.5q-36 -202 -200 -337.5t-381 -135.5zM508 295q83 0 150 59t83 154q14 74 -20 118t-100 44 q-84 0 -150.5 -59t-83.5 -156q-13 -77 20.5 -118.5t100.5 -41.5z" />
<glyph unicode="&#xf3;" horiz-adv-x="1130" d="M673 1051l-112 146l362 337l144 -184zM500 -18q-154 0 -266.5 69.5t-161 190t-23.5 266.5q36 202 200 337.5t382 135.5q115 0 208.5 -41t153 -111t83.5 -167.5t5 -206.5q-36 -202 -200 -337.5t-381 -135.5zM508 295q83 0 150 59t83 154q14 74 -20 118t-100 44 q-84 0 -150.5 -59t-83.5 -156q-13 -77 20.5 -118.5t100.5 -41.5z" />
<glyph unicode="&#xf4;" horiz-adv-x="1130" d="M446 1039l-135 92l313 301h203l219 -301l-152 -92l-190 192zM500 -18q-154 0 -266.5 69.5t-161 190t-23.5 266.5q36 202 200 337.5t382 135.5q115 0 208.5 -41t153 -111t83.5 -167.5t5 -206.5q-36 -202 -200 -337.5t-381 -135.5zM508 295q83 0 150 59t83 154 q14 74 -20 118t-100 44q-84 0 -150.5 -59t-83.5 -156q-13 -77 20.5 -118.5t100.5 -41.5z" />
<glyph unicode="&#xf5;" horiz-adv-x="1130" d="M827 1047q-114 0 -165 80q-4 6 -19 26.5t-21.5 27t-21 14.5t-31.5 8q-41 0 -72 -45t-42 -108l-160 24q25 143 99 226t184 83q39 0 69.5 -12.5t46 -27t33.5 -37.5q4 -6 15.5 -22.5t17 -22.5t16 -16t21 -13.5t24.5 -3.5q43 0 71.5 42.5t39.5 110.5l162 -24 q-24 -140 -94 -225t-173 -85zM500 -18q-154 0 -266.5 69.5t-161 190t-23.5 266.5q36 202 200 337.5t382 135.5q115 0 208.5 -41t153 -111t83.5 -167.5t5 -206.5q-36 -202 -200 -337.5t-381 -135.5zM508 295q83 0 150 59t83 154q14 74 -20 118t-100 44q-84 0 -150.5 -59 t-83.5 -156q-13 -77 20.5 -118.5t100.5 -41.5z" />
<glyph unicode="&#xf6;" horiz-adv-x="1130" d="M477 1124q-76 0 -121.5 56.5t-32.5 136.5q10 57 58.5 97t107.5 40q77 0 123 -56t33 -134q-11 -59 -59.5 -99.5t-108.5 -40.5zM925 1124q-77 0 -122 56.5t-31 136.5q9 57 57.5 97t108.5 40q77 0 122 -56t31 -134q-11 -59 -58.5 -99.5t-107.5 -40.5zM500 -18 q-154 0 -266.5 69.5t-161 190t-23.5 266.5q36 202 200 337.5t382 135.5q115 0 208.5 -41t153 -111t83.5 -167.5t5 -206.5q-36 -202 -200 -337.5t-381 -135.5zM508 295q83 0 150 59t83 154q14 74 -20 118t-100 44q-84 0 -150.5 -59t-83.5 -156q-13 -77 20.5 -118.5 t100.5 -41.5z" />
<glyph unicode="&#xf7;" horiz-adv-x="1135" d="M557 928q-70 0 -122 51t-52 123q0 69 52.5 121.5t121.5 52.5t121.5 -52.5t52.5 -121.5q0 -72 -52 -123t-122 -51zM86 578v270h963v-270h-963zM557 150q-70 0 -122 50.5t-52 123.5q0 69 52.5 121.5t121.5 52.5t121.5 -52.5t52.5 -121.5q0 -73 -52 -123.5t-122 -50.5z" />
<glyph unicode="&#xf8;" horiz-adv-x="1130" d="M958 864q79 -72 111.5 -178.5t11.5 -230.5q-36 -202 -200 -337.5t-381 -135.5q-145 0 -255 63l-72 -83l-77 48l77 88q-80 73 -113 179.5t-11 230.5q36 202 200 337.5t382 135.5q144 0 255 -64l70 81l77 -47zM387 455q-10 -60 9 -100l269 309q-19 6 -44 6 q-84 0 -150.5 -59t-83.5 -156zM741 508q10 58 -8 98l-266 -306q20 -5 41 -5q83 0 150 59t83 154z" />
<glyph unicode="&#xf9;" horiz-adv-x="1171" d="M716 1061l-310 291l191 184l256 -340zM516 -20q-244 0 -357 112.5t-81 298.5l100 572h369l-101 -570q-10 -63 10.5 -88.5t65.5 -25.5q63 0 111.5 37t60.5 102l94 545h369l-104 -596q-33 -184 -170 -285.5t-367 -101.5z" />
<glyph unicode="&#xfa;" horiz-adv-x="1171" d="M692 1053l-112 146l362 337l144 -184zM516 -20q-244 0 -357 112.5t-81 298.5l100 572h369l-101 -570q-10 -63 10.5 -88.5t65.5 -25.5q63 0 111.5 37t60.5 102l94 545h369l-104 -596q-33 -184 -170 -285.5t-367 -101.5z" />
<glyph unicode="&#xfb;" horiz-adv-x="1171" d="M465 1041l-135 92l313 301h203l219 -301l-152 -92l-190 192zM516 -20q-244 0 -357 112.5t-81 298.5l100 572h369l-101 -570q-10 -63 10.5 -88.5t65.5 -25.5q63 0 111.5 37t60.5 102l94 545h369l-104 -596q-33 -184 -170 -285.5t-367 -101.5z" />
<glyph unicode="&#xfc;" horiz-adv-x="1171" d="M496 1126q-76 0 -121.5 56.5t-32.5 136.5q10 57 58.5 97t107.5 40q77 0 123 -56t33 -134q-11 -59 -59.5 -99.5t-108.5 -40.5zM944 1126q-77 0 -122 56.5t-31 136.5q9 57 57.5 97t108.5 40q77 0 122 -56t31 -134q-11 -59 -58.5 -99.5t-107.5 -40.5zM516 -20 q-244 0 -357 112.5t-81 298.5l100 572h369l-101 -570q-10 -63 10.5 -88.5t65.5 -25.5q63 0 111.5 37t60.5 102l94 545h369l-104 -596q-33 -184 -170 -285.5t-367 -101.5z" />
<glyph unicode="&#xfd;" horiz-adv-x="1243" d="M1130 1352l-394 -299l-112 146l362 337zM942 963h384l-833 -1444h-380l275 481h-74l-227 963h394l106 -671z" />
<glyph unicode="&#xfe;" horiz-adv-x="1247" d="M799 981q134 0 234 -69.5t144 -190.5t19 -266q-35 -200 -187 -336.5t-341 -136.5q-159 0 -252 103l-97 -568l-368 2l356 2017h369l-108 -625q107 70 231 70zM834 508q6 66 -34.5 111t-109.5 45q-83 0 -149.5 -61.5t-73.5 -147.5q-6 -66 36 -111t109 -45q85 0 149.5 60.5 t72.5 148.5z" />
<glyph unicode="&#xff;" horiz-adv-x="1243" d="M540 1126q-76 0 -121.5 56.5t-32.5 136.5q10 57 58.5 97t107.5 40q77 0 123 -56t33 -134q-11 -59 -59.5 -99.5t-108.5 -40.5zM988 1126q-77 0 -122 56.5t-31 136.5q9 57 57.5 97t108.5 40q77 0 122 -56t31 -134q-11 -59 -58.5 -99.5t-107.5 -40.5zM942 963h384 l-833 -1444h-380l275 481h-74l-227 963h394l106 -671z" />
<glyph unicode="&#x100;" horiz-adv-x="1622" d="M1386 1917l-37 -209h-635l37 209h635zM1102 0l-32 231h-591l-114 -231h-426l823 1536h469l285 -1536h-414zM633 543h394l-87 623z" />
<glyph unicode="&#x101;" horiz-adv-x="1260" d="M1067 1350l-37 -209h-635l37 209h635zM854 963h369l-168 -963h-328l3 104q-115 -124 -294 -124q-95 0 -174.5 38.5t-131 108t-72.5 167.5t1 218q25 141 102.5 251t183.5 168t222 58q186 0 270 -132zM569 287q89 0 158 65.5t76 159.5q8 72 -35.5 121t-116.5 49 q-87 0 -154.5 -65t-76.5 -158q-6 -73 36.5 -122.5t112.5 -49.5z" />
<glyph unicode="&#x102;" horiz-adv-x="1622" d="M1050 1683q-183 0 -276 96t-60 269h201q-11 -80 30 -130t121 -50q97 0 145.5 52.5t61.5 127.5h201q-33 -188 -142.5 -276.5t-281.5 -88.5zM1102 0l-32 231h-591l-114 -231h-426l823 1536h469l285 -1536h-414zM633 543h394l-87 623z" />
<glyph unicode="&#x103;" horiz-adv-x="1260" d="M731 1116q-183 0 -276 96t-60 269h201q-11 -80 30 -130t121 -50q97 0 145.5 52.5t61.5 127.5h201q-33 -188 -142.5 -276.5t-281.5 -88.5zM854 963h369l-168 -963h-328l3 104q-115 -124 -294 -124q-95 0 -174.5 38.5t-131 108t-72.5 167.5t1 218q25 141 102.5 251 t183.5 168t222 58q186 0 270 -132zM569 287q89 0 158 65.5t76 159.5q8 72 -35.5 121t-116.5 49q-87 0 -154.5 -65t-76.5 -158q-6 -73 36.5 -122.5t112.5 -49.5z" />
<glyph unicode="&#x104;" horiz-adv-x="1622" d="M1463 -223l102 -179q-74 -65 -167 -96t-175 -22q-134 10 -197 92.5t-43 200.5q27 156 235 227h-116l-32 231h-591l-114 -231h-426l823 1536h469l285 -1535l4 -1q-147 -62 -226 -118t-91 -130q-13 -74 71 -74q51 0 95.5 26t93.5 73zM633 543h394l-87 623z" />
<glyph unicode="&#x105;" horiz-adv-x="1260" d="M809 -322q51 0 95.5 26t93.5 73l102 -179q-74 -65 -167 -96t-175 -22q-134 10 -197 92.5t-43 200.5q27 156 235 227h-26l3 104q-115 -124 -294 -124q-95 0 -174.5 38.5t-131 108t-72.5 167.5t1 218q25 141 102.5 251t183.5 168t222 58q186 0 270 -132l17 106h369 l-168 -963q-147 -62 -226 -118t-91 -130q-13 -74 71 -74zM569 287q89 0 158 65.5t76 159.5q8 72 -35.5 121t-116.5 49q-87 0 -154.5 -65t-76.5 -158q-6 -73 36.5 -122.5t112.5 -49.5z" />
<glyph unicode="&#x106;" horiz-adv-x="1516" d="M1087 1626l-112 146l362 337l144 -184zM782 -20q-165 0 -304 64.5t-228 174t-126.5 261t-8.5 317.5q36 208 168.5 382.5t326 275.5t402.5 101q197 0 351.5 -87.5t242.5 -239.5l-332 -195q-38 82 -110 123t-169 41q-186 0 -331 -132t-172 -327q-24 -166 61 -273.5 t250 -107.5q100 0 193.5 41.5t166.5 114.5l283 -233q-132 -140 -306 -220.5t-358 -80.5z" />
<glyph unicode="&#x107;" horiz-adv-x="1063" d="M647 1053l-112 146l362 337l144 -184zM500 -18q-154 0 -266.5 69.5t-161 190t-23.5 266.5q36 202 200 337.5t382 135.5q165 0 280.5 -91t147.5 -235l-316 -96q-15 50 -52.5 76.5t-88.5 26.5q-86 0 -148.5 -60.5t-68.5 -146.5q-5 -65 35.5 -108.5t107.5 -43.5q65 0 119 36 t78 89l274 -145q-78 -140 -211.5 -220.5t-287.5 -80.5z" />
<glyph unicode="&#x10a;" horiz-adv-x="1516" d="M1108 1671q-74 0 -120 57t-34 134q11 57 60 98t106 41q79 0 124.5 -56.5t31.5 -136.5q-11 -56 -59.5 -96.5t-108.5 -40.5zM782 -20q-165 0 -304 64.5t-228 174t-126.5 261t-8.5 317.5q36 208 168.5 382.5t326 275.5t402.5 101q197 0 351.5 -87.5t242.5 -239.5l-332 -195 q-38 82 -110 123t-169 41q-186 0 -331 -132t-172 -327q-24 -166 61 -273.5t250 -107.5q100 0 193.5 41.5t166.5 114.5l283 -233q-132 -140 -306 -220.5t-358 -80.5z" />
<glyph unicode="&#x10b;" horiz-adv-x="1063" d="M668 1098q-74 0 -120 57t-34 134q11 57 60 98t106 41q79 0 124.5 -56.5t31.5 -136.5q-11 -56 -59.5 -96.5t-108.5 -40.5zM500 -18q-154 0 -266.5 69.5t-161 190t-23.5 266.5q36 202 200 337.5t382 135.5q165 0 280.5 -91t147.5 -235l-316 -96q-15 50 -52.5 76.5 t-88.5 26.5q-86 0 -148.5 -60.5t-68.5 -146.5q-5 -65 35.5 -108.5t107.5 -43.5q65 0 119 36t78 89l274 -145q-78 -140 -211.5 -220.5t-287.5 -80.5z" />
<glyph unicode="&#x10c;" horiz-adv-x="1516" d="M987 1657l-215 301l145 88l195 -188l266 188l129 -88l-318 -301h-202zM782 -20q-165 0 -304 64.5t-228 174t-126.5 261t-8.5 317.5q36 208 168.5 382.5t326 275.5t402.5 101q197 0 351.5 -87.5t242.5 -239.5l-332 -195q-38 82 -110 123t-169 41q-186 0 -331 -132 t-172 -327q-24 -166 61 -273.5t250 -107.5q100 0 193.5 41.5t166.5 114.5l283 -233q-132 -140 -306 -220.5t-358 -80.5z" />
<glyph unicode="&#x10d;" horiz-adv-x="1063" d="M548 1084l-215 301l145 88l195 -188l266 188l129 -88l-318 -301h-202zM500 -18q-154 0 -266.5 69.5t-161 190t-23.5 266.5q36 202 200 337.5t382 135.5q165 0 280.5 -91t147.5 -235l-316 -96q-15 50 -52.5 76.5t-88.5 26.5q-86 0 -148.5 -60.5t-68.5 -146.5 q-5 -65 35.5 -108.5t107.5 -43.5q65 0 119 36t78 89l274 -145q-78 -140 -211.5 -220.5t-287.5 -80.5z" />
<glyph unicode="&#x10e;" horiz-adv-x="1534" d="M791 1657l-215 301l145 88l195 -188l266 188l129 -88l-318 -301h-202zM70 0l270 1536h514q111 0 206.5 -21t168 -60t130 -94t93.5 -123t56.5 -147.5t20 -167.5t-15.5 -182q-27 -156 -98.5 -289t-183 -234.5t-272.5 -159.5t-353 -58h-536zM508 332h113q102 0 189.5 35.5 t150.5 98.5t104.5 146.5t58.5 182.5q18 87 6 161.5t-48 129.5t-108.5 86.5t-174.5 31.5h-137z" />
<glyph unicode="&#x10f;" horiz-adv-x="1262" d="M1659 1559q82 0 134 -52.5t52 -124.5q0 -74 -53 -133l-256 -286h-213l184 235q-41 27 -58.5 82t1.5 133q25 61 86 103.5t123 42.5zM956 1536h369l-270 -1536h-328l3 104q-115 -124 -294 -124q-95 0 -174.5 38.5t-131 108t-72.5 167.5t1 218q25 141 102.5 251t183.5 168 t222 58q188 0 272 -134zM569 287q89 0 158 65.5t76 159.5q8 72 -35.5 121t-116.5 49q-87 0 -154.5 -65t-76.5 -158q-6 -73 36.5 -122.5t112.5 -49.5z" />
<glyph unicode="&#x110;" horiz-adv-x="1534" d="M854 1536q111 0 206.5 -21t168 -60t130 -94t93.5 -123t56.5 -147.5t20 -167.5t-15.5 -182q-27 -156 -98.5 -289t-183 -234.5t-272.5 -159.5t-353 -58h-536l116 659h-144l39 217h143l116 660h514zM1124 795q18 87 6 161.5t-48 129.5t-108.5 86.5t-174.5 31.5h-137 l-58 -328h223l-39 -217h-222l-58 -327h113q102 0 189.5 35.5t150.5 98.5t104.5 146.5t58.5 182.5z" />
<glyph unicode="&#x111;" horiz-adv-x="1262" d="M1423 1361l-39 -217h-128l-201 -1144h-328l3 104q-115 -124 -294 -124q-95 0 -174.5 38.5t-131 108t-72.5 167.5t1 218q25 141 102.5 251t183.5 168t222 58q188 0 272 -134l49 289h-250l39 217h249l30 175h369l-31 -175h129zM569 287q89 0 158 65.5t76 159.5 q8 72 -35.5 121t-116.5 49q-87 0 -154.5 -65t-76.5 -158q-6 -73 36.5 -122.5t112.5 -49.5z" />
<glyph unicode="&#x112;" horiz-adv-x="1239" d="M1219 1917l-37 -209h-635l37 209h635zM1268 1204h-606l-48 -270h521l-60 -332h-519l-48 -270h606l-57 -332h-987l270 1536h987z" />
<glyph unicode="&#x113;" horiz-adv-x="1110" d="M1047 1344l-37 -209h-635l37 209h635zM633 983q224 0 344 -136t80 -368l-13 -71h-638q-5 -80 22.5 -115t91.5 -35q119 0 197 94l282 -127q-74 -118 -197 -180.5t-284 -62.5q-128 0 -226.5 40.5t-157 111.5t-80.5 166.5t-3 205.5q36 205 198 341t384 136zM637 717 q-113 0 -172 -94h271q-6 43 -30.5 68.5t-68.5 25.5z" />
<glyph unicode="&#x116;" horiz-adv-x="1239" d="M879 1671q-74 0 -120 57t-34 134q11 57 60 98t106 41q79 0 124.5 -56.5t31.5 -136.5q-11 -56 -59.5 -96.5t-108.5 -40.5zM1268 1204h-606l-48 -270h521l-60 -332h-519l-48 -270h606l-57 -332h-987l270 1536h987z" />
<glyph unicode="&#x117;" horiz-adv-x="1110" d="M707 1098q-74 0 -120 57t-34 134q11 57 60 98t106 41q79 0 124.5 -56.5t31.5 -136.5q-11 -56 -59.5 -96.5t-108.5 -40.5zM633 983q224 0 344 -136t80 -368l-13 -71h-638q-5 -80 22.5 -115t91.5 -35q119 0 197 94l282 -127q-74 -118 -197 -180.5t-284 -62.5 q-128 0 -226.5 40.5t-157 111.5t-80.5 166.5t-3 205.5q36 205 198 341t384 136zM637 717q-113 0 -172 -94h271q-6 43 -30.5 68.5t-68.5 25.5z" />
<glyph unicode="&#x118;" horiz-adv-x="1239" d="M1268 1204h-606l-48 -270h521l-60 -332h-519l-48 -270h606l-57 -332q-147 -62 -226 -118t-91 -130q-13 -74 71 -74q51 0 95.5 26t93.5 73l102 -179q-74 -65 -167 -96t-175 -22q-134 10 -197 92.5t-43 200.5q27 156 235 227h-685l270 1536h987z" />
<glyph unicode="&#x119;" horiz-adv-x="1110" d="M633 983q224 0 344 -136t80 -368l-13 -71h-638q-5 -80 22.5 -115t91.5 -35q119 0 197 94l282 -127q-113 -179 -331 -228q-100 -47 -156 -96t-67 -110q-13 -74 71 -74q51 0 95.5 26t93.5 73l102 -179q-74 -65 -167 -96t-175 -22q-134 10 -197 92.5t-43 200.5 q20 117 143 186q-182 43 -266 181.5t-51 326.5q36 205 198 341t384 136zM637 717q-113 0 -172 -94h271q-6 43 -30.5 68.5t-68.5 25.5z" />
<glyph unicode="&#x11a;" horiz-adv-x="1239" d="M961 1657h-202l-215 301l145 88l195 -188l266 188l129 -88zM1268 1204h-606l-48 -270h521l-60 -332h-519l-48 -270h606l-57 -332h-987l270 1536h987z" />
<glyph unicode="&#x11b;" horiz-adv-x="1110" d="M789 1084h-202l-215 301l145 88l195 -188l266 188l129 -88zM633 983q224 0 344 -136t80 -368l-13 -71h-638q-5 -80 22.5 -115t91.5 -35q119 0 197 94l282 -127q-74 -118 -197 -180.5t-284 -62.5q-128 0 -226.5 40.5t-157 111.5t-80.5 166.5t-3 205.5q36 205 198 341 t384 136zM637 717q-113 0 -172 -94h271q-6 43 -30.5 68.5t-68.5 25.5z" />
<glyph unicode="&#x11e;" horiz-adv-x="1647" d="M1093 1683q-183 0 -276 96t-60 269h201q-11 -80 30 -130t121 -50q97 0 145.5 52.5t61.5 127.5h201q-33 -188 -142.5 -276.5t-281.5 -88.5zM938 891h680l-156 -891h-252l-31 124q-156 -144 -395 -144q-165 0 -304 64.5t-228 173.5t-126.5 260t-8.5 317q36 208 169 383 t327 276.5t403 101.5q196 0 350.5 -87t241.5 -234l-314 -197q-40 81 -117 122.5t-178 41.5q-187 0 -329.5 -130t-177.5 -331q-31 -179 53.5 -293t255.5 -114q259 0 385 184l10 62h-313z" />
<glyph unicode="&#x11f;" horiz-adv-x="1274" d="M737 1110q-183 0 -276 96t-60 269h201q-11 -80 30 -130t121 -50q97 0 145.5 52.5t61.5 127.5h201q-33 -188 -142.5 -276.5t-281.5 -88.5zM868 963h369l-160 -914q-50 -280 -218 -414.5t-423 -134.5q-60 0 -121 8.5t-129 28t-131 58.5t-108 92l203 215q121 -105 266 -105 q114 0 193.5 70t103.5 205l3 17q-112 -109 -272 -109q-205 0 -316 148.5t-69 383.5q25 141 101.5 251t184 168t226.5 58q196 0 277 -151zM420 459q-6 -73 36.5 -122.5t112.5 -49.5q89 0 158 65.5t76 159.5q8 72 -35.5 121t-116.5 49q-87 0 -154.5 -65t-76.5 -158z" />
<glyph unicode="&#x120;" horiz-adv-x="1647" d="M1089 1671q-74 0 -120 57t-34 134q11 57 60 98t106 41q79 0 124.5 -56.5t31.5 -136.5q-11 -56 -59.5 -96.5t-108.5 -40.5zM938 891h680l-156 -891h-252l-31 124q-156 -144 -395 -144q-165 0 -304 64.5t-228 173.5t-126.5 260t-8.5 317q36 208 169 383t327 276.5 t403 101.5q196 0 350.5 -87t241.5 -234l-314 -197q-40 81 -117 122.5t-178 41.5q-187 0 -329.5 -130t-177.5 -331q-31 -179 53.5 -293t255.5 -114q259 0 385 184l10 62h-313z" />
<glyph unicode="&#x121;" horiz-adv-x="1274" d="M733 1098q-74 0 -120 57t-34 134q11 57 60 98t106 41q79 0 124.5 -56.5t31.5 -136.5q-11 -56 -59.5 -96.5t-108.5 -40.5zM868 963h369l-160 -914q-50 -280 -218 -414.5t-423 -134.5q-60 0 -121 8.5t-129 28t-131 58.5t-108 92l203 215q121 -105 266 -105q114 0 193.5 70 t103.5 205l3 17q-112 -109 -272 -109q-205 0 -316 148.5t-69 383.5q25 141 101.5 251t184 168t226.5 58q196 0 277 -151zM420 459q-6 -73 36.5 -122.5t112.5 -49.5q89 0 158 65.5t76 159.5q8 72 -35.5 121t-116.5 49q-87 0 -154.5 -65t-76.5 -158z" />
<glyph unicode="&#x122;" horiz-adv-x="1647" d="M938 891h680l-156 -891h-252l-31 124q-156 -144 -395 -144q-165 0 -304 64.5t-228 173.5t-126.5 260t-8.5 317q36 208 169 383t327 276.5t403 101.5q196 0 350.5 -87t241.5 -234l-314 -197q-40 81 -117 122.5t-178 41.5q-187 0 -329.5 -130t-177.5 -331 q-31 -179 53.5 -293t255.5 -114q259 0 385 184l10 62h-313zM327 -610l313 503l244 -125l-389 -460z" />
<glyph unicode="&#x123;" horiz-adv-x="1274" d="M729 1067q-89 0 -143.5 66.5t-39.5 158.5q6 24 27 72l301 451h164l-192 -374q49 -29 74 -84t13 -118q-12 -71 -72 -121.5t-132 -50.5zM868 963h369l-160 -914q-50 -280 -218 -414.5t-423 -134.5q-60 0 -121 8.5t-129 28t-131 58.5t-108 92l203 215q121 -105 266 -105 q114 0 193.5 70t103.5 205l3 17q-112 -109 -272 -109q-205 0 -316 148.5t-69 383.5q25 141 101.5 251t184 168t226.5 58q196 0 277 -151zM420 459q-6 -73 36.5 -122.5t112.5 -49.5q89 0 158 65.5t76 159.5q8 72 -35.5 121t-116.5 49q-87 0 -154.5 -65t-76.5 -158z" />
<glyph unicode="&#x126;" horiz-adv-x="1636" d="M1711 1282l-24 -135h-86l-202 -1147h-381l106 602h-567l-106 -602h-381l202 1147h-89l24 135h88l45 254h381l-45 -254h567l45 254h381l-45 -254h87zM1183 936l37 211h-567l-37 -211h567z" />
<glyph unicode="&#x127;" horiz-adv-x="1221" d="M848 981q152 0 238.5 -113t58.5 -274l-105 -594h-368l90 522q27 152 -98 152q-66 0 -110 -42.5t-57 -108.5l-91 -523h-369l200 1144h-131l39 217h129l31 175h369l-31 -175h248l-39 -217h-246l-51 -289q120 126 293 126z" />
<glyph unicode="&#x128;" horiz-adv-x="688" d="M706 1622q-114 0 -165 80q-4 6 -19 26.5t-21.5 27t-21 14.5t-31.5 8q-41 0 -72 -45t-42 -108l-160 24q25 143 99 226t184 83q39 0 69.5 -12.5t46 -27t33.5 -37.5q4 -6 15.5 -22.5t17 -22.5t16 -16t21 -13.5t24.5 -3.5q43 0 71.5 42.5t39.5 110.5l162 -24 q-24 -140 -94 -225t-173 -85zM70 0l270 1536h381l-270 -1536h-381z" />
<glyph unicode="&#x129;" horiz-adv-x="610" d="M567 1049q-114 0 -165 80q-4 6 -19 26.5t-21.5 27t-21 14.5t-31.5 8q-41 0 -72 -45t-42 -108l-160 24q25 143 99 226t184 83q39 0 69.5 -12.5t46 -27t33.5 -37.5q4 -6 15.5 -22.5t17 -22.5t16 -16t21 -13.5t24.5 -3.5q43 0 71.5 42.5t39.5 110.5l162 -24 q-24 -140 -94 -225t-173 -85zM37 0l168 963h368l-167 -963h-369z" />
<glyph unicode="&#x12a;" horiz-adv-x="688" d="M241 1708l37 209h635l-37 -209h-635zM70 0l270 1536h381l-270 -1536h-381z" />
<glyph unicode="&#x12b;" horiz-adv-x="610" d="M102 1135l37 209h635l-37 -209h-635zM37 0l168 963h368l-167 -963h-369z" />
<glyph unicode="&#x12e;" horiz-adv-x="688" d="M205 -322q51 0 95.5 26t93.5 73l102 -179q-74 -65 -167 -96t-175 -22q-134 10 -197 92.5t-43 200.5q27 156 235 227h-79l270 1536h381l-270 -1536q-147 -62 -226 -118t-91 -130q-13 -74 71 -74z" />
<glyph unicode="&#x12f;" horiz-adv-x="610" d="M446 1428q79 0 124.5 -56.5t31.5 -136.5q-11 -56 -59.5 -96.5t-108.5 -40.5q-74 0 -120 57t-34 134q11 57 60 98t106 41zM406 0q-147 -62 -226 -118t-91 -130q-13 -74 71 -74q51 0 95.5 26t93.5 73l102 -179q-74 -65 -167 -96t-175 -22q-134 10 -197 92.5t-43 200.5 q27 156 235 227h-67l168 963h368z" />
<glyph unicode="&#x130;" horiz-adv-x="688" d="M573 1671q-74 0 -120 57t-34 134q11 57 60 98t106 41q79 0 124.5 -56.5t31.5 -136.5q-11 -56 -59.5 -96.5t-108.5 -40.5zM70 0l270 1536h381l-270 -1536h-381z" />
<glyph unicode="&#x131;" horiz-adv-x="610" d="M37 0l168 963h368l-167 -963h-369z" />
<glyph unicode="&#x136;" horiz-adv-x="1614" d="M1769 1536l-792 -768l532 -768h-495l-441 692l-122 -692h-381l270 1536h381l-121 -691l676 691h493zM282 -610l313 503l244 -125l-389 -460z" />
<glyph unicode="&#x137;" horiz-adv-x="1276" d="M1352 963l-512 -471l350 -492h-445l-268 405l-71 -405h-369l270 1536h369l-169 -960l400 387h445zM141 -610l313 503l244 -125l-389 -460z" />
<glyph unicode="&#x139;" horiz-adv-x="1069" d="M948 1925l-394 -299l-112 146l362 337zM511 332h490l-57 -332h-874l270 1536h381z" />
<glyph unicode="&#x13a;" horiz-adv-x="612" d="M516 1626l-112 146l362 337l144 -184zM37 0l270 1536h369l-270 -1536h-369z" />
<glyph unicode="&#x13b;" horiz-adv-x="1069" d="M511 332h490l-57 -332h-874l270 1536h381zM96 -610l313 503l244 -125l-389 -460z" />
<glyph unicode="&#x13c;" horiz-adv-x="612" d="M37 0l270 1536h369l-270 -1536h-369zM-23 -692l-168 82l313 503l244 -125z" />
<glyph unicode="&#x13d;" horiz-adv-x="1069" d="M1035 1559q82 0 134 -52.5t52 -124.5q0 -74 -53 -133l-256 -286h-213l184 235q-41 27 -58.5 82t1.5 133q25 61 86 103.5t123 42.5zM721 1536l-210 -1204h490l-57 -332h-874l270 1536h381z" />
<glyph unicode="&#x13e;" horiz-adv-x="772" d="M647 963l184 235q-41 27 -58.5 82t1.5 133q25 61 86 103.5t123 42.5q82 0 134 -52.5t52 -124.5q0 -74 -53 -133l-256 -286h-213zM37 0l270 1536h369l-270 -1536h-369z" />
<glyph unicode="&#x13f;" horiz-adv-x="1092" d="M721 1536l-210 -1204h490l-57 -332h-874l270 1536h381zM879 1093q74 0 121 -58t35 -134q-11 -58 -60.5 -98t-107.5 -40q-75 0 -121 56t-33 135q11 56 60 97.5t106 41.5z" />
<glyph unicode="&#x140;" horiz-adv-x="1016" d="M37 0l270 1536h369l-270 -1536h-369zM886 597q-102 0 -164.5 75.5t-44.5 183.5q14 76 81 132.5t145 56.5q100 0 164 -78.5t48 -182.5q-16 -79 -83 -133t-146 -54z" />
<glyph unicode="&#x141;" horiz-adv-x="1069" d="M511 332h490l-57 -332h-874l89 504l-132 -86l44 247l131 86l138 785h381l-87 -501l306 201l-44 -252l-306 -199z" />
<glyph unicode="&#x142;" horiz-adv-x="678" d="M750 1063l-39 -217l-129 -80l-135 -766h-369l90 512l-133 -82l41 225l131 79l141 802h369l-97 -552z" />
<glyph unicode="&#x143;" horiz-adv-x="1735" d="M1481 1925l-394 -299l-112 146l362 337zM1386 1536h381l-270 -1536h-397l-480 965l-169 -965h-381l270 1536h395l482 -960z" />
<glyph unicode="&#x144;" horiz-adv-x="1221" d="M1131 1352l-394 -299l-112 146l362 337zM848 981q152 0 238.5 -113t58.5 -274l-105 -594h-368l90 522q27 152 -98 152q-68 0 -112.5 -45t-55.5 -113h-1l-89 -516h-369l168 963h368l-19 -109q120 127 294 127z" />
<glyph unicode="&#x145;" horiz-adv-x="1735" d="M1386 1536h381l-270 -1536h-397l-480 965l-169 -965h-381l270 1536h395l482 -960zM362 -610l313 503l244 -125l-389 -460z" />
<glyph unicode="&#x146;" horiz-adv-x="1221" d="M848 981q152 0 238.5 -113t58.5 -274l-105 -594h-368l90 522q27 152 -98 152q-68 0 -112.5 -45t-55.5 -113h-1l-89 -516h-369l168 963h368l-19 -109q120 127 294 127zM125 -610l313 503l244 -125l-389 -460z" />
<glyph unicode="&#x147;" horiz-adv-x="1735" d="M1190 1657h-202l-215 301l145 88l195 -188l266 188l129 -88zM1386 1536h381l-270 -1536h-397l-480 965l-169 -965h-381l270 1536h395l482 -960z" />
<glyph unicode="&#x148;" horiz-adv-x="1221" d="M840 1084h-202l-215 301l145 88l195 -188l266 188l129 -88zM848 981q152 0 238.5 -113t58.5 -274l-105 -594h-368l90 522q27 152 -98 152q-68 0 -112.5 -45t-55.5 -113h-1l-89 -516h-369l168 963h368l-19 -109q120 127 294 127z" />
<glyph unicode="&#x14a;" horiz-adv-x="1790" d="M1822 1536l-271 -1536l-8 -46q-18 -103 -47 -174.5t-71.5 -121t-108 -77.5t-148 -40t-198.5 -12h-79l31 240q47 1 78 8t63 28t53 65t34 113l1 17l5 2l-536 961l-170 -963h-381l271 1536h392l540 -960l169 960h381z" />
<glyph unicode="&#x14b;" horiz-adv-x="1221" d="M438 -512l19 240q58 2 93 15t58.5 49t36 80.5t27.5 127.5l90 522q27 152 -98 152q-68 0 -112.5 -45t-55.5 -113l-90 -516h-369l168 963h368l-18 -109q121 127 293 127q152 0 238.5 -113t58.5 -274l-105 -594q-20 -148 -58 -242.5t-109.5 -156.5t-174.5 -87t-260 -26z" />
<glyph unicode="&#x14c;" horiz-adv-x="1700" d="M749 1708l37 209h635l-37 -209h-635zM784 -20q-165 0 -304 64.5t-228 173.5t-126.5 260t-8.5 317q36 208 169 383t327 276.5t403 101.5q165 0 304 -64.5t228 -173.5t126.5 -260t8.5 -317q-36 -208 -169 -383t-327 -276.5t-403 -101.5zM817 344q187 0 325.5 128.5 t166.5 322.5q24 172 -65 284.5t-259 112.5q-189 0 -327.5 -128.5t-165.5 -322.5q-24 -173 65 -285t260 -112z" />
<glyph unicode="&#x14d;" horiz-adv-x="1130" d="M362 1133l37 209h635l-37 -209h-635zM500 -18q-154 0 -266.5 69.5t-161 190t-23.5 266.5q36 202 200 337.5t382 135.5q115 0 208.5 -41t153 -111t83.5 -167.5t5 -206.5q-36 -202 -200 -337.5t-381 -135.5zM508 295q83 0 150 59t83 154q14 74 -20 118t-100 44 q-84 0 -150.5 -59t-83.5 -156q-13 -77 20.5 -118.5t100.5 -41.5z" />
<glyph unicode="&#x150;" horiz-adv-x="1700" d="M786 1636l-120 156l419 358l142 -184zM1284 1636l-123 156l420 358l141 -184zM784 -20q-165 0 -304 64.5t-228 173.5t-126.5 260t-8.5 317q36 208 169 383t327 276.5t403 101.5q165 0 304 -64.5t228 -173.5t126.5 -260t8.5 -317q-36 -208 -169 -383t-327 -276.5 t-403 -101.5zM817 344q187 0 325.5 128.5t166.5 322.5q24 172 -65 284.5t-259 112.5q-189 0 -327.5 -128.5t-165.5 -322.5q-24 -173 65 -285t260 -112z" />
<glyph unicode="&#x151;" horiz-adv-x="1130" d="M399 1061l-120 156l419 358l142 -184zM897 1061l-123 156l420 358l141 -184zM500 -18q-154 0 -266.5 69.5t-161 190t-23.5 266.5q36 202 200 337.5t382 135.5q115 0 208.5 -41t153 -111t83.5 -167.5t5 -206.5q-36 -202 -200 -337.5t-381 -135.5zM508 295q83 0 150 59 t83 154q14 74 -20 118t-100 44q-84 0 -150.5 -59t-83.5 -156q-13 -77 20.5 -118.5t100.5 -41.5z" />
<glyph unicode="&#x152;" horiz-adv-x="2310" d="M2341 1214h-574l-50 -284h489l-58 -324h-488l-50 -284h573l-55 -322h-881l23 131q-229 -151 -486 -151q-165 0 -304 64.5t-228 173.5t-126.5 260t-8.5 317q36 208 169 383t327 276.5t403 101.5q284 0 474 -177l28 157h880zM852 348q186 0 328 129.5t163 317.5 q19 166 -83 279.5t-271 113.5q-185 0 -327.5 -130t-163.5 -317q-19 -166 84 -279.5t270 -113.5z" />
<glyph unicode="&#x153;" horiz-adv-x="1847" d="M1372 983q224 0 344 -136t80 -368l-16 -71h-635q-5 -80 23 -115t92 -35q65 0 121 31t92 86l270 -144q-74 -121 -198.5 -185t-287.5 -64q-222 0 -352 119q-170 -119 -377 -119q-158 0 -277.5 69.5t-174 190.5t-29.5 266q23 131 111 239.5t220.5 171t280.5 62.5 q209 0 347 -120q159 122 366 122zM1376 717q-114 0 -171 -94h263q1 49 -20 71.5t-72 22.5zM553 293q87 0 155.5 63t77.5 154q7 68 -37 114t-114 46q-89 0 -157.5 -63t-78.5 -154q-6 -69 38 -114.5t116 -45.5z" />
<glyph unicode="&#x154;" horiz-adv-x="1456" d="M1288 1925l-394 -299l-112 146l362 337zM1047 1536q149 0 257 -67t153.5 -180.5t21.5 -250.5q-26 -146 -126 -255t-242 -152l208 -631h-406l-179 606h-179l-104 -606h-381l270 1536h707zM1122 1067q25 137 -125 137h-339l-50 -289h236q253 0 278 152z" />
<glyph unicode="&#x155;" horiz-adv-x="895" d="M559 1053l-112 146l362 337l144 -184zM791 983q57 0 95.5 -17.5t76.5 -50.5l-164 -301q-55 37 -107 37q-77 0 -137 -73.5t-82 -192.5l-67 -385h-369l168 963h370l-32 -146q30 64 97.5 115t150.5 51z" />
<glyph unicode="&#x156;" horiz-adv-x="1456" d="M1047 1536q149 0 257 -67t153.5 -180.5t21.5 -250.5q-26 -146 -126 -255t-242 -152l208 -631h-406l-179 606h-179l-104 -606h-381l270 1536h707zM1122 1067q25 137 -125 137h-339l-50 -289h236q253 0 278 152zM188 -610l313 503l244 -125l-389 -460z" />
<glyph unicode="&#x157;" horiz-adv-x="895" d="M791 983q57 0 95.5 -17.5t76.5 -50.5l-164 -301q-55 37 -107 37q-77 0 -137 -73.5t-82 -192.5l-67 -385h-369l168 963h370l-32 -146q30 64 97.5 115t150.5 51zM-23 -692l-168 82l313 503l244 -125z" />
<glyph unicode="&#x158;" horiz-adv-x="1456" d="M997 1657h-202l-215 301l145 88l195 -188l266 188l129 -88zM1047 1536q149 0 257 -67t153.5 -180.5t21.5 -250.5q-26 -146 -126 -255t-242 -152l208 -631h-406l-179 606h-179l-104 -606h-381l270 1536h707zM1122 1067q25 137 -125 137h-339l-50 -289h236q253 0 278 152z " />
<glyph unicode="&#x159;" horiz-adv-x="895" d="M460 1084l-215 301l145 88l195 -188l266 188l129 -88l-318 -301h-202zM791 983q57 0 95.5 -17.5t76.5 -50.5l-164 -301q-55 37 -107 37q-77 0 -137 -73.5t-82 -192.5l-67 -385h-369l168 963h370l-32 -146q30 64 97.5 115t150.5 51z" />
<glyph unicode="&#x15a;" horiz-adv-x="1229" d="M817 1626l-112 146l362 337l144 -184zM569 -20q-107 0 -203.5 28t-167 74t-119 91t-83.5 93l280 236q65 -104 138.5 -152.5t167.5 -48.5q91 0 146.5 41.5t68.5 114.5q6 31 -2.5 55t-39 47t-54 35.5t-80.5 39.5q-13 6 -20 9.5t-18 8.5t-20 10q-138 67 -183 97 q-147 96 -170 236q-10 64 3 142q24 132 110.5 229t204.5 143.5t250 46.5q157 0 275 -64.5t215 -176.5l-262 -209q-93 141 -238 141q-66 0 -117.5 -36t-60.5 -93q-6 -30 7 -54.5t45.5 -46t67.5 -37.5t90 -39q9 -3 13 -5q40 -16 72 -31t67 -34.5t62 -38.5t54 -44.5t45.5 -52 t33.5 -60t21.5 -70.5t6 -82t-9.5 -95q-25 -140 -116 -244t-215.5 -154t-264.5 -50z" />
<glyph unicode="&#x15b;" horiz-adv-x="987" d="M575 1063l-112 146l362 337l144 -184zM440 -20q-257 0 -460 129l157 219q55 -39 141 -64.5t148 -25.5q56 0 94.5 22t44.5 57q3 17 -18 25t-80.5 20t-108.5 29q-289 72 -247 309q16 97 87.5 162.5t167 93t209.5 27.5q232 0 400 -113l-156 -190q-51 29 -130.5 52.5 t-133.5 23.5q-44 0 -75 -18.5t-36 -49.5q-2 -11 6 -19.5t27 -15.5t39.5 -12t51 -13t53.5 -16q168 -37 238.5 -111t45.5 -212q-27 -153 -150 -231t-315 -78z" />
<glyph unicode="&#x15e;" horiz-adv-x="1229" d="M813 936q40 -16 72 -31t67 -34.5t62 -38.5t54 -44.5t45.5 -52t33.5 -60t21.5 -70.5t6 -82t-9.5 -95q-35 -197 -189.5 -315t-358.5 -131l-90 -95q100 16 161.5 -48.5t43.5 -168.5q-16 -86 -86.5 -145t-157.5 -59q-89 0 -156 53.5t-75 124.5l151 24q7 -21 25 -32t37 -11 q37 0 69.5 29.5t38.5 69.5q8 40 -35 39q-36 -1 -98 -33l-125 75l130 184q-157 26 -271.5 105.5t-182.5 171.5l280 236q65 -104 138.5 -152.5t167.5 -48.5q91 0 146.5 41.5t68.5 114.5q6 31 -2.5 55t-39 47t-54 35.5t-80.5 39.5q-13 6 -20 9.5t-18 8.5t-20 10 q-138 67 -183 97q-147 96 -170 236q-10 64 3 142q24 132 110.5 229t204.5 143.5t250 46.5q157 0 275 -64.5t215 -176.5l-262 -209q-93 141 -238 141q-66 0 -117.5 -36t-60.5 -93q-6 -30 7 -54.5t45.5 -46t67.5 -37.5t90 -39q9 -3 13 -5z" />
<glyph unicode="&#x15f;" horiz-adv-x="987" d="M621 612q168 -37 238.5 -111t45.5 -212q-24 -135 -123.5 -212t-255.5 -93l-81 -85q100 16 161.5 -48.5t43.5 -168.5q-16 -86 -86.5 -145t-157.5 -59q-89 0 -156 53.5t-75 124.5l151 24q7 -21 25 -32t37 -11q37 0 69.5 29.5t38.5 69.5q8 40 -35 39q-36 -1 -98 -33l-125 75 l118 167q-209 20 -376 125l157 219q55 -39 141 -64.5t148 -25.5q56 0 94.5 22t44.5 57q3 17 -18 25t-80.5 20t-108.5 29q-289 72 -247 309q16 97 87.5 162.5t167 93t209.5 27.5q232 0 400 -113l-156 -190q-51 29 -130.5 52.5t-133.5 23.5q-44 0 -75 -18.5t-36 -49.5 q-2 -11 6 -19.5t27 -15.5t39.5 -12t51 -13t53.5 -16z" />
<glyph unicode="&#x160;" horiz-adv-x="1229" d="M718 1657l-215 301l145 88l195 -188l266 188l129 -88l-318 -301h-202zM569 -20q-107 0 -203.5 28t-167 74t-119 91t-83.5 93l280 236q65 -104 138.5 -152.5t167.5 -48.5q91 0 146.5 41.5t68.5 114.5q6 31 -2.5 55t-39 47t-54 35.5t-80.5 39.5q-13 6 -20 9.5t-18 8.5 t-20 10q-138 67 -183 97q-147 96 -170 236q-10 64 3 142q24 132 110.5 229t204.5 143.5t250 46.5q157 0 275 -64.5t215 -176.5l-262 -209q-93 141 -238 141q-66 0 -117.5 -36t-60.5 -93q-6 -30 7 -54.5t45.5 -46t67.5 -37.5t90 -39q9 -3 13 -5q40 -16 72 -31t67 -34.5 t62 -38.5t54 -44.5t45.5 -52t33.5 -60t21.5 -70.5t6 -82t-9.5 -95q-25 -140 -116 -244t-215.5 -154t-264.5 -50z" />
<glyph unicode="&#x161;" horiz-adv-x="987" d="M476 1094l-215 301l145 88l195 -188l266 188l129 -88l-318 -301h-202zM440 -20q-257 0 -460 129l157 219q55 -39 141 -64.5t148 -25.5q56 0 94.5 22t44.5 57q3 17 -18 25t-80.5 20t-108.5 29q-289 72 -247 309q16 97 87.5 162.5t167 93t209.5 27.5q232 0 400 -113 l-156 -190q-51 29 -130.5 52.5t-133.5 23.5q-44 0 -75 -18.5t-36 -49.5q-2 -11 6 -19.5t27 -15.5t39.5 -12t51 -13t53.5 -16q168 -37 238.5 -111t45.5 -212q-27 -153 -150 -231t-315 -78z" />
<glyph unicode="&#x162;" horiz-adv-x="1217" d="M1362 1536l-59 -332h-377l-211 -1204h-104l-105 -111q100 16 161.5 -48.5t43.5 -168.5q-16 -86 -86.5 -145t-157.5 -59q-89 0 -156 53.5t-75 124.5l151 24q7 -21 25 -32t37 -11q37 0 69.5 29.5t38.5 69.5q8 40 -35 39q-36 -1 -98 -33l-125 75l136 193h-99l211 1204h-379 l59 332h1135z" />
<glyph unicode="&#x163;" horiz-adv-x="752" d="M477 0h-97l-105 -111q100 16 161.5 -48.5t43.5 -168.5q-16 -86 -86.5 -145t-157.5 -59q-89 0 -156 53.5t-75 124.5l151 24q7 -21 25 -32t37 -11q37 0 69.5 29.5t38.5 69.5q8 40 -35 39q-36 -1 -98 -33l-125 75l136 193h-95l121 692h-169l48 271h168l61 346h369l-61 -346 h165l-47 -271h-165z" />
<glyph unicode="&#x164;" horiz-adv-x="1217" d="M922 1657h-202l-215 301l145 88l195 -188l266 188l129 -88zM1362 1536l-59 -332h-377l-211 -1204h-379l211 1204h-379l59 332h1135z" />
<glyph unicode="&#x165;" horiz-adv-x="752" d="M1096 1681q82 0 134 -52.5t52 -124.5q0 -74 -53 -133l-256 -286h-213l184 235q-41 27 -58.5 82t1.5 133q25 61 86 103.5t123 42.5zM707 1309l-61 -346h165l-47 -271h-165l-122 -692h-368l121 692h-169l48 271h168l61 346h369z" />
<glyph unicode="&#x166;" horiz-adv-x="1217" d="M1303 1204h-377l-57 -328h181l-39 -217h-180l-116 -659h-379l116 659h-187l39 217h186l57 328h-379l59 332h1135z" />
<glyph unicode="&#x167;" horiz-adv-x="752" d="M764 692h-165l-38 -213h122l-33 -217h-127l-46 -262h-368l46 262h-128l32 217h134l37 213h-169l48 271h168l61 346h369l-61 -346h165z" />
<glyph unicode="&#x168;" horiz-adv-x="1556" d="M1141 1622q-114 0 -165 80q-4 6 -19 26.5t-21.5 27t-21 14.5t-31.5 8q-41 0 -72 -45t-42 -108l-160 24q25 143 99 226t184 83q39 0 69.5 -12.5t46 -27t33.5 -37.5q4 -6 15.5 -22.5t17 -22.5t16 -16t21 -13.5t24.5 -3.5q43 0 71.5 42.5t39.5 110.5l162 -24 q-24 -140 -94 -225t-173 -85zM711 -20q-140 0 -257.5 42t-195 116t-112 179t-13.5 226l176 993h381l-168 -946q-22 -131 35.5 -205t165.5 -74q126 0 227 85t125 218l162 922h381l-180 -1018q-28 -160 -134 -283.5t-260.5 -189t-332.5 -65.5z" />
<glyph unicode="&#x169;" horiz-adv-x="1171" d="M846 1049q-114 0 -165 80q-4 6 -19 26.5t-21.5 27t-21 14.5t-31.5 8q-41 0 -72 -45t-42 -108l-160 24q25 143 99 226t184 83q39 0 69.5 -12.5t46 -27t33.5 -37.5q4 -6 15.5 -22.5t17 -22.5t16 -16t21 -13.5t24.5 -3.5q43 0 71.5 42.5t39.5 110.5l162 -24 q-24 -140 -94 -225t-173 -85zM516 -20q-244 0 -357 112.5t-81 298.5l100 572h369l-101 -570q-10 -63 10.5 -88.5t65.5 -25.5q63 0 111.5 37t60.5 102l94 545h369l-104 -596q-33 -184 -170 -285.5t-367 -101.5z" />
<glyph unicode="&#x16a;" horiz-adv-x="1556" d="M676 1708l37 209h635l-37 -209h-635zM711 -20q-140 0 -257.5 42t-195 116t-112 179t-13.5 226l176 993h381l-168 -946q-22 -131 35.5 -205t165.5 -74q126 0 227 85t125 218l162 922h381l-180 -1018q-28 -160 -134 -283.5t-260.5 -189t-332.5 -65.5z" />
<glyph unicode="&#x16b;" horiz-adv-x="1171" d="M381 1135l37 209h635l-37 -209h-635zM516 -20q-244 0 -357 112.5t-81 298.5l100 572h369l-101 -570q-10 -63 10.5 -88.5t65.5 -25.5q63 0 111.5 37t60.5 102l94 545h369l-104 -596q-33 -184 -170 -285.5t-367 -101.5z" />
<glyph unicode="&#x16e;" horiz-adv-x="1556" d="M1008 1654q-117 0 -186.5 84.5t-47.5 202.5q17 94 98 161.5t179 67.5q114 0 181.5 -83.5t47.5 -198.5q-17 -97 -96.5 -165.5t-175.5 -68.5zM1016 1800q58 0 93.5 39.5t31.5 101.5q-3 35 -32 61.5t-67 26.5q-55 0 -90 -42.5t-30 -98.5q3 -41 29 -64.5t65 -23.5zM711 -20 q-140 0 -257.5 42t-195 116t-112 179t-13.5 226l176 993h381l-168 -946q-22 -131 35.5 -205t165.5 -74q126 0 227 85t125 218l162 922h381l-180 -1018q-28 -160 -134 -283.5t-260.5 -189t-332.5 -65.5z" />
<glyph unicode="&#x16f;" horiz-adv-x="1171" d="M713 1081q-117 0 -186.5 84.5t-47.5 202.5q17 94 98 161.5t179 67.5q114 0 181.5 -83.5t47.5 -198.5q-17 -97 -96.5 -165.5t-175.5 -68.5zM721 1227q58 0 93.5 39.5t31.5 101.5q-3 35 -32 61.5t-67 26.5q-55 0 -90 -42.5t-30 -98.5q3 -41 29 -64.5t65 -23.5zM516 -20 q-244 0 -357 112.5t-81 298.5l100 572h369l-101 -570q-10 -63 10.5 -88.5t65.5 -25.5q63 0 111.5 37t60.5 102l94 545h369l-104 -596q-33 -184 -170 -285.5t-367 -101.5z" />
<glyph unicode="&#x170;" horiz-adv-x="1556" d="M713 1636l-120 156l419 358l142 -184zM1211 1636l-123 156l420 358l141 -184zM711 -20q-140 0 -257.5 42t-195 116t-112 179t-13.5 226l176 993h381l-168 -946q-22 -131 35.5 -205t165.5 -74q126 0 227 85t125 218l162 922h381l-180 -1018q-28 -160 -134 -283.5 t-260.5 -189t-332.5 -65.5z" />
<glyph unicode="&#x171;" horiz-adv-x="1171" d="M418 1063l-120 156l419 358l142 -184zM916 1063l-123 156l420 358l141 -184zM516 -20q-244 0 -357 112.5t-81 298.5l100 572h369l-101 -570q-10 -63 10.5 -88.5t65.5 -25.5q63 0 111.5 37t60.5 102l94 545h369l-104 -596q-33 -184 -170 -285.5t-367 -101.5z" />
<glyph unicode="&#x172;" horiz-adv-x="1556" d="M1237 1536h381l-180 -1018q-33 -186 -166.5 -319t-326.5 -187q-150 -83 -166 -178q-13 -74 71 -74q51 0 95.5 26t93.5 73l102 -179q-74 -65 -167 -96t-175 -22q-134 10 -197 92.5t-43 200.5q13 74 67 129q-252 25 -392 180t-101 379l176 993h381l-168 -946 q-22 -131 35.5 -205t165.5 -74q126 0 227 85t125 218z" />
<glyph unicode="&#x173;" horiz-adv-x="1171" d="M788 963h369l-104 -596q-29 -161 -137.5 -259.5t-290.5 -120.5q-131 -57 -202 -111t-83 -124q-13 -74 71 -74q51 0 95.5 26t93.5 73l102 -179q-74 -65 -167 -96t-175 -22q-134 10 -197 92.5t-43 200.5q27 153 227 224q-157 37 -225.5 140.5t-43.5 253.5l100 572h369 l-101 -570q-10 -63 10.5 -88.5t65.5 -25.5q63 0 111.5 37t60.5 102z" />
<glyph unicode="&#x174;" horiz-adv-x="2300" d="M1390 1806l-258 -192l-135 92l313 301h203l219 -301l-152 -92zM2054 1536h408l-785 -1536h-481l-70 336l-190 -336h-481l-244 1536h395l168 -1215l255 476l-155 739h361l49 -264l141 264h377l-427 -758l84 -457z" />
<glyph unicode="&#x175;" horiz-adv-x="1669" d="M987 1233l-258 -192l-135 92l313 301h203l219 -301l-152 -92zM1352 963h391l-483 -965h-355l-59 559l-258 -559h-357l-137 965h377l37 -544l258 544h291l65 -539z" />
<glyph unicode="&#x176;" horiz-adv-x="1487" d="M983 1806l-258 -192l-135 92l313 301h203l219 -301l-152 -92zM1659 1536l-686 -819l-125 -717h-381l127 729l-393 807h415l220 -489l395 489h428z" />
<glyph unicode="&#x177;" horiz-adv-x="1243" d="M767 1233l-258 -192l-135 92l313 301h203l219 -301l-152 -92zM942 963h384l-833 -1444h-380l275 481h-74l-227 963h394l106 -671z" />
<glyph unicode="&#x178;" horiz-adv-x="1487" d="M746 1638q-76 0 -122.5 56.5t-33.5 135.5q10 57 59.5 97.5t108.5 40.5q77 0 123 -56.5t33 -134.5q-11 -59 -59.5 -99t-108.5 -40zM1194 1638q-77 0 -123 56.5t-32 135.5q11 57 59.5 97.5t107.5 40.5q77 0 122.5 -56t31.5 -135q-11 -59 -58.5 -99t-107.5 -40zM1659 1536 l-686 -819l-125 -717h-381l127 729l-393 807h415l220 -489l395 489h428z" />
<glyph unicode="&#x179;" horiz-adv-x="1333" d="M1303 1925l-394 -299l-112 146l362 337zM1444 1536l-33 -207l-852 -997h664l-58 -332h-1179l30 207l857 997h-656l59 332h1168z" />
<glyph unicode="&#x17a;" horiz-adv-x="1018" d="M1030 1352l-394 -299l-112 146l362 337zM1055 963l-536 -693h409l-47 -270h-926l534 692h-391l47 271h910z" />
<glyph unicode="&#x17b;" horiz-adv-x="1333" d="M930 1671q-74 0 -120 57t-34 134q11 57 60 98t106 41q79 0 124.5 -56.5t31.5 -136.5q-11 -56 -59.5 -96.5t-108.5 -40.5zM1444 1536l-33 -207l-852 -997h664l-58 -332h-1179l30 207l857 997h-656l59 332h1168z" />
<glyph unicode="&#x17c;" horiz-adv-x="1018" d="M657 1098q-74 0 -120 57t-34 134q11 57 60 98t106 41q79 0 124.5 -56.5t31.5 -136.5q-11 -56 -59.5 -96.5t-108.5 -40.5zM1055 963l-536 -693h409l-47 -270h-926l534 692h-391l47 271h910z" />
<glyph unicode="&#x17d;" horiz-adv-x="1333" d="M1012 1657h-202l-215 301l145 88l195 -188l266 188l129 -88zM1444 1536l-33 -207l-852 -997h664l-58 -332h-1179l30 207l857 997h-656l59 332h1168z" />
<glyph unicode="&#x17e;" horiz-adv-x="1018" d="M739 1084h-202l-215 301l145 88l195 -188l266 188l129 -88zM145 963h910l-536 -693h409l-47 -270h-926l534 692h-391z" />
<glyph unicode="&#x192;" horiz-adv-x="1083" d="M874 1298q-78 0 -127 -49t-63 -139l-14 -86h270l-43 -274h-270l-201 -1262h-328l199 1262h-170l43 274h171l21 135q18 113 88 204.5t172 142t214 50.5q56 0 103.5 -11.5t66.5 -26.5l-29 -250q-37 30 -103 30z" />
<glyph unicode="&#x1a0;" horiz-adv-x="1700" d="M1727 1531h180l-23 -135q-22 -127 -81.5 -182t-133.5 -55q-18 0 -27 1q81 -191 41 -419q-36 -208 -169 -383t-327 -276.5t-403 -101.5q-165 0 -304 64.5t-228 173.5t-126.5 260t-8.5 317q36 208 169 383t327 276.5t403 101.5q187 0 337 -80t239 -221q62 4 96 37.5 t39 107.5v131zM1309 795q24 172 -65 284.5t-259 112.5q-189 0 -327.5 -128.5t-165.5 -322.5q-24 -173 65 -285t260 -112q187 0 325.5 128.5t166.5 322.5z" />
<glyph unicode="&#x1a1;" horiz-adv-x="1130" d="M1139 1056h180l-23 -135q-22 -127 -81.5 -182t-133.5 -55h-11q33 -108 11 -229q-36 -202 -200 -337.5t-381 -135.5q-154 0 -266.5 69.5t-161 190t-23.5 266.5q36 202 200 337.5t382 135.5q132 0 234.5 -52.5t160.5 -145.5q105 16 113 142v131zM741 508q14 74 -20 118 t-100 44q-84 0 -150.5 -59t-83.5 -156q-13 -77 20.5 -118.5t100.5 -41.5q83 0 150 59t83 154z" />
<glyph unicode="&#x1af;" horiz-adv-x="1556" d="M1762 1738h180l-23 -135q-22 -127 -81.5 -182t-133.5 -55q-56 0 -112 21l-154 -869q-28 -160 -134 -283.5t-260.5 -189t-332.5 -65.5q-140 0 -257.5 42t-195 116t-112 179t-13.5 226l176 993h381l-168 -946q-22 -131 35.5 -205t165.5 -74q126 0 227 85t125 218l162 922 h381l-13 -74h5q70 0 108.5 33t43.5 112v131z" />
<glyph unicode="&#x1b0;" horiz-adv-x="1171" d="M1234 962h180l-23 -135q-22 -127 -81.5 -182t-133.5 -55q-38 0 -82 11l-41 -234q-33 -184 -170 -285.5t-367 -101.5q-244 0 -357 112.5t-81 298.5l100 572h369l-101 -570q-10 -63 10.5 -88.5t65.5 -25.5q63 0 111.5 37t60.5 102l94 545h369l-48 -276q117 11 125 144v131z " />
<glyph unicode="&#x1cd;" horiz-adv-x="1622" d="M1128 1657h-202l-215 301l145 88l195 -188l266 188l129 -88zM1102 0l-32 231h-591l-114 -231h-426l823 1536h469l285 -1536h-414zM633 543h394l-87 623z" />
<glyph unicode="&#x1ce;" horiz-adv-x="1260" d="M809 1090h-202l-215 301l145 88l195 -188l266 188l129 -88zM854 963h369l-168 -963h-328l3 104q-115 -124 -294 -124q-95 0 -174.5 38.5t-131 108t-72.5 167.5t1 218q25 141 102.5 251t183.5 168t222 58q186 0 270 -132zM569 287q89 0 158 65.5t76 159.5q8 72 -35.5 121 t-116.5 49q-87 0 -154.5 -65t-76.5 -158q-6 -73 36.5 -122.5t112.5 -49.5z" />
<glyph unicode="&#x1cf;" horiz-adv-x="688" d="M453 1657l-215 301l145 88l195 -188l266 188l129 -88l-318 -301h-202zM70 0l270 1536h381l-270 -1536h-381z" />
<glyph unicode="&#x1d0;" horiz-adv-x="610" d="M314 1084l-215 301l145 88l195 -188l266 188l129 -88l-318 -301h-202zM37 0l168 963h368l-167 -963h-369z" />
<glyph unicode="&#x1d1;" horiz-adv-x="1700" d="M961 1657l-215 301l145 88l195 -188l266 188l129 -88l-318 -301h-202zM784 -20q-165 0 -304 64.5t-228 173.5t-126.5 260t-8.5 317q36 208 169 383t327 276.5t403 101.5q165 0 304 -64.5t228 -173.5t126.5 -260t8.5 -317q-36 -208 -169 -383t-327 -276.5t-403 -101.5z M817 344q187 0 325.5 128.5t166.5 322.5q24 172 -65 284.5t-259 112.5q-189 0 -327.5 -128.5t-165.5 -322.5q-24 -173 65 -285t260 -112z" />
<glyph unicode="&#x1d2;" horiz-adv-x="1130" d="M574 1082l-215 301l145 88l195 -188l266 188l129 -88l-318 -301h-202zM500 -18q-154 0 -266.5 69.5t-161 190t-23.5 266.5q36 202 200 337.5t382 135.5q115 0 208.5 -41t153 -111t83.5 -167.5t5 -206.5q-36 -202 -200 -337.5t-381 -135.5zM508 295q83 0 150 59t83 154 q14 74 -20 118t-100 44q-84 0 -150.5 -59t-83.5 -156q-13 -77 20.5 -118.5t100.5 -41.5z" />
<glyph unicode="&#x1d3;" horiz-adv-x="1556" d="M888 1657l-215 301l145 88l195 -188l266 188l129 -88l-318 -301h-202zM711 -20q-140 0 -257.5 42t-195 116t-112 179t-13.5 226l176 993h381l-168 -946q-22 -131 35.5 -205t165.5 -74q126 0 227 85t125 218l162 922h381l-180 -1018q-28 -160 -134 -283.5t-260.5 -189 t-332.5 -65.5z" />
<glyph unicode="&#x1d4;" horiz-adv-x="1171" d="M593 1084l-215 301l145 88l195 -188l266 188l129 -88l-318 -301h-202zM516 -20q-244 0 -357 112.5t-81 298.5l100 572h369l-101 -570q-10 -63 10.5 -88.5t65.5 -25.5q63 0 111.5 37t60.5 102l94 545h369l-104 -596q-33 -184 -170 -285.5t-367 -101.5z" />
<glyph unicode="&#x1d5;" horiz-adv-x="1556" d="M752 2140l37 209h635l-37 -209h-635zM781 1638q-76 0 -122.5 56.5t-33.5 135.5q10 57 59.5 97.5t108.5 40.5q77 0 123 -56.5t33 -134.5q-11 -59 -59.5 -99t-108.5 -40zM1229 1638q-77 0 -123 56.5t-32 135.5q11 57 59.5 97.5t107.5 40.5q77 0 122.5 -56t31.5 -135 q-11 -59 -58.5 -99t-107.5 -40zM711 -20q-140 0 -257.5 42t-195 116t-112 179t-13.5 226l176 993h381l-168 -946q-22 -131 35.5 -205t165.5 -74q126 0 227 85t125 218l162 922h381l-180 -1018q-28 -160 -134 -283.5t-260.5 -189t-332.5 -65.5z" />
<glyph unicode="&#x1d6;" horiz-adv-x="1171" d="M467 1628l37 209h635l-37 -209h-635zM496 1126q-76 0 -121.5 56.5t-32.5 136.5q10 57 58.5 97t107.5 40q77 0 123 -56t33 -134q-11 -59 -59.5 -99.5t-108.5 -40.5zM944 1126q-77 0 -122 56.5t-31 136.5q9 57 57.5 97t108.5 40q77 0 122 -56t31 -134q-11 -59 -58.5 -99.5 t-107.5 -40.5zM516 -20q-244 0 -357 112.5t-81 298.5l100 572h369l-101 -570q-10 -63 10.5 -88.5t65.5 -25.5q63 0 111.5 37t60.5 102l94 545h369l-104 -596q-33 -184 -170 -285.5t-367 -101.5z" />
<glyph unicode="&#x1d7;" horiz-adv-x="1556" d="M1063 2058l-112 146l362 337l144 -184zM781 1638q-76 0 -122.5 56.5t-33.5 135.5q10 57 59.5 97.5t108.5 40.5q77 0 123 -56.5t33 -134.5q-11 -59 -59.5 -99t-108.5 -40zM1229 1638q-77 0 -123 56.5t-32 135.5q11 57 59.5 97.5t107.5 40.5q77 0 122.5 -56t31.5 -135 q-11 -59 -58.5 -99t-107.5 -40zM711 -20q-140 0 -257.5 42t-195 116t-112 179t-13.5 226l176 993h381l-168 -946q-22 -131 35.5 -205t165.5 -74q126 0 227 85t125 218l162 922h381l-180 -1018q-28 -160 -134 -283.5t-260.5 -189t-332.5 -65.5z" />
<glyph unicode="&#x1d8;" horiz-adv-x="1171" d="M778 1546l-112 146l362 337l144 -184zM496 1126q-76 0 -121.5 56.5t-32.5 136.5q10 57 58.5 97t107.5 40q77 0 123 -56t33 -134q-11 -59 -59.5 -99.5t-108.5 -40.5zM944 1126q-77 0 -122 56.5t-31 136.5q9 57 57.5 97t108.5 40q77 0 122 -56t31 -134q-11 -59 -58.5 -99.5 t-107.5 -40.5zM516 -20q-244 0 -357 112.5t-81 298.5l100 572h369l-101 -570q-10 -63 10.5 -88.5t65.5 -25.5q63 0 111.5 37t60.5 102l94 545h369l-104 -596q-33 -184 -170 -285.5t-367 -101.5z" />
<glyph unicode="&#x1d9;" horiz-adv-x="1556" d="M964 2089l-215 301l145 88l195 -188l266 188l129 -88l-318 -301h-202zM781 1638q-76 0 -122.5 56.5t-33.5 135.5q10 57 59.5 97.5t108.5 40.5q77 0 123 -56.5t33 -134.5q-11 -59 -59.5 -99t-108.5 -40zM1229 1638q-77 0 -123 56.5t-32 135.5q11 57 59.5 97.5t107.5 40.5 q77 0 122.5 -56t31.5 -135q-11 -59 -58.5 -99t-107.5 -40zM711 -20q-140 0 -257.5 42t-195 116t-112 179t-13.5 226l176 993h381l-168 -946q-22 -131 35.5 -205t165.5 -74q126 0 227 85t125 218l162 922h381l-180 -1018q-28 -160 -134 -283.5t-260.5 -189t-332.5 -65.5z" />
<glyph unicode="&#x1da;" horiz-adv-x="1171" d="M679 1577l-215 301l145 88l195 -188l266 188l129 -88l-318 -301h-202zM496 1126q-76 0 -121.5 56.5t-32.5 136.5q10 57 58.5 97t107.5 40q77 0 123 -56t33 -134q-11 -59 -59.5 -99.5t-108.5 -40.5zM944 1126q-77 0 -122 56.5t-31 136.5q9 57 57.5 97t108.5 40 q77 0 122 -56t31 -134q-11 -59 -58.5 -99.5t-107.5 -40.5zM516 -20q-244 0 -357 112.5t-81 298.5l100 572h369l-101 -570q-10 -63 10.5 -88.5t65.5 -25.5q63 0 111.5 37t60.5 102l94 545h369l-104 -596q-33 -184 -170 -285.5t-367 -101.5z" />
<glyph unicode="&#x1db;" horiz-adv-x="1556" d="M1087 2066l-310 291l191 184l256 -340zM781 1638q-76 0 -122.5 56.5t-33.5 135.5q10 57 59.5 97.5t108.5 40.5q77 0 123 -56.5t33 -134.5q-11 -59 -59.5 -99t-108.5 -40zM1229 1638q-77 0 -123 56.5t-32 135.5q11 57 59.5 97.5t107.5 40.5q77 0 122.5 -56t31.5 -135 q-11 -59 -58.5 -99t-107.5 -40zM711 -20q-140 0 -257.5 42t-195 116t-112 179t-13.5 226l176 993h381l-168 -946q-22 -131 35.5 -205t165.5 -74q126 0 227 85t125 218l162 922h381l-180 -1018q-28 -160 -134 -283.5t-260.5 -189t-332.5 -65.5z" />
<glyph unicode="&#x1dc;" horiz-adv-x="1171" d="M802 1554l-310 291l191 184l256 -340zM496 1126q-76 0 -121.5 56.5t-32.5 136.5q10 57 58.5 97t107.5 40q77 0 123 -56t33 -134q-11 -59 -59.5 -99.5t-108.5 -40.5zM944 1126q-77 0 -122 56.5t-31 136.5q9 57 57.5 97t108.5 40q77 0 122 -56t31 -134q-11 -59 -58.5 -99.5 t-107.5 -40.5zM516 -20q-244 0 -357 112.5t-81 298.5l100 572h369l-101 -570q-10 -63 10.5 -88.5t65.5 -25.5q63 0 111.5 37t60.5 102l94 545h369l-104 -596q-33 -184 -170 -285.5t-367 -101.5z" />
<glyph unicode="&#x218;" horiz-adv-x="1229" d="M569 -20q-107 0 -203.5 28t-167 74t-119 91t-83.5 93l280 236q65 -104 138.5 -152.5t167.5 -48.5q91 0 146.5 41.5t68.5 114.5q6 31 -2.5 55t-39 47t-54 35.5t-80.5 39.5q-13 6 -20 9.5t-18 8.5t-20 10q-138 67 -183 97q-147 96 -170 236q-10 64 3 142q24 132 110.5 229 t204.5 143.5t250 46.5q157 0 275 -64.5t215 -176.5l-262 -209q-93 141 -238 141q-66 0 -117.5 -36t-60.5 -93q-6 -30 7 -54.5t45.5 -46t67.5 -37.5t90 -39q9 -3 13 -5q40 -16 72 -31t67 -34.5t62 -38.5t54 -44.5t45.5 -52t33.5 -60t21.5 -70.5t6 -82t-9.5 -95 q-25 -140 -116 -244t-215.5 -154t-264.5 -50zM301 -694l-168 82l313 503l244 -125z" />
<glyph unicode="&#x219;" horiz-adv-x="987" d="M440 -20q-257 0 -460 129l157 219q55 -39 141 -64.5t148 -25.5q56 0 94.5 22t44.5 57q3 17 -18 25t-80.5 20t-108.5 29q-289 72 -247 309q16 97 87.5 162.5t167 93t209.5 27.5q232 0 400 -113l-156 -190q-51 29 -130.5 52.5t-133.5 23.5q-44 0 -75 -18.5t-36 -49.5 q-2 -11 6 -19.5t27 -15.5t39.5 -12t51 -13t53.5 -16q168 -37 238.5 -111t45.5 -212q-27 -153 -150 -231t-315 -78zM219 -682l-168 82l313 503l244 -125z" />
<glyph unicode="&#x21a;" horiz-adv-x="1217" d="M1362 1536l-59 -332h-377l-211 -1204h-379l211 1204h-379l59 332h1135zM112 -610l313 503l244 -125l-389 -460z" />
<glyph unicode="&#x21b;" horiz-adv-x="752" d="M811 963l-47 -271h-165l-122 -692h-368l121 692h-169l48 271h168l61 346h369l-61 -346h165zM-119 -610l313 503l244 -125l-389 -460z" />
<glyph unicode="&#x237;" horiz-adv-x="614" d="M-55 -512l262 1475h368l-262 -1475h-368z" />
<glyph unicode="&#x2c6;" horiz-adv-x="786" d="M295 1143l-135 92l313 301h203l219 -301l-152 -92l-190 192z" />
<glyph unicode="&#x2c7;" horiz-adv-x="793" d="M414 1145l-215 301l145 88l195 -188l266 188l129 -88l-318 -301h-202z" />
<glyph unicode="&#x2d8;" horiz-adv-x="889" d="M584 1171q-183 0 -276 96t-60 269h201q-11 -80 30 -130t121 -50q97 0 145.5 52.5t61.5 127.5h201q-33 -188 -142.5 -276.5t-281.5 -88.5z" />
<glyph unicode="&#x2d9;" horiz-adv-x="489" d="M385 1159q-74 0 -120 57t-34 134q11 57 60 98t106 41q79 0 124.5 -56.5t31.5 -136.5q-11 -56 -59.5 -96.5t-108.5 -40.5z" />
<glyph unicode="&#x2da;" horiz-adv-x="641" d="M453 1081q-117 0 -186.5 84.5t-47.5 202.5q17 94 98 161.5t179 67.5q114 0 181.5 -83.5t47.5 -198.5q-17 -97 -96.5 -165.5t-175.5 -68.5zM461 1227q58 0 93.5 39.5t31.5 101.5q-3 35 -32 61.5t-67 26.5q-55 0 -90 -42.5t-30 -98.5q3 -41 29 -64.5t65 -23.5z" />
<glyph unicode="&#x2db;" horiz-adv-x="684" d="M168 -526q-134 10 -197 92.5t-43 200.5q34 193 361 288l176 -61q-147 -62 -226 -118t-92 -130q-12 -74 72 -74q51 0 95.5 26t93.5 73l102 -179q-74 -65 -167 -96t-175 -22z" />
<glyph unicode="&#x2dc;" horiz-adv-x="909" d="M737 1214q-144 0 -192 144q-21 12 -37 12q-41 0 -72 -45t-43 -108l-180 24q25 142 97 225.5t175 83.5q77 0 126.5 -40.5t70.5 -102.5q32 -12 37 -12q42 0 70.5 42.5t39.5 110.5l183 -24q-24 -141 -95 -225.5t-180 -84.5z" />
<glyph unicode="&#x2dd;" horiz-adv-x="514" d="M268 1114l-112 146l362 337l144 -184z" />
<glyph unicode="&#x300;" d="M-22 1122l-310 291l191 184l256 -340z" />
<glyph unicode="&#x301;" d="M-246 1114l-112 146l362 337l144 -184z" />
<glyph unicode="&#x302;" d="M-491 1143l-135 92l313 301h203l219 -301l-152 -92l-190 192z" />
<glyph unicode="&#x303;" d="M-164 1214q-114 0 -165 80q-4 6 -19 26.5t-21.5 27t-21 14.5t-31.5 8q-41 0 -72 -45t-42 -108l-160 24q25 143 99 226t184 83q39 0 69.5 -12.5t46 -27t33.5 -37.5q4 -6 15.5 -22.5t17 -22.5t16 -16t21 -13.5t24.5 -3.5q43 0 71.5 42.5t39.5 110.5l162 -24 q-24 -140 -94 -225t-173 -85z" />
<glyph unicode="&#x304;" d="M-629 1196l37 209h635l-37 -209h-635z" />
<glyph unicode="&#x306;" d="M-305 1171q-183 0 -276 96t-60 269h201q-11 -80 30 -130t121 -50q97 0 145.5 52.5t61.5 127.5h201q-33 -188 -142.5 -276.5t-281.5 -88.5z" />
<glyph unicode="&#x307;" d="M-104 1159q-74 0 -120 57t-34 134q11 57 60 98t106 41q79 0 124.5 -56.5t31.5 -136.5q-11 -56 -59.5 -96.5t-108.5 -40.5z" />
<glyph unicode="&#x308;" d="M-555 1126q-76 0 -121.5 56.5t-32.5 136.5q10 57 58.5 97t107.5 40q77 0 123 -56t33 -134q-11 -59 -59.5 -99.5t-108.5 -40.5zM-107 1126q-77 0 -122 56.5t-31 136.5q9 57 57.5 97t108.5 40q77 0 122 -56t31 -134q-11 -59 -58.5 -99.5t-107.5 -40.5z" />
<glyph unicode="&#x309;" d="M-304 1042l27 220q182 24 182 118q0 31 -19 47.5t-48 16.5q-67 0 -119 -58l-94 177q103 75 229 75q124 0 196.5 -79.5t51.5 -204.5q-14 -72 -60.5 -128t-134.5 -77l-30 -107h-181z" />
<glyph unicode="&#x30a;" d="M-188 1081q-117 0 -186.5 84.5t-47.5 202.5q17 94 98 161.5t179 67.5q114 0 181.5 -83.5t47.5 -198.5q-17 -97 -96.5 -165.5t-175.5 -68.5zM-180 1227q58 0 93.5 39.5t31.5 101.5q-3 35 -32 61.5t-67 26.5q-55 0 -90 -42.5t-30 -98.5q3 -41 29 -64.5t65 -23.5z" />
<glyph unicode="&#x30b;" d="M-779 1124l-120 156l419 358l142 -184zM-281 1124l-123 156l420 358l141 -184z" />
<glyph unicode="&#x30c;" d="M-379 1145l-215 301l145 88l195 -188l266 188l129 -88l-318 -301h-202z" />
<glyph unicode="&#x312;" d="M-28 1441q49 -29 74 -84t13 -118q-12 -71 -72 -121.5t-132 -50.5q-89 0 -143.5 66.5t-39.5 158.5q6 24 27 72l301 451h164z" />
<glyph unicode="&#x31b;" d="M-217 793q-107 0 -217 73l45 45q37 -22 78 -22q70 0 108.5 33t43.5 112v131h180l-23 -135q-22 -127 -81.5 -182t-133.5 -55z" />
<glyph unicode="&#x323;" d="M-398 -485q-78 0 -125.5 58.5t-33.5 137.5q10 60 61 103t111 43q80 0 127.5 -58.5t33.5 -140.5q-11 -59 -62 -101t-112 -42z" />
<glyph unicode="&#x326;" d="M-457 -272l-168 82l313 503l244 -125z" />
<glyph unicode="&#x327;" d="M-440 -532q-89 0 -156 53.5t-75 124.5l151 24q7 -21 25 -32t37 -11q37 0 69.5 29.5t38.5 69.5q8 40 -35 39q-36 -1 -98 -33l-125 75l139 197h177l-109 -115q100 16 161.5 -48.5t43.5 -168.5q-16 -86 -86.5 -145t-157.5 -59z" />
<glyph unicode="&#x328;" d="M-518 -526q-134 10 -197 92.5t-43 200.5q38 217 418 268l119 -41q-147 -62 -226 -118t-91 -130q-13 -74 71 -74q51 0 95.5 26t93.5 73l102 -179q-74 -65 -167 -96t-175 -22z" />
<glyph unicode="&#x335;" d="M-883 397l39 217h746l-39 -217h-746z" />
<glyph unicode="&#x336;" d="M-1673 465l24 135h1551l-25 -135h-1550z" />
<glyph unicode="&#x337;" d="M-772 229l39 222l780 512l-39 -226z" />
<glyph unicode="&#x338;" d="M-1250 -131l-129 80l1450 1667l129 -80z" />
<glyph unicode="&#x394;" horiz-adv-x="1665" d="M1210 1536l346 -1536h-1624l887 1536h391zM506 342h611l-162 803z" />
<glyph unicode="&#x3a9;" horiz-adv-x="1720" d="M1028 1546q182 0 319 -60.5t212.5 -162t103 -231.5t2.5 -273q-24 -132 -93 -272.5t-159 -233.5h195l-56 -313h-702l33 242q132 73 230 215t132 336q37 207 -21 320.5t-202 113.5q-158 0 -282 -130.5t-165 -357.5q-32 -180 13.5 -317.5t146.5 -192.5l-28 -229h-707l55 313 h197l12 15q-51 89 -79 235.5t1 308.5q25 142 97.5 265.5t180.5 214t254 142.5t310 52z" />
<glyph unicode="&#x3bc;" horiz-adv-x="1251" d="M846 963h366l-168 -963h-366l13 76q-117 -94 -255 -94q-71 0 -133 25l-86 -488h-264l152 867q1 1 1 3l101 574h368l-96 -551q-9 -51 13.5 -81t66.5 -30q70 0 127.5 41t67.5 94z" />
<glyph unicode="&#x3c0;" horiz-adv-x="1333" d="M43 12q72 154 148 366t106 339q-39 -6 -106 -13.5t-89 -11.5l-20 209q85 62 383 62h936l-72 -258h-137l-74 -424q-34 -200 -31 -293l-315 22q-33 56 6 281l72 414l-234 -15q-32 -159 -101 -371.5t-136 -330.5z" />
<glyph unicode="&#x1e80;" horiz-adv-x="2300" d="M1520 1769l-137 -135l-310 291l191 184zM2054 1536h408l-785 -1536h-481l-70 336l-190 -336h-481l-244 1536h395l168 -1215l255 476l-155 739h361l49 -264l141 264h377l-427 -758l84 -457z" />
<glyph unicode="&#x1e81;" horiz-adv-x="1669" d="M1117 1196l-137 -135l-310 291l191 184zM1352 963h391l-483 -965h-355l-59 559l-258 -559h-357l-137 965h377l37 -544l258 544h291l65 -539z" />
<glyph unicode="&#x1e82;" horiz-adv-x="2300" d="M1753 1925l-394 -299l-112 146l362 337zM2054 1536h408l-785 -1536h-481l-70 336l-190 -336h-481l-244 1536h395l168 -1215l255 476l-155 739h361l49 -264l141 264h377l-427 -758l84 -457z" />
<glyph unicode="&#x1e83;" horiz-adv-x="1669" d="M1350 1352l-394 -299l-112 146l362 337zM1352 963h391l-483 -965h-355l-59 559l-258 -559h-357l-137 965h377l37 -544l258 544h291l65 -539z" />
<glyph unicode="&#x1e84;" horiz-adv-x="2300" d="M1153 1638q-76 0 -122.5 56.5t-33.5 135.5q10 57 59.5 97.5t108.5 40.5q77 0 123 -56.5t33 -134.5q-11 -59 -59.5 -99t-108.5 -40zM1601 1638q-77 0 -123 56.5t-32 135.5q11 57 59.5 97.5t107.5 40.5q77 0 122.5 -56t31.5 -135q-11 -59 -58.5 -99t-107.5 -40zM2054 1536 h408l-785 -1536h-481l-70 336l-190 -336h-481l-244 1536h395l168 -1215l255 476l-155 739h361l49 -264l141 264h377l-427 -758l84 -457z" />
<glyph unicode="&#x1e85;" horiz-adv-x="1669" d="M760 1126q-76 0 -121.5 56.5t-32.5 136.5q10 57 58.5 97t107.5 40q77 0 123 -56t33 -134q-11 -59 -59.5 -99.5t-108.5 -40.5zM1208 1126q-77 0 -122 56.5t-31 136.5q9 57 57.5 97t108.5 40q77 0 122 -56t31 -134q-11 -59 -58.5 -99.5t-107.5 -40.5zM1352 963h391 l-483 -965h-355l-59 559l-258 -559h-357l-137 965h377l37 -544l258 544h291l65 -539z" />
<glyph unicode="&#x1ea0;" horiz-adv-x="1622" d="M1516 0h-414l-32 231h-591l-114 -231h-426l823 1536h469zM633 543h394l-87 623zM688 -102q80 0 127.5 -58.5t33.5 -140.5q-11 -59 -62 -101t-112 -42q-78 0 -125.5 58.5t-33.5 137.5q10 60 61 103t111 43z" />
<glyph unicode="&#x1ea1;" horiz-adv-x="1260" d="M854 963h369l-168 -963h-328l3 104q-115 -124 -294 -124q-95 0 -174.5 38.5t-131 108t-72.5 167.5t1 218q25 141 102.5 251t183.5 168t222 58q186 0 270 -132zM569 287q89 0 158 65.5t76 159.5q8 72 -35.5 121t-116.5 49q-87 0 -154.5 -65t-76.5 -158q-6 -73 36.5 -122.5 t112.5 -49.5zM504 -102q80 0 127.5 -58.5t33.5 -140.5q-11 -59 -62 -101t-112 -42q-78 0 -125.5 58.5t-33.5 137.5q10 60 61 103t111 43z" />
<glyph unicode="&#x1ea2;" horiz-adv-x="1622" d="M1067 2017q-67 0 -119 -58l-94 177q103 75 229 75q124 0 196.5 -79.5t51.5 -204.5q-14 -72 -60.5 -128t-134.5 -77l-30 -107h-181l27 220q182 24 182 118q0 31 -19 47.5t-48 16.5zM1102 0l-32 231h-591l-114 -231h-426l823 1536h469l285 -1536h-414zM633 543h394l-87 623 z" />
<glyph unicode="&#x1ea3;" horiz-adv-x="1260" d="M748 1450q-67 0 -119 -58l-94 177q103 75 229 75q124 0 196.5 -79.5t51.5 -204.5q-14 -72 -60.5 -128t-134.5 -77l-30 -107h-181l27 220q182 24 182 118q0 31 -19 47.5t-48 16.5zM854 963h369l-168 -963h-328l3 104q-115 -124 -294 -124q-95 0 -174.5 38.5t-131 108 t-72.5 167.5t1 218q25 141 102.5 251t183.5 168t222 58q186 0 270 -132zM569 287q89 0 158 65.5t76 159.5q8 72 -35.5 121t-116.5 49q-87 0 -154.5 -65t-76.5 -158q-6 -73 36.5 -122.5t112.5 -49.5z" />
<glyph unicode="&#x1ea4;" horiz-adv-x="1622" d="M1501 2396l-394 -299l-112 146l364 337zM1056 1806l-258 -192l-135 92l313 301h203l219 -301l-151 -92zM1102 0l-32 231h-591l-114 -231h-426l823 1536h469l285 -1536h-414zM633 543h394l-87 623z" />
<glyph unicode="&#x1ea5;" horiz-adv-x="1260" d="M1182 1829l-394 -299l-112 146l364 337zM737 1239l-258 -192l-135 92l313 301h203l219 -301l-151 -92zM854 963h369l-168 -963h-328l3 104q-115 -124 -294 -124q-95 0 -174.5 38.5t-131 108t-72.5 167.5t1 218q25 141 102.5 251t183.5 168t222 58q186 0 270 -132z M569 287q89 0 158 65.5t76 159.5q8 72 -35.5 121t-116.5 49q-87 0 -154.5 -65t-76.5 -158q-6 -73 36.5 -122.5t112.5 -49.5z" />
<glyph unicode="&#x1ea6;" horiz-adv-x="1622" d="M1267 2240l-137 -135l-307 291l190 184zM1056 1806l-258 -192l-135 92l314 301h202l219 -301l-151 -92zM1102 0l-32 231h-591l-114 -231h-426l823 1536h469l285 -1536h-414zM633 543h394l-87 623z" />
<glyph unicode="&#x1ea7;" horiz-adv-x="1260" d="M948 1673l-137 -135l-307 291l190 184zM737 1239l-258 -192l-135 92l314 301h202l219 -301l-151 -92zM854 963h369l-168 -963h-328l3 104q-115 -124 -294 -124q-95 0 -174.5 38.5t-131 108t-72.5 167.5t1 218q25 141 102.5 251t183.5 168t222 58q186 0 270 -132zM569 287 q89 0 158 65.5t76 159.5q8 72 -35.5 121t-116.5 49q-87 0 -154.5 -65t-76.5 -158q-6 -73 36.5 -122.5t112.5 -49.5z" />
<glyph unicode="&#x1ea8;" horiz-adv-x="1622" d="M1171 2501q-72 0 -139 -70l-95 176q102 76 228 76q125 0 197.5 -80t50.5 -205q-30 -165 -195 -205l-31 -106h-178l25 219q78 10 125.5 48.5t56.5 94.5q11 52 -45 52zM1056 1806l-258 -192l-135 92l313 301h203l219 -301l-151 -92zM1102 0l-32 231h-591l-114 -231h-426 l823 1536h469l285 -1536h-414zM633 543h394l-87 623z" />
<glyph unicode="&#x1ea9;" horiz-adv-x="1260" d="M852 1934q-72 0 -139 -70l-95 176q102 76 228 76q125 0 197.5 -80t50.5 -205q-30 -165 -195 -205l-31 -106h-178l25 219q78 10 125.5 48.5t56.5 94.5q11 52 -45 52zM737 1239l-258 -192l-135 92l313 301h203l219 -301l-151 -92zM854 963h369l-168 -963h-328l3 104 q-115 -124 -294 -124q-95 0 -174.5 38.5t-131 108t-72.5 167.5t1 218q25 141 102.5 251t183.5 168t222 58q186 0 270 -132zM569 287q89 0 158 65.5t76 159.5q8 72 -35.5 121t-116.5 49q-87 0 -154.5 -65t-76.5 -158q-6 -73 36.5 -122.5t112.5 -49.5z" />
<glyph unicode="&#x1eaa;" horiz-adv-x="1622" d="M1026 2249q-42 0 -73.5 -45t-43.5 -109l-180 25q25 142 97 225.5t175 83.5q77 0 126.5 -40.5t70.5 -102.5q30 -13 37 -13q42 0 70.5 42.5t41.5 111.5l181 -25q-24 -140 -95 -224.5t-180 -84.5q-144 0 -192 143q-21 13 -35 13zM1057 1806l-258 -192l-136 92l314 301h203 l219 -301l-152 -92zM762 1536h469l285 -1536h-414l-32 231h-591l-114 -231h-426zM633 543h394l-87 623z" />
<glyph unicode="&#x1eab;" horiz-adv-x="1260" d="M707 1682q-42 0 -73.5 -45t-43.5 -109l-180 25q25 142 97 225.5t175 83.5q77 0 126.5 -40.5t70.5 -102.5q30 -13 37 -13q42 0 70.5 42.5t41.5 111.5l181 -25q-24 -140 -95 -224.5t-180 -84.5q-144 0 -192 143q-21 13 -35 13zM738 1239l-258 -192l-136 92l314 301h203 l219 -301l-152 -92zM854 963h369l-168 -963h-328l3 104q-115 -124 -294 -124q-95 0 -174.5 38.5t-131 108t-72.5 167.5t1 218q25 141 102.5 251t183.5 168t222 58q186 0 270 -132zM569 287q89 0 158 65.5t76 159.5q8 72 -35.5 121t-116.5 49q-87 0 -154.5 -65t-76.5 -158 q-6 -73 36.5 -122.5t112.5 -49.5z" />
<glyph unicode="&#x1eac;" horiz-adv-x="1622" d="M1056 1806l-258 -192l-135 92l313 301h203l219 -301l-152 -92zM1516 0h-414l-32 231h-591l-114 -231h-426l823 1536h469zM633 543h394l-87 623zM688 -102q80 0 127.5 -58.5t33.5 -140.5q-11 -59 -62 -101t-112 -42q-78 0 -125.5 58.5t-33.5 137.5q10 60 61 103t111 43z " />
<glyph unicode="&#x1ead;" horiz-adv-x="1260" d="M737 1239l-258 -192l-135 92l313 301h203l219 -301l-152 -92zM854 963h369l-168 -963h-328l3 104q-115 -124 -294 -124q-95 0 -174.5 38.5t-131 108t-72.5 167.5t1 218q25 141 102.5 251t183.5 168t222 58q186 0 270 -132zM569 287q89 0 158 65.5t76 159.5 q8 72 -35.5 121t-116.5 49q-87 0 -154.5 -65t-76.5 -158q-6 -73 36.5 -122.5t112.5 -49.5zM504 -102q80 0 127.5 -58.5t33.5 -140.5q-11 -59 -62 -101t-112 -42q-78 0 -125.5 58.5t-33.5 137.5q10 60 61 103t111 43z" />
<glyph unicode="&#x1eae;" horiz-adv-x="1622" d="M1507 2421l-394 -299l-112 146l362 337zM1050 1683q-183 0 -276 96t-60 269h201q-11 -80 30 -130t121 -50q97 0 145.5 52.5t61.5 127.5h201q-33 -188 -142.5 -276.5t-281.5 -88.5zM1102 0l-32 231h-591l-114 -231h-426l823 1536h469l285 -1536h-414zM633 543h394l-87 623 z" />
<glyph unicode="&#x1eaf;" horiz-adv-x="1260" d="M1188 1854l-394 -299l-112 146l362 337zM731 1116q-183 0 -276 96t-60 269h201q-11 -80 30 -130t121 -50q97 0 145.5 52.5t61.5 127.5h201q-33 -188 -142.5 -276.5t-281.5 -88.5zM854 963h369l-168 -963h-328l3 104q-115 -124 -294 -124q-95 0 -174.5 38.5t-131 108 t-72.5 167.5t1 218q25 141 102.5 251t183.5 168t222 58q186 0 270 -132zM569 287q89 0 158 65.5t76 159.5q8 72 -35.5 121t-116.5 49q-87 0 -154.5 -65t-76.5 -158q-6 -73 36.5 -122.5t112.5 -49.5z" />
<glyph unicode="&#x1eb0;" horiz-adv-x="1622" d="M1274 2265l-137 -135l-310 291l191 184zM1050 1683q-183 0 -276 96t-60 269h201q-11 -80 30 -130t121 -50q97 0 145.5 52.5t61.5 127.5h201q-33 -188 -142.5 -276.5t-281.5 -88.5zM1102 0l-32 231h-591l-114 -231h-426l823 1536h469l285 -1536h-414zM633 543h394l-87 623 z" />
<glyph unicode="&#x1eb1;" horiz-adv-x="1260" d="M955 1698l-137 -135l-310 291l191 184zM731 1116q-183 0 -276 96t-60 269h201q-11 -80 30 -130t121 -50q97 0 145.5 52.5t61.5 127.5h201q-33 -188 -142.5 -276.5t-281.5 -88.5zM854 963h369l-168 -963h-328l3 104q-115 -124 -294 -124q-95 0 -174.5 38.5t-131 108 t-72.5 167.5t1 218q25 141 102.5 251t183.5 168t222 58q186 0 270 -132zM569 287q89 0 158 65.5t76 159.5q8 72 -35.5 121t-116.5 49q-87 0 -154.5 -65t-76.5 -158q-6 -73 36.5 -122.5t112.5 -49.5z" />
<glyph unicode="&#x1eb2;" horiz-adv-x="1622" d="M1155 2513q-67 0 -119 -58l-94 177q103 75 229 75q124 0 196.5 -79.5t51.5 -204.5q-14 -72 -60.5 -128t-134.5 -77l-30 -107h-181l27 220q182 24 182 118q0 31 -19 47.5t-48 16.5zM1050 1683q-183 0 -276 96t-60 269h201q-11 -80 30 -130t121 -50q97 0 145.5 52.5 t61.5 127.5h201q-33 -188 -142.5 -276.5t-281.5 -88.5zM1102 0l-32 231h-591l-114 -231h-426l823 1536h469l285 -1536h-414zM633 543h394l-87 623z" />
<glyph unicode="&#x1eb3;" horiz-adv-x="1260" d="M836 1946q-67 0 -119 -58l-94 177q103 75 229 75q124 0 196.5 -79.5t51.5 -204.5q-14 -72 -60.5 -128t-134.5 -77l-30 -107h-181l27 220q182 24 182 118q0 31 -19 47.5t-48 16.5zM731 1116q-183 0 -276 96t-60 269h201q-11 -80 30 -130t121 -50q97 0 145.5 52.5 t61.5 127.5h201q-33 -188 -142.5 -276.5t-281.5 -88.5zM854 963h369l-168 -963h-328l3 104q-115 -124 -294 -124q-95 0 -174.5 38.5t-131 108t-72.5 167.5t1 218q25 141 102.5 251t183.5 168t222 58q186 0 270 -132zM569 287q89 0 158 65.5t76 159.5q8 72 -35.5 121 t-116.5 49q-87 0 -154.5 -65t-76.5 -158q-6 -73 36.5 -122.5t112.5 -49.5z" />
<glyph unicode="&#x1eb4;" horiz-adv-x="1622" d="M1009 2274q-41 0 -72 -45t-42 -108l-160 24q25 143 99 226t184 83q39 0 69.5 -12.5t46 -27t33.5 -37.5q4 -6 15.5 -22.5t17 -22.5t16 -16t21 -13.5t24.5 -3.5q43 0 71.5 42.5t39.5 110.5l162 -24q-24 -140 -94 -225t-173 -85q-114 0 -165 80q-4 6 -19 26.5t-21.5 27 t-21 14.5t-31.5 8zM1050 1683q-183 0 -276 96t-60 269h201q-11 -80 30 -130t121 -50q97 0 145.5 52.5t61.5 127.5h201q-33 -188 -142.5 -276.5t-281.5 -88.5zM762 1536h469l285 -1536h-414l-32 231h-591l-114 -231h-426zM633 543h394l-87 623z" />
<glyph unicode="&#x1eb5;" horiz-adv-x="1260" d="M690 1707q-41 0 -72 -45t-42 -108l-160 24q25 143 99 226t184 83q39 0 69.5 -12.5t46 -27t33.5 -37.5q4 -6 15.5 -22.5t17 -22.5t16 -16t21 -13.5t24.5 -3.5q43 0 71.5 42.5t39.5 110.5l162 -24q-24 -140 -94 -225t-173 -85q-114 0 -165 80q-4 6 -19 26.5t-21.5 27 t-21 14.5t-31.5 8zM731 1116q-183 0 -276 96t-60 269h201q-11 -80 30 -130t121 -50q97 0 145.5 52.5t61.5 127.5h201q-33 -188 -142.5 -276.5t-281.5 -88.5zM854 963h369l-168 -963h-328l3 104q-115 -124 -294 -124q-95 0 -174.5 38.5t-131 108t-72.5 167.5t1 218 q25 141 102.5 251t183.5 168t222 58q186 0 270 -132zM569 287q89 0 158 65.5t76 159.5q8 72 -35.5 121t-116.5 49q-87 0 -154.5 -65t-76.5 -158q-6 -73 36.5 -122.5t112.5 -49.5z" />
<glyph unicode="&#x1eb6;" horiz-adv-x="1622" d="M1050 1683q-183 0 -276 96t-60 269h201q-11 -80 30 -130t121 -50q97 0 145.5 52.5t61.5 127.5h201q-33 -188 -142.5 -276.5t-281.5 -88.5zM1516 0h-414l-32 231h-591l-114 -231h-426l823 1536h469zM633 543h394l-87 623zM688 -102q80 0 127.5 -58.5t33.5 -140.5 q-11 -59 -62 -101t-112 -42q-78 0 -125.5 58.5t-33.5 137.5q10 60 61 103t111 43z" />
<glyph unicode="&#x1eb7;" horiz-adv-x="1260" d="M731 1116q-183 0 -276 96t-60 269h201q-11 -80 30 -130t121 -50q97 0 145.5 52.5t61.5 127.5h201q-33 -188 -142.5 -276.5t-281.5 -88.5zM854 963h369l-168 -963h-328l3 104q-115 -124 -294 -124q-95 0 -174.5 38.5t-131 108t-72.5 167.5t1 218q25 141 102.5 251 t183.5 168t222 58q186 0 270 -132zM569 287q89 0 158 65.5t76 159.5q8 72 -35.5 121t-116.5 49q-87 0 -154.5 -65t-76.5 -158q-6 -73 36.5 -122.5t112.5 -49.5zM504 -102q80 0 127.5 -58.5t33.5 -140.5q-11 -59 -62 -101t-112 -42q-78 0 -125.5 58.5t-33.5 137.5 q10 60 61 103t111 43z" />
<glyph unicode="&#x1eb8;" horiz-adv-x="1239" d="M1268 1204h-606l-48 -270h521l-60 -332h-519l-48 -270h606l-57 -332h-987l270 1536h987zM520 -102q80 0 127.5 -58.5t33.5 -140.5q-11 -59 -62 -101t-112 -42q-78 0 -125.5 58.5t-33.5 137.5q10 60 61 103t111 43z" />
<glyph unicode="&#x1eb9;" horiz-adv-x="1110" d="M633 983q224 0 344 -136t80 -368l-13 -71h-638q-5 -80 22.5 -115t91.5 -35q119 0 197 94l282 -127q-74 -118 -197 -180.5t-284 -62.5q-128 0 -226.5 40.5t-157 111.5t-80.5 166.5t-3 205.5q36 205 198 341t384 136zM637 717q-113 0 -172 -94h271q-6 43 -30.5 68.5 t-68.5 25.5zM467 -104q80 0 127.5 -58.5t33.5 -140.5q-11 -59 -62 -101t-112 -42q-78 0 -125.5 58.5t-33.5 137.5q10 60 61 103t111 43z" />
<glyph unicode="&#x1eba;" horiz-adv-x="1239" d="M900 2017q-67 0 -119 -58l-94 177q103 75 229 75q124 0 196.5 -79.5t51.5 -204.5q-14 -72 -60.5 -128t-134.5 -77l-30 -107h-181l27 220q182 24 182 118q0 31 -19 47.5t-48 16.5zM1268 1204h-606l-48 -270h521l-60 -332h-519l-48 -270h606l-57 -332h-987l270 1536h987z " />
<glyph unicode="&#x1ebb;" horiz-adv-x="1110" d="M728 1444q-67 0 -119 -58l-94 177q103 75 229 75q124 0 196.5 -79.5t51.5 -204.5q-14 -72 -60.5 -128t-134.5 -77l-30 -107h-181l27 220q182 24 182 118q0 31 -19 47.5t-48 16.5zM633 983q224 0 344 -136t80 -368l-13 -71h-638q-5 -80 22.5 -115t91.5 -35q119 0 197 94 l282 -127q-74 -118 -197 -180.5t-284 -62.5q-128 0 -226.5 40.5t-157 111.5t-80.5 166.5t-3 205.5q36 205 198 341t384 136zM637 717q-113 0 -172 -94h271q-6 43 -30.5 68.5t-68.5 25.5z" />
<glyph unicode="&#x1ebc;" horiz-adv-x="1239" d="M754 1778q-41 0 -72 -45t-42 -108l-160 24q25 143 99 226t184 83q39 0 69.5 -12.5t46 -27t33.5 -37.5q4 -6 15.5 -22.5t17 -22.5t16 -16t21 -13.5t24.5 -3.5q43 0 71.5 42.5t39.5 110.5l162 -24q-24 -140 -94 -225t-173 -85q-114 0 -165 80q-4 6 -19 26.5t-21.5 27 t-21 14.5t-31.5 8zM1268 1204h-606l-48 -270h521l-60 -332h-519l-48 -270h606l-57 -332h-987l270 1536h987z" />
<glyph unicode="&#x1ebd;" horiz-adv-x="1110" d="M582 1205q-41 0 -72 -45t-42 -108l-160 24q25 143 99 226t184 83q39 0 69.5 -12.5t46 -27t33.5 -37.5q4 -6 15.5 -22.5t17 -22.5t16 -16t21 -13.5t24.5 -3.5q43 0 71.5 42.5t39.5 110.5l162 -24q-24 -140 -94 -225t-173 -85q-114 0 -165 80q-4 6 -19 26.5t-21.5 27 t-21 14.5t-31.5 8zM633 983q224 0 344 -136t80 -368l-13 -71h-638q-5 -80 22.5 -115t91.5 -35q119 0 197 94l282 -127q-74 -118 -197 -180.5t-284 -62.5q-128 0 -226.5 40.5t-157 111.5t-80.5 166.5t-3 205.5q36 205 198 341t384 136zM637 717q-113 0 -172 -94h271 q-6 43 -30.5 68.5t-68.5 25.5z" />
<glyph unicode="&#x1ebe;" horiz-adv-x="1239" d="M1334 2396l-394 -299l-112 146l364 337zM889 1806l-258 -192l-135 92l313 301h203l219 -301l-151 -92zM70 0l270 1536h987l-59 -332h-606l-48 -270h521l-60 -332h-519l-48 -270h606l-57 -332h-987z" />
<glyph unicode="&#x1ebf;" horiz-adv-x="1110" d="M1162 1823l-394 -299l-112 146l364 337zM717 1233l-258 -192l-135 92l313 301h203l219 -301l-151 -92zM633 983q224 0 344 -136t80 -368l-13 -71h-638q-5 -80 22.5 -115t91.5 -35q119 0 197 94l282 -127q-74 -118 -197 -180.5t-284 -62.5q-128 0 -226.5 40.5t-157 111.5 t-80.5 166.5t-3 205.5q36 205 198 341t384 136zM637 717q-113 0 -172 -94h271q-6 43 -30.5 68.5t-68.5 25.5z" />
<glyph unicode="&#x1ec0;" horiz-adv-x="1239" d="M1100 2240l-137 -135l-307 291l190 184zM889 1806l-258 -192l-135 92l314 301h202l219 -301l-151 -92zM1268 1204h-606l-48 -270h521l-60 -332h-519l-48 -270h606l-57 -332h-987l270 1536h987z" />
<glyph unicode="&#x1ec1;" horiz-adv-x="1110" d="M928 1667l-137 -135l-307 291l190 184zM717 1233l-258 -192l-135 92l314 301h202l219 -301l-151 -92zM633 983q224 0 344 -136t80 -368l-13 -71h-638q-5 -80 22.5 -115t91.5 -35q119 0 197 94l282 -127q-74 -118 -197 -180.5t-284 -62.5q-128 0 -226.5 40.5t-157 111.5 t-80.5 166.5t-3 205.5q36 205 198 341t384 136zM637 717q-113 0 -172 -94h271q-6 43 -30.5 68.5t-68.5 25.5z" />
<glyph unicode="&#x1ec2;" horiz-adv-x="1239" d="M1004 2501q-72 0 -139 -70l-95 176q102 76 228 76q125 0 197.5 -80t50.5 -205q-30 -165 -195 -205l-31 -106h-178l25 219q78 10 125.5 48.5t56.5 94.5q11 52 -45 52zM889 1806l-258 -192l-135 92l313 301h203l219 -301l-151 -92zM1268 1204h-606l-48 -270h521l-60 -332 h-519l-48 -270h606l-57 -332h-987l270 1536h987z" />
<glyph unicode="&#x1ec3;" horiz-adv-x="1110" d="M826 2110q125 0 197.5 -80t50.5 -205q-30 -165 -195 -205l-31 -106h-178l25 219q78 10 125.5 48.5t56.5 94.5q11 52 -45 52q-72 0 -139 -70l-95 176q102 76 228 76zM908 1041l-191 192l-258 -192l-135 92l313 301h203l219 -301zM633 983q224 0 344 -136t80 -368l-13 -71 h-638q-5 -80 22.5 -115t91.5 -35q119 0 197 94l282 -127q-74 -118 -197 -180.5t-284 -62.5q-128 0 -226.5 40.5t-157 111.5t-80.5 166.5t-3 205.5q36 205 198 341t384 136zM637 717q-113 0 -172 -94h271q-6 43 -30.5 68.5t-68.5 25.5z" />
<glyph unicode="&#x1ec4;" horiz-adv-x="1239" d="M859 2249q-42 0 -73.5 -45t-43.5 -109l-180 25q25 142 97 225.5t175 83.5q77 0 126.5 -40.5t70.5 -102.5q30 -13 37 -13q42 0 70.5 42.5t41.5 111.5l181 -25q-24 -140 -95 -224.5t-180 -84.5q-144 0 -192 143q-21 13 -35 13zM890 1806l-258 -192l-136 92l314 301h203 l219 -301l-152 -92zM70 0l270 1536h987l-59 -332h-606l-48 -270h521l-60 -332h-519l-48 -270h606l-57 -332h-987z" />
<glyph unicode="&#x1ec5;" horiz-adv-x="1110" d="M1008 1854l181 -25q-24 -140 -95 -224.5t-180 -84.5q-144 0 -192 143q-21 13 -35 13q-42 0 -73.5 -45t-43.5 -109l-180 25q25 142 97 225.5t175 83.5q77 0 126.5 -40.5t70.5 -102.5q30 -13 37 -13q42 0 70.5 42.5t41.5 111.5zM908 1041l-190 192l-258 -192l-136 92 l314 301h203l219 -301zM633 983q224 0 344 -136t80 -368l-13 -71h-638q-5 -80 22.5 -115t91.5 -35q119 0 197 94l282 -127q-74 -118 -197 -180.5t-284 -62.5q-128 0 -226.5 40.5t-157 111.5t-80.5 166.5t-3 205.5q36 205 198 341t384 136zM637 717q-113 0 -172 -94h271 q-6 43 -30.5 68.5t-68.5 25.5z" />
<glyph unicode="&#x1ec6;" horiz-adv-x="1239" d="M889 1806l-258 -192l-135 92l313 301h203l219 -301l-152 -92zM1268 1204h-606l-48 -270h521l-60 -332h-519l-48 -270h606l-57 -332h-987l270 1536h987zM520 -102q80 0 127.5 -58.5t33.5 -140.5q-11 -59 -62 -101t-112 -42q-78 0 -125.5 58.5t-33.5 137.5q10 60 61 103 t111 43z" />
<glyph unicode="&#x1ec7;" horiz-adv-x="1110" d="M717 1233l-258 -192l-135 92l313 301h203l219 -301l-152 -92zM633 983q224 0 344 -136t80 -368l-13 -71h-638q-5 -80 22.5 -115t91.5 -35q119 0 197 94l282 -127q-74 -118 -197 -180.5t-284 -62.5q-128 0 -226.5 40.5t-157 111.5t-80.5 166.5t-3 205.5q36 205 198 341 t384 136zM637 717q-113 0 -172 -94h271q-6 43 -30.5 68.5t-68.5 25.5zM467 -104q80 0 127.5 -58.5t33.5 -140.5q-11 -59 -62 -101t-112 -42q-78 0 -125.5 58.5t-33.5 137.5q10 60 61 103t111 43z" />
<glyph unicode="&#x1ec8;" horiz-adv-x="688" d="M452 1615l27 220q182 24 182 118q0 31 -19 47.5t-48 16.5q-67 0 -119 -58l-94 177q103 75 229 75q124 0 196.5 -79.5t51.5 -204.5q-14 -72 -60.5 -128t-134.5 -77l-30 -107h-181zM70 0l270 1536h381l-270 -1536h-381z" />
<glyph unicode="&#x1ec9;" horiz-adv-x="610" d="M313 1042l27 220q182 24 182 118q0 31 -19 47.5t-48 16.5q-67 0 -119 -58l-94 177q103 75 229 75q124 0 196.5 -79.5t51.5 -204.5q-14 -72 -60.5 -128t-134.5 -77l-30 -107h-181zM37 0l168 963h368l-167 -963h-369z" />
<glyph unicode="&#x1eca;" horiz-adv-x="688" d="M70 0l270 1536h381l-270 -1536h-381zM202 -444q-78 0 -125.5 58.5t-33.5 137.5q10 60 61 103t111 43q80 0 127.5 -58.5t33.5 -140.5q-11 -59 -62 -101t-112 -42z" />
<glyph unicode="&#x1ecb;" horiz-adv-x="608" d="M440 1118q-87 0 -140 65.5t-38 155.5q13 70 71 118t130 48q89 0 142 -64.5t36 -154.5q-12 -69 -70.5 -118.5t-130.5 -49.5zM37 0l168 963h366l-168 -963h-366zM100 -485q-78 0 -125.5 58.5t-33.5 137.5q10 60 61 103t111 43q80 0 127.5 -58.5t33.5 -140.5 q-11 -59 -62 -101t-112 -42z" />
<glyph unicode="&#x1ecc;" horiz-adv-x="1700" d="M784 -20q-165 0 -304 64.5t-228 173.5t-126.5 260t-8.5 317q36 208 169 383t327 276.5t403 101.5q165 0 304 -64.5t228 -173.5t126.5 -260t8.5 -317q-36 -208 -169 -383t-327 -276.5t-403 -101.5zM817 344q187 0 325.5 128.5t166.5 322.5q24 172 -65 284.5t-259 112.5 q-189 0 -327.5 -128.5t-165.5 -322.5q-24 -173 65 -285t260 -112zM710 -444q-78 0 -125.5 58.5t-33.5 137.5q10 60 61 103t111 43q80 0 127.5 -58.5t33.5 -140.5q-11 -59 -62 -101t-112 -42z" />
<glyph unicode="&#x1ecd;" horiz-adv-x="1130" d="M500 -18q-154 0 -266.5 69.5t-161 190t-23.5 266.5q36 202 200 337.5t382 135.5q115 0 208.5 -41t153 -111t83.5 -167.5t5 -206.5q-36 -202 -200 -337.5t-381 -135.5zM508 295q83 0 150 59t83 154q14 74 -20 118t-100 44q-84 0 -150.5 -59t-83.5 -156 q-13 -77 20.5 -118.5t100.5 -41.5zM425 -444q-78 0 -125.5 58.5t-33.5 137.5q10 60 61 103t111 43q80 0 127.5 -58.5t33.5 -140.5q-11 -59 -62 -101t-112 -42z" />
<glyph unicode="&#x1ece;" horiz-adv-x="1700" d="M960 1615l27 220q182 24 182 118q0 31 -19 47.5t-48 16.5q-67 0 -119 -58l-94 177q103 75 229 75q124 0 196.5 -79.5t51.5 -204.5q-14 -72 -60.5 -128t-134.5 -77l-30 -107h-181zM784 -20q-165 0 -304 64.5t-228 173.5t-126.5 260t-8.5 317q36 208 169 383t327 276.5 t403 101.5q165 0 304 -64.5t228 -173.5t126.5 -260t8.5 -317q-36 -208 -169 -383t-327 -276.5t-403 -101.5zM817 344q187 0 325.5 128.5t166.5 322.5q24 172 -65 284.5t-259 112.5q-189 0 -327.5 -128.5t-165.5 -322.5q-24 -173 65 -285t260 -112z" />
<glyph unicode="&#x1ecf;" horiz-adv-x="1130" d="M573 1040l27 220q182 24 182 118q0 31 -19 47.5t-48 16.5q-67 0 -119 -58l-94 177q103 75 229 75q124 0 196.5 -79.5t51.5 -204.5q-14 -72 -60.5 -128t-134.5 -77l-30 -107h-181zM500 -18q-154 0 -266.5 69.5t-161 190t-23.5 266.5q36 202 200 337.5t382 135.5 q115 0 208.5 -41t153 -111t83.5 -167.5t5 -206.5q-36 -202 -200 -337.5t-381 -135.5zM508 295q83 0 150 59t83 154q14 74 -20 118t-100 44q-84 0 -150.5 -59t-83.5 -156q-13 -77 20.5 -118.5t100.5 -41.5z" />
<glyph unicode="&#x1ed0;" horiz-adv-x="1700" d="M1142 2097l-112 146l364 337l142 -184zM833 1614l-135 92l313 301h203l219 -301l-151 -92l-191 192zM784 -20q-165 0 -304 64.5t-228 173.5t-126.5 260t-8.5 317q36 208 169 383t327 276.5t403 101.5q165 0 304 -64.5t228 -173.5t126.5 -260t8.5 -317q-36 -208 -169 -383 t-327 -276.5t-403 -101.5zM817 344q187 0 325.5 128.5t166.5 322.5q24 172 -65 284.5t-259 112.5q-189 0 -327.5 -128.5t-165.5 -322.5q-24 -173 65 -285t260 -112z" />
<glyph unicode="&#x1ed1;" horiz-adv-x="1130" d="M755 1522l-112 146l364 337l142 -184zM446 1039l-135 92l313 301h203l219 -301l-151 -92l-191 192zM500 -18q-154 0 -266.5 69.5t-161 190t-23.5 266.5q36 202 200 337.5t382 135.5q115 0 208.5 -41t153 -111t83.5 -167.5t5 -206.5q-36 -202 -200 -337.5t-381 -135.5z M508 295q83 0 150 59t83 154q14 74 -20 118t-100 44q-84 0 -150.5 -59t-83.5 -156q-13 -77 20.5 -118.5t100.5 -41.5z" />
<glyph unicode="&#x1ed2;" horiz-adv-x="1700" d="M1165 2105l-307 291l190 184l254 -340zM833 1614l-135 92l314 301h202l219 -301l-151 -92l-191 192zM784 -20q-165 0 -304 64.5t-228 173.5t-126.5 260t-8.5 317q36 208 169 383t327 276.5t403 101.5q165 0 304 -64.5t228 -173.5t126.5 -260t8.5 -317q-36 -208 -169 -383 t-327 -276.5t-403 -101.5zM817 344q187 0 325.5 128.5t166.5 322.5q24 172 -65 284.5t-259 112.5q-189 0 -327.5 -128.5t-165.5 -322.5q-24 -173 65 -285t260 -112z" />
<glyph unicode="&#x1ed3;" horiz-adv-x="1130" d="M778 1530l-307 291l190 184l254 -340zM446 1039l-135 92l314 301h202l219 -301l-151 -92l-191 192zM500 -18q-154 0 -266.5 69.5t-161 190t-23.5 266.5q36 202 200 337.5t382 135.5q115 0 208.5 -41t153 -111t83.5 -167.5t5 -206.5q-36 -202 -200 -337.5t-381 -135.5z M508 295q83 0 150 59t83 154q14 74 -20 118t-100 44q-84 0 -150.5 -59t-83.5 -156q-13 -77 20.5 -118.5t100.5 -41.5z" />
<glyph unicode="&#x1ed4;" horiz-adv-x="1700" d="M1044 2087l25 219q78 10 125.5 48.5t56.5 94.5q11 52 -45 52q-72 0 -139 -70l-95 176q102 76 228 76q125 0 197.5 -80t50.5 -205q-30 -165 -195 -205l-31 -106h-178zM833 1614l-135 92l313 301h203l219 -301l-151 -92l-191 192zM784 -20q-165 0 -304 64.5t-228 173.5 t-126.5 260t-8.5 317q36 208 169 383t327 276.5t403 101.5q165 0 304 -64.5t228 -173.5t126.5 -260t8.5 -317q-36 -208 -169 -383t-327 -276.5t-403 -101.5zM817 344q187 0 325.5 128.5t166.5 322.5q24 172 -65 284.5t-259 112.5q-189 0 -327.5 -128.5t-165.5 -322.5 q-24 -173 65 -285t260 -112z" />
<glyph unicode="&#x1ed5;" horiz-adv-x="1130" d="M657 1512l25 219q78 10 125.5 48.5t56.5 94.5q11 52 -45 52q-72 0 -139 -70l-95 176q102 76 228 76q125 0 197.5 -80t50.5 -205q-30 -165 -195 -205l-31 -106h-178zM446 1039l-135 92l313 301h203l219 -301l-151 -92l-191 192zM500 -18q-154 0 -266.5 69.5t-161 190 t-23.5 266.5q36 202 200 337.5t382 135.5q115 0 208.5 -41t153 -111t83.5 -167.5t5 -206.5q-36 -202 -200 -337.5t-381 -135.5zM508 295q83 0 150 59t83 154q14 74 -20 118t-100 44q-84 0 -150.5 -59t-83.5 -156q-13 -77 20.5 -118.5t100.5 -41.5z" />
<glyph unicode="&#x1ed6;" horiz-adv-x="1700" d="M1288 2093q-144 0 -192 143q-21 13 -35 13q-42 0 -73.5 -45t-43.5 -109l-180 25q25 142 97 225.5t175 83.5q77 0 126.5 -40.5t70.5 -102.5q30 -13 37 -13q42 0 70.5 42.5t41.5 111.5l181 -25q-24 -140 -95 -224.5t-180 -84.5zM834 1614l-136 92l314 301h203l219 -301 l-152 -92l-190 192zM784 -20q-165 0 -304 64.5t-228 173.5t-126.5 260t-8.5 317q36 208 169 383t327 276.5t403 101.5q165 0 304 -64.5t228 -173.5t126.5 -260t8.5 -317q-36 -208 -169 -383t-327 -276.5t-403 -101.5zM817 344q187 0 325.5 128.5t166.5 322.5 q24 172 -65 284.5t-259 112.5q-189 0 -327.5 -128.5t-165.5 -322.5q-24 -173 65 -285t260 -112z" />
<glyph unicode="&#x1ed7;" horiz-adv-x="1130" d="M901 1518q-144 0 -192 143q-21 13 -35 13q-42 0 -73.5 -45t-43.5 -109l-180 25q25 142 97 225.5t175 83.5q77 0 126.5 -40.5t70.5 -102.5q30 -13 37 -13q42 0 70.5 42.5t41.5 111.5l181 -25q-24 -140 -95 -224.5t-180 -84.5zM447 1039l-136 92l314 301h203l219 -301 l-152 -92l-190 192zM500 -18q-154 0 -266.5 69.5t-161 190t-23.5 266.5q36 202 200 337.5t382 135.5q115 0 208.5 -41t153 -111t83.5 -167.5t5 -206.5q-36 -202 -200 -337.5t-381 -135.5zM508 295q83 0 150 59t83 154q14 74 -20 118t-100 44q-84 0 -150.5 -59t-83.5 -156 q-13 -77 20.5 -118.5t100.5 -41.5z" />
<glyph unicode="&#x1ed8;" horiz-adv-x="1700" d="M833 1614l-135 92l313 301h203l219 -301l-152 -92l-190 192zM784 -20q-165 0 -304 64.5t-228 173.5t-126.5 260t-8.5 317q36 208 169 383t327 276.5t403 101.5q165 0 304 -64.5t228 -173.5t126.5 -260t8.5 -317q-36 -208 -169 -383t-327 -276.5t-403 -101.5zM817 344 q187 0 325.5 128.5t166.5 322.5q24 172 -65 284.5t-259 112.5q-189 0 -327.5 -128.5t-165.5 -322.5q-24 -173 65 -285t260 -112zM710 -444q-78 0 -125.5 58.5t-33.5 137.5q10 60 61 103t111 43q80 0 127.5 -58.5t33.5 -140.5q-11 -59 -62 -101t-112 -42z" />
<glyph unicode="&#x1ed9;" horiz-adv-x="1130" d="M446 1039l-135 92l313 301h203l219 -301l-152 -92l-190 192zM500 -18q-154 0 -266.5 69.5t-161 190t-23.5 266.5q36 202 200 337.5t382 135.5q115 0 208.5 -41t153 -111t83.5 -167.5t5 -206.5q-36 -202 -200 -337.5t-381 -135.5zM508 295q83 0 150 59t83 154 q14 74 -20 118t-100 44q-84 0 -150.5 -59t-83.5 -156q-13 -77 20.5 -118.5t100.5 -41.5zM425 -444q-78 0 -125.5 58.5t-33.5 137.5q10 60 61 103t111 43q80 0 127.5 -58.5t33.5 -140.5q-11 -59 -62 -101t-112 -42z" />
<glyph unicode="&#x1eda;" horiz-adv-x="1700" d="M1454 1925l-394 -299l-112 146l362 337zM1727 1531h180l-23 -135q-22 -127 -81.5 -182t-133.5 -55q-18 0 -27 1q81 -191 41 -419q-36 -208 -169 -383t-327 -276.5t-403 -101.5q-165 0 -304 64.5t-228 173.5t-126.5 260t-8.5 317q36 208 169 383t327 276.5t403 101.5 q187 0 337 -80t239 -221q62 4 96 37.5t39 107.5v131zM1309 795q24 172 -65 284.5t-259 112.5q-189 0 -327.5 -128.5t-165.5 -322.5q-24 -173 65 -285t260 -112q187 0 325.5 128.5t166.5 322.5z" />
<glyph unicode="&#x1edb;" horiz-adv-x="1130" d="M1067 1350l-394 -299l-112 146l362 337zM1139 1056h180l-23 -135q-22 -127 -81.5 -182t-133.5 -55h-11q33 -108 11 -229q-36 -202 -200 -337.5t-381 -135.5q-154 0 -266.5 69.5t-161 190t-23.5 266.5q36 202 200 337.5t382 135.5q132 0 234.5 -52.5t160.5 -145.5 q105 16 113 142v131zM741 508q14 74 -20 118t-100 44q-84 0 -150.5 -59t-83.5 -156q-13 -77 20.5 -118.5t100.5 -41.5q83 0 150 59t83 154z" />
<glyph unicode="&#x1edc;" horiz-adv-x="1700" d="M1221 1769l-137 -135l-310 291l191 184zM1727 1531h180l-23 -135q-22 -127 -81.5 -182t-133.5 -55q-18 0 -27 1q81 -191 41 -419q-36 -208 -169 -383t-327 -276.5t-403 -101.5q-165 0 -304 64.5t-228 173.5t-126.5 260t-8.5 317q36 208 169 383t327 276.5t403 101.5 q187 0 337 -80t239 -221q62 4 96 37.5t39 107.5v131zM1309 795q24 172 -65 284.5t-259 112.5q-189 0 -327.5 -128.5t-165.5 -322.5q-24 -173 65 -285t260 -112q187 0 325.5 128.5t166.5 322.5z" />
<glyph unicode="&#x1edd;" horiz-adv-x="1130" d="M834 1194l-137 -135l-310 291l191 184zM1139 1056h180l-23 -135q-22 -127 -81.5 -182t-133.5 -55h-11q33 -108 11 -229q-36 -202 -200 -337.5t-381 -135.5q-154 0 -266.5 69.5t-161 190t-23.5 266.5q36 202 200 337.5t382 135.5q132 0 234.5 -52.5t160.5 -145.5 q105 16 113 142v131zM741 508q14 74 -20 118t-100 44q-84 0 -150.5 -59t-83.5 -156q-13 -77 20.5 -118.5t100.5 -41.5q83 0 150 59t83 154z" />
<glyph unicode="&#x1ede;" horiz-adv-x="1700" d="M1102 2017q-67 0 -119 -58l-94 177q103 75 229 75q124 0 196.5 -79.5t51.5 -204.5q-14 -72 -60.5 -128t-134.5 -77l-30 -107h-181l27 220q182 24 182 118q0 31 -19 47.5t-48 16.5zM1727 1531h180l-23 -135q-22 -127 -81.5 -182t-133.5 -55q-18 0 -27 1q81 -191 41 -419 q-36 -208 -169 -383t-327 -276.5t-403 -101.5q-165 0 -304 64.5t-228 173.5t-126.5 260t-8.5 317q36 208 169 383t327 276.5t403 101.5q187 0 337 -80t239 -221q62 4 96 37.5t39 107.5v131zM1309 795q24 172 -65 284.5t-259 112.5q-189 0 -327.5 -128.5t-165.5 -322.5 q-24 -173 65 -285t260 -112q187 0 325.5 128.5t166.5 322.5z" />
<glyph unicode="&#x1edf;" horiz-adv-x="1130" d="M715 1442q-67 0 -119 -58l-94 177q103 75 229 75q124 0 196.5 -79.5t51.5 -204.5q-14 -72 -60.5 -128t-134.5 -77l-30 -107h-181l27 220q182 24 182 118q0 31 -19 47.5t-48 16.5zM1139 1056h180l-23 -135q-22 -127 -81.5 -182t-133.5 -55h-11q33 -108 11 -229 q-36 -202 -200 -337.5t-381 -135.5q-154 0 -266.5 69.5t-161 190t-23.5 266.5q36 202 200 337.5t382 135.5q132 0 234.5 -52.5t160.5 -145.5q105 16 113 142v131zM741 508q14 74 -20 118t-100 44q-84 0 -150.5 -59t-83.5 -156q-13 -77 20.5 -118.5t100.5 -41.5q83 0 150 59 t83 154z" />
<glyph unicode="&#x1ee0;" horiz-adv-x="1700" d="M956 1778q-41 0 -72 -45t-42 -108l-160 24q25 143 99 226t184 83q39 0 69.5 -12.5t46 -27t33.5 -37.5q4 -6 15.5 -22.5t17 -22.5t16 -16t21 -13.5t24.5 -3.5q43 0 71.5 42.5t39.5 110.5l162 -24q-24 -140 -94 -225t-173 -85q-114 0 -165 80q-4 6 -19 26.5t-21.5 27 t-21 14.5t-31.5 8zM1727 1531h180l-23 -135q-22 -127 -81.5 -182t-133.5 -55q-18 0 -27 1q81 -191 41 -419q-36 -208 -169 -383t-327 -276.5t-403 -101.5q-165 0 -304 64.5t-228 173.5t-126.5 260t-8.5 317q36 208 169 383t327 276.5t403 101.5q187 0 337 -80t239 -221 q62 4 96 37.5t39 107.5v131zM1309 795q24 172 -65 284.5t-259 112.5q-189 0 -327.5 -128.5t-165.5 -322.5q-24 -173 65 -285t260 -112q187 0 325.5 128.5t166.5 322.5z" />
<glyph unicode="&#x1ee1;" horiz-adv-x="1130" d="M569 1203q-41 0 -72 -45t-42 -108l-160 24q25 143 99 226t184 83q39 0 69.5 -12.5t46 -27t33.5 -37.5q4 -6 15.5 -22.5t17 -22.5t16 -16t21 -13.5t24.5 -3.5q43 0 71.5 42.5t39.5 110.5l162 -24q-24 -140 -94 -225t-173 -85q-114 0 -165 80q-4 6 -19 26.5t-21.5 27 t-21 14.5t-31.5 8zM1139 1056h180l-23 -135q-22 -127 -81.5 -182t-133.5 -55h-11q33 -108 11 -229q-36 -202 -200 -337.5t-381 -135.5q-154 0 -266.5 69.5t-161 190t-23.5 266.5q36 202 200 337.5t382 135.5q132 0 234.5 -52.5t160.5 -145.5q105 16 113 142v131zM741 508 q14 74 -20 118t-100 44q-84 0 -150.5 -59t-83.5 -156q-13 -77 20.5 -118.5t100.5 -41.5q83 0 150 59t83 154z" />
<glyph unicode="&#x1ee2;" horiz-adv-x="1700" d="M1727 1531h180l-23 -135q-22 -127 -81.5 -182t-133.5 -55q-18 0 -27 1q81 -191 41 -419q-36 -208 -169 -383t-327 -276.5t-403 -101.5q-165 0 -304 64.5t-228 173.5t-126.5 260t-8.5 317q36 208 169 383t327 276.5t403 101.5q187 0 337 -80t239 -221q62 4 96 37.5 t39 107.5v131zM1309 795q24 172 -65 284.5t-259 112.5q-189 0 -327.5 -128.5t-165.5 -322.5q-24 -173 65 -285t260 -112q187 0 325.5 128.5t166.5 322.5zM723 -102q80 0 127.5 -58.5t33.5 -140.5q-11 -59 -62 -101t-112 -42q-78 0 -125.5 58.5t-33.5 137.5q10 60 61 103 t111 43z" />
<glyph unicode="&#x1ee3;" horiz-adv-x="1130" d="M1139 1056h180l-23 -135q-22 -127 -81.5 -182t-133.5 -55h-11q33 -108 11 -229q-36 -202 -200 -337.5t-381 -135.5q-154 0 -266.5 69.5t-161 190t-23.5 266.5q36 202 200 337.5t382 135.5q132 0 234.5 -52.5t160.5 -145.5q105 16 113 142v131zM741 508q14 74 -20 118 t-100 44q-84 0 -150.5 -59t-83.5 -156q-13 -77 20.5 -118.5t100.5 -41.5q83 0 150 59t83 154zM438 -102q80 0 127.5 -58.5t33.5 -140.5q-11 -59 -62 -101t-112 -42q-78 0 -125.5 58.5t-33.5 137.5q10 60 61 103t111 43z" />
<glyph unicode="&#x1ee4;" horiz-adv-x="1556" d="M711 -20q-140 0 -257.5 42t-195 116t-112 179t-13.5 226l176 993h381l-168 -946q-22 -131 35.5 -205t165.5 -74q126 0 227 85t125 218l162 922h381l-180 -1018q-28 -160 -134 -283.5t-260.5 -189t-332.5 -65.5zM636 -444q-78 0 -125.5 58.5t-33.5 137.5q10 60 61 103 t111 43q80 0 127.5 -58.5t33.5 -140.5q-11 -59 -62 -101t-112 -42z" />
<glyph unicode="&#x1ee5;" horiz-adv-x="1171" d="M516 -20q-244 0 -357 112.5t-81 298.5l100 572h369l-101 -570q-10 -63 10.5 -88.5t65.5 -25.5q63 0 111.5 37t60.5 102l94 545h369l-104 -596q-33 -184 -170 -285.5t-367 -101.5zM444 -444q-78 0 -125.5 58.5t-33.5 137.5q10 60 61 103t111 43q80 0 127.5 -58.5 t33.5 -140.5q-11 -59 -62 -101t-112 -42z" />
<glyph unicode="&#x1ee6;" horiz-adv-x="1556" d="M887 1615l27 220q182 24 182 118q0 31 -19 47.5t-48 16.5q-67 0 -119 -58l-94 177q103 75 229 75q124 0 196.5 -79.5t51.5 -204.5q-14 -72 -60.5 -128t-134.5 -77l-30 -107h-181zM711 -20q-140 0 -257.5 42t-195 116t-112 179t-13.5 226l176 993h381l-168 -946 q-22 -131 35.5 -205t165.5 -74q126 0 227 85t125 218l162 922h381l-180 -1018q-28 -160 -134 -283.5t-260.5 -189t-332.5 -65.5z" />
<glyph unicode="&#x1ee7;" horiz-adv-x="1171" d="M592 1042l27 220q182 24 182 118q0 31 -19 47.5t-48 16.5q-67 0 -119 -58l-94 177q103 75 229 75q124 0 196.5 -79.5t51.5 -204.5q-14 -72 -60.5 -128t-134.5 -77l-30 -107h-181zM516 -20q-244 0 -357 112.5t-81 298.5l100 572h369l-101 -570q-10 -63 10.5 -88.5 t65.5 -25.5q63 0 111.5 37t60.5 102l94 545h369l-104 -596q-33 -184 -170 -285.5t-367 -101.5z" />
<glyph unicode="&#x1ee8;" horiz-adv-x="1556" d="M1381 1925l-394 -299l-112 146l362 337zM1762 1738h180l-23 -135q-22 -127 -81.5 -182t-133.5 -55q-56 0 -112 21l-154 -869q-28 -160 -134 -283.5t-260.5 -189t-332.5 -65.5q-140 0 -257.5 42t-195 116t-112 179t-13.5 226l176 993h381l-168 -946q-22 -131 35.5 -205 t165.5 -74q126 0 227 85t125 218l162 922h381l-13 -74h5q70 0 108.5 33t43.5 112v131z" />
<glyph unicode="&#x1ee9;" horiz-adv-x="1171" d="M1086 1352l-394 -299l-112 146l362 337zM1234 962h180l-23 -135q-22 -127 -81.5 -182t-133.5 -55q-38 0 -82 11l-41 -234q-33 -184 -170 -285.5t-367 -101.5q-244 0 -357 112.5t-81 298.5l100 572h369l-101 -570q-10 -63 10.5 -88.5t65.5 -25.5q63 0 111.5 37t60.5 102 l94 545h369l-48 -276q117 11 125 144v131z" />
<glyph unicode="&#x1eea;" horiz-adv-x="1556" d="M1148 1769l-137 -135l-310 291l191 184zM1762 1738h180l-23 -135q-22 -127 -81.5 -182t-133.5 -55q-56 0 -112 21l-154 -869q-28 -160 -134 -283.5t-260.5 -189t-332.5 -65.5q-140 0 -257.5 42t-195 116t-112 179t-13.5 226l176 993h381l-168 -946q-22 -131 35.5 -205 t165.5 -74q126 0 227 85t125 218l162 922h381l-13 -74h5q70 0 108.5 33t43.5 112v131z" />
<glyph unicode="&#x1eeb;" horiz-adv-x="1171" d="M853 1196l-137 -135l-310 291l191 184zM1234 962h180l-23 -135q-22 -127 -81.5 -182t-133.5 -55q-38 0 -82 11l-41 -234q-33 -184 -170 -285.5t-367 -101.5q-244 0 -357 112.5t-81 298.5l100 572h369l-101 -570q-10 -63 10.5 -88.5t65.5 -25.5q63 0 111.5 37t60.5 102 l94 545h369l-48 -276q117 11 125 144v131z" />
<glyph unicode="&#x1eec;" horiz-adv-x="1556" d="M1029 2017q-67 0 -119 -58l-94 177q103 75 229 75q124 0 196.5 -79.5t51.5 -204.5q-14 -72 -60.5 -128t-134.5 -77l-30 -107h-181l27 220q182 24 182 118q0 31 -19 47.5t-48 16.5zM1762 1738h180l-23 -135q-22 -127 -81.5 -182t-133.5 -55q-56 0 -112 21l-154 -869 q-28 -160 -134 -283.5t-260.5 -189t-332.5 -65.5q-140 0 -257.5 42t-195 116t-112 179t-13.5 226l176 993h381l-168 -946q-22 -131 35.5 -205t165.5 -74q126 0 227 85t125 218l162 922h381l-13 -74h5q70 0 108.5 33t43.5 112v131z" />
<glyph unicode="&#x1eed;" horiz-adv-x="1171" d="M734 1444q-67 0 -119 -58l-94 177q103 75 229 75q124 0 196.5 -79.5t51.5 -204.5q-14 -72 -60.5 -128t-134.5 -77l-30 -107h-181l27 220q182 24 182 118q0 31 -19 47.5t-48 16.5zM1234 962h180l-23 -135q-22 -127 -81.5 -182t-133.5 -55q-38 0 -82 11l-41 -234 q-33 -184 -170 -285.5t-367 -101.5q-244 0 -357 112.5t-81 298.5l100 572h369l-101 -570q-10 -63 10.5 -88.5t65.5 -25.5q63 0 111.5 37t60.5 102l94 545h369l-48 -276q117 11 125 144v131z" />
<glyph unicode="&#x1eee;" horiz-adv-x="1556" d="M883 1778q-41 0 -72 -45t-42 -108l-160 24q25 143 99 226t184 83q39 0 69.5 -12.5t46 -27t33.5 -37.5q4 -6 15.5 -22.5t17 -22.5t16 -16t21 -13.5t24.5 -3.5q43 0 71.5 42.5t39.5 110.5l162 -24q-24 -140 -94 -225t-173 -85q-114 0 -165 80q-4 6 -19 26.5t-21.5 27 t-21 14.5t-31.5 8zM1762 1738h180l-23 -135q-22 -127 -81.5 -182t-133.5 -55q-56 0 -112 21l-154 -869q-28 -160 -134 -283.5t-260.5 -189t-332.5 -65.5q-140 0 -257.5 42t-195 116t-112 179t-13.5 226l176 993h381l-168 -946q-22 -131 35.5 -205t165.5 -74q126 0 227 85 t125 218l162 922h381l-13 -74h5q70 0 108.5 33t43.5 112v131z" />
<glyph unicode="&#x1eef;" horiz-adv-x="1171" d="M588 1205q-41 0 -72 -45t-42 -108l-160 24q25 143 99 226t184 83q39 0 69.5 -12.5t46 -27t33.5 -37.5q4 -6 15.5 -22.5t17 -22.5t16 -16t21 -13.5t24.5 -3.5q43 0 71.5 42.5t39.5 110.5l162 -24q-24 -140 -94 -225t-173 -85q-114 0 -165 80q-4 6 -19 26.5t-21.5 27 t-21 14.5t-31.5 8zM1234 962h180l-23 -135q-22 -127 -81.5 -182t-133.5 -55q-38 0 -82 11l-41 -234q-33 -184 -170 -285.5t-367 -101.5q-244 0 -357 112.5t-81 298.5l100 572h369l-101 -570q-10 -63 10.5 -88.5t65.5 -25.5q63 0 111.5 37t60.5 102l94 545h369l-48 -276 q117 11 125 144v131z" />
<glyph unicode="&#x1ef0;" horiz-adv-x="1556" d="M1762 1738h180l-23 -135q-22 -127 -81.5 -182t-133.5 -55q-56 0 -112 21l-154 -869q-28 -160 -134 -283.5t-260.5 -189t-332.5 -65.5q-140 0 -257.5 42t-195 116t-112 179t-13.5 226l176 993h381l-168 -946q-22 -131 35.5 -205t165.5 -74q126 0 227 85t125 218l162 922 h381l-13 -74h5q70 0 108.5 33t43.5 112v131zM649 -102q80 0 127.5 -58.5t33.5 -140.5q-11 -59 -62 -101t-112 -42q-78 0 -125.5 58.5t-33.5 137.5q10 60 61 103t111 43z" />
<glyph unicode="&#x1ef1;" horiz-adv-x="1171" d="M1234 962h180l-23 -135q-22 -127 -81.5 -182t-133.5 -55q-38 0 -82 11l-41 -234q-33 -184 -170 -285.5t-367 -101.5q-244 0 -357 112.5t-81 298.5l100 572h369l-101 -570q-10 -63 10.5 -88.5t65.5 -25.5q63 0 111.5 37t60.5 102l94 545h369l-48 -276q117 11 125 144v131z M457 -102q80 0 127.5 -58.5t33.5 -140.5q-11 -59 -62 -101t-112 -42q-78 0 -125.5 58.5t-33.5 137.5q10 60 61 103t111 43z" />
<glyph unicode="&#x1ef2;" horiz-adv-x="1487" d="M1113 1769l-137 -135l-310 291l191 184zM1659 1536l-686 -819l-125 -717h-381l127 729l-393 807h415l220 -489l395 489h428z" />
<glyph unicode="&#x1ef3;" horiz-adv-x="1243" d="M897 1196l-137 -135l-310 291l191 184zM942 963h384l-833 -1444h-380l275 481h-74l-227 963h394l106 -671z" />
<glyph unicode="&#x1ef4;" horiz-adv-x="1487" d="M1659 1536l-686 -819l-125 -717h-381l127 729l-393 807h415l220 -489l395 489h428zM614 -102q80 0 127.5 -58.5t33.5 -140.5q-11 -59 -62 -101t-112 -42q-78 0 -125.5 58.5t-33.5 137.5q10 60 61 103t111 43z" />
<glyph unicode="&#x1ef5;" horiz-adv-x="1243" d="M942 963h384l-833 -1444h-380l275 481h-74l-227 963h394l106 -671zM924 -131q80 0 127.5 -58.5t33.5 -140.5q-11 -59 -62 -101t-112 -42q-78 0 -125.5 58.5t-33.5 137.5q10 60 61 103t111 43z" />
<glyph unicode="&#x1ef6;" horiz-adv-x="1487" d="M994 2017q-67 0 -119 -58l-94 177q103 75 229 75q124 0 196.5 -79.5t51.5 -204.5q-14 -72 -60.5 -128t-134.5 -77l-30 -107h-181l27 220q182 24 182 118q0 31 -19 47.5t-48 16.5zM1659 1536l-686 -819l-125 -717h-381l127 729l-393 807h415l220 -489l395 489h428z" />
<glyph unicode="&#x1ef7;" horiz-adv-x="1243" d="M778 1444q-67 0 -119 -58l-94 177q103 75 229 75q124 0 196.5 -79.5t51.5 -204.5q-14 -72 -60.5 -128t-134.5 -77l-30 -107h-181l27 220q182 24 182 118q0 31 -19 47.5t-48 16.5zM942 963h384l-833 -1444h-380l275 481h-74l-227 963h394l106 -671z" />
<glyph unicode="&#x1ef8;" horiz-adv-x="1487" d="M848 1778q-41 0 -72 -45t-42 -108l-160 24q25 143 99 226t184 83q39 0 69.5 -12.5t46 -27t33.5 -37.5q4 -6 15.5 -22.5t17 -22.5t16 -16t21 -13.5t24.5 -3.5q43 0 71.5 42.5t39.5 110.5l162 -24q-24 -140 -94 -225t-173 -85q-114 0 -165 80q-4 6 -19 26.5t-21.5 27 t-21 14.5t-31.5 8zM1659 1536l-686 -819l-125 -717h-381l127 729l-393 807h415l220 -489l395 489h428z" />
<glyph unicode="&#x1ef9;" horiz-adv-x="1243" d="M632 1205q-41 0 -72 -45t-42 -108l-160 24q25 143 99 226t184 83q39 0 69.5 -12.5t46 -27t33.5 -37.5q4 -6 15.5 -22.5t17 -22.5t16 -16t21 -13.5t24.5 -3.5q43 0 71.5 42.5t39.5 110.5l162 -24q-24 -140 -94 -225t-173 -85q-114 0 -165 80q-4 6 -19 26.5t-21.5 27 t-21 14.5t-31.5 8zM942 963h384l-833 -1444h-380l275 481h-74l-227 963h394l106 -671z" />
<glyph unicode="&#x2000;" horiz-adv-x="1353" />
<glyph unicode="&#x2001;" horiz-adv-x="2707" />
<glyph unicode="&#x2002;" horiz-adv-x="1353" />
<glyph unicode="&#x2003;" horiz-adv-x="2707" />
<glyph unicode="&#x2004;" horiz-adv-x="902" />
<glyph unicode="&#x2005;" horiz-adv-x="676" />
<glyph unicode="&#x2006;" horiz-adv-x="451" />
<glyph unicode="&#x2007;" horiz-adv-x="451" />
<glyph unicode="&#x2008;" horiz-adv-x="338" />
<glyph unicode="&#x2009;" horiz-adv-x="541" />
<glyph unicode="&#x200a;" horiz-adv-x="150" />
<glyph unicode="&#x2010;" horiz-adv-x="958" d="M98 348l45 266h717l-45 -266h-717z" />
<glyph unicode="&#x2011;" horiz-adv-x="958" d="M98 348l45 266h717l-45 -266h-717z" />
<glyph unicode="&#x2012;" horiz-adv-x="958" d="M98 348l45 266h717l-45 -266h-717z" />
<glyph unicode="&#x2013;" horiz-adv-x="1266" d="M98 348l45 266h1024l-45 -266h-1024z" />
<glyph unicode="&#x2014;" horiz-adv-x="2048" d="M-23 348l46 266h2048l-46 -266h-2048z" />
<glyph unicode="&#x2018;" horiz-adv-x="565" d="M338 788q-91 0 -145 67t-37 159q9 60 55 104l272 418h183l-199 -385q44 -31 64 -81.5t10 -108.5q-13 -71 -72.5 -122t-130.5 -51z" />
<glyph unicode="&#x2019;" horiz-adv-x="565" d="M471 1559q91 0 145 -67t37 -159q-10 -58 -55 -104l-272 -418h-183l199 385q-43 30 -63.5 81t-10.5 109q13 71 72.5 122t130.5 51z" />
<glyph unicode="&#x201a;" horiz-adv-x="565" d="M262 375q91 0 145 -67t37 -158q-10 -58 -54 -103l-273 -420h-183l200 385q-44 31 -64.5 81.5t-10.5 109.5q13 71 73 121.5t130 50.5z" />
<glyph unicode="&#x201c;" horiz-adv-x="1061" d="M340 788q-91 0 -145 67t-37 159q3 26 24 71l303 451h185l-209 -381q44 -27 68.5 -79t13.5 -115q-13 -71 -72.5 -122t-130.5 -51zM836 788q-91 0 -145 67t-38 159q3 23 25 71l303 451h184l-209 -381q45 -27 69.5 -79t12.5 -115q-12 -71 -71.5 -122t-130.5 -51z" />
<glyph unicode="&#x201d;" horiz-adv-x="1063" d="M469 1557q91 0 145 -67t38 -159q-3 -23 -25 -71l-303 -451h-184l209 381q-45 27 -69.5 79t-12.5 115q12 71 71.5 122t130.5 51zM965 1557q91 0 145 -67t37 -159q-3 -26 -24 -71l-303 -451h-185l209 381q-44 27 -68.5 79t-13.5 115q13 71 72.5 122t130.5 51z" />
<glyph unicode="&#x201e;" horiz-adv-x="1079" d="M262 375q91 0 145 -67t37 -158q-10 -58 -54 -103l-273 -420h-183l200 385q-44 31 -64.5 81.5t-10.5 109.5q13 71 73 121.5t130 50.5zM776 375q91 0 145 -67t37 -158q-10 -58 -54 -103l-273 -420h-182l199 385q-44 31 -64.5 81.5t-10.5 109.5q13 71 73 121.5t130 50.5z " />
<glyph unicode="&#x2020;" horiz-adv-x="1008" d="M1042 1038l-41 -227h-328l-204 -1159h-229l204 1159h-323l41 227h322l59 334h229l-59 -334h329z" />
<glyph unicode="&#x2021;" horiz-adv-x="1069" d="M1032 811h-328l-102 -578h330l-41 -227h-329l-62 -354h-230l62 354h-322l41 227h321l102 578h-322l41 227h321l59 334h230l-59 -334h329z" />
<glyph unicode="&#x2022;" horiz-adv-x="936" d="M463 311q-160 0 -256.5 114.5t-67.5 279.5q25 138 145.5 240t260.5 102q103 0 183.5 -54t118 -145.5t19.5 -196.5q-26 -143 -145 -241.5t-258 -98.5z" />
<glyph unicode="&#x2026;" horiz-adv-x="2085" d="M254 -20q-89 0 -142.5 66t-37.5 157q12 70 71.5 121t130.5 51q91 0 145 -67t38 -158q-13 -70 -73 -120t-132 -50zM977 -20q-89 0 -142.5 66t-37.5 157q12 70 71.5 121t130.5 51q91 0 145 -67t38 -158q-13 -70 -73 -120t-132 -50zM1698 -20q-89 0 -142.5 66t-37.5 157 q12 70 71.5 121t130.5 51q91 0 145 -67t38 -158q-13 -70 -73 -120t-132 -50z" />
<glyph unicode="&#x202f;" horiz-adv-x="541" />
<glyph unicode="&#x2030;" horiz-adv-x="2628" d="M414 786q-111 0 -195.5 55t-122.5 150t-18 207q26 149 150 253.5t274 104.5q111 0 195.5 -55t122.5 -149.5t18 -206.5q-26 -148 -150 -253.5t-274 -105.5zM193 0l1042 1536h338l-1045 -1536h-335zM444 1057q59 0 95.5 41.5t29.5 99.5q-3 36 -32 62t-66 26 q-58 0 -94.5 -41t-30.5 -100q3 -37 31.5 -62.5t66.5 -25.5zM1272 -16q-112 0 -197 54.5t-123 149t-18 207.5q26 149 150.5 254t275.5 105q168 0 265.5 -120.5t68.5 -291.5q-26 -148 -149 -253t-273 -105zM2128 -16q-171 0 -270 120t-68 291q26 149 150.5 254t275.5 105 q169 0 267 -121t67 -291q-26 -148 -149 -253t-273 -105zM1303 256q56 0 93.5 40.5t30.5 98.5q-3 35 -32 61.5t-66 26.5q-57 0 -95 -41.5t-32 -99.5q3 -37 32 -61.5t69 -24.5zM2159 256q55 0 92 40.5t33 98.5q-4 35 -33 61.5t-66 26.5q-57 0 -94 -41.5t-33 -99.5 q3 -37 32 -61.5t69 -24.5z" />
<glyph unicode="&#x2039;" horiz-adv-x="674" d="M281 104l-250 377l372 377h297l-383 -377l240 -377h-276z" />
<glyph unicode="&#x203a;" horiz-adv-x="672" d="M-29 104l383 377l-239 377h276l250 -377l-373 -377h-297z" />
<glyph unicode="&#x2044;" horiz-adv-x="555" d="M-459 0l1344 1536h229l-1341 -1536h-232z" />
<glyph unicode="&#x205f;" horiz-adv-x="676" />
<glyph unicode="&#x20ac;" horiz-adv-x="1892" d="M1028 358q100 0 193.5 41.5t166.5 114.5l283 -233q-132 -140 -306 -220.5t-358 -80.5q-248 0 -426.5 138t-233.5 361h-271l59 230h194q3 38 11 88l6 30h-178l59 230h204q119 222 339.5 360.5t466.5 138.5q197 0 351.5 -87.5t242.5 -239.5l-332 -195q-38 82 -110 123 t-169 41q-194 0 -340 -141h375l-59 -230h-459q-14 -44 -20 -88q0 -3 -1 -9.5t-1.5 -11.5t-0.5 -9h449l-59 -230h-336q86 -121 260 -121z" />
<glyph unicode="&#x2113;" horiz-adv-x="1270" d="M631 -14q-201 0 -296.5 98.5t-98.5 265.5q-2 -3 -8 -8q-3 -5 -1 -6q-56 -44 -114 -82l-78 188q29 19 106 68.5t117 77.5l98 512q52 292 191.5 433.5t333.5 141.5q126 0 204.5 -59.5t102 -153.5t2.5 -213q-31 -179 -179.5 -355t-418.5 -378l-21 -78q-13 -89 26.5 -136.5 t115.5 -47.5q95 0 191 61.5t167 149.5l125 -166q-228 -313 -565 -313zM631 825q141 126 232 250.5t110 233.5q13 70 -1.5 105.5t-64.5 35.5q-67 0 -127 -80.5t-90 -253.5z" />
<glyph unicode="&#x2116;" horiz-adv-x="2890" d="M1417 1536h381l-270 -1536h-397l-480 965l-169 -965h-381l270 1536h395l482 -960zM2407 1354q115 0 208.5 -41t153 -111t83.5 -167.5t5 -206.5q-36 -202 -200 -337.5t-381 -135.5q-154 0 -266.5 69.5t-161 190t-23.5 266.5q36 202 200 337.5t382 135.5zM2517 881 q14 74 -20 118t-100 44q-84 0 -150.5 -59t-83.5 -156q-13 -77 20.5 -118.5t100.5 -41.5q83 0 150 59t83 154zM1720 0l41 229h924l-41 -229h-924z" />
<glyph unicode="&#x2122;" horiz-adv-x="1688" d="M651 1536l-26 -147h-178l-101 -568h-170l101 568h-177l27 147h524zM1382 1536h185l-127 -715h-168l78 442l-283 -335l-181 353l-81 -460h-170l127 715h180l161 -326z" />
<glyph unicode="&#x212e;" horiz-adv-x="1905" d="M963 -18q-178 0 -340 62t-279.5 167.5t-186.5 250.5t-69 304q0 215 117 397t318.5 287.5t439.5 105.5q179 0 341 -62.5t279.5 -168t186.5 -252t69 -307.5v-21h-1417q-12 0 -12 -8v-430q0 -24 18 -49q106 -109 245 -171t292 -62q167 0 313.5 69.5t251.5 192.5h125 q-119 -141 -301.5 -223t-390.5 -82zM422 788h1087q9 0 9 15v430q0 33 -21 51q-107 105 -243.5 165t-288.5 60q-151 0 -289 -61.5t-246 -169.5q-20 -23 -20 -53v-422q0 -15 12 -15z" />
<glyph unicode="&#x2190;" horiz-adv-x="1696" d="M1593 845v-247h-1038v-260l-498 385l498 385v-263h1038z" />
<glyph unicode="&#x2191;" horiz-adv-x="864" d="M310 0v1038h-263l385 498l385 -498h-260v-1038h-247z" />
<glyph unicode="&#x2192;" horiz-adv-x="1700" d="M102 845h1038v263l498 -385l-498 -385v260h-1038v247z" />
<glyph unicode="&#x2193;" horiz-adv-x="864" d="M310 1536h247v-1038h260l-385 -498l-385 498h263v1038z" />
<glyph unicode="&#x2194;" horiz-adv-x="2138" d="M555 295l-498 387l498 385v-260l1024 -2v260l498 -385l-498 -385v262l-1024 2v-264z" />
<glyph unicode="&#x2195;" horiz-adv-x="893" d="M446 -145l-385 497h263v672h-263l385 498l385 -498h-260v-672h260z" />
<glyph unicode="&#x2196;" horiz-adv-x="1319" d="M1268 311l-175 -175l-734 734l-183 -184l-80 625l624 -80l-186 -186z" />
<glyph unicode="&#x2197;" horiz-adv-x="1319" d="M51 311l734 734l-186 186l624 80l-80 -625l-183 184l-734 -734z" />
<glyph unicode="&#x2198;" horiz-adv-x="1319" d="M51 1225l175 175l734 -734l183 184l80 -625l-624 80l186 186z" />
<glyph unicode="&#x2199;" horiz-adv-x="1319" d="M1268 1225l-734 -734l186 -186l-624 -80l80 625l183 -184l734 734z" />
<glyph unicode="&#x2202;" horiz-adv-x="1223" d="M317 1462q96 23 185.5 21.5t171.5 -33.5t152 -82.5t126.5 -125t95.5 -161.5t58.5 -192t15.5 -217q-9 -308 -172 -492t-422 -184q-129 0 -229 48t-154 133.5t-63 203t45 256.5q85 225 257.5 330.5t365.5 61.5q-55 126 -164 176.5t-269 4.5v252zM801 672q3 48 1 105 q-121 61 -222.5 1.5t-153.5 -221.5q-26 -87 -25 -150t24.5 -103.5t55 -59.5t66.5 -19q39 0 78 24t77 74t65 140.5t34 208.5z" />
<glyph unicode="&#x2205;" horiz-adv-x="1438" d="M1196 979q135 -167 135 -383q0 -166 -82 -307t-223 -223t-307 -82q-216 0 -383 135l-90 -90l-94 94l89 89q-135 169 -135 384q0 166 82 307t223.5 223t307.5 82q216 0 383 -135l90 90l94 -94zM395 596q0 -98 52 -178l449 449q-78 53 -177 53q-135 0 -229.5 -94.5 t-94.5 -229.5zM719 272q135 0 229 94.5t94 229.5q0 97 -52 177l-449 -449q80 -52 178 -52z" />
<glyph unicode="&#x220f;" horiz-adv-x="1784" d="M338 0v1118h-105v322h1485v-322h-104v-1118h-320v1118h-632v-1118h-324z" />
<glyph unicode="&#x2211;" horiz-adv-x="1626" d="M223 -240v224l668 614l-668 614v228h1221v-275h-764l598 -567l-598 -567h764v-271h-1221z" />
<glyph unicode="&#x2212;" horiz-adv-x="1327" d="M182 578v270h963v-270h-963z" />
<glyph unicode="&#x221a;" horiz-adv-x="1485" d="M430 -160l-217 668h-152v229h316l180 -549l666 1393l211 -88l-793 -1653h-211z" />
<glyph unicode="&#x221e;" horiz-adv-x="1665" d="M457 242q-148 0 -241.5 98t-98.5 256q5 158 98.5 256t241.5 98q183 0 374 -186q192 186 375 186q156 0 245 -93t93 -261q-4 -168 -93 -261t-245 -93q-183 0 -375 186q-191 -186 -374 -186zM457 471q96 0 221 125q-125 125 -221 125q-48 0 -80.5 -34.5t-32.5 -90.5 t32.5 -90.5t80.5 -34.5zM1206 471q50 0 80.5 32.5t30.5 92.5t-30.5 92.5t-80.5 32.5q-92 0 -223 -125q131 -125 223 -125z" />
<glyph unicode="&#x222b;" horiz-adv-x="961" d="M66 -457v340q95 0 140 16.5t61 55t16 119.5v1018q0 155 105.5 255.5t264.5 100.5q70 0 141.5 -22t116.5 -68l-123 -273q-48 50 -94 50q-33 0 -50 -26.5t-17 -94.5v-977q0 -150 -73.5 -263.5t-200 -172t-287.5 -58.5z" />
<glyph unicode="&#x2248;" horiz-adv-x="1323" d="M868 698q-31 0 -61.5 5.5t-54.5 13.5t-48.5 21.5t-40.5 24t-35.5 27.5t-28.5 25.5t-24 24t-18 18.5q-6 6 -12.5 11t-11.5 8.5t-10.5 5.5t-8.5 3.5t-8.5 2t-7 0.5h-6.5h-5q-100 0 -110 -178h-252q6 199 100 315.5t267 116.5q83 0 147 -33.5t127 -114.5q12 -15 18.5 -22.5 t24.5 -18t39 -10.5q43 0 70.5 45t33.5 129h248q-8 -187 -92.5 -303.5t-239.5 -116.5zM868 164q-28 0 -54.5 4t-50.5 12.5t-43.5 16t-40 22t-33.5 23t-30 25t-23.5 22.5t-20.5 21l-15 16q-17 17 -31.5 23t-38.5 5q-55 -4 -80 -49t-30 -129h-252q6 201 101.5 317.5 t265.5 116.5q79 0 143 -33.5t131 -113.5q1 -1 7 -8.5t9.5 -11.5t11.5 -11.5t15.5 -11.5t17.5 -7t21 -3q44 0 71 44.5t33 131.5h248q-8 -187 -93 -304.5t-239 -117.5z" />
<glyph unicode="&#x2264;" horiz-adv-x="1368" d="M1235 1552v-299l-822 -337l822 -338v-302l-1131 478v325zM104 0v205h1131v-205h-1131z" />
<glyph unicode="&#x2265;" horiz-adv-x="1368" d="M133 1552l1131 -473v-325l-1131 -478v302l822 338l-822 337v299zM133 0v205h1131v-205h-1131z" />
<glyph unicode="&#x25ca;" horiz-adv-x="1333" d="M668 106l-619 617l619 618l616 -616zM668 506l217 219l-217 217l-219 -219z" />
<glyph unicode="&#x25fc;" horiz-adv-x="965" d="M0 965h965v-965h-965v965z" />
<glyph unicode="&#xf8ff;" horiz-adv-x="1739" d="M868 0q-158 0 -302 62t-248 166t-166 248t-62 302t62 302.5t166 248.5t248 165.5t302 61.5q127 0 246 -39t214.5 -111t167.5 -168t111.5 -214.5t39.5 -245.5q0 -211 -104.5 -390t-284 -283.5t-390.5 -104.5zM868 74q143 0 273.5 56t225 150.5t150.5 224.5t56 273 q0 191 -94.5 353.5t-257 257t-353.5 94.5q-143 0 -273 -56t-224.5 -150.5t-150.5 -225t-56 -273.5t56 -273t150.5 -224.5t224.5 -150.5t273 -56zM1276 444q-15 0 -25 13l-297 295q-10 12 -10 27t10 26l297 297q11 10 26 10t26 -10q11 -11 11 -26.5t-11 -26.5l-271 -271 l271 -270q22 -22 0 -51q-11 -13 -27 -13zM461 444q-16 0 -26.5 11t-10.5 26v594q0 16 10.5 26.5t26.5 10.5q15 0 26 -10.5t11 -26.5v-594q0 -15 -11 -26t-26 -11zM868 444q-15 0 -26 11t-11 26v594q0 16 11 26.5t26 10.5q16 0 26.5 -10.5t10.5 -26.5v-594q0 -15 -10.5 -26 t-26.5 -11zM571 741q-15 0 -25.5 11t-10.5 26q0 16 10.5 26.5t25.5 10.5h187q15 0 26 -10.5t11 -26.5q0 -15 -11 -26t-26 -11h-187z" />
<glyph unicode="&#xfb00;" horiz-adv-x="1526" d="M1542 1247q-53 0 -94.5 -38.5t-52.5 -94.5l-26 -151h216l-47 -271h-217l-121 -692h-369l121 692h-360l-121 -692h-369l121 692h-162l48 271h162l38 217q32 180 150.5 281.5t294.5 101.5q67 0 118.5 -11.5t69.5 -27.5l-35 -305q-31 28 -94 28q-53 0 -94.5 -38.5 t-52.5 -94.5l-26 -151h360l38 217q32 180 150.5 281.5t294.5 101.5q67 0 118.5 -11.5t69.5 -27.5l-35 -305q-31 28 -94 28z" />
<glyph unicode="&#xfb03;" horiz-adv-x="2118" d="M135 0l121 692h-178l47 271h178l39 217q32 180 150.5 281.5t293.5 101.5q68 0 119.5 -11.5t69.5 -27.5l-35 -305q-32 28 -94 28q-53 0 -95 -38.5t-53 -94.5l-26 -151h329l39 217q32 180 150.5 281.5t294.5 101.5q67 0 118.5 -11.5t69.5 -27.5l-35 -305q-31 28 -94 28 q-53 0 -94.5 -38.5t-52.5 -94.5l-27 -151h711l-168 -963h-367l121 692h-344l-121 -692h-368l120 692h-329l-121 -692h-369zM1950 1118q-88 0 -141 65.5t-37 155.5q12 70 70 118t130 48q89 0 142 -64.5t36 -154.5q-12 -69 -70 -118.5t-130 -49.5z" />
<glyph unicode="&#xfb04;" horiz-adv-x="2138" d="M1585 963l-47 -271h-217l-121 -692h-369l121 692h-360l-121 -692h-369l121 692h-162l48 271h162l38 217q32 180 150.5 281.5t294.5 101.5q67 0 118.5 -11.5t69.5 -27.5l-35 -305q-31 28 -94 28q-53 0 -94.5 -38.5t-52.5 -94.5l-26 -151h360l38 217q32 180 150.5 281.5 t294.5 101.5q67 0 118.5 -11.5t69.5 -27.5l-35 -305q-31 28 -94 28q-53 0 -94.5 -38.5t-52.5 -94.5l-26 -151h216zM1833 1536h369l-270 -1536h-369z" />
<glyph horiz-adv-x="1069" d="M721 1536l-210 -1204h490l-57 -332h-874l270 1536h381zM856 963h-188l276 573h344z" />
<glyph horiz-adv-x="1069" d="M721 1536l-210 -1204h490l-57 -332h-874l270 1536h381zM856 963h-188l276 573h344z" />
<glyph horiz-adv-x="610" d="M434 1098q-74 0 -120 57t-34 134q11 57 60 98t106 41q79 0 124.5 -56.5t31.5 -136.5q-11 -56 -59.5 -96.5t-108.5 -40.5zM37 0l168 963h368l-167 -963h-369z" />
<glyph horiz-adv-x="1065" d="M569 983q236 0 344 -105.5t72 -316.5l-98 -561h-312l-2 96q-119 -114 -282 -114q-156 0 -231.5 84.5t-49.5 230.5q25 144 159.5 221.5t420.5 97.5l48 4q9 63 -14.5 91t-88.5 28q-129 0 -273 -94l-112 223q165 115 419 115zM356 283q-6 -34 13.5 -52t54.5 -18 q36 0 79 18.5t75 49.5l20 111l-29 -3q-106 -9 -155.5 -34t-57.5 -72z" />
<glyph horiz-adv-x="1065" d="M1030 1352l-394 -299l-112 146l362 337zM569 983q236 0 344 -105.5t72 -316.5l-98 -561h-312l-2 96q-119 -114 -282 -114q-156 0 -231.5 84.5t-49.5 230.5q25 144 159.5 221.5t420.5 97.5l48 4q9 63 -14.5 91t-88.5 28q-129 0 -273 -94l-112 223q165 115 419 115z M356 283q-6 -34 13.5 -52t54.5 -18q36 0 79 18.5t75 49.5l20 111l-29 -3q-106 -9 -155.5 -34t-57.5 -72z" />
<glyph horiz-adv-x="1065" d="M661 1110q-183 0 -276 96t-60 269h201q-11 -80 30 -130t121 -50q97 0 145.5 52.5t61.5 127.5h201q-33 -188 -142.5 -276.5t-281.5 -88.5zM569 983q236 0 344 -105.5t72 -316.5l-98 -561h-312l-2 96q-119 -114 -282 -114q-156 0 -231.5 84.5t-49.5 230.5 q25 144 159.5 221.5t420.5 97.5l48 4q9 63 -14.5 91t-88.5 28q-129 0 -273 -94l-112 223q165 115 419 115zM356 283q-6 -34 13.5 -52t54.5 -18q36 0 79 18.5t75 49.5l20 111l-29 -3q-106 -9 -155.5 -34t-57.5 -72z" />
<glyph horiz-adv-x="1065" d="M1118 1848l-394 -299l-112 146l362 337zM677 1295q97 0 145.5 52.5t61.5 127.5h201q-33 -188 -142.5 -276.5t-281.5 -88.5q-183 0 -276 96t-60 269h201q-11 -80 30 -130t121 -50zM569 983q236 0 344 -105.5t72 -316.5l-98 -561h-312l-2 96q-119 -114 -282 -114 q-156 0 -231.5 84.5t-49.5 230.5q25 144 159.5 221.5t420.5 97.5l48 4q9 63 -14.5 91t-88.5 28q-129 0 -273 -94l-112 223q165 115 419 115zM356 283q-6 -34 13.5 -52t54.5 -18q36 0 79 18.5t75 49.5l20 111l-29 -3q-106 -9 -155.5 -34t-57.5 -72z" />
<glyph horiz-adv-x="1065" d="M661 1110q-183 0 -276 96t-60 269h201q-11 -80 30 -130t121 -50q97 0 145.5 52.5t61.5 127.5h201q-33 -188 -142.5 -276.5t-281.5 -88.5zM569 983q236 0 344 -105.5t72 -316.5l-98 -561h-312l-2 96q-119 -114 -282 -114q-156 0 -231.5 84.5t-49.5 230.5 q25 144 159.5 221.5t420.5 97.5l48 4q9 63 -14.5 91t-88.5 28q-129 0 -273 -94l-112 223q165 115 419 115zM356 283q-6 -34 13.5 -52t54.5 -18q36 0 79 18.5t75 49.5l20 111l-29 -3q-106 -9 -155.5 -34t-57.5 -72zM401 -102q80 0 127.5 -58.5t33.5 -140.5q-11 -59 -62 -101 t-112 -42q-78 0 -125.5 58.5t-33.5 137.5q10 60 61 103t111 43z" />
<glyph horiz-adv-x="1065" d="M885 1692l-137 -135l-310 291l191 184zM661 1110q-183 0 -276 96t-60 269h201q-11 -80 30 -130t121 -50q97 0 145.5 52.5t61.5 127.5h201q-33 -188 -142.5 -276.5t-281.5 -88.5zM569 983q236 0 344 -105.5t72 -316.5l-98 -561h-312l-2 96q-119 -114 -282 -114 q-156 0 -231.5 84.5t-49.5 230.5q25 144 159.5 221.5t420.5 97.5l48 4q9 63 -14.5 91t-88.5 28q-129 0 -273 -94l-112 223q165 115 419 115zM356 283q-6 -34 13.5 -52t54.5 -18q36 0 79 18.5t75 49.5l20 111l-29 -3q-106 -9 -155.5 -34t-57.5 -72z" />
<glyph horiz-adv-x="1065" d="M766 1940q-67 0 -119 -58l-94 177q103 75 229 75q124 0 196.5 -79.5t51.5 -204.5q-14 -72 -60.5 -128t-134.5 -77l-30 -107h-181l27 220q182 24 182 118q0 31 -19 47.5t-48 16.5zM661 1110q-183 0 -276 96t-60 269h201q-11 -80 30 -130t121 -50q97 0 145.5 52.5 t61.5 127.5h201q-33 -188 -142.5 -276.5t-281.5 -88.5zM569 983q236 0 344 -105.5t72 -316.5l-98 -561h-312l-2 96q-119 -114 -282 -114q-156 0 -231.5 84.5t-49.5 230.5q25 144 159.5 221.5t420.5 97.5l48 4q9 63 -14.5 91t-88.5 28q-129 0 -273 -94l-112 223 q165 115 419 115zM356 283q-6 -34 13.5 -52t54.5 -18q36 0 79 18.5t75 49.5l20 111l-29 -3q-106 -9 -155.5 -34t-57.5 -72z" />
<glyph horiz-adv-x="1065" d="M620 1701q-41 0 -72 -45t-42 -108l-160 24q25 143 99 226t184 83q39 0 69.5 -12.5t46 -27t33.5 -37.5q4 -6 15.5 -22.5t17 -22.5t16 -16t21 -13.5t24.5 -3.5q43 0 71.5 42.5t39.5 110.5l162 -24q-24 -140 -94 -225t-173 -85q-114 0 -165 80q-4 6 -19 26.5t-21.5 27 t-21 14.5t-31.5 8zM677 1295q97 0 145.5 52.5t61.5 127.5h201q-33 -188 -142.5 -276.5t-281.5 -88.5q-183 0 -276 96t-60 269h201q-11 -80 30 -130t121 -50zM569 983q236 0 344 -105.5t72 -316.5l-98 -561h-312l-2 96q-119 -114 -282 -114q-156 0 -231.5 84.5t-49.5 230.5 q25 144 159.5 221.5t420.5 97.5l48 4q9 63 -14.5 91t-88.5 28q-129 0 -273 -94l-112 223q165 115 419 115zM356 283q-6 -34 13.5 -52t54.5 -18q36 0 79 18.5t75 49.5l20 111l-29 -3q-106 -9 -155.5 -34t-57.5 -72z" />
<glyph horiz-adv-x="1065" d="M739 1084h-202l-215 301l145 88l195 -188l266 188l129 -88zM569 983q236 0 344 -105.5t72 -316.5l-98 -561h-312l-2 96q-119 -114 -282 -114q-156 0 -231.5 84.5t-49.5 230.5q25 144 159.5 221.5t420.5 97.5l48 4q9 63 -14.5 91t-88.5 28q-129 0 -273 -94l-112 223 q165 115 419 115zM356 283q-6 -34 13.5 -52t54.5 -18q36 0 79 18.5t75 49.5l20 111l-29 -3q-106 -9 -155.5 -34t-57.5 -72z" />
<glyph horiz-adv-x="1065" d="M667 1233l-258 -192l-135 92l313 301h203l219 -301l-152 -92zM569 983q236 0 344 -105.5t72 -316.5l-98 -561h-312l-2 96q-119 -114 -282 -114q-156 0 -231.5 84.5t-49.5 230.5q25 144 159.5 221.5t420.5 97.5l48 4q9 63 -14.5 91t-88.5 28q-129 0 -273 -94l-112 223 q165 115 419 115zM356 283q-6 -34 13.5 -52t54.5 -18q36 0 79 18.5t75 49.5l20 111l-29 -3q-106 -9 -155.5 -34t-57.5 -72z" />
<glyph horiz-adv-x="1065" d="M440 1126q-76 0 -121.5 56.5t-32.5 136.5q10 57 58.5 97t107.5 40q77 0 123 -56t33 -134q-11 -59 -59.5 -99.5t-108.5 -40.5zM901 1456q77 0 122 -56t31 -134q-11 -59 -58.5 -99.5t-107.5 -40.5q-77 0 -122 56.5t-31 136.5q9 57 57.5 97t108.5 40zM569 983 q236 0 344 -105.5t72 -316.5l-98 -561h-312l-2 96q-119 -114 -282 -114q-156 0 -231.5 84.5t-49.5 230.5q25 144 159.5 221.5t420.5 97.5l48 4q9 63 -14.5 91t-88.5 28q-129 0 -273 -94l-112 223q165 115 419 115zM356 283q-6 -34 13.5 -52t54.5 -18q36 0 79 18.5t75 49.5 l20 111l-29 -3q-106 -9 -155.5 -34t-57.5 -72z" />
<glyph horiz-adv-x="1065" d="M797 1196l-137 -135l-310 291l191 184zM569 983q236 0 344 -105.5t72 -316.5l-98 -561h-312l-2 96q-119 -114 -282 -114q-156 0 -231.5 84.5t-49.5 230.5q25 144 159.5 221.5t420.5 97.5l48 4q9 63 -14.5 91t-88.5 28q-129 0 -273 -94l-112 223q165 115 419 115zM356 283 q-6 -34 13.5 -52t54.5 -18q36 0 79 18.5t75 49.5l20 111l-29 -3q-106 -9 -155.5 -34t-57.5 -72z" />
<glyph horiz-adv-x="1065" d="M997 1344l-37 -209h-635l37 209h635zM569 983q236 0 344 -105.5t72 -316.5l-98 -561h-312l-2 96q-119 -114 -282 -114q-156 0 -231.5 84.5t-49.5 230.5q25 144 159.5 221.5t420.5 97.5l48 4q9 63 -14.5 91t-88.5 28q-129 0 -273 -94l-112 223q165 115 419 115zM356 283 q-6 -34 13.5 -52t54.5 -18q36 0 79 18.5t75 49.5l20 111l-29 -3q-106 -9 -155.5 -34t-57.5 -72z" />
<glyph horiz-adv-x="1065" d="M887 0q-147 -62 -226 -118t-91 -130q-13 -74 71 -74q51 0 95.5 26t93.5 73l102 -179q-74 -65 -167 -96t-175 -22q-134 10 -197 92.5t-43 200.5q27 156 235 227h-10l-2 96q-119 -114 -282 -114q-156 0 -231.5 84.5t-49.5 230.5q25 144 159.5 221.5t420.5 97.5l48 4 q9 63 -14.5 91t-88.5 28q-129 0 -273 -94l-112 223q165 115 419 115q236 0 344 -105.5t72 -316.5zM356 283q-6 -34 13.5 -52t54.5 -18q36 0 79 18.5t75 49.5l20 111l-29 -3q-106 -9 -155.5 -34t-57.5 -72z" />
<glyph horiz-adv-x="1065" d="M657 1081q-117 0 -186.5 84.5t-47.5 202.5q17 94 98 161.5t179 67.5q114 0 181.5 -83.5t47.5 -198.5q-17 -97 -96.5 -165.5t-175.5 -68.5zM691 1456q-55 0 -90 -42.5t-30 -98.5q3 -41 29 -64.5t65 -23.5q58 0 93.5 39.5t31.5 101.5q-3 35 -32 61.5t-67 26.5zM569 983 q236 0 344 -105.5t72 -316.5l-98 -561h-312l-2 96q-119 -114 -282 -114q-156 0 -231.5 84.5t-49.5 230.5q25 144 159.5 221.5t420.5 97.5l48 4q9 63 -14.5 91t-88.5 28q-129 0 -273 -94l-112 223q165 115 419 115zM356 283q-6 -34 13.5 -52t54.5 -18q36 0 79 18.5t75 49.5 l20 111l-29 -3q-106 -9 -155.5 -34t-57.5 -72z" />
<glyph horiz-adv-x="1065" d="M938 1382l162 -24q-24 -140 -94 -225t-173 -85q-114 0 -165 80q-4 6 -19 26.5t-21.5 27t-21 14.5t-31.5 8q-41 0 -72 -45t-42 -108l-160 24q25 143 99 226t184 83q39 0 69.5 -12.5t46 -27t33.5 -37.5q4 -6 15.5 -22.5t17 -22.5t16 -16t21 -13.5t24.5 -3.5q43 0 71.5 42.5 t39.5 110.5zM546 983q236 0 344 -105.5t72 -316.5l-98 -561h-312l-2 96q-119 -114 -282 -114q-156 0 -231.5 84.5t-49.5 230.5q25 144 159.5 221.5t420.5 97.5l48 4q9 63 -14.5 91t-88.5 28q-129 0 -273 -94l-112 223q165 115 419 115zM333 283q-6 -34 13.5 -52t54.5 -18 q36 0 79 18.5t75 49.5l20 111l-29 -3q-106 -9 -155.5 -34t-57.5 -72z" />
<glyph horiz-adv-x="1262" d="M956 1536h369l-270 -1536h-328l3 104q-115 -124 -294 -124q-95 0 -174.5 38.5t-131 108t-72.5 167.5t1 218q25 141 102.5 251t183.5 168t222 58q188 0 272 -134zM1568 1536h344l-432 -573h-188zM569 287q89 0 158 65.5t76 159.5q8 72 -35.5 121t-116.5 49 q-87 0 -154.5 -65t-76.5 -158q-6 -73 36.5 -122.5t112.5 -49.5z" />
<glyph horiz-adv-x="1274" d="M1034 1536l-204 -425h-336l360 425h180zM868 963h369l-160 -914q-50 -280 -218 -414.5t-423 -134.5q-60 0 -121 8.5t-129 28t-131 58.5t-108 92l203 215q121 -105 266 -105q114 0 193.5 70t103.5 205l3 17q-112 -109 -272 -109q-205 0 -316 148.5t-69 383.5 q25 141 101.5 251t184 168t226.5 58q196 0 277 -151zM420 459q-6 -73 36.5 -122.5t112.5 -49.5q89 0 158 65.5t76 159.5q8 72 -35.5 121t-116.5 49q-87 0 -154.5 -65t-76.5 -158z" />
<glyph horiz-adv-x="612" d="M37 0l270 1536h369l-270 -1536h-369zM616 963l276 573h344l-432 -573h-188z" />
<glyph horiz-adv-x="752" d="M1005 1658h344l-432 -573h-188zM707 1309l-61 -346h165l-47 -271h-165l-122 -692h-368l121 692h-169l48 271h168l61 346h369z" />
<glyph horiz-adv-x="1262" d="M956 1536h369l-270 -1536h-328l3 104q-115 -124 -294 -124q-95 0 -174.5 38.5t-131 108t-72.5 167.5t1 218q25 141 102.5 251t183.5 168t222 58q188 0 272 -134zM1568 1536h344l-432 -573h-188zM569 287q89 0 158 65.5t76 159.5q8 72 -35.5 121t-116.5 49 q-87 0 -154.5 -65t-76.5 -158q-6 -73 36.5 -122.5t112.5 -49.5z" />
<glyph horiz-adv-x="1274" d="M1034 1536l-204 -425h-336l360 425h180zM868 963h369l-160 -914q-50 -280 -218 -414.5t-423 -134.5q-60 0 -121 8.5t-129 28t-131 58.5t-108 92l203 215q121 -105 266 -105q114 0 193.5 70t103.5 205l3 17q-112 -109 -272 -109q-205 0 -316 148.5t-69 383.5 q25 141 101.5 251t184 168t226.5 58q196 0 277 -151zM420 459q-6 -73 36.5 -122.5t112.5 -49.5q89 0 158 65.5t76 159.5q8 72 -35.5 121t-116.5 49q-87 0 -154.5 -65t-76.5 -158z" />
<glyph horiz-adv-x="612" d="M37 0l270 1536h369l-270 -1536h-369zM616 963l276 573h344l-432 -573h-188z" />
<glyph horiz-adv-x="752" d="M1005 1658h344l-432 -573h-188zM707 1309l-61 -346h165l-47 -271h-165l-122 -692h-368l121 692h-169l48 271h168l61 346h369z" />
<glyph horiz-adv-x="1415" d="M1475 963l-47 -271h-165l-122 -692h-368l121 692h-302l-121 -692h-369l121 692h-162l48 271h162l38 217q32 180 150.5 281.5t294.5 101.5q67 0 118.5 -11.5t69.5 -27.5l-35 -305q-31 28 -94 28q-53 0 -94.5 -38.5t-52.5 -94.5l-26 -151h301l61 346h369l-61 -346h165z" />
<glyph horiz-adv-x="1417" d="M1477 963l-47 -271h-165l-122 -692h-368l121 692h-297l-122 -692h-368l121 692h-169l48 271h168l61 346h369l-61 -346h297l61 346h369l-61 -346h165z" />
<glyph horiz-adv-x="1309" d="M590 -20q-285 0 -407 216.5t-54 598.5q63 360 244.5 560.5t447.5 200.5q284 0 405.5 -216.5t53.5 -598.5q-63 -360 -244 -560.5t-446 -200.5zM600 303q105 0 193.5 133.5t128.5 358.5q36 205 6 321.5t-117 116.5q-107 0 -195.5 -133t-128.5 -359q-35 -205 -5 -321.5 t118 -116.5z" />
<glyph horiz-adv-x="840" d="M240 0l213 1214h-289l57 322h658l-271 -1536h-368z" />
<glyph horiz-adv-x="1233" d="M1245 1104q-11 -64 -31 -117.5t-59 -111t-87.5 -110.5t-130.5 -124.5t-173.5 -143t-229.5 -175.5h601l-56 -322h-1093l41 283q150 124 249 206.5t192.5 163t148 130t105 100t75 81t45 65.5t29 61.5t14.5 60.5q6 38 -3 63.5t-30.5 37t-42.5 16t-47 4.5q-95 0 -155 -57.5 t-79 -163.5l-364 24q41 230 202 357t400 127q245 0 378.5 -125t100.5 -330z" />
<glyph horiz-adv-x="1245" d="M553 -20q-98 0 -182 18t-155 56t-115 97.5t-62 142t2 189.5l373 -24q-17 -96 24 -132t119 -36q112 0 178.5 60.5t83.5 160.5q14 76 -28.5 115t-131.5 39h-108l49 276h59q76 0 144 49t84 142q22 116 -115 116q-75 0 -129.5 -40.5t-69.5 -127.5l-366 25q19 111 72 198 t128.5 141.5t166.5 82.5t192 28q231 0 363 -129t98 -317q-19 -104 -88 -181t-144 -108q41 -11 77.5 -37t69 -73.5t42 -114.5t-3.5 -160q-38 -210 -206 -333t-421 -123z" />
<glyph horiz-adv-x="1300" d="M1284 604l-57 -321h-221l-50 -283h-368l49 283h-627l53 321l676 932h488l-164 -932h221zM351 604h342l111 639z" />
<glyph horiz-adv-x="1280" d="M1286 1214h-666l-64 -207q123 64 290 64q94 0 171 -37t128 -106.5t70 -169.5t-3 -226q-29 -167 -125 -295t-231 -194t-285 -66q-117 0 -218.5 36.5t-171.5 100t-101.5 155.5t-11.5 196h378q4 -137 156 -137q90 0 163 67.5t93 182.5q16 91 -23 141.5t-108 50.5 q-162 0 -254 -149l-379 12l322 903h927z" />
<glyph horiz-adv-x="1253" d="M819 1057q206 -30 319.5 -190.5t73.5 -377.5q-27 -144 -126 -262t-239 -182.5t-290 -64.5q-165 0 -289.5 75.5t-181 206t-29.5 287.5q33 177 193 360l573 627h424l-438 -476zM858 543q18 86 -24 142t-136 56q-107 0 -184.5 -68t-97.5 -173q-19 -86 21 -142.5t132 -56.5 q108 0 188 69t101 173z" />
<glyph horiz-adv-x="1245" d="M223 1536h1172l-45 -274l-881 -1262h-428l872 1214h-747z" />
<glyph horiz-adv-x="1223" d="M545 -20q-251 0 -390.5 148t-101.5 370q21 119 95.5 215t187.5 155q-100 119 -70 297q29 169 173 280t337 111q211 0 327.5 -127t82.5 -317q-29 -166 -164 -268q89 -68 126.5 -171t16.5 -229q-35 -200 -210.5 -332t-409.5 -132zM688 950q74 0 128 52t61 128 q3 56 -30.5 91.5t-90.5 35.5q-75 0 -130 -51.5t-61 -128.5q-3 -55 31.5 -91t91.5 -36zM576 301q91 0 157 65.5t72 161.5q4 72 -38.5 116t-117.5 44q-91 0 -155.5 -60t-71.5 -153q-5 -74 38.5 -124t115.5 -50z" />
<glyph horiz-adv-x="1253" d="M706 1556q165 0 289.5 -75.5t181 -206t29.5 -287.5q-31 -174 -192 -360l-574 -627h-424l497 537q-42 -5 -71 -5q-134 0 -233 71.5t-140.5 190t-17.5 253.5q27 144 126 262t239 182.5t290 64.5zM846 1036q9 86 -36.5 142.5t-137.5 56.5q-108 0 -181.5 -69t-83.5 -173 q-8 -86 39.5 -142t141.5 -56q107 0 177.5 68t80.5 173z" />
<glyph horiz-adv-x="764" d="M317 -12q-166 0 -243 137.5t-37 361.5q35 204 144 325.5t257 121.5q165 0 244 -138.5t39 -361.5q-35 -202 -145.5 -324t-258.5 -122zM309 193q71 0 130 79t83 215q19 119 0.5 180.5t-71.5 61.5q-73 0 -131 -78.5t-82 -216.5q-21 -118 -2 -179.5t73 -61.5z" />
<glyph horiz-adv-x="440" d="M51 0l127 721h-127l35 201h334l-162 -922h-207z" />
<glyph horiz-adv-x="707" d="M662 625q-18 -101 -96.5 -215.5t-187.5 -208.5h240l-34 -201h-656v57q161 131 269.5 232t163 170t77 112.5t29.5 85.5q6 31 1 51.5t-17 27.5t-27.5 10t-30.5 -1q-67 -3 -106 -47.5t-41 -87.5l-207 25q16 134 117 217.5t239 83.5q144 0 217.5 -87.5t49.5 -223.5z" />
<glyph horiz-adv-x="670" d="M616 647q-16 -93 -86 -150q95 -90 70 -235q-21 -115 -118.5 -194.5t-223.5 -79.5q-138 0 -220.5 82.5t-62.5 199.5l211 -22q-6 -30 12 -44t50 -14q55 0 98.5 39.5t54.5 96.5q6 33 -12.5 42t-69.5 9h-106l33 196h69q38 0 73 33.5t42 77.5q4 24 -9.5 36.5t-39.5 12.5 q-39 0 -70 -21t-37 -46l-204 28q19 110 102.5 175t198.5 65q127 0 197.5 -80.5t47.5 -206.5z" />
<glyph horiz-adv-x="760" d="M719 922l-93 -527h74l-36 -200h-73l-34 -195h-209l34 195h-435l20 131l477 596h275zM258 395h159l50 283z" />
<glyph horiz-adv-x="774" d="M739 729h-390l-48 -138q65 42 156 42q130 0 197.5 -89t41.5 -241q-25 -142 -128 -226.5t-238 -84.5q-136 0 -230.5 76t-97.5 200l219 6q15 -81 107 -81q52 0 95 44t56 119q9 48 -9 71.5t-58 23.5t-84.5 -24t-73.5 -58l-229 10l198 545h551z" />
<glyph horiz-adv-x="711" d="M444 623q40 -5 83 -30.5t80.5 -66.5t55 -105t3.5 -136q-25 -129 -139.5 -217.5t-243.5 -77.5q-153 9 -240 106.5t-61 243.5q13 74 94 186l370 396h252l-285 -294q9 -1 31 -5zM471 338q16 104 -78 123q-86 9 -142 -39.5t-73 -132.5q-7 -50 14 -74t78 -35q75 -7 132 40 t69 118z" />
<glyph horiz-adv-x="653" d="M96 922h639l-22 -154l-539 -768h-248l524 729h-389z" />
<glyph horiz-adv-x="719" d="M295 -12q-151 0 -235.5 91.5t-61.5 227.5q24 139 162 213q-57 69 -35 195q17 95 98.5 157t194.5 62q127 0 198.5 -78.5t51.5 -193.5q-21 -117 -95 -166q106 -93 78 -242q-20 -115 -120 -190.5t-236 -75.5zM369 567q47 0 78.5 33.5t31.5 81.5q1 28 -17.5 45.5t-47.5 17.5 q-48 0 -79.5 -33.5t-31.5 -82.5q0 -27 18.5 -44.5t47.5 -17.5zM303 168q61 0 103 46.5t40 109.5q2 43 -25.5 69.5t-72.5 26.5q-61 0 -101 -42.5t-40 -107.5q0 -43 26.5 -72.5t69.5 -29.5z" />
<glyph horiz-adv-x="713" d="M424 934q150 0 238.5 -102t62.5 -250q-16 -89 -94 -185l-371 -397h-254l294 303h-9q-58 0 -108 18.5t-88.5 56.5t-54.5 104.5t-1 154.5q23 127 136.5 212t248.5 85zM526 633q10 50 -15.5 77t-86.5 27q-65 0 -120.5 -43t-67.5 -110q-10 -55 15 -87t81 -32q76 0 128.5 45 t65.5 123z" />
<glyph horiz-adv-x="764" d="M425 602q-166 0 -243 137.5t-37 361.5q35 204 144 325.5t257 121.5q165 0 244 -138.5t39 -361.5q-35 -202 -145.5 -324t-258.5 -122zM417 807q71 0 130 79t83 215q19 119 0.5 180.5t-71.5 61.5q-73 0 -131 -78.5t-82 -216.5q-21 -118 -2 -179.5t73 -61.5z" />
<glyph horiz-adv-x="440" d="M159 614l127 721h-127l35 201h334l-162 -922h-207z" />
<glyph horiz-adv-x="707" d="M770 1239q-18 -101 -96.5 -215.5t-187.5 -208.5h240l-34 -201h-656v57q161 131 269.5 232t163 170t77 112.5t29.5 85.5q6 31 1 51.5t-17 27.5t-27.5 10t-30.5 -1q-67 -3 -106 -47.5t-41 -87.5l-207 25q16 134 117 217.5t239 83.5q144 0 217.5 -87.5t49.5 -223.5z" />
<glyph horiz-adv-x="670" d="M724 1261q-16 -93 -86 -150q95 -90 70 -235q-21 -115 -118.5 -194.5t-223.5 -79.5q-138 0 -220.5 82.5t-62.5 199.5l211 -22q-6 -30 12 -44t50 -14q55 0 98.5 39.5t54.5 96.5q6 33 -12.5 42t-69.5 9h-106l33 196h69q38 0 73 33.5t42 77.5q4 24 -9.5 36.5t-39.5 12.5 q-39 0 -70 -21t-37 -46l-204 28q19 110 102.5 175t198.5 65q127 0 197.5 -80.5t47.5 -206.5z" />
<glyph horiz-adv-x="760" d="M827 1536l-93 -527h74l-36 -200h-73l-34 -195h-209l34 195h-435l20 131l477 596h275zM366 1009h159l50 283z" />
<glyph horiz-adv-x="774" d="M847 1343h-390l-48 -138q65 42 156 42q130 0 197.5 -89t41.5 -241q-25 -142 -128 -226.5t-238 -84.5q-136 0 -230.5 76t-97.5 200l219 6q15 -81 107 -81q52 0 95 44t56 119q9 48 -9 71.5t-58 23.5t-84.5 -24t-73.5 -58l-229 10l198 545h551z" />
<glyph horiz-adv-x="711" d="M552 1237q40 -5 83 -30.5t80.5 -66.5t55 -105t3.5 -136q-25 -129 -139.5 -217.5t-243.5 -77.5q-153 9 -240 106.5t-61 243.5q13 74 94 186l370 396h252l-285 -294q9 -1 31 -5zM579 952q16 104 -78 123q-86 9 -142 -39.5t-73 -132.5q-7 -50 14 -74t78 -35q75 -7 132 40 t69 118z" />
<glyph horiz-adv-x="653" d="M204 1536h639l-22 -154l-539 -768h-248l524 729h-389z" />
<glyph horiz-adv-x="719" d="M403 602q-151 0 -235.5 91.5t-61.5 227.5q24 139 162 213q-57 69 -35 195q17 95 98.5 157t194.5 62q127 0 198.5 -78.5t51.5 -193.5q-21 -117 -95 -166q106 -93 78 -242q-20 -115 -120 -190.5t-236 -75.5zM477 1181q47 0 78.5 33.5t31.5 81.5q1 28 -17.5 45.5t-47.5 17.5 q-48 0 -79.5 -33.5t-31.5 -82.5q0 -27 18.5 -44.5t47.5 -17.5zM411 782q61 0 103 46.5t40 109.5q2 43 -25.5 69.5t-72.5 26.5q-61 0 -101 -42.5t-40 -107.5q0 -43 26.5 -72.5t69.5 -29.5z" />
<glyph horiz-adv-x="713" d="M532 1548q150 0 238.5 -102t62.5 -250q-16 -89 -94 -185l-371 -397h-254l294 303h-9q-58 0 -108 18.5t-88.5 56.5t-54.5 104.5t-1 154.5q23 127 136.5 212t248.5 85zM634 1247q10 50 -15.5 77t-86.5 27q-65 0 -120.5 -43t-67.5 -110q-10 -55 15 -87t81 -32q76 0 128.5 45 t65.5 123z" />
<glyph horiz-adv-x="618" d="M-23 -373l205 676h336l-360 -676h-181z" />
<glyph horiz-adv-x="625" d="M389 649q-90 0 -143.5 67t-36.5 158q12 70 72 120t131 50q90 0 144 -66t38 -157q-12 -70 -72.5 -121t-132.5 -51zM-53 -373l205 676h335l-360 -676h-180z" />
<glyph horiz-adv-x="618" d="M-23 -373l205 676h336l-360 -676h-181z" />
<glyph horiz-adv-x="625" d="M389 649q-90 0 -143.5 67t-36.5 158q12 70 72 120t131 50q90 0 144 -66t38 -157q-12 -70 -72.5 -121t-132.5 -51zM-53 -373l205 676h335l-360 -676h-180z" />
<glyph horiz-adv-x="1079" d="M262 375q91 0 145 -67t37 -158q-10 -58 -54 -103l-273 -420h-183l200 385q-44 31 -64.5 81.5t-10.5 109.5q13 71 73 121.5t130 50.5zM776 375q91 0 145 -67t37 -158q-10 -58 -54 -103l-273 -420h-182l199 385q-44 31 -64.5 81.5t-10.5 109.5q13 71 73 121.5t130 50.5z " />
<glyph horiz-adv-x="1049" d="M113 860l360 676h180l-204 -676h-336zM590 860l360 676h180l-204 -676h-336z" />
<glyph horiz-adv-x="1049" d="M172 860l205 676h336l-361 -676h-180zM649 860l205 676h336l-361 -676h-180z" />
<glyph horiz-adv-x="571" d="M113 860l360 676h180l-204 -676h-336z" />
<glyph horiz-adv-x="571" d="M172 860l205 676h336l-361 -676h-180z" />
<glyph horiz-adv-x="549" d="M14 -373l86 676h332l-242 -676h-176z" />
<glyph horiz-adv-x="1049" d="M113 860l360 676h180l-204 -676h-336zM590 860l360 676h180l-204 -676h-336z" />
<glyph horiz-adv-x="1049" d="M172 860l205 676h336l-361 -676h-180zM649 860l205 676h336l-361 -676h-180z" />
<glyph horiz-adv-x="571" d="M113 860l360 676h180l-204 -676h-336z" />
<glyph horiz-adv-x="571" d="M172 860l205 676h336l-361 -676h-180z" />
<glyph horiz-adv-x="549" d="M14 -373l86 676h332l-242 -676h-176z" />
<glyph d="M-406 963l184 235q-41 27 -58.5 82t1.5 133q25 61 86 103.5t123 42.5q82 0 134 -52.5t52 -124.5q0 -74 -53 -133l-256 -286h-213z" />
<glyph d="M-567 1065q-76 0 -122.5 56.5t-33.5 135.5q10 57 59.5 97.5t108.5 40.5q77 0 123 -56.5t33 -134.5q-11 -59 -59.5 -99t-108.5 -40zM-119 1065q-77 0 -123 56.5t-32 135.5q11 57 59.5 97.5t107.5 40.5q77 0 122.5 -56t31.5 -135q-11 -59 -58.5 -99t-107.5 -40z" />
<glyph d="M-188 1081q-117 0 -186.5 84.5t-47.5 202.5q17 94 98 161.5t179 67.5q114 0 181.5 -83.5t47.5 -198.5q-17 -97 -96.5 -165.5t-175.5 -68.5zM-180 1227q58 0 93.5 39.5t31.5 101.5q-3 35 -32 61.5t-67 26.5q-55 0 -90 -42.5t-30 -98.5q3 -41 29 -64.5t65 -23.5z" />
<glyph d="M-442 963l276 573h344l-432 -573h-188z" />
<glyph d="M-242 1610l-112 146l362 337l144 -184zM-305 1171q-183 0 -276 96t-60 269h201q-11 -80 30 -130t121 -50q97 0 145.5 52.5t61.5 127.5h201q-33 -188 -142.5 -276.5t-281.5 -88.5z" />
<glyph d="M-218 1618l-310 291l191 184l256 -340zM-305 1171q-183 0 -276 96t-60 269h201q-11 -80 30 -130t121 -50q97 0 145.5 52.5t61.5 127.5h201q-33 -188 -142.5 -276.5t-281.5 -88.5z" />
<glyph d="M-342 1599l27 220q182 24 182 118q0 31 -19 47.5t-48 16.5q-67 0 -119 -58l-94 177q103 75 229 75q124 0 196.5 -79.5t51.5 -204.5q-14 -72 -60.5 -128t-134.5 -77l-30 -107h-181zM-305 1171q-183 0 -276 96t-60 269h201q-11 -80 30 -130t121 -50q97 0 145.5 52.5 t61.5 127.5h201q-33 -188 -142.5 -276.5t-281.5 -88.5z" />
<glyph d="M-102 1606q-114 0 -165 80q-4 6 -19 26.5t-21.5 27t-21 14.5t-31.5 8q-41 0 -72 -45t-42 -108l-160 24q25 143 99 226t184 83q39 0 69.5 -12.5t46 -27t33.5 -37.5q4 -6 15.5 -22.5t17 -22.5t16 -16t21 -13.5t24.5 -3.5q43 0 71.5 42.5t39.5 110.5l162 -24 q-24 -140 -94 -225t-173 -85zM-319 1171q-183 0 -276 96t-60 269h201q-11 -80 30 -130t121 -50q97 0 145.5 52.5t61.5 127.5h201q-33 -188 -142.5 -276.5t-281.5 -88.5z" />
<glyph d="M-170 1626l-112 146l364 337l142 -184zM-479 1143l-135 92l313 301h203l219 -301l-151 -92l-191 192z" />
<glyph d="M-129 1634l-307 291l190 184l254 -340zM-461 1143l-135 92l314 301h202l219 -301l-151 -92l-191 192z" />
<glyph d="M-256 1616l25 219q78 10 125.5 48.5t56.5 94.5q11 52 -45 52q-72 0 -139 -70l-95 176q102 76 228 76q125 0 197.5 -80t50.5 -205q-30 -165 -195 -205l-31 -106h-178zM-467 1143l-135 92l313 301h203l219 -301l-151 -92l-191 192z" />
<glyph d="M-66 1622q-144 0 -192 143q-21 13 -35 13q-42 0 -73.5 -45t-43.5 -109l-180 25q25 142 97 225.5t175 83.5q77 0 126.5 -40.5t70.5 -102.5q30 -13 37 -13q42 0 70.5 42.5t41.5 111.5l181 -25q-24 -140 -95 -224.5t-180 -84.5zM-520 1143l-136 92l314 301h203l219 -301 l-152 -92l-190 192z" />
</font>
</defs>
</svg>
