<svg xmlns="http://www.w3.org/2000/svg" viewbox="0 0 98.9 98.9">
  <path d="M49.4 98.9C22.1 98.9 0 76.7 0 49.4S22.1 0 49.4 0c27.3 0 49.4 22.1 49.4 49.4.1 27.3-22.1 49.5-49.4 49.5z" fill="#e5405c" class="fill-theme-base5 stroke-none" />
  <path d="M59.3 39.8c-.1.1-.2.1-.3 0-1.8-2.3-3.8-3.6-6.4-3.9-4-.5-7.3 2.1-7.7 6.2-.3 2.7.9 4.9 3.7 7.1.1.1.1.2 0 .3L39 57.8c-.1.1-.2.1-.2 0-6.8-5.3-9.7-11-8.9-17.9C31.3 28.1 41 20.4 54.8 22c5.6.6 10.6 3.3 15.5 7.8l-11 10z" fill="#1c154d" class="fill-theme-complement9 stroke-none" />
  <path d="M68.9 58.6c-1.4 12.6-11.3 19.8-25.6 18.2-6.2-.7-11.1-3.6-15.5-8.8l10.9-9.7c.1-.1.2-.1.3 0 1.8 2.7 4 4.2 6.6 4.5 4.3.5 7.4-1.8 7.8-5.4.4-3-1-5.7-4.3-8.1-.1-.1-.1-.2 0-.3l9.8-8.8c.1-.1.2-.1.2 0C66.5 45 69.8 51 68.9 58.6z" fill="#eeefea" class="fill-theme-complement0 stroke-none" />
</svg>
