<svg viewBox="0 0 150 132">
    <path d="M75,98.8546 C47.702,98.8546 25.573,76.7256 25.573,49.4276 C25.573,22.1296 47.702,0.0006 75,0.0006 C102.298,0.0006 124.428,22.1296 124.428,49.4276 C124.428,76.7256 102.298,98.8546 75,98.8546" id="Fill-1" fill="#E5405C"  />
    <path d="M84.8643,39.8126 C84.7873,39.8826 84.6673,39.8676 84.6033,39.7866 C82.7873,37.4556 80.7593,36.1616 78.1763,35.8646 C74.1643,35.4026 70.9153,37.9836 70.4433,42.0836 C70.1353,44.7626 71.2963,46.9906 74.1393,49.2246 C74.2273,49.2936 74.2373,49.4276 74.1523,49.5006 L64.5783,57.8216 C64.5113,57.8786 64.4093,57.8796 64.3413,57.8256 C57.5613,52.5376 54.6673,46.7816 55.4603,39.8976 C56.8233,28.0526 66.5663,20.4026 80.3253,21.9856 C85.8843,22.6256 90.9393,25.2386 95.8613,29.7756 L84.8643,39.8126 Z" id="Fill-3" fill="#1C154D" />
    <path d="M94.4844,58.6065 C93.0374,71.1815 83.1504,78.4455 68.8474,76.7985 C62.6494,76.0855 57.7174,73.2105 53.3354,67.9975 L64.2804,58.3285 C64.3604,58.2565 64.4854,58.2785 64.5454,58.3685 C66.3264,61.0515 68.5124,62.5425 71.1894,62.8505 C75.4714,63.3435 78.6014,61.0255 79.0094,57.4725 C79.3604,54.4285 77.9694,51.8085 74.6914,49.3305 C74.6024,49.2635 74.5904,49.1305 74.6734,49.0555 L84.5054,40.2085 C84.5674,40.1525 84.6634,40.1465 84.7324,40.1925 C92.1214,45.0095 95.3604,50.9945 94.4844,58.6065" id="Fill-5" fill="#EEEFEA" />
    <path d="M0.7153,127.6036 L1.7063,127.6356 C1.9833,127.6446 2.2443,127.8136 2.3193,128.0816 C2.6203,129.1436 4.0423,129.8726 5.9393,129.8726 C7.7023,129.8726 9.1993,129.1886 9.1993,127.8256 C9.1993,124.7536 0.2343,127.1606 0.2343,122.0236 C0.2343,119.9966 1.7113,118.0816 5.6363,118.0816 C9.0533,118.0816 10.7973,119.4876 11.1573,121.4886 C11.2333,121.9126 10.9063,122.3076 10.4763,122.3076 L9.4653,122.3076 C9.1733,122.3076 8.9133,122.1236 8.8263,121.8446 C8.5313,120.9066 7.3333,120.2426 5.5983,120.2426 C3.7783,120.2426 2.5833,120.9446 2.5833,122.0236 C2.5833,124.5636 11.5123,122.7076 11.5503,127.8056 C11.5503,130.1186 9.6533,132.0336 5.8633,132.0336 C2.4923,132.0336 0.4413,130.5636 0.0133,128.4396 C-0.0747,128.0006 0.2683,127.5886 0.7153,127.6036" id="Fill-7" fill="#EEEFEA" />
    <path d="M34.7573,120.5079 L30.5143,120.5079 L30.5143,131.0899 C30.5143,131.4639 30.2113,131.7679 29.8363,131.7679 L28.8593,131.7679 C28.4853,131.7679 28.1813,131.4639 28.1813,131.0899 L28.1813,120.5079 L23.9293,120.5079 C23.5543,120.5079 23.2513,120.2039 23.2513,119.8299 L23.2513,119.0249 C23.2513,118.6509 23.5543,118.3469 23.9293,118.3469 L34.7573,118.3469 C35.1323,118.3469 35.4353,118.6509 35.4353,119.0249 L35.4353,119.8299 C35.4353,120.2039 35.1323,120.5079 34.7573,120.5079" id="Fill-10" fill="#EEEFEA" />
    <path d="M49.9756,120.5079 L49.9756,124.1279 L55.1186,124.1279 C55.4936,124.1279 55.7966,124.4309 55.7966,124.8059 L55.7966,125.6119 C55.7966,125.9869 55.4936,126.2889 55.1186,126.2889 L49.9756,126.2889 L49.9756,129.6069 L56.7276,129.6069 C57.1016,129.6069 57.4056,129.9099 57.4056,130.2839 L57.4056,131.0899 C57.4056,131.4639 57.1016,131.7679 56.7276,131.7679 L48.3206,131.7679 C47.9466,131.7679 47.6426,131.4639 47.6426,131.0899 L47.6426,119.0249 C47.6426,118.6509 47.9466,118.3469 48.3206,118.3469 L56.7276,118.3469 C57.1016,118.3469 57.4056,118.6509 57.4056,119.0249 L57.4056,119.8299 C57.4056,120.2039 57.1016,120.5079 56.7276,120.5079 L49.9756,120.5079 Z" id="Fill-12" fill="#EEEFEA" />
    <path d="M79.8369,130.2843 L79.8369,131.0903 C79.8369,131.4643 79.5329,131.7673 79.1589,131.7673 L70.5999,131.7673 C70.2259,131.7673 69.9219,131.4643 69.9219,131.0903 L69.9219,119.0243 C69.9219,118.6503 70.2259,118.3463 70.5999,118.3463 L71.5769,118.3463 C71.9519,118.3463 72.2549,118.6503 72.2549,119.0243 L72.2549,129.6063 L79.1589,129.6063 C79.5329,129.6063 79.8369,129.9103 79.8369,130.2843" id="Fill-14" fill="#EEEFEA" />
    <path d="M102.0674,130.2843 L102.0674,131.0903 C102.0674,131.4643 101.7644,131.7673 101.3894,131.7673 L92.8314,131.7673 C92.4574,131.7673 92.1534,131.4643 92.1534,131.0903 L92.1534,119.0243 C92.1534,118.6503 92.4574,118.3463 92.8314,118.3463 L93.8084,118.3463 C94.1824,118.3463 94.4864,118.6503 94.4864,119.0243 L94.4864,129.6063 L101.3894,129.6063 C101.7644,129.6063 102.0674,129.9103 102.0674,130.2843" id="Fill-16" fill="#EEEFEA" />
    <path d="M118.0264,126.7257 L122.5764,126.7257 L120.3014,120.4697 L118.0264,126.7257 Z M123.3714,128.8867 L117.2304,128.8867 L116.3144,131.3277 C116.2144,131.5917 115.9624,131.7677 115.6794,131.7677 L113.8564,131.7677 L118.3804,118.8017 C118.4744,118.5297 118.7314,118.3467 119.0204,118.3467 L121.5824,118.3467 C121.8714,118.3467 122.1284,118.5297 122.2224,118.8027 L126.7264,131.7677 L124.9064,131.7677 C124.6234,131.7677 124.3694,131.5907 124.2704,131.3247 L123.3714,128.8867 Z" id="Fill-18" fill="#EEEFEA" />
    <path d="M147.6689,122.1368 C147.6689,121.0758 146.9849,120.5078 145.6209,120.5078 L141.3379,120.5078 L141.3379,124.4308 L145.6209,124.4308 C146.9669,124.4308 147.6689,123.8638 147.6689,122.8008 L147.6689,122.1368 Z M147.5539,126.2698 L149.7619,131.2308 C149.8739,131.4828 149.6899,131.7668 149.4139,131.7668 L148.0059,131.7668 C147.7419,131.7668 147.5029,131.6138 147.3919,131.3748 L145.1659,126.5918 L141.3379,126.5918 L141.3379,131.0888 C141.3379,131.4628 141.0339,131.7668 140.6599,131.7668 L139.6839,131.7668 C139.3089,131.7668 139.0059,131.4628 139.0059,131.0888 L139.0059,119.0248 C139.0059,118.6508 139.3089,118.3468 139.6839,118.3468 L145.4699,118.3468 C148.3319,118.3468 149.9999,119.7868 149.9999,122.2138 L149.9999,122.7248 C149.9999,124.4888 149.1279,125.7398 147.5539,126.2698 Z" id="Fill-20" fill="#EEEFEA" />
</svg>
