<?xml version="1.0" standalone="no"?>
<!DOCTYPE svg PUBLIC "-//W3C//DTD SVG 1.1//EN" "http://www.w3.org/Graphics/SVG/1.1/DTD/svg11.dtd" >
<svg xmlns="http://www.w3.org/2000/svg">
<metadata></metadata>
<defs>
<font id="radnikaregular" horiz-adv-x="1163" >
<font-face units-per-em="2048" ascent="1638" descent="-410" />
<missing-glyph horiz-adv-x="468" />
<glyph unicode="&#x3c;&#x2d;" horiz-adv-x="2326" d="M168 639l917 508v-152l-550 -290h1624v-140h-1624l550 -291v-151z" />
<glyph unicode="&#x2d;&#x3e;" horiz-adv-x="2326" d="M168 565v140h1624l-551 290v152l918 -508l-918 -516v151l551 291h-1624z" />
<glyph unicode="fi" horiz-adv-x="1144" d="M31 920v129h184v112q0 115 81.5 183.5t197.5 68.5h122v-145h-104q-125 0 -125 -113v-106h582v-1049h-170v920h-412v-920h-172v920h-184zM799 1212v201h170v-201h-170z" />
<glyph unicode="fl" horiz-adv-x="1142" d="M31 920v129h184v112q0 115 81.5 183.5t197.5 68.5h145v-145h-127q-125 0 -125 -113v-106h252v-129h-252v-920h-172v920h-184zM807 0v1413h170v-1413h-170z" />
<glyph unicode=" "  horiz-adv-x="468" />
<glyph unicode="&#x09;" horiz-adv-x="468" />
<glyph unicode="&#xa0;" horiz-adv-x="468" />
<glyph unicode="!" horiz-adv-x="538" d="M164 0v209h211v-209h-211zM176 1413h186l-28 -1022h-129z" />
<glyph unicode="&#x22;" horiz-adv-x="739" d="M137 864v549h148v-549h-148zM459 864v549h147v-549h-147z" />
<glyph unicode="#" horiz-adv-x="1292" d="M72 436v119h258l65 324h-241v114h266l88 420h125l-86 -405h313l86 405h125l-84 -416h234v-118h-258l-64 -324h240v-115h-267l-90 -440h-127l90 426h-313l-88 -426h-127l88 436h-233zM457 555h313l66 324h-314z" />
<glyph unicode="$" horiz-adv-x="1097" d="M55 344l148 86q56 -143 155.5 -213t223.5 -70q121 0 195.5 60.5t74.5 165.5q0 48 -18 88t-43.5 67.5t-72 55t-84 44t-99.5 40.5q-165 64 -235 110q-163 111 -165 291q0 146 90.5 241t241.5 117v150h149v-147q211 -22 357 -209l-111 -111q-131 168 -315 168 q-103 0 -167.5 -52t-64.5 -139q0 -49 20.5 -87.5t73.5 -73t87 -51.5t118 -53q7 -3 11 -5q41 -17 65.5 -27t63.5 -28.5t63 -32.5t56.5 -36.5t53 -43.5t42.5 -50t34.5 -59.5t20.5 -68.5t8 -80q0 -171 -116 -282.5t-300 -122.5v-148h-149v156q-136 26 -244.5 113.5 t-167.5 236.5z" />
<glyph unicode="%" horiz-adv-x="1533" d="M90 1110q0 42 7.5 84.5t26 87t46.5 78t74 55t104 21.5q65 0 117 -29t83 -76.5t47.5 -104t16.5 -116.5t-16 -116t-46.5 -102.5t-81.5 -75t-114 -28.5q-59 0 -106 21.5t-76 55t-48 77.5t-26.5 85.5t-7.5 82.5zM227 1110q0 -76 31.5 -133t91.5 -57q57 0 89 58.5t32 133.5 q0 79 -32 135t-91 56t-90 -57t-31 -136zM299 2l756 1409h164l-754 -1409h-166zM922 319q0 42 7.5 84.5t26 87.5t46.5 78.5t74 55.5t104 22q65 0 116.5 -29t82.5 -77t47 -105t16 -117t-15.5 -115.5t-46 -102.5t-81 -75t-113.5 -28q-59 0 -106 21t-76 54.5t-48 77t-26.5 85 t-7.5 83.5zM1057 319q0 -77 32.5 -133.5t94.5 -56.5q56 0 87.5 58.5t31.5 134.5q0 79 -32 135.5t-91 56.5t-91 -58t-32 -137z" />
<glyph unicode="&#x26;" horiz-adv-x="1351" d="M86 369q0 144 86.5 244t239.5 155q-34 33 -58 60t-53 69.5t-45 91.5t-16 101q0 81 29.5 146.5t80 106.5t114 62.5t134.5 21.5q147 0 245.5 -87t98.5 -242q0 -105 -70 -192.5t-223 -170.5l287 -297l235 387l136 -84l-260 -417l311 -324h-238l-176 186 q-79 -105 -179.5 -158t-238.5 -53q-120 0 -218.5 44.5t-160 135.5t-61.5 214zM264 371q0 -110 80.5 -181t185.5 -71q97 0 167 45t132 141l-333 354q-114 -49 -173 -117t-59 -171zM412 1090q0 -108 137 -250q123 62 177 123t54 133q0 82 -51.5 137t-130.5 55 q-80 0 -133 -55.5t-53 -142.5z" />
<glyph unicode="'" horiz-adv-x="421" d="M137 893v549h148v-549h-148z" />
<glyph unicode="(" horiz-adv-x="636" d="M147 618q0 238 60.5 480t177.5 405h170q-117 -192 -178.5 -419t-61.5 -466q0 -498 242 -888h-172q-115 162 -176.5 406.5t-61.5 481.5z" />
<glyph unicode=")" horiz-adv-x="636" d="M78 -270q241 389 241 888q0 240 -61 466.5t-178 418.5h170q117 -163 177 -405t60 -480q0 -237 -61 -481.5t-176 -406.5h-172z" />
<glyph unicode="*" horiz-adv-x="622" d="M66 1079l172 80l-172 80l55 96l155 -112l-18 190h109l-19 -190l156 112l55 -96l-172 -80l172 -80l-55 -94l-156 111l19 -191h-109l18 191l-155 -111z" />
<glyph unicode="+" horiz-adv-x="1312" d="M150 444v148h434v444h147v-444h432v-148h-432v-444h-147v444h-434z" />
<glyph unicode="," horiz-adv-x="540" d="M117 -322l98 322h-84v229h234v-229h-3l-141 -322h-104z" />
<glyph unicode="-" horiz-adv-x="1122" d="M188 444v148h748v-148h-748z" />
<glyph unicode="." horiz-adv-x="452" d="M119 0v229h233v-229h-233z" />
<glyph unicode="/" horiz-adv-x="946" d="M82 -156l614 1569h168l-614 -1569h-168z" />
<glyph unicode="0" horiz-adv-x="1116" d="M72 707q0 108 14 206.5t48.5 195.5t87.5 168t138 115t193 44q101 0 183.5 -40t139 -108.5t95 -162.5t56 -200t17.5 -223q0 -145 -28.5 -272t-84.5 -229t-149.5 -161.5t-214.5 -59.5q-112 0 -199.5 44t-142 114.5t-90 168t-49.5 195.5t-14 205zM246 707q0 -67 5 -128 t17.5 -127t36 -119.5t57 -97.5t84.5 -68t115 -24q72 0 126.5 36.5t86 92.5t51.5 134.5t26.5 150.5t6.5 152q0 82 -7 154t-27 149t-52.5 131.5t-88.5 89.5t-130 35q-62 0 -112 -24t-82.5 -67t-55.5 -96t-35 -119t-17 -127t-5 -128z" />
<glyph unicode="1" horiz-adv-x="804" d="M76 1036v176l344 201h162v-1413h-176v1231z" />
<glyph unicode="2" horiz-adv-x="1118" d="M113 0v162q0 88 24 161.5t65 125t94.5 95t112 77t117 64.5t112 64t94.5 70.5t65 88.5t24 112q0 114 -70 186t-180 72q-125 0 -199 -91t-67 -243l-178 19q3 217 121.5 343t320.5 126q193 0 311.5 -115t118.5 -295q0 -78 -24.5 -144t-65.5 -113.5t-94 -88.5t-112 -74 t-118 -64.5t-112 -66t-94 -72.5t-65.5 -89.5t-24.5 -112.5l-10 -43h747v-154h-913z" />
<glyph unicode="3" horiz-adv-x="1114" d="M72 410l168 14q0 -134 92.5 -212.5t224.5 -78.5q130 0 225 74.5t95 202.5t-87.5 194t-218.5 66h-98v155h98q103 0 165.5 59t62.5 163q0 106 -75 168.5t-192 62.5t-192 -66.5t-76 -177.5l-166 17q0 177 121.5 280t312.5 103q188 0 311.5 -99.5t123.5 -271.5 q0 -113 -60.5 -194.5t-144.5 -104.5v-14q129 -24 202.5 -111.5t77.5 -235.5q0 -136 -67 -233.5t-175 -143.5t-243 -46t-243 46.5t-175 145.5t-67 238z" />
<glyph unicode="4" horiz-adv-x="1107" d="M59 369v135l629 909h170v-893h223v-151h-223v-369h-170v369h-629zM233 520h455v670z" />
<glyph unicode="5" horiz-adv-x="1112" d="M100 377l162 51q28 -129 116 -212t195 -83q130 0 213.5 94.5t83.5 239.5q0 138 -84.5 227.5t-214.5 89.5q-77 0 -152.5 -42.5t-115.5 -108.5l-156 63l125 717h719v-153h-588l-77 -443l6 -2q42 49 123 82t157 33q194 0 318.5 -131.5t124.5 -335.5q0 -211 -136.5 -347 t-345.5 -136q-168 0 -301.5 112.5t-171.5 284.5z" />
<glyph unicode="6" horiz-adv-x="1097" d="M72 606q-1 77 2.5 144t15.5 154.5t33 158t59.5 142t91 120t131.5 79t177 30.5q314 0 436 -295l-146 -66q-40 98 -107.5 151.5t-178.5 53.5q-82 0 -145 -36.5t-99 -90.5t-59 -126.5t-30.5 -133.5t-8.5 -123q113 143 327 143q204 0 329.5 -125.5t125.5 -332.5 q0 -128 -61 -236t-170 -171.5t-242 -63.5q-103 0 -188 35.5t-151.5 108.5t-103.5 195t-38 285zM260 455q0 -138 82 -229t213 -91q132 0 217.5 88.5t85.5 225.5q0 138 -85.5 225.5t-217.5 87.5t-213.5 -84.5t-81.5 -222.5z" />
<glyph unicode="7" horiz-adv-x="923" d="M41 1260v153h846v-170q-101 -113 -177.5 -241.5t-123 -245.5t-79 -256.5t-47.5 -250t-26 -249.5h-186q14 130 32 241.5t54 253.5t84 263.5t124.5 253t172.5 241.5v7h-674z" />
<glyph unicode="8" horiz-adv-x="1112" d="M70 387q0 133 78.5 237.5t203.5 133.5v8q-92 31 -151.5 117.5t-59.5 189.5q0 157 117 259t297 102q181 0 298.5 -102t117.5 -259q0 -106 -59.5 -192t-151.5 -115v-8q124 -32 203 -136.5t79 -234.5q0 -179 -136.5 -293t-348.5 -114q-213 0 -350 114t-137 293zM244 408 q0 -124 88 -204.5t223 -80.5q134 0 221.5 80.5t87.5 204.5q0 121 -87.5 199.5t-221.5 78.5q-135 0 -223 -78.5t-88 -199.5zM313 1057q0 -105 70 -173.5t178 -68.5q106 0 176 68t70 172q0 103 -70 170t-176 67q-108 0 -178 -66.5t-70 -168.5z" />
<glyph unicode="9" horiz-adv-x="1097" d="M72 961q0 128 61 236t170 171.5t242 63.5q103 0 188 -35.5t151.5 -109t103.5 -195.5t38 -285q1 -77 -2.5 -144t-15.5 -154.5t-33 -157.5t-59.5 -142t-91 -120t-131.5 -78.5t-177 -30.5q-314 0 -436 294l145 66q40 -98 108 -151.5t179 -53.5q82 0 145 36.5t99 90.5 t59 126.5t30.5 133.5t8.5 123q-113 -143 -328 -143q-204 0 -329 126t-125 333zM240 965q0 -138 85.5 -226t217.5 -88t213.5 84.5t81.5 222.5t-82 229t-213 91q-132 0 -217.5 -88.5t-85.5 -224.5z" />
<glyph unicode=":" horiz-adv-x="473" d="M121 0v229h233v-229h-233zM121 762v229h233v-229h-233z" />
<glyph unicode=";" horiz-adv-x="550" d="M119 -322l98 322h-84v229h234v-229h-2l-142 -322h-104zM133 762v229h234v-229h-234z" />
<glyph unicode="&#x3c;" horiz-adv-x="1198" d="M109 674l929 514v-160l-647 -354l647 -350v-164z" />
<glyph unicode="=" horiz-adv-x="1056" d="M141 258v152h774v-152h-774zM141 627v151h774v-151h-774z" />
<glyph unicode="&#x3e;" horiz-adv-x="1208" d="M184 160v164l647 350l-647 354v160l930 -514z" />
<glyph unicode="?" horiz-adv-x="956" d="M66 1061q1 108 53 193.5t143.5 132.5t204.5 47q114 0 205.5 -39.5t148 -123t56.5 -200.5q0 -69 -18 -121t-47.5 -83t-64.5 -55.5t-70 -43.5t-64.5 -40.5t-47.5 -54.5t-18 -77v-209h-150v211q0 61 18 106t46.5 71.5t63.5 47.5t70 41t63.5 45t46.5 66.5t18 97.5 q0 103 -69.5 159t-176.5 56q-105 0 -179.5 -62.5t-74.5 -164.5h-157zM371 0v209h209v-209h-209z" />
<glyph unicode="@" horiz-adv-x="1918" d="M86 535q0 185 67 351t181.5 285.5t274.5 190t339 70.5q180 0 344 -71t282.5 -190t188.5 -282.5t70 -341.5q0 -88 -16.5 -173t-52.5 -163.5t-87 -137.5t-125.5 -94.5t-162.5 -35.5q-133 0 -201 75.5t-51 206.5q-57 -79 -142 -121.5t-176 -42.5q-150 0 -231.5 106.5 t-81.5 270.5q0 79 19.5 162t59 160.5t93 138t128.5 97t159 36.5q104 0 178.5 -52t89.5 -144l29 147h157l-135 -682q-24 -111 6 -158t111 -49q72 -1 128.5 41t88 111.5t47.5 147t16 157.5q0 195 -98.5 363.5t-267 268t-365.5 99.5t-361 -98.5t-257.5 -269t-93.5 -375.5 q0 -149 53 -284.5t145 -235.5t224.5 -159t283.5 -59q114 0 227 35l52 -145q-137 -45 -275 -45q-179 0 -339 69t-274.5 187.5t-181.5 283.5t-67 349zM653 442q0 -106 48.5 -165.5t142.5 -59.5q79 0 145 42t106.5 108t62.5 141.5t22 148.5q0 104 -48.5 163t-142.5 59 q-79 0 -145 -41.5t-106.5 -107t-62.5 -140.5t-22 -148z" />
<glyph unicode="A" horiz-adv-x="1202" d="M8 0l473 1413h244l471 -1413h-192l-101 319h-602l-100 -319h-193zM348 469h510l-252 805h-6z" />
<glyph unicode="B" horiz-adv-x="1320" d="M190 0v1413h537q205 0 321.5 -101t116.5 -276q0 -62 -21.5 -117t-54.5 -90.5t-68.5 -58t-68.5 -29.5v-8q114 -8 198.5 -105t84.5 -239q0 -181 -118 -285t-314 -104h-613zM369 164h413q137 0 206 63.5t69 175.5q0 109 -80.5 173.5t-194.5 64.5h-413v-477zM369 797h338 q115 0 195.5 64t80.5 173q0 221 -260 221h-354v-458z" />
<glyph unicode="C" horiz-adv-x="1345" d="M86 707q0 334 173.5 531.5t467.5 197.5q193 0 346.5 -103.5t214.5 -279.5l-155 -68q-42 134 -149 210.5t-259 76.5q-214 0 -339.5 -150t-125.5 -405q0 -262 127.5 -418t341.5 -156q138 0 247 78.5t159 210.5l153 -67q-60 -176 -213 -280.5t-348 -104.5q-295 0 -468 197 t-173 530z" />
<glyph unicode="D" horiz-adv-x="1366" d="M190 0v1413h373q348 0 532.5 -184.5t184.5 -532.5q0 -334 -187 -515t-532 -181h-371zM371 164h166q284 0 422.5 134t138.5 409q0 274 -134 409t-405 135h-188v-1087z" />
<glyph unicode="E" horiz-adv-x="1218" d="M190 0v1413h922v-158h-741v-469h653v-157h-653v-471h741v-158h-922z" />
<glyph unicode="F" horiz-adv-x="1161" d="M190 0v1413h924v-158h-743v-469h655v-157h-655v-629h-181z" />
<glyph unicode="G" horiz-adv-x="1495" d="M86 711q0 149 40.5 278.5t118 230t203.5 158.5t285 58q201 0 347 -95.5t229 -281.5l-162 -60q-129 273 -418 273q-96 0 -175 -29.5t-132.5 -81t-90 -122.5t-53 -152t-16.5 -172q0 -93 17 -176.5t54 -156t90 -125t129.5 -82.5t168.5 -30q188 0 309.5 115.5t130.5 317.5 h-321v149h487v-727h-141l-6 246q-59 -112 -182 -189t-293 -77q-146 0 -265 57.5t-195.5 157.5t-117.5 232t-41 284z" />
<glyph unicode="H" horiz-adv-x="1433" d="M190 0v1413h181v-627h692v627h180v-1413h-180v629h-692v-629h-181z" />
<glyph unicode="I" horiz-adv-x="561" d="M190 0v1413h181v-1413h-181z" />
<glyph unicode="J" horiz-adv-x="751" d="M29 0v166q92 -27 153 -27q250 0 250 346v928h178v-936q0 -234 -103.5 -365.5t-318.5 -131.5q-89 0 -159 20z" />
<glyph unicode="K" horiz-adv-x="1273" d="M190 0v1413h181v-668l602 668h223l-526 -567l596 -846h-232l-479 723l-184 -199v-524h-181z" />
<glyph unicode="L" horiz-adv-x="993" d="M190 0v1413h181v-1255h604v-158h-785z" />
<glyph unicode="M" horiz-adv-x="1746" d="M190 0v1413h289l393 -1237l394 1237h288v-1413h-178v1239h-8l-391 -1239h-209l-391 1239h-8v-1239h-179z" />
<glyph unicode="N" horiz-adv-x="1497" d="M190 0v1413h242l684 -1194h10v1194h181v-1413h-246l-684 1204h-6v-1204h-181z" />
<glyph unicode="O" horiz-adv-x="1456" d="M86 707q0 333 174 530t469 197q294 0 468.5 -197t174.5 -530t-174.5 -530t-468.5 -197q-295 0 -469 197t-174 530zM264 707q0 -259 126 -412.5t339 -153.5q212 0 337.5 154t125.5 412q0 259 -125.5 412t-337.5 153q-214 0 -339.5 -152.5t-125.5 -412.5z" />
<glyph unicode="P" horiz-adv-x="1306" d="M190 0v1413h590q219 0 344 -116t125 -326q0 -203 -122 -314.5t-347 -111.5h-409v-545h-181zM371 705h405q149 0 222 65.5t73 200.5q0 136 -73.5 210t-221.5 74h-405v-550z" />
<glyph unicode="Q" horiz-adv-x="1464" d="M86 707q0 333 174 530t469 197q294 0 468.5 -197t174.5 -530q0 -344 -186 -543l192 -191l-102 -102l-199 203q-151 -94 -348 -94q-295 0 -469 197t-174 530zM264 707q0 -259 126 -412.5t339 -153.5q122 0 225 58l-247 250l96 98l258 -258q131 153 131 418 q0 259 -125.5 412t-337.5 153q-214 0 -339.5 -152.5t-125.5 -412.5z" />
<glyph unicode="R" horiz-adv-x="1337" d="M190 -2v1415h596q202 0 326.5 -107t124.5 -288q0 -143 -79.5 -238.5t-217.5 -130.5l342 -651h-199l-315 629h-399v-629h-179zM371 778h436q126 6 189 67.5t63 170.5q0 115 -71.5 177t-207.5 62h-409v-477z" />
<glyph unicode="S" horiz-adv-x="1097" d="M55 344l148 86q56 -143 155.5 -213t223.5 -70q121 0 195.5 60.5t74.5 165.5q0 48 -18 88t-43.5 67.5t-72 55t-84 44t-99.5 40.5q-165 64 -235 110q-163 111 -165 291q0 166 115.5 265.5t300.5 99.5q255 0 422 -213l-111 -111q-131 168 -315 168q-103 0 -167.5 -52 t-64.5 -139q0 -49 20.5 -87.5t73.5 -73t87 -51.5t118 -53q7 -3 11 -5q41 -17 65.5 -27t63.5 -28.5t63 -32.5t56.5 -36.5t53 -43.5t42.5 -50t34.5 -59.5t20.5 -68.5t8 -80q0 -181 -127.5 -294t-326.5 -113q-109 0 -207 36.5t-183 119t-133 204.5z" />
<glyph unicode="T" horiz-adv-x="1157" d="M18 1257v156h1121v-156h-469v-1257h-181v1257h-471z" />
<glyph unicode="U" horiz-adv-x="1347" d="M170 500v913h180v-921q0 -163 86 -256t238 -93t237.5 93t85.5 256v921h181v-903q0 -250 -133 -390t-371 -140t-371 137.5t-133 382.5z" />
<glyph unicode="V" horiz-adv-x="1220" d="M16 1413h191l399 -1272h4l402 1272h192l-471 -1413h-244z" />
<glyph unicode="W" horiz-adv-x="1847" d="M18 1413h185l268 -1239h6l328 1239h235l328 -1239h6l268 1239h185l-330 -1413h-240l-335 1264l-334 -1264h-240z" />
<glyph unicode="X" horiz-adv-x="1185" d="M14 0l467 707l-465 706h217l361 -571l358 571h217l-467 -706l469 -707h-217l-362 561l-361 -561h-217z" />
<glyph unicode="Y" horiz-adv-x="1345" d="M6 1413h209l455 -698l458 698h209l-577 -860v-553h-178v553z" />
<glyph unicode="Z" horiz-adv-x="1171" d="M35 0v137l870 1118h-825v158h1057v-143l-873 -1112h873v-158h-1102z" />
<glyph unicode="[" horiz-adv-x="552" d="M139 -285v1788h377v-133h-235v-1517h235v-138h-377z" />
<glyph unicode="\" horiz-adv-x="946" d="M82 1413h168l614 -1569h-168z" />
<glyph unicode="]" horiz-adv-x="552" d="M37 -147h235v1517h-235v133h377v-1788h-377v138z" />
<glyph unicode="^" horiz-adv-x="792" d="M20 612l375 799l379 -799h-166l-213 502l-209 -502h-166z" />
<glyph unicode="_" horiz-adv-x="790" d="M-2 0h795v-129h-795v129z" />
<glyph unicode="`" horiz-adv-x="460" d="M8 1364h217l219 -242h-151z" />
<glyph unicode="a" horiz-adv-x="1085" d="M92 279q0 186 187 276q24 12 52 24t65.5 24.5t65 21.5t79 24t77.5 22.5t90.5 25t90.5 24.5v6q0 103 -61.5 149t-182.5 46q-110 0 -183.5 -37.5t-129.5 -114.5l-127 88q149 211 428 211q183 0 299 -83t116 -238v-748h-159v154q-83 -86 -179.5 -131.5t-189.5 -45.5 q-150 0 -244 82.5t-94 219.5zM272 285q0 -73 51 -115.5t126 -42.5q180 0 350 197v258q-311 -91 -414 -144q-113 -60 -113 -153z" />
<glyph unicode="b" horiz-adv-x="1243" d="M176 0v1413h170v-495h6q137 151 350 151q114 0 202.5 -41.5t143 -115.5t82 -172t27.5 -216t-27.5 -216t-82 -173t-143 -116.5t-202.5 -41.5q-216 0 -350 152h-8v-129h-168zM338 524q0 -185 84.5 -291t232.5 -106q166 0 249 103.5t83 293.5q0 186 -83.5 288.5 t-248.5 102.5q-147 0 -232 -105t-85 -286z" />
<glyph unicode="c" horiz-adv-x="1030" d="M84 522q0 112 30.5 210t88.5 174t149.5 119.5t206.5 43.5q153 0 260.5 -73t155.5 -205l-146 -60q-25 91 -96.5 143t-171.5 52q-65 0 -118 -24t-87.5 -64t-58 -93t-33.5 -108.5t-10 -114.5q0 -74 17 -142t51.5 -127t96 -94.5t142.5 -35.5q101 0 173.5 53t99.5 139l139 -53 q-46 -137 -153 -211t-259 -74q-93 0 -171 29t-134 79.5t-95 119.5t-58 149t-19 168z" />
<glyph unicode="d" horiz-adv-x="1243" d="M86 524q0 118 27.5 216t82 172t143 115.5t202.5 41.5q213 0 350 -151h6v495h170v-1413h-168v129h-8q-134 -152 -350 -152q-114 0 -202.5 41.5t-143 116.5t-82 173t-27.5 216zM256 524q0 -190 83 -293.5t249 -103.5q148 0 232.5 106t84.5 291q0 181 -85 286t-232 105 q-165 0 -248.5 -102.5t-83.5 -288.5z" />
<glyph unicode="e" horiz-adv-x="1101" d="M84 522q0 87 17 166t55 149t93.5 121t136 81t179.5 30t178 -31t129.5 -82t84 -121t47.5 -143t14 -153q0 -54 -4 -72h-758q13 -156 97 -246t243 -90q164 0 283 102l102 -104q-162 -149 -385 -149q-103 0 -188 28.5t-144.5 79t-100.5 119t-60 148t-19 167.5zM256 604h594 q-6 144 -79.5 230t-209.5 86q-144 0 -219.5 -87t-85.5 -229z" />
<glyph unicode="f" horiz-adv-x="684" d="M31 918v131h192v67q0 135 82.5 216t226.5 81h125v-137h-120q-67 0 -106.5 -41.5t-39.5 -108.5v-77h266v-131h-266v-918h-170v918h-190z" />
<glyph unicode="g" horiz-adv-x="1243" d="M84 545q0 112 29.5 206t87 165.5t150 112t210.5 40.5q214 0 326 -145h8v125h172v-1033q0 -190 -128 -295.5t-349 -105.5q-168 0 -297 56.5t-174 166.5l108 78q41 -85 142 -124.5t215 -39.5q147 0 230 71t83 189v160q-56 -76 -145.5 -117t-202.5 -41t-203 42t-146.5 115 t-86 168t-29.5 206zM258 541q0 -80 19 -147t57.5 -121t104.5 -84.5t153 -30.5q162 0 240.5 99.5t78.5 266.5q0 81 -18 150.5t-55 127.5t-102 91t-152 33q-83 0 -146.5 -30t-102 -83.5t-58 -122t-19.5 -149.5z" />
<glyph unicode="h" horiz-adv-x="1159" d="M176 0v1413h170v-518h10q110 174 310 174q162 0 255 -104.5t93 -280.5v-684h-170v662q0 128 -55.5 192t-161.5 64q-121 0 -201 -86t-80 -214v-618h-170z" />
<glyph unicode="i" horiz-adv-x="522" d="M176 0v1049h170v-1049h-170zM176 1212v201h170v-201h-170z" />
<glyph unicode="j" horiz-adv-x="534" d="M-41 -223q106 0 163.5 56t57.5 149v1067h170v-1049q0 -183 -100 -274t-291 -91v142zM168 1210v203h190v-203h-190z" />
<glyph unicode="k" horiz-adv-x="1062" d="M176 0v1413h170v-815l463 451h211l-436 -426l499 -623h-211l-399 514l-127 -123v-391h-170z" />
<glyph unicode="l" horiz-adv-x="505" d="M168 0v1413h170v-1413h-170z" />
<glyph unicode="m" horiz-adv-x="1726" d="M176 0v1049h168v-146h6q44 76 116.5 121t170.5 45q97 0 172 -47.5t115 -144.5h8q57 101 131 147q72 45 179 45h5q162 -1 247 -104t85 -283v-682h-170v672q0 111 -51 178.5t-160 67.5q-121 0 -179 -84t-58 -218v-616h-170v674q0 244 -205 244q-123 0 -181.5 -84 t-58.5 -218v-616h-170z" />
<glyph unicode="n" horiz-adv-x="1159" d="M176 0v1049h170v-154h10q48 80 126 127t180 47q162 0 257 -104.5t95 -280.5v-684h-170v662q0 256 -213 256q-125 0 -205 -83.5t-80 -216.5v-618h-170z" />
<glyph unicode="o" d="M84 520q0 262 136.5 405.5t361.5 143.5q222 0 358.5 -143.5t136.5 -405.5q0 -256 -137 -399.5t-358 -143.5q-224 0 -361 143t-137 400zM252 520q0 -194 88 -293.5t242 -99.5q155 0 244 99.5t89 293.5q0 200 -88.5 301t-244.5 101q-154 0 -242 -101t-88 -301z" />
<glyph unicode="p" horiz-adv-x="1241" d="M176 -365v1414h166v-148l12 8q114 160 348 160q106 0 192.5 -41.5t143.5 -114.5t88 -172.5t31 -216.5q0 -157 -52.5 -279.5t-157.5 -195t-247 -72.5q-225 0 -352 166l-4 9v-517h-168zM328 526q0 -188 87.5 -295.5t237.5 -107.5q156 0 245 106.5t89 296.5q0 186 -89.5 292 t-244.5 106q-150 0 -237.5 -107t-87.5 -291z" />
<glyph unicode="q" horiz-adv-x="1241" d="M84 524q0 117 31 216.5t88 172.5t143.5 114.5t192.5 41.5q234 0 348 -160l12 -8v148h166v-1414h-168v517l-4 -9q-127 -166 -352 -166q-142 0 -247 72.5t-157.5 195t-52.5 279.5zM254 526q0 -190 89 -296.5t245 -106.5q150 0 237.5 107.5t87.5 295.5q0 184 -87.5 291 t-237.5 107q-155 0 -244.5 -106t-89.5 -292z" />
<glyph unicode="r" horiz-adv-x="761" d="M176 0v1049h170v-168h6q38 88 104.5 136t149.5 48q89 0 135 -18v-152q-57 12 -96 12q-15 0 -27 -2q-130 -11 -201 -125.5t-71 -316.5v-463h-170z" />
<glyph unicode="s" horiz-adv-x="968" d="M59 215l123 90q34 -73 111.5 -126t193.5 -54h8q63 -1 113 15q54 16 90 55t37 94q0 35 -14 62t-38.5 45t-59 31.5t-73.5 24t-84 20.5l-15 3q-46 11 -74 18t-70 20.5t-68 27.5t-56 36t-47 47t-28.5 60.5t-11.5 77.5q0 145 106 226t277 81q133 0 228.5 -54.5t152.5 -137.5 l-106 -97q-99 139 -271 144h-14q-87 0 -147 -36q-64 -39 -68 -106q-1 -35 17 -60.5t69.5 -47t80 -29.5t109.5 -28q13 -3 19 -5q53 -13 88.5 -23.5t80.5 -28t73.5 -39t55.5 -51.5t39.5 -71t12.5 -92q0 -103 -58 -179.5t-149.5 -113.5t-202.5 -37q-142 0 -261.5 69t-168.5 169 z" />
<glyph unicode="t" horiz-adv-x="688" d="M33 918v131h157v364h168v-364h277v-131h-277v-603q0 -98 33.5 -137t118.5 -39h125v-139h-176q-136 0 -202.5 69t-66.5 210v639h-157z" />
<glyph unicode="u" d="M150 367v682h172v-656q0 -126 55.5 -188t157.5 -62q125 0 203.5 82.5t78.5 210.5v613h170v-1049h-170v154h-16q-100 -170 -299 -170q-165 0 -258.5 103.5t-93.5 279.5z" />
<glyph unicode="v" horiz-adv-x="966" d="M35 1049h186l262 -938l265 938h184l-330 -1049h-237z" />
<glyph unicode="w" horiz-adv-x="1476" d="M31 1049h186l174 -928l268 928h154l270 -928l177 928h184l-236 -1049h-241l-230 821l-229 -821h-242z" />
<glyph unicode="x" horiz-adv-x="940" d="M18 0l353 528l-353 521h193l258 -402l260 402h193l-353 -521l353 -528h-193l-260 410l-258 -410h-193z" />
<glyph unicode="y" horiz-adv-x="929" d="M25 1049h182l262 -840h8l256 840h185l-383 -1098q-29 -84 -69.5 -143t-82 -92.5t-98.5 -52t-106 -23.5t-118 -5v142q67 0 119.5 14.5t84 33.5t58 54.5t38 60t28.5 66.5z" />
<glyph unicode="z" horiz-adv-x="931" d="M55 0v127l623 776h-602v146h805v-140l-613 -762h606v-147h-819z" />
<glyph unicode="{" horiz-adv-x="651" d="M125 553v137q62 0 91.5 23.5t29.5 103.5v461q0 106 74 180t180 74h78v-164h-66q-46 0 -77.5 -29.5t-31.5 -74.5v-445q0 -80 -14.5 -123.5t-69.5 -74.5q55 -27 69.5 -71t14.5 -128v-440q0 -45 31.5 -75t77.5 -30h66v-162h-78q-106 0 -180 74t-74 180v459q0 42 -8.5 68 t-28 37.5t-36.5 15t-48 4.5z" />
<glyph unicode="|" horiz-adv-x="509" d="M193 -156v1690h124v-1690h-124z" />
<glyph unicode="}" horiz-adv-x="655" d="M74 -123h65q46 0 77.5 30t31.5 75v440q0 84 14.5 128t69.5 71q-55 31 -69.5 74.5t-14.5 123.5v445q0 45 -31.5 74.5t-77.5 29.5h-65v164h78q106 0 180 -74t74 -180v-461q0 -80 29 -103.5t91 -23.5v-137q-31 -1 -48 -4.5t-36 -15t-27.5 -37.5t-8.5 -68v-459 q0 -106 -74 -180t-180 -74h-78v162z" />
<glyph unicode="~" horiz-adv-x="968" d="M88 395q0 127 54 202t157 75q53 0 98 -17t74.5 -41t56 -48t56 -41t61.5 -17q54 0 77 39.5t23 120.5h136q0 -140 -61 -217.5t-171 -77.5q-55 0 -105.5 26.5t-81.5 57.5t-72.5 57.5t-80.5 26.5q-95 0 -92 -146h-129z" />
<glyph unicode="&#xa1;" horiz-adv-x="538" d="M164 842v207h211v-207h-211zM176 -387l29 1044h129l28 -1044h-186z" />
<glyph unicode="&#xa2;" horiz-adv-x="1030" d="M84 522q0 139 44.5 254t138.5 194t225 95v135h124v-133q131 -13 223.5 -85t135.5 -191l-146 -60q-25 91 -96.5 143t-171.5 52q-65 0 -118 -24t-87.5 -64t-58 -93t-33.5 -108.5t-10 -114.5q0 -74 17 -142t51.5 -127t96 -94.5t142.5 -35.5q101 0 173.5 53t99.5 139l139 -53 q-41 -124 -133.5 -196t-223.5 -86v-185h-124v187q-130 17 -224.5 96.5t-139 193.5t-44.5 250z" />
<glyph unicode="&#xa3;" horiz-adv-x="1249" d="M78 561v146h164v243q0 213 132 348.5t341 135.5q147 0 273 -92.5t169 -233.5l-160 -64q-22 95 -103.5 158.5t-178.5 63.5q-138 0 -221.5 -86.5t-83.5 -229.5v-243h381v-146h-381v-405h747v-156h-915v561h-164z" />
<glyph unicode="&#xa4;" horiz-adv-x="1150" d="M109 311l102 103q-88 116 -88 266t88 266l-102 103l96 100l102 -107q123 91 268 91q146 0 269 -91l102 107l96 -100l-102 -103q88 -116 88 -266t-88 -266l102 -103l-96 -100l-102 106q-122 -90 -269 -90q-146 0 -268 90l-102 -106zM260 680q0 -129 92 -221 q94 -94 223 -94q130 0 224 94q92 92 92 221t-92 221q-94 94 -224 94q-129 0 -223 -94q-92 -92 -92 -221z" />
<glyph unicode="&#xa5;" horiz-adv-x="1210" d="M6 1413h168l432 -696l430 696h168l-475 -760h254v-123h-301v-231h301v-123h-301v-170h-152v170h-303v123h303v231h-303v123h254z" />
<glyph unicode="&#xa6;" horiz-adv-x="514" d="M190 -156v633h134v-633h-134zM190 760v653h134v-653h-134z" />
<glyph unicode="&#xa7;" horiz-adv-x="1105" d="M150 270l169 52q52 -177 259 -177q215 0 215 148q0 35 -20.5 59.5t-55 38.5t-79.5 24t-94.5 19.5t-99 21t-94.5 32.5t-79.5 50t-55 76.5t-20.5 110.5q0 129 100 213q-98 70 -98 197q0 95 52 164.5t132.5 102t177.5 32.5q140 0 242 -69t141 -198l-166 -43 q-45 150 -219 150q-79 0 -134.5 -38.5t-55.5 -111.5q0 -33 20.5 -56.5t55 -36.5t79.5 -22.5t94.5 -19t99 -21.5t94.5 -33.5t79.5 -51.5t55 -80t20.5 -115q0 -124 -95 -207q95 -71 95 -194q0 -79 -33 -139.5t-89 -95.5t-124 -52.5t-146 -17.5q-156 0 -268.5 71t-154.5 217z M371 731q1 -30 19 -55t42.5 -40t63 -28.5t69 -20.5t72.5 -16t61 -14q97 44 88 148q-1 32 -19.5 57.5t-42.5 41t-63 29t-67.5 19.5t-71 14.5t-59.5 12.5q-45 -21 -70 -60t-22 -88z" />
<glyph unicode="&#xa8;" horiz-adv-x="593" d="M47 1163v201h170v-201h-170zM377 1163v201h170v-201h-170z" />
<glyph unicode="&#xa9;" horiz-adv-x="1673" d="M86 707q0 206 101 381t273.5 276.5t375.5 101.5q152 0 291 -60t239.5 -161.5t160.5 -242t60 -295.5q0 -154 -60 -294.5t-160.5 -242.5t-239.5 -162.5t-291 -60.5t-290.5 60.5t-239.5 162.5t-160.5 242.5t-59.5 294.5zM193 707q0 -130 52 -251t138.5 -209t205.5 -141 t247 -53q129 0 248.5 53t205.5 141t137.5 209t51.5 251q0 174 -86.5 324.5t-235 239.5t-321.5 89q-128 0 -247 -52.5t-205.5 -140.5t-138.5 -209t-52 -251zM434 711q0 97 26.5 182t77 150.5t130 103t178.5 37.5q132 0 224 -63.5t134 -178.5l-125 -51q-22 78 -83.5 123 t-147.5 45q-70 0 -123.5 -31t-83.5 -82.5t-44.5 -110.5t-14.5 -124q0 -51 8.5 -98.5t29 -92.5t50.5 -78.5t76 -54t102 -20.5q87 0 149 45.5t86 119.5l119 -45q-40 -119 -132 -183t-222 -64q-100 0 -180 38t-130.5 104t-77 150t-26.5 179z" />
<glyph unicode="&#xaa;" horiz-adv-x="712" d="M63 893q0 128 127 188q17 9 36 17t44.5 16.5t44.5 15t53.5 16t53 15t62 17t61.5 16.5v4q0 71 -41.5 102t-124.5 31q-143 0 -213 -102l-88 59q103 146 293 146q125 0 204.5 -58t79.5 -164v-510h-110v105q-115 -121 -252 -121q-102 0 -166 56.5t-64 150.5zM186 897 q0 -51 34 -80t87 -29q66 0 127.5 38t110.5 98v176q-218 -66 -283 -99q-76 -42 -76 -104z" />
<glyph unicode="&#xab;" horiz-adv-x="1054" d="M137 512l381 332v-170l-190 -162l190 -164v-170zM532 512l383 332v-170l-192 -162l192 -164v-170z" />
<glyph unicode="&#xac;" horiz-adv-x="1175" d="M141 645v152h893v-572h-157v420h-736z" />
<glyph unicode="&#xad;" horiz-adv-x="1122" d="M188 444v148h748v-148h-748z" />
<glyph unicode="&#xae;" horiz-adv-x="1267" d="M104 893q0 147 70.5 271.5t192.5 197t266 72.5t266 -72.5t193 -197t71 -271.5t-71 -271.5t-193 -197t-266 -72.5t-266 72.5t-192.5 197t-70.5 271.5zM186 893q0 -121 60.5 -225.5t163.5 -166t223 -61.5q183 0 316.5 134.5t133.5 318.5q0 121 -61 226t-165 167t-224 62 t-223 -62t-163.5 -167t-60.5 -226zM455 610v559h215q94 0 143 -42.5t49 -120.5q0 -124 -110 -158l141 -238h-121l-123 226h-90v-226h-104zM551 926h119q96 0 96 80q0 77 -96 77h-119v-157z" />
<glyph unicode="&#xaf;" horiz-adv-x="671" d="M66 1188v110h540v-110h-540z" />
<glyph unicode="&#xb0;" horiz-adv-x="761" d="M76 1133q0 127 88.5 214t216.5 87t215.5 -87t87.5 -214q0 -129 -87.5 -216.5t-215.5 -87.5t-216.5 87.5t-88.5 216.5zM201 1133q0 -76 52.5 -128.5t127.5 -52.5q74 0 126 52.5t52 128.5q0 73 -52.5 125.5t-125.5 52.5q-75 0 -127.5 -52t-52.5 -126z" />
<glyph unicode="&#xb1;" horiz-adv-x="1325" d="M141 686v127h457v455h129v-455h457v-127h-457v-455h-129v455h-457zM143 0v127h1041v-127h-1041z" />
<glyph unicode="&#xb4;" horiz-adv-x="460" d="M27 1124l221 240h215l-303 -240h-133z" />
<glyph unicode="&#xb5;" d="M158 -266v1265h170v-587q0 -56 10 -103t32.5 -88t63.5 -64.5t98 -23.5q119 0 202 88t83 211v567h170v-999h-170v168q-38 -74 -122 -132.5t-185 -58.5t-182 48l-21 -291h-149z" />
<glyph unicode="&#xb6;" horiz-adv-x="1134" d="M80 1018q0 120 65 212t166.5 137.5t220.5 45.5h127v-1700h-127v910q-119 0 -220.5 45.5t-166.5 137.5t-65 212zM840 -287v1700h127v-1700h-127z" />
<glyph unicode="&#xb7;" horiz-adv-x="495" d="M117 819q0 55 37.5 92t91.5 37q55 0 93 -37t38 -92q0 -54 -38 -92.5t-93 -38.5q-54 0 -91.5 38.5t-37.5 92.5z" />
<glyph unicode="&#xb8;" horiz-adv-x="428" d="M29 -373l94 47q6 -31 31.5 -52t62.5 -21q40 0 64 23.5t24 58.5q0 33 -23.5 62t-66.5 42l-123 39l94 174h119l-78 -129l45 -14q142 -48 142 -174q0 -89 -57.5 -136t-135.5 -47q-69 0 -119 35.5t-73 91.5z" />
<glyph unicode="&#xba;" horiz-adv-x="786" d="M57 1061q0 177 92 274t244 97q149 0 241.5 -97t92.5 -274q0 -173 -92.5 -269t-241.5 -96q-151 0 -243.5 96t-92.5 269zM170 1061q0 -130 59.5 -197t163.5 -67t164.5 67t60.5 197q0 135 -60 203.5t-165 68.5t-164 -68t-59 -204z" />
<glyph unicode="&#xbb;" horiz-adv-x="1058" d="M139 178v172l193 162l-193 160v172l383 -332zM537 178v172l192 162l-192 160v172l381 -332z" />
<glyph unicode="&#xbf;" horiz-adv-x="909" d="M90 -23q0 69 18 121t47.5 83.5t64.5 55.5t70 43.5t64.5 41t47.5 54.5t18 77v209h149v-211q0 -61 -18 -106t-46.5 -71.5t-63.5 -48t-69.5 -41.5t-63 -45t-46.5 -66.5t-18 -97.5q0 -103 69.5 -159t175.5 -56q105 0 179.5 63t74.5 165h158q-1 -108 -53 -193.5t-143.5 -132.5 t-204.5 -47q-114 0 -205 39t-148 122.5t-57 200.5zM387 840v209h209v-209h-209z" />
<glyph unicode="&#xc0;" horiz-adv-x="1202" d="M8 0l473 1413h244l471 -1413h-192l-101 319h-602l-100 -319h-193zM244 1778h217l219 -242h-152zM348 469h510l-252 805h-6z" />
<glyph unicode="&#xc1;" horiz-adv-x="1202" d="M8 0l473 1413h244l471 -1413h-192l-101 319h-602l-100 -319h-193zM348 469h510l-252 805h-6zM539 1538l221 240h215l-303 -240h-133z" />
<glyph unicode="&#xc2;" horiz-adv-x="1202" d="M8 0l473 1413h244l471 -1413h-192l-101 319h-602l-100 -319h-193zM322 1509l253 269h58l258 -269h-146l-139 156l-139 -156h-145zM348 469h510l-252 805h-6z" />
<glyph unicode="&#xc3;" horiz-adv-x="1202" d="M8 0l473 1413h244l471 -1413h-192l-101 319h-602l-100 -319h-193zM250 1542q0 110 47 173t143 63q57 0 104.5 -23.5t75 -51.5t64 -51.5t72.5 -23.5q96 0 96 150h109q0 -123 -53 -186.5t-148 -63.5q-44 0 -82.5 15t-65.5 36t-52 42.5t-53 36.5t-58 15q-47 0 -71 -37 t-22 -94h-106zM348 469h510l-252 805h-6z" />
<glyph unicode="&#xc4;" horiz-adv-x="1202" d="M8 0l473 1413h244l471 -1413h-192l-101 319h-602l-100 -319h-193zM348 469h510l-252 805h-6zM354 1577v201h170v-201h-170zM684 1577v201h170v-201h-170z" />
<glyph unicode="&#xc5;" horiz-adv-x="1202" d="M8 0l453 1354q-74 64 -74 166q0 90 62.5 151.5t152.5 61.5q89 0 152 -61.5t63 -151.5q0 -97 -74 -164l453 -1356h-192l-101 319h-602l-100 -319h-193zM348 469h510l-252 805h-6zM492 1518q0 -37 20 -65.5t51 -39.5h76q33 11 54.5 40t21.5 65q0 47 -32 78.5t-81 31.5 q-50 0 -80 -29t-30 -81z" />
<glyph unicode="&#xc6;" horiz-adv-x="1808" d="M8 0l539 1413h1155v-158h-731v-469h643v-157h-643v-465h731v-164h-911v307h-467l-113 -307h-203zM383 467h408v790h-119z" />
<glyph unicode="&#xc7;" horiz-adv-x="1345" d="M86 707q0 334 173.5 531.5t467.5 197.5q193 0 346.5 -103.5t214.5 -279.5l-155 -68q-42 134 -149 210.5t-259 76.5q-214 0 -339.5 -150t-125.5 -405q0 -262 127.5 -418t341.5 -156q138 0 247 78.5t159 210.5l153 -67q-54 -156 -182 -257.5t-295 -121.5l-70 -115l45 -14 q142 -48 142 -174q0 -89 -57.5 -136t-135.5 -47q-69 0 -119 35.5t-73 91.5l94 47q6 -31 31.5 -52t62.5 -21q40 0 64 23.5t24 58.5q0 33 -23.5 62t-66.5 42l-123 39l84 154q-280 13 -442 209t-162 518z" />
<glyph unicode="&#xc8;" horiz-adv-x="1218" d="M190 0v1413h922v-158h-741v-469h653v-157h-653v-471h741v-158h-922zM291 1778h217l219 -242h-152z" />
<glyph unicode="&#xc9;" horiz-adv-x="1218" d="M190 0v1413h922v-158h-741v-469h653v-157h-653v-471h741v-158h-922zM586 1538l221 240h215l-303 -240h-133z" />
<glyph unicode="&#xca;" horiz-adv-x="1218" d="M190 0v1413h922v-158h-741v-469h653v-157h-653v-471h741v-158h-922zM369 1509l254 269h57l258 -269h-145l-140 156l-139 -156h-145z" />
<glyph unicode="&#xcb;" horiz-adv-x="1218" d="M190 0v1413h922v-158h-741v-469h653v-157h-653v-471h741v-158h-922zM401 1577v201h170v-201h-170zM731 1577v201h170v-201h-170z" />
<glyph unicode="&#xcc;" horiz-adv-x="561" d="M-82 1778h217l219 -242h-151zM190 0v1413h181v-1413h-181z" />
<glyph unicode="&#xcd;" horiz-adv-x="561" d="M190 0v1413h181v-1413h-181zM213 1538l221 240h215l-303 -240h-133z" />
<glyph unicode="&#xce;" horiz-adv-x="561" d="M-4 1509l254 269h57l258 -269h-145l-139 156l-140 -156h-145zM190 0v1413h181v-1413h-181z" />
<glyph unicode="&#xcf;" horiz-adv-x="561" d="M29 1577v201h170v-201h-170zM190 0v1413h181v-1413h-181zM358 1577v201h170v-201h-170z" />
<glyph unicode="&#xd0;" horiz-adv-x="1341" d="M27 647v131h139v635h373q347 0 531.5 -184.5t184.5 -532.5q0 -334 -187 -515t-531 -181h-371v647h-139zM346 164h166q284 0 422.5 134t138.5 409q0 274 -133.5 409t-404.5 135h-189v-473h361v-131h-361v-483z" />
<glyph unicode="&#xd1;" horiz-adv-x="1497" d="M190 0v1413h242l684 -1194h10v1194h181v-1413h-246l-684 1204h-6v-1204h-181zM393 1542q0 110 47.5 173t143.5 63q46 0 85.5 -15.5t66.5 -37.5t51.5 -44t53 -37.5t58.5 -15.5q96 0 96 150h109q0 -123 -53 -186.5t-148 -63.5q-44 0 -82.5 15t-65.5 36t-52 42.5t-53 36.5 t-58 15q-47 0 -70.5 -36.5t-21.5 -94.5h-107z" />
<glyph unicode="&#xd2;" horiz-adv-x="1456" d="M86 707q0 333 174 530t469 197q294 0 468.5 -197t174.5 -530t-174.5 -530t-468.5 -197q-295 0 -469 197t-174 530zM264 707q0 -259 126 -412.5t339 -153.5q212 0 337.5 154t125.5 412q0 259 -125.5 412t-337.5 153q-214 0 -339.5 -152.5t-125.5 -412.5zM367 1778h217 l219 -242h-152z" />
<glyph unicode="&#xd3;" horiz-adv-x="1456" d="M86 707q0 333 174 530t469 197q294 0 468.5 -197t174.5 -530t-174.5 -530t-468.5 -197q-295 0 -469 197t-174 530zM264 707q0 -259 126 -412.5t339 -153.5q212 0 337.5 154t125.5 412q0 259 -125.5 412t-337.5 153q-214 0 -339.5 -152.5t-125.5 -412.5zM662 1538l221 240 h215l-303 -240h-133z" />
<glyph unicode="&#xd4;" horiz-adv-x="1456" d="M86 707q0 333 174 530t469 197q294 0 468.5 -197t174.5 -530t-174.5 -530t-468.5 -197q-295 0 -469 197t-174 530zM264 707q0 -259 126 -412.5t339 -153.5q212 0 337.5 154t125.5 412q0 259 -125.5 412t-337.5 153q-214 0 -339.5 -152.5t-125.5 -412.5zM444 1509l254 269 h58l258 -269h-146l-139 156l-139 -156h-146z" />
<glyph unicode="&#xd5;" horiz-adv-x="1456" d="M86 707q0 333 174 530t469 197q294 0 468.5 -197t174.5 -530t-174.5 -530t-468.5 -197q-295 0 -469 197t-174 530zM264 707q0 -259 126 -412.5t339 -153.5q212 0 337.5 154t125.5 412q0 259 -125.5 412t-337.5 153q-214 0 -339.5 -152.5t-125.5 -412.5zM373 1542 q0 110 47 173t143 63q57 0 104.5 -23.5t75 -51.5t64 -51.5t72.5 -23.5q96 0 96 150h108q0 -123 -53 -186.5t-147 -63.5q-44 0 -82.5 15t-66 36t-52 42.5t-53 36.5t-58.5 15q-47 0 -70.5 -36.5t-21.5 -94.5h-106z" />
<glyph unicode="&#xd6;" horiz-adv-x="1456" d="M86 707q0 333 174 530t469 197q294 0 468.5 -197t174.5 -530t-174.5 -530t-468.5 -197q-295 0 -469 197t-174 530zM264 707q0 -259 126 -412.5t339 -153.5q212 0 337.5 154t125.5 412q0 259 -125.5 412t-337.5 153q-214 0 -339.5 -152.5t-125.5 -412.5zM477 1577v201h170 v-201h-170zM807 1577v201h170v-201h-170z" />
<glyph unicode="&#xd7;" horiz-adv-x="1212" d="M188 823l105 105l313 -314l305 306l105 -105l-305 -305l313 -315l-102 -103l-316 314l-307 -308l-104 105l307 307z" />
<glyph unicode="&#xd8;" horiz-adv-x="1456" d="M76 147l119 119q-109 182 -109 441q0 333 174 530t469 197q277 0 455 -181l100 101l94 -88l-116 -117q110 -179 110 -442q0 -333 -174.5 -530t-468.5 -197q-281 0 -455 180l-104 -105zM264 707q0 -173 62 -310l733 731q-125 144 -330 144q-214 0 -339.5 -152.5 t-125.5 -412.5zM399 285q125 -144 330 -144q212 0 337.5 154t125.5 412q0 174 -62 311z" />
<glyph unicode="&#xd9;" horiz-adv-x="1347" d="M170 500v913h180v-921q0 -163 86 -256t238 -93t237.5 93t85.5 256v921h181v-903q0 -250 -133 -390t-371 -140t-371 137.5t-133 382.5zM311 1778h217l220 -242h-152z" />
<glyph unicode="&#xda;" horiz-adv-x="1347" d="M170 500v913h180v-921q0 -163 86 -256t238 -93t237.5 93t85.5 256v921h181v-903q0 -250 -133 -390t-371 -140t-371 137.5t-133 382.5zM606 1538l221 240h215l-303 -240h-133z" />
<glyph unicode="&#xdb;" horiz-adv-x="1347" d="M170 500v913h180v-921q0 -163 86 -256t238 -93t237.5 93t85.5 256v921h181v-903q0 -250 -133 -390t-371 -140t-371 137.5t-133 382.5zM389 1509l254 269h57l258 -269h-145l-139 156l-139 -156h-146z" />
<glyph unicode="&#xdc;" horiz-adv-x="1347" d="M170 500v913h180v-921q0 -163 86 -256t238 -93t237.5 93t85.5 256v921h181v-903q0 -250 -133 -390t-371 -140t-371 137.5t-133 382.5zM422 1577v201h170v-201h-170zM752 1577v201h170v-201h-170z" />
<glyph unicode="&#xdd;" horiz-adv-x="1345" d="M6 1413h209l455 -698l458 698h209l-577 -860v-553h-178v553zM606 1538l221 240h215l-303 -240h-133z" />
<glyph unicode="&#xde;" horiz-adv-x="1198" d="M190 0v1413h177v-196h309q214 0 340.5 -104t126.5 -292q0 -193 -125 -294t-342 -101h-309v-426h-177zM367 586h305q143 0 219 59t76 172t-76.5 175.5t-218.5 62.5h-305v-469z" />
<glyph unicode="&#xdf;" horiz-adv-x="1134" d="M160 0v1055q0 116 56 203.5t146.5 131.5t200.5 44q106 0 198 -35t152 -108t60 -169q0 -53 -23.5 -98t-57 -76t-67 -59t-57 -58.5t-23.5 -62.5q0 -33 17 -62.5t44.5 -53.5t61 -49t67 -54t61 -62.5t44.5 -81t17 -102.5q0 -144 -98 -232.5t-248 -88.5q-83 0 -195 34v170 q109 -47 191 -47q78 0 128 47t50 129q0 45 -22.5 84t-56.5 65.5t-73.5 58.5t-73.5 62.5t-56.5 79.5t-22.5 107q0 49 23 89t56 68t65.5 54.5t55.5 61.5t23 77q0 78 -61 125t-160 47q-119 0 -184.5 -66.5t-65.5 -176.5v-1051h-172z" />
<glyph unicode="&#xe0;" horiz-adv-x="1085" d="M92 279q0 186 187 276q24 12 52 24t65.5 24.5t65 21.5t79 24t77.5 22.5t90.5 25t90.5 24.5v6q0 103 -61.5 149t-182.5 46q-110 0 -183.5 -37.5t-129.5 -114.5l-127 88q149 211 428 211q183 0 299 -83t116 -238v-748h-159v154q-83 -86 -179.5 -131.5t-189.5 -45.5 q-150 0 -244 82.5t-94 219.5zM182 1413h217l219 -242h-151zM272 285q0 -73 51 -115.5t126 -42.5q180 0 350 197v258q-311 -91 -414 -144q-113 -60 -113 -153z" />
<glyph unicode="&#xe1;" horiz-adv-x="1085" d="M92 279q0 186 187 276q24 12 52 24t65.5 24.5t65 21.5t79 24t77.5 22.5t90.5 25t90.5 24.5v6q0 103 -61.5 149t-182.5 46q-110 0 -183.5 -37.5t-129.5 -114.5l-127 88q149 211 428 211q183 0 299 -83t116 -238v-748h-159v154q-83 -86 -179.5 -131.5t-189.5 -45.5 q-150 0 -244 82.5t-94 219.5zM272 285q0 -73 51 -115.5t126 -42.5q180 0 350 197v258q-311 -91 -414 -144q-113 -60 -113 -153zM477 1174l221 239h215l-303 -239h-133z" />
<glyph unicode="&#xe2;" horiz-adv-x="1085" d="M92 279q0 186 187 276q24 12 52 24t65.5 24.5t65 21.5t79 24t77.5 22.5t90.5 25t90.5 24.5v6q0 103 -61.5 149t-182.5 46q-110 0 -183.5 -37.5t-129.5 -114.5l-127 88q149 211 428 211q183 0 299 -83t116 -238v-748h-159v154q-83 -86 -179.5 -131.5t-189.5 -45.5 q-150 0 -244 82.5t-94 219.5zM260 1145l254 268h57l258 -268h-145l-139 155l-139 -155h-146zM272 285q0 -73 51 -115.5t126 -42.5q180 0 350 197v258q-311 -91 -414 -144q-113 -60 -113 -153z" />
<glyph unicode="&#xe3;" horiz-adv-x="1085" d="M92 279q0 186 187 276q24 12 52 24t65.5 24.5t65 21.5t79 24t77.5 22.5t90.5 25t90.5 24.5v6q0 103 -61.5 149t-182.5 46q-110 0 -183.5 -37.5t-129.5 -114.5l-127 88q149 211 428 211q183 0 299 -83t116 -238v-748h-159v154q-83 -86 -179.5 -131.5t-189.5 -45.5 q-150 0 -244 82.5t-94 219.5zM188 1178q0 110 47.5 172.5t143.5 62.5q57 0 104.5 -23.5t74.5 -51t63.5 -51t72.5 -23.5q49 0 73 40t24 109h108q0 -123 -53 -186.5t-148 -63.5q-44 0 -82.5 15t-65.5 36.5t-52 43t-53 36.5t-58 15q-47 0 -70.5 -36.5t-21.5 -94.5h-107z M272 285q0 -73 51 -115.5t126 -42.5q180 0 350 197v258q-311 -91 -414 -144q-113 -60 -113 -153z" />
<glyph unicode="&#xe4;" horiz-adv-x="1085" d="M92 279q0 186 187 276q24 12 52 24t65.5 24.5t65 21.5t79 24t77.5 22.5t90.5 25t90.5 24.5v6q0 103 -61.5 149t-182.5 46q-110 0 -183.5 -37.5t-129.5 -114.5l-127 88q149 211 428 211q183 0 299 -83t116 -238v-748h-159v154q-83 -86 -179.5 -131.5t-189.5 -45.5 q-150 0 -244 82.5t-94 219.5zM272 285q0 -73 51 -115.5t126 -42.5q180 0 350 197v258q-311 -91 -414 -144q-113 -60 -113 -153zM293 1212v201h170v-201h-170zM623 1212v201h170v-201h-170z" />
<glyph unicode="&#xe5;" horiz-adv-x="1085" d="M92 279q0 186 187 276q24 12 52 24t65.5 24.5t65 21.5t79 24t77.5 22.5t90.5 25t90.5 24.5v6q0 103 -61.5 149t-182.5 46q-110 0 -183.5 -37.5t-129.5 -114.5l-127 88q149 211 428 211q183 0 299 -83t116 -238v-748h-159v154q-83 -86 -179.5 -131.5t-189.5 -45.5 q-150 0 -244 82.5t-94 219.5zM272 285q0 -73 51 -115.5t126 -42.5q180 0 350 197v258q-311 -91 -414 -144q-113 -60 -113 -153zM344 1325q0 83 58 140t141 57q82 0 140 -57t58 -140q0 -84 -57.5 -143.5t-140.5 -59.5q-84 0 -141.5 59t-57.5 144zM440 1323q0 -45 29.5 -73.5 t73.5 -28.5q42 0 73 30t31 72q0 43 -30 72.5t-74 29.5q-46 0 -74.5 -27.5t-28.5 -74.5z" />
<glyph unicode="&#xe6;" horiz-adv-x="1818" d="M90 281q0 185 186 274q164 79 523 129v43q0 193 -236 193q-99 0 -184 -40t-141 -116l-125 90q75 102 190.5 157.5t253.5 55.5q115 0 208.5 -39.5t143.5 -114.5q129 156 359 156q99 0 178 -31t129.5 -82t83.5 -121t47 -143t14 -153q0 -54 -4 -72h-758q13 -156 97 -246 t243 -90q164 0 283 102l102 -104q-162 -149 -385 -149q-160 0 -272 66t-172 181q-68 -122 -178 -186t-240 -64q-158 0 -252 82.5t-94 221.5zM272 285q0 -75 55 -116.5t146 -41.5q41 0 80 8t80 28.5t73.5 51.5t56.5 81t32 114q-9 55 -9 112v29q-294 -46 -411 -109 q-103 -59 -103 -157zM958 604h594q-6 144 -79 230t-209 86q-144 0 -220 -87t-86 -229z" />
<glyph unicode="&#xe7;" horiz-adv-x="1030" d="M84 522q0 112 30.5 210t88.5 174t149.5 119.5t206.5 43.5q153 0 260.5 -73t155.5 -205l-146 -60q-25 91 -96.5 143t-171.5 52q-65 0 -118 -24t-87.5 -64t-58 -93t-33.5 -108.5t-10 -114.5q0 -74 17 -142t51.5 -127t96 -94.5t142.5 -35.5q101 0 173.5 53t99.5 139l139 -53 q-38 -115 -120 -185.5t-200 -90.5l-69 -115l45 -14q141 -48 141 -174q0 -89 -57 -136t-135 -47q-69 0 -119.5 35.5t-73.5 91.5l94 47q6 -31 31.5 -52t62.5 -21q40 0 64.5 23.5t24.5 58.5q0 33 -23.5 62t-67.5 42l-122 39l81 151q-108 6 -194.5 52.5t-140.5 121.5t-82.5 170 t-28.5 201z" />
<glyph unicode="&#xe8;" horiz-adv-x="1101" d="M84 522q0 87 17 166t55 149t93.5 121t136 81t179.5 30t178 -31t129.5 -82t84 -121t47.5 -143t14 -153q0 -54 -4 -72h-758q13 -156 97 -246t243 -90q164 0 283 102l102 -104q-162 -149 -385 -149q-103 0 -188 28.5t-144.5 79t-100.5 119t-60 148t-19 167.5zM199 1413h217 l219 -242h-152zM256 604h594q-6 144 -79.5 230t-209.5 86q-144 0 -219.5 -87t-85.5 -229z" />
<glyph unicode="&#xe9;" horiz-adv-x="1101" d="M84 522q0 87 17 166t55 149t93.5 121t136 81t179.5 30t178 -31t129.5 -82t84 -121t47.5 -143t14 -153q0 -54 -4 -72h-758q13 -156 97 -246t243 -90q164 0 283 102l102 -104q-162 -149 -385 -149q-103 0 -188 28.5t-144.5 79t-100.5 119t-60 148t-19 167.5zM256 604h594 q-6 144 -79.5 230t-209.5 86q-144 0 -219.5 -87t-85.5 -229zM494 1174l221 239h215l-303 -239h-133z" />
<glyph unicode="&#xea;" horiz-adv-x="1101" d="M84 522q0 87 17 166t55 149t93.5 121t136 81t179.5 30t178 -31t129.5 -82t84 -121t47.5 -143t14 -153q0 -54 -4 -72h-758q13 -156 97 -246t243 -90q164 0 283 102l102 -104q-162 -149 -385 -149q-103 0 -188 28.5t-144.5 79t-100.5 119t-60 148t-19 167.5zM256 604h594 q-6 144 -79.5 230t-209.5 86q-144 0 -219.5 -87t-85.5 -229zM276 1145l254 268h58l258 -268h-146l-139 155l-139 -155h-146z" />
<glyph unicode="&#xeb;" horiz-adv-x="1101" d="M84 522q0 87 17 166t55 149t93.5 121t136 81t179.5 30t178 -31t129.5 -82t84 -121t47.5 -143t14 -153q0 -54 -4 -72h-758q13 -156 97 -246t243 -90q164 0 283 102l102 -104q-162 -149 -385 -149q-103 0 -188 28.5t-144.5 79t-100.5 119t-60 148t-19 167.5zM256 604h594 q-6 144 -79.5 230t-209.5 86q-144 0 -219.5 -87t-85.5 -229zM309 1212v201h170v-201h-170zM639 1212v201h170v-201h-170z" />
<glyph unicode="&#xec;" horiz-adv-x="503" d="M-111 1413h217l220 -242h-152zM168 0v1049h168v-1049h-168z" />
<glyph unicode="&#xed;" horiz-adv-x="503" d="M168 0v1049h168v-1049h-168zM184 1174l222 239h215l-304 -239h-133z" />
<glyph unicode="&#xee;" horiz-adv-x="503" d="M-33 1145l254 268h58l258 -268h-146l-139 155l-139 -155h-146zM168 0v1049h168v-1049h-168z" />
<glyph unicode="&#xef;" horiz-adv-x="503" d="M0 1212v201h170v-201h-170zM168 0v1049h168v-1049h-168zM330 1212v201h170v-201h-170z" />
<glyph unicode="&#xf0;" horiz-adv-x="1130" d="M82 516q0 106 32.5 202t92 170t151 117.5t201.5 43.5q81 0 157 -34.5t109 -82.5q-29 118 -103 200t-190 144l-88 -135l-79 49l86 129q-1 1 -164 72l65 125q110 -42 180 -76l84 125l74 -45l-78 -121q237 -138 336 -346.5t99 -536.5q0 -106 -32.5 -201.5t-92.5 -169.5 t-152.5 -117.5t-204.5 -43.5t-205 43.5t-153 117.5t-92.5 169.5t-32.5 201.5zM258 516q0 -75 18.5 -141.5t54.5 -120t96.5 -84.5t137.5 -31t137 31t96 84.5t54 120t18 141.5q0 104 -32 187.5t-102.5 136.5t-170.5 53q-77 0 -137.5 -31t-96.5 -84.5t-54.5 -120t-18.5 -141.5z " />
<glyph unicode="&#xf1;" horiz-adv-x="1159" d="M176 0v1049h170v-154h10q48 80 126 127t180 47q162 0 257 -104.5t95 -280.5v-684h-170v662q0 256 -213 256q-125 0 -205 -83.5t-80 -216.5v-618h-170zM217 1182q0 110 47.5 172.5t143.5 62.5q57 0 104.5 -23.5t74.5 -51t63.5 -51t72.5 -23.5q96 0 96 149h109 q0 -123 -53 -186.5t-148 -63.5q-44 0 -82.5 15t-65.5 36.5t-52 43t-53 36.5t-58 15q-47 0 -70.5 -36.5t-21.5 -94.5h-107z" />
<glyph unicode="&#xf2;" d="M84 520q0 262 136.5 405.5t361.5 143.5q222 0 358.5 -143.5t136.5 -405.5q0 -256 -137 -399.5t-358 -143.5q-224 0 -361 143t-137 400zM219 1413h217l219 -242h-151zM252 520q0 -194 88 -293.5t242 -99.5q155 0 244 99.5t89 293.5q0 200 -88.5 301t-244.5 101 q-154 0 -242 -101t-88 -301z" />
<glyph unicode="&#xf3;" d="M84 520q0 262 136.5 405.5t361.5 143.5q222 0 358.5 -143.5t136.5 -405.5q0 -256 -137 -399.5t-358 -143.5q-224 0 -361 143t-137 400zM252 520q0 -194 88 -293.5t242 -99.5q155 0 244 99.5t89 293.5q0 200 -88.5 301t-244.5 101q-154 0 -242 -101t-88 -301zM514 1174 l221 239h215l-303 -239h-133z" />
<glyph unicode="&#xf4;" d="M84 520q0 262 136.5 405.5t361.5 143.5q222 0 358.5 -143.5t136.5 -405.5q0 -256 -137 -399.5t-358 -143.5q-224 0 -361 143t-137 400zM252 520q0 -194 88 -293.5t242 -99.5q155 0 244 99.5t89 293.5q0 200 -88.5 301t-244.5 101q-154 0 -242 -101t-88 -301zM297 1145 l254 268h57l258 -268h-145l-139 155l-140 -155h-145z" />
<glyph unicode="&#xf5;" d="M84 520q0 262 136.5 405.5t361.5 143.5q222 0 358.5 -143.5t136.5 -405.5q0 -256 -137 -399.5t-358 -143.5q-224 0 -361 143t-137 400zM225 1178q0 110 47.5 172.5t143.5 62.5q57 0 104.5 -23.5t74.5 -51t63.5 -51t72.5 -23.5q96 0 96 149h109q0 -123 -53 -186.5 t-148 -63.5q-44 0 -82.5 15t-65.5 36.5t-52 43t-53 36.5t-58 15q-47 0 -70.5 -36.5t-21.5 -94.5h-107zM252 520q0 -194 88 -293.5t242 -99.5q155 0 244 99.5t89 293.5q0 200 -88.5 301t-244.5 101q-154 0 -242 -101t-88 -301z" />
<glyph unicode="&#xf6;" d="M84 520q0 262 136.5 405.5t361.5 143.5q222 0 358.5 -143.5t136.5 -405.5q0 -256 -137 -399.5t-358 -143.5q-224 0 -361 143t-137 400zM252 520q0 -194 88 -293.5t242 -99.5q155 0 244 99.5t89 293.5q0 200 -88.5 301t-244.5 101q-154 0 -242 -101t-88 -301zM330 1212 v201h170v-201h-170zM659 1212v201h170v-201h-170z" />
<glyph unicode="&#xf7;" horiz-adv-x="1159" d="M188 442v150h785v-150h-785zM475 23v196h209v-196h-209zM475 803v196h209v-196h-209z" />
<glyph unicode="&#xf8;" d="M84 520q0 262 136.5 405.5t361.5 143.5q215 0 348 -133l43 43l65 -61l-51 -52q90 -139 90 -346q0 -256 -137 -399.5t-358 -143.5q-216 0 -351 132l-43 -43l-65 65l51 49q-90 139 -90 340zM252 520q0 -132 41 -219l528 526q-89 95 -239 95q-154 0 -242 -101t-88 -301z M344 221q85 -94 238 -94q155 0 244 99.5t89 293.5q0 136 -43 230z" />
<glyph unicode="&#xf9;" d="M150 367v682h172v-656q0 -126 55.5 -188t157.5 -62q125 0 203.5 82.5t78.5 210.5v613h170v-1049h-170v154h-16q-100 -170 -299 -170q-165 0 -258.5 103.5t-93.5 279.5zM207 1413h217l219 -242h-151z" />
<glyph unicode="&#xfa;" d="M150 367v682h172v-656q0 -126 55.5 -188t157.5 -62q125 0 203.5 82.5t78.5 210.5v613h170v-1049h-170v154h-16q-100 -170 -299 -170q-165 0 -258.5 103.5t-93.5 279.5zM502 1174l221 239h215l-303 -239h-133z" />
<glyph unicode="&#xfb;" d="M150 367v682h172v-656q0 -126 55.5 -188t157.5 -62q125 0 203.5 82.5t78.5 210.5v613h170v-1049h-170v154h-16q-100 -170 -299 -170q-165 0 -258.5 103.5t-93.5 279.5zM285 1145l254 268h57l258 -268h-145l-140 155l-139 -155h-145z" />
<glyph unicode="&#xfc;" d="M150 367v682h172v-656q0 -126 55.5 -188t157.5 -62q125 0 203.5 82.5t78.5 210.5v613h170v-1049h-170v154h-16q-100 -170 -299 -170q-165 0 -258.5 103.5t-93.5 279.5zM317 1212v201h170v-201h-170zM647 1212v201h170v-201h-170z" />
<glyph unicode="&#xfd;" horiz-adv-x="929" d="M25 1049h182l262 -840h8l256 840h185l-383 -1098q-29 -84 -69.5 -143t-82 -92.5t-98.5 -52t-106 -23.5t-118 -5v142q67 0 119.5 14.5t84 33.5t58 54.5t38 60t28.5 66.5zM401 1174l222 239h215l-303 -239h-134z" />
<glyph unicode="&#xfe;" horiz-adv-x="1206" d="M176 -365v1778h172v-536h8q63 71 142 107t190 36q134 0 234 -69.5t150 -186t50 -264.5t-50 -264.5t-150 -186t-234 -69.5q-210 0 -334 143h-6v-488h-172zM336 502q0 -164 77 -270.5t228 -106.5q104 0 176 52.5t104.5 135.5t32.5 189q0 107 -32.5 190.5t-104.5 136 t-176 52.5q-77 0 -137 -30.5t-96 -83.5t-54 -120t-18 -145z" />
<glyph unicode="&#xff;" horiz-adv-x="929" d="M25 1049h182l262 -840h8l256 840h185l-383 -1098q-29 -84 -69.5 -143t-82 -92.5t-98.5 -52t-106 -23.5t-118 -5v142q67 0 119.5 14.5t84 33.5t58 54.5t38 60t28.5 66.5zM217 1212v201h170v-201h-170zM547 1212v201h170v-201h-170z" />
<glyph unicode="&#x100;" horiz-adv-x="1202" d="M8 0l473 1413h244l471 -1413h-192l-101 319h-602l-100 -319h-193zM338 1602v110h541v-110h-541zM348 469h510l-252 805h-6z" />
<glyph unicode="&#x101;" horiz-adv-x="1085" d="M92 279q0 186 187 276q24 12 52 24t65.5 24.5t65 21.5t79 24t77.5 22.5t90.5 25t90.5 24.5v6q0 103 -61.5 149t-182.5 46q-110 0 -183.5 -37.5t-129.5 -114.5l-127 88q149 211 428 211q183 0 299 -83t116 -238v-748h-159v154q-83 -86 -179.5 -131.5t-189.5 -45.5 q-150 0 -244 82.5t-94 219.5zM272 285q0 -73 51 -115.5t126 -42.5q180 0 350 197v258q-311 -91 -414 -144q-113 -60 -113 -153zM276 1237v111h541v-111h-541z" />
<glyph unicode="&#x102;" horiz-adv-x="1202" d="M8 0l473 1413h244l471 -1413h-192l-101 319h-602l-100 -319h-193zM301 1778h133q0 -67 49.5 -111.5t122.5 -44.5q71 0 121.5 44.5t50.5 111.5h133q0 -124 -87.5 -197.5t-217.5 -73.5t-217.5 73t-87.5 198zM348 469h510l-252 805h-6z" />
<glyph unicode="&#x103;" horiz-adv-x="1085" d="M92 279q0 186 187 276q24 12 52 24t65.5 24.5t65 21.5t79 24t77.5 22.5t90.5 25t90.5 24.5v6q0 103 -61.5 149t-182.5 46q-110 0 -183.5 -37.5t-129.5 -114.5l-127 88q149 211 428 211q183 0 299 -83t116 -238v-748h-159v154q-83 -86 -179.5 -131.5t-189.5 -45.5 q-150 0 -244 82.5t-94 219.5zM240 1413h133q0 -67 49.5 -111.5t122.5 -44.5q71 0 121.5 44.5t50.5 111.5h133q0 -124 -87.5 -197t-217.5 -73t-217.5 72.5t-87.5 197.5zM272 285q0 -73 51 -115.5t126 -42.5q180 0 350 197v258q-311 -91 -414 -144q-113 -60 -113 -153z" />
<glyph unicode="&#x104;" horiz-adv-x="1202" d="M8 0l473 1413h244l471 -1413q-147 -110 -147 -227q0 -56 26.5 -85.5t67.5 -29.5q67 0 114 68l93 -64q-68 -113 -201 -113q-93 0 -151 55t-58 148q0 145 150 248h-86l-101 319h-602l-100 -319h-193zM348 469h510l-252 805h-6z" />
<glyph unicode="&#x105;" horiz-adv-x="1085" d="M92 279q0 186 187 276q24 12 52 24t65.5 24.5t65 21.5t79 24t77.5 22.5t90.5 25t90.5 24.5v6q0 103 -61.5 149t-182.5 46q-110 0 -183.5 -37.5t-129.5 -114.5l-127 88q149 211 428 211q183 0 299 -83t116 -238v-748q-147 -110 -147 -227q0 -56 26.5 -85.5t67.5 -29.5 q68 0 115 68l92 -64q-68 -113 -201 -113q-93 0 -151 55t-58 148q0 145 150 248h-53v154q-83 -86 -179.5 -131.5t-189.5 -45.5q-150 0 -244 82.5t-94 219.5zM272 285q0 -73 51 -115.5t126 -42.5q180 0 350 197v258q-311 -91 -414 -144q-113 -60 -113 -153z" />
<glyph unicode="&#x106;" horiz-adv-x="1345" d="M86 707q0 334 173.5 531.5t467.5 197.5q193 0 346.5 -103.5t214.5 -279.5l-155 -68q-42 134 -149 210.5t-259 76.5q-214 0 -339.5 -150t-125.5 -405q0 -262 127.5 -418t341.5 -156q138 0 247 78.5t159 210.5l153 -67q-60 -176 -213 -280.5t-348 -104.5q-295 0 -468 197 t-173 530zM623 1538l221 240h215l-303 -240h-133z" />
<glyph unicode="&#x107;" horiz-adv-x="1030" d="M84 522q0 112 30.5 210t88.5 174t149.5 119.5t206.5 43.5q153 0 260.5 -73t155.5 -205l-146 -60q-25 91 -96.5 143t-171.5 52q-65 0 -118 -24t-87.5 -64t-58 -93t-33.5 -108.5t-10 -114.5q0 -74 17 -142t51.5 -127t96 -94.5t142.5 -35.5q101 0 173.5 53t99.5 139l139 -53 q-46 -137 -153 -211t-259 -74q-93 0 -171 29t-134 79.5t-95 119.5t-58 149t-19 168zM457 1174l221 239h215l-303 -239h-133z" />
<glyph unicode="&#x10a;" horiz-adv-x="1345" d="M86 707q0 334 173.5 531.5t467.5 197.5q193 0 346.5 -103.5t214.5 -279.5l-155 -68q-42 134 -149 210.5t-259 76.5q-214 0 -339.5 -150t-125.5 -405q0 -262 127.5 -418t341.5 -156q138 0 247 78.5t159 210.5l153 -67q-60 -176 -213 -280.5t-348 -104.5q-295 0 -468 197 t-173 530zM608 1581v197h162v-197h-162z" />
<glyph unicode="&#x10b;" horiz-adv-x="1030" d="M84 522q0 112 30.5 210t88.5 174t149.5 119.5t206.5 43.5q153 0 260.5 -73t155.5 -205l-146 -60q-25 91 -96.5 143t-171.5 52q-65 0 -118 -24t-87.5 -64t-58 -93t-33.5 -108.5t-10 -114.5q0 -74 17 -142t51.5 -127t96 -94.5t142.5 -35.5q101 0 173.5 53t99.5 139l139 -53 q-46 -137 -153 -211t-259 -74q-93 0 -171 29t-134 79.5t-95 119.5t-58 149t-19 168zM442 1217v196h162v-196h-162z" />
<glyph unicode="&#x10c;" horiz-adv-x="1345" d="M86 707q0 334 173.5 531.5t467.5 197.5q193 0 346.5 -103.5t214.5 -279.5l-155 -68q-42 134 -149 210.5t-259 76.5q-214 0 -339.5 -150t-125.5 -405q0 -262 127.5 -418t341.5 -156q138 0 247 78.5t159 210.5l153 -67q-60 -176 -213 -280.5t-348 -104.5q-295 0 -468 197 t-173 530zM406 1778h145l139 -150l141 150h144l-256 -269h-57z" />
<glyph unicode="&#x10d;" horiz-adv-x="1030" d="M84 522q0 112 30.5 210t88.5 174t149.5 119.5t206.5 43.5q153 0 260.5 -73t155.5 -205l-146 -60q-25 91 -96.5 143t-171.5 52q-65 0 -118 -24t-87.5 -64t-58 -93t-33.5 -108.5t-10 -114.5q0 -74 17 -142t51.5 -127t96 -94.5t142.5 -35.5q101 0 173.5 53t99.5 139l139 -53 q-46 -137 -153 -211t-259 -74q-93 0 -171 29t-134 79.5t-95 119.5t-58 149t-19 168zM240 1413h145l139 -149l142 149h143l-256 -268h-57z" />
<glyph unicode="&#x10e;" horiz-adv-x="1366" d="M190 0v1413h373q348 0 532.5 -184.5t184.5 -532.5q0 -334 -187 -515t-532 -181h-371zM371 164h166q284 0 422.5 134t138.5 409q0 274 -134 409t-405 135h-188v-1087zM418 1778h145l139 -150l142 150h143l-256 -269h-57z" />
<glyph unicode="&#x10f;" horiz-adv-x="1257" d="M86 524q0 118 27.5 216t82 172t143 115.5t202.5 41.5q213 0 350 -151h6v495h170v-1413h-168v129h-8q-134 -152 -350 -152q-114 0 -202.5 41.5t-143 116.5t-82 173t-27.5 216zM256 524q0 -190 83 -293.5t249 -103.5q148 0 232.5 106t84.5 291q0 181 -85 286t-232 105 q-165 0 -248.5 -102.5t-83.5 -288.5zM1178 940l86 277h-74v198h203v-198h-2l-123 -277h-90z" />
<glyph unicode="&#x110;" horiz-adv-x="1341" d="M27 647v131h139v635h373q347 0 531.5 -184.5t184.5 -532.5q0 -334 -187 -515t-531 -181h-371v647h-139zM346 164h166q284 0 422.5 134t138.5 409q0 274 -133.5 409t-404.5 135h-189v-473h361v-131h-361v-483z" />
<glyph unicode="&#x111;" horiz-adv-x="1243" d="M86 524q0 118 27.5 216t82 172t143 115.5t202.5 41.5q213 0 350 -151h6v294h-285v97h285v104h170v-104h186v-97h-186v-1212h-168v129h-8q-134 -152 -350 -152q-114 0 -202.5 41.5t-143 116.5t-82 173t-27.5 216zM256 524q0 -190 83 -293.5t249 -103.5q148 0 232.5 106 t84.5 291q0 181 -85 286t-232 105q-165 0 -248.5 -102.5t-83.5 -288.5z" />
<glyph unicode="&#x112;" horiz-adv-x="1218" d="M190 0v1413h922v-158h-741v-469h653v-157h-653v-471h741v-158h-922zM385 1602v110h541v-110h-541z" />
<glyph unicode="&#x113;" horiz-adv-x="1101" d="M84 522q0 87 17 166t55 149t93.5 121t136 81t179.5 30t178 -31t129.5 -82t84 -121t47.5 -143t14 -153q0 -54 -4 -72h-758q13 -156 97 -246t243 -90q164 0 283 102l102 -104q-162 -149 -385 -149q-103 0 -188 28.5t-144.5 79t-100.5 119t-60 148t-19 167.5zM256 604h594 q-6 144 -79.5 230t-209.5 86q-144 0 -219.5 -87t-85.5 -229zM293 1237v111h541v-111h-541z" />
<glyph unicode="&#x116;" horiz-adv-x="1218" d="M190 0v1413h922v-158h-741v-469h653v-157h-653v-471h741v-158h-922zM571 1581v197h162v-197h-162z" />
<glyph unicode="&#x117;" horiz-adv-x="1101" d="M84 522q0 87 17 166t55 149t93.5 121t136 81t179.5 30t178 -31t129.5 -82t84 -121t47.5 -143t14 -153q0 -54 -4 -72h-758q13 -156 97 -246t243 -90q164 0 283 102l102 -104q-162 -149 -385 -149q-103 0 -188 28.5t-144.5 79t-100.5 119t-60 148t-19 167.5zM256 604h594 q-6 144 -79.5 230t-209.5 86q-144 0 -219.5 -87t-85.5 -229zM479 1217v196h162v-196h-162z" />
<glyph unicode="&#x118;" horiz-adv-x="1218" d="M190 0v1413h922v-158h-741v-469h653v-157h-653v-471h741v-158q-147 -110 -147 -227q0 -56 26.5 -85.5t67.5 -29.5q68 0 115 68l92 -64q-68 -113 -201 -113q-93 0 -151 55t-58 148q0 145 150 248h-816z" />
<glyph unicode="&#x119;" horiz-adv-x="1101" d="M84 522q0 87 17 166t55 149t93.5 121t136 81t179.5 30t178 -31t129.5 -82t84 -121t47.5 -143t14 -153q0 -54 -4 -72h-758q13 -156 97 -246t243 -90q164 0 283 102l102 -104q-9 -9 -27.5 -24t-23.5 -19q-96 -87 -96 -184q0 -56 26.5 -85.5t67.5 -29.5q67 0 114 68l93 -64 q-68 -113 -201 -113q-93 0 -151 55t-58 148q0 62 31 119q-76 -20 -160 -20q-103 0 -188 28.5t-144.5 79t-100.5 119t-60 148t-19 167.5zM256 604h594q-6 144 -79.5 230t-209.5 86q-144 0 -219.5 -87t-85.5 -229z" />
<glyph unicode="&#x11a;" horiz-adv-x="1218" d="M190 0v1413h922v-158h-741v-469h653v-157h-653v-471h741v-158h-922zM369 1778h145l139 -150l142 150h143l-256 -269h-57z" />
<glyph unicode="&#x11b;" horiz-adv-x="1101" d="M84 522q0 87 17 166t55 149t93.5 121t136 81t179.5 30t178 -31t129.5 -82t84 -121t47.5 -143t14 -153q0 -54 -4 -72h-758q13 -156 97 -246t243 -90q164 0 283 102l102 -104q-162 -149 -385 -149q-103 0 -188 28.5t-144.5 79t-100.5 119t-60 148t-19 167.5zM256 604h594 q-6 144 -79.5 230t-209.5 86q-144 0 -219.5 -87t-85.5 -229zM276 1413h146l139 -149l141 149h144l-256 -268h-58z" />
<glyph unicode="&#x11e;" horiz-adv-x="1495" d="M86 711q0 149 40.5 278.5t118 230t203.5 158.5t285 58q201 0 347 -95.5t229 -281.5l-162 -60q-129 273 -418 273q-96 0 -175 -29.5t-132.5 -81t-90 -122.5t-53 -152t-16.5 -172q0 -93 17 -176.5t54 -156t90 -125t129.5 -82.5t168.5 -30q188 0 309.5 115.5t130.5 317.5 h-321v149h487v-727h-141l-6 246q-59 -112 -182 -189t-293 -77q-146 0 -265 57.5t-195.5 157.5t-117.5 232t-41 284zM422 1778h133q0 -67 49.5 -111.5t122.5 -44.5q71 0 121.5 44.5t50.5 111.5h133q0 -124 -87.5 -197.5t-217.5 -73.5t-217.5 73t-87.5 198z" />
<glyph unicode="&#x11f;" horiz-adv-x="1243" d="M84 545q0 112 29.5 206t87 165.5t150 112t210.5 40.5q214 0 326 -145h8v125h172v-1033q0 -190 -128 -295.5t-349 -105.5q-168 0 -297 56.5t-174 166.5l108 78q41 -85 142 -124.5t215 -39.5q147 0 230 71t83 189v160q-56 -76 -145.5 -117t-202.5 -41t-203 42t-146.5 115 t-86 168t-29.5 206zM258 541q0 -80 19 -147t57.5 -121t104.5 -84.5t153 -30.5q162 0 240.5 99.5t78.5 266.5q0 81 -18 150.5t-55 127.5t-102 91t-152 33q-83 0 -146.5 -30t-102 -83.5t-58 -122t-19.5 -149.5zM272 1413h134q0 -67 49.5 -111.5t122.5 -44.5q71 0 121.5 44.5 t50.5 111.5h133q0 -124 -87.5 -197t-217.5 -73t-218 72.5t-88 197.5z" />
<glyph unicode="&#x120;" horiz-adv-x="1495" d="M86 711q0 149 40.5 278.5t118 230t203.5 158.5t285 58q201 0 347 -95.5t229 -281.5l-162 -60q-129 273 -418 273q-96 0 -175 -29.5t-132.5 -81t-90 -122.5t-53 -152t-16.5 -172q0 -93 17 -176.5t54 -156t90 -125t129.5 -82.5t168.5 -30q188 0 309.5 115.5t130.5 317.5 h-321v149h487v-727h-141l-6 246q-59 -112 -182 -189t-293 -77q-146 0 -265 57.5t-195.5 157.5t-117.5 232t-41 284zM645 1581v197h162v-197h-162z" />
<glyph unicode="&#x121;" horiz-adv-x="1243" d="M84 545q0 112 29.5 206t87 165.5t150 112t210.5 40.5q214 0 326 -145h8v125h172v-1033q0 -190 -128 -295.5t-349 -105.5q-168 0 -297 56.5t-174 166.5l108 78q41 -85 142 -124.5t215 -39.5q147 0 230 71t83 189v160q-56 -76 -145.5 -117t-202.5 -41t-203 42t-146.5 115 t-86 168t-29.5 206zM258 541q0 -80 19 -147t57.5 -121t104.5 -84.5t153 -30.5q162 0 240.5 99.5t78.5 266.5q0 81 -18 150.5t-55 127.5t-102 91t-152 33q-83 0 -146.5 -30t-102 -83.5t-58 -122t-19.5 -149.5zM496 1217v196h161v-196h-161z" />
<glyph unicode="&#x122;" horiz-adv-x="1495" d="M86 711q0 149 40.5 278.5t118 230t203.5 158.5t285 58q201 0 347 -95.5t229 -281.5l-162 -60q-129 273 -418 273q-96 0 -175 -29.5t-132.5 -81t-90 -122.5t-53 -152t-16.5 -172q0 -93 17 -176.5t54 -156t90 -125t129.5 -82.5t168.5 -30q188 0 309.5 115.5t130.5 317.5 h-321v149h487v-727h-141l-6 246q-59 -112 -182 -189t-293 -77q-146 0 -265 57.5t-195.5 157.5t-117.5 232t-41 284zM516 -444l123 303h209l-227 -303h-105z" />
<glyph unicode="&#x123;" horiz-adv-x="1232" d="M84 545q0 112 29.5 206t87 165.5t150 112t210.5 40.5q214 0 326 -145h8v125h172v-1033q0 -190 -128 -295.5t-349 -105.5q-168 0 -297 56.5t-174 166.5l108 78q41 -85 142 -124.5t215 -39.5q147 0 230 71t83 189v160q-56 -76 -145.5 -117t-202.5 -41t-203 42t-146.5 115 t-86 168t-29.5 206zM258 541q0 -80 19 -147t57.5 -121t104.5 -84.5t153 -30.5q162 0 240.5 99.5t78.5 266.5q0 81 -18 150.5t-55 127.5t-102 91t-152 33q-83 0 -146.5 -30t-102 -83.5t-58 -122t-19.5 -149.5zM410 1143l227 270h104l-123 -270h-208z" />
<glyph unicode="&#x126;" horiz-adv-x="1433" d="M88 1055v121h102v237h181v-237h692v237h180v-237h100v-121h-100v-1055h-180v629h-692v-629h-181v1055h-102zM371 786h692v269h-692v-269z" />
<glyph unicode="&#x127;" horiz-adv-x="1159" d="M0 1176v96h176v141h170v-141h295v-96h-295v-281h10q110 174 310 174q162 0 255 -104.5t93 -280.5v-684h-170v662q0 128 -55.5 192t-161.5 64q-121 0 -201 -86t-80 -214v-618h-170v1176h-176z" />
<glyph unicode="&#x128;" horiz-adv-x="561" d="M-76 1542q0 110 47.5 173t143.5 63q46 0 85.5 -15.5t66.5 -37.5t51.5 -44t53 -37.5t58.5 -15.5q96 0 96 150h109q0 -123 -53 -186.5t-148 -63.5q-44 0 -82.5 15t-65.5 36t-52 42.5t-53 36.5t-58 15q-47 0 -70.5 -36.5t-21.5 -94.5h-107zM190 0v1413h181v-1413h-181z" />
<glyph unicode="&#x129;" horiz-adv-x="503" d="M-104 1178q0 110 47 172.5t143 62.5q57 0 104.5 -23.5t74.5 -51t63.5 -51t72.5 -23.5q49 0 73 40t24 109h108q0 -123 -53 -186.5t-147 -63.5q-44 0 -82.5 15t-66 36.5t-52 43t-53 36.5t-58.5 15q-47 0 -70.5 -36.5t-21.5 -94.5h-106zM168 0v1049h168v-1049h-168z" />
<glyph unicode="&#x12a;" horiz-adv-x="561" d="M12 1602v110h541v-110h-541zM190 0v1413h181v-1413h-181z" />
<glyph unicode="&#x12b;" horiz-adv-x="503" d="M-16 1237v111h540v-111h-540zM168 0v1049h168v-1049h-168z" />
<glyph unicode="&#x12e;" horiz-adv-x="561" d="M115 -248q0 146 149 248h-74v1413h181v-1413q-148 -111 -148 -227q0 -56 26.5 -85.5t67.5 -29.5q68 0 115 68l92 -64q-68 -113 -200 -113q-93 0 -151 55t-58 148z" />
<glyph unicode="&#x12f;" horiz-adv-x="522" d="M82 -248q0 146 149 248h-55v1049h170v-1049h-8q-148 -111 -148 -227q0 -56 27 -85.5t68 -29.5q67 0 114 68l93 -64q-68 -113 -201 -113q-93 0 -151 55t-58 148zM176 1212v201h170v-201h-170z" />
<glyph unicode="&#x130;" horiz-adv-x="561" d="M190 0v1413h181v-1413h-181zM199 1581v197h161v-197h-161z" />
<glyph unicode="&#x131;" horiz-adv-x="503" d="M168 0v1049h168v-1049h-168z" />
<glyph unicode="&#x136;" horiz-adv-x="1273" d="M190 0v1413h181v-668l602 668h223l-526 -567l596 -846h-232l-479 723l-184 -199v-524h-181zM469 -444l123 303h209l-228 -303h-104z" />
<glyph unicode="&#x137;" horiz-adv-x="1062" d="M176 0v1413h170v-815l463 451h211l-436 -426l499 -623h-211l-399 514l-127 -123v-391h-170zM375 -444l123 303h209l-228 -303h-104z" />
<glyph unicode="&#x138;" horiz-adv-x="1052" d="M166 0v1049h170v-451l461 451h213l-437 -426l500 -623h-215l-397 514l-125 -123v-391h-170z" />
<glyph unicode="&#x139;" horiz-adv-x="993" d="M190 0v1413h181v-1255h604v-158h-785zM231 1538l222 240h215l-303 -240h-134z" />
<glyph unicode="&#x13a;" horiz-adv-x="505" d="M168 0v1413h170v-1413h-170zM184 1538l222 240h215l-304 -240h-133z" />
<glyph unicode="&#x13b;" horiz-adv-x="993" d="M190 0v1413h181v-1255h604v-158h-785zM297 -444l123 303h209l-228 -303h-104z" />
<glyph unicode="&#x13c;" horiz-adv-x="505" d="M23 -444l122 303h209l-227 -303h-104zM168 0v1413h170v-1413h-170z" />
<glyph unicode="&#x13d;" horiz-adv-x="993" d="M190 0v1413h181v-1255h604v-158h-785zM737 879l94 313h-81v223h229v-223h-2l-139 -313h-101z" />
<glyph unicode="&#x13e;" horiz-adv-x="630" d="M168 0v1413h170v-1413h-170zM467 879l94 313h-82v223h230v-223h-2l-140 -313h-100z" />
<glyph unicode="&#x141;" horiz-adv-x="993" d="M-2 356v156l192 145v756h181v-620l202 151v-162l-202 -149v-475h604v-158h-785v500z" />
<glyph unicode="&#x142;" horiz-adv-x="505" d="M-37 430v158l205 153v672h170v-545l207 156v-162l-207 -153v-709h-170v582z" />
<glyph unicode="&#x143;" horiz-adv-x="1497" d="M190 0v1413h242l684 -1194h10v1194h181v-1413h-246l-684 1204h-6v-1204h-181zM682 1538l221 240h215l-303 -240h-133z" />
<glyph unicode="&#x144;" horiz-adv-x="1159" d="M176 0v1049h170v-154h10q48 80 126 127t180 47q162 0 257 -104.5t95 -280.5v-684h-170v662q0 256 -213 256q-125 0 -205 -83.5t-80 -216.5v-618h-170zM506 1178l221 239h215l-303 -239h-133z" />
<glyph unicode="&#x145;" horiz-adv-x="1497" d="M190 0v1413h242l684 -1194h10v1194h181v-1413h-246l-684 1204h-6v-1204h-181zM520 -444l123 303h209l-227 -303h-105z" />
<glyph unicode="&#x146;" horiz-adv-x="1159" d="M176 0v1049h170v-154h10q48 80 126 127t180 47q162 0 257 -104.5t95 -280.5v-684h-170v662q0 256 -213 256q-125 0 -205 -83.5t-80 -216.5v-618h-170zM365 -444l122 303h209l-227 -303h-104z" />
<glyph unicode="&#x147;" horiz-adv-x="1497" d="M190 0v1413h242l684 -1194h10v1194h181v-1413h-246l-684 1204h-6v-1204h-181zM465 1778h145l140 -150l141 150h143l-256 -269h-57z" />
<glyph unicode="&#x148;" horiz-adv-x="1159" d="M176 0v1049h170v-154h10q48 80 126 127t180 47q162 0 257 -104.5t95 -280.5v-684h-170v662q0 256 -213 256q-125 0 -205 -83.5t-80 -216.5v-618h-170zM289 1417h145l139 -149l142 149h143l-256 -268h-57z" />
<glyph unicode="&#x14a;" horiz-adv-x="1497" d="M190 0v1413h242l684 -1194h10v1194h181v-1413q0 -36 -1.5 -61.5t-8 -58t-18 -54.5t-33 -45.5t-52 -37.5t-75.5 -23t-103 -9h-88v119h71q39 0 66.5 12t40.5 26.5t20 41t8 42t1 42.5v6h-74l-684 1204h-6v-1204h-181z" />
<glyph unicode="&#x14b;" horiz-adv-x="1148" d="M160 0v999h170v-163h12q51 90 133.5 135t183.5 45q88 0 155 -33.5t106 -91.5t58 -129t19 -154v-622q0 -22 -1 -38.5t-6.5 -47t-15.5 -53.5t-31.5 -50t-50.5 -44.5t-75 -29.5t-104 -12h-92v123h47q157 0 157 158v592q0 54 -10.5 100t-33 86t-65 63t-100.5 23 q-118 0 -202 -87t-84 -210v-559h-170z" />
<glyph unicode="&#x14c;" horiz-adv-x="1456" d="M86 707q0 333 174 530t469 197q294 0 468.5 -197t174.5 -530t-174.5 -530t-468.5 -197q-295 0 -469 197t-174 530zM264 707q0 -259 126 -412.5t339 -153.5q212 0 337.5 154t125.5 412q0 259 -125.5 412t-337.5 153q-214 0 -339.5 -152.5t-125.5 -412.5zM461 1602v110h540 v-110h-540z" />
<glyph unicode="&#x14d;" d="M84 520q0 262 136.5 405.5t361.5 143.5q222 0 358.5 -143.5t136.5 -405.5q0 -256 -137 -399.5t-358 -143.5q-224 0 -361 143t-137 400zM252 520q0 -194 88 -293.5t242 -99.5q155 0 244 99.5t89 293.5q0 200 -88.5 301t-244.5 101q-154 0 -242 -101t-88 -301zM313 1237 v111h541v-111h-541z" />
<glyph unicode="&#x150;" horiz-adv-x="1456" d="M86 707q0 333 174 530t469 197q294 0 468.5 -197t174.5 -530t-174.5 -530t-468.5 -197q-295 0 -469 197t-174 530zM264 707q0 -259 126 -412.5t339 -153.5q212 0 337.5 154t125.5 412q0 259 -125.5 412t-337.5 153q-214 0 -339.5 -152.5t-125.5 -412.5zM455 1544l213 234 h200l-262 -234h-151zM797 1544l213 234h211l-275 -234h-149z" />
<glyph unicode="&#x151;" d="M84 520q0 262 136.5 405.5t361.5 143.5q222 0 358.5 -143.5t136.5 -405.5q0 -256 -137 -399.5t-358 -143.5q-224 0 -361 143t-137 400zM252 520q0 -194 88 -293.5t242 -99.5q155 0 244 99.5t89 293.5q0 200 -88.5 301t-244.5 101q-154 0 -242 -101t-88 -301zM307 1180 l213 233h201l-262 -233h-152zM649 1180l213 233h211l-274 -233h-150z" />
<glyph unicode="&#x152;" horiz-adv-x="2242" d="M86 707q0 333 174 530t469 197q161 0 288.5 -61.5t213.5 -176.5v217h907v-158h-731v-469h643v-157h-643v-471h731v-158h-907v217q-86 -115 -213.5 -176t-288.5 -61q-295 0 -469 197t-174 530zM264 707q0 -259 126 -412.5t339 -153.5q212 0 337.5 154t125.5 412 q0 259 -125.5 412t-337.5 153q-214 0 -339.5 -152.5t-125.5 -412.5z" />
<glyph unicode="&#x153;" horiz-adv-x="1953" d="M84 520q0 262 136.5 405.5t361.5 143.5q136 0 243.5 -56.5t171.5 -164.5q128 221 404 221q99 0 178 -31t129.5 -82t83.5 -121t47 -143t14 -153q0 -54 -4 -72h-757q13 -156 97 -246t243 -90q163 0 282 102l103 -104q-162 -149 -385 -149q-151 0 -259.5 59.5t-171.5 163.5 q-64 -110 -173 -168t-246 -58q-224 0 -361 143t-137 400zM252 520q0 -194 88 -293.5t242 -99.5q155 0 244 99.5t89 293.5q0 200 -88.5 301t-244.5 101q-154 0 -242 -101t-88 -301zM1092 604h594q-6 144 -79.5 230t-209.5 86q-144 0 -219.5 -87t-85.5 -229z" />
<glyph unicode="&#x154;" horiz-adv-x="1337" d="M190 -2v1415h596q202 0 326.5 -107t124.5 -288q0 -143 -79.5 -238.5t-217.5 -130.5l342 -651h-199l-315 629h-399v-629h-179zM371 778h436q126 6 189 67.5t63 170.5q0 115 -71.5 177t-207.5 62h-409v-477zM571 1538l222 240h215l-303 -240h-134z" />
<glyph unicode="&#x155;" horiz-adv-x="761" d="M176 0v1049h170v-168h6q38 88 104.5 136t149.5 48q89 0 135 -18v-152q-78 16 -123 10q-130 -11 -201 -125.5t-71 -316.5v-463h-170zM391 1174l221 239h215l-303 -239h-133z" />
<glyph unicode="&#x156;" horiz-adv-x="1337" d="M190 -2v1415h596q202 0 326.5 -107t124.5 -288q0 -143 -79.5 -238.5t-217.5 -130.5l342 -651h-199l-315 629h-399v-629h-179zM371 778h436q126 6 189 67.5t63 170.5q0 115 -71.5 177t-207.5 62h-409v-477zM446 -444l123 303h209l-227 -303h-105z" />
<glyph unicode="&#x157;" horiz-adv-x="761" d="M31 -444l123 303h208l-227 -303h-104zM176 0v1049h170v-168h6q38 88 104.5 136t149.5 48q89 0 135 -18v-152q-78 16 -123 10q-130 -11 -201 -125.5t-71 -316.5v-463h-170z" />
<glyph unicode="&#x158;" horiz-adv-x="1337" d="M190 -2v1415h596q202 0 326.5 -107t124.5 -288q0 -143 -79.5 -238.5t-217.5 -130.5l342 -651h-199l-315 629h-399v-629h-179zM354 1778h146l139 -150l141 150h144l-256 -269h-58zM371 778h436q126 6 189 67.5t63 170.5q0 115 -71.5 177t-207.5 62h-409v-477z" />
<glyph unicode="&#x159;" horiz-adv-x="761" d="M174 1413h145l140 -149l141 149h143l-256 -268h-57zM176 0v1049h170v-168h6q38 88 104.5 136t149.5 48q89 0 135 -18v-152q-78 16 -123 10q-130 -11 -201 -125.5t-71 -316.5v-463h-170z" />
<glyph unicode="&#x15a;" horiz-adv-x="1097" d="M55 344l148 86q56 -143 155.5 -213t223.5 -70q121 0 195.5 60.5t74.5 165.5q0 48 -18 88t-43.5 67.5t-72 55t-84 44t-99.5 40.5q-165 64 -235 110q-163 111 -165 291q0 166 115.5 265.5t300.5 99.5q255 0 422 -213l-111 -111q-131 168 -315 168q-103 0 -167.5 -52 t-64.5 -139q0 -49 20.5 -87.5t73.5 -73t87 -51.5t118 -53q7 -3 11 -5q41 -17 65.5 -27t63.5 -28.5t63 -32.5t56.5 -36.5t53 -43.5t42.5 -50t34.5 -59.5t20.5 -68.5t8 -80q0 -181 -127.5 -294t-326.5 -113q-109 0 -207 36.5t-183 119t-133 204.5zM471 1538l221 240h215 l-303 -240h-133z" />
<glyph unicode="&#x15b;" horiz-adv-x="968" d="M59 215l123 90q34 -73 111.5 -126t193.5 -54q66 -1 120.5 15.5t90.5 55t37 93.5q0 35 -14 62t-38.5 45t-59 31.5t-73.5 24t-84 20.5l-15 3q-46 11 -74 18t-70 20.5t-68 27.5t-56 36t-47 47t-28.5 60.5t-11.5 77.5q0 145 106 226t277 81q133 0 228.5 -54.5t152.5 -137.5 l-106 -97q-99 139 -271 144q-97 3 -161.5 -36t-67.5 -106q-1 -35 17 -60.5t69.5 -47t80 -29.5t109.5 -28q13 -3 19 -5q53 -13 88.5 -23.5t80.5 -28t73.5 -39t55.5 -51.5t39.5 -71t12.5 -92q0 -103 -58 -179.5t-149.5 -113.5t-202.5 -37q-142 0 -261.5 69t-168.5 169z M403 1174l222 239h215l-303 -239h-134z" />
<glyph unicode="&#x15e;" horiz-adv-x="1097" d="M55 344l148 86q56 -143 155.5 -213t223.5 -70q121 0 195.5 60.5t74.5 165.5q0 48 -18 88t-43.5 67.5t-72 55t-84 44t-99.5 40.5q-165 64 -235 110q-163 111 -165 291q0 166 115.5 265.5t300.5 99.5q255 0 422 -213l-111 -111q-131 168 -315 168q-103 0 -167.5 -52 t-64.5 -139q0 -49 20.5 -87.5t73.5 -73t87 -51.5t118 -53q7 -3 11 -5q41 -17 65.5 -27t63.5 -28.5t63 -32.5t56.5 -36.5t53 -43.5t42.5 -50t34.5 -59.5t20.5 -68.5t8 -80q0 -179 -124.5 -291.5t-319.5 -115.5l-70 -115l45 -14q142 -48 142 -174q0 -89 -57.5 -136t-135.5 -47 q-69 0 -119.5 35.5t-73.5 91.5l95 47q6 -31 31.5 -52t62.5 -21q40 0 64 23.5t24 58.5q0 33 -23.5 62t-66.5 42l-123 39l92 168q-138 25 -249 113t-171 239z" />
<glyph unicode="&#x15f;" horiz-adv-x="968" d="M59 215l123 90q34 -73 111.5 -126t193.5 -54q66 -1 120.5 15.5t90.5 55t37 93.5q0 35 -14 62t-38.5 45t-59 31.5t-73.5 24t-84 20.5l-15 3q-46 11 -74 18t-70 20.5t-68 27.5t-56 36t-47 47t-28.5 60.5t-11.5 77.5q0 145 106 226t277 81q133 0 228.5 -54.5t152.5 -137.5 l-106 -97q-99 139 -271 144q-97 3 -161.5 -36t-67.5 -106q-1 -35 17 -60.5t69.5 -47t80 -29.5t109.5 -28q13 -3 19 -5q53 -13 88.5 -23.5t80.5 -28t73.5 -39t55.5 -51.5t39.5 -71t12.5 -92q0 -132 -92 -217t-234 -106l-67 -113l45 -14q141 -48 141 -174q0 -89 -57 -136 t-135 -47q-69 0 -119.5 35.5t-73.5 91.5l94 47q6 -31 32 -52t63 -21q40 0 64 23.5t24 58.5q0 33 -23.5 62t-66.5 42l-123 39l82 154q-131 9 -240 75.5t-154 159.5z" />
<glyph unicode="&#x160;" horiz-adv-x="1097" d="M55 344l148 86q56 -143 155.5 -213t223.5 -70q121 0 195.5 60.5t74.5 165.5q0 48 -18 88t-43.5 67.5t-72 55t-84 44t-99.5 40.5q-165 64 -235 110q-163 111 -165 291q0 166 115.5 265.5t300.5 99.5q255 0 422 -213l-111 -111q-131 168 -315 168q-103 0 -167.5 -52 t-64.5 -139q0 -49 20.5 -87.5t73.5 -73t87 -51.5t118 -53q7 -3 11 -5q41 -17 65.5 -27t63.5 -28.5t63 -32.5t56.5 -36.5t53 -43.5t42.5 -50t34.5 -59.5t20.5 -68.5t8 -80q0 -181 -127.5 -294t-326.5 -113q-109 0 -207 36.5t-183 119t-133 204.5zM254 1778h145l140 -150 l141 150h143l-256 -269h-57z" />
<glyph unicode="&#x161;" horiz-adv-x="968" d="M59 215l123 90q34 -73 111.5 -126t193.5 -54q66 -1 120.5 15.5t90.5 55t37 93.5q0 35 -14 62t-38.5 45t-59 31.5t-73.5 24t-84 20.5l-15 3q-46 11 -74 18t-70 20.5t-68 27.5t-56 36t-47 47t-28.5 60.5t-11.5 77.5q0 145 106 226t277 81q133 0 228.5 -54.5t152.5 -137.5 l-106 -97q-99 139 -271 144q-97 3 -161.5 -36t-67.5 -106q-1 -35 17 -60.5t69.5 -47t80 -29.5t109.5 -28q13 -3 19 -5q53 -13 88.5 -23.5t80.5 -28t73.5 -39t55.5 -51.5t39.5 -71t12.5 -92q0 -103 -58 -179.5t-149.5 -113.5t-202.5 -37q-142 0 -261.5 69t-168.5 169z M186 1413h146l139 -149l141 149h144l-256 -268h-58z" />
<glyph unicode="&#x162;" horiz-adv-x="1157" d="M18 1257v156h1121v-156h-469v-1257h-27l-78 -129l45 -14q142 -48 142 -174q0 -89 -57.5 -136t-135.5 -47q-69 0 -119 35.5t-73 91.5l94 47q6 -31 31.5 -52t62.5 -21q40 0 64 23.5t24 58.5q0 33 -23.5 62t-66.5 42l-123 39l94 174h-35v1257h-471z" />
<glyph unicode="&#x163;" horiz-adv-x="688" d="M33 918v131h157v364h168v-364h277v-131h-277v-603q0 -98 33.5 -137t118.5 -39h125v-139h-111l-78 -129l46 -14q141 -48 141 -174q0 -89 -57.5 -136t-135.5 -47q-69 0 -119 35.5t-73 91.5l94 47q6 -31 31.5 -52t62.5 -21q40 0 64 23.5t24 58.5q0 33 -23.5 62t-66.5 42 l-123 39l95 174h53q-136 0 -202.5 69t-66.5 210v639h-157z" />
<glyph unicode="&#x164;" horiz-adv-x="1157" d="M18 1257v156h1121v-156h-469v-1257h-181v1257h-471zM293 1778h145l140 -150l141 150h143l-256 -269h-57z" />
<glyph unicode="&#x165;" horiz-adv-x="722" d="M33 918v131h157v364h168v-364h277v-131h-277v-603q0 -98 33.5 -137t118.5 -39h125v-139h-176q-136 0 -202.5 69t-66.5 210v639h-157zM543 1143l94 313h-82v223h229v-223h-2l-139 -313h-100z" />
<glyph unicode="&#x166;" horiz-adv-x="1157" d="M18 1257v156h1121v-156h-469v-503h229v-97h-229v-657h-181v657h-231v97h231v503h-471z" />
<glyph unicode="&#x167;" horiz-adv-x="688" d="M31 475v96h159v347h-157v131h157v364h168v-364h277v-131h-277v-347h244v-96h-244v-160q0 -98 33.5 -137t118.5 -39h125v-139h-176q-136 0 -202.5 69t-66.5 210v196h-159z" />
<glyph unicode="&#x168;" horiz-adv-x="1347" d="M170 500v913h180v-921q0 -163 86 -256t238 -93t237.5 93t85.5 256v921h181v-903q0 -250 -133 -390t-371 -140t-371 137.5t-133 382.5zM317 1542q0 110 47.5 173t143.5 63q46 0 85.5 -15.5t66.5 -37.5t51.5 -44t53 -37.5t58.5 -15.5q49 0 73 40.5t24 109.5h108 q0 -123 -53 -186.5t-148 -63.5q-44 0 -82.5 15t-65.5 36t-52 42.5t-53 36.5t-58 15q-47 0 -70.5 -36.5t-21.5 -94.5h-107z" />
<glyph unicode="&#x169;" d="M150 367v682h172v-656q0 -126 55.5 -188t157.5 -62q125 0 203.5 82.5t78.5 210.5v613h170v-1049h-170v154h-16q-100 -170 -299 -170q-165 0 -258.5 103.5t-93.5 279.5zM213 1178q0 110 47 172.5t143 62.5q57 0 104.5 -23.5t75 -51t64 -51t72.5 -23.5q96 0 96 149h109 q0 -123 -53 -186.5t-148 -63.5q-44 0 -82.5 15t-65.5 36.5t-52 43t-53 36.5t-58 15q-47 0 -71 -37t-22 -94h-106z" />
<glyph unicode="&#x16a;" horiz-adv-x="1347" d="M170 500v913h180v-921q0 -163 86 -256t238 -93t237.5 93t85.5 256v921h181v-903q0 -250 -133 -390t-371 -140t-371 137.5t-133 382.5zM406 1602v110h540v-110h-540z" />
<glyph unicode="&#x16b;" d="M150 367v682h172v-656q0 -126 55.5 -188t157.5 -62q125 0 203.5 82.5t78.5 210.5v613h170v-1049h-170v154h-16q-100 -170 -299 -170q-165 0 -258.5 103.5t-93.5 279.5zM301 1237v111h541v-111h-541z" />
<glyph unicode="&#x16e;" horiz-adv-x="1347" d="M170 500v913h180v-921q0 -163 86 -256t238 -93t237.5 93t85.5 256v921h181v-903q0 -250 -133 -390t-371 -140t-371 137.5t-133 382.5zM473 1690q0 83 57.5 139.5t141.5 56.5q82 0 140 -56.5t58 -139.5q0 -84 -57.5 -143.5t-140.5 -59.5q-84 0 -141.5 59t-57.5 144z M569 1688q0 -45 30 -74t73 -29q42 0 73 30.5t31 72.5q0 43 -30 72.5t-74 29.5q-46 0 -74.5 -27.5t-28.5 -74.5z" />
<glyph unicode="&#x16f;" d="M150 367v682h172v-656q0 -126 55.5 -188t157.5 -62q125 0 203.5 82.5t78.5 210.5v613h170v-1049h-170v154h-16q-100 -170 -299 -170q-165 0 -258.5 103.5t-93.5 279.5zM369 1325q0 83 57.5 140t140.5 57q82 0 140.5 -57t58.5 -140q0 -84 -58 -143.5t-141 -59.5 q-84 0 -141 59t-57 144zM465 1323q0 -45 29.5 -73.5t72.5 -28.5q42 0 73.5 30t31.5 72q0 43 -30.5 72.5t-74.5 29.5q-46 0 -74 -27.5t-28 -74.5z" />
<glyph unicode="&#x170;" horiz-adv-x="1347" d="M170 500v913h180v-921q0 -163 86 -256t238 -93t237.5 93t85.5 256v921h181v-903q0 -250 -133 -390t-371 -140t-371 137.5t-133 382.5zM399 1544l213 234h201l-262 -234h-152zM741 1544l213 234h211l-274 -234h-150z" />
<glyph unicode="&#x171;" d="M150 367v682h172v-656q0 -126 55.5 -188t157.5 -62q125 0 203.5 82.5t78.5 210.5v613h170v-1049h-170v154h-16q-100 -170 -299 -170q-165 0 -258.5 103.5t-93.5 279.5zM295 1180l213 233h201l-263 -233h-151zM637 1180l213 233h211l-275 -233h-149z" />
<glyph unicode="&#x172;" horiz-adv-x="1347" d="M170 500v913h180v-921q0 -163 86 -256t238 -93t237.5 93t85.5 256v921h181v-903q0 -307 -197 -444q-123 -101 -123 -209q0 -56 26.5 -85.5t67.5 -29.5q68 0 115 68l92 -64q-68 -113 -201 -113q-93 0 -150.5 55t-57.5 148q0 85 53 156q-61 -12 -129 -12q-238 0 -371 137.5 t-133 382.5z" />
<glyph unicode="&#x173;" d="M150 367v682h172v-656q0 -126 55.5 -188t157.5 -62q125 0 203.5 82.5t78.5 210.5v613h170v-1049h2q-147 -110 -147 -227q0 -56 26.5 -85.5t67.5 -29.5q68 0 115 68l92 -64q-68 -113 -201 -113q-93 0 -151 55t-58 148q0 145 150 248h-66v154h-16q-100 -170 -299 -170 q-165 0 -258.5 103.5t-93.5 279.5z" />
<glyph unicode="&#x174;" horiz-adv-x="1847" d="M18 1413h185l268 -1239h6l328 1239h235l328 -1239h6l268 1239h185l-330 -1413h-240l-335 1264l-334 -1264h-240zM641 1509l254 269h57l258 -269h-145l-139 156l-140 -156h-145z" />
<glyph unicode="&#x175;" horiz-adv-x="1476" d="M31 1049h186l174 -928l268 928h154l270 -928l177 928h184l-236 -1049h-241l-230 821l-229 -821h-242zM453 1145l254 268h57l258 -268h-145l-140 155l-139 -155h-145z" />
<glyph unicode="&#x176;" horiz-adv-x="1345" d="M6 1413h209l455 -698l458 698h209l-577 -860v-553h-178v553zM389 1509l254 269h57l258 -269h-145l-139 156l-139 -156h-146z" />
<glyph unicode="&#x177;" horiz-adv-x="929" d="M25 1049h182l262 -840h8l256 840h185l-383 -1098q-29 -84 -69.5 -143t-82 -92.5t-98.5 -52t-106 -23.5t-118 -5v142q67 0 119.5 14.5t84 33.5t58 54.5t38 60t28.5 66.5zM184 1145l254 268h58l258 -268h-146l-139 155l-139 -155h-146z" />
<glyph unicode="&#x178;" horiz-adv-x="1345" d="M6 1413h209l455 -698l458 698h209l-577 -860v-553h-178v553zM422 1577v201h170v-201h-170zM752 1577v201h170v-201h-170z" />
<glyph unicode="&#x179;" horiz-adv-x="1171" d="M35 0v137l870 1118h-825v158h1057v-143l-873 -1112h873v-158h-1102zM524 1538l221 240h216l-304 -240h-133z" />
<glyph unicode="&#x17a;" horiz-adv-x="931" d="M55 0v127l623 776h-602v146h805v-140l-613 -762h606v-147h-819zM399 1174l222 239h215l-304 -239h-133z" />
<glyph unicode="&#x17b;" horiz-adv-x="1171" d="M35 0v137l870 1118h-825v158h1057v-143l-873 -1112h873v-158h-1102zM510 1581v197h162v-197h-162z" />
<glyph unicode="&#x17c;" horiz-adv-x="931" d="M55 0v127l623 776h-602v146h805v-140l-613 -762h606v-147h-819zM385 1217v196h162v-196h-162z" />
<glyph unicode="&#x17d;" horiz-adv-x="1171" d="M35 0v137l870 1118h-825v158h1057v-143l-873 -1112h873v-158h-1102zM307 1778h146l139 -150l141 150h144l-256 -269h-58z" />
<glyph unicode="&#x17e;" horiz-adv-x="931" d="M55 0v127l623 776h-602v146h805v-140l-613 -762h606v-147h-819zM182 1413h146l139 -149l141 149h144l-256 -268h-58z" />
<glyph unicode="&#x192;" horiz-adv-x="888" d="M84 -246q52 0 89 10t68 36t46.5 75.5t15.5 124.5h4v918h-190v131h192v67q0 135 82.5 216t226.5 81h125v-137h-120q-67 0 -106.5 -41.5t-39.5 -108.5v-77h266v-131h-266v-918h-4q0 -109 -30 -187.5t-85 -122.5t-122.5 -63.5t-151.5 -19.5v147z" />
<glyph unicode="&#x1cd;" horiz-adv-x="1202" d="M8 0l473 1413h244l471 -1413h-192l-101 319h-602l-100 -319h-193zM322 1778h145l139 -150l142 150h143l-256 -269h-57zM348 469h510l-252 805h-6z" />
<glyph unicode="&#x1ce;" horiz-adv-x="1085" d="M92 279q0 186 187 276q24 12 52 24t65.5 24.5t65 21.5t79 24t77.5 22.5t90.5 25t90.5 24.5v6q0 103 -61.5 149t-182.5 46q-110 0 -183.5 -37.5t-129.5 -114.5l-127 88q149 211 428 211q183 0 299 -83t116 -238v-748h-159v154q-83 -86 -179.5 -131.5t-189.5 -45.5 q-150 0 -244 82.5t-94 219.5zM260 1413h146l139 -149l141 149h143l-256 -268h-57zM272 285q0 -73 51 -115.5t126 -42.5q180 0 350 197v258q-311 -91 -414 -144q-113 -60 -113 -153z" />
<glyph unicode="&#x1cf;" horiz-adv-x="561" d="M-4 1778h145l140 -150l141 150h143l-256 -269h-57zM190 0v1413h181v-1413h-181z" />
<glyph unicode="&#x1d0;" horiz-adv-x="503" d="M-33 1413h146l139 -149l141 149h144l-256 -268h-58zM168 0v1049h168v-1049h-168z" />
<glyph unicode="&#x1d1;" horiz-adv-x="1456" d="M86 707q0 333 174 530t469 197q294 0 468.5 -197t174.5 -530t-174.5 -530t-468.5 -197q-295 0 -469 197t-174 530zM264 707q0 -259 126 -412.5t339 -153.5q212 0 337.5 154t125.5 412q0 259 -125.5 412t-337.5 153q-214 0 -339.5 -152.5t-125.5 -412.5zM444 1778h146 l139 -150l141 150h144l-256 -269h-58z" />
<glyph unicode="&#x1d2;" d="M84 520q0 262 136.5 405.5t361.5 143.5q222 0 358.5 -143.5t136.5 -405.5q0 -256 -137 -399.5t-358 -143.5q-224 0 -361 143t-137 400zM252 520q0 -194 88 -293.5t242 -99.5q155 0 244 99.5t89 293.5q0 200 -88.5 301t-244.5 101q-154 0 -242 -101t-88 -301zM297 1413 h145l140 -149l141 149h143l-256 -268h-57z" />
<glyph unicode="&#x1d3;" horiz-adv-x="1347" d="M170 500v913h180v-921q0 -163 86 -256t238 -93t237.5 93t85.5 256v921h181v-903q0 -250 -133 -390t-371 -140t-371 137.5t-133 382.5zM389 1778h146l139 -150l141 150h143l-256 -269h-57z" />
<glyph unicode="&#x1d4;" d="M150 367v682h172v-656q0 -126 55.5 -188t157.5 -62q125 0 203.5 82.5t78.5 210.5v613h170v-1049h-170v154h-16q-100 -170 -299 -170q-165 0 -258.5 103.5t-93.5 279.5zM285 1413h145l139 -149l142 149h143l-256 -268h-57z" />
<glyph unicode="&#x1d5;" horiz-adv-x="1347" d="M170 500v913h180v-921q0 -163 86 -256t238 -93t237.5 93t85.5 256v921h181v-903q0 -250 -133 -390t-371 -140t-371 137.5t-133 382.5zM406 1966v111h540v-111h-540zM422 1577v201h170v-201h-170zM752 1577v201h170v-201h-170z" />
<glyph unicode="&#x1d6;" d="M150 367v682h172v-656q0 -126 55.5 -188t157.5 -62q125 0 203.5 82.5t78.5 210.5v613h170v-1049h-170v154h-16q-100 -170 -299 -170q-165 0 -258.5 103.5t-93.5 279.5zM301 1602v110h541v-110h-541zM317 1212v201h170v-201h-170zM647 1212v201h170v-201h-170z" />
<glyph unicode="&#x1d7;" horiz-adv-x="1347" d="M170 500v913h180v-921q0 -163 86 -256t238 -93t237.5 93t85.5 256v921h181v-903q0 -250 -133 -390t-371 -140t-371 137.5t-133 382.5zM422 1577v201h170v-201h-170zM606 1903l221 239h215l-303 -239h-133zM752 1577v201h170v-201h-170z" />
<glyph unicode="&#x1d8;" d="M150 367v682h172v-656q0 -126 55.5 -188t157.5 -62q125 0 203.5 82.5t78.5 210.5v613h170v-1049h-170v154h-16q-100 -170 -299 -170q-165 0 -258.5 103.5t-93.5 279.5zM317 1212v201h170v-201h-170zM502 1538l221 240h215l-303 -240h-133zM647 1212v201h170v-201h-170z " />
<glyph unicode="&#x1d9;" horiz-adv-x="1347" d="M170 500v913h180v-921q0 -163 86 -256t238 -93t237.5 93t85.5 256v921h181v-903q0 -250 -133 -390t-371 -140t-371 137.5t-133 382.5zM389 2142h146l139 -149l141 149h143l-256 -268h-57zM422 1577v201h170v-201h-170zM752 1577v201h170v-201h-170z" />
<glyph unicode="&#x1da;" d="M150 367v682h172v-656q0 -126 55.5 -188t157.5 -62q125 0 203.5 82.5t78.5 210.5v613h170v-1049h-170v154h-16q-100 -170 -299 -170q-165 0 -258.5 103.5t-93.5 279.5zM285 1778h145l139 -150l142 150h143l-256 -269h-57zM317 1212v201h170v-201h-170zM647 1212v201h170 v-201h-170z" />
<glyph unicode="&#x1db;" horiz-adv-x="1347" d="M170 500v913h180v-921q0 -163 86 -256t238 -93t237.5 93t85.5 256v921h181v-903q0 -250 -133 -390t-371 -140t-371 137.5t-133 382.5zM311 2142h217l220 -241h-152zM422 1577v201h170v-201h-170zM752 1577v201h170v-201h-170z" />
<glyph unicode="&#x1dc;" d="M150 367v682h172v-656q0 -126 55.5 -188t157.5 -62q125 0 203.5 82.5t78.5 210.5v613h170v-1049h-170v154h-16q-100 -170 -299 -170q-165 0 -258.5 103.5t-93.5 279.5zM207 1778h217l219 -242h-151zM317 1212v201h170v-201h-170zM647 1212v201h170v-201h-170z" />
<glyph unicode="&#x1fe;" horiz-adv-x="1456" d="M76 147l119 119q-109 182 -109 441q0 333 174 530t469 197q277 0 455 -181l100 101l94 -88l-116 -117q110 -179 110 -442q0 -333 -174.5 -530t-468.5 -197q-281 0 -455 180l-104 -105zM264 707q0 -173 62 -310l733 731q-125 144 -330 144q-214 0 -339.5 -152.5 t-125.5 -412.5zM399 285q125 -144 330 -144q212 0 337.5 154t125.5 412q0 174 -62 311zM662 1538l221 240h215l-303 -240h-133z" />
<glyph unicode="&#x1ff;" d="M84 520q0 262 136.5 405.5t361.5 143.5q215 0 348 -133l43 43l65 -61l-51 -52q90 -139 90 -346q0 -256 -137 -399.5t-358 -143.5q-216 0 -351 132l-43 -43l-65 65l51 49q-90 139 -90 340zM252 520q0 -132 41 -219l528 526q-89 95 -239 95q-154 0 -242 -101t-88 -301z M344 221q85 -94 238 -94q155 0 244 99.5t89 293.5q0 136 -43 230zM514 1174l221 239h215l-303 -239h-133z" />
<glyph unicode="&#x218;" horiz-adv-x="1097" d="M55 344l148 86q56 -143 155.5 -213t223.5 -70q121 0 195.5 60.5t74.5 165.5q0 48 -18 88t-43.5 67.5t-72 55t-84 44t-99.5 40.5q-165 64 -235 110q-163 111 -165 291q0 166 115.5 265.5t300.5 99.5q255 0 422 -213l-111 -111q-131 168 -315 168q-103 0 -167.5 -52 t-64.5 -139q0 -49 20.5 -87.5t73.5 -73t87 -51.5t118 -53q7 -3 11 -5q41 -17 65.5 -27t63.5 -28.5t63 -32.5t56.5 -36.5t53 -43.5t42.5 -50t34.5 -59.5t20.5 -68.5t8 -80q0 -181 -127.5 -294t-326.5 -113q-109 0 -207 36.5t-183 119t-133 204.5zM301 -446l123 303h209 l-227 -303h-105z" />
<glyph unicode="&#x219;" horiz-adv-x="968" d="M59 215l123 90q34 -73 111.5 -126t193.5 -54q66 -1 120.5 15.5t90.5 55t37 93.5q0 35 -14 62t-38.5 45t-59 31.5t-73.5 24t-84 20.5l-15 3q-46 11 -74 18t-70 20.5t-68 27.5t-56 36t-47 47t-28.5 60.5t-11.5 77.5q0 145 106 226t277 81q133 0 228.5 -54.5t152.5 -137.5 l-106 -97q-99 139 -271 144q-97 3 -161.5 -36t-67.5 -106q-1 -35 17 -60.5t69.5 -47t80 -29.5t109.5 -28q13 -3 19 -5q53 -13 88.5 -23.5t80.5 -28t73.5 -39t55.5 -51.5t39.5 -71t12.5 -92q0 -103 -58 -179.5t-149.5 -113.5t-202.5 -37q-142 0 -261.5 69t-168.5 169z M289 -444l123 303h209l-228 -303h-104z" />
<glyph unicode="&#x21a;" horiz-adv-x="1157" d="M18 1257v156h1121v-156h-469v-1257h-181v1257h-471zM348 -444l123 303h209l-227 -303h-105z" />
<glyph unicode="&#x21b;" horiz-adv-x="688" d="M33 918v131h157v364h168v-364h277v-131h-277v-603q0 -98 33.5 -137t118.5 -39h125v-139h-176q-136 0 -202.5 69t-66.5 210v639h-157zM229 -444l123 303h209l-227 -303h-105z" />
<glyph unicode="&#x237;" horiz-adv-x="516" d="M-41 -223h98q61 0 87 32t26 93v1147h170v-1137q0 -140 -62.5 -208.5t-203.5 -68.5h-115v142z" />
<glyph unicode="&#x2c6;" horiz-adv-x="688" d="M61 1106l254 268h58l258 -268h-146l-139 156l-139 -156h-146z" />
<glyph unicode="&#x2c7;" horiz-adv-x="688" d="M59 1364h146l139 -150l141 150h144l-256 -268h-58z" />
<glyph unicode="&#x2d8;" horiz-adv-x="638" d="M14 1364h133q0 -67 49.5 -111.5t122.5 -44.5q72 0 122.5 44.5t50.5 111.5h133q0 -124 -87.5 -197t-218.5 -73q-130 0 -217.5 72.5t-87.5 197.5z" />
<glyph unicode="&#x2d9;" horiz-adv-x="256" d="M47 1167v197h162v-197h-162z" />
<glyph unicode="&#x2da;" horiz-adv-x="434" d="M16 1282q0 83 58 142t141 59q84 0 143.5 -58.5t59.5 -142.5q0 -83 -59 -142t-144 -59q-84 0 -141.5 58.5t-57.5 142.5zM109 1282q0 -47 30.5 -77.5t75.5 -30.5q46 0 78.5 31.5t32.5 76.5q0 46 -31 77.5t-80 31.5q-47 0 -76.5 -30t-29.5 -79z" />
<glyph unicode="&#x2db;" horiz-adv-x="493" d="M152 -248q0 77 44.5 144.5t122.5 115.5l89 -12q-148 -111 -148 -227q0 -56 26.5 -85.5t67.5 -29.5q68 0 115 68l92 -64q-68 -113 -201 -113q-93 0 -150.5 55t-57.5 148z" />
<glyph unicode="&#x2dc;" horiz-adv-x="747" d="M18 1083q0 110 47.5 173t143.5 63q46 0 85.5 -15.5t66.5 -37.5t51.5 -44t53 -37.5t58.5 -15.5q49 0 73 40.5t24 109.5h108q0 -123 -53 -186.5t-148 -63.5q-44 0 -82.5 15t-65.5 36.5t-52 42.5t-53 36t-58 15q-47 0 -70.5 -36.5t-21.5 -94.5h-107z" />
<glyph unicode="&#x2dd;" horiz-adv-x="798" d="M10 1130l213 234h201l-262 -234h-152zM352 1130l213 234h211l-274 -234h-150z" />
<glyph unicode="&#x300;" horiz-adv-x="0" d="M-453 1364h217l220 -242h-152z" />
<glyph unicode="&#x301;" horiz-adv-x="0" d="M-434 1124l221 240h215l-303 -240h-133z" />
<glyph unicode="&#x302;" horiz-adv-x="0" d="M-627 1106l254 268h58l258 -268h-146l-139 156l-139 -156h-146z" />
<glyph unicode="&#x303;" horiz-adv-x="0" d="M-729 1083q0 110 47 173t143 63q57 0 104.5 -23.5t75 -51.5t64 -51.5t72.5 -23.5q96 0 96 150h109q0 -123 -53 -186.5t-148 -63.5q-44 0 -82.5 15t-65.5 36.5t-52 42.5t-53 36t-58 15q-47 0 -71 -37t-22 -94h-106z" />
<glyph unicode="&#x304;" horiz-adv-x="0" d="M-606 1188v110h540v-110h-540z" />
<glyph unicode="&#x306;" horiz-adv-x="0" d="M-625 1364h133q0 -67 50 -111.5t123 -44.5q71 0 121.5 44.5t50.5 111.5h133q0 -124 -87.5 -197t-217.5 -73t-218 72.5t-88 197.5z" />
<glyph unicode="&#x307;" horiz-adv-x="0" d="M-209 1167v197h162v-197h-162z" />
<glyph unicode="&#x308;" horiz-adv-x="0" d="M-547 1163v201h170v-201h-170zM-217 1163v201h170v-201h-170z" />
<glyph unicode="&#x30a;" horiz-adv-x="0" d="M-483 1284q0 83 57.5 140t140.5 57q82 0 140.5 -57t58.5 -140q0 -84 -58 -143.5t-141 -59.5q-84 0 -141 59t-57 144zM-387 1282q0 -45 29.5 -73.5t72.5 -28.5q42 0 73.5 30t31.5 72q0 43 -30.5 72.5t-74.5 29.5q-46 0 -74 -27.5t-28 -74.5z" />
<glyph unicode="&#x30b;" horiz-adv-x="0" d="M-788 1130l213 234h200l-262 -234h-151zM-446 1130l213 234h210l-274 -234h-149z" />
<glyph unicode="&#x30c;" horiz-adv-x="0" d="M-629 1364h146l139 -150l141 150h144l-256 -268h-58z" />
<glyph unicode="&#x312;" horiz-adv-x="0" d="M-119 1151l228 270h104l-123 -270h-209z" />
<glyph unicode="&#x326;" horiz-adv-x="0" d="M-330 -444l123 303h209l-227 -303h-105z" />
<glyph unicode="&#x327;" horiz-adv-x="0" d="M-399 -373l94 47q6 -31 31.5 -52t62.5 -21q40 0 64 23.5t24 58.5q0 33 -23.5 62t-66.5 42l-123 39l94 174h119l-78 -129l45 -14q142 -48 142 -174q0 -89 -57.5 -136t-135.5 -47q-69 0 -119 35.5t-73 91.5z" />
<glyph unicode="&#x328;" horiz-adv-x="0" d="M-342 -248q0 76 45 144t123 116l88 -12q-147 -110 -147 -227q0 -56 26.5 -85.5t67.5 -29.5q67 0 114 68l93 -64q-68 -113 -201 -113q-93 0 -151 55t-58 148z" />
<glyph unicode="&#x335;" horiz-adv-x="0" d="M-1315 524v97h641v-97h-641z" />
<glyph unicode="&#x336;" horiz-adv-x="0" d="M-1274 510v121h1256v-121h-1256z" />
<glyph unicode="&#x337;" horiz-adv-x="0" d="M-1124 100v209l770 578v-215z" />
<glyph unicode="&#x338;" horiz-adv-x="0" d="M-1303 141l1209 1207l94 -88l-1208 -1211z" />
<glyph unicode="&#x3c0;" horiz-adv-x="1181" d="M168 852v147h743v-147h-82v-637q0 -71 45.5 -95.5t100.5 19.5l31 -125q-52 -34 -119 -34q-90 0 -147.5 68.5t-57.5 158.5v645h-285v-852h-147v852h-82z" />
<glyph unicode="&#x1e80;" horiz-adv-x="1847" d="M18 1413h185l268 -1239h6l328 1239h235l328 -1239h6l268 1239h185l-330 -1413h-240l-335 1264l-334 -1264h-240zM563 1778h217l219 -242h-151z" />
<glyph unicode="&#x1e81;" horiz-adv-x="1476" d="M31 1049h186l174 -928l268 928h154l270 -928l177 928h184l-236 -1049h-241l-230 821l-229 -821h-242zM375 1413h217l219 -242h-152z" />
<glyph unicode="&#x1e82;" horiz-adv-x="1847" d="M18 1413h185l268 -1239h6l328 1239h235l328 -1239h6l268 1239h185l-330 -1413h-240l-335 1264l-334 -1264h-240zM858 1538l221 240h215l-303 -240h-133z" />
<glyph unicode="&#x1e83;" horiz-adv-x="1476" d="M31 1049h186l174 -928l268 928h154l270 -928l177 928h184l-236 -1049h-241l-230 821l-229 -821h-242zM670 1174l221 239h215l-303 -239h-133z" />
<glyph unicode="&#x1e84;" horiz-adv-x="1847" d="M18 1413h185l268 -1239h6l328 1239h235l328 -1239h6l268 1239h185l-330 -1413h-240l-335 1264l-334 -1264h-240zM674 1577v201h170v-201h-170zM1004 1577v201h170v-201h-170z" />
<glyph unicode="&#x1e85;" horiz-adv-x="1476" d="M31 1049h186l174 -928l268 928h154l270 -928l177 928h184l-236 -1049h-241l-230 821l-229 -821h-242zM485 1212v201h170v-201h-170zM815 1212v201h170v-201h-170z" />
<glyph unicode="&#x1ebc;" horiz-adv-x="1218" d="M190 0v1413h922v-158h-741v-469h653v-157h-653v-471h741v-158h-922zM297 1542q0 110 47 173t143 63q57 0 104.5 -23.5t75 -51.5t64 -51.5t72.5 -23.5q96 0 96 150h109q0 -123 -53 -186.5t-148 -63.5q-44 0 -82.5 15t-65.5 36t-52 42.5t-53 36.5t-58 15q-47 0 -71 -37 t-22 -94h-106z" />
<glyph unicode="&#x1ebd;" horiz-adv-x="1101" d="M84 522q0 87 17 166t55 149t93.5 121t136 81t179.5 30t178 -31t129.5 -82t84 -121t47.5 -143t14 -153q0 -54 -4 -72h-758q13 -156 97 -246t243 -90q164 0 283 102l102 -104q-162 -149 -385 -149q-103 0 -188 28.5t-144.5 79t-100.5 119t-60 148t-19 167.5zM205 1178 q0 110 47 172.5t143 62.5q57 0 104.5 -23.5t75 -51t64 -51t72.5 -23.5q96 0 96 149h108q0 -123 -53 -186.5t-147 -63.5q-44 0 -82.5 15t-66 36.5t-52 43t-53 36.5t-58.5 15q-47 0 -70.5 -36.5t-21.5 -94.5h-106zM256 604h594q-6 144 -79.5 230t-209.5 86q-144 0 -219.5 -87 t-85.5 -229z" />
<glyph unicode="&#x1ef2;" horiz-adv-x="1345" d="M6 1413h209l455 -698l458 698h209l-577 -860v-553h-178v553zM311 1778h217l220 -242h-152z" />
<glyph unicode="&#x1ef3;" horiz-adv-x="929" d="M25 1049h182l262 -840h8l256 840h185l-383 -1098q-29 -84 -69.5 -143t-82 -92.5t-98.5 -52t-106 -23.5t-118 -5v142q67 0 119.5 14.5t84 33.5t58 54.5t38 60t28.5 66.5zM106 1413h218l219 -242h-152z" />
<glyph unicode="&#x1ef8;" horiz-adv-x="1345" d="M6 1413h209l455 -698l458 698h209l-577 -860v-553h-178v553zM317 1542q0 110 47.5 173t143.5 63q46 0 85.5 -15.5t66.5 -37.5t51.5 -44t53 -37.5t58.5 -15.5q49 0 73 40.5t24 109.5h108q0 -123 -53 -186.5t-148 -63.5q-44 0 -82.5 15t-65.5 36t-52 42.5t-53 36.5t-58 15 q-47 0 -70.5 -36.5t-21.5 -94.5h-107z" />
<glyph unicode="&#x1ef9;" horiz-adv-x="929" d="M25 1049h182l262 -840h8l256 840h185l-383 -1098q-29 -84 -69.5 -143t-82 -92.5t-98.5 -52t-106 -23.5t-118 -5v142q67 0 119.5 14.5t84 33.5t58 54.5t38 60t28.5 66.5zM113 1178q0 110 47 172.5t143 62.5q57 0 104.5 -23.5t74.5 -51t63.5 -51t72.5 -23.5q49 0 73 40 t24 109h108q0 -123 -53 -186.5t-147 -63.5q-44 0 -82.5 15t-66 36.5t-52 43t-53 36.5t-58.5 15q-47 0 -70.5 -36.5t-21.5 -94.5h-106z" />
<glyph unicode="&#x2000;" horiz-adv-x="1071" />
<glyph unicode="&#x2001;" horiz-adv-x="2142" />
<glyph unicode="&#x2002;" horiz-adv-x="1071" />
<glyph unicode="&#x2003;" horiz-adv-x="2142" />
<glyph unicode="&#x2004;" horiz-adv-x="714" />
<glyph unicode="&#x2005;" horiz-adv-x="535" />
<glyph unicode="&#x2006;" horiz-adv-x="357" />
<glyph unicode="&#x2007;" horiz-adv-x="357" />
<glyph unicode="&#x2008;" horiz-adv-x="267" />
<glyph unicode="&#x2009;" horiz-adv-x="428" />
<glyph unicode="&#x200a;" horiz-adv-x="119" />
<glyph unicode="&#x2010;" horiz-adv-x="1122" d="M188 444v148h748v-148h-748z" />
<glyph unicode="&#x2011;" horiz-adv-x="1122" d="M188 444v148h748v-148h-748z" />
<glyph unicode="&#x2012;" horiz-adv-x="1122" d="M188 444v148h748v-148h-748z" />
<glyph unicode="&#x2013;" horiz-adv-x="790" d="M39 451v124h713v-124h-713z" />
<glyph unicode="&#x2014;" horiz-adv-x="2048" d="M0 451v124h2048v-124h-2048z" />
<glyph unicode="&#x2018;" horiz-adv-x="487" d="M104 870v230h2l142 321h104l-98 -321h84v-230h-234z" />
<glyph unicode="&#x2019;" horiz-adv-x="487" d="M129 864l98 322h-84v229h234v-229h-2l-142 -322h-104z" />
<glyph unicode="&#x201a;" horiz-adv-x="540" d="M117 -322l98 322h-84v229h234v-229h-3l-141 -322h-104z" />
<glyph unicode="&#x201c;" horiz-adv-x="888" d="M104 870v230h2l142 321h104l-98 -321h84v-230h-234zM506 870v230h2l141 321h105l-99 -321h84v-230h-233z" />
<glyph unicode="&#x201d;" horiz-adv-x="907" d="M129 864l98 322h-84v229h234v-229h-2l-142 -322h-104zM549 864l98 322h-84v229h234v-229h-2l-142 -322h-104z" />
<glyph unicode="&#x201e;" horiz-adv-x="960" d="M117 -322l98 322h-84v229h234v-229h-3l-141 -322h-104zM537 -322l98 322h-84v229h233v-229h-2l-141 -322h-104z" />
<glyph unicode="&#x2020;" horiz-adv-x="798" d="M109 852v137h221v424h139v-424h221v-137h-221v-1057h-139v1057h-221z" />
<glyph unicode="&#x2021;" horiz-adv-x="798" d="M109 221v137h221v494h-221v137h221v424h139v-424h221v-137h-221v-494h221v-137h-221v-426h-139v426h-221z" />
<glyph unicode="&#x2022;" horiz-adv-x="786" d="M61 535q0 136 97.5 233.5t234.5 97.5t234.5 -97.5t97.5 -233.5q0 -137 -98 -235.5t-234 -98.5t-234 98.5t-98 235.5z" />
<glyph unicode="&#x2025;" horiz-adv-x="854" d="M119 0v209h209v-209h-209zM547 0v209h209v-209h-209z" />
<glyph unicode="&#x2026;" horiz-adv-x="1644" d="M119 0v229h233v-229h-233zM715 0v229h233v-229h-233zM1313 0v229h233v-229h-233z" />
<glyph unicode="&#x202f;" horiz-adv-x="428" />
<glyph unicode="&#x2030;" horiz-adv-x="2080" d="M55 1110q0 42 7.5 84.5t26 87t46.5 78t74 55t104 21.5q85 0 147.5 -50.5t90 -122.5t27.5 -153t-27 -152t-87.5 -120.5t-144.5 -49.5q-59 0 -106 21.5t-76 55t-48 77.5t-26.5 85.5t-7.5 82.5zM193 1110q0 -76 31 -133t91 -57q57 0 89 58.5t32 133.5q0 79 -32 135t-91 56 t-89.5 -56.5t-30.5 -136.5zM264 2l756 1409h164l-754 -1409h-166zM887 319q0 42 7.5 84.5t26 87.5t46.5 78.5t74 55.5t104 22q65 0 116.5 -29t82.5 -77t47 -105t16 -117t-15.5 -115.5t-46 -102.5t-81 -75t-113.5 -28q-59 0 -106 21t-76 54.5t-48 77t-26.5 85t-7.5 83.5z M1022 319q0 -77 32.5 -133.5t94.5 -56.5q56 0 87.5 58.5t31.5 134.5q0 79 -32 135.5t-91 56.5t-91 -58t-32 -137zM1499 319q0 42 7.5 84.5t26.5 87t47.5 79t74 56t102.5 21.5q65 0 117.5 -29t83.5 -77t47 -105t16 -117t-15.5 -115.5t-46 -102.5t-81.5 -75t-115 -28 q-71 0 -125 31.5t-83 81.5t-42.5 102.5t-13.5 105.5zM1636 319q0 -76 32 -133t91 -57q58 0 89.5 58.5t31.5 134.5q0 79 -32 135.5t-91 56.5q-58 0 -89.5 -58t-31.5 -137z" />
<glyph unicode="&#x2039;" horiz-adv-x="573" d="M96 510l383 334v-172l-192 -162l192 -160v-172z" />
<glyph unicode="&#x203a;" horiz-adv-x="573" d="M96 178v172l193 160l-193 162v172l383 -334z" />
<glyph unicode="&#x2044;" horiz-adv-x="288" d="M-319 0l759 1413h168l-760 -1413h-167z" />
<glyph unicode="&#x205f;" horiz-adv-x="535" />
<glyph unicode="&#x20ac;" horiz-adv-x="1300" d="M-37 780l57 111h207q20 117 66.5 213.5t118.5 172t178.5 117.5t236.5 42q217 0 367 -119l-59 -158q-134 131 -310 131q-168 0 -272.5 -109.5t-142.5 -289.5h616l-51 -115l-582 2q-4 -54 -4 -84t4 -84h514l-43 -108h-454q36 -168 142.5 -268.5t283.5 -100.5q198 0 313 121 l94 -115q-156 -159 -416 -159q-127 0 -231.5 39.5t-177 110.5t-120 164.5t-69.5 207.5h-241l55 108h172q-4 62 -4 92q0 51 2 78h-250z" />
<glyph unicode="&#x2122;" horiz-adv-x="1202" d="M12 1315v98h445v-98h-168v-455h-109v455h-168zM539 860v553h147l129 -440l133 440h144v-553h-105v391l-119 -391h-102l-123 393v-393h-104z" />
<glyph unicode="&#x2126;" horiz-adv-x="1476" d="M74 0v147h332q-149 83 -238.5 238t-89.5 338q0 186 88.5 343.5t240.5 249t332 91.5q181 0 333 -92.5t239.5 -250.5t87.5 -345q0 -182 -82.5 -336.5t-226.5 -235.5h313v-147h-514v147q156 44 254 206.5t98 363.5q0 123 -40.5 226.5t-109.5 172t-160 106.5t-192 38 q-213 0 -358 -152.5t-145 -384.5q0 -191 99.5 -350t252.5 -226v-147h-514z" />
<glyph unicode="&#x2202;" horiz-adv-x="1226" d="M92 440q0 164 73 301.5t200 218t280 80.5q192 0 275 -151h8q-8 184 -90.5 288.5t-227.5 104.5q-159 0 -229 -139l-133 67q51 105 149 162.5t226 57.5q121 0 212 -49t146.5 -139t83 -208.5t27.5 -265.5q0 -230 -64.5 -405t-194 -275t-309.5 -100q-203 0 -317.5 123 t-114.5 329zM262 434q0 -133 69 -213t195 -80q114 0 202.5 66t133.5 170t45 225q0 139 -64.5 217t-187.5 78q-116 0 -208.5 -71t-138.5 -175.5t-46 -216.5z" />
<glyph unicode="&#x2206;" horiz-adv-x="1132" d="M8 0l559 1442l559 -1442h-1118zM227 150h682l-342 894z" />
<glyph unicode="&#x220f;" horiz-adv-x="1361" d="M143 1266v147h1076v-147h-129v-1266h-150v1266h-518v-1266h-150v1266h-129z" />
<glyph unicode="&#x2211;" horiz-adv-x="1165" d="M70 0v74l579 633l-579 634v72h1026v-147h-754l518 -559l-518 -557h754v-150h-1026z" />
<glyph unicode="&#x2212;" horiz-adv-x="1159" d="M188 442v150h785v-150h-785z" />
<glyph unicode="&#x221a;" horiz-adv-x="1136" d="M49 569v148h258l174 -551l475 1255l140 -55l-586 -1501h-70l-239 704h-152z" />
<glyph unicode="&#x221e;" horiz-adv-x="1503" d="M86 633q0 136 84 220.5t209 84.5q87 0 184.5 -54t188.5 -153q92 99 188 153t184 54q127 0 211 -84.5t84 -220.5t-84 -220.5t-211 -84.5q-88 0 -184 54t-188 153q-91 -99 -188.5 -153t-184.5 -54q-125 0 -209 84.5t-84 220.5zM219 633q0 -81 48 -127.5t120 -46.5 q121 0 275 174q-154 174 -275 174q-72 0 -120 -46t-48 -128zM840 633q157 -174 276 -174q72 0 121 47t49 127q0 82 -49 128t-121 46q-119 0 -276 -174z" />
<glyph unicode="&#x222b;" horiz-adv-x="856" d="M20 -309q178 0 257 73t79 238v1151q0 128 79.5 211.5t193.5 83.5q111 0 207 -78l-99 -117q-53 47 -108 47q-51 0 -88 -38t-37 -109v-1151q0 -223 -128.5 -341t-355.5 -118v148z" />
<glyph unicode="&#x2248;" horiz-adv-x="954" d="M106 164q0 127 54 201.5t157 74.5q53 0 98 -17t75 -41t56.5 -48t56 -41t61.5 -17q54 0 77 39.5t23 120.5h135q0 -140 -60.5 -217.5t-170.5 -77.5q-55 0 -105.5 26.5t-81.5 57.5t-72.5 57.5t-80.5 26.5q-95 0 -92 -145h-130zM106 623q0 127 54 201.5t157 74.5q53 0 98 -17 t75 -41t56.5 -48t56 -41t61.5 -17q54 0 77 39.5t23 120.5h135q0 -140 -60.5 -217.5t-170.5 -77.5q-45 0 -86 17.5t-71 42t-58 49t-60 42t-65 17.5q-95 0 -92 -145h-130z" />
<glyph unicode="&#x2260;" horiz-adv-x="1210" d="M121 279v151h340l117 217h-457v152h538l242 450h166l-242 -450h246v-152h-328l-114 -217h442v-151h-524l-238 -443h-168l238 443h-258z" />
<glyph unicode="&#x2264;" horiz-adv-x="1218" d="M94 0v129h944v-129h-944zM109 739l929 514v-159l-647 -355l647 -350v-164z" />
<glyph unicode="&#x2265;" horiz-adv-x="1202" d="M164 0v129h944v-129h-944zM164 225v164l647 350l-647 355v159l930 -514z" />
<glyph unicode="&#x25ca;" horiz-adv-x="1071" d="M80 717l371 717h172l368 -717l-368 -717h-172zM258 717l279 -551l276 551l-276 551z" />
<glyph unicode="&#x25fc;" horiz-adv-x="1044" d="M0 0v1044h1044v-1044h-1044z" />
<glyph unicode="&#xfb00;" horiz-adv-x="1245" d="M31 918v131h192v67q0 135 82.5 216t226.5 81h125v-137h-120q-67 0 -106.5 -41.5t-39.5 -108.5v-77h395v67q0 135 82.5 216t227.5 81h125v-137h-121q-67 0 -106.5 -41.5t-39.5 -108.5v-77h267v-131h-267v-918h-170v918h-393v-918h-170v918h-190z" />
<glyph unicode="&#xfb03;" horiz-adv-x="1740" d="M31 918v131h192v67q0 135 82.5 216t226.5 81h125v-137h-120q-67 0 -106.5 -41.5t-39.5 -108.5v-77h412v67q0 135 82.5 216t226.5 81h125v-137h-121q-67 0 -106 -41.5t-39 -108.5v-77h266v-131h-266v-918h-170v918h-410v-918h-170v918h-190zM1395 0v1049h170v-1049h-170z M1395 1212v201h170v-201h-170z" />
<glyph unicode="&#xfb04;" horiz-adv-x="1642" d="M31 918v131h192v67q0 135 82.5 216t226.5 81h125v-137h-120q-67 0 -106.5 -41.5t-39.5 -108.5v-77h371v67q0 135 82.5 216t226.5 81h125v-137h-121q-67 0 -106 -41.5t-39 -108.5v-77h266v-131h-266v-918h-170v918h-369v-918h-170v918h-190zM1305 0v1413h170v-1413h-170z " />
<glyph horiz-adv-x="503" d="M168 0v1049h168v-1049h-168zM170 1217v196h162v-196h-162z" />
<glyph horiz-adv-x="1249" d="M31 918v131h192v67q0 135 82.5 216t226.5 81h125v-137h-120q-67 0 -106.5 -41.5t-39.5 -108.5v-77h363v364h168v-364h276v-131h-276v-603q0 -98 33 -137t118 -39h125v-139h-176q-136 0 -202 69t-66 210v639h-363v-918h-170v918h-190z" />
<glyph horiz-adv-x="1247" d="M33 918v131h157v364h168v-364h396v364h168v-364h276v-131h-276v-603q0 -98 33 -137t118 -39h125v-139h-176q-136 0 -202 69t-66 210v639h-396v-603q0 -98 33.5 -137t118.5 -39h125v-139h-176q-136 0 -202.5 69t-66.5 210v639h-157z" />
<glyph horiz-adv-x="1851" d="M152 713q0 158 61 301t165 247t247 165t301 61t301 -61t247 -165t165 -247t61 -301t-61 -301t-165 -247t-247 -165t-301 -61t-301 61t-247 165t-165 247t-61 301zM223 713q0 -191 94 -353t256 -256t353 -94q143 0 273 55.5t224 149.5t149.5 224.5t55.5 273.5t-55.5 273 t-149.5 224t-224 149.5t-273 55.5t-273.5 -55.5t-224.5 -149.5t-149.5 -224t-55.5 -273zM487 444v537q0 15 10.5 26t24.5 11q15 0 26 -11t11 -26v-537q0 -15 -11 -24.5t-26 -9.5q-14 0 -24.5 9.5t-10.5 24.5zM623 713q0 15 9.5 25t24.5 10h134q15 0 25.5 -10t10.5 -25 t-10.5 -25t-25.5 -10h-134q-15 0 -24.5 10t-9.5 25zM891 444v537q0 15 10 26t25 11t25 -11t10 -26v-537q0 -15 -10 -24.5t-25 -9.5t-25 9.5t-10 24.5zM1026 713q0 16 8 24l271 269q9 12 22 12q14 0 25.5 -12t11.5 -27q0 -13 -10 -23l-244 -243l244 -244q10 -10 10 -23 q0 -15 -11.5 -25.5t-25.5 -10.5q-15 0 -22 10l-271 268q-8 8 -8 25z" />
</font>
</defs>
</svg>
