<?xml version="1.0" standalone="no"?>
<!DOCTYPE svg PUBLIC "-//W3C//DTD SVG 1.1//EN" "http://www.w3.org/Graphics/SVG/1.1/DTD/svg11.dtd" >
<svg xmlns="http://www.w3.org/2000/svg">
<metadata></metadata>
<defs>
<font id="radnikasemibold_condensed" horiz-adv-x="0" >
<font-face units-per-em="2048" ascent="1638" descent="-410" />
<missing-glyph horiz-adv-x="391" />
<glyph unicode="&#x3c;&#x2d;" horiz-adv-x="1798" d="M-4 639l883 567v-217l-394 -246h1289v-215h-1291l396 -247v-218z" />
<glyph unicode="&#x2d;&#x3e;" horiz-adv-x="1800" d="M29 528v215h1292l-395 246v217l878 -567l-878 -576v218l395 247h-1292z" />
<glyph unicode="fi" horiz-adv-x="1058" d="M29 877v172h153v96q0 125 66 196.5t186 71.5h139v-192h-79q-32 0 -44 -24t-12 -69v-79h510v-1049h-258v877h-252v-877h-258v877h-151zM692 1192v221h256v-221h-256z" />
<glyph unicode="fl" horiz-adv-x="1085" d="M29 877v172h153v96q0 125 66 196.5t186 71.5h168v-192h-108q-32 0 -44 -24t-12 -69v-79h164v-172h-164v-877h-258v877h-151zM717 0v1413h258v-1413h-258z" />
<glyph unicode=" "  horiz-adv-x="391" />
<glyph unicode="&#x09;" horiz-adv-x="391" />
<glyph unicode="&#xa0;" horiz-adv-x="391" />
<glyph unicode="!" horiz-adv-x="509" d="M127 0v272h256v-272h-256zM137 1413h236l-23 -981h-190z" />
<glyph unicode="&#x22;" horiz-adv-x="743" d="M92 846v567h207v-567h-207zM440 846v567h213v-567h-213z" />
<glyph unicode="#" horiz-adv-x="1169" d="M55 401v187h213l39 260h-186v182h219l66 383h186l-60 -369h211l64 369h188l-59 -379h180v-186h-215l-39 -260h189v-182h-224l-63 -406h-191l66 391h-215l-62 -391h-192l66 401h-181zM459 588h213l39 260h-213z" />
<glyph unicode="$" horiz-adv-x="940" d="M23 332l188 133q35 -125 106 -186.5t154 -61.5q71 0 110.5 43t39.5 125q0 49 -14 87t-53.5 73t-62.5 50.5t-86 52.5q-12 7 -18 11q-54 30 -86.5 50.5t-80 60t-74 78t-46.5 96.5t-20 125q0 148 86 243t235 115v150h127v-150q183 -20 334 -215l-153 -153q-97 153 -230 153 q-68 0 -104.5 -40t-36.5 -99q0 -24 7 -45t23.5 -40.5t32.5 -35t44.5 -34t47.5 -30t54 -31t53 -30.5q47 -28 79.5 -50.5t74 -61.5t66.5 -81t43 -104t18 -135q0 -172 -95.5 -284t-257.5 -127v-148h-127v152q-129 21 -228 108t-150 236z" />
<glyph unicode="%" horiz-adv-x="1357" d="M68 1096q0 68 13 126.5t40 107.5t75.5 77.5t114.5 28.5q123 0 184.5 -96t61.5 -244q0 -95 -24 -168t-79 -119.5t-137 -46.5q-67 0 -117 29t-78 78t-41 106t-13 121zM231 1100q0 -170 80 -170t80 172q0 164 -82 164q-78 0 -78 -166zM254 2l620 1411h220l-619 -1411h-221z M801 324q0 67 13 125.5t40 108t75.5 78t114.5 28.5q123 0 184.5 -96.5t61.5 -245.5q0 -94 -23.5 -166.5t-78.5 -119t-137 -46.5q-67 0 -117 29t-78 78t-41.5 106t-13.5 121zM965 326q0 -166 82 -166q77 0 77 168q0 166 -82 166q-77 0 -77 -168z" />
<glyph unicode="&#x26;" horiz-adv-x="1202" d="M53 375q0 281 266 391q-149 120 -149 313q0 166 91 259.5t261 93.5t260 -92.5t90 -258.5q0 -224 -245 -372l157 -211l222 376l178 -135l-242 -403l279 -336h-336l-109 152q-113 -179 -313 -179q-191 0 -300.5 104.5t-109.5 297.5zM315 383q0 -88 47.5 -143.5t112.5 -55.5 q110 0 166 140l-207 284q-119 -78 -119 -225zM414 1067q0 -88 94 -201q129 96 129 203q0 71 -29.5 109.5t-83.5 38.5q-52 0 -81 -39.5t-29 -110.5z" />
<glyph unicode="'" horiz-adv-x="395" d="M94 874v568h207v-568h-207z" />
<glyph unicode="(" horiz-adv-x="651" d="M113 606q0 249 65 494t182 403h228q-129 -189 -197.5 -419.5t-68.5 -477.5q0 -528 266 -909h-226q-110 139 -179.5 399.5t-69.5 509.5z" />
<glyph unicode=")" horiz-adv-x="651" d="M61 -303q267 382 267 909q0 247 -69 477t-198 420h228q117 -159 182.5 -403.5t65.5 -493.5t-70 -509t-180 -400h-226z" />
<glyph unicode="*" horiz-adv-x="645" d="M51 1061l182 78l-182 80l72 118l156 -118l-23 194h135l-22 -194l157 118l68 -118l-178 -80l178 -78l-68 -117l-157 117l22 -197h-135l23 197l-156 -117z" />
<glyph unicode="+" horiz-adv-x="1314" d="M147 528v193h414v422h193v-422h413v-193h-413v-422h-193v422h-414z" />
<glyph unicode="," horiz-adv-x="475" d="M78 0v293h307v-293l-170 -330h-129l115 330h-123z" />
<glyph unicode="-" horiz-adv-x="620" d="M55 414v207h510v-207h-510z" />
<glyph unicode="." horiz-adv-x="477" d="M84 0v293h307v-293h-307z" />
<glyph unicode="/" horiz-adv-x="897" d="M76 -156l518 1567h227l-516 -1567h-229z" />
<glyph unicode="0" horiz-adv-x="1036" d="M68 707q0 367 109.5 548t332.5 181q232 0 345.5 -181t113.5 -550q0 -364 -111 -544.5t-336 -180.5q-229 0 -341.5 180.5t-112.5 546.5zM330 707q0 -490 186 -490q180 0 180 492q0 487 -186 487q-180 0 -180 -489z" />
<glyph unicode="1" horiz-adv-x="782" d="M80 965v247l262 201h254v-1413h-260v1167z" />
<glyph unicode="2" horiz-adv-x="1011" d="M100 963q5 210 114.5 339.5t317.5 129.5q173 0 281.5 -120.5t108.5 -310.5q0 -90 -26 -166.5t-65 -127.5t-92.5 -98t-101.5 -77t-101 -66t-81 -63q-62 -65 -62 -141v-45h541v-217h-807v201q0 174 92 291q35 45 87.5 87t101.5 70t100 64.5t88.5 73t61.5 93t24 126.5 q0 100 -41.5 157.5t-114.5 57.5q-88 0 -132.5 -80t-35.5 -199z" />
<glyph unicode="3" horiz-adv-x="948" d="M49 424l242 18q1 -121 50 -187.5t128 -66.5q78 0 125 62.5t47 181.5q0 99 -45.5 151t-128.5 52h-64v215h62q133 0 133 176q0 94 -37 145.5t-106 51.5t-109.5 -54.5t-40.5 -154.5l-239 22q0 188 102 293t276 105q189 0 292.5 -102.5t103.5 -287.5q0 -107 -40 -179.5 t-102 -98.5v-10q78 -19 137 -104.5t62 -225.5q0 -220 -117 -333t-321 -113q-189 0 -299.5 113t-110.5 331z" />
<glyph unicode="4" horiz-adv-x="1024" d="M41 328v250l508 835h256v-868h158v-217h-158v-328h-258v328h-506zM252 545h295v520z" />
<glyph unicode="5" horiz-adv-x="983" d="M43 371l248 75q20 -235 182 -235q172 0 172 276q0 252 -172 252q-54 0 -96.5 -32.5t-63.5 -83.5l-250 47l111 743h690v-215h-489l-53 -344q95 102 245 102q162 0 255 -128.5t93 -338.5q0 -233 -109 -371t-325 -138q-186 0 -295.5 100.5t-142.5 290.5z" />
<glyph unicode="6" horiz-adv-x="935" d="M45 629q0 76 4 147t17 153.5t34 152.5t56.5 136.5t82.5 113t114 74.5t149 28q260 0 381 -289l-183 -101q-57 164 -192 164q-61 0 -105.5 -37.5t-68.5 -101t-35.5 -129.5t-13.5 -139q104 119 241 119q158 0 261.5 -124t103.5 -333t-119 -346t-299 -137q-199 0 -313.5 163 t-114.5 486zM305 463q0 -113 44.5 -182.5t117.5 -69.5q72 0 117 69t45 179q0 112 -45 180t-117 68q-74 0 -118 -66t-44 -178z" />
<glyph unicode="7" horiz-adv-x="827" d="M51 1198v215h742v-250q-75 -102 -129 -219t-84.5 -223t-48.5 -239t-24 -236t-9 -246h-283q5 197 37.5 393.5t107 410.5t183.5 378v16h-492z" />
<glyph unicode="8" horiz-adv-x="970" d="M51 393q0 135 59.5 237t165.5 130v6q-73 29 -120 112.5t-47 184.5q0 163 103 267t273 104q171 0 275 -104t104 -267q0 -103 -47 -186t-121 -111v-6q105 -32 165.5 -133.5t60.5 -233.5q0 -188 -119 -300.5t-316 -112.5q-198 0 -317 112t-119 301zM305 430 q0 -106 47 -170.5t133 -64.5q87 0 135 64.5t48 170.5q0 100 -51 164.5t-132 64.5q-79 0 -129.5 -64.5t-50.5 -164.5zM342 1042q0 -80 41 -133t104 -53q62 0 103 52.5t41 131.5q0 82 -38.5 134.5t-105.5 52.5q-68 0 -106.5 -52t-38.5 -133z" />
<glyph unicode="9" horiz-adv-x="935" d="M25 950q0 209 118.5 346.5t298.5 137.5q199 0 313.5 -163.5t114.5 -486.5q0 -76 -4 -147t-17 -153.5t-34 -152.5t-56.5 -136t-82 -112.5t-113.5 -74.5t-149 -28q-261 0 -381 288l182 101q57 -164 193 -164q61 0 105.5 37.5t68.5 101t35.5 129.5t13.5 139 q-104 -118 -242 -118q-158 0 -261 123.5t-103 332.5zM287 954q0 -112 45 -179.5t117 -67.5q74 0 117.5 65.5t43.5 177.5q0 113 -44 182.5t-117 69.5q-72 0 -117 -69t-45 -179z" />
<glyph unicode=":" horiz-adv-x="456" d="M80 0v293h307v-293h-307zM84 733v293h307v-293h-307z" />
<glyph unicode=";" horiz-adv-x="575" d="M109 733v293h307v-293h-307zM121 0v293h307v-293l-170 -330h-129l115 330h-123z" />
<glyph unicode="&#x3c;" horiz-adv-x="1286" d="M94 674l1039 547v-232l-611 -315l611 -312v-235z" />
<glyph unicode="=" horiz-adv-x="1091" d="M127 350v217h838v-217h-838zM127 778v215h838v-215h-838z" />
<glyph unicode="&#x3e;" horiz-adv-x="1318" d="M182 127v235l611 312l-611 315v232l1039 -547z" />
<glyph unicode="?" horiz-adv-x="794" d="M51 1026q0 63 10 119.5t35 110t62.5 92.5t96.5 62.5t134 23.5q155 0 248.5 -94.5t93.5 -284.5q0 -71 -13 -124t-33.5 -84.5t-45.5 -55t-50.5 -43t-46 -42t-33.5 -58.5t-13 -85v-135h-205v137q0 69 13 120t33.5 81t45.5 53t49.5 42.5t45 42.5t33.5 60t13 87 q0 84 -33.5 129t-97.5 45q-66 0 -102.5 -56t-38.5 -143h-201zM270 0v272h248v-272h-248z" />
<glyph unicode="@" horiz-adv-x="1589" d="M72 543q0 147 31 280t92 244t147.5 192.5t203.5 127t253 45.5q225 0 395 -121.5t257 -325t87 -457.5q0 -69 -7.5 -135.5t-23.5 -137t-45 -129.5t-69 -106.5t-98.5 -74.5t-129.5 -27q-111 0 -176 71.5t-61 215.5q-37 -82 -102 -124t-140 -42q-87 0 -150.5 58.5t-93.5 150 t-30 201.5q0 153 57 294.5t154 229.5t206 88q65 0 115 -35.5t68 -103.5l26 96h179q-10 -50 -38 -184t-45.5 -222.5t-33 -194.5t-15.5 -167q0 -74 21.5 -104.5t62.5 -30.5q90 -1 139.5 116.5t49.5 298.5q0 201 -65 361t-193.5 255t-300.5 95q-131 0 -236 -55t-172.5 -150 t-103 -219t-35.5 -266q0 -193 61.5 -349.5t185.5 -252.5t292 -96q63 0 127 24l53 -190q-87 -35 -183 -35q-166 0 -302.5 70.5t-226 192.5t-138.5 283.5t-49 344.5zM586 446q0 -202 127 -202q70 0 126 63t85.5 159t29.5 200q0 196 -123 196q-70 0 -127 -62t-87.5 -156.5 t-30.5 -197.5z" />
<glyph unicode="A" horiz-adv-x="1036" d="M-4 0l352 1413h340l352 -1413h-278l-57 276h-369l-60 -276h-280zM379 489h283l-119 605l-17 92h-6l-18 -92z" />
<glyph unicode="B" horiz-adv-x="1095" d="M115 0v1413h477q192 0 294.5 -104t102.5 -277q0 -206 -162 -289v-8q101 -31 159 -117t58 -227q0 -184 -105.5 -287.5t-303.5 -103.5h-520zM381 227h217q93 0 140.5 53.5t47.5 151.5q0 96 -52.5 148.5t-135.5 52.5h-217v-406zM381 815h188q76 0 126 51t50 140 q0 91 -45 135.5t-127 44.5h-192v-371z" />
<glyph unicode="C" horiz-adv-x="1073" d="M53 707q0 123 17.5 230t56.5 199.5t97.5 158.5t145 103.5t195.5 37.5q183 0 306 -106t161 -302l-223 -65q-23 113 -82 176t-156 63q-130 0 -195 -127t-65 -360q0 -237 66.5 -368.5t195.5 -131.5q92 0 152 66t84 178l225 -68q-38 -197 -161 -304t-306 -107 q-109 0 -196.5 37.5t-146 103t-97.5 158.5t-56.5 199t-17.5 229z" />
<glyph unicode="D" horiz-adv-x="1128" d="M115 0v1413h356q297 0 450.5 -184.5t153.5 -526.5q0 -338 -155.5 -520t-450.5 -182h-354zM381 238h68q362 0 362 471q0 467 -344 467h-86v-938z" />
<glyph unicode="E" horiz-adv-x="968" d="M115 0v1413h772v-227h-506v-365h453v-227h-453v-365h506v-229h-772z" />
<glyph unicode="F" horiz-adv-x="956" d="M115 0v1413h798v-227h-532v-365h463v-227h-463v-594h-266z" />
<glyph unicode="G" horiz-adv-x="1210" d="M53 713q0 119 18.5 223.5t60.5 197t104 159t154 105t206 38.5q206 0 324.5 -103.5t171.5 -290.5l-224 -63q-34 119 -95.5 174t-166.5 55q-69 0 -121 -27t-83.5 -71t-51 -109.5t-26.5 -134t-7 -153.5q0 -498 289 -498q99 0 164 59t86 160q12 77 14 121h-219v215h457v-770 h-217l-4 180q-39 -92 -123 -146t-193 -54q-108 0 -196 39t-147 106.5t-99 161.5t-58 200t-18 226z" />
<glyph unicode="H" horiz-adv-x="1191" d="M115 0v1411h266v-586h432v586h264v-1411h-264v590h-432v-590h-266z" />
<glyph unicode="I" horiz-adv-x="495" d="M115 0v1413h266v-1413h-266z" />
<glyph unicode="J" horiz-adv-x="657" d="M31 0v246q74 -23 127 -23q141 0 141 271v917h266v-969q0 -213 -95.5 -337.5t-270.5 -124.5q-111 0 -168 20z" />
<glyph unicode="K" horiz-adv-x="1193" d="M115 0v1411h266v-625l461 625h315l-428 -539l453 -872h-314l-307 664l-180 -228v-436h-266z" />
<glyph unicode="L" horiz-adv-x="825" d="M115 0v1413h266v-1186h422v-227h-688z" />
<glyph unicode="M" horiz-adv-x="1509" d="M115 0v1411h430l207 -1100l206 1100h437v-1411h-267v1151h-10l-229 -1151h-273l-229 1151h-10v-1151h-262z" />
<glyph unicode="N" horiz-adv-x="1230" d="M115 0v1413h338l403 -1069h6v1069h254v-1413h-338l-403 1077h-6v-1077h-254z" />
<glyph unicode="O" horiz-adv-x="1204" d="M53 707q0 335 145 531t400 196q258 0 405.5 -196t147.5 -531t-147.5 -531t-405.5 -196q-255 0 -400 196t-145 531zM338 707q0 -233 68.5 -358.5t195.5 -125.5q128 0 197 125.5t69 358.5q0 236 -69 362.5t-197 126.5t-196 -126.5t-68 -362.5z" />
<glyph unicode="P" horiz-adv-x="1075" d="M115 0v1413h512q197 0 303 -123t106 -338q0 -212 -106 -329t-303 -117h-246v-506h-266zM381 743h213q180 0 180 215q0 103 -44.5 160.5t-135.5 57.5h-213v-433z" />
<glyph unicode="Q" horiz-adv-x="1206" d="M53 707q0 335 145 531t400 196q258 0 405.5 -196t147.5 -531q0 -356 -166 -555l148 -191l-144 -111l-137 191q-116 -61 -254 -61q-255 0 -400 196t-145 531zM338 707q0 -233 68.5 -358.5t195.5 -125.5q55 0 100 25l-149 209l115 100l143 -184q57 123 57 334 q0 236 -69 362.5t-197 126.5t-196 -126.5t-68 -362.5z" />
<glyph unicode="R" horiz-adv-x="1122" d="M115 -2v1415h555q168 0 274.5 -111t106.5 -305q0 -131 -53 -228t-152 -142l266 -629h-291l-227 592h-213v-592h-266zM381 807h233q97 3 138 50.5t41 137.5q0 92 -43.5 140.5t-143.5 48.5h-225v-377z" />
<glyph unicode="S" horiz-adv-x="940" d="M23 332l188 133q35 -125 106 -186.5t154 -61.5q71 0 110.5 43t39.5 125q0 49 -14 87t-53.5 73t-62.5 50.5t-86 52.5q-12 7 -18 11q-54 30 -86.5 50.5t-80 60t-74 78t-46.5 96.5t-20 125q0 165 107 264t284 99q114 0 208.5 -53t182.5 -167l-153 -153q-97 153 -230 153 q-68 0 -104.5 -40t-36.5 -99q0 -24 7 -45t23.5 -40.5t32.5 -35t44.5 -34t47.5 -30t54 -31t53 -30.5q47 -28 79.5 -50.5t74 -61.5t66.5 -81t43 -104t18 -135q0 -186 -109 -299.5t-291 -113.5q-156 0 -278 89t-180 261z" />
<glyph unicode="T" horiz-adv-x="972" d="M23 1188v225h927v-225h-332v-1188h-264v1188h-331z" />
<glyph unicode="U" horiz-adv-x="1169" d="M121 453v960h266v-971q0 -106 50.5 -162.5t144.5 -56.5q97 0 148.5 56.5t51.5 162.5v971h267v-950q0 -234 -116.5 -358.5t-350.5 -124.5q-231 0 -346 122.5t-115 350.5z" />
<glyph unicode="V" horiz-adv-x="1095" d="M12 1413h277l266 -1169l254 1169h274l-356 -1413h-356z" />
<glyph unicode="W" horiz-adv-x="1597" d="M18 1413h275l143 -1118h15l206 1118h283l207 -1118h14l144 1118h274l-244 -1413h-344l-192 1116l-193 -1116h-344z" />
<glyph unicode="X" horiz-adv-x="1120" d="M12 0l381 707l-379 706h299l248 -524l246 524h299l-379 -706l381 -707h-299l-250 516l-248 -516h-299z" />
<glyph unicode="Y" horiz-adv-x="1062" d="M4 1413h297l231 -618l230 618h297l-397 -862v-551h-261v551z" />
<glyph unicode="Z" horiz-adv-x="1015" d="M39 0v182l633 1014h-596v217h901v-192l-627 -1004h627v-217h-938z" />
<glyph unicode="[" horiz-adv-x="585" d="M133 -303v1804h422v-213h-207v-1374h207v-217h-422z" />
<glyph unicode="\" horiz-adv-x="897" d="M76 1411h229l516 -1567h-227z" />
<glyph unicode="]" horiz-adv-x="585" d="M31 -86h207v1374h-207v213h422v-1804h-422v217z" />
<glyph unicode="^" horiz-adv-x="792" d="M14 627l383 786l383 -786h-239l-144 372l-143 -372h-240z" />
<glyph unicode="_" horiz-adv-x="731" d="M4 0h723v-193h-723v193z" />
<glyph unicode="`" horiz-adv-x="335" d="M-55 1364h256l182 -244h-180z" />
<glyph unicode="a" horiz-adv-x="964" d="M72 270q0 189 166 285q29 17 62 32.5t79.5 33t74 27.5t92.5 32.5t89 30.5q-2 86 -38.5 122.5t-123.5 36.5q-76 0 -127.5 -31.5t-99.5 -103.5l-158 123q65 104 156.5 157.5t226.5 53.5q175 0 282 -86.5t107 -257.5v-725h-225v119q-59 -66 -136 -104t-141 -38 q-131 0 -208.5 79t-77.5 214zM324 291q0 -54 30 -84q27 -27 66 -27h8q123 6 207 146v198q-194 -85 -223 -102q-88 -53 -88 -131z" />
<glyph unicode="b" horiz-adv-x="1046" d="M111 0v1413h256v-493q36 66 106 107.5t154 41.5q170 0 264 -136.5t94 -408.5t-95.5 -409.5t-268.5 -137.5q-87 0 -155.5 45.5t-100.5 116.5h-3v-139h-251zM362 526q0 -158 47 -244.5t132 -86.5q96 0 141 79.5t45 251.5q0 168 -45 246t-141 78q-85 0 -132 -85t-47 -239z " />
<glyph unicode="c" horiz-adv-x="909" d="M63 522q0 116 24 212.5t73.5 172.5t132.5 119t192 43q161 0 253 -79.5t132 -235.5l-211 -72q-28 182 -161 182q-183 0 -183 -344q0 -70 9 -127t28.5 -105.5t56.5 -76t89 -27.5q128 0 161 183l201 -66q-33 -163 -125 -243.5t-250 -80.5q-109 0 -192 43.5t-132.5 120.5 t-73.5 172.5t-24 208.5z" />
<glyph unicode="d" horiz-adv-x="1046" d="M61 524q0 272 94.5 408.5t264.5 136.5q84 0 154 -41.5t106 -107.5v493h256v-1413h-252v139h-2q-32 -71 -100.5 -116.5t-155.5 -45.5q-173 0 -269 137.5t-96 409.5zM319 526q0 -172 45.5 -251.5t141.5 -79.5q85 0 131.5 86.5t46.5 244.5q0 154 -46.5 239t-131.5 85 q-96 0 -141.5 -78t-45.5 -246z" />
<glyph unicode="e" horiz-adv-x="954" d="M61 518q0 97 14.5 178.5t47 151t82 118t121.5 76t163 27.5q107 0 187 -39t127.5 -109.5t70.5 -161t23 -200.5q0 -67 -8 -100h-574q6 -269 211 -269q59 0 107.5 24.5t93.5 84.5l162 -131q-83 -101 -171 -144.5t-204 -43.5q-220 0 -336.5 144t-116.5 394zM319 637h340 q0 227 -163 227q-88 0 -129.5 -57.5t-47.5 -169.5z" />
<glyph unicode="f" horiz-adv-x="618" d="M29 874v175h135v69q0 136 67 215.5t193 79.5h164v-188h-74q-46 0 -70 -32t-24 -85v-59h168v-175h-168v-874h-258v874h-133z" />
<glyph unicode="g" horiz-adv-x="1044" d="M63 551q0 238 99 378t264 140q87 0 153.5 -36t98.5 -101v117h256v-1000q0 -114 -38 -200.5t-102.5 -136t-140.5 -73.5t-161 -24q-108 0 -219.5 45.5t-184.5 138.5l123 150q62 -73 133.5 -107.5t134.5 -34.5q84 0 141.5 61.5t57.5 170.5v135q-24 -65 -90 -106t-158 -41 q-170 0 -268.5 143t-98.5 381zM324 545q0 -143 45 -228.5t137 -85.5t136 80.5t44 223.5q0 147 -44.5 236t-137.5 89q-90 0 -135 -85t-45 -230z" />
<glyph unicode="h" horiz-adv-x="1024" d="M111 0v1413h256v-504h6q40 74 109.5 117t150.5 43q140 0 214.5 -85.5t74.5 -235.5v-748h-256v705q0 81 -32.5 117t-101.5 36q-75 0 -120 -67.5t-45 -169.5v-621h-256z" />
<glyph unicode="i" horiz-adv-x="479" d="M111 0v1049h258v-1049h-258zM113 1192v221h256v-221h-256z" />
<glyph unicode="j" horiz-adv-x="483" d="M-35 -162q77 0 111.5 39.5t34.5 122.5v1049h260v-1026q0 -215 -98 -301.5t-308 -86.5v203zM106 1192v221h265v-221h-265z" />
<glyph unicode="k" horiz-adv-x="1005" d="M111 0v1413h256v-770l325 406h289l-340 -396l373 -653h-285l-256 467l-106 -119v-348h-256z" />
<glyph unicode="l" horiz-adv-x="483" d="M113 0v1413h258v-1413h-258z" />
<glyph unicode="m" horiz-adv-x="1480" d="M111 0v1049h251v-144h5q79 164 239 164q92 0 149 -40.5t79 -141.5h6q49 95 110 139q60 43 159 43h5q125 0 194.5 -82.5t69.5 -241.5v-745h-256v694q0 74 -30.5 114t-90.5 40q-65 0 -98 -61t-33 -166v-621h-256v674q0 91 -27.5 132.5t-88.5 41.5q-65 0 -98 -61.5 t-33 -165.5v-621h-256z" />
<glyph unicode="n" horiz-adv-x="1024" d="M111 0v1049h254v-140h8q39 72 104.5 116t153.5 44q131 0 211 -97.5t80 -260.5v-711h-256v674q0 97 -33.5 139.5t-100.5 42.5q-75 0 -120 -62t-45 -167v-627h-256z" />
<glyph unicode="o" horiz-adv-x="989" d="M63 520q0 274 119.5 411.5t315.5 137.5q94 0 171 -33t135.5 -98.5t91 -172t32.5 -245.5q0 -269 -118 -406t-312 -137q-95 0 -173 33t-137 98t-92 170.5t-33 241.5zM297 520q0 -323 199 -323q202 0 202 323q0 332 -202 332q-199 0 -199 -332z" />
<glyph unicode="p" horiz-adv-x="1048" d="M113 -365v1414h258v-131q31 69 101 110t159 41q170 0 263 -138.5t93 -406.5t-94.5 -407.5t-265.5 -139.5q-93 0 -165.5 48t-96.5 120v-510h-252zM362 528q0 -160 48 -247.5t135 -87.5q182 0 182 335q0 328 -182 328q-87 0 -135 -86t-48 -242z" />
<glyph unicode="q" horiz-adv-x="1048" d="M63 524q0 268 93.5 406.5t263.5 138.5q89 0 159 -41t101 -110v131h258v-1414h-252v510q-24 -72 -96.5 -120t-165.5 -48q-171 0 -266 139.5t-95 407.5zM324 528q0 -335 182 -335q87 0 134.5 87t47.5 248q0 156 -48 242t-134 86q-182 0 -182 -328z" />
<glyph unicode="r" horiz-adv-x="671" d="M111 0v1049h247v-164h4q29 85 80.5 132.5t110.5 47.5q63 0 90 -16v-224q-56 13 -93 13q-16 0 -28 -2q-155 -24 -155 -304v-532h-256z" />
<glyph unicode="s" horiz-adv-x="817" d="M29 170l118 170q38 -45 64 -70.5t71.5 -50.5t98.5 -33q15 -2 29 -2q48 0 82 19q46 24 49 84q2 30 -8 52.5t-36 39.5t-48.5 27t-67.5 27q-13 5 -19 7q-52 19 -84.5 33t-75 41.5t-67 58t-42 78.5t-17.5 107q0 150 97.5 230.5t248.5 80.5q204 0 344 -160l-107 -159 q-45 56 -90.5 87.5t-109.5 39.5q-11 1 -22 1q-49 0 -81 -22q-40 -27 -41 -74q0 -14 4 -27t10 -22.5t19 -19.5t23.5 -16t31.5 -15.5t34 -14.5t40.5 -15.5t42.5 -16.5q61 -25 102 -49.5t79.5 -61.5t57.5 -89.5t19 -121.5q0 -153 -92.5 -244.5t-255.5 -91.5q-105 0 -210 51.5 t-191 141.5z" />
<glyph unicode="t" horiz-adv-x="645" d="M35 874v175h115v364h256v-364h194v-175h-194v-542q0 -72 20 -100.5t70 -28.5h98v-203h-209q-235 0 -235 270v604h-115z" />
<glyph unicode="u" horiz-adv-x="1038" d="M115 340v709h258v-660q0 -100 33.5 -139t101.5 -39q75 0 119.5 61t44.5 164v613h256v-1049h-252v139h-14q-38 -77 -106.5 -119.5t-149.5 -42.5q-139 0 -215 97.5t-76 265.5z" />
<glyph unicode="v" horiz-adv-x="856" d="M2 1049h266l162 -820l162 820h264l-283 -1049h-288z" />
<glyph unicode="w" horiz-adv-x="1390" d="M10 1049h262l136 -830l178 830h215l178 -828l139 828h262l-225 -1049h-324l-141 713l-135 -717h-322z" />
<glyph unicode="x" horiz-adv-x="948" d="M25 0l290 528l-290 521h278l170 -349l174 349h277l-289 -521l289 -528h-277l-174 358l-170 -358h-278z" />
<glyph unicode="y" horiz-adv-x="894" d="M6 1049h275l133 -590q28 -132 28 -166h13q0 44 26 166l137 590h277l-338 -1104q-99 -310 -469 -310v203q59 0 100.5 13t66 40t37 56t23.5 73z" />
<glyph unicode="z" horiz-adv-x="854" d="M63 0v182l453 662h-450v205h727v-195l-435 -647h433v-207h-728z" />
<glyph unicode="{" horiz-adv-x="671" d="M88 524v211q64 0 92.5 21.5t28.5 85.5v420q0 121 84.5 205.5t206.5 84.5h116v-235h-77q-43 0 -70 -26.5t-27 -67.5v-396q0 -35 -2.5 -56.5t-11 -49.5t-29 -50.5t-53.5 -41.5q62 -32 79 -78t17 -121v-391q0 -41 27 -67.5t70 -26.5h77v-236h-116q-122 0 -206.5 84.5 t-84.5 206.5v418q0 64 -28 85t-93 21z" />
<glyph unicode="|" horiz-adv-x="452" d="M133 -156v1692h186v-1692h-186z" />
<glyph unicode="}" horiz-adv-x="673" d="M55 -55h78q43 0 69.5 26.5t26.5 67.5v391q0 75 17.5 121t79.5 78q-62 36 -79.5 81.5t-17.5 116.5v396q0 41 -26.5 67.5t-69.5 26.5h-78v235h117q122 0 206.5 -84.5t84.5 -205.5v-420q0 -64 28.5 -85.5t92.5 -21.5v-211q-65 0 -93 -21t-28 -85v-418q0 -122 -84.5 -206.5 t-206.5 -84.5h-117v236z" />
<glyph unicode="~" horiz-adv-x="1052" d="M82 375q0 160 64.5 250t185.5 90q63 0 116.5 -24.5t85 -53.5t72 -53.5t80.5 -24.5q98 0 98 154h187q0 -169 -68 -260t-194 -91q-46 0 -88.5 16.5t-73.5 39.5t-60.5 46t-62.5 39.5t-66 16.5q-43 0 -69 -35t-25 -110h-182z" />
<glyph unicode="&#xa1;" horiz-adv-x="509" d="M127 778v271h256v-271h-256zM137 -387l23 1003h190l23 -1003h-236z" />
<glyph unicode="&#xa2;" horiz-adv-x="909" d="M63 522q0 211 80.5 357t245.5 180v172h186v-170q228 -38 295 -307l-211 -72q-28 182 -161 182q-183 0 -183 -344q0 -70 9 -127t28.5 -105.5t56.5 -76t89 -27.5q128 0 161 183l201 -66q-56 -276 -285 -315v-168h-186v170q-84 18 -148 67.5t-102 122t-57 159t-19 185.5z " />
<glyph unicode="&#xa3;" horiz-adv-x="1052" d="M115 541v204h123v211q0 229 104 353.5t303 124.5q155 0 254 -90.5t133 -256.5l-221 -81q-23 190 -166 190q-98 0 -136 -63t-38 -187v-201h287v-204h-287v-320h561v-221h-794v541h-123z" />
<glyph unicode="&#xa4;" horiz-adv-x="1191" d="M82 313l106 105q-79 116 -79 262t79 262l-106 107l143 149l109 -111q121 80 262 80q143 0 264 -80l107 111l143 -149l-106 -107q79 -116 79 -262t-79 -262l106 -105l-143 -151l-107 112q-122 -81 -264 -81q-140 0 -262 81l-109 -112zM315 680q0 -115 82 -197 q84 -84 199 -84q117 0 201 84q80 83 80 197q0 116 -80 199q-85 82 -201 82q-114 0 -199 -82q-82 -82 -82 -199z" />
<glyph unicode="&#xa5;" horiz-adv-x="1159" d="M4 1413h260l314 -665l317 665h260l-377 -729h187v-172h-279v-190h279v-172h-279v-170h-211v170h-280v172h280v190h-280v174h186z" />
<glyph unicode="&#xa6;" horiz-adv-x="483" d="M131 -156v611h221v-611h-221zM131 766v647h221v-647h-221z" />
<glyph unicode="&#xa7;" horiz-adv-x="1128" d="M147 268l236 72q22 -76 75.5 -113t145.5 -37q178 0 178 115q0 40 -33 65.5t-85.5 37.5t-116.5 22t-128 27.5t-116.5 45t-85.5 82.5t-33 134q0 131 99 211q-97 71 -97 200q0 147 109 225.5t278 78.5q152 0 257.5 -66t148.5 -203l-219 -53q-36 123 -189 123q-71 0 -116 -29 t-45 -86q0 -30 20.5 -51t55 -32.5t79.5 -20t94.5 -17.5t99 -21t94.5 -34t79.5 -52.5t55 -81t20.5 -116.5q0 -124 -93 -200q93 -70 93 -193q0 -67 -22.5 -121.5t-61 -91t-92.5 -60.5t-114.5 -35t-129.5 -11q-76 0 -143.5 15t-128 47t-105 89t-64.5 135zM422 733q3 -23 19 -41 t35 -29.5t52 -22.5t56.5 -16t64.5 -13.5t60 -12.5q36 19 51 52.5t2 72.5q-6 27 -25 47.5t-55.5 34.5t-60.5 21t-76 17t-64 13q-33 -18 -50.5 -51.5t-8.5 -71.5z" />
<glyph unicode="&#xa8;" horiz-adv-x="565" d="M31 1141v223h188v-223h-188zM350 1141v223h185v-223h-185z" />
<glyph unicode="&#xa9;" horiz-adv-x="1638" d="M53 709q0 155 61 297.5t164 245.5t244.5 164t296.5 61t296.5 -61t244.5 -164t164 -245.5t61 -297.5t-61 -297.5t-164 -245.5t-244.5 -164t-296.5 -61t-296.5 61t-244.5 164t-164 245.5t-61 297.5zM174 709q0 -130 51.5 -250.5t138.5 -208t206 -139.5t249 -52 q104 0 202.5 33.5t178.5 94t140 140.5t93 179t33 203q0 130 -51.5 250t-138.5 207.5t-207 139.5t-250 52t-249 -52t-206 -139.5t-138.5 -207.5t-51.5 -250zM471 711q0 100 21 183.5t63.5 149.5t114 103t166.5 37q138 0 218 -69t113 -204l-182 -61q-26 158 -139 158 q-158 0 -158 -299q0 -289 158 -289q113 0 139 158l174 -58q-28 -141 -107 -210.5t-216 -69.5q-94 0 -166 38t-114.5 104.5t-63.5 149t-21 179.5z" />
<glyph unicode="&#xaa;" horiz-adv-x="614" d="M51 924q0 128 113 194q25 14 60 29t59.5 24t77 27.5t75.5 26.5q-2 59 -27 83.5t-83 24.5q-53 0 -88 -21t-68 -71l-109 84q45 71 107.5 108t155.5 37q120 0 193 -59t73 -176v-496h-154v82q-41 -46 -93 -72t-95 -26q-91 0 -144 54.5t-53 146.5zM223 938q0 -37 20.5 -57.5 t51.5 -18.5q80 3 141 101v135q-109 -46 -153 -70q-60 -37 -60 -90z" />
<glyph unicode="&#xab;" horiz-adv-x="937" d="M72 510l381 360v-219l-138 -141l138 -139v-219zM485 510l381 360v-219l-137 -141l137 -139v-219z" />
<glyph unicode="&#xac;" horiz-adv-x="1210" d="M127 571v226h956v-619h-245v393h-711z" />
<glyph unicode="&#xad;" horiz-adv-x="620" d="M55 414v207h510v-207h-510z" />
<glyph unicode="&#xae;" horiz-adv-x="1286" d="M115 893q0 147 70.5 271.5t192 197t265.5 72.5t266.5 -72.5t193.5 -197t71 -271.5t-71 -271.5t-193.5 -197t-266.5 -72.5t-265.5 72.5t-192 197t-70.5 271.5zM215 893q0 -178 126 -306t302 -128q115 0 214 59t157.5 159t58.5 216q0 178 -127.5 307t-302.5 129 q-116 0 -214.5 -59t-156 -159.5t-57.5 -217.5zM461 621v546h215q92 0 142 -44.5t50 -123.5q0 -110 -102 -157l141 -221h-145l-115 204h-59v-204h-127zM582 936h94q74 0 74 63q0 62 -74 62h-94v-125z" />
<glyph unicode="&#xaf;" horiz-adv-x="538" d="M41 1182v139h467v-139h-467z" />
<glyph unicode="&#xb0;" horiz-adv-x="778" d="M72 1110q0 141 90 232.5t227 91.5q138 0 228 -91.5t90 -232.5t-90 -232.5t-228 -91.5q-137 0 -227 91.5t-90 232.5zM248 1110q0 -66 40 -109t101 -43q63 0 103 43t40 109t-40 109t-103 43q-61 0 -101 -43t-40 -109z" />
<glyph unicode="&#xb1;" horiz-adv-x="1359" d="M127 713v192h457v422h192v-422h457v-192h-457v-422h-192v422h-457zM129 -2v192h1102v-192h-1102z" />
<glyph unicode="&#xb4;" horiz-adv-x="335" d="M-49 1122l184 242h254l-262 -242h-176z" />
<glyph unicode="&#xb5;" horiz-adv-x="874" d="M104 -266v1265h228v-581q0 -221 112 -221q73 0 131 74t58 171v557h225v-999h-225v133q-22 -61 -76 -108.5t-115 -47.5q-63 0 -116 29l-13 -272h-209z" />
<glyph unicode="&#xb6;" horiz-adv-x="989" d="M72 1018q0 91 30.5 167t81 125t115.5 76t135 27h148v-1700h-148v910q-70 0 -135 27t-115.5 76t-81 125t-30.5 167zM727 -287v1700h150v-1700h-150z" />
<glyph unicode="&#xb7;" horiz-adv-x="458" d="M53 678q0 78 52 128t131 50q74 0 122 -50t48 -128q0 -75 -48.5 -124.5t-121.5 -49.5q-78 0 -130.5 49.5t-52.5 124.5z" />
<glyph unicode="&#xb8;" horiz-adv-x="311" d="M-6 -389l98 78q9 -26 28.5 -43t41.5 -17q57 0 65 64q5 33 -11 59.5t-48 36.5l-131 43l76 168h172l-66 -119q153 -66 146 -198q-4 -82 -58.5 -132.5t-132.5 -50.5q-58 0 -105 30.5t-75 80.5z" />
<glyph unicode="&#xba;" horiz-adv-x="679" d="M41 1077q0 151 85 256t220 105q128 0 211.5 -105t83.5 -256q0 -152 -83.5 -257t-211.5 -105q-135 0 -220 104.5t-85 257.5zM203 1075q0 -95 34.5 -154t108.5 -59q66 0 99.5 59.5t33.5 153.5q0 92 -33.5 152.5t-99.5 60.5q-73 0 -108 -59.5t-35 -153.5z" />
<glyph unicode="&#xbb;" horiz-adv-x="950" d="M84 152v219l139 139l-139 141v219l381 -360zM498 152v219l139 139l-139 141v219l381 -360z" />
<glyph unicode="&#xbf;" horiz-adv-x="972" d="M90 -6q0 82 17.5 141t43.5 88t57 56t57 48t43.5 61t17.5 97v136h204v-138q0 -69 -13 -120t-33.5 -81t-45 -53t-49.5 -42.5t-45.5 -42t-33.5 -59.5t-13 -87q0 -84 33.5 -129t97.5 -45q66 0 102.5 56t38.5 143h201q0 -63 -10 -119.5t-35 -110t-62.5 -92.5t-96.5 -62.5 t-134 -23.5q-155 0 -248.5 94.5t-93.5 284.5zM303 776v273h248v-273h-248z" />
<glyph unicode="&#xc0;" horiz-adv-x="1036" d="M-4 0l352 1413h340l352 -1413h-278l-57 276h-369l-60 -276h-280zM170 1776h256l182 -244h-180zM379 489h283l-119 605l-17 92h-6l-18 -92z" />
<glyph unicode="&#xc1;" horiz-adv-x="1036" d="M-4 0l352 1413h340l352 -1413h-278l-57 276h-369l-60 -276h-280zM379 489h283l-119 605l-17 92h-6l-18 -92zM432 1534l184 242h254l-262 -242h-176z" />
<glyph unicode="&#xc2;" horiz-adv-x="1036" d="M-4 0l352 1413h340l352 -1413h-278l-57 276h-369l-60 -276h-280zM254 1511l195 265h143l194 -265h-170l-96 140l-98 -140h-168zM379 489h283l-119 605l-17 92h-6l-18 -92z" />
<glyph unicode="&#xc3;" horiz-adv-x="1036" d="M-4 0l352 1413h340l352 -1413h-278l-57 276h-369l-60 -276h-280zM213 1518q0 129 48.5 194.5t129.5 65.5q37 0 68.5 -13.5t53 -32t40.5 -37.5t40.5 -32.5t43.5 -13.5q68 0 68 127h122q0 -133 -46 -200t-130 -67q-44 0 -82 20.5t-60 45t-50 45t-56 20.5q-31 0 -50.5 -30.5 t-20.5 -91.5h-119zM379 489h283l-119 605l-17 92h-6l-18 -92z" />
<glyph unicode="&#xc4;" horiz-adv-x="1036" d="M-4 0l352 1413h340l352 -1413h-278l-57 276h-369l-60 -276h-280zM266 1552v224h189v-224h-189zM379 489h283l-119 605l-17 92h-6l-18 -92zM586 1552v224h184v-224h-184z" />
<glyph unicode="&#xc5;" horiz-adv-x="1036" d="M-4 0l340 1362q-66 69 -66 166q0 103 71 171t179 68q106 0 176 -68t70 -171q0 -97 -66 -166l340 -1362h-278l-57 276h-369l-60 -276h-280zM379 489h283l-119 605l-17 92h-6l-18 -92zM401 1528q0 -51 32.5 -83t86.5 -32q51 0 83 32t32 83q0 50 -32 82t-83 32 q-53 0 -86 -32t-33 -82z" />
<glyph unicode="&#xc6;" horiz-adv-x="1380" d="M-4 0l381 1413h921v-235h-448v-353h387v-235h-387v-352h448v-238h-692v299h-291l-71 -299h-248zM369 518h237v660h-80z" />
<glyph unicode="&#xc7;" horiz-adv-x="1073" d="M53 707q0 123 17.5 230t56.5 199.5t97.5 158.5t145 103.5t195.5 37.5q183 0 306 -106t161 -302l-223 -65q-23 113 -82 176t-156 63q-130 0 -195 -127t-65 -360q0 -237 66.5 -368.5t195.5 -131.5q92 0 152 66t84 178l225 -68q-34 -172 -132 -276t-247 -129l-57 -105 q152 -66 145 -198q-4 -82 -58 -132.5t-132 -50.5q-58 0 -105 30.5t-75 80.5l98 78q9 -26 28.5 -43t41.5 -17q57 0 65 64q4 32 -12 58t-47 38l-103 43l72 150q-122 11 -213 71.5t-144.5 160t-79.5 223t-26 270.5z" />
<glyph unicode="&#xc8;" horiz-adv-x="968" d="M115 0v1413h772v-227h-506v-365h453v-227h-453v-365h506v-229h-772zM152 1776h256l182 -244h-180z" />
<glyph unicode="&#xc9;" horiz-adv-x="968" d="M115 0v1413h772v-227h-506v-365h453v-227h-453v-365h506v-229h-772zM414 1534l184 242h254l-262 -242h-176z" />
<glyph unicode="&#xca;" horiz-adv-x="968" d="M115 0v1413h772v-227h-506v-365h453v-227h-453v-365h506v-229h-772zM236 1511l194 265h143l195 -265h-170l-96 140l-99 -140h-167z" />
<glyph unicode="&#xcb;" horiz-adv-x="968" d="M115 0v1413h772v-227h-506v-365h453v-227h-453v-365h506v-229h-772zM248 1552v224h188v-224h-188zM567 1552v224h185v-224h-185z" />
<glyph unicode="&#xcc;" horiz-adv-x="495" d="M-106 1776h256l182 -244h-180zM115 0v1413h266v-1413h-266z" />
<glyph unicode="&#xcd;" horiz-adv-x="495" d="M115 0v1413h266v-1413h-266zM156 1534l184 242h254l-262 -242h-176z" />
<glyph unicode="&#xce;" horiz-adv-x="495" d="M-23 1511l195 265h143l195 -265h-170l-96 140l-99 -140h-168zM115 0v1413h266v-1413h-266z" />
<glyph unicode="&#xcf;" horiz-adv-x="495" d="M-10 1552v224h188v-224h-188zM115 0v1413h266v-1413h-266zM309 1552v224h185v-224h-185z" />
<glyph unicode="&#xd0;" horiz-adv-x="1130" d="M27 635v156h90v622h356q297 0 450.5 -184.5t153.5 -526.5q0 -338 -155.5 -520t-450.5 -182h-354v635h-90zM383 238h68q362 0 362 471q0 467 -344 467h-86v-385h231v-156h-231v-397z" />
<glyph unicode="&#xd1;" horiz-adv-x="1230" d="M115 0v1413h338l403 -1069h6v1069h254v-1413h-338l-403 1077h-6v-1077h-254zM309 1520q0 129 48.5 194.5t129.5 65.5q37 0 68.5 -13.5t53 -32t40.5 -37.5t40.5 -32.5t43.5 -13.5q68 0 68 127h123q0 -133 -46 -200t-130 -67q-44 0 -82 20.5t-60 45t-50 45t-56 20.5 q-31 0 -51 -31t-21 -91h-119z" />
<glyph unicode="&#xd2;" horiz-adv-x="1204" d="M53 707q0 335 145 531t400 196q258 0 405.5 -196t147.5 -531t-147.5 -531t-405.5 -196q-255 0 -400 196t-145 531zM248 1776h256l182 -244h-180zM338 707q0 -233 68.5 -358.5t195.5 -125.5q128 0 197 125.5t69 358.5q0 236 -69 362.5t-197 126.5t-196 -126.5t-68 -362.5z " />
<glyph unicode="&#xd3;" horiz-adv-x="1204" d="M53 707q0 335 145 531t400 196q258 0 405.5 -196t147.5 -531t-147.5 -531t-405.5 -196q-255 0 -400 196t-145 531zM338 707q0 -233 68.5 -358.5t195.5 -125.5q128 0 197 125.5t69 358.5q0 236 -69 362.5t-197 126.5t-196 -126.5t-68 -362.5zM510 1534l184 242h254 l-262 -242h-176z" />
<glyph unicode="&#xd4;" horiz-adv-x="1204" d="M53 707q0 335 145 531t400 196q258 0 405.5 -196t147.5 -531t-147.5 -531t-405.5 -196q-255 0 -400 196t-145 531zM332 1511l194 265h144l194 -265h-170l-96 140l-98 -140h-168zM338 707q0 -233 68.5 -358.5t195.5 -125.5q128 0 197 125.5t69 358.5q0 236 -69 362.5 t-197 126.5t-196 -126.5t-68 -362.5z" />
<glyph unicode="&#xd5;" horiz-adv-x="1204" d="M53 707q0 335 145 531t400 196q258 0 405.5 -196t147.5 -531t-147.5 -531t-405.5 -196q-255 0 -400 196t-145 531zM291 1518q0 129 48.5 194.5t129.5 65.5q37 0 68.5 -13.5t53 -32t40.5 -37.5t40.5 -32.5t43.5 -13.5q67 0 67 127h123q0 -133 -46 -200t-130 -67 q-44 0 -82 20.5t-60 45t-50 45t-56 20.5q-31 0 -50.5 -30.5t-20.5 -91.5h-119zM338 707q0 -233 68.5 -358.5t195.5 -125.5q128 0 197 125.5t69 358.5q0 236 -69 362.5t-197 126.5t-196 -126.5t-68 -362.5z" />
<glyph unicode="&#xd6;" horiz-adv-x="1204" d="M53 707q0 335 145 531t400 196q258 0 405.5 -196t147.5 -531t-147.5 -531t-405.5 -196q-255 0 -400 196t-145 531zM338 707q0 -233 68.5 -358.5t195.5 -125.5q128 0 197 125.5t69 358.5q0 236 -69 362.5t-197 126.5t-196 -126.5t-68 -362.5zM344 1552v224h188v-224h-188z M664 1552v224h184v-224h-184z" />
<glyph unicode="&#xd7;" horiz-adv-x="1034" d="M84 928l137 137l297 -299l293 293l137 -137l-293 -291l297 -299l-135 -135l-299 297l-293 -293l-135 137l293 293z" />
<glyph unicode="&#xd8;" horiz-adv-x="1204" d="M29 104l121 150q-97 183 -97 453q0 335 145 531t400 196q230 0 373 -158l90 113l104 -82l-114 -144q100 -180 100 -456q0 -335 -147.5 -531t-405.5 -196q-228 0 -371 159l-94 -116zM338 707q0 -105 16 -199l447 557q-69 131 -199 131q-128 0 -196 -126.5t-68 -362.5z M401 356q68 -133 201 -133q128 0 197 125.5t69 358.5q0 117 -18 208z" />
<glyph unicode="&#xd9;" horiz-adv-x="1169" d="M121 453v960h266v-971q0 -106 50.5 -162.5t144.5 -56.5q97 0 148.5 56.5t51.5 162.5v971h267v-950q0 -234 -116.5 -358.5t-350.5 -124.5q-231 0 -346 122.5t-115 350.5zM238 1776h256l182 -244h-180z" />
<glyph unicode="&#xda;" horiz-adv-x="1169" d="M121 453v960h266v-971q0 -106 50.5 -162.5t144.5 -56.5q97 0 148.5 56.5t51.5 162.5v971h267v-950q0 -234 -116.5 -358.5t-350.5 -124.5q-231 0 -346 122.5t-115 350.5zM500 1534l184 242h254l-262 -242h-176z" />
<glyph unicode="&#xdb;" horiz-adv-x="1169" d="M121 453v960h266v-971q0 -106 50.5 -162.5t144.5 -56.5q97 0 148.5 56.5t51.5 162.5v971h267v-950q0 -234 -116.5 -358.5t-350.5 -124.5q-231 0 -346 122.5t-115 350.5zM322 1511l194 265h143l195 -265h-170l-96 140l-99 -140h-167z" />
<glyph unicode="&#xdc;" horiz-adv-x="1169" d="M121 453v960h266v-971q0 -106 50.5 -162.5t144.5 -56.5q97 0 148.5 56.5t51.5 162.5v971h267v-950q0 -234 -116.5 -358.5t-350.5 -124.5q-231 0 -346 122.5t-115 350.5zM334 1552v224h188v-224h-188zM653 1552v224h185v-224h-185z" />
<glyph unicode="&#xdd;" horiz-adv-x="1062" d="M4 1413h297l231 -618l230 618h297l-397 -862v-551h-261v551zM444 1534l185 242h254l-262 -242h-177z" />
<glyph unicode="&#xde;" horiz-adv-x="1021" d="M125 0v1413h250v-182h211q175 0 287 -116.5t112 -328.5q0 -130 -54.5 -225t-144 -141.5t-200.5 -46.5h-211v-373h-250zM375 608h170q190 0 190 189q0 194 -190 194h-170v-383z" />
<glyph unicode="&#xdf;" horiz-adv-x="1007" d="M106 0v1018q0 196 111 306t289 110q164 0 271.5 -90.5t107.5 -245.5q0 -55 -18 -98t-43.5 -70t-51 -50t-43.5 -52t-18 -64q0 -32 17.5 -61t44.5 -51.5t57.5 -54t57.5 -65.5t44.5 -89t17.5 -121q0 -150 -91.5 -245t-233.5 -95q-80 0 -148 28v238q63 -39 119 -39 q48 0 79.5 37t31.5 98q0 52 -21.5 94t-52.5 73.5t-62.5 64t-53 80.5t-21.5 108q0 57 15.5 97.5t37 63t43.5 41.5t37.5 46t15.5 63q0 67 -38.5 105.5t-102.5 38.5q-71 0 -113.5 -50t-42.5 -137v-1032h-242z" />
<glyph unicode="&#xe0;" horiz-adv-x="964" d="M72 270q0 189 166 285q29 17 62 32.5t79.5 33t74 27.5t92.5 32.5t89 30.5q-2 86 -38.5 122.5t-123.5 36.5q-76 0 -127.5 -31.5t-99.5 -103.5l-158 123q65 104 156.5 157.5t226.5 53.5q175 0 282 -86.5t107 -257.5v-725h-225v119q-59 -66 -136 -104t-141 -38 q-131 0 -208.5 79t-77.5 214zM125 1413h256l182 -244h-180zM324 291q0 -54 30 -84t74 -27q123 6 207 146v198q-194 -85 -223 -102q-88 -53 -88 -131z" />
<glyph unicode="&#xe1;" horiz-adv-x="964" d="M72 270q0 189 166 285q29 17 62 32.5t79.5 33t74 27.5t92.5 32.5t89 30.5q-2 86 -38.5 122.5t-123.5 36.5q-76 0 -127.5 -31.5t-99.5 -103.5l-158 123q65 104 156.5 157.5t226.5 53.5q175 0 282 -86.5t107 -257.5v-725h-225v119q-59 -66 -136 -104t-141 -38 q-131 0 -208.5 79t-77.5 214zM324 291q0 -54 30 -84t74 -27q123 6 207 146v198q-194 -85 -223 -102q-88 -53 -88 -131zM387 1171l184 242h254l-262 -242h-176z" />
<glyph unicode="&#xe2;" horiz-adv-x="964" d="M72 270q0 189 166 285q29 17 62 32.5t79.5 33t74 27.5t92.5 32.5t89 30.5q-2 86 -38.5 122.5t-123.5 36.5q-76 0 -127.5 -31.5t-99.5 -103.5l-158 123q65 104 156.5 157.5t226.5 53.5q175 0 282 -86.5t107 -257.5v-725h-225v119q-59 -66 -136 -104t-141 -38 q-131 0 -208.5 79t-77.5 214zM209 1149l194 264h144l194 -264h-170l-96 139l-98 -139h-168zM324 291q0 -54 30 -84t74 -27q123 6 207 146v198q-194 -85 -223 -102q-88 -53 -88 -131z" />
<glyph unicode="&#xe3;" horiz-adv-x="964" d="M72 270q0 189 166 285q29 17 62 32.5t79.5 33t74 27.5t92.5 32.5t89 30.5q-2 86 -38.5 122.5t-123.5 36.5q-76 0 -127.5 -31.5t-99.5 -103.5l-158 123q65 104 156.5 157.5t226.5 53.5q175 0 282 -86.5t107 -257.5v-725h-225v119q-59 -66 -136 -104t-141 -38 q-131 0 -208.5 79t-77.5 214zM168 1155q0 129 48.5 194.5t129.5 65.5q37 0 68.5 -13.5t53 -32.5t40.5 -37.5t40.5 -32t43.5 -13.5q67 0 67 127h123q0 -133 -46 -199.5t-130 -66.5q-44 0 -82 20.5t-60 45t-50 45t-56 20.5q-31 0 -50.5 -31t-20.5 -92h-119zM324 291 q0 -54 30 -84t74 -27q123 6 207 146v198q-194 -85 -223 -102q-88 -53 -88 -131z" />
<glyph unicode="&#xe4;" horiz-adv-x="964" d="M72 270q0 189 166 285q29 17 62 32.5t79.5 33t74 27.5t92.5 32.5t89 30.5q-2 86 -38.5 122.5t-123.5 36.5q-76 0 -127.5 -31.5t-99.5 -103.5l-158 123q65 104 156.5 157.5t226.5 53.5q175 0 282 -86.5t107 -257.5v-725h-225v119q-59 -66 -136 -104t-141 -38 q-131 0 -208.5 79t-77.5 214zM221 1190v223h189v-223h-189zM324 291q0 -54 30 -84t74 -27q123 6 207 146v198q-194 -85 -223 -102q-88 -53 -88 -131zM541 1190v223h184v-223h-184z" />
<glyph unicode="&#xe5;" horiz-adv-x="964" d="M72 270q0 189 166 285q29 17 62 32.5t79.5 33t74 27.5t92.5 32.5t89 30.5q-2 86 -38.5 122.5t-123.5 36.5q-76 0 -127.5 -31.5t-99.5 -103.5l-158 123q65 104 156.5 157.5t226.5 53.5q175 0 282 -86.5t107 -257.5v-725h-225v119q-59 -66 -136 -104t-141 -38 q-131 0 -208.5 79t-77.5 214zM264 1348q0 94 59.5 155.5t151.5 61.5q91 0 150 -61.5t59 -155.5t-59 -156t-150 -62q-92 0 -151.5 62t-59.5 156zM324 291q0 -54 30 -84t74 -27q123 6 207 146v198q-194 -85 -223 -102q-88 -53 -88 -131zM375 1348q0 -46 28 -75.5t72 -29.5 q43 0 70.5 29.5t27.5 75.5q0 45 -27.5 74.5t-70.5 29.5q-44 0 -72 -29.5t-28 -74.5z" />
<glyph unicode="&#xe6;" horiz-adv-x="1468" d="M63 274q0 186 162 283q126 75 385 127l6 31q-3 76 -42 112.5t-103 36.5q-143 0 -246 -147l-159 129q61 102 163 161.5t232 59.5q181 0 282 -98q108 100 283 100q107 0 187 -39t127.5 -109.5t70.5 -161t23 -200.5q0 -63 -9 -100h-573q6 -269 211 -269q59 0 107.5 24.5 t93.5 84.5l161 -131q-83 -101 -170.5 -144.5t-203.5 -43.5q-264 0 -381 208q-124 -211 -330 -211q-126 0 -201.5 79.5t-75.5 217.5zM326 299q0 -55 28.5 -88t81.5 -33q61 0 109.5 45t64.5 144q-12 67 -12 147q-142 -37 -205 -84q-67 -51 -67 -131zM856 637h340 q0 227 -164 227q-87 0 -128.5 -57.5t-47.5 -169.5z" />
<glyph unicode="&#xe7;" horiz-adv-x="909" d="M63 522q0 116 24 212.5t73.5 172.5t132.5 119t192 43q161 0 253 -79.5t132 -235.5l-211 -72q-28 182 -161 182q-183 0 -183 -344q0 -70 9 -127t28.5 -105.5t56.5 -76t89 -27.5q128 0 161 183l201 -66q-53 -263 -262 -311l-59 -109q152 -66 145 -198q-4 -82 -58 -132.5 t-132 -50.5q-58 0 -106 31t-75 80l99 78q9 -26 28 -43t41 -17q30 0 46.5 18t19.5 46q4 32 -12.5 58t-47.5 38l-102 43l70 145q-101 6 -178 52t-123 122t-68.5 169t-22.5 202z" />
<glyph unicode="&#xe8;" horiz-adv-x="954" d="M61 518q0 97 14.5 178.5t47 151t82 118t121.5 76t163 27.5q107 0 187 -39t127.5 -109.5t70.5 -161t23 -200.5q0 -67 -8 -100h-574q6 -269 211 -269q59 0 107.5 24.5t93.5 84.5l162 -131q-83 -101 -171 -144.5t-204 -43.5q-220 0 -336.5 144t-116.5 394zM133 1413h256 l182 -244h-180zM319 637h340q0 227 -163 227q-88 0 -129.5 -57.5t-47.5 -169.5z" />
<glyph unicode="&#xe9;" horiz-adv-x="954" d="M61 518q0 97 14.5 178.5t47 151t82 118t121.5 76t163 27.5q107 0 187 -39t127.5 -109.5t70.5 -161t23 -200.5q0 -67 -8 -100h-574q6 -269 211 -269q59 0 107.5 24.5t93.5 84.5l162 -131q-83 -101 -171 -144.5t-204 -43.5q-220 0 -336.5 144t-116.5 394zM319 637h340 q0 227 -163 227q-88 0 -129.5 -57.5t-47.5 -169.5zM395 1171l185 242h254l-263 -242h-176z" />
<glyph unicode="&#xea;" horiz-adv-x="954" d="M61 518q0 97 14.5 178.5t47 151t82 118t121.5 76t163 27.5q107 0 187 -39t127.5 -109.5t70.5 -161t23 -200.5q0 -67 -8 -100h-574q6 -269 211 -269q59 0 107.5 24.5t93.5 84.5l162 -131q-83 -101 -171 -144.5t-204 -43.5q-220 0 -336.5 144t-116.5 394zM217 1149l195 264 h143l195 -264h-170l-97 139l-98 -139h-168zM319 637h340q0 227 -163 227q-88 0 -129.5 -57.5t-47.5 -169.5z" />
<glyph unicode="&#xeb;" horiz-adv-x="954" d="M61 518q0 97 14.5 178.5t47 151t82 118t121.5 76t163 27.5q107 0 187 -39t127.5 -109.5t70.5 -161t23 -200.5q0 -67 -8 -100h-574q6 -269 211 -269q59 0 107.5 24.5t93.5 84.5l162 -131q-83 -101 -171 -144.5t-204 -43.5q-220 0 -336.5 144t-116.5 394zM229 1190v223h189 v-223h-189zM319 637h340q0 227 -163 227q-88 0 -129.5 -57.5t-47.5 -169.5zM549 1190v223h184v-223h-184z" />
<glyph unicode="&#xec;" horiz-adv-x="483" d="M-106 1413h256l182 -244h-180zM113 0v1049h258v-1049h-258z" />
<glyph unicode="&#xed;" horiz-adv-x="483" d="M113 0v1049h258v-1049h-258zM156 1171l184 242h254l-262 -242h-176z" />
<glyph unicode="&#xee;" horiz-adv-x="483" d="M-23 1149l195 264h143l195 -264h-170l-96 139l-99 -139h-168zM113 0v1049h258v-1049h-258z" />
<glyph unicode="&#xef;" horiz-adv-x="483" d="M-10 1190v223h188v-223h-188zM113 0v1049h258v-1049h-258zM309 1190v223h185v-223h-185z" />
<glyph unicode="&#xf0;" horiz-adv-x="956" d="M55 516q0 237 107 385t270 148q81 0 138 -30t85 -79q-34 171 -215 293l-63 -117l-90 62l61 108q-25 15 -67.5 37t-47.5 25l93 168q76 -37 116 -62l70 123l86 -57l-66 -121q128 -89 207 -203.5t120.5 -282t41.5 -397.5q0 -237 -113 -384.5t-309 -147.5q-135 0 -232 69 t-144.5 188t-47.5 275zM301 516q0 -144 44 -230.5t134 -86.5q88 0 131 86t43 231q0 147 -43 232.5t-131 85.5q-90 0 -134 -86t-44 -232z" />
<glyph unicode="&#xf1;" horiz-adv-x="1024" d="M111 0v1049h254v-140h8q39 72 104.5 116t153.5 44q131 0 211 -97.5t80 -260.5v-711h-256v674q0 97 -33.5 139.5t-100.5 42.5q-75 0 -120 -62t-45 -167v-627h-256zM207 1159q0 129 48.5 194.5t129.5 65.5q37 0 68.5 -13.5t53 -32.5t40.5 -37.5t40.5 -32t43.5 -13.5 q67 0 67 127h123q0 -133 -46 -199.5t-130 -66.5q-44 0 -82 20.5t-60 45t-50 45t-56 20.5q-31 0 -50.5 -31t-20.5 -92h-119z" />
<glyph unicode="&#xf2;" horiz-adv-x="989" d="M63 520q0 274 119.5 411.5t315.5 137.5q94 0 171 -33t135.5 -98.5t91 -172t32.5 -245.5q0 -269 -118 -406t-312 -137q-95 0 -173 33t-137 98t-92 170.5t-33 241.5zM147 1413h256l183 -244h-180zM297 520q0 -323 199 -323q202 0 202 323q0 332 -202 332q-199 0 -199 -332z " />
<glyph unicode="&#xf3;" horiz-adv-x="989" d="M63 520q0 274 119.5 411.5t315.5 137.5q94 0 171 -33t135.5 -98.5t91 -172t32.5 -245.5q0 -269 -118 -406t-312 -137q-95 0 -173 33t-137 98t-92 170.5t-33 241.5zM297 520q0 -323 199 -323q202 0 202 323q0 332 -202 332q-199 0 -199 -332zM410 1171l184 242h254 l-262 -242h-176z" />
<glyph unicode="&#xf4;" horiz-adv-x="989" d="M63 520q0 274 119.5 411.5t315.5 137.5q94 0 171 -33t135.5 -98.5t91 -172t32.5 -245.5q0 -269 -118 -406t-312 -137q-95 0 -173 33t-137 98t-92 170.5t-33 241.5zM231 1149l195 264h143l195 -264h-170l-96 139l-99 -139h-168zM297 520q0 -323 199 -323q202 0 202 323 q0 332 -202 332q-199 0 -199 -332z" />
<glyph unicode="&#xf5;" horiz-adv-x="989" d="M63 520q0 274 119.5 411.5t315.5 137.5q94 0 171 -33t135.5 -98.5t91 -172t32.5 -245.5q0 -269 -118 -406t-312 -137q-95 0 -173 33t-137 98t-92 170.5t-33 241.5zM190 1155q0 129 48.5 194.5t130.5 65.5q37 0 68 -13.5t52.5 -32.5t40.5 -37.5t40.5 -32t43.5 -13.5 q68 0 68 127h123q0 -133 -46 -199.5t-130 -66.5q-44 0 -82 20.5t-60 45t-50 45t-56 20.5q-31 0 -51 -31.5t-21 -91.5h-119zM297 520q0 -323 199 -323q202 0 202 323q0 332 -202 332q-199 0 -199 -332z" />
<glyph unicode="&#xf6;" horiz-adv-x="989" d="M63 520q0 274 119.5 411.5t315.5 137.5q94 0 171 -33t135.5 -98.5t91 -172t32.5 -245.5q0 -269 -118 -406t-312 -137q-95 0 -173 33t-137 98t-92 170.5t-33 241.5zM244 1190v223h188v-223h-188zM297 520q0 -323 199 -323q202 0 202 323q0 332 -202 332q-199 0 -199 -332z M563 1190v223h185v-223h-185z" />
<glyph unicode="&#xf7;" horiz-adv-x="1435" d="M102 590v192h1231v-192h-1231zM580 98v273h276v-273h-276zM580 985v272h276v-272h-276z" />
<glyph unicode="&#xf8;" horiz-adv-x="989" d="M63 520q0 274 119.5 411.5t315.5 137.5q177 0 288 -111l37 46l74 -58l-51 -65q82 -138 82 -361q0 -269 -118 -406t-312 -137q-180 0 -291 111l-37 -47l-74 57l51 66q-84 136 -84 356zM297 520q0 -78 14 -153l332 411q-52 74 -147 74q-199 0 -199 -332zM352 268 q52 -71 144 -71q202 0 202 323q0 91 -16 160z" />
<glyph unicode="&#xf9;" horiz-adv-x="1038" d="M115 340v709h258v-660q0 -100 33.5 -139t101.5 -39q75 0 119.5 61t44.5 164v613h256v-1049h-252v139h-14q-38 -77 -106.5 -119.5t-149.5 -42.5q-139 0 -215 97.5t-76 265.5zM170 1413h256l182 -244h-180z" />
<glyph unicode="&#xfa;" horiz-adv-x="1038" d="M115 340v709h258v-660q0 -100 33.5 -139t101.5 -39q75 0 119.5 61t44.5 164v613h256v-1049h-252v139h-14q-38 -77 -106.5 -119.5t-149.5 -42.5q-139 0 -215 97.5t-76 265.5zM432 1171l184 242h254l-262 -242h-176z" />
<glyph unicode="&#xfb;" horiz-adv-x="1038" d="M115 340v709h258v-660q0 -100 33.5 -139t101.5 -39q75 0 119.5 61t44.5 164v613h256v-1049h-252v139h-14q-38 -77 -106.5 -119.5t-149.5 -42.5q-139 0 -215 97.5t-76 265.5zM254 1149l195 264h143l194 -264h-170l-96 139l-98 -139h-168z" />
<glyph unicode="&#xfc;" horiz-adv-x="1038" d="M115 340v709h258v-660q0 -100 33.5 -139t101.5 -39q75 0 119.5 61t44.5 164v613h256v-1049h-252v139h-14q-38 -77 -106.5 -119.5t-149.5 -42.5q-139 0 -215 97.5t-76 265.5zM266 1190v223h189v-223h-189zM586 1190v223h184v-223h-184z" />
<glyph unicode="&#xfd;" horiz-adv-x="894" d="M6 1049h275l133 -590q28 -132 28 -166h13q0 44 26 166l137 590h277l-338 -1104q-99 -310 -469 -310v203q59 0 100.5 13t66 40t37 56t23.5 73zM362 1171l185 242h254l-262 -242h-177z" />
<glyph unicode="&#xfe;" horiz-adv-x="1019" d="M113 -365v1778h262v-532q49 69 112 104t150 35q153 0 237 -138.5t84 -381.5q0 -242 -84.5 -381t-236.5 -139q-91 0 -151.5 35t-106.5 102h-8v-482h-258zM367 508q0 -143 44.5 -229t131.5 -86q89 0 133.5 86t44.5 229q0 146 -44.5 233.5t-133.5 87.5q-87 0 -131.5 -87.5 t-44.5 -233.5z" />
<glyph unicode="&#xff;" horiz-adv-x="894" d="M6 1049h275l133 -590q28 -132 28 -166h13q0 44 26 166l137 590h277l-338 -1104q-99 -310 -469 -310v203q59 0 100.5 13t66 40t37 56t23.5 73zM197 1190v223h188v-223h-188zM516 1190v223h184v-223h-184z" />
<glyph unicode="&#x100;" horiz-adv-x="1036" d="M-4 0l352 1413h340l352 -1413h-278l-57 276h-369l-60 -276h-280zM289 1593v140h467v-140h-467zM379 489h283l-119 605l-17 92h-6l-18 -92z" />
<glyph unicode="&#x101;" horiz-adv-x="964" d="M72 270q0 189 166 285q29 17 62 32.5t79.5 33t74 27.5t92.5 32.5t89 30.5q-2 86 -38.5 122.5t-123.5 36.5q-76 0 -127.5 -31.5t-99.5 -103.5l-158 123q65 104 156.5 157.5t226.5 53.5q175 0 282 -86.5t107 -257.5v-725h-225v119q-59 -66 -136 -104t-141 -38 q-131 0 -208.5 79t-77.5 214zM244 1231v139h467v-139h-467zM324 291q0 -54 30 -84t74 -27q123 6 207 146v198q-194 -85 -223 -102q-88 -53 -88 -131z" />
<glyph unicode="&#x102;" horiz-adv-x="1036" d="M-4 0l352 1413h340l352 -1413h-278l-57 276h-369l-60 -276h-280zM264 1776h158q0 -64 27.5 -96.5t70.5 -32.5q103 0 103 129h159q0 -135 -68 -203t-194 -68q-125 0 -190.5 70t-65.5 201zM379 489h283l-119 605l-17 92h-6l-18 -92z" />
<glyph unicode="&#x103;" horiz-adv-x="964" d="M72 270q0 189 166 285q29 17 62 32.5t79.5 33t74 27.5t92.5 32.5t89 30.5q-2 86 -38.5 122.5t-123.5 36.5q-76 0 -127.5 -31.5t-99.5 -103.5l-158 123q65 104 156.5 157.5t226.5 53.5q175 0 282 -86.5t107 -257.5v-725h-225v119q-59 -66 -136 -104t-141 -38 q-131 0 -208.5 79t-77.5 214zM219 1413h158q0 -64 27.5 -96.5t70.5 -32.5q103 0 103 129h159q0 -135 -67.5 -202.5t-194.5 -67.5q-125 0 -190.5 69.5t-65.5 200.5zM324 291q0 -54 30 -84t74 -27q123 6 207 146v198q-194 -85 -223 -102q-88 -53 -88 -131z" />
<glyph unicode="&#x104;" horiz-adv-x="1036" d="M-4 0l352 1413h340l352 -1413q-159 -123 -159 -231q0 -44 17.5 -65t41.5 -15q34 3 55 55l121 -88q-63 -123 -186 -123q-74 0 -133.5 54.5t-59.5 158.5q0 43 12.5 82t40 75.5t40.5 51t44 45.5h-112l-57 276h-369l-60 -276h-280zM379 489h283l-119 605l-17 92h-6l-18 -92z " />
<glyph unicode="&#x105;" horiz-adv-x="964" d="M72 270q0 189 166 285q29 17 62 32.5t79.5 33t74 27.5t92.5 32.5t89 30.5q-2 86 -38.5 122.5t-123.5 36.5q-76 0 -127.5 -31.5t-99.5 -103.5l-158 123q65 104 156.5 157.5t226.5 53.5q175 0 282 -86.5t107 -257.5v-725q-160 -124 -160 -231q0 -44 17.5 -65t42.5 -15 q34 3 55 55l121 -88q-63 -123 -186 -123q-74 0 -133.5 54.5t-59.5 158.5q0 43 12.5 82t40 75.5t40.5 51t44 45.5h-59v119q-59 -66 -136 -104t-141 -38q-131 0 -208.5 79t-77.5 214zM324 291q0 -54 30 -84t74 -27q123 6 207 146v198q-194 -85 -223 -102q-88 -53 -88 -131z " />
<glyph unicode="&#x106;" horiz-adv-x="1073" d="M53 707q0 123 17.5 230t56.5 199.5t97.5 158.5t145 103.5t195.5 37.5q183 0 306 -106t161 -302l-223 -65q-23 113 -82 176t-156 63q-130 0 -195 -127t-65 -360q0 -237 66.5 -368.5t195.5 -131.5q92 0 152 66t84 178l225 -68q-38 -197 -161 -304t-306 -107 q-109 0 -196.5 37.5t-146 103t-97.5 158.5t-56.5 199t-17.5 229zM469 1534l184 242h254l-262 -242h-176z" />
<glyph unicode="&#x107;" horiz-adv-x="909" d="M63 522q0 116 24 212.5t73.5 172.5t132.5 119t192 43q161 0 253 -79.5t132 -235.5l-211 -72q-28 182 -161 182q-183 0 -183 -344q0 -70 9 -127t28.5 -105.5t56.5 -76t89 -27.5q128 0 161 183l201 -66q-33 -163 -125 -243.5t-250 -80.5q-109 0 -192 43.5t-132.5 120.5 t-73.5 172.5t-24 208.5zM379 1171l184 242h254l-262 -242h-176z" />
<glyph unicode="&#x10a;" horiz-adv-x="1073" d="M53 707q0 123 17.5 230t56.5 199.5t97.5 158.5t145 103.5t195.5 37.5q183 0 306 -106t161 -302l-223 -65q-23 113 -82 176t-156 63q-130 0 -195 -127t-65 -360q0 -237 66.5 -368.5t195.5 -131.5q92 0 152 66t84 178l225 -68q-38 -197 -161 -304t-306 -107 q-109 0 -196.5 37.5t-146 103t-97.5 158.5t-56.5 199t-17.5 229zM465 1556v220h184v-220h-184z" />
<glyph unicode="&#x10b;" horiz-adv-x="909" d="M63 522q0 116 24 212.5t73.5 172.5t132.5 119t192 43q161 0 253 -79.5t132 -235.5l-211 -72q-28 182 -161 182q-183 0 -183 -344q0 -70 9 -127t28.5 -105.5t56.5 -76t89 -27.5q128 0 161 183l201 -66q-33 -163 -125 -243.5t-250 -80.5q-109 0 -192 43.5t-132.5 120.5 t-73.5 172.5t-24 208.5zM375 1194v219h184v-219h-184z" />
<glyph unicode="&#x10c;" horiz-adv-x="1073" d="M53 707q0 123 17.5 230t56.5 199.5t97.5 158.5t145 103.5t195.5 37.5q183 0 306 -106t161 -302l-223 -65q-23 113 -82 176t-156 63q-130 0 -195 -127t-65 -360q0 -237 66.5 -368.5t195.5 -131.5q92 0 152 66t84 178l225 -68q-38 -197 -161 -304t-306 -107 q-109 0 -196.5 37.5t-146 103t-97.5 158.5t-56.5 199t-17.5 229zM289 1776h170l96 -134l96 134h170l-194 -263h-144z" />
<glyph unicode="&#x10d;" horiz-adv-x="909" d="M63 522q0 116 24 212.5t73.5 172.5t132.5 119t192 43q161 0 253 -79.5t132 -235.5l-211 -72q-28 182 -161 182q-183 0 -183 -344q0 -70 9 -127t28.5 -105.5t56.5 -76t89 -27.5q128 0 161 183l201 -66q-33 -163 -125 -243.5t-250 -80.5q-109 0 -192 43.5t-132.5 120.5 t-73.5 172.5t-24 208.5zM199 1413h170l96 -133l96 133h170l-194 -262h-144z" />
<glyph unicode="&#x10e;" horiz-adv-x="1128" d="M115 0v1413h356q297 0 450.5 -184.5t153.5 -526.5q0 -338 -155.5 -520t-450.5 -182h-354zM236 1776h170l96 -134l96 134h170l-195 -263h-143zM381 238h68q362 0 362 471q0 467 -344 467h-86v-938z" />
<glyph unicode="&#x10f;" horiz-adv-x="1259" d="M61 524q0 272 94.5 408.5t264.5 136.5q84 0 154 -41.5t106 -107.5v493h256v-1413h-252v139h-2q-32 -71 -100.5 -116.5t-155.5 -45.5q-173 0 -269 137.5t-96 409.5zM319 526q0 -172 45.5 -251.5t141.5 -79.5q85 0 131.5 86.5t46.5 244.5q0 154 -46.5 239t-131.5 85 q-96 0 -141.5 -78t-45.5 -246zM1032 1163v252h266v-252l-147 -284h-111l99 284h-107z" />
<glyph unicode="&#x110;" horiz-adv-x="1130" d="M27 635v156h90v622h356q297 0 450.5 -184.5t153.5 -526.5q0 -338 -155.5 -520t-450.5 -182h-354v635h-90zM383 238h68q362 0 362 471q0 467 -344 467h-86v-385h231v-156h-231v-397z" />
<glyph unicode="&#x111;" horiz-adv-x="1046" d="M61 524q0 272 94.5 408.5t264.5 136.5q84 0 154 -41.5t106 -107.5v290h-186v123h186v80h256v-80h90v-123h-90v-1210h-252v139h-2q-32 -71 -100.5 -116.5t-155.5 -45.5q-173 0 -269 137.5t-96 409.5zM319 526q0 -172 45.5 -251.5t141.5 -79.5q85 0 131.5 86.5t46.5 244.5 q0 154 -46.5 239t-131.5 85q-96 0 -141.5 -78t-45.5 -246z" />
<glyph unicode="&#x112;" horiz-adv-x="968" d="M115 0v1413h772v-227h-506v-365h453v-227h-453v-365h506v-229h-772zM270 1593v140h467v-140h-467z" />
<glyph unicode="&#x113;" horiz-adv-x="954" d="M61 518q0 97 14.5 178.5t47 151t82 118t121.5 76t163 27.5q107 0 187 -39t127.5 -109.5t70.5 -161t23 -200.5q0 -67 -8 -100h-574q6 -269 211 -269q59 0 107.5 24.5t93.5 84.5l162 -131q-83 -101 -171 -144.5t-204 -43.5q-220 0 -336.5 144t-116.5 394zM252 1231v139h467 v-139h-467zM319 637h340q0 227 -163 227q-88 0 -129.5 -57.5t-47.5 -169.5z" />
<glyph unicode="&#x116;" horiz-adv-x="968" d="M115 0v1413h772v-227h-506v-365h453v-227h-453v-365h506v-229h-772zM410 1556v220h184v-220h-184z" />
<glyph unicode="&#x117;" horiz-adv-x="954" d="M61 518q0 97 14.5 178.5t47 151t82 118t121.5 76t163 27.5q107 0 187 -39t127.5 -109.5t70.5 -161t23 -200.5q0 -67 -8 -100h-574q6 -269 211 -269q59 0 107.5 24.5t93.5 84.5l162 -131q-83 -101 -171 -144.5t-204 -43.5q-220 0 -336.5 144t-116.5 394zM319 637h340 q0 227 -163 227q-88 0 -129.5 -57.5t-47.5 -169.5zM391 1194v219h184v-219h-184z" />
<glyph unicode="&#x118;" horiz-adv-x="968" d="M115 0v1413h772v-227h-506v-365h453v-227h-453v-365h506v-229q-160 -124 -160 -231q0 -44 17.5 -65t41.5 -15q35 4 56 55l121 -88q-63 -123 -187 -123q-74 0 -133 54.5t-59 158.5q0 43 12.5 82t40 75.5t40.5 51t44 45.5h-606z" />
<glyph unicode="&#x119;" horiz-adv-x="954" d="M61 518q0 97 14.5 178.5t47 151t82 118t121.5 76t163 27.5q107 0 187 -39t127.5 -109.5t70.5 -161t23 -200.5q0 -67 -8 -100h-574q6 -269 211 -269q59 0 107.5 24.5t93.5 84.5l162 -131q-67 -82 -137 -125q-78 -84 -78 -160q0 -44 17.5 -65t41.5 -15q34 3 55 56l121 -88 q-63 -123 -186 -123q-74 0 -133.5 54.5t-59.5 158.5q0 61 31 121q-16 -2 -47 -2q-220 0 -336.5 144t-116.5 394zM319 637h340q0 227 -163 227q-88 0 -129.5 -57.5t-47.5 -169.5z" />
<glyph unicode="&#x11a;" horiz-adv-x="968" d="M115 0v1413h772v-227h-506v-365h453v-227h-453v-365h506v-229h-772zM233 1776h170l97 -134l96 134h170l-195 -263h-143z" />
<glyph unicode="&#x11b;" horiz-adv-x="954" d="M61 518q0 97 14.5 178.5t47 151t82 118t121.5 76t163 27.5q107 0 187 -39t127.5 -109.5t70.5 -161t23 -200.5q0 -67 -8 -100h-574q6 -269 211 -269q59 0 107.5 24.5t93.5 84.5l162 -131q-83 -101 -171 -144.5t-204 -43.5q-220 0 -336.5 144t-116.5 394zM215 1413h170 l96 -133l97 133h170l-195 -262h-143zM319 637h340q0 227 -163 227q-88 0 -129.5 -57.5t-47.5 -169.5z" />
<glyph unicode="&#x11e;" horiz-adv-x="1210" d="M53 713q0 119 18.5 223.5t60.5 197t104 159t154 105t206 38.5q206 0 324.5 -103.5t171.5 -290.5l-224 -63q-34 119 -95.5 174t-166.5 55q-69 0 -121 -27t-83.5 -71t-51 -109.5t-26.5 -134t-7 -153.5q0 -498 289 -498q99 0 164 59t86 160q12 77 14 121h-219v215h457v-770 h-217l-4 180q-39 -92 -123 -146t-193 -54q-108 0 -196 39t-147 106.5t-99 161.5t-58 200t-18 226zM338 1776h158q0 -64 27.5 -96.5t70.5 -32.5q102 0 102 129h160q0 -135 -68 -203t-194 -68q-125 0 -190.5 70t-65.5 201z" />
<glyph unicode="&#x11f;" horiz-adv-x="1044" d="M63 551q0 238 99 378t264 140q87 0 153.5 -36t98.5 -101v117h256v-1000q0 -114 -38 -200.5t-102.5 -136t-140.5 -73.5t-161 -24q-108 0 -219.5 45.5t-184.5 138.5l123 150q62 -73 133.5 -107.5t134.5 -34.5q84 0 141.5 61.5t57.5 170.5v135q-24 -65 -90 -106t-158 -41 q-170 0 -268.5 143t-98.5 381zM246 1413h157q0 -64 28 -96.5t71 -32.5q102 0 102 129h160q0 -135 -68 -202.5t-194 -67.5q-125 0 -190.5 69.5t-65.5 200.5zM324 545q0 -143 45 -228.5t137 -85.5t136 80.5t44 223.5q0 147 -44.5 236t-137.5 89q-90 0 -135 -85t-45 -230z" />
<glyph unicode="&#x120;" horiz-adv-x="1210" d="M53 713q0 119 18.5 223.5t60.5 197t104 159t154 105t206 38.5q206 0 324.5 -103.5t171.5 -290.5l-224 -63q-34 119 -95.5 174t-166.5 55q-69 0 -121 -27t-83.5 -71t-51 -109.5t-26.5 -134t-7 -153.5q0 -498 289 -498q99 0 164 59t86 160q12 77 14 121h-219v215h457v-770 h-217l-4 180q-39 -92 -123 -146t-193 -54q-108 0 -196 39t-147 106.5t-99 161.5t-58 200t-18 226zM502 1556v220h184v-220h-184z" />
<glyph unicode="&#x121;" horiz-adv-x="1044" d="M63 551q0 238 99 378t264 140q87 0 153.5 -36t98.5 -101v117h256v-1000q0 -114 -38 -200.5t-102.5 -136t-140.5 -73.5t-161 -24q-108 0 -219.5 45.5t-184.5 138.5l123 150q62 -73 133.5 -107.5t134.5 -34.5q84 0 141.5 61.5t57.5 170.5v135q-24 -65 -90 -106t-158 -41 q-170 0 -268.5 143t-98.5 381zM324 545q0 -143 45 -228.5t137 -85.5t136 80.5t44 223.5q0 147 -44.5 236t-137.5 89q-90 0 -135 -85t-45 -230zM410 1194v219h184v-219h-184z" />
<glyph unicode="&#x122;" horiz-adv-x="1210" d="M53 713q0 119 18.5 223.5t60.5 197t104 159t154 105t206 38.5q206 0 324.5 -103.5t171.5 -290.5l-224 -63q-34 119 -95.5 174t-166.5 55q-69 0 -121 -27t-83.5 -71t-51 -109.5t-26.5 -134t-7 -153.5q0 -498 289 -498q99 0 164 59t86 160q12 77 14 121h-219v215h457v-770 h-217l-4 180q-39 -92 -123 -146t-193 -54q-108 0 -196 39t-147 106.5t-99 161.5t-58 200t-18 226zM373 -438l114 301h242l-217 -301h-139z" />
<glyph unicode="&#x123;" horiz-adv-x="1040" d="M63 551q0 238 99 378t264 140q87 0 153.5 -36t98.5 -101v117h256v-1000q0 -114 -38 -200.5t-102.5 -136t-140.5 -73.5t-161 -24q-108 0 -219.5 45.5t-184.5 138.5l123 150q62 -73 133.5 -107.5t134.5 -34.5q84 0 141.5 61.5t57.5 170.5v135q-24 -65 -90 -106t-158 -41 q-170 0 -268.5 143t-98.5 381zM324 545q0 -143 45 -228.5t137 -85.5t136 80.5t44 223.5q0 147 -44.5 236t-137.5 89q-90 0 -135 -85t-45 -230zM418 1145l217 268h139l-115 -268h-241z" />
<glyph unicode="&#x126;" horiz-adv-x="1191" d="M31 1057v117h84v237h266v-237h432v237h264v-237h82v-117h-82v-1057h-264v590h-432v-590h-266v1057h-84zM381 825h432v232h-432v-232z" />
<glyph unicode="&#x127;" horiz-adv-x="1024" d="M8 1147v123h103v143h256v-143h174v-123h-174v-238h6q40 74 109.5 117t150.5 43q140 0 214.5 -85.5t74.5 -235.5v-748h-256v705q0 81 -32.5 117t-101.5 36q-75 0 -120 -67.5t-45 -169.5v-621h-256v1147h-103z" />
<glyph unicode="&#x128;" horiz-adv-x="495" d="M-63 1518q0 129 48.5 194.5t129.5 65.5q37 0 68 -13.5t52.5 -32t40.5 -37.5t40.5 -32.5t43.5 -13.5q68 0 68 127h123q0 -133 -46 -200t-130 -67q-44 0 -82 20.5t-60 45t-50 45t-56 20.5q-31 0 -51 -31t-21 -91h-118zM115 0v1413h266v-1413h-266z" />
<glyph unicode="&#x129;" horiz-adv-x="483" d="M-63 1155q0 129 48.5 194.5t129.5 65.5q37 0 68 -13.5t52.5 -32.5t40.5 -37.5t40.5 -32t43.5 -13.5q68 0 68 127h123q0 -133 -46 -199.5t-130 -66.5q-44 0 -82 20.5t-60 45t-50 45t-56 20.5q-31 0 -51 -31.5t-21 -91.5h-118zM113 0v1049h258v-1049h-258z" />
<glyph unicode="&#x12a;" horiz-adv-x="495" d="M12 1593v140h467v-140h-467zM115 0v1413h266v-1413h-266z" />
<glyph unicode="&#x12b;" horiz-adv-x="483" d="M12 1231v139h467v-139h-467zM113 0v1049h258v-1049h-258z" />
<glyph unicode="&#x12e;" horiz-adv-x="495" d="M78 -254q0 43 12.5 82t40 75.5t40.5 51t44 45.5h-100v1413h266v-1413q-160 -124 -160 -231q0 -44 17.5 -65t42.5 -15q34 3 55 55l121 -88q-63 -123 -187 -123q-74 0 -133 54.5t-59 158.5z" />
<glyph unicode="&#x12f;" horiz-adv-x="479" d="M66 -254q0 43 12.5 82t40 75.5t40.5 51t44 45.5h-92v1049h258v-1049q-160 -124 -160 -231q0 -44 17.5 -65t41.5 -15q35 4 56 55l120 -88q-63 -123 -186 -123q-74 0 -133 54.5t-59 158.5zM113 1192v221h256v-221h-256z" />
<glyph unicode="&#x130;" horiz-adv-x="495" d="M115 0v1413h266v-1413h-266zM152 1556v220h184v-220h-184z" />
<glyph unicode="&#x131;" horiz-adv-x="483" d="M113 0v1049h258v-1049h-258z" />
<glyph unicode="&#x136;" horiz-adv-x="1193" d="M115 0v1411h266v-625l461 625h315l-428 -539l453 -872h-314l-307 664l-180 -228v-436h-266zM373 -438l114 301h242l-217 -301h-139z" />
<glyph unicode="&#x137;" horiz-adv-x="1005" d="M111 0v1413h256v-770l325 406h289l-340 -396l373 -653h-285l-256 467l-106 -119v-348h-256zM291 -438l115 301h241l-217 -301h-139z" />
<glyph unicode="&#x138;" horiz-adv-x="997" d="M109 0v1049h256v-402l313 402h301l-340 -396l362 -653h-286l-242 463l-108 -125v-338h-256z" />
<glyph unicode="&#x139;" horiz-adv-x="825" d="M115 0v1413h266v-1186h422v-227h-688zM150 1536l184 242h254l-262 -242h-176z" />
<glyph unicode="&#x13a;" horiz-adv-x="483" d="M113 0v1413h258v-1413h-258zM154 1536l184 242h254l-262 -242h-176z" />
<glyph unicode="&#x13b;" horiz-adv-x="825" d="M115 0v1413h266v-1186h422v-227h-688zM264 -438l115 301h242l-218 -301h-139z" />
<glyph unicode="&#x13c;" horiz-adv-x="483" d="M16 -438l115 301h242l-217 -301h-140zM113 0v1413h258v-1413h-258z" />
<glyph unicode="&#x13d;" horiz-adv-x="897" d="M115 0v1413h266v-1186h422v-227h-688zM582 1143v272h286v-272l-157 -307h-121l106 307h-114z" />
<glyph unicode="&#x13e;" horiz-adv-x="727" d="M113 0v1413h258v-1413h-258zM457 1143v272h286v-272l-157 -307h-121l106 307h-114z" />
<glyph unicode="&#x141;" horiz-adv-x="825" d="M-4 313v189l119 106v805h266v-567l164 147v-200l-164 -144v-422h422v-227h-688v418z" />
<glyph unicode="&#x142;" horiz-adv-x="483" d="M-31 381v194l144 130v708h258v-475l164 147v-208l-164 -144v-733h-258v506z" />
<glyph unicode="&#x143;" horiz-adv-x="1230" d="M115 0v1413h338l403 -1069h6v1069h254v-1413h-338l-403 1077h-6v-1077h-254zM528 1536l185 242h254l-262 -242h-177z" />
<glyph unicode="&#x144;" horiz-adv-x="1024" d="M111 0v1049h254v-140h8q39 72 104.5 116t153.5 44q131 0 211 -97.5t80 -260.5v-711h-256v674q0 97 -33.5 139.5t-100.5 42.5q-75 0 -120 -62t-45 -167v-627h-256zM426 1176l184 241h254l-262 -241h-176z" />
<glyph unicode="&#x145;" horiz-adv-x="1230" d="M115 0v1413h338l403 -1069h6v1069h254v-1413h-338l-403 1077h-6v-1077h-254zM391 -438l115 301h242l-218 -301h-139z" />
<glyph unicode="&#x146;" horiz-adv-x="1024" d="M111 0v1049h254v-140h8q39 72 104.5 116t153.5 44q131 0 211 -97.5t80 -260.5v-711h-256v674q0 97 -33.5 139.5t-100.5 42.5q-75 0 -120 -62t-45 -167v-627h-256zM291 -438l115 301h241l-217 -301h-139z" />
<glyph unicode="&#x147;" horiz-adv-x="1230" d="M115 0v1413h338l403 -1069h6v1069h254v-1413h-338l-403 1077h-6v-1077h-254zM348 1778h170l96 -133l97 133h170l-195 -262h-143z" />
<glyph unicode="&#x148;" horiz-adv-x="1024" d="M111 0v1049h254v-140h8q39 72 104.5 116t153.5 44q131 0 211 -97.5t80 -260.5v-711h-256v674q0 97 -33.5 139.5t-100.5 42.5q-75 0 -120 -62t-45 -167v-627h-256zM246 1417h170l96 -133l96 133h170l-194 -262h-144z" />
<glyph unicode="&#x14a;" horiz-adv-x="1230" d="M115 0v1413h338l403 -1069h6v1069h254v-1413q0 -43 -6 -81.5t-23 -77.5t-43.5 -67t-70.5 -45.5t-101 -17.5h-167v139q111 0 147.5 31.5t36.5 118.5h-111l-403 1077h-6v-1077h-254z" />
<glyph unicode="&#x14b;" horiz-adv-x="1040" d="M113 0v999h235v-159h12q43 92 112 134t144 42q81 0 143 -35.5t97 -95.5t52.5 -131.5t17.5 -151.5v-584q0 -28 -1 -47.5t-7 -54.5t-16.5 -59.5t-32.5 -54t-52.5 -48t-79 -31t-108.5 -12.5h-119v170h80q31 0 52 25t27.5 53.5t6.5 56.5v545q0 96 -39.5 164t-108.5 68 q-71 0 -118.5 -72.5t-47.5 -177.5v-543h-249z" />
<glyph unicode="&#x14c;" horiz-adv-x="1204" d="M53 707q0 335 145 531t400 196q258 0 405.5 -196t147.5 -531t-147.5 -531t-405.5 -196q-255 0 -400 196t-145 531zM338 707q0 -233 68.5 -358.5t195.5 -125.5q128 0 197 125.5t69 358.5q0 236 -69 362.5t-197 126.5t-196 -126.5t-68 -362.5zM367 1593v140h467v-140h-467z " />
<glyph unicode="&#x14d;" horiz-adv-x="989" d="M63 520q0 274 119.5 411.5t315.5 137.5q94 0 171 -33t135.5 -98.5t91 -172t32.5 -245.5q0 -269 -118 -406t-312 -137q-95 0 -173 33t-137 98t-92 170.5t-33 241.5zM266 1231v139h467v-139h-467zM297 520q0 -323 199 -323q202 0 202 323q0 332 -202 332q-199 0 -199 -332z " />
<glyph unicode="&#x150;" horiz-adv-x="1204" d="M53 707q0 335 145 531t400 196q258 0 405.5 -196t147.5 -531t-147.5 -531t-405.5 -196q-255 0 -400 196t-145 531zM332 1542l164 234h200l-186 -234h-178zM338 707q0 -233 68.5 -358.5t195.5 -125.5q128 0 197 125.5t69 358.5q0 236 -69 362.5t-197 126.5t-196 -126.5 t-68 -362.5zM643 1542l164 234h233l-221 -234h-176z" />
<glyph unicode="&#x151;" horiz-adv-x="989" d="M63 520q0 274 119.5 411.5t315.5 137.5q94 0 171 -33t135.5 -98.5t91 -172t32.5 -245.5q0 -269 -118 -406t-312 -137q-95 0 -173 33t-137 98t-92 170.5t-33 241.5zM231 1180l164 233h201l-186 -233h-179zM297 520q0 -323 199 -323q202 0 202 323q0 332 -202 332 q-199 0 -199 -332zM543 1180l164 233h233l-221 -233h-176z" />
<glyph unicode="&#x152;" horiz-adv-x="1826" d="M53 707q0 335 145 531t400 196q234 0 381 -166v143h764v-235h-537v-351h467v-235h-467v-352h537v-238h-764v145q-146 -165 -381 -165q-255 0 -400 196t-145 531zM338 707q0 -233 68.5 -358.5t195.5 -125.5q128 0 197 125.5t69 358.5q0 236 -69 362.5t-197 126.5 t-196 -126.5t-68 -362.5z" />
<glyph unicode="&#x153;" horiz-adv-x="1574" d="M63 520q0 274 119.5 411.5t315.5 137.5q203 0 315 -141q112 141 320 141q86 0 154.5 -26t115.5 -71.5t78 -110t45 -139.5t14 -163q0 -67 -8 -100h-574q6 -269 211 -269q59 0 107.5 24.5t93.5 84.5l162 -131q-83 -101 -171 -144.5t-204 -43.5q-219 0 -338 147 q-115 -150 -321 -150q-95 0 -173 33t-137 98t-92 170.5t-33 241.5zM297 520q0 -323 199 -323q202 0 202 323q0 332 -202 332q-199 0 -199 -332zM963 637h340q0 227 -164 227q-87 0 -128.5 -57.5t-47.5 -169.5z" />
<glyph unicode="&#x154;" horiz-adv-x="1122" d="M115 -2v1415h555q168 0 274.5 -111t106.5 -305q0 -131 -53 -228t-152 -142l266 -629h-291l-227 592h-213v-592h-266zM381 807h233q97 3 138 50.5t41 137.5q0 92 -43.5 140.5t-143.5 48.5h-225v-377zM432 1534l184 242h254l-262 -242h-176z" />
<glyph unicode="&#x155;" horiz-adv-x="671" d="M111 0v1049h247v-164h4q29 85 80.5 132.5t110.5 47.5q63 0 90 -16v-224q-79 19 -121 11q-155 -24 -155 -304v-532h-256zM289 1171l184 242h254l-262 -242h-176z" />
<glyph unicode="&#x156;" horiz-adv-x="1122" d="M115 -2v1415h555q168 0 274.5 -111t106.5 -305q0 -131 -53 -228t-152 -142l266 -629h-291l-227 592h-213v-592h-266zM381 807h233q97 3 138 50.5t41 137.5q0 92 -43.5 140.5t-143.5 48.5h-225v-377zM397 -438l115 301h242l-217 -301h-140z" />
<glyph unicode="&#x157;" horiz-adv-x="671" d="M14 -438l115 301h242l-217 -301h-140zM111 0v1049h247v-164h4q29 85 80.5 132.5t110.5 47.5q63 0 90 -16v-224q-79 19 -121 11q-155 -24 -155 -304v-532h-256z" />
<glyph unicode="&#x158;" horiz-adv-x="1122" d="M115 -2v1415h555q168 0 274.5 -111t106.5 -305q0 -131 -53 -228t-152 -142l266 -629h-291l-227 592h-213v-592h-266zM252 1776h170l96 -134l96 134h170l-194 -263h-144zM381 807h233q97 3 138 50.5t41 137.5q0 92 -43.5 140.5t-143.5 48.5h-225v-377z" />
<glyph unicode="&#x159;" horiz-adv-x="671" d="M109 1413h170l96 -133l96 133h170l-195 -262h-143zM111 0v1049h247v-164h4q29 85 80.5 132.5t110.5 47.5q63 0 90 -16v-224q-79 19 -121 11q-155 -24 -155 -304v-532h-256z" />
<glyph unicode="&#x15a;" horiz-adv-x="940" d="M23 332l188 133q35 -125 106 -186.5t154 -61.5q71 0 110.5 43t39.5 125q0 49 -14 87t-53.5 73t-62.5 50.5t-86 52.5q-12 7 -18 11q-54 30 -86.5 50.5t-80 60t-74 78t-46.5 96.5t-20 125q0 165 107 264t284 99q114 0 208.5 -53t182.5 -167l-153 -153q-97 153 -230 153 q-68 0 -104.5 -40t-36.5 -99q0 -24 7 -45t23.5 -40.5t32.5 -35t44.5 -34t47.5 -30t54 -31t53 -30.5q47 -28 79.5 -50.5t74 -61.5t66.5 -81t43 -104t18 -135q0 -186 -109 -299.5t-291 -113.5q-156 0 -278 89t-180 261zM373 1532l184 242h254l-262 -242h-176z" />
<glyph unicode="&#x15b;" horiz-adv-x="817" d="M29 170l118 170q38 -45 64 -70.5t71.5 -50.5t98.5 -33q66 -7 111.5 17t48.5 84q2 30 -8 52.5t-36 39.5t-48.5 27t-67.5 27q-13 5 -19 7q-52 19 -84.5 33t-75 41.5t-67 58t-42 78.5t-17.5 107q0 150 97.5 230.5t248.5 80.5q204 0 344 -160l-107 -159q-45 56 -90.5 87.5 t-109.5 39.5q-63 6 -102.5 -21t-41.5 -74q0 -14 4 -27t10 -22.5t19 -19.5t23.5 -16t31.5 -15.5t34 -14.5t40.5 -15.5t42.5 -16.5q61 -25 102 -49.5t79.5 -61.5t57.5 -89.5t19 -121.5q0 -153 -92.5 -244.5t-255.5 -91.5q-105 0 -210 51.5t-191 141.5zM317 1171l185 242h254 l-262 -242h-177z" />
<glyph unicode="&#x15e;" horiz-adv-x="940" d="M23 332l188 133q35 -125 106 -186.5t154 -61.5q71 0 110.5 43t39.5 125q0 49 -14 87t-53.5 73t-62.5 50.5t-86 52.5q-12 7 -18 11q-54 30 -86.5 50.5t-80 60t-74 78t-46.5 96.5t-20 125q0 165 107 264t284 99q114 0 208.5 -53t182.5 -167l-153 -153q-97 153 -230 153 q-68 0 -104.5 -40t-36.5 -99q0 -24 7 -45t23.5 -40.5t32.5 -35t44.5 -34t47.5 -30t54 -31t53 -30.5q47 -28 79.5 -50.5t74 -61.5t66.5 -81t43 -104t18 -135q0 -166 -89 -276t-241 -133l-59 -107q152 -66 145 -198q-4 -82 -58.5 -132.5t-132.5 -50.5q-58 0 -105 30.5 t-75 80.5l99 78q9 -26 28 -43t41 -17q30 0 46.5 18t19.5 46q4 32 -12.5 58t-47.5 38l-102 43l76 156q-134 19 -236.5 106.5t-154.5 239.5z" />
<glyph unicode="&#x15f;" horiz-adv-x="817" d="M29 170l118 170q38 -45 64 -70.5t71.5 -50.5t98.5 -33q66 -7 111.5 17t48.5 84q2 30 -8 52.5t-36 39.5t-48.5 27t-67.5 27q-13 5 -19 7q-52 19 -84.5 33t-75 41.5t-67 58t-42 78.5t-17.5 107q0 150 97.5 230.5t248.5 80.5q204 0 344 -160l-107 -159q-45 56 -90.5 87.5 t-109.5 39.5q-63 6 -102.5 -21t-41.5 -74q0 -14 4 -27t10 -22.5t19 -19.5t23.5 -16t31.5 -15.5t34 -14.5t40.5 -15.5t42.5 -16.5q61 -25 102 -49.5t79.5 -61.5t57.5 -89.5t19 -121.5q0 -130 -68 -217t-192 -110l-57 -105q152 -66 145 -198q-4 -82 -58 -132.5t-132 -50.5 q-58 0 -105 30.5t-75 80.5l98 78q9 -26 28 -43t41 -17q30 0 46.5 18t19.5 46q4 32 -12 58t-47 38l-103 43l72 150q-93 10 -184.5 59.5t-165.5 128.5z" />
<glyph unicode="&#x160;" horiz-adv-x="940" d="M23 332l188 133q35 -125 106 -186.5t154 -61.5q71 0 110.5 43t39.5 125q0 49 -14 87t-53.5 73t-62.5 50.5t-86 52.5q-12 7 -18 11q-54 30 -86.5 50.5t-80 60t-74 78t-46.5 96.5t-20 125q0 165 107 264t284 99q114 0 208.5 -53t182.5 -167l-153 -153q-97 153 -230 153 q-68 0 -104.5 -40t-36.5 -99q0 -24 7 -45t23.5 -40.5t32.5 -35t44.5 -34t47.5 -30t54 -31t53 -30.5q47 -28 79.5 -50.5t74 -61.5t66.5 -81t43 -104t18 -135q0 -186 -109 -299.5t-291 -113.5q-156 0 -278 89t-180 261zM193 1774h169l97 -134l96 134h170l-195 -263h-143z" />
<glyph unicode="&#x161;" horiz-adv-x="817" d="M29 170l118 170q38 -45 64 -70.5t71.5 -50.5t98.5 -33q66 -7 111.5 17t48.5 84q2 30 -8 52.5t-36 39.5t-48.5 27t-67.5 27q-13 5 -19 7q-52 19 -84.5 33t-75 41.5t-67 58t-42 78.5t-17.5 107q0 150 97.5 230.5t248.5 80.5q204 0 344 -160l-107 -159q-45 56 -90.5 87.5 t-109.5 39.5q-63 6 -102.5 -21t-41.5 -74q0 -14 4 -27t10 -22.5t19 -19.5t23.5 -16t31.5 -15.5t34 -14.5t40.5 -15.5t42.5 -16.5q61 -25 102 -49.5t79.5 -61.5t57.5 -89.5t19 -121.5q0 -153 -92.5 -244.5t-255.5 -91.5q-105 0 -210 51.5t-191 141.5zM137 1413h170l96 -133 l97 133h170l-195 -262h-143z" />
<glyph unicode="&#x162;" horiz-adv-x="972" d="M23 1188v225h927v-225h-332v-1188h-49l-65 -119q152 -66 145 -198q-4 -82 -58 -132.5t-132 -50.5q-58 0 -105 30.5t-75 80.5l98 78q9 -26 28 -43t41 -17q30 0 46.5 18t19.5 46q4 32 -12 58t-47 38l-103 43l82 168h-78v1188h-331z" />
<glyph unicode="&#x163;" horiz-adv-x="645" d="M35 874v175h115v364h256v-364h194v-175h-194v-542q0 -72 20 -100.5t70 -28.5h98v-203h-80l-65 -119q152 -66 145 -198q-4 -82 -58.5 -132.5t-132.5 -50.5q-58 0 -105 30.5t-75 80.5l99 78q9 -26 28 -43t41 -17q30 0 46.5 18t19.5 46q4 32 -12.5 58t-47.5 38l-102 43 l82 168q-227 6 -227 270v604h-115z" />
<glyph unicode="&#x164;" horiz-adv-x="972" d="M23 1188v225h927v-225h-332v-1188h-264v1188h-331zM213 1776h170l96 -134l96 134h170l-194 -263h-143z" />
<glyph unicode="&#x165;" horiz-adv-x="755" d="M35 874v175h115v364h256v-364h194v-175h-194v-542q0 -72 20 -100.5t70 -28.5h98v-203h-209q-235 0 -235 270v604h-115zM500 1434v272h286v-272l-157 -308h-121l106 308h-114z" />
<glyph unicode="&#x166;" horiz-adv-x="972" d="M23 1188v225h927v-225h-332v-420h181v-123h-181v-645h-264v645h-190v123h190v420h-331z" />
<glyph unicode="&#x167;" horiz-adv-x="645" d="M35 874v175h115v364h256v-364h194v-175h-194v-288h157v-123h-157v-131q0 -72 20 -100.5t70 -28.5h98v-203h-209q-235 0 -235 270v193h-84v123h84v288h-115z" />
<glyph unicode="&#x168;" horiz-adv-x="1169" d="M121 453v960h266v-971q0 -106 50.5 -162.5t144.5 -56.5q97 0 148.5 56.5t51.5 162.5v971h267v-950q0 -234 -116.5 -358.5t-350.5 -124.5q-231 0 -346 122.5t-115 350.5zM281 1518q0 129 48.5 194.5t129.5 65.5q37 0 68.5 -13.5t53 -32t40.5 -37.5t40.5 -32.5t43.5 -13.5 q67 0 67 127h123q0 -133 -46 -200t-130 -67q-44 0 -82 20.5t-60 45t-50 45t-56 20.5q-31 0 -51 -31t-21 -91h-118z" />
<glyph unicode="&#x169;" horiz-adv-x="1038" d="M115 340v709h258v-660q0 -100 33.5 -139t101.5 -39q75 0 119.5 61t44.5 164v613h256v-1049h-252v139h-14q-38 -77 -106.5 -119.5t-149.5 -42.5q-139 0 -215 97.5t-76 265.5zM213 1155q0 129 48.5 194.5t129.5 65.5q37 0 68.5 -13.5t53 -32.5t40.5 -37.5t40.5 -32 t43.5 -13.5q68 0 68 127h122q0 -133 -46 -199.5t-130 -66.5q-44 0 -82 20.5t-60 45t-50 45t-56 20.5q-31 0 -50.5 -31t-20.5 -92h-119z" />
<glyph unicode="&#x16a;" horiz-adv-x="1169" d="M121 453v960h266v-971q0 -106 50.5 -162.5t144.5 -56.5q97 0 148.5 56.5t51.5 162.5v971h267v-950q0 -234 -116.5 -358.5t-350.5 -124.5q-231 0 -346 122.5t-115 350.5zM356 1593v140h467v-140h-467z" />
<glyph unicode="&#x16b;" horiz-adv-x="1038" d="M115 340v709h258v-660q0 -100 33.5 -139t101.5 -39q75 0 119.5 61t44.5 164v613h256v-1049h-252v139h-14q-38 -77 -106.5 -119.5t-149.5 -42.5q-139 0 -215 97.5t-76 265.5zM289 1231v139h467v-139h-467z" />
<glyph unicode="&#x16e;" horiz-adv-x="1169" d="M121 453v960h266v-971q0 -106 50.5 -162.5t144.5 -56.5q97 0 148.5 56.5t51.5 162.5v971h267v-950q0 -234 -116.5 -358.5t-350.5 -124.5q-231 0 -346 122.5t-115 350.5zM377 1710q0 94 59.5 155.5t151.5 61.5q91 0 150 -61.5t59 -155.5t-59 -155.5t-150 -61.5 q-92 0 -151.5 61.5t-59.5 155.5zM487 1710q0 -46 28.5 -75t72.5 -29q43 0 70.5 29t27.5 75q0 45 -28 75t-70 30q-44 0 -72.5 -30t-28.5 -75z" />
<glyph unicode="&#x16f;" horiz-adv-x="1038" d="M115 340v709h258v-660q0 -100 33.5 -139t101.5 -39q75 0 119.5 61t44.5 164v613h256v-1049h-252v139h-14q-38 -77 -106.5 -119.5t-149.5 -42.5q-139 0 -215 97.5t-76 265.5zM309 1348q0 94 59.5 155.5t151.5 61.5q91 0 150 -61.5t59 -155.5t-59 -156t-150 -62 q-92 0 -151.5 62t-59.5 156zM420 1348q0 -46 28 -75.5t72 -29.5q43 0 70.5 29.5t27.5 75.5q0 45 -27.5 74.5t-70.5 29.5q-44 0 -72 -29.5t-28 -74.5z" />
<glyph unicode="&#x170;" horiz-adv-x="1169" d="M121 453v960h266v-971q0 -106 50.5 -162.5t144.5 -56.5q97 0 148.5 56.5t51.5 162.5v971h267v-950q0 -234 -116.5 -358.5t-350.5 -124.5q-231 0 -346 122.5t-115 350.5zM322 1542l163 234h201l-186 -234h-178zM633 1542l164 234h233l-221 -234h-176z" />
<glyph unicode="&#x171;" horiz-adv-x="1038" d="M115 340v709h258v-660q0 -100 33.5 -139t101.5 -39q75 0 119.5 61t44.5 164v613h256v-1049h-252v139h-14q-38 -77 -106.5 -119.5t-149.5 -42.5q-139 0 -215 97.5t-76 265.5zM254 1180l164 233h200l-186 -233h-178zM565 1180l164 233h234l-222 -233h-176z" />
<glyph unicode="&#x172;" horiz-adv-x="1169" d="M121 453v960h266v-971q0 -106 50.5 -162.5t144.5 -56.5q97 0 148.5 56.5t51.5 162.5v971h267v-950q0 -318 -209 -428q-88 -88 -88 -170q0 -44 17.5 -65t41.5 -15q34 3 55 55l121 -88q-63 -123 -186 -123q-74 0 -133.5 54.5t-59.5 158.5q0 70 41 140q-23 -2 -67 -2 q-231 0 -346 122.5t-115 350.5z" />
<glyph unicode="&#x173;" horiz-adv-x="1038" d="M115 340v709h258v-660q0 -100 33.5 -139t101.5 -39q75 0 119.5 61t44.5 164v613h256v-1049h6q-160 -124 -160 -231q0 -44 17.5 -65t42.5 -15q34 3 55 55l121 -88q-63 -123 -187 -123q-74 0 -133 54.5t-59 158.5q0 43 12.5 82t40 75.5t40.5 51t44 45.5h-92v139h-14 q-38 -77 -106.5 -119.5t-149.5 -42.5q-139 0 -215 97.5t-76 265.5z" />
<glyph unicode="&#x174;" horiz-adv-x="1597" d="M18 1413h275l143 -1118h15l206 1118h283l207 -1118h14l144 1118h274l-244 -1413h-344l-192 1116l-193 -1116h-344zM535 1513l194 265h143l195 -265h-170l-96 140l-99 -140h-167z" />
<glyph unicode="&#x175;" horiz-adv-x="1390" d="M10 1049h262l136 -830l178 830h215l178 -828l139 828h262l-225 -1049h-324l-141 713l-135 -717h-322zM430 1149l195 264h143l195 -264h-170l-97 139l-98 -139h-168z" />
<glyph unicode="&#x176;" horiz-adv-x="1062" d="M4 1413h297l231 -618l230 618h297l-397 -862v-551h-261v551zM266 1511l195 265h143l195 -265h-170l-97 140l-98 -140h-168z" />
<glyph unicode="&#x177;" horiz-adv-x="894" d="M6 1049h275l133 -590q28 -132 28 -166h13q0 44 26 166l137 590h277l-338 -1104q-99 -310 -469 -310v203q59 0 100.5 13t66 40t37 56t23.5 73zM184 1149l195 264h143l195 -264h-170l-96 139l-99 -139h-168z" />
<glyph unicode="&#x178;" horiz-adv-x="1062" d="M4 1413h297l231 -618l230 618h297l-397 -862v-551h-261v551zM279 1552v224h188v-224h-188zM598 1552v224h184v-224h-184z" />
<glyph unicode="&#x179;" horiz-adv-x="1015" d="M39 0v182l633 1014h-596v217h901v-192l-627 -1004h627v-217h-938zM414 1534l184 242h254l-262 -242h-176z" />
<glyph unicode="&#x17a;" horiz-adv-x="854" d="M63 0v182l453 662h-450v205h727v-195l-435 -647h433v-207h-728zM336 1171l184 242h254l-262 -242h-176z" />
<glyph unicode="&#x17b;" horiz-adv-x="1015" d="M39 0v182l633 1014h-596v217h901v-192l-627 -1004h627v-217h-938zM410 1556v220h184v-220h-184z" />
<glyph unicode="&#x17c;" horiz-adv-x="854" d="M63 0v182l453 662h-450v205h727v-195l-435 -647h433v-207h-728zM332 1194v219h184v-219h-184z" />
<glyph unicode="&#x17d;" horiz-adv-x="1015" d="M39 0v182l633 1014h-596v217h901v-192l-627 -1004h627v-217h-938zM233 1776h170l97 -134l96 134h170l-195 -263h-143z" />
<glyph unicode="&#x17e;" horiz-adv-x="854" d="M63 0v182l453 662h-450v205h727v-195l-435 -647h433v-207h-728zM156 1413h170l96 -133l96 133h170l-194 -262h-144z" />
<glyph unicode="&#x192;" horiz-adv-x="864" d="M82 -207q108 0 158.5 44t50.5 163v874h-133v175h135v69q0 136 67 215.5t193 79.5h164v-188h-74q-46 0 -70 -32t-24 -85v-59h168v-175h-168v-874h-2q0 -114 -35.5 -197t-100.5 -131t-146 -70t-183 -22v213z" />
<glyph unicode="&#x1cd;" horiz-adv-x="1036" d="M-4 0l352 1413h340l352 -1413h-278l-57 276h-369l-60 -276h-280zM252 1776h170l96 -134l96 134h170l-194 -263h-144zM379 489h283l-119 605l-17 92h-6l-18 -92z" />
<glyph unicode="&#x1ce;" horiz-adv-x="964" d="M72 270q0 189 166 285q29 17 62 32.5t79.5 33t74 27.5t92.5 32.5t89 30.5q-2 86 -38.5 122.5t-123.5 36.5q-76 0 -127.5 -31.5t-99.5 -103.5l-158 123q65 104 156.5 157.5t226.5 53.5q175 0 282 -86.5t107 -257.5v-725h-225v119q-59 -66 -136 -104t-141 -38 q-131 0 -208.5 79t-77.5 214zM207 1413h170l96 -133l96 133h170l-194 -262h-144zM324 291q0 -54 30 -84t74 -27q123 6 207 146v198q-194 -85 -223 -102q-88 -53 -88 -131z" />
<glyph unicode="&#x1cf;" horiz-adv-x="495" d="M-25 1776h170l97 -134l96 134h170l-195 -263h-143zM115 0v1413h266v-1413h-266z" />
<glyph unicode="&#x1d0;" horiz-adv-x="483" d="M-25 1413h170l97 -133l96 133h170l-195 -262h-143zM113 0v1049h258v-1049h-258z" />
<glyph unicode="&#x1d1;" horiz-adv-x="1204" d="M53 707q0 335 145 531t400 196q258 0 405.5 -196t147.5 -531t-147.5 -531t-405.5 -196q-255 0 -400 196t-145 531zM330 1776h170l96 -134l96 134h170l-194 -263h-144zM338 707q0 -233 68.5 -358.5t195.5 -125.5q128 0 197 125.5t69 358.5q0 236 -69 362.5t-197 126.5 t-196 -126.5t-68 -362.5z" />
<glyph unicode="&#x1d2;" horiz-adv-x="989" d="M63 520q0 274 119.5 411.5t315.5 137.5q94 0 171 -33t135.5 -98.5t91 -172t32.5 -245.5q0 -269 -118 -406t-312 -137q-95 0 -173 33t-137 98t-92 170.5t-33 241.5zM229 1413h170l97 -133l96 133h170l-195 -262h-143zM297 520q0 -323 199 -323q202 0 202 323 q0 332 -202 332q-199 0 -199 -332z" />
<glyph unicode="&#x1d3;" horiz-adv-x="1169" d="M121 453v960h266v-971q0 -106 50.5 -162.5t144.5 -56.5q97 0 148.5 56.5t51.5 162.5v971h267v-950q0 -234 -116.5 -358.5t-350.5 -124.5q-231 0 -346 122.5t-115 350.5zM319 1776h170l97 -134l96 134h170l-195 -263h-143z" />
<glyph unicode="&#x1d4;" horiz-adv-x="1038" d="M115 340v709h258v-660q0 -100 33.5 -139t101.5 -39q75 0 119.5 61t44.5 164v613h256v-1049h-252v139h-14q-38 -77 -106.5 -119.5t-149.5 -42.5q-139 0 -215 97.5t-76 265.5zM252 1413h170l96 -133l96 133h170l-194 -262h-144z" />
<glyph unicode="&#x1d5;" horiz-adv-x="1169" d="M121 453v960h266v-971q0 -106 50.5 -162.5t144.5 -56.5q97 0 148.5 56.5t51.5 162.5v971h267v-950q0 -234 -116.5 -358.5t-350.5 -124.5q-231 0 -346 122.5t-115 350.5zM334 1552v224h188v-224h-188zM356 1958v139h467v-139h-467zM653 1552v224h185v-224h-185z" />
<glyph unicode="&#x1d6;" horiz-adv-x="1038" d="M115 340v709h258v-660q0 -100 33.5 -139t101.5 -39q75 0 119.5 61t44.5 164v613h256v-1049h-252v139h-14q-38 -77 -106.5 -119.5t-149.5 -42.5q-139 0 -215 97.5t-76 265.5zM266 1190v223h189v-223h-189zM289 1595v140h467v-140h-467zM586 1190v223h184v-223h-184z" />
<glyph unicode="&#x1d7;" horiz-adv-x="1169" d="M121 453v960h266v-971q0 -106 50.5 -162.5t144.5 -56.5q97 0 148.5 56.5t51.5 162.5v971h267v-950q0 -234 -116.5 -358.5t-350.5 -124.5q-231 0 -346 122.5t-115 350.5zM334 1552v224h188v-224h-188zM500 1898l184 242h254l-262 -242h-176zM653 1552v224h185v-224h-185z " />
<glyph unicode="&#x1d8;" horiz-adv-x="1038" d="M115 340v709h258v-660q0 -100 33.5 -139t101.5 -39q75 0 119.5 61t44.5 164v613h256v-1049h-252v139h-14q-38 -77 -106.5 -119.5t-149.5 -42.5q-139 0 -215 97.5t-76 265.5zM266 1190v223h189v-223h-189zM432 1536l184 242h254l-262 -242h-176zM586 1190v223h184v-223 h-184z" />
<glyph unicode="&#x1d9;" horiz-adv-x="1169" d="M121 453v960h266v-971q0 -106 50.5 -162.5t144.5 -56.5q97 0 148.5 56.5t51.5 162.5v971h267v-950q0 -234 -116.5 -358.5t-350.5 -124.5q-231 0 -346 122.5t-115 350.5zM319 2140h170l97 -133l96 133h170l-195 -262h-143zM334 1552v224h188v-224h-188zM653 1552v224h185 v-224h-185z" />
<glyph unicode="&#x1da;" horiz-adv-x="1038" d="M115 340v709h258v-660q0 -100 33.5 -139t101.5 -39q75 0 119.5 61t44.5 164v613h256v-1049h-252v139h-14q-38 -77 -106.5 -119.5t-149.5 -42.5q-139 0 -215 97.5t-76 265.5zM252 1778h170l96 -133l96 133h170l-194 -262h-144zM266 1190v223h189v-223h-189zM586 1190v223 h184v-223h-184z" />
<glyph unicode="&#x1db;" horiz-adv-x="1169" d="M121 453v960h266v-971q0 -106 50.5 -162.5t144.5 -56.5q97 0 148.5 56.5t51.5 162.5v971h267v-950q0 -234 -116.5 -358.5t-350.5 -124.5q-231 0 -346 122.5t-115 350.5zM238 2140h256l182 -244h-180zM334 1552v224h188v-224h-188zM653 1552v224h185v-224h-185z" />
<glyph unicode="&#x1dc;" horiz-adv-x="1038" d="M115 340v709h258v-660q0 -100 33.5 -139t101.5 -39q75 0 119.5 61t44.5 164v613h256v-1049h-252v139h-14q-38 -77 -106.5 -119.5t-149.5 -42.5q-139 0 -215 97.5t-76 265.5zM170 1778h256l182 -244h-180zM266 1190v223h189v-223h-189zM586 1190v223h184v-223h-184z" />
<glyph unicode="&#x1fe;" horiz-adv-x="1204" d="M29 104l121 150q-97 183 -97 453q0 335 145 531t400 196q230 0 373 -158l90 113l104 -82l-114 -144q100 -180 100 -456q0 -335 -147.5 -531t-405.5 -196q-228 0 -371 159l-94 -116zM338 707q0 -105 16 -199l447 557q-69 131 -199 131q-128 0 -196 -126.5t-68 -362.5z M401 356q68 -133 201 -133q128 0 197 125.5t69 358.5q0 117 -18 208zM510 1534l184 242h254l-262 -242h-176z" />
<glyph unicode="&#x1ff;" horiz-adv-x="989" d="M63 520q0 274 119.5 411.5t315.5 137.5q177 0 288 -111l37 46l74 -58l-51 -65q82 -138 82 -361q0 -269 -118 -406t-312 -137q-180 0 -291 111l-37 -47l-74 57l51 66q-84 136 -84 356zM297 520q0 -78 14 -153l332 411q-52 74 -147 74q-199 0 -199 -332zM352 268 q52 -71 144 -71q202 0 202 323q0 91 -16 160zM410 1171l184 242h254l-262 -242h-176z" />
<glyph unicode="&#x218;" horiz-adv-x="940" d="M23 332l188 133q35 -125 106 -186.5t154 -61.5q71 0 110.5 43t39.5 125q0 49 -14 87t-53.5 73t-62.5 50.5t-86 52.5q-12 7 -18 11q-54 30 -86.5 50.5t-80 60t-74 78t-46.5 96.5t-20 125q0 165 107 264t284 99q114 0 208.5 -53t182.5 -167l-153 -153q-97 153 -230 153 q-68 0 -104.5 -40t-36.5 -99q0 -24 7 -45t23.5 -40.5t32.5 -35t44.5 -34t47.5 -30t54 -31t53 -30.5q47 -28 79.5 -50.5t74 -61.5t66.5 -81t43 -104t18 -135q0 -186 -109 -299.5t-291 -113.5q-156 0 -278 89t-180 261zM244 -440l114 301h242l-217 -301h-139z" />
<glyph unicode="&#x219;" horiz-adv-x="817" d="M29 170l118 170q38 -45 64 -70.5t71.5 -50.5t98.5 -33q66 -7 111.5 17t48.5 84q2 30 -8 52.5t-36 39.5t-48.5 27t-67.5 27q-13 5 -19 7q-52 19 -84.5 33t-75 41.5t-67 58t-42 78.5t-17.5 107q0 150 97.5 230.5t248.5 80.5q204 0 344 -160l-107 -159q-45 56 -90.5 87.5 t-109.5 39.5q-63 6 -102.5 -21t-41.5 -74q0 -14 4 -27t10 -22.5t19 -19.5t23.5 -16t31.5 -15.5t34 -14.5t40.5 -15.5t42.5 -16.5q61 -25 102 -49.5t79.5 -61.5t57.5 -89.5t19 -121.5q0 -153 -92.5 -244.5t-255.5 -91.5q-105 0 -210 51.5t-191 141.5zM213 -438l115 301h241 l-217 -301h-139z" />
<glyph unicode="&#x21a;" horiz-adv-x="972" d="M23 1188v225h927v-225h-332v-1188h-264v1188h-331zM256 -438l115 301h241l-217 -301h-139z" />
<glyph unicode="&#x21b;" horiz-adv-x="645" d="M35 874v175h115v364h256v-364h194v-175h-194v-542q0 -72 20 -100.5t70 -28.5h98v-203h-209q-235 0 -235 270v604h-115zM201 -438l114 301h242l-217 -301h-139z" />
<glyph unicode="&#x237;" horiz-adv-x="477" d="M-35 -162h66q34 0 56 29.5t22 79.5v1102h258v-1094q0 -148 -69 -234t-206 -86h-127v203z" />
<glyph unicode="&#x2c6;" horiz-adv-x="534" d="M2 1096l195 264h143l195 -264h-170l-97 139l-98 -139h-168z" />
<glyph unicode="&#x2c7;" horiz-adv-x="536" d="M2 1364h170l96 -133l97 133h170l-195 -262h-143z" />
<glyph unicode="&#x2d8;" horiz-adv-x="495" d="M-8 1364h158q0 -64 27.5 -96.5t70.5 -32.5q102 0 102 129h160q0 -134 -68 -202t-194 -68q-125 0 -190.5 69.5t-65.5 200.5z" />
<glyph unicode="&#x2d9;" horiz-adv-x="247" d="M31 1145v219h184v-219h-184z" />
<glyph unicode="&#x2da;" horiz-adv-x="327" d="M-18 1298q0 101 49 159.5t135 58.5t134 -58t48 -160q0 -103 -48 -160t-134 -57t-135 57.5t-49 159.5zM84 1300q0 -51 21.5 -78.5t60.5 -27.5q37 0 58.5 28t21.5 78q0 47 -21.5 75t-58.5 28q-38 0 -60 -28t-22 -75z" />
<glyph unicode="&#x2db;" horiz-adv-x="368" d="M16 -254q0 39 11 75t31.5 67t37.5 51t41.5 45t30.5 32l151 -16q-76 -49 -117.5 -110t-41.5 -121q0 -44 17.5 -65t41.5 -15q34 3 55 55l121 -88q-63 -123 -186 -123q-74 0 -133.5 54.5t-59.5 158.5z" />
<glyph unicode="&#x2dc;" horiz-adv-x="577" d="M-16 1081q0 129 48.5 194.5t129.5 65.5q36 0 66.5 -13.5t50.5 -32.5t37.5 -37.5t37.5 -32t41 -13.5q60 0 60 127h143q0 -133 -46 -199.5t-130 -66.5q-36 0 -66 13.5t-50.5 32.5t-38.5 38.5t-37.5 33t-39.5 13.5q-24 0 -40 -31t-17 -92h-149z" />
<glyph unicode="&#x2dd;" horiz-adv-x="606" d="M-39 1130l164 234h201l-187 -234h-178zM272 1130l164 234h234l-221 -234h-177z" />
<glyph unicode="&#x300;" d="M-391 1364h256l182 -244h-180z" />
<glyph unicode="&#x301;" d="M-385 1122l184 242h254l-262 -242h-176z" />
<glyph unicode="&#x302;" d="M-532 1096l194 264h143l195 -264h-170l-96 139l-99 -139h-167z" />
<glyph unicode="&#x303;" d="M-594 1081q0 129 48.5 194.5t129.5 65.5q37 0 68.5 -13.5t53 -32.5t40.5 -37.5t40.5 -32t43.5 -13.5q68 0 68 127h122q0 -133 -46 -199.5t-130 -66.5q-36 0 -67 13.5t-52.5 32.5t-41 38.5t-41.5 33t-45 13.5q-31 0 -51 -31.5t-21 -91.5h-119z" />
<glyph unicode="&#x304;" d="M-498 1182v139h467v-139h-467z" />
<glyph unicode="&#x306;" d="M-504 1364h158q0 -64 27.5 -96.5t70.5 -32.5q103 0 103 129h159q0 -134 -68 -202t-194 -68q-125 0 -190.5 69.5t-65.5 200.5z" />
<glyph unicode="&#x307;" d="M-217 1145v219h184v-219h-184z" />
<glyph unicode="&#x308;" d="M-535 1141v223h189v-223h-189zM-215 1141v223h184v-223h-184z" />
<glyph unicode="&#x30a;" d="M-408 1298q0 94 59.5 156t151.5 62q91 0 150 -62t59 -156t-59 -155.5t-150 -61.5q-92 0 -151.5 61.5t-59.5 155.5zM-297 1298q0 -46 28 -75t72 -29q43 0 71 29t28 75q0 45 -28 75t-71 30q-44 0 -72 -30t-28 -75z" />
<glyph unicode="&#x30b;" d="M-645 1130l164 234h200l-186 -234h-178zM-334 1130l164 234h233l-221 -234h-176z" />
<glyph unicode="&#x30c;" d="M-535 1364h170l97 -133l96 133h170l-195 -262h-143z" />
<glyph unicode="&#x312;" d="M-43 1147l217 268h139l-114 -268h-242z" />
<glyph unicode="&#x326;" d="M-403 -438l114 301h242l-217 -301h-139z" />
<glyph unicode="&#x327;" d="M-317 -389l98 78q9 -26 28 -43t41 -17q30 0 46.5 18t19.5 46q4 32 -12 58t-47 38l-103 43l86 178l133 -10l-65 -119q152 -66 145 -198q-4 -82 -58 -132.5t-132 -50.5q-58 0 -105 30.5t-75 80.5z" />
<glyph unicode="&#x328;" d="M-352 -254q0 39 11 75t31.5 67t37 51t41 45t30.5 32l152 -16q-160 -124 -160 -231q0 -44 17.5 -65t41.5 -15q35 4 56 55l121 -88q-63 -123 -187 -123q-74 0 -133 54.5t-59 158.5z" />
<glyph unicode="&#x335;" d="M-530 518v123h532v-123h-532z" />
<glyph unicode="&#x336;" d="M-1057 512v117h1129v-117h-1129z" />
<glyph unicode="&#x337;" d="M-739 158v252l733 659v-270z" />
<glyph unicode="&#x338;" d="M-1094 111l1033 1284l104 -82l-1032 -1284z" />
<glyph unicode="&#x3c0;" horiz-adv-x="1075" d="M113 788v211h727v-211h-66v-522q-2 -42 12.5 -67.5t38.5 -12.5l43 27l97 -152q-101 -81 -191 -81q-96 0 -152.5 72t-56.5 165v571h-178v-788h-209v788h-65z" />
<glyph unicode="&#x1e80;" horiz-adv-x="1597" d="M18 1413h275l143 -1118h15l206 1118h283l207 -1118h14l144 1118h274l-244 -1413h-344l-192 1116l-193 -1116h-344zM451 1778h256l182 -244h-180z" />
<glyph unicode="&#x1e81;" horiz-adv-x="1390" d="M10 1049h262l136 -830l178 830h215l178 -828l139 828h262l-225 -1049h-324l-141 713l-135 -717h-322zM346 1413h256l182 -244h-180z" />
<glyph unicode="&#x1e82;" horiz-adv-x="1597" d="M18 1413h275l143 -1118h15l206 1118h283l207 -1118h14l144 1118h274l-244 -1413h-344l-192 1116l-193 -1116h-344zM713 1536l184 242h254l-262 -242h-176z" />
<glyph unicode="&#x1e83;" horiz-adv-x="1390" d="M10 1049h262l136 -830l178 830h215l178 -828l139 828h262l-225 -1049h-324l-141 713l-135 -717h-322zM608 1171l185 242h254l-263 -242h-176z" />
<glyph unicode="&#x1e84;" horiz-adv-x="1597" d="M18 1413h275l143 -1118h15l206 1118h283l207 -1118h14l144 1118h274l-244 -1413h-344l-192 1116l-193 -1116h-344zM547 1554v224h188v-224h-188zM866 1554v224h185v-224h-185z" />
<glyph unicode="&#x1e85;" horiz-adv-x="1390" d="M10 1049h262l136 -830l178 830h215l178 -828l139 828h262l-225 -1049h-324l-141 713l-135 -717h-322zM442 1190v223h189v-223h-189zM762 1190v223h184v-223h-184z" />
<glyph unicode="&#x1ebc;" horiz-adv-x="968" d="M115 0v1413h772v-227h-506v-365h453v-227h-453v-365h506v-229h-772zM195 1518q0 129 48.5 194.5t129.5 65.5q37 0 68 -13.5t52.5 -32t40.5 -37.5t40.5 -32.5t43.5 -13.5q68 0 68 127h123q0 -133 -46 -200t-130 -67q-44 0 -82 20.5t-60 45t-50 45t-56 20.5q-31 0 -51 -31 t-21 -91h-118z" />
<glyph unicode="&#x1ebd;" horiz-adv-x="954" d="M61 518q0 97 14.5 178.5t47 151t82 118t121.5 76t163 27.5q107 0 187 -39t127.5 -109.5t70.5 -161t23 -200.5q0 -67 -8 -100h-574q6 -269 211 -269q59 0 107.5 24.5t93.5 84.5l162 -131q-83 -101 -171 -144.5t-204 -43.5q-220 0 -336.5 144t-116.5 394zM176 1155 q0 129 48.5 194.5t129.5 65.5q37 0 68.5 -13.5t53 -32.5t40.5 -37.5t40.5 -32t43.5 -13.5q68 0 68 127h123q0 -133 -46.5 -199.5t-130.5 -66.5q-36 0 -67 13.5t-52.5 32.5t-41 38.5t-41.5 33t-45 13.5q-31 0 -51 -31.5t-21 -91.5h-119zM319 637h340q0 227 -163 227 q-88 0 -129.5 -57.5t-47.5 -169.5z" />
<glyph unicode="&#x1ef2;" horiz-adv-x="1062" d="M4 1413h297l231 -618l230 618h297l-397 -862v-551h-261v551zM182 1776h256l183 -244h-181z" />
<glyph unicode="&#x1ef3;" horiz-adv-x="894" d="M6 1049h275l133 -590q28 -132 28 -166h13q0 44 26 166l137 590h277l-338 -1104q-99 -310 -469 -310v203q59 0 100.5 13t66 40t37 56t23.5 73zM100 1413h256l183 -244h-181z" />
<glyph unicode="&#x1ef8;" horiz-adv-x="1062" d="M4 1413h297l231 -618l230 618h297l-397 -862v-551h-261v551zM225 1518q0 129 48.5 194.5t129.5 65.5q37 0 68.5 -13.5t53 -32t40.5 -37.5t40.5 -32.5t43.5 -13.5q68 0 68 127h123q0 -133 -46 -200t-130 -67q-44 0 -82 20.5t-60 45t-50 45t-56 20.5q-31 0 -51 -31t-21 -91 h-119z" />
<glyph unicode="&#x1ef9;" horiz-adv-x="894" d="M6 1049h275l133 -590q28 -132 28 -166h13q0 44 26 166l137 590h277l-338 -1104q-99 -310 -469 -310v203q59 0 100.5 13t66 40t37 56t23.5 73zM143 1155q0 129 48.5 194.5t130.5 65.5q37 0 68 -13.5t52.5 -32.5t40.5 -37.5t40.5 -32t43.5 -13.5q68 0 68 127h123 q0 -133 -46 -199.5t-130 -66.5q-44 0 -82 20.5t-60 45t-50 45t-56 20.5q-31 0 -51 -31.5t-21 -91.5h-119z" />
<glyph unicode="&#x2000;" horiz-adv-x="1070" />
<glyph unicode="&#x2001;" horiz-adv-x="2140" />
<glyph unicode="&#x2002;" horiz-adv-x="1070" />
<glyph unicode="&#x2003;" horiz-adv-x="2140" />
<glyph unicode="&#x2004;" horiz-adv-x="713" />
<glyph unicode="&#x2005;" horiz-adv-x="535" />
<glyph unicode="&#x2006;" horiz-adv-x="356" />
<glyph unicode="&#x2007;" horiz-adv-x="356" />
<glyph unicode="&#x2008;" horiz-adv-x="267" />
<glyph unicode="&#x2009;" horiz-adv-x="428" />
<glyph unicode="&#x200a;" horiz-adv-x="118" />
<glyph unicode="&#x2010;" horiz-adv-x="620" d="M55 414v207h510v-207h-510z" />
<glyph unicode="&#x2011;" horiz-adv-x="620" d="M55 414v207h510v-207h-510z" />
<glyph unicode="&#x2012;" horiz-adv-x="620" d="M55 414v207h510v-207h-510z" />
<glyph unicode="&#x2013;" horiz-adv-x="735" d="M39 414v207h657v-207h-657z" />
<glyph unicode="&#x2014;" horiz-adv-x="1658" d="M10 414v207h1639v-207h-1639z" />
<glyph unicode="&#x2018;" horiz-adv-x="487" d="M61 811v293l170 330h129l-114 -330h123v-293h-308z" />
<glyph unicode="&#x2019;" horiz-adv-x="493" d="M84 1122v293h307v-293l-170 -329h-129l115 329h-123z" />
<glyph unicode="&#x201a;" horiz-adv-x="475" d="M78 0v293h307v-293l-170 -330h-129l115 330h-123z" />
<glyph unicode="&#x201c;" horiz-adv-x="897" d="M61 811v293l170 330h129l-114 -330h123v-293h-308zM471 811v293l170 330h129l-115 -330h123v-293h-307z" />
<glyph unicode="&#x201d;" horiz-adv-x="903" d="M84 1122v293h307v-293l-170 -329h-129l115 329h-123zM494 1122v293h307v-293l-170 -329h-129l114 329h-122z" />
<glyph unicode="&#x201e;" horiz-adv-x="913" d="M78 0v293h307v-293l-170 -330h-129l115 330h-123zM516 0v293h307v-293l-170 -330h-129l115 330h-123z" />
<glyph unicode="&#x2020;" horiz-adv-x="770" d="M94 809v223h176v381h228v-381h178v-223h-178v-1014h-228v1014h-176z" />
<glyph unicode="&#x2021;" horiz-adv-x="770" d="M94 178v223h176v408h-176v223h176v381h228v-381h178v-223h-178v-408h178v-223h-178v-383h-228v383h-176z" />
<glyph unicode="&#x2022;" horiz-adv-x="811" d="M82 537q0 134 94.5 227.5t229.5 93.5t229 -93.5t94 -227.5q0 -135 -94 -230.5t-229 -95.5t-229.5 95.5t-94.5 230.5z" />
<glyph unicode="&#x2025;" horiz-adv-x="1009" d="M84 0v293h307v-293h-307zM616 0v293h308v-293h-308z" />
<glyph unicode="&#x2026;" horiz-adv-x="1548" d="M84 0v293h307v-293h-307zM618 0v293h308v-293h-308zM1155 0v293h307v-293h-307z" />
<glyph unicode="&#x202f;" horiz-adv-x="428" />
<glyph unicode="&#x2030;" horiz-adv-x="1916" d="M68 1096q0 68 13 126.5t40 107.5t75.5 77.5t114.5 28.5q123 0 184.5 -96t61.5 -244q0 -95 -24 -168t-79 -119.5t-137 -46.5q-67 0 -117 29t-78 78t-41 106t-13 121zM231 1100q0 -170 80 -170t80 172q0 164 -82 164q-78 0 -78 -166zM254 2l620 1411h220l-619 -1411h-221z M801 324q0 67 13 125.5t40 108t75.5 78t114.5 28.5q123 0 184.5 -96.5t61.5 -245.5q0 -94 -23.5 -166.5t-78.5 -119t-137 -46.5q-67 0 -117 29t-78 78t-41.5 106t-13.5 121zM965 326q0 -166 82 -166q77 0 77 168q0 166 -82 166q-77 0 -77 -168zM1360 324q0 54 11.5 108.5 t37.5 109t76.5 88.5t118.5 34q63 0 112 -31t77 -82t42 -109.5t14 -119.5q0 -60 -13.5 -116.5t-41 -106t-75 -79.5t-109.5 -30q-56 0 -101 23.5t-72 59t-45 82t-25 88t-7 81.5zM1524 326q0 -71 21 -118.5t59 -47.5t58.5 48t20.5 120t-21 119t-60 47q-37 0 -57.5 -48.5 t-20.5 -119.5z" />
<glyph unicode="&#x2039;" horiz-adv-x="524" d="M72 510l381 360v-219l-140 -141l140 -139v-219z" />
<glyph unicode="&#x203a;" horiz-adv-x="524" d="M72 152v219l137 139l-137 141v219l381 -360z" />
<glyph unicode="&#x2044;" horiz-adv-x="397" d="M-254 0l657 1413h244l-663 -1413h-238z" />
<glyph unicode="&#x205f;" horiz-adv-x="535" />
<glyph unicode="&#x20ac;" horiz-adv-x="1112" d="M-2 494l59 127h115q-4 58 -4 90v49h-154l64 131h102q18 118 59 216t103.5 172t151.5 115.5t196 41.5q184 0 311 -121l-79 -217q-60 125 -226 125q-128 0 -203.5 -88t-101.5 -244h481l-47 -133l-446 2v-37q0 -36 4 -102h405l-43 -127h-342q33 -137 106.5 -217t188.5 -80 q69 0 121 28t101 94l153 -153q-148 -186 -381 -186q-202 0 -332.5 141.5t-173.5 372.5h-188z" />
<glyph unicode="&#x2122;" horiz-adv-x="1269" d="M12 1282v131h463v-131h-156v-457h-151v457h-156zM551 825v588h213l106 -426l103 426h213v-588h-144v410l-102 -410h-139l-109 408v-408h-141z" />
<glyph unicode="&#x2126;" horiz-adv-x="1251" d="M49 0v211h215q-100 69 -155.5 206.5t-55.5 315.5q0 318 151.5 496t420.5 178q270 0 421.5 -181t151.5 -503q0 -173 -54 -310.5t-149 -209.5h207v-203h-469v199q118 28 184 158.5t66 336.5q0 236 -94.5 369t-263.5 133q-167 0 -262 -132.5t-95 -367.5q0 -192 65.5 -323 t182.5 -174v-199h-467z" />
<glyph unicode="&#x2202;" horiz-adv-x="1026" d="M59 467q0 162 58 298.5t160.5 216t226.5 79.5q195 0 256 -166q-15 304 -176 344q-37 11 -75.5 13.5t-85 -21t-85.5 -72.5l-55 127q40 69 106.5 106.5t149.5 37.5q107 0 187 -47.5t128 -136.5t71 -206t23 -264q0 -233 -55 -409t-168.5 -277.5t-273.5 -101.5 q-185 0 -288.5 129.5t-103.5 349.5zM285 451q0 -114 43 -180t121 -66q113 0 187.5 121t74.5 292q0 120 -41 183t-117 63q-78 0 -140.5 -61t-95 -154.5t-32.5 -197.5z" />
<glyph unicode="&#x2206;" horiz-adv-x="1040" d="M8 0l510 1501l514 -1501h-1024zM313 213h414l-209 721z" />
<glyph unicode="&#x220f;" horiz-adv-x="1124" d="M125 1202v211h874v-211h-65v-1202h-209v1202h-326v-1202h-209v1202h-65z" />
<glyph unicode="&#x2211;" horiz-adv-x="1034" d="M63 0v111l449 596l-449 598v108h908v-211h-545l379 -495l-379 -494h545v-213h-908z" />
<glyph unicode="&#x221a;" horiz-adv-x="1003" d="M47 537v213h285l100 -453l334 1130l199 -69l-547 -1608l-240 787h-131z" />
<glyph unicode="&#x221e;" horiz-adv-x="1497" d="M53 633q0 147 92 241.5t230 94.5q181 0 373 -195q192 195 374 195q139 0 230.5 -94.5t91.5 -241.5t-91.5 -240.5t-230.5 -93.5q-184 0 -374 193q-190 -193 -373 -193q-138 0 -230 94t-92 240zM244 633q0 -67 42 -106.5t103 -39.5q92 0 232 146q-139 145 -232 145 q-61 0 -103 -38.5t-42 -106.5zM877 633q140 -146 231 -146q62 0 103.5 39.5t41.5 106.5q0 68 -41 106.5t-104 38.5q-92 0 -231 -145z" />
<glyph unicode="&#x222b;" horiz-adv-x="706" d="M14 -246q129 0 176.5 59.5t47.5 213.5v1106q0 138 75 226.5t189 88.5q103 0 209 -100l-125 -166q-19 34 -41 48t-41 9q-58 -7 -58 -115v-1110q0 -225 -119 -348t-313 -123v211z" />
<glyph unicode="&#x2248;" horiz-adv-x="999" d="M51 137q0 160 64.5 250t185.5 90q51 0 95.5 -16t75.5 -38.5t59 -45.5t59.5 -39t64.5 -16q99 0 99 153h186q0 -169 -68 -259.5t-194 -90.5q-46 0 -88.5 16.5t-73.5 39.5t-60 46t-62 39.5t-66 16.5q-43 0 -69.5 -35.5t-25.5 -110.5h-182zM51 616q0 160 64.5 250t185.5 90 q51 0 95.5 -16t75.5 -39t59 -45.5t59.5 -38.5t64.5 -16q99 0 99 153h186q0 -169 -68 -259.5t-194 -90.5q-46 0 -88.5 16.5t-73.5 39.5t-60 46t-62 39.5t-66 16.5q-43 0 -69.5 -35.5t-25.5 -110.5h-182z" />
<glyph unicode="&#x2260;" horiz-adv-x="1249" d="M102 371v217h351l116 211h-467v215h588l221 399h211l-219 -399h230v-215h-349l-114 -211h463v-217h-584l-203 -371h-219l205 371h-230z" />
<glyph unicode="&#x2264;" horiz-adv-x="1306" d="M96 838l1039 546v-231l-611 -315l611 -312v-235zM98 0v193h1037v-193h-1037z" />
<glyph unicode="&#x2265;" horiz-adv-x="1296" d="M162 0v193h1036v-193h-1036zM162 291v235l610 312l-610 315v231l1038 -546z" />
<glyph unicode="&#x25ca;" horiz-adv-x="972" d="M72 717l323 717h189l317 -717l-317 -717h-189zM315 717l170 -481l172 481l-172 481z" />
<glyph unicode="&#x25fc;" horiz-adv-x="1044" d="M0 0v1044h1044v-1044h-1044z" />
<glyph unicode="&#xfb00;" horiz-adv-x="1155" d="M29 874v175h135v69q0 136 67 215.5t193 79.5h164v-188h-74q-46 0 -70 -32t-24 -85v-59h280v69q0 135 67.5 215t193.5 80h163v-188h-73q-46 0 -70.5 -32t-24.5 -85v-59h168v-175h-168v-874h-258v874h-278v-874h-258v874h-133z" />
<glyph unicode="&#xfb03;" horiz-adv-x="1634" d="M29 874v175h135v69q0 136 67 215.5t193 79.5h164v-188h-74q-46 0 -70 -32t-24 -85v-59h295v96q0 124 65.5 196t184.5 72h145v-192h-66q-37 0 -55 -25.5t-18 -67.5v-79h553v-1049h-258v877h-295v-877h-258v877h-125v-3h-168v-874h-258v874h-133zM1268 1192v221h256v-221 h-256z" />
<glyph unicode="&#xfb04;" horiz-adv-x="1622" d="M29 874v175h135v69q0 136 67 215.5t193 79.5h164v-188h-74q-46 0 -70 -32t-24 -85v-59h285v96q0 125 65.5 196.5t185.5 71.5h168v-192h-82q-81 0 -81 -93v-79h163v-172h-163v-877h-259v877h-114v-3h-168v-874h-258v874h-133zM1251 0v1413h258v-1413h-258z" />
<glyph horiz-adv-x="483" d="M113 0v1049h258v-1049h-258zM152 1194v219h184v-219h-184z" />
<glyph horiz-adv-x="1196" d="M29 877v172h153v96q0 125 66 196.5t186 71.5h148v-188h-68q-39 0 -57.5 -25t-18.5 -65v-86h262v364h256v-364h195v-175h-195v-542q0 -72 20.5 -100.5t70.5 -28.5h98v-203h-209q-236 0 -236 270v604h-114v3h-148v-877h-258v877h-151z" />
<glyph horiz-adv-x="1177" d="M35 874v175h115v364h256v-364h276v364h256v-364h195v-175h-195v-542q0 -72 20 -100.5t70 -28.5h98v-203h-208q-236 0 -236 270v604h-276v-542q0 -72 20 -100.5t70 -28.5h98v-203h-209q-235 0 -235 270v604h-115z" />
<glyph horiz-adv-x="1585" d="M88 1096q0 43 7.5 86t28 90t51.5 82.5t82.5 58.5t115.5 23q59 0 107.5 -20.5t81 -54.5t55 -79t32.5 -91.5t10 -94.5q0 -60 -16.5 -117.5t-48.5 -107t-88 -79.5t-127 -30q-65 0 -117.5 23.5t-84 59t-52.5 82t-29 88t-8 81.5zM274 1096q0 -64 27.5 -107t73.5 -43 q41 0 67.5 44.5t26.5 107.5q0 67 -27 110t-69 43q-45 0 -72 -44t-27 -111zM293 2l756 1411h229l-758 -1411h-227zM926 328q0 43 7.5 86.5t28 91.5t51 84.5t82 60t115.5 23.5q73 0 130 -31.5t90 -83.5t50 -111t17 -120q0 -60 -16.5 -118t-48.5 -108.5t-88 -81t-127 -30.5 q-66 0 -118 23t-83.5 58.5t-52.5 82t-29 89.5t-8 85zM1112 328q0 -66 27 -110t75 -44q39 0 66 46t27 110q0 68 -27 112.5t-70 44.5q-44 0 -71 -44.5t-27 -114.5z" />
<glyph horiz-adv-x="120" d="M78 1147l217 268h139l-115 -268h-241z" />
<glyph horiz-adv-x="688" d="M31 420v192h624v-192h-624z" />
<glyph horiz-adv-x="1865" d="M160 713q0 158 61 301t165 247t247 165t301 61t301 -61t247 -165t165 -247t61 -301t-61 -301t-165 -247t-247 -165t-301 -61t-301 61t-247 165t-165 247t-61 301zM231 713q0 -191 94 -353t256 -256t353 -94q143 0 273 55.5t224 149.5t149.5 224.5t55.5 273.5t-55.5 273 t-149.5 224t-224 149.5t-273 55.5t-273.5 -55.5t-224.5 -149.5t-149.5 -224t-55.5 -273zM496 444v537q0 15 10 26t24 11q15 0 26 -11t11 -26v-537q0 -15 -11 -24.5t-26 -9.5q-14 0 -24 9.5t-10 24.5zM631 713q0 15 10 25t25 10h133q15 0 26 -10t11 -25t-11 -25t-26 -10h-133 q-15 0 -25 10t-10 25zM899 444v537q0 15 10 26t25 11t25 -11t10 -26v-537q0 -15 -10 -24.5t-25 -9.5t-25 9.5t-10 24.5zM1034 713q0 16 8 24l271 269q9 12 22 12t25 -12t12 -25q0 -15 -10 -25l-244 -243l244 -244q10 -10 10 -25q0 -13 -11.5 -23.5t-25.5 -10.5q-15 0 -22 10 l-271 268q-8 11 -8 25z" />
</font>
</defs>
</svg>
