<?xml version="1.0" standalone="no"?>
<!DOCTYPE svg PUBLIC "-//W3C//DTD SVG 1.1//EN" "http://www.w3.org/Graphics/SVG/1.1/DTD/svg11.dtd" >
<svg xmlns="http://www.w3.org/2000/svg">
<metadata></metadata>
<defs>
<font id="radnikabold" horiz-adv-x="0" >
<font-face units-per-em="2048" ascent="1638" descent="-410" />
<missing-glyph horiz-adv-x="468" />
<glyph unicode="&#x3c;&#x2d;" horiz-adv-x="2457" d="M135 639l1075 596v-250l-442 -223h1554v-254h-1554l442 -225v-250z" />
<glyph unicode="&#x2d;&#x3e;" horiz-adv-x="2457" d="M135 508v254h1555l-443 223v250l1075 -596l-1075 -606v250l443 225h-1555z" />
<glyph unicode="fi" horiz-adv-x="1288" d="M33 854v195h190v88q0 125 84 200.5t228 75.5h165v-217h-100q-78 0 -78 -80v-67h633v-1049h-301v854h-332v-854h-301v854h-188zM854 1182v231h303v-231h-303z" />
<glyph unicode="fl" horiz-adv-x="1316" d="M33 854v195h190v88q0 125 84 200.5t228 75.5h198v-217h-133q-78 0 -78 -80v-67h211v-195h-211v-854h-301v854h-188zM883 0v1413h299v-1413h-299z" />
<glyph unicode=" "  horiz-adv-x="468" />
<glyph unicode="&#x09;" horiz-adv-x="468" />
<glyph unicode="&#xa0;" horiz-adv-x="468" />
<glyph unicode="!" horiz-adv-x="598" d="M147 0v303h306v-303h-306zM160 1413h280l-28 -960h-224z" />
<glyph unicode="&#x22;" horiz-adv-x="882" d="M109 836v577h243v-577h-243zM522 836v577h252v-577h-252z" />
<glyph unicode="#" horiz-adv-x="1327" d="M72 406v192h247l48 236h-215v188h254l81 391h201l-80 -377h240l80 377h198l-77 -387h206v-192h-245l-47 -236h215v-188h-254l-84 -410h-203l84 397h-240l-82 -397h-202l82 406h-207zM520 598h240l47 236h-240z" />
<glyph unicode="$" horiz-adv-x="1173" d="M39 330l221 170q69 -125 161 -188.5t195 -63.5q91 0 146 45.5t55 118.5q0 29 -8.5 53t-29 43.5t-41.5 34.5t-59 30t-68 25.5t-81 26.5q-52 16 -86 28t-82 32.5t-79.5 41t-66.5 52t-55.5 67t-34 84t-13.5 104.5q0 160 99 261t265 128v156h207v-152q220 -25 389 -208 l-176 -191q-130 160 -313 160q-76 0 -121 -30t-45 -85q0 -27 12.5 -49.5t30.5 -38.5t54 -33.5t66.5 -29t84.5 -29.5q56 -18 90.5 -30t88 -35.5t87 -46t73 -58t62 -75t38 -94.5t15.5 -118q0 -190 -119 -309.5t-317 -138.5v-148h-207v158q-137 28 -249 112t-189 220z" />
<glyph unicode="%" horiz-adv-x="1609" d="M86 1087q0 43 8 87t29 92t53 85t85.5 61t121.5 24q77 0 137 -32.5t94.5 -85t52 -111.5t17.5 -120t-17 -118.5t-51 -108t-92.5 -81.5t-134.5 -31q-69 0 -123.5 24t-87 60.5t-54.5 84t-30 89.5t-8 81zM289 0l758 1413h260l-758 -1413h-260zM299 1087q0 -57 24 -91.5 t62 -34.5q33 0 57.5 36.5t24.5 92.5q0 61 -24.5 98t-59.5 37q-37 0 -60.5 -37t-23.5 -101zM926 332q0 43 8 87.5t29.5 94t54 87.5t86 62.5t121.5 24.5q62 0 113.5 -22t85 -58t57 -83.5t33.5 -95.5t10 -97q0 -61 -17 -119.5t-50.5 -110.5t-92 -84t-133.5 -32q-69 0 -123.5 24 t-87.5 60.5t-55 84.5t-30.5 91.5t-8.5 85.5zM1139 332q0 -61 25 -99t65 -38q30 0 54 40t24 99q0 62 -24 100.5t-58 38.5q-36 0 -61 -38.5t-25 -102.5z" />
<glyph unicode="&#x26;" horiz-adv-x="1439" d="M59 377q0 149 93 250t237 137q-182 125 -182 311q0 91 37 162t98.5 112.5t133.5 62t151 20.5q81 0 154 -21.5t132 -64t94 -112t35 -157.5q0 -109 -61 -191.5t-217 -174.5l194 -195l267 373l202 -150l-292 -399l338 -340h-386l-135 139q-149 -166 -399 -166 q-98 0 -185.5 25.5t-157 74.5t-110.5 127.5t-41 176.5zM365 397q0 -85 58.5 -134.5t141.5 -49.5q118 0 207 113l-254 264q-153 -60 -153 -193zM494 1059q0 -47 26.5 -89t81.5 -96q94 52 129 94t35 93q0 56 -37.5 94.5t-97.5 38.5q-59 0 -98 -39t-39 -96z" />
<glyph unicode="'" horiz-adv-x="460" d="M109 864v578h243v-578h-243z" />
<glyph unicode="(" horiz-adv-x="657" d="M96 602q0 253 68 495.5t186 393.5h285q-135 -185 -207 -413.5t-72 -475.5q0 -520 281 -899h-285q-114 139 -185 392t-71 507z" />
<glyph unicode=")" horiz-adv-x="657" d="M18 -297q281 379 281 899q0 247 -72 475.5t-207 413.5h285q118 -151 186 -393.5t68 -495.5q0 -254 -71 -507t-185 -392h-285z" />
<glyph unicode="*" horiz-adv-x="655" d="M45 1051l184 77l-184 78l78 131l158 -123l-25 199h147l-26 -199l160 123l75 -131l-184 -78l184 -77l-75 -129l-160 120l26 -198h-147l25 198l-158 -120z" />
<glyph unicode="+" horiz-adv-x="1316" d="M145 401v234h398v401h231v-401h397v-234h-397v-401h-231v401h-398z" />
<glyph unicode="," horiz-adv-x="557" d="M78 -348l141 348h-123v324h363v-324h-8l-220 -348h-153z" />
<glyph unicode="-" horiz-adv-x="1112" d="M162 401v234h788v-234h-788z" />
<glyph unicode="." horiz-adv-x="559" d="M102 0v324h363v-324h-363z" />
<glyph unicode="/" horiz-adv-x="1073" d="M82 -156l641 1567h268l-639 -1567h-270z" />
<glyph unicode="0" horiz-adv-x="1210" d="M53 707q0 150 33 279.5t97.5 231t170.5 160t242 58.5t244 -56.5t176.5 -156t104.5 -231.5t36 -287q0 -154 -35 -285t-102 -229.5t-172.5 -154.5t-237.5 -56q-113 0 -205.5 38.5t-157 105.5t-109 159.5t-65 198.5t-20.5 225zM358 707q0 -96 13 -175.5t41 -143.5t77 -100 t115 -36q63 0 110 36.5t73.5 101t39.5 144.5t13 175t-13 173.5t-41 142t-76.5 99t-113.5 35.5q-64 0 -111 -35.5t-74 -99t-40 -142.5t-13 -175z" />
<glyph unicode="1" horiz-adv-x="899" d="M55 928v284l330 201h297v-1413h-305v1135z" />
<glyph unicode="2" horiz-adv-x="1230" d="M115 0v221q0 105 38.5 187.5t100 133.5t135.5 92t148 73.5t135.5 66.5t100 82.5t38.5 110.5q0 92 -49.5 147t-134.5 55q-98 0 -153.5 -71.5t-55.5 -200.5l-301 37q11 227 143.5 362.5t368.5 135.5q226 0 357.5 -123t131.5 -324q0 -83 -23 -152t-62 -117t-90 -88 t-107 -69.5t-113 -55.5t-109 -51t-92.5 -51.5t-66.5 -62t-29 -78.5h709v-260h-1020z" />
<glyph unicode="3" horiz-adv-x="1142" d="M53 471l295 14q0 -110 64 -174.5t166 -64.5q91 0 153 50.5t62 141.5t-61 137t-163 46h-65v243h65q73 0 113.5 39t40.5 107q0 72 -47.5 113.5t-122.5 41.5q-85 0 -134.5 -53t-51.5 -139l-291 16q0 139 64.5 241.5t170 153t236.5 50.5q126 0 232.5 -46.5t173.5 -139 t67 -214.5q0 -108 -51 -177.5t-131 -96.5v-8q51 -10 94.5 -34t79.5 -63.5t56.5 -98.5t21.5 -132q0 -105 -43.5 -191.5t-116.5 -140.5t-164.5 -83t-192.5 -29q-104 0 -196 30.5t-165 89t-116 154.5t-43 217z" />
<glyph unicode="4" horiz-adv-x="1185" d="M55 307v244l570 862h307v-858h168v-248h-168v-307h-301v307h-576zM299 555h332v510z" />
<glyph unicode="5" horiz-adv-x="1206" d="M66 385l288 86q30 -94 94.5 -150.5t149.5 -56.5q99 0 162 66.5t63 171.5q0 103 -65.5 167t-165.5 64q-63 0 -117.5 -31.5t-87.5 -85.5l-289 66l135 731h842v-260h-633l-53 -291l8 -2q58 52 136.5 81.5t160.5 29.5q192 0 318.5 -131t126.5 -338q0 -150 -71.5 -270 t-194.5 -186t-273 -66q-189 0 -335 112.5t-199 292.5z" />
<glyph unicode="6" horiz-adv-x="1148" d="M53 643q0 70 5 136.5t21 148t41 150.5t69.5 136.5t102 114.5t142 76t187.5 29q324 0 466 -287l-225 -123q-43 86 -100 125t-141 39q-75 0 -132.5 -33.5t-90 -91t-48.5 -126t-16 -146.5q109 133 307 133q199 0 327 -122.5t128 -332.5q0 -216 -145 -352.5t-359 -136.5 q-116 0 -213 41t-170.5 121t-114.5 208t-41 293zM383 465q0 -96 59 -159.5t152 -63.5q95 0 157 63t62 158q0 97 -62 159t-157 62q-94 0 -152.5 -61t-58.5 -158z" />
<glyph unicode="7" horiz-adv-x="983" d="M57 1151v262h893v-291q-75 -70 -135.5 -147t-102 -149.5t-72.5 -158t-49 -159t-30.5 -167t-17.5 -167.5t-8 -174h-328q6 144 32 286.5t76 295.5t137.5 299.5t204.5 263.5v6h-600z" />
<glyph unicode="8" horiz-adv-x="1177" d="M53 397q0 132 76 233.5t207 129.5v6q-92 28 -151.5 109.5t-59.5 181.5q0 163 130.5 270t332.5 107q203 0 334 -107t131 -270q0 -101 -59.5 -183t-151.5 -108v-6q131 -30 206.5 -131t75.5 -232q0 -191 -148.5 -304t-385.5 -113q-238 0 -387.5 113t-149.5 304zM356 440 q0 -92 65.5 -151.5t166.5 -59.5t166 59.5t65 151.5q0 89 -65 147t-166 58t-166.5 -58t-65.5 -147zM408 1034q0 -74 52 -124t130 -50t130 50t52 124t-52 123t-130 49t-130 -49t-52 -123z" />
<glyph unicode="9" horiz-adv-x="1148" d="M53 944q0 216 145 353t359 137q116 0 213 -41t170.5 -121t114.5 -208.5t41 -293.5q0 -70 -5 -136.5t-21 -147.5t-41 -150t-69.5 -136.5t-102 -114.5t-142 -76t-187.5 -29q-326 0 -467 286l226 123q43 -86 100 -125t141 -39q75 0 132.5 33.5t90 91.5t48.5 126.5t16 146.5 q-109 -134 -307 -134q-199 0 -327 122.5t-128 332.5zM336 950q0 -97 62 -159t157 -62q94 0 152.5 61t58.5 158q0 96 -59 159.5t-152 63.5q-95 0 -157 -63t-62 -158z" />
<glyph unicode=":" horiz-adv-x="546" d="M100 0v324h363v-324h-363zM102 717v323h363v-323h-363z" />
<glyph unicode=";" horiz-adv-x="571" d="M125 -348l141 348h-123v324h363v-324h-8l-219 -348h-154zM131 717v323h363v-323h-363z" />
<glyph unicode="&#x3c;" horiz-adv-x="1329" d="M86 674l1094 563v-268l-592 -295l592 -293v-270z" />
<glyph unicode="=" horiz-adv-x="1107" d="M119 166v248h868v-248h-868zM119 623v247h868v-247h-868z" />
<glyph unicode="&#x3e;" horiz-adv-x="1374" d="M180 111v270l592 293l-592 295v268l1094 -563z" />
<glyph unicode="?" horiz-adv-x="966" d="M51 1008q1 82 27 156.5t75.5 136t131.5 97.5t186 36q84 0 158.5 -23t135.5 -68t96.5 -122t35.5 -177q0 -72 -16.5 -125.5t-43 -84.5t-58 -54t-63.5 -42.5t-58.5 -42t-43 -59.5t-16.5 -89v-98h-242v100q0 72 16.5 126t42.5 85.5t57.5 55.5t63.5 43.5t58 41.5t42.5 56.5 t16.5 82.5q0 69 -45 110.5t-121 41.5q-91 0 -139.5 -54t-48.5 -130h-248zM330 0v303h295v-303h-295z" />
<glyph unicode="@" horiz-adv-x="1886" d="M59 508q0 197 67.5 369.5t184 294t278 191t343.5 69.5q184 0 350.5 -71.5t285.5 -192t189 -285t70 -344.5q0 -89 -16.5 -176t-53 -170t-89 -146t-130.5 -101t-172 -38q-125 0 -199.5 70t-68.5 215q-107 -166 -297 -166q-106 0 -182 53.5t-112 142.5t-36 205 q0 154 62 292.5t171 224t236 85.5q90 0 159.5 -44.5t88.5 -133.5l29 135h217l-148 -702q-36 -171 100 -174q95 0 163.5 109t68.5 302t-93 354.5t-250 253t-341 91.5q-183 0 -335.5 -89.5t-242.5 -251.5t-90 -364q0 -109 27.5 -210t83 -187t133.5 -150t185.5 -100.5 t232.5 -36.5q75 0 164 21l61 -197q-112 -31 -219 -31q-185 0 -346 64t-278 178t-184 280t-67 361zM680 459q0 -100 44.5 -155.5t123.5 -55.5q81 0 146.5 56t98.5 139.5t33 174.5q0 99 -44 152t-124 53q-61 0 -114.5 -32t-88.5 -84t-55 -117t-20 -131z" />
<glyph unicode="A" horiz-adv-x="1386" d="M-2 0l491 1413h406l494 -1413h-334l-99 315h-522l-100 -315h-336zM512 563h367l-179 572h-8z" />
<glyph unicode="B" horiz-adv-x="1353" d="M150 0v1413h620q218 0 336.5 -101t118.5 -284q0 -104 -55 -179.5t-136 -105.5v-8q118 -21 189 -109.5t71 -222.5q0 -191 -123.5 -297t-343.5 -106h-677zM461 266h336q97 0 145.5 45.5t48.5 126.5q0 74 -53.5 118t-140.5 44h-336v-334zM461 842h305q73 0 123.5 45 t50.5 117t-45 111.5t-123 39.5h-311v-313z" />
<glyph unicode="C" horiz-adv-x="1339" d="M59 707q0 117 22.5 221.5t72 198.5t123 162t182 107.5t241.5 39.5q220 0 371 -106.5t223 -315.5l-288 -111q-27 128 -109.5 195t-198.5 67q-157 0 -247.5 -119t-90.5 -331q0 -215 92 -340t242 -125q112 0 195 69.5t121 198.5l286 -115q-69 -208 -221.5 -315.5 t-376.5 -107.5q-132 0 -240 39.5t-181 107t-123 161t-72.5 198.5t-22.5 221z" />
<glyph unicode="D" horiz-adv-x="1392" d="M150 0v1413h434q367 0 558 -185.5t191 -522.5q0 -340 -192 -522.5t-559 -182.5h-432zM461 274h96q469 0 469 435q0 211 -111 320.5t-335 109.5h-119v-865z" />
<glyph unicode="E" horiz-adv-x="1200" d="M150 0v1413h958v-262h-647v-311h586v-262h-586v-314h647v-264h-958z" />
<glyph unicode="F" horiz-adv-x="1175" d="M150 0v1413h987v-262h-676v-311h588v-262h-588v-578h-311z" />
<glyph unicode="G" horiz-adv-x="1486" d="M59 713q0 150 45 280.5t130 229.5t218 156t298 57q224 0 378.5 -110t214.5 -286l-268 -84q-90 220 -334 220q-79 0 -142.5 -24.5t-106 -67.5t-71.5 -102.5t-41.5 -127t-12.5 -143.5q0 -98 21.5 -179t64.5 -145.5t117 -100.5t171 -36q157 0 246.5 86t89.5 207h-303v248 h586v-791h-244l-10 178q-63 -95 -177.5 -146.5t-248.5 -51.5q-146 0 -265 58.5t-196 159t-118.5 232.5t-41.5 283z" />
<glyph unicode="H" horiz-adv-x="1482" d="M150 0v1413h311v-567h561v567h311v-1413h-311v569h-561v-569h-311z" />
<glyph unicode="I" horiz-adv-x="610" d="M150 0v1413h311v-1413h-311z" />
<glyph unicode="J" horiz-adv-x="788" d="M25 0v285q100 -21 157 -21q98 0 143.5 54t45.5 180v915h309v-989q0 -204 -117.5 -324t-335.5 -120q-132 0 -202 20z" />
<glyph unicode="K" horiz-adv-x="1449" d="M150 0v1413h311v-647l557 647h393l-541 -586l576 -827h-389l-391 606l-205 -221v-385h-311z" />
<glyph unicode="L" horiz-adv-x="1077" d="M150 0v1413h311v-1151h604v-262h-915z" />
<glyph unicode="M" horiz-adv-x="1910" d="M150 0v1413h450l352 -1048l353 1048h454v-1413h-309v1047h-12l-346 -1047h-279l-344 1047h-12v-1047h-307z" />
<glyph unicode="N" horiz-adv-x="1550" d="M150 0v1413h327l604 -960h11v960h309v-1413h-332l-598 956h-10v-956h-311z" />
<glyph unicode="O" horiz-adv-x="1476" d="M59 707q0 333 182.5 530t491.5 197q313 0 498.5 -197t185.5 -530t-185.5 -530t-498.5 -197q-309 0 -491.5 197t-182.5 530zM389 707q0 -211 93 -335t251 -124q163 0 260 124.5t97 334.5t-97 334t-260 124q-158 0 -251 -123.5t-93 -334.5z" />
<glyph unicode="P" horiz-adv-x="1327" d="M150 0v1413h653q227 0 356 -128t129 -343q0 -214 -128.5 -335.5t-356.5 -121.5h-344v-485h-309zM459 752h295q118 0 172.5 50t54.5 148t-55 147.5t-172 49.5h-295v-395z" />
<glyph unicode="Q" horiz-adv-x="1480" d="M59 707q0 333 182.5 530t491.5 197q313 0 498.5 -197t185.5 -530q0 -309 -162 -504l166 -164l-168 -170l-184 186q-144 -75 -336 -75q-309 0 -491.5 197t-182.5 530zM389 707q0 -211 93 -335t251 -124q64 0 125 22l-174 176l162 164l182 -182q62 112 62 279 q0 210 -97 334t-260 124q-158 0 -251 -123.5t-93 -334.5z" />
<glyph unicode="R" horiz-adv-x="1382" d="M150 -2v1415h679q207 0 339 -112.5t132 -305.5q0 -272 -260 -381l334 -616h-340l-276 571h-301v-571h-307zM459 811h352q95 3 141.5 48.5t46.5 123.5q0 80 -49.5 125t-148.5 45h-342v-342z" />
<glyph unicode="S" horiz-adv-x="1173" d="M39 330l221 170q69 -125 161 -188.5t195 -63.5q91 0 146 45.5t55 118.5q0 29 -8.5 53t-29 43.5t-41.5 34.5t-59 30t-68 25.5t-81 26.5q-52 16 -86 28t-82 32.5t-79.5 41t-66.5 52t-55.5 67t-34 84t-13.5 104.5q0 189 134 294.5t349 105.5q280 0 477 -215l-176 -191 q-130 160 -313 160q-76 0 -121 -30t-45 -85q0 -27 12.5 -49.5t30.5 -38.5t54 -33.5t66.5 -29t84.5 -29.5q56 -18 90.5 -30t88 -35.5t87 -46t73 -58t62 -75t38 -94.5t15.5 -118q0 -205 -139.5 -328.5t-364.5 -123.5q-182 0 -331 88t-246 258z" />
<glyph unicode="T" horiz-adv-x="1183" d="M14 1151v262h1155v-262h-424v-1151h-309v1151h-422z" />
<glyph unicode="U" horiz-adv-x="1421" d="M141 535v878h312v-889q0 -125 66.5 -193.5t187.5 -68.5q125 0 193.5 69t68.5 193v889h311v-868q0 -271 -144 -418t-429 -147q-281 0 -423.5 145t-142.5 410z" />
<glyph unicode="V" horiz-adv-x="1396" d="M4 1413h332l354 -1134h8l361 1134h334l-490 -1413h-405z" />
<glyph unicode="W" horiz-adv-x="1961" d="M10 1413h322l209 -1149h12l252 1149h354l250 -1149h12l209 1149h322l-293 -1413h-445l-235 1073l-231 -1073h-445z" />
<glyph unicode="X" horiz-adv-x="1386" d="M-4 0l475 707l-473 706h383l315 -495l312 495h381l-476 -706l478 -707h-381l-316 487l-315 -487h-383z" />
<glyph unicode="Y" horiz-adv-x="1404" d="M-4 1413h350l363 -579l348 579h350l-553 -862v-551h-305v551z" />
<glyph unicode="Z" horiz-adv-x="1232" d="M35 0v203l749 948h-704v262h1118v-219l-727 -932h727v-262h-1163z" />
<glyph unicode="[" horiz-adv-x="600" d="M129 -311v1810h444v-252h-192v-1302h192v-256h-444z" />
<glyph unicode="\" horiz-adv-x="1073" d="M82 1411h270l639 -1567h-268z" />
<glyph unicode="]" horiz-adv-x="600" d="M27 -55h192v1302h-192v252h444v-1810h-444v256z" />
<glyph unicode="^" horiz-adv-x="942" d="M6 510l465 903l465 -903h-293l-172 401l-172 -401h-293z" />
<glyph unicode="_" horiz-adv-x="874" d="M-6 0h889v-223h-889v223z" />
<glyph unicode="`" horiz-adv-x="614" d="M41 1364h303l227 -244h-215z" />
<glyph unicode="a" horiz-adv-x="1107" d="M63 268q0 191 197 289q22 10 48.5 20.5t49 19t58 19t56.5 16.5t65 17.5t63 16.5t71 18t70 18q-3 78 -49.5 112t-150.5 34q-91 0 -154 -30.5t-119 -100.5l-184 141q76 103 185.5 157t269.5 54q80 0 149 -12.5t128 -40t101 -68.5t65.5 -100.5t23.5 -132.5v-715h-265v117 q-70 -68 -162.5 -104t-175.5 -36q-155 0 -247.5 78.5t-92.5 212.5zM377 299q-1 -49 31 -75q29 -24 77 -23h7q146 3 249 121v184q-220 -64 -272 -90q-92 -44 -92 -117z" />
<glyph unicode="b" horiz-adv-x="1275" d="M131 0v1413h301v-502q46 70 133.5 114t194.5 44q209 0 328.5 -149t119.5 -396q0 -248 -120.5 -397.5t-331.5 -149.5q-110 0 -197.5 46.5t-130.5 119.5h-2v-143h-295zM426 526q0 -140 64.5 -219.5t171.5 -79.5q243 0 243 299q0 144 -62 217.5t-181 73.5 q-107 0 -171.5 -78.5t-64.5 -212.5z" />
<glyph unicode="c" horiz-adv-x="1097" d="M68 522q0 114 33 212t96.5 173.5t163.5 118.5t225 43q185 0 300.5 -81.5t176.5 -235.5l-248 -97q-22 87 -78.5 133t-142.5 46q-114 0 -174 -88t-60 -226q0 -134 60 -219.5t174 -85.5q86 0 142.5 46t80.5 130l238 -86q-55 -164 -169.5 -246t-297.5 -82q-126 0 -226.5 43.5 t-164 119t-96.5 173.5t-33 209z" />
<glyph unicode="d" horiz-adv-x="1275" d="M68 524q0 247 119.5 396t328.5 149q107 0 194.5 -44t133.5 -114v502h301v-1413h-295v143h-2q-43 -73 -130.5 -119.5t-197.5 -46.5q-211 0 -331.5 149.5t-120.5 397.5zM371 526q0 -299 243 -299q107 0 171.5 79.5t64.5 219.5q0 134 -64.5 212.5t-171.5 78.5 q-119 0 -181 -73.5t-62 -217.5z" />
<glyph unicode="e" horiz-adv-x="1132" d="M68 516q0 249 140 401t367 152q214 0 350 -136.5t136 -357.5q0 -79 -10 -120h-680q7 -117 68 -176.5t169 -59.5q81 0 140 24t112 91l191 -139q-99 -114 -205 -164.5t-242 -50.5q-154 0 -274 61.5t-191 184t-71 290.5zM371 647h395q-3 86 -51.5 140.5t-141.5 54.5 q-92 0 -143 -51.5t-59 -143.5z" />
<glyph unicode="f" horiz-adv-x="759" d="M33 854v195h194v71q0 133 85 213t247 80h174v-215h-158q-53 0 -53 -68v-81h211v-195h-211v-854h-299v854h-190z" />
<glyph unicode="g" horiz-adv-x="1271" d="M68 553q0 242 127.5 379t328.5 137q105 0 190.5 -40.5t127.5 -106.5v127h299v-983q0 -100 -30 -179.5t-79 -129.5t-116.5 -82.5t-136.5 -46t-144 -13.5q-170 0 -303.5 42.5t-229.5 149.5l138 181q68 -81 163.5 -116.5t186.5 -35.5q111 0 181.5 55t70.5 160v125 q-36 -62 -119 -102.5t-195 -40.5q-205 0 -332.5 139t-127.5 381zM371 547q0 -125 63 -203t180 -78q114 0 177 75t63 198q0 126 -63.5 207t-180.5 81q-115 0 -177 -77t-62 -203z" />
<glyph unicode="h" horiz-adv-x="1241" d="M131 0v1413h301v-495h6q51 71 136.5 111t187.5 40q170 0 265 -104.5t95 -270.5v-694h-299v641q0 88 -44.5 138t-129.5 50q-98 0 -157.5 -59t-59.5 -149v-621h-301z" />
<glyph unicode="i" horiz-adv-x="565" d="M131 0v1049h301v-1049h-301zM131 1182v231h303v-231h-303z" />
<glyph unicode="j" horiz-adv-x="569" d="M-53 -129q93 0 140.5 47t47.5 121v1010h299v-1000q0 -211 -118 -312.5t-369 -101.5v236zM129 1182v231h309v-231h-309z" />
<glyph unicode="k" horiz-adv-x="1189" d="M131 0v1413h301v-760l391 396h363l-416 -408l449 -641h-347l-294 453l-146 -144v-309h-301z" />
<glyph unicode="l" horiz-adv-x="569" d="M135 0v1413h299v-1413h-299z" />
<glyph unicode="m" horiz-adv-x="1785" d="M131 0v1049h295v-144h6q96 164 291 164q193 0 276 -178h11q57 90 128.5 134t180.5 44q166 0 256 -102.5t90 -282.5v-684h-301v643q0 168 -152 168q-83 0 -124 -55.5t-41 -149.5v-606h-302v643q0 168 -147 168q-84 0 -125 -55.5t-41 -149.5v-606h-301z" />
<glyph unicode="n" horiz-adv-x="1241" d="M131 0v1049h297v-131h10q49 68 131.5 109.5t190.5 41.5q163 0 262.5 -103t99.5 -272v-694h-299v641q0 92 -46.5 138t-131.5 46q-94 0 -153.5 -56t-59.5 -148v-621h-301z" />
<glyph unicode="o" horiz-adv-x="1202" d="M68 520q0 132 40.5 237t112.5 173t169 103.5t212 35.5t212 -35.5t168.5 -103.5t112 -173t40.5 -237q0 -172 -70 -296.5t-189.5 -185.5t-273.5 -61t-273.5 61t-190 185.5t-70.5 296.5zM365 520q0 -154 64 -226.5t173 -72.5q111 0 176.5 72.5t65.5 226.5q0 158 -65.5 232.5 t-176.5 74.5q-109 0 -173 -74.5t-64 -232.5z" />
<glyph unicode="p" horiz-adv-x="1275" d="M131 -365v1414h299v-150q39 76 128.5 123t203.5 47q201 0 323.5 -150t122.5 -395q0 -246 -124 -396.5t-326 -150.5q-119 0 -209.5 53.5t-122.5 135.5v-531h-295zM422 528q0 -144 65.5 -223.5t174.5 -79.5q114 0 178.5 76t64.5 227q0 142 -65 217.5t-178 75.5 q-108 0 -174 -79.5t-66 -213.5z" />
<glyph unicode="q" horiz-adv-x="1275" d="M68 524q0 245 122.5 395t323.5 150q114 0 203.5 -47t128.5 -123v150h299v-1414h-295v531q-32 -82 -122.5 -135.5t-209.5 -53.5q-202 0 -326 150.5t-124 396.5zM371 528q0 -151 64.5 -227t178.5 -76q109 0 174.5 79.5t65.5 223.5q0 134 -66 213.5t-174 79.5 q-113 0 -178 -75.5t-65 -217.5z" />
<glyph unicode="r" horiz-adv-x="804" d="M131 0v1049h291v-162h6q36 84 100.5 131t137.5 47q79 0 118 -16v-248q-28 3 -52 3q-32 0 -56 -5q-112 -16 -178 -102.5t-66 -235.5v-461h-301z" />
<glyph unicode="s" horiz-adv-x="1021" d="M49 156l135 186q128 -128 293 -139q17 -1 34 -1q61 0 105 18q56 22 60 75q1 19 -4 34t-21 27.5t-30 20.5t-46 17.5t-53 14.5t-65 15q-46 11 -75.5 19.5t-71 23.5t-68.5 30.5t-57 40t-47 52.5t-28.5 67t-11.5 86q0 111 57.5 185.5t150.5 107.5t216 33q247 0 414 -151 l-121 -183q-53 48 -111.5 77t-144.5 40q-27 3 -51 3q-47 0 -79 -12q-48 -18 -56 -59q-3 -13 -0.5 -24t11.5 -20.5t19 -17.5t27.5 -15.5t32.5 -13t39.5 -12t42 -11t46 -11.5t46.5 -12q57 -16 98.5 -30.5t87.5 -41t74 -59t47 -82.5t19 -112q0 -160 -114.5 -252.5t-322.5 -92.5 q-127 0 -255 47t-222 132z" />
<glyph unicode="t" horiz-adv-x="733" d="M20 854v195h146v364h299v-364h217v-195h-217v-514q0 -58 21 -82.5t71 -24.5h125v-233h-268q-118 0 -183 70t-65 196v588h-146z" />
<glyph unicode="u" horiz-adv-x="1255" d="M133 356v693h301v-617q0 -88 49 -138t135 -50q98 0 152.5 58.5t54.5 148.5v598h299v-1049h-295v131h-16q-49 -76 -132 -116t-185 -40q-172 0 -267.5 107t-95.5 274z" />
<glyph unicode="v" horiz-adv-x="1118" d="M4 1049h324l231 -793l234 793h321l-379 -1049h-352z" />
<glyph unicode="w" horiz-adv-x="1675" d="M2 1049h320l165 -801l213 801h271l213 -805l170 805h319l-276 -1049h-391l-172 668l-166 -672h-394z" />
<glyph unicode="x" horiz-adv-x="1157" d="M4 0l363 528l-363 521h365l209 -330l208 330h365l-367 -521l367 -528h-365l-208 338l-209 -338h-365z" />
<glyph unicode="y" horiz-adv-x="1052" d="M-8 1049h319l211 -703h15l213 703h321l-405 -1069q-33 -87 -70.5 -146t-83 -99t-109 -61.5t-138 -30t-181.5 -8.5v236q230 0 291 156z" />
<glyph unicode="z" horiz-adv-x="1026" d="M63 0v211l535 602h-530v236h895v-224l-510 -587h505v-238h-895z" />
<glyph unicode="{" horiz-adv-x="681" d="M68 473v250q66 0 93 20t27 76v381q0 129 90.5 219t219.5 90h137v-274h-84q-40 0 -65 -24t-25 -62v-352q0 -32 -2.5 -53t-12 -49.5t-31.5 -52.5t-57 -44q35 -20 57 -43.5t31.5 -51.5t12 -50t2.5 -54v-350q0 -38 25 -63t65 -25h84v-272h-137q-129 0 -219.5 90t-90.5 219 v379q0 56 -27.5 76t-92.5 20z" />
<glyph unicode="|" horiz-adv-x="532" d="M158 -156v1692h219v-1692h-219z" />
<glyph unicode="}" horiz-adv-x="684" d="M47 -39h84q40 0 65 25t25 63v350q0 32 2.5 54t12 50t31.5 51.5t57 43.5q-35 20 -57 44t-31.5 52.5t-12 49.5t-2.5 53v352q0 38 -25 62t-65 24h-84v274h137q129 0 219.5 -90t90.5 -219v-381q0 -56 27 -76t93 -20v-250q-65 0 -92.5 -20t-27.5 -76v-379q0 -129 -90.5 -219 t-219.5 -90h-137v272z" />
<glyph unicode="~" horiz-adv-x="1093" d="M78 365q0 178 69 274t199 96q62 0 116 -23.5t86.5 -52t74.5 -52t82 -23.5q98 0 98 149h211q0 -183 -71.5 -280t-205.5 -97q-47 0 -89.5 16t-74.5 38.5t-61.5 45t-63 38.5t-67.5 16q-40 0 -67 -33t-27 -112h-209z" />
<glyph unicode="&#xa1;" horiz-adv-x="598" d="M147 745v304h306v-304h-306zM160 -387l28 983h224l28 -983h-280z" />
<glyph unicode="&#xa2;" horiz-adv-x="1097" d="M68 522q0 201 101 348t288 187v143h219v-137q278 -35 387 -311l-248 -97q-22 87 -78.5 133t-142.5 46q-114 0 -174 -88t-60 -226q0 -134 60 -219.5t174 -85.5q86 0 142.5 46t80.5 130l238 -86q-95 -288 -379 -321v-189h-219v197q-187 40 -288 186t-101 344z" />
<glyph unicode="&#xa3;" horiz-adv-x="1294" d="M47 528v236h164v133q0 235 147.5 386t376.5 151q164 0 305 -100.5t193 -256.5l-260 -92q-23 76 -90.5 125t-147.5 49q-116 0 -183 -70.5t-67 -191.5v-133h381v-236h-381v-274h748v-254h-1022v528h-164z" />
<glyph unicode="&#xa4;" horiz-adv-x="1212" d="M68 313l108 107q-74 118 -74 260t74 260l-108 107l168 176l110 -115q119 76 260 76t260 -76l111 115l168 -176l-109 -107q74 -118 74 -260t-74 -260l109 -107l-168 -176l-111 115q-119 -76 -260 -76t-260 76l-110 -115zM342 680q0 -104 76 -186q84 -78 188 -78 q105 0 189 78q75 81 75 186t-75 186q-84 78 -189 78q-104 0 -188 -78q-76 -82 -76 -186z" />
<glyph unicode="&#xa5;" horiz-adv-x="1396" d="M-4 1413h303l397 -651l402 651h303l-473 -715h192v-196h-299v-170h299v-195h-299v-170h-246v170h-299v195h299v170h-299v200h193z" />
<glyph unicode="&#xa6;" horiz-adv-x="569" d="M158 -156v600h254v-600h-254zM158 768v645h254v-645h-254z" />
<glyph unicode="&#xa7;" horiz-adv-x="1138" d="M145 268l269 80q20 -69 67 -103t135 -34q160 0 160 98q0 39 -33 62.5t-85.5 35.5t-116.5 21.5t-128 26.5t-116.5 44.5t-85.5 82.5t-33 133q0 131 96 211q-94 72 -94 200q0 102 54 173t142 103t204 32q332 0 417 -269l-247 -61q-15 58 -56.5 85.5t-115.5 27.5 q-66 0 -106 -25t-40 -74q0 -29 20.5 -48.5t55 -30.5t79.5 -19.5t94.5 -17t99 -20.5t94.5 -34t79.5 -53t55 -82t20.5 -117q0 -120 -92 -198q92 -70 92 -189q0 -70 -22.5 -125.5t-62 -92.5t-95 -62t-118.5 -36t-136 -11q-76 0 -143.5 14t-131.5 45t-110 89t-66 138zM446 733 q4 -16 13.5 -29.5t27 -23.5t33.5 -17t43.5 -14t46 -11t52.5 -10t51 -10q30 19 40.5 47.5t-5.5 65.5q-5 16 -16 29.5t-29.5 24t-34.5 17.5t-44 14t-43.5 10.5t-48 9.5t-43.5 8q-26 -16 -39.5 -46.5t-3.5 -64.5z" />
<glyph unicode="&#xa8;" horiz-adv-x="722" d="M55 1130v234h226v-234h-226zM442 1130v234h226v-234h-226z" />
<glyph unicode="&#xa9;" horiz-adv-x="1662" d="M59 709q0 155 62 298t165.5 246.5t246.5 165.5t298 62q156 0 299 -62t247 -165.5t165.5 -246.5t61.5 -298t-61.5 -298t-165.5 -246.5t-247 -165.5t-299 -62q-155 0 -298 62t-246.5 165.5t-165.5 246.5t-62 298zM184 709q0 -130 51.5 -250t138.5 -207t207 -139t250 -52 t250.5 52t208 139t139.5 207t52 250q0 104 -33.5 202.5t-94 178.5t-140.5 140t-179 93t-203 33q-174 0 -323 -87.5t-236.5 -236.5t-87.5 -323zM393 711q0 98 28.5 183t83 150t141 102.5t194.5 37.5q159 0 258 -70.5t153 -204.5l-213 -84q-19 75 -68 115.5t-122 40.5 q-99 0 -151 -76t-52 -196q0 -115 52.5 -189t150.5 -74q74 0 122.5 40t69.5 112l205 -74q-92 -284 -403 -284q-109 0 -196 38t-141.5 103.5t-83 149.5t-28.5 180z" />
<glyph unicode="&#xaa;" horiz-adv-x="747" d="M41 887q0 129 135 198q13 6 27.5 12t32.5 12.5t31.5 11t36.5 11t35.5 10t40.5 11t38.5 10t43 11t42.5 10.5q-1 54 -33 77t-104 23q-62 0 -105 -21t-82 -69l-125 96q109 146 312 146q142 0 229.5 -60.5t87.5 -183.5v-487h-180v79q-47 -47 -110 -71.5t-120 -24.5 q-106 0 -169.5 53.5t-63.5 145.5zM256 909q0 -34 21.5 -51.5t56.5 -15.5q103 3 170 82v125q-125 -31 -187 -60q-61 -28 -61 -80z" />
<glyph unicode="&#xab;" horiz-adv-x="1132" d="M86 510l463 375v-238l-176 -137l176 -135v-236zM584 510l465 375v-238l-177 -137l177 -135v-236z" />
<glyph unicode="&#xac;" horiz-adv-x="1226" d="M119 535v262h987v-643h-289v381h-698z" />
<glyph unicode="&#xad;" horiz-adv-x="1112" d="M162 401v234h788v-234h-788z" />
<glyph unicode="&#xae;" horiz-adv-x="1294" d="M119 893q0 147 70.5 271.5t192 197t265.5 72.5t266.5 -72.5t193.5 -197t71 -271.5t-71 -271.5t-193.5 -197t-266.5 -72.5t-265.5 72.5t-192 197t-70.5 271.5zM227 893q0 -174 123.5 -299t296.5 -125q172 0 296 125.5t124 298.5t-124 299.5t-296 126.5q-113 0 -210 -58 t-153.5 -156t-56.5 -212zM463 625v540h215q91 0 141.5 -45.5t50.5 -124.5q0 -105 -98 -155l141 -215h-157l-111 194h-43v-194h-139zM596 940h82q61 0 61 55q0 56 -61 56h-82v-111z" />
<glyph unicode="&#xaf;" horiz-adv-x="702" d="M63 1178v153h576v-153h-576z" />
<glyph unicode="&#xb0;" horiz-adv-x="800" d="M59 1100q0 146 95.5 240t246.5 94q149 0 244.5 -94t95.5 -240q0 -148 -95.5 -242t-244.5 -94q-151 0 -246.5 94t-95.5 242zM258 1100q0 -61 40 -100t103 -39q62 0 102 39t40 100q0 58 -40 96.5t-102 38.5q-63 0 -103 -38t-40 -97z" />
<glyph unicode="&#xb1;" horiz-adv-x="1376" d="M119 725v225h456v406h224v-406h456v-225h-456v-406h-224v406h-456zM121 -2v223h1134v-223h-1134z" />
<glyph unicode="&#xb4;" horiz-adv-x="614" d="M47 1120l229 244h302l-324 -244h-207z" />
<glyph unicode="&#xb5;" horiz-adv-x="1181" d="M125 -266v1265h266v-561q0 -94 46.5 -152.5t131.5 -58.5q94 0 154.5 60.5t60.5 158.5v553h267v-999h-267v115q-51 -63 -119.5 -100.5t-138.5 -37.5q-59 0 -141 19l-16 -262h-244z" />
<glyph unicode="&#xb6;" horiz-adv-x="1198" d="M76 1018q0 120 65 212t166.5 137.5t220.5 45.5h177v-1700h-177v910q-119 0 -220.5 45.5t-166.5 137.5t-65 212zM885 -287v1700h178v-1700h-178z" />
<glyph unicode="&#xb7;" horiz-adv-x="512" d="M94 784q0 71 47 117.5t119 46.5q64 0 110 -46.5t46 -117.5q0 -65 -45 -111t-111 -46q-72 0 -119 45.5t-47 111.5z" />
<glyph unicode="&#xb8;" horiz-adv-x="546" d="M49 -356l139 65q7 -30 30.5 -46.5t53.5 -16.5q33 0 54.5 18t21.5 47q0 26 -17.5 47.5t-51.5 30.5l-160 45l94 166h201l-80 -115l28 -8q61 -17 101.5 -61.5t40.5 -118.5q0 -98 -63.5 -147.5t-155.5 -49.5q-84 0 -147 40t-89 104z" />
<glyph unicode="&#xba;" horiz-adv-x="817" d="M47 1061q0 177 100.5 274t260.5 97q161 0 260.5 -96.5t99.5 -274.5q0 -174 -100 -269.5t-260 -95.5q-159 0 -260 96t-101 269zM248 1061q0 -102 43.5 -151.5t116.5 -49.5q75 0 119 49.5t44 151.5q0 107 -44 158t-119 51q-73 0 -116.5 -51t-43.5 -158z" />
<glyph unicode="&#xbb;" horiz-adv-x="1148" d="M98 139v242l176 129l-176 131v244l465 -375zM598 139v242l176 129l-176 131v244l463 -375z" />
<glyph unicode="&#xbf;" horiz-adv-x="989" d="M111 4q0 72 16.5 125.5t43 84.5t58 54.5t63.5 43t58.5 42t43 59.5t16.5 89v98h241v-100q0 -72 -16.5 -126t-42.5 -85.5t-57.5 -56t-63.5 -44t-58 -41.5t-42.5 -56.5t-16.5 -82.5q0 -69 45 -110t121 -41q91 0 140 54.5t49 129.5h247q-1 -65 -16.5 -126t-49.5 -116 t-82 -95.5t-118 -64.5t-153 -24q-84 0 -158.5 22.5t-135.5 68t-96.5 122t-35.5 176.5zM383 745v304h295v-304h-295z" />
<glyph unicode="&#xc0;" horiz-adv-x="1386" d="M-2 0l491 1413h406l494 -1413h-334l-99 315h-522l-100 -315h-336zM270 1776h303l228 -244h-215zM512 563h367l-179 572h-8z" />
<glyph unicode="&#xc1;" horiz-adv-x="1386" d="M-2 0l491 1413h406l494 -1413h-334l-99 315h-522l-100 -315h-336zM512 563h367l-179 572h-8zM590 1532l229 244h301l-323 -244h-207z" />
<glyph unicode="&#xc2;" horiz-adv-x="1386" d="M-2 0l491 1413h406l494 -1413h-334l-99 315h-522l-100 -315h-336zM369 1513l243 263h162l248 -263h-227l-101 132l-102 -132h-223zM512 563h367l-179 572h-8z" />
<glyph unicode="&#xc3;" horiz-adv-x="1386" d="M-2 0l491 1413h406l494 -1413h-334l-99 315h-522l-100 -315h-336zM315 1507q0 273 217 273q46 0 84.5 -12.5t64 -30t47.5 -34.5t47 -29.5t52 -12.5q78 0 78 115h170q0 -137 -57.5 -205t-161.5 -68q-44 0 -82 12.5t-64 30.5t-49 36.5t-47.5 31t-50.5 12.5q-71 0 -74 -119 h-174zM512 563h367l-179 572h-8z" />
<glyph unicode="&#xc4;" horiz-adv-x="1386" d="M-2 0l491 1413h406l494 -1413h-334l-99 315h-522l-100 -315h-336zM387 1542v234h225v-234h-225zM512 563h367l-179 572h-8zM774 1542v234h225v-234h-225z" />
<glyph unicode="&#xc5;" horiz-adv-x="1386" d="M-2 0l463 1333q-60 79 -60 180q0 120 85.5 203.5t205.5 83.5t204.5 -83.5t84.5 -203.5q0 -100 -59 -178l467 -1335h-334l-99 315h-522l-100 -315h-336zM512 563h367l-179 572h-8zM584 1511q0 -72 59 -98h94q30 14 48 40t18 58q0 44 -32.5 76.5t-78.5 32.5 q-51 0 -79.5 -29t-28.5 -80z" />
<glyph unicode="&#xc6;" horiz-adv-x="1957" d="M-2 0l577 1413h1291v-276h-680v-291h590v-277h-590v-295h680v-274h-975v295h-451l-114 -295h-328zM537 543h354v641h-107z" />
<glyph unicode="&#xc7;" horiz-adv-x="1339" d="M59 707q0 117 22.5 221.5t72 198.5t123 162t182 107.5t241.5 39.5q220 0 371 -106.5t223 -315.5l-288 -111q-27 128 -109.5 195t-198.5 67q-157 0 -247.5 -119t-90.5 -331q0 -215 92 -340t242 -125q112 0 195 69.5t121 198.5l286 -115q-120 -366 -491 -417l-70 -101 l29 -8q61 -17 101 -61.5t40 -118.5q0 -98 -63.5 -147.5t-155.5 -49.5q-84 0 -146.5 40t-88.5 104l139 65q7 -30 30.5 -46.5t53.5 -16.5q33 0 54.5 18t21.5 47q0 26 -18 47.5t-52 30.5l-160 45l86 152q-140 16 -247 81t-171.5 164.5t-96.5 219.5t-32 256z" />
<glyph unicode="&#xc8;" horiz-adv-x="1200" d="M150 0v1413h958v-262h-647v-311h586v-262h-586v-314h647v-264h-958zM207 1776h303l227 -244h-215z" />
<glyph unicode="&#xc9;" horiz-adv-x="1200" d="M150 0v1413h958v-262h-647v-311h586v-262h-586v-314h647v-264h-958zM526 1532l230 244h301l-324 -244h-207z" />
<glyph unicode="&#xca;" horiz-adv-x="1200" d="M150 0v1413h958v-262h-647v-311h586v-262h-586v-314h647v-264h-958zM305 1513l244 263h162l247 -263h-227l-100 132l-103 -132h-223z" />
<glyph unicode="&#xcb;" horiz-adv-x="1200" d="M150 0v1413h958v-262h-647v-311h586v-262h-586v-314h647v-264h-958zM324 1542v234h225v-234h-225zM711 1542v234h225v-234h-225z" />
<glyph unicode="&#xcc;" horiz-adv-x="610" d="M-123 1776h303l228 -244h-215zM150 0v1413h311v-1413h-311z" />
<glyph unicode="&#xcd;" horiz-adv-x="610" d="M150 0v1413h311v-1413h-311zM197 1532l229 244h301l-324 -244h-206z" />
<glyph unicode="&#xce;" horiz-adv-x="610" d="M-25 1513l244 263h162l248 -263h-228l-100 132l-102 -132h-224zM150 0v1413h311v-1413h-311z" />
<glyph unicode="&#xcf;" horiz-adv-x="610" d="M-6 1542v234h225v-234h-225zM150 0v1413h311v-1413h-311zM381 1542v234h225v-234h-225z" />
<glyph unicode="&#xd0;" horiz-adv-x="1384" d="M29 614v197h110v602h434q367 0 558.5 -186t191.5 -522q0 -340 -192.5 -522.5t-559.5 -182.5h-432v614h-110zM451 274h96q469 0 469 435q0 211 -111.5 320.5t-335.5 109.5h-118v-328h317v-197h-317v-340z" />
<glyph unicode="&#xd1;" horiz-adv-x="1550" d="M150 0v1413h327l604 -960h11v960h309v-1413h-332l-598 956h-10v-956h-311zM393 1507q0 273 217 273q46 0 84.5 -12.5t64 -30t47.5 -34.5t47 -29.5t52 -12.5q78 0 78 115h170q0 -137 -57.5 -205t-161.5 -68q-44 0 -82 12.5t-64 30.5t-49 36.5t-47.5 31t-50.5 12.5 q-71 0 -74 -119h-174z" />
<glyph unicode="&#xd2;" horiz-adv-x="1476" d="M59 707q0 333 182.5 530t491.5 197q313 0 498.5 -197t185.5 -530t-185.5 -530t-498.5 -197q-309 0 -491.5 197t-182.5 530zM309 1776h303l228 -244h-215zM389 707q0 -211 93 -335t251 -124q163 0 260 124.5t97 334.5t-97 334t-260 124q-158 0 -251 -123.5t-93 -334.5z " />
<glyph unicode="&#xd3;" horiz-adv-x="1476" d="M59 707q0 333 182.5 530t491.5 197q313 0 498.5 -197t185.5 -530t-185.5 -530t-498.5 -197q-309 0 -491.5 197t-182.5 530zM389 707q0 -211 93 -335t251 -124q163 0 260 124.5t97 334.5t-97 334t-260 124q-158 0 -251 -123.5t-93 -334.5zM629 1532l229 244h301l-323 -244 h-207z" />
<glyph unicode="&#xd4;" horiz-adv-x="1476" d="M59 707q0 333 182.5 530t491.5 197q313 0 498.5 -197t185.5 -530t-185.5 -530t-498.5 -197q-309 0 -491.5 197t-182.5 530zM389 707q0 -211 93 -335t251 -124q163 0 260 124.5t97 334.5t-97 334t-260 124q-158 0 -251 -123.5t-93 -334.5zM408 1513l243 263h162l248 -263 h-227l-101 132l-102 -132h-223z" />
<glyph unicode="&#xd5;" horiz-adv-x="1476" d="M59 707q0 333 182.5 530t491.5 197q313 0 498.5 -197t185.5 -530t-185.5 -530t-498.5 -197q-309 0 -491.5 197t-182.5 530zM354 1507q0 273 217 273q46 0 84.5 -12.5t64 -30t47.5 -34.5t47 -29.5t52 -12.5q78 0 78 115h170q0 -137 -57.5 -205t-161.5 -68q-44 0 -82 12.5 t-64 30.5t-49 36.5t-47.5 31t-50.5 12.5q-71 0 -74 -119h-174zM389 707q0 -211 93 -335t251 -124q163 0 260 124.5t97 334.5t-97 334t-260 124q-158 0 -251 -123.5t-93 -334.5z" />
<glyph unicode="&#xd6;" horiz-adv-x="1476" d="M59 707q0 333 182.5 530t491.5 197q313 0 498.5 -197t185.5 -530t-185.5 -530t-498.5 -197q-309 0 -491.5 197t-182.5 530zM389 707q0 -211 93 -335t251 -124q163 0 260 124.5t97 334.5t-97 334t-260 124q-158 0 -251 -123.5t-93 -334.5zM426 1542v234h225v-234h-225z M813 1542v234h225v-234h-225z" />
<glyph unicode="&#xd7;" horiz-adv-x="1218" d="M162 797l162 164l284 -285l281 282l166 -165l-281 -281l283 -285l-164 -164l-283 285l-280 -280l-166 163l280 283z" />
<glyph unicode="&#xd8;" horiz-adv-x="1476" d="M53 160l115 114q-109 182 -109 433q0 333 182.5 530t491.5 197q266 0 447 -148l96 96l135 -131l-106 -108q112 -179 112 -436q0 -333 -185.5 -530t-498.5 -197q-267 0 -442 149l-101 -100zM389 707q0 -95 23 -189l553 553q-91 94 -232 94q-158 0 -251 -123.5t-93 -334.5z M506 344q90 -96 227 -96q163 0 260 124.5t97 334.5q0 96 -27 196z" />
<glyph unicode="&#xd9;" horiz-adv-x="1421" d="M141 535v878h312v-889q0 -125 66.5 -193.5t187.5 -68.5q125 0 193.5 69t68.5 193v889h311v-868q0 -271 -144 -418t-429 -147q-281 0 -423.5 145t-142.5 410zM289 1776h303l227 -244h-215z" />
<glyph unicode="&#xda;" horiz-adv-x="1421" d="M141 535v878h312v-889q0 -125 66.5 -193.5t187.5 -68.5q125 0 193.5 69t68.5 193v889h311v-868q0 -271 -144 -418t-429 -147q-281 0 -423.5 145t-142.5 410zM608 1532l230 244h301l-324 -244h-207z" />
<glyph unicode="&#xdb;" horiz-adv-x="1421" d="M141 535v878h312v-889q0 -125 66.5 -193.5t187.5 -68.5q125 0 193.5 69t68.5 193v889h311v-868q0 -271 -144 -418t-429 -147q-281 0 -423.5 145t-142.5 410zM387 1513l244 263h162l247 -263h-227l-100 132l-103 -132h-223z" />
<glyph unicode="&#xdc;" horiz-adv-x="1421" d="M141 535v878h312v-889q0 -125 66.5 -193.5t187.5 -68.5q125 0 193.5 69t68.5 193v889h311v-868q0 -271 -144 -418t-429 -147q-281 0 -423.5 145t-142.5 410zM406 1542v234h225v-234h-225zM793 1542v234h225v-234h-225z" />
<glyph unicode="&#xdd;" horiz-adv-x="1404" d="M-4 1413h350l363 -579l348 579h350l-553 -862v-551h-305v551zM598 1532l229 244h301l-323 -244h-207z" />
<glyph unicode="&#xde;" horiz-adv-x="1245" d="M150 0v1413h270v-143h299q104 0 191 -26.5t154 -80.5t104.5 -142t37.5 -204q0 -118 -37.5 -205t-105.5 -137t-153.5 -74t-190.5 -24h-299v-377h-270zM420 635h285q115 0 173 47t58 137q0 89 -58.5 138t-172.5 49h-285v-371z" />
<glyph unicode="&#xdf;" horiz-adv-x="1179" d="M125 0v997q0 103 37.5 187t101.5 138t147 83t175 29q80 0 158 -21t146 -61t110 -109t42 -156q0 -61 -23 -109.5t-55 -77.5t-64.5 -52t-55.5 -46.5t-23 -47.5q0 -27 22.5 -54t55.5 -49.5t72.5 -55.5t72.5 -68.5t55.5 -92t22.5 -123.5q0 -156 -109.5 -242.5t-285.5 -86.5 q-73 0 -166 22v275q96 -35 160 -35q59 0 90 26.5t31 77.5q0 38 -22.5 71t-55.5 56t-72.5 52t-72.5 57.5t-55.5 73.5t-22.5 100q0 51 23 90.5t55.5 65t64.5 49t55 53.5t23 67q0 56 -45 91.5t-119 35.5q-96 0 -143 -58t-47 -155v-997h-283z" />
<glyph unicode="&#xe0;" horiz-adv-x="1107" d="M63 268q0 191 197 289q22 10 48.5 20.5t49 19t58 19t56.5 16.5t65 17.5t63 16.5t71 18t70 18q-3 78 -49.5 112t-150.5 34q-91 0 -154 -30.5t-119 -100.5l-184 141q76 103 185.5 157t269.5 54q80 0 149 -12.5t128 -40t101 -68.5t65.5 -100.5t23.5 -132.5v-715h-265v117 q-70 -68 -162.5 -104t-175.5 -36q-155 0 -247.5 78.5t-92.5 212.5zM109 1413h303l227 -244h-215zM377 299q0 -49 31.5 -74.5t83.5 -23.5q146 3 249 121v184q-220 -64 -272 -90q-92 -44 -92 -117z" />
<glyph unicode="&#xe1;" horiz-adv-x="1107" d="M63 268q0 191 197 289q22 10 48.5 20.5t49 19t58 19t56.5 16.5t65 17.5t63 16.5t71 18t70 18q-3 78 -49.5 112t-150.5 34q-91 0 -154 -30.5t-119 -100.5l-184 141q76 103 185.5 157t269.5 54q80 0 149 -12.5t128 -40t101 -68.5t65.5 -100.5t23.5 -132.5v-715h-265v117 q-70 -68 -162.5 -104t-175.5 -36q-155 0 -247.5 78.5t-92.5 212.5zM377 299q0 -49 31.5 -74.5t83.5 -23.5q146 3 249 121v184q-220 -64 -272 -90q-92 -44 -92 -117zM428 1169l229 244h301l-323 -244h-207z" />
<glyph unicode="&#xe2;" horiz-adv-x="1107" d="M63 268q0 191 197 289q22 10 48.5 20.5t49 19t58 19t56.5 16.5t65 17.5t63 16.5t71 18t70 18q-3 78 -49.5 112t-150.5 34q-91 0 -154 -30.5t-119 -100.5l-184 141q76 103 185.5 157t269.5 54q80 0 149 -12.5t128 -40t101 -68.5t65.5 -100.5t23.5 -132.5v-715h-265v117 q-70 -68 -162.5 -104t-175.5 -36q-155 0 -247.5 78.5t-92.5 212.5zM207 1151l244 262h161l248 -262h-227l-101 131l-102 -131h-223zM377 299q0 -49 31.5 -74.5t83.5 -23.5q146 3 249 121v184q-220 -64 -272 -90q-92 -44 -92 -117z" />
<glyph unicode="&#xe3;" horiz-adv-x="1107" d="M63 268q0 191 197 289q22 10 48.5 20.5t49 19t58 19t56.5 16.5t65 17.5t63 16.5t71 18t70 18q-3 78 -49.5 112t-150.5 34q-91 0 -154 -30.5t-119 -100.5l-184 141q76 103 185.5 157t269.5 54q80 0 149 -12.5t128 -40t101 -68.5t65.5 -100.5t23.5 -132.5v-715h-265v117 q-70 -68 -162.5 -104t-175.5 -36q-155 0 -247.5 78.5t-92.5 212.5zM154 1145q0 272 217 272q46 0 84.5 -12.5t64 -29.5t47.5 -34.5t47 -30t52 -12.5q77 0 77 115h170q0 -137 -57.5 -204.5t-161.5 -67.5q-44 0 -82 12.5t-64 30.5t-49 36.5t-47.5 31t-50.5 12.5 q-70 0 -73 -119h-174zM377 299q0 -49 31.5 -74.5t83.5 -23.5q146 3 249 121v184q-220 -64 -272 -90q-92 -44 -92 -117z" />
<glyph unicode="&#xe4;" horiz-adv-x="1107" d="M63 268q0 191 197 289q22 10 48.5 20.5t49 19t58 19t56.5 16.5t65 17.5t63 16.5t71 18t70 18q-3 78 -49.5 112t-150.5 34q-91 0 -154 -30.5t-119 -100.5l-184 141q76 103 185.5 157t269.5 54q80 0 149 -12.5t128 -40t101 -68.5t65.5 -100.5t23.5 -132.5v-715h-265v117 q-70 -68 -162.5 -104t-175.5 -36q-155 0 -247.5 78.5t-92.5 212.5zM225 1180v233h226v-233h-226zM377 299q0 -49 31.5 -74.5t83.5 -23.5q146 3 249 121v184q-220 -64 -272 -90q-92 -44 -92 -117zM612 1180v233h226v-233h-226z" />
<glyph unicode="&#xe5;" horiz-adv-x="1107" d="M63 268q0 191 197 289q22 10 48.5 20.5t49 19t58 19t56.5 16.5t65 17.5t63 16.5t71 18t70 18q-3 78 -49.5 112t-150.5 34q-91 0 -154 -30.5t-119 -100.5l-184 141q76 103 185.5 157t269.5 54q80 0 149 -12.5t128 -40t101 -68.5t65.5 -100.5t23.5 -132.5v-715h-265v117 q-70 -68 -162.5 -104t-175.5 -36q-155 0 -247.5 78.5t-92.5 212.5zM313 1341q0 91 64 154.5t155 63.5t155.5 -63.5t64.5 -154.5q0 -92 -64.5 -157.5t-155.5 -65.5q-92 0 -155.5 64.5t-63.5 158.5zM377 299q0 -49 31.5 -74.5t83.5 -23.5q146 3 249 121v184q-220 -64 -272 -90 q-92 -44 -92 -117zM451 1339q0 -37 22.5 -59.5t58.5 -22.5q34 0 59 24t25 58t-24.5 58t-59.5 24q-38 0 -59.5 -22t-21.5 -60z" />
<glyph unicode="&#xe6;" horiz-adv-x="1796" d="M63 272q0 187 203 285q150 73 469 125q3 12 17 55q-14 49 -63.5 74t-119.5 25q-184 0 -311 -144l-188 148q77 103 203.5 165t283.5 62q223 0 350 -104q127 106 318 106q214 0 349.5 -136.5t135.5 -357.5q0 -79 -10 -120h-680v-13q21 -223 237 -223q81 0 140 24t112 91 l191 -139q-99 -114 -205 -164.5t-242 -50.5q-138 0 -251 51t-183 147q-153 -201 -407 -201q-159 0 -254 78.5t-95 216.5zM379 303q0 -45 32.5 -72.5t98.5 -27.5q73 0 138 33t93 102q-21 70 -24 158q-190 -41 -271 -88q-67 -40 -67 -105zM1020 647h395q-3 86 -51 140.5 t-141 54.5q-90 0 -142 -50.5t-61 -140.5v-4z" />
<glyph unicode="&#xe7;" horiz-adv-x="1097" d="M68 522q0 114 33 212t96.5 173.5t163.5 118.5t225 43q185 0 300.5 -81.5t176.5 -235.5l-248 -97q-22 87 -78.5 133t-142.5 46q-114 0 -174 -88t-60 -226q0 -134 60 -219.5t174 -85.5q86 0 142.5 46t80.5 130l238 -86q-86 -263 -332 -315l-74 -105l29 -8q61 -17 101 -61.5 t40 -118.5q0 -98 -63.5 -147.5t-155.5 -49.5q-84 0 -146.5 40t-88.5 104l139 65q7 -30 30.5 -46.5t53.5 -16.5q33 0 54.5 18t21.5 47q0 26 -18 47.5t-52 30.5l-160 45l84 148q-145 15 -248.5 93t-152.5 193t-49 254z" />
<glyph unicode="&#xe8;" horiz-adv-x="1132" d="M68 516q0 249 140 401t367 152q214 0 350 -136.5t136 -357.5q0 -79 -10 -120h-680q7 -117 68 -176.5t169 -59.5q81 0 140 24t112 91l191 -139q-99 -114 -205 -164.5t-242 -50.5q-154 0 -274 61.5t-191 184t-71 290.5zM145 1413h304l227 -244h-215zM371 647h395 q-3 86 -51.5 140.5t-141.5 54.5q-92 0 -143 -51.5t-59 -143.5z" />
<glyph unicode="&#xe9;" horiz-adv-x="1132" d="M68 516q0 249 140 401t367 152q214 0 350 -136.5t136 -357.5q0 -79 -10 -120h-680q7 -117 68 -176.5t169 -59.5q81 0 140 24t112 91l191 -139q-99 -114 -205 -164.5t-242 -50.5q-154 0 -274 61.5t-191 184t-71 290.5zM371 647h395q-3 86 -51.5 140.5t-141.5 54.5 q-92 0 -143 -51.5t-59 -143.5zM465 1169l229 244h301l-323 -244h-207z" />
<glyph unicode="&#xea;" horiz-adv-x="1132" d="M68 516q0 249 140 401t367 152q214 0 350 -136.5t136 -357.5q0 -79 -10 -120h-680q7 -117 68 -176.5t169 -59.5q81 0 140 24t112 91l191 -139q-99 -114 -205 -164.5t-242 -50.5q-154 0 -274 61.5t-191 184t-71 290.5zM244 1151l243 262h162l248 -262h-227l-101 131 l-102 -131h-223zM371 647h395q-3 86 -51.5 140.5t-141.5 54.5q-92 0 -143 -51.5t-59 -143.5z" />
<glyph unicode="&#xeb;" horiz-adv-x="1132" d="M68 516q0 249 140 401t367 152q214 0 350 -136.5t136 -357.5q0 -79 -10 -120h-680q7 -117 68 -176.5t169 -59.5q81 0 140 24t112 91l191 -139q-99 -114 -205 -164.5t-242 -50.5q-154 0 -274 61.5t-191 184t-71 290.5zM262 1180v233h225v-233h-225zM371 647h395 q-3 86 -51.5 140.5t-141.5 54.5q-92 0 -143 -51.5t-59 -143.5zM649 1180v233h225v-233h-225z" />
<glyph unicode="&#xec;" horiz-adv-x="569" d="M-139 1413h303l227 -244h-215zM135 0v1049h299v-1049h-299z" />
<glyph unicode="&#xed;" horiz-adv-x="569" d="M135 0v1049h299v-1049h-299zM180 1169l230 244h301l-324 -244h-207z" />
<glyph unicode="&#xee;" horiz-adv-x="569" d="M-41 1151l244 262h162l247 -262h-227l-100 131l-103 -131h-223zM135 0v1049h299v-1049h-299z" />
<glyph unicode="&#xef;" horiz-adv-x="569" d="M-23 1180v233h226v-233h-226zM135 0v1049h299v-1049h-299zM365 1180v233h225v-233h-225z" />
<glyph unicode="&#xf0;" horiz-adv-x="1165" d="M61 516q0 105 34 201t96 170t156.5 118t207.5 44q83 0 152 -30t104 -77q-84 176 -279 279l-77 -117l-107 67l70 105q-90 33 -139 49l110 191q68 -23 148 -64l88 131l104 -63l-84 -125q234 -144 346.5 -361t112.5 -518q0 -105 -35.5 -201t-100.5 -169.5t-165 -117.5 t-221 -44q-123 0 -223.5 43.5t-164.5 118t-98.5 169.5t-34.5 201zM369 516q0 -126 56 -206.5t157 -80.5t156 80t55 207t-55.5 207t-155.5 80q-101 0 -157 -80.5t-56 -206.5z" />
<glyph unicode="&#xf1;" horiz-adv-x="1241" d="M131 0v1049h297v-131h10q49 68 131.5 109.5t190.5 41.5q163 0 262.5 -103t99.5 -272v-694h-299v641q0 92 -46.5 138t-131.5 46q-94 0 -153.5 -56t-59.5 -148v-621h-301zM242 1149q0 272 217 272q56 0 102 -18.5t71 -40.5t57.5 -40.5t64.5 -18.5q41 0 59 28t18 86h170 q0 -137 -57.5 -204.5t-161.5 -67.5q-44 0 -82 12.5t-64 30.5t-49 36.5t-47.5 31t-50.5 12.5q-70 0 -73 -119h-174z" />
<glyph unicode="&#xf2;" horiz-adv-x="1202" d="M68 520q0 132 40.5 237t112.5 173t169 103.5t212 35.5t212 -35.5t168.5 -103.5t112 -173t40.5 -237q0 -172 -70 -296.5t-189.5 -185.5t-273.5 -61t-273.5 61t-190 185.5t-70.5 296.5zM178 1413h303l228 -244h-215zM365 520q0 -154 64 -226.5t173 -72.5q111 0 176.5 72.5 t65.5 226.5q0 158 -65.5 232.5t-176.5 74.5q-109 0 -173 -74.5t-64 -232.5z" />
<glyph unicode="&#xf3;" horiz-adv-x="1202" d="M68 520q0 132 40.5 237t112.5 173t169 103.5t212 35.5t212 -35.5t168.5 -103.5t112 -173t40.5 -237q0 -172 -70 -296.5t-189.5 -185.5t-273.5 -61t-273.5 61t-190 185.5t-70.5 296.5zM365 520q0 -154 64 -226.5t173 -72.5q111 0 176.5 72.5t65.5 226.5q0 158 -65.5 232.5 t-176.5 74.5q-109 0 -173 -74.5t-64 -232.5zM498 1169l229 244h301l-323 -244h-207z" />
<glyph unicode="&#xf4;" horiz-adv-x="1202" d="M68 520q0 132 40.5 237t112.5 173t169 103.5t212 35.5t212 -35.5t168.5 -103.5t112 -173t40.5 -237q0 -172 -70 -296.5t-189.5 -185.5t-273.5 -61t-273.5 61t-190 185.5t-70.5 296.5zM276 1151l244 262h162l248 -262h-228l-100 131l-102 -131h-224zM365 520 q0 -154 64 -226.5t173 -72.5q111 0 176.5 72.5t65.5 226.5q0 158 -65.5 232.5t-176.5 74.5q-109 0 -173 -74.5t-64 -232.5z" />
<glyph unicode="&#xf5;" horiz-adv-x="1202" d="M68 520q0 132 40.5 237t112.5 173t169 103.5t212 35.5t212 -35.5t168.5 -103.5t112 -173t40.5 -237q0 -172 -70 -296.5t-189.5 -185.5t-273.5 -61t-273.5 61t-190 185.5t-70.5 296.5zM223 1145q0 272 217 272q46 0 84.5 -12.5t64 -29.5t47.5 -34.5t47 -30t52 -12.5 q78 0 78 115h170q0 -137 -57.5 -204.5t-161.5 -67.5q-44 0 -82 12.5t-64 30.5t-49 36.5t-47.5 31t-50.5 12.5q-71 0 -74 -119h-174zM365 520q0 -154 64 -226.5t173 -72.5q111 0 176.5 72.5t65.5 226.5q0 158 -65.5 232.5t-176.5 74.5q-109 0 -173 -74.5t-64 -232.5z" />
<glyph unicode="&#xf6;" horiz-adv-x="1202" d="M68 520q0 132 40.5 237t112.5 173t169 103.5t212 35.5t212 -35.5t168.5 -103.5t112 -173t40.5 -237q0 -172 -70 -296.5t-189.5 -185.5t-273.5 -61t-273.5 61t-190 185.5t-70.5 296.5zM295 1180v233h225v-233h-225zM365 520q0 -154 64 -226.5t173 -72.5q111 0 176.5 72.5 t65.5 226.5q0 158 -65.5 232.5t-176.5 74.5q-109 0 -173 -74.5t-64 -232.5zM682 1180v233h225v-233h-225z" />
<glyph unicode="&#xf7;" horiz-adv-x="1204" d="M162 401v234h880v-234h-880zM471 8v230h260v-230h-260zM471 793v229h260v-229h-260z" />
<glyph unicode="&#xf8;" horiz-adv-x="1202" d="M68 520q0 132 40.5 237t112.5 173t169 103.5t212 35.5q205 0 344 -106l39 38l94 -92l-43 -43q99 -138 99 -346q0 -172 -70 -296.5t-189.5 -185.5t-273.5 -61q-203 0 -344 107l-39 -39l-98 92l43 43q-96 138 -96 340zM365 520q0 -76 14 -125l379 379q-59 53 -156 53 q-109 0 -173 -74.5t-64 -232.5zM446 274q59 -53 156 -53q111 0 176.5 72.5t65.5 226.5q0 72 -17 135z" />
<glyph unicode="&#xf9;" horiz-adv-x="1255" d="M133 356v693h301v-617q0 -88 49 -138t135 -50q98 0 152.5 58.5t54.5 148.5v598h299v-1049h-295v131h-16q-49 -76 -132 -116t-185 -40q-172 0 -267.5 107t-95.5 274zM205 1413h303l227 -244h-215z" />
<glyph unicode="&#xfa;" horiz-adv-x="1255" d="M133 356v693h301v-617q0 -88 49 -138t135 -50q98 0 152.5 58.5t54.5 148.5v598h299v-1049h-295v131h-16q-49 -76 -132 -116t-185 -40q-172 0 -267.5 107t-95.5 274zM524 1169l230 244h301l-324 -244h-207z" />
<glyph unicode="&#xfb;" horiz-adv-x="1255" d="M133 356v693h301v-617q0 -88 49 -138t135 -50q98 0 152.5 58.5t54.5 148.5v598h299v-1049h-295v131h-16q-49 -76 -132 -116t-185 -40q-172 0 -267.5 107t-95.5 274zM303 1151l244 262h162l247 -262h-227l-100 131l-103 -131h-223z" />
<glyph unicode="&#xfc;" horiz-adv-x="1255" d="M133 356v693h301v-617q0 -88 49 -138t135 -50q98 0 152.5 58.5t54.5 148.5v598h299v-1049h-295v131h-16q-49 -76 -132 -116t-185 -40q-172 0 -267.5 107t-95.5 274zM322 1180v233h225v-233h-225zM709 1180v233h225v-233h-225z" />
<glyph unicode="&#xfd;" horiz-adv-x="1052" d="M-8 1049h319l211 -703h15l213 703h321l-405 -1069q-33 -87 -70.5 -146t-83 -99t-109 -61.5t-138 -30t-181.5 -8.5v236q230 0 291 156zM428 1169l229 244h301l-323 -244h-207z" />
<glyph unicode="&#xfe;" horiz-adv-x="1241" d="M131 -365v1778h305v-532h6q117 139 303 139q196 0 312.5 -145t116.5 -375t-116.5 -375t-312.5 -145q-97 0 -170.5 29t-132.5 106h-10v-480h-301zM426 510q0 -127 61.5 -205t169.5 -78q114 0 176 74.5t62 208.5q0 139 -62 216t-176 77q-108 0 -169.5 -80.5t-61.5 -212.5z " />
<glyph unicode="&#xff;" horiz-adv-x="1052" d="M-8 1049h319l211 -703h15l213 703h321l-405 -1069q-33 -87 -70.5 -146t-83 -99t-109 -61.5t-138 -30t-181.5 -8.5v236q230 0 291 156zM225 1180v233h226v-233h-226zM612 1180v233h226v-233h-226z" />
<glyph unicode="&#x100;" horiz-adv-x="1386" d="M-2 0l491 1413h406l494 -1413h-334l-99 315h-522l-100 -315h-336zM410 1589v154h575v-154h-575zM512 563h367l-179 572h-8z" />
<glyph unicode="&#x101;" horiz-adv-x="1107" d="M63 268q0 191 197 289q22 10 48.5 20.5t49 19t58 19t56.5 16.5t65 17.5t63 16.5t71 18t70 18q-3 78 -49.5 112t-150.5 34q-91 0 -154 -30.5t-119 -100.5l-184 141q76 103 185.5 157t269.5 54q80 0 149 -12.5t128 -40t101 -68.5t65.5 -100.5t23.5 -132.5v-715h-265v117 q-70 -68 -162.5 -104t-175.5 -36q-155 0 -247.5 78.5t-92.5 212.5zM248 1227v153h575v-153h-575zM377 299q0 -49 31.5 -74.5t83.5 -23.5q146 3 249 121v184q-220 -64 -272 -90q-92 -44 -92 -117z" />
<glyph unicode="&#x102;" horiz-adv-x="1386" d="M-2 0l491 1413h406l494 -1413h-334l-99 315h-522l-100 -315h-336zM379 1774h184q0 -51 37 -83t94 -32q59 0 96 32t37 83h191q0 -123 -90 -197t-234 -74q-140 0 -227.5 73.5t-87.5 197.5zM512 563h367l-179 572h-8z" />
<glyph unicode="&#x103;" horiz-adv-x="1107" d="M63 268q0 191 197 289q22 10 48.5 20.5t49 19t58 19t56.5 16.5t65 17.5t63 16.5t71 18t70 18q-3 78 -49.5 112t-150.5 34q-91 0 -154 -30.5t-119 -100.5l-184 141q76 103 185.5 157t269.5 54q80 0 149 -12.5t128 -40t101 -68.5t65.5 -100.5t23.5 -132.5v-715h-265v117 q-70 -68 -162.5 -104t-175.5 -36q-155 0 -247.5 78.5t-92.5 212.5zM217 1411h184q0 -51 37 -83t94 -32q59 0 96.5 32t37.5 83h190q0 -123 -90 -196.5t-234 -73.5q-140 0 -227.5 73t-87.5 197zM377 299q0 -49 31.5 -74.5t83.5 -23.5q146 3 249 121v184q-220 -64 -272 -90 q-92 -44 -92 -117z" />
<glyph unicode="&#x104;" horiz-adv-x="1386" d="M-2 0l491 1413h406l494 -1413q-191 -130 -191 -231q0 -35 17.5 -53.5t46.5 -18.5q54 0 88 57l143 -102q-82 -125 -229 -125q-44 0 -84 11.5t-75 35.5t-56 68t-21 102q0 147 160 256h-133l-99 315h-522l-100 -315h-336zM512 563h367l-179 572h-8z" />
<glyph unicode="&#x105;" horiz-adv-x="1107" d="M63 268q0 191 197 289q22 10 48.5 20.5t49 19t58 19t56.5 16.5t65 17.5t63 16.5t71 18t70 18q-3 78 -49.5 112t-150.5 34q-91 0 -154 -30.5t-119 -100.5l-184 141q76 103 185.5 157t269.5 54q80 0 149 -12.5t128 -40t101 -68.5t65.5 -100.5t23.5 -132.5v-715 q-191 -130 -191 -231q0 -35 17.5 -53.5t46.5 -18.5q54 0 88 57l143 -102q-82 -125 -229 -125q-44 0 -84 11.5t-75 35.5t-56 68t-21 102q0 147 160 256h-64v117q-70 -68 -162.5 -104t-175.5 -36q-155 0 -247.5 78.5t-92.5 212.5zM377 299q0 -49 31.5 -74.5t83.5 -23.5 q146 3 249 121v184q-220 -64 -272 -90q-92 -44 -92 -117z" />
<glyph unicode="&#x106;" horiz-adv-x="1339" d="M59 707q0 117 22.5 221.5t72 198.5t123 162t182 107.5t241.5 39.5q220 0 371 -106.5t223 -315.5l-288 -111q-27 128 -109.5 195t-198.5 67q-157 0 -247.5 -119t-90.5 -331q0 -215 92 -340t242 -125q112 0 195 69.5t121 198.5l286 -115q-69 -208 -221.5 -315.5 t-376.5 -107.5q-132 0 -240 39.5t-181 107t-123 161t-72.5 198.5t-22.5 221zM580 1532l229 244h301l-324 -244h-206z" />
<glyph unicode="&#x107;" horiz-adv-x="1097" d="M68 522q0 114 33 212t96.5 173.5t163.5 118.5t225 43q185 0 300.5 -81.5t176.5 -235.5l-248 -97q-22 87 -78.5 133t-142.5 46q-114 0 -174 -88t-60 -226q0 -134 60 -219.5t174 -85.5q86 0 142.5 46t80.5 130l238 -86q-55 -164 -169.5 -246t-297.5 -82q-126 0 -226.5 43.5 t-164 119t-96.5 173.5t-33 209zM459 1169l229 244h301l-323 -244h-207z" />
<glyph unicode="&#x10a;" horiz-adv-x="1339" d="M59 707q0 117 22.5 221.5t72 198.5t123 162t182 107.5t241.5 39.5q220 0 371 -106.5t223 -315.5l-288 -111q-27 128 -109.5 195t-198.5 67q-157 0 -247.5 -119t-90.5 -331q0 -215 92 -340t242 -125q112 0 195 69.5t121 198.5l286 -115q-69 -208 -221.5 -315.5 t-376.5 -107.5q-132 0 -240 39.5t-181 107t-123 161t-72.5 198.5t-22.5 221zM571 1544v232h222v-232h-222z" />
<glyph unicode="&#x10b;" horiz-adv-x="1097" d="M68 522q0 114 33 212t96.5 173.5t163.5 118.5t225 43q185 0 300.5 -81.5t176.5 -235.5l-248 -97q-22 87 -78.5 133t-142.5 46q-114 0 -174 -88t-60 -226q0 -134 60 -219.5t174 -85.5q86 0 142.5 46t80.5 130l238 -86q-55 -164 -169.5 -246t-297.5 -82q-126 0 -226.5 43.5 t-164 119t-96.5 173.5t-33 209zM451 1182v231h221v-231h-221z" />
<glyph unicode="&#x10c;" horiz-adv-x="1339" d="M59 707q0 117 22.5 221.5t72 198.5t123 162t182 107.5t241.5 39.5q220 0 371 -106.5t223 -315.5l-288 -111q-27 128 -109.5 195t-198.5 67q-157 0 -247.5 -119t-90.5 -331q0 -215 92 -340t242 -125q112 0 195 69.5t121 198.5l286 -115q-69 -208 -221.5 -315.5 t-376.5 -107.5q-132 0 -240 39.5t-181 107t-123 161t-72.5 198.5t-22.5 221zM358 1776h224l100 -125l102 125h226l-246 -258h-162z" />
<glyph unicode="&#x10d;" horiz-adv-x="1097" d="M68 522q0 114 33 212t96.5 173.5t163.5 118.5t225 43q185 0 300.5 -81.5t176.5 -235.5l-248 -97q-22 87 -78.5 133t-142.5 46q-114 0 -174 -88t-60 -226q0 -134 60 -219.5t174 -85.5q86 0 142.5 46t80.5 130l238 -86q-55 -164 -169.5 -246t-297.5 -82q-126 0 -226.5 43.5 t-164 119t-96.5 173.5t-33 209zM238 1413h223l100 -125l103 125h225l-246 -258h-162z" />
<glyph unicode="&#x10e;" horiz-adv-x="1392" d="M150 0v1413h434q367 0 558 -185.5t191 -522.5q0 -340 -192 -522.5t-559 -182.5h-432zM281 1776h223l100 -125l103 125h225l-246 -258h-162zM461 274h96q469 0 469 435q0 211 -111 320.5t-335 109.5h-119v-865z" />
<glyph unicode="&#x10f;" horiz-adv-x="1431" d="M68 524q0 247 119.5 396t328.5 149q107 0 194.5 -44t133.5 -114v502h301v-1413h-295v143h-2q-43 -73 -130.5 -119.5t-197.5 -46.5q-211 0 -331.5 149.5t-120.5 397.5zM371 526q0 -299 243 -299q107 0 171.5 79.5t64.5 219.5q0 134 -64.5 212.5t-171.5 78.5 q-119 0 -181 -73.5t-62 -217.5zM1237 836l121 299h-105v280h312v-280h-6l-189 -299h-133z" />
<glyph unicode="&#x110;" horiz-adv-x="1384" d="M29 614v197h110v602h434q367 0 558.5 -186t191.5 -522q0 -340 -192.5 -522.5t-559.5 -182.5h-432v614h-110zM451 274h96q469 0 469 435q0 211 -111.5 320.5t-335.5 109.5h-118v-328h317v-197h-317v-340z" />
<glyph unicode="&#x111;" horiz-adv-x="1275" d="M68 524q0 247 119.5 396t328.5 149q107 0 194.5 -44t133.5 -114v295h-232v137h232v70h301v-70h129v-137h-129v-1206h-295v143h-2q-43 -73 -130.5 -119.5t-197.5 -46.5q-211 0 -331.5 149.5t-120.5 397.5zM371 526q0 -299 243 -299q107 0 171.5 79.5t64.5 219.5 q0 134 -64.5 212.5t-171.5 78.5q-119 0 -181 -73.5t-62 -217.5z" />
<glyph unicode="&#x112;" horiz-adv-x="1200" d="M150 0v1413h958v-262h-647v-311h586v-262h-586v-314h647v-264h-958zM346 1589v154h576v-154h-576z" />
<glyph unicode="&#x113;" horiz-adv-x="1132" d="M68 516q0 249 140 401t367 152q214 0 350 -136.5t136 -357.5q0 -79 -10 -120h-680q7 -117 68 -176.5t169 -59.5q81 0 140 24t112 91l191 -139q-99 -114 -205 -164.5t-242 -50.5q-154 0 -274 61.5t-191 184t-71 290.5zM285 1227v153h575v-153h-575zM371 647h395 q-3 86 -51.5 140.5t-141.5 54.5q-92 0 -143 -51.5t-59 -143.5z" />
<glyph unicode="&#x116;" horiz-adv-x="1200" d="M150 0v1413h958v-262h-647v-311h586v-262h-586v-314h647v-264h-958zM518 1544v232h221v-232h-221z" />
<glyph unicode="&#x117;" horiz-adv-x="1132" d="M68 516q0 249 140 401t367 152q214 0 350 -136.5t136 -357.5q0 -79 -10 -120h-680q7 -117 68 -176.5t169 -59.5q81 0 140 24t112 91l191 -139q-99 -114 -205 -164.5t-242 -50.5q-154 0 -274 61.5t-191 184t-71 290.5zM371 647h395q-3 86 -51.5 140.5t-141.5 54.5 q-92 0 -143 -51.5t-59 -143.5zM457 1182v231h221v-231h-221z" />
<glyph unicode="&#x118;" horiz-adv-x="1200" d="M150 0v1413h958v-262h-647v-311h586v-262h-586v-314h647v-264q-190 -129 -190 -231q0 -36 17 -54t46 -18q54 0 88 57l143 -102q-82 -125 -229 -125q-35 0 -67.5 7t-63.5 23t-53.5 40.5t-36.5 62t-14 84.5q0 147 159 256h-757z" />
<glyph unicode="&#x119;" horiz-adv-x="1132" d="M68 516q0 249 140 401t367 152q214 0 350 -136.5t136 -357.5q0 -79 -10 -120h-680q7 -117 68 -176.5t169 -59.5q81 0 140 24t112 91l191 -139q-77 -89 -164 -144q-125 -100 -125 -182q0 -36 17 -54t46 -18q23 0 47.5 15t40.5 43l144 -103q-82 -125 -230 -125 q-35 0 -67.5 7t-63.5 23t-53.5 40.5t-36.5 62t-14 84.5q0 73 39 136h-27q-154 0 -274 61.5t-191 184t-71 290.5zM371 647h395q-3 86 -51.5 140.5t-141.5 54.5q-92 0 -143 -51.5t-59 -143.5z" />
<glyph unicode="&#x11a;" horiz-adv-x="1200" d="M150 0v1413h958v-262h-647v-311h586v-262h-586v-314h647v-264h-958zM305 1776h223l101 -125l102 125h225l-245 -258h-162z" />
<glyph unicode="&#x11b;" horiz-adv-x="1132" d="M68 516q0 249 140 401t367 152q214 0 350 -136.5t136 -357.5q0 -79 -10 -120h-680q7 -117 68 -176.5t169 -59.5q81 0 140 24t112 91l191 -139q-99 -114 -205 -164.5t-242 -50.5q-154 0 -274 61.5t-191 184t-71 290.5zM244 1413h223l100 -125l103 125h225l-246 -258h-162z M371 647h395q-3 86 -51.5 140.5t-141.5 54.5q-92 0 -143 -51.5t-59 -143.5z" />
<glyph unicode="&#x11e;" horiz-adv-x="1486" d="M59 713q0 150 45 280.5t130 229.5t218 156t298 57q224 0 378.5 -110t214.5 -286l-268 -84q-90 220 -334 220q-79 0 -142.5 -24.5t-106 -67.5t-71.5 -102.5t-41.5 -127t-12.5 -143.5q0 -98 21.5 -179t64.5 -145.5t117 -100.5t171 -36q157 0 246.5 86t89.5 207h-303v248 h586v-791h-244l-10 178q-63 -95 -177.5 -146.5t-248.5 -51.5q-146 0 -265 58.5t-196 159t-118.5 232.5t-41.5 283zM414 1774h184q0 -51 37 -83t94 -32q59 0 96 32t37 83h191q0 -123 -90 -197t-234 -74q-140 0 -227.5 73.5t-87.5 197.5z" />
<glyph unicode="&#x11f;" horiz-adv-x="1271" d="M68 553q0 242 127.5 379t328.5 137q105 0 190.5 -40.5t127.5 -106.5v127h299v-983q0 -100 -30 -179.5t-79 -129.5t-116.5 -82.5t-136.5 -46t-144 -13.5q-170 0 -303.5 42.5t-229.5 149.5l138 181q68 -81 163.5 -116.5t186.5 -35.5q111 0 181.5 55t70.5 160v125 q-36 -62 -119 -102.5t-195 -40.5q-205 0 -332.5 139t-127.5 381zM291 1411h184q0 -51 37 -83t94 -32q59 0 96 32t37 83h191q0 -123 -90 -196.5t-234 -73.5q-140 0 -227.5 73t-87.5 197zM371 547q0 -125 63 -203t180 -78q114 0 177 75t63 198q0 126 -63.5 207t-180.5 81 q-115 0 -177 -77t-62 -203z" />
<glyph unicode="&#x120;" horiz-adv-x="1486" d="M59 713q0 150 45 280.5t130 229.5t218 156t298 57q224 0 378.5 -110t214.5 -286l-268 -84q-90 220 -334 220q-79 0 -142.5 -24.5t-106 -67.5t-71.5 -102.5t-41.5 -127t-12.5 -143.5q0 -98 21.5 -179t64.5 -145.5t117 -100.5t171 -36q157 0 246.5 86t89.5 207h-303v248 h586v-791h-244l-10 178q-63 -95 -177.5 -146.5t-248.5 -51.5q-146 0 -265 58.5t-196 159t-118.5 232.5t-41.5 283zM616 1544v232h222v-232h-222z" />
<glyph unicode="&#x121;" horiz-adv-x="1271" d="M68 553q0 242 127.5 379t328.5 137q105 0 190.5 -40.5t127.5 -106.5v127h299v-983q0 -100 -30 -179.5t-79 -129.5t-116.5 -82.5t-136.5 -46t-144 -13.5q-170 0 -303.5 42.5t-229.5 149.5l138 181q68 -81 163.5 -116.5t186.5 -35.5q111 0 181.5 55t70.5 160v125 q-36 -62 -119 -102.5t-195 -40.5q-205 0 -332.5 139t-127.5 381zM371 547q0 -125 63 -203t180 -78q114 0 177 75t63 198q0 126 -63.5 207t-180.5 81q-115 0 -177 -77t-62 -203zM494 1182v231h221v-231h-221z" />
<glyph unicode="&#x122;" horiz-adv-x="1486" d="M59 713q0 150 45 280.5t130 229.5t218 156t298 57q224 0 378.5 -110t214.5 -286l-268 -84q-90 220 -334 220q-79 0 -142.5 -24.5t-106 -67.5t-71.5 -102.5t-41.5 -127t-12.5 -143.5q0 -98 21.5 -179t64.5 -145.5t117 -100.5t171 -36q157 0 246.5 86t89.5 207h-303v248 h586v-791h-244l-10 178q-63 -95 -177.5 -146.5t-248.5 -51.5q-146 0 -265 58.5t-196 159t-118.5 232.5t-41.5 283zM432 -436l139 303h289l-264 -303h-164z" />
<glyph unicode="&#x123;" horiz-adv-x="1267" d="M68 553q0 242 127.5 379t328.5 137q105 0 190.5 -40.5t127.5 -106.5v127h299v-983q0 -100 -30 -179.5t-79 -129.5t-116.5 -82.5t-136.5 -46t-144 -13.5q-170 0 -303.5 42.5t-229.5 149.5l138 181q68 -81 163.5 -116.5t186.5 -35.5q111 0 181.5 55t70.5 160v125 q-36 -62 -119 -102.5t-195 -40.5q-205 0 -332.5 139t-127.5 381zM330 1143l264 270h164l-140 -270h-288zM371 547q0 -125 63 -203t180 -78q114 0 177 75t63 198q0 126 -63.5 207t-180.5 81q-115 0 -177 -77t-62 -203z" />
<glyph unicode="&#x126;" horiz-adv-x="1482" d="M47 1026v176h103v211h311v-211h561v211h311v-211h101v-176h-101v-1026h-311v569h-561v-569h-311v1026h-103zM461 846h561v180h-561v-180z" />
<glyph unicode="&#x127;" horiz-adv-x="1241" d="M-4 1159v137h135v117h301v-117h225v-137h-225v-241h6q51 71 136.5 111t187.5 40q170 0 265 -104.5t95 -270.5v-694h-299v641q0 88 -44.5 138t-129.5 50q-98 0 -157.5 -59t-59.5 -149v-621h-301v1159h-135z" />
<glyph unicode="&#x128;" horiz-adv-x="610" d="M-78 1507q0 273 217 273q46 0 84.5 -12.5t64 -30t47.5 -34.5t47 -29.5t52 -12.5q78 0 78 115h170q0 -137 -57.5 -205t-161.5 -68q-44 0 -82 12.5t-64 30.5t-49 36.5t-47.5 31t-50.5 12.5q-71 0 -74 -119h-174zM150 0v1413h311v-1413h-311z" />
<glyph unicode="&#x129;" horiz-adv-x="569" d="M-94 1145q0 272 217 272q46 0 84.5 -12.5t64 -29.5t47.5 -34.5t47 -30t52 -12.5q78 0 78 115h170q0 -137 -57.5 -204.5t-162.5 -67.5q-54 0 -99.5 19t-71.5 42.5t-58 42.5t-63 19q-71 0 -74 -119h-174zM135 0v1049h299v-1049h-299z" />
<glyph unicode="&#x12a;" horiz-adv-x="610" d="M16 1589v154h576v-154h-576zM150 0v1413h311v-1413h-311z" />
<glyph unicode="&#x12b;" horiz-adv-x="569" d="M0 1227v153h575v-153h-575zM135 0v1049h299v-1049h-299z" />
<glyph unicode="&#x12e;" horiz-adv-x="610" d="M100 -256q0 147 160 256h-110v1413h311v-1413q-191 -130 -191 -231q0 -35 17.5 -53.5t46.5 -18.5q54 0 88 57l143 -102q-82 -125 -229 -125q-44 0 -84 11.5t-75 35.5t-56 68t-21 102z" />
<glyph unicode="&#x12f;" horiz-adv-x="565" d="M70 -256q0 147 159 256h-98v1049h301v-1049h-2q-190 -129 -190 -231q0 -36 17 -54t46 -18q54 0 88 57l144 -102q-82 -125 -230 -125q-35 0 -67.5 7t-63.5 23t-53.5 40.5t-36.5 62t-14 84.5zM131 1182v231h303v-231h-303z" />
<glyph unicode="&#x130;" horiz-adv-x="610" d="M150 0v1413h311v-1413h-311zM188 1544v232h222v-232h-222z" />
<glyph unicode="&#x131;" horiz-adv-x="569" d="M135 0v1049h299v-1049h-299z" />
<glyph unicode="&#x136;" horiz-adv-x="1449" d="M150 0v1413h311v-647l557 647h393l-541 -586l576 -827h-389l-391 606l-205 -221v-385h-311zM457 -436l139 303h289l-264 -303h-164z" />
<glyph unicode="&#x137;" horiz-adv-x="1189" d="M131 0v1413h301v-760l391 396h363l-416 -408l449 -641h-347l-294 453l-146 -144v-309h-301zM344 -436l139 303h289l-264 -303h-164z" />
<glyph unicode="&#x138;" horiz-adv-x="1185" d="M127 0v1049h301v-392l379 392h375l-416 -408l448 -641h-360l-287 444l-139 -135v-309h-301z" />
<glyph unicode="&#x139;" horiz-adv-x="1077" d="M150 0v1413h311v-1151h604v-262h-915zM193 1534l229 244h301l-324 -244h-206z" />
<glyph unicode="&#x13a;" horiz-adv-x="569" d="M135 0v1413h299v-1413h-299zM180 1534l230 244h301l-324 -244h-207z" />
<glyph unicode="&#x13b;" horiz-adv-x="1077" d="M150 0v1413h311v-1151h604v-262h-915zM332 -436l139 303h289l-264 -303h-164z" />
<glyph unicode="&#x13c;" horiz-adv-x="569" d="M0 -436l139 303h289l-264 -303h-164zM135 0v1413h299v-1413h-299z" />
<glyph unicode="&#x13d;" horiz-adv-x="1077" d="M150 0v1413h311v-1151h604v-262h-915zM731 805l127 315h-110v293h327v-293h-6l-199 -315h-139z" />
<glyph unicode="&#x13e;" horiz-adv-x="768" d="M135 0v1413h299v-1413h-299zM543 805l127 315h-111v293h328v-293h-6l-199 -315h-139z" />
<glyph unicode="&#x141;" horiz-adv-x="1077" d="M-8 279v229l158 123v782h311v-541l203 158v-244l-203 -153v-371h604v-262h-915v397z" />
<glyph unicode="&#x142;" horiz-adv-x="569" d="M-55 340v240l190 147v686h299v-452l211 163v-256l-211 -159v-709h-299v483z" />
<glyph unicode="&#x143;" horiz-adv-x="1550" d="M150 0v1413h327l604 -960h11v960h309v-1413h-332l-598 956h-10v-956h-311zM668 1532l229 244h301l-324 -244h-206z" />
<glyph unicode="&#x144;" horiz-adv-x="1241" d="M131 0v1049h297v-131h10q49 68 131.5 109.5t190.5 41.5q163 0 262.5 -103t99.5 -272v-694h-299v641q0 92 -46.5 138t-131.5 46q-94 0 -153.5 -56t-59.5 -148v-621h-301zM516 1174l229 243h302l-324 -243h-207z" />
<glyph unicode="&#x145;" horiz-adv-x="1550" d="M150 0v1413h327l604 -960h11v960h309v-1413h-332l-598 956h-10v-956h-311zM487 -436l140 303h288l-264 -303h-164z" />
<glyph unicode="&#x146;" horiz-adv-x="1241" d="M131 0v1049h297v-131h10q49 68 131.5 109.5t190.5 41.5q163 0 262.5 -103t99.5 -272v-694h-299v641q0 92 -46.5 138t-131.5 46q-94 0 -153.5 -56t-59.5 -148v-621h-301zM342 -436l139 303h289l-264 -303h-164z" />
<glyph unicode="&#x147;" horiz-adv-x="1550" d="M150 0v1413h327l604 -960h11v960h309v-1413h-332l-598 956h-10v-956h-311zM446 1776h224l100 -125l102 125h226l-246 -258h-162z" />
<glyph unicode="&#x148;" horiz-adv-x="1241" d="M131 0v1049h297v-131h10q49 68 131.5 109.5t190.5 41.5q163 0 262.5 -103t99.5 -272v-694h-299v641q0 92 -46.5 138t-131.5 46q-94 0 -153.5 -56t-59.5 -148v-621h-301zM295 1417h223l100 -125l103 125h225l-246 -258h-161z" />
<glyph unicode="&#x14a;" horiz-adv-x="1550" d="M150 0v1413h327l604 -960h11v960h309v-1413q0 -153 -84.5 -221t-272.5 -68h-114v148h59q111 0 111 141h-31l-598 956h-10v-956h-311z" />
<glyph unicode="&#x14b;" horiz-adv-x="1255" d="M131 0v999h277v-159h16q99 176 319 176q98 0 174 -36.5t119 -97.5t64.5 -132.5t21.5 -149.5v-565q0 -31 -1 -52t-8 -58t-20 -62.5t-39.5 -56.5t-63.5 -50t-95 -32t-131 -13h-141v195h92q64 0 89 36t25 85v522q0 90 -48.5 150.5t-137.5 60.5q-94 0 -156.5 -65t-62.5 -160 v-535h-293z" />
<glyph unicode="&#x14c;" horiz-adv-x="1476" d="M59 707q0 333 182.5 530t491.5 197q313 0 498.5 -197t185.5 -530t-185.5 -530t-498.5 -197q-309 0 -491.5 197t-182.5 530zM389 707q0 -211 93 -335t251 -124q163 0 260 124.5t97 334.5t-97 334t-260 124q-158 0 -251 -123.5t-93 -334.5zM449 1589v154h575v-154h-575z " />
<glyph unicode="&#x14d;" horiz-adv-x="1202" d="M68 520q0 132 40.5 237t112.5 173t169 103.5t212 35.5t212 -35.5t168.5 -103.5t112 -173t40.5 -237q0 -172 -70 -296.5t-189.5 -185.5t-273.5 -61t-273.5 61t-190 185.5t-70.5 296.5zM317 1227v153h576v-153h-576zM365 520q0 -154 64 -226.5t173 -72.5q111 0 176.5 72.5 t65.5 226.5q0 158 -65.5 232.5t-176.5 74.5q-109 0 -173 -74.5t-64 -232.5z" />
<glyph unicode="&#x150;" horiz-adv-x="1476" d="M59 707q0 333 182.5 530t491.5 197q313 0 498.5 -197t185.5 -530t-185.5 -530t-498.5 -197q-309 0 -491.5 197t-182.5 530zM389 707q0 -211 93 -335t251 -124q163 0 260 124.5t97 334.5t-97 334t-260 124q-158 0 -251 -123.5t-93 -334.5zM410 1542l204 234h244l-235 -234 h-213zM791 1542l206 234h281l-277 -234h-210z" />
<glyph unicode="&#x151;" horiz-adv-x="1202" d="M68 520q0 132 40.5 237t112.5 173t169 103.5t212 35.5t212 -35.5t168.5 -103.5t112 -173t40.5 -237q0 -172 -70 -296.5t-189.5 -185.5t-273.5 -61t-273.5 61t-190 185.5t-70.5 296.5zM279 1180l204 233h244l-235 -233h-213zM365 520q0 -154 64 -226.5t173 -72.5 q111 0 176.5 72.5t65.5 226.5q0 158 -65.5 232.5t-176.5 74.5q-109 0 -173 -74.5t-64 -232.5zM659 1180l207 233h281l-277 -233h-211z" />
<glyph unicode="&#x152;" horiz-adv-x="2207" d="M59 707q0 333 182.5 530t491.5 197q297 0 484 -181v160h899v-262h-607v-311h549v-262h-549v-314h607v-264h-899v160q-186 -180 -484 -180q-309 0 -491.5 197t-182.5 530zM389 707q0 -211 93 -335t251 -124q163 0 260 124.5t97 334.5t-97 334t-260 124q-158 0 -251 -123.5 t-93 -334.5z" />
<glyph unicode="&#x153;" horiz-adv-x="1939" d="M68 520q0 132 40.5 237t112.5 173t169 103.5t212 35.5q250 0 395 -154q138 154 369 154q214 0 349.5 -136.5t135.5 -357.5q0 -79 -10 -120h-680q7 -117 68.5 -176.5t169.5 -59.5q81 0 140 24t112 91l190 -139q-99 -114 -204.5 -164.5t-241.5 -50.5q-248 0 -396 151 q-148 -154 -397 -154q-154 0 -273.5 61t-190 185.5t-70.5 296.5zM365 520q0 -154 64 -226.5t173 -72.5q111 0 176.5 72.5t65.5 226.5q0 158 -65.5 232.5t-176.5 74.5q-109 0 -173 -74.5t-64 -232.5zM1161 647h395q-3 86 -51 140.5t-141 54.5q-92 0 -143.5 -52t-59.5 -143z " />
<glyph unicode="&#x154;" horiz-adv-x="1382" d="M150 -2v1415h679q207 0 339 -112.5t132 -305.5q0 -272 -260 -381l334 -616h-340l-276 571h-301v-571h-307zM459 811h352q95 3 141.5 48.5t46.5 123.5q0 80 -49.5 125t-148.5 45h-342v-342zM545 1532l229 244h301l-323 -244h-207z" />
<glyph unicode="&#x155;" horiz-adv-x="804" d="M131 0v1049h291v-162h6q36 84 100.5 131t137.5 47q79 0 118 -16v-248q-65 6 -108 -2q-112 -16 -178 -102.5t-66 -235.5v-461h-301zM354 1169l230 244h301l-324 -244h-207z" />
<glyph unicode="&#x156;" horiz-adv-x="1382" d="M150 -2v1415h679q207 0 339 -112.5t132 -305.5q0 -272 -260 -381l334 -616h-340l-276 571h-301v-571h-307zM389 -436l139 303h289l-264 -303h-164zM459 811h352q95 3 141.5 48.5t46.5 123.5q0 80 -49.5 125t-148.5 45h-342v-342z" />
<glyph unicode="&#x157;" horiz-adv-x="804" d="M-2 -436l139 303h289l-264 -303h-164zM131 0v1049h291v-162h6q36 84 100.5 131t137.5 47q79 0 118 -16v-248q-65 6 -108 -2q-112 -16 -178 -102.5t-66 -235.5v-461h-301z" />
<glyph unicode="&#x158;" horiz-adv-x="1382" d="M150 -2v1415h679q207 0 339 -112.5t132 -305.5q0 -272 -260 -381l334 -616h-340l-276 571h-301v-571h-307zM324 1776h223l100 -125l103 125h225l-246 -258h-162zM459 811h352q95 3 141.5 48.5t46.5 123.5q0 80 -49.5 125t-148.5 45h-342v-342z" />
<glyph unicode="&#x159;" horiz-adv-x="804" d="M131 0v1049h291v-162h6q36 84 100.5 131t137.5 47q79 0 118 -16v-248q-65 6 -108 -2q-112 -16 -178 -102.5t-66 -235.5v-461h-301zM133 1413h223l101 -125l102 125h225l-245 -258h-162z" />
<glyph unicode="&#x15a;" horiz-adv-x="1173" d="M39 330l221 170q69 -125 161 -188.5t195 -63.5q91 0 146 45.5t55 118.5q0 29 -8.5 53t-29 43.5t-41.5 34.5t-59 30t-68 25.5t-81 26.5q-52 16 -86 28t-82 32.5t-79.5 41t-66.5 52t-55.5 67t-34 84t-13.5 104.5q0 189 134 294.5t349 105.5q280 0 477 -215l-176 -191 q-130 160 -313 160q-76 0 -121 -30t-45 -85q0 -27 12.5 -49.5t30.5 -38.5t54 -33.5t66.5 -29t84.5 -29.5q56 -18 90.5 -30t88 -35.5t87 -46t73 -58t62 -75t38 -94.5t15.5 -118q0 -205 -139.5 -328.5t-364.5 -123.5q-182 0 -331 88t-246 258zM471 1532l229 244h301l-323 -244 h-207z" />
<glyph unicode="&#x15b;" horiz-adv-x="1021" d="M49 156l135 186q128 -128 293 -139q83 -6 139 16.5t60 75.5q1 19 -4 34t-21 27.5t-30 20.5t-46 17.5t-53 14.5t-65 15q-46 11 -75.5 19.5t-71 23.5t-68.5 30.5t-57 40t-47 52.5t-28.5 67t-11.5 86q0 111 57.5 185.5t150.5 107.5t216 33q247 0 414 -151l-121 -183 q-53 48 -111.5 77t-144.5 40q-82 9 -130 -9t-56 -59q-3 -13 -0.5 -24t11.5 -20.5t19 -17.5t27.5 -15.5t32.5 -13t39.5 -12t42 -11t46 -11.5t46.5 -12q57 -16 98.5 -30.5t87.5 -41t74 -59t47 -82.5t19 -112q0 -160 -114.5 -252.5t-322.5 -92.5q-127 0 -255 47t-222 132z M399 1169l230 244h301l-324 -244h-207z" />
<glyph unicode="&#x15e;" horiz-adv-x="1173" d="M39 330l221 170q69 -125 161 -188.5t195 -63.5q91 0 146 45.5t55 118.5q0 29 -8.5 53t-29 43.5t-41.5 34.5t-59 30t-68 25.5t-81 26.5q-52 16 -86 28t-82 32.5t-79.5 41t-66.5 52t-55.5 67t-34 84t-13.5 104.5q0 189 134 294.5t349 105.5q280 0 477 -215l-176 -191 q-130 160 -313 160q-76 0 -121 -30t-45 -85q0 -27 12.5 -49.5t30.5 -38.5t54 -33.5t66.5 -29t84.5 -29.5q56 -18 90.5 -30t88 -35.5t87 -46t73 -58t62 -75t38 -94.5t15.5 -118q0 -193 -123.5 -314t-326.5 -136l-68 -99l29 -8q61 -17 101 -61.5t40 -118.5q0 -98 -63.5 -147.5 t-155.5 -49.5q-84 0 -147 40t-89 104l140 65q7 -30 30.5 -46.5t53.5 -16.5q33 0 54 18t21 47q0 26 -17.5 47.5t-51.5 30.5l-160 45l92 162q-137 28 -250 112t-190 220z" />
<glyph unicode="&#x15f;" horiz-adv-x="1021" d="M49 156l135 186q128 -128 293 -139q83 -6 139 16.5t60 75.5q1 19 -4 34t-21 27.5t-30 20.5t-46 17.5t-53 14.5t-65 15q-46 11 -75.5 19.5t-71 23.5t-68.5 30.5t-57 40t-47 52.5t-28.5 67t-11.5 86q0 111 57.5 185.5t150.5 107.5t216 33q247 0 414 -151l-121 -183 q-53 48 -111.5 77t-144.5 40q-82 9 -130 -9t-56 -59q-3 -13 -0.5 -24t11.5 -20.5t19 -17.5t27.5 -15.5t32.5 -13t39.5 -12t42 -11t46 -11.5t46.5 -12q57 -16 98.5 -30.5t87.5 -41t74 -59t47 -82.5t19 -112q0 -137 -84.5 -225t-241.5 -111l-70 -101l29 -8q61 -17 101 -61.5 t40 -118.5q0 -98 -63.5 -147.5t-155.5 -49.5q-84 0 -146.5 40t-88.5 104l139 65q7 -30 30.5 -46.5t53.5 -16.5q33 0 54.5 18t21.5 47q0 26 -18 47.5t-52 30.5l-160 45l84 150q-107 14 -209 58.5t-178 113.5z" />
<glyph unicode="&#x160;" horiz-adv-x="1173" d="M39 330l221 170q69 -125 161 -188.5t195 -63.5q91 0 146 45.5t55 118.5q0 29 -8.5 53t-29 43.5t-41.5 34.5t-59 30t-68 25.5t-81 26.5q-52 16 -86 28t-82 32.5t-79.5 41t-66.5 52t-55.5 67t-34 84t-13.5 104.5q0 189 134 294.5t349 105.5q280 0 477 -215l-176 -191 q-130 160 -313 160q-76 0 -121 -30t-45 -85q0 -27 12.5 -49.5t30.5 -38.5t54 -33.5t66.5 -29t84.5 -29.5q56 -18 90.5 -30t88 -35.5t87 -46t73 -58t62 -75t38 -94.5t15.5 -118q0 -205 -139.5 -328.5t-364.5 -123.5q-182 0 -331 88t-246 258zM250 1776h223l100 -125l103 125 h225l-246 -258h-161z" />
<glyph unicode="&#x161;" horiz-adv-x="1021" d="M49 156l135 186q128 -128 293 -139q83 -6 139 16.5t60 75.5q1 19 -4 34t-21 27.5t-30 20.5t-46 17.5t-53 14.5t-65 15q-46 11 -75.5 19.5t-71 23.5t-68.5 30.5t-57 40t-47 52.5t-28.5 67t-11.5 86q0 111 57.5 185.5t150.5 107.5t216 33q247 0 414 -151l-121 -183 q-53 48 -111.5 77t-144.5 40q-82 9 -130 -9t-56 -59q-3 -13 -0.5 -24t11.5 -20.5t19 -17.5t27.5 -15.5t32.5 -13t39.5 -12t42 -11t46 -11.5t46.5 -12q57 -16 98.5 -30.5t87.5 -41t74 -59t47 -82.5t19 -112q0 -160 -114.5 -252.5t-322.5 -92.5q-127 0 -255 47t-222 132z M178 1413h223l101 -125l102 125h225l-245 -258h-162z" />
<glyph unicode="&#x162;" horiz-adv-x="1183" d="M14 1151v262h1155v-262h-424v-1151h-57l-80 -115l29 -8q61 -17 101 -61.5t40 -118.5q0 -98 -63.5 -147.5t-155.5 -49.5q-84 0 -146.5 40t-88.5 104l139 65q7 -30 30.5 -46.5t53.5 -16.5q33 0 54.5 18t21.5 47q0 26 -18 47.5t-52 30.5l-160 45l94 166h-51v1151h-422z" />
<glyph unicode="&#x163;" horiz-adv-x="733" d="M20 854v195h146v364h299v-364h217v-195h-217v-514q0 -58 21 -82.5t71 -24.5h125v-233h-119l-80 -115l29 -8q61 -17 101 -61.5t40 -118.5q0 -98 -63.5 -147.5t-155.5 -49.5q-84 0 -146.5 40t-88.5 104l139 65q7 -30 30.5 -46.5t53.5 -16.5q33 0 54.5 18t21.5 47 q0 26 -18 47.5t-52 30.5l-160 45l94 166h52q-118 0 -183 70t-65 196v588h-146z" />
<glyph unicode="&#x164;" horiz-adv-x="1183" d="M14 1151v262h1155v-262h-424v-1151h-309v1151h-422zM260 1776h223l101 -125l102 125h225l-245 -258h-162z" />
<glyph unicode="&#x165;" horiz-adv-x="878" d="M20 854v195h146v364h299v-364h217v-195h-217v-514q0 -58 21 -82.5t71 -24.5h125v-233h-268q-118 0 -183 70t-65 196v588h-146zM580 1112l127 315h-111v293h328v-293h-6l-199 -315h-139z" />
<glyph unicode="&#x166;" horiz-adv-x="1183" d="M14 1151v262h1155v-262h-424v-377h170v-137h-170v-637h-309v637h-182v137h182v377h-422z" />
<glyph unicode="&#x167;" horiz-adv-x="733" d="M0 455v137h166v262h-146v195h146v364h299v-364h217v-195h-217v-262h168v-137h-168v-115q0 -58 21 -82.5t71 -24.5h125v-233h-268q-118 0 -183 70t-65 196v189h-166z" />
<glyph unicode="&#x168;" horiz-adv-x="1421" d="M141 535v878h312v-889q0 -125 66.5 -193.5t187.5 -68.5q125 0 193.5 69t68.5 193v889h311v-868q0 -271 -144 -418t-429 -147q-281 0 -423.5 145t-142.5 410zM334 1507q0 273 217 273q46 0 84.5 -12.5t64 -30t47.5 -34.5t47 -29.5t52 -12.5q78 0 78 115h170 q0 -137 -58 -205t-162 -68q-54 0 -99.5 19t-71.5 42.5t-58 42.5t-63 19q-71 0 -74 -119h-174z" />
<glyph unicode="&#x169;" horiz-adv-x="1255" d="M133 356v693h301v-617q0 -88 49 -138t135 -50q98 0 152.5 58.5t54.5 148.5v598h299v-1049h-295v131h-16q-49 -76 -132 -116t-185 -40q-172 0 -267.5 107t-95.5 274zM250 1145q0 272 217 272q46 0 84.5 -12.5t64 -29.5t47.5 -34.5t47 -30t52 -12.5q78 0 78 115h170 q0 -137 -57.5 -204.5t-161.5 -67.5q-44 0 -82 12.5t-64 30.5t-49 36.5t-47.5 31t-50.5 12.5q-71 0 -74 -119h-174z" />
<glyph unicode="&#x16a;" horiz-adv-x="1421" d="M141 535v878h312v-889q0 -125 66.5 -193.5t187.5 -68.5q125 0 193.5 69t68.5 193v889h311v-868q0 -271 -144 -418t-429 -147q-281 0 -423.5 145t-142.5 410zM428 1589v154h576v-154h-576z" />
<glyph unicode="&#x16b;" horiz-adv-x="1255" d="M133 356v693h301v-617q0 -88 49 -138t135 -50q98 0 152.5 58.5t54.5 148.5v598h299v-1049h-295v131h-16q-49 -76 -132 -116t-185 -40q-172 0 -267.5 107t-95.5 274zM344 1227v153h576v-153h-576z" />
<glyph unicode="&#x16e;" horiz-adv-x="1421" d="M141 535v878h312v-889q0 -125 66.5 -193.5t187.5 -68.5q125 0 193.5 69t68.5 193v889h311v-868q0 -271 -144 -418t-429 -147q-281 0 -423.5 145t-142.5 410zM494 1704q0 91 64 154t155 63t155 -63t64 -154q0 -92 -64 -157.5t-155 -65.5q-92 0 -155.5 64.5t-63.5 158.5z M631 1702q0 -36 23 -59t59 -23q34 0 59 24t25 58t-24.5 58t-59.5 24q-38 0 -60 -22t-22 -60z" />
<glyph unicode="&#x16f;" horiz-adv-x="1255" d="M133 356v693h301v-617q0 -88 49 -138t135 -50q98 0 152.5 58.5t54.5 148.5v598h299v-1049h-295v131h-16q-49 -76 -132 -116t-185 -40q-172 0 -267.5 107t-95.5 274zM410 1341q0 91 64 154.5t155 63.5t155 -63.5t64 -154.5q0 -92 -64 -157.5t-155 -65.5q-92 0 -155.5 64.5 t-63.5 158.5zM547 1339q0 -36 23 -59t59 -23q34 0 59 24t25 58t-24.5 58t-59.5 24q-38 0 -60 -22t-22 -60z" />
<glyph unicode="&#x170;" horiz-adv-x="1421" d="M141 535v878h312v-889q0 -125 66.5 -193.5t187.5 -68.5q125 0 193.5 69t68.5 193v889h311v-868q0 -271 -144 -418t-429 -147q-281 0 -423.5 145t-142.5 410zM389 1542l205 234h244l-236 -234h-213zM770 1542l207 234h280l-276 -234h-211z" />
<glyph unicode="&#x171;" horiz-adv-x="1255" d="M133 356v693h301v-617q0 -88 49 -138t135 -50q98 0 152.5 58.5t54.5 148.5v598h299v-1049h-295v131h-16q-49 -76 -132 -116t-185 -40q-172 0 -267.5 107t-95.5 274zM305 1180l205 233h244l-236 -233h-213zM686 1180l207 233h281l-277 -233h-211z" />
<glyph unicode="&#x172;" horiz-adv-x="1421" d="M141 535v878h312v-889q0 -125 66.5 -193.5t187.5 -68.5q125 0 193.5 69t68.5 193v889h311v-868q0 -349 -229 -486q-133 -101 -133 -188q0 -36 17 -54t46 -18q23 0 47.5 15t40.5 43l143 -103q-82 -125 -229 -125q-35 0 -67.5 7t-63.5 23t-53.5 40.5t-36.5 62t-14 84.5 q0 74 38 138q-54 -4 -79 -4q-281 0 -423.5 145t-142.5 410z" />
<glyph unicode="&#x173;" horiz-adv-x="1255" d="M133 356v693h301v-617q0 -88 49 -138t135 -50q98 0 152.5 58.5t54.5 148.5v598h299v-1049h6q-190 -129 -190 -231q0 -35 17.5 -53.5t46.5 -18.5q54 0 88 57l143 -102q-82 -125 -229 -125q-44 0 -84 11.5t-75 35.5t-56 68t-21 102q0 147 160 256h-101v131h-16 q-49 -76 -132 -116t-185 -40q-172 0 -267.5 107t-95.5 274z" />
<glyph unicode="&#x174;" horiz-adv-x="1961" d="M10 1413h322l209 -1149h12l252 1149h354l250 -1149h12l209 1149h322l-293 -1413h-445l-235 1073l-231 -1073h-445zM653 1516l244 262h162l248 -262h-228l-100 131l-102 -131h-224z" />
<glyph unicode="&#x175;" horiz-adv-x="1675" d="M2 1049h320l165 -801l213 801h271l213 -805l170 805h319l-276 -1049h-391l-172 668l-166 -672h-394zM514 1151l244 262h162l247 -262h-227l-100 131l-103 -131h-223z" />
<glyph unicode="&#x176;" horiz-adv-x="1404" d="M-4 1413h350l363 -579l348 579h350l-553 -862v-551h-305v551zM377 1513l244 263h161l248 -263h-227l-101 132l-102 -132h-223z" />
<glyph unicode="&#x177;" horiz-adv-x="1052" d="M-8 1049h319l211 -703h15l213 703h321l-405 -1069q-33 -87 -70.5 -146t-83 -99t-109 -61.5t-138 -30t-181.5 -8.5v236q230 0 291 156zM207 1151l244 262h161l248 -262h-227l-101 131l-102 -131h-223z" />
<glyph unicode="&#x178;" horiz-adv-x="1404" d="M-4 1413h350l363 -579l348 579h350l-553 -862v-551h-305v551zM395 1542v234h226v-234h-226zM782 1542v234h226v-234h-226z" />
<glyph unicode="&#x179;" horiz-adv-x="1232" d="M35 0v203l749 948h-704v262h1118v-219l-727 -932h727v-262h-1163zM504 1532l229 244h301l-323 -244h-207z" />
<glyph unicode="&#x17a;" horiz-adv-x="1026" d="M63 0v211l535 602h-530v236h895v-224l-510 -587h505v-238h-895zM403 1169l230 244h301l-324 -244h-207z" />
<glyph unicode="&#x17b;" horiz-adv-x="1232" d="M35 0v203l749 948h-704v262h1118v-219l-727 -932h727v-262h-1163zM496 1544v232h221v-232h-221z" />
<glyph unicode="&#x17c;" horiz-adv-x="1026" d="M63 0v211l535 602h-530v236h895v-224l-510 -587h505v-238h-895zM395 1182v231h221v-231h-221z" />
<glyph unicode="&#x17d;" horiz-adv-x="1232" d="M35 0v203l749 948h-704v262h1118v-219l-727 -932h727v-262h-1163zM283 1776h223l100 -125l103 125h225l-246 -258h-162z" />
<glyph unicode="&#x17e;" horiz-adv-x="1026" d="M63 0v211l535 602h-530v236h895v-224l-510 -587h505v-238h-895zM182 1413h224l100 -125l102 125h226l-246 -258h-162z" />
<glyph unicode="&#x192;" horiz-adv-x="956" d="M88 -188q108 0 155.5 41t47.5 147h20v854h-190v195h194v71q0 133 85 213t247 80h174v-215h-157q-54 0 -54 -68v-81h211v-195h-211v-854h-18q0 -116 -38 -201.5t-108 -135t-158.5 -72.5t-199.5 -23v244z" />
<glyph unicode="&#x1cd;" horiz-adv-x="1386" d="M-2 0l491 1413h406l494 -1413h-334l-99 315h-522l-100 -315h-336zM369 1776h223l100 -125l103 125h225l-246 -258h-162zM512 563h367l-179 572h-8z" />
<glyph unicode="&#x1ce;" horiz-adv-x="1107" d="M63 268q0 191 197 289q22 10 48.5 20.5t49 19t58 19t56.5 16.5t65 17.5t63 16.5t71 18t70 18q-3 78 -49.5 112t-150.5 34q-91 0 -154 -30.5t-119 -100.5l-184 141q76 103 185.5 157t269.5 54q80 0 149 -12.5t128 -40t101 -68.5t65.5 -100.5t23.5 -132.5v-715h-265v117 q-70 -68 -162.5 -104t-175.5 -36q-155 0 -247.5 78.5t-92.5 212.5zM207 1413h223l100 -125l103 125h225l-246 -258h-161zM377 299q0 -49 31.5 -74.5t83.5 -23.5q146 3 249 121v184q-220 -64 -272 -90q-92 -44 -92 -117z" />
<glyph unicode="&#x1cf;" horiz-adv-x="610" d="M-25 1776h224l100 -125l102 125h226l-246 -258h-162zM150 0v1413h311v-1413h-311z" />
<glyph unicode="&#x1d0;" horiz-adv-x="569" d="M-41 1413h223l101 -125l102 125h225l-245 -258h-162zM135 0v1049h299v-1049h-299z" />
<glyph unicode="&#x1d1;" horiz-adv-x="1476" d="M59 707q0 333 182.5 530t491.5 197q313 0 498.5 -197t185.5 -530t-185.5 -530t-498.5 -197q-309 0 -491.5 197t-182.5 530zM389 707q0 -211 93 -335t251 -124q163 0 260 124.5t97 334.5t-97 334t-260 124q-158 0 -251 -123.5t-93 -334.5zM408 1776h223l100 -125l103 125 h225l-246 -258h-162z" />
<glyph unicode="&#x1d2;" horiz-adv-x="1202" d="M68 520q0 132 40.5 237t112.5 173t169 103.5t212 35.5t212 -35.5t168.5 -103.5t112 -173t40.5 -237q0 -172 -70 -296.5t-189.5 -185.5t-273.5 -61t-273.5 61t-190 185.5t-70.5 296.5zM276 1413h224l100 -125l102 125h226l-246 -258h-162zM365 520q0 -154 64 -226.5 t173 -72.5q111 0 176.5 72.5t65.5 226.5q0 158 -65.5 232.5t-176.5 74.5q-109 0 -173 -74.5t-64 -232.5z" />
<glyph unicode="&#x1d3;" horiz-adv-x="1421" d="M141 535v878h312v-889q0 -125 66.5 -193.5t187.5 -68.5q125 0 193.5 69t68.5 193v889h311v-868q0 -271 -144 -418t-429 -147q-281 0 -423.5 145t-142.5 410zM387 1776h223l101 -125l102 125h225l-245 -258h-162z" />
<glyph unicode="&#x1d4;" horiz-adv-x="1255" d="M133 356v693h301v-617q0 -88 49 -138t135 -50q98 0 152.5 58.5t54.5 148.5v598h299v-1049h-295v131h-16q-49 -76 -132 -116t-185 -40q-172 0 -267.5 107t-95.5 274zM303 1413h223l101 -125l102 125h225l-245 -258h-162z" />
<glyph unicode="&#x1d5;" horiz-adv-x="1421" d="M141 535v878h312v-889q0 -125 66.5 -193.5t187.5 -68.5q125 0 193.5 69t68.5 193v889h311v-868q0 -271 -144 -418t-429 -147q-281 0 -423.5 145t-142.5 410zM406 1542v234h225v-234h-225zM428 1954v153h576v-153h-576zM793 1542v234h225v-234h-225z" />
<glyph unicode="&#x1d6;" horiz-adv-x="1255" d="M133 356v693h301v-617q0 -88 49 -138t135 -50q98 0 152.5 58.5t54.5 148.5v598h299v-1049h-295v131h-16q-49 -76 -132 -116t-185 -40q-172 0 -267.5 107t-95.5 274zM322 1180v233h225v-233h-225zM344 1591v154h576v-154h-576zM709 1180v233h225v-233h-225z" />
<glyph unicode="&#x1d7;" horiz-adv-x="1421" d="M141 535v878h312v-889q0 -125 66.5 -193.5t187.5 -68.5q125 0 193.5 69t68.5 193v889h311v-868q0 -271 -144 -418t-429 -147q-281 0 -423.5 145t-142.5 410zM406 1542v234h225v-234h-225zM608 1896l230 244h301l-324 -244h-207zM793 1542v234h225v-234h-225z" />
<glyph unicode="&#x1d8;" horiz-adv-x="1255" d="M133 356v693h301v-617q0 -88 49 -138t135 -50q98 0 152.5 58.5t54.5 148.5v598h299v-1049h-295v131h-16q-49 -76 -132 -116t-185 -40q-172 0 -267.5 107t-95.5 274zM322 1180v233h225v-233h-225zM524 1534l230 244h301l-324 -244h-207zM709 1180v233h225v-233h-225z" />
<glyph unicode="&#x1d9;" horiz-adv-x="1421" d="M141 535v878h312v-889q0 -125 66.5 -193.5t187.5 -68.5q125 0 193.5 69t68.5 193v889h311v-868q0 -271 -144 -418t-429 -147q-281 0 -423.5 145t-142.5 410zM387 2140h223l101 -125l102 125h225l-245 -258h-162zM406 1542v234h225v-234h-225zM793 1542v234h225v-234h-225 z" />
<glyph unicode="&#x1da;" horiz-adv-x="1255" d="M133 356v693h301v-617q0 -88 49 -138t135 -50q98 0 152.5 58.5t54.5 148.5v598h299v-1049h-295v131h-16q-49 -76 -132 -116t-185 -40q-172 0 -267.5 107t-95.5 274zM303 1778h223l101 -125l102 125h225l-245 -258h-162zM322 1180v233h225v-233h-225zM709 1180v233h225 v-233h-225z" />
<glyph unicode="&#x1db;" horiz-adv-x="1421" d="M141 535v878h312v-889q0 -125 66.5 -193.5t187.5 -68.5q125 0 193.5 69t68.5 193v889h311v-868q0 -271 -144 -418t-429 -147q-281 0 -423.5 145t-142.5 410zM289 2140h303l227 -244h-215zM406 1542v234h225v-234h-225zM793 1542v234h225v-234h-225z" />
<glyph unicode="&#x1dc;" horiz-adv-x="1255" d="M133 356v693h301v-617q0 -88 49 -138t135 -50q98 0 152.5 58.5t54.5 148.5v598h299v-1049h-295v131h-16q-49 -76 -132 -116t-185 -40q-172 0 -267.5 107t-95.5 274zM205 1778h303l227 -244h-215zM322 1180v233h225v-233h-225zM709 1180v233h225v-233h-225z" />
<glyph unicode="&#x1fe;" horiz-adv-x="1476" d="M53 160l115 114q-109 182 -109 433q0 333 182.5 530t491.5 197q266 0 447 -148l96 96l135 -131l-106 -108q112 -179 112 -436q0 -333 -185.5 -530t-498.5 -197q-267 0 -442 149l-101 -100zM389 707q0 -95 23 -189l553 553q-91 94 -232 94q-158 0 -251 -123.5t-93 -334.5z M506 344q90 -96 227 -96q163 0 260 124.5t97 334.5q0 96 -27 196zM629 1532l229 244h301l-323 -244h-207z" />
<glyph unicode="&#x1ff;" horiz-adv-x="1202" d="M68 520q0 132 40.5 237t112.5 173t169 103.5t212 35.5q205 0 344 -106l39 38l94 -92l-43 -43q99 -138 99 -346q0 -172 -70 -296.5t-189.5 -185.5t-273.5 -61q-203 0 -344 107l-39 -39l-98 92l43 43q-96 138 -96 340zM365 520q0 -76 14 -125l379 379q-59 53 -156 53 q-109 0 -173 -74.5t-64 -232.5zM446 274q59 -53 156 -53q111 0 176.5 72.5t65.5 226.5q0 72 -17 135zM498 1169l229 244h301l-323 -244h-207z" />
<glyph unicode="&#x218;" horiz-adv-x="1173" d="M39 330l221 170q69 -125 161 -188.5t195 -63.5q91 0 146 45.5t55 118.5q0 29 -8.5 53t-29 43.5t-41.5 34.5t-59 30t-68 25.5t-81 26.5q-52 16 -86 28t-82 32.5t-79.5 41t-66.5 52t-55.5 67t-34 84t-13.5 104.5q0 189 134 294.5t349 105.5q280 0 477 -215l-176 -191 q-130 160 -313 160q-76 0 -121 -30t-45 -85q0 -27 12.5 -49.5t30.5 -38.5t54 -33.5t66.5 -29t84.5 -29.5q56 -18 90.5 -30t88 -35.5t87 -46t73 -58t62 -75t38 -94.5t15.5 -118q0 -205 -139.5 -328.5t-364.5 -123.5q-182 0 -331 88t-246 258zM295 -434l139 303h289l-264 -303 h-164z" />
<glyph unicode="&#x219;" horiz-adv-x="1021" d="M49 156l135 186q128 -128 293 -139q83 -6 139 16.5t60 75.5q1 19 -4 34t-21 27.5t-30 20.5t-46 17.5t-53 14.5t-65 15q-46 11 -75.5 19.5t-71 23.5t-68.5 30.5t-57 40t-47 52.5t-28.5 67t-11.5 86q0 111 57.5 185.5t150.5 107.5t216 33q247 0 414 -151l-121 -183 q-53 48 -111.5 77t-144.5 40q-82 9 -130 -9t-56 -59q-3 -13 -0.5 -24t11.5 -20.5t19 -17.5t27.5 -15.5t32.5 -13t39.5 -12t42 -11t46 -11.5t46.5 -12q57 -16 98.5 -30.5t87.5 -41t74 -59t47 -82.5t19 -112q0 -160 -114.5 -252.5t-322.5 -92.5q-127 0 -255 47t-222 132z M260 -436l139 303h289l-264 -303h-164z" />
<glyph unicode="&#x21a;" horiz-adv-x="1183" d="M14 1151v262h1155v-262h-424v-1151h-309v1151h-422zM301 -436l139 303h289l-264 -303h-164z" />
<glyph unicode="&#x21b;" horiz-adv-x="733" d="M20 854v195h146v364h299v-364h217v-195h-217v-514q0 -58 21 -82.5t71 -24.5h125v-233h-268q-118 0 -183 70t-65 196v588h-146zM176 -436l139 303h289l-264 -303h-164z" />
<glyph unicode="&#x237;" horiz-adv-x="563" d="M-53 -129h84q46 0 73 26.5t27 73.5v1078h299v-1072q0 -154 -84 -248t-250 -94h-149v236z" />
<glyph unicode="&#x2c6;" horiz-adv-x="774" d="M61 1090l244 262h162l248 -262h-228l-100 131l-102 -131h-224z" />
<glyph unicode="&#x2c7;" horiz-adv-x="774" d="M61 1364h224l100 -125l102 125h226l-246 -258h-162z" />
<glyph unicode="&#x2d8;" horiz-adv-x="724" d="M43 1362h184q0 -51 37 -83t94 -32q59 0 96.5 32t37.5 83h190q0 -123 -90 -196.5t-234 -73.5q-140 0 -227.5 73t-87.5 197z" />
<glyph unicode="&#x2d9;" horiz-adv-x="331" d="M55 1133v231h221v-231h-221z" />
<glyph unicode="&#x2da;" horiz-adv-x="536" d="M43 1321q0 93 64.5 159t158.5 66t161 -66t67 -159q0 -95 -66 -160t-162 -65t-159.5 65.5t-63.5 159.5zM166 1325q0 -46 28.5 -76t71.5 -30q46 0 75.5 29.5t29.5 76.5q0 44 -28 71t-77 27q-45 0 -72.5 -27.5t-27.5 -70.5z" />
<glyph unicode="&#x2db;" horiz-adv-x="573" d="M98 -256q0 44 14.5 84.5t33 67t49 53.5t47.5 39t43 28l174 -16q-191 -130 -191 -231q0 -35 17.5 -53.5t46.5 -18.5q54 0 88 57l143 -102q-82 -125 -229 -125q-44 0 -84 11.5t-75 35.5t-56 68t-21 102z" />
<glyph unicode="&#x2dc;" horiz-adv-x="847" d="M45 1079q0 273 217 273q46 0 84.5 -12.5t64 -30t47.5 -34.5t47 -29.5t52 -12.5q78 0 78 115h170q0 -137 -57.5 -205t-161.5 -68q-44 0 -82 12.5t-64 30.5t-49 36.5t-47.5 31t-50.5 12.5q-71 0 -74 -119h-174z" />
<glyph unicode="&#x2dd;" horiz-adv-x="954" d="M41 1130l205 234h243l-235 -234h-213zM422 1130l207 234h280l-276 -234h-211z" />
<glyph unicode="&#x300;" d="M-573 1364h303l227 -244h-215z" />
<glyph unicode="&#x301;" d="M-567 1120l229 244h301l-323 -244h-207z" />
<glyph unicode="&#x302;" d="M-713 1090l244 262h162l248 -262h-228l-100 131l-102 -131h-224z" />
<glyph unicode="&#x303;" d="M-803 1079q0 273 217 273q46 0 84.5 -12.5t64 -30t47.5 -34.5t47 -29.5t52 -12.5q78 0 78 115h170q0 -137 -57.5 -205t-161.5 -68q-44 0 -82 12.5t-64 30.5t-49 36.5t-47.5 31t-50.5 12.5q-71 0 -74 -119h-174z" />
<glyph unicode="&#x304;" d="M-639 1178v153h576v-153h-576z" />
<glyph unicode="&#x306;" d="M-682 1362h184q0 -51 37 -83t94 -32q59 0 96.5 32t37.5 83h190q0 -123 -90 -196.5t-234 -73.5q-140 0 -227.5 73t-87.5 197z" />
<glyph unicode="&#x307;" d="M-276 1133v231h221v-231h-221z" />
<glyph unicode="&#x308;" d="M-668 1130v234h226v-234h-226zM-281 1130v234h226v-234h-226z" />
<glyph unicode="&#x30a;" d="M-510 1325q0 91 64 154t155 63t155 -63t64 -154q0 -92 -64 -157.5t-155 -65.5q-92 0 -155.5 64.5t-63.5 158.5zM-373 1323q0 -36 23 -59t59 -23q34 0 59 24t25 58t-24.5 58t-59.5 24q-38 0 -60 -22t-22 -60z" />
<glyph unicode="&#x30b;" d="M-913 1130l204 234h244l-235 -234h-213zM-532 1130l206 234h281l-277 -234h-210z" />
<glyph unicode="&#x30c;" d="M-713 1364h224l100 -125l102 125h226l-246 -258h-162z" />
<glyph unicode="&#x312;" d="M-381 1143l264 270h164l-139 -270h-289z" />
<glyph unicode="&#x326;" d="M-463 -436l139 303h289l-264 -303h-164z" />
<glyph unicode="&#x327;" d="M-498 -356l140 65q7 -30 30.5 -46.5t53.5 -16.5q33 0 54 18t21 47q0 26 -17.5 47.5t-51.5 30.5l-160 45l94 166h201l-80 -115l29 -8q61 -17 101 -61.5t40 -118.5q0 -98 -63.5 -147.5t-155.5 -49.5q-84 0 -147 40t-89 104z" />
<glyph unicode="&#x328;" d="M-475 -256q0 44 14.5 84.5t33 67t48.5 53.5t47 39t43 28l174 -16q-190 -129 -190 -231q0 -36 17 -54t46 -18q54 0 88 57l144 -102q-82 -125 -230 -125q-35 0 -67.5 7t-63.5 23t-53.5 40.5t-36.5 62t-14 84.5z" />
<glyph unicode="&#x335;" d="M-969 514v137h662v-137h-662z" />
<glyph unicode="&#x336;" d="M-1432 481v176h1387v-176h-1387z" />
<glyph unicode="&#x337;" d="M-1075 154v307l897 698v-328z" />
<glyph unicode="&#x338;" d="M-1395 158l1223 1222l135 -131l-1220 -1222z" />
<glyph unicode="&#x3c0;" horiz-adv-x="1206" d="M135 756v243h840v-243h-82v-482q0 -34 18.5 -52.5t45 -15t47.5 26.5l71 -202q-76 -51 -172 -51q-116 0 -185 73.5t-69 167.5v535h-188v-756h-244v756h-82z" />
<glyph unicode="&#x1e80;" horiz-adv-x="1961" d="M10 1413h322l209 -1149h12l252 1149h354l250 -1149h12l209 1149h322l-293 -1413h-445l-235 1073l-231 -1073h-445zM555 1778h303l227 -244h-215z" />
<glyph unicode="&#x1e81;" horiz-adv-x="1675" d="M2 1049h320l165 -801l213 801h271l213 -805l170 805h319l-276 -1049h-391l-172 668l-166 -672h-394zM416 1413h303l227 -244h-215z" />
<glyph unicode="&#x1e82;" horiz-adv-x="1961" d="M10 1413h322l209 -1149h12l252 1149h354l250 -1149h12l209 1149h322l-293 -1413h-445l-235 1073l-231 -1073h-445zM874 1534l230 244h301l-324 -244h-207z" />
<glyph unicode="&#x1e83;" horiz-adv-x="1675" d="M2 1049h320l165 -801l213 801h271l213 -805l170 805h319l-276 -1049h-391l-172 668l-166 -672h-394zM735 1169l230 244h301l-324 -244h-207z" />
<glyph unicode="&#x1e84;" horiz-adv-x="1961" d="M10 1413h322l209 -1149h12l252 1149h354l250 -1149h12l209 1149h322l-293 -1413h-445l-235 1073l-231 -1073h-445zM672 1544v234h225v-234h-225zM1059 1544v234h225v-234h-225z" />
<glyph unicode="&#x1e85;" horiz-adv-x="1675" d="M2 1049h320l165 -801l213 801h271l213 -805l170 805h319l-276 -1049h-391l-172 668l-166 -672h-394zM532 1180v233h226v-233h-226zM920 1180v233h225v-233h-225z" />
<glyph unicode="&#x1ebc;" horiz-adv-x="1200" d="M150 0v1413h958v-262h-647v-311h586v-262h-586v-314h647v-264h-958zM252 1507q0 273 217 273q46 0 84.5 -12.5t64 -30t47.5 -34.5t47 -29.5t52 -12.5q78 0 78 115h170q0 -137 -57.5 -205t-161.5 -68q-44 0 -82 12.5t-64 30.5t-49 36.5t-47.5 31t-50.5 12.5 q-71 0 -74 -119h-174z" />
<glyph unicode="&#x1ebd;" horiz-adv-x="1132" d="M68 516q0 249 140 401t367 152q214 0 350 -136.5t136 -357.5q0 -79 -10 -120h-680q7 -117 68 -176.5t169 -59.5q81 0 140 24t112 91l191 -139q-99 -114 -205 -164.5t-242 -50.5q-154 0 -274 61.5t-191 184t-71 290.5zM190 1145q0 272 218 272q46 0 84 -12.5t63.5 -29.5 t48 -34.5t47 -30t51.5 -12.5q78 0 78 115h170q0 -137 -57.5 -204.5t-161.5 -67.5q-44 0 -82 12.5t-64 30.5t-49 36.5t-47.5 31t-50.5 12.5q-70 0 -73 -119h-175zM371 647h395q-3 86 -51.5 140.5t-141.5 54.5q-92 0 -143 -51.5t-59 -143.5z" />
<glyph unicode="&#x1ef2;" horiz-adv-x="1404" d="M-4 1413h350l363 -579l348 579h350l-553 -862v-551h-305v551zM279 1776h303l227 -244h-215z" />
<glyph unicode="&#x1ef3;" horiz-adv-x="1052" d="M-8 1049h319l211 -703h15l213 703h321l-405 -1069q-33 -87 -70.5 -146t-83 -99t-109 -61.5t-138 -30t-181.5 -8.5v236q230 0 291 156zM109 1413h303l227 -244h-215z" />
<glyph unicode="&#x1ef8;" horiz-adv-x="1404" d="M-4 1413h350l363 -579l348 579h350l-553 -862v-551h-305v551zM324 1507q0 273 217 273q46 0 84.5 -12.5t64 -30t47.5 -34.5t47 -29.5t52 -12.5q77 0 77 115h170q0 -137 -57.5 -205t-161.5 -68q-44 0 -82 12.5t-64 30.5t-49 36.5t-47.5 31t-50.5 12.5q-70 0 -73 -119h-174 z" />
<glyph unicode="&#x1ef9;" horiz-adv-x="1052" d="M-8 1049h319l211 -703h15l213 703h321l-405 -1069q-33 -87 -70.5 -146t-83 -99t-109 -61.5t-138 -30t-181.5 -8.5v236q230 0 291 156zM154 1145q0 272 217 272q46 0 84.5 -12.5t64 -29.5t47.5 -34.5t47 -30t52 -12.5q77 0 77 115h170q0 -137 -57.5 -204.5t-161.5 -67.5 q-44 0 -82 12.5t-64 30.5t-49 36.5t-47.5 31t-50.5 12.5q-70 0 -73 -119h-174z" />
<glyph unicode="&#x2000;" horiz-adv-x="1070" />
<glyph unicode="&#x2001;" horiz-adv-x="2140" />
<glyph unicode="&#x2002;" horiz-adv-x="1070" />
<glyph unicode="&#x2003;" horiz-adv-x="2140" />
<glyph unicode="&#x2004;" horiz-adv-x="713" />
<glyph unicode="&#x2005;" horiz-adv-x="535" />
<glyph unicode="&#x2006;" horiz-adv-x="356" />
<glyph unicode="&#x2007;" horiz-adv-x="356" />
<glyph unicode="&#x2008;" horiz-adv-x="267" />
<glyph unicode="&#x2009;" horiz-adv-x="428" />
<glyph unicode="&#x200a;" horiz-adv-x="118" />
<glyph unicode="&#x2010;" horiz-adv-x="1112" d="M162 401v234h788v-234h-788z" />
<glyph unicode="&#x2011;" horiz-adv-x="1112" d="M162 401v234h788v-234h-788z" />
<glyph unicode="&#x2012;" horiz-adv-x="1112" d="M162 401v234h788v-234h-788z" />
<glyph unicode="&#x2013;" horiz-adv-x="874" d="M35 395v246h807v-246h-807z" />
<glyph unicode="&#x2014;" horiz-adv-x="2048" d="M0 395v246h2048v-246h-2048z" />
<glyph unicode="&#x2018;" horiz-adv-x="524" d="M66 782v324h8l219 348h153l-141 -348h123v-324h-362z" />
<glyph unicode="&#x2019;" horiz-adv-x="526" d="M76 741l141 349h-123v323h363v-323h-8l-220 -349h-153z" />
<glyph unicode="&#x201a;" horiz-adv-x="557" d="M78 -348l141 348h-123v324h363v-324h-8l-220 -348h-153z" />
<glyph unicode="&#x201c;" horiz-adv-x="1032" d="M66 782v324h8l219 348h153l-141 -348h123v-324h-362zM573 782v324h9l219 348h153l-141 -348h123v-324h-363z" />
<glyph unicode="&#x201d;" horiz-adv-x="1038" d="M76 741l141 349h-123v323h363v-323h-8l-220 -349h-153zM588 741l141 349h-123v323h363v-323h-8l-220 -349h-153z" />
<glyph unicode="&#x201e;" horiz-adv-x="1069" d="M78 -348l141 348h-123v324h363v-324h-8l-220 -348h-153zM590 -348l141 348h-123v324h363v-324h-8l-220 -348h-153z" />
<glyph unicode="&#x2020;" horiz-adv-x="913" d="M104 786v267h222v360h264v-360h221v-267h-221v-991h-264v991h-222z" />
<glyph unicode="&#x2021;" horiz-adv-x="913" d="M104 156v266h222v364h-222v267h222v360h264v-360h221v-267h-221v-364h221v-266h-221v-361h-264v361h-222z" />
<glyph unicode="&#x2022;" horiz-adv-x="1005" d="M68 528q0 180 127.5 308.5t308.5 128.5q117 0 217 -58.5t158.5 -159.5t58.5 -219t-58.5 -218.5t-158.5 -159t-217 -58.5q-181 0 -308.5 128t-127.5 308z" />
<glyph unicode="&#x2025;" horiz-adv-x="935" d="M102 0v303h271v-303h-271zM571 0v303h271v-303h-271z" />
<glyph unicode="&#x2026;" horiz-adv-x="1794" d="M102 0v324h363v-324h-363zM719 0v324h362v-324h-362zM1337 0v324h363v-324h-363z" />
<glyph unicode="&#x202f;" horiz-adv-x="428" />
<glyph unicode="&#x2030;" horiz-adv-x="2203" d="M51 1087q0 43 8 87t29 92t53 85t85.5 61t121.5 24q77 0 137 -32.5t94.5 -85t52 -111.5t17.5 -120t-17 -118.5t-51 -108t-92.5 -81.5t-134.5 -31q-69 0 -123.5 24t-87 60.5t-54.5 84t-30 89.5t-8 81zM254 0l758 1413h260l-758 -1413h-260zM264 1087q0 -57 24 -91.5 t62 -34.5q33 0 57.5 36.5t24.5 92.5q0 61 -24.5 98t-59.5 37q-37 0 -60.5 -37t-23.5 -101zM891 332q0 43 8 87.5t29.5 94t54 87.5t86 62.5t121.5 24.5q62 0 113.5 -22t85 -58t57 -83.5t33.5 -95.5t10 -97q0 -61 -17 -119.5t-50.5 -110.5t-92 -84t-133.5 -32q-69 0 -123.5 24 t-87.5 60.5t-55 84.5t-30.5 91.5t-8.5 85.5zM1104 332q0 -61 25 -99t65 -38q30 0 54 40t24 99q0 62 -24 100.5t-58 38.5q-36 0 -61 -38.5t-25 -102.5zM1544 332q0 42 8.5 87.5t31 94.5t55 87t85 62.5t117.5 24.5q76 0 137 -33.5t97 -86.5t54.5 -114t18.5 -122 q0 -60 -18 -119.5t-53.5 -111t-95 -83.5t-134.5 -32q-66 0 -120 24t-87 60.5t-55.5 84t-31.5 91.5t-9 86zM1763 332q0 -61 22.5 -99t57.5 -38q33 0 57.5 39.5t24.5 99.5q0 63 -24 101t-60 38q-34 0 -56 -38t-22 -103z" />
<glyph unicode="&#x2039;" horiz-adv-x="622" d="M80 510l463 373v-242l-176 -131l176 -129v-242z" />
<glyph unicode="&#x203a;" horiz-adv-x="622" d="M80 139v242l176 129l-176 131v242l463 -373z" />
<glyph unicode="&#x2044;" horiz-adv-x="444" d="M-328 0l813 1413h285l-819 -1413h-279z" />
<glyph unicode="&#x205f;" horiz-adv-x="535" />
<glyph unicode="&#x20ac;" horiz-adv-x="1265" d="M-16 489l71 136h146q-2 27 -2 80v43h-201l76 143h141q15 90 45 168t80.5 148.5t118 120.5t162.5 79t208 29q224 0 375 -109l-123 -299q-88 146 -254 146q-117 0 -195 -75t-110 -208h504l-61 -143h-461q-2 -14 -2 -46q0 -27 4 -77h409l-55 -136h-332q35 -117 111 -181 t192 -64q91 0 151 27.5t114 84.5l127 -254q-149 -125 -394 -125q-135 0 -243.5 40.5t-181 113t-118 161.5t-67.5 197h-235z" />
<glyph unicode="&#x2122;" horiz-adv-x="1302" d="M10 1266v147h473v-147h-147v-457h-176v457h-150zM555 809v604h248l94 -420l88 420h246v-604h-162v414l-92 -414h-160l-100 405v-405h-162z" />
<glyph unicode="&#x2126;" horiz-adv-x="1527" d="M51 0v242h234q-110 79 -170 217.5t-60 277.5q0 186 98 341t260 242t349 87q142 0 272.5 -53t226 -143.5t152.5 -217.5t57 -268q0 -138 -56 -273t-159 -221h220v-231h-578v223q138 19 230 146.5t92 314.5q0 220 -129 349.5t-326 129.5q-200 0 -328.5 -132t-128.5 -347 q0 -99 29 -182.5t77 -139t103 -90.5t113 -49v-223h-578z" />
<glyph unicode="&#x2202;" horiz-adv-x="1249" d="M63 467q0 126 45 237.5t120.5 189t176.5 122.5t211 45q100 0 175.5 -39t111.5 -113h8q-3 136 -77 222t-193 86q-106 0 -174 -76l-139 159q118 130 317 130q108 0 195 -35t145.5 -96t98.5 -147t57.5 -183.5t17.5 -208.5q0 -164 -40 -304t-115.5 -244.5t-193 -164 t-265.5 -59.5q-226 0 -354 131.5t-128 347.5zM328 463q0 -108 56.5 -167.5t158.5 -59.5q147 0 241.5 112t94.5 273q0 114 -52.5 170.5t-150.5 56.5q-102 0 -183 -56.5t-123 -143.5t-42 -185z" />
<glyph unicode="&#x2206;" horiz-adv-x="1247" d="M-2 0l627 1530l624 -1530h-1251zM354 244h539l-268 710z" />
<glyph unicode="&#x220f;" horiz-adv-x="1376" d="M82 1169v244h1212v-244h-151v-1169h-244v1169h-424v-1169h-244v1169h-149z" />
<glyph unicode="&#x2211;" horiz-adv-x="1249" d="M66 0v127l563 580l-563 577v129h1120v-244h-692l479 -462l-479 -463h692v-244h-1120z" />
<glyph unicode="&#x2212;" horiz-adv-x="1204" d="M162 401v234h880v-234h-880z" />
<glyph unicode="&#x221a;" horiz-adv-x="1316" d="M45 520v246h340l178 -571l488 1237l231 -80l-637 -1547h-178l-262 715h-160z" />
<glyph unicode="&#x221e;" horiz-adv-x="1536" d="M59 633q0 152 95 251t241 99q182 0 373 -188q191 188 373 188q146 0 242 -99t96 -251t-96 -251t-242 -99q-182 0 -373 188q-191 -188 -373 -188q-146 0 -241 99t-95 251zM279 633q0 -61 38.5 -96t94.5 -35q44 0 93 32t116 99q-67 67 -116 99t-93 32q-56 0 -94.5 -35 t-38.5 -96zM915 633q131 -131 209 -131q58 0 97 35t39 96t-39 96t-97 35q-78 0 -209 -131z" />
<glyph unicode="&#x222b;" horiz-adv-x="860" d="M6 -213q165 0 226 53.5t61 196.5v1085q0 141 92.5 233.5t228.5 92.5q141 0 238 -90l-160 -189q-43 35 -78 35q-75 0 -75 -94v-1092q0 -226 -145.5 -350.5t-387.5 -124.5v244z" />
<glyph unicode="&#x2248;" horiz-adv-x="1021" d="M25 123q0 178 69 274.5t199 96.5q62 0 116 -24t86 -52t74 -52t82 -24q99 0 99 150h211q0 -183 -71.5 -280t-205.5 -97q-47 0 -89.5 16t-74.5 38t-61.5 44.5t-63 38.5t-67.5 16q-40 0 -67.5 -33t-27.5 -112h-208zM25 612q0 178 69 274.5t199 96.5q51 0 95.5 -15.5 t75.5 -38t60 -45t61 -38t66 -15.5q99 0 99 150h211q0 -183 -71.5 -280t-205.5 -97q-47 0 -89.5 16t-74.5 38.5t-61.5 45t-63 38.5t-67.5 16q-40 0 -67.5 -33.5t-27.5 -112.5h-208z" />
<glyph unicode="&#x2260;" horiz-adv-x="1269" d="M92 186v248h365l116 209h-481v248h621l202 358h234l-199 -358h209v-248h-348l-115 -209h463v-248h-602l-195 -350h-243l196 350h-223z" />
<glyph unicode="&#x2264;" horiz-adv-x="1349" d="M88 887l1094 563v-268l-592 -295l592 -293v-270zM100 0v223h1082v-223h-1082z" />
<glyph unicode="&#x2265;" horiz-adv-x="1341" d="M160 0v223h1081v-223h-1081zM160 324v270l592 293l-592 295v268l1093 -563z" />
<glyph unicode="&#x25ca;" horiz-adv-x="1171" d="M76 717l397 717h227l396 -717l-396 -717h-227zM362 717l222 -447l225 447l-225 446z" />
<glyph unicode="&#x25fc;" horiz-adv-x="1044" d="M0 0v1044h1044v-1044h-1044z" />
<glyph unicode="&#xfb00;" horiz-adv-x="1363" d="M33 854v195h194v71q0 133 85 213t247 80h174v-215h-158q-53 0 -53 -68v-81h320v71q0 133 85 213t247 80h174v-215h-158q-53 0 -53 -68v-81h211v-195h-211v-854h-299v854h-316v-854h-299v854h-190z" />
<glyph unicode="&#xfb03;" horiz-adv-x="1902" d="M33 854v195h194v71q0 133 85 213t247 80h174v-215h-158q-53 0 -53 -68v-81h312v71q0 133 84.5 213t246.5 80h174v-215h-157q-54 0 -54 -68v-81h211v-195h-211v-854h-299v854h-307v-854h-299v854h-190zM1468 0v1049h301v-1049h-301zM1468 1182v231h304v-231h-304z" />
<glyph unicode="&#xfb04;" horiz-adv-x="1859" d="M33 854v195h194v71q0 133 85 213t247 80h174v-215h-158q-53 0 -53 -68v-81h307v71q0 133 85 213t247 80h174v-215h-157q-54 0 -54 -68v-81h211v-195h-211v-854h-299v854h-303v-854h-299v854h-190zM1425 0v1413h299v-1413h-299z" />
<glyph horiz-adv-x="569" d="M135 0v1049h299v-1049h-299zM172 1182v231h221v-231h-221z" />
<glyph horiz-adv-x="1372" d="M33 854v195h194v71q0 133 85 213t247 80h174v-215h-158q-53 0 -53 -68v-81h289v364h299v-364h217v-195h-217v-514q0 -58 21 -82.5t71 -24.5h125v-233h-268q-118 0 -183 70t-65 196v588h-289v-854h-299v854h-190z" />
<glyph horiz-adv-x="1341" d="M20 854v195h146v364h299v-364h315v364h299v-364h217v-195h-217v-514q0 -58 21 -82.5t71 -24.5h125v-233h-268q-118 0 -183 70t-65 196v588h-315v-514q0 -58 21 -82.5t71 -24.5h125v-233h-268q-118 0 -183 70t-65 196v588h-146z" />
<glyph horiz-adv-x="1841" d="M147 713q0 158 61.5 301t165 247t247 165t301.5 61t301 -61t247 -165t165 -247t61 -301t-61 -301t-165 -247t-247 -165t-301 -61t-301.5 61t-247 165t-165 247t-61.5 301zM219 713q0 -191 94 -353t256 -256t353 -94q143 0 273 55.5t224 149.5t149.5 224.5t55.5 273.5 t-55.5 273t-149.5 224t-224 149.5t-273 55.5t-273.5 -55.5t-224.5 -149.5t-149.5 -224t-55.5 -273zM483 444v537q0 15 10.5 26t24.5 11q15 0 26 -11t11 -26v-537q0 -15 -11 -24.5t-26 -9.5q-14 0 -24.5 9.5t-10.5 24.5zM618 713q0 15 10 25t25 10h133q15 0 26 -10t11 -25 t-11 -25t-26 -10h-133q-15 0 -25 10t-10 25zM887 444v537q0 15 10 26t25 11t24.5 -11t9.5 -26v-537q0 -15 -9.5 -24.5t-24.5 -9.5t-25 9.5t-10 24.5zM1022 713q0 16 8 24l270 269q9 12 23 12q13 0 25 -12t12 -25q0 -15 -10 -25l-244 -243l244 -244q10 -10 10 -25 q0 -13 -11.5 -23.5t-25.5 -10.5q-15 0 -23 10l-270 268q-8 11 -8 25z" />
</font>
</defs>
</svg>
