<?xml version="1.0" standalone="no"?>
<!DOCTYPE svg PUBLIC "-//W3C//DTD SVG 1.1//EN" "http://www.w3.org/Graphics/SVG/1.1/DTD/svg11.dtd" >
<svg xmlns="http://www.w3.org/2000/svg">
<metadata></metadata>
<defs>
<font id="radnikabold_italic" horiz-adv-x="0" >
<font-face units-per-em="2048" ascent="1638" descent="-410" />
<missing-glyph horiz-adv-x="468" />
<glyph unicode="&#x3c;&#x2d;" horiz-adv-x="2449" d="M162 639l1186 590l-48 -242l-497 -229h1558l-53 -246h-1567l406 -231l-47 -242z" />
<glyph unicode="&#x2d;&#x3e;" horiz-adv-x="2449" d="M133 512l53 246h1567l-405 229l47 242l942 -590l-1190 -600l47 242l498 231h-1559z" />
<glyph unicode="fi" horiz-adv-x="1277" d="M104 858l39 191h191l24 102q25 124 117.5 193t233.5 69h174l-45 -213h-88q-43 0 -74 -28t-39 -66l-12 -57h628l-221 -1049h-291l181 858h-338l-181 -858h-292l182 858h-189zM991 1184l49 229h293l-49 -229h-293z" />
<glyph unicode="fl" horiz-adv-x="1304" d="M104 858l39 191h191l24 102q25 124 117.5 193t233.5 69h206l-43 -213h-122q-43 0 -74 -28t-39 -66l-12 -57h213l-39 -191h-215l-181 -858h-292l182 858h-189zM766 0l299 1413h291l-299 -1413h-291z" />
<glyph unicode=" "  horiz-adv-x="468" />
<glyph unicode="&#x09;" horiz-adv-x="468" />
<glyph unicode="&#xa0;" horiz-adv-x="468" />
<glyph unicode="!" horiz-adv-x="593" d="M37 0l63 297h299l-63 -297h-299zM172 449l176 964h275l-234 -964h-217z" />
<glyph unicode="&#x22;" horiz-adv-x="872" d="M176 838l123 575h238l-123 -575h-238zM584 838l123 575h243l-123 -575h-243z" />
<glyph unicode="#" horiz-adv-x="1325" d="M47 408l41 188h246l100 242h-217l41 182h252l166 393h201l-162 -379h241l160 379h199l-162 -389h207l-41 -186h-246l-98 -242h217l-41 -184h-254l-172 -412h-201l168 399h-239l-166 -399h-203l170 408h-207zM535 596h239l100 242h-241z" />
<glyph unicode="$" horiz-adv-x="1167" d="M4 342l238 143q81 -243 288 -243q102 0 177 53.5t92 138.5q4 23 3.5 41t-10 34t-22 29t-32.5 25t-41.5 22t-49.5 21.5t-56 22.5q-11 4 -16 6q-36 11 -65 20.5t-63.5 24t-61 29t-54 35t-47 43t-35.5 52t-23 62.5t-7 74.5t10 87.5q34 162 160.5 258t306.5 111l41 141 l197 -55l-29 -99q184 -44 303 -211l-194 -164q-93 150 -269 150q-85 0 -146.5 -40t-76.5 -107q-4 -22 2.5 -41t18.5 -32.5t39.5 -29.5t51 -26.5t66.5 -28.5q12 -5 19 -8q39 -12 68.5 -22.5t67 -26.5t65.5 -32t58.5 -38.5t51 -47.5t38.5 -57.5t26 -69t7.5 -82.5t-11.5 -97 q-41 -194 -198 -309t-372 -115h-35l-36 -134l-197 56l35 123q-204 86 -283 313z" />
<glyph unicode="%" horiz-adv-x="1605" d="M174 0l1057 1413h262l-1057 -1413h-262zM203 1043q1 38 8 73q8 39 23.5 78.5t44 84.5t65 78.5t91 56t118.5 22.5t113.5 -23t77 -60.5t44.5 -86.5t15.5 -100.5t-10.5 -102.5q-12 -55 -37.5 -107.5t-65.5 -99.5t-100.5 -75.5t-130.5 -28.5q-60 0 -107 17.5t-75 47.5t-46 67 t-23.5 79t-4.5 80zM366 1022q1 -38 28 -68t75 -30q63 0 106.5 51t57.5 115q16 66 -6.5 119t-89.5 53t-110 -52t-56 -114q-6 -36 -5 -74zM882 284.5q1 38.5 9 73.5q9 39 24 78.5t44 84.5t65 78.5t90.5 56t118.5 22.5t114 -22.5t77.5 -60t44 -86.5t15 -101t-10.5 -103 q-12 -55 -37.5 -107.5t-65.5 -99.5t-100.5 -75.5t-130.5 -28.5q-60 0 -106.5 17.5t-74.5 47.5t-46.5 67t-24.5 78.5t-5 80zM1047.5 264.5q0.5 -37.5 27.5 -67t76 -29.5q63 0 105.5 50t56.5 114q16 66 -6.5 120t-89.5 54q-66 0 -108.5 -52.5t-55.5 -115.5q-6 -36 -5.5 -73.5z " />
<glyph unicode="&#x26;" horiz-adv-x="1433" d="M31 249q-13 68 4 152q30 140 138.5 236t268.5 137q-152 140 -112 328q18 86 67 151.5t115 103.5t137.5 56.5t145.5 18.5q84 0 155.5 -24t123.5 -69.5t73 -119.5t2 -166q-14 -67 -49 -119t-113.5 -107t-208.5 -112l166 -205l346 375l176 -146l-376 -401l260 -338h-369 l-104 135q-176 -162 -420 -162q-80 0 -151.5 17.5t-129 52t-95 86.5t-50.5 120zM326 369q-16 -76 27.5 -119t119.5 -43q128 0 258 127l-188 258q-182 -66 -217 -223zM596 1034q-13 -67 55 -164q119 60 170.5 109.5t65.5 110.5q9 46 -15.5 78t-76.5 32q-69 0 -126.5 -48.5 t-72.5 -117.5z" />
<glyph unicode="'" horiz-adv-x="458" d="M182 866l123 576h238l-123 -576h-238z" />
<glyph unicode="(" horiz-adv-x="651" d="M99 112q-13 265 40 519q46 233 148.5 468.5t236.5 399.5h273q-353 -425 -447 -919q-98 -511 66 -889h-223q-81 156 -94 421z" />
<glyph unicode=")" horiz-adv-x="651" d="M-125 -309q357 413 459 940q87 444 -60 868h224q69 -174 83 -418.5t-36 -498.5q-46 -240 -153 -487t-242 -404h-275z" />
<glyph unicode="*" horiz-adv-x="653" d="M160 1053l200 77l-172 78l99 129l137 -120l20 196h146l-70 -196l178 120l54 -129l-197 -78l168 -77l-94 -127l-142 118l-18 -196h-145l69 196l-178 -118z" />
<glyph unicode="+" horiz-adv-x="1316" d="M119 403l49 230h399l86 403h228l-86 -403h399l-49 -230h-400l-83 -403h-228l86 403h-401z" />
<glyph unicode="," horiz-adv-x="557" d="M-102 -346l215 346h-125l67 317h353l-64 -317l-287 -346h-159z" />
<glyph unicode="-" horiz-adv-x="1112" d="M137 403l49 230h787l-49 -230h-787z" />
<glyph unicode="." horiz-adv-x="552" d="M-6 0l67 317h353l-68 -317h-352z" />
<glyph unicode="/" horiz-adv-x="1064" d="M-66 -156l971 1567h271l-971 -1567h-271z" />
<glyph unicode="0" horiz-adv-x="1204" d="M70.5 501.5q1.5 109.5 27.5 231.5q31 145 88 269t138.5 222.5t195 155t244.5 56.5q112 0 198.5 -38.5t140.5 -107t81.5 -163t27 -207.5t-27.5 -240q-32 -149 -91.5 -275t-143 -221.5t-195.5 -149.5t-240 -54q-116 0 -203.5 40t-139 110t-77 166t-24 205.5zM385 680 q-92 -434 135 -434q91 0 166.5 70t123 176.5t75.5 242.5q20 91 25 165t-7 135.5t-50 95.5t-101 34q-71 0 -131.5 -38.5t-105 -107t-77 -153t-53.5 -186.5z" />
<glyph unicode="1" horiz-adv-x="892" d="M145 936l56 276l372 201h289l-299 -1413h-295l246 1141z" />
<glyph unicode="2" horiz-adv-x="1224" d="M4 0l47 229q23 106 79 188.5t128.5 134t155.5 93t164.5 75.5t151 70t119.5 87.5t64 117.5q17 85 -17 134t-112 49q-106 0 -187.5 -79t-109.5 -210l-280 59q58 226 210.5 355t379.5 129q231 0 340.5 -130t66.5 -339q-20 -89 -64 -162.5t-101.5 -121.5t-126.5 -89.5 t-138 -69t-137 -57.5t-122.5 -57t-96 -66t-56.5 -86h707l-53 -254h-1012z" />
<glyph unicode="3" horiz-adv-x="1140" d="M43.5 261.5q-23.5 93.5 1.5 217.5l285 -10q-24 -111 22 -170t144 -59q100 0 180.5 54.5t101.5 149.5q19 87 -28 134t-148 47h-78l49 237h58q76 0 130.5 43t69.5 121q15 65 -24.5 105t-110.5 40q-92 0 -157 -58t-86 -148l-275 41q44 204 194 316t345 112q132 0 232 -50 t148.5 -148t20.5 -226q-21 -98 -82 -163t-145 -91l-4 -19q100 -21 151.5 -106t20.5 -236q-28 -132 -119.5 -228.5t-211 -141.5t-251.5 -45q-106 0 -195 31.5t-152 94t-86.5 156z" />
<glyph unicode="4" horiz-adv-x="1179" d="M10 311l47 238l754 864h305l-182 -860h170l-51 -242h-172l-64 -311h-293l64 311h-578zM307 553h334l113 520z" />
<glyph unicode="5" horiz-adv-x="1200" d="M43 397l287 60q9 -95 58.5 -148t129.5 -53q109 0 196.5 75.5t110.5 192.5q21 95 -26.5 153t-141.5 58q-70 0 -138 -36.5t-113 -92.5l-273 78l291 729h833l-53 -254h-626l-109 -282q63 43 141 66.5t152 23.5q200 0 302.5 -138.5t57.5 -355.5q-47 -216 -222.5 -354.5 t-395.5 -138.5q-195 0 -321 117.5t-140 299.5z" />
<glyph unicode="6" horiz-adv-x="1144" d="M78.5 283q-43.5 153 5.5 385q14 68 32 131t49 142.5t68.5 146t93.5 132.5t120.5 111.5t152.5 74t188 28.5q335 0 422 -297l-233 -99q-23 84 -69 120t-126 36q-81 0 -150.5 -36.5t-118.5 -98t-82.5 -130t-53.5 -143.5q127 138 321 138q207 0 314 -131.5t61 -352.5 q-28 -135 -114 -240.5t-207 -162.5t-256 -57q-160 0 -267 75t-150.5 228zM360 438q-14 -90 32.5 -147.5t133.5 -57.5q104 0 185 73.5t94 182.5q13 88 -36 143.5t-138 55.5q-105 0 -181 -70.5t-90 -179.5z" />
<glyph unicode="7" horiz-adv-x="978" d="M109 0q182 744 675 1159h-591l53 254h889l-54 -291q-121 -95 -217.5 -202t-163 -210t-120 -226t-87.5 -233.5t-67 -250.5h-317z" />
<glyph unicode="8" horiz-adv-x="1173" d="M33 422q27 123 117.5 217.5t222.5 124.5l26 6q-87 27 -132.5 116.5t-22.5 196.5q34 154 177.5 252.5t336.5 98.5q209 0 321.5 -115t75.5 -287q-21 -93 -91 -168.5t-165 -101.5l-25 -6q83 -20 139 -77.5t72.5 -136t-0.5 -171.5q-38 -180 -200.5 -285.5t-390.5 -105.5 q-244 0 -373.5 121t-87.5 321zM328 412q-14 -85 36.5 -137t145.5 -52q113 0 196.5 68t100.5 174q14 80 -37 132t-147 52q-110 0 -195 -68t-100 -169zM508 1010q-11 -66 29.5 -109t113.5 -43q88 0 156 58.5t78 144.5q10 66 -30 108.5t-112 42.5q-89 0 -156 -58.5t-79 -143.5z " />
<glyph unicode="9" horiz-adv-x="1144" d="M10 276l234 99q23 -84 68.5 -120t125.5 -36q65 0 123.5 24.5t102.5 64.5t80.5 94t60.5 110t39 115q-127 -138 -322 -138q-207 0 -314 131.5t-61 352.5q28 135 114 241t207.5 163t256.5 57q119 0 210 -42.5t149.5 -128t72.5 -215t-20 -303.5q-14 -68 -32 -131t-49 -142 t-69 -145.5t-93.5 -132.5t-120.5 -111.5t-153 -74t-188 -28.5q-335 0 -422 296zM416 924q-13 -88 36 -143.5t138 -55.5q105 0 180.5 70.5t89.5 179.5q14 90 -32.5 147.5t-133.5 57.5q-104 0 -184.5 -73.5t-93.5 -182.5z" />
<glyph unicode=":" horiz-adv-x="542" d="M-8 0l65 317h355l-68 -317h-352zM143 721l68 317h352l-67 -317h-353z" />
<glyph unicode=";" horiz-adv-x="563" d="M-102 -346l215 346h-119l65 317h353l-62 -317l-284 -346h-168zM147 721l68 317h352l-67 -317h-353z" />
<glyph unicode="&#x3c;" horiz-adv-x="1320" d="M121 674l1200 559l-55 -260l-660 -299l533 -297l-56 -262z" />
<glyph unicode="=" horiz-adv-x="1103" d="M45 172l53 242h863l-54 -242h-862zM141 623l52 241h862l-51 -241h-863z" />
<glyph unicode="&#x3e;" horiz-adv-x="1363" d="M127 115l18 262l656 297l-539 299l19 260l1005 -559z" />
<glyph unicode="?" horiz-adv-x="964" d="M158 1024q18 82 58 154.5t99.5 130t143.5 91.5t182 34q87 0 162 -27t128.5 -79.5t73 -130t-3.5 -177.5q-20 -83 -64.5 -140t-95 -88t-100 -60.5t-90 -77t-55.5 -117.5l-18 -93h-236l25 121q17 82 52 142t74 91t83.5 58.5t82 47.5t68 56.5t41.5 86.5q18 75 -19.5 113 t-113.5 38q-96 0 -159.5 -60.5t-80.5 -140.5zM223 0l62 297h288l-61 -297h-289z" />
<glyph unicode="@" horiz-adv-x="1888" d="M53 165q-35 168 10 372q54 254 210 460t375 320.5t456 114.5q125 0 237.5 -33.5t199.5 -93.5t154.5 -144.5t103 -187t45.5 -219t-19 -242.5q-22 -107 -69.5 -209.5t-117 -192.5t-168.5 -145t-210 -55q-86 0 -145 32t-82.5 96t3.5 159q-134 -168 -317 -168 q-166 0 -233 119.5t-27 306.5q23 110 79.5 214.5t132 184t169 128t186.5 48.5q97 0 163.5 -50t63.5 -142l64 149h217l-299 -713q-38 -97 -27 -130t68 -33q108 -2 208.5 117t143.5 321q22 116 12 217.5t-55.5 186t-113.5 145t-162.5 94t-202.5 33.5q-190 0 -368 -94 t-307 -262.5t-173 -376.5q-20 -107 -17 -204t41 -181t99.5 -145.5t159 -96.5t219.5 -35q78 0 180 23l43 -199q-113 -29 -217 -29q-188 0 -339.5 66t-245 186t-128.5 288zM657 430q-19 -89 9 -136.5t100 -47.5q89 0 173 60.5t139.5 151.5t76.5 189q38 180 -106 180 q-133 0 -246 -122t-146 -275z" />
<glyph unicode="A" horiz-adv-x="1374" d="M-117 0l793 1413h395l189 -1413h-316l-31 315h-530l-166 -315h-334zM512 557h377l-60 588h-8z" />
<glyph unicode="B" horiz-adv-x="1351" d="M43 0l299 1413h602q218 0 318 -109q72 -78 72 -199q0 -48 -11 -104q-21 -99 -91 -165.5t-169 -87.5v-15q113 -19 170 -116q37 -64 37 -147q0 -44 -10 -93q-38 -182 -177 -279.5t-358 -97.5h-682zM397 260h332q102 0 168 47t86 137q3 17 3 33q0 48 -32 81q-44 44 -131 44 h-352zM522 840h295q79 0 147.5 47.5t86.5 130.5q4 19 4 36q-1 42 -27 70q-38 39 -125 39h-313z" />
<glyph unicode="C" horiz-adv-x="1339" d="M80 539q2 93 24 194q24 113 67 215t110.5 192t152 155t197.5 103t241 38q226 0 359.5 -111t161.5 -319l-293 -84q-1 128 -64.5 190t-175.5 62q-169 0 -296.5 -130.5t-174.5 -355.5q-18 -86 -18 -157q1 -100 37 -170q62 -119 206 -119q121 0 227.5 75.5t172.5 206.5 l258 -137q-226 -407 -664 -407q-113 0 -203 28t-151.5 79t-101.5 121q-42 70 -58 154q-14 73 -14 153v24z" />
<glyph unicode="D" horiz-adv-x="1390" d="M43 0l299 1413h420q365 1 520 -193q105 -132 105 -335q0 -96 -23 -207q-69 -329 -294.5 -503.5t-588.5 -174.5h-438zM399 266h93q237 0 386 120t199 349q14 69 14 126q-1 113 -57 181q-86 102 -311 103h-137z" />
<glyph unicode="E" horiz-adv-x="1202" d="M43 0l299 1413h954l-53 -256h-655l-68 -321h592l-53 -256h-592l-70 -324h654l-54 -256h-954z" />
<glyph unicode="F" horiz-adv-x="1173" d="M43 0l299 1413h983l-55 -256h-682l-68 -321h594l-53 -256h-594l-123 -580h-301z" />
<glyph unicode="G" horiz-adv-x="1488" d="M83 501v9q0 109 23 229q30 145 99.5 270.5t171 221t242 150.5t301.5 55q116 0 211.5 -32t159.5 -88t103 -129t52 -159l-266 -57q-44 211 -277 211q-104 0 -192 -40t-149.5 -110t-103.5 -157.5t-63 -190.5q-16 -74 -18 -138v-16q0 -56 13 -105q15 -56 47.5 -96t88 -62.5 t131.5 -22.5q164 0 283 88.5t150 212.5h-306l52 241h577l-166 -786h-237l24 164q-83 -90 -200.5 -137t-245.5 -47q-120 0 -216 39t-156.5 108.5t-96 165t-36.5 208.5z" />
<glyph unicode="H" horiz-adv-x="1478" d="M43 0l299 1413h301l-123 -571h572l122 571h302l-299 -1413h-302l121 573h-571l-121 -573h-301z" />
<glyph unicode="I" horiz-adv-x="606" d="M43 0l299 1413h301l-299 -1413h-301z" />
<glyph unicode="J" horiz-adv-x="786" d="M-76 4l35 270q85 -18 143 -18q109 0 175.5 62t95.5 192l190 903h301l-213 -999q-42 -205 -175.5 -319.5t-344.5 -114.5q-136 0 -207 24z" />
<glyph unicode="K" horiz-adv-x="1437" d="M43 0l299 1413h301l-137 -645l694 645h389l-671 -592l401 -821h-336l-283 629l-274 -242l-82 -387h-301z" />
<glyph unicode="L" horiz-adv-x="1073" d="M43 0l299 1413h301l-246 -1157h604l-53 -256h-905z" />
<glyph unicode="M" horiz-adv-x="1898" d="M43 0l299 1413h436l125 -1061l586 1061h446l-299 -1413h-301l224 1059h-9l-573 -1059h-275l-122 1059h-15l-225 -1059h-297z" />
<glyph unicode="N" horiz-adv-x="1546" d="M43 0l299 1413h315l404 -977h14l207 977h301l-299 -1413h-321l-400 973h-14l-205 -973h-301z" />
<glyph unicode="O" horiz-adv-x="1474" d="M104 733q69 322 285 511.5t514 189.5q321 0 469 -205q100 -138 100 -339q0 -98 -24 -210q-69 -322 -287 -511t-520 -189q-317 0 -463 204q-98 137 -98 337q0 98 24 212zM414 680q-17 -82 -18 -150q0 -102 38 -172q64 -118 217 -118q174 0 308 135t180 358q18 82 18 150 q1 101 -39 172q-66 119 -223 119q-170 0 -302 -135t-179 -359z" />
<glyph unicode="P" horiz-adv-x="1325" d="M43 0l299 1413h625q229 0 339 -136q78 -95 78 -234q0 -59 -14 -125q-43 -203 -190 -316t-373 -113h-361l-104 -489h-299zM500 748h299q245 0 282 213q4 25 4 47q0 147 -194 147h-305z" />
<glyph unicode="Q" horiz-adv-x="1478" d="M104 733q69 322 285 511.5t514 189.5q321 0 469 -205q100 -138 100 -339q0 -97 -24 -210q-64 -301 -260 -487l127 -158l-193 -166l-143 182q-154 -71 -338 -71q-317 0 -463 204q-98 137 -98 337q0 98 24 212zM414 680q-17 -82 -17 -150q0 -101 37 -172q64 -118 217 -118 q83 0 156 30l-139 176l184 160l149 -184q102 132 138 311q18 82 18 150q0 101 -39 172q-66 119 -223 119q-170 0 -302 -135t-179 -359z" />
<glyph unicode="R" horiz-adv-x="1378" d="M41 -2l301 1415h637q101 0 186.5 -31t143 -87t81.5 -140q12 -43 11 -91q0 -45 -10 -93q-54 -256 -332 -361l192 -612h-309l-160 575h-321l-123 -575h-297zM512 809h362q100 3 159.5 52.5t70.5 137.5q2 15 2 29q0 54 -33 89q-42 44 -141 44h-344z" />
<glyph unicode="S" horiz-adv-x="1167" d="M4 342l238 143q81 -243 288 -243q102 0 177 53.5t92 138.5q4 23 3.5 41t-10 34t-22 29t-32.5 25t-41.5 22t-49.5 21.5t-56 22.5q-11 4 -16 6q-36 11 -65 20.5t-63.5 24t-61 29t-54 35t-47 43t-35.5 52t-23 62.5t-7 74.5t10 87.5q25 118 102.5 203t188 126.5t244.5 41.5 q282 0 444 -226l-194 -164q-93 150 -269 150q-85 0 -146.5 -40t-76.5 -107q-4 -22 2.5 -41t18.5 -32.5t39.5 -29.5t51 -26.5t66.5 -28.5q12 -5 19 -8q39 -12 68.5 -22.5t67 -26.5t65.5 -32t58.5 -38.5t51 -47.5t38.5 -57.5t26 -68.5q8 -34 7 -78q1 -3 1 -5q0 -46 -12 -97 q-41 -194 -198 -309t-372 -115q-187 0 -321 92t-195 266z" />
<glyph unicode="T" horiz-adv-x="1181" d="M150 1159l53 254h1153l-53 -254h-426l-246 -1159h-303l247 1159h-425z" />
<glyph unicode="U" horiz-adv-x="1417" d="M147 545l185 868h301l-191 -903q-10 -47 -11 -86q1 -66 31 -106q48 -64 163 -64q134 0 227.5 77t120.5 204l186 878h301l-186 -883q-56 -269 -221.5 -409.5t-440.5 -140.5q-286 0 -403 150q-80 102 -80 258q0 73 18 157z" />
<glyph unicode="V" horiz-adv-x="1386" d="M197 1413h317l115 -1143h8l604 1143h332l-791 -1413h-393z" />
<glyph unicode="W" horiz-adv-x="1955" d="M197 0l6 1413h307l-33 -1155h12l502 1155h346l11 -1155h12l459 1155h315l-596 -1413h-430l-10 1085l-471 -1085h-430z" />
<glyph unicode="X" horiz-adv-x="1374" d="M-119 0l631 707l-319 706h364l205 -502l428 502h377l-629 -706l324 -707h-363l-211 492l-426 -492h-381z" />
<glyph unicode="Y" horiz-adv-x="1400" d="M190 1413h332l240 -588l485 588h348l-737 -862l-121 -551h-297l119 551z" />
<glyph unicode="Z" horiz-adv-x="1228" d="M-76 0l39 199l955 958h-703l53 256h1114l-41 -213l-931 -944h727l-54 -256h-1159z" />
<glyph unicode="[" horiz-adv-x="598" d="M-45 -309l385 1808h434l-49 -244h-197l-280 -1316h194l-53 -248h-434z" />
<glyph unicode="\" horiz-adv-x="1064" d="M274 1411h254l308 -1567h-256z" />
<glyph unicode="]" horiz-adv-x="598" d="M-147 -309l53 248h194l281 1316h-195l52 244h434l-383 -1808h-436z" />
<glyph unicode="^" horiz-adv-x="931" d="M2 516l645 897l273 -897h-277l-84 410l-266 -410h-291z" />
<glyph unicode="_" horiz-adv-x="870" d="M-164 -217l47 217h883l-47 -217h-883z" />
<glyph unicode="`" horiz-adv-x="604" d="M219 1364h291l174 -244h-201z" />
<glyph unicode="a" horiz-adv-x="1107" d="M14 291q9 42 26 78t37.5 64t53 53.5t62 44t76.5 37.5t83.5 31t96 28t102 26t113.5 27t118 29q4 21 4 39q0 44 -26 68q-37 36 -129 36q-98 0 -171 -34t-145 -107l-163 155q99 102 214.5 152.5t270.5 50.5q82 0 150 -14.5t122.5 -44t88.5 -74.5q32 -45 44 -107q4 -24 5 -51 q0 -42 -11 -90l-145 -688h-256l22 104q-81 -63 -176.5 -95t-173.5 -32q-162 0 -242 85q-59 62 -59 157q0 34 8 72zM317 295q-2 -12 -3 -22q0 -29 20 -49q26 -26 80 -27q75 0 150.5 36.5t140.5 102.5l36 168q-218 -55 -288 -84q-121 -51 -136 -125z" />
<glyph unicode="b" horiz-adv-x="1273" d="M25 0l299 1413h290l-98 -481q61 64 148.5 100.5t185.5 36.5q218 1 312 -157q59 -99 59 -238q0 -81 -21 -176q-50 -237 -194.5 -379t-348.5 -142q-117 0 -198 50.5t-109 124.5l-12 -2l-29 -150h-284zM416 502q-7 -44 -7 -81q0 -78 31 -127q46 -73 148 -73q131 0 215.5 84 t111.5 248q8 46 8 84q0 186 -188 186q-117 0 -205 -87.5t-114 -233.5z" />
<glyph unicode="c" horiz-adv-x="1093" d="M58 372v9q0 80 16 168q23 109 74 202t126 164.5t179 112.5t225 41q362 0 424 -328l-250 -67q-9 166 -170 166q-125 0 -214 -98.5t-120 -247.5q-12 -48 -11 -91v-19q3 -52 19.5 -91t53.5 -61.5t92 -22.5q94 0 169.5 52t114.5 138l215 -110q-86 -159 -210.5 -235.5 t-298.5 -76.5q-104 0 -186.5 30t-133.5 83t-82 125.5t-32 156.5z" />
<glyph unicode="d" horiz-adv-x="1273" d="M68 252q-12 57 -12 123q0 82 18 176q50 236 192 377t344 141q119 0 202 -50.5t114 -127.5l6 2l104 520h291l-299 -1413h-285l25 127q-58 -70 -147.5 -110t-192.5 -40q-147 0 -240.5 73.5t-119.5 201.5zM358 502q-13 -61 -12 -108q0 -65 24 -105q42 -68 156 -68 q118 0 209.5 89t124.5 243q10 48 10 88q0 67 -27 111q-43 72 -145 71q-130 0 -219 -83t-121 -238z" />
<glyph unicode="e" horiz-adv-x="1124" d="M63 303q-8 42 -8 90q0 68 17 146q50 239 214 384.5t386 145.5q220 0 329 -145q75 -100 75 -241q0 -63 -15 -134q-16 -71 -29 -105l-686 11q-6 -35 -6 -65q0 -74 36 -117q50 -60 159 -60q143 0 266 111l168 -152q-119 -105 -227 -148.5t-236 -43.5q-119 0 -212.5 38 t-152 109.5t-78.5 175.5zM389 645l414 -2q6 31 6 57q0 52 -23 90q-35 56 -129 56q-97 0 -166.5 -54t-101.5 -147z" />
<glyph unicode="f" horiz-adv-x="743" d="M94 0l185 872h-173l37 177h174l19 81q28 134 122 208.5t247 74.5h200l-43 -209h-117q-48 0 -84 -34t-45 -80l-10 -41h221l-36 -177h-222l-184 -872h-291z" />
<glyph unicode="g" horiz-adv-x="1269" d="M-43 -182l158 157q50 -80 133.5 -112.5t171.5 -32.5q120 0 212 61t116 170l24 103q-47 -60 -133.5 -96.5t-192.5 -36.5q-215 0 -317 149q-67 97 -67 240q0 74 18 160q50 231 198 360t343 129q112 0 193 -47.5t110 -118.5l4 12l26 134h293l-213 -1000q-21 -98 -65.5 -175 t-100.5 -125t-126.5 -79t-138.5 -43t-142 -12q-368 0 -504 203zM362 520q-6 -36 -6 -67q0 -73 32 -122q46 -71 157 -71q128 0 212.5 84t106.5 221q7 38 7 72q0 71 -30 122q-44 75 -157 75q-125 0 -211.5 -88t-110.5 -226z" />
<glyph unicode="h" horiz-adv-x="1236" d="M25 0l299 1413h290l-100 -485q63 69 151 105t183 36q178 -1 256 -111q54 -76 55 -178q0 -47 -12 -100l-143 -680h-291l139 655q8 36 8 65q0 116 -125 116q-106 0 -189 -68t-102 -160l-129 -608h-290z" />
<glyph unicode="i" horiz-adv-x="563" d="M25 0l221 1049h291l-222 -1049h-290zM274 1184l50 229h292l-49 -229h-293z" />
<glyph unicode="j" horiz-adv-x="567" d="M-229 -365l24 230q94 0 160 54t80 130l213 1000h293l-217 -1016q-43 -208 -174.5 -303t-378.5 -95zM270 1184l49 229h302l-48 -229h-303z" />
<glyph unicode="k" horiz-adv-x="1181" d="M25 0l299 1413h290l-161 -760l479 396h358l-510 -414l314 -635h-310l-206 469l-197 -160l-66 -309h-290z" />
<glyph unicode="l" horiz-adv-x="565" d="M27 0l299 1413h290l-299 -1413h-290z" />
<glyph unicode="m" horiz-adv-x="1781" d="M25 0l221 1049h286l-24 -127q118 147 303 147q105 0 168 -50t84 -140l14 20q74 88 151 129t179 41q175 0 249 -109q49 -72 48 -175q0 -52 -12 -113l-144 -672h-291l140 657q6 30 6 55q0 107 -119 107q-93 0 -150 -62.5t-79 -162.5l-125 -594h-291l139 657q7 32 7 58 q0 41 -17 65q-27 39 -98 39q-94 0 -151 -62t-79 -163l-125 -594h-290z" />
<glyph unicode="n" horiz-adv-x="1236" d="M25 0l221 1049h289l-31 -134l8 11q61 66 147 104.5t187 38.5q170 0 254 -109q58 -76 58 -181q0 -47 -11 -99l-143 -680h-291l139 655q7 34 7 61q0 115 -126 115q-104 0 -186.5 -64t-102.5 -159l-129 -608h-290z" />
<glyph unicode="o" horiz-adv-x="1200" d="M64 300q-8 43 -7 91q0 72 17 156q54 253 223 387.5t397 134.5q121 0 214.5 -38.5t151.5 -112t76 -180.5q7 -40 6 -84q0 -74 -18 -160q-55 -252 -224 -384.5t-392 -132.5q-117 0 -209.5 36.5t-153.5 108.5t-81 178zM348 522q-13 -60 -13 -109q-1 -68 25 -116 q44 -82 175 -82q250 0 319 305q13 62 13 113q0 70 -25 118q-44 83 -174 83q-129 0 -209 -83t-111 -229z" />
<glyph unicode="p" horiz-adv-x="1273" d="M-53 -365l299 1414h289l-25 -129q55 71 145.5 110t194.5 39q212 0 308 -159q61 -101 61 -241q0 -80 -19 -171q-51 -234 -199 -377.5t-342 -143.5q-128 0 -213.5 59t-99.5 144l-115 -545h-284zM412 502q-9 -46 -9 -86q0 -74 33 -123q49 -74 154 -74q124 0 209.5 86 t115.5 250q9 46 9 84q0 73 -32 119q-50 69 -157 69q-119 0 -207 -88t-116 -237z" />
<glyph unicode="q" horiz-adv-x="1273" d="M74 551q50 234 195 376t339 142q120 0 205.5 -52.5t112.5 -133.5l32 166h291l-299 -1414h-284l106 517q-48 -79 -141 -127t-205 -48q-213 0 -310 159q-61 102 -61 244q0 79 19 171zM358 502q-8 -48 -8 -88q0 -79 32 -126q47 -69 155 -69q121 0 210 89.5t115 246.5 q7 41 7 77q0 73 -32 122q-48 73 -151 73q-126 0 -214 -85t-114 -240z" />
<glyph unicode="r" horiz-adv-x="802" d="M25 0l221 1049h270l-37 -177l8 5q59 95 134.5 141.5t146.5 46.5q75 0 127 -23l-55 -233q-15 1 -30 1q-146 0 -248 -82q-112 -90 -150 -279l-97 -449h-290z" />
<glyph unicode="s" horiz-adv-x="1019" d="M-20 168l157 164q39 -57 103 -94.5t145 -44.5h15q84 0 148 30q70 33 87 99q3 9 3 17q0 32 -40 51q-19 9 -130 41q-5 2 -9 3q-33 7 -59 14t-56.5 17t-54 21t-48 26.5t-41 33t-31 41t-21 50.5t-6.5 60.5t8 72.5q34 153 157.5 226t304.5 73q246 0 396 -162l-142 -162 q-78 94 -217 115q-16 1 -32 1q-69 0 -120 -22q-62 -27 -77 -79q-3 -12 -5.5 -20.5t5 -17.5t14 -15t22 -13t28 -11.5t33 -11t37 -11t39.5 -11t40 -12.5q40 -10 71.5 -20t66 -26t58 -34.5t46 -44.5t31 -57t12.5 -71q1 -10 1 -20q0 -32 -10 -69q-31 -150 -156.5 -234 t-322.5 -84q-134 0 -254.5 51.5t-195.5 139.5z" />
<glyph unicode="t" horiz-adv-x="724" d="M94 872l37 177h145l78 364h291l-78 -364h230l-37 -177h-230l-116 -546q-7 -32 -7 -52q1 -20 7 -28q12 -18 63 -19h146l-48 -227h-260q-120 0 -174 76q-36 50 -36 124q0 38 10 81l125 591h-146z" />
<glyph unicode="u" horiz-adv-x="1249" d="M102 371l144 678h291l-134 -633q-7 -33 -8 -59q0 -45 22 -74q34 -45 113 -45q106 0 183.5 65.5t97.5 157.5l123 588h291l-221 -1049h-287l33 133l-17 -10q-125 -148 -332 -148q-177 -1 -257 113q-54 77 -54 181q0 48 12 102z" />
<glyph unicode="v" horiz-adv-x="1107" d="M121 1049h309l64 -799l405 799h318l-599 -1049h-344z" />
<glyph unicode="w" horiz-adv-x="1662" d="M119 1049h305l-6 -811l389 811h264l43 -816l342 816h316l-496 -1049h-383l-31 678l-315 -682h-383z" />
<glyph unicode="x" horiz-adv-x="1142" d="M-111 0l478 528l-246 521h344l137 -336l287 336h362l-481 -521l252 -528h-348l-133 344l-291 -344h-361z" />
<glyph unicode="y" horiz-adv-x="1044" d="M-94 -365l24 230q230 0 340 172l-161 1012h303l61 -711h16l369 711h318l-633 -1082q-52 -87 -101 -145t-100.5 -95.5t-119 -57.5t-139 -27t-177.5 -7z" />
<glyph unicode="z" horiz-adv-x="1019" d="M-49 0l41 205l665 614h-524l47 230h887l-41 -218l-643 -600h508l-47 -231h-893z" />
<glyph unicode="{" horiz-adv-x="679" d="M76 479l26 242q136 0 164 110l80 388q26 128 125.5 210t226.5 82h140l-56 -266h-67q-41 0 -83 -31t-52 -71l-72 -357q-14 -72 -29 -99q-31 -58 -114 -99q92 -54 55 -201l-72 -354q-17 -76 68 -76h92l-57 -266h-117q-128 0 -200.5 95t-41.5 222l78 385q11 56 -9 71t-85 15 z" />
<glyph unicode="|" horiz-adv-x="532" d="M14 -156l361 1692h213l-361 -1692h-213z" />
<glyph unicode="}" horiz-adv-x="681" d="M-125 -309l55 266h68q41 0 81.5 31t49.5 69l78 357q1 3 4 20.5t4 21.5t5 19.5t7 21t9.5 19.5t13 20.5t16.5 18.5t21.5 20t27 18t33.5 19q-29 18 -45 41.5t-20 51.5t-2 51.5t8 54.5l82 358q9 76 -76 76h-90l57 266h119q127 0 199 -95.5t43 -223.5l-86 -385q-10 -56 12 -71 t90 -15l-33 -242q-133 0 -155 -110l-89 -385q-25 -128 -122 -210.5t-224 -82.5h-141z" />
<glyph unicode="~" horiz-adv-x="1085" d="M49 379q72 352 316 352q55 0 98 -16t70 -38.5t50.5 -44.5t50 -38t56.5 -16q51 0 94 40t62 123l201 -24q-38 -179 -121 -270t-207 -91q-50 0 -91.5 16t-69 39t-51.5 46t-52 39t-58 16q-49 0 -92 -39.5t-59 -118.5z" />
<glyph unicode="&#xa1;" horiz-adv-x="593" d="M-35 -387l240 987h217l-182 -987h-275zM197 752l61 297h299l-63 -297h-297z" />
<glyph unicode="&#xa2;" horiz-adv-x="1093" d="M74 549q43 199 172.5 339t326.5 173l29 139h213l-29 -139q266 -47 316 -320l-250 -67q-9 166 -170 166q-125 0 -214 -98.5t-120 -247.5q-14 -58 -11 -110t19.5 -91t53.5 -61.5t92 -22.5q94 0 169.5 52t114.5 138l215 -110q-78 -144 -187 -219.5t-259 -89.5l-39 -185h-213 l43 199q-178 48 -246.5 200t-25.5 355z" />
<glyph unicode="&#xa3;" horiz-adv-x="1292" d="M51 530l49 230h164l33 153q47 232 217 376.5t391 144.5q168 0 292 -105t144 -262l-262 -68q-6 78 -58 123t-128 45q-124 0 -217 -77.5t-119 -200.5l-27 -129h381l-49 -230h-381l-59 -282h747l-51 -248h-1016l113 530h-164z" />
<glyph unicode="&#xa4;" horiz-adv-x="1208" d="M27 313l139 117q-56 126 -23 277q25 137 125 245l-86 95l191 172l86 -109q127 72 262 72q145 0 254 -84l139 121l133 -172l-137 -117q56 -126 23 -277q-29 -139 -127 -245l86 -95l-191 -172l-84 109q-127 -72 -264 -72q-143 0 -252 84l-141 -121zM369 668 q-24 -111 38.5 -182.5t163.5 -71.5q123 0 219.5 75t120.5 203q21 111 -42.5 182.5t-166.5 71.5q-116 0 -212.5 -82t-120.5 -196z" />
<glyph unicode="&#xa5;" horiz-adv-x="1384" d="M190 139l41 191h299l39 174h-299l41 194h201l-322 715h287l254 -655l547 655h303l-627 -719h193l-39 -190h-299l-37 -174h297l-41 -191h-297l-37 -170h-241l36 170h-299z" />
<glyph unicode="&#xa6;" horiz-adv-x="565" d="M14 -156l127 602h248l-129 -602h-246zM211 768l137 645h246l-135 -645h-248z" />
<glyph unicode="&#xa7;" horiz-adv-x="1136" d="M94 281l271 53q5 -69 40.5 -98t118.5 -29q79 0 138 30.5t73 96.5q8 36 -20.5 58t-79 32.5t-112 19.5t-121.5 26.5t-106.5 46.5t-67 86t-3.5 138q24 119 140 201q-39 34 -51.5 90.5t-0.5 120.5q31 141 150 211t287 70q162 0 259.5 -70.5t114.5 -210.5l-243 -35 q-3 58 -34.5 80.5t-98.5 22.5q-76 0 -131.5 -33.5t-67.5 -93.5q-7 -34 21.5 -54.5t79 -30.5t112.5 -19.5t121.5 -29t105.5 -50.5t66 -92.5t2 -147.5q-24 -110 -133 -189q77 -65 49 -200q-16 -81 -60.5 -140.5t-109.5 -93t-139.5 -49.5t-161.5 -16q-80 0 -148.5 16t-127 50 t-93.5 93.5t-39 139.5zM473 709q1 -14 8.5 -25.5t23 -19t30.5 -13.5t40 -10.5t43 -7t48.5 -6.5t46.5 -6q44 20 71.5 54.5t26.5 76.5q-3 14 -12.5 26t-26 20t-32.5 13.5t-40.5 10t-41.5 6.5t-44.5 5t-40.5 5q-41 -19 -69 -52.5t-31 -76.5z" />
<glyph unicode="&#xa8;" horiz-adv-x="714" d="M184 1133l49 231h222l-49 -231h-222zM567 1133l49 231h222l-50 -231h-221z" />
<glyph unicode="&#xa9;" horiz-adv-x="1697" d="M117 709q0 155 62 297.5t165.5 246t246.5 165t298 61.5t297.5 -61.5t246 -165t165 -246t61.5 -297.5t-61.5 -297.5t-165 -246t-246 -165t-297.5 -61.5t-298 61.5t-246.5 165t-165.5 246t-62 297.5zM242 709q0 -130 51.5 -250t138.5 -207t207 -139t250 -52t250 52t207 139 t138.5 207t51.5 250q0 174 -87.5 323t-236.5 236.5t-323 87.5t-323 -87.5t-236.5 -236.5t-87.5 -323zM449 707q-2 100 25.5 186t80.5 151.5t138.5 103.5t193.5 38q155 0 251.5 -67.5t147.5 -198.5l-192 -84q-20 75 -75 117t-132 42q-105 0 -164.5 -81.5t-56.5 -200.5 q5 -122 63.5 -202.5t163.5 -80.5q75 -1 128.5 40.5t74.5 113.5l182 -68q-90 -280 -397 -280q-107 0 -191 38t-135.5 103.5t-78 149t-27.5 180.5z" />
<glyph unicode="&#xaa;" horiz-adv-x="745" d="M8 903q6 29 18 53.5t26 43.5t36 36.5t42 30t52 25.5t57 21t65.5 19t69.5 18t77.5 18.5t80.5 19.5q10 49 -15.5 73.5t-88.5 24.5q-66 0 -115.5 -23t-99.5 -73l-111 106q67 70 146 105t184 35q147 0 225 -66t50 -196l-101 -469h-174l14 71q-55 -43 -120 -65.5t-119 -22.5 q-109 0 -164 58.5t-35 156.5zM215 905q-6 -30 11 -47.5t55 -17.5q104 0 198 94l25 115q-167 -42 -218 -68q-63 -31 -71 -76z" />
<glyph unicode="&#xab;" horiz-adv-x="1128" d="M86 510l532 371l-43 -232l-208 -139l145 -137l-43 -232zM578 510l534 371l-43 -232l-211 -139l146 -137l-43 -232z" />
<glyph unicode="&#xac;" horiz-adv-x="1222" d="M125 543l53 254h981l-135 -637h-281l80 383h-698z" />
<glyph unicode="&#xad;" horiz-adv-x="1112" d="M137 403l49 230h787l-49 -230h-787z" />
<glyph unicode="&#xae;" horiz-adv-x="1292" d="M117 893q0 147 70.5 271.5t192 197t265.5 72.5t266.5 -72.5t193.5 -197t71 -271.5t-71 -271.5t-193.5 -197t-266.5 -72.5t-265.5 72.5t-192 197t-70.5 271.5zM225 893q0 -175 123.5 -300.5t296.5 -125.5t298.5 125.5t125.5 300.5t-125.5 301.5t-298.5 126.5 t-296.5 -126.5t-123.5 -301.5zM463 623v542h215q91 0 140.5 -45t49.5 -125q0 -105 -98 -155l141 -217h-155l-111 198h-45v-198h-137zM592 938h86q63 0 63 57q0 58 -63 58h-86v-115z" />
<glyph unicode="&#xaf;" horiz-adv-x="700" d="M201 1180l32 149h574l-31 -149h-575z" />
<glyph unicode="&#xb0;" horiz-adv-x="798" d="M59 1102q0 145 95.5 238.5t244.5 93.5q148 0 243 -93.5t95 -238.5q0 -146 -95 -240t-243 -94q-149 0 -244.5 94t-95.5 240zM254 1102q0 -63 41 -102t104 -39t103.5 39t40.5 102q0 60 -40.5 99.5t-103.5 39.5t-104 -39.5t-41 -99.5z" />
<glyph unicode="&#xb1;" horiz-adv-x="1372" d="M10 -2l47 217h1127l-45 -217h-1129zM164 721l45 219h457l86 410h217l-86 -410h456l-47 -219h-456l-86 -408h-218l89 408h-457z" />
<glyph unicode="&#xb4;" horiz-adv-x="604" d="M168 1120l281 244h303l-373 -244h-211z" />
<glyph unicode="&#xb5;" horiz-adv-x="1179" d="M-41 -266l268 1265h260l-122 -575q-41 -203 114 -203q104 0 187.5 69t105.5 169l115 540h260l-211 -999h-264l33 109q-60 -61 -134 -96.5t-141 -35.5q-72 0 -147 23l-86 -266h-238z" />
<glyph unicode="&#xb6;" horiz-adv-x="1193" d="M186 1044q24 114 104.5 199.5t189 127.5t227.5 42h184l-361 -1700h-174l203 910q-88 0 -164.5 29t-130.5 82t-76.5 133.5t-1.5 176.5zM711 -287l360 1700h174l-360 -1700h-174z" />
<glyph unicode="&#xb7;" horiz-adv-x="509" d="M158 813q12 60 59.5 97.5t110.5 37.5q72 0 112.5 -54t22.5 -134q-11 -54 -56.5 -91.5t-103.5 -37.5q-78 0 -119 53.5t-26 128.5z" />
<glyph unicode="&#xb8;" horiz-adv-x="538" d="M-135 -346l139 41q2 -31 23 -49.5t57 -18.5q42 0 69.5 22.5t30.5 53.5q5 30 -15.5 56.5t-64.5 37.5l-137 37l129 166h203l-106 -117l14 -12q60 -16 99 -68t22 -133q-19 -87 -88.5 -128.5t-153.5 -41.5q-89 0 -148 44.5t-73 109.5z" />
<glyph unicode="&#xba;" horiz-adv-x="815" d="M51 1079q37 171 151 262t269 91q167 0 248 -103.5t41 -284.5q-37 -171 -151 -259.5t-265 -88.5q-164 0 -247.5 100.5t-45.5 282.5zM238 1063q-23 -96 7 -151.5t117 -55.5q171 0 216 205q23 99 -7 156t-118 57q-169 0 -215 -211z" />
<glyph unicode="&#xbb;" horiz-adv-x="1142" d="M23 141l45 238l208 131l-145 133l43 238l383 -371zM516 141l45 238l209 131l-147 133l43 238l383 -371z" />
<glyph unicode="&#xbf;" horiz-adv-x="964" d="M-40.5 -149q-19.5 77 3.5 178q15 61 42.5 108t60.5 75.5t70 52.5t73.5 45.5t68 46.5t56 64.5t35.5 90.5l18 92h236l-25 -121q-15 -71 -43 -125t-60.5 -86t-69.5 -57t-73 -44t-67 -40t-54.5 -53.5t-33.5 -75.5q-18 -75 19.5 -113.5t113.5 -38.5q96 0 159 60.5t80 140.5 l238 -26q-18 -82 -58 -154.5t-99.5 -130t-143.5 -91.5t-182 -34q-87 0 -162 27t-129 79.5t-73.5 129.5zM391 752l62 297h288l-61 -297h-289z" />
<glyph unicode="&#xc0;" horiz-adv-x="1374" d="M-117 0l793 1413h395l189 -1413h-316l-31 315h-530l-166 -315h-334zM512 557h377l-60 588h-8zM598 1776h291l112 -244h-200z" />
<glyph unicode="&#xc1;" horiz-adv-x="1374" d="M-117 0l793 1413h395l189 -1413h-316l-31 315h-530l-166 -315h-334zM512 557h377l-60 588h-8zM797 1532l219 244h303l-311 -244h-211z" />
<glyph unicode="&#xc2;" horiz-adv-x="1374" d="M-117 0l793 1413h395l189 -1413h-316l-31 315h-530l-166 -315h-334zM512 557h377l-60 588h-8zM571 1511l301 265h154l193 -265h-213l-72 134l-135 -134h-228z" />
<glyph unicode="&#xc3;" horiz-adv-x="1374" d="M-117 0l793 1413h395l189 -1413h-316l-31 315h-530l-166 -315h-334zM512 557h377l-60 588h-8zM522 1524q29 141 92.5 198.5t155.5 57.5q49 0 87.5 -12.5t62.5 -30t44.5 -35.5t43.5 -30.5t49 -12.5q46 0 75 34.5t37 96.5l160 -27q-28 -136 -91 -197t-161 -61q-46 0 -84 13 t-62 31.5t-45 36.5t-42.5 31t-44.5 13q-42 0 -74 -35t-39 -98z" />
<glyph unicode="&#xc4;" horiz-adv-x="1374" d="M-117 0l793 1413h395l189 -1413h-316l-31 315h-530l-166 -315h-334zM512 557h377l-60 588h-8zM602 1544l49 232h221l-49 -232h-221zM985 1544l49 232h221l-49 -232h-221z" />
<glyph unicode="&#xc5;" horiz-adv-x="1374" d="M-117 0l770 1372q-61 89 -37 213q23 104 113.5 177t196.5 73q130 0 204 -92t46 -223q-21 -93 -97 -166l181 -1354h-316l-31 315h-530l-166 -315h-334zM512 557h377l-60 588h-8zM760 1567q-12 -55 12 -98.5t74 -55.5h67q43 11 76.5 44t42.5 77q15 64 -21.5 109t-101.5 45 q-53 0 -95 -34.5t-54 -86.5z" />
<glyph unicode="&#xc6;" horiz-adv-x="1947" d="M-117 0l875 1413h1284l-55 -268h-684l-64 -303h594l-57 -269h-594l-64 -307h682l-57 -266h-971l64 295h-451l-176 -295h-326zM530 537h357l137 651h-102z" />
<glyph unicode="&#xc7;" horiz-adv-x="1339" d="M79 521.5q1 101.5 25 211.5q24 113 67 215t110.5 192t152 155t197.5 103t241 38q226 0 359.5 -111t161.5 -319l-293 -84q-1 128 -64.5 190t-175.5 62q-169 0 -296.5 -130.5t-174.5 -355.5q-44 -208 18.5 -327t206.5 -119q121 0 227.5 75.5t172.5 206.5l258 -137 q-198 -361 -576 -403l-92 -101l14 -12q60 -16 99 -68t22 -133q-19 -87 -88 -128.5t-153 -41.5q-90 0 -149 44.5t-73 109.5l140 41q2 -31 23 -49.5t57 -18.5q42 0 69.5 22.5t30.5 53.5q5 30 -15.5 56.5t-64.5 37.5l-137 37l119 154q-109 16 -191 63.5t-131 117.5t-73.5 160.5 t-23.5 192z" />
<glyph unicode="&#xc8;" horiz-adv-x="1202" d="M43 0l299 1413h954l-53 -256h-655l-68 -321h592l-53 -256h-592l-70 -324h654l-54 -256h-954zM541 1776h290l113 -244h-201z" />
<glyph unicode="&#xc9;" horiz-adv-x="1202" d="M43 0l299 1413h954l-53 -256h-655l-68 -321h592l-53 -256h-592l-70 -324h654l-54 -256h-954zM739 1532l219 244h304l-312 -244h-211z" />
<glyph unicode="&#xca;" horiz-adv-x="1202" d="M43 0l299 1413h954l-53 -256h-655l-68 -321h592l-53 -256h-592l-70 -324h654l-54 -256h-954zM514 1511l301 265h154l192 -265h-213l-71 134l-136 -134h-227z" />
<glyph unicode="&#xcb;" horiz-adv-x="1202" d="M43 0l299 1413h954l-53 -256h-655l-68 -321h592l-53 -256h-592l-70 -324h654l-54 -256h-954zM545 1544l49 232h221l-49 -232h-221zM928 1544l49 232h221l-49 -232h-221z" />
<glyph unicode="&#xcc;" horiz-adv-x="606" d="M43 0l299 1413h301l-299 -1413h-301zM211 1776h291l112 -244h-200z" />
<glyph unicode="&#xcd;" horiz-adv-x="606" d="M43 0l299 1413h301l-299 -1413h-301zM410 1532l219 244h303l-311 -244h-211z" />
<glyph unicode="&#xce;" horiz-adv-x="606" d="M43 0l299 1413h301l-299 -1413h-301zM184 1511l301 265h154l192 -265h-213l-71 134l-135 -134h-228z" />
<glyph unicode="&#xcf;" horiz-adv-x="606" d="M43 0l299 1413h301l-299 -1413h-301zM215 1544l49 232h221l-49 -232h-221zM598 1544l49 232h221l-49 -232h-221z" />
<glyph unicode="&#xd0;" horiz-adv-x="1378" d="M23 616l40 193h140l127 604h420q365 0 520 -193.5t82 -541.5q-69 -329 -294.5 -503.5t-588.5 -174.5h-438l131 616h-139zM387 266h92q237 0 386.5 120t199.5 349q43 205 -42.5 307.5t-311.5 102.5h-138l-71 -336h280l-41 -193h-280z" />
<glyph unicode="&#xd1;" horiz-adv-x="1546" d="M43 0l299 1413h315l404 -977h14l207 977h301l-299 -1413h-321l-400 973h-14l-205 -973h-301zM606 1524q29 141 92.5 198.5t155.5 57.5q49 0 87.5 -12.5t62.5 -30t44.5 -35.5t43.5 -30.5t49 -12.5q46 0 75 34.5t37 96.5l160 -27q-28 -136 -91 -197t-161 -61q-46 0 -84 13 t-62 31.5t-45 36.5t-42.5 31t-44.5 13q-42 0 -74 -35t-39 -98z" />
<glyph unicode="&#xd2;" horiz-adv-x="1474" d="M104 733q69 322 285 511.5t514 189.5q321 0 469 -205t76 -549q-69 -322 -287 -511t-520 -189q-317 0 -463 204.5t-74 548.5zM414 680q-43 -203 20.5 -321.5t216.5 -118.5q174 0 308 135t180 358q44 203 -21.5 322t-222.5 119q-170 0 -302 -135t-179 -359zM643 1776h291 l113 -244h-201z" />
<glyph unicode="&#xd3;" horiz-adv-x="1474" d="M104 733q69 322 285 511.5t514 189.5q321 0 469 -205t76 -549q-69 -322 -287 -511t-520 -189q-317 0 -463 204.5t-74 548.5zM414 680q-43 -203 20.5 -321.5t216.5 -118.5q174 0 308 135t180 358q44 203 -21.5 322t-222.5 119q-170 0 -302 -135t-179 -359zM842 1532 l219 244h303l-311 -244h-211z" />
<glyph unicode="&#xd4;" horiz-adv-x="1474" d="M104 733q69 322 285 511.5t514 189.5q321 0 469 -205t76 -549q-69 -322 -287 -511t-520 -189q-317 0 -463 204.5t-74 548.5zM414 680q-43 -203 20.5 -321.5t216.5 -118.5q174 0 308 135t180 358q44 203 -21.5 322t-222.5 119q-170 0 -302 -135t-179 -359zM616 1511 l302 265h153l193 -265h-213l-72 134l-135 -134h-228z" />
<glyph unicode="&#xd5;" horiz-adv-x="1474" d="M104 733q69 322 285 511.5t514 189.5q321 0 469 -205t76 -549q-69 -322 -287 -511t-520 -189q-317 0 -463 204.5t-74 548.5zM414 680q-43 -203 20.5 -321.5t216.5 -118.5q174 0 308 135t180 358q44 203 -21.5 322t-222.5 119q-170 0 -302 -135t-179 -359zM567 1524 q29 141 92.5 198.5t155.5 57.5q49 0 87.5 -12.5t62.5 -30t44.5 -35.5t43.5 -30.5t49 -12.5q46 0 75 34.5t37 96.5l160 -27q-28 -136 -91 -197t-161 -61q-46 0 -84 13t-62 31.5t-45 36.5t-42.5 31t-44.5 13q-42 0 -74 -35t-39 -98z" />
<glyph unicode="&#xd6;" horiz-adv-x="1474" d="M104 733q69 322 285 511.5t514 189.5q321 0 469 -205t76 -549q-69 -322 -287 -511t-520 -189q-317 0 -463 204.5t-74 548.5zM414 680q-43 -203 20.5 -321.5t216.5 -118.5q174 0 308 135t180 358q44 203 -21.5 322t-222.5 119q-170 0 -302 -135t-179 -359zM647 1544 l49 232h222l-50 -232h-221zM1030 1544l49 232h221l-49 -232h-221z" />
<glyph unicode="&#xd7;" horiz-adv-x="1267" d="M154 231l317 283l-250 287l182 157l250 -284l318 280l139 -159l-317 -283l249 -287l-180 -157l-250 284l-319 -282z" />
<glyph unicode="&#xd8;" horiz-adv-x="1474" d="M-20 160l145 121q-76 188 -21 452q69 322 285 511.5t514 189.5q275 0 426 -154l121 100l117 -129l-142 -116q78 -189 23 -455q-69 -322 -287 -511t-520 -189q-273 0 -422 155l-125 -104zM397 506l699 581q-68 87 -201 87q-170 0 -302 -135t-179 -359q-20 -91 -17 -174z M453 328q66 -88 198 -88q174 0 308 135t180 358q22 102 16 178z" />
<glyph unicode="&#xd9;" horiz-adv-x="1417" d="M147 545l185 868h301l-191 -903q-28 -127 19.5 -191.5t163.5 -64.5q134 0 227.5 77t120.5 204l186 878h301l-186 -883q-56 -269 -221.5 -409.5t-440.5 -140.5q-286 0 -403 150.5t-62 414.5zM618 1776h291l113 -244h-201z" />
<glyph unicode="&#xda;" horiz-adv-x="1417" d="M147 545l185 868h301l-191 -903q-28 -127 19.5 -191.5t163.5 -64.5q134 0 227.5 77t120.5 204l186 878h301l-186 -883q-56 -269 -221.5 -409.5t-440.5 -140.5q-286 0 -403 150.5t-62 414.5zM817 1532l219 244h303l-311 -244h-211z" />
<glyph unicode="&#xdb;" horiz-adv-x="1417" d="M147 545l185 868h301l-191 -903q-28 -127 19.5 -191.5t163.5 -64.5q134 0 227.5 77t120.5 204l186 878h301l-186 -883q-56 -269 -221.5 -409.5t-440.5 -140.5q-286 0 -403 150.5t-62 414.5zM592 1511l301 265h154l192 -265h-213l-72 134l-135 -134h-227z" />
<glyph unicode="&#xdc;" horiz-adv-x="1417" d="M147 545l185 868h301l-191 -903q-28 -127 19.5 -191.5t163.5 -64.5q134 0 227.5 77t120.5 204l186 878h301l-186 -883q-56 -269 -221.5 -409.5t-440.5 -140.5q-286 0 -403 150.5t-62 414.5zM623 1544l49 232h221l-49 -232h-221zM1006 1544l49 232h221l-49 -232h-221z" />
<glyph unicode="&#xdd;" horiz-adv-x="1400" d="M190 1413h332l240 -588l485 588h348l-737 -862l-121 -551h-297l119 551zM809 1532l219 244h303l-311 -244h-211z" />
<glyph unicode="&#xde;" horiz-adv-x="1241" d="M43 0l299 1413h264l-31 -147h248q83 0 156.5 -18t135 -55t100.5 -93.5t53 -133.5t-8 -175q-24 -111 -77 -192t-129 -128t-164.5 -68.5t-193.5 -21.5h-311l-78 -381h-264zM440 631l287 4q117 -3 190 52.5t87 156.5q11 80 -37.5 122.5t-161.5 43.5h-285z" />
<glyph unicode="&#xdf;" horiz-adv-x="1177" d="M16 0l215 1014q21 102 74 183.5t124.5 132.5t154.5 77.5t170 26.5q67 0 130 -14t119 -44t94.5 -72.5t54.5 -104.5t1 -136q-12 -56 -44.5 -101.5t-71 -74.5t-76.5 -53.5t-67 -51t-36 -55.5q-5 -24 12.5 -48t46.5 -46t61.5 -53.5t58 -70t35.5 -95.5t-5 -129 q-30 -145 -148.5 -224t-285.5 -79q-72 0 -174 24l33 262q80 -30 145 -30q68 0 115 36t59 99q7 31 -4 58t-33 47t-49 42.5t-53.5 45t-47 55t-28 70.5t3.5 93q10 47 41 84.5t68.5 62.5t75 49t67.5 57.5t39 74.5q9 48 -24 76.5t-101 28.5q-104 0 -174 -65t-90 -163l-211 -989 h-275z" />
<glyph unicode="&#xe0;" horiz-adv-x="1107" d="M14 291q9 42 26 78t37.5 64t53 53.5t62 44t76.5 37.5t83.5 31t96 28t102 26t113.5 27t118 29q15 72 -22 107.5t-129 35.5q-98 0 -171 -34t-145 -107l-163 155q99 102 214.5 152.5t270.5 50.5q82 0 150 -14.5t122.5 -44t88 -74.5t45 -107t-6.5 -141l-145 -688h-256l22 104 q-81 -63 -176.5 -95t-173.5 -32q-162 0 -242 85t-51 229zM317 295q-9 -45 16.5 -71.5t80.5 -26.5q75 0 150.5 36.5t140.5 102.5l36 168q-218 -55 -288 -84q-121 -51 -136 -125zM367 1413h290l113 -244h-201z" />
<glyph unicode="&#xe1;" horiz-adv-x="1107" d="M14 291q9 42 26 78t37.5 64t53 53.5t62 44t76.5 37.5t83.5 31t96 28t102 26t113.5 27t118 29q15 72 -22 107.5t-129 35.5q-98 0 -171 -34t-145 -107l-163 155q99 102 214.5 152.5t270.5 50.5q82 0 150 -14.5t122.5 -44t88 -74.5t45 -107t-6.5 -141l-145 -688h-256l22 104 q-81 -63 -176.5 -95t-173.5 -32q-162 0 -242 85t-51 229zM317 295q-9 -45 16.5 -71.5t80.5 -26.5q75 0 150.5 36.5t140.5 102.5l36 168q-218 -55 -288 -84q-121 -51 -136 -125zM565 1169l219 244h303l-311 -244h-211z" />
<glyph unicode="&#xe2;" horiz-adv-x="1107" d="M14 291q9 42 26 78t37.5 64t53 53.5t62 44t76.5 37.5t83.5 31t96 28t102 26t113.5 27t118 29q15 72 -22 107.5t-129 35.5q-98 0 -171 -34t-145 -107l-163 155q99 102 214.5 152.5t270.5 50.5q82 0 150 -14.5t122.5 -44t88 -74.5t45 -107t-6.5 -141l-145 -688h-256l22 104 q-81 -63 -176.5 -95t-173.5 -32q-162 0 -242 85t-51 229zM317 295q-9 -45 16.5 -71.5t80.5 -26.5q75 0 150.5 36.5t140.5 102.5l36 168q-218 -55 -288 -84q-121 -51 -136 -125zM340 1149l301 264h154l192 -264h-213l-72 133l-135 -133h-227z" />
<glyph unicode="&#xe3;" horiz-adv-x="1107" d="M14 291q9 42 26 78t37.5 64t53 53.5t62 44t76.5 37.5t83.5 31t96 28t102 26t113.5 27t118 29q15 72 -22 107.5t-129 35.5q-98 0 -171 -34t-145 -107l-163 155q99 102 214.5 152.5t270.5 50.5q82 0 150 -14.5t122.5 -44t88 -74.5t45 -107t-6.5 -141l-145 -688h-256l22 104 q-81 -63 -176.5 -95t-173.5 -32q-162 0 -242 85t-51 229zM291 1161q29 141 92.5 198.5t155.5 57.5q49 0 87.5 -12.5t62.5 -30.5t44 -35.5t43 -30t49 -12.5q46 0 75.5 34.5t37.5 96.5l160 -26q-28 -136 -91 -197t-161 -61q-56 0 -101.5 19.5t-69 43t-52.5 43t-56 19.5 q-42 0 -73.5 -35t-38.5 -98zM317 295q-9 -45 16.5 -71.5t80.5 -26.5q75 0 150.5 36.5t140.5 102.5l36 168q-218 -55 -288 -84q-121 -51 -136 -125z" />
<glyph unicode="&#xe4;" horiz-adv-x="1107" d="M14 291q9 42 26 78t37.5 64t53 53.5t62 44t76.5 37.5t83.5 31t96 28t102 26t113.5 27t118 29q15 72 -22 107.5t-129 35.5q-98 0 -171 -34t-145 -107l-163 155q99 102 214.5 152.5t270.5 50.5q82 0 150 -14.5t122.5 -44t88 -74.5t45 -107t-6.5 -141l-145 -688h-256l22 104 q-81 -63 -176.5 -95t-173.5 -32q-162 0 -242 85t-51 229zM317 295q-9 -45 16.5 -71.5t80.5 -26.5q75 0 150.5 36.5t140.5 102.5l36 168q-218 -55 -288 -84q-121 -51 -136 -125zM371 1182l49 231h221l-49 -231h-221zM754 1182l49 231h221l-49 -231h-221z" />
<glyph unicode="&#xe5;" horiz-adv-x="1107" d="M14 291q9 42 26 78t37.5 64t53 53.5t62 44t76.5 37.5t83.5 31t96 28t102 26t113.5 27t118 29q15 72 -22 107.5t-129 35.5q-98 0 -171 -34t-145 -107l-163 155q99 102 214.5 152.5t270.5 50.5q82 0 150 -14.5t122.5 -44t88 -74.5t45 -107t-6.5 -141l-145 -688h-256l22 104 q-81 -63 -176.5 -95t-173.5 -32q-162 0 -242 85t-51 229zM317 295q-9 -45 16.5 -71.5t80.5 -26.5q75 0 150.5 36.5t140.5 102.5l36 168q-218 -55 -288 -84q-121 -51 -136 -125zM494 1366q19 80 87.5 135t149.5 55q99 0 156 -70.5t35 -170.5q-17 -82 -86.5 -138.5 t-151.5 -56.5q-99 0 -154.5 72t-35.5 174zM604 1352q-10 -49 16.5 -85t73.5 -36q41 0 75.5 28t43.5 68q10 49 -17 83t-77 34q-40 0 -73 -26t-42 -66z" />
<glyph unicode="&#xe6;" horiz-adv-x="1800" d="M23 299q37 165 237 268q189 68 514 119q12 28 33 68q-3 48 -39 68t-104 20q-194 0 -357 -154l-166 164q96 100 229.5 157.5t284.5 57.5q224 0 336 -106q148 108 338 108q220 0 329 -145t60 -375q-17 -77 -28 -105l-684 11l-7 -27q-20 -215 193 -215q143 0 266 111 l168 -152q-119 -105 -227 -148.5t-236 -43.5q-139 0 -242 51t-157 147q-187 -201 -438 -201q-167 0 -250 86.5t-53 235.5zM324 276q-6 -38 16 -58.5t80 -20.5q84 0 166 39.5t129 119.5q-6 64 6 138q-201 -45 -285 -99q-44 -15 -73.5 -46.5t-38.5 -72.5zM1047 645l413 -2 q18 90 -16.5 146.5t-128.5 56.5q-97 0 -166.5 -54t-101.5 -147z" />
<glyph unicode="&#xe7;" horiz-adv-x="1093" d="M60 348q-11 96 14 201q23 109 74 202t126 164.5t179 112.5t225 41q362 0 424 -328l-250 -67q-9 166 -170 166q-125 0 -214 -98.5t-120 -247.5q-14 -58 -11 -110t19.5 -91t53.5 -61.5t92 -22.5q94 0 169.5 52t114.5 138l215 -110q-139 -260 -395 -303l-94 -103l14 -12 q60 -16 99 -68t22 -133q-19 -87 -88 -128.5t-153 -41.5q-90 0 -149 44.5t-73 109.5l140 41q2 -31 22.5 -49.5t56.5 -18.5q42 0 70 22.5t31 53.5q5 30 -15.5 56.5t-64.5 37.5l-137 37l116 150q-106 15 -182 66t-113 126.5t-48 171.5z" />
<glyph unicode="&#xe8;" horiz-adv-x="1124" d="M63 303q-20 104 9 236q50 239 214 384.5t386 145.5q220 0 329 -145t60 -375q-16 -71 -29 -105l-686 11q-20 -122 30 -182t159 -60q143 0 266 111l168 -152q-119 -105 -227 -148.5t-236 -43.5q-119 0 -212.5 38t-152 109.5t-78.5 175.5zM389 645l414 -2q18 90 -17 146.5 t-129 56.5q-97 0 -166.5 -54t-101.5 -147zM399 1413h291l113 -244h-201z" />
<glyph unicode="&#xe9;" horiz-adv-x="1124" d="M63 303q-20 104 9 236q50 239 214 384.5t386 145.5q220 0 329 -145t60 -375q-16 -71 -29 -105l-686 11q-20 -122 30 -182t159 -60q143 0 266 111l168 -152q-119 -105 -227 -148.5t-236 -43.5q-119 0 -212.5 38t-152 109.5t-78.5 175.5zM389 645l414 -2q18 90 -17 146.5 t-129 56.5q-97 0 -166.5 -54t-101.5 -147zM598 1169l219 244h303l-311 -244h-211z" />
<glyph unicode="&#xea;" horiz-adv-x="1124" d="M63 303q-20 104 9 236q50 239 214 384.5t386 145.5q220 0 329 -145t60 -375q-16 -71 -29 -105l-686 11q-20 -122 30 -182t159 -60q143 0 266 111l168 -152q-119 -105 -227 -148.5t-236 -43.5q-119 0 -212.5 38t-152 109.5t-78.5 175.5zM373 1149l301 264h153l193 -264 h-213l-72 133l-135 -133h-227zM389 645l414 -2q18 90 -17 146.5t-129 56.5q-97 0 -166.5 -54t-101.5 -147z" />
<glyph unicode="&#xeb;" horiz-adv-x="1124" d="M63 303q-20 104 9 236q50 239 214 384.5t386 145.5q220 0 329 -145t60 -375q-16 -71 -29 -105l-686 11q-20 -122 30 -182t159 -60q143 0 266 111l168 -152q-119 -105 -227 -148.5t-236 -43.5q-119 0 -212.5 38t-152 109.5t-78.5 175.5zM389 645l414 -2q18 90 -17 146.5 t-129 56.5q-97 0 -166.5 -54t-101.5 -147zM403 1182l50 231h221l-49 -231h-222zM786 1182l50 231h221l-49 -231h-222z" />
<glyph unicode="&#xec;" horiz-adv-x="565" d="M27 0l221 1049h291l-222 -1049h-290zM115 1413h291l112 -244h-201z" />
<glyph unicode="&#xed;" horiz-adv-x="565" d="M27 0l221 1049h291l-222 -1049h-290zM313 1169l219 244h304l-312 -244h-211z" />
<glyph unicode="&#xee;" horiz-adv-x="565" d="M27 0l221 1049h291l-222 -1049h-290zM88 1149l301 264h154l192 -264h-213l-71 133l-136 -133h-227z" />
<glyph unicode="&#xef;" horiz-adv-x="565" d="M27 0l221 1049h291l-222 -1049h-290zM119 1182l49 231h221l-49 -231h-221zM502 1182l49 231h221l-49 -231h-221z" />
<glyph unicode="&#xf0;" horiz-adv-x="1163" d="M53 419.5q1 60.5 15 123.5q21 100 71.5 190.5t123.5 161t172 112.5t208 42q86 0 153 -31t101 -72q-38 180 -205 283l-106 -123l-101 68l99 110q-36 15 -125 47l127 180q91 -37 139 -65l117 135l96 -61l-115 -136q202 -145 269 -366t2 -529q-22 -100 -75 -190.5 t-129.5 -161t-181.5 -112t-221 -41.5q-73 0 -135.5 15.5t-110 44t-84.5 68t-59.5 88.5t-34 104t-10.5 115.5zM354 489q-26 -118 9 -192t131 -74q113 0 195.5 90.5t113.5 229.5q24 119 -10 192.5t-129 73.5q-113 0 -197 -91t-113 -229z" />
<glyph unicode="&#xf1;" horiz-adv-x="1236" d="M25 0l221 1049h289l-31 -134l8 11q61 66 147 104.5t187 38.5q171 0 254.5 -109t46.5 -280l-143 -680h-291l139 655q37 176 -119 176q-104 0 -186.5 -64t-102.5 -159l-129 -608h-290zM377 1165q29 141 92.5 198.5t155.5 57.5q49 0 87.5 -12.5t62.5 -30.5t44 -35.5t43 -30 t49 -12.5q46 0 75.5 35t37.5 97l160 -27q-28 -136 -91 -197t-161 -61q-56 0 -101.5 19.5t-69 43t-52.5 43t-56 19.5q-42 0 -73.5 -35t-38.5 -98z" />
<glyph unicode="&#xf2;" horiz-adv-x="1200" d="M64.5 299.5q-19.5 106.5 9.5 247.5q54 253 223 387.5t397 134.5q121 0 214.5 -38.5t151.5 -112t76 -180.5t-12 -244q-55 -252 -224 -384.5t-392 -132.5q-117 0 -209.5 36.5t-153.5 108t-80.5 178zM348 522q-32 -143 12.5 -225t174.5 -82q250 0 319 305q32 148 -12 231 t-174 83q-129 0 -209 -83t-111 -229zM432 1413h291l113 -244h-201z" />
<glyph unicode="&#xf3;" horiz-adv-x="1200" d="M64.5 299.5q-19.5 106.5 9.5 247.5q54 253 223 387.5t397 134.5q121 0 214.5 -38.5t151.5 -112t76 -180.5t-12 -244q-55 -252 -224 -384.5t-392 -132.5q-117 0 -209.5 36.5t-153.5 108t-80.5 178zM348 522q-32 -143 12.5 -225t174.5 -82q250 0 319 305q32 148 -12 231 t-174 83q-129 0 -209 -83t-111 -229zM631 1169l219 244h303l-311 -244h-211z" />
<glyph unicode="&#xf4;" horiz-adv-x="1200" d="M64.5 299.5q-19.5 106.5 9.5 247.5q54 253 223 387.5t397 134.5q121 0 214.5 -38.5t151.5 -112t76 -180.5t-12 -244q-55 -252 -224 -384.5t-392 -132.5q-117 0 -209.5 36.5t-153.5 108t-80.5 178zM348 522q-32 -143 12.5 -225t174.5 -82q250 0 319 305q32 148 -12 231 t-174 83q-129 0 -209 -83t-111 -229zM406 1149l301 264h153l193 -264h-213l-72 133l-135 -133h-227z" />
<glyph unicode="&#xf5;" horiz-adv-x="1200" d="M64.5 299.5q-19.5 106.5 9.5 247.5q54 253 223 387.5t397 134.5q121 0 214.5 -38.5t151.5 -112t76 -180.5t-12 -244q-55 -252 -224 -384.5t-392 -132.5q-117 0 -209.5 36.5t-153.5 108t-80.5 178zM348 522q-32 -143 12.5 -225t174.5 -82q250 0 319 305q32 148 -12 231 t-174 83q-129 0 -209 -83t-111 -229zM356 1161q29 141 92.5 198.5t155.5 57.5q49 0 87.5 -12.5t62.5 -30.5t44.5 -35.5t43.5 -30t49 -12.5q46 0 75.5 34.5t37.5 96.5l159 -26q-28 -136 -91 -197t-161 -61q-46 0 -84 13t-62 31.5t-45 36.5t-42.5 31t-44.5 13q-42 0 -74 -35 t-39 -98z" />
<glyph unicode="&#xf6;" horiz-adv-x="1200" d="M64.5 299.5q-19.5 106.5 9.5 247.5q54 253 223 387.5t397 134.5q121 0 214.5 -38.5t151.5 -112t76 -180.5t-12 -244q-55 -252 -224 -384.5t-392 -132.5q-117 0 -209.5 36.5t-153.5 108t-80.5 178zM348 522q-32 -143 12.5 -225t174.5 -82q250 0 319 305q32 148 -12 231 t-174 83q-129 0 -209 -83t-111 -229zM436 1182l49 231h222l-50 -231h-221zM819 1182l49 231h222l-50 -231h-221z" />
<glyph unicode="&#xf7;" horiz-adv-x="1200" d="M137 403l49 230h875l-49 -230h-875zM362 10l50 226h256l-47 -226h-259zM528 795l47 225h259l-48 -225h-258z" />
<glyph unicode="&#xf8;" horiz-adv-x="1200" d="M41 137l61 51q-74 141 -28 359q54 253 223 387.5t397 134.5q214 0 332 -115l53 45l82 -90l-63 -51q74 -149 26 -364q-55 -252 -224 -384.5t-392 -132.5q-212 0 -334 113l-53 -43zM336 381l481 401q-49 52 -149 52q-129 0 -209 -83t-111 -229q-18 -76 -12 -141zM385 266 q51 -51 150 -51q250 0 319 305q18 80 12 146z" />
<glyph unicode="&#xf9;" horiz-adv-x="1249" d="M102 371l144 678h291l-134 -633q-20 -88 14 -133t113 -45q106 0 183.5 65.5t97.5 157.5l123 588h291l-221 -1049h-287l33 133l-17 -10q-125 -148 -332 -148q-177 0 -256.5 113.5t-42.5 282.5zM457 1413h291l112 -244h-201z" />
<glyph unicode="&#xfa;" horiz-adv-x="1249" d="M102 371l144 678h291l-134 -633q-20 -88 14 -133t113 -45q106 0 183.5 65.5t97.5 157.5l123 588h291l-221 -1049h-287l33 133l-17 -10q-125 -148 -332 -148q-177 0 -256.5 113.5t-42.5 282.5zM655 1169l219 244h304l-312 -244h-211z" />
<glyph unicode="&#xfb;" horiz-adv-x="1249" d="M102 371l144 678h291l-134 -633q-20 -88 14 -133t113 -45q106 0 183.5 65.5t97.5 157.5l123 588h291l-221 -1049h-287l33 133l-17 -10q-125 -148 -332 -148q-177 0 -256.5 113.5t-42.5 282.5zM430 1149l301 264h154l192 -264h-213l-71 133l-136 -133h-227z" />
<glyph unicode="&#xfc;" horiz-adv-x="1249" d="M102 371l144 678h291l-134 -633q-20 -88 14 -133t113 -45q106 0 183.5 65.5t97.5 157.5l123 588h291l-221 -1049h-287l33 133l-17 -10q-125 -148 -332 -148q-177 0 -256.5 113.5t-42.5 282.5zM461 1182l49 231h221l-49 -231h-221zM844 1182l49 231h221l-49 -231h-221z " />
<glyph unicode="&#xfd;" horiz-adv-x="1044" d="M-94 -365l24 230q230 0 340 172l-161 1012h303l61 -711h16l369 711h318l-633 -1082q-52 -87 -101 -145t-100.5 -95.5t-119 -57.5t-139 -27t-177.5 -7zM559 1169l219 244h303l-311 -244h-211z" />
<glyph unicode="&#xfe;" horiz-adv-x="1239" d="M-53 -365l377 1778h294l-106 -518q138 125 311 125q103 0 179.5 -41.5t117.5 -114.5t53.5 -173.5t-14.5 -217.5q-47 -219 -185 -356t-327 -137q-211 0 -291 143l-16 -8l-102 -480h-291zM414 483q-21 -121 22.5 -192.5t147.5 -71.5q124 0 208 85.5t109 232.5 q19 131 -24 201.5t-150 70.5q-120 0 -204.5 -91t-108.5 -235z" />
<glyph unicode="&#xff;" horiz-adv-x="1044" d="M-94 -365l24 230q230 0 340 172l-161 1012h303l61 -711h16l369 711h318l-633 -1082q-52 -87 -101 -145t-100.5 -95.5t-119 -57.5t-139 -27t-177.5 -7zM365 1182l49 231h221l-49 -231h-221zM748 1182l49 231h221l-49 -231h-221z" />
<glyph unicode="&#x100;" horiz-adv-x="1374" d="M-117 0l793 1413h395l189 -1413h-316l-31 315h-530l-166 -315h-334zM512 557h377l-60 588h-8zM631 1591l33 150h573l-31 -150h-575z" />
<glyph unicode="&#x101;" horiz-adv-x="1107" d="M14 291q9 42 26 78t37.5 64t53 53.5t62 44t76.5 37.5t83.5 31t96 28t102 26t113.5 27t118 29q15 72 -22 107.5t-129 35.5q-98 0 -171 -34t-145 -107l-163 155q99 102 214.5 152.5t270.5 50.5q82 0 150 -14.5t122.5 -44t88 -74.5t45 -107t-6.5 -141l-145 -688h-256l22 104 q-81 -63 -176.5 -95t-173.5 -32q-162 0 -242 85t-51 229zM317 295q-9 -45 16.5 -71.5t80.5 -26.5q75 0 150.5 36.5t140.5 102.5l36 168q-218 -55 -288 -84q-121 -51 -136 -125zM399 1229l33 149h574l-31 -149h-576z" />
<glyph unicode="&#x102;" horiz-adv-x="1374" d="M-117 0l793 1413h395l189 -1413h-316l-31 315h-530l-166 -315h-334zM512 557h377l-60 588h-8zM639 1804h178q-10 -79 20.5 -113t86.5 -34q63 0 107 38t59 109h184q-25 -152 -119.5 -226.5t-234.5 -74.5q-145 0 -222 79t-59 222z" />
<glyph unicode="&#x103;" horiz-adv-x="1107" d="M14 291q9 42 26 78t37.5 64t53 53.5t62 44t76.5 37.5t83.5 31t96 28t102 26t113.5 27t118 29q15 72 -22 107.5t-129 35.5q-98 0 -171 -34t-145 -107l-163 155q99 102 214.5 152.5t270.5 50.5q82 0 150 -14.5t122.5 -44t88 -74.5t45 -107t-6.5 -141l-145 -688h-256l22 104 q-81 -63 -176.5 -95t-173.5 -32q-162 0 -242 85t-51 229zM317 295q-9 -45 16.5 -71.5t80.5 -26.5q75 0 150.5 36.5t140.5 102.5l36 168q-218 -55 -288 -84q-121 -51 -136 -125zM408 1442h178q-10 -79 20.5 -113.5t85.5 -34.5q63 0 107 38.5t59 109.5h184 q-25 -152 -119.5 -226.5t-234.5 -74.5q-144 0 -221 79t-59 222z" />
<glyph unicode="&#x104;" horiz-adv-x="1374" d="M-117 0l793 1413h395l189 -1413h4q-103 -47 -162.5 -97.5t-87.5 -113.5q-16 -40 -3.5 -65t44.5 -25q30 0 59.5 19.5t50.5 50.5l129 -121q-101 -115 -235 -115q-48 0 -89.5 14t-74 43.5t-44 75.5t0.5 111q27 126 178 223h-86l-31 315h-530l-166 -315h-334zM512 557h377 l-60 588h-8z" />
<glyph unicode="&#x105;" horiz-adv-x="1107" d="M14 291q9 42 26 78t37.5 64t53 53.5t62 44t76.5 37.5t83.5 31t96 28t102 26t113.5 27t118 29q15 72 -22 107.5t-129 35.5q-98 0 -171 -34t-145 -107l-163 155q99 102 214.5 152.5t270.5 50.5q82 0 150 -14.5t122.5 -44t88 -74.5t45 -107t-6.5 -141l-145 -688 q-103 -47 -162.5 -97.5t-87.5 -113.5q-16 -40 -3.5 -65t44.5 -25q30 0 60 19.5t51 50.5l129 -121q-101 -115 -236 -115q-48 0 -89.5 14t-74 43.5t-44 75.5t0.5 111q27 126 178 223h-22l22 104q-81 -63 -176.5 -95t-173.5 -32q-162 0 -242 85t-51 229zM317 295 q-9 -45 16.5 -71.5t80.5 -26.5q75 0 150.5 36.5t140.5 102.5l36 168q-218 -55 -288 -84q-121 -51 -136 -125z" />
<glyph unicode="&#x106;" horiz-adv-x="1339" d="M80.5 539q2.5 93 23.5 194q24 113 67 215t110.5 192t152 155t197.5 103t241 38q226 0 359.5 -111t161.5 -319l-293 -84q-1 128 -64.5 190t-175.5 62q-169 0 -296.5 -130.5t-174.5 -355.5q-44 -208 18.5 -327t206.5 -119q121 0 227.5 75.5t172.5 206.5l258 -137 q-226 -407 -664 -407q-113 0 -203 28t-151.5 79t-102 120.5t-57 154t-14 177.5zM793 1532l219 244h303l-311 -244h-211z" />
<glyph unicode="&#x107;" horiz-adv-x="1093" d="M58 371.5q-1 84.5 16 177.5q23 109 74 202t126 164.5t179 112.5t225 41q362 0 424 -328l-250 -67q-9 166 -170 166q-125 0 -214 -98.5t-120 -247.5q-14 -58 -11 -110t19.5 -91t53.5 -61.5t92 -22.5q94 0 169.5 52t114.5 138l215 -110q-86 -159 -210.5 -235.5 t-298.5 -76.5q-104 0 -186.5 30t-133.5 83t-82 125t-32 156.5zM592 1169l219 244h303l-311 -244h-211z" />
<glyph unicode="&#x10a;" horiz-adv-x="1339" d="M80.5 539q2.5 93 23.5 194q24 113 67 215t110.5 192t152 155t197.5 103t241 38q226 0 359.5 -111t161.5 -319l-293 -84q-1 128 -64.5 190t-175.5 62q-169 0 -296.5 -130.5t-174.5 -355.5q-44 -208 18.5 -327t206.5 -119q121 0 227.5 75.5t172.5 206.5l258 -137 q-226 -407 -664 -407q-113 0 -203 28t-151.5 79t-102 120.5t-57 154t-14 177.5zM795 1546l47 230h217l-49 -230h-215z" />
<glyph unicode="&#x10b;" horiz-adv-x="1093" d="M58 371.5q-1 84.5 16 177.5q23 109 74 202t126 164.5t179 112.5t225 41q362 0 424 -328l-250 -67q-9 166 -170 166q-125 0 -214 -98.5t-120 -247.5q-14 -58 -11 -110t19.5 -91t53.5 -61.5t92 -22.5q94 0 169.5 52t114.5 138l215 -110q-86 -159 -210.5 -235.5 t-298.5 -76.5q-104 0 -186.5 30t-133.5 83t-82 125t-32 156.5zM594 1184l47 229h217l-49 -229h-215z" />
<glyph unicode="&#x10c;" horiz-adv-x="1339" d="M80.5 539q2.5 93 23.5 194q24 113 67 215t110.5 192t152 155t197.5 103t241 38q226 0 359.5 -111t161.5 -319l-293 -84q-1 128 -64.5 190t-175.5 62q-169 0 -296.5 -130.5t-174.5 -355.5q-44 -208 18.5 -327t206.5 -119q121 0 227.5 75.5t172.5 206.5l258 -137 q-226 -407 -664 -407q-113 0 -203 28t-151.5 79t-102 120.5t-57 154t-14 177.5zM631 1776h209l73 -127l136 127h229l-303 -260h-154z" />
<glyph unicode="&#x10d;" horiz-adv-x="1093" d="M58 371.5q-1 84.5 16 177.5q23 109 74 202t126 164.5t179 112.5t225 41q362 0 424 -328l-250 -67q-9 166 -170 166q-125 0 -214 -98.5t-120 -247.5q-14 -58 -11 -110t19.5 -91t53.5 -61.5t92 -22.5q94 0 169.5 52t114.5 138l215 -110q-86 -159 -210.5 -235.5 t-298.5 -76.5q-104 0 -186.5 30t-133.5 83t-82 125t-32 156.5zM430 1413h209l74 -127l135 127h229l-303 -260h-153z" />
<glyph unicode="&#x10e;" horiz-adv-x="1390" d="M43 0l299 1413h420q365 0 520 -193.5t82 -541.5q-69 -329 -294.5 -503.5t-588.5 -174.5h-438zM399 266h93q237 0 386 120t199 349q43 205 -42.5 307.5t-311.5 102.5h-137zM559 1776h209l74 -127l135 127h229l-303 -260h-153z" />
<glyph unicode="&#x10f;" horiz-adv-x="1421" d="M67.5 252q-26.5 128 6.5 299q50 236 192 377t344 141q119 0 202 -50.5t114 -127.5l6 2l104 520h291l-299 -1413h-285l25 127q-58 -70 -147.5 -110t-192.5 -40q-147 0 -240.5 73.5t-120 201.5zM358 502q-30 -145 11.5 -213t156.5 -68q118 0 209.5 89t124.5 243 q26 127 -17 198.5t-145 71.5q-130 0 -219 -83t-121 -238zM1300 842l187 299h-109l60 274h303l-55 -274l-246 -299h-140z" />
<glyph unicode="&#x110;" horiz-adv-x="1378" d="M23 616l40 193h140l127 604h420q365 0 520 -193.5t82 -541.5q-69 -329 -294.5 -503.5t-588.5 -174.5h-438l131 616h-139zM387 266h92q237 0 386.5 120t199.5 349q43 205 -42.5 307.5t-311.5 102.5h-138l-71 -336h280l-41 -193h-280z" />
<glyph unicode="&#x111;" horiz-adv-x="1273" d="M67.5 252q-26.5 128 6.5 299q50 236 192 377t344 141q119 0 202 -50.5t114 -127.5l6 2l53 266h-235l28 133h234l24 121h291l-24 -121h137l-29 -133h-137l-246 -1159h-285l25 127q-58 -70 -147.5 -110t-192.5 -40q-147 0 -240.5 73.5t-120 201.5zM358 502 q-30 -145 11.5 -213t156.5 -68q118 0 209.5 89t124.5 243q26 127 -17 198.5t-145 71.5q-130 0 -219 -83t-121 -238z" />
<glyph unicode="&#x112;" horiz-adv-x="1202" d="M43 0l299 1413h954l-53 -256h-655l-68 -321h592l-53 -256h-592l-70 -324h654l-54 -256h-954zM573 1591l33 150h574l-31 -150h-576z" />
<glyph unicode="&#x113;" horiz-adv-x="1124" d="M63 303q-20 104 9 236q50 239 214 384.5t386 145.5q220 0 329 -145t60 -375q-16 -71 -29 -105l-686 11q-20 -122 30 -182t159 -60q143 0 266 111l168 -152q-119 -105 -227 -148.5t-236 -43.5q-119 0 -212.5 38t-152 109.5t-78.5 175.5zM389 645l414 -2q18 90 -17 146.5 t-129 56.5q-97 0 -166.5 -54t-101.5 -147zM432 1229l33 149h573l-30 -149h-576z" />
<glyph unicode="&#x116;" horiz-adv-x="1202" d="M43 0l299 1413h954l-53 -256h-655l-68 -321h592l-53 -256h-592l-70 -324h654l-54 -256h-954zM741 1546l47 230h218l-50 -230h-215z" />
<glyph unicode="&#x117;" horiz-adv-x="1124" d="M63 303q-20 104 9 236q50 239 214 384.5t386 145.5q220 0 329 -145t60 -375q-16 -71 -29 -105l-686 11q-20 -122 30 -182t159 -60q143 0 266 111l168 -152q-119 -105 -227 -148.5t-236 -43.5q-119 0 -212.5 38t-152 109.5t-78.5 175.5zM389 645l414 -2q18 90 -17 146.5 t-129 56.5q-97 0 -166.5 -54t-101.5 -147zM600 1184l47 229h217l-49 -229h-215z" />
<glyph unicode="&#x118;" horiz-adv-x="1202" d="M43 0l299 1413h954l-53 -256h-655l-68 -321h592l-53 -256h-592l-70 -324h654l-54 -256q-103 -47 -162 -97t-87 -114q-16 -40 -4 -65t44 -25q30 0 60 19.5t51 50.5l129 -121q-101 -115 -235 -115q-48 0 -89.5 14t-74 43.5t-44 75.5t0.5 111q27 126 178 223h-721z" />
<glyph unicode="&#x119;" horiz-adv-x="1124" d="M62.5 305.5q-19.5 103.5 9.5 233.5q50 239 214 384.5t386 145.5q220 0 329 -145t60 -375q-16 -71 -29 -105l-686 11q-20 -122 30 -182t159 -60q143 0 266 111l168 -152q-133 -118 -262 -162q-64 -52 -91 -116q-16 -40 -3.5 -65.5t44.5 -25.5q30 0 60 19.5t51 50.5 l129 -121q-100 -114 -235 -114q-48 0 -89.5 14t-74 43t-44 75t0.5 111q12 53 43 99q-117 1 -209 40t-149.5 110.5t-77 175zM389 645l414 -2q18 90 -17 146.5t-129 56.5q-97 0 -166.5 -54t-101.5 -147z" />
<glyph unicode="&#x11a;" horiz-adv-x="1202" d="M43 0l299 1413h954l-53 -256h-655l-68 -321h592l-53 -256h-592l-70 -324h654l-54 -256h-954zM578 1776h208l74 -127l135 127h230l-303 -260h-154z" />
<glyph unicode="&#x11b;" horiz-adv-x="1124" d="M63 303q-20 104 9 236q50 239 214 384.5t386 145.5q220 0 329 -145t60 -375q-16 -71 -29 -105l-686 11q-20 -122 30 -182t159 -60q143 0 266 111l168 -152q-119 -105 -227 -148.5t-236 -43.5q-119 0 -212.5 38t-152 109.5t-78.5 175.5zM389 645l414 -2q18 90 -17 146.5 t-129 56.5q-97 0 -166.5 -54t-101.5 -147zM436 1413h209l74 -127l135 127h229l-303 -260h-153z" />
<glyph unicode="&#x11e;" horiz-adv-x="1488" d="M83 501q-1 113 23 238q30 145 99.5 270.5t171 221t242 150.5t301.5 55q116 0 211.5 -32t159.5 -88t103 -129t52 -159l-266 -57q-44 211 -277 211q-104 0 -192 -40t-149.5 -110t-103.5 -157.5t-63 -190.5q-16 -74 -18 -138.5t13 -120.5t47.5 -96t88 -62.5t131.5 -22.5 q164 0 283 88.5t150 212.5h-306l52 241h577l-166 -786h-237l24 164q-83 -90 -200.5 -137t-245.5 -47q-120 0 -216 39t-156.5 108.5t-96 165t-36.5 208.5zM680 1804h178q-10 -79 20.5 -113t86.5 -34q63 0 106.5 38t58.5 109h185q-25 -152 -119.5 -226.5t-234.5 -74.5 q-145 0 -222 79t-59 222z" />
<glyph unicode="&#x11f;" horiz-adv-x="1269" d="M-43 -182l158 157q50 -80 133.5 -112.5t171.5 -32.5q120 0 212 61t116 170l24 103q-47 -60 -133.5 -96.5t-192.5 -36.5q-215 0 -317 148.5t-49 400.5q50 231 198 360t343 129q112 0 193 -47.5t110 -118.5l4 12l26 134h293l-213 -1000q-21 -98 -65.5 -175t-100.5 -125 t-126.5 -79t-138.5 -43t-142 -12q-368 0 -504 203zM362 520q-20 -118 26 -189t157 -71q128 0 212.5 84t106.5 221q21 119 -23 194t-157 75q-125 0 -211.5 -88t-110.5 -226zM477 1442h178q-10 -79 20.5 -113.5t86.5 -34.5q63 0 107 38.5t59 109.5h184q-25 -152 -119.5 -226.5 t-234.5 -74.5q-145 0 -222 79t-59 222z" />
<glyph unicode="&#x120;" horiz-adv-x="1488" d="M83 501q-1 113 23 238q30 145 99.5 270.5t171 221t242 150.5t301.5 55q116 0 211.5 -32t159.5 -88t103 -129t52 -159l-266 -57q-44 211 -277 211q-104 0 -192 -40t-149.5 -110t-103.5 -157.5t-63 -190.5q-16 -74 -18 -138.5t13 -120.5t47.5 -96t88 -62.5t131.5 -22.5 q164 0 283 88.5t150 212.5h-306l52 241h577l-166 -786h-237l24 164q-83 -90 -200.5 -137t-245.5 -47q-120 0 -216 39t-156.5 108.5t-96 165t-36.5 208.5zM840 1546l47 230h217l-49 -230h-215z" />
<glyph unicode="&#x121;" horiz-adv-x="1269" d="M-43 -182l158 157q50 -80 133.5 -112.5t171.5 -32.5q120 0 212 61t116 170l24 103q-47 -60 -133.5 -96.5t-192.5 -36.5q-215 0 -317 148.5t-49 400.5q50 231 198 360t343 129q112 0 193 -47.5t110 -118.5l4 12l26 134h293l-213 -1000q-21 -98 -65.5 -175t-100.5 -125 t-126.5 -79t-138.5 -43t-142 -12q-368 0 -504 203zM362 520q-20 -118 26 -189t157 -71q128 0 212.5 84t106.5 221q21 119 -23 194t-157 75q-125 0 -211.5 -88t-110.5 -226zM637 1184l47 229h217l-49 -229h-215z" />
<glyph unicode="&#x122;" horiz-adv-x="1488" d="M83 501q-1 113 23 238q30 145 99.5 270.5t171 221t242 150.5t301.5 55q116 0 211.5 -32t159.5 -88t103 -129t52 -159l-266 -57q-44 211 -277 211q-104 0 -192 -40t-149.5 -110t-103.5 -157.5t-63 -190.5q-16 -74 -18 -138.5t13 -120.5t47.5 -96t88 -62.5t131.5 -22.5 q164 0 283 88.5t150 212.5h-306l52 241h577l-166 -786h-237l24 164q-83 -90 -200.5 -137t-245.5 -47q-120 0 -216 39t-156.5 108.5t-96 165t-36.5 208.5zM229 -436l203 301h291l-326 -301h-168z" />
<glyph unicode="&#x123;" horiz-adv-x="1265" d="M-43 -182l158 157q50 -80 133.5 -112.5t171.5 -32.5q120 0 212 61t116 170l24 103q-47 -60 -133.5 -96.5t-192.5 -36.5q-215 0 -317 148.5t-49 400.5q50 231 198 360t343 129q112 0 193 -47.5t110 -118.5l4 12l26 134h293l-213 -1000q-21 -98 -65.5 -175t-100.5 -125 t-126.5 -79t-138.5 -43t-142 -12q-368 0 -504 203zM362 520q-20 -118 26 -189t157 -71q128 0 212.5 84t106.5 221q21 119 -23 194t-157 75q-125 0 -211.5 -88t-110.5 -226zM471 1143l326 268h168l-203 -268h-291z" />
<glyph unicode="&#x126;" horiz-adv-x="1478" d="M43 0l217 1028h-102l37 172h102l45 213h301l-45 -213h571l45 213h302l-46 -213h103l-37 -172h-102l-217 -1028h-302l121 573h-571l-121 -573h-301zM520 842h572l41 186h-572z" />
<glyph unicode="&#x127;" horiz-adv-x="1236" d="M25 0l245 1163h-139l29 133h139l25 117h290l-24 -117h231l-28 -133h-230l-49 -235q63 69 151 105t183 36q178 0 256.5 -110.5t42.5 -278.5l-143 -680h-291l139 655q39 181 -117 181q-106 0 -189 -68t-102 -160l-129 -608h-290z" />
<glyph unicode="&#x128;" horiz-adv-x="606" d="M43 0l299 1413h301l-299 -1413h-301zM135 1524q29 141 92.5 198.5t155.5 57.5q49 0 87.5 -12.5t62.5 -30t44.5 -35.5t43.5 -30.5t49 -12.5q46 0 75 34.5t37 96.5l160 -27q-28 -136 -91 -197t-161 -61q-46 0 -84 13t-62 31.5t-45 36.5t-42.5 31t-44.5 13q-42 0 -74 -35 t-39 -98z" />
<glyph unicode="&#x129;" horiz-adv-x="565" d="M27 0l221 1049h291l-222 -1049h-290zM39 1161q29 141 92.5 198.5t155.5 57.5q49 0 87.5 -12.5t62.5 -30.5t44 -35.5t43 -30t49 -12.5q46 0 75.5 34.5t37.5 96.5l160 -26q-28 -136 -91 -197t-161 -61q-56 0 -101.5 19.5t-69 43t-52.5 43t-56 19.5q-42 0 -73.5 -35 t-38.5 -98z" />
<glyph unicode="&#x12a;" horiz-adv-x="606" d="M43 0l299 1413h301l-299 -1413h-301zM244 1591l32 150h574l-31 -150h-575z" />
<glyph unicode="&#x12b;" horiz-adv-x="565" d="M27 0l221 1049h291l-222 -1049h-290zM147 1229l33 149h574l-31 -149h-576z" />
<glyph unicode="&#x12e;" horiz-adv-x="606" d="M-68.5 -334q-11.5 46 0.5 111q27 125 179 223h-68l299 1413h301l-299 -1413q-103 -47 -162.5 -97.5t-87.5 -113.5q-16 -40 -3.5 -65t44.5 -25q30 0 60 19.5t51 50.5l129 -121q-101 -115 -236 -115q-48 0 -89.5 14t-74 43.5t-44 75.5z" />
<glyph unicode="&#x12f;" horiz-adv-x="563" d="M-92.5 -340q-11.5 46 0.5 111q29 130 188 229h-71l221 1049h291l-222 -1049h-32l36 -6q-103 -47 -162 -97t-87 -114q-16 -40 -3.5 -65t44.5 -25q30 0 59.5 19.5t50.5 49.5l129 -120q-101 -115 -235 -115q-48 0 -89.5 14t-74 43.5t-44 75.5zM274 1184l50 229h292l-49 -229 h-293z" />
<glyph unicode="&#x130;" horiz-adv-x="606" d="M43 0l299 1413h301l-299 -1413h-301zM412 1546l47 230h217l-49 -230h-215z" />
<glyph unicode="&#x131;" horiz-adv-x="565" d="M27 0l221 1049h291l-222 -1049h-290z" />
<glyph unicode="&#x136;" horiz-adv-x="1437" d="M43 0l299 1413h301l-137 -645l694 645h389l-671 -592l401 -821h-336l-283 629l-274 -242l-82 -387h-301zM250 -436l203 301h290l-325 -301h-168z" />
<glyph unicode="&#x137;" horiz-adv-x="1181" d="M25 0l299 1413h290l-161 -760l479 396h358l-510 -414l314 -635h-310l-206 469l-197 -160l-66 -309h-290zM137 -436l203 301h291l-326 -301h-168z" />
<glyph unicode="&#x139;" horiz-adv-x="1073" d="M43 0l299 1413h301l-246 -1157h604l-53 -256h-905zM406 1534l219 244h303l-312 -244h-210z" />
<glyph unicode="&#x13a;" horiz-adv-x="565" d="M27 0l299 1413h290l-299 -1413h-290zM391 1534l219 244h303l-311 -244h-211z" />
<glyph unicode="&#x13b;" horiz-adv-x="1073" d="M43 0l299 1413h301l-246 -1157h604l-53 -256h-905zM121 -436l203 301h290l-325 -301h-168z" />
<glyph unicode="&#x13c;" horiz-adv-x="565" d="M-207 -436l203 301h291l-326 -301h-168zM27 0l299 1413h290l-299 -1413h-290z" />
<glyph unicode="&#x13d;" horiz-adv-x="1073" d="M43 0l299 1413h301l-246 -1157h604l-53 -256h-905zM774 809l197 315h-113l62 291h321l-59 -291l-260 -315h-148z" />
<glyph unicode="&#x13e;" horiz-adv-x="759" d="M27 0l299 1413h290l-299 -1413h-290zM582 809l196 315h-112l61 291h322l-60 -291l-260 -315h-147z" />
<glyph unicode="&#x141;" horiz-adv-x="1073" d="M-51 285l41 225l188 125l164 778h301l-115 -545l236 158l-47 -240l-240 -157l-80 -373h604l-53 -256h-905l86 401z" />
<glyph unicode="&#x142;" horiz-adv-x="565" d="M-86 352l45 232l223 147l144 682h290l-96 -455l244 162l-49 -248l-246 -159l-152 -713h-290l104 494z" />
<glyph unicode="&#x143;" horiz-adv-x="1546" d="M43 0l299 1413h315l404 -977h14l207 977h301l-299 -1413h-321l-400 973h-14l-205 -973h-301zM881 1532l219 244h303l-311 -244h-211z" />
<glyph unicode="&#x144;" horiz-adv-x="1236" d="M25 0l221 1049h289l-31 -134l8 11q61 66 147 104.5t187 38.5q171 0 254.5 -109t46.5 -280l-143 -680h-291l139 655q37 176 -119 176q-104 0 -186.5 -64t-102.5 -159l-129 -608h-290zM651 1174l219 243h304l-312 -243h-211z" />
<glyph unicode="&#x145;" horiz-adv-x="1546" d="M43 0l299 1413h315l404 -977h14l207 977h301l-299 -1413h-321l-400 973h-14l-205 -973h-301zM283 -436l202 301h291l-325 -301h-168z" />
<glyph unicode="&#x146;" horiz-adv-x="1236" d="M25 0l221 1049h289l-31 -134l8 11q61 66 147 104.5t187 38.5q171 0 254.5 -109t46.5 -280l-143 -680h-291l139 655q37 176 -119 176q-104 0 -186.5 -64t-102.5 -159l-129 -608h-290zM135 -436l203 301h291l-326 -301h-168z" />
<glyph unicode="&#x147;" horiz-adv-x="1546" d="M43 0l299 1413h315l404 -977h14l207 977h301l-299 -1413h-321l-400 973h-14l-205 -973h-301zM719 1776h209l73 -127l136 127h229l-303 -260h-154z" />
<glyph unicode="&#x148;" horiz-adv-x="1236" d="M25 0l221 1049h289l-31 -134l8 11q61 66 147 104.5t187 38.5q171 0 254.5 -109t46.5 -280l-143 -680h-291l139 655q37 176 -119 176q-104 0 -186.5 -64t-102.5 -159l-129 -608h-290zM489 1417h209l74 -127l135 127h230l-303 -260h-154z" />
<glyph unicode="&#x14a;" horiz-adv-x="1546" d="M43 0l299 1413h315l404 -977h14l207 977h301l-299 -1413h-147l143 -12q-32 -152 -121.5 -214.5t-277.5 -62.5h-123l28 146h52q61 0 98.5 43t52.5 100h-26l-400 973h-14l-205 -973h-301z" />
<glyph unicode="&#x14b;" horiz-adv-x="1249" d="M23 0l210 999h271l-37 -159l16 12q126 164 336 164q69 0 124.5 -17.5t91.5 -49t60.5 -72t34 -89t9.5 -98.5t-11 -102l-120 -570q-22 -101 -52 -151q-94 -156 -358 -156h-147l38 189h78q67 0 107.5 44t52.5 93l111 526q20 91 -9.5 147t-113.5 56q-103 0 -189.5 -72 t-107.5 -170l-111 -524h-284z" />
<glyph unicode="&#x14c;" horiz-adv-x="1474" d="M104 733q69 322 285 511.5t514 189.5q321 0 469 -205t76 -549q-69 -322 -287 -511t-520 -189q-317 0 -463 204.5t-74 548.5zM414 680q-43 -203 20.5 -321.5t216.5 -118.5q174 0 308 135t180 358q44 203 -21.5 322t-222.5 119q-170 0 -302 -135t-179 -359zM676 1591 l33 150h573l-31 -150h-575z" />
<glyph unicode="&#x14d;" horiz-adv-x="1200" d="M64.5 299.5q-19.5 106.5 9.5 247.5q54 253 223 387.5t397 134.5q121 0 214.5 -38.5t151.5 -112t76 -180.5t-12 -244q-55 -252 -224 -384.5t-392 -132.5q-117 0 -209.5 36.5t-153.5 108t-80.5 178zM348 522q-32 -143 12.5 -225t174.5 -82q250 0 319 305q32 148 -12 231 t-174 83q-129 0 -209 -83t-111 -229zM465 1229l33 149h573l-31 -149h-575z" />
<glyph unicode="&#x150;" horiz-adv-x="1474" d="M104 733q69 322 285 511.5t514 189.5q321 0 469 -205t76 -549q-69 -322 -287 -511t-520 -189q-317 0 -463 204.5t-74 548.5zM414 680q-43 -203 20.5 -321.5t216.5 -118.5q174 0 308 135t180 358q44 203 -21.5 322t-222.5 119q-170 0 -302 -135t-179 -359zM627 1542 l254 234h249l-286 -234h-217zM1006 1542l256 234h282l-325 -234h-213z" />
<glyph unicode="&#x151;" horiz-adv-x="1200" d="M64.5 299.5q-19.5 106.5 9.5 247.5q54 253 223 387.5t397 134.5q121 0 214.5 -38.5t151.5 -112t76 -180.5t-12 -244q-55 -252 -224 -384.5t-392 -132.5q-117 0 -209.5 36.5t-153.5 108t-80.5 178zM348 522q-32 -143 12.5 -225t174.5 -82q250 0 319 305q32 148 -12 231 t-174 83q-129 0 -209 -83t-111 -229zM416 1180l254 233h250l-287 -233h-217zM795 1180l256 233h282l-325 -233h-213z" />
<glyph unicode="&#x152;" horiz-adv-x="2217" d="M104 733q69 322 285 511.5t514 189.5q154 0 271 -50t188 -143l35 172h899l-51 -256h-617l-63 -321h557l-51 -256h-558l-63 -324h614l-51 -256h-897l31 156q-213 -176 -506 -176q-317 0 -463 204.5t-74 548.5zM414 680q-43 -203 20.5 -321.5t216.5 -118.5q174 0 308 135 t180 358q44 203 -21.5 322t-222.5 119q-170 0 -302 -135t-179 -359z" />
<glyph unicode="&#x153;" horiz-adv-x="1935" d="M64.5 299.5q-19.5 106.5 9.5 247.5q54 253 223 387.5t397 134.5q254 0 371 -160q166 160 401 160q220 0 329 -145t60 -375q-17 -77 -28 -105l-686 11q-20 -122 29.5 -182t158.5 -60q143 0 266 111l168 -152q-119 -105 -227 -148.5t-236 -43.5q-249 0 -370 155 q-171 -158 -422 -158q-117 0 -209.5 36.5t-153.5 108t-80.5 178zM348 522q-32 -143 12.5 -225t174.5 -82q250 0 319 305q32 148 -12 231t-174 83q-129 0 -209 -83t-111 -229zM1184 645l413 -2q18 90 -16.5 146.5t-128.5 56.5q-97 0 -166.5 -54t-101.5 -147z" />
<glyph unicode="&#x154;" horiz-adv-x="1378" d="M41 -2l301 1415h637q101 0 186.5 -31t143 -87t81 -140t1.5 -184q-54 -256 -332 -361l192 -612h-309l-160 575h-321l-123 -575h-297zM512 809h362q100 3 159.5 52.5t70.5 137.5q11 74 -31 118t-141 44h-344zM756 1532l219 244h303l-311 -244h-211z" />
<glyph unicode="&#x155;" horiz-adv-x="802" d="M25 0l221 1049h270l-37 -177l8 5q59 95 134.5 141.5t146.5 46.5q75 0 127 -23l-55 -233q-166 9 -277.5 -80.5t-150.5 -279.5l-97 -449h-290zM489 1169l220 244h303l-312 -244h-211z" />
<glyph unicode="&#x156;" horiz-adv-x="1378" d="M41 -2l301 1415h637q101 0 186.5 -31t143 -87t81 -140t1.5 -184q-54 -256 -332 -361l192 -612h-309l-160 575h-321l-123 -575h-297zM184 -436l203 301h291l-326 -301h-168zM512 809h362q100 3 159.5 52.5t70.5 137.5q11 74 -31 118t-141 44h-344z" />
<glyph unicode="&#x157;" horiz-adv-x="802" d="M-209 -436l203 301h291l-326 -301h-168zM25 0l221 1049h270l-37 -177l8 5q59 95 134.5 141.5t146.5 46.5q75 0 127 -23l-55 -233q-166 9 -277.5 -80.5t-150.5 -279.5l-97 -449h-290z" />
<glyph unicode="&#x158;" horiz-adv-x="1378" d="M41 -2l301 1415h637q101 0 186.5 -31t143 -87t81 -140t1.5 -184q-54 -256 -332 -361l192 -612h-309l-160 575h-321l-123 -575h-297zM512 809h362q100 3 159.5 52.5t70.5 137.5q11 74 -31 118t-141 44h-344zM594 1776h209l74 -127l135 127h229l-303 -260h-154z" />
<glyph unicode="&#x159;" horiz-adv-x="802" d="M25 0l221 1049h270l-37 -177l8 5q59 95 134.5 141.5t146.5 46.5q75 0 127 -23l-55 -233q-166 9 -277.5 -80.5t-150.5 -279.5l-97 -449h-290zM328 1413h209l73 -127l135 127h230l-303 -260h-154z" />
<glyph unicode="&#x15a;" horiz-adv-x="1167" d="M4 342l238 143q81 -243 288 -243q102 0 177 53.5t92 138.5q4 23 3.5 41t-10 34t-22 29t-32.5 25t-41.5 22t-49.5 21.5t-56 22.5q-11 4 -16 6q-36 11 -65 20.5t-63.5 24t-61 29t-54 35t-47 43t-35.5 52t-23 62.5t-7 74.5t10 87.5q25 118 102.5 203t188 126.5t244.5 41.5 q282 0 444 -226l-194 -164q-93 150 -269 150q-85 0 -146.5 -40t-76.5 -107q-4 -22 2.5 -41t18.5 -32.5t39.5 -29.5t51 -26.5t66.5 -28.5q12 -5 19 -8q39 -12 68.5 -22.5t67 -26.5t65.5 -32t58.5 -38.5t51 -47.5t38.5 -57.5t26 -69t7.5 -82.5t-11.5 -97q-41 -194 -198 -309 t-372 -115q-187 0 -321 92t-195 266zM682 1532l219 244h303l-311 -244h-211z" />
<glyph unicode="&#x15b;" horiz-adv-x="1019" d="M-20 168l157 164q39 -57 103 -94.5t145 -44.5q93 -3 163.5 30t86.5 99q13 44 -37 68q-19 9 -130 41q-5 2 -9 3q-33 7 -59 14t-56.5 17t-54 21t-48 26.5t-41 33t-31 41t-21 50.5t-6.5 60.5t8 72.5q34 153 157.5 226t304.5 73q246 0 396 -162l-142 -162q-78 94 -217 115 q-90 6 -152 -21t-77 -79q-3 -12 -5.5 -20.5t5 -17.5t14 -15t22 -13t28 -11.5t33 -11t37 -11t39.5 -11t40 -12.5q40 -10 71.5 -20t66 -26t58 -34.5t46 -44.5t31 -57t12.5 -71.5t-9 -88.5q-31 -150 -156.5 -234t-322.5 -84q-134 0 -254.5 51.5t-195.5 139.5zM532 1169l220 244 h303l-312 -244h-211z" />
<glyph unicode="&#x15e;" horiz-adv-x="1167" d="M4 342l238 143q81 -243 288 -243q102 0 177 53.5t92 138.5q4 23 3.5 41t-10 34t-22 29t-32.5 25t-41.5 22t-49.5 21.5t-56 22.5q-11 4 -16 6q-36 11 -65 20.5t-63.5 24t-61 29t-54 35t-47 43t-35.5 52t-23 62.5t-7 74.5t10 87.5q25 118 102.5 203t188 126.5t244.5 41.5 q282 0 444 -226l-194 -164q-93 150 -269 150q-85 0 -146.5 -40t-76.5 -107q-4 -22 2.5 -41t18.5 -32.5t39.5 -29.5t51 -26.5t66.5 -28.5q12 -5 19 -8q39 -12 68.5 -22.5t67 -26.5t65.5 -32t58.5 -38.5t51 -47.5t38.5 -57.5t26 -69t7.5 -82.5t-11.5 -97q-39 -186 -186 -300.5 t-351 -123.5l-90 -99l14 -12q60 -16 99 -68t22 -133q-19 -87 -88.5 -128.5t-153.5 -41.5q-89 0 -148 44.5t-73 109.5l139 41q2 -31 23 -49.5t57 -18.5q42 0 70 22.5t31 53.5q5 30 -15.5 56.5t-64.5 37.5l-137 37l129 166q-130 31 -223 117.5t-140 222.5z" />
<glyph unicode="&#x15f;" horiz-adv-x="1019" d="M-20 168l157 164q39 -57 103 -94.5t145 -44.5q93 -3 163.5 30t86.5 99q13 44 -37 68q-19 9 -130 41q-5 2 -9 3q-33 7 -59 14t-56.5 17t-54 21t-48 26.5t-41 33t-31 41t-21 50.5t-6.5 60.5t8 72.5q34 153 157.5 226t304.5 73q246 0 396 -162l-142 -162q-78 94 -217 115 q-90 6 -152 -21t-77 -79q-3 -12 -5.5 -20.5t5 -17.5t14 -15t22 -13t28 -11.5t33 -11t37 -11t39.5 -11t40 -12.5q40 -10 71.5 -20t66 -26t58 -34.5t46 -44.5t31 -57t12.5 -71.5t-9 -88.5q-28 -131 -129 -212.5t-260 -100.5l-90 -99l14 -12q60 -16 99 -68t22 -133 q-19 -87 -88 -128.5t-153 -41.5q-90 0 -149 44.5t-73 109.5l140 41q2 -31 23 -49.5t57 -18.5q42 0 69.5 22.5t30.5 53.5q5 30 -15.5 56.5t-64.5 37.5l-137 37l119 152q-105 17 -194.5 64.5t-149.5 117.5z" />
<glyph unicode="&#x160;" horiz-adv-x="1167" d="M4 342l238 143q81 -243 288 -243q102 0 177 53.5t92 138.5q4 23 3.5 41t-10 34t-22 29t-32.5 25t-41.5 22t-49.5 21.5t-56 22.5q-11 4 -16 6q-36 11 -65 20.5t-63.5 24t-61 29t-54 35t-47 43t-35.5 52t-23 62.5t-7 74.5t10 87.5q25 118 102.5 203t188 126.5t244.5 41.5 q282 0 444 -226l-194 -164q-93 150 -269 150q-85 0 -146.5 -40t-76.5 -107q-4 -22 2.5 -41t18.5 -32.5t39.5 -29.5t51 -26.5t66.5 -28.5q12 -5 19 -8q39 -12 68.5 -22.5t67 -26.5t65.5 -32t58.5 -38.5t51 -47.5t38.5 -57.5t26 -69t7.5 -82.5t-11.5 -97q-41 -194 -198 -309 t-372 -115q-187 0 -321 92t-195 266zM520 1776h209l74 -127l135 127h229l-303 -260h-153z" />
<glyph unicode="&#x161;" horiz-adv-x="1019" d="M-20 168l157 164q39 -57 103 -94.5t145 -44.5q93 -3 163.5 30t86.5 99q13 44 -37 68q-19 9 -130 41q-5 2 -9 3q-33 7 -59 14t-56.5 17t-54 21t-48 26.5t-41 33t-31 41t-21 50.5t-6.5 60.5t8 72.5q34 153 157.5 226t304.5 73q246 0 396 -162l-142 -162q-78 94 -217 115 q-90 6 -152 -21t-77 -79q-3 -12 -5.5 -20.5t5 -17.5t14 -15t22 -13t28 -11.5t33 -11t37 -11t39.5 -11t40 -12.5q40 -10 71.5 -20t66 -26t58 -34.5t46 -44.5t31 -57t12.5 -71.5t-9 -88.5q-31 -150 -156.5 -234t-322.5 -84q-134 0 -254.5 51.5t-195.5 139.5zM371 1413h209 l73 -127l135 127h230l-303 -260h-154z" />
<glyph unicode="&#x162;" horiz-adv-x="1181" d="M145 -346l140 41q2 -31 23 -49.5t57 -18.5q42 0 69.5 22.5t30.5 53.5q5 30 -15.5 56.5t-64.5 37.5l-137 37l129 166h-49l247 1159h-425l53 254h1153l-53 -254h-426l-246 -1159h-51l-107 -117l14 -12q60 -16 99 -68t22 -133q-19 -87 -88 -128.5t-153 -41.5 q-90 0 -149 44.5t-73 109.5z" />
<glyph unicode="&#x163;" horiz-adv-x="724" d="M94 872l37 177h145l78 364h291l-78 -364h230l-37 -177h-230l-116 -546q-13 -62 -0.5 -80.5t63.5 -18.5h146l-48 -227h-38l-107 -117l14 -12q60 -16 99 -68t22 -133q-19 -87 -88 -128.5t-153 -41.5q-90 0 -149 44.5t-73 109.5l140 41q2 -31 23 -49.5t57 -18.5 q42 0 69.5 22.5t30.5 53.5q5 30 -15.5 56.5t-64.5 37.5l-137 37l129 166h-19q-120 0 -174 76.5t-26 204.5l125 591h-146z" />
<glyph unicode="&#x164;" horiz-adv-x="1181" d="M150 1159l53 254h1153l-53 -254h-426l-246 -1159h-303l247 1159h-425zM532 1776h209l74 -127l135 127h230l-303 -260h-154z" />
<glyph unicode="&#x165;" horiz-adv-x="868" d="M94 872l37 177h145l78 364h291l-78 -364h230l-37 -177h-230l-116 -546q-13 -62 -0.5 -80.5t63.5 -18.5h146l-48 -227h-260q-120 0 -174 76.5t-26 204.5l125 591h-146zM694 1112l197 315h-113l62 291h321l-59 -291l-260 -315h-148z" />
<glyph unicode="&#x166;" horiz-adv-x="1181" d="M150 1159l53 254h1153l-53 -254h-426l-82 -385h174l-29 -133h-174l-135 -641h-303l137 641h-186l28 133h187l81 385h-425z" />
<glyph unicode="&#x167;" horiz-adv-x="724" d="M12 459l27 133h141l60 280h-146l37 177h145l78 364h291l-78 -364h230l-37 -177h-230l-59 -280h199l-27 -133h-201l-28 -133q-13 -62 -0.5 -80.5t63.5 -18.5h146l-48 -227h-260q-120 0 -174 76.5t-26 204.5l37 178h-140z" />
<glyph unicode="&#x168;" horiz-adv-x="1417" d="M147 545l185 868h301l-191 -903q-28 -127 19.5 -191.5t163.5 -64.5q134 0 227.5 77t120.5 204l186 878h301l-186 -883q-56 -269 -221.5 -409.5t-440.5 -140.5q-286 0 -403 150.5t-62 414.5zM543 1524q29 141 92.5 198.5t155.5 57.5q49 0 87.5 -12.5t62.5 -30t44 -35.5 t43 -30.5t49 -12.5q46 0 75.5 34.5t37.5 96.5l160 -27q-28 -136 -91 -197t-161 -61q-56 0 -101.5 19.5t-69 43t-52.5 43t-56 19.5q-42 0 -73.5 -35t-38.5 -98z" />
<glyph unicode="&#x169;" horiz-adv-x="1249" d="M102 371l144 678h291l-134 -633q-20 -88 14 -133t113 -45q106 0 183.5 65.5t97.5 157.5l123 588h291l-221 -1049h-287l33 133l-17 -10q-125 -148 -332 -148q-177 0 -256.5 113.5t-42.5 282.5zM381 1161q29 141 92.5 198.5t155.5 57.5q49 0 87.5 -12.5t62.5 -30.5 t44 -35.5t43 -30t49 -12.5q46 0 75.5 34.5t37.5 96.5l160 -26q-28 -136 -91 -197t-161 -61q-56 0 -101.5 19.5t-69 43t-52.5 43t-56 19.5q-42 0 -73.5 -35t-38.5 -98z" />
<glyph unicode="&#x16a;" horiz-adv-x="1417" d="M147 545l185 868h301l-191 -903q-28 -127 19.5 -191.5t163.5 -64.5q134 0 227.5 77t120.5 204l186 878h301l-186 -883q-56 -269 -221.5 -409.5t-440.5 -140.5q-286 0 -403 150.5t-62 414.5zM651 1591l33 150h573l-30 -150h-576z" />
<glyph unicode="&#x16b;" horiz-adv-x="1249" d="M102 371l144 678h291l-134 -633q-20 -88 14 -133t113 -45q106 0 183.5 65.5t97.5 157.5l123 588h291l-221 -1049h-287l33 133l-17 -10q-125 -148 -332 -148q-177 0 -256.5 113.5t-42.5 282.5zM489 1229l33 149h574l-31 -149h-576z" />
<glyph unicode="&#x16e;" horiz-adv-x="1417" d="M147 545l185 868h301l-191 -903q-28 -127 19.5 -191.5t163.5 -64.5q134 0 227.5 77t120.5 204l186 878h301l-186 -883q-56 -269 -221.5 -409.5t-440.5 -140.5q-286 0 -403 150.5t-62 414.5zM745 1729q19 80 87.5 135t150.5 55q99 0 156 -71t35 -171q-17 -81 -86.5 -137.5 t-151.5 -56.5q-100 0 -155.5 72.5t-35.5 173.5zM856 1714q-10 -49 16.5 -85t73.5 -36q41 0 75.5 28.5t43.5 68.5q10 49 -17 82.5t-77 33.5q-40 0 -73 -26t-42 -66z" />
<glyph unicode="&#x16f;" horiz-adv-x="1249" d="M102 371l144 678h291l-134 -633q-20 -88 14 -133t113 -45q106 0 183.5 65.5t97.5 157.5l123 588h291l-221 -1049h-287l33 133l-17 -10q-125 -148 -332 -148q-177 0 -256.5 113.5t-42.5 282.5zM584 1366q19 80 87.5 135t149.5 55q99 0 156 -70.5t35 -170.5 q-17 -82 -86.5 -138.5t-151.5 -56.5q-99 0 -154.5 72t-35.5 174zM694 1352q-10 -49 16.5 -85t73.5 -36q41 0 75.5 28t43.5 68q10 49 -17 83t-77 34q-40 0 -73 -26t-42 -66z" />
<glyph unicode="&#x170;" horiz-adv-x="1417" d="M147 545l185 868h301l-191 -903q-28 -127 19.5 -191.5t163.5 -64.5q134 0 227.5 77t120.5 204l186 878h301l-186 -883q-56 -269 -221.5 -409.5t-440.5 -140.5q-286 0 -403 150.5t-62 414.5zM602 1542l254 234h250l-287 -234h-217zM981 1542l256 234h283l-326 -234h-213z " />
<glyph unicode="&#x171;" horiz-adv-x="1249" d="M102 371l144 678h291l-134 -633q-20 -88 14 -133t113 -45q106 0 183.5 65.5t97.5 157.5l123 588h291l-221 -1049h-287l33 133l-17 -10q-125 -148 -332 -148q-177 0 -256.5 113.5t-42.5 282.5zM440 1180l254 233h250l-287 -233h-217zM819 1180l256 233h283l-326 -233h-213 z" />
<glyph unicode="&#x172;" horiz-adv-x="1417" d="M147 545l185 868h301l-191 -903q-28 -127 19.5 -191.5t163.5 -64.5q134 0 227.5 77t120.5 204l186 878h301l-186 -883q-85 -407 -410 -514q-74 -57 -104 -127q-16 -40 -3.5 -65t44.5 -25q30 0 59.5 19.5t50.5 50.5l129 -121q-101 -115 -235 -115q-48 0 -89.5 14t-74 43.5 t-44 75.5t0.5 111q11 54 45 103h-31q-286 0 -403 150.5t-62 414.5z" />
<glyph unicode="&#x173;" horiz-adv-x="1249" d="M102 371l144 678h291l-134 -633q-20 -88 14 -133t113 -45q106 0 183.5 65.5t97.5 157.5l123 588h291l-221 -1049h6q-103 -47 -162.5 -97.5t-87.5 -113.5q-16 -40 -3.5 -65t44.5 -25q30 0 59.5 19.5t50.5 50.5l129 -121q-101 -115 -235 -115q-48 0 -89.5 14t-74 43.5 t-44 75.5t0.5 111q27 126 178 223h-59l33 133l-17 -10q-125 -148 -332 -148q-177 0 -256.5 113.5t-42.5 282.5z" />
<glyph unicode="&#x174;" horiz-adv-x="1955" d="M197 0l6 1413h307l-33 -1155h12l502 1155h346l11 -1155h12l459 1155h315l-596 -1413h-430l-10 1085l-471 -1085h-430zM860 1513l301 265h154l192 -265h-213l-71 134l-136 -134h-227z" />
<glyph unicode="&#x175;" horiz-adv-x="1662" d="M119 1049h305l-6 -811l389 811h264l43 -816l342 816h316l-496 -1049h-383l-31 678l-315 -682h-383zM637 1149l301 264h154l192 -264h-213l-72 133l-135 -133h-227z" />
<glyph unicode="&#x176;" horiz-adv-x="1400" d="M190 1413h332l240 -588l485 588h348l-737 -862l-121 -551h-297l119 551zM584 1511l301 265h153l193 -265h-213l-72 134l-135 -134h-227z" />
<glyph unicode="&#x177;" horiz-adv-x="1044" d="M-94 -365l24 230q230 0 340 172l-161 1012h303l61 -711h16l369 711h318l-633 -1082q-52 -87 -101 -145t-100.5 -95.5t-119 -57.5t-139 -27t-177.5 -7zM334 1149l301 264h153l193 -264h-213l-72 133l-135 -133h-227z" />
<glyph unicode="&#x178;" horiz-adv-x="1400" d="M190 1413h332l240 -588l485 588h348l-737 -862l-121 -551h-297l119 551zM614 1544l50 232h221l-49 -232h-222zM997 1544l50 232h221l-49 -232h-222z" />
<glyph unicode="&#x179;" horiz-adv-x="1228" d="M-76 0l39 199l955 958h-703l53 256h1114l-41 -213l-931 -944h727l-54 -256h-1159zM717 1532l219 244h303l-311 -244h-211z" />
<glyph unicode="&#x17a;" horiz-adv-x="1019" d="M-49 0l41 205l665 614h-524l47 230h887l-41 -218l-643 -600h508l-47 -231h-893zM537 1169l219 244h303l-311 -244h-211z" />
<glyph unicode="&#x17b;" horiz-adv-x="1228" d="M-76 0l39 199l955 958h-703l53 256h1114l-41 -213l-931 -944h727l-54 -256h-1159zM719 1546l47 230h217l-49 -230h-215z" />
<glyph unicode="&#x17c;" horiz-adv-x="1019" d="M-49 0l41 205l665 614h-524l47 230h887l-41 -218l-643 -600h508l-47 -231h-893zM539 1184l47 229h217l-49 -229h-215z" />
<glyph unicode="&#x17d;" horiz-adv-x="1228" d="M-76 0l39 199l955 958h-703l53 256h1114l-41 -213l-931 -944h727l-54 -256h-1159zM555 1776h209l74 -127l135 127h229l-303 -260h-154z" />
<glyph unicode="&#x17e;" horiz-adv-x="1019" d="M-49 0l41 205l665 614h-524l47 230h887l-41 -218l-643 -600h508l-47 -231h-893zM375 1413h209l73 -127l136 127h229l-303 -260h-154z" />
<glyph unicode="&#x192;" horiz-adv-x="952" d="M-102 -428l28 235q109 0 170.5 42.5t83.5 150.5h2l185 872h-172l36 177h175l18 81q28 134 122 208.5t247 74.5h200l-43 -209h-116q-48 0 -84 -34t-45 -80l-11 -41h221l-36 -177h-222l-184 -872q-95 -428 -575 -428z" />
<glyph unicode="&#x1cd;" horiz-adv-x="1374" d="M-117 0l793 1413h395l189 -1413h-316l-31 315h-530l-166 -315h-334zM512 557h377l-60 588h-8zM635 1776h209l74 -127l135 127h229l-303 -260h-154z" />
<glyph unicode="&#x1ce;" horiz-adv-x="1107" d="M14 291q9 42 26 78t37.5 64t53 53.5t62 44t76.5 37.5t83.5 31t96 28t102 26t113.5 27t118 29q15 72 -22 107.5t-129 35.5q-98 0 -171 -34t-145 -107l-163 155q99 102 214.5 152.5t270.5 50.5q82 0 150 -14.5t122.5 -44t88 -74.5t45 -107t-6.5 -141l-145 -688h-256l22 104 q-81 -63 -176.5 -95t-173.5 -32q-162 0 -242 85t-51 229zM317 295q-9 -45 16.5 -71.5t80.5 -26.5q75 0 150.5 36.5t140.5 102.5l36 168q-218 -55 -288 -84q-121 -51 -136 -125zM403 1413h209l74 -127l135 127h230l-303 -260h-154z" />
<glyph unicode="&#x1cf;" horiz-adv-x="606" d="M43 0l299 1413h301l-299 -1413h-301zM248 1776h209l73 -127l136 127h229l-303 -260h-154z" />
<glyph unicode="&#x1d0;" horiz-adv-x="565" d="M27 0l221 1049h291l-222 -1049h-290zM152 1413h208l74 -127l135 127h230l-303 -260h-154z" />
<glyph unicode="&#x1d1;" horiz-adv-x="1474" d="M104 733q69 322 285 511.5t514 189.5q321 0 469 -205t76 -549q-69 -322 -287 -511t-520 -189q-317 0 -463 204.5t-74 548.5zM414 680q-43 -203 20.5 -321.5t216.5 -118.5q174 0 308 135t180 358q44 203 -21.5 322t-222.5 119q-170 0 -302 -135t-179 -359zM680 1776h209 l74 -127l135 127h229l-303 -260h-154z" />
<glyph unicode="&#x1d2;" horiz-adv-x="1200" d="M64.5 299.5q-19.5 106.5 9.5 247.5q54 253 223 387.5t397 134.5q121 0 214.5 -38.5t151.5 -112t76 -180.5t-12 -244q-55 -252 -224 -384.5t-392 -132.5q-117 0 -209.5 36.5t-153.5 108t-80.5 178zM348 522q-32 -143 12.5 -225t174.5 -82q250 0 319 305q32 148 -12 231 t-174 83q-129 0 -209 -83t-111 -229zM469 1413h209l74 -127l135 127h229l-303 -260h-154z" />
<glyph unicode="&#x1d3;" horiz-adv-x="1417" d="M147 545l185 868h301l-191 -903q-28 -127 19.5 -191.5t163.5 -64.5q134 0 227.5 77t120.5 204l186 878h301l-186 -883q-56 -269 -221.5 -409.5t-440.5 -140.5q-286 0 -403 150.5t-62 414.5zM655 1776h209l74 -127l135 127h230l-304 -260h-153z" />
<glyph unicode="&#x1d4;" horiz-adv-x="1249" d="M102 371l144 678h291l-134 -633q-20 -88 14 -133t113 -45q106 0 183.5 65.5t97.5 157.5l123 588h291l-221 -1049h-287l33 133l-17 -10q-125 -148 -332 -148q-177 0 -256.5 113.5t-42.5 282.5zM494 1413h208l74 -127l135 127h230l-303 -260h-154z" />
<glyph unicode="&#x1d5;" horiz-adv-x="1417" d="M147 545l185 868h301l-191 -903q-28 -127 19.5 -191.5t163.5 -64.5q134 0 227.5 77t120.5 204l186 878h301l-186 -883q-56 -269 -221.5 -409.5t-440.5 -140.5q-286 0 -403 150.5t-62 414.5zM623 1544l49 232h221l-49 -232h-221zM729 1956l33 149h573l-30 -149h-576z M1006 1544l49 232h221l-49 -232h-221z" />
<glyph unicode="&#x1d6;" horiz-adv-x="1249" d="M102 371l144 678h291l-134 -633q-20 -88 14 -133t113 -45q106 0 183.5 65.5t97.5 157.5l123 588h291l-221 -1049h-287l33 133l-17 -10q-125 -148 -332 -148q-177 0 -256.5 113.5t-42.5 282.5zM461 1182l49 231h221l-49 -231h-221zM567 1593l33 150h574l-31 -150h-576z M844 1182l49 231h221l-49 -231h-221z" />
<glyph unicode="&#x1d7;" horiz-adv-x="1417" d="M147 545l185 868h301l-191 -903q-28 -127 19.5 -191.5t163.5 -64.5q134 0 227.5 77t120.5 204l186 878h301l-186 -883q-56 -269 -221.5 -409.5t-440.5 -140.5q-286 0 -403 150.5t-62 414.5zM623 1544l49 232h221l-49 -232h-221zM895 1896l219 244h303l-311 -244h-211z M1006 1544l49 232h221l-49 -232h-221z" />
<glyph unicode="&#x1d8;" horiz-adv-x="1249" d="M102 371l144 678h291l-134 -633q-20 -88 14 -133t113 -45q106 0 183.5 65.5t97.5 157.5l123 588h291l-221 -1049h-287l33 133l-17 -10q-125 -148 -332 -148q-177 0 -256.5 113.5t-42.5 282.5zM461 1182l49 231h221l-49 -231h-221zM733 1534l219 244h303l-311 -244h-211z M844 1182l49 231h221l-49 -231h-221z" />
<glyph unicode="&#x1d9;" horiz-adv-x="1417" d="M147 545l185 868h301l-191 -903q-28 -127 19.5 -191.5t163.5 -64.5q134 0 227.5 77t120.5 204l186 878h301l-186 -883q-56 -269 -221.5 -409.5t-440.5 -140.5q-286 0 -403 150.5t-62 414.5zM623 1544l49 232h221l-49 -232h-221zM733 2140h209l74 -127l135 127h229 l-303 -260h-153zM1006 1544l49 232h221l-49 -232h-221z" />
<glyph unicode="&#x1da;" horiz-adv-x="1249" d="M102 371l144 678h291l-134 -633q-20 -88 14 -133t113 -45q106 0 183.5 65.5t97.5 157.5l123 588h291l-221 -1049h-287l33 133l-17 -10q-125 -148 -332 -148q-177 0 -256.5 113.5t-42.5 282.5zM461 1182l49 231h221l-49 -231h-221zM571 1778h209l74 -127l135 127h230 l-304 -260h-153zM844 1182l49 231h221l-49 -231h-221z" />
<glyph unicode="&#x1db;" horiz-adv-x="1417" d="M147 545l185 868h301l-191 -903q-28 -127 19.5 -191.5t163.5 -64.5q134 0 227.5 77t120.5 204l186 878h301l-186 -883q-56 -269 -221.5 -409.5t-440.5 -140.5q-286 0 -403 150.5t-62 414.5zM623 1544l49 232h221l-49 -232h-221zM696 2140h291l113 -244h-201zM1006 1544 l49 232h221l-49 -232h-221z" />
<glyph unicode="&#x1dc;" horiz-adv-x="1249" d="M102 371l144 678h291l-134 -633q-20 -88 14 -133t113 -45q106 0 183.5 65.5t97.5 157.5l123 588h291l-221 -1049h-287l33 133l-17 -10q-125 -148 -332 -148q-177 0 -256.5 113.5t-42.5 282.5zM461 1182l49 231h221l-49 -231h-221zM535 1778h290l113 -244h-201zM844 1182 l49 231h221l-49 -231h-221z" />
<glyph unicode="&#x1fe;" horiz-adv-x="1474" d="M-20 160l145 121q-76 188 -21 452q69 322 285 511.5t514 189.5q275 0 426 -154l121 100l117 -129l-142 -116q78 -189 23 -455q-69 -322 -287 -511t-520 -189q-273 0 -422 155l-125 -104zM397 506l699 581q-68 87 -201 87q-170 0 -302 -135t-179 -359q-20 -91 -17 -174z M453 328q66 -88 198 -88q174 0 308 135t180 358q22 102 16 178zM842 1532l219 244h303l-311 -244h-211z" />
<glyph unicode="&#x1ff;" horiz-adv-x="1200" d="M41 137l61 51q-74 141 -28 359q54 253 223 387.5t397 134.5q214 0 332 -115l53 45l82 -90l-63 -51q74 -149 26 -364q-55 -252 -224 -384.5t-392 -132.5q-212 0 -334 113l-53 -43zM336 381l481 401q-49 52 -149 52q-129 0 -209 -83t-111 -229q-18 -76 -12 -141zM385 266 q51 -51 150 -51q250 0 319 305q18 80 12 146zM631 1169l219 244h303l-311 -244h-211z" />
<glyph unicode="&#x218;" horiz-adv-x="1167" d="M4 342l238 143q81 -243 288 -243q102 0 177 53.5t92 138.5q4 23 3.5 41t-10 34t-22 29t-32.5 25t-41.5 22t-49.5 21.5t-56 22.5q-11 4 -16 6q-36 11 -65 20.5t-63.5 24t-61 29t-54 35t-47 43t-35.5 52t-23 62.5t-7 74.5t10 87.5q25 118 102.5 203t188 126.5t244.5 41.5 q282 0 444 -226l-194 -164q-93 150 -269 150q-85 0 -146.5 -40t-76.5 -107q-4 -22 2.5 -41t18.5 -32.5t39.5 -29.5t51 -26.5t66.5 -28.5q12 -5 19 -8q39 -12 68.5 -22.5t67 -26.5t65.5 -32t58.5 -38.5t51 -47.5t38.5 -57.5t26 -69t7.5 -82.5t-11.5 -97q-41 -194 -198 -309 t-372 -115q-187 0 -321 92t-195 266zM86 -434l203 301h291l-326 -301h-168z" />
<glyph unicode="&#x219;" horiz-adv-x="1019" d="M-20 168l157 164q39 -57 103 -94.5t145 -44.5q93 -3 163.5 30t86.5 99q13 44 -37 68q-19 9 -130 41q-5 2 -9 3q-33 7 -59 14t-56.5 17t-54 21t-48 26.5t-41 33t-31 41t-21 50.5t-6.5 60.5t8 72.5q34 153 157.5 226t304.5 73q246 0 396 -162l-142 -162q-78 94 -217 115 q-90 6 -152 -21t-77 -79q-3 -12 -5.5 -20.5t5 -17.5t14 -15t22 -13t28 -11.5t33 -11t37 -11t39.5 -11t40 -12.5q40 -10 71.5 -20t66 -26t58 -34.5t46 -44.5t31 -57t12.5 -71.5t-9 -88.5q-31 -150 -156.5 -234t-322.5 -84q-134 0 -254.5 51.5t-195.5 139.5zM53 -436l203 301 h291l-326 -301h-168z" />
<glyph unicode="&#x21a;" horiz-adv-x="1181" d="M96 -436l203 301h291l-326 -301h-168zM150 1159l53 254h1153l-53 -254h-426l-246 -1159h-303l247 1159h-425z" />
<glyph unicode="&#x21b;" horiz-adv-x="724" d="M53 -436l203 301h291l-326 -301h-168zM94 872l37 177h145l78 364h291l-78 -364h230l-37 -177h-230l-116 -546q-13 -62 -0.5 -80.5t63.5 -18.5h146l-48 -227h-260q-120 0 -174 76.5t-26 204.5l125 591h-146z" />
<glyph unicode="&#x237;" horiz-adv-x="546" d="M-252 -365l47 230h74q46 0 86.5 33t50.5 82l225 1069h293l-231 -1088q-32 -154 -127.5 -240t-259.5 -86h-158z" />
<glyph unicode="&#x2c6;" horiz-adv-x="768" d="M178 1090l301 264h154l192 -264h-213l-71 133l-135 -133h-228z" />
<glyph unicode="&#x2c7;" horiz-adv-x="768" d="M244 1364h209l73 -127l136 127h229l-303 -260h-154z" />
<glyph unicode="&#x2d8;" horiz-adv-x="718" d="M219 1393h178q-10 -79 20.5 -113.5t86.5 -34.5q63 0 107 38.5t59 109.5h184q-25 -152 -119.5 -226.5t-234.5 -74.5q-145 0 -222 79t-59 222z" />
<glyph unicode="&#x2d9;" horiz-adv-x="327" d="M186 1135l47 229h218l-50 -229h-215z" />
<glyph unicode="&#x2da;" horiz-adv-x="530" d="M215 1346q19 83 88 139.5t154 56.5q102 0 159.5 -73t34.5 -177q-17 -84 -86.5 -140t-156.5 -56q-103 0 -158 73t-35 177zM305 1333q-12 -61 20 -104t93 -43q51 0 91.5 34t51.5 85q13 60 -20 102.5t-92 42.5q-51 0 -92 -34.5t-52 -82.5z" />
<glyph unicode="&#x2db;" horiz-adv-x="567" d="M-59.5 -340q-11.5 46 0.5 111q31 146 231 254l180 -31q-103 -47 -162.5 -97.5t-87.5 -113.5q-16 -40 -3.5 -65t44.5 -25q30 0 60 19.5t51 49.5l129 -120q-101 -115 -236 -115q-48 0 -89.5 14t-73.5 43.5t-43.5 75.5z" />
<glyph unicode="&#x2dc;" horiz-adv-x="841" d="M164 1094q29 138 91 197t157 59q49 0 86.5 -12.5t60 -30t40.5 -35.5t38.5 -30.5t44.5 -12.5q50 0 83.5 35.5t45.5 95.5l160 -27q-28 -135 -91 -196.5t-159 -61.5q-47 0 -84 13t-59.5 31.5t-41 36.5t-38.5 31t-43 13q-43 0 -77.5 -34.5t-49.5 -98.5z" />
<glyph unicode="&#x2dd;" horiz-adv-x="944" d="M164 1130l254 234h250l-287 -234h-217zM543 1130l256 234h282l-325 -234h-213z" />
<glyph unicode="&#x300;" d="M-324 1364h291l113 -244h-201z" />
<glyph unicode="&#x301;" d="M-436 1120l219 244h303l-311 -244h-211z" />
<glyph unicode="&#x302;" d="M-590 1090l301 264h154l192 -264h-213l-71 133l-135 -133h-228z" />
<glyph unicode="&#x303;" d="M-678 1094q29 141 92.5 198.5t155.5 57.5q49 0 87.5 -12.5t62.5 -30t44.5 -35.5t43.5 -30.5t49 -12.5q46 0 75 34.5t37 96.5l160 -27q-28 -136 -91 -197t-161 -61q-46 0 -84 13t-62 31.5t-45 36.5t-42.5 31t-44.5 13q-42 0 -74 -35t-39 -98z" />
<glyph unicode="&#x304;" d="M-500 1180l33 149h573l-30 -149h-576z" />
<glyph unicode="&#x306;" d="M-500 1393h178q-10 -79 20.5 -113.5t86.5 -34.5q63 0 107 38.5t59 109.5h184q-25 -152 -119.5 -226.5t-234.5 -74.5q-145 0 -222 79t-59 222z" />
<glyph unicode="&#x307;" d="M-141 1135l47 229h217l-49 -229h-215z" />
<glyph unicode="&#x308;" d="M-530 1133l49 231h221l-49 -231h-221zM-147 1133l49 231h221l-49 -231h-221z" />
<glyph unicode="&#x30a;" d="M-336 1348q19 80 87.5 135t150.5 55q99 0 155.5 -70.5t34.5 -171.5q-17 -82 -86 -138t-151 -56q-100 0 -155.5 72.5t-35.5 173.5zM-225 1333q-10 -49 16.5 -85t73.5 -36q41 0 75.5 28.5t43.5 68.5q10 49 -17.5 82.5t-77.5 33.5q-40 0 -72.5 -26t-41.5 -66z" />
<glyph unicode="&#x30b;" d="M-780 1130l254 234h250l-287 -234h-217zM-401 1130l256 234h282l-325 -234h-213z" />
<glyph unicode="&#x30c;" d="M-524 1364h209l73 -127l136 127h229l-303 -260h-154z" />
<glyph unicode="&#x312;" d="M-225 1145l325 268h168l-202 -268h-291z" />
<glyph unicode="&#x326;" d="M-664 -436l203 301h291l-326 -301h-168z" />
<glyph unicode="&#x327;" d="M-674 -346l139 41q2 -31 23 -49.5t57 -18.5q42 0 70 22.5t31 53.5q5 30 -15.5 56.5t-64.5 37.5l-137 37l129 166h202l-106 -117l14 -12q60 -16 99 -68t22 -133q-19 -87 -88.5 -128.5t-153.5 -41.5q-89 0 -148 44.5t-73 109.5z" />
<glyph unicode="&#x328;" d="M-627.5 -340q-11.5 46 0.5 111q31 145 232 254l180 -31q-103 -47 -162.5 -97.5t-87.5 -113.5q-16 -40 -3.5 -65t44.5 -25q30 0 60 19.5t51 49.5l129 -120q-101 -115 -236 -115q-48 0 -89.5 14t-74 43.5t-44 75.5z" />
<glyph unicode="&#x335;" d="M-995 516l28 133h662l-29 -133h-661z" />
<glyph unicode="&#x336;" d="M-1430 483l37 172h1379l-37 -172h-1379z" />
<glyph unicode="&#x337;" d="M-1153 152l57 299l1035 690l-64 -320z" />
<glyph unicode="&#x338;" d="M-1464 158l1470 1220l117 -129l-1473 -1220z" />
<glyph unicode="&#x3c0;" horiz-adv-x="1214" d="M109 0l159 762h-82l52 237h833l-51 -237h-82l-107 -504q-8 -35 7 -48.5t41.5 -5t52.5 33.5l41 -215q-75 -43 -166 -43q-120 0 -179.5 79t-39.5 174l112 529h-194l-160 -762h-237z" />
<glyph unicode="&#x1e80;" horiz-adv-x="1955" d="M197 0l6 1413h307l-33 -1155h12l502 1155h346l11 -1155h12l459 1155h315l-596 -1413h-430l-10 1085l-471 -1085h-430zM887 1778h291l112 -244h-200z" />
<glyph unicode="&#x1e81;" horiz-adv-x="1662" d="M119 1049h305l-6 -811l389 811h264l43 -816l342 816h316l-496 -1049h-383l-31 678l-315 -682h-383zM664 1413h290l113 -244h-201z" />
<glyph unicode="&#x1e82;" horiz-adv-x="1955" d="M197 0l6 1413h307l-33 -1155h12l502 1155h346l11 -1155h12l459 1155h315l-596 -1413h-430l-10 1085l-471 -1085h-430zM1085 1534l220 244h303l-312 -244h-211z" />
<glyph unicode="&#x1e83;" horiz-adv-x="1662" d="M119 1049h305l-6 -811l389 811h264l43 -816l342 816h316l-496 -1049h-383l-31 678l-315 -682h-383zM862 1169l219 244h303l-311 -244h-211z" />
<glyph unicode="&#x1e84;" horiz-adv-x="1955" d="M197 0l6 1413h307l-33 -1155h12l502 1155h346l11 -1155h12l459 1155h315l-596 -1413h-430l-10 1085l-471 -1085h-430zM891 1546l49 232h221l-49 -232h-221zM1274 1546l49 232h221l-49 -232h-221z" />
<glyph unicode="&#x1e85;" horiz-adv-x="1662" d="M119 1049h305l-6 -811l389 811h264l43 -816l342 816h316l-496 -1049h-383l-31 678l-315 -682h-383zM668 1182l49 231h221l-49 -231h-221zM1051 1182l49 231h221l-49 -231h-221z" />
<glyph unicode="&#x1ebc;" horiz-adv-x="1202" d="M43 0l299 1413h954l-53 -256h-655l-68 -321h592l-53 -256h-592l-70 -324h654l-54 -256h-954zM465 1524q29 141 92.5 198.5t155.5 57.5q49 0 87.5 -12.5t62.5 -30t44 -35.5t43 -30.5t49 -12.5q46 0 75.5 34.5t37.5 96.5l160 -27q-28 -136 -91 -197t-161 -61 q-56 0 -101.5 19.5t-69 43t-52.5 43t-56 19.5q-42 0 -73.5 -35t-38.5 -98z" />
<glyph unicode="&#x1ebd;" horiz-adv-x="1124" d="M63 303q-20 104 9 236q50 239 214 384.5t386 145.5q220 0 329 -145t60 -375q-16 -71 -29 -105l-686 11q-20 -122 30 -182t159 -60q143 0 266 111l168 -152q-119 -105 -227 -148.5t-236 -43.5q-119 0 -212.5 38t-152 109.5t-78.5 175.5zM324 1161q29 141 92 198.5 t155 57.5q49 0 87.5 -12.5t62.5 -30.5t44.5 -35.5t43.5 -30t49 -12.5q46 0 75.5 34.5t37.5 96.5l159 -26q-28 -136 -90.5 -197t-160.5 -61q-56 0 -101.5 19.5t-69 43t-52.5 43t-56 19.5q-42 0 -74 -35t-39 -98zM389 645l414 -2q18 90 -17 146.5t-129 56.5q-97 0 -166.5 -54 t-101.5 -147z" />
<glyph unicode="&#x1ef2;" horiz-adv-x="1400" d="M190 1413h332l240 -588l485 588h348l-737 -862l-121 -551h-297l119 551zM610 1776h291l113 -244h-201z" />
<glyph unicode="&#x1ef3;" horiz-adv-x="1044" d="M-94 -365l24 230q230 0 340 172l-161 1012h303l61 -711h16l369 711h318l-633 -1082q-52 -87 -101 -145t-100.5 -95.5t-119 -57.5t-139 -27t-177.5 -7zM360 1413h291l113 -244h-201z" />
<glyph unicode="&#x1ef8;" horiz-adv-x="1400" d="M190 1413h332l240 -588l485 588h348l-737 -862l-121 -551h-297l119 551zM535 1524q29 141 92 198.5t155 57.5q49 0 87.5 -12.5t62.5 -30t44.5 -35.5t43.5 -30.5t49 -12.5q46 0 75.5 34.5t37.5 96.5l159 -27q-28 -136 -90.5 -197t-160.5 -61q-56 0 -101.5 19.5t-69 43 t-52.5 43t-56 19.5q-42 0 -74 -35t-39 -98z" />
<glyph unicode="&#x1ef9;" horiz-adv-x="1044" d="M-94 -365l24 230q230 0 340 172l-161 1012h303l61 -711h16l369 711h318l-633 -1082q-52 -87 -101 -145t-100.5 -95.5t-119 -57.5t-139 -27t-177.5 -7zM285 1161q29 141 92 198.5t155 57.5q49 0 87.5 -12.5t62.5 -30.5t44.5 -35.5t43.5 -30t49 -12.5q46 0 75.5 34.5 t37.5 96.5l160 -26q-28 -136 -91 -197t-161 -61q-56 0 -101.5 19.5t-69 43t-52.5 43t-56 19.5q-42 0 -73.5 -35t-38.5 -98z" />
<glyph unicode="&#x2000;" horiz-adv-x="1070" />
<glyph unicode="&#x2001;" horiz-adv-x="2140" />
<glyph unicode="&#x2002;" horiz-adv-x="1070" />
<glyph unicode="&#x2003;" horiz-adv-x="2140" />
<glyph unicode="&#x2004;" horiz-adv-x="713" />
<glyph unicode="&#x2005;" horiz-adv-x="535" />
<glyph unicode="&#x2006;" horiz-adv-x="356" />
<glyph unicode="&#x2007;" horiz-adv-x="356" />
<glyph unicode="&#x2008;" horiz-adv-x="267" />
<glyph unicode="&#x2009;" horiz-adv-x="428" />
<glyph unicode="&#x200a;" horiz-adv-x="118" />
<glyph unicode="&#x2010;" horiz-adv-x="1112" d="M137 403l49 230h787l-49 -230h-787z" />
<glyph unicode="&#x2011;" horiz-adv-x="1112" d="M137 403l49 230h787l-49 -230h-787z" />
<glyph unicode="&#x2012;" horiz-adv-x="1112" d="M137 403l49 230h787l-49 -230h-787z" />
<glyph unicode="&#x2013;" horiz-adv-x="849" d="M12 412l45 211h779l-43 -211h-781z" />
<glyph unicode="&#x2014;" horiz-adv-x="2048" d="M-25 412l45 211h2048l-45 -211h-2048z" />
<glyph unicode="&#x2018;" horiz-adv-x="557" d="M164 788l63 318l287 346h160l-215 -346h125l-68 -318h-352z" />
<glyph unicode="&#x2019;" horiz-adv-x="557" d="M129 750l215 346h-125l68 317h352l-64 -317l-286 -346h-160z" />
<glyph unicode="&#x201a;" horiz-adv-x="557" d="M-102 -346l215 346h-125l67 317h353l-64 -317l-287 -346h-159z" />
<glyph unicode="&#x201c;" horiz-adv-x="1058" d="M164 788l63 318l287 346h160l-215 -346h125l-68 -318h-352zM666 788l63 318l287 346h160l-215 -346h124l-67 -318h-352z" />
<glyph unicode="&#x201d;" horiz-adv-x="1060" d="M129 750l215 346h-125l68 317h352l-64 -317l-286 -346h-160zM633 750l215 346h-125l68 317h352l-64 -317l-286 -346h-160z" />
<glyph unicode="&#x201e;" horiz-adv-x="1062" d="M-102 -346l215 346h-125l67 317h353l-64 -317l-287 -346h-159zM403 -346l215 346h-124l67 317h352l-63 -317l-287 -346h-160z" />
<glyph unicode="&#x2020;" horiz-adv-x="907" d="M162 791l53 258h221l78 364h256l-78 -364h221l-53 -258h-221l-213 -996h-256l213 996h-221z" />
<glyph unicode="&#x2021;" horiz-adv-x="907" d="M27 160l55 258h221l80 373h-221l53 258h221l78 364h256l-78 -364h221l-53 -258h-221l-80 -373h221l-55 -258h-221l-78 -365h-256l78 365h-221z" />
<glyph unicode="&#x2022;" horiz-adv-x="991" d="M72 378q-20 83 2 177q35 167 178.5 285t312.5 118q121 0 211.5 -61t129.5 -165.5t14 -227.5q-37 -168 -181 -287t-311 -119q-91 0 -167.5 36t-122.5 98.5t-66 145.5z" />
<glyph unicode="&#x2025;" horiz-adv-x="931" d="M-6 0l63 297h267l-64 -297h-266zM459 0l63 297h266l-63 -297h-266z" />
<glyph unicode="&#x2026;" horiz-adv-x="1783" d="M-6 0l67 317h353l-68 -317h-352zM610 0l68 317h352l-67 -317h-353zM1225 0l67 317h353l-68 -317h-352z" />
<glyph unicode="&#x202f;" horiz-adv-x="428" />
<glyph unicode="&#x2030;" horiz-adv-x="2195" d="M139 0l1057 1413h262l-1057 -1413h-262zM168 1043q1 38 8 73q8 39 23.5 78.5t44 84.5t65 78.5t91 56t118.5 22.5t113.5 -23t77 -60.5t44.5 -86.5t15.5 -100.5t-10.5 -102.5q-12 -55 -37.5 -107.5t-65.5 -99.5t-100.5 -75.5t-130.5 -28.5q-60 0 -107 17.5t-75 47.5t-46 67 t-23.5 79t-4.5 80zM331 1022q1 -38 28 -68t75 -30q63 0 106.5 51t57.5 115q16 66 -6.5 119t-89.5 53t-110 -52t-56 -114q-6 -36 -5 -74zM847 284.5q1 38.5 9 73.5q9 39 24 78.5t44 84.5t65 78.5t90.5 56t118.5 22.5t114 -22.5t77.5 -60t44 -86.5t15 -101t-10.5 -103 q-12 -55 -37.5 -107.5t-65.5 -99.5t-100.5 -75.5t-130.5 -28.5q-60 0 -106.5 17.5t-74.5 47.5t-46.5 67t-24.5 78.5t-5 80zM1012.5 264.5q0.5 -37.5 27.5 -67t76 -29.5q63 0 105.5 50t56.5 114q16 66 -6.5 120t-89.5 54q-66 0 -108.5 -52.5t-55.5 -115.5q-6 -36 -5.5 -73.5z M1504 284.5q1 38.5 9 73.5q9 39 24 78.5t44 84.5t65 78.5t90.5 56t118.5 22.5t113.5 -22.5t77 -60t44 -86.5t15 -101t-9.5 -103q-12 -56 -38 -108t-66 -99t-100 -75.5t-130 -28.5q-60 0 -106.5 17.5t-74.5 47.5t-46.5 67t-24.5 78.5t-5 80zM1667 283.5q2 -29.5 10.5 -55 t33 -43t61.5 -17.5q64 0 105.5 49t57.5 115q7 40 4.5 79t-29 67t-71.5 28q-66 0 -108.5 -52t-57.5 -116q-8 -25 -6 -54.5z" />
<glyph unicode="&#x2039;" horiz-adv-x="618" d="M78 510l532 371l-43 -238l-209 -133l146 -131l-45 -238z" />
<glyph unicode="&#x203a;" horiz-adv-x="618" d="M2 141l45 238l209 131l-147 133l45 238l383 -371z" />
<glyph unicode="&#x2044;" horiz-adv-x="434" d="M-442 0l1110 1413h284l-1114 -1413h-280z" />
<glyph unicode="&#x205f;" horiz-adv-x="535" />
<glyph unicode="&#x20ac;" horiz-adv-x="1271" d="M-27 489l99 136h153q5 46 19 106q1 3 2 9.5t2 9.5h-209l104 141h146q32 89 76 167t107.5 148.5t140 120.5t176 79.5t212.5 29.5q228 0 365 -115l-166 -274q-56 135 -209 135q-124 0 -225 -77.5t-166 -213.5h508l-92 -141h-471l-19 -74q-2 -8 -5 -25t-5 -26h424l-84 -136 h-348q10 -253 240 -253q173 0 305 122l90 -260q-171 -121 -406 -121q-109 0 -196.5 26.5t-146 73t-98.5 112t-58 140t-19 160.5h-246z" />
<glyph unicode="&#x2122;" horiz-adv-x="1296" d="M170 1270l29 143h471l-29 -143h-149l-99 -459h-170l99 459h-152zM616 811l127 602h240l4 -422l182 422h242l-127 -602h-160l86 406l-178 -406h-155l-15 414l-88 -414h-158z" />
<glyph unicode="&#x2126;" horiz-adv-x="1523" d="M-57 0l49 236l250 8q-97 81 -131 224.5t-2 295.5q38 178 163.5 327t299 232.5t354.5 83.5q117 0 220 -35.5t178 -99.5t126 -153t63.5 -195t-10.5 -226q-28 -135 -110 -266.5t-205 -216.5l219 10l-47 -225h-574l35 219q145 21 272 159t169 333q23 109 7.5 194.5t-62 144 t-120 89t-165.5 30.5q-209 0 -376 -142t-214 -368q-18 -98 -9 -173t44 -130.5t81.5 -89.5t102.5 -49l-35 -217h-573z" />
<glyph unicode="&#x2202;" horiz-adv-x="1249" d="M57 492q35 161 136 292t238 203t280 72q105 0 175 -43.5t89 -118.5l22 23q25 139 -25 220t-163 81q-120 0 -205 -88l-125 170q133 127 334 127q110 0 192 -36.5t130 -99.5t71 -151.5t20.5 -190t-26.5 -217.5q-34 -160 -100.5 -295.5t-160 -236.5t-218.5 -158t-268 -57 q-232 0 -337.5 139.5t-58.5 364.5zM311 436q-17 -100 23 -153.5t135 -53.5q157 0 279.5 121.5t152.5 294.5q17 106 -20 156.5t-129 50.5q-81 0 -158 -36t-134.5 -94.5t-97 -133t-51.5 -152.5z" />
<glyph unicode="&#x2206;" horiz-adv-x="1241" d="M-117 0l942 1524l301 -1524h-1243zM289 238h547l-115 723z" />
<glyph unicode="&#x220f;" horiz-adv-x="1374" d="M125 0l248 1176h-150l51 237h1203l-50 -237h-149l-248 -1176h-237l247 1176h-430l-248 -1176h-237z" />
<glyph unicode="&#x2211;" horiz-adv-x="1245" d="M-45 0l20 125l693 582l-435 581l21 125h1114l-51 -237h-701l390 -469l-580 -469h692l-49 -238h-1114z" />
<glyph unicode="&#x2212;" horiz-adv-x="1200" d="M137 403l49 230h875l-49 -230h-875z" />
<glyph unicode="&#x221a;" horiz-adv-x="1304" d="M45 524l49 238h334l57 -569l748 1237l217 -76l-963 -1544h-170l-110 714h-162z" />
<glyph unicode="&#x221e;" horiz-adv-x="1533" d="M90 659q29 141 135.5 230.5t241.5 89.5q96 0 183.5 -50.5t156.5 -137.5q227 188 407 188q153 0 232.5 -106t44.5 -267q-29 -140 -136 -229.5t-243 -89.5q-95 0 -183 50.5t-157 137.5q-227 -188 -407 -188q-152 0 -231 106t-44 266zM291 606q-10 -52 16 -79t76 -27 t111 36.5t155 114.5q-86 115 -166 115q-66 0 -122 -44t-70 -116zM930 614q88 -114 166 -114q67 0 122 43t72 116q10 52 -16 79.5t-76 27.5q-52 0 -112.5 -36.5t-155.5 -115.5z" />
<glyph unicode="&#x222b;" horiz-adv-x="860" d="M-188 -457l26 238q167 0 247.5 60.5t111.5 205.5l231 1090q30 140 131.5 225.5t228.5 85.5q68 0 130.5 -25.5t105.5 -70.5l-178 -170q-32 32 -62 32q-42 -4 -78 -31.5t-47 -82.5l-233 -1094q-48 -226 -211.5 -344.5t-402.5 -118.5z" />
<glyph unicode="&#x2248;" horiz-adv-x="1017" d="M0 139q72 353 315 353q55 0 98.5 -16t70.5 -38.5t50.5 -45t50 -38.5t56.5 -16q51 0 94 40.5t62 123.5l200 -25q-38 -179 -120.5 -269.5t-206.5 -90.5q-50 0 -91.5 16t-69 38.5t-51.5 45.5t-52 39t-58 16q-49 0 -92 -39t-59 -118zM0 627q72 352 315 352q55 0 98.5 -16 t70.5 -38.5t50.5 -45t50 -38.5t56.5 -16q51 0 94 40.5t62 123.5l200 -24q-77 -361 -327 -361q-50 0 -91.5 16t-69 39t-51.5 46t-52 39t-58 16q-49 0 -92 -39.5t-59 -118.5z" />
<glyph unicode="&#x2260;" horiz-adv-x="1265" d="M-29 -164l277 357h-246l66 241h366l162 209h-475l61 242h600l283 364h238l-281 -364h221l-63 -242h-342l-162 -209h450l-65 -241h-569l-275 -357h-246z" />
<glyph unicode="&#x2264;" horiz-adv-x="1333" d="M14 0l45 217h1074l-46 -217h-1073zM190 881l1201 561l-52 -260l-663 -301l532 -297l-53 -262z" />
<glyph unicode="&#x2265;" horiz-adv-x="1333" d="M49 0l45 217h1073l-45 -217h-1073zM119 322l53 262l659 297l-530 301l53 260l965 -561z" />
<glyph unicode="&#x25ca;" horiz-adv-x="1163" d="M117 717l545 717h223l245 -717l-542 -717h-223zM397 717l121 -453l332 453l-123 452z" />
<glyph unicode="&#x25fc;" horiz-adv-x="1044" d="M0 0v1044h1044v-1044h-1044z" />
<glyph unicode="&#xfb00;" horiz-adv-x="1355" d="M94 0l185 872h-173l37 177h174l19 81q28 134 122 208.5t247 74.5h200l-43 -209h-117q-48 0 -84 -34t-45 -80l-10 -41h324l18 81q28 134 122 208.5t247 74.5h201l-43 -209h-117q-48 0 -84 -34t-45 -80l-10 -41h221l-37 -177h-221l-185 -872h-290l184 872h-322l-184 -872 h-291z" />
<glyph unicode="&#xfb03;" horiz-adv-x="1892" d="M94 0l185 872h-173l37 177h174l19 81q28 134 122 208.5t247 74.5h200l-43 -209h-117q-48 0 -84 -34t-45 -80l-10 -41h316l18 81q28 134 122 208.5t247 74.5h200l-43 -209h-116q-48 0 -84 -34t-45 -80l-11 -41h222l-37 -177h-221l-185 -872h-291l185 872h-314l-184 -872 h-291zM1354 0l221 1049h291l-221 -1049h-291zM1604 1184l49 229h293l-50 -229h-292z" />
<glyph unicode="&#xfb04;" horiz-adv-x="1845" d="M94 0l185 872h-173l37 177h174l19 81q28 134 122 208.5t247 74.5h200l-43 -209h-117q-48 0 -84 -34t-45 -80l-10 -41h309l19 81q28 134 122 208.5t247 74.5h200l-43 -209h-117q-48 0 -84 -34t-45 -80l-10 -41h221l-36 -177h-222l-184 -872h-291l185 872h-308l-184 -872 h-291zM1307 0l299 1413h290l-299 -1413h-290z" />
<glyph horiz-adv-x="565" d="M27 0l221 1049h291l-222 -1049h-290zM315 1184l47 229h218l-50 -229h-215z" />
<glyph horiz-adv-x="1363" d="M94 0l185 872h-173l37 177h174l19 81q28 134 122 208.5t247 74.5h200l-43 -209h-117q-48 0 -84 -34t-45 -80l-10 -41h309l78 364h291l-78 -364h230l-37 -177h-230l-116 -546q-13 -62 -0.5 -80.5t63.5 -18.5h146l-48 -227h-260q-120 0 -174 76.5t-26 204.5l125 591h-310 l-184 -872h-291z" />
<glyph horiz-adv-x="1335" d="M94 872l37 177h145l78 364h291l-78 -364h320l78 364h290l-77 -364h229l-37 -177h-229l-117 -546q-13 -62 -0.5 -80.5t63.5 -18.5h146l-47 -227h-260q-120 0 -174.5 76.5t-26.5 204.5l125 591h-320l-116 -546q-13 -62 -0.5 -80.5t63.5 -18.5h146l-48 -227h-260 q-120 0 -174 76.5t-26 204.5l125 591h-146z" />
<glyph horiz-adv-x="1843" d="M147 713q0 158 61.5 301t165 247t247 165t301.5 61t301 -61t247 -165t165 -247t61 -301t-61 -301t-165 -247t-247 -165t-301 -61t-301.5 61t-247 165t-165 247t-61.5 301zM219 713q0 -191 94 -353t256 -256t353 -94q143 0 273 55.5t224 149.5t149.5 224.5t55.5 273.5 t-55.5 273t-149.5 224t-224 149.5t-273 55.5t-273.5 -55.5t-224.5 -149.5t-149.5 -224t-55.5 -273zM483 444v537q0 15 10.5 26t24.5 11q15 0 26 -11t11 -26v-537q0 -15 -11 -24.5t-26 -9.5q-14 0 -24.5 9.5t-10.5 24.5zM618 713q0 15 10 25t25 10h133q15 0 26 -10t11 -25 t-11 -25t-26 -10h-133q-15 0 -25 10t-10 25zM887 444v537q0 15 10 26t25 11t24.5 -11t9.5 -26v-537q0 -15 -9.5 -24.5t-24.5 -9.5t-25 9.5t-10 24.5zM1022 713q0 16 8 24l270 269q9 12 23 12q13 0 25 -12t12 -25q0 -15 -10 -25l-244 -243l244 -244q10 -10 10 -25 q0 -13 -11.5 -23.5t-25.5 -10.5q-15 0 -23 10l-270 268q-8 11 -8 25z" />
</font>
</defs>
</svg>
