<?xml version="1.0" standalone="no"?>
<!DOCTYPE svg PUBLIC "-//W3C//DTD SVG 1.1//EN" "http://www.w3.org/Graphics/SVG/1.1/DTD/svg11.dtd" >
<svg xmlns="http://www.w3.org/2000/svg">
<metadata></metadata>
<defs>
<font id="radnikablack_italic" horiz-adv-x="0" >
<font-face units-per-em="2048" ascent="1638" descent="-410" />
<missing-glyph horiz-adv-x="468" />
<glyph unicode="&#x3c;&#x2d;" horiz-adv-x="2537" d="M139 639l1303 647l-60 -307l-413 -184h1509l-68 -320h-1521l342 -188l-60 -307z" />
<glyph unicode="&#x2d;&#x3e;" horiz-adv-x="2537" d="M102 475l70 320h1522l-342 184l59 307l1036 -647l-1308 -659l61 307l416 188h-1514z" />
<glyph unicode="fi" horiz-adv-x="1374" d="M96 815l49 234h195l20 90q27 131 119.5 202.5t253.5 71.5h205l-53 -262h-84q-30 0 -52.5 -24t-27.5 -52l-6 -26h663l-221 -1049h-379l172 815h-284l-172 -815h-379l172 815h-191zM1026 1163l51 250h381l-53 -250h-379z" />
<glyph unicode="fl" horiz-adv-x="1419" d="M96 815l49 234h195l20 90q27 131 119.5 202.5t253.5 71.5h246l-55 -262h-123q-30 0 -52.5 -24t-27.5 -52l-6 -26h186l-49 -234h-186l-172 -815h-379l172 815h-191zM815 0l299 1413h379l-299 -1413h-379z" />
<glyph unicode=" "  horiz-adv-x="468" />
<glyph unicode="&#x09;" horiz-adv-x="468" />
<glyph unicode="&#xa0;" horiz-adv-x="468" />
<glyph unicode="!" horiz-adv-x="634" d="M27 0l75 360h363l-78 -360h-360zM170 489l168 924h336l-223 -924h-281z" />
<glyph unicode="&#x22;" horiz-adv-x="966" d="M154 819l127 594h301l-127 -594h-301zM623 819l127 594h313l-127 -594h-313z" />
<glyph unicode="#" horiz-adv-x="1349" d="M43 387l51 238h238l76 182h-199l51 231h244l160 375h249l-153 -360h190l154 360h248l-154 -371h191l-52 -235h-237l-74 -182h197l-49 -234h-246l-164 -391h-252l160 379h-189l-159 -379h-252l159 387h-188zM584 625h188l76 182h-191z" />
<glyph unicode="$" horiz-adv-x="1218" d="M-8 334l297 194q51 -111 121 -165t151 -54q85 0 147 46.5t74 111.5q10 45 -24.5 68t-131.5 54q-34 11 -53 17q-38 9 -69 18.5t-66.5 23t-63.5 28.5t-56.5 35.5t-49 43.5t-37 53.5t-24 65.5t-7 78t10.5 92q36 169 164 266t315 117l39 154l236 -59l-27 -103 q200 -45 334 -215l-244 -211q-93 142 -264 142q-69 0 -117 -28t-57 -75q-8 -28 19 -44.5t110 -46.5q20 -7 31 -11q41 -10 73.5 -20t72.5 -25t71 -31t64.5 -39.5t56.5 -49.5t42.5 -61t28.5 -75t8.5 -90t-12.5 -107q-44 -204 -202.5 -323.5t-381.5 -124.5l-36 -148l-236 60 l31 122q-222 77 -338 316z" />
<glyph unicode="%" horiz-adv-x="1656" d="M166 0l1059 1413h327l-1060 -1413h-326zM197.5 1033q0.5 39 7.5 73q8 39 23.5 79t45.5 86.5t68.5 82t97.5 59t129 23.5q72 0 127 -25t85 -65.5t48.5 -92.5t17 -106.5t-10.5 -106.5q-12 -55 -38 -107.5t-68 -101t-106 -78.5t-141 -30q-66 0 -118 19t-83 51.5t-51.5 72 t-27 84t-6 83.5zM389 1044q3 -27 11.5 -51.5t34.5 -41.5t65 -17q60 0 98 40t49 91q7 37 4.5 73t-30 62.5t-74.5 26.5q-65 0 -103 -44t-51 -93q-7 -19 -4 -46zM890.5 300q0.5 39 8.5 73q9 38 24 78t45 86.5t69 81.5t98 59t129 24q71 0 125.5 -25t84.5 -65.5t48 -92t16.5 -106 t-10.5 -106.5q-12 -55 -38 -107.5t-67.5 -101t-105.5 -78.5t-141 -30q-66 0 -117.5 19t-82.5 51.5t-51.5 72.5t-27.5 84t-6.5 83zM1082 309q3 -27 11 -51.5t34.5 -41.5t66.5 -17q60 0 97 40.5t50 92.5q7 36 4 72t-31 63t-75 27q-35 0 -63 -14.5t-45.5 -37.5t-28 -44 t-15.5 -42q-8 -20 -5 -47z" />
<glyph unicode="&#x26;" horiz-adv-x="1492" d="M20 414q30 142 141.5 235.5t266.5 122.5q-165 122 -121 326q16 74 55 133t89.5 96.5t113 62.5t122.5 35.5t122 10.5q92 0 172 -25t140 -73t86 -127t5 -179q-15 -68 -44.5 -114t-106.5 -99.5t-215 -113.5l123 -144l364 367l215 -191l-399 -389l276 -348h-464l-82 102 q-160 -131 -398 -131q-108 0 -200.5 28.5t-159.5 82t-95.5 139.5t-5.5 193zM395 381q-24 -111 109 -111q82 0 190 78l-141 197q-50 -14 -97 -57t-61 -107zM647 1008q-6 -26 1 -48t38 -65q98 54 137 91t51 85q5 27 -11.5 46.5t-53.5 19.5q-56 0 -103.5 -38.5t-58.5 -90.5z " />
<glyph unicode="'" horiz-adv-x="485" d="M160 848l127 594h301l-127 -594h-301z" />
<glyph unicode="(" horiz-adv-x="663" d="M67 79.5q-18 266.5 37 547.5q45 240 152.5 474.5t243.5 393.5h358q-180 -195 -307 -434t-178 -502q-98 -521 88 -887h-293q-83 141 -101 407.5z" />
<glyph unicode=")" horiz-adv-x="665" d="M-174 -328q390 406 496 953q84 439 -86 870h292q45 -112 71.5 -253.5t26.5 -322.5t-34 -356q-50 -249 -162 -498t-242 -393h-362z" />
<glyph unicode="*" horiz-adv-x="675" d="M143 1032l207 78l-180 78l115 149l141 -127l18 203h172l-77 -203l180 127l63 -149l-202 -78l174 -78l-111 -147l-143 125l-17 -203h-170l74 203l-178 -125z" />
<glyph unicode="+" horiz-adv-x="1318" d="M111 375l61 287h375l80 374h282l-82 -374h377l-61 -287h-375l-78 -375h-282l79 375h-376z" />
<glyph unicode="," horiz-adv-x="567" d="M-129 -362l248 362h-154l80 381h438l-75 -381l-340 -362h-197z" />
<glyph unicode="-" horiz-adv-x="1103" d="M113 375l61 287h813l-59 -287h-815z" />
<glyph unicode="." horiz-adv-x="624" d="M-16 0l79 381h439l-82 -381h-436z" />
<glyph unicode="/" horiz-adv-x="1150" d="M-68 -156l990 1565h340l-988 -1565h-342z" />
<glyph unicode="0" horiz-adv-x="1267" d="M61.5 492q0.5 115 26.5 247q66 315 250.5 506t447.5 191q119 0 213 -37t154 -104t94.5 -161.5t35 -210.5t-25.5 -249q-43 -206 -139 -361t-242.5 -244t-326.5 -89q-118 0 -210.5 37t-151.5 104t-92.5 161.5t-33 209.5zM459 674q-76 -357 98 -357q107 0 191.5 113.5 t125.5 310.5q38 169 12.5 261t-114.5 92q-106 0 -188.5 -112t-124.5 -308z" />
<glyph unicode="1" horiz-adv-x="956" d="M117 864l69 348l365 201h379l-299 -1413h-381l233 1077z" />
<glyph unicode="2" horiz-adv-x="1298" d="M4 0l57 272q17 80 54.5 145.5t87 111t109.5 82.5t123 63.5t125.5 50.5t119.5 48t102.5 50t77 62.5t41.5 81.5q28 139 -88 139q-90 0 -158.5 -67t-99.5 -185l-358 78q65 234 225 367t407 133q256 0 374.5 -137t72.5 -363q-20 -97 -67 -174.5t-108.5 -127.5t-131 -88 t-143 -64.5t-137 -48.5t-119 -48t-83.5 -55h670l-70 -326h-1083z" />
<glyph unicode="3" horiz-adv-x="1161" d="M40 286q-25 102 1 238l371 -18q-41 -193 106 -193q77 0 134.5 40t72.5 108q27 131 -127 131h-61l63 297h33q119 0 143 112q9 41 -16.5 69t-67.5 28q-72 0 -117.5 -51t-62.5 -127l-356 49q32 150 119.5 257.5t201.5 157.5t242 50q101 0 188.5 -31.5t149 -88t87.5 -143 t5 -188.5q-39 -172 -203 -233l-4 -17q30 -7 55.5 -22t50.5 -41t38 -63t17 -88t-11 -116q-21 -102 -82 -184t-144 -133.5t-178.5 -78.5t-191.5 -27q-110 0 -203 34t-160.5 102t-92.5 170z" />
<glyph unicode="4" horiz-adv-x="1230" d="M-2 270l61 310l709 833h397l-178 -835h135l-65 -308h-135l-56 -270h-381l56 270h-543zM358 578h250l92 411z" />
<glyph unicode="5" horiz-adv-x="1263" d="M23 406l372 77q27 -139 152 -139q91 0 163 59.5t91 151.5q17 68 -21 107.5t-110 39.5q-113 0 -211 -110l-361 82l299 739h916l-68 -326h-657l-66 -178q135 86 293 86q132 0 226.5 -62.5t133 -177.5t7.5 -261q-49 -225 -236 -369.5t-416 -144.5q-212 0 -347.5 120 t-159.5 306z" />
<glyph unicode="6" horiz-adv-x="1179" d="M75.5 303.5q-45.5 159.5 2.5 394.5q14 63 32.5 124.5t51 136.5t72 140t97.5 128t126 107.5t158.5 72t193.5 27.5q344 0 448 -295l-290 -131q-27 76 -65.5 101.5t-100.5 25.5q-131 0 -227.5 -91t-135.5 -243q72 78 145 104.5t156 26.5q99 0 180.5 -32.5t135 -94.5 t72.5 -152.5t-5 -206.5q-31 -144 -121 -251.5t-213 -161t-262 -53.5q-171 0 -288 82t-162.5 241.5zM444 440q-4 -60 31 -97.5t94 -37.5q83 0 143.5 58t63.5 141q4 58 -34 95.5t-101 37.5q-81 0 -137.5 -56.5t-59.5 -140.5z" />
<glyph unicode="7" horiz-adv-x="1019" d="M80 0q30 147 83 290.5t131 286t189 275t246 235.5h-541l68 326h922l-68 -373q-121 -85 -215 -180t-156.5 -188t-111 -208.5t-78 -220t-57.5 -243.5h-412z" />
<glyph unicode="8" horiz-adv-x="1216" d="M23 434q28 122 113.5 212.5t221.5 119.5l31 4q-88 25 -134.5 112.5t-23.5 194.5q34 157 185 257t356 100q227 0 349.5 -119.5t84.5 -300.5q-19 -87 -87 -157.5t-161 -94.5l-32 -4q131 -30 188 -138t27 -249q-39 -186 -207.5 -288.5t-411.5 -102.5q-263 0 -402.5 122 t-96.5 332zM408 428q-6 -61 31 -97t106 -36q94 0 160 55.5t75 143.5q8 57 -30 92t-109 35q-92 0 -158 -55.5t-75 -137.5zM569 989q-3 -43 27 -71.5t82 -28.5q72 0 124.5 48t55.5 116q5 44 -25 73t-81 29q-72 0 -125 -49t-58 -117z" />
<glyph unicode="9" horiz-adv-x="1179" d="M-4 274l291 132q27 -76 65.5 -101.5t100.5 -25.5q131 0 227 90.5t135 242.5q-72 -78 -145 -104.5t-156 -26.5q-99 0 -180.5 32.5t-135 94.5t-72.5 152.5t5 206.5q31 144 121 251.5t213 161.5t262 54q171 0 288 -82t163 -242t-2 -395q-14 -63 -32.5 -124.5t-51 -136.5 t-72.5 -139.5t-98 -127.5t-126 -107.5t-158.5 -72t-193.5 -27.5q-345 0 -448 294zM477 909q-4 -58 34 -95.5t101 -37.5q81 0 137.5 56.5t59.5 140.5q4 60 -31 97.5t-94 37.5q-83 0 -143.5 -58t-63.5 -141z" />
<glyph unicode=":" horiz-adv-x="591" d="M-23 0l80 381h439l-80 -381h-439zM123 690l80 381h438l-80 -381h-438z" />
<glyph unicode=";" horiz-adv-x="577" d="M-129 -362l248 362h-148l80 381h436l-69 -381l-342 -362h-205zM121 690l82 381h436l-80 -381h-438z" />
<glyph unicode="&#x3c;" horiz-adv-x="1409" d="M106 674l1317 592l-71 -332l-615 -260l504 -260l-70 -332z" />
<glyph unicode="=" horiz-adv-x="1136" d="M16 111l68 307h926l-68 -307h-926zM127 618l63 308h926l-63 -308h-926z" />
<glyph unicode="&#x3e;" horiz-adv-x="1474" d="M174 82l2 332l563 260l-553 260l2 332l1184 -592z" />
<glyph unicode="?" horiz-adv-x="972" d="M143 991q14 67 39 127.5t67 119t95.5 101.5t129.5 69t165 26q87 0 164.5 -28.5t134.5 -84t78 -137t-4 -187.5q-15 -58 -42 -103t-58 -73t-66 -51.5t-69 -47t-64 -50.5t-54 -70t-36 -100l-5 -17h-296l12 50q16 79 44 140t60 97t67.5 63t69 45.5t62.5 36.5t50.5 43.5 t29.5 59.5q26 115 -90 115q-48 0 -85 -18t-57 -48t-30.5 -56t-16.5 -55zM195 0l77 360h346l-75 -360h-348z" />
<glyph unicode="@" horiz-adv-x="1865" d="M31.5 145q-34.5 169 11.5 381q56 263 212.5 471t374 321.5t455.5 113.5q128 0 242.5 -34t202.5 -95t156.5 -147t104.5 -189t45.5 -221t-19.5 -244q-17 -84 -49.5 -168t-83.5 -165.5t-114 -144t-147 -101t-176 -38.5q-61 0 -111 16.5t-87 51.5t-47.5 89.5t6.5 131.5 q-54 -72 -113.5 -112t-99 -49t-86.5 -9q-88 0 -152 34.5t-96 95t-41 143t14 178.5q52 238 222.5 405.5t347.5 167.5q91 0 155.5 -46t63.5 -136l63 145h219q-68 92 -174.5 142.5t-236.5 50.5q-136 0 -270 -52.5t-244.5 -144.5t-192.5 -227t-115 -291q-17 -82 -17.5 -158 t16 -145.5t55 -127t95.5 -99.5t140.5 -65.5t186.5 -23.5q61 0 137 13l49 -234q-72 -16 -174 -16q-193 0 -347 63t-250.5 181.5t-131 287.5zM676 436q-18 -85 6.5 -127.5t85.5 -42.5q113 0 214.5 109t131.5 252q36 164 -88 164q-115 0 -217.5 -106.5t-132.5 -248.5zM1212 149 q9 -28 52 -28q27 0 58 11.5t70 41t73 74.5t66.5 120t51.5 169q52 244 -53 417l-295 -694q-32 -83 -23 -111z" />
<glyph unicode="A" horiz-adv-x="1497" d="M-125 0l805 1413h504l202 -1413h-407l-31 311h-477l-164 -311h-432zM635 621h283l-44 432h-10z" />
<glyph unicode="B" horiz-adv-x="1374" d="M14 0l299 1413h658q225 1 329 -111q73 -79 73 -202q0 -51 -13 -109q-38 -189 -246 -243v-15q114 -27 165 -120q32 -59 32 -135q0 -45 -11 -97q-40 -188 -180.5 -284.5t-374.5 -96.5h-731zM473 330h277q77 0 129.5 33.5t66.5 101.5q2 10 2 20q0 33 -22 57q-28 31 -95 31 h-305zM590 870h270q54 0 100.5 33t59.5 92q2 10 2 19q0 29 -19 52q-25 30 -85 30h-279z" />
<glyph unicode="C" horiz-adv-x="1335" d="M62 522q2 104 26 217q22 103 59 197.5t100.5 187.5t145 160.5t199.5 109.5t256 42q247 0 379.5 -114t163.5 -345l-387 -107q1 18 1 35q0 197 -171 197q-133 0 -235 -111t-144 -311q-17 -82 -18 -147q1 -73 23 -124q42 -96 140 -96q106 0 194.5 71t147.5 202l340 -176 q-123 -226 -288.5 -328t-397.5 -102q-145 0 -252 45t-166 119t-88 174q-28 96 -28 194v10z" />
<glyph unicode="D" horiz-adv-x="1409" d="M14 0l299 1413h459q378 0 538 -197q111 -136 111 -341q0 -92 -22 -197q-70 -331 -296.5 -504.5t-604.5 -173.5h-484zM475 340h43q206 0 339 105t173 298q11 52 11 96q0 93 -50 149q-74 83 -268 83h-92z" />
<glyph unicode="E" horiz-adv-x="1189" d="M14 0l299 1413h979l-67 -326h-590l-47 -217h547l-68 -323h-549l-47 -219h590l-68 -328h-979z" />
<glyph unicode="F" horiz-adv-x="1183" d="M14 0l299 1413h1026l-67 -326h-637l-47 -217h549l-68 -323h-551l-115 -547h-389z" />
<glyph unicode="G" horiz-adv-x="1482" d="M90 748q31 145 102.5 270t176 218.5t248 146.5t307.5 53q126 0 229.5 -36t168.5 -97t102 -135t42 -154l-338 -70q-23 174 -225 174q-90 0 -166 -35.5t-129.5 -98t-89.5 -140.5t-55 -170q-17 -66 -17 -126v-15q3 -66 24 -115t74 -77t134 -28q138 0 234 64.5t122 144.5 h-299l66 307h643l-176 -829h-305l16 119q-144 -139 -401 -139q-100 0 -184 28t-144.5 79t-102 122t-61.5 156q-19 83 -19 178q0 100 23 205z" />
<glyph unicode="H" horiz-adv-x="1511" d="M14 0l301 1413h390l-115 -532h483l115 532h389l-301 -1413h-389l114 535h-485l-113 -535h-389z" />
<glyph unicode="I" horiz-adv-x="636" d="M14 0l299 1413h389l-299 -1413h-389z" />
<glyph unicode="J" horiz-adv-x="811" d="M-76 4l45 348q16 -1 70.5 -6.5t73.5 -5.5q44 0 74.5 6t61 23.5t51.5 55t34 95.5l188 893h389l-221 -1038q-39 -186 -176.5 -290.5t-349.5 -104.5q-167 0 -240 24z" />
<glyph unicode="K" horiz-adv-x="1554" d="M14 0l301 1413h390l-136 -629l662 629h504l-686 -606l389 -807h-432l-240 559l-301 -266l-62 -293h-389z" />
<glyph unicode="L" horiz-adv-x="1128" d="M14 0l299 1413h389l-231 -1087h604l-67 -326h-994z" />
<glyph unicode="M" horiz-adv-x="2009" d="M14 0l301 1413h543l123 -936l535 936h557l-301 -1413h-388l197 930h-10l-516 -930h-322l-119 930h-18l-199 -930h-383z" />
<glyph unicode="N" horiz-adv-x="1581" d="M14 0l299 1413h375l383 -821h14l172 821h390l-299 -1413h-379l-377 807h-17l-172 -807h-389z" />
<glyph unicode="O" horiz-adv-x="1486" d="M88 739q69 321 288 508t525 187q221 0 369 -94q147 -94 202 -266q29 -92 29 -200q0 -94 -22 -200q-69 -321 -291.5 -507.5t-536.5 -186.5q-329 0 -483 207q-104 140 -104 344q0 97 24 208zM496 674q-16 -75 -16 -136q0 -76 24 -130q44 -97 158 -97q143 0 256 117.5 t153 310.5q16 74 16 133q0 78 -27 133q-48 97 -171 97q-136 0 -244.5 -117.5t-148.5 -310.5z" />
<glyph unicode="P" horiz-adv-x="1339" d="M14 0l299 1413h660q234 0 350 -147q82 -104 82 -248q0 -60 -14 -127q-44 -207 -195 -323.5t-379 -116.5h-319l-97 -451h-387zM567 778h224q209 0 227 166q2 14 2 27q0 47 -28 76q-36 36 -132 36h-229z" />
<glyph unicode="Q" horiz-adv-x="1488" d="M88 739q69 321 288 508t525 187q221 0 368.5 -93.5t202.5 -266.5q29 -92 29 -200q0 -94 -22 -200q-62 -280 -238 -459l111 -137l-242 -211l-135 172q-148 -59 -324 -59q-329 0 -483 207q-104 140 -104 344q0 97 24 208zM496 674q-16 -75 -16 -136q0 -76 24 -130 q44 -97 158 -97q41 0 88 13l-97 120l234 205l102 -127q58 96 82 217q16 74 16 133q0 78 -27 133q-48 97 -171 97q-136 0 -244.5 -117.5t-148.5 -310.5z" />
<glyph unicode="R" horiz-adv-x="1409" d="M12 -2l301 1415h676q103 0 193 -32.5t153 -90.5q63 -60 90 -148q15 -49 15 -102q0 -44 -10 -90q-27 -126 -102 -214t-206 -152l191 -586h-398l-141 539h-262l-117 -539h-383zM575 829l312 2q80 2 125.5 40.5t46.5 105.5v9q0 45 -28 74q-31 32 -105 32h-295z" />
<glyph unicode="S" horiz-adv-x="1218" d="M-8 334l297 194q51 -111 121 -165t151 -54q85 0 147 46.5t74 111.5q2 10 2 19q0 31 -26 49q-34 23 -132 54q-34 11 -53 17q-38 9 -69 18.5t-66.5 23t-63.5 28.5t-56.5 35.5t-49 43.5t-36.5 53q-16 31 -24 66q-7 33 -8 73v5q0 43 11 92q40 191 197 290.5t380 99.5 q151 0 270 -55t214 -175l-244 -211q-93 142 -264 142q-69 0 -117 -28t-57 -75q-8 -28 19 -44.5t110 -46.5q20 -7 31 -11q41 -10 73.5 -20t72.5 -25t71 -31t64.5 -39.5t56.5 -49.5t42.5 -61t28.5 -75q9 -38 8 -85q1 -3 1 -5q0 -50 -13 -107q-45 -209 -208.5 -328.5 t-393.5 -119.5q-197 0 -338 91t-223 259z" />
<glyph unicode="T" horiz-adv-x="1198" d="M131 1087l68 326h1177l-67 -326h-398l-229 -1087h-389l231 1087h-393z" />
<glyph unicode="U" horiz-adv-x="1466" d="M135 573l178 840h389l-188 -885q-8 -38 -8 -68q0 -50 22 -79q36 -47 129 -47q117 0 198.5 62t105.5 165l180 852h389l-184 -862q-58 -283 -229.5 -427t-475.5 -144q-317 0 -441 157q-84 107 -84 269q0 77 19 167z" />
<glyph unicode="V" horiz-adv-x="1503" d="M188 1413h410l104 -1051h11l559 1051h428l-803 -1413h-502z" />
<glyph unicode="W" horiz-adv-x="2031" d="M166 0l33 1413h397l-59 -1096h16l438 1096h424l-26 -1096h14l405 1096h410l-571 -1413h-568l29 958l-373 -958h-569z" />
<glyph unicode="X" horiz-adv-x="1507" d="M-131 0l635 707l-322 706h471l185 -450l387 450h491l-639 -706l330 -707h-471l-186 442l-390 -442h-491z" />
<glyph unicode="Y" horiz-adv-x="1439" d="M184 1413h426l191 -508l397 508h447l-723 -864l-121 -549h-383l121 549z" />
<glyph unicode="Z" horiz-adv-x="1269" d="M-76 0l47 244l850 843h-620l67 326h1155l-51 -264l-809 -823h629l-68 -326h-1200z" />
<glyph unicode="[" horiz-adv-x="628" d="M-55 -328l387 1823h481l-68 -321h-165l-252 -1174h166l-70 -328h-479z" />
<glyph unicode="\" horiz-adv-x="1150" d="M274 1409h322l324 -1565h-320z" />
<glyph unicode="]" horiz-adv-x="628" d="M-158 -328l72 328h166l250 1174h-168l67 321h480l-387 -1823h-480z" />
<glyph unicode="^" horiz-adv-x="1032" d="M-23 449l719 964l316 -964h-359l-69 342l-230 -342h-377z" />
<glyph unicode="_" horiz-adv-x="925" d="M-180 -281l59 281h946l-59 -281h-946z" />
<glyph unicode="`" horiz-adv-x="706" d="M242 1364h346l180 -246h-242z" />
<glyph unicode="a" horiz-adv-x="1112" d="M-6 295q10 44 28 81t38.5 66t53 54t61.5 43t74.5 35.5t81 29t92 25t96.5 22t106 22t110 23.5q3 13 3 25q0 33 -21 55q-28 31 -99 31q-92 0 -160.5 -32.5t-138.5 -102.5l-196 196q98 100 217 150.5t283 50.5q114 0 200.5 -23.5t148.5 -75t82 -132.5q9 -38 9 -83 q0 -51 -12 -112l-136 -643h-327l18 88q-145 -111 -315 -111q-163 0 -245 86q-60 63 -60 158q0 35 8 74zM387 322q-2 -10 -2 -19q0 -26 17 -43q23 -24 77 -24q84 0 178 90l27 131q-59 -12 -91.5 -19t-75.5 -19.5t-65.5 -24.5t-41 -30.5t-23.5 -41.5z" />
<glyph unicode="b" horiz-adv-x="1296" d="M-6 0l299 1413h379l-97 -473q53 61 135.5 95t170.5 34q211 0 309 -158q63 -101 63 -245q0 -81 -20 -174q-51 -236 -197 -375.5t-336 -139.5q-116 0 -198.5 55t-98.5 132l-10 -2l-31 -162h-368zM475 496q-3 -26 -3 -49q0 -67 26 -106q35 -52 108 -52q104 0 171 66t85 206 q4 28 4 53q0 65 -26 98q-35 46 -115 46q-93 0 -163 -71.5t-87 -190.5z" />
<glyph unicode="c" horiz-adv-x="1138" d="M48 374v23q0 76 15 158q23 109 75 201.5t129.5 163t185.5 110t235 39.5q110 0 193 -25t137 -73.5t86 -111.5t49 -146l-319 -86q-3 82 -36 116.5t-102 34.5q-99 0 -174 -78.5t-104 -214.5q-10 -46 -10 -82q0 -45 16 -77q30 -56 108 -56q84 0 150 49.5t104 133.5l277 -138 q-95 -178 -224.5 -258t-320.5 -80q-112 0 -200 30t-143.5 83t-90 125.5t-36.5 158.5z" />
<glyph unicode="d" horiz-adv-x="1296" d="M63 557q49 235 192.5 373.5t332.5 138.5q115 0 200.5 -55.5t106.5 -134.5l106 534h377l-299 -1413h-366l24 127q-49 -70 -134.5 -110t-180.5 -40q-214 0 -314 159q-65 103 -65 248q0 80 20 173zM432 496q-10 -50 -11 -87q0 -48 18 -74q31 -46 114 -46q93 0 168 72.5 t104 199.5q8 36 8 66q0 47 -20 79q-32 52 -104 52q-102 0 -175.5 -65.5t-101.5 -196.5z" />
<glyph unicode="e" horiz-adv-x="1157" d="M55 290q-11 49 -11 108q0 68 15 149q36 166 131.5 286.5t220.5 178t265 57.5q101 0 189 -31.5t152 -91t90 -156.5q13 -49 13 -105q0 -53 -12 -112q-14 -84 -39 -143l-647 14q-4 -24 -4 -45q0 -60 30 -91q40 -42 117 -42q143 0 246 119l223 -176q-129 -126 -244 -177.5 t-258 -51.5q-117 0 -213 32.5t-168 101.5t-96 176zM475 666h301q5 21 5 39q0 33 -16 57q-24 36 -93 37q-75 0 -126 -38t-71 -95z" />
<glyph unicode="f" horiz-adv-x="788" d="M84 0l178 840h-162l45 209h164l21 88q27 132 120.5 204t254.5 72h245l-55 -260h-121q-31 0 -54 -24.5t-30 -53.5l-6 -26h188l-45 -209h-186l-178 -840h-379z" />
<glyph unicode="g" horiz-adv-x="1290" d="M-55 -201l184 224q120 -138 301 -138q97 0 180.5 52.5t106.5 154.5l20 72q-31 -50 -112 -85.5t-183 -35.5q-98 0 -177.5 34t-134 102.5t-70.5 170.5q-7 39 -7 83q0 72 17 157q26 123 81.5 217.5t127.5 150t151 83.5t160 28q122 0 205 -54.5t98 -119.5l-2 14l29 140h376 l-206 -969q-17 -83 -49 -151.5t-71 -116t-88 -83.5t-96.5 -57.5t-101.5 -34.5t-98 -17.5t-90 -4.5q-179 0 -311 39t-240 145zM438 518q-2 -18 -2 -34q0 -64 28 -103q36 -49 111 -49q97 0 168 69t86 179q2 19 2 36q0 63 -29 102q-37 50 -112 50q-97 0 -167 -69t-85 -181z" />
<glyph unicode="h" horiz-adv-x="1290" d="M-6 0l299 1413h379l-94 -461q62 59 148.5 88t178.5 29q125 0 205 -54q82 -55 108 -141q14 -46 14 -97q0 -45 -11 -93l-146 -684h-375l136 645q5 24 5 44q0 87 -96 87q-92 0 -160.5 -51.5t-82.5 -118.5l-129 -606h-379z" />
<glyph unicode="i" horiz-adv-x="591" d="M-6 0l221 1049h379l-221 -1049h-379zM242 1163l51 250h381l-53 -250h-379z" />
<glyph unicode="j" horiz-adv-x="591" d="M-236 -365l33 291q85 0 145 50.5t72 113.5l203 959h379l-209 -986q-48 -227 -192 -327.5t-431 -100.5zM240 1163l53 250h381l-51 -250h-383z" />
<glyph unicode="k" horiz-adv-x="1267" d="M-6 0l299 1413h379l-154 -721l422 357h463l-496 -406l277 -643h-402l-153 418l-203 -166l-53 -252h-379z" />
<glyph unicode="l" horiz-adv-x="608" d="M4 0l299 1413h379l-299 -1413h-379z" />
<glyph unicode="m" horiz-adv-x="1820" d="M-6 0l221 1049h371l-23 -119q123 139 299 139q199 0 252 -184l14 24q75 82 148.5 121t171.5 39q179 0 258 -110q53 -74 53 -180q0 -51 -12 -109l-141 -670h-379l137 643q4 21 4 37q0 31 -15 46q-23 22 -75 22q-68 0 -110 -45t-58 -119l-123 -584h-379l137 641q5 23 5 41 q0 30 -14 44q-22 22 -74 22q-130 0 -166 -164l-123 -584h-379z" />
<glyph unicode="n" horiz-adv-x="1290" d="M-6 0l221 1049h373l-29 -119l8 12q58 58 145.5 92.5t192.5 34.5q173 1 262 -109q64 -79 63 -187q0 -42 -9 -89l-146 -684h-375l136 645q4 21 4 39q0 86 -105 86q-85 0 -152 -48t-81 -116l-129 -606h-379z" />
<glyph unicode="o" horiz-adv-x="1226" d="M56 301q-10 47 -9 101q0 70 16 151q27 127 88.5 226.5t146.5 162.5t187.5 95t216.5 32q261 1 390 -157q88 -108 88 -267q0 -74 -19 -158q-29 -129 -91.5 -228.5t-147 -160t-184 -91t-210.5 -30.5q-121 0 -218.5 36t-164.5 108t-89 180zM408 454q-1 -10 -1 -20 q1 -26 5 -50q6 -34 23.5 -57t50 -37t79.5 -14q100 0 158 60.5t84 175.5q14 59 14 105q0 153 -157 153q-193 0 -244 -238q-10 -42 -12 -78z" />
<glyph unicode="p" horiz-adv-x="1296" d="M-84 -365l299 1414h379l-21 -111q52 61 136 96t174 35q207 0 306 -158q64 -102 64 -246q0 -80 -20 -173q-52 -236 -197.5 -375.5t-330.5 -139.5q-123 0 -209.5 58.5t-98.5 142.5l-112 -543h-369zM473 498q-6 -33 -6 -61q0 -60 27 -95q39 -53 116 -53q208 0 254 274 q4 27 4 51q0 144 -143 144q-94 0 -163 -71t-89 -189z" />
<glyph unicode="q" horiz-adv-x="1296" d="M63 557q50 235 194 373.5t329 138.5q111 0 195.5 -50.5t111.5 -127.5l31 158h376l-299 -1414h-366l102 500q-42 -72 -130.5 -115t-188.5 -43q-208 0 -309 159q-65 103 -65 249q0 80 19 172zM434 498q-4 -32 -4 -58q0 -71 26 -104q34 -47 113 -47q97 0 167 72t87 202 q3 24 3 45q0 60 -27 98q-37 52 -111 52q-99 0 -167.5 -66t-86.5 -194z" />
<glyph unicode="r" horiz-adv-x="831" d="M-6 0l221 1049h344l-37 -179h10q61 100 136.5 147.5t140.5 47.5q69 0 117 -23l-68 -299q-78 -5 -135.5 -19.5t-111.5 -46.5t-90 -90.5t-54 -144.5l-94 -442h-379z" />
<glyph unicode="s" horiz-adv-x="1054" d="M-33 129l172 225q95 -83 244 -110q17 -1 34 -1q61 -1 107 17q59 22 72 72q9 18 -6 27t-67 25q-37 11 -60 19q-33 7 -60.5 14t-58.5 18t-55.5 22.5t-49 28.5t-42 36t-31.5 44q-14 24 -20 54q-6 27 -6 61v5q0 36 10 78q65 305 485 305q147 0 243.5 -36.5t182.5 -98.5 l-156 -217q-88 66 -209 96q-34 4 -63 4q-108 0 -131 -63q-7 -8 -7 -16q0 -17 33 -30q18 -7 68 -22q61 -17 92 -29q38 -9 69.5 -20t64 -27t56 -36.5t44.5 -48t29 -60.5t11 -75q1 -8 1 -17q0 -36 -11 -76q-68 -320 -491 -320q-132 0 -261.5 37t-232.5 115z" />
<glyph unicode="t" horiz-adv-x="753" d="M78 840l43 209h139l78 364h377l-78 -364h194l-43 -209h-196l-107 -502q-6 -34 -1 -40.5t34 -6.5h154l-62 -291h-323q-106 0 -161 79q-38 54 -38 126q0 33 8 69l119 566h-137z" />
<glyph unicode="u" horiz-adv-x="1310" d="M92 367l144 682h376l-129 -611q-4 -18 -4 -34q0 -38 21 -64q29 -36 94 -35q90 0 150 50.5t75 117.5l121 576h377l-221 -1049h-371l31 119l-17 -15q-116 -135 -336 -135q-123 0 -203 57q-80 58 -106 147q-13 46 -14 96q0 47 12 98z" />
<glyph unicode="v" horiz-adv-x="1208" d="M102 1049h400l61 -709l365 709h411l-630 -1049h-422z" />
<glyph unicode="w" horiz-adv-x="1796" d="M100 1049h394l2 -725l338 725h342l26 -727l318 727h405l-522 -1049h-483l-15 563l-252 -571h-481z" />
<glyph unicode="x" horiz-adv-x="1286" d="M-121 0l483 528l-249 521h456l115 -287l242 287h479l-492 -521l261 -528h-461l-107 295l-250 -295h-477z" />
<glyph unicode="y" horiz-adv-x="1126" d="M-76 -365l33 291q111 0 191 35t116 90l-176 998h395l45 -619h21l319 619h412l-645 -1065q-46 -76 -83.5 -126.5t-84 -92t-94 -65t-115.5 -39t-146 -21t-188 -5.5z" />
<glyph unicode="z" horiz-adv-x="1081" d="M-43 0l49 260l584 500h-475l59 289h946l-51 -273l-545 -485h437l-62 -291h-942z" />
<glyph unicode="{" horiz-adv-x="700" d="M31 426l37 317q65 -1 108 25.5t57 69.5l66 331q29 143 139 235.5t252 92.5h182l-71 -342h-76q-38 0 -78 -29t-49 -63l-59 -295q-11 -63 -27 -91q-34 -60 -127 -108q104 -68 66 -200l-58 -295q-7 -33 7 -47.5t51 -14.5h106l-74 -340h-151q-142 0 -223.5 108t-47.5 251 l66 331q8 41 -10.5 53t-85.5 11z" />
<glyph unicode="|" horiz-adv-x="546" d="M-10 -156l360 1692h277l-361 -1692h-276z" />
<glyph unicode="}" horiz-adv-x="700" d="M-145 -328l71 340h76q37 0 75.5 29.5t45.5 64.5l67 295q1 3 3.5 18t3.5 20.5t5 20.5t9 23t13 22t18.5 24t24.5 23.5t33 25.5t42 24q-97 61 -72 199l70 295q4 33 -12 46t-54 13h-104l72 342h153q142 0 223.5 -107.5t49.5 -250.5l-76 -334q-6 -39 15.5 -51.5t90.5 -10.5 l-43 -317q-63 1 -105 -26t-50 -68l-78 -334q-28 -143 -135.5 -234.5t-249.5 -91.5h-182z" />
<glyph unicode="~" horiz-adv-x="1167" d="M39 362q84 412 360 412q53 0 97 -15t73 -36t54 -42.5t53 -36.5t59 -15q28 0 56.5 11.5t59.5 50.5t44 100l250 -33q-87 -412 -363 -412q-53 0 -96.5 15t-72 36.5t-53.5 43t-53 36.5t-58 15q-47 0 -94.5 -37.5t-65.5 -124.5z" />
<glyph unicode="&#xa1;" horiz-adv-x="634" d="M-45 -387l229 946h281l-174 -946h-336zM170 688l78 361h360l-76 -361h-362z" />
<glyph unicode="&#xa2;" horiz-adv-x="1138" d="M63 555q41 192 167 328t319 174l31 143h276l-31 -143q145 -28 222.5 -115.5t105.5 -228.5l-319 -86q-3 82 -36 116.5t-102 34.5q-99 0 -174 -78.5t-104 -214.5q-23 -104 6.5 -159.5t107.5 -55.5q84 0 150 49.5t104 133.5l277 -138q-85 -160 -197 -240t-270 -93l-39 -187 h-276l45 211q-170 54 -237 203t-26 346z" />
<glyph unicode="&#xa3;" horiz-adv-x="1323" d="M25 510l63 287h162l18 86q52 247 232 399t413 152q181 0 314.5 -111.5t158.5 -278.5l-329 -79q-9 64 -52 97.5t-106 33.5q-112 0 -194 -68t-105 -178l-10 -53h381l-62 -287h-381l-41 -197h748l-66 -313h-1087l108 510h-165z" />
<glyph unicode="&#xa4;" horiz-adv-x="1249" d="M-2 313l147 125q-46 132 -14 275q26 134 113 237l-90 97l247 221l88 -111q119 57 254 57q140 0 252 -73l148 127l174 -221l-146 -125q46 -134 15 -275q-30 -137 -115 -237l90 -97l-248 -221l-86 111q-121 -58 -254 -58q-137 0 -251 74l-150 -127zM422 668 q-21 -99 35 -160.5t143 -61.5q112 0 195 63t104 183q16 100 -40 160.5t-144 60.5q-102 0 -186.5 -73.5t-106.5 -171.5z" />
<glyph unicode="&#xa5;" horiz-adv-x="1509" d="M184 1413h375l236 -625l524 625h395l-618 -688h149l-49 -240h-297l-31 -133h297l-49 -239h-297l-37 -170h-303l37 170h-297l49 239h297l31 133h-297l51 246h162z" />
<glyph unicode="&#xa6;" horiz-adv-x="602" d="M-8 -156l123 580h327l-123 -580h-327zM190 774l136 639h327l-135 -639h-328z" />
<glyph unicode="&#xa7;" horiz-adv-x="1159" d="M92 283l338 65q2 -54 26.5 -75t98.5 -21q65 0 113.5 25t58.5 75q6 28 -15.5 45.5t-62 25.5t-92 16t-106 17t-104 28.5t-85 50t-50 82t0.5 124.5q13 57 44 104t95 93q-77 72 -49 217q59 279 455 279q363 0 401 -287l-297 -39q-1 45 -23 59.5t-81 14.5q-68 0 -113.5 -26.5 t-54.5 -72.5q-5 -26 17 -43t62.5 -24t92.5 -15.5t106 -18.5t103 -31.5t84 -55t48.5 -90t-3.5 -135.5q-5 -23 -10.5 -39.5t-19 -41t-38.5 -49.5t-61 -51q76 -67 49 -198q-65 -309 -498 -309q-81 0 -152 14.5t-135.5 47t-103 93.5t-39.5 146zM520 707q7 -10 18.5 -16.5 t33 -10.5t37.5 -5.5t55 -4t63 -4.5q34 16 56 44.5t14 63.5q-18 13 -56.5 21t-62.5 9.5t-88 4.5q-30 -14 -51.5 -41t-18.5 -61z" />
<glyph unicode="&#xa8;" horiz-adv-x="800" d="M186 1110l54 254h256l-54 -254h-256zM608 1110l54 254h256l-54 -254h-256z" />
<glyph unicode="&#xa9;" horiz-adv-x="1691" d="M100 711q0 156 63 300t168.5 248.5t251.5 167t304 62.5t303.5 -62.5t250.5 -167t167.5 -248.5t62.5 -300q0 -157 -62.5 -301.5t-167.5 -249.5t-250.5 -167.5t-303.5 -62.5t-303.5 62.5t-251.5 167.5t-169 249.5t-63 301.5zM236 711q0 -174 87.5 -322t237.5 -234.5 t326 -86.5q131 0 251.5 51t208 137t139.5 205.5t52 249.5t-52 249t-139.5 204.5t-208 136.5t-251.5 51q-132 0 -252.5 -51t-207.5 -136.5t-139 -204.5t-52 -249zM459 705q-2 126 44 224.5t146 159t242 60.5q110 0 188.5 -32.5t127 -89.5t85.5 -146l-235 -101 q-17 65 -60.5 101.5t-107.5 36.5q-72 0 -119 -56t-41 -149q6 -96 52 -149.5t120 -55.5q58 -1 98.5 32.5t57.5 98.5l223 -82q-47 -145 -142 -215t-257 -70q-105 0 -186.5 34t-131.5 94.5t-76 137t-28 167.5z" />
<glyph unicode="&#xaa;" horiz-adv-x="770" d="M-6 905q7 30 19 55.5t26 45.5t36 37.5t41.5 29.5t51 24t55.5 20t63 17t66 15t72.5 15t75.5 16q6 35 -12 55t-68 20q-62 0 -108.5 -22t-94.5 -70l-135 135q68 68 149 103t193 35q161 0 242 -72t49 -221l-92 -438h-224l13 59q-101 -76 -215 -76q-111 0 -168 59t-35 158z M262 924q-5 -25 11.5 -41.5t52.5 -16.5q60 0 120 60l19 90q-98 -18 -147 -37t-56 -55z" />
<glyph unicode="&#xab;" horiz-adv-x="1179" d="M51 508l594 401l-51 -276l-197 -125l138 -119l-52 -274zM610 508l594 401l-49 -276l-199 -125l140 -119l-52 -274z" />
<glyph unicode="&#xac;" horiz-adv-x="1255" d="M94 469l70 328h1044l-145 -686h-369l76 358h-676z" />
<glyph unicode="&#xad;" horiz-adv-x="1103" d="M113 375l61 287h813l-59 -287h-815z" />
<glyph unicode="&#xae;" horiz-adv-x="1310" d="M127 893q0 147 70.5 271.5t192 197t265.5 72.5t266.5 -72.5t193.5 -197t71 -271.5t-71 -271.5t-193.5 -197t-266.5 -72.5t-265.5 72.5t-192 197t-70.5 271.5zM254 893q0 -168 117 -288t284 -120q166 0 285 120.5t119 287.5t-119 288.5t-285 121.5t-283.5 -121 t-117.5 -289zM469 633v530h215q89 0 139.5 -47t50.5 -127q0 -97 -90 -155l140 -201h-179l-104 178h-12v-178h-160zM623 948h61q19 0 30 11t11 30q0 41 -41 41h-61v-82z" />
<glyph unicode="&#xaf;" horiz-adv-x="720" d="M199 1171l39 181h598l-39 -181h-598z" />
<glyph unicode="&#xb0;" horiz-adv-x="825" d="M49 1079q0 157 100.5 256t264.5 99q161 0 261.5 -99t100.5 -256t-100.5 -255.5t-261.5 -98.5q-164 0 -264.5 98.5t-100.5 255.5zM293 1079q0 -52 32.5 -82t88.5 -30q55 0 86.5 29.5t31.5 82.5q0 51 -31.5 81t-86.5 30q-56 0 -88.5 -30t-32.5 -81z" />
<glyph unicode="&#xb1;" horiz-adv-x="1404" d="M-4 -4l59 280h1190l-59 -280h-1190zM154 748l61 284h457l78 375h280l-78 -375h457l-63 -284h-457l-78 -377h-281l80 377h-456z" />
<glyph unicode="&#xb4;" horiz-adv-x="706" d="M180 1118l287 246h362l-387 -246h-262z" />
<glyph unicode="&#xb5;" horiz-adv-x="1191" d="M-63 -266l268 1265h323l-118 -561q-16 -79 11.5 -116t88.5 -37q91 0 158 51t86 135l110 528h324l-211 -999h-328l29 70q-113 -93 -229 -93q-75 0 -130 3l-81 -246h-301z" />
<glyph unicode="&#xb6;" horiz-adv-x="1236" d="M184 1051q24 112 103 196t185.5 125t225.5 41h224l-361 -1700h-209l207 910q-88 0 -165 30t-131.5 83.5t-77 136t-1.5 178.5zM741 -287l361 1700h209l-361 -1700h-209z" />
<glyph unicode="&#xb7;" horiz-adv-x="520" d="M139 795q15 69 67 111t124 42q81 0 127 -62t26 -157q-12 -58 -61.5 -98.5t-110.5 -40.5q-94 0 -142.5 60t-29.5 145z" />
<glyph unicode="&#xb8;" horiz-adv-x="616" d="M-119 -332l170 45q6 -63 84 -63q40 0 63 18t25 45q2 28 -21.5 54t-66.5 36l-151 37l129 160h258l-107 -106l4 -11q59 -14 102.5 -68t24.5 -143q-14 -61 -58 -101.5t-94.5 -55.5t-107.5 -15q-101 0 -169.5 48.5t-84.5 119.5z" />
<glyph unicode="&#xba;" horiz-adv-x="835" d="M42.5 913.5q-14.5 72.5 4.5 169.5q35 170 152.5 259.5t277.5 89.5q176 0 264 -106t47 -286q-27 -116 -92.5 -195t-150 -114t-185.5 -35q-82 0 -147.5 24t-110.5 72.5t-59.5 121zM287 1069q-17 -75 4 -123.5t94 -48.5q68 0 107 40.5t57 119.5q43 174 -96 174 q-132 0 -166 -162z" />
<glyph unicode="&#xbb;" horiz-adv-x="1202" d="M-8 115l53 284l195 109l-140 115l52 286l432 -401zM551 115l55 284l195 109l-142 115l54 286l430 -401z" />
<glyph unicode="&#xbf;" horiz-adv-x="972" d="M-43 -136.5q-21 81.5 4 187.5q21 79 63.5 134t90 86.5t94.5 62.5t86 83.5t55 129.5l4 16h297l-12 -49q-16 -79 -44 -140t-60 -97t-67.5 -63t-69 -45.5t-62.5 -36.5t-50.5 -43.5t-29.5 -59.5q-26 -115 90 -115q48 0 85 18t57 47.5t31 55.5t16 55l294 -33 q-14 -67 -39 -127.5t-66.5 -119t-95 -101t-129.5 -68.5t-165 -26q-87 0 -164.5 28.5t-134.5 83.5t-78 136.5zM354 688l76 361h348l-78 -361h-346z" />
<glyph unicode="&#xc0;" horiz-adv-x="1497" d="M-125 0l805 1413h504l202 -1413h-407l-31 311h-477l-164 -311h-432zM616 1774h347l118 -246h-241zM635 621h283l-44 432h-10z" />
<glyph unicode="&#xc1;" horiz-adv-x="1497" d="M-125 0l805 1413h504l202 -1413h-407l-31 311h-477l-164 -311h-432zM635 621h283l-44 432h-10zM831 1528l226 246h362l-325 -246h-263z" />
<glyph unicode="&#xc2;" horiz-adv-x="1497" d="M-125 0l805 1413h504l202 -1413h-407l-31 311h-477l-164 -311h-432zM600 1513l295 261h223l185 -261h-265l-47 117l-108 -117h-283zM635 621h283l-44 432h-10z" />
<glyph unicode="&#xc3;" horiz-adv-x="1497" d="M-125 0l805 1413h504l202 -1413h-407l-31 311h-477l-164 -311h-432zM561 1501q15 70 38 121.5t48 81t57.5 46.5t60.5 22.5t62 5.5q60 0 106.5 -16t69.5 -34.5t52 -34.5t57 -16q88 0 94 113l199 -33q-30 -146 -93 -208t-167 -62q-56 0 -102.5 17t-71.5 38t-52.5 38 t-50.5 17q-35 0 -63 -30.5t-33 -98.5zM635 621h283l-44 432h-10z" />
<glyph unicode="&#xc4;" horiz-adv-x="1497" d="M-125 0l805 1413h504l202 -1413h-407l-31 311h-477l-164 -311h-432zM621 1520l53 254h256l-53 -254h-256zM635 621h283l-44 432h-10zM1042 1520l54 254h256l-54 -254h-256z" />
<glyph unicode="&#xc5;" horiz-adv-x="1497" d="M-125 0l787 1380q-60 102 -33 242q26 123 130.5 207t229.5 84q157 0 247 -113t56 -272q-20 -95 -98 -180l192 -1348h-407l-31 311h-477l-164 -311h-432zM635 621h283l-44 432h-10zM809 1597q-17 -75 23 -127.5t112 -52.5q58 0 107 39t63 96q15 74 -25.5 125.5 t-115.5 51.5q-56 0 -104 -38.5t-60 -93.5z" />
<glyph unicode="&#xc6;" horiz-adv-x="2048" d="M-125 0l901 1413h1376l-73 -346h-649l-39 -186h557l-72 -346h-559l-41 -195h649l-72 -340h-1013l59 287h-436l-176 -287h-412zM649 588h314l116 551h-90z" />
<glyph unicode="&#xc7;" horiz-adv-x="1335" d="M63.5 547q3.5 93 24.5 192q22 103 59 197.5t100.5 187.5t145 160.5t199.5 109.5t256 42q247 0 379.5 -114t163.5 -345l-387 -107q16 232 -170 232q-133 0 -235 -111t-144 -311q-37 -175 4.5 -271t140.5 -96q106 0 194.5 71t147.5 202l340 -176q-111 -204 -255 -305.5 t-339 -120.5l-90 -90l4 -11q59 -14 102.5 -68t24.5 -143q-14 -61 -58 -101.5t-94.5 -55.5t-107.5 -15q-101 0 -169.5 48.5t-84.5 119.5l170 45q6 -63 84 -63q40 0 63 18t25 45q2 28 -21.5 54t-66.5 36l-152 37l125 154q-106 22 -183 76.5t-119 127t-61 164.5t-15.5 185z" />
<glyph unicode="&#xc8;" horiz-adv-x="1189" d="M14 0l299 1413h979l-67 -326h-590l-47 -217h547l-68 -323h-549l-47 -219h590l-68 -328h-979zM485 1774h346l119 -246h-241z" />
<glyph unicode="&#xc9;" horiz-adv-x="1189" d="M14 0l299 1413h979l-67 -326h-590l-47 -217h547l-68 -323h-549l-47 -219h590l-68 -328h-979zM700 1528l226 246h362l-325 -246h-263z" />
<glyph unicode="&#xca;" horiz-adv-x="1189" d="M14 0l299 1413h979l-67 -326h-590l-47 -217h547l-68 -323h-549l-47 -219h590l-68 -328h-979zM469 1513l295 261h223l184 -261h-264l-47 117l-108 -117h-283z" />
<glyph unicode="&#xcb;" horiz-adv-x="1189" d="M14 0l299 1413h979l-67 -326h-590l-47 -217h547l-68 -323h-549l-47 -219h590l-68 -328h-979zM489 1520l54 254h256l-54 -254h-256zM911 1520l54 254h256l-54 -254h-256z" />
<glyph unicode="&#xcc;" horiz-adv-x="636" d="M14 0l299 1413h389l-299 -1413h-389zM182 1774h346l119 -246h-241z" />
<glyph unicode="&#xcd;" horiz-adv-x="636" d="M14 0l299 1413h389l-299 -1413h-389zM397 1528l226 246h362l-326 -246h-262z" />
<glyph unicode="&#xce;" horiz-adv-x="636" d="M14 0l299 1413h389l-299 -1413h-389zM166 1513l295 261h223l184 -261h-264l-47 117l-108 -117h-283z" />
<glyph unicode="&#xcf;" horiz-adv-x="636" d="M14 0l299 1413h389l-299 -1413h-389zM186 1520l54 254h256l-54 -254h-256zM608 1520l54 254h256l-54 -254h-256z" />
<glyph unicode="&#xd0;" horiz-adv-x="1409" d="M2 594l51 237h135l123 582h459q378 0 538.5 -197t88.5 -538q-70 -331 -296.5 -504.5t-604.5 -173.5h-484l125 594h-135zM473 340h43q206 0 339 105t173 298q35 162 -39 245t-268 83h-92l-51 -240h227l-51 -237h-228z" />
<glyph unicode="&#xd1;" horiz-adv-x="1581" d="M14 0l299 1413h375l383 -821h14l172 821h390l-299 -1413h-379l-377 807h-17l-172 -807h-389zM600 1501q15 70 38 121.5t48 81t57.5 46.5t60.5 22.5t62 5.5q60 0 106.5 -16t69.5 -34.5t52 -34.5t57 -16q88 0 94 113l199 -33q-30 -146 -93 -208t-167 -62q-56 0 -102.5 17 t-71.5 38t-52.5 38t-50.5 17q-35 0 -63 -30.5t-33 -98.5z" />
<glyph unicode="&#xd2;" horiz-adv-x="1486" d="M88 739q69 321 288 508t525 187q221 0 368.5 -93.5t202.5 -266t7 -400.5q-69 -321 -291.5 -507.5t-536.5 -186.5q-329 0 -482.5 207t-80.5 552zM496 674q-35 -169 8.5 -266t157.5 -97q143 0 256 117.5t153 310.5q37 169 -11 266t-171 97q-136 0 -244.5 -117.5 t-148.5 -310.5zM606 1774h346l119 -246h-242z" />
<glyph unicode="&#xd3;" horiz-adv-x="1486" d="M88 739q69 321 288 508t525 187q221 0 368.5 -93.5t202.5 -266t7 -400.5q-69 -321 -291.5 -507.5t-536.5 -186.5q-329 0 -482.5 207t-80.5 552zM496 674q-35 -169 8.5 -266t157.5 -97q143 0 256 117.5t153 310.5q37 169 -11 266t-171 97q-136 0 -244.5 -117.5 t-148.5 -310.5zM821 1528l226 246h362l-326 -246h-262z" />
<glyph unicode="&#xd4;" horiz-adv-x="1486" d="M88 739q69 321 288 508t525 187q221 0 368.5 -93.5t202.5 -266t7 -400.5q-69 -321 -291.5 -507.5t-536.5 -186.5q-329 0 -482.5 207t-80.5 552zM496 674q-35 -169 8.5 -266t157.5 -97q143 0 256 117.5t153 310.5q37 169 -11 266t-171 97q-136 0 -244.5 -117.5 t-148.5 -310.5zM590 1513l295 261h223l184 -261h-264l-47 117l-109 -117h-282z" />
<glyph unicode="&#xd5;" horiz-adv-x="1486" d="M88 739q69 321 288 508t525 187q221 0 368.5 -93.5t202.5 -266t7 -400.5q-69 -321 -291.5 -507.5t-536.5 -186.5q-329 0 -482.5 207t-80.5 552zM496 674q-35 -169 8.5 -266t157.5 -97q143 0 256 117.5t153 310.5q37 169 -11 266t-171 97q-136 0 -244.5 -117.5 t-148.5 -310.5zM551 1501q15 70 38 121.5t48 81t57.5 46.5t60.5 22.5t62 5.5q60 0 106.5 -16t69.5 -34.5t52 -34.5t57 -16q88 0 94 113l199 -33q-30 -146 -93 -208t-167 -62q-56 0 -102.5 17t-71.5 38t-52.5 38t-50.5 17q-35 0 -63 -30.5t-33 -98.5z" />
<glyph unicode="&#xd6;" horiz-adv-x="1486" d="M88 739q69 321 288 508t525 187q221 0 368.5 -93.5t202.5 -266t7 -400.5q-69 -321 -291.5 -507.5t-536.5 -186.5q-329 0 -482.5 207t-80.5 552zM496 674q-35 -169 8.5 -266t157.5 -97q143 0 256 117.5t153 310.5q37 169 -11 266t-171 97q-136 0 -244.5 -117.5 t-148.5 -310.5zM610 1520l54 254h256l-54 -254h-256zM1032 1520l53 254h256l-53 -254h-256z" />
<glyph unicode="&#xd7;" horiz-adv-x="1226" d="M92 252l320 264l-211 266l231 199l211 -266l318 266l169 -201l-319 -266l213 -266l-231 -199l-211 266l-320 -266z" />
<glyph unicode="&#xd8;" horiz-adv-x="1486" d="M-35 168l146 121q-78 186 -23 450q69 321 288 508t525 187q265 0 426 -136l121 101l139 -156l-137 -113q85 -189 29 -456q-69 -321 -291.5 -507.5t-536.5 -186.5q-266 0 -420 139l-125 -105zM483 598l545 453q-51 51 -139 51q-136 0 -244.5 -117.5t-148.5 -310.5 q-11 -49 -13 -76zM530 367q47 -56 132 -56q143 0 256 117.5t153 310.5q5 28 14 86z" />
<glyph unicode="&#xd9;" horiz-adv-x="1466" d="M135 573l178 840h389l-188 -885q-22 -100 14 -147t129 -47q117 0 198.5 62t105.5 165l180 852h389l-184 -862q-58 -283 -229.5 -427t-475.5 -144q-316 0 -440.5 157t-65.5 436zM604 1774h346l119 -246h-242z" />
<glyph unicode="&#xda;" horiz-adv-x="1466" d="M135 573l178 840h389l-188 -885q-22 -100 14 -147t129 -47q117 0 198.5 62t105.5 165l180 852h389l-184 -862q-58 -283 -229.5 -427t-475.5 -144q-316 0 -440.5 157t-65.5 436zM819 1528l225 246h363l-326 -246h-262z" />
<glyph unicode="&#xdb;" horiz-adv-x="1466" d="M135 573l178 840h389l-188 -885q-22 -100 14 -147t129 -47q117 0 198.5 62t105.5 165l180 852h389l-184 -862q-58 -283 -229.5 -427t-475.5 -144q-316 0 -440.5 157t-65.5 436zM588 1513l295 261h223l184 -261h-264l-47 117l-109 -117h-282z" />
<glyph unicode="&#xdc;" horiz-adv-x="1466" d="M135 573l178 840h389l-188 -885q-22 -100 14 -147t129 -47q117 0 198.5 62t105.5 165l180 852h389l-184 -862q-58 -283 -229.5 -427t-475.5 -144q-316 0 -440.5 157t-65.5 436zM608 1520l54 254h256l-54 -254h-256zM1030 1520l53 254h256l-53 -254h-256z" />
<glyph unicode="&#xdd;" horiz-adv-x="1439" d="M184 1413h426l191 -508l397 508h447l-723 -864l-121 -549h-383l121 549zM803 1528l225 246h363l-326 -246h-262z" />
<glyph unicode="&#xde;" horiz-adv-x="1271" d="M14 0l299 1413h328l-23 -113h218q83 0 158.5 -18t143.5 -57t110.5 -99.5t59.5 -146t-8 -197.5q-93 -434 -579 -434h-305l-74 -348h-328zM483 664l277 4q98 -3 157.5 46t65.5 136q3 63 -35 94.5t-133 34.5l-264 -2z" />
<glyph unicode="&#xdf;" horiz-adv-x="1208" d="M-8 0l209 981q23 111 79.5 199.5t134 143t166.5 82.5t183 28q68 0 134 -14t127.5 -46t104.5 -77t61 -114t1 -151q-13 -61 -45.5 -108t-70 -74t-74 -48t-63.5 -43t-32 -46q-4 -19 21.5 -43t62.5 -50.5t72.5 -71.5t51 -106.5t-2.5 -156.5q-33 -151 -156.5 -227t-304.5 -76 q-76 0 -162 16l41 332q74 -23 125 -23q57 0 91 25t42 69q6 29 -10 55.5t-45 46t-61.5 46.5t-59.5 55t-39 74t0 102q10 48 40.5 85t67.5 60.5t74 45.5t66.5 52.5t38.5 68.5q6 32 -15.5 50.5t-72.5 18.5q-91 0 -150.5 -60.5t-78.5 -150.5l-201 -950h-350z" />
<glyph unicode="&#xe0;" horiz-adv-x="1112" d="M-6 295q10 44 28 81t38.5 66t53 54t61.5 43t74.5 35.5t81 29t92 25t96.5 22t106 22t110 23.5q10 49 -18 80t-99 31q-92 0 -160.5 -32.5t-138.5 -102.5l-196 196q98 100 217 150.5t283 50.5q114 0 200.5 -23.5t148.5 -75t81.5 -132.5t-2.5 -195l-136 -643h-327l18 88 q-145 -111 -315 -111q-163 0 -245 86t-52 232zM313 1413h346l119 -246h-241zM387 322q-8 -38 15 -62t77 -24q84 0 178 90l27 131q-59 -12 -91.5 -19t-75.5 -19.5t-65.5 -24.5t-41 -30.5t-23.5 -41.5z" />
<glyph unicode="&#xe1;" horiz-adv-x="1112" d="M-6 295q10 44 28 81t38.5 66t53 54t61.5 43t74.5 35.5t81 29t92 25t96.5 22t106 22t110 23.5q10 49 -18 80t-99 31q-92 0 -160.5 -32.5t-138.5 -102.5l-196 196q98 100 217 150.5t283 50.5q114 0 200.5 -23.5t148.5 -75t81.5 -132.5t-2.5 -195l-136 -643h-327l18 88 q-145 -111 -315 -111q-163 0 -245 86t-52 232zM387 322q-8 -38 15 -62t77 -24q84 0 178 90l27 131q-59 -12 -91.5 -19t-75.5 -19.5t-65.5 -24.5t-41 -30.5t-23.5 -41.5zM528 1167l226 246h362l-325 -246h-263z" />
<glyph unicode="&#xe2;" horiz-adv-x="1112" d="M-6 295q10 44 28 81t38.5 66t53 54t61.5 43t74.5 35.5t81 29t92 25t96.5 22t106 22t110 23.5q10 49 -18 80t-99 31q-92 0 -160.5 -32.5t-138.5 -102.5l-196 196q98 100 217 150.5t283 50.5q114 0 200.5 -23.5t148.5 -75t81.5 -132.5t-2.5 -195l-136 -643h-327l18 88 q-145 -111 -315 -111q-163 0 -245 86t-52 232zM297 1153l295 260h223l184 -260h-264l-47 117l-108 -117h-283zM387 322q-8 -38 15 -62t77 -24q84 0 178 90l27 131q-59 -12 -91.5 -19t-75.5 -19.5t-65.5 -24.5t-41 -30.5t-23.5 -41.5z" />
<glyph unicode="&#xe3;" horiz-adv-x="1112" d="M-6 295q10 44 28 81t38.5 66t53 54t61.5 43t74.5 35.5t81 29t92 25t96.5 22t106 22t110 23.5q10 49 -18 80t-99 31q-92 0 -160.5 -32.5t-138.5 -102.5l-196 196q98 100 217 150.5t283 50.5q114 0 200.5 -23.5t148.5 -75t81.5 -132.5t-2.5 -195l-136 -643h-327l18 88 q-145 -111 -315 -111q-163 0 -245 86t-52 232zM258 1141q15 70 38 121.5t48 80.5t57.5 46.5t60.5 22.5t62 5q60 0 106.5 -15.5t69.5 -34.5t52 -34.5t57 -15.5q88 0 94 113l199 -33q-30 -146 -93.5 -208.5t-166.5 -62.5q-56 0 -102.5 17.5t-71.5 38t-52.5 38t-50.5 17.5 q-35 0 -63 -30.5t-33 -98.5zM387 322q-8 -38 15 -62t77 -24q84 0 178 90l27 131q-59 -12 -91.5 -19t-75.5 -19.5t-65.5 -24.5t-41 -30.5t-23.5 -41.5z" />
<glyph unicode="&#xe4;" horiz-adv-x="1112" d="M-6 295q10 44 28 81t38.5 66t53 54t61.5 43t74.5 35.5t81 29t92 25t96.5 22t106 22t110 23.5q10 49 -18 80t-99 31q-92 0 -160.5 -32.5t-138.5 -102.5l-196 196q98 100 217 150.5t283 50.5q114 0 200.5 -23.5t148.5 -75t81.5 -132.5t-2.5 -195l-136 -643h-327l18 88 q-145 -111 -315 -111q-163 0 -245 86t-52 232zM317 1159l54 254h256l-54 -254h-256zM387 322q-8 -38 15 -62t77 -24q84 0 178 90l27 131q-59 -12 -91.5 -19t-75.5 -19.5t-65.5 -24.5t-41 -30.5t-23.5 -41.5zM739 1159l54 254h256l-54 -254h-256z" />
<glyph unicode="&#xe5;" horiz-adv-x="1112" d="M-6 295q10 44 28 81t38.5 66t53 54t61.5 43t74.5 35.5t81 29t92 25t96.5 22t106 22t110 23.5q10 49 -18 80t-99 31q-92 0 -160.5 -32.5t-138.5 -102.5l-196 196q98 100 217 150.5t283 50.5q114 0 200.5 -23.5t148.5 -75t81.5 -132.5t-2.5 -195l-136 -643h-327l18 88 q-145 -111 -315 -111q-163 0 -245 86t-52 232zM387 322q-8 -38 15 -62t77 -24q84 0 178 90l27 131q-59 -12 -91.5 -19t-75.5 -19.5t-65.5 -24.5t-41 -30.5t-23.5 -41.5zM471 1382q19 84 90 141.5t156 57.5q108 0 169 -77t38 -185q-19 -85 -90.5 -144t-157.5 -59 q-107 0 -167.5 78.5t-37.5 187.5zM594 1366q-11 -51 16 -87t76 -36q40 0 74 27t43 65q11 51 -17 86t-79 35q-38 0 -71 -26t-42 -64z" />
<glyph unicode="&#xe6;" horiz-adv-x="1785" d="M10 299q33 161 240 272q172 59 479 113q8 21 35 72q-23 30 -98 30q-183 0 -349 -149l-206 207q98 101 238.5 162t301.5 61q210 0 334 -84q145 86 318 86q101 0 189 -31.5t152 -91t90 -156.5t1 -217q-14 -84 -39 -143l-645 14l-4 -22q-7 -82 32.5 -119t112.5 -37 q143 0 246 119l223 -176q-129 -126 -244 -177.5t-258 -51.5q-133 0 -241.5 43t-172.5 129q-186 -175 -428 -175q-170 0 -254.5 86t-52.5 236zM398 267.5q-1 -7.5 12 -13.5t41 -6q62 0 123 23t100 67q-5 46 -2 113q-133 -38 -185 -84q-33 -6 -57.5 -29.5t-30.5 -54.5 q0 -8 -1 -15.5zM1102 666h301q13 60 -11.5 96.5t-93.5 36.5q-75 0 -125.5 -38t-70.5 -95z" />
<glyph unicode="&#xe7;" horiz-adv-x="1138" d="M50 357.5q-11 94.5 13 197.5q23 109 75 201.5t129.5 163t185.5 110t235 39.5q110 0 193 -25t137 -73.5t86 -111.5t49 -146l-319 -86q-3 82 -36 116.5t-102 34.5q-99 0 -174 -78.5t-104 -214.5q-23 -104 6.5 -159.5t107.5 -55.5q84 0 150 49.5t104 133.5l277 -138 q-78 -146 -177.5 -225t-236.5 -102l-94 -94l4 -11q59 -14 102.5 -68t24.5 -143q-14 -61 -58 -101.5t-94.5 -55.5t-107.5 -15q-101 0 -169.5 48.5t-84.5 119.5l170 45q6 -63 84 -63q40 0 63 18t25 45q2 28 -21.5 54t-66.5 36l-152 37l119 148q-105 19 -180.5 72t-113.5 128 t-49 169.5z" />
<glyph unicode="&#xe8;" horiz-adv-x="1157" d="M55 290q-24 107 4 257q36 166 131.5 286.5t220.5 178t265 57.5q101 0 189 -31.5t152 -91t90 -156.5t1 -217q-14 -84 -39 -143l-647 14q-14 -94 26 -136t117 -42q143 0 246 119l223 -176q-129 -126 -244 -177.5t-258 -51.5q-117 0 -213 32.5t-168 101.5t-96 176zM369 1413 h346l119 -246h-242zM475 666h301q13 60 -11 96.5t-93 36.5q-75 0 -126 -38t-71 -95z" />
<glyph unicode="&#xe9;" horiz-adv-x="1157" d="M55 290q-24 107 4 257q36 166 131.5 286.5t220.5 178t265 57.5q101 0 189 -31.5t152 -91t90 -156.5t1 -217q-14 -84 -39 -143l-647 14q-14 -94 26 -136t117 -42q143 0 246 119l223 -176q-129 -126 -244 -177.5t-258 -51.5q-117 0 -213 32.5t-168 101.5t-96 176zM475 666 h301q13 60 -11 96.5t-93 36.5q-75 0 -126 -38t-71 -95zM584 1167l225 246h362l-325 -246h-262z" />
<glyph unicode="&#xea;" horiz-adv-x="1157" d="M55 290q-24 107 4 257q36 166 131.5 286.5t220.5 178t265 57.5q101 0 189 -31.5t152 -91t90 -156.5t1 -217q-14 -84 -39 -143l-647 14q-14 -94 26 -136t117 -42q143 0 246 119l223 -176q-129 -126 -244 -177.5t-258 -51.5q-117 0 -213 32.5t-168 101.5t-96 176zM352 1153 l295 260h223l185 -260h-264l-48 117l-108 -117h-283zM475 666h301q13 60 -11 96.5t-93 36.5q-75 0 -126 -38t-71 -95z" />
<glyph unicode="&#xeb;" horiz-adv-x="1157" d="M55 290q-24 107 4 257q36 166 131.5 286.5t220.5 178t265 57.5q101 0 189 -31.5t152 -91t90 -156.5t1 -217q-14 -84 -39 -143l-647 14q-14 -94 26 -136t117 -42q143 0 246 119l223 -176q-129 -126 -244 -177.5t-258 -51.5q-117 0 -213 32.5t-168 101.5t-96 176zM373 1159 l53 254h256l-53 -254h-256zM475 666h301q13 60 -11 96.5t-93 36.5q-75 0 -126 -38t-71 -95zM795 1159l53 254h256l-53 -254h-256z" />
<glyph unicode="&#xec;" horiz-adv-x="608" d="M4 0l221 1049h379l-221 -1049h-379zM96 1413h346l119 -246h-242z" />
<glyph unicode="&#xed;" horiz-adv-x="608" d="M4 0l221 1049h379l-221 -1049h-379zM311 1167l226 246h362l-326 -246h-262z" />
<glyph unicode="&#xee;" horiz-adv-x="608" d="M4 0l221 1049h379l-221 -1049h-379zM80 1153l295 260h223l184 -260h-264l-47 117l-109 -117h-282z" />
<glyph unicode="&#xef;" horiz-adv-x="608" d="M4 0l221 1049h379l-221 -1049h-379zM100 1159l54 254h256l-54 -254h-256zM522 1159l53 254h256l-53 -254h-256z" />
<glyph unicode="&#xf0;" horiz-adv-x="1185" d="M40.5 405.5q-3.5 70.5 14.5 143.5q28 132 106.5 244.5t203.5 184t270 71.5q155 0 254 -95q-55 151 -201 242l-98 -115l-119 80l84 96q-52 19 -109 29l162 223q62 -24 119 -55l123 139l115 -73l-121 -142q199 -149 273 -376t13 -519q-21 -98 -75 -187.5t-132.5 -159 t-187 -111t-229.5 -41.5q-91 0 -167 21.5t-129 60t-92 91.5t-56.5 115.5t-21 133zM426 483q-20 -94 2.5 -147t83.5 -53q81 0 147.5 73.5t92.5 192.5q20 94 -1 147.5t-81 53.5q-83 0 -150.5 -74t-93.5 -193z" />
<glyph unicode="&#xf1;" horiz-adv-x="1290" d="M-6 0l221 1049h373l-29 -119l8 12q58 58 145.5 92.5t192.5 34.5q173 0 262 -109.5t54 -275.5l-146 -684h-375l136 645q26 125 -101 125q-85 0 -152 -48t-81 -116l-129 -606h-379zM387 1145q15 70 38 121.5t48 80.5t57.5 46.5t60.5 22.5t62 5q60 0 106.5 -15.5t69.5 -34.5 t52 -34.5t57 -15.5q88 0 94 113l199 -33q-30 -146 -93.5 -208.5t-166.5 -62.5q-56 0 -102.5 17.5t-71.5 38t-52.5 38t-50.5 17.5q-35 0 -63 -30.5t-33 -98.5z" />
<glyph unicode="&#xf2;" horiz-adv-x="1226" d="M56.5 301q-22.5 108 6.5 252q27 127 88.5 226.5t146.5 162.5t187.5 95t216.5 32q261 0 390 -157.5t69 -424.5q-29 -129 -91.5 -228.5t-147 -160t-184 -91t-210.5 -30.5q-121 0 -218.5 36t-164 108t-89 180zM406 1413h346l118 -246h-241zM407.5 454q-2.5 -36 4 -69.5 t24 -57t50 -37.5t79.5 -14q100 0 158 60.5t84 175.5q61 258 -143 258q-193 0 -244 -238q-10 -42 -12.5 -78z" />
<glyph unicode="&#xf3;" horiz-adv-x="1226" d="M56.5 301q-22.5 108 6.5 252q27 127 88.5 226.5t146.5 162.5t187.5 95t216.5 32q261 0 390 -157.5t69 -424.5q-29 -129 -91.5 -228.5t-147 -160t-184 -91t-210.5 -30.5q-121 0 -218.5 36t-164 108t-89 180zM407.5 454q-2.5 -36 4 -69.5t24 -57t50 -37.5t79.5 -14 q100 0 158 60.5t84 175.5q61 258 -143 258q-193 0 -244 -238q-10 -42 -12.5 -78zM621 1167l225 246h362l-325 -246h-262z" />
<glyph unicode="&#xf4;" horiz-adv-x="1226" d="M56.5 301q-22.5 108 6.5 252q27 127 88.5 226.5t146.5 162.5t187.5 95t216.5 32q261 0 390 -157.5t69 -424.5q-29 -129 -91.5 -228.5t-147 -160t-184 -91t-210.5 -30.5q-121 0 -218.5 36t-164 108t-89 180zM389 1153l295 260h223l185 -260h-265l-47 117l-108 -117h-283z M407.5 454q-2.5 -36 4 -69.5t24 -57t50 -37.5t79.5 -14q100 0 158 60.5t84 175.5q61 258 -143 258q-193 0 -244 -238q-10 -42 -12.5 -78z" />
<glyph unicode="&#xf5;" horiz-adv-x="1226" d="M56.5 301q-22.5 108 6.5 252q27 127 88.5 226.5t146.5 162.5t187.5 95t216.5 32q261 0 390 -157.5t69 -424.5q-29 -129 -91.5 -228.5t-147 -160t-184 -91t-210.5 -30.5q-121 0 -218.5 36t-164 108t-89 180zM350 1141q15 70 38 121.5t48 80.5t57.5 46.5t60.5 22.5t62 5 q60 0 106.5 -15.5t69.5 -34.5t52 -34.5t57 -15.5q88 0 94 113l199 -33q-30 -146 -93.5 -208.5t-166.5 -62.5q-56 0 -102.5 17.5t-71.5 38t-52.5 38t-50.5 17.5q-35 0 -63 -30.5t-33 -98.5zM407.5 454q-2.5 -36 4 -69.5t24 -57t50 -37.5t79.5 -14q100 0 158 60.5t84 175.5 q61 258 -143 258q-193 0 -244 -238q-10 -42 -12.5 -78z" />
<glyph unicode="&#xf6;" horiz-adv-x="1226" d="M56.5 301q-22.5 108 6.5 252q27 127 88.5 226.5t146.5 162.5t187.5 95t216.5 32q261 0 390 -157.5t69 -424.5q-29 -129 -91.5 -228.5t-147 -160t-184 -91t-210.5 -30.5q-121 0 -218.5 36t-164 108t-89 180zM407.5 454q-2.5 -36 4 -69.5t24 -57t50 -37.5t79.5 -14 q100 0 158 60.5t84 175.5q61 258 -143 258q-193 0 -244 -238q-10 -42 -12.5 -78zM410 1159l53 254h256l-53 -254h-256zM831 1159l54 254h256l-54 -254h-256z" />
<glyph unicode="&#xf7;" horiz-adv-x="1230" d="M113 375l61 287h938l-59 -287h-940zM358 0l54 248h290l-51 -248h-293zM524 786l54 248h290l-51 -248h-293z" />
<glyph unicode="&#xf8;" horiz-adv-x="1226" d="M41 143l55 47q-80 148 -33 363q27 127 88.5 226.5t146.5 162.5t187.5 95t216.5 32q207 0 334 -100l54 45l98 -109l-60 -49q82 -146 33 -369q-29 -129 -91.5 -228.5t-147 -160t-184 -91t-210.5 -30.5q-210 0 -335 101l-54 -43zM408 449l358 296q-39 25 -102 25 q-193 0 -244 -238q-9 -44 -12 -83zM463 303q42 -27 102 -27q100 0 158 60.5t84 175.5q10 41 14 88z" />
<glyph unicode="&#xf9;" horiz-adv-x="1310" d="M92 367l144 682h376l-129 -611q-12 -62 17 -97.5t94 -35.5q90 0 150 50.5t75 117.5l121 576h377l-221 -1049h-371l31 119l-17 -15q-116 -135 -336 -135q-123 0 -203.5 57.5t-106 146.5t-1.5 194zM455 1413h346l119 -246h-242z" />
<glyph unicode="&#xfa;" horiz-adv-x="1310" d="M92 367l144 682h376l-129 -611q-12 -62 17 -97.5t94 -35.5q90 0 150 50.5t75 117.5l121 576h377l-221 -1049h-371l31 119l-17 -15q-116 -135 -336 -135q-123 0 -203.5 57.5t-106 146.5t-1.5 194zM670 1167l225 246h362l-325 -246h-262z" />
<glyph unicode="&#xfb;" horiz-adv-x="1310" d="M92 367l144 682h376l-129 -611q-12 -62 17 -97.5t94 -35.5q90 0 150 50.5t75 117.5l121 576h377l-221 -1049h-371l31 119l-17 -15q-116 -135 -336 -135q-123 0 -203.5 57.5t-106 146.5t-1.5 194zM438 1153l295 260h223l185 -260h-264l-48 117l-108 -117h-283z" />
<glyph unicode="&#xfc;" horiz-adv-x="1310" d="M92 367l144 682h376l-129 -611q-12 -62 17 -97.5t94 -35.5q90 0 150 50.5t75 117.5l121 576h377l-221 -1049h-371l31 119l-17 -15q-116 -135 -336 -135q-123 0 -203.5 57.5t-106 146.5t-1.5 194zM459 1159l53 254h256l-53 -254h-256zM881 1159l53 254h256l-53 -254h-256z " />
<glyph unicode="&#xfd;" horiz-adv-x="1126" d="M-76 -365l33 291q111 0 191 35t116 90l-176 998h395l45 -619h21l319 619h412l-645 -1065q-46 -76 -83.5 -126.5t-84 -92t-94 -65t-115.5 -39t-146 -21t-188 -5.5zM578 1167l225 246h362l-325 -246h-262z" />
<glyph unicode="&#xfe;" horiz-adv-x="1261" d="M-84 -365l377 1778h385l-103 -504q125 111 279 111q136 0 225.5 -72t116.5 -194.5t-4 -286.5q-46 -219 -181.5 -353t-318.5 -134q-44 0 -79 5.5t-73 19.5t-69.5 43.5t-54.5 72.5l-23 -12l-100 -474h-377zM475 483q-12 -95 24 -144.5t111 -49.5q99 0 166.5 64.5 t85.5 193.5q12 113 -23 162t-112 49q-96 0 -166.5 -75t-85.5 -200z" />
<glyph unicode="&#xff;" horiz-adv-x="1126" d="M-76 -365l33 291q111 0 191 35t116 90l-176 998h395l45 -619h21l319 619h412l-645 -1065q-46 -76 -83.5 -126.5t-84 -92t-94 -65t-115.5 -39t-146 -21t-188 -5.5zM367 1159l53 254h256l-53 -254h-256zM788 1159l54 254h256l-54 -254h-256z" />
<glyph unicode="&#x100;" horiz-adv-x="1497" d="M-125 0l805 1413h504l202 -1413h-407l-31 311h-477l-164 -311h-432zM635 621h283l-44 432h-10zM678 1581l39 180h598l-39 -180h-598z" />
<glyph unicode="&#x101;" horiz-adv-x="1112" d="M-6 295q10 44 28 81t38.5 66t53 54t61.5 43t74.5 35.5t81 29t92 25t96.5 22t106 22t110 23.5q10 49 -18 80t-99 31q-92 0 -160.5 -32.5t-138.5 -102.5l-196 196q98 100 217 150.5t283 50.5q114 0 200.5 -23.5t148.5 -75t81.5 -132.5t-2.5 -195l-136 -643h-327l18 88 q-145 -111 -315 -111q-163 0 -245 86t-52 232zM375 1221l39 180h598l-39 -180h-598zM387 322q-8 -38 15 -62t77 -24q84 0 178 90l27 131q-59 -12 -91.5 -19t-75.5 -19.5t-65.5 -24.5t-41 -30.5t-23.5 -41.5z" />
<glyph unicode="&#x102;" horiz-adv-x="1497" d="M-125 0l805 1413h504l202 -1413h-407l-31 311h-477l-164 -311h-432zM635 621h283l-44 432h-10zM690 1821h211q-7 -82 18.5 -111t69.5 -29q57 0 89 34t44 106h221q-48 -320 -360 -320q-154 0 -232 82t-61 238z" />
<glyph unicode="&#x103;" horiz-adv-x="1112" d="M-6 295q10 44 28 81t38.5 66t53 54t61.5 43t74.5 35.5t81 29t92 25t96.5 22t106 22t110 23.5q10 49 -18 80t-99 31q-92 0 -160.5 -32.5t-138.5 -102.5l-196 196q98 100 217 150.5t283 50.5q114 0 200.5 -23.5t148.5 -75t81.5 -132.5t-2.5 -195l-136 -643h-327l18 88 q-145 -111 -315 -111q-163 0 -245 86t-52 232zM387 322q-8 -38 15 -62t77 -24q84 0 178 90l27 131q-59 -12 -91.5 -19t-75.5 -19.5t-65.5 -24.5t-41 -30.5t-23.5 -41.5zM387 1460h211q-7 -82 18.5 -110.5t69.5 -28.5q57 0 89 33.5t44 105.5h221q-48 -319 -360 -319 q-154 0 -232 82t-61 237z" />
<glyph unicode="&#x104;" horiz-adv-x="1497" d="M-125 0l805 1413h504l202 -1413h7q-115 -44 -181.5 -90.5t-101.5 -106.5q-18 -29 -8.5 -52t37.5 -23t52 18.5t38 46.5l160 -153q-106 -119 -250 -119q-49 0 -92.5 13t-81.5 41t-53.5 80.5t-0.5 123.5q26 126 172 221h-104l-31 311h-477l-164 -311h-432zM635 621h283 l-44 432h-10z" />
<glyph unicode="&#x105;" horiz-adv-x="1112" d="M-6 295q10 44 28 81t38.5 66t53 54t61.5 43t74.5 35.5t81 29t92 25t96.5 22t106 22t110 23.5q10 49 -18 80t-99 31q-92 0 -160.5 -32.5t-138.5 -102.5l-196 196q98 100 217 150.5t283 50.5q114 0 200.5 -23.5t148.5 -75t81.5 -132.5t-2.5 -195l-136 -643 q-115 -44 -180.5 -90.5t-101.5 -106.5q-18 -29 -8.5 -52t37.5 -23t52 18.5t38 46.5l159 -153q-106 -119 -249 -119q-49 0 -92.5 13t-81.5 41t-53.5 80.5t-0.5 123.5q26 126 172 221h-18l18 88q-145 -111 -315 -111q-163 0 -245 86t-52 232zM387 322q-8 -38 15 -62t77 -24 q84 0 178 90l27 131q-59 -12 -91.5 -19t-75.5 -19.5t-65.5 -24.5t-41 -30.5t-23.5 -41.5z" />
<glyph unicode="&#x106;" horiz-adv-x="1335" d="M62.5 522.5q1.5 104.5 25.5 216.5q22 103 59 197.5t100.5 187.5t145 160.5t199.5 109.5t256 42q247 0 379.5 -114t163.5 -345l-387 -107q16 232 -170 232q-133 0 -235 -111t-144 -311q-37 -175 4.5 -271t140.5 -96q106 0 194.5 71t147.5 202l340 -176 q-123 -226 -288.5 -328t-397.5 -102q-145 0 -252 45t-166 118.5t-88 174t-27.5 205zM764 1528l225 246h363l-326 -246h-262z" />
<glyph unicode="&#x107;" horiz-adv-x="1138" d="M48.5 374.5q-2.5 85.5 14.5 180.5q23 109 75 201.5t129.5 163t185.5 110t235 39.5q110 0 193 -25t137 -73.5t86 -111.5t49 -146l-319 -86q-3 82 -36 116.5t-102 34.5q-99 0 -174 -78.5t-104 -214.5q-23 -104 6.5 -159.5t107.5 -55.5q84 0 150 49.5t104 133.5l277 -138 q-95 -178 -224.5 -258t-320.5 -80q-112 0 -200 30t-143.5 83t-89.5 126t-36.5 158.5zM594 1167l225 246h363l-326 -246h-262z" />
<glyph unicode="&#x10a;" horiz-adv-x="1335" d="M62.5 522.5q1.5 104.5 25.5 216.5q22 103 59 197.5t100.5 187.5t145 160.5t199.5 109.5t256 42q247 0 379.5 -114t163.5 -345l-387 -107q16 232 -170 232q-133 0 -235 -111t-144 -311q-37 -175 4.5 -271t140.5 -96q106 0 194.5 71t147.5 202l340 -176 q-123 -226 -288.5 -328t-397.5 -102q-145 0 -252 45t-166 118.5t-88 174t-27.5 205zM764 1520l53 254h256l-53 -254h-256z" />
<glyph unicode="&#x10b;" horiz-adv-x="1138" d="M48.5 374.5q-2.5 85.5 14.5 180.5q23 109 75 201.5t129.5 163t185.5 110t235 39.5q110 0 193 -25t137 -73.5t86 -111.5t49 -146l-319 -86q-3 82 -36 116.5t-102 34.5q-99 0 -174 -78.5t-104 -214.5q-23 -104 6.5 -159.5t107.5 -55.5q84 0 150 49.5t104 133.5l277 -138 q-95 -178 -224.5 -258t-320.5 -80q-112 0 -200 30t-143.5 83t-89.5 126t-36.5 158.5zM594 1159l53 254h256l-53 -254h-256z" />
<glyph unicode="&#x10c;" horiz-adv-x="1335" d="M62.5 522.5q1.5 104.5 25.5 216.5q22 103 59 197.5t100.5 187.5t145 160.5t199.5 109.5t256 42q247 0 379.5 -114t163.5 -345l-387 -107q16 232 -170 232q-133 0 -235 -111t-144 -311q-37 -175 4.5 -271t140.5 -96q106 0 194.5 71t147.5 202l340 -176 q-123 -226 -288.5 -328t-397.5 -102q-145 0 -252 45t-166 118.5t-88 174t-27.5 205zM600 1774h258l51 -111l107 111h287l-293 -252h-226z" />
<glyph unicode="&#x10d;" horiz-adv-x="1138" d="M48.5 374.5q-2.5 85.5 14.5 180.5q23 109 75 201.5t129.5 163t185.5 110t235 39.5q110 0 193 -25t137 -73.5t86 -111.5t49 -146l-319 -86q-3 82 -36 116.5t-102 34.5q-99 0 -174 -78.5t-104 -214.5q-23 -104 6.5 -159.5t107.5 -55.5q84 0 150 49.5t104 133.5l277 -138 q-95 -178 -224.5 -258t-320.5 -80q-112 0 -200 30t-143.5 83t-89.5 126t-36.5 158.5zM430 1413h258l51 -110l107 110h287l-293 -252h-226z" />
<glyph unicode="&#x10e;" horiz-adv-x="1409" d="M14 0l299 1413h459q378 0 538.5 -197t88.5 -538q-70 -331 -296.5 -504.5t-604.5 -173.5h-484zM467 1774h258l51 -111l107 111h286l-292 -252h-226zM475 340h43q206 0 339 105t173 298q35 162 -39 245t-268 83h-92z" />
<glyph unicode="&#x10f;" horiz-adv-x="1536" d="M63 557q49 235 192.5 373.5t332.5 138.5q115 0 200.5 -55.5t106.5 -134.5l106 534h377l-299 -1413h-366l24 127q-49 -70 -134.5 -110t-180.5 -40q-214 0 -314 159t-45 421zM432 496q-24 -115 7 -161t114 -46q93 0 168 72.5t104 199.5q20 94 -12 145.5t-104 51.5 q-102 0 -175.5 -65.5t-101.5 -196.5zM1343 774l213 311h-131l68 330h379l-66 -330l-293 -311h-170z" />
<glyph unicode="&#x110;" horiz-adv-x="1409" d="M2 594l51 237h135l123 582h459q378 0 538.5 -197t88.5 -538q-70 -331 -296.5 -504.5t-604.5 -173.5h-484l125 594h-135zM473 340h43q206 0 339 105t173 298q35 162 -39 245t-268 83h-92l-51 -240h227l-51 -237h-228z" />
<glyph unicode="&#x111;" horiz-adv-x="1296" d="M63 557q49 235 192.5 373.5t332.5 138.5q115 0 200.5 -55.5t106.5 -134.5l53 264h-180l33 162h178l22 108h377l-22 -108h121l-35 -162h-121l-242 -1143h-366l24 127q-49 -70 -134.5 -110t-180.5 -40q-214 0 -314 159t-45 421zM432 496q-24 -115 7 -161t114 -46 q93 0 168 72.5t104 199.5q20 94 -12 145.5t-104 51.5q-102 0 -175.5 -65.5t-101.5 -196.5z" />
<glyph unicode="&#x112;" horiz-adv-x="1189" d="M14 0l299 1413h979l-67 -326h-590l-47 -217h547l-68 -323h-549l-47 -219h590l-68 -328h-979zM547 1581l39 180h598l-39 -180h-598z" />
<glyph unicode="&#x113;" horiz-adv-x="1157" d="M55 290q-24 107 4 257q36 166 131.5 286.5t220.5 178t265 57.5q101 0 189 -31.5t152 -91t90 -156.5t1 -217q-14 -84 -39 -143l-647 14q-14 -94 26 -136t117 -42q143 0 246 119l223 -176q-129 -126 -244 -177.5t-258 -51.5q-117 0 -213 32.5t-168 101.5t-96 176zM430 1221 l39 180h598l-39 -180h-598zM475 666h301q13 60 -11 96.5t-93 36.5q-75 0 -126 -38t-71 -95z" />
<glyph unicode="&#x116;" horiz-adv-x="1189" d="M14 0l299 1413h979l-67 -326h-590l-47 -217h547l-68 -323h-549l-47 -219h590l-68 -328h-979zM700 1520l54 254h256l-54 -254h-256z" />
<glyph unicode="&#x117;" horiz-adv-x="1157" d="M55 290q-24 107 4 257q36 166 131.5 286.5t220.5 178t265 57.5q101 0 189 -31.5t152 -91t90 -156.5t1 -217q-14 -84 -39 -143l-647 14q-14 -94 26 -136t117 -42q143 0 246 119l223 -176q-129 -126 -244 -177.5t-258 -51.5q-117 0 -213 32.5t-168 101.5t-96 176zM475 666 h301q13 60 -11 96.5t-93 36.5q-75 0 -126 -38t-71 -95zM584 1159l53 254h256l-53 -254h-256z" />
<glyph unicode="&#x118;" horiz-adv-x="1189" d="M14 0l299 1413h979l-67 -326h-590l-47 -217h547l-68 -323h-549l-47 -219h590l-68 -328q-115 -44 -180.5 -90.5t-101.5 -106.5q-18 -29 -9 -52t37 -23t52 18.5t38 46.5l160 -153q-106 -119 -250 -119q-49 0 -92.5 13t-81.5 41t-53 80.5t0 123.5q26 126 172 221h-670z" />
<glyph unicode="&#x119;" horiz-adv-x="1157" d="M49 318.5q-15 97.5 10 228.5q36 166 131.5 286.5t220.5 178t265 57.5q101 0 189 -31.5t152 -91t90 -156.5t1 -217q-14 -84 -39 -143l-647 14q-14 -94 26 -136t117 -42q143 0 246 119l223 -176q-178 -176 -352 -215q-96 -53 -143 -131q-18 -29 -9 -52.5t37 -23.5t51.5 19 t38.5 47l160 -154q-106 -119 -250 -119q-49 0 -92.5 13t-81.5 41t-53 80.5t0 123.5q16 80 82 150q-97 15 -172.5 55t-130.5 109t-70 166.5zM475 666h301q13 60 -11 96.5t-93 36.5q-75 0 -126 -38t-71 -95z" />
<glyph unicode="&#x11a;" horiz-adv-x="1189" d="M14 0l299 1413h979l-67 -326h-590l-47 -217h547l-68 -323h-549l-47 -219h590l-68 -328h-979zM537 1774h258l51 -111l106 111h287l-293 -252h-225z" />
<glyph unicode="&#x11b;" horiz-adv-x="1157" d="M55 290q-24 107 4 257q36 166 131.5 286.5t220.5 178t265 57.5q101 0 189 -31.5t152 -91t90 -156.5t1 -217q-14 -84 -39 -143l-647 14q-14 -94 26 -136t117 -42q143 0 246 119l223 -176q-129 -126 -244 -177.5t-258 -51.5q-117 0 -213 32.5t-168 101.5t-96 176zM420 1413 h258l51 -110l107 110h286l-293 -252h-225zM475 666h301q13 60 -11 96.5t-93 36.5q-75 0 -126 -38t-71 -95z" />
<glyph unicode="&#x11e;" horiz-adv-x="1482" d="M67.5 547.5q0.5 97.5 22.5 200.5q31 145 102.5 270t176 218.5t248 146.5t307.5 53q126 0 229.5 -36t168.5 -97t102 -135t42 -154l-338 -70q-23 174 -225 174q-90 0 -166 -35.5t-129.5 -98t-89.5 -140.5t-55 -170q-19 -75 -16.5 -141t23.5 -115t74 -77t134 -28 q138 0 234 64.5t122 144.5h-299l66 307h643l-176 -829h-305l16 119q-144 -139 -401 -139q-100 0 -184 28t-144.5 79t-102 122t-61 156t-19 182.5zM672 1821h211q-7 -82 18.5 -111t69.5 -29q57 0 89 34t44 106h221q-48 -320 -360 -320q-154 0 -232 82t-61 238z" />
<glyph unicode="&#x11f;" horiz-adv-x="1290" d="M-55 -201l184 224q120 -138 301 -138q97 0 180.5 52.5t106.5 154.5l20 72q-31 -50 -112 -85.5t-183 -35.5q-98 0 -177.5 34t-134 102.5t-71 171t10.5 239.5q26 123 81.5 217.5t127.5 150t151 83.5t160 28q122 0 205 -54.5t98 -119.5l-2 14l29 140h376l-206 -969 q-17 -83 -49 -151.5t-71 -116t-88 -83.5t-96.5 -57.5t-101.5 -34.5t-98 -17.5t-90 -4.5q-179 0 -311 39t-240 145zM438 518q-9 -88 26.5 -137t110.5 -49q97 0 168 69t86 179q10 88 -27 138t-112 50q-97 0 -167 -69t-85 -181zM489 1460h211q-7 -82 18.5 -110.5t69.5 -28.5 q57 0 89.5 33.5t44.5 105.5h221q-48 -319 -361 -319q-154 0 -232 82t-61 237z" />
<glyph unicode="&#x120;" horiz-adv-x="1482" d="M67.5 547.5q0.5 97.5 22.5 200.5q31 145 102.5 270t176 218.5t248 146.5t307.5 53q126 0 229.5 -36t168.5 -97t102 -135t42 -154l-338 -70q-23 174 -225 174q-90 0 -166 -35.5t-129.5 -98t-89.5 -140.5t-55 -170q-19 -75 -16.5 -141t23.5 -115t74 -77t134 -28 q138 0 234 64.5t122 144.5h-299l66 307h643l-176 -829h-305l16 119q-144 -139 -401 -139q-100 0 -184 28t-144.5 79t-102 122t-61 156t-19 182.5zM813 1520l53 254h256l-53 -254h-256z" />
<glyph unicode="&#x121;" horiz-adv-x="1290" d="M-55 -201l184 224q120 -138 301 -138q97 0 180.5 52.5t106.5 154.5l20 72q-31 -50 -112 -85.5t-183 -35.5q-98 0 -177.5 34t-134 102.5t-71 171t10.5 239.5q26 123 81.5 217.5t127.5 150t151 83.5t160 28q122 0 205 -54.5t98 -119.5l-2 14l29 140h376l-206 -969 q-17 -83 -49 -151.5t-71 -116t-88 -83.5t-96.5 -57.5t-101.5 -34.5t-98 -17.5t-90 -4.5q-179 0 -311 39t-240 145zM438 518q-9 -88 26.5 -137t110.5 -49q97 0 168 69t86 179q10 88 -27 138t-112 50q-97 0 -167 -69t-85 -181zM631 1159l53 254h256l-53 -254h-256z" />
<glyph unicode="&#x122;" horiz-adv-x="1482" d="M67.5 547.5q0.5 97.5 22.5 200.5q31 145 102.5 270t176 218.5t248 146.5t307.5 53q126 0 229.5 -36t168.5 -97t102 -135t42 -154l-338 -70q-23 174 -225 174q-90 0 -166 -35.5t-129.5 -98t-89.5 -140.5t-55 -170q-19 -75 -16.5 -141t23.5 -115t74 -77t134 -28 q138 0 234 64.5t122 144.5h-299l66 307h643l-176 -829h-305l16 119q-144 -139 -401 -139q-100 0 -184 28t-144.5 79t-102 122t-61 156t-19 182.5zM174 -430l213 301h348l-350 -301h-211z" />
<glyph unicode="&#x123;" horiz-adv-x="1290" d="M-55 -201l184 224q120 -138 301 -138q97 0 180.5 52.5t106.5 154.5l20 72q-31 -50 -112 -85.5t-183 -35.5q-98 0 -177.5 34t-134 102.5t-71 171t10.5 239.5q26 123 81.5 217.5t127.5 150t151 83.5t160 28q122 0 205 -54.5t98 -119.5l-2 14l29 140h376l-206 -969 q-17 -83 -49 -151.5t-71 -116t-88 -83.5t-96.5 -57.5t-101.5 -34.5t-98 -17.5t-90 -4.5q-179 0 -311 39t-240 145zM416 1143l350 270h211l-213 -270h-348zM438 518q-9 -88 26.5 -137t110.5 -49q97 0 168 69t86 179q10 88 -27 138t-112 50q-97 0 -167 -69t-85 -181z" />
<glyph unicode="&#x126;" horiz-adv-x="1511" d="M14 0l215 1010h-104l45 209h104l41 194h390l-41 -194h483l41 194h389l-41 -194h100l-45 -209h-100l-215 -1010h-389l114 535h-485l-113 -535h-389zM590 881h483l29 129h-484z" />
<glyph unicode="&#x127;" horiz-adv-x="1290" d="M-6 0l244 1151h-107l33 162h108l21 100h379l-21 -100h189l-35 -162h-187l-40 -199q62 59 148.5 88t178.5 29q125 0 205.5 -54t107 -140.5t3.5 -190.5l-146 -684h-375l136 645q27 131 -91 131q-92 0 -160.5 -51.5t-82.5 -118.5l-129 -606h-379z" />
<glyph unicode="&#x128;" horiz-adv-x="636" d="M14 0l299 1413h389l-299 -1413h-389zM127 1501q15 70 38 121.5t48 81t57.5 46.5t60.5 22.5t62 5.5q60 0 106.5 -16t69.5 -34.5t52 -34.5t57 -16q88 0 94 113l199 -33q-30 -146 -93 -208t-167 -62q-56 0 -102.5 17t-71.5 38t-52.5 38t-50.5 17q-35 0 -63 -30.5t-33 -98.5z " />
<glyph unicode="&#x129;" horiz-adv-x="608" d="M4 0l221 1049h379l-221 -1049h-379zM41 1141q15 70 38 121.5t48 80.5t57.5 46.5t60.5 22.5t62 5q60 0 106.5 -15.5t69.5 -34.5t52 -34.5t57 -15.5q88 0 94 113l199 -33q-30 -146 -93.5 -208.5t-166.5 -62.5q-56 0 -102.5 17.5t-71.5 38t-52.5 38t-50.5 17.5 q-35 0 -63 -30.5t-33 -98.5z" />
<glyph unicode="&#x12a;" horiz-adv-x="636" d="M14 0l299 1413h389l-299 -1413h-389zM244 1581l39 180h598l-39 -180h-598z" />
<glyph unicode="&#x12b;" horiz-adv-x="608" d="M4 0l221 1049h379l-221 -1049h-379zM158 1221l39 180h598l-39 -180h-598z" />
<glyph unicode="&#x12e;" horiz-adv-x="636" d="M-78 -221q26 126 172 221h-80l299 1413h389l-299 -1413q-115 -44 -180.5 -90.5t-101.5 -106.5q-18 -29 -8.5 -52t37.5 -23t52 18.5t38 46.5l159 -153q-106 -119 -249 -119q-49 0 -92.5 13t-81.5 41t-53.5 80.5t-0.5 123.5z" />
<glyph unicode="&#x12f;" horiz-adv-x="591" d="M-98 -229q28 136 186 229h-94l221 1049h379l-221 -1049h-41l51 -8q-115 -44 -181.5 -90.5t-101.5 -106.5q-18 -29 -8.5 -52.5t37.5 -23.5t51.5 19t38.5 47l160 -154q-105 -118 -250 -118q-49 0 -92.5 13t-81.5 41t-53 80.5t0 123.5zM242 1163l51 250h381l-53 -250h-379z " />
<glyph unicode="&#x130;" horiz-adv-x="636" d="M14 0l299 1413h389l-299 -1413h-389zM397 1520l54 254h256l-54 -254h-256z" />
<glyph unicode="&#x131;" horiz-adv-x="608" d="M4 0l221 1049h379l-221 -1049h-379z" />
<glyph unicode="&#x136;" horiz-adv-x="1554" d="M14 0l301 1413h390l-136 -629l662 629h504l-686 -606l389 -807h-432l-240 559l-301 -266l-62 -293h-389zM242 -430l213 301h348l-350 -301h-211z" />
<glyph unicode="&#x137;" horiz-adv-x="1267" d="M-6 0l299 1413h379l-154 -721l422 357h463l-496 -406l277 -643h-402l-153 418l-203 -166l-53 -252h-379zM117 -430l213 301h348l-350 -301h-211z" />
<glyph unicode="&#x139;" horiz-adv-x="1128" d="M14 0l299 1413h389l-231 -1087h604l-67 -326h-994zM379 1532l225 246h363l-326 -246h-262z" />
<glyph unicode="&#x13a;" horiz-adv-x="608" d="M4 0l299 1413h379l-299 -1413h-379zM387 1532l225 246h363l-326 -246h-262z" />
<glyph unicode="&#x13b;" horiz-adv-x="1128" d="M14 0l299 1413h389l-231 -1087h604l-67 -326h-994zM143 -430l213 301h349l-351 -301h-211z" />
<glyph unicode="&#x13c;" horiz-adv-x="608" d="M-223 -430l213 301h348l-350 -301h-211zM4 0l299 1413h379l-299 -1413h-379z" />
<glyph unicode="&#x13d;" horiz-adv-x="1128" d="M14 0l299 1413h389l-231 -1087h604l-67 -326h-994zM768 768l215 315h-133l70 330h378l-65 -330l-295 -315h-170z" />
<glyph unicode="&#x13e;" horiz-adv-x="851" d="M4 0l299 1413h379l-299 -1413h-379zM633 768l215 315h-133l69 330h379l-65 -330l-295 -315h-170z" />
<glyph unicode="&#x141;" horiz-adv-x="1128" d="M-63 233l49 273l157 108l170 799h389l-104 -491l238 161l-58 -295l-243 -159l-64 -303h604l-67 -326h-994l70 332z" />
<glyph unicode="&#x142;" horiz-adv-x="608" d="M-111 289l56 289l213 145l145 690h379l-82 -389l246 168l-62 -315l-249 -164l-152 -713h-379l90 422z" />
<glyph unicode="&#x143;" horiz-adv-x="1581" d="M14 0l299 1413h375l383 -821h14l172 821h390l-299 -1413h-379l-377 807h-17l-172 -807h-389zM870 1528l226 246h362l-325 -246h-263z" />
<glyph unicode="&#x144;" horiz-adv-x="1290" d="M-6 0l221 1049h373l-29 -119l8 12q58 58 145.5 92.5t192.5 34.5q173 0 262 -109.5t54 -275.5l-146 -684h-375l136 645q26 125 -101 125q-85 0 -152 -48t-81 -116l-129 -606h-379zM657 1171l226 246h362l-325 -246h-263z" />
<glyph unicode="&#x145;" horiz-adv-x="1581" d="M14 0l299 1413h375l383 -821h14l172 821h390l-299 -1413h-379l-377 807h-17l-172 -807h-389zM260 -430l213 301h348l-350 -301h-211z" />
<glyph unicode="&#x146;" horiz-adv-x="1290" d="M-6 0l221 1049h373l-29 -119l8 12q58 58 145.5 92.5t192.5 34.5q173 0 262 -109.5t54 -275.5l-146 -684h-375l136 645q26 125 -101 125q-85 0 -152 -48t-81 -116l-129 -606h-379zM119 -430l213 301h348l-350 -301h-211z" />
<glyph unicode="&#x147;" horiz-adv-x="1581" d="M14 0l299 1413h375l383 -821h14l172 821h390l-299 -1413h-379l-377 807h-17l-172 -807h-389zM707 1774h258l51 -111l106 111h287l-293 -252h-225z" />
<glyph unicode="&#x148;" horiz-adv-x="1290" d="M-6 0l221 1049h373l-29 -119l8 12q58 58 145.5 92.5t192.5 34.5q173 0 262 -109.5t54 -275.5l-146 -684h-375l136 645q26 125 -101 125q-85 0 -152 -48t-81 -116l-129 -606h-379zM494 1417h258l51 -110l106 110h287l-293 -252h-225z" />
<glyph unicode="&#x14a;" horiz-adv-x="1581" d="M14 0l299 1413h375l383 -821h14l172 821h390l-299 -1413h-191l186 -16q-16 -71 -44.5 -121t-64.5 -79.5t-90.5 -46t-108.5 -21.5t-132 -5h-145l35 164h38q44 0 83.5 41.5t52.5 89.5l-375 801h-17l-172 -807h-389z" />
<glyph unicode="&#x14b;" horiz-adv-x="1320" d="M4 0l211 999h342l-39 -155l19 14q122 158 333 158q74 0 134.5 -19t99 -51.5t66.5 -76t37.5 -92t12 -100t-9.5 -99.5l-112 -529q-24 -105 -47 -150q-86 -173 -365 -187q-25 -1 -51 -1h-182l49 238h104q43 0 81.5 35t49.5 82l101 477q15 76 -15.5 117.5t-97.5 41.5 q-88 0 -161.5 -59.5t-88.5 -138.5l-106 -504h-365z" />
<glyph unicode="&#x14c;" horiz-adv-x="1486" d="M88 739q69 321 288 508t525 187q221 0 368.5 -93.5t202.5 -266t7 -400.5q-69 -321 -291.5 -507.5t-536.5 -186.5q-329 0 -482.5 207t-80.5 552zM496 674q-35 -169 8.5 -266t157.5 -97q143 0 256 117.5t153 310.5q37 169 -11 266t-171 97q-136 0 -244.5 -117.5 t-148.5 -310.5zM668 1581l39 180h598l-39 -180h-598z" />
<glyph unicode="&#x14d;" horiz-adv-x="1226" d="M56.5 301q-22.5 108 6.5 252q27 127 88.5 226.5t146.5 162.5t187.5 95t216.5 32q261 0 390 -157.5t69 -424.5q-29 -129 -91.5 -228.5t-147 -160t-184 -91t-210.5 -30.5q-121 0 -218.5 36t-164 108t-89 180zM407.5 454q-2.5 -36 4 -69.5t24 -57t50 -37.5t79.5 -14 q100 0 158 60.5t84 175.5q61 258 -143 258q-193 0 -244 -238q-10 -42 -12.5 -78zM467 1221l39 180h598l-39 -180h-598z" />
<glyph unicode="&#x150;" horiz-adv-x="1486" d="M88 739q69 321 288 508t525 187q221 0 368.5 -93.5t202.5 -266t7 -400.5q-69 -321 -291.5 -507.5t-536.5 -186.5q-329 0 -482.5 207t-80.5 552zM496 674q-35 -169 8.5 -266t157.5 -97q143 0 256 117.5t153 310.5q37 169 -11 266t-171 97q-136 0 -244.5 -117.5 t-148.5 -310.5zM596 1540l250 234h282l-270 -234h-262zM1001 1540l252 234h332l-328 -234h-256z" />
<glyph unicode="&#x151;" horiz-adv-x="1226" d="M56.5 301q-22.5 108 6.5 252q27 127 88.5 226.5t146.5 162.5t187.5 95t216.5 32q261 0 390 -157.5t69 -424.5q-29 -129 -91.5 -228.5t-147 -160t-184 -91t-210.5 -30.5q-121 0 -218.5 36t-164 108t-89 180zM395 1180l250 233h283l-271 -233h-262zM407.5 454 q-2.5 -36 4 -69.5t24 -57t50 -37.5t79.5 -14q100 0 158 60.5t84 175.5q61 258 -143 258q-193 0 -244 -238q-10 -42 -12.5 -78zM801 1180l252 233h331l-327 -233h-256z" />
<glyph unicode="&#x152;" horiz-adv-x="2197" d="M88 739q69 321 288 508t525 187q293 0 455 -162l26 141h891l-61 -326h-537l-43 -217h498l-62 -323h-499l-43 -219h536l-61 -328h-891l25 125q-208 -145 -484 -145q-329 0 -482.5 207t-80.5 552zM496 674q-35 -169 8.5 -266t157.5 -97q143 0 256 117.5t153 310.5 q37 169 -11 266t-171 97q-136 0 -244.5 -117.5t-148.5 -310.5z" />
<glyph unicode="&#x153;" horiz-adv-x="1925" d="M56.5 301q-22.5 108 6.5 252q27 127 88.5 226.5t146.5 162.5t187.5 95t216.5 32q232 0 363 -125q166 125 375 125q101 0 189 -31.5t152 -91t90 -156.5t1 -217q-14 -84 -39 -143l-647 14q-14 -94 26 -136t117 -42q143 0 246 119l223 -176q-129 -126 -244 -177.5 t-258 -51.5q-237 0 -368 122q-164 -125 -400 -125q-121 0 -218.5 36t-164 108t-89 180zM407.5 454q-2.5 -36 4 -69.5t24 -57t50 -37.5t79.5 -14q100 0 158 60.5t84 175.5q61 258 -143 258q-193 0 -244 -238q-10 -42 -12.5 -78zM1239 666h301q13 60 -11 96.5t-93 36.5 q-75 0 -126 -38t-71 -95z" />
<glyph unicode="&#x154;" horiz-adv-x="1409" d="M12 -2l301 1415h676q103 0 193 -32.5t153 -91t90 -147t5 -192.5q-27 -126 -102 -214t-206 -152l191 -586h-398l-141 539h-262l-117 -539h-383zM575 829l312 2q80 2 125.5 40.5t46.5 105.5q3 51 -28 83t-105 32h-295zM739 1528l226 246h362l-326 -246h-262z" />
<glyph unicode="&#x155;" horiz-adv-x="831" d="M-6 0l221 1049h344l-37 -179h10q61 100 136.5 147.5t140.5 47.5q69 0 117 -23l-68 -299q-78 -5 -135.5 -19.5t-111.5 -46.5t-90 -90.5t-54 -144.5l-94 -442h-379zM465 1167l225 246h363l-326 -246h-262z" />
<glyph unicode="&#x156;" horiz-adv-x="1409" d="M12 -2l301 1415h676q103 0 193 -32.5t153 -91t90 -147t5 -192.5q-27 -126 -102 -214t-206 -152l191 -586h-398l-141 539h-262l-117 -539h-383zM145 -430l213 301h349l-351 -301h-211zM575 829l312 2q80 2 125.5 40.5t46.5 105.5q3 51 -28 83t-105 32h-295z" />
<glyph unicode="&#x157;" horiz-adv-x="831" d="M-231 -430l213 301h348l-350 -301h-211zM-6 0l221 1049h344l-37 -179h10q61 100 136.5 147.5t140.5 47.5q69 0 117 -23l-68 -299q-78 -5 -135.5 -19.5t-111.5 -46.5t-90 -90.5t-54 -144.5l-94 -442h-379z" />
<glyph unicode="&#x158;" horiz-adv-x="1409" d="M12 -2l301 1415h676q103 0 193 -32.5t153 -91t90 -147t5 -192.5q-27 -126 -102 -214t-206 -152l191 -586h-398l-141 539h-262l-117 -539h-383zM575 829l312 2q80 2 125.5 40.5t46.5 105.5q3 51 -28 83t-105 32h-295zM575 1774h259l51 -111l106 111h287l-293 -252h-225z " />
<glyph unicode="&#x159;" horiz-adv-x="831" d="M-6 0l221 1049h344l-37 -179h10q61 100 136.5 147.5t140.5 47.5q69 0 117 -23l-68 -299q-78 -5 -135.5 -19.5t-111.5 -46.5t-90 -90.5t-54 -144.5l-94 -442h-379zM301 1413h258l51 -110l107 110h287l-293 -252h-226z" />
<glyph unicode="&#x15a;" horiz-adv-x="1218" d="M-8 334l297 194q51 -111 121 -165t151 -54q85 0 147 46.5t74 111.5q10 45 -24.5 68t-131.5 54q-34 11 -53 17q-38 9 -69 18.5t-66.5 23t-63.5 28.5t-56.5 35.5t-49 43.5t-37 53.5t-24 65.5t-7 78t10.5 92q40 191 197 290.5t380 99.5q151 0 270 -55t214 -175l-244 -211 q-93 142 -264 142q-69 0 -117 -28t-57 -75q-8 -28 19 -44.5t110 -46.5q20 -7 31 -11q41 -10 73.5 -20t72.5 -25t71 -31t64.5 -39.5t56.5 -49.5t42.5 -61t28.5 -75t8.5 -90t-12.5 -107q-45 -209 -208.5 -328.5t-393.5 -119.5q-197 0 -338 91t-223 259zM682 1528l225 246h363 l-326 -246h-262z" />
<glyph unicode="&#x15b;" horiz-adv-x="1054" d="M-33 129l172 225q95 -83 244 -110q82 -6 141 16.5t72 71.5q9 18 -6 27t-67 25q-37 11 -60 19q-33 7 -60.5 14t-58.5 18t-55.5 22.5t-49 28.5t-42 36t-31.5 44t-20 54.5t-5.5 66t9.5 77.5q65 305 485 305q147 0 243.5 -36.5t182.5 -98.5l-156 -217q-88 66 -209 96 q-165 21 -194 -59q-22 -26 26 -46q18 -7 68 -22q61 -17 92 -29q38 -9 69.5 -20t64 -27t56 -36.5t44.5 -48t29 -60.5t11 -75.5t-10 -92.5q-68 -320 -491 -320q-132 0 -261.5 37t-232.5 115zM530 1167l226 246h362l-325 -246h-263z" />
<glyph unicode="&#x15e;" horiz-adv-x="1218" d="M-8 334l297 194q51 -111 121 -165t151 -54q85 0 147 46.5t74 111.5q10 45 -24.5 68t-131.5 54q-34 11 -53 17q-38 9 -69 18.5t-66.5 23t-63.5 28.5t-56.5 35.5t-49 43.5t-37 53.5t-24 65.5t-7 78t10.5 92q40 191 197 290.5t380 99.5q151 0 270 -55t214 -175l-244 -211 q-93 142 -264 142q-69 0 -117 -28t-57 -75q-8 -28 19 -44.5t110 -46.5q20 -7 31 -11q41 -10 73.5 -20t72.5 -25t71 -31t64.5 -39.5t56.5 -49.5t42.5 -61t28.5 -75t8.5 -90t-12.5 -107q-42 -196 -190.5 -314t-358.5 -132l-88 -88l4 -11q59 -14 102.5 -68t24.5 -143 q-14 -61 -58 -101.5t-94.5 -55.5t-107.5 -15q-101 0 -169.5 48.5t-84.5 119.5l170 45q6 -63 84 -63q40 0 63 18t25 45q2 28 -21.5 54t-66.5 36l-151 37l129 160h14q-260 66 -389 330z" />
<glyph unicode="&#x15f;" horiz-adv-x="1054" d="M-33 129l172 225q95 -83 244 -110q82 -6 141 16.5t72 71.5q9 18 -6 27t-67 25q-37 11 -60 19q-33 7 -60.5 14t-58.5 18t-55.5 22.5t-49 28.5t-42 36t-31.5 44t-20 54.5t-5.5 66t9.5 77.5q65 305 485 305q147 0 243.5 -36.5t182.5 -98.5l-156 -217q-88 66 -209 96 q-165 21 -194 -59q-22 -26 26 -46q18 -7 68 -22q61 -17 92 -29q38 -9 69.5 -20t64 -27t56 -36.5t44.5 -48t29 -60.5t11 -75.5t-10 -92.5q-60 -278 -393 -315l-88 -88l4 -11q59 -14 102.5 -68t24.5 -143q-14 -61 -58 -101.5t-94.5 -55.5t-107.5 -15q-101 0 -169.5 48.5 t-84.5 119.5l170 45q6 -63 84 -63q40 0 63 18t25 45q2 28 -21.5 54t-66.5 36l-152 37l121 150q-197 29 -344 139z" />
<glyph unicode="&#x160;" horiz-adv-x="1218" d="M-8 334l297 194q51 -111 121 -165t151 -54q85 0 147 46.5t74 111.5q10 45 -24.5 68t-131.5 54q-34 11 -53 17q-38 9 -69 18.5t-66.5 23t-63.5 28.5t-56.5 35.5t-49 43.5t-37 53.5t-24 65.5t-7 78t10.5 92q40 191 197 290.5t380 99.5q151 0 270 -55t214 -175l-244 -211 q-93 142 -264 142q-69 0 -117 -28t-57 -75q-8 -28 19 -44.5t110 -46.5q20 -7 31 -11q41 -10 73.5 -20t72.5 -25t71 -31t64.5 -39.5t56.5 -49.5t42.5 -61t28.5 -75t8.5 -90t-12.5 -107q-45 -209 -208.5 -328.5t-393.5 -119.5q-197 0 -338 91t-223 259zM518 1774h258l51 -111 l107 111h287l-293 -252h-226z" />
<glyph unicode="&#x161;" horiz-adv-x="1054" d="M-33 129l172 225q95 -83 244 -110q82 -6 141 16.5t72 71.5q9 18 -6 27t-67 25q-37 11 -60 19q-33 7 -60.5 14t-58.5 18t-55.5 22.5t-49 28.5t-42 36t-31.5 44t-20 54.5t-5.5 66t9.5 77.5q65 305 485 305q147 0 243.5 -36.5t182.5 -98.5l-156 -217q-88 66 -209 96 q-165 21 -194 -59q-22 -26 26 -46q18 -7 68 -22q61 -17 92 -29q38 -9 69.5 -20t64 -27t56 -36.5t44.5 -48t29 -60.5t11 -75.5t-10 -92.5q-68 -320 -491 -320q-132 0 -261.5 37t-232.5 115zM367 1413h258l51 -110l106 110h287l-293 -252h-225z" />
<glyph unicode="&#x162;" horiz-adv-x="1198" d="M119 -332l170 45q6 -63 84 -63q40 0 63 18t25 45q2 28 -21.5 54t-66.5 36l-152 37l129 160h-57l231 1087h-393l68 326h1177l-67 -326h-398l-229 -1087h-74l-106 -106l4 -11q59 -14 102.5 -68t24.5 -143q-14 -61 -58 -101.5t-94.5 -55.5t-107.5 -15q-101 0 -169.5 48.5 t-84.5 119.5z" />
<glyph unicode="&#x163;" horiz-adv-x="753" d="M78 840l43 209h139l78 364h377l-78 -364h194l-43 -209h-196l-107 -502q-6 -34 -1 -40.5t34 -6.5h154l-62 -291h-41l-106 -106l4 -11q59 -14 102.5 -68t24.5 -143q-14 -61 -58 -101.5t-94.5 -55.5t-107.5 -15q-101 0 -169.5 48.5t-84.5 119.5l170 45q6 -63 84 -63 q40 0 63 18t25 45q2 28 -21.5 54t-66.5 36l-152 37l129 160h-24q-106 0 -161 79t-30 195l119 566h-137z" />
<glyph unicode="&#x164;" horiz-adv-x="1198" d="M131 1087l68 326h1177l-67 -326h-398l-229 -1087h-389l231 1087h-393zM512 1774h258l51 -111l107 111h286l-292 -252h-226z" />
<glyph unicode="&#x165;" horiz-adv-x="970" d="M78 840l43 209h139l78 364h377l-78 -364h194l-43 -209h-196l-107 -502q-6 -34 -1 -40.5t34 -6.5h154l-62 -291h-323q-106 0 -161 79t-30 195l119 566h-137zM729 1100l215 315h-133l70 330h379l-66 -330l-295 -315h-170z" />
<glyph unicode="&#x166;" horiz-adv-x="1198" d="M131 1087l68 326h1177l-67 -326h-398l-63 -301h137l-35 -161h-137l-131 -625h-389l133 625h-150l33 161h152l63 301h-393z" />
<glyph unicode="&#x167;" horiz-adv-x="753" d="M2 442l33 162h131l49 236h-137l43 209h139l78 364h377l-78 -364h194l-43 -209h-196l-49 -236h164l-35 -162h-164l-23 -104q-6 -34 -1 -40.5t34 -6.5h154l-62 -291h-323q-106 0 -161 79t-30 195l35 168h-129z" />
<glyph unicode="&#x168;" horiz-adv-x="1466" d="M135 573l178 840h389l-188 -885q-22 -100 14 -147t129 -47q117 0 198.5 62t105.5 165l180 852h389l-184 -862q-58 -283 -229.5 -427t-475.5 -144q-316 0 -440.5 157t-65.5 436zM549 1501q15 70 38 121.5t48 81t57.5 46.5t60.5 22.5t62 5.5q60 0 106.5 -16t69.5 -34.5 t52 -34.5t57 -16q88 0 94 113l199 -33q-30 -146 -93 -208t-167 -62q-56 0 -102.5 17t-71.5 38t-52.5 38t-50.5 17q-35 0 -63 -30.5t-33 -98.5z" />
<glyph unicode="&#x169;" horiz-adv-x="1310" d="M92 367l144 682h376l-129 -611q-12 -62 17 -97.5t94 -35.5q90 0 150 50.5t75 117.5l121 576h377l-221 -1049h-371l31 119l-17 -15q-116 -135 -336 -135q-123 0 -203.5 57.5t-106 146.5t-1.5 194zM399 1141q15 70 38 121.5t48 80.5t58 46.5t61 22.5t62 5q60 0 106 -15.5 t69 -34.5t52 -34.5t57 -15.5q88 0 94 113l199 -33q-30 -146 -93.5 -208.5t-166.5 -62.5q-56 0 -102.5 17.5t-71 38t-52 38t-50.5 17.5q-35 0 -63.5 -30.5t-33.5 -98.5z" />
<glyph unicode="&#x16a;" horiz-adv-x="1466" d="M135 573l178 840h389l-188 -885q-22 -100 14 -147t129 -47q117 0 198.5 62t105.5 165l180 852h389l-184 -862q-58 -283 -229.5 -427t-475.5 -144q-316 0 -440.5 157t-65.5 436zM666 1581l39 180h598l-39 -180h-598z" />
<glyph unicode="&#x16b;" horiz-adv-x="1310" d="M92 367l144 682h376l-129 -611q-12 -62 17 -97.5t94 -35.5q90 0 150 50.5t75 117.5l121 576h377l-221 -1049h-371l31 119l-17 -15q-116 -135 -336 -135q-123 0 -203.5 57.5t-106 146.5t-1.5 194zM516 1221l39 180h598l-39 -180h-598z" />
<glyph unicode="&#x16e;" horiz-adv-x="1466" d="M135 573l178 840h389l-188 -885q-22 -100 14 -147t129 -47q117 0 198.5 62t105.5 165l180 852h389l-184 -862q-58 -283 -229.5 -427t-475.5 -144q-316 0 -440.5 157t-65.5 436zM762 1743q19 84 90 141.5t156 57.5q108 0 168.5 -77.5t37.5 -185.5q-19 -85 -90 -143.5 t-157 -58.5q-107 0 -167.5 78.5t-37.5 187.5zM885 1726q-11 -51 16 -86.5t76 -35.5q40 0 74 27t43 65q10 51 -18 86t-79 35q-38 0 -70.5 -26.5t-41.5 -64.5z" />
<glyph unicode="&#x16f;" horiz-adv-x="1310" d="M92 367l144 682h376l-129 -611q-12 -62 17 -97.5t94 -35.5q90 0 150 50.5t75 117.5l121 576h377l-221 -1049h-371l31 119l-17 -15q-116 -135 -336 -135q-123 0 -203.5 57.5t-106 146.5t-1.5 194zM612 1382q19 84 90 141.5t156 57.5q108 0 169 -77t38 -185 q-19 -85 -90.5 -144t-157.5 -59q-107 0 -167.5 78.5t-37.5 187.5zM735 1366q-11 -51 16 -87t76 -36q40 0 74 27t43 65q11 51 -17 86t-79 35q-38 0 -71 -26t-42 -64z" />
<glyph unicode="&#x170;" horiz-adv-x="1466" d="M135 573l178 840h389l-188 -885q-22 -100 14 -147t129 -47q117 0 198.5 62t105.5 165l180 852h389l-184 -862q-58 -283 -229.5 -427t-475.5 -144q-316 0 -440.5 157t-65.5 436zM594 1540l250 234h282l-270 -234h-262zM999 1540l252 234h332l-328 -234h-256z" />
<glyph unicode="&#x171;" horiz-adv-x="1310" d="M92 367l144 682h376l-129 -611q-12 -62 17 -97.5t94 -35.5q90 0 150 50.5t75 117.5l121 576h377l-221 -1049h-371l31 119l-17 -15q-116 -135 -336 -135q-123 0 -203.5 57.5t-106 146.5t-1.5 194zM444 1180l250 233h283l-270 -233h-263zM850 1180l252 233h332l-328 -233 h-256z" />
<glyph unicode="&#x172;" horiz-adv-x="1466" d="M120.5 329.5q-16.5 109.5 14.5 243.5l178 840h389l-188 -885q-22 -100 14 -147t129 -47q117 0 198.5 62t105.5 165l180 852h389l-184 -862q-45 -222 -159 -358.5t-306 -186.5q-49 -36 -82 -90q-18 -29 -9 -52.5t37 -23.5t52.5 19t38.5 47l159 -154q-106 -119 -250 -119 q-49 0 -92.5 13t-81.5 41t-53 80.5t0 123.5q8 43 35 89q-159 1 -270.5 43.5t-169.5 119.5t-74.5 186.5z" />
<glyph unicode="&#x173;" horiz-adv-x="1310" d="M92 367l144 682h376l-129 -611q-12 -62 17 -97.5t94 -35.5q90 0 150 50.5t75 117.5l121 576h377l-221 -1047l8 -2q-115 -44 -181.5 -90.5t-101.5 -106.5q-18 -29 -8.5 -52t37.5 -23t52 18.5t38 46.5l160 -153q-106 -119 -250 -119q-49 0 -92.5 13t-81.5 41t-53 80.5 t0 123.5q26 126 172 221h-70l31 119l-17 -15q-116 -135 -336 -135q-123 0 -203.5 57.5t-106 146.5t-1.5 194z" />
<glyph unicode="&#x174;" horiz-adv-x="2031" d="M166 0l33 1413h397l-59 -1096h16l438 1096h424l-26 -1096h14l405 1096h410l-571 -1413h-568l29 958l-373 -958h-569zM864 1518l295 260h223l185 -260h-264l-48 116l-108 -116h-283z" />
<glyph unicode="&#x175;" horiz-adv-x="1796" d="M100 1049h394l2 -725l338 725h342l26 -727l318 727h405l-522 -1049h-483l-15 563l-252 -571h-481zM676 1153l295 260h223l184 -260h-264l-47 117l-109 -117h-282z" />
<glyph unicode="&#x176;" horiz-adv-x="1439" d="M184 1413h426l191 -508l397 508h447l-723 -864l-121 -549h-383l121 549zM571 1513l295 261h224l184 -261h-264l-47 117l-109 -117h-283z" />
<glyph unicode="&#x177;" horiz-adv-x="1126" d="M-76 -365l33 291q111 0 191 35t116 90l-176 998h395l45 -619h21l319 619h412l-645 -1065q-46 -76 -83.5 -126.5t-84 -92t-94 -65t-115.5 -39t-146 -21t-188 -5.5zM346 1153l295 260h223l185 -260h-265l-47 117l-108 -117h-283z" />
<glyph unicode="&#x178;" horiz-adv-x="1439" d="M184 1413h426l191 -508l397 508h447l-723 -864l-121 -549h-383l121 549zM592 1520l53 254h256l-53 -254h-256zM1014 1520l53 254h256l-53 -254h-256z" />
<glyph unicode="&#x179;" horiz-adv-x="1269" d="M-76 0l47 244l850 843h-620l67 326h1155l-51 -264l-809 -823h629l-68 -326h-1200zM702 1528l226 246h362l-325 -246h-263z" />
<glyph unicode="&#x17a;" horiz-adv-x="1081" d="M-43 0l49 260l584 500h-475l59 289h946l-51 -273l-545 -485h437l-62 -291h-942zM541 1167l225 246h362l-325 -246h-262z" />
<glyph unicode="&#x17b;" horiz-adv-x="1269" d="M-76 0l47 244l850 843h-620l67 326h1155l-51 -264l-809 -823h629l-68 -326h-1200zM702 1520l54 254h256l-54 -254h-256z" />
<glyph unicode="&#x17c;" horiz-adv-x="1081" d="M-43 0l49 260l584 500h-475l59 289h946l-51 -273l-545 -485h437l-62 -291h-942zM541 1159l53 254h256l-53 -254h-256z" />
<glyph unicode="&#x17d;" horiz-adv-x="1269" d="M-76 0l47 244l850 843h-620l67 326h1155l-51 -264l-809 -823h629l-68 -326h-1200zM539 1774h258l51 -111l106 111h287l-293 -252h-225z" />
<glyph unicode="&#x17e;" horiz-adv-x="1081" d="M-43 0l49 260l584 500h-475l59 289h946l-51 -273l-545 -485h437l-62 -291h-942zM377 1413h258l51 -110l107 110h286l-293 -252h-225z" />
<glyph unicode="&#x192;" horiz-adv-x="997" d="M-100 -455l34 301q107 0 164 36t74 118l178 840h-162l45 209h164l21 88q27 132 120.5 204t254.5 72h245l-55 -260h-121q-31 0 -54 -24.5t-30 -53.5l-6 -26h189l-46 -209h-186l-178 -840q-26 -121 -85.5 -210t-145.5 -142t-190 -78t-230 -25z" />
<glyph unicode="&#x1cd;" horiz-adv-x="1497" d="M-125 0l805 1413h504l202 -1413h-407l-31 311h-477l-164 -311h-432zM635 621h283l-44 432h-10zM668 1774h258l51 -111l106 111h287l-293 -252h-225z" />
<glyph unicode="&#x1ce;" horiz-adv-x="1112" d="M-6 295q10 44 28 81t38.5 66t53 54t61.5 43t74.5 35.5t81 29t92 25t96.5 22t106 22t110 23.5q10 49 -18 80t-99 31q-92 0 -160.5 -32.5t-138.5 -102.5l-196 196q98 100 217 150.5t283 50.5q114 0 200.5 -23.5t148.5 -75t81.5 -132.5t-2.5 -195l-136 -643h-327l18 88 q-145 -111 -315 -111q-163 0 -245 86t-52 232zM365 1413h258l51 -110l106 110h287l-293 -252h-225zM387 322q-8 -38 15 -62t77 -24q84 0 178 90l27 131q-59 -12 -91.5 -19t-75.5 -19.5t-65.5 -24.5t-41 -30.5t-23.5 -41.5z" />
<glyph unicode="&#x1cf;" horiz-adv-x="636" d="M14 0l299 1413h389l-299 -1413h-389zM233 1774h259l51 -111l106 111h287l-293 -252h-225z" />
<glyph unicode="&#x1d0;" horiz-adv-x="608" d="M4 0l221 1049h379l-221 -1049h-379zM147 1413h259l51 -110l106 110h287l-293 -252h-225z" />
<glyph unicode="&#x1d1;" horiz-adv-x="1486" d="M88 739q69 321 288 508t525 187q221 0 368.5 -93.5t202.5 -266t7 -400.5q-69 -321 -291.5 -507.5t-536.5 -186.5q-329 0 -482.5 207t-80.5 552zM496 674q-35 -169 8.5 -266t157.5 -97q143 0 256 117.5t153 310.5q37 169 -11 266t-171 97q-136 0 -244.5 -117.5 t-148.5 -310.5zM657 1774h258l52 -111l106 111h287l-293 -252h-225z" />
<glyph unicode="&#x1d2;" horiz-adv-x="1226" d="M56.5 301q-22.5 108 6.5 252q27 127 88.5 226.5t146.5 162.5t187.5 95t216.5 32q261 0 390 -157.5t69 -424.5q-29 -129 -91.5 -228.5t-147 -160t-184 -91t-210.5 -30.5q-121 0 -218.5 36t-164 108t-89 180zM407.5 454q-2.5 -36 4 -69.5t24 -57t50 -37.5t79.5 -14 q100 0 158 60.5t84 175.5q61 258 -143 258q-193 0 -244 -238q-10 -42 -12.5 -78zM457 1413h258l51 -110l106 110h287l-293 -252h-225z" />
<glyph unicode="&#x1d3;" horiz-adv-x="1466" d="M135 573l178 840h389l-188 -885q-22 -100 14 -147t129 -47q117 0 198.5 62t105.5 165l180 852h389l-184 -862q-58 -283 -229.5 -427t-475.5 -144q-316 0 -440.5 157t-65.5 436zM655 1774h258l52 -111l106 111h287l-293 -252h-225z" />
<glyph unicode="&#x1d4;" horiz-adv-x="1310" d="M92 367l144 682h376l-129 -611q-12 -62 17 -97.5t94 -35.5q90 0 150 50.5t75 117.5l121 576h377l-221 -1049h-371l31 119l-17 -15q-116 -135 -336 -135q-123 0 -203.5 57.5t-106 146.5t-1.5 194zM506 1413h258l51 -110l107 110h286l-293 -252h-225z" />
<glyph unicode="&#x1d5;" horiz-adv-x="1466" d="M135 573l178 840h389l-188 -885q-22 -100 14 -147t129 -47q117 0 198.5 62t105.5 165l180 852h389l-184 -862q-58 -283 -229.5 -427t-475.5 -144q-316 0 -440.5 157t-65.5 436zM608 1520l54 254h256l-54 -254h-256zM743 1946l39 180h598l-39 -180h-598zM1030 1520l53 254 h256l-53 -254h-256z" />
<glyph unicode="&#x1d6;" horiz-adv-x="1310" d="M92 367l144 682h376l-129 -611q-12 -62 17 -97.5t94 -35.5q90 0 150 50.5t75 117.5l121 576h377l-221 -1049h-371l31 119l-17 -15q-116 -135 -336 -135q-123 0 -203.5 57.5t-106 146.5t-1.5 194zM459 1159l53 254h256l-53 -254h-256zM594 1585l39 180h598l-39 -180h-598z M881 1159l53 254h256l-53 -254h-256z" />
<glyph unicode="&#x1d7;" horiz-adv-x="1466" d="M135 573l178 840h389l-188 -885q-22 -100 14 -147t129 -47q117 0 198.5 62t105.5 165l180 852h389l-184 -862q-58 -283 -229.5 -427t-475.5 -144q-316 0 -440.5 157t-65.5 436zM608 1520l54 254h256l-54 -254h-256zM897 1892l225 246h363l-326 -246h-262zM1030 1520 l53 254h256l-53 -254h-256z" />
<glyph unicode="&#x1d8;" horiz-adv-x="1310" d="M92 367l144 682h376l-129 -611q-12 -62 17 -97.5t94 -35.5q90 0 150 50.5t75 117.5l121 576h377l-221 -1049h-371l31 119l-17 -15q-116 -135 -336 -135q-123 0 -203.5 57.5t-106 146.5t-1.5 194zM459 1159l53 254h256l-53 -254h-256zM748 1532l225 246h362l-325 -246 h-262zM881 1159l53 254h256l-53 -254h-256z" />
<glyph unicode="&#x1d9;" horiz-adv-x="1466" d="M135 573l178 840h389l-188 -885q-22 -100 14 -147t129 -47q117 0 198.5 62t105.5 165l180 852h389l-184 -862q-58 -283 -229.5 -427t-475.5 -144q-316 0 -440.5 157t-65.5 436zM608 1520l54 254h256l-54 -254h-256zM733 2138h258l51 -110l107 110h287l-293 -252h-225z M1030 1520l53 254h256l-53 -254h-256z" />
<glyph unicode="&#x1da;" horiz-adv-x="1310" d="M92 367l144 682h376l-129 -611q-12 -62 17 -97.5t94 -35.5q90 0 150 50.5t75 117.5l121 576h377l-221 -1049h-371l31 119l-17 -15q-116 -135 -336 -135q-123 0 -203.5 57.5t-106 146.5t-1.5 194zM459 1159l53 254h256l-53 -254h-256zM584 1778h258l51 -111l106 111h287 l-293 -252h-225zM881 1159l53 254h256l-53 -254h-256z" />
<glyph unicode="&#x1db;" horiz-adv-x="1466" d="M135 573l178 840h389l-188 -885q-22 -100 14 -147t129 -47q117 0 198.5 62t105.5 165l180 852h389l-184 -862q-58 -283 -229.5 -427t-475.5 -144q-316 0 -440.5 157t-65.5 436zM608 1520l54 254h256l-54 -254h-256zM682 2138h346l119 -246h-242zM1030 1520l53 254h256 l-53 -254h-256z" />
<glyph unicode="&#x1dc;" horiz-adv-x="1310" d="M92 367l144 682h376l-129 -611q-12 -62 17 -97.5t94 -35.5q90 0 150 50.5t75 117.5l121 576h377l-221 -1049h-371l31 119l-17 -15q-116 -135 -336 -135q-123 0 -203.5 57.5t-106 146.5t-1.5 194zM459 1159l53 254h256l-53 -254h-256zM532 1778h347l118 -246h-241z M881 1159l53 254h256l-53 -254h-256z" />
<glyph unicode="&#x1fe;" horiz-adv-x="1486" d="M-35 168l146 121q-78 186 -23 450q69 321 288 508t525 187q265 0 426 -136l121 101l139 -156l-137 -113q85 -189 29 -456q-69 -321 -291.5 -507.5t-536.5 -186.5q-266 0 -420 139l-125 -105zM483 598l545 453q-51 51 -139 51q-136 0 -244.5 -117.5t-148.5 -310.5 q-11 -49 -13 -76zM530 367q47 -56 132 -56q143 0 256 117.5t153 310.5q5 28 14 86zM821 1528l226 246h362l-326 -246h-262z" />
<glyph unicode="&#x1ff;" horiz-adv-x="1226" d="M41 143l55 47q-80 148 -33 363q27 127 88.5 226.5t146.5 162.5t187.5 95t216.5 32q207 0 334 -100l54 45l98 -109l-60 -49q82 -146 33 -369q-29 -129 -91.5 -228.5t-147 -160t-184 -91t-210.5 -30.5q-210 0 -335 101l-54 -43zM408 449l358 296q-39 25 -102 25 q-193 0 -244 -238q-9 -44 -12 -83zM463 303q42 -27 102 -27q100 0 158 60.5t84 175.5q10 41 14 88zM621 1167l225 246h362l-325 -246h-262z" />
<glyph unicode="&#x218;" horiz-adv-x="1218" d="M-8 334l297 194q51 -111 121 -165t151 -54q85 0 147 46.5t74 111.5q10 45 -24.5 68t-131.5 54q-34 11 -53 17q-38 9 -69 18.5t-66.5 23t-63.5 28.5t-56.5 35.5t-49 43.5t-37 53.5t-24 65.5t-7 78t10.5 92q40 191 197 290.5t380 99.5q151 0 270 -55t214 -175l-244 -211 q-93 142 -264 142q-69 0 -117 -28t-57 -75q-8 -28 19 -44.5t110 -46.5q20 -7 31 -11q41 -10 73.5 -20t72.5 -25t71 -31t64.5 -39.5t56.5 -49.5t42.5 -61t28.5 -75t8.5 -90t-12.5 -107q-45 -209 -208.5 -328.5t-393.5 -119.5q-197 0 -338 91t-223 259zM82 -426l213 301h348 l-350 -301h-211z" />
<glyph unicode="&#x219;" horiz-adv-x="1054" d="M-33 129l172 225q95 -83 244 -110q82 -6 141 16.5t72 71.5q9 18 -6 27t-67 25q-37 11 -60 19q-33 7 -60.5 14t-58.5 18t-55.5 22.5t-49 28.5t-42 36t-31.5 44t-20 54.5t-5.5 66t9.5 77.5q65 305 485 305q147 0 243.5 -36.5t182.5 -98.5l-156 -217q-88 66 -209 96 q-165 21 -194 -59q-22 -26 26 -46q18 -7 68 -22q61 -17 92 -29q38 -9 69.5 -20t64 -27t56 -36.5t44.5 -48t29 -60.5t11 -75.5t-10 -92.5q-68 -320 -491 -320q-132 0 -261.5 37t-232.5 115zM35 -430l213 301h348l-350 -301h-211z" />
<glyph unicode="&#x21a;" horiz-adv-x="1198" d="M66 -430l213 301h348l-351 -301h-210zM131 1087l68 326h1177l-67 -326h-398l-229 -1087h-389l231 1087h-393z" />
<glyph unicode="&#x21b;" horiz-adv-x="753" d="M27 -430l213 301h348l-350 -301h-211zM78 840l43 209h139l78 364h377l-78 -364h194l-43 -209h-196l-107 -502q-6 -34 -1 -40.5t34 -6.5h154l-62 -291h-323q-106 0 -161 79t-30 195l119 566h-137z" />
<glyph unicode="&#x237;" horiz-adv-x="575" d="M-264 -365l61 291h60q36 0 78 31t51 72l215 1020h379l-222 -1049q-35 -162 -146 -263.5t-292 -101.5h-184z" />
<glyph unicode="&#x2c6;" horiz-adv-x="825" d="M174 1079l295 260h223l185 -260h-265l-47 117l-108 -117h-283z" />
<glyph unicode="&#x2c7;" horiz-adv-x="825" d="M246 1364h258l51 -111l107 111h286l-293 -252h-225z" />
<glyph unicode="&#x2d8;" horiz-adv-x="776" d="M238 1411h211q-7 -82 18.5 -110.5t69.5 -28.5q57 0 89 33.5t44 105.5h221q-48 -319 -361 -319q-154 0 -231.5 81.5t-60.5 237.5z" />
<glyph unicode="&#x2d9;" horiz-adv-x="378" d="M186 1110l54 254h256l-54 -254h-256z" />
<glyph unicode="&#x2da;" horiz-adv-x="600" d="M242 1376q19 88 91 148.5t161 60.5q113 0 175.5 -80t37.5 -192q-19 -90 -91 -148.5t-165 -58.5q-113 0 -173 80t-36 190zM348 1362q-12 -59 20 -102t93 -43q50 0 88.5 31.5t48.5 80.5q12 59 -21.5 102.5t-93.5 43.5q-48 0 -86 -33t-49 -80z" />
<glyph unicode="&#x2db;" horiz-adv-x="620" d="M-94 -229q9 47 33 87.5t57 70t58 48t57 36t34 18.5l242 -39q-115 -44 -181.5 -90.5t-101.5 -106.5q-18 -29 -8.5 -52.5t37.5 -23.5t51.5 19t38.5 47l160 -154q-105 -118 -250 -118q-49 0 -92.5 13t-81.5 41t-53 80.5t0 123.5z" />
<glyph unicode="&#x2dc;" horiz-adv-x="909" d="M180 1094q18 83 45.5 139.5t63.5 85t73 40t84 11.5q49 0 86.5 -10.5t59.5 -25t39.5 -29t36 -25t39.5 -10.5q46 0 76.5 29.5t41.5 82.5l199 -32q-30 -145 -93 -208t-163 -63q-59 0 -103.5 17.5t-65 38t-44.5 38t-47 17.5q-35 0 -67.5 -30.5t-49.5 -98.5z" />
<glyph unicode="&#x2dd;" horiz-adv-x="1048" d="M182 1130l250 234h283l-271 -234h-262zM588 1130l252 234h331l-327 -234h-256z" />
<glyph unicode="&#x300;" d="M-403 1364h346l118 -246h-241z" />
<glyph unicode="&#x301;" d="M-526 1118l225 246h362l-325 -246h-262z" />
<glyph unicode="&#x302;" d="M-651 1079l295 260h223l184 -260h-264l-47 117l-109 -117h-282z" />
<glyph unicode="&#x303;" d="M-729 1094q15 70 38 121.5t48 80.5t57.5 46.5t60.5 22.5t62 5q60 0 106.5 -15.5t69.5 -34.5t52 -34.5t57 -15.5q88 0 94 112l199 -32q-30 -146 -93.5 -208.5t-166.5 -62.5q-56 0 -102.5 17.5t-71.5 38t-52.5 38t-50.5 17.5q-35 0 -63 -30.5t-33 -98.5z" />
<glyph unicode="&#x304;" d="M-522 1171l39 181h598l-39 -181h-598z" />
<glyph unicode="&#x306;" d="M-539 1411h211q-7 -82 18.5 -110.5t69.5 -28.5q57 0 89.5 33.5t44.5 105.5h221q-48 -319 -361 -319q-154 0 -232 82t-61 237z" />
<glyph unicode="&#x307;" d="M-193 1110l54 254h256l-54 -254h-256z" />
<glyph unicode="&#x308;" d="M-614 1110l53 254h256l-53 -254h-256zM-193 1110l54 254h256l-54 -254h-256z" />
<glyph unicode="&#x30a;" d="M-346 1380q19 84 90 141.5t156 57.5q108 0 168.5 -77t37.5 -185q-19 -85 -90 -144t-157 -59q-107 0 -167.5 78.5t-37.5 187.5zM-223 1364q-11 -51 16 -87t76 -36q40 0 74 27t43 65q10 51 -18 86t-79 35q-38 0 -70.5 -26t-41.5 -64z" />
<glyph unicode="&#x30b;" d="M-866 1130l250 234h282l-270 -234h-262zM-461 1130l252 234h332l-328 -234h-256z" />
<glyph unicode="&#x30c;" d="M-580 1364h258l52 -111l106 111h287l-293 -252h-225z" />
<glyph unicode="&#x312;" d="M-403 1139l350 270h211l-213 -270h-348z" />
<glyph unicode="&#x326;" d="M-754 -430l213 301h348l-350 -301h-211z" />
<glyph unicode="&#x327;" d="M-735 -332l170 45q6 -63 84 -63q40 0 63 18t25 45q2 28 -21.5 54t-66.5 36l-152 37l129 160h258l-106 -106l4 -11q59 -14 102.5 -68t24.5 -143q-14 -61 -58 -101.5t-94.5 -55.5t-107.5 -15q-101 0 -169.5 48.5t-84.5 119.5z" />
<glyph unicode="&#x328;" d="M-715 -229q9 47 33 87.5t57 70t58.5 48t57.5 36t34 18.5l242 -39q-115 -44 -181.5 -90.5t-101.5 -106.5q-18 -29 -8.5 -52.5t37.5 -23.5t51.5 19t38.5 47l159 -154q-105 -118 -249 -118q-49 0 -92.5 13t-81.5 41t-53.5 80.5t-0.5 123.5z" />
<glyph unicode="&#x335;" d="M-764 508l33 162h676l-35 -162h-674z" />
<glyph unicode="&#x336;" d="M-1538 465l45 209h1466l-45 -209h-1466z" />
<glyph unicode="&#x337;" d="M-1110 186l68 365l1136 772l-78 -395z" />
<glyph unicode="&#x338;" d="M-1526 168l1483 1231l139 -156l-1480 -1229z" />
<glyph unicode="&#x3c0;" horiz-adv-x="1232" d="M86 0l147 696h-81l63 303h897l-63 -303h-82l-86 -403q-7 -34 19 -33q28 1 56 33q4 5 7 10l61 -270q-16 -10 -31.5 -17.5t-30 -13t-26 -9.5t-25 -6.5t-22 -4t-20.5 -2t-16.5 -0.5h-15.5h-12q-71 0 -127 25t-85.5 64.5t-41.5 85.5t-2 91l97 450h-131l-148 -696h-301z" />
<glyph unicode="&#x1e80;" horiz-adv-x="2031" d="M166 0l33 1413h397l-59 -1096h16l438 1096h424l-26 -1096h14l405 1096h410l-571 -1413h-568l29 958l-373 -958h-569zM881 1778h346l119 -246h-242z" />
<glyph unicode="&#x1e81;" horiz-adv-x="1796" d="M100 1049h394l2 -725l338 725h342l26 -727l318 727h405l-522 -1049h-483l-15 563l-252 -571h-481zM692 1413h346l119 -246h-242z" />
<glyph unicode="&#x1e82;" horiz-adv-x="2031" d="M166 0l33 1413h397l-59 -1096h16l438 1096h424l-26 -1096h14l405 1096h410l-571 -1413h-568l29 958l-373 -958h-569zM1096 1532l225 246h362l-325 -246h-262z" />
<glyph unicode="&#x1e83;" horiz-adv-x="1796" d="M100 1049h394l2 -725l338 725h342l26 -727l318 727h405l-522 -1049h-483l-15 563l-252 -571h-481zM907 1167l226 246h362l-326 -246h-262z" />
<glyph unicode="&#x1e84;" horiz-adv-x="2031" d="M166 0l33 1413h397l-59 -1096h16l438 1096h424l-26 -1096h14l405 1096h410l-571 -1413h-568l29 958l-373 -958h-569zM885 1524l53 254h256l-53 -254h-256zM1307 1524l53 254h256l-53 -254h-256z" />
<glyph unicode="&#x1e85;" horiz-adv-x="1796" d="M100 1049h394l2 -725l338 725h342l26 -727l318 727h405l-522 -1049h-483l-15 563l-252 -571h-481zM696 1159l54 254h256l-54 -254h-256zM1118 1159l53 254h256l-53 -254h-256z" />
<glyph unicode="&#x1ebc;" horiz-adv-x="1189" d="M14 0l299 1413h979l-67 -326h-590l-47 -217h547l-68 -323h-549l-47 -219h590l-68 -328h-979zM430 1501q15 70 38 121.5t48 81t57.5 46.5t60.5 22.5t62 5.5q60 0 106.5 -16t69.5 -34.5t52 -34.5t57 -16q88 0 94 113l199 -33q-30 -146 -93 -208t-167 -62q-56 0 -102.5 17 t-71.5 38t-52.5 38t-50.5 17q-35 0 -63 -30.5t-33 -98.5z" />
<glyph unicode="&#x1ebd;" horiz-adv-x="1157" d="M55 290q-24 107 4 257q36 166 131.5 286.5t220.5 178t265 57.5q101 0 189 -31.5t152 -91t90 -156.5t1 -217q-14 -84 -39 -143l-647 14q-14 -94 26 -136t117 -42q143 0 246 119l223 -176q-129 -126 -244 -177.5t-258 -51.5q-117 0 -213 32.5t-168 101.5t-96 176zM313 1141 q15 70 38 121.5t48 80.5t58 46.5t61 22.5t62 5q60 0 106 -15.5t69 -34.5t52 -34.5t57 -15.5q88 0 94 113l199 -33q-30 -146 -93.5 -208.5t-166.5 -62.5q-56 0 -102.5 17.5t-71 38t-52 38t-50.5 17.5q-35 0 -63.5 -30.5t-33.5 -98.5zM475 666h301q13 60 -11 96.5t-93 36.5 q-75 0 -126 -38t-71 -95z" />
<glyph unicode="&#x1ef2;" horiz-adv-x="1439" d="M184 1413h426l191 -508l397 508h447l-723 -864l-121 -549h-383l121 549zM588 1774h346l119 -246h-242z" />
<glyph unicode="&#x1ef3;" horiz-adv-x="1126" d="M-76 -365l33 291q111 0 191 35t116 90l-176 998h395l45 -619h21l319 619h412l-645 -1065q-46 -76 -83.5 -126.5t-84 -92t-94 -65t-115.5 -39t-146 -21t-188 -5.5zM362 1413h347l118 -246h-241z" />
<glyph unicode="&#x1ef8;" horiz-adv-x="1439" d="M184 1413h426l191 -508l397 508h447l-723 -864l-121 -549h-383l121 549zM532 1501q15 70 38 121.5t48 81t58 46.5t61 22.5t62 5.5q60 0 106 -16t69 -34.5t52 -34.5t57 -16q42 0 67 28.5t28 84.5l198 -33q-30 -146 -93 -208t-167 -62q-56 0 -102.5 17t-71 38t-52 38 t-50.5 17q-35 0 -63.5 -30.5t-33.5 -98.5z" />
<glyph unicode="&#x1ef9;" horiz-adv-x="1126" d="M-76 -365l33 291q111 0 191 35t116 90l-176 998h395l45 -619h21l319 619h412l-645 -1065q-46 -76 -83.5 -126.5t-84 -92t-94 -65t-115.5 -39t-146 -21t-188 -5.5zM307 1141q15 70 38 121.5t48 80.5t57.5 46.5t60.5 22.5t62 5q60 0 106.5 -15.5t69.5 -34.5t52 -34.5 t57 -15.5q88 0 94 113l199 -33q-30 -146 -93.5 -208.5t-166.5 -62.5q-56 0 -102.5 17.5t-71.5 38t-52.5 38t-50.5 17.5q-35 0 -63 -30.5t-33 -98.5z" />
<glyph unicode="&#x2000;" horiz-adv-x="1069" />
<glyph unicode="&#x2001;" horiz-adv-x="2138" />
<glyph unicode="&#x2002;" horiz-adv-x="1069" />
<glyph unicode="&#x2003;" horiz-adv-x="2138" />
<glyph unicode="&#x2004;" horiz-adv-x="712" />
<glyph unicode="&#x2005;" horiz-adv-x="534" />
<glyph unicode="&#x2006;" horiz-adv-x="356" />
<glyph unicode="&#x2007;" horiz-adv-x="356" />
<glyph unicode="&#x2008;" horiz-adv-x="267" />
<glyph unicode="&#x2009;" horiz-adv-x="427" />
<glyph unicode="&#x200a;" horiz-adv-x="118" />
<glyph unicode="&#x2010;" horiz-adv-x="1103" d="M113 375l61 287h813l-59 -287h-815z" />
<glyph unicode="&#x2011;" horiz-adv-x="1103" d="M113 375l61 287h813l-59 -287h-815z" />
<glyph unicode="&#x2012;" horiz-adv-x="1103" d="M113 375l61 287h813l-59 -287h-815z" />
<glyph unicode="&#x2013;" horiz-adv-x="897" d="M2 381l61 276h830l-57 -276h-834z" />
<glyph unicode="&#x2014;" horiz-adv-x="2048" d="M-31 381l60 276h2048l-60 -276h-2048z" />
<glyph unicode="&#x2018;" horiz-adv-x="567" d="M98 729l76 381l340 363h197l-248 -363h153l-79 -381h-439z" />
<glyph unicode="&#x2019;" horiz-adv-x="567" d="M90 670l248 362h-154l80 381h438l-75 -381l-340 -362h-197z" />
<glyph unicode="&#x201a;" horiz-adv-x="567" d="M-129 -362l248 362h-154l80 381h438l-75 -381l-340 -362h-197z" />
<glyph unicode="&#x201c;" horiz-adv-x="1140" d="M98 729l76 381l340 363h197l-248 -363h153l-79 -381h-439zM672 729l76 381l339 363h197l-248 -363h154l-80 -381h-438z" />
<glyph unicode="&#x201d;" horiz-adv-x="1132" d="M90 670l248 362h-154l80 381h438l-75 -381l-340 -362h-197zM653 670l248 362h-153l79 381h439l-76 -381l-340 -362h-197z" />
<glyph unicode="&#x201e;" horiz-adv-x="1134" d="M-129 -362l248 362h-154l80 381h438l-75 -381l-340 -362h-197zM438 -362l248 362h-154l80 381h439l-76 -381l-340 -362h-197z" />
<glyph unicode="&#x2020;" horiz-adv-x="983" d="M150 748l71 344h221l68 321h340l-68 -321h222l-72 -344h-221l-205 -953h-340l205 953h-221z" />
<glyph unicode="&#x2021;" horiz-adv-x="983" d="M14 117l74 344h221l62 287h-221l71 344h221l68 321h340l-68 -321h222l-72 -344h-221l-62 -287h221l-73 -344h-222l-69 -322h-340l70 322h-222z" />
<glyph unicode="&#x2022;" horiz-adv-x="1136" d="M78 557q27 127 112 234.5t206.5 170t250.5 62.5q105 0 193 -42t142.5 -114t78 -168.5t-1.5 -205.5q-41 -194 -206.5 -330.5t-358.5 -136.5q-143 0 -249.5 71.5t-151.5 193.5t-15 265z" />
<glyph unicode="&#x2025;" horiz-adv-x="985" d="M-16 0l75 360h308l-76 -360h-307zM475 0l78 360h307l-78 -360h-307z" />
<glyph unicode="&#x2026;" horiz-adv-x="1882" d="M-16 0l79 381h439l-82 -381h-436zM612 0l80 381h438l-81 -381h-437zM1243 0l80 381h438l-82 -381h-436z" />
<glyph unicode="&#x202f;" horiz-adv-x="427" />
<glyph unicode="&#x2030;" horiz-adv-x="2277" d="M131 0l1059 1413h328l-1061 -1413h-326zM162.5 1033q0.5 39 7.5 73q8 39 23.5 79t45.5 86.5t69 82t98 59t129 23.5q60 0 108 -17.5t79.5 -47.5t52.5 -69t29 -84t7 -89.5t-10 -88.5q-12 -55 -38 -107.5t-67.5 -101t-105.5 -78.5t-141 -30q-66 0 -118 19t-83 51.5t-51.5 72 t-27.5 84t-6.5 83.5zM354 1044q3 -27 11.5 -51.5t34.5 -41.5t65 -17q60 0 98 40t49 91q7 37 4.5 73t-30 62.5t-74.5 26.5q-65 0 -103 -44t-51 -93q-7 -19 -4 -46zM855.5 300q0.5 39 8.5 73q9 38 24 78t45 86.5t69 81.5t98 59t129 24q71 0 125.5 -25t84.5 -65.5t48 -92 t16.5 -106t-10.5 -106.5q-12 -55 -38 -107.5t-67.5 -101t-105.5 -78.5t-141 -30q-66 0 -117.5 19t-82.5 51.5t-51.5 72.5t-27.5 84t-6.5 83zM1047.5 309q2.5 -27 10.5 -51.5t34.5 -41.5t66.5 -17q60 0 97.5 40.5t50.5 92.5q7 36 3.5 72t-31.5 63t-75 27q-35 0 -63 -14.5 t-45.5 -37.5t-27.5 -44t-15 -42q-8 -20 -5.5 -47zM1541.5 300q0.5 39 8.5 73q9 38 24 78t45 86.5t69 81.5t98 59t129 24q60 0 108 -17.5t79.5 -47.5t52.5 -68.5t29 -83.5t7 -89.5t-10 -88.5q-12 -55 -38 -107.5t-67.5 -101t-105.5 -78.5t-141 -30q-66 0 -118 19t-83.5 51.5 t-52 72.5t-27.5 84t-6.5 83zM1735.5 309q2.5 -27 10.5 -51.5t34 -41.5t65 -17q61 0 98 40.5t50 92.5q7 36 3.5 72t-31.5 63t-75 27q-34 0 -62 -14.5t-45 -37.5t-27 -44t-15 -42q-8 -20 -5.5 -47z" />
<glyph unicode="&#x2039;" horiz-adv-x="651" d="M66 510l593 397l-53 -284l-196 -113l141 -111l-53 -284z" />
<glyph unicode="&#x203a;" horiz-adv-x="651" d="M-14 115l53 284l194 111l-139 113l51 284l435 -397z" />
<glyph unicode="&#x2044;" horiz-adv-x="538" d="M-449 0l1145 1413h367l-1155 -1413h-357z" />
<glyph unicode="&#x205f;" horiz-adv-x="534" />
<glyph unicode="&#x20ac;" horiz-adv-x="1251" d="M-33 481l115 154h137q2 33 14 94h-178l123 162h101q31 87 72.5 163t104.5 147.5t139 122.5t179 81.5t221 30.5q232 0 379 -109l-225 -364q-26 141 -168 141q-90 0 -167.5 -55t-133.5 -158h428l-102 -162h-390q-5 -16 -14 -55q-1 -8 -4 -21t-4 -18h356l-96 -154h-268 q15 -172 170 -172q68 0 122.5 19.5t82.5 41t67 60.5l100 -358q-161 -95 -383 -95q-113 0 -203.5 27t-150 73t-100 111t-59 137t-21.5 156h-244z" />
<glyph unicode="&#x2122;" horiz-adv-x="1363" d="M162 1237l37 176h489l-37 -176h-135l-98 -459h-215l98 459h-139zM621 778l133 635h305l-17 -407l152 407h309l-133 -635h-196l92 430l-168 -430h-195l4 432l-92 -432h-194z" />
<glyph unicode="&#x2126;" horiz-adv-x="1556" d="M-72 0l62 299l188 10q-49 54 -74 139.5t-23 168t17 161.5q37 177 166.5 323t308 226t363.5 80q151 0 280 -55t213.5 -149t119 -226.5t3.5 -280.5q-24 -109 -84 -225.5t-157 -202.5l155 13l-57 -281h-616l41 270q129 2 248.5 119t160.5 307q40 193 -46 301.5t-265 108.5 q-204 0 -359 -131t-200 -346q-19 -81 -11 -141t28 -101.5t54.5 -67.5t69.5 -38t72 -13l-41 -268h-617z" />
<glyph unicode="&#x2202;" horiz-adv-x="1263" d="M45 516q35 162 137 291t235.5 197.5t270.5 68.5q110 0 186 -45.5t91 -120.5l24 31q23 105 -23 172.5t-139 67.5q-74 0 -161 -48l-125 234q121 66 282 66q118 0 206.5 -38.5t139.5 -104.5t75.5 -156.5t23 -192t-24.5 -213.5q-33 -154 -100 -286.5t-163 -234t-226.5 -159 t-280.5 -57.5q-168 0 -277 68t-146.5 187t-4.5 273zM362 449q-12 -82 22 -119t112 -37q143 0 254 106.5t133 264.5q10 87 -20.5 121t-102.5 34q-151 0 -265.5 -110.5t-132.5 -259.5z" />
<glyph unicode="&#x2206;" horiz-adv-x="1316" d="M-125 0l999 1583l332 -1583h-1331zM389 301h453l-94 600z" />
<glyph unicode="&#x220f;" horiz-adv-x="1384" d="M96 0l236 1112h-162l63 301h1295l-66 -301h-162l-235 -1112h-301l235 1112h-366l-236 -1112h-301z" />
<glyph unicode="&#x2211;" horiz-adv-x="1300" d="M-49 0l29 160l675 547l-432 544l27 162h1177l-63 -301h-659l374 -405l-538 -406h649l-62 -301h-1177z" />
<glyph unicode="&#x2212;" horiz-adv-x="1230" d="M113 375l61 287h938l-59 -287h-940z" />
<glyph unicode="&#x221a;" horiz-adv-x="1425" d="M35 492l63 303h389l54 -586l755 1229l277 -95l-1002 -1572h-243l-123 721h-170z" />
<glyph unicode="&#x221e;" horiz-adv-x="1556" d="M74 666q31 149 144 246.5t259 97.5q189 0 344 -176q230 176 404 176q168 0 255 -118t50 -292q-33 -149 -146.5 -246.5t-261.5 -97.5q-187 0 -342 176q-230 -176 -405 -176q-166 0 -252 118t-49 292zM330 600q-7 -37 11.5 -54.5t55.5 -17.5q43 0 91.5 29t134.5 98 q-73 82 -123 82q-58 0 -108 -38t-62 -99zM981 610q73 -82 121 -82q58 0 108.5 38.5t63.5 99.5q7 36 -12.5 53.5t-57.5 17.5q-44 0 -91 -29t-132 -98z" />
<glyph unicode="&#x222b;" horiz-adv-x="862" d="M-195 -457l35 301q156 0 225 50.5t97 181.5l221 1044q32 148 142 238t249 90q75 0 144.5 -29t113.5 -78l-225 -213q-13 10 -22.5 16.5t-12.5 7.5l-4 1q-76 -16 -92 -84l-223 -1055q-48 -227 -223 -349t-425 -122z" />
<glyph unicode="&#x2248;" horiz-adv-x="1062" d="M-59 115q84 411 360 411q53 0 97 -15t73 -36t54 -42.5t53 -36.5t59 -15q28 0 56.5 11.5t59.5 50.5t44 100l250 -33q-87 -412 -363 -412q-53 0 -96.5 15t-72 36.5t-54 43t-53.5 36.5t-58 15q-47 0 -94.5 -37.5t-65.5 -124.5zM-59 623q84 411 360 411q53 0 97 -15t73 -36 t54 -42.5t53 -36.5t59 -15q28 0 56.5 11.5t59.5 50.5t44 100l250 -33q-87 -412 -363 -412q-53 0 -96.5 15t-72 36.5t-54 43t-53.5 36.5t-58 15q-47 0 -94.5 -37.5t-65.5 -124.5z" />
<glyph unicode="&#x2260;" horiz-adv-x="1304" d="M-45 -164l233 295h-221l82 307h383l158 201h-488l78 307h654l239 303h285l-238 -303h199l-78 -307h-360l-156 -201h463l-84 -307h-621l-229 -295h-299z" />
<glyph unicode="&#x2264;" horiz-adv-x="1425" d="M14 0l58 281h1165l-57 -281h-1166zM186 944l1317 592l-67 -332l-617 -260l502 -260l-66 -332z" />
<glyph unicode="&#x2265;" horiz-adv-x="1425" d="M47 0l57 281h1166l-58 -281h-1165zM125 352l65 332l615 260l-500 260l66 332l1067 -592z" />
<glyph unicode="&#x25ca;" horiz-adv-x="1230" d="M113 717l563 717h260l264 -717l-559 -717h-260zM467 717l96 -383l283 383l-101 383z" />
<glyph unicode="&#x25fc;" horiz-adv-x="1044" d="M0 0v1044h1044v-1044h-1044z" />
<glyph unicode="&#xfb00;" horiz-adv-x="1433" d="M84 0l178 840h-162l45 209h164l21 88q27 132 120.5 204t254.5 72h245l-55 -260h-121q-31 0 -54 -24.5t-30 -53.5l-6 -26h270l21 88q27 132 120.5 204t254.5 72h245l-55 -260h-121q-31 0 -54 -24.5t-30 -53.5l-6 -26h189l-45 -209h-187l-178 -840h-379l178 840h-266 l-178 -840h-379z" />
<glyph unicode="&#xfb03;" horiz-adv-x="2000" d="M84 0l178 840h-162l45 209h164l21 88q27 132 120.5 204t254.5 72h245l-55 -260h-121q-31 0 -54 -24.5t-30 -53.5l-6 -26h246l20 88q27 132 120.5 204t254.5 72h246l-55 -260h-121q-31 0 -54 -24.5t-30 -53.5l-6 -26h188l-45 -209h-186l-179 -840h-378l178 840h-242 l-178 -840h-379zM1403 0l221 1049h379l-221 -1049h-379zM1651 1163l51 250h381l-53 -250h-379z" />
<glyph unicode="&#xfb04;" horiz-adv-x="1990" d="M84 0l178 840h-162l45 209h164l21 88q27 132 120.5 204t254.5 72h245l-55 -260h-121q-31 0 -54 -24.5t-30 -53.5l-6 -26h266l21 88q27 132 120.5 204t254.5 72h245l-55 -260h-121q-31 0 -54 -24.5t-30 -53.5l-6 -26h188l-45 -209h-186l-178 -840h-379l178 840h-262 l-178 -840h-379zM1386 0l300 1413h378l-299 -1413h-379z" />
<glyph horiz-adv-x="608" d="M4 0l221 1049h379l-221 -1049h-379zM311 1159l54 254h256l-54 -254h-256z" />
<glyph horiz-adv-x="1445" d="M84 0l178 840h-162l45 209h164l21 88q27 132 120.5 204t254.5 72h245l-55 -260h-121q-31 0 -54 -24.5t-30 -53.5l-6 -26h268l78 364h377l-78 -364h195l-43 -209h-197l-106 -502q-7 -34 -2 -40.5t34 -6.5h154l-61 -291h-324q-106 0 -161 79t-30 195l119 566h-266 l-178 -840h-379z" />
<glyph horiz-adv-x="1398" d="M78 840l43 209h139l78 364h377l-78 -364h268l78 364h377l-78 -364h195l-43 -209h-197l-107 -502q-6 -34 -1 -40.5t34 -6.5h154l-62 -291h-323q-106 0 -161 79t-30 195l119 566h-268l-107 -502q-6 -34 -1 -40.5t34 -6.5h154l-62 -291h-323q-106 0 -161 79t-30 195l119 566 h-137z" />
<glyph horiz-adv-x="1835" d="M143 713q0 158 61.5 301t165 247t247 165t301.5 61t301 -61t247 -165t165 -247t61 -301t-61 -301t-165 -247t-247 -165t-301 -61t-301.5 61t-247 165t-165 247t-61.5 301zM215 713q0 -191 94 -353t256 -256t353 -94q143 0 273 55.5t224 149.5t149.5 224.5t55.5 273.5 t-55.5 273t-149.5 224t-224 149.5t-273 55.5t-273.5 -55.5t-224.5 -149.5t-149.5 -224t-55.5 -273zM479 444v537q0 15 10.5 26t24.5 11q15 0 26 -11t11 -26v-537q0 -15 -11 -24.5t-26 -9.5q-14 0 -24.5 9.5t-10.5 24.5zM614 713q0 15 10 25t25 10h133q15 0 26 -10t11 -25 t-11 -25t-26 -10h-133q-15 0 -25 10t-10 25zM883 444v537q0 15 10 26t25 11t24.5 -11t9.5 -26v-537q0 -15 -9.5 -24.5t-24.5 -9.5t-25 9.5t-10 24.5zM1020 713q0 18 6 24l270 269q9 12 23 12q13 0 25 -11.5t12 -23.5q0 -17 -10 -27l-244 -243l244 -244q10 -10 10 -27 q0 -12 -11.5 -22t-25.5 -10q-15 0 -23 10l-270 268q-6 10 -6 25z" />
</font>
</defs>
</svg>
