<?xml version="1.0" standalone="no"?>
<!DOCTYPE svg PUBLIC "-//W3C//DTD SVG 1.1//EN" "http://www.w3.org/Graphics/SVG/1.1/DTD/svg11.dtd" >
<svg xmlns="http://www.w3.org/2000/svg">
<metadata></metadata>
<defs>
<font id="radnikamedium_condensed" horiz-adv-x="0" >
<font-face units-per-em="2048" ascent="1638" descent="-410" />
<missing-glyph horiz-adv-x="389" />
<glyph unicode="&#x3c;&#x2d;" horiz-adv-x="1789" d="M33 639l829 537v-183l-416 -270h1297v-176h-1297l416 -271v-182z" />
<glyph unicode="&#x2d;&#x3e;" horiz-adv-x="1792" d="M49 547v176h1301l-416 270v183l827 -537l-827 -545v182l416 271h-1301z" />
<glyph unicode="fi" horiz-adv-x="1013" d="M31 897v152h151v104q0 121 65 190.5t175 69.5h125v-170h-80q-39 0 -55.5 -26t-16.5 -76v-92h494v-1049h-215v897h-279v-897h-215v897h-149zM674 1202v211h215v-211h-215z" />
<glyph unicode="fl" horiz-adv-x="1030" d="M31 897v152h151v104q0 121 65 190.5t175 69.5h151v-170h-106q-39 0 -55.5 -26t-16.5 -76v-92h178v-152h-178v-897h-215v897h-149zM692 0v1413h215v-1413h-215z" />
<glyph unicode=" "  horiz-adv-x="389" />
<glyph unicode="&#x09;" horiz-adv-x="389" />
<glyph unicode="&#xa0;" horiz-adv-x="389" />
<glyph unicode="!" horiz-adv-x="489" d="M131 0v240h225v-240h-225zM141 1413h205l-22 -1001h-160z" />
<glyph unicode="&#x22;" horiz-adv-x="694" d="M100 856v557h176v-557h-176zM416 856v557h178v-557h-178z" />
<glyph unicode="#" horiz-adv-x="1130" d="M59 416v155h211l43 291h-188v152h217l68 399h155l-63 -385h227l64 385h159l-63 -395h182v-156h-213l-41 -291h189v-151h-220l-67 -420h-158l68 406h-230l-63 -406h-162l68 416h-183zM430 571h225l45 291h-227z" />
<glyph unicode="$" horiz-adv-x="925" d="M29 336l166 104q33 -133 107 -196.5t165 -63.5q86 0 130 50.5t44 144.5q0 46 -14 86t-32.5 66.5t-55.5 55.5t-62.5 45t-75.5 44q-44 24 -63.5 35.5t-59.5 38t-60.5 46t-49 52.5t-42.5 65.5t-25 76.5t-11 93q0 145 84.5 239.5t231.5 111.5v147h106v-147q188 -20 330 -218 l-135 -127q-94 158 -240 158q-80 0 -122 -47t-42 -117q0 -23 6.5 -44.5t15.5 -38t27 -35t32.5 -30.5t41 -29.5t43 -27t47.5 -27.5t47 -28q52 -30 84.5 -52t77 -62.5t70.5 -82t44.5 -104t18.5 -135.5q0 -169 -92.5 -278t-253.5 -121v-148h-106v150q-132 18 -231.5 106 t-145.5 244z" />
<glyph unicode="%" horiz-adv-x="1318" d="M74 1104q0 71 12.5 129.5t39 105t72 72t105.5 25.5q117 0 175.5 -90.5t58.5 -243.5q0 -149 -57 -237.5t-171 -88.5q-120 0 -177.5 91.5t-57.5 236.5zM217 1106q0 -184 86 -184q88 0 88 186q0 178 -90 178q-84 0 -84 -180zM252 2l616 1409h189l-617 -1409h-188zM782 319 q0 150 56 242t174 92t175.5 -90.5t57.5 -243.5q0 -150 -56 -237.5t-171 -87.5q-120 0 -178 90.5t-58 234.5zM926 322q0 -181 88 -181q86 0 86 183q0 182 -88 182q-86 0 -86 -184z" />
<glyph unicode="&#x26;" horiz-adv-x="1167" d="M61 371q0 276 265 397q-146 134 -146 315q0 163 86 255t244 92q157 0 240.5 -89.5t83.5 -250.5q0 -222 -244 -373l186 -248l209 383l154 -113l-230 -409l269 -330h-287l-119 168q-59 -98 -136 -146.5t-185 -48.5q-175 0 -282.5 104.5t-107.5 293.5zM283 375 q0 -98 53 -160.5t125 -62.5q123 0 190 163l-227 318q-141 -90 -141 -258zM387 1077q0 -106 100 -225q150 108 150 229q0 80 -33.5 125t-91.5 45q-59 0 -92 -46t-33 -128z" />
<glyph unicode="'" horiz-adv-x="380" d="M102 885v557h177v-557h-177z" />
<glyph unicode="(" horiz-adv-x="643" d="M129 610q0 244 62.5 487.5t179.5 405.5h196q-124 -190 -189 -419t-65 -474q0 -523 254 -905h-194q-110 143 -177 402.5t-67 502.5z" />
<glyph unicode=")" horiz-adv-x="643" d="M76 -295q254 382 254 905q0 245 -65 474t-189 419h196q117 -162 179.5 -405.5t62.5 -487.5q0 -243 -67 -502.5t-177 -402.5h-194z" />
<glyph unicode="*" horiz-adv-x="634" d="M57 1069l179 80l-179 80l64 106l155 -114l-20 192h123l-21 -192l156 114l61 -106l-174 -80l174 -80l-61 -104l-156 112l21 -192h-123l20 192l-155 -112z" />
<glyph unicode="+" horiz-adv-x="1312" d="M147 545v160h428v438h160v-438h430v-160h-430v-439h-160v439h-428z" />
<glyph unicode="," horiz-adv-x="466" d="M92 0v260h262v-260h2l-149 -324h-113l101 324h-103z" />
<glyph unicode="-" horiz-adv-x="591" d="M55 432v166h480v-166h-480z" />
<glyph unicode="." horiz-adv-x="442" d="M92 0v260h262v-260h-262z" />
<glyph unicode="/" horiz-adv-x="854" d="M76 -156l508 1567h194l-508 -1567h-194z" />
<glyph unicode="0" horiz-adv-x="1003" d="M74 707q0 367 104.5 548t317.5 181q219 0 326.5 -181.5t107.5 -549.5q0 -366 -104.5 -545.5t-317.5 -179.5q-219 0 -326.5 180.5t-107.5 546.5zM291 707q0 -527 211 -527q200 0 200 529q0 522 -206 522q-205 0 -205 -524z" />
<glyph unicode="1" horiz-adv-x="741" d="M78 999v213l268 201h209v-1413h-217v1198z" />
<glyph unicode="2" horiz-adv-x="976" d="M104 965q3 212 107.5 339.5t298.5 127.5q165 0 268 -117.5t103 -302.5q0 -89 -25.5 -164t-64 -125t-92 -97t-102 -77.5t-101.5 -69.5t-84 -71q-72 -75 -72 -172v-52h557v-184h-778v180q0 187 102 318q36 44 88.5 86t100 70.5t97.5 66t86.5 75t59.5 94t23 126.5 q0 106 -46 170.5t-124 64.5q-93 0 -143 -86t-41 -217z" />
<glyph unicode="3" horiz-adv-x="929" d="M53 412l203 18q0 -129 58 -200.5t147 -71.5t146 68.5t57 195.5q0 112 -54.5 170.5t-144.5 58.5h-70v187h68q72 0 111.5 51t39.5 147q0 102 -45.5 159.5t-122.5 57.5q-78 0 -126 -60t-48 -165l-200 19q0 182 99.5 284.5t266.5 102.5q175 0 277 -100.5t102 -278.5 q0 -110 -42.5 -187t-106.5 -102v-12q86 -22 144.5 -109t61.5 -229q0 -213 -114 -324.5t-305 -111.5q-182 0 -292 110.5t-110 321.5z" />
<glyph unicode="4" horiz-adv-x="980" d="M41 348v205l502 860h217v-881h166v-184h-166v-348h-215v348h-504zM225 532h320v582z" />
<glyph unicode="5" horiz-adv-x="956" d="M57 371l207 63q8 -121 60.5 -192.5t146.5 -71.5q195 0 195 305q0 132 -47 208.5t-148 76.5q-57 0 -107 -37.5t-75 -95.5l-205 41l109 745h647v-184h-482l-55 -393q41 47 104.5 76.5t133.5 29.5q167 0 258.5 -127.5t91.5 -337.5q0 -149 -43 -258.5t-138 -174t-235 -64.5 q-177 0 -284 103t-134 288z" />
<glyph unicode="6" horiz-adv-x="921" d="M51 616q0 77 4 147.5t16 155t31.5 155t53.5 139t79 116t111 76.5t146 29q256 0 368 -291l-158 -84q-63 182 -206 182q-67 0 -116.5 -45t-74.5 -118t-36.5 -145t-12.5 -147q100 129 248 129q160 0 262 -124.5t102 -333.5q0 -132 -52 -241t-144.5 -171.5t-206.5 -62.5 q-190 0 -301.5 157t-112.5 477zM272 459q0 -126 52 -205.5t137 -79.5q83 0 135.5 78.5t52.5 202.5t-52.5 201t-135.5 77q-86 0 -137.5 -74.5t-51.5 -199.5z" />
<glyph unicode="7" horiz-adv-x="800" d="M47 1229v184h719v-209q-95 -134 -158 -283t-95 -312t-45 -296.5t-19 -312.5h-236q16 326 97 647.5t247 569.5v12h-510z" />
<glyph unicode="8" horiz-adv-x="948" d="M55 389q0 134 61.5 237t164.5 132v8q-73 29 -120.5 114t-47.5 187q0 162 98 264.5t264 102.5q165 0 263 -102.5t98 -264.5q0 -103 -47.5 -188t-120.5 -113v-8q104 -32 164.5 -134.5t60.5 -234.5q0 -185 -113.5 -297t-304.5 -112t-305.5 112t-114.5 297zM268 418 q0 -117 53.5 -187.5t151.5 -70.5q99 0 153 70.5t54 187.5q0 111 -58.5 183.5t-148.5 72.5q-89 0 -147 -72.5t-58 -183.5zM313 1051q0 -92 46.5 -152.5t117.5 -60.5q69 0 115.5 59.5t46.5 149.5q0 95 -42 152.5t-120 57.5q-79 0 -121.5 -56.5t-42.5 -149.5z" />
<glyph unicode="9" horiz-adv-x="921" d="M33 956q0 132 52 241t144.5 172t206.5 63q92 0 166.5 -37.5t130 -113t86 -198.5t31.5 -286q0 -77 -4 -147t-16 -155t-31.5 -155.5t-53.5 -139t-78.5 -115.5t-110.5 -76t-146 -29q-257 0 -369 290l158 84q63 -182 207 -182q54 0 97 31t69 78t42.5 110t23 120.5t7.5 115.5 q-100 -129 -248 -129q-160 0 -262 124.5t-102 333.5zM252 958q0 -124 52.5 -201t135.5 -77q86 0 137.5 74.5t51.5 199.5q0 126 -52 205.5t-137 79.5q-83 0 -135.5 -78.5t-52.5 -202.5z" />
<glyph unicode=":" horiz-adv-x="428" d="M90 0v260h262v-260h-262zM92 748v260h262v-260h-262z" />
<glyph unicode=";" horiz-adv-x="565" d="M111 748v260h262v-260h-262zM121 0v260h262v-260h2l-149 -324h-113l100 324h-102z" />
<glyph unicode="&#x3c;" horiz-adv-x="1241" d="M100 674l985 530v-194l-630 -336l630 -332v-199z" />
<glyph unicode="=" horiz-adv-x="1073" d="M135 381v184h805v-184h-805zM135 778v185h805v-185h-805z" />
<glyph unicode="&#x3e;" horiz-adv-x="1263" d="M182 143v199l631 332l-631 336v194l985 -530z" />
<glyph unicode="?" horiz-adv-x="790" d="M55 1042q0 80 20 149t59 124t104 87t149 32q149 0 243.5 -94.5t94.5 -276.5q0 -70 -13.5 -122.5t-35.5 -83.5t-48.5 -55t-53 -43.5t-48.5 -41.5t-35.5 -56t-13.5 -81v-172h-174v174q0 65 13.5 113t35 76t47.5 50t52 41.5t47.5 43t35 63t13.5 92.5q0 95 -41.5 144.5 t-114.5 49.5q-72 0 -117 -59t-45 -154h-174zM285 0v240h217v-240h-217z" />
<glyph unicode="@" horiz-adv-x="1593" d="M82 543q0 183 51 345t142 283t227 191t297 70t298 -70.5t231 -191t147 -285t53 -350.5q0 -85 -11.5 -166.5t-38.5 -162t-68 -141t-105 -98t-144 -37.5q-109 0 -171 72.5t-56 212.5q-38 -81 -104.5 -123.5t-141.5 -42.5q-85 0 -146.5 56t-90.5 144t-29 195q0 145 52 284.5 t146 231t203 91.5q70 0 123.5 -41t71.5 -119l24 115h160q-8 -41 -47 -230t-59.5 -317.5t-20.5 -210.5q0 -75 21.5 -106t64.5 -33q69 0 117.5 65t69 160.5t20.5 208.5q0 198 -69.5 361t-200.5 260.5t-299 97.5q-127 0 -233 -56.5t-176.5 -154t-109 -227t-38.5 -275.5 t39 -276.5t108.5 -228.5t174.5 -155t229 -57q66 0 145 29l49 -168q-93 -41 -196 -41q-210 0 -373.5 121t-249.5 323t-86 447zM575 442q0 -100 33.5 -155.5t102.5 -55.5q76 0 136 68t89 166.5t29 202.5q0 204 -131 204q-76 0 -137 -66.5t-91.5 -164t-30.5 -199.5z" />
<glyph unicode="A" horiz-adv-x="1007" d="M0 0l360 1413h287l361 -1413h-234l-63 291h-412l-66 -291h-233zM340 471h332l-146 674l-16 86h-6l-19 -86z" />
<glyph unicode="B" horiz-adv-x="1081" d="M131 0v1413h461q182 0 280.5 -103t98.5 -276q0 -215 -164 -293v-6q102 -29 160.5 -116.5t58.5 -229.5q0 -183 -101 -286t-284 -103h-510zM354 195h256q99 0 150 58.5t51 164.5q0 105 -57 163t-144 58h-256v-444zM354 803h215q83 0 139 58t56 157q0 203 -186 203h-224 v-418z" />
<glyph unicode="C" horiz-adv-x="1081" d="M61 707q0 161 31.5 292.5t93 230t160.5 152.5t227 54q173 0 296.5 -105t164.5 -291l-186 -61q-27 120 -95 189t-175 69q-145 0 -222 -138t-77 -384q0 -251 78.5 -394t222.5 -143q99 0 168.5 71t99.5 191l188 -63q-41 -186 -164.5 -291.5t-296.5 -105.5q-129 0 -228.5 54 t-161 152t-93 229t-31.5 292z" />
<glyph unicode="D" horiz-adv-x="1122" d="M131 0v1413h336q290 0 441 -184t151 -529q0 -338 -153 -519t-441 -181h-334zM354 201h90q199 0 296.5 126t97.5 382q0 253 -92.5 378t-282.5 125h-109v-1011z" />
<glyph unicode="E" horiz-adv-x="978" d="M131 0v1413h760v-192h-537v-418h477v-193h-477v-417h537v-193h-760z" />
<glyph unicode="F" horiz-adv-x="958" d="M131 0v1413h776v-192h-553v-418h484v-193h-484v-610h-223z" />
<glyph unicode="G" horiz-adv-x="1212" d="M61 713q0 119 18.5 223.5t59.5 197t101.5 159t151 105t202.5 38.5q195 0 311 -98t174 -287l-190 -60q-40 129 -107.5 188.5t-179.5 59.5q-75 0 -131.5 -28t-91.5 -75t-57 -116t-30.5 -143t-8.5 -164q0 -533 315 -533q105 0 177.5 63.5t98.5 176.5q18 64 21 145h-231v183 h432v-748h-183l-4 201q-37 -97 -124 -159t-205 -62q-110 0 -198 38.5t-147 105.5t-99 160.5t-57.5 200t-17.5 228.5z" />
<glyph unicode="H" horiz-adv-x="1181" d="M131 0v1411h223v-606h475v606h222v-1411h-222v608h-475v-608h-223z" />
<glyph unicode="I" horiz-adv-x="485" d="M131 0v1413h223v-1413h-223z" />
<glyph unicode="J" horiz-adv-x="645" d="M31 0v205q77 -25 127 -25q161 0 161 309v922h224v-952q0 -222 -91.5 -350.5t-265.5 -128.5q-96 0 -155 20z" />
<glyph unicode="K" horiz-adv-x="1138" d="M131 0v1411h223v-633l467 633h269l-420 -530l454 -881h-264l-328 707l-178 -226v-481h-223z" />
<glyph unicode="L" horiz-adv-x="819" d="M131 0v1413h223v-1220h443v-193h-666z" />
<glyph unicode="M" horiz-adv-x="1474" d="M131 0v1411h367l237 -1159l238 1159h370v-1411h-223v1200l-8 2l-258 -1202h-236l-258 1200h-10v-1200h-219z" />
<glyph unicode="N" horiz-adv-x="1224" d="M131 0v1413h297l444 -1137h7v1137h215v-1413h-299l-443 1147h-6v-1147h-215z" />
<glyph unicode="O" horiz-adv-x="1196" d="M61 707q0 335 143 531t392 196q250 0 394.5 -196.5t144.5 -530.5t-144.5 -530.5t-394.5 -196.5q-249 0 -392 196t-143 531zM295 707q0 -247 80 -385t223 -138t223 138t80 385q0 249 -80 387.5t-223 138.5t-223 -138.5t-80 -387.5z" />
<glyph unicode="P" horiz-adv-x="1071" d="M131 0v1413h498q189 0 293 -119t104 -331q0 -208 -103 -322.5t-294 -114.5h-275v-526h-223zM354 725h254q199 0 199 240q0 118 -50 183.5t-149 65.5h-254v-489z" />
<glyph unicode="Q" horiz-adv-x="1200" d="M61 707q0 335 143 531t392 196q250 0 394.5 -196.5t144.5 -530.5q0 -358 -162 -553l151 -195l-120 -102l-146 194q-112 -71 -262 -71q-249 0 -392 196t-143 531zM295 707q0 -247 80 -385t223 -138q77 0 133 39l-170 230l101 94l165 -211q74 133 74 371q0 249 -80 387.5 t-223 138.5t-223 -138.5t-80 -387.5z" />
<glyph unicode="R" horiz-adv-x="1110" d="M131 -2v1415h528q165 0 269 -109t104 -296q0 -136 -57 -233t-160 -138l270 -639h-247l-236 610h-248v-610h-223zM354 793h275q186 8 186 213q0 213 -199 213h-262v-426z" />
<glyph unicode="S" horiz-adv-x="925" d="M29 336l166 104q33 -133 107 -196.5t165 -63.5q86 0 130 50.5t44 144.5q0 46 -14 86t-32.5 66.5t-55.5 55.5t-62.5 45t-75.5 44q-44 24 -63.5 35.5t-59.5 38t-60.5 46t-49 52.5t-42.5 65.5t-25 76.5t-11 93q0 160 100.5 256.5t272.5 96.5q114 0 206.5 -54t172.5 -166 l-135 -127q-94 158 -240 158q-80 0 -122 -47t-42 -117q0 -23 6.5 -44.5t15.5 -38t27 -35t32.5 -30.5t41 -29.5t43 -27t47.5 -27.5t47 -28q52 -30 84.5 -52t77 -62.5t70.5 -82t44.5 -104t18.5 -135.5q0 -181 -104 -291t-283 -110q-153 0 -271.5 89t-170.5 265z" />
<glyph unicode="T" horiz-adv-x="962" d="M23 1223v190h917v-190h-348v-1223h-221v1223h-348z" />
<glyph unicode="U" horiz-adv-x="1144" d="M131 436v977h221v-985q0 -119 57 -182.5t162 -63.5t163.5 63.5t58.5 182.5v985h221v-967q0 -226 -112.5 -346t-330.5 -120t-329 117t-111 339z" />
<glyph unicode="V" horiz-adv-x="1058" d="M16 1413h230l286 -1220l281 1220h229l-362 -1413h-299z" />
<glyph unicode="W" horiz-adv-x="1560" d="M20 1413h230l170 -1169h12l225 1169h248l223 -1169h13l170 1169h229l-254 -1413h-293l-213 1169l-213 -1169h-293z" />
<glyph unicode="X" horiz-adv-x="1056" d="M14 0l379 707l-377 706h250l264 -551l263 551h247l-376 -706l378 -707h-247l-267 543l-264 -543h-250z" />
<glyph unicode="Y" horiz-adv-x="1038" d="M8 1413h250l260 -659l260 659h252l-403 -862v-551h-217v551z" />
<glyph unicode="Z" horiz-adv-x="995" d="M39 0v160l657 1067h-620v186h880v-168l-655 -1059h655v-186h-917z" />
<glyph unicode="[" horiz-adv-x="569" d="M137 -293v1794h398v-172h-220v-1446h220v-176h-398z" />
<glyph unicode="\" horiz-adv-x="854" d="M76 1411h194l508 -1567h-194z" />
<glyph unicode="]" horiz-adv-x="569" d="M35 -117h219v1446h-219v172h397v-1794h-397v176z" />
<glyph unicode="^" horiz-adv-x="743" d="M18 645l355 766l352 -766h-201l-151 416l-154 -416h-201z" />
<glyph unicode="_" horiz-adv-x="702" d="M4 0h692v-160h-692v160z" />
<glyph unicode="`" horiz-adv-x="337" d="M-37 1364h225l181 -244h-160z" />
<glyph unicode="a" horiz-adv-x="970" d="M84 274q0 187 166 281q30 17 64.5 33t80.5 33.5t78.5 29.5t97.5 34.5t97 33.5q-1 91 -47 132.5t-138 41.5q-81 0 -135.5 -33t-103.5 -106l-142 104q66 105 155.5 158t219.5 53q168 0 274.5 -85.5t106.5 -248.5v-735h-190v129q-60 -66 -143 -109t-150 -43 q-132 0 -211.5 80.5t-79.5 216.5zM301 285q0 -58 31 -90.5t80 -32.5q153 0 256 172v217q-229 -99 -275 -127q-92 -53 -92 -139z" />
<glyph unicode="b" horiz-adv-x="1036" d="M125 0v1413h213v-498q40 69 110.5 111.5t157.5 42.5q176 0 269.5 -138t93.5 -407q0 -270 -94.5 -408.5t-272.5 -138.5q-89 0 -158 43.5t-106 112.5h-4v-133h-209zM332 526q0 -171 55 -267.5t152 -96.5q110 0 161.5 87t51.5 277q0 185 -52 271t-161 86q-97 0 -152 -95.5 t-55 -261.5z" />
<glyph unicode="c" horiz-adv-x="886" d="M68 522q0 91 14 171t45.5 149.5t78 119.5t115.5 78.5t154 28.5q151 0 239 -76t128 -223l-176 -63q-37 188 -183 188q-47 0 -83 -21.5t-58 -57t-36 -85.5t-19.5 -101t-5.5 -110q0 -73 9 -134t30.5 -115.5t63 -85.5t99.5 -31q78 0 121.5 48.5t61.5 137.5l170 -57 q-69 -306 -361 -306q-106 0 -186 43.5t-127 120.5t-70.5 172.5t-23.5 208.5z" />
<glyph unicode="d" horiz-adv-x="1036" d="M68 524q0 269 93 407t269 138q87 0 157.5 -42.5t110.5 -111.5v498h213v-1413h-209v133h-4q-37 -69 -106 -112.5t-158 -43.5q-178 0 -272 138.5t-94 408.5zM285 526q0 -190 51.5 -277t161.5 -87q97 0 152 96.5t55 267.5q0 166 -55 261.5t-152 95.5q-109 0 -161 -86 t-52 -271z" />
<glyph unicode="e" horiz-adv-x="946" d="M68 518q0 93 13.5 172.5t44.5 150.5t78 120.5t119.5 78.5t163.5 29q88 0 157 -28.5t113.5 -77t74 -117t41.5 -143t12 -160.5q0 -56 -6 -80h-598q5 -150 61.5 -224.5t175.5 -74.5t211 100l137 -121q-78 -87 -163.5 -125t-192.5 -38q-114 0 -200.5 41t-138.5 115 t-77.5 169.5t-25.5 212.5zM285 627h393q0 119 -45 189.5t-146 70.5q-98 0 -145.5 -64.5t-56.5 -195.5z" />
<glyph unicode="f" horiz-adv-x="600" d="M31 895v154h139v67q0 136 66.5 216.5t187.5 80.5h145v-164h-80q-51 0 -78.5 -37t-27.5 -100v-63h186v-154h-186v-895h-213v895h-139z" />
<glyph unicode="g" horiz-adv-x="1034" d="M68 549q0 234 98 377t272 143q85 0 153 -36.5t103 -108.5v125h215v-1016q0 -104 -34.5 -185.5t-93.5 -131.5t-134.5 -75.5t-161.5 -25.5q-114 0 -222.5 51t-168.5 150l115 116q53 -78 125.5 -115.5t142.5 -37.5q97 0 158 67t61 181v145q-32 -69 -100 -110.5t-160 -41.5 q-173 0 -270.5 147t-97.5 382zM285 543q0 -157 52.5 -252.5t160.5 -95.5q106 0 156.5 89.5t50.5 245.5q0 103 -20 181.5t-68.5 130t-122.5 51.5q-104 0 -156.5 -96t-52.5 -254z" />
<glyph unicode="h" horiz-adv-x="997" d="M125 0v1413h213v-512h8q39 78 105.5 123t148.5 45q137 0 211 -84t74 -233v-752h-213v719q0 90 -36 129t-112 39q-83 0 -134.5 -76.5t-51.5 -192.5v-618h-213z" />
<glyph unicode="i" horiz-adv-x="464" d="M125 0v1049h215v-1049h-215zM125 1202v211h215v-211h-215z" />
<glyph unicode="j" horiz-adv-x="471" d="M-31 -193q83 0 119.5 43t36.5 132v1067h217v-1047q0 -199 -92.5 -283t-280.5 -84v172zM119 1200v213h225v-213h-225z" />
<glyph unicode="k" horiz-adv-x="958" d="M125 0v1413h213v-792l342 428h246l-346 -404l385 -645h-242l-285 487l-100 -114v-373h-213z" />
<glyph unicode="l" horiz-adv-x="460" d="M123 0v1413h215v-1413h-215z" />
<glyph unicode="m" horiz-adv-x="1452" d="M125 0v1049h211v-144h4q34 75 94 119.5t141 44.5q91 0 149 -41t81 -147h4q49 99 109 144q59 44 153 44h4q128 -2 197 -85.5t69 -238.5v-745h-213v709q0 80 -34 127t-105 47q-76 0 -113.5 -72t-37.5 -193v-618h-213v684q0 100 -32.5 149.5t-103.5 49.5q-76 0 -113.5 -73 t-37.5 -192v-618h-213z" />
<glyph unicode="n" horiz-adv-x="997" d="M125 0v1049h211v-148h8q39 77 103.5 122.5t150.5 45.5q131 0 209 -96t78 -258v-715h-213v686q0 108 -37 154.5t-109 46.5q-85 0 -136.5 -71.5t-51.5 -192.5v-623h-213z" />
<glyph unicode="o" horiz-adv-x="976" d="M68 520q0 273 115 411t306 138q92 0 167.5 -33t132.5 -98.5t88.5 -172t31.5 -245.5q0 -269 -115.5 -406t-304.5 -137q-190 0 -305.5 137t-115.5 406zM266 520q0 -358 221 -358q228 0 228 358q0 365 -228 365q-221 0 -221 -365z" />
<glyph unicode="p" horiz-adv-x="1034" d="M123 -365v1414h213v-146q33 76 104.5 121t165.5 45q172 0 266.5 -140t94.5 -405q0 -264 -95.5 -405.5t-267.5 -141.5q-96 0 -168 47t-102 121v-510h-211zM328 526q0 -174 56 -271t153 -97q213 0 213 368q0 363 -213 363q-97 0 -153 -96t-56 -267z" />
<glyph unicode="q" horiz-adv-x="1036" d="M68 524q0 265 94 405t266 140q94 0 165.5 -45t104.5 -121v146h213v-1414h-211v510q-30 -74 -102 -121t-168 -47q-172 0 -267 141t-95 406zM285 526q0 -368 213 -368q97 0 153 97t56 271q0 171 -56 267t-153 96q-213 0 -213 -363z" />
<glyph unicode="r" horiz-adv-x="659" d="M125 0v1049h209v-166h4q29 87 80.5 134.5t113.5 48t97 -18.5v-189q-53 14 -90 14q-12 0 -23 -2q-178 -24 -178 -327v-543h-213z" />
<glyph unicode="s" horiz-adv-x="800" d="M35 188l115 136q47 -72 101 -116t136 -52q9 -1 18 -1q59 0 103 29q50 33 53 103q0 22 -5.5 41t-12.5 32.5t-24.5 26.5t-28.5 20.5t-38 18.5t-40 15.5t-47 15.5q-39 14 -60.5 22t-56 24t-54.5 30.5t-45 38.5t-38 49.5t-22 62t-9 78.5q0 146 93 226.5t237 80.5 q210 0 338 -174l-105 -131q-85 127 -205 137h-14q-60 0 -100 -30q-44 -34 -45 -89q-1 -24 8.5 -43.5t24.5 -33.5t40.5 -27t51 -23t61.5 -23q20 -7 31 -11q49 -18 82.5 -34t71 -42.5t60 -57t37.5 -76t15 -102.5q0 -152 -94 -242t-246 -90q-111 0 -214 58t-173 153z" />
<glyph unicode="t" horiz-adv-x="618" d="M35 895v154h119v364h213v-364h204v-154h-204v-571q0 -86 22.5 -120t79.5 -34h90v-170h-176q-118 0 -173.5 68.5t-55.5 205.5v621h-119z" />
<glyph unicode="u" horiz-adv-x="1005" d="M121 336v713h213v-676q0 -112 36.5 -153.5t112.5 -41.5q84 0 134.5 70t50.5 186v615h213v-1049h-209v147h-15q-38 -79 -103.5 -123t-145.5 -44q-138 0 -212.5 93t-74.5 263z" />
<glyph unicode="v" horiz-adv-x="831" d="M14 1049h224l180 -871l178 871h221l-274 -1049h-254z" />
<glyph unicode="w" horiz-adv-x="1323" d="M20 1049h222l135 -869l192 869h181l192 -865l139 865h222l-213 -1049h-275l-156 760l-155 -762h-275z" />
<glyph unicode="x" horiz-adv-x="880" d="M25 0l288 528l-288 521h233l182 -369l183 369h233l-287 -521l287 -528h-233l-183 377l-182 -377h-233z" />
<glyph unicode="y" horiz-adv-x="847" d="M14 1049h228l153 -654q27 -122 27 -151h10q0 55 25 153l153 652h232l-328 -1098q-96 -316 -436 -316v172q51 0 89 11t61.5 27t41.5 45t27 55t20 67z" />
<glyph unicode="z" horiz-adv-x="823" d="M59 0v154l473 720h-464v175h696v-166l-457 -707h455v-176h-703z" />
<glyph unicode="{" horiz-adv-x="661" d="M106 543v174q63 0 92 21.5t29 92.5v445q0 114 79.5 193t193.5 79h96v-200h-70q-46 0 -75 -28t-29 -71v-422q0 -76 -16 -120.5t-74 -77.5q58 -29 74 -74.5t16 -124.5v-418q0 -43 29.5 -71.5t74.5 -28.5h70v-197h-96q-114 0 -193.5 79t-79.5 192v440q0 72 -28.5 93.5 t-92.5 23.5z" />
<glyph unicode="|" horiz-adv-x="444" d="M143 -156v1690h156v-1690h-156z" />
<glyph unicode="}" horiz-adv-x="663" d="M66 -88h69q46 0 75.5 28.5t29.5 71.5v418q0 79 16 124.5t74 74.5q-58 33 -74 77.5t-16 120.5v422q0 43 -29.5 71t-75.5 28h-69v200h96q114 0 193 -79t79 -193v-445q0 -71 29 -92.5t92 -21.5v-174q-64 -2 -92.5 -23.5t-28.5 -93.5v-440q0 -113 -79 -192t-193 -79h-96v197z " />
<glyph unicode="~" horiz-adv-x="1009" d="M86 385q0 144 58 226.5t171 82.5q52 0 96.5 -16.5t75 -40.5t58 -48t58.5 -40.5t63 -16.5q100 0 100 158h160q0 -155 -64.5 -239t-183.5 -84q-56 0 -106.5 25.5t-82.5 56t-73.5 56t-81.5 25.5q-46 0 -70.5 -37t-23.5 -108h-154z" />
<glyph unicode="&#xa1;" horiz-adv-x="489" d="M131 809v240h225v-240h-225zM141 -387l23 1024h160l22 -1024h-205z" />
<glyph unicode="&#xa2;" horiz-adv-x="886" d="M68 522q0 103 18.5 192t57 162.5t102.5 122t149 64.5v172h156v-172q116 -18 186 -91.5t105 -201.5l-176 -63q-37 188 -183 188q-47 0 -83 -21.5t-58 -57t-36 -85.5t-19.5 -101t-5.5 -110q0 -73 9 -134t30.5 -115.5t63 -85.5t99.5 -31q78 0 121.5 48.5t61.5 137.5l170 -57 q-60 -263 -285 -299v-170h-156v170q-85 16 -149 65t-102 122.5t-57 161.5t-19 189z" />
<glyph unicode="&#xa3;" horiz-adv-x="1050" d="M131 551v174h127v233q0 225 100 350.5t295 125.5q150 0 245 -88.5t130 -247.5l-188 -74q-26 207 -187 207q-110 0 -154 -71t-44 -208v-227h293v-174h-293v-363h573v-188h-770v551h-127z" />
<glyph unicode="&#xa4;" horiz-adv-x="1171" d="M96 311l105 105q-86 118 -86 264t86 264l-105 105l119 125l104 -109q125 86 267 86q141 0 266 -86l104 109l119 -125l-104 -105q86 -118 86 -264t-86 -264l104 -105l-119 -125l-104 109q-125 -86 -266 -86q-142 0 -267 86l-104 -109zM289 680q0 -126 86 -209 q85 -88 211 -88t211 88q86 83 86 209t-86 209q-85 88 -211 88t-211 -88q-86 -83 -86 -209z" />
<glyph unicode="&#xa5;" horiz-adv-x="1097" d="M8 1413h215l324 -682l327 682h216l-379 -745h192v-146h-264v-211h264v-149h-264v-170h-180v170h-266v149h266v211h-266v148h192z" />
<glyph unicode="&#xa6;" horiz-adv-x="464" d="M141 -156v621h183v-621h-183zM141 764v649h183v-649h-183z" />
<glyph unicode="&#xa7;" horiz-adv-x="1116" d="M147 268l205 64q23 -85 82 -124.5t158 -39.5q194 0 194 131q0 42 -33 68.5t-85.5 39t-116.5 23.5t-128 28.5t-116.5 45.5t-85.5 84t-33 135q0 126 101 211q-99 72 -99 199q0 97 53 166.5t137 102t187 32.5q145 0 248.5 -68t145.5 -201l-193 -47q-39 135 -203 135 q-76 0 -127 -33t-51 -98q0 -32 20.5 -54t55 -34t79.5 -21.5t94.5 -18.5t99 -21t94.5 -33.5t79.5 -52t55 -80.5t20.5 -115q0 -128 -92 -205q92 -69 92 -194q0 -81 -33 -143t-91 -97.5t-128.5 -53t-152.5 -17.5q-103 0 -187 27t-151.5 93t-94.5 166zM395 731q2 -27 19 -48.5 t39 -34.5t58 -25t62.5 -18t68 -14t60.5 -13q43 20 62 56t10 81q-3 27 -21 49t-39 35t-57.5 25t-61 17.5t-66 13.5t-56.5 11q-40 -20 -62 -55.5t-16 -79.5z" />
<glyph unicode="&#xa8;" horiz-adv-x="536" d="M35 1151v213h170v-213h-170zM334 1151v213h168v-213h-168z" />
<glyph unicode="&#xa9;" horiz-adv-x="1640" d="M61 709q0 155 60.5 296t162 242.5t242 162t293.5 60.5t293.5 -60.5t243 -162t163 -242.5t60.5 -296t-60.5 -297t-163 -244t-243 -162.5t-293.5 -60.5t-293.5 60.5t-242 162.5t-162 244t-60.5 297zM176 709q0 -130 52 -250.5t139 -208.5t206 -140.5t248 -52.5t248.5 52.5 t206.5 140.5t138.5 208.5t51.5 250.5t-51.5 250t-138.5 207.5t-206 139.5t-249 52q-129 0 -248 -52t-206 -139.5t-139 -207.5t-52 -250zM485 711q0 79 12.5 148.5t39.5 129.5t67.5 103t99.5 67.5t132 24.5q131 0 206.5 -65.5t110.5 -192.5l-152 -56q-32 162 -157 162 q-50 0 -86 -27t-54.5 -75t-27 -102t-8.5 -119q0 -63 8.5 -116t27 -100t54.5 -73.5t86 -26.5q123 0 157 160l146 -49q-30 -132 -105.5 -198t-205.5 -66q-91 0 -160 38t-110 104.5t-61 149t-20 179.5z" />
<glyph unicode="&#xaa;" horiz-adv-x="598" d="M57 928q0 126 113 190q21 12 44 22.5t56 23t53 19.5t67.5 23t66.5 23q-1 64 -32 92.5t-95 28.5q-56 0 -93.5 -23t-70.5 -74l-96 72q45 72 106 108.5t150 36.5q115 0 187.5 -58.5t72.5 -170.5v-502h-129v88q-41 -45 -98 -74.5t-103 -29.5q-91 0 -145 55.5t-54 149.5z M205 934q0 -40 21 -62t55 -22q103 0 176 119v145q-134 -54 -189 -86q-63 -37 -63 -94z" />
<glyph unicode="&#xab;" horiz-adv-x="911" d="M88 510l354 346v-194l-143 -152l143 -150v-196zM469 510l352 346v-194l-143 -152l143 -150v-196z" />
<glyph unicode="&#xac;" horiz-adv-x="1191" d="M135 608v189h924v-594h-203v405h-721z" />
<glyph unicode="&#xad;" horiz-adv-x="591" d="M55 432v166h480v-166h-480z" />
<glyph unicode="&#xae;" horiz-adv-x="1277" d="M109 893q0 147 70.5 271.5t192 197t265.5 72.5t266 -72.5t193 -197t71 -271.5t-71 -271.5t-193 -197t-266 -72.5t-265.5 72.5t-192 197t-70.5 271.5zM201 893q0 -182 129 -313t307 -131q118 0 219.5 60t161 162.5t59.5 221.5t-59.5 222t-161 163.5t-219.5 60.5 q-178 0 -307 -132t-129 -314zM457 614v553h217q92 0 141 -43.5t49 -122.5q0 -116 -106 -157l141 -230h-133l-119 217h-74v-217h-116zM565 930h109q84 0 84 71q0 70 -84 70h-109v-141z" />
<glyph unicode="&#xaf;" horiz-adv-x="542" d="M47 1186v125h455v-125h-455z" />
<glyph unicode="&#xb0;" horiz-adv-x="761" d="M78 1120q0 137 85.5 225.5t217.5 88.5t217.5 -88.5t85.5 -225.5q0 -136 -85.5 -224.5t-217.5 -88.5t-217.5 88.5t-85.5 224.5zM227 1120q0 -72 43 -118t111 -46t112 46t44 118t-44 119t-112 47q-67 0 -110.5 -47t-43.5 -119z" />
<glyph unicode="&#xb1;" horiz-adv-x="1341" d="M135 698v160h457v438h160v-438h456v-160h-456v-438h-160v438h-457zM137 -2v160h1069v-160h-1069z" />
<glyph unicode="&#xb4;" horiz-adv-x="337" d="M-29 1122l183 242h223l-254 -242h-152z" />
<glyph unicode="&#xb5;" horiz-adv-x="858" d="M115 -266v1265h194v-587q0 -51 6.5 -93t20.5 -78t40 -56.5t62 -20.5q82 0 143.5 81.5t61.5 190.5v563h193v-999h-193v150q-24 -66 -83 -119.5t-126 -53.5q-72 0 -127 39l-14 -282h-178z" />
<glyph unicode="&#xb6;" horiz-adv-x="966" d="M72 1018q0 91 30.5 167t81 125t115.5 76t135 27h131v-1700h-131v910q-70 0 -135 27t-115.5 76t-81 125t-30.5 167zM711 -287v1700h133v-1700h-133z" />
<glyph unicode="&#xb7;" horiz-adv-x="438" d="M61 680q0 67 46.5 111.5t115.5 44.5q66 0 110 -44.5t44 -111.5q0 -69 -44 -113.5t-110 -44.5q-69 0 -115.5 44.5t-46.5 113.5z" />
<glyph unicode="&#xb8;" horiz-adv-x="317" d="M2 -385l90 66q8 -28 27 -47t43 -19q63 0 67 70q4 35 -13 64t-48 40l-119 41l74 170h145l-65 -123q68 -27 109 -76t38 -118q-3 -80 -53 -131.5t-125 -51.5q-56 0 -101 31.5t-69 83.5z" />
<glyph unicode="&#xba;" horiz-adv-x="671" d="M45 1077q0 151 83 256t212 105q124 0 204.5 -105t80.5 -256q0 -152 -80.5 -257t-204.5 -105q-130 0 -212.5 105t-82.5 257zM186 1075q0 -102 38 -167.5t116 -65.5q71 0 107 66t36 167t-36 167.5t-107 66.5q-78 0 -116 -66t-38 -168z" />
<glyph unicode="&#xbb;" horiz-adv-x="919" d="M98 164v196l144 150l-144 152v194l353 -346zM477 164v196l144 150l-144 152v194l354 -346z" />
<glyph unicode="&#xbf;" horiz-adv-x="942" d="M80 -14q0 70 13.5 122.5t35.5 83.5t48.5 55t53 43.5t48.5 41.5t35.5 56t13.5 81v172h174v-174q0 -65 -13.5 -113t-35 -76t-47.5 -50t-52 -41.5t-47.5 -43t-35 -63t-13.5 -92.5q0 -95 41.5 -145t114.5 -50q72 0 116.5 59t44.5 154h175q0 -80 -20 -149t-59 -124t-104 -86.5 t-149 -31.5q-149 0 -243.5 94.5t-94.5 276.5zM303 809v240h217v-240h-217z" />
<glyph unicode="&#xc0;" horiz-adv-x="1007" d="M0 0l360 1413h287l361 -1413h-234l-63 291h-412l-66 -291h-233zM178 1776h225l181 -244h-160zM340 471h332l-146 674l-16 86h-6l-19 -86z" />
<glyph unicode="&#xc1;" horiz-adv-x="1007" d="M0 0l360 1413h287l361 -1413h-234l-63 291h-412l-66 -291h-233zM340 471h332l-146 674l-16 86h-6l-19 -86zM430 1534l182 242h224l-254 -242h-152z" />
<glyph unicode="&#xc2;" horiz-adv-x="1007" d="M0 0l360 1413h287l361 -1413h-234l-63 291h-412l-66 -291h-233zM252 1507l199 269h108l199 -269h-150l-102 148l-105 -148h-149zM340 471h332l-146 674l-16 86h-6l-19 -86z" />
<glyph unicode="&#xc3;" horiz-adv-x="1007" d="M0 0l360 1413h287l361 -1413h-234l-63 291h-412l-66 -291h-233zM209 1530q0 119 44.5 182.5t123.5 63.5q45 0 83 -22t59.5 -48t50 -48t55.5 -22q71 0 71 140h111q0 -128 -45.5 -193t-126.5 -65q-44 0 -81.5 21.5t-59.5 48t-50.5 48t-56.5 21.5q-34 0 -54 -35t-20 -92 h-104zM340 471h332l-146 674l-16 86h-6l-19 -86z" />
<glyph unicode="&#xc4;" horiz-adv-x="1007" d="M0 0l360 1413h287l361 -1413h-234l-63 291h-412l-66 -291h-233zM272 1563v213h170v-213h-170zM340 471h332l-146 674l-16 86h-6l-19 -86zM571 1563v213h168v-213h-168z" />
<glyph unicode="&#xc5;" horiz-adv-x="1007" d="M0 0l346 1360q-67 64 -67 166q0 97 63.5 160t161.5 63t162.5 -63t64.5 -160q0 -100 -69 -166l346 -1360h-234l-63 291h-412l-66 -291h-233zM340 471h332l-146 674l-16 86h-6l-19 -86zM391 1526q0 -43 24.5 -74.5t65.5 -38.5h45q40 8 66 39.5t26 73.5q0 49 -32 80.5 t-82 31.5q-51 0 -82 -31t-31 -81z" />
<glyph unicode="&#xc6;" horiz-adv-x="1357" d="M0 0l383 1413h889v-196h-477v-412h415v-197h-415v-407h477v-201h-682v303h-303l-74 -303h-213zM334 492h256v720h-80z" />
<glyph unicode="&#xc7;" horiz-adv-x="1081" d="M61 707q0 161 31.5 292.5t93 230t160.5 152.5t227 54q173 0 296.5 -105t164.5 -291l-186 -61q-27 120 -95 189t-175 69q-145 0 -222 -138t-77 -384q0 -251 78.5 -394t222.5 -143q99 0 168.5 71t99.5 191l188 -63q-36 -162 -136 -264t-243 -127l-57 -109q68 -27 109.5 -76 t38.5 -118q-3 -80 -53.5 -131.5t-125.5 -51.5q-56 0 -101 31.5t-69 83.5l90 66q8 -28 27 -47t43 -19q64 0 68 70q4 35 -13.5 63.5t-48.5 40.5l-100 41l70 152q-158 11 -266 108t-158 253.5t-50 363.5z" />
<glyph unicode="&#xc8;" horiz-adv-x="978" d="M131 0v1413h760v-192h-537v-418h477v-193h-477v-417h537v-193h-760zM184 1776h226l180 -244h-160z" />
<glyph unicode="&#xc9;" horiz-adv-x="978" d="M131 0v1413h760v-192h-537v-418h477v-193h-477v-417h537v-193h-760zM436 1534l182 242h224l-254 -242h-152z" />
<glyph unicode="&#xca;" horiz-adv-x="978" d="M131 0v1413h760v-192h-537v-418h477v-193h-477v-417h537v-193h-760zM258 1507l199 269h108l199 -269h-150l-102 148l-104 -148h-150z" />
<glyph unicode="&#xcb;" horiz-adv-x="978" d="M131 0v1413h760v-192h-537v-418h477v-193h-477v-417h537v-193h-760zM279 1563v213h170v-213h-170zM578 1563v213h167v-213h-167z" />
<glyph unicode="&#xcc;" horiz-adv-x="485" d="M-88 1776h225l180 -244h-159zM131 0v1413h223v-1413h-223z" />
<glyph unicode="&#xcd;" horiz-adv-x="485" d="M131 0v1413h223v-1413h-223zM164 1534l182 242h223l-254 -242h-151z" />
<glyph unicode="&#xce;" horiz-adv-x="485" d="M-14 1507l198 269h109l199 -269h-150l-102 148l-105 -148h-149zM131 0v1413h223v-1413h-223z" />
<glyph unicode="&#xcf;" horiz-adv-x="485" d="M6 1563v213h170v-213h-170zM131 0v1413h223v-1413h-223zM305 1563v213h168v-213h-168z" />
<glyph unicode="&#xd0;" horiz-adv-x="1114" d="M35 643v139h88v631h336q290 0 441 -184t151 -529q0 -338 -153 -519t-441 -181h-334v643h-88zM346 201h90q199 0 296 126t97 382q0 253 -92 378t-282 125h-109v-430h252v-139h-252v-442z" />
<glyph unicode="&#xd1;" horiz-adv-x="1224" d="M131 0v1413h297l444 -1137h7v1137h215v-1413h-299l-443 1147h-6v-1147h-215zM315 1532q0 119 44.5 182.5t123.5 63.5q45 0 83 -22t59.5 -48t50 -48t55.5 -22q72 0 72 140h110q0 -128 -45.5 -193t-126.5 -65q-36 0 -67 14.5t-52.5 35t-40.5 40.5t-41.5 34.5t-45.5 14.5 q-34 0 -54 -35t-20 -92h-105z" />
<glyph unicode="&#xd2;" horiz-adv-x="1196" d="M61 707q0 335 143 531t392 196q250 0 394.5 -196.5t144.5 -530.5t-144.5 -530.5t-394.5 -196.5q-249 0 -392 196t-143 531zM268 1776h226l180 -244h-160zM295 707q0 -247 80 -385t223 -138t223 138t80 385q0 249 -80 387.5t-223 138.5t-223 -138.5t-80 -387.5z" />
<glyph unicode="&#xd3;" horiz-adv-x="1196" d="M61 707q0 335 143 531t392 196q250 0 394.5 -196.5t144.5 -530.5t-144.5 -530.5t-394.5 -196.5q-249 0 -392 196t-143 531zM295 707q0 -247 80 -385t223 -138t223 138t80 385q0 249 -80 387.5t-223 138.5t-223 -138.5t-80 -387.5zM520 1534l182 242h224l-254 -242h-152z " />
<glyph unicode="&#xd4;" horiz-adv-x="1196" d="M61 707q0 335 143 531t392 196q250 0 394.5 -196.5t144.5 -530.5t-144.5 -530.5t-394.5 -196.5q-249 0 -392 196t-143 531zM295 707q0 -247 80 -385t223 -138t223 138t80 385q0 249 -80 387.5t-223 138.5t-223 -138.5t-80 -387.5zM342 1507l199 269h108l199 -269h-150 l-102 148l-104 -148h-150z" />
<glyph unicode="&#xd5;" horiz-adv-x="1196" d="M61 707q0 335 143 531t392 196q250 0 394.5 -196.5t144.5 -530.5t-144.5 -530.5t-394.5 -196.5q-249 0 -392 196t-143 531zM295 707q0 -247 80 -385t223 -138t223 138t80 385q0 249 -80 387.5t-223 138.5t-223 -138.5t-80 -387.5zM299 1530q0 119 44.5 182.5t123.5 63.5 q45 0 83 -22t59.5 -48t50 -48t55.5 -22q71 0 71 140h111q0 -128 -45.5 -193t-126.5 -65q-44 0 -81.5 21.5t-59.5 48t-50.5 48t-56.5 21.5q-34 0 -54 -35t-20 -92h-104z" />
<glyph unicode="&#xd6;" horiz-adv-x="1196" d="M61 707q0 335 143 531t392 196q250 0 394.5 -196.5t144.5 -530.5t-144.5 -530.5t-394.5 -196.5q-249 0 -392 196t-143 531zM295 707q0 -247 80 -385t223 -138t223 138t80 385q0 249 -80 387.5t-223 138.5t-223 -138.5t-80 -387.5zM362 1563v213h170v-213h-170zM662 1563 v213h167v-213h-167z" />
<glyph unicode="&#xd7;" horiz-adv-x="1024" d="M90 938l113 113l311 -310l303 306l113 -115l-303 -303l309 -310l-113 -114l-309 311l-303 -303l-113 113l301 303z" />
<glyph unicode="&#xd8;" horiz-adv-x="1196" d="M43 117l113 139q-95 185 -95 451q0 335 143 531t392 196q232 0 371 -168l86 106l96 -76l-111 -137q97 -183 97 -452q0 -334 -144.5 -530.5t-394.5 -196.5q-230 0 -371 167l-86 -108zM295 707q0 -139 27 -244l503 624q-82 146 -227 146q-143 0 -223 -138.5t-80 -387.5z M371 328q83 -144 227 -144q143 0 223 138t80 385q0 142 -27 247z" />
<glyph unicode="&#xd9;" horiz-adv-x="1144" d="M131 436v977h221v-985q0 -119 57 -182.5t162 -63.5t163.5 63.5t58.5 182.5v985h221v-967q0 -226 -112.5 -346t-330.5 -120t-329 117t-111 339zM246 1776h225l180 -244h-159z" />
<glyph unicode="&#xda;" horiz-adv-x="1144" d="M131 436v977h221v-985q0 -119 57 -182.5t162 -63.5t163.5 63.5t58.5 182.5v985h221v-967q0 -226 -112.5 -346t-330.5 -120t-329 117t-111 339zM498 1534l182 242h223l-254 -242h-151z" />
<glyph unicode="&#xdb;" horiz-adv-x="1144" d="M131 436v977h221v-985q0 -119 57 -182.5t162 -63.5t163.5 63.5t58.5 182.5v985h221v-967q0 -226 -112.5 -346t-330.5 -120t-329 117t-111 339zM319 1507l199 269h109l198 -269h-149l-103 148l-104 -148h-150z" />
<glyph unicode="&#xdc;" horiz-adv-x="1144" d="M131 436v977h221v-985q0 -119 57 -182.5t162 -63.5t163.5 63.5t58.5 182.5v985h221v-967q0 -226 -112.5 -346t-330.5 -120t-329 117t-111 339zM340 1563v213h170v-213h-170zM639 1563v213h168v-213h-168z" />
<glyph unicode="&#xdd;" horiz-adv-x="1038" d="M8 1413h250l260 -659l260 659h252l-403 -862v-551h-217v551zM442 1534l183 242h223l-254 -242h-152z" />
<glyph unicode="&#xde;" horiz-adv-x="1005" d="M139 0v1413h209v-192h227q171 0 279.5 -112t108.5 -312q0 -188 -109 -295t-279 -107h-227v-395h-209zM348 596h199q205 0 205 207q0 103 -52 159t-153 56h-199v-422z" />
<glyph unicode="&#xdf;" horiz-adv-x="978" d="M117 0v1036q0 186 104.5 292t267.5 106q153 0 257 -90.5t104 -239.5q0 -56 -18 -98.5t-44 -68.5t-52 -49.5t-44 -54t-18 -67.5q0 -35 18 -66.5t45 -55.5t59 -56.5t59 -66.5t45 -88.5t18 -119.5q0 -147 -87.5 -239t-222.5 -92q-73 0 -149 32v203q71 -43 131 -43 q53 0 85 41.5t32 108.5q0 55 -22.5 100t-54.5 78t-64 67.5t-54.5 85t-22.5 113.5q0 58 16 99.5t39 64t46 42.5t39 49.5t16 70.5q0 74 -40.5 116.5t-110.5 42.5q-79 0 -125.5 -56.5t-46.5 -152.5v-1044h-205z" />
<glyph unicode="&#xe0;" horiz-adv-x="970" d="M84 274q0 187 166 281q30 17 64.5 33t80.5 33.5t78.5 29.5t97.5 34.5t97 33.5q-1 91 -47 132.5t-138 41.5q-81 0 -135.5 -33t-103.5 -106l-142 104q66 105 155.5 158t219.5 53q168 0 274.5 -85.5t106.5 -248.5v-735h-190v129q-60 -66 -143 -109t-150 -43 q-132 0 -211.5 80.5t-79.5 216.5zM150 1413h225l180 -244h-160zM301 285q0 -58 31 -90.5t80 -32.5q153 0 256 172v217q-229 -99 -275 -127q-92 -53 -92 -139z" />
<glyph unicode="&#xe1;" horiz-adv-x="970" d="M84 274q0 187 166 281q30 17 64.5 33t80.5 33.5t78.5 29.5t97.5 34.5t97 33.5q-1 91 -47 132.5t-138 41.5q-81 0 -135.5 -33t-103.5 -106l-142 104q66 105 155.5 158t219.5 53q168 0 274.5 -85.5t106.5 -248.5v-735h-190v129q-60 -66 -143 -109t-150 -43 q-132 0 -211.5 80.5t-79.5 216.5zM301 285q0 -58 31 -90.5t80 -32.5q153 0 256 172v217q-229 -99 -275 -127q-92 -53 -92 -139zM401 1171l183 242h223l-254 -242h-152z" />
<glyph unicode="&#xe2;" horiz-adv-x="970" d="M84 274q0 187 166 281q30 17 64.5 33t80.5 33.5t78.5 29.5t97.5 34.5t97 33.5q-1 91 -47 132.5t-138 41.5q-81 0 -135.5 -33t-103.5 -106l-142 104q66 105 155.5 158t219.5 53q168 0 274.5 -85.5t106.5 -248.5v-735h-190v129q-60 -66 -143 -109t-150 -43 q-132 0 -211.5 80.5t-79.5 216.5zM223 1145l199 268h108l199 -268h-149l-103 147l-104 -147h-150zM301 285q0 -58 31 -90.5t80 -32.5q153 0 256 172v217q-229 -99 -275 -127q-92 -53 -92 -139z" />
<glyph unicode="&#xe3;" horiz-adv-x="970" d="M84 274q0 187 166 281q30 17 64.5 33t80.5 33.5t78.5 29.5t97.5 34.5t97 33.5q-1 91 -47 132.5t-138 41.5q-81 0 -135.5 -33t-103.5 -106l-142 104q66 105 155.5 158t219.5 53q168 0 274.5 -85.5t106.5 -248.5v-735h-190v129q-60 -66 -143 -109t-150 -43 q-132 0 -211.5 80.5t-79.5 216.5zM180 1167q0 119 44.5 182.5t123.5 63.5q37 0 68.5 -14.5t53 -34.5t40.5 -40.5t41 -35t45 -14.5q72 0 72 139h110q0 -128 -45.5 -193t-126.5 -65q-44 0 -81.5 21.5t-59.5 48t-50.5 48t-56.5 21.5q-34 0 -53.5 -35t-19.5 -92h-105zM301 285 q0 -58 31 -90.5t80 -32.5q153 0 256 172v217q-229 -99 -275 -127q-92 -53 -92 -139z" />
<glyph unicode="&#xe4;" horiz-adv-x="970" d="M84 274q0 187 166 281q30 17 64.5 33t80.5 33.5t78.5 29.5t97.5 34.5t97 33.5q-1 91 -47 132.5t-138 41.5q-81 0 -135.5 -33t-103.5 -106l-142 104q66 105 155.5 158t219.5 53q168 0 274.5 -85.5t106.5 -248.5v-735h-190v129q-60 -66 -143 -109t-150 -43 q-132 0 -211.5 80.5t-79.5 216.5zM244 1200v213h170v-213h-170zM301 285q0 -58 31 -90.5t80 -32.5q153 0 256 172v217q-229 -99 -275 -127q-92 -53 -92 -139zM543 1200v213h168v-213h-168z" />
<glyph unicode="&#xe5;" horiz-adv-x="970" d="M84 274q0 187 166 281q30 17 64.5 33t80.5 33.5t78.5 29.5t97.5 34.5t97 33.5q-1 91 -47 132.5t-138 41.5q-81 0 -135.5 -33t-103.5 -106l-142 104q66 105 155.5 158t219.5 53q168 0 274.5 -85.5t106.5 -248.5v-735h-190v129q-60 -66 -143 -109t-150 -43 q-132 0 -211.5 80.5t-79.5 216.5zM276 1337q0 91 56.5 150t144.5 59t145.5 -59t57.5 -150t-57.5 -150t-145.5 -59t-144.5 59t-56.5 150zM301 285q0 -58 31 -90.5t80 -32.5q153 0 256 172v217q-229 -99 -275 -127q-92 -53 -92 -139zM377 1337q0 -46 28 -76t72 -30t73.5 30 t29.5 76t-29.5 76.5t-73.5 30.5t-72 -30.5t-28 -76.5z" />
<glyph unicode="&#xe6;" horiz-adv-x="1458" d="M66 276q0 186 157 279q121 73 400 129v31q0 178 -160 178q-150 0 -250 -152l-139 109q60 102 158.5 159.5t222.5 57.5q184 0 284 -115q104 117 291 117q73 0 133.5 -19.5t103.5 -56t74.5 -84.5t50 -108t27 -123.5t8.5 -134.5q0 -56 -6 -80h-598q5 -149 62 -224t176 -75 t211 100l137 -121q-78 -87 -163.5 -125t-192.5 -38q-268 0 -379 221q-59 -111 -144.5 -167.5t-187.5 -56.5q-126 0 -201 80.5t-75 218.5zM287 293q0 -66 34.5 -103.5t94.5 -37.5q73 0 130.5 55.5t71.5 181.5q-8 55 -8 129v12q-183 -42 -250 -92q-73 -55 -73 -145zM827 627 h394q0 119 -45 189.5t-146 70.5q-98 0 -146 -65t-57 -195z" />
<glyph unicode="&#xe7;" horiz-adv-x="886" d="M68 522q0 91 14 171t45.5 149.5t78 119.5t115.5 78.5t154 28.5q151 0 239 -76t128 -223l-176 -63q-37 188 -183 188q-47 0 -83 -21.5t-58 -57t-36 -85.5t-19.5 -101t-5.5 -110q0 -73 9 -134t30.5 -115.5t63 -85.5t99.5 -31q78 0 121.5 48.5t61.5 137.5l170 -57 q-56 -250 -261 -295l-59 -111q68 -27 109.5 -76t38.5 -118q-3 -80 -53.5 -131.5t-125.5 -51.5q-56 0 -101 31.5t-69 83.5l91 66q8 -28 26.5 -47t42.5 -19q64 0 68 70q4 35 -13.5 63.5t-48.5 40.5l-100 41l70 147q-99 5 -174 50.5t-120 121.5t-67 170t-22 203z" />
<glyph unicode="&#xe8;" horiz-adv-x="946" d="M68 518q0 93 13.5 172.5t44.5 150.5t78 120.5t119.5 78.5t163.5 29q88 0 157 -28.5t113.5 -77t74 -117t41.5 -143t12 -160.5q0 -56 -6 -80h-598q5 -150 61.5 -224.5t175.5 -74.5t211 100l137 -121q-78 -87 -163.5 -125t-192.5 -38q-114 0 -200.5 41t-138.5 115 t-77.5 169.5t-25.5 212.5zM156 1413h225l180 -244h-160zM285 627h393q0 119 -45 189.5t-146 70.5q-98 0 -145.5 -64.5t-56.5 -195.5z" />
<glyph unicode="&#xe9;" horiz-adv-x="946" d="M68 518q0 93 13.5 172.5t44.5 150.5t78 120.5t119.5 78.5t163.5 29q88 0 157 -28.5t113.5 -77t74 -117t41.5 -143t12 -160.5q0 -56 -6 -80h-598q5 -150 61.5 -224.5t175.5 -74.5t211 100l137 -121q-78 -87 -163.5 -125t-192.5 -38q-114 0 -200.5 41t-138.5 115 t-77.5 169.5t-25.5 212.5zM285 627h393q0 119 -45 189.5t-146 70.5q-98 0 -145.5 -64.5t-56.5 -195.5zM408 1171l182 242h223l-254 -242h-151z" />
<glyph unicode="&#xea;" horiz-adv-x="946" d="M68 518q0 93 13.5 172.5t44.5 150.5t78 120.5t119.5 78.5t163.5 29q88 0 157 -28.5t113.5 -77t74 -117t41.5 -143t12 -160.5q0 -56 -6 -80h-598q5 -150 61.5 -224.5t175.5 -74.5t211 100l137 -121q-78 -87 -163.5 -125t-192.5 -38q-114 0 -200.5 41t-138.5 115 t-77.5 169.5t-25.5 212.5zM229 1145l199 268h109l198 -268h-149l-103 147l-104 -147h-150zM285 627h393q0 119 -45 189.5t-146 70.5q-98 0 -145.5 -64.5t-56.5 -195.5z" />
<glyph unicode="&#xeb;" horiz-adv-x="946" d="M68 518q0 93 13.5 172.5t44.5 150.5t78 120.5t119.5 78.5t163.5 29q88 0 157 -28.5t113.5 -77t74 -117t41.5 -143t12 -160.5q0 -56 -6 -80h-598q5 -150 61.5 -224.5t175.5 -74.5t211 100l137 -121q-78 -87 -163.5 -125t-192.5 -38q-114 0 -200.5 41t-138.5 115 t-77.5 169.5t-25.5 212.5zM250 1200v213h170v-213h-170zM285 627h393q0 119 -45 189.5t-146 70.5q-98 0 -145.5 -64.5t-56.5 -195.5zM549 1200v213h168v-213h-168z" />
<glyph unicode="&#xec;" horiz-adv-x="460" d="M-96 1413h225l180 -244h-159zM123 0v1049h215v-1049h-215z" />
<glyph unicode="&#xed;" horiz-adv-x="460" d="M123 0v1049h215v-1049h-215zM156 1171l182 242h223l-254 -242h-151z" />
<glyph unicode="&#xee;" horiz-adv-x="460" d="M-23 1145l199 268h109l198 -268h-149l-103 147l-104 -147h-150zM123 0v1049h215v-1049h-215z" />
<glyph unicode="&#xef;" horiz-adv-x="460" d="M-2 1200v213h170v-213h-170zM123 0v1049h215v-1049h-215zM297 1200v213h168v-213h-168z" />
<glyph unicode="&#xf0;" horiz-adv-x="944" d="M61 516q0 152 47.5 273.5t134 190.5t197.5 69q74 0 132.5 -32t86.5 -81q-36 186 -221 313l-65 -121l-82 56l65 116l-120 68l77 148q61 -27 127 -66l68 121l76 -51l-66 -121q192 -135 277.5 -340t85.5 -543q0 -151 -47.5 -270.5t-141 -190.5t-219.5 -71q-129 0 -224 71 t-141.5 190.5t-46.5 270.5zM270 516q0 -99 20.5 -175t67 -124.5t115.5 -48.5q99 0 149 97.5t50 250.5q0 101 -20.5 178t-66.5 123.5t-112 46.5q-69 0 -115.5 -48.5t-67 -124.5t-20.5 -175z" />
<glyph unicode="&#xf1;" horiz-adv-x="997" d="M125 0v1049h211v-148h8q39 77 103.5 122.5t150.5 45.5q131 0 209 -96t78 -258v-715h-213v686q0 108 -37 154.5t-109 46.5q-85 0 -136.5 -71.5t-51.5 -192.5v-623h-213zM201 1171q0 119 44.5 182.5t123.5 63.5q37 0 68 -14.5t52.5 -34.5t41 -40.5t41 -35t44.5 -14.5 q72 0 72 139h111q0 -128 -45.5 -193t-126.5 -65q-44 0 -81.5 21.5t-59.5 48t-50.5 48t-56.5 21.5q-34 0 -54 -35t-20 -92h-104z" />
<glyph unicode="&#xf2;" horiz-adv-x="976" d="M68 520q0 273 115 411t306 138q92 0 167.5 -33t132.5 -98.5t88.5 -172t31.5 -245.5q0 -269 -115.5 -406t-304.5 -137q-190 0 -305.5 137t-115.5 406zM162 1413h225l180 -244h-159zM266 520q0 -358 221 -358q228 0 228 358q0 365 -228 365q-221 0 -221 -365z" />
<glyph unicode="&#xf3;" horiz-adv-x="976" d="M68 520q0 273 115 411t306 138q92 0 167.5 -33t132.5 -98.5t88.5 -172t31.5 -245.5q0 -269 -115.5 -406t-304.5 -137q-190 0 -305.5 137t-115.5 406zM266 520q0 -358 221 -358q228 0 228 358q0 365 -228 365q-221 0 -221 -365zM414 1171l182 242h223l-254 -242h-151z" />
<glyph unicode="&#xf4;" horiz-adv-x="976" d="M68 520q0 273 115 411t306 138q92 0 167.5 -33t132.5 -98.5t88.5 -172t31.5 -245.5q0 -269 -115.5 -406t-304.5 -137q-190 0 -305.5 137t-115.5 406zM236 1145l198 268h109l198 -268h-149l-103 147l-104 -147h-149zM266 520q0 -358 221 -358q228 0 228 358 q0 365 -228 365q-221 0 -221 -365z" />
<glyph unicode="&#xf5;" horiz-adv-x="976" d="M68 520q0 273 115 411t306 138q92 0 167.5 -33t132.5 -98.5t88.5 -172t31.5 -245.5q0 -269 -115.5 -406t-304.5 -137q-190 0 -305.5 137t-115.5 406zM193 1167q0 119 44 182.5t123 63.5q37 0 68.5 -14.5t53 -34.5t40.5 -40.5t41 -35t45 -14.5q72 0 72 139h111 q0 -128 -45.5 -193t-127.5 -65q-36 0 -67 14.5t-52.5 34.5t-40.5 40.5t-41.5 35t-45.5 14.5q-34 0 -54 -35t-20 -92h-104zM266 520q0 -358 221 -358q228 0 228 358q0 365 -228 365q-221 0 -221 -365z" />
<glyph unicode="&#xf6;" horiz-adv-x="976" d="M68 520q0 273 115 411t306 138q92 0 167.5 -33t132.5 -98.5t88.5 -172t31.5 -245.5q0 -269 -115.5 -406t-304.5 -137q-190 0 -305.5 137t-115.5 406zM256 1200v213h170v-213h-170zM266 520q0 -358 221 -358q228 0 228 358q0 365 -228 365q-221 0 -221 -365zM555 1200v213 h168v-213h-168z" />
<glyph unicode="&#xf7;" horiz-adv-x="1359" d="M102 604v160h1155v-160h-1155zM559 131v240h242v-240h-242zM559 981v242h242v-242h-242z" />
<glyph unicode="&#xf8;" horiz-adv-x="976" d="M68 520q0 273 115 411t306 138q177 0 287 -119l35 43l68 -53l-50 -61q80 -138 80 -359q0 -269 -115.5 -406t-304.5 -137q-180 0 -288 117l-33 -41l-68 56l47 57q-79 136 -79 354zM266 520q0 -110 21 -180l368 459q-58 86 -168 86q-221 0 -221 -365zM324 248 q58 -86 163 -86q228 0 228 358q0 103 -21 189z" />
<glyph unicode="&#xf9;" horiz-adv-x="1005" d="M121 336v713h213v-676q0 -112 36.5 -153.5t112.5 -41.5q84 0 134.5 70t50.5 186v615h213v-1049h-209v147h-15q-38 -79 -103.5 -123t-145.5 -44q-138 0 -212.5 93t-74.5 263zM172 1413h225l181 -244h-160z" />
<glyph unicode="&#xfa;" horiz-adv-x="1005" d="M121 336v713h213v-676q0 -112 36.5 -153.5t112.5 -41.5q84 0 134.5 70t50.5 186v615h213v-1049h-209v147h-15q-38 -79 -103.5 -123t-145.5 -44q-138 0 -212.5 93t-74.5 263zM424 1171l182 242h223l-254 -242h-151z" />
<glyph unicode="&#xfb;" horiz-adv-x="1005" d="M121 336v713h213v-676q0 -112 36.5 -153.5t112.5 -41.5q84 0 134.5 70t50.5 186v615h213v-1049h-209v147h-15q-38 -79 -103.5 -123t-145.5 -44q-138 0 -212.5 93t-74.5 263zM246 1145l198 268h109l199 -268h-150l-102 147l-105 -147h-149z" />
<glyph unicode="&#xfc;" horiz-adv-x="1005" d="M121 336v713h213v-676q0 -112 36.5 -153.5t112.5 -41.5q84 0 134.5 70t50.5 186v615h213v-1049h-209v147h-15q-38 -79 -103.5 -123t-145.5 -44q-138 0 -212.5 93t-74.5 263zM266 1200v213h170v-213h-170zM565 1200v213h168v-213h-168z" />
<glyph unicode="&#xfd;" horiz-adv-x="847" d="M14 1049h228l153 -654q27 -122 27 -151h10q0 55 25 153l153 652h232l-328 -1098q-96 -316 -436 -316v172q51 0 89 11t61.5 27t41.5 45t27 55t20 67zM350 1171l182 242h224l-254 -242h-152z" />
<glyph unicode="&#xfe;" horiz-adv-x="1005" d="M123 -365v1778h219v-534q103 141 266 141q155 0 242.5 -141.5t87.5 -378.5t-87.5 -378.5t-242.5 -141.5q-168 0 -262 139h-8v-484h-215zM332 506q0 -101 20.5 -177.5t66.5 -123.5t113 -47q101 0 153 96.5t52 251.5t-52 252.5t-153 97.5q-99 0 -149.5 -97.5t-50.5 -252.5z " />
<glyph unicode="&#xff;" horiz-adv-x="847" d="M14 1049h228l153 -654q27 -122 27 -151h10q0 55 25 153l153 652h232l-328 -1098q-96 -316 -436 -316v172q51 0 89 11t61.5 27t41.5 45t27 55t20 67zM193 1200v213h169v-213h-169zM492 1200v213h167v-213h-167z" />
<glyph unicode="&#x100;" horiz-adv-x="1007" d="M0 0l360 1413h287l361 -1413h-234l-63 291h-412l-66 -291h-233zM281 1597v125h454v-125h-454zM340 471h332l-146 674l-16 86h-6l-19 -86z" />
<glyph unicode="&#x101;" horiz-adv-x="970" d="M84 274q0 187 166 281q30 17 64.5 33t80.5 33.5t78.5 29.5t97.5 34.5t97 33.5q-1 91 -47 132.5t-138 41.5q-81 0 -135.5 -33t-103.5 -106l-142 104q66 105 155.5 158t219.5 53q168 0 274.5 -85.5t106.5 -248.5v-735h-190v129q-60 -66 -143 -109t-150 -43 q-132 0 -211.5 80.5t-79.5 216.5zM252 1235v125h455v-125h-455zM301 285q0 -58 31 -90.5t80 -32.5q153 0 256 172v217q-229 -99 -275 -127q-92 -53 -92 -139z" />
<glyph unicode="&#x102;" horiz-adv-x="1007" d="M0 0l360 1413h287l361 -1413h-234l-63 291h-412l-66 -291h-233zM254 1776h139q0 -68 32.5 -106t80.5 -38q53 0 84 38.5t31 105.5h141q0 -131 -68.5 -201t-187.5 -70q-118 0 -185 71t-67 200zM340 471h332l-146 674l-16 86h-6l-19 -86z" />
<glyph unicode="&#x103;" horiz-adv-x="970" d="M84 274q0 187 166 281q30 17 64.5 33t80.5 33.5t78.5 29.5t97.5 34.5t97 33.5q-1 91 -47 132.5t-138 41.5q-81 0 -135.5 -33t-103.5 -106l-142 104q66 105 155.5 158t219.5 53q168 0 274.5 -85.5t106.5 -248.5v-735h-190v129q-60 -66 -143 -109t-150 -43 q-132 0 -211.5 80.5t-79.5 216.5zM225 1413h140q0 -68 32 -105.5t80 -37.5q53 0 84 38t31 105h141q0 -131 -68.5 -200.5t-187.5 -69.5q-118 0 -185 70.5t-67 199.5zM301 285q0 -58 31 -90.5t80 -32.5q153 0 256 172v217q-229 -99 -275 -127q-92 -53 -92 -139z" />
<glyph unicode="&#x104;" horiz-adv-x="1007" d="M0 0l360 1413h287l361 -1413q-146 -120 -146 -229q0 -50 20 -75t48 -22q39 3 67 60l105 -74q-63 -119 -178 -119q-73 0 -129 55.5t-56 151.5q0 121 131 252h-96l-63 291h-412l-66 -291h-233zM340 471h332l-146 674l-16 86h-6l-19 -86z" />
<glyph unicode="&#x105;" horiz-adv-x="970" d="M84 274q0 187 166 281q30 17 64.5 33t80.5 33.5t78.5 29.5t97.5 34.5t97 33.5q-1 91 -47 132.5t-138 41.5q-81 0 -135.5 -33t-103.5 -106l-142 104q66 105 155.5 158t219.5 53q168 0 274.5 -85.5t106.5 -248.5v-735q-145 -119 -145 -229q0 -50 19.5 -75t47.5 -22 q41 4 68 60l104 -74q-63 -119 -178 -119q-73 0 -128.5 55.5t-55.5 151.5q0 121 131 252h-53v129q-60 -66 -143 -109t-150 -43q-132 0 -211.5 80.5t-79.5 216.5zM301 285q0 -58 31 -90.5t80 -32.5q153 0 256 172v217q-229 -99 -275 -127q-92 -53 -92 -139z" />
<glyph unicode="&#x106;" horiz-adv-x="1081" d="M61 707q0 161 31.5 292.5t93 230t160.5 152.5t227 54q173 0 296.5 -105t164.5 -291l-186 -61q-27 120 -95 189t-175 69q-145 0 -222 -138t-77 -384q0 -251 78.5 -394t222.5 -143q99 0 168.5 71t99.5 191l188 -63q-41 -186 -164.5 -291.5t-296.5 -105.5q-129 0 -228.5 54 t-161 152t-93 229t-31.5 292zM483 1534l183 242h223l-254 -242h-152z" />
<glyph unicode="&#x107;" horiz-adv-x="886" d="M68 522q0 91 14 171t45.5 149.5t78 119.5t115.5 78.5t154 28.5q151 0 239 -76t128 -223l-176 -63q-37 188 -183 188q-47 0 -83 -21.5t-58 -57t-36 -85.5t-19.5 -101t-5.5 -110q0 -73 9 -134t30.5 -115.5t63 -85.5t99.5 -31q78 0 121.5 48.5t61.5 137.5l170 -57 q-69 -306 -361 -306q-106 0 -186 43.5t-127 120.5t-70.5 172.5t-23.5 208.5zM379 1171l182 242h223l-254 -242h-151z" />
<glyph unicode="&#x10a;" horiz-adv-x="1081" d="M61 707q0 161 31.5 292.5t93 230t160.5 152.5t227 54q173 0 296.5 -105t164.5 -291l-186 -61q-27 120 -95 189t-175 69q-145 0 -222 -138t-77 -384q0 -251 78.5 -394t222.5 -143q99 0 168.5 71t99.5 191l188 -63q-41 -186 -164.5 -291.5t-296.5 -105.5q-129 0 -228.5 54 t-161 152t-93 229t-31.5 292zM477 1567v209h164v-209h-164z" />
<glyph unicode="&#x10b;" horiz-adv-x="886" d="M68 522q0 91 14 171t45.5 149.5t78 119.5t115.5 78.5t154 28.5q151 0 239 -76t128 -223l-176 -63q-37 188 -183 188q-47 0 -83 -21.5t-58 -57t-36 -85.5t-19.5 -101t-5.5 -110q0 -73 9 -134t30.5 -115.5t63 -85.5t99.5 -31q78 0 121.5 48.5t61.5 137.5l170 -57 q-69 -306 -361 -306q-106 0 -186 43.5t-127 120.5t-70.5 172.5t-23.5 208.5zM373 1204v209h164v-209h-164z" />
<glyph unicode="&#x10c;" horiz-adv-x="1081" d="M61 707q0 161 31.5 292.5t93 230t160.5 152.5t227 54q173 0 296.5 -105t164.5 -291l-186 -61q-27 120 -95 189t-175 69q-145 0 -222 -138t-77 -384q0 -251 78.5 -394t222.5 -143q99 0 168.5 71t99.5 191l188 -63q-41 -186 -164.5 -291.5t-296.5 -105.5q-129 0 -228.5 54 t-161 152t-93 229t-31.5 292zM307 1776h150l102 -142l103 142h149l-199 -267h-108z" />
<glyph unicode="&#x10d;" horiz-adv-x="886" d="M68 522q0 91 14 171t45.5 149.5t78 119.5t115.5 78.5t154 28.5q151 0 239 -76t128 -223l-176 -63q-37 188 -183 188q-47 0 -83 -21.5t-58 -57t-36 -85.5t-19.5 -101t-5.5 -110q0 -73 9 -134t30.5 -115.5t63 -85.5t99.5 -31q78 0 121.5 48.5t61.5 137.5l170 -57 q-69 -306 -361 -306q-106 0 -186 43.5t-127 120.5t-70.5 172.5t-23.5 208.5zM203 1413h149l103 -141l102 141h150l-199 -266h-109z" />
<glyph unicode="&#x10e;" horiz-adv-x="1122" d="M131 0v1413h336q290 0 441 -184t151 -529q0 -338 -153 -519t-441 -181h-334zM256 1776h150l102 -142l102 142h150l-199 -267h-108zM354 201h90q199 0 296.5 126t97.5 382q0 253 -92.5 378t-282.5 125h-109v-1011z" />
<glyph unicode="&#x10f;" horiz-adv-x="1212" d="M68 524q0 269 93 407t269 138q87 0 157.5 -42.5t110.5 -111.5v498h213v-1413h-209v133h-4q-37 -69 -106 -112.5t-158 -43.5q-178 0 -272 138.5t-94 408.5zM285 526q0 -190 51.5 -277t161.5 -87q97 0 152 96.5t55 267.5q0 166 -55 261.5t-152 95.5q-109 0 -161 -86 t-52 -271zM1006 1188v225h227v-225h2l-129 -279h-98l86 279h-88z" />
<glyph unicode="&#x110;" horiz-adv-x="1114" d="M35 643v139h88v631h336q290 0 441 -184t151 -529q0 -338 -153 -519t-441 -181h-334v643h-88zM346 201h90q199 0 296 126t97 382q0 253 -92 378t-282 125h-109v-430h252v-139h-252v-442z" />
<glyph unicode="&#x111;" horiz-adv-x="1036" d="M68 524q0 269 93 407t269 138q87 0 157.5 -42.5t110.5 -111.5v297h-209v109h209v92h213v-92h105v-109h-105v-1212h-209v133h-4q-37 -69 -106 -112.5t-158 -43.5q-178 0 -272 138.5t-94 408.5zM285 526q0 -190 51.5 -277t161.5 -87q97 0 152 96.5t55 267.5 q0 166 -55 261.5t-152 95.5q-109 0 -161 -86t-52 -271z" />
<glyph unicode="&#x112;" horiz-adv-x="978" d="M131 0v1413h760v-192h-537v-418h477v-193h-477v-417h537v-193h-760zM287 1597v125h454v-125h-454z" />
<glyph unicode="&#x113;" horiz-adv-x="946" d="M68 518q0 93 13.5 172.5t44.5 150.5t78 120.5t119.5 78.5t163.5 29q88 0 157 -28.5t113.5 -77t74 -117t41.5 -143t12 -160.5q0 -56 -6 -80h-598q5 -150 61.5 -224.5t175.5 -74.5t211 100l137 -121q-78 -87 -163.5 -125t-192.5 -38q-114 0 -200.5 41t-138.5 115 t-77.5 169.5t-25.5 212.5zM258 1235v125h455v-125h-455zM285 627h393q0 119 -45 189.5t-146 70.5q-98 0 -145.5 -64.5t-56.5 -195.5z" />
<glyph unicode="&#x116;" horiz-adv-x="978" d="M131 0v1413h760v-192h-537v-418h477v-193h-477v-417h537v-193h-760zM430 1567v209h164v-209h-164z" />
<glyph unicode="&#x117;" horiz-adv-x="946" d="M68 518q0 93 13.5 172.5t44.5 150.5t78 120.5t119.5 78.5t163.5 29q88 0 157 -28.5t113.5 -77t74 -117t41.5 -143t12 -160.5q0 -56 -6 -80h-598q5 -150 61.5 -224.5t175.5 -74.5t211 100l137 -121q-78 -87 -163.5 -125t-192.5 -38q-114 0 -200.5 41t-138.5 115 t-77.5 169.5t-25.5 212.5zM285 627h393q0 119 -45 189.5t-146 70.5q-98 0 -145.5 -64.5t-56.5 -195.5zM401 1204v209h164v-209h-164z" />
<glyph unicode="&#x118;" horiz-adv-x="978" d="M131 0v1413h760v-192h-537v-418h477v-193h-477v-417h537v-193q-146 -120 -146 -229q0 -50 20 -75t48 -22q41 4 68 60l104 -74q-63 -119 -178 -119q-73 0 -128.5 55.5t-55.5 151.5q0 121 131 252h-623z" />
<glyph unicode="&#x119;" horiz-adv-x="946" d="M68 518q0 93 13.5 172.5t44.5 150.5t78 120.5t119.5 78.5t163.5 29q88 0 157 -28.5t113.5 -77t74 -117t41.5 -143t12 -160.5q0 -56 -6 -80h-598q5 -150 61.5 -224.5t175.5 -74.5t211 100l137 -121q-37 -43 -75 -71q-70 -79 -70 -158q0 -50 19.5 -74.5t47.5 -21.5 q41 4 68 59l105 -74q-62 -118 -179 -118q-73 0 -128.5 55t-55.5 151q0 47 20 99q-58 -10 -108 -10q-114 0 -200.5 41t-138.5 115t-77.5 169.5t-25.5 212.5zM285 627h393q0 119 -45 189.5t-146 70.5q-98 0 -145.5 -64.5t-56.5 -195.5z" />
<glyph unicode="&#x11a;" horiz-adv-x="978" d="M131 0v1413h760v-192h-537v-418h477v-193h-477v-417h537v-193h-760zM260 1776h150l102 -142l102 142h150l-199 -267h-108z" />
<glyph unicode="&#x11b;" horiz-adv-x="946" d="M68 518q0 93 13.5 172.5t44.5 150.5t78 120.5t119.5 78.5t163.5 29q88 0 157 -28.5t113.5 -77t74 -117t41.5 -143t12 -160.5q0 -56 -6 -80h-598q5 -150 61.5 -224.5t175.5 -74.5t211 100l137 -121q-78 -87 -163.5 -125t-192.5 -38q-114 0 -200.5 41t-138.5 115 t-77.5 169.5t-25.5 212.5zM231 1413h150l102 -141l103 141h149l-198 -266h-109zM285 627h393q0 119 -45 189.5t-146 70.5q-98 0 -145.5 -64.5t-56.5 -195.5z" />
<glyph unicode="&#x11e;" horiz-adv-x="1212" d="M61 713q0 119 18.5 223.5t59.5 197t101.5 159t151 105t202.5 38.5q195 0 311 -98t174 -287l-190 -60q-40 129 -107.5 188.5t-179.5 59.5q-75 0 -131.5 -28t-91.5 -75t-57 -116t-30.5 -143t-8.5 -164q0 -533 315 -533q105 0 177.5 63.5t98.5 176.5q18 64 21 145h-231v183 h432v-748h-183l-4 201q-37 -97 -124 -159t-205 -62q-110 0 -198 38.5t-147 105.5t-99 160.5t-57.5 200t-17.5 228.5zM340 1776h139q0 -68 32.5 -106t80.5 -38q53 0 84 38.5t31 105.5h141q0 -131 -68.5 -201t-187.5 -70q-118 0 -185 71t-67 200z" />
<glyph unicode="&#x11f;" horiz-adv-x="1034" d="M68 549q0 234 98 377t272 143q85 0 153 -36.5t103 -108.5v125h215v-1016q0 -104 -34.5 -185.5t-93.5 -131.5t-134.5 -75.5t-161.5 -25.5q-114 0 -222.5 51t-168.5 150l115 116q53 -78 125.5 -115.5t142.5 -37.5q97 0 158 67t61 181v145q-32 -69 -100 -110.5t-160 -41.5 q-173 0 -270.5 147t-97.5 382zM240 1413h139q0 -68 32.5 -105.5t80.5 -37.5q53 0 83.5 38t30.5 105h142q0 -131 -68.5 -200.5t-187.5 -69.5q-118 0 -185 70.5t-67 199.5zM285 543q0 -157 52.5 -252.5t160.5 -95.5q106 0 156.5 89.5t50.5 245.5q0 103 -20 181.5t-68.5 130 t-122.5 51.5q-104 0 -156.5 -96t-52.5 -254z" />
<glyph unicode="&#x120;" horiz-adv-x="1212" d="M61 713q0 119 18.5 223.5t59.5 197t101.5 159t151 105t202.5 38.5q195 0 311 -98t174 -287l-190 -60q-40 129 -107.5 188.5t-179.5 59.5q-75 0 -131.5 -28t-91.5 -75t-57 -116t-30.5 -143t-8.5 -164q0 -533 315 -533q105 0 177.5 63.5t98.5 176.5q18 64 21 145h-231v183 h432v-748h-183l-4 201q-37 -97 -124 -159t-205 -62q-110 0 -198 38.5t-147 105.5t-99 160.5t-57.5 200t-17.5 228.5zM510 1567v209h164v-209h-164z" />
<glyph unicode="&#x121;" horiz-adv-x="1034" d="M68 549q0 234 98 377t272 143q85 0 153 -36.5t103 -108.5v125h215v-1016q0 -104 -34.5 -185.5t-93.5 -131.5t-134.5 -75.5t-161.5 -25.5q-114 0 -222.5 51t-168.5 150l115 116q53 -78 125.5 -115.5t142.5 -37.5q97 0 158 67t61 181v145q-32 -69 -100 -110.5t-160 -41.5 q-173 0 -270.5 147t-97.5 382zM285 543q0 -157 52.5 -252.5t160.5 -95.5q106 0 156.5 89.5t50.5 245.5q0 103 -20 181.5t-68.5 130t-122.5 51.5q-104 0 -156.5 -96t-52.5 -254zM410 1204v209h163v-209h-163z" />
<glyph unicode="&#x122;" horiz-adv-x="1212" d="M61 713q0 119 18.5 223.5t59.5 197t101.5 159t151 105t202.5 38.5q195 0 311 -98t174 -287l-190 -60q-40 129 -107.5 188.5t-179.5 59.5q-75 0 -131.5 -28t-91.5 -75t-57 -116t-30.5 -143t-8.5 -164q0 -533 315 -533q105 0 177.5 63.5t98.5 176.5q18 64 21 145h-231v183 h432v-748h-183l-4 201q-37 -97 -124 -159t-205 -62q-110 0 -198 38.5t-147 105.5t-99 160.5t-57.5 200t-17.5 228.5zM389 -440l109 301h215l-205 -301h-119z" />
<glyph unicode="&#x123;" horiz-adv-x="1028" d="M68 549q0 234 98 377t272 143q85 0 153 -36.5t103 -108.5v125h215v-1016q0 -104 -34.5 -185.5t-93.5 -131.5t-134.5 -75.5t-161.5 -25.5q-114 0 -222.5 51t-168.5 150l115 116q53 -78 125.5 -115.5t142.5 -37.5q97 0 158 67t61 181v145q-32 -69 -100 -110.5t-160 -41.5 q-173 0 -270.5 147t-97.5 382zM285 543q0 -157 52.5 -252.5t160.5 -95.5q106 0 156.5 89.5t50.5 245.5q0 103 -20 181.5t-68.5 130t-122.5 51.5q-104 0 -156.5 -96t-52.5 -254zM420 1143l205 268h118l-108 -268h-215z" />
<glyph unicode="&#x126;" horiz-adv-x="1181" d="M49 1065v98h82v248h223v-248h475v248h222v-248h82v-98h-82v-1065h-222v608h-475v-608h-223v1065h-82zM354 805h475v260h-475v-260z" />
<glyph unicode="&#x127;" horiz-adv-x="997" d="M8 1159v109h117v145h213v-145h197v-109h-197v-258h8q39 78 105.5 123t148.5 45q137 0 211 -84t74 -233v-752h-213v719q0 90 -36 129t-112 39q-83 0 -134.5 -76.5t-51.5 -192.5v-618h-213v1159h-117z" />
<glyph unicode="&#x128;" horiz-adv-x="485" d="M-57 1530q0 119 44.5 182.5t123.5 63.5q37 0 68 -14.5t52.5 -35t41 -41t41 -35t44.5 -14.5q72 0 72 140h111q0 -128 -45.5 -193t-126.5 -65q-44 0 -81.5 21.5t-59.5 48t-50.5 48t-56.5 21.5q-34 0 -54 -35t-20 -92h-104zM131 0v1413h223v-1413h-223z" />
<glyph unicode="&#x129;" horiz-adv-x="460" d="M-66 1167q0 119 44.5 182.5t123.5 63.5q37 0 68.5 -14.5t53 -34.5t40.5 -40.5t41 -35t45 -14.5q72 0 72 139h110q0 -128 -45.5 -193t-126.5 -65q-36 0 -67 14.5t-52.5 34.5t-40.5 40.5t-41.5 35t-45.5 14.5q-34 0 -54 -35t-20 -92h-105zM123 0v1049h215v-1049h-215z" />
<glyph unicode="&#x12a;" horiz-adv-x="485" d="M14 1597v125h455v-125h-455zM131 0v1413h223v-1413h-223z" />
<glyph unicode="&#x12b;" horiz-adv-x="460" d="M6 1235v125h455v-125h-455zM123 0v1049h215v-1049h-215z" />
<glyph unicode="&#x12e;" horiz-adv-x="485" d="M86 -252q0 121 131 252h-86v1413h223v-1413q-145 -119 -145 -229q0 -50 19.5 -75t47.5 -22q41 4 68 60l105 -74q-63 -119 -179 -119q-73 0 -128.5 55.5t-55.5 151.5z" />
<glyph unicode="&#x12f;" horiz-adv-x="464" d="M70 -252q0 121 131 252h-76v1049h215v-1049h-2q-145 -119 -145 -229q0 -50 19.5 -75t47.5 -22q41 4 68 60l104 -74q-63 -119 -178 -119q-73 0 -128.5 55.5t-55.5 151.5zM125 1202v211h215v-211h-215z" />
<glyph unicode="&#x130;" horiz-adv-x="485" d="M131 0v1413h223v-1413h-223zM158 1567v209h164v-209h-164z" />
<glyph unicode="&#x131;" horiz-adv-x="460" d="M123 0v1049h215v-1049h-215z" />
<glyph unicode="&#x136;" horiz-adv-x="1138" d="M131 0v1411h223v-633l467 633h269l-420 -530l454 -881h-264l-328 707l-178 -226v-481h-223zM377 -440l108 301h215l-204 -301h-119z" />
<glyph unicode="&#x137;" horiz-adv-x="958" d="M125 0v1413h213v-792l342 428h246l-346 -404l385 -645h-242l-285 487l-100 -114v-373h-213zM297 -440l109 301h215l-205 -301h-119z" />
<glyph unicode="&#x138;" horiz-adv-x="950" d="M121 0v1049h213v-424l334 424h254l-347 -404l379 -645h-245l-273 483l-102 -118v-365h-213z" />
<glyph unicode="&#x139;" horiz-adv-x="819" d="M131 0v1413h223v-1220h443v-193h-666zM166 1536l182 242h223l-254 -242h-151z" />
<glyph unicode="&#x13a;" horiz-adv-x="460" d="M123 0v1413h215v-1413h-215zM154 1536l182 242h223l-254 -242h-151z" />
<glyph unicode="&#x13b;" horiz-adv-x="819" d="M131 0v1413h223v-1220h443v-193h-666zM274 -440l109 301h215l-205 -301h-119z" />
<glyph unicode="&#x13c;" horiz-adv-x="460" d="M18 -440l109 301h215l-205 -301h-119zM123 0v1413h215v-1413h-215z" />
<glyph unicode="&#x13d;" horiz-adv-x="868" d="M131 0v1413h223v-1220h443v-193h-666zM588 1165v250h250v-250h2l-144 -307h-106l94 307h-96z" />
<glyph unicode="&#x13e;" horiz-adv-x="679" d="M123 0v1413h215v-1413h-215zM418 1165v250h250v-250h2l-144 -307h-106l94 307h-96z" />
<glyph unicode="&#x141;" horiz-adv-x="819" d="M0 340v160l131 118v795h223v-594l162 146v-170l-162 -144v-458h443v-193h-666v455z" />
<glyph unicode="&#x142;" horiz-adv-x="460" d="M-27 414v164l150 133v702h215v-510l164 148v-174l-164 -144v-733h-215v545z" />
<glyph unicode="&#x143;" horiz-adv-x="1224" d="M131 0v1413h297l444 -1137h7v1137h215v-1413h-299l-443 1147h-6v-1147h-215zM537 1536l182 242h223l-254 -242h-151z" />
<glyph unicode="&#x144;" horiz-adv-x="997" d="M125 0v1049h211v-148h8q39 77 103.5 122.5t150.5 45.5q131 0 209 -96t78 -258v-715h-213v686q0 108 -37 154.5t-109 46.5q-85 0 -136.5 -71.5t-51.5 -192.5v-623h-213zM422 1176l182 241h223l-254 -241h-151z" />
<glyph unicode="&#x145;" horiz-adv-x="1224" d="M131 0v1413h297l444 -1137h7v1137h215v-1413h-299l-443 1147h-6v-1147h-215zM401 -440l109 301h215l-205 -301h-119z" />
<glyph unicode="&#x146;" horiz-adv-x="997" d="M125 0v1049h211v-148h8q39 77 103.5 122.5t150.5 45.5q131 0 209 -96t78 -258v-715h-213v686q0 108 -37 154.5t-109 46.5q-85 0 -136.5 -71.5t-51.5 -192.5v-623h-213zM293 -440l108 301h215l-204 -301h-119z" />
<glyph unicode="&#x147;" horiz-adv-x="1224" d="M131 0v1413h297l444 -1137h7v1137h215v-1413h-299l-443 1147h-6v-1147h-215zM360 1778h150l102 -142l103 142h149l-198 -267h-109z" />
<glyph unicode="&#x148;" horiz-adv-x="997" d="M125 0v1049h211v-148h8q39 77 103.5 122.5t150.5 45.5q131 0 209 -96t78 -258v-715h-213v686q0 108 -37 154.5t-109 46.5q-85 0 -136.5 -71.5t-51.5 -192.5v-623h-213zM246 1417h149l103 -141l102 141h150l-199 -266h-109z" />
<glyph unicode="&#x14a;" horiz-adv-x="1224" d="M131 0v1413h297l444 -1137h7v1137h215v-1413q0 -289 -240 -289h-133v125q112 0 147 33.5t35 130.5h-108l-443 1147h-6v-1147h-215z" />
<glyph unicode="&#x14b;" horiz-adv-x="1003" d="M121 0v999h201v-161h12q41 90 109 134t145 44q78 0 136.5 -34t92 -93.5t50 -130.5t16.5 -154v-602q0 -25 -1 -43t-6 -51t-15 -56.5t-30.5 -52t-48.5 -46t-72 -30t-100 -12.5h-102v146h65q31 0 52.5 16.5t31 42.5t13.5 47t4 41v567q0 106 -39.5 179t-116.5 73 q-79 0 -133.5 -79t-54.5 -193v-551h-209z" />
<glyph unicode="&#x14c;" horiz-adv-x="1196" d="M61 707q0 335 143 531t392 196q250 0 394.5 -196.5t144.5 -530.5t-144.5 -530.5t-394.5 -196.5q-249 0 -392 196t-143 531zM295 707q0 -247 80 -385t223 -138t223 138t80 385q0 249 -80 387.5t-223 138.5t-223 -138.5t-80 -387.5zM371 1597v125h454v-125h-454z" />
<glyph unicode="&#x14d;" horiz-adv-x="976" d="M68 520q0 273 115 411t306 138q92 0 167.5 -33t132.5 -98.5t88.5 -172t31.5 -245.5q0 -269 -115.5 -406t-304.5 -137q-190 0 -305.5 137t-115.5 406zM264 1235v125h455v-125h-455zM266 520q0 -358 221 -358q228 0 228 358q0 365 -228 365q-221 0 -221 -365z" />
<glyph unicode="&#x150;" horiz-adv-x="1196" d="M61 707q0 335 143 531t392 196q250 0 394.5 -196.5t144.5 -530.5t-144.5 -530.5t-394.5 -196.5q-249 0 -392 196t-143 531zM295 707q0 -247 80 -385t223 -138t223 138t80 385q0 249 -80 387.5t-223 138.5t-223 -138.5t-80 -387.5zM346 1542l164 234h186l-192 -234h-158z M643 1542l166 234h211l-221 -234h-156z" />
<glyph unicode="&#x151;" horiz-adv-x="976" d="M68 520q0 273 115 411t306 138q92 0 167.5 -33t132.5 -98.5t88.5 -172t31.5 -245.5q0 -269 -115.5 -406t-304.5 -137q-190 0 -305.5 137t-115.5 406zM240 1180l163 233h187l-193 -233h-157zM266 520q0 -358 221 -358q228 0 228 358q0 365 -228 365q-221 0 -221 -365z M537 1180l165 233h211l-221 -233h-155z" />
<glyph unicode="&#x152;" horiz-adv-x="1812" d="M61 707q0 335 143 531t392 196q242 0 385 -185v162h743v-197h-553v-409h484v-197h-484v-407h553v-201h-743v164q-142 -184 -385 -184q-249 0 -392 196t-143 531zM295 707q0 -247 80 -385t223 -138t223 138t80 385q0 249 -80 387.5t-223 138.5t-223 -138.5t-80 -387.5z " />
<glyph unicode="&#x153;" horiz-adv-x="1570" d="M68 520q0 273 115 411t306 138q212 0 324 -164q108 164 328 164q73 0 133.5 -19.5t103.5 -56t74.5 -84.5t50 -108t27 -123.5t8.5 -134.5q0 -56 -6 -80h-598q5 -150 61.5 -224.5t175.5 -74.5t211 100l138 -121q-78 -87 -164 -125t-193 -38q-230 0 -346 165 q-111 -168 -328 -168q-190 0 -305.5 137t-115.5 406zM266 520q0 -358 221 -358q228 0 228 358q0 365 -228 365q-221 0 -221 -365zM938 627h393q0 260 -190 260q-98 0 -146 -65t-57 -195z" />
<glyph unicode="&#x154;" horiz-adv-x="1110" d="M131 -2v1415h528q165 0 269 -109t104 -296q0 -136 -57 -233t-160 -138l270 -639h-247l-236 610h-248v-610h-223zM354 793h275q186 8 186 213q0 213 -199 213h-262v-426zM444 1534l183 242h223l-254 -242h-152z" />
<glyph unicode="&#x155;" horiz-adv-x="659" d="M125 0v1049h209v-166h4q29 87 80.5 134.5t113.5 47.5t97 -18v-189q-71 18 -113 12q-178 -24 -178 -327v-543h-213zM301 1171l182 242h224l-254 -242h-152z" />
<glyph unicode="&#x156;" horiz-adv-x="1110" d="M131 -2v1415h528q165 0 269 -109t104 -296q0 -136 -57 -233t-160 -138l270 -639h-247l-236 610h-248v-610h-223zM354 793h275q186 8 186 213q0 213 -199 213h-262v-426zM416 -440l108 301h215l-204 -301h-119z" />
<glyph unicode="&#x157;" horiz-adv-x="659" d="M20 -440l109 301h215l-205 -301h-119zM125 0v1049h209v-166h4q29 87 80.5 134.5t113.5 47.5t97 -18v-189q-71 18 -113 12q-178 -24 -178 -327v-543h-213z" />
<glyph unicode="&#x158;" horiz-adv-x="1110" d="M131 -2v1415h528q165 0 269 -109t104 -296q0 -136 -57 -233t-160 -138l270 -639h-247l-236 610h-248v-610h-223zM268 1776h150l102 -142l103 142h149l-199 -267h-108zM354 793h275q186 8 186 213q0 213 -199 213h-262v-426z" />
<glyph unicode="&#x159;" horiz-adv-x="659" d="M125 0v1049h209v-166h4q29 87 80.5 134.5t113.5 47.5t97 -18v-189q-71 18 -113 12q-178 -24 -178 -327v-543h-213zM125 1413h149l103 -141l102 141h150l-199 -266h-108z" />
<glyph unicode="&#x15a;" horiz-adv-x="925" d="M29 336l166 104q33 -133 107 -196.5t165 -63.5q86 0 130 50.5t44 144.5q0 46 -14 86t-32.5 66.5t-55.5 55.5t-62.5 45t-75.5 44q-44 24 -63.5 35.5t-59.5 38t-60.5 46t-49 52.5t-42.5 65.5t-25 76.5t-11 93q0 160 100.5 256.5t272.5 96.5q114 0 206.5 -54t172.5 -166 l-135 -127q-94 158 -240 158q-80 0 -122 -47t-42 -117q0 -23 6.5 -44.5t15.5 -38t27 -35t32.5 -30.5t41 -29.5t43 -27t47.5 -27.5t47 -28q52 -30 84.5 -52t77 -62.5t70.5 -82t44.5 -104t18.5 -135.5q0 -181 -104 -291t-283 -110q-153 0 -271.5 89t-170.5 265zM377 1534 l182 242h223l-254 -242h-151z" />
<glyph unicode="&#x15b;" horiz-adv-x="800" d="M35 188l115 136q47 -72 101 -116t136 -52q71 -5 121 28t53 103q0 22 -5.5 41t-12.5 32.5t-24.5 26.5t-28.5 20.5t-38 18.5t-40 15.5t-47 15.5q-39 14 -60.5 22t-56 24t-54.5 30.5t-45 38.5t-38 49.5t-22 62t-9 78.5q0 146 93 226.5t237 80.5q210 0 338 -174l-105 -131 q-85 127 -205 137q-70 4 -113.5 -30t-45.5 -89q-1 -24 8.5 -43.5t24.5 -33.5t40.5 -27t51 -23t61.5 -23q20 -7 31 -11q49 -18 82.5 -34t71 -42.5t60 -57t37.5 -76t15 -102.5q0 -152 -94 -242t-246 -90q-111 0 -214 58t-173 153zM322 1171l182 242h223l-254 -242h-151z" />
<glyph unicode="&#x15e;" horiz-adv-x="925" d="M29 336l166 104q33 -133 107 -196.5t165 -63.5q86 0 130 50.5t44 144.5q0 46 -14 86t-32.5 66.5t-55.5 55.5t-62.5 45t-75.5 44q-44 24 -63.5 35.5t-59.5 38t-60.5 46t-49 52.5t-42.5 65.5t-25 76.5t-11 93q0 160 100.5 256.5t272.5 96.5q114 0 206.5 -54t172.5 -166 l-135 -127q-94 158 -240 158q-80 0 -122 -47t-42 -117q0 -23 6.5 -44.5t15.5 -38t27 -35t32.5 -30.5t41 -29.5t43 -27t47.5 -27.5t47 -28q52 -30 84.5 -52t77 -62.5t70.5 -82t44.5 -104t18.5 -135.5q0 -166 -88.5 -273t-245.5 -126l-57 -109q68 -27 109 -76t38 -118 q-3 -80 -53 -131.5t-125 -51.5q-56 0 -101 31.5t-69 83.5l90 65q8 -27 27 -46t43 -19q64 0 68 70q4 35 -13.5 63.5t-48.5 40.5l-100 41l74 158q-132 18 -231.5 106t-145.5 244z" />
<glyph unicode="&#x15f;" horiz-adv-x="800" d="M35 188l115 136q47 -72 101 -116t136 -52q71 -5 121 28t53 103q0 22 -5.5 41t-12.5 32.5t-24.5 26.5t-28.5 20.5t-38 18.5t-40 15.5t-47 15.5q-39 14 -60.5 22t-56 24t-54.5 30.5t-45 38.5t-38 49.5t-22 62t-9 78.5q0 146 93 226.5t237 80.5q210 0 338 -174l-105 -131 q-85 127 -205 137q-70 4 -113.5 -30t-45.5 -89q-1 -24 8.5 -43.5t24.5 -33.5t40.5 -27t51 -23t61.5 -23q20 -7 31 -11q49 -18 82.5 -34t71 -42.5t60 -57t37.5 -76t15 -102.5q0 -132 -71 -217.5t-191 -107.5l-58 -107q68 -27 109.5 -76t38.5 -118q-3 -80 -53 -131.5 t-125 -51.5q-56 0 -101 31.5t-69 83.5l90 66q8 -28 26.5 -47t42.5 -19q64 0 68 70q4 35 -13 63.5t-48 40.5l-101 41l70 150q-99 12 -189 67.5t-153 140.5z" />
<glyph unicode="&#x160;" horiz-adv-x="925" d="M29 336l166 104q33 -133 107 -196.5t165 -63.5q86 0 130 50.5t44 144.5q0 46 -14 86t-32.5 66.5t-55.5 55.5t-62.5 45t-75.5 44q-44 24 -63.5 35.5t-59.5 38t-60.5 46t-49 52.5t-42.5 65.5t-25 76.5t-11 93q0 160 100.5 256.5t272.5 96.5q114 0 206.5 -54t172.5 -166 l-135 -127q-94 158 -240 158q-80 0 -122 -47t-42 -117q0 -23 6.5 -44.5t15.5 -38t27 -35t32.5 -30.5t41 -29.5t43 -27t47.5 -27.5t47 -28q52 -30 84.5 -52t77 -62.5t70.5 -82t44.5 -104t18.5 -135.5q0 -181 -104 -291t-283 -110q-153 0 -271.5 89t-170.5 265zM201 1776h149 l103 -142l102 142h150l-199 -267h-109z" />
<glyph unicode="&#x161;" horiz-adv-x="800" d="M35 188l115 136q47 -72 101 -116t136 -52q71 -5 121 28t53 103q0 22 -5.5 41t-12.5 32.5t-24.5 26.5t-28.5 20.5t-38 18.5t-40 15.5t-47 15.5q-39 14 -60.5 22t-56 24t-54.5 30.5t-45 38.5t-38 49.5t-22 62t-9 78.5q0 146 93 226.5t237 80.5q210 0 338 -174l-105 -131 q-85 127 -205 137q-70 4 -113.5 -30t-45.5 -89q-1 -24 8.5 -43.5t24.5 -33.5t40.5 -27t51 -23t61.5 -23q20 -7 31 -11q49 -18 82.5 -34t71 -42.5t60 -57t37.5 -76t15 -102.5q0 -152 -94 -242t-246 -90q-111 0 -214 58t-173 153zM145 1413h150l102 -141l103 141h149 l-198 -266h-109z" />
<glyph unicode="&#x162;" horiz-adv-x="962" d="M23 1223v190h917v-190h-348v-1223h-37l-66 -123q68 -27 109.5 -76t38.5 -118q-3 -80 -53 -131.5t-125 -51.5q-56 0 -101 31.5t-69 83.5l90 66q8 -28 27 -47t43 -19q63 0 67 70q4 35 -13 63.5t-48 40.5l-101 41l80 170h-63v1223h-348z" />
<glyph unicode="&#x163;" horiz-adv-x="618" d="M35 895v154h119v364h213v-364h204v-154h-204v-571q0 -86 22.5 -120t79.5 -34h90v-170h-74l-65 -123q68 -27 109 -76t38 -118q-3 -80 -53 -131.5t-125 -51.5q-56 0 -101 31.5t-69 83.5l90 66q8 -28 27 -47t43 -19q63 0 67 70q4 35 -13 63.5t-48 40.5l-100 41l80 170 q-211 11 -211 274v621h-119z" />
<glyph unicode="&#x164;" horiz-adv-x="962" d="M23 1223v190h917v-190h-348v-1223h-221v1223h-348zM227 1776h150l102 -142l103 142h149l-199 -267h-108z" />
<glyph unicode="&#x165;" horiz-adv-x="692" d="M35 895v154h119v364h213v-364h204v-154h-204v-571q0 -86 22.5 -120t79.5 -34h90v-170h-176q-118 0 -173.5 68.5t-55.5 205.5v621h-119zM479 1442v250h250v-250h2l-143 -307h-107l94 307h-96z" />
<glyph unicode="&#x166;" horiz-adv-x="962" d="M23 1223v190h917v-190h-348v-461h182v-109h-182v-653h-221v653h-189v109h189v461h-348z" />
<glyph unicode="&#x167;" horiz-adv-x="618" d="M35 895v154h119v364h213v-364h204v-154h-204v-315h176v-109h-176v-147q0 -86 22.5 -120t79.5 -34h90v-170h-176q-118 0 -173.5 68.5t-55.5 205.5v197h-93v109h93v315h-119z" />
<glyph unicode="&#x168;" horiz-adv-x="1144" d="M131 436v977h221v-985q0 -119 57 -182.5t162 -63.5t163.5 63.5t58.5 182.5v985h221v-967q0 -226 -112.5 -346t-330.5 -120t-329 117t-111 339zM276 1530q0 119 44.5 182.5t123.5 63.5q45 0 83 -22t59.5 -48t50 -48t55.5 -22q72 0 72 140h110q0 -128 -45.5 -193 t-126.5 -65q-36 0 -67 14.5t-52.5 35t-40.5 40.5t-41.5 34.5t-45.5 14.5q-34 0 -54 -35t-20 -92h-105z" />
<glyph unicode="&#x169;" horiz-adv-x="1005" d="M121 336v713h213v-676q0 -112 36.5 -153.5t112.5 -41.5q84 0 134.5 70t50.5 186v615h213v-1049h-209v147h-15q-38 -79 -103.5 -123t-145.5 -44q-138 0 -212.5 93t-74.5 263zM203 1167q0 119 44.5 182.5t123.5 63.5q37 0 68 -14.5t52.5 -34.5t41 -40.5t41 -35t44.5 -14.5 q72 0 72 139h111q0 -128 -45.5 -193t-126.5 -65q-44 0 -81.5 21.5t-59.5 48t-50.5 48t-56.5 21.5q-34 0 -54 -35t-20 -92h-104z" />
<glyph unicode="&#x16a;" horiz-adv-x="1144" d="M131 436v977h221v-985q0 -119 57 -182.5t162 -63.5t163.5 63.5t58.5 182.5v985h221v-967q0 -226 -112.5 -346t-330.5 -120t-329 117t-111 339zM348 1597v125h455v-125h-455z" />
<glyph unicode="&#x16b;" horiz-adv-x="1005" d="M121 336v713h213v-676q0 -112 36.5 -153.5t112.5 -41.5q84 0 134.5 70t50.5 186v615h213v-1049h-209v147h-15q-38 -79 -103.5 -123t-145.5 -44q-138 0 -212.5 93t-74.5 263zM274 1235v125h455v-125h-455z" />
<glyph unicode="&#x16e;" horiz-adv-x="1144" d="M131 436v977h221v-985q0 -119 57 -182.5t162 -63.5t163.5 63.5t58.5 182.5v985h221v-967q0 -226 -112.5 -346t-330.5 -120t-329 117t-111 339zM373 1700q0 91 56 150t144 59t145.5 -59t57.5 -150t-57.5 -150t-145.5 -59t-144 59t-56 150zM473 1700q0 -46 28 -76.5 t72 -30.5t73.5 30.5t29.5 76.5t-29.5 76t-73.5 30t-72 -30t-28 -76z" />
<glyph unicode="&#x16f;" horiz-adv-x="1005" d="M121 336v713h213v-676q0 -112 36.5 -153.5t112.5 -41.5q84 0 134.5 70t50.5 186v615h213v-1049h-209v147h-15q-38 -79 -103.5 -123t-145.5 -44q-138 0 -212.5 93t-74.5 263zM299 1337q0 91 56.5 150t144.5 59t145 -59t57 -150t-57 -150t-145 -59t-144.5 59t-56.5 150z M399 1337q0 -46 28.5 -76t72.5 -30t73 30t29 76t-29 76.5t-73 30.5t-72.5 -30.5t-28.5 -76.5z" />
<glyph unicode="&#x170;" horiz-adv-x="1144" d="M131 436v977h221v-985q0 -119 57 -182.5t162 -63.5t163.5 63.5t58.5 182.5v985h221v-967q0 -226 -112.5 -346t-330.5 -120t-329 117t-111 339zM324 1542l163 234h187l-193 -234h-157zM621 1542l165 234h211l-221 -234h-155z" />
<glyph unicode="&#x171;" horiz-adv-x="1005" d="M121 336v713h213v-676q0 -112 36.5 -153.5t112.5 -41.5q84 0 134.5 70t50.5 186v615h213v-1049h-209v147h-15q-38 -79 -103.5 -123t-145.5 -44q-138 0 -212.5 93t-74.5 263zM250 1180l164 233h186l-192 -233h-158zM547 1180l166 233h211l-222 -233h-155z" />
<glyph unicode="&#x172;" horiz-adv-x="1144" d="M131 436v977h221v-985q0 -119 57 -182.5t162 -63.5t163.5 63.5t58.5 182.5v985h221v-967q0 -304 -199 -413q-84 -87 -84 -172q0 -50 20 -75t48 -22q39 3 67 60l105 -74q-63 -119 -178 -119q-73 0 -129 55.5t-56 151.5q0 78 45 146q-54 -4 -82 -4q-218 0 -329 117 t-111 339z" />
<glyph unicode="&#x173;" horiz-adv-x="1005" d="M121 336v713h213v-676q0 -112 36.5 -153.5t112.5 -41.5q84 0 134.5 70t50.5 186v615h213v-1049h6q-146 -120 -146 -229q0 -50 20 -75t48 -22q41 4 68 60l104 -74q-63 -119 -178 -119q-73 0 -129 55.5t-56 151.5q0 120 132 252h-78v147h-15q-38 -79 -103.5 -123 t-145.5 -44q-138 0 -212.5 93t-74.5 263z" />
<glyph unicode="&#x174;" horiz-adv-x="1560" d="M20 1413h230l170 -1169h12l225 1169h248l223 -1169h13l170 1169h229l-254 -1413h-293l-213 1169l-213 -1169h-293zM528 1509l199 269h109l198 -269h-149l-103 148l-104 -148h-150z" />
<glyph unicode="&#x175;" horiz-adv-x="1323" d="M20 1049h222l135 -869l192 869h181l192 -865l139 865h222l-213 -1049h-275l-156 760l-155 -762h-275zM408 1145l198 268h109l198 -268h-149l-102 147l-105 -147h-149z" />
<glyph unicode="&#x176;" horiz-adv-x="1038" d="M8 1413h250l260 -659l260 659h252l-403 -862v-551h-217v551zM264 1507l199 269h108l199 -269h-149l-103 148l-104 -148h-150z" />
<glyph unicode="&#x177;" horiz-adv-x="847" d="M14 1049h228l153 -654q27 -122 27 -151h10q0 55 25 153l153 652h232l-328 -1098q-96 -316 -436 -316v172q51 0 89 11t61.5 27t41.5 45t27 55t20 67zM172 1145l199 268h108l199 -268h-150l-102 147l-104 -147h-150z" />
<glyph unicode="&#x178;" horiz-adv-x="1038" d="M8 1413h250l260 -659l260 659h252l-403 -862v-551h-217v551zM285 1563v213h170v-213h-170zM584 1563v213h168v-213h-168z" />
<glyph unicode="&#x179;" horiz-adv-x="995" d="M39 0v160l657 1067h-620v186h880v-168l-655 -1059h655v-186h-917zM420 1534l182 242h223l-254 -242h-151z" />
<glyph unicode="&#x17a;" horiz-adv-x="823" d="M59 0v154l473 720h-464v175h696v-166l-457 -707h455v-176h-703zM334 1171l182 242h223l-254 -242h-151z" />
<glyph unicode="&#x17b;" horiz-adv-x="995" d="M39 0v160l657 1067h-620v186h880v-168l-655 -1059h655v-186h-917zM414 1567v209h164v-209h-164z" />
<glyph unicode="&#x17c;" horiz-adv-x="823" d="M59 0v154l473 720h-464v175h696v-166l-457 -707h455v-176h-703zM328 1204v209h164v-209h-164z" />
<glyph unicode="&#x17d;" horiz-adv-x="995" d="M39 0v160l657 1067h-620v186h880v-168l-655 -1059h655v-186h-917zM244 1776h149l103 -142l102 142h150l-199 -267h-109z" />
<glyph unicode="&#x17e;" horiz-adv-x="823" d="M59 0v154l473 720h-464v175h696v-166l-457 -707h455v-176h-703zM158 1413h149l103 -141l102 141h150l-199 -266h-109z" />
<glyph unicode="&#x192;" horiz-adv-x="841" d="M82 -225q53 0 90 9.5t66 33.5t43 69t14 113h2v895h-139v154h139v67q0 136 66.5 216.5t187.5 80.5h145v-164h-80q-51 0 -78.5 -37t-27.5 -100v-63h186v-154h-186v-895q0 -111 -33 -192t-93 -126.5t-134.5 -66.5t-167.5 -21v181z" />
<glyph unicode="&#x1cd;" horiz-adv-x="1007" d="M0 0l360 1413h287l361 -1413h-234l-63 291h-412l-66 -291h-233zM254 1776h149l103 -142l102 142h150l-199 -267h-108zM340 471h332l-146 674l-16 86h-6l-19 -86z" />
<glyph unicode="&#x1ce;" horiz-adv-x="970" d="M84 274q0 187 166 281q30 17 64.5 33t80.5 33.5t78.5 29.5t97.5 34.5t97 33.5q-1 91 -47 132.5t-138 41.5q-81 0 -135.5 -33t-103.5 -106l-142 104q66 105 155.5 158t219.5 53q168 0 274.5 -85.5t106.5 -248.5v-735h-190v129q-60 -66 -143 -109t-150 -43 q-132 0 -211.5 80.5t-79.5 216.5zM225 1413h150l102 -141l103 141h149l-199 -266h-108zM301 285q0 -58 31 -90.5t80 -32.5q153 0 256 172v217q-229 -99 -275 -127q-92 -53 -92 -139z" />
<glyph unicode="&#x1cf;" horiz-adv-x="485" d="M-12 1776h149l103 -142l102 142h150l-199 -267h-109zM131 0v1413h223v-1413h-223z" />
<glyph unicode="&#x1d0;" horiz-adv-x="460" d="M-20 1413h149l102 -141l103 141h149l-198 -266h-109zM123 0v1049h215v-1049h-215z" />
<glyph unicode="&#x1d1;" horiz-adv-x="1196" d="M61 707q0 335 143 531t392 196q250 0 394.5 -196.5t144.5 -530.5t-144.5 -530.5t-394.5 -196.5q-249 0 -392 196t-143 531zM295 707q0 -247 80 -385t223 -138t223 138t80 385q0 249 -80 387.5t-223 138.5t-223 -138.5t-80 -387.5zM344 1776h150l102 -142l102 142h150 l-199 -267h-108z" />
<glyph unicode="&#x1d2;" horiz-adv-x="976" d="M68 520q0 273 115 411t306 138q92 0 167.5 -33t132.5 -98.5t88.5 -172t31.5 -245.5q0 -269 -115.5 -406t-304.5 -137q-190 0 -305.5 137t-115.5 406zM238 1413h149l102 -141l103 141h149l-198 -266h-109zM266 520q0 -358 221 -358q228 0 228 358q0 365 -228 365 q-221 0 -221 -365z" />
<glyph unicode="&#x1d3;" horiz-adv-x="1144" d="M131 436v977h221v-985q0 -119 57 -182.5t162 -63.5t163.5 63.5t58.5 182.5v985h221v-967q0 -226 -112.5 -346t-330.5 -120t-329 117t-111 339zM322 1776h149l102 -142l103 142h149l-198 -267h-109z" />
<glyph unicode="&#x1d4;" horiz-adv-x="1005" d="M121 336v713h213v-676q0 -112 36.5 -153.5t112.5 -41.5q84 0 134.5 70t50.5 186v615h213v-1049h-209v147h-15q-38 -79 -103.5 -123t-145.5 -44q-138 0 -212.5 93t-74.5 263zM248 1413h149l103 -141l102 141h150l-199 -266h-109z" />
<glyph unicode="&#x1d5;" horiz-adv-x="1144" d="M131 436v977h221v-985q0 -119 57 -182.5t162 -63.5t163.5 63.5t58.5 182.5v985h221v-967q0 -226 -112.5 -346t-330.5 -120t-329 117t-111 339zM340 1563v213h170v-213h-170zM348 1962v125h455v-125h-455zM639 1563v213h168v-213h-168z" />
<glyph unicode="&#x1d6;" horiz-adv-x="1005" d="M121 336v713h213v-676q0 -112 36.5 -153.5t112.5 -41.5q84 0 134.5 70t50.5 186v615h213v-1049h-209v147h-15q-38 -79 -103.5 -123t-145.5 -44q-138 0 -212.5 93t-74.5 263zM266 1200v213h170v-213h-170zM274 1599v125h455v-125h-455zM565 1200v213h168v-213h-168z" />
<glyph unicode="&#x1d7;" horiz-adv-x="1144" d="M131 436v977h221v-985q0 -119 57 -182.5t162 -63.5t163.5 63.5t58.5 182.5v985h221v-967q0 -226 -112.5 -346t-330.5 -120t-329 117t-111 339zM340 1563v213h170v-213h-170zM498 1898l182 242h223l-254 -242h-151zM639 1563v213h168v-213h-168z" />
<glyph unicode="&#x1d8;" horiz-adv-x="1005" d="M121 336v713h213v-676q0 -112 36.5 -153.5t112.5 -41.5q84 0 134.5 70t50.5 186v615h213v-1049h-209v147h-15q-38 -79 -103.5 -123t-145.5 -44q-138 0 -212.5 93t-74.5 263zM266 1200v213h170v-213h-170zM424 1536l182 242h223l-254 -242h-151zM565 1200v213h168v-213 h-168z" />
<glyph unicode="&#x1d9;" horiz-adv-x="1144" d="M131 436v977h221v-985q0 -119 57 -182.5t162 -63.5t163.5 63.5t58.5 182.5v985h221v-967q0 -226 -112.5 -346t-330.5 -120t-329 117t-111 339zM322 2140h149l102 -141l103 141h149l-198 -266h-109zM340 1563v213h170v-213h-170zM639 1563v213h168v-213h-168z" />
<glyph unicode="&#x1da;" horiz-adv-x="1005" d="M121 336v713h213v-676q0 -112 36.5 -153.5t112.5 -41.5q84 0 134.5 70t50.5 186v615h213v-1049h-209v147h-15q-38 -79 -103.5 -123t-145.5 -44q-138 0 -212.5 93t-74.5 263zM248 1778h149l103 -142l102 142h150l-199 -267h-109zM266 1200v213h170v-213h-170zM565 1200 v213h168v-213h-168z" />
<glyph unicode="&#x1db;" horiz-adv-x="1144" d="M131 436v977h221v-985q0 -119 57 -182.5t162 -63.5t163.5 63.5t58.5 182.5v985h221v-967q0 -226 -112.5 -346t-330.5 -120t-329 117t-111 339zM246 2140h225l180 -244h-159zM340 1563v213h170v-213h-170zM639 1563v213h168v-213h-168z" />
<glyph unicode="&#x1dc;" horiz-adv-x="1005" d="M121 336v713h213v-676q0 -112 36.5 -153.5t112.5 -41.5q84 0 134.5 70t50.5 186v615h213v-1049h-209v147h-15q-38 -79 -103.5 -123t-145.5 -44q-138 0 -212.5 93t-74.5 263zM172 1778h225l181 -244h-160zM266 1200v213h170v-213h-170zM565 1200v213h168v-213h-168z" />
<glyph unicode="&#x1fe;" horiz-adv-x="1196" d="M43 117l113 139q-95 185 -95 451q0 335 143 531t392 196q232 0 371 -168l86 106l96 -76l-111 -137q97 -183 97 -452q0 -334 -144.5 -530.5t-394.5 -196.5q-230 0 -371 167l-86 -108zM295 707q0 -139 27 -244l503 624q-82 146 -227 146q-143 0 -223 -138.5t-80 -387.5z M371 328q83 -144 227 -144q143 0 223 138t80 385q0 142 -27 247zM520 1534l182 242h224l-254 -242h-152z" />
<glyph unicode="&#x1ff;" horiz-adv-x="976" d="M68 520q0 273 115 411t306 138q177 0 287 -119l35 43l68 -53l-50 -61q80 -138 80 -359q0 -269 -115.5 -406t-304.5 -137q-180 0 -288 117l-33 -41l-68 56l47 57q-79 136 -79 354zM266 520q0 -110 21 -180l368 459q-58 86 -168 86q-221 0 -221 -365zM324 248 q58 -86 163 -86q228 0 228 358q0 103 -21 189zM414 1171l182 242h223l-254 -242h-151z" />
<glyph unicode="&#x218;" horiz-adv-x="925" d="M29 336l166 104q33 -133 107 -196.5t165 -63.5q86 0 130 50.5t44 144.5q0 46 -14 86t-32.5 66.5t-55.5 55.5t-62.5 45t-75.5 44q-44 24 -63.5 35.5t-59.5 38t-60.5 46t-49 52.5t-42.5 65.5t-25 76.5t-11 93q0 160 100.5 256.5t272.5 96.5q114 0 206.5 -54t172.5 -166 l-135 -127q-94 158 -240 158q-80 0 -122 -47t-42 -117q0 -23 6.5 -44.5t15.5 -38t27 -35t32.5 -30.5t41 -29.5t43 -27t47.5 -27.5t47 -28q52 -30 84.5 -52t77 -62.5t70.5 -82t44.5 -104t18.5 -135.5q0 -181 -104 -291t-283 -110q-153 0 -271.5 89t-170.5 265zM246 -442 l108 301h215l-204 -301h-119z" />
<glyph unicode="&#x219;" horiz-adv-x="800" d="M35 188l115 136q47 -72 101 -116t136 -52q71 -5 121 28t53 103q0 22 -5.5 41t-12.5 32.5t-24.5 26.5t-28.5 20.5t-38 18.5t-40 15.5t-47 15.5q-39 14 -60.5 22t-56 24t-54.5 30.5t-45 38.5t-38 49.5t-22 62t-9 78.5q0 146 93 226.5t237 80.5q210 0 338 -174l-105 -131 q-85 127 -205 137q-70 4 -113.5 -30t-45.5 -89q-1 -24 8.5 -43.5t24.5 -33.5t40.5 -27t51 -23t61.5 -23q20 -7 31 -11q49 -18 82.5 -34t71 -42.5t60 -57t37.5 -76t15 -102.5q0 -152 -94 -242t-246 -90q-111 0 -214 58t-173 153zM221 -440l109 301h215l-205 -301h-119z" />
<glyph unicode="&#x21a;" horiz-adv-x="962" d="M23 1223v190h917v-190h-348v-1223h-221v1223h-348zM268 -440l109 301h215l-205 -301h-119z" />
<glyph unicode="&#x21b;" horiz-adv-x="618" d="M35 895v154h119v364h213v-364h204v-154h-204v-571q0 -86 22.5 -120t79.5 -34h90v-170h-176q-118 0 -173.5 68.5t-55.5 205.5v621h-119zM199 -440l108 301h215l-205 -301h-118z" />
<glyph unicode="&#x237;" horiz-adv-x="460" d="M-31 -193h70q39 0 60.5 31t21.5 86v1125h215v-1115q0 -299 -252 -299h-115v172z" />
<glyph unicode="&#x2c6;" horiz-adv-x="538" d="M16 1100l199 268h109l198 -268h-149l-103 147l-104 -147h-150z" />
<glyph unicode="&#x2c7;" horiz-adv-x="540" d="M18 1364h150l102 -141l103 141h149l-198 -266h-109z" />
<glyph unicode="&#x2d8;" horiz-adv-x="497" d="M-2 1364h139q0 -68 32.5 -105.5t80.5 -37.5q53 0 84 38t31 105h141q0 -131 -68.5 -200.5t-187.5 -69.5q-118 0 -185 70.5t-67 199.5z" />
<glyph unicode="&#x2d9;" horiz-adv-x="235" d="M35 1155v209h164v-209h-164z" />
<glyph unicode="&#x2da;" horiz-adv-x="331" d="M-8 1288q0 98 46 153.5t128 55.5q83 0 129.5 -55.5t46.5 -153.5t-46.5 -153.5t-129.5 -55.5q-82 0 -128 55.5t-46 153.5zM84 1290q0 -51 22 -79.5t60 -28.5q39 0 61.5 28.5t22.5 79.5q0 49 -22.5 77t-61.5 28q-38 0 -60 -28t-22 -77z" />
<glyph unicode="&#x2db;" horiz-adv-x="374" d="M51 -252q0 43 13.5 83t40.5 77t44.5 56.5t47.5 49.5l122 -14q-145 -107 -145 -229q0 -50 20 -75t48 -22q39 3 67 60l105 -74q-63 -119 -178 -119q-73 0 -129 55.5t-56 151.5z" />
<glyph unicode="&#x2dc;" horiz-adv-x="581" d="M-6 1083q0 119 44.5 182.5t123.5 63.5q37 0 67.5 -14.5t51.5 -34.5t39 -40.5t38.5 -35t42.5 -14.5q66 0 66 139h125q0 -128 -45.5 -193t-126.5 -65q-36 0 -66.5 14.5t-51.5 34.5t-39.5 40.5t-39 35t-41.5 14.5q-29 0 -46 -35t-17 -92h-125z" />
<glyph unicode="&#x2dd;" horiz-adv-x="610" d="M-25 1130l164 234h187l-193 -234h-158zM272 1130l166 234h211l-221 -234h-156z" />
<glyph unicode="&#x300;" d="M-375 1364h225l181 -244h-160z" />
<glyph unicode="&#x301;" d="M-367 1122l183 242h223l-254 -242h-152z" />
<glyph unicode="&#x302;" d="M-522 1100l198 268h109l199 -268h-150l-102 147l-105 -147h-149z" />
<glyph unicode="&#x303;" d="M-588 1083q0 119 44.5 182.5t123.5 63.5q37 0 68.5 -14.5t53 -34.5t40.5 -40.5t41 -35t45 -14.5q72 0 72 139h110q0 -128 -45.5 -193t-126.5 -65q-44 0 -81.5 21.5t-59.5 48t-50.5 48t-56.5 21.5q-34 0 -53.5 -35t-19.5 -92h-105z" />
<glyph unicode="&#x304;" d="M-496 1186v125h455v-125h-455z" />
<glyph unicode="&#x306;" d="M-500 1364h140q0 -68 32 -105.5t80 -37.5q53 0 84 38t31 105h141q0 -131 -68.5 -200.5t-187.5 -69.5q-118 0 -185 70.5t-67 199.5z" />
<glyph unicode="&#x307;" d="M-201 1155v209h164v-209h-164z" />
<glyph unicode="&#x308;" d="M-502 1151v213h170v-213h-170zM-203 1151v213h168v-213h-168z" />
<glyph unicode="&#x30a;" d="M-401 1288q0 91 56 150t144 59t145.5 -59t57.5 -150t-57.5 -150t-145.5 -59t-144 59t-56 150zM-301 1288q0 -46 28 -76t72 -30t73.5 30t29.5 76t-29.5 76.5t-73.5 30.5t-72 -30.5t-28 -76.5z" />
<glyph unicode="&#x30b;" d="M-635 1130l164 234h186l-192 -234h-158zM-338 1130l166 234h211l-221 -234h-156z" />
<glyph unicode="&#x30c;" d="M-522 1364h149l103 -141l102 141h150l-199 -266h-109z" />
<glyph unicode="&#x312;" d="M-39 1149l205 268h119l-109 -268h-215z" />
<glyph unicode="&#x326;" d="M-356 -440l108 301h215l-205 -301h-118z" />
<glyph unicode="&#x327;" d="M-315 -385l90 66q8 -28 26.5 -47t42.5 -19q64 0 68 70q4 35 -13.5 63.5t-48.5 40.5l-100 41l82 176l119 -6l-66 -123q68 -27 109.5 -76t38.5 -118q-3 -80 -53 -131.5t-125 -51.5q-56 0 -101 31.5t-69 83.5z" />
<glyph unicode="&#x328;" d="M-324 -252q0 43 13.5 83t40.5 77t44.5 56.5t47.5 49.5l123 -14q-146 -120 -146 -229q0 -50 20 -75t48 -22q39 3 67 60l105 -74q-63 -119 -178 -119q-73 0 -129 55.5t-56 151.5z" />
<glyph unicode="&#x335;" d="M-692 522v109h526v-109h-526z" />
<glyph unicode="&#x336;" d="M-1038 520v98h1083v-98h-1083z" />
<glyph unicode="&#x337;" d="M-791 145v213l691 621v-227z" />
<glyph unicode="&#x338;" d="M-1077 117l1009 1255l97 -76l-1010 -1257z" />
<glyph unicode="&#x3c0;" horiz-adv-x="1036" d="M123 819v180h682v-180h-66v-577q-2 -47 14 -76.5t42 -18.5l45 25l71 -129q-83 -63 -155 -63q-88 0 -140.5 69.5t-52.5 161.5v608h-198v-819h-177v819h-65z" />
<glyph unicode="&#x1e80;" horiz-adv-x="1560" d="M20 1413h230l170 -1169h12l225 1169h248l223 -1169h13l170 1169h229l-254 -1413h-293l-213 1169l-213 -1169h-293zM455 1778h225l180 -244h-160z" />
<glyph unicode="&#x1e81;" horiz-adv-x="1323" d="M20 1049h222l135 -869l192 869h181l192 -865l139 865h222l-213 -1049h-275l-156 760l-155 -762h-275zM334 1413h225l180 -244h-159z" />
<glyph unicode="&#x1e82;" horiz-adv-x="1560" d="M20 1413h230l170 -1169h12l225 1169h248l223 -1169h13l170 1169h229l-254 -1413h-293l-213 1169l-213 -1169h-293zM707 1536l182 242h223l-254 -242h-151z" />
<glyph unicode="&#x1e83;" horiz-adv-x="1323" d="M20 1049h222l135 -869l192 869h181l192 -865l139 865h222l-213 -1049h-275l-156 760l-155 -762h-275zM586 1171l182 242h223l-254 -242h-151z" />
<glyph unicode="&#x1e84;" horiz-adv-x="1560" d="M20 1413h230l170 -1169h12l225 1169h248l223 -1169h13l170 1169h229l-254 -1413h-293l-213 1169l-213 -1169h-293zM549 1565v213h170v-213h-170zM848 1565v213h168v-213h-168z" />
<glyph unicode="&#x1e85;" horiz-adv-x="1323" d="M20 1049h222l135 -869l192 869h181l192 -865l139 865h222l-213 -1049h-275l-156 760l-155 -762h-275zM428 1200v213h170v-213h-170zM727 1200v213h168v-213h-168z" />
<glyph unicode="&#x1ebc;" horiz-adv-x="978" d="M131 0v1413h760v-192h-537v-418h477v-193h-477v-417h537v-193h-760zM215 1530q0 119 44.5 182.5t123.5 63.5q45 0 83 -22t59.5 -48t50 -48t55.5 -22q71 0 71 140h111q0 -128 -45.5 -193t-126.5 -65q-44 0 -81.5 21.5t-59.5 48t-50.5 48t-56.5 21.5q-34 0 -54 -35t-20 -92 h-104z" />
<glyph unicode="&#x1ebd;" horiz-adv-x="946" d="M68 518q0 93 13.5 172.5t44.5 150.5t78 120.5t119.5 78.5t163.5 29q88 0 157 -28.5t113.5 -77t74 -117t41.5 -143t12 -160.5q0 -56 -6 -80h-598q5 -150 61.5 -224.5t175.5 -74.5t211 100l137 -121q-78 -87 -163.5 -125t-192.5 -38q-114 0 -200.5 41t-138.5 115 t-77.5 169.5t-25.5 212.5zM186 1167q0 119 44.5 182.5t123.5 63.5q37 0 68.5 -14.5t53 -34.5t40.5 -40.5t41 -35t45 -14.5q72 0 72 139h110q0 -128 -45.5 -193t-126.5 -65q-36 0 -67 14.5t-52.5 34.5t-40.5 40.5t-41.5 35t-45.5 14.5q-34 0 -54 -35t-20 -92h-105zM285 627 h393q0 119 -45 189.5t-146 70.5q-98 0 -145.5 -64.5t-56.5 -195.5z" />
<glyph unicode="&#x1ef2;" horiz-adv-x="1038" d="M8 1413h250l260 -659l260 659h252l-403 -862v-551h-217v551zM190 1776h226l180 -244h-160z" />
<glyph unicode="&#x1ef3;" horiz-adv-x="847" d="M14 1049h228l153 -654q27 -122 27 -151h10q0 55 25 153l153 652h232l-328 -1098q-96 -316 -436 -316v172q51 0 89 11t61.5 27t41.5 45t27 55t20 67zM98 1413h226l180 -244h-160z" />
<glyph unicode="&#x1ef8;" horiz-adv-x="1038" d="M8 1413h250l260 -659l260 659h252l-403 -862v-551h-217v551zM221 1530q0 119 44.5 182.5t123.5 63.5q45 0 83 -22t59.5 -48t50 -48t55.5 -22q72 0 72 140h110q0 -128 -45.5 -193t-126.5 -65q-44 0 -81.5 21.5t-59.5 48t-50.5 48t-56.5 21.5q-34 0 -53.5 -35t-19.5 -92 h-105z" />
<glyph unicode="&#x1ef9;" horiz-adv-x="847" d="M14 1049h228l153 -654q27 -122 27 -151h10q0 55 25 153l153 652h232l-328 -1098q-96 -316 -436 -316v172q51 0 89 11t61.5 27t41.5 45t27 55t20 67zM129 1167q0 119 44.5 182.5t123.5 63.5q37 0 68.5 -14.5t53 -34.5t40.5 -40.5t41 -35t45 -14.5q71 0 71 139h111 q0 -128 -45.5 -193t-126.5 -65q-44 0 -81.5 21.5t-59.5 48t-50.5 48t-56.5 21.5q-34 0 -54 -35t-20 -92h-104z" />
<glyph unicode="&#x2000;" horiz-adv-x="1070" />
<glyph unicode="&#x2001;" horiz-adv-x="2140" />
<glyph unicode="&#x2002;" horiz-adv-x="1070" />
<glyph unicode="&#x2003;" horiz-adv-x="2140" />
<glyph unicode="&#x2004;" horiz-adv-x="713" />
<glyph unicode="&#x2005;" horiz-adv-x="535" />
<glyph unicode="&#x2006;" horiz-adv-x="356" />
<glyph unicode="&#x2007;" horiz-adv-x="356" />
<glyph unicode="&#x2008;" horiz-adv-x="267" />
<glyph unicode="&#x2009;" horiz-adv-x="428" />
<glyph unicode="&#x200a;" horiz-adv-x="118" />
<glyph unicode="&#x2010;" horiz-adv-x="591" d="M55 432v166h480v-166h-480z" />
<glyph unicode="&#x2011;" horiz-adv-x="591" d="M55 432v166h480v-166h-480z" />
<glyph unicode="&#x2012;" horiz-adv-x="591" d="M55 432v166h480v-166h-480z" />
<glyph unicode="&#x2013;" horiz-adv-x="706" d="M39 432v166h627v-166h-627z" />
<glyph unicode="&#x2014;" horiz-adv-x="1658" d="M10 432v166h1639v-166h-1639z" />
<glyph unicode="&#x2018;" horiz-adv-x="481" d="M96 1104l150 323h112l-100 -323h102v-260h-262v260h-2z" />
<glyph unicode="&#x2019;" horiz-adv-x="487" d="M98 1153v260h262v-260h2l-149 -324h-113l101 324h-103z" />
<glyph unicode="&#x201a;" horiz-adv-x="466" d="M92 0v260h262v-260h2l-149 -324h-113l101 324h-103z" />
<glyph unicode="&#x201c;" horiz-adv-x="847" d="M96 1104l150 323h112l-100 -323h102v-260h-262v260h-2zM463 1104l149 323h113l-100 -323h102v-260h-262v260h-2z" />
<glyph unicode="&#x201d;" horiz-adv-x="854" d="M98 1153v260h262v-260h2l-149 -324h-113l101 324h-103zM465 1153v260h262v-260h2l-149 -324h-113l100 324h-102z" />
<glyph unicode="&#x201e;" horiz-adv-x="860" d="M92 0v260h262v-260h2l-149 -324h-113l101 324h-103zM485 0v260h263v-260h2l-150 -324h-113l101 324h-103z" />
<glyph unicode="&#x2020;" horiz-adv-x="731" d="M94 829v181h176v403h187v-403h178v-181h-178v-1034h-187v1034h-176z" />
<glyph unicode="&#x2021;" horiz-adv-x="731" d="M94 199v180h176v450h-176v181h176v403h187v-403h178v-181h-178v-450h178v-180h-178v-404h-187v404h-176z" />
<glyph unicode="&#x2022;" horiz-adv-x="743" d="M76 537q0 123 86.5 208.5t208.5 85.5q124 0 210.5 -85.5t86.5 -208.5q0 -122 -86.5 -210.5t-210.5 -88.5q-121 0 -208 88.5t-87 210.5z" />
<glyph unicode="&#x2025;" horiz-adv-x="954" d="M92 0v260h262v-260h-262zM604 0v260h262v-260h-262z" />
<glyph unicode="&#x2026;" horiz-adv-x="1470" d="M92 0v260h262v-260h-262zM606 0v260h262v-260h-262zM1120 0v260h262v-260h-262z" />
<glyph unicode="&#x202f;" horiz-adv-x="428" />
<glyph unicode="&#x2030;" horiz-adv-x="1851" d="M74 1104q0 71 12.5 129.5t39 105t72 72t105.5 25.5q117 0 175.5 -90.5t58.5 -243.5q0 -149 -57 -237.5t-171 -88.5q-120 0 -177.5 91.5t-57.5 236.5zM217 1106q0 -184 86 -184q88 0 88 186q0 178 -90 178q-84 0 -84 -180zM252 2l616 1409h189l-617 -1409h-188zM782 319 q0 150 56 242t174 92t175.5 -90.5t57.5 -243.5q0 -150 -56 -237.5t-171 -87.5q-120 0 -178 90.5t-58 234.5zM926 322q0 -181 88 -181q86 0 86 183q0 182 -88 182q-86 0 -86 -184zM1317 319q0 55 11 108.5t35.5 106.5t71.5 86t111 33q60 0 106.5 -30t73.5 -79t40.5 -106.5 t13.5 -118.5q0 -60 -13.5 -116t-40 -104t-72 -76.5t-104.5 -28.5q-52 0 -94 22t-67 56.5t-42 79t-23.5 86t-6.5 81.5zM1458 322q0 -75 23 -128t65 -53t65 54t23 129q0 76 -23.5 129t-66.5 53q-41 0 -63.5 -54t-22.5 -130z" />
<glyph unicode="&#x2039;" horiz-adv-x="507" d="M76 510l354 348v-196l-143 -152l143 -150v-196z" />
<glyph unicode="&#x203a;" horiz-adv-x="507" d="M76 164v196l143 150l-143 152v196l354 -348z" />
<glyph unicode="&#x2044;" horiz-adv-x="344" d="M-250 0l637 1413h207l-643 -1413h-201z" />
<glyph unicode="&#x205f;" horiz-adv-x="535" />
<glyph unicode="&#x20ac;" horiz-adv-x="1099" d="M0 498l53 118h123q-4 62 -4 93q0 41 2 61h-172l57 121h125q17 117 57 215t101 172.5t148.5 116t193.5 41.5q183 0 307 -121l-67 -182q-74 124 -234 124q-135 0 -215 -99t-106 -267h491l-45 -125l-459 2q-2 -18 -2 -55q0 -35 4 -97h416l-41 -118h-358q31 -154 110.5 -245 t206.5 -91q140 0 234 125l129 -127q-139 -180 -369 -180q-201 0 -328.5 141.5t-169.5 376.5h-188z" />
<glyph unicode="&#x2122;" horiz-adv-x="1234" d="M12 1298v115h453v-115h-162v-456h-129v456h-162zM545 842v571h180l117 -434l119 434h178v-571h-125v397l-111 -397h-121l-114 399v-399h-123z" />
<glyph unicode="&#x2126;" horiz-adv-x="1232" d="M57 0v178h232q-108 75 -168 220t-60 331q0 320 146.5 499t408.5 179q263 0 410.5 -181t147.5 -505q0 -182 -58.5 -327t-161.5 -220h224v-174h-451v172q124 37 194 178t70 355q0 247 -99 384.5t-276 137.5q-175 0 -273.5 -137t-98.5 -381q0 -197 68.5 -338.5t191.5 -198.5 v-172h-447z" />
<glyph unicode="&#x2202;" horiz-adv-x="1017" d="M68 455q0 162 58 299t160 217t226 80q185 0 246 -156q-9 165 -60.5 259.5t-142.5 107.5q-140 32 -225 -109l-74 96q40 87 110.5 134t161.5 47q104 0 181.5 -48t124 -136.5t69.5 -206t23 -265.5q0 -234 -54 -409.5t-164.5 -276t-265.5 -100.5q-176 0 -275 126.5t-99 340.5 zM262 442q0 -124 47 -197t133 -73q80 0 144.5 61.5t98.5 161t34 215.5q0 130 -45 200.5t-129 70.5q-82 0 -148.5 -66t-100.5 -165.5t-34 -207.5z" />
<glyph unicode="&#x2206;" horiz-adv-x="999" d="M12 0l486 1470l491 -1470h-977zM270 180h461l-233 799z" />
<glyph unicode="&#x220f;" horiz-adv-x="1118" d="M139 1233v180h842v-180h-66v-1233h-176v1233h-358v-1233h-176v1233h-66z" />
<glyph unicode="&#x2211;" horiz-adv-x="1005" d="M63 0v92l455 615l-455 616v90h877v-180h-565l393 -526l-393 -527h565v-180h-877z" />
<glyph unicode="&#x221a;" horiz-adv-x="968" d="M47 553v180h258l111 -483l346 1173l168 -61l-524 -1581l-230 772h-129z" />
<glyph unicode="&#x221e;" horiz-adv-x="1486" d="M61 633q0 140 88.5 229.5t219.5 89.5q183 0 372 -198q91 95 188.5 146.5t186.5 51.5q132 0 219.5 -89t87.5 -230t-87.5 -230.5t-219.5 -89.5q-89 0 -186.5 52t-188.5 147q-190 -199 -372 -199q-131 0 -219.5 89.5t-88.5 230.5zM223 633q0 -74 45.5 -117t112.5 -43 q105 0 252 160q-147 160 -252 160q-67 0 -112.5 -43t-45.5 -117zM852 633q147 -160 254 -160q66 0 111 43t45 117t-45 117t-111 43q-107 0 -254 -160z" />
<glyph unicode="&#x222b;" horiz-adv-x="704" d="M18 -276q134 0 187 65t53 225v1129q0 133 71 219t177 86q97 0 192 -92l-108 -142q-38 63 -82 56q-33 -2 -53.5 -35t-20.5 -96v-1131q0 -223 -113.5 -344t-302.5 -121v181z" />
<glyph unicode="&#x2248;" horiz-adv-x="976" d="M80 152q0 144 58 226.5t171 82.5q52 0 96.5 -16.5t74.5 -40.5t57.5 -48t58.5 -40.5t63 -16.5q101 0 101 158h160q0 -155 -64.5 -239.5t-183.5 -84.5q-46 0 -87 17t-71.5 41t-59 48t-61 41t-65.5 17q-46 0 -71 -37t-24 -108h-153zM80 621q0 144 58 226.5t171 82.5 q52 0 96.5 -16.5t74.5 -40.5t57.5 -48t58.5 -40.5t63 -16.5q101 0 101 158h160q0 -155 -64.5 -239.5t-183.5 -84.5q-46 0 -87 17t-71.5 41t-59 48t-61 41t-65.5 17q-46 0 -71 -37t-24 -108h-153z" />
<glyph unicode="&#x2260;" horiz-adv-x="1228" d="M113 401v185h342l116 213h-458v184h559l233 430h191l-234 -430h240v-184h-340l-117 -213h457v-185h-555l-219 -401h-193l219 401h-241z" />
<glyph unicode="&#x2264;" horiz-adv-x="1261" d="M96 0v160h991v-160h-991zM102 788l985 531v-195l-630 -336l630 -331v-199z" />
<glyph unicode="&#x2265;" horiz-adv-x="1249" d="M162 0v160h991v-160h-991zM162 258v199l631 331l-631 336v195l985 -531z" />
<glyph unicode="&#x25ca;" horiz-adv-x="937" d="M72 717l315 717h170l309 -717l-309 -717h-170zM281 717l188 -516l188 516l-188 516z" />
<glyph unicode="&#x25fc;" horiz-adv-x="1044" d="M0 0v1044h1044v-1044h-1044z" />
<glyph unicode="&#xfb00;" horiz-adv-x="1112" d="M31 895v154h139v67q0 136 66.5 216.5t187.5 80.5h145v-164h-80q-51 0 -78.5 -37t-27.5 -100v-63h299v67q0 136 66.5 216.5t187.5 80.5h145v-164h-80q-51 0 -78.5 -37t-27.5 -100v-63h186v-154h-186v-895h-213v895h-299v-895h-213v895h-139z" />
<glyph unicode="&#xfb03;" horiz-adv-x="1568" d="M31 895v154h139v67q0 136 66.5 216.5t187.5 80.5h145v-164h-80q-51 0 -78.5 -37t-27.5 -100v-63h313v104q0 120 66 190t174 70h133v-170h-76q-42 0 -63 -27.5t-21 -74.5v-92h535v-1049h-215v897h-320v-897h-215v897h-125v-2h-186v-895h-213v895h-139zM1229 1202v211h215 v-211h-215z" />
<glyph unicode="&#xfb04;" horiz-adv-x="1548" d="M31 895v154h139v67q0 136 66.5 216.5t187.5 80.5h145v-164h-80q-51 0 -78.5 -37t-27.5 -100v-63h303v104q0 120 66 190t176 70h149v-170h-88q-88 0 -88 -102v-92h176v-152h-176v-897h-215v897h-117v-2h-186v-895h-213v895h-139zM1210 0v1413h215v-1413h-215z" />
<glyph horiz-adv-x="460" d="M123 0v1049h215v-1049h-215zM150 1204v209h163v-209h-163z" />
<glyph horiz-adv-x="1140" d="M31 897v152h151v104q0 121 65 190.5t175 69.5h127v-162h-68q-43 0 -64.5 -28.5t-21.5 -73.5v-100h281v364h213v-364h205v-154h-205v-571q0 -86 22.5 -120t79.5 -34h90v-170h-176q-118 0 -173.5 68.5t-55.5 205.5v621h-119v2h-162v-897h-215v897h-149z" />
<glyph horiz-adv-x="1128" d="M35 895v154h119v364h213v-364h297v364h213v-364h204v-154h-204v-571q0 -86 22.5 -120t79.5 -34h90v-170h-176q-118 0 -173.5 68.5t-55.5 205.5v621h-297v-571q0 -86 22.5 -120t79.5 -34h90v-170h-176q-118 0 -173.5 68.5t-55.5 205.5v621h-119z" />
<glyph horiz-adv-x="1558" d="M88 1104q0 42 7.5 84.5t27 88t49.5 80t78.5 57t109.5 22.5q90 0 154.5 -52.5t92.5 -126t28 -155.5q0 -47 -10 -92.5t-31 -88t-52 -74.5t-76 -51.5t-99 -19.5q-62 0 -112 22.5t-80.5 57t-50.5 79.5t-28 86.5t-8 82.5zM250 1104q0 -71 29.5 -121.5t82.5 -50.5q49 0 78 51.5 t29 120.5q0 72 -29 122t-80 50q-52 0 -81 -50t-29 -122zM295 2l756 1409h196l-755 -1409h-197zM924 324q0 55 13 108.5t41.5 107t84.5 86.5t131 33q69 0 124 -30t87 -79.5t48.5 -107t16.5 -118.5q0 -60 -16 -117t-48 -105.5t-85 -78t-121 -29.5q-62 0 -111.5 22t-79.5 56.5 t-50 80t-27.5 87.5t-7.5 84zM1085 324q0 -71 29.5 -121.5t83.5 -50.5q49 0 78 52t29 122q0 74 -29.5 125t-81.5 51q-50 0 -79.5 -52t-29.5 -126z" />
<glyph horiz-adv-x="114" d="M76 1149l205 268h118l-108 -268h-215z" />
<glyph horiz-adv-x="692" d="M47 434v160h594v-160h-594z" />
<glyph horiz-adv-x="1869" d="M160 713q0 158 61 301t165 247t247 165t301 61t301 -61t247 -165t165 -247t61 -301t-61 -301t-165 -247t-247 -165t-301 -61t-301 61t-247 165t-165 247t-61 301zM231 713q0 -191 94 -353t256 -256t353 -94q143 0 273 55.5t224 149.5t149.5 224.5t55.5 273.5t-55.5 273 t-149.5 224t-224 149.5t-273 55.5t-273.5 -55.5t-224.5 -149.5t-149.5 -224t-55.5 -273zM496 444v537q0 15 10 26t24 11q15 0 26 -11t11 -26v-537q0 -15 -11 -24.5t-26 -9.5q-14 0 -24 9.5t-10 24.5zM631 713q0 15 10 25t25 10h133q15 0 26 -10t11 -25t-11 -25t-26 -10h-133 q-15 0 -25 10t-10 25zM899 444v537q0 15 10 26t25 11t25 -11t10 -26v-537q0 -15 -10 -24.5t-25 -9.5t-25 9.5t-10 24.5zM1034 713q0 16 8 24l271 269q9 12 22 12t25 -12t12 -25q0 -15 -10 -25l-244 -243l244 -244q10 -10 10 -25q0 -13 -11.5 -23.5t-25.5 -10.5q-15 0 -22 10 l-271 268q-8 11 -8 25z" />
</font>
</defs>
</svg>
