<?xml version="1.0" standalone="no"?>
<!DOCTYPE svg PUBLIC "-//W3C//DTD SVG 1.1//EN" "http://www.w3.org/Graphics/SVG/1.1/DTD/svg11.dtd" >
<svg xmlns="http://www.w3.org/2000/svg">
<metadata></metadata>
<defs>
<font id="radnikamedium_italic" horiz-adv-x="0" >
<font-face units-per-em="2048" ascent="1638" descent="-410" />
<missing-glyph horiz-adv-x="468" />
<glyph unicode="&#x3c;&#x2d;" horiz-adv-x="2361" d="M182 639l1071 532l-32 -178l-576 -272h1600l-37 -170h-1610l467 -275l-35 -176z" />
<glyph unicode="&#x2d;&#x3e;" horiz-adv-x="2361" d="M164 551l37 170h1607l-465 272l35 178l848 -532l-1073 -539l35 176l579 275h-1603z" />
<glyph unicode="fi" horiz-adv-x="1181" d="M106 0l191 901h-184l30 148h185l26 114q26 118 117 184t215 66h141l-34 -164h-97q-57 0 -95.5 -32.5t-47.5 -81.5l-18 -86h593l-221 -1049h-205l191 901h-389l-191 -901h-207zM956 1204l45 209h207l-45 -209h-207z" />
<glyph unicode="fl" horiz-adv-x="1189" d="M106 0l191 901h-184l30 148h185l26 114q26 118 117 184t215 66h168l-35 -164h-123q-57 0 -95.5 -32.5t-47.5 -81.5l-18 -86h241l-31 -148h-241l-191 -901h-207zM715 0l299 1413h207l-299 -1413h-207z" />
<glyph unicode=" "  horiz-adv-x="468" />
<glyph unicode="&#x09;" horiz-adv-x="468" />
<glyph unicode="&#xa0;" horiz-adv-x="468" />
<glyph unicode="!" horiz-adv-x="555" d="M49 0l49 233h236l-49 -233h-236zM176 408l184 1005h211l-241 -1005h-154z" />
<glyph unicode="&#x22;" horiz-adv-x="778" d="M199 858l118 555h175l-119 -555h-174zM545 858l119 555h176l-119 -555h-176z" />
<glyph unicode="#" horiz-adv-x="1302" d="M51 428l31 139h252l125 299h-234l29 133h262l174 414h150l-170 -399h291l167 399h150l-170 -409h223l-28 -138h-254l-123 -299h233l-29 -135h-262l-180 -432h-151l178 418h-291l-174 -418h-152l176 428h-223zM485 567h289l125 299h-291z" />
<glyph unicode="$" horiz-adv-x="1118" d="M16 348l179 92q31 -135 111.5 -200.5t193.5 -65.5q119 0 206.5 62t110.5 165q4 21 5 40t-5 36t-10 30.5t-19 28.5t-23 24.5t-30.5 23t-32.5 20t-39 21t-39.5 19.5t-43.5 20q-36 13 -62.5 23t-60.5 25.5t-58 30t-51.5 35t-45 41.5t-33.5 49.5t-23 59.5t-7 69.5t9 81.5 q35 162 167 257t316 98l41 127l158 -50l-33 -100q154 -48 246 -199l-144 -116q-95 159 -272 159q-101 0 -176 -52.5t-94 -139.5q-8 -39 1 -69.5t47 -60t63 -43.5t92 -46l14 -7l12 -6q37 -14 63.5 -25t62 -28t60 -32.5t53 -37.5t46.5 -45t34.5 -53.5t23.5 -63.5t7 -74 t-10 -87q-40 -181 -189 -291t-350 -110q-41 0 -61 2l-39 -123l-158 49l37 117q-197 90 -250 319z" />
<glyph unicode="%" horiz-adv-x="1554" d="M182 2l1055 1409h197l-1055 -1409h-197zM207 1036q1 45 10 88q8 40 23 79.5t42 82.5t61.5 75.5t85 53.5t108.5 21q71 0 121.5 -32t72 -82.5t28.5 -113.5t-9 -125q-12 -55 -38 -107.5t-65 -97.5t-94.5 -72.5t-118.5 -27.5q-64 0 -110.5 23t-71 59.5t-35.5 83.5t-10 92z M341 1016.5q1 -41.5 26 -72.5t71 -31q66 0 114.5 62t63.5 139q17 70 -4 126t-86 56q-46 0 -85 -31.5t-61.5 -74t-33.5 -90.5q-6 -42 -5 -83.5zM875 256q1 45 10 88q12 51 34 100t58.5 99t95 81t129.5 31q58 0 102.5 -20.5t70 -55.5t40.5 -80.5t13 -95t-11 -100.5 q-11 -56 -37 -108.5t-64.5 -97.5t-94 -72t-119.5 -27q-63 0 -109.5 23t-71 59.5t-36 83.5t-10.5 92zM1010.5 236q0.5 -40 25.5 -70.5t72 -30.5q65 0 113 60.5t63 136.5q17 73 -3.5 129.5t-86.5 56.5q-67 0 -114.5 -62t-63.5 -139q-6 -41 -5.5 -81z" />
<glyph unicode="&#x26;" horiz-adv-x="1376" d="M49 389q30 138 136.5 235t271.5 152q-15 17 -24.5 30t-24.5 35t-25 41t-19.5 46.5t-13.5 53.5t-3.5 58.5t7.5 65.5q22 105 90.5 180.5t155 109.5t180.5 34q76 0 139 -23t107.5 -68t61 -112t-0.5 -156q-23 -100 -108.5 -182t-265.5 -164l207 -266l329 385l137 -105 l-358 -411l246 -328h-273l-124 168q-98 -98 -204.5 -146.5t-238.5 -48.5q-95 0 -174 28t-133.5 79t-76.5 131t-1 178zM256 356q-21 -94 35.5 -152.5t150.5 -58.5q92 0 169.5 43t156.5 129l-236 322q-113 -45 -183.5 -112t-92.5 -171zM547 1061q-17 -87 69 -213 q136 64 202 124.5t81 133.5q15 67 -18.5 111.5t-100.5 44.5q-82 0 -147.5 -56.5t-85.5 -144.5z" />
<glyph unicode="'" horiz-adv-x="432" d="M205 887l119 555h174l-119 -555h-174z" />
<glyph unicode="(" horiz-adv-x="638" d="M132.5 309.5q9.5 161.5 41.5 325.5q44 223 143 459.5t232 408.5h188q-319 -417 -411 -901q-96 -506 43 -893h-152q-53 115 -73.5 277t-11 323.5z" />
<glyph unicode=")" horiz-adv-x="636" d="M-78 -291q325 413 426 926q90 457 -37 868h156q68 -175 74.5 -429.5t-41.5 -475.5q-47 -234 -149 -477t-242 -412h-187z" />
<glyph unicode="*" horiz-adv-x="632" d="M178 1071l191 80l-160 80l80 104l135 -114l22 192h119l-63 -192l178 114l41 -104l-189 -80l158 -80l-78 -102l-137 112l-22 -192h-119l63 192l-176 -112z" />
<glyph unicode="+" horiz-adv-x="1312" d="M127 432l39 172h424l90 432h172l-92 -432h424l-39 -172h-422l-90 -432h-172l92 432h-426z" />
<glyph unicode="," horiz-adv-x="544" d="M-76 -330l182 330h-94l54 254h266l-51 -254l-232 -330h-125z" />
<glyph unicode="-" horiz-adv-x="1120" d="M162 432l37 172h757l-36 -172h-758z" />
<glyph unicode="." horiz-adv-x="481" d="M4 0l53 254h269l-54 -254h-268z" />
<glyph unicode="/" horiz-adv-x="980" d="M-66 -156l955 1567h201l-955 -1567h-201z" />
<glyph unicode="0" horiz-adv-x="1142" d="M80 510.5q5 103.5 29 216.5q23 107 58.5 204.5t91 191.5t123.5 162t161.5 109.5t199.5 41.5q105 0 184 -40t125 -109.5t68 -165.5t19 -205.5t-29 -231.5q-24 -115 -64 -217.5t-97 -192t-126.5 -154.5t-157.5 -102.5t-186 -37.5q-114 0 -196.5 43.5t-126.5 115.5 t-62.5 170t-13.5 201.5zM311 686q-107 -514 172 -514q68 0 128.5 34t104 88.5t80.5 130t60.5 149.5t40.5 155q21 98 27 181t-5.5 161t-58.5 123t-127 45q-71 0 -133 -33.5t-106 -86.5t-81 -127.5t-60.5 -148.5t-41.5 -157z" />
<glyph unicode="1" horiz-adv-x="831" d="M174 1006l41 206l383 201h199l-299 -1413h-211l258 1204z" />
<glyph unicode="2" horiz-adv-x="1148" d="M2 0l39 186q18 87 57.5 159t91 123t113.5 93t127.5 74.5t130.5 63t125 62.5t108.5 68t83.5 85.5t48 109.5q22 101 -25 163t-145 62q-123 0 -216.5 -89.5t-119.5 -235.5l-203 41q53 218 197 342.5t348 124.5q209 0 310 -122.5t61 -316.5q-22 -99 -78 -178.5t-129.5 -131 t-158 -95t-168 -81.5t-154 -78.5t-121.5 -97.5t-66 -128l-22 -21h745l-37 -182h-942z" />
<glyph unicode="3" horiz-adv-x="1122" d="M47.5 237.5q-21.5 85.5 1.5 198.5l201 -4q-28 -128 36.5 -198t184.5 -70q124 0 228.5 71t131.5 193q24 112 -39.5 170.5t-185.5 58.5h-96l37 179h82q96 0 167.5 57t92.5 158q20 90 -34 143t-155 53q-113 0 -197.5 -66t-109.5 -171l-190 34q39 184 180.5 287t329.5 103 q128 0 222 -46.5t137.5 -138.5t17.5 -213q-22 -105 -93.5 -179t-160.5 -97l-5 -19q115 -23 169.5 -111t25.5 -241q-28 -131 -115 -225.5t-202.5 -139t-247.5 -44.5q-103 0 -188 29t-144.5 86t-81 142.5z" />
<glyph unicode="4" horiz-adv-x="1128" d="M23 352l30 164l803 897h211l-188 -883h208l-36 -178h-209l-74 -352h-207l74 352h-612zM258 530h416l135 625z" />
<glyph unicode="5" horiz-adv-x="1138" d="M63 389l201 41q3 -118 65.5 -190t159.5 -72q127 0 229.5 93.5t131.5 234.5q26 121 -31.5 197.5t-173.5 76.5q-77 0 -159.5 -43t-135.5 -106l-182 71l283 721h751l-39 -182h-598l-149 -393q55 48 136 75t155 27q131 0 222 -62t126.5 -173t5.5 -250q-44 -209 -208 -342 t-374 -133q-178 0 -294.5 116.5t-121.5 292.5z" />
<glyph unicode="6" horiz-adv-x="1110" d="M68 341q-11 124 22 296q15 74 32 137.5t47 148t65 152t88.5 137t115.5 116.5t147.5 76.5t182.5 29.5q325 0 395 -301l-174 -64q-21 92 -72.5 138t-150.5 46q-78 0 -147.5 -33.5t-117 -84t-87 -118t-62 -126.5t-37.5 -119q135 143 342 143q209 0 311.5 -131.5t55.5 -347.5 q-40 -193 -200 -323.5t-359 -130.5q-111 0 -194 38t-137.5 117.5t-65.5 203.5zM276 438q-24 -120 32.5 -197t172.5 -77q128 0 228 88t125 221q22 118 -38.5 193t-177.5 75q-127 0 -222 -84.5t-120 -218.5z" />
<glyph unicode="7" horiz-adv-x="940" d="M137 0q221 797 705 1231h-647l38 182h861l-39 -209q-121 -105 -220.5 -223.5t-170.5 -231.5t-130 -244.5t-98 -248.5t-76 -256h-223z" />
<glyph unicode="8" horiz-adv-x="1128" d="M41 410q29 126 123 224.5t223 125.5l21 8q-87 31 -131 122t-21 200q34 150 169.5 247t315.5 97q193 0 295.5 -109.5t67.5 -275.5q-22 -98 -94.5 -178t-167.5 -107l-21 -8q121 -32 179.5 -140.5t29.5 -246.5q-37 -174 -194.5 -281.5t-370.5 -107.5q-224 0 -343.5 119.5 t-80.5 310.5zM248 395q-22 -107 41.5 -175t183.5 -68q132 0 233.5 80t124.5 204q22 104 -41.5 172t-183.5 68q-132 0 -233.5 -79.5t-124.5 -201.5zM449 1032q-19 -89 31 -147t145 -58q103 0 185 69t101 173q17 88 -32.5 144.5t-141.5 56.5q-106 0 -187.5 -68t-100.5 -170z " />
<glyph unicode="9" horiz-adv-x="1110" d="M25 281l174 63q21 -92 72.5 -138t150.5 -46q78 0 147.5 33.5t117 84t86.5 118t61.5 126.5t37.5 119q-135 -143 -342 -143q-209 0 -311 131t-55 348q40 193 200 324t359 131q111 0 194 -38t137.5 -118t65.5 -204t-22 -296q-15 -74 -32 -137.5t-47 -147.5t-65 -152 t-88.5 -137.5t-115.5 -116t-147.5 -76t-182.5 -29.5q-325 0 -395 301zM354 940q-22 -119 38 -193.5t177 -74.5q127 0 222 84.5t120 218.5q24 120 -32 197t-172 77q-128 0 -228 -88t-125 -221z" />
<glyph unicode=":" horiz-adv-x="493" d="M6 0l53 254h267l-54 -254h-266zM164 750l53 254h266l-51 -254h-268z" />
<glyph unicode=";" horiz-adv-x="548" d="M-76 -330l182 330h-92l54 254h268l-51 -254l-232 -330h-129zM174 750l53 254h269l-54 -254h-268z" />
<glyph unicode="&#x3c;" horiz-adv-x="1232" d="M135 674l1086 526l-39 -186l-707 -340l563 -334l-41 -193z" />
<glyph unicode="=" horiz-adv-x="1071" d="M74 233l39 177h798l-39 -177h-798zM158 627l37 176h798l-37 -176h-798z" />
<glyph unicode="&#x3e;" horiz-adv-x="1253" d="M80 147l35 193l745 334l-520 340l33 186l829 -526z" />
<glyph unicode="?" horiz-adv-x="958" d="M174 1057q36 164 166.5 270.5t304.5 106.5q87 0 159 -25.5t122 -75t68.5 -122.5t-1.5 -167q-20 -86 -66.5 -145.5t-100 -91t-106.5 -59t-95 -70t-56 -105.5l-34 -170h-175l41 191q13 64 40.5 111.5t61.5 76t72.5 51t76.5 42.5t71 44t59 62.5t37 91.5q22 94 -28.5 141.5 t-147.5 47.5q-104 0 -186.5 -64t-104.5 -160zM250 0l49 233h231l-49 -233h-231z" />
<glyph unicode="@" horiz-adv-x="1908" d="M64 254q-12 137 18 293q39 184 140 348.5t239 282t310 186t349 68.5q123 0 234 -33t197 -92.5t152.5 -142.5t101.5 -184t45 -216.5t-19 -239.5q-18 -85 -51 -167.5t-83.5 -160t-112.5 -136t-142.5 -93.5t-167.5 -35q-136 0 -194.5 78t-14.5 207q-139 -164 -336 -164 q-158 0 -221 113.5t-25 288.5q21 101 74 202.5t126.5 184.5t171 135.5t196.5 52.5q104 0 170.5 -54t60.5 -147l64 154h176l-287 -694q-43 -110 -29 -149.5t84 -41.5q68 -1 132 39t112 107t83.5 149t53.5 170q22 97 15 186.5t-35 167.5t-80 142.5t-119 110.5t-153 71t-181 25 q-148 0 -293 -58.5t-261 -158.5t-201.5 -240t-118.5 -297q-22 -115 -16 -219t48.5 -192.5t109 -153t166.5 -101t220 -36.5q108 0 223 32l37 -164q-127 -38 -260 -38q-147 0 -273 44.5t-215.5 125.5t-148.5 194t-71 250zM639 426q-21 -96 10 -148.5t117 -52.5q78 0 152.5 41 t129 106.5t93.5 142t55 151.5q21 95 -10.5 146.5t-116.5 51.5q-77 0 -151 -40.5t-129 -105t-94.5 -141t-55.5 -151.5z" />
<glyph unicode="A" horiz-adv-x="1251" d="M-109 0l781 1413h286l177 -1413h-226l-32 319h-582l-168 -319h-236zM387 494h473l-76 743h-6z" />
<glyph unicode="B" horiz-adv-x="1329" d="M70 0l299 1413h551q208 0 306 -107q70 -77 71 -194q0 -46 -11 -98q-23 -111 -103.5 -183.5t-170.5 -85.5v-12q114 -11 176 -112q42 -68 41 -156q0 -44 -10 -92q-38 -176 -174.5 -274.5t-337.5 -98.5h-637zM322 190h385q128 0 208 61.5t105 172.5q5 24 5 45q0 63 -44 105 q-59 56 -164 57h-401zM455 809h319q106 0 195.5 62t111.5 167q7 30 7 55q0 57 -34 89q-49 48 -165 47h-346z" />
<glyph unicode="C" horiz-adv-x="1343" d="M102 426q-6 44 -6 91q0 99 25 210q68 319 274 514t502 195q205 0 339.5 -108.5t160.5 -293.5l-201 -61q-10 131 -90.5 200.5t-218.5 69.5q-203 0 -356 -148t-205 -399q-20 -94 -20 -173q0 -124 50 -210q82 -141 273 -141q135 0 258.5 80t197.5 213l175 -98 q-100 -184 -270.5 -285.5t-368.5 -101.5q-155 0 -268.5 55.5t-173 154t-77.5 236.5z" />
<glyph unicode="D" horiz-adv-x="1372" d="M70 0l299 1413h383q352 -1 501 -191q99 -127 100 -324q0 -100 -26 -218q-69 -329 -291.5 -504.5t-570.5 -175.5h-395zM324 193h141q542 0 657 534q19 88 19 160q0 133 -64 212q-98 122 -356 122h-178z" />
<glyph unicode="E" horiz-adv-x="1214" d="M70 0l299 1413h931l-40 -186h-717l-90 -426h634l-36 -187h-637l-92 -428h716l-37 -186h-931z" />
<glyph unicode="F" horiz-adv-x="1165" d="M70 0l299 1413h940l-39 -186h-727l-90 -426h637l-37 -187h-639l-131 -614h-213z" />
<glyph unicode="G" horiz-adv-x="1492" d="M100 532q1 96 23 199q30 146 97 272t165.5 223.5t235 153.5t294.5 56q211 0 342 -103.5t170 -288.5l-194 -47q-63 248 -332 248q-117 0 -216 -44t-169 -121.5t-117 -174.5t-71 -211q-19 -86 -20 -162v-8q0 -71 18 -134q18 -66 56.5 -114t102.5 -75t150 -27 q185 0 325.5 108t186.5 285h-313l36 176h512l-157 -743h-168l37 211q-81 -101 -212.5 -166t-283.5 -65q-101 0 -183.5 27t-141.5 76t-99 118t-58 153q-17 77 -17 164q0 7 1 14z" />
<glyph unicode="H" horiz-adv-x="1445" d="M70 0l299 1413h215l-131 -612h659l129 612h215l-301 -1413h-213l129 612h-657l-131 -612h-213z" />
<glyph unicode="I" horiz-adv-x="573" d="M70 0l299 1413h213l-299 -1413h-213z" />
<glyph unicode="J" horiz-adv-x="761" d="M-76 2l27 195q82 -25 141 -25q132 0 209 88t109 238l194 915h213l-203 -958q-47 -226 -175.5 -350.5t-340.5 -124.5q-97 0 -174 22z" />
<glyph unicode="K" horiz-adv-x="1320" d="M70 0l299 1413h215l-142 -659l727 659h277l-658 -577l412 -836h-242l-325 698l-248 -217l-102 -481h-213z" />
<glyph unicode="L" horiz-adv-x="1015" d="M70 0l299 1413h213l-260 -1227h604l-39 -186h-817z" />
<glyph unicode="M" horiz-adv-x="1789" d="M70 0l299 1413h329l127 -1188l639 1188h334l-299 -1413h-213l252 1188h-8l-633 -1188h-225l-127 1188h-10l-252 -1188h-213z" />
<glyph unicode="N" horiz-adv-x="1511" d="M70 0l299 1413h260l424 -1132h12l242 1132h213l-299 -1413h-265l-421 1137h-11l-241 -1137h-213z" />
<glyph unicode="O" horiz-adv-x="1462" d="M120 331q-22 82 -22 180q0 100 23 216q69 325 281.5 516t504.5 191q306 0 444 -202q91 -133 91 -327q0 -101 -25 -219q-69 -324 -281 -515t-505 -191q-201 0 -334 92.5t-177 258.5zM332 686q-19 -91 -20 -167q0 -124 52 -210q82 -139 275 -139q205 0 360 151.5t207 405.5 q20 92 20 169q0 123 -50 208q-82 139 -277 139q-204 0 -358.5 -151t-208.5 -406z" />
<glyph unicode="P" horiz-adv-x="1310" d="M70 0l299 1413h592q223 0 329 -126q74 -88 73 -221q0 -57 -13 -122q-43 -199 -186 -306.5t-369 -107.5h-400l-112 -530h-213zM434 717h373q287 0 336 260q8 39 8 72q0 69 -36 113q-54 66 -191 65h-381z" />
<glyph unicode="Q" horiz-adv-x="1468" d="M120 331q-22 82 -22 180q0 100 23 216q69 325 281.5 516t504.5 191q306 0 444 -202q91 -134 91 -327q0 -101 -25 -219q-71 -326 -282 -516l143 -178l-141 -123l-154 194q-157 -83 -352 -83q-201 0 -334 92.5t-177 258.5zM332 686q-19 -91 -19 -167q0 -124 51 -210 q82 -139 275 -139q116 0 221 51l-176 225l133 119l191 -235q146 149 198 397q20 92 20 169q0 123 -50 208q-83 139 -277 139q-204 0 -358.5 -151t-208.5 -406z" />
<glyph unicode="R" horiz-adv-x="1349" d="M68 -2l301 1415h598q205 0 315 -115q82 -85 82 -211q0 -44 -10 -94q-30 -136 -122.5 -226.5t-234.5 -129.5l195 -639h-225l-176 614h-379l-131 -614h-213zM451 786l411 2q120 4 193.5 64.5t93.5 167.5q5 26 5 49q0 64 -39 105q-53 55 -177 55h-395z" />
<glyph unicode="S" horiz-adv-x="1118" d="M16 348l179 92q31 -135 111.5 -200.5t193.5 -65.5q119 0 206.5 62t110.5 165q4 21 5 40t-5 36t-10 30.5t-19 28.5t-23 24.5t-30.5 23t-32.5 20t-39 21t-39.5 19.5t-43.5 20q-36 13 -62.5 23t-60.5 25.5t-58 30t-51.5 35t-45 41.5t-33.5 49.5t-23 59.5t-7 69.5t9 81.5 q35 165 170 260t323 95q266 0 402 -222l-144 -116q-95 159 -272 159q-101 0 -176 -52.5t-94 -139.5q-4 -18 -4 -35q0 -18 5 -34q9 -30 47 -60t63 -44t92 -46l14 -7l12 -6q37 -14 63.5 -25t62 -28t60 -32.5t53 -37.5t46.5 -45t34.5 -53.5t23.5 -63.5t7 -74t-10 -87 q-40 -181 -189 -291t-350 -110q-176 0 -303 93t-168 271z" />
<glyph unicode="T" horiz-adv-x="1165" d="M168 1229l37 184h1130l-39 -184h-456l-260 -1229h-215l262 1229h-459z" />
<glyph unicode="U" horiz-adv-x="1368" d="M162 518l190 895h213l-194 -921q-12 -56 -12 -103q1 -81 37 -133q58 -82 196 -82q150 0 256.5 91t138.5 245l193 903h213l-191 -903q-54 -256 -213.5 -393t-404.5 -137q-254 0 -364 144q-75 97 -75 243q0 70 17 151z" />
<glyph unicode="V" horiz-adv-x="1267" d="M205 1413h223l125 -1235h6l651 1235h236l-778 -1413h-285z" />
<glyph unicode="W" horiz-adv-x="1878" d="M207 1413h219l-6 -1216h8l565 1216h267l49 -1216h6l512 1216h225l-622 -1413h-293l-50 1212l-567 -1212h-295z" />
<glyph unicode="X" horiz-adv-x="1239" d="M-104 0l622 707l-315 706h256l227 -551l467 551h266l-620 -706l317 -707h-256l-231 541l-465 -541h-268z" />
<glyph unicode="Y" horiz-adv-x="1359" d="M197 1413h239l285 -668l575 668h252l-753 -862l-119 -551h-215l121 551z" />
<glyph unicode="Z" horiz-adv-x="1187" d="M-76 0l31 156l1061 1071h-787l39 186h1073l-30 -164l-1055 -1063h825l-39 -186h-1118z" />
<glyph unicode="[" horiz-adv-x="565" d="M-35 -291l383 1794h389l-35 -166h-223l-311 -1460h223l-37 -168h-389z" />
<glyph unicode="\" horiz-adv-x="980" d="M272 1411h189l291 -1567h-191z" />
<glyph unicode="]" horiz-adv-x="565" d="M-137 -291l37 168h223l309 1460h-221l33 166h391l-381 -1794h-391z" />
<glyph unicode="^" horiz-adv-x="833" d="M27 584l571 827l229 -827h-194l-96 477l-306 -477h-204z" />
<glyph unicode="_" horiz-adv-x="813" d="M-147 -154l32 154h820l-33 -154h-819z" />
<glyph unicode="`" horiz-adv-x="501" d="M199 1364h233l170 -244h-162z" />
<glyph unicode="a" horiz-adv-x="1099" d="M35 289q12 59 39.5 105.5t73.5 83t96.5 63.5t126.5 52.5t146 45t171 45.5q31 8 48 12t44.5 11.5t50.5 13.5v2q6 29 6 53q-1 54 -33 82q-48 40 -161 41q-103 0 -182.5 -36.5t-151.5 -110.5l-129 112q99 104 211 154.5t258 50.5q92 0 167 -21.5t127.5 -62.5t73.5 -107 q11 -35 11 -75q0 -34 -8 -72l-154 -731h-188l27 125q-84 -68 -190 -108t-191 -40q-160 0 -239 85q-58 62 -58 155q0 34 8 72zM248 270q-3 -16 -4 -29q0 -33 22 -55q30 -30 90 -30q208 0 396 188l43 211q-255 -74 -326 -102q-169 -65 -209 -149q-8 -17 -12 -34z" />
<glyph unicode="b" horiz-adv-x="1251" d="M53 0l299 1413h205l-100 -489q148 145 360 145q115 0 196.5 -42.5t122 -118.5t50.5 -179q3 -26 2 -54q0 -80 -21 -171q-49 -237 -192.5 -382t-358.5 -145q-119 0 -199.5 45.5t-121.5 116.5l-12 -2l-27 -137h-203zM358 506q-12 -60 -12 -111q0 -87 36 -147q56 -94 185 -94 q161 0 263.5 101.5t138.5 289.5q12 62 12 114q-1 85 -35 141q-56 88 -203 89q-141 0 -246 -104.5t-139 -278.5z" />
<glyph unicode="c" horiz-adv-x="1048" d="M67 373q0 81 17 170q23 109 73 203t122 166.5t172 114.5t215 42q166 0 263.5 -80t121.5 -219l-183 -49q-4 88 -57.5 134t-144.5 46q-77 0 -144.5 -34.5t-115 -92.5t-79.5 -127t-48 -145q-14 -52 -14 -104q0 -12 1 -24q4 -64 22.5 -114t66 -81.5t118.5 -31.5q102 0 186 55 t127 142l156 -80q-78 -142 -198.5 -214.5t-276.5 -72.5q-97 0 -173.5 30t-123 82.5t-74.5 124.5q-29 72 -29 159z" />
<glyph unicode="d" horiz-adv-x="1251" d="M65 319q-3 27 -3 55q0 81 22 171q49 236 192 380t359 144q224 0 321 -164l11 2l104 506h205l-299 -1413h-203l25 125q-151 -148 -365 -148q-115 0 -196.5 43t-122 119t-50.5 180zM283 506q-16 -72 -16 -130q0 -222 233 -222q143 0 250 105t145 286q13 61 13 112 q0 83 -34 140q-56 92 -186 92q-159 0 -263.5 -100.5t-141.5 -282.5z" />
<glyph unicode="e" horiz-adv-x="1097" d="M66 356v17q0 75 16 159q22 110 72.5 206t123.5 170.5t174 117.5t216 43q95 0 167.5 -29.5t114 -80.5t65.5 -120q22 -62 22 -133q-1 -6 -1 -14q-2 -78 -18 -164q-4 -25 -19 -71l-729 6q-6 -42 -6 -79q0 -92 42 -148q58 -78 200 -78q153 0 289 104l112 -125 q-108 -85 -210 -121t-214 -36q-99 0 -177.5 28t-128.5 78t-79.5 119t-31.5 151zM305 623l531 -2q8 41 8 76q0 71 -32 121q-46 74 -165 75q-122 0 -211 -71.5t-131 -198.5z" />
<glyph unicode="f" horiz-adv-x="700" d="M102 0l193 907h-182l30 142h183l16 75q30 137 124.5 213t240.5 76h155l-33 -158h-112q-64 0 -113 -43t-61 -108l-15 -55h256l-30 -142h-254l-193 -907h-205z" />
<glyph unicode="g" horiz-adv-x="1251" d="M-31 -162l131 90q20 -57 74 -93t112 -48t124 -12q142 0 242.5 71t123.5 187l33 131q-65 -70 -157.5 -108t-200.5 -38q-90 0 -162 27t-117.5 76t-72.5 117.5t-28 151.5v8q0 79 17 169q49 227 197 364.5t366 137.5q103 0 183.5 -40.5t119.5 -117.5l13 11l24 127h207 l-219 -1029q-22 -103 -73.5 -181.5t-125.5 -127t-163 -72.5t-191 -24q-173 0 -296 56t-161 167zM278 393q7 -61 31 -107t76.5 -73t128.5 -27q158 0 256 99.5t129 263.5q11 56 12 106v7q0 46 -12 88q-13 46 -39 78.5t-72 51.5t-108 19q-155 0 -258 -106t-135 -271 q-11 -47 -11 -91q0 -19 2 -38z" />
<glyph unicode="h" horiz-adv-x="1181" d="M53 0l299 1413h205l-108 -512l8 8q138 160 334 160q169 0 244 -109q50 -73 51 -175q0 -50 -13 -107l-141 -678h-205l141 666q10 46 10 83q0 144 -151 144q-122 0 -218.5 -82.5t-121.5 -202.5l-129 -608h-205z" />
<glyph unicode="i" horiz-adv-x="534" d="M53 0l221 1049h205l-221 -1049h-205zM307 1204l45 209h207l-45 -209h-207z" />
<glyph unicode="j" horiz-adv-x="544" d="M-225 -365l20 166q101 0 171.5 58.5t90.5 146.5l222 1043h204l-221 -1045q-39 -189 -159.5 -279t-327.5 -90zM301 1202l45 211h221l-43 -211h-223z" />
<glyph unicode="k" horiz-adv-x="1097" d="M53 0l299 1413h205l-170 -801l537 437h254l-523 -424l351 -625h-218l-272 512l-180 -147l-78 -365h-205z" />
<glyph unicode="l" horiz-adv-x="522" d="M47 0l299 1413h207l-299 -1413h-207z" />
<glyph unicode="m" horiz-adv-x="1740" d="M53 0l221 1049h203l-31 -144l5 8q126 156 309 156q101 0 167.5 -50.5t86.5 -146.5l12 17q76 95 156 138q78 42 177 42h5q169 -1 238 -107q45 -69 45 -171q0 -54 -13 -117l-143 -674h-205l144 672q9 42 9 76q0 141 -151 141q-115 0 -188.5 -80t-100.5 -205l-127 -604h-204 l143 676q9 43 9 78q0 135 -144 135q-117 0 -190.5 -80t-100.5 -205l-127 -604h-205z" />
<glyph unicode="n" horiz-adv-x="1181" d="M53 0l221 1049h205l-33 -148l9 8q137 160 333 160q167 -1 245 -109q52 -73 52 -175q0 -50 -12 -107l-141 -678h-205l141 666q10 50 10 88q0 55 -20 86q-36 53 -129 53q-122 0 -219 -80.5t-123 -204.5l-129 -608h-205z" />
<glyph unicode="o" horiz-adv-x="1173" d="M72 298q-6 39 -6 82q0 74 18 161q54 254 217 391t385 137q114 0 202 -37.5t142.5 -110t70.5 -178.5q6 -37 5 -77q0 -76 -19 -166q-54 -251 -218.5 -387t-383.5 -136q-112 0 -199 36.5t-142 108t-72 176.5zM276 514q-15 -69 -15 -125q-1 -86 35 -143q58 -94 208 -94 q151 0 253.5 96t141.5 280q15 71 15 129q0 87 -34 144q-58 94 -208 94q-151 0 -254.5 -99t-141.5 -282z" />
<glyph unicode="p" horiz-adv-x="1249" d="M-25 -365l299 1414h203l-33 -162l7 24q136 158 366 158q108 0 188 -42.5t122.5 -118t54.5 -178.5q4 -32 4 -66q0 -76 -19 -160q-51 -233 -199.5 -380t-351.5 -147q-125 0 -207.5 52t-117.5 133l-2 6l-111 -533h-203zM350 506q-13 -62 -13 -114q0 -88 37 -148 q60 -94 193 -94q151 0 258.5 105t143.5 292q12 60 12 110q0 89 -39 148q-60 92 -199 92q-143 0 -250.5 -106t-142.5 -285z" />
<glyph unicode="q" horiz-adv-x="1249" d="M68 319q-4 31 -4 64q0 77 20 162q48 233 196 378.5t353 145.5q121 0 203 -48.5t118 -127.5l9 -6l30 162h203l-299 -1414h-201l109 508q-65 -76 -160.5 -121t-210.5 -45q-108 0 -188 43t-123 119t-55 180zM283 506q-13 -63 -13 -116q0 -89 37 -147q59 -93 197 -93 q146 0 254 106.5t141 290.5q12 60 12 110q0 87 -37 146q-58 94 -192 94q-149 0 -256.5 -104t-142.5 -287z" />
<glyph unicode="r" horiz-adv-x="774" d="M53 0l221 1049h197l-37 -172l8 4q58 92 133 138t152 46q84 0 135 -21l-41 -170q-33 5 -64 5q-136 -1 -236 -93q-122 -114 -167 -333l-96 -453h-205z" />
<glyph unicode="s" horiz-adv-x="983" d="M-8 205l141 102q25 -68 88.5 -114.5t165.5 -49.5h9q98 -1 176 41q82 44 100 127q8 33 -0.5 56t-40 40t-57 26t-81.5 24q-24 7 -36 10q-29 6 -52 11.5t-51 13.5t-49 17t-44 20.5t-39.5 25t-32.5 30t-25 36.5t-15 43t-5 51.5t8 60.5q30 143 149.5 218t290.5 75 q247 0 362 -188l-125 -107q-71 123 -227 133h-14q-90 -1 -158 -37q-74 -40 -90 -106q-4 -11 -4 -21q0 -43 66 -72q27 -13 155 -51q11 -3 21 -6q31 -7 56.5 -14t54.5 -17t51.5 -21t44.5 -26t38 -32t29 -39.5t18.5 -48t5.5 -57.5t-8 -68q-33 -148 -163.5 -231t-305.5 -83 q-143 0 -253.5 65t-153.5 163z" />
<glyph unicode="t" horiz-adv-x="696" d="M111 907l28 142h156l76 364h204l-77 -364h264l-31 -142h-264l-125 -594q-10 -44 -10 -73.5t10 -45.5q20 -30 94 -30h137l-32 -164h-199q-132 0 -186 74q-34 47 -34 119q0 42 11 92l131 622h-153z" />
<glyph unicode="u" horiz-adv-x="1187" d="M115 373l141 676h205l-139 -654q-9 -44 -9 -79q0 -146 152 -146q125 0 219.5 80.5t118.5 198.5l127 600h205l-222 -1049h-204l34 147l-16 -8q-130 -157 -326 -157q-171 0 -247 108q-51 73 -51 176q0 50 12 107z" />
<glyph unicode="v" horiz-adv-x="1005" d="M141 1049h217l66 -899l446 899h224l-566 -1049h-268z" />
<glyph unicode="w" horiz-adv-x="1529" d="M137 1049h217l-16 -893l442 893h185l63 -902l367 902h223l-469 -1049h-283l-47 782l-379 -784h-282z" />
<glyph unicode="x" horiz-adv-x="997" d="M-100 0l471 528l-242 521h231l162 -383l330 383h246l-471 -521l243 -528h-233l-160 391l-332 -391h-245z" />
<glyph unicode="y" horiz-adv-x="962" d="M-115 -365l21 166q64 0 117.5 13.5t89.5 33t69.5 52t52 58t41.5 62.5l-147 1029h213l76 -803h14l414 803h227l-622 -1100q-48 -84 -99.5 -142t-100 -91.5t-111.5 -52t-118.5 -23.5t-136.5 -5z" />
<glyph unicode="z" horiz-adv-x="956" d="M-53 0l28 150l752 731h-577l34 168h830l-31 -162l-737 -717h575l-35 -170h-839z" />
<glyph unicode="{" horiz-adv-x="659" d="M121 -14l90 438q6 26 7.5 44.5t-4.5 30t-11.5 18.5t-22 10t-26.5 3.5t-33 1.5l18 168q62 -2 103.5 25t58.5 100l90 441q23 112 112 186t202 74h98l-41 -193h-57q-46 0 -89 -32.5t-55 -75.5l-86 -420q-5 -28 -6.5 -35.5t-7.5 -31t-11 -32t-15 -26.5t-21.5 -28t-29.5 -22.5 t-40 -23.5q34 -18 47.5 -50.5t11.5 -65t-14 -82.5l-86 -418q-10 -42 11.5 -66t66.5 -24h78l-41 -191h-84q-112 0 -175 83t-38 194z" />
<glyph unicode="|" horiz-adv-x="516" d="M37 -156l362 1690h148l-361 -1690h-149z" />
<glyph unicode="}" horiz-adv-x="661" d="M-104 -291l38 191h60q46 0 88 32.5t53 75.5l88 418q1 6 6 27t6.5 27.5t6.5 24t9 24.5t11 21t15.5 21.5t19.5 18t25.5 19t31.5 16.5q-34 20 -47.5 53t-12 64.5t12.5 80.5l92 420q7 42 -15 66t-67 24h-77l41 193h86q112 0 175 -83t38 -196l-99 -440q-14 -71 10 -90t87 -17 l-21 -168q-61 -2 -100.5 -28t-55.5 -98l-96 -439q-23 -111 -110 -184.5t-199 -73.5h-100z" />
<glyph unicode="~" horiz-adv-x="1001" d="M57 397q32 140 101 216.5t172 76.5q55 0 97.5 -16.5t68 -40.5t47.5 -48t47.5 -40.5t56.5 -16.5q56 0 94.5 42.5t55.5 123.5l151 -18q-32 -151 -107.5 -229t-185.5 -78q-48 0 -87.5 17t-65 41t-48.5 47.5t-50 40.5t-58 17q-53 0 -91 -41.5t-50 -111.5z" />
<glyph unicode="&#xa1;" horiz-adv-x="555" d="M-23 -387l248 1028h154l-191 -1028h-211zM221 815l49 234h236l-49 -234h-236z" />
<glyph unicode="&#xa2;" horiz-adv-x="1048" d="M68.5 350q-8.5 93 15.5 193q29 135 96 245.5t175.5 186t242.5 90.5l29 135h149l-28 -137q129 -18 205.5 -94.5t97.5 -198.5l-183 -49q-4 88 -57.5 134t-144.5 46q-77 0 -144.5 -34.5t-115 -92.5t-79.5 -127t-48 -145q-17 -64 -13 -128t22.5 -114t66 -81.5t118.5 -31.5 q102 0 186 55t127 142l156 -80q-143 -262 -426 -284l-39 -185h-149l41 191q-94 18 -161 70t-99 126.5t-40.5 167.5z" />
<glyph unicode="&#xa3;" horiz-adv-x="1261" d="M76 553l37 170h163l48 221q46 218 205.5 354t367.5 136q156 0 269 -97.5t132 -244.5l-196 -56q-3 90 -64 145.5t-151 55.5q-138 0 -241 -86.5t-132 -224.5l-43 -203h381l-37 -170h-381l-78 -371h750l-39 -182h-944l117 553h-164z" />
<glyph unicode="&#xa4;" horiz-adv-x="1167" d="M53 311l131 113q-62 123 -28 276q28 143 137 252l-84 97l135 120l82 -104q132 82 274 82q150 0 252 -92l133 114l95 -120l-131 -113q64 -122 30 -277q-27 -138 -137 -251l82 -97l-135 -121l-82 105q-129 -82 -272 -82q-147 0 -254 92l-134 -115zM313 666 q-26 -123 44 -205t186 -82q133 0 243.5 89t137.5 226q24 123 -46.5 205t-187.5 82q-128 0 -238.5 -92.5t-138.5 -222.5z" />
<glyph unicode="&#xa5;" horiz-adv-x="1261" d="M164 166l31 143h301l47 215h-301l28 142h242l-315 747h196l275 -684l571 684h209l-633 -747h234l-29 -142h-301l-45 -215h299l-31 -143h-299l-37 -170h-178l37 170h-301z" />
<glyph unicode="&#xa6;" horiz-adv-x="528" d="M35 -156l133 623h168l-133 -623h-168zM231 762l138 651h168l-140 -651h-166z" />
<glyph unicode="&#xa7;" horiz-adv-x="1114" d="M98 279l203 40q4 -84 52 -119.5t143 -35.5q59 0 106.5 12t88 48t52.5 93q9 40 -18.5 65t-77.5 37.5t-111.5 23t-121.5 28.5t-106 47t-66.5 86.5t-3.5 138.5q23 118 141 203q-39 33 -53 88t0 119q29 134 147 207.5t268 73.5t243 -72t106 -205l-191 -29q-4 69 -45.5 99 t-118.5 30q-82 0 -147.5 -39.5t-81.5 -113.5q-8 -38 20 -61.5t78.5 -35t112 -22t121.5 -29.5t106 -49.5t66 -90t2 -144.5q-21 -115 -135 -199q80 -65 51 -201q-16 -77 -60 -134.5t-106.5 -90.5t-133 -49t-149.5 -16q-162 0 -266.5 74.5t-114.5 222.5zM426 713q-2 -21 6 -39 t26.5 -30t38.5 -21t49.5 -16t51.5 -11.5t53.5 -9.5t46.5 -8q115 45 127 153q2 22 -6.5 40t-27.5 30.5t-38 21.5t-49.5 15.5t-50 10.5t-52 8.5t-44.5 6.5q-53 -19 -88.5 -58.5t-42.5 -92.5z" />
<glyph unicode="&#xa8;" horiz-adv-x="628" d="M184 1153l43 211h185l-43 -211h-185zM528 1153l45 211h183l-43 -211h-185z" />
<glyph unicode="&#xa9;" horiz-adv-x="1703" d="M135 709q0 206 101.5 381.5t275 277.5t377.5 102q153 0 293.5 -60.5t242 -162t162 -242.5t60.5 -296t-60.5 -297t-162 -244t-242 -162.5t-293.5 -60.5t-292 60.5t-240.5 162.5t-161.5 244t-60 297zM246 709q0 -130 52 -251t138.5 -209t205.5 -141t247 -53q130 0 250 53 t207 141t138.5 209t51.5 251t-51.5 250.5t-138.5 208t-207 140t-250 52.5q-128 0 -247 -52.5t-205.5 -140t-138.5 -208t-52 -250.5zM436 709q-1 84 16 160.5t53.5 141.5t89 112.5t127 74.5t163.5 27q147 0 247.5 -70.5t147.5 -198.5l-147 -63q-23 84 -91 133t-159 49 q-58 0 -105.5 -21t-80 -56.5t-54.5 -83t-32 -98.5t-9 -105t11.5 -104.5t33 -97t54.5 -81.5t79.5 -55.5t104.5 -20.5q94 -1 160 47t90 129l141 -55q-45 -133 -145 -203.5t-250 -70.5q-109 0 -196 41.5t-140 112.5t-81 162t-28 194z" />
<glyph unicode="&#xaa;" horiz-adv-x="722" d="M25 899q6 31 18 56.5t32.5 47t40 38t54 32.5t60.5 26.5t73.5 24.5t78.5 22.5t90 24t95 25.5q14 65 -18.5 93t-110.5 28q-127 0 -227 -100l-88 75q68 72 144.5 107t176.5 35q130 0 203.5 -60.5t48.5 -171.5l-104 -500h-129l18 84q-58 -45 -130 -72.5t-130 -27.5 q-109 0 -162.5 58t-33.5 155zM170 887q-9 -37 12.5 -57.5t61.5 -20.5q142 0 268 129l31 143q-194 -55 -247 -78q-112 -48 -126 -116z" />
<glyph unicode="&#xab;" horiz-adv-x="1075" d="M121 510l473 344l-35 -186l-223 -158l151 -154l-34 -188zM545 510l473 344l-35 -186l-223 -158l151 -154l-34 -188z" />
<glyph unicode="&#xac;" horiz-adv-x="1189" d="M156 616l37 181h917l-123 -590h-194l86 409h-723z" />
<glyph unicode="&#xad;" horiz-adv-x="1120" d="M162 432l37 172h757l-36 -172h-758z" />
<glyph unicode="&#xae;" horiz-adv-x="1275" d="M109 893q0 147 70.5 271.5t192 197t265.5 72.5t266 -72.5t193 -197t71 -271.5t-71 -271.5t-193 -197t-266 -72.5t-265.5 72.5t-192 197t-70.5 271.5zM197 893q0 -119 59.5 -222t161 -164t219.5 -61t220 61t162 164t60 222t-60 222.5t-162 164.5t-220 61t-219.5 -61 t-161 -164.5t-59.5 -222.5zM457 614v553h215q93 0 142.5 -43.5t49.5 -122.5q0 -120 -108 -155l143 -232h-131l-119 217h-78v-217h-114zM563 930h109q86 0 86 71q0 72 -86 72h-109v-143z" />
<glyph unicode="&#xaf;" horiz-adv-x="679" d="M205 1186l24 123h551l-26 -123h-549z" />
<glyph unicode="&#xb0;" horiz-adv-x="772" d="M72 1122q0 133 89.5 222.5t223.5 89.5t224.5 -89.5t90.5 -222.5t-90.5 -222t-224.5 -89t-223.5 89t-89.5 222zM217 1122q0 -72 48.5 -120t119.5 -48q72 0 121 48t49 120q0 71 -49 119.5t-121 48.5q-71 0 -119.5 -49t-48.5 -119z" />
<glyph unicode="&#xb1;" horiz-adv-x="1339" d="M27 -2l32 154h1065l-32 -154h-1065zM174 696l31 154h457l94 442h153l-94 -442h457l-33 -154h-457l-92 -440h-153l94 440h-457z" />
<glyph unicode="&#xb4;" horiz-adv-x="501" d="M156 1122l274 242h244l-359 -242h-159z" />
<glyph unicode="&#xb5;" horiz-adv-x="1167" d="M-20 -266l268 1265h196l-122 -589q-54 -252 127 -252q117 0 217 84.5t127 201.5l114 555h197l-211 -999h-197l35 145q-53 -69 -140.5 -118.5t-176.5 -49.5q-97 0 -168 43l-90 -286h-176z" />
<glyph unicode="&#xb6;" horiz-adv-x="1150" d="M188 1038q25 116 106.5 203t190.5 129.5t228 42.5h147l-360 -1700h-140l201 910q-88 0 -164.5 28.5t-130 80t-76 131.5t-2.5 175zM680 -287l358 1700h144l-361 -1700h-141z" />
<glyph unicode="&#xb7;" horiz-adv-x="499" d="M176 829q10 52 52 85.5t96 33.5q63 0 98 -45t22 -112q-11 -50 -53 -84.5t-94 -34.5q-64 0 -99.5 46t-21.5 111z" />
<glyph unicode="&#xb8;" horiz-adv-x="460" d="M-154 -360l111 34q0 -30 20.5 -48.5t57.5 -18.5q44 0 75 25.5t37 62.5q5 30 -13.5 57.5t-61.5 40.5l-123 35l131 172h145l-106 -125l28 -16q61 -21 95 -70t18 -123q-12 -56 -49 -95t-81.5 -55t-92.5 -16q-78 0 -128 40.5t-63 99.5z" />
<glyph unicode="&#xba;" horiz-adv-x="794" d="M59 1075q36 172 146 264.5t260 92.5q158 0 234 -101.5t36 -281.5q-36 -169 -147 -261t-258 -92q-156 0 -233 99.5t-38 279.5zM188 1057q-26 -117 14 -180.5t140 -63.5q101 0 170.5 65t95.5 189q26 120 -13 184t-140 64q-102 0 -171.5 -67t-95.5 -191z" />
<glyph unicode="&#xbb;" horiz-adv-x="1081" d="M55 168l37 190l223 152l-155 154l37 190l333 -344zM479 168l37 190l223 152l-153 154l35 190l333 -344z" />
<glyph unicode="&#xbf;" horiz-adv-x="958" d="M-36.5 -163q-18.5 73 1.5 167q20 86 66.5 145.5t100 91t106.5 59t95 70t56 105.5l35 170h174l-41 -190q-13 -64 -40.5 -111.5t-61.5 -76t-72.5 -51t-76.5 -43t-71 -44.5t-59 -62.5t-37 -91.5q-22 -93 28.5 -140.5t147.5 -47.5q104 0 186.5 63.5t104.5 159.5l178 -18 q-36 -164 -166.5 -270.5t-304.5 -106.5q-87 0 -159 25.5t-122 74.5t-68.5 122zM428 815l49 234h232l-50 -234h-231z" />
<glyph unicode="&#xc0;" horiz-adv-x="1251" d="M-109 0l781 1413h286l177 -1413h-226l-32 319h-582l-168 -319h-236zM387 494h473l-76 743h-6zM582 1776h233l109 -244h-162z" />
<glyph unicode="&#xc1;" horiz-adv-x="1251" d="M-109 0l781 1413h286l177 -1413h-226l-32 319h-582l-168 -319h-236zM387 494h473l-76 743h-6zM762 1534l213 242h244l-297 -242h-160z" />
<glyph unicode="&#xc2;" horiz-adv-x="1251" d="M-109 0l781 1413h286l177 -1413h-226l-32 319h-582l-168 -319h-236zM387 494h473l-76 743h-6zM541 1509l307 267h86l196 -267h-159l-97 148l-161 -148h-172z" />
<glyph unicode="&#xc3;" horiz-adv-x="1251" d="M-109 0l781 1413h286l177 -1413h-226l-32 319h-582l-168 -319h-236zM387 494h473l-76 743h-6zM483 1540q49 236 230 236q49 0 87 -14.5t61.5 -35.5t44 -42t44 -35.5t51.5 -14.5q51 0 86 41.5t46 108.5l120 -19q-53 -245 -241 -245q-46 0 -83.5 14.5t-61 35t-44.5 40.5 t-44.5 34.5t-49.5 14.5q-50 0 -84.5 -39t-42.5 -98z" />
<glyph unicode="&#xc4;" horiz-adv-x="1251" d="M-109 0l781 1413h286l177 -1413h-226l-32 319h-582l-168 -319h-236zM387 494h473l-76 743h-6zM586 1565l43 211h184l-43 -211h-184zM930 1565l45 211h182l-43 -211h-184z" />
<glyph unicode="&#xc5;" horiz-adv-x="1251" d="M-109 0l756 1368q-65 75 -41 193q17 87 93 147.5t167 60.5q104 0 163 -74t36 -182q-21 -91 -100 -153l170 -1360h-226l-32 319h-582l-168 -319h-236zM387 494h473l-76 743h-6zM715 1546q-12 -54 17.5 -93.5t84.5 -39.5q49 0 87.5 32.5t49.5 80.5q12 54 -18 92.5t-84 38.5 q-47 0 -87 -32t-50 -79z" />
<glyph unicode="&#xc6;" horiz-adv-x="1847" d="M-109 0l848 1413h1194l-39 -188h-716l-91 -424h629l-39 -189h-630l-89 -419h717l-41 -193h-927l63 303h-461l-178 -303h-240zM416 487h393l160 750h-113z" />
<glyph unicode="&#xc7;" horiz-adv-x="1343" d="M100.5 441.5q-13.5 131.5 20.5 285.5q68 319 274 514t502 195q205 0 339.5 -108.5t160.5 -293.5l-201 -61q-10 131 -90.5 200.5t-218.5 69.5q-203 0 -356 -148t-205 -399q-52 -242 30 -383t273 -141q135 0 258.5 80t197.5 213l175 -98q-91 -165 -239.5 -264.5 t-324.5 -118.5l-92 -109l29 -16q61 -21 94.5 -70t17.5 -123q-12 -56 -49 -95t-81.5 -55t-92.5 -16q-78 0 -127.5 40t-62.5 100l110 34q0 -30 20.5 -48.5t57.5 -18.5q44 0 75.5 25.5t37.5 62.5q5 30 -14 57.5t-62 40.5l-123 35l117 154q-136 12 -235 72.5t-150.5 158t-65 229 z" />
<glyph unicode="&#xc8;" horiz-adv-x="1214" d="M70 0l299 1413h931l-40 -186h-717l-90 -426h634l-36 -187h-637l-92 -428h716l-37 -186h-931zM600 1776h234l108 -244h-162z" />
<glyph unicode="&#xc9;" horiz-adv-x="1214" d="M70 0l299 1413h931l-40 -186h-717l-90 -426h634l-36 -187h-637l-92 -428h716l-37 -186h-931zM780 1534l213 242h244l-297 -242h-160z" />
<glyph unicode="&#xca;" horiz-adv-x="1214" d="M70 0l299 1413h931l-40 -186h-717l-90 -426h634l-36 -187h-637l-92 -428h716l-37 -186h-931zM559 1509l307 267h86l197 -267h-160l-96 148l-162 -148h-172z" />
<glyph unicode="&#xcb;" horiz-adv-x="1214" d="M70 0l299 1413h931l-40 -186h-717l-90 -426h634l-36 -187h-637l-92 -428h716l-37 -186h-931zM604 1565l43 211h184l-43 -211h-184zM948 1565l45 211h183l-43 -211h-185z" />
<glyph unicode="&#xcc;" horiz-adv-x="573" d="M70 0l299 1413h213l-299 -1413h-213zM240 1776h233l109 -244h-162z" />
<glyph unicode="&#xcd;" horiz-adv-x="573" d="M70 0l299 1413h213l-299 -1413h-213zM420 1534l213 242h244l-297 -242h-160z" />
<glyph unicode="&#xce;" horiz-adv-x="573" d="M70 0l299 1413h213l-299 -1413h-213zM199 1509l307 267h86l196 -267h-159l-97 148l-161 -148h-172z" />
<glyph unicode="&#xcf;" horiz-adv-x="573" d="M70 0l299 1413h213l-299 -1413h-213zM244 1565l43 211h184l-43 -211h-184zM588 1565l45 211h182l-43 -211h-184z" />
<glyph unicode="&#xd0;" horiz-adv-x="1349" d="M43 637l31 151h139l133 625h383q352 0 501.5 -190.5t74.5 -542.5q-69 -329 -291.5 -504.5t-571.5 -175.5h-395l135 637h-139zM301 193h141q543 0 658 534q53 250 -45.5 372t-356.5 122h-178l-92 -433h330l-31 -151h-332z" />
<glyph unicode="&#xd1;" horiz-adv-x="1511" d="M70 0l299 1413h260l424 -1132h12l242 1132h213l-299 -1413h-265l-421 1137h-11l-241 -1137h-213zM610 1540q49 236 230 236q49 0 87 -14.5t61.5 -35.5t44 -42t44 -35.5t51.5 -14.5q51 0 86 41.5t46 108.5l120 -19q-53 -245 -241 -245q-46 0 -83.5 14.5t-61 35t-44.5 40.5 t-44.5 34.5t-49.5 14.5q-50 0 -84.5 -39t-42.5 -98z" />
<glyph unicode="&#xd2;" horiz-adv-x="1462" d="M120 331q-44 166 1 396q69 325 281.5 516t504.5 191q306 0 444 -202.5t66 -545.5q-69 -324 -281 -515t-505 -191q-201 0 -334 92.5t-177 258.5zM332 686q-51 -238 31.5 -377t275.5 -139q205 0 360 151.5t207 405.5q52 238 -30.5 377t-276.5 139q-204 0 -358.5 -151 t-208.5 -406zM684 1776h234l108 -244h-162z" />
<glyph unicode="&#xd3;" horiz-adv-x="1462" d="M120 331q-44 166 1 396q69 325 281.5 516t504.5 191q306 0 444 -202.5t66 -545.5q-69 -324 -281 -515t-505 -191q-201 0 -334 92.5t-177 258.5zM332 686q-51 -238 31.5 -377t275.5 -139q205 0 360 151.5t207 405.5q52 238 -30.5 377t-276.5 139q-204 0 -358.5 -151 t-208.5 -406zM864 1534l213 242h244l-297 -242h-160z" />
<glyph unicode="&#xd4;" horiz-adv-x="1462" d="M120 331q-44 166 1 396q69 325 281.5 516t504.5 191q306 0 444 -202.5t66 -545.5q-69 -324 -281 -515t-505 -191q-201 0 -334 92.5t-177 258.5zM332 686q-51 -238 31.5 -377t275.5 -139q205 0 360 151.5t207 405.5q52 238 -30.5 377t-276.5 139q-204 0 -358.5 -151 t-208.5 -406zM643 1509l307 267h86l197 -267h-160l-96 148l-162 -148h-172z" />
<glyph unicode="&#xd5;" horiz-adv-x="1462" d="M120 331q-44 166 1 396q69 325 281.5 516t504.5 191q306 0 444 -202.5t66 -545.5q-69 -324 -281 -515t-505 -191q-201 0 -334 92.5t-177 258.5zM332 686q-51 -238 31.5 -377t275.5 -139q205 0 360 151.5t207 405.5q52 238 -30.5 377t-276.5 139q-204 0 -358.5 -151 t-208.5 -406zM586 1540q49 236 229 236q49 0 87 -14.5t62 -35.5t44.5 -42t44 -35.5t51.5 -14.5q51 0 85.5 41.5t45.5 108.5l121 -19q-53 -245 -242 -245q-46 0 -83.5 14.5t-61 35t-44.5 40.5t-44.5 34.5t-49.5 14.5q-50 0 -84 -39t-42 -98z" />
<glyph unicode="&#xd6;" horiz-adv-x="1462" d="M120 331q-44 166 1 396q69 325 281.5 516t504.5 191q306 0 444 -202.5t66 -545.5q-69 -324 -281 -515t-505 -191q-201 0 -334 92.5t-177 258.5zM332 686q-51 -238 31.5 -377t275.5 -139q205 0 360 151.5t207 405.5q52 238 -30.5 377t-276.5 139q-204 0 -358.5 -151 t-208.5 -406zM688 1565l43 211h184l-43 -211h-184zM1032 1565l45 211h183l-43 -211h-185z" />
<glyph unicode="&#xd7;" horiz-adv-x="1310" d="M215 211l317 299l-288 307l131 121l289 -307l315 299l111 -121l-318 -297l291 -307l-131 -121l-289 305l-317 -299z" />
<glyph unicode="&#xd8;" horiz-adv-x="1462" d="M-6 152l145 120q-76 188 -18 455q69 325 281.5 516t504.5 191q283 0 424 -177l125 105l92 -100l-149 -123q74 -183 18 -453q-69 -324 -281 -515t-505 -191q-281 0 -422 174l-127 -105zM322 422l843 698q-85 123 -266 123q-204 0 -358.5 -151t-208.5 -406 q-31 -153 -10 -264zM375 291q85 -121 264 -121q205 0 360 151.5t207 405.5q33 141 13 262z" />
<glyph unicode="&#xd9;" horiz-adv-x="1368" d="M162 518l190 895h213l-194 -921q-34 -153 24.5 -235.5t196.5 -82.5q150 0 256.5 91t138.5 245l193 903h213l-191 -903q-54 -256 -213.5 -393t-404.5 -137q-254 0 -364.5 143.5t-57.5 394.5zM637 1776h233l109 -244h-162z" />
<glyph unicode="&#xda;" horiz-adv-x="1368" d="M162 518l190 895h213l-194 -921q-34 -153 24.5 -235.5t196.5 -82.5q150 0 256.5 91t138.5 245l193 903h213l-191 -903q-54 -256 -213.5 -393t-404.5 -137q-254 0 -364.5 143.5t-57.5 394.5zM817 1534l213 242h244l-297 -242h-160z" />
<glyph unicode="&#xdb;" horiz-adv-x="1368" d="M162 518l190 895h213l-194 -921q-34 -153 24.5 -235.5t196.5 -82.5q150 0 256.5 91t138.5 245l193 903h213l-191 -903q-54 -256 -213.5 -393t-404.5 -137q-254 0 -364.5 143.5t-57.5 394.5zM596 1509l307 267h86l197 -267h-160l-96 148l-162 -148h-172z" />
<glyph unicode="&#xdc;" horiz-adv-x="1368" d="M162 518l190 895h213l-194 -921q-34 -153 24.5 -235.5t196.5 -82.5q150 0 256.5 91t138.5 245l193 903h213l-191 -903q-54 -256 -213.5 -393t-404.5 -137q-254 0 -364.5 143.5t-57.5 394.5zM641 1565l43 211h184l-43 -211h-184zM985 1565l45 211h182l-43 -211h-184z" />
<glyph unicode="&#xdd;" horiz-adv-x="1359" d="M197 1413h239l285 -668l575 668h252l-753 -862l-119 -551h-215l121 551zM813 1534l213 242h244l-297 -242h-160z" />
<glyph unicode="&#xde;" horiz-adv-x="1210" d="M70 0l299 1413h200l-39 -182h281q104 0 188 -27.5t141 -82t78 -135.5t-1 -187q-40 -194 -183.5 -289.5t-361.5 -95.5h-316l-86 -414h-200zM397 598l297 2q136 -2 222 60t108 178q19 98 -39 150.5t-192 53.5h-301z" />
<glyph unicode="&#xdf;" horiz-adv-x="1146" d="M41 0l221 1049q26 122 101 211t173.5 131.5t208.5 42.5q65 0 125 -14t110.5 -42t84.5 -69t47.5 -95t-0.5 -120q-11 -52 -43.5 -96t-72 -74.5t-78.5 -58t-69.5 -58.5t-37.5 -64q-7 -32 9.5 -61.5t46 -54t62.5 -56.5t59.5 -69t38 -92t-2.5 -125q-30 -139 -144 -221 t-264 -82q-87 0 -188 32l25 195q86 -41 165 -41t139 47.5t77 128.5q8 35 -2 66t-31.5 53.5t-49 48t-54 49t-46.5 57.5t-27.5 73.5t3.5 96.5q10 46 40.5 84t68.5 65t76 53t68.5 61.5t39.5 78.5q14 65 -29.5 103.5t-130.5 38.5q-118 0 -198 -68.5t-103 -175.5l-217 -1028h-201 z" />
<glyph unicode="&#xe0;" horiz-adv-x="1099" d="M35 289q12 59 39.5 105.5t73.5 83t96.5 63.5t126.5 52.5t146 45t171 45.5q31 8 48 12t44.5 11.5t50.5 13.5v2q21 95 -26.5 135.5t-161.5 40.5q-103 0 -182.5 -36.5t-151.5 -110.5l-129 112q99 104 211 154.5t258 50.5q92 0 167 -21.5t127.5 -62.5t73.5 -106.5t3 -147.5 l-154 -731h-188l27 125q-84 -68 -190 -108t-191 -40q-160 0 -239 85t-50 227zM248 270q-12 -55 18.5 -84.5t89.5 -29.5q208 0 396 188l43 211q-255 -74 -326 -102q-169 -65 -209 -149q-8 -17 -12 -34zM420 1413h233l109 -244h-162z" />
<glyph unicode="&#xe1;" horiz-adv-x="1099" d="M35 289q12 59 39.5 105.5t73.5 83t96.5 63.5t126.5 52.5t146 45t171 45.5q31 8 48 12t44.5 11.5t50.5 13.5v2q21 95 -26.5 135.5t-161.5 40.5q-103 0 -182.5 -36.5t-151.5 -110.5l-129 112q99 104 211 154.5t258 50.5q92 0 167 -21.5t127.5 -62.5t73.5 -106.5t3 -147.5 l-154 -731h-188l27 125q-84 -68 -190 -108t-191 -40q-160 0 -239 85t-50 227zM248 270q-12 -55 18.5 -84.5t89.5 -29.5q208 0 396 188l43 211q-255 -74 -326 -102q-169 -65 -209 -149q-8 -17 -12 -34zM600 1171l213 242h244l-297 -242h-160z" />
<glyph unicode="&#xe2;" horiz-adv-x="1099" d="M35 289q12 59 39.5 105.5t73.5 83t96.5 63.5t126.5 52.5t146 45t171 45.5q31 8 48 12t44.5 11.5t50.5 13.5v2q21 95 -26.5 135.5t-161.5 40.5q-103 0 -182.5 -36.5t-151.5 -110.5l-129 112q99 104 211 154.5t258 50.5q92 0 167 -21.5t127.5 -62.5t73.5 -106.5t3 -147.5 l-154 -731h-188l27 125q-84 -68 -190 -108t-191 -40q-160 0 -239 85t-50 227zM248 270q-12 -55 18.5 -84.5t89.5 -29.5q208 0 396 188l43 211q-255 -74 -326 -102q-169 -65 -209 -149q-8 -17 -12 -34zM379 1147l307 266h86l197 -266h-160l-96 147l-162 -147h-172z" />
<glyph unicode="&#xe3;" horiz-adv-x="1099" d="M35 289q12 59 39.5 105.5t73.5 83t96.5 63.5t126.5 52.5t146 45t171 45.5q31 8 48 12t44.5 11.5t50.5 13.5v2q21 95 -26.5 135.5t-161.5 40.5q-103 0 -182.5 -36.5t-151.5 -110.5l-129 112q99 104 211 154.5t258 50.5q92 0 167 -21.5t127.5 -62.5t73.5 -106.5t3 -147.5 l-154 -731h-188l27 125q-84 -68 -190 -108t-191 -40q-160 0 -239 85t-50 227zM248 270q-12 -55 18.5 -84.5t89.5 -29.5q208 0 396 188l43 211q-255 -74 -326 -102q-169 -65 -209 -149q-8 -17 -12 -34zM322 1178q48 235 229 235q49 0 87 -14.5t62 -35.5t44.5 -41.5t44 -35 t51.5 -14.5q51 0 85.5 41t45.5 108l121 -18q-53 -246 -242 -246q-46 0 -83.5 14.5t-61 35t-44.5 40.5t-44.5 34.5t-49.5 14.5q-50 0 -84.5 -39t-42.5 -98z" />
<glyph unicode="&#xe4;" horiz-adv-x="1099" d="M35 289q12 59 39.5 105.5t73.5 83t96.5 63.5t126.5 52.5t146 45t171 45.5q31 8 48 12t44.5 11.5t50.5 13.5v2q21 95 -26.5 135.5t-161.5 40.5q-103 0 -182.5 -36.5t-151.5 -110.5l-129 112q99 104 211 154.5t258 50.5q92 0 167 -21.5t127.5 -62.5t73.5 -106.5t3 -147.5 l-154 -731h-188l27 125q-84 -68 -190 -108t-191 -40q-160 0 -239 85t-50 227zM248 270q-12 -55 18.5 -84.5t89.5 -29.5q208 0 396 188l43 211q-255 -74 -326 -102q-169 -65 -209 -149q-8 -17 -12 -34zM424 1202l43 211h184l-43 -211h-184zM768 1202l45 211h182l-43 -211 h-184z" />
<glyph unicode="&#xe5;" horiz-adv-x="1099" d="M35 289q12 59 39.5 105.5t73.5 83t96.5 63.5t126.5 52.5t146 45t171 45.5q31 8 48 12t44.5 11.5t50.5 13.5v2q21 95 -26.5 135.5t-161.5 40.5q-103 0 -182.5 -36.5t-151.5 -110.5l-129 112q99 104 211 154.5t258 50.5q92 0 167 -21.5t127.5 -62.5t73.5 -106.5t3 -147.5 l-154 -731h-188l27 125q-84 -68 -190 -108t-191 -40q-160 0 -239 85t-50 227zM248 270q-12 -55 18.5 -84.5t89.5 -29.5q208 0 396 188l43 211q-255 -74 -326 -102q-169 -65 -209 -149q-8 -17 -12 -34zM514 1350q15 76 81.5 129t145.5 53q92 0 143 -64.5t31 -158.5 q-17 -77 -83.5 -132t-145.5 -55q-92 0 -142 66.5t-30 161.5zM610 1337q-11 -47 15 -81.5t73 -34.5q43 0 77.5 28.5t43.5 69.5q10 47 -16.5 81t-73.5 34q-41 0 -75.5 -28t-43.5 -69z" />
<glyph unicode="&#xe6;" horiz-adv-x="1814" d="M37 297q36 170 233 268q176 65 549 121l6 14l6 27q21 93 -22 131.5t-145 38.5q-100 0 -196 -42t-169 -118l-129 121q95 100 222.5 154.5t266.5 54.5q112 0 200.5 -35t131.5 -102q155 139 367 139q95 0 167.5 -29.5t114 -80.5t65.5 -120t21.5 -147.5t-18.5 -163.5 q-5 -31 -18 -71l-727 6l-7 -35q-25 -270 240 -270q153 0 289 104l112 -125q-108 -85 -209.5 -121t-213.5 -36q-150 0 -248.5 61t-139.5 168q-93 -117 -210 -174.5t-244 -57.5q-164 0 -245 86.5t-50 233.5zM248 270q-12 -59 25.5 -91t115.5 -32q68 0 134.5 22t132 80 t100.5 146q0 62 16 137v3q-274 -49 -385 -113q-115 -48 -139 -152zM997 623l529 -2q23 123 -23.5 197.5t-165.5 74.5t-206 -67.5t-132 -190.5z" />
<glyph unicode="&#xe7;" horiz-adv-x="1048" d="M67.5 378.5q0.5 78.5 16.5 164.5q23 109 73 203t122 166.5t172 114.5t215 42q166 0 263.5 -80t121.5 -219l-183 -49q-4 88 -57.5 134t-144.5 46q-77 0 -144.5 -34.5t-115 -92.5t-79.5 -127t-48 -145q-17 -64 -13 -128t22.5 -114t66 -81.5t118.5 -31.5q102 0 186 55 t127 142l156 -80q-131 -242 -385 -280l-92 -109l29 -16q61 -21 94.5 -70t17.5 -123q-12 -56 -49 -95t-81.5 -55t-92.5 -16q-78 0 -127.5 40t-62.5 100l110 34q0 -30 20.5 -48.5t57.5 -18.5q44 0 75.5 25.5t37.5 62.5q5 30 -14 57.5t-62 40.5l-123 35l117 152 q-85 8 -151 42.5t-106.5 87t-64 121.5t-23 147.5z" />
<glyph unicode="&#xe8;" horiz-adv-x="1097" d="M66 356.5q-2 82.5 16 175.5q22 110 72.5 206t123.5 170.5t174 117.5t216 43q95 0 167.5 -29.5t114 -80.5t65.5 -120t21.5 -147.5t-18.5 -163.5q-4 -25 -19 -71l-729 6q-23 -150 35.5 -227.5t200.5 -77.5q153 0 289 104l112 -125q-108 -85 -210 -121t-214 -36 q-99 0 -177.5 28t-128.5 78t-79.5 119t-31.5 151.5zM305 623l531 -2q23 123 -23.5 197.5t-165.5 74.5q-122 0 -211 -71.5t-131 -198.5zM432 1413h234l108 -244h-162z" />
<glyph unicode="&#xe9;" horiz-adv-x="1097" d="M66 356.5q-2 82.5 16 175.5q22 110 72.5 206t123.5 170.5t174 117.5t216 43q95 0 167.5 -29.5t114 -80.5t65.5 -120t21.5 -147.5t-18.5 -163.5q-4 -25 -19 -71l-729 6q-23 -150 35.5 -227.5t200.5 -77.5q153 0 289 104l112 -125q-108 -85 -210 -121t-214 -36 q-99 0 -177.5 28t-128.5 78t-79.5 119t-31.5 151.5zM305 623l531 -2q23 123 -23.5 197.5t-165.5 74.5q-122 0 -211 -71.5t-131 -198.5zM612 1171l213 242h244l-297 -242h-160z" />
<glyph unicode="&#xea;" horiz-adv-x="1097" d="M66 356.5q-2 82.5 16 175.5q22 110 72.5 206t123.5 170.5t174 117.5t216 43q95 0 167.5 -29.5t114 -80.5t65.5 -120t21.5 -147.5t-18.5 -163.5q-4 -25 -19 -71l-729 6q-23 -150 35.5 -227.5t200.5 -77.5q153 0 289 104l112 -125q-108 -85 -210 -121t-214 -36 q-99 0 -177.5 28t-128.5 78t-79.5 119t-31.5 151.5zM305 623l531 -2q23 123 -23.5 197.5t-165.5 74.5q-122 0 -211 -71.5t-131 -198.5zM391 1147l307 266h86l197 -266h-160l-96 147l-162 -147h-172z" />
<glyph unicode="&#xeb;" horiz-adv-x="1097" d="M66 356.5q-2 82.5 16 175.5q22 110 72.5 206t123.5 170.5t174 117.5t216 43q95 0 167.5 -29.5t114 -80.5t65.5 -120t21.5 -147.5t-18.5 -163.5q-4 -25 -19 -71l-729 6q-23 -150 35.5 -227.5t200.5 -77.5q153 0 289 104l112 -125q-108 -85 -210 -121t-214 -36 q-99 0 -177.5 28t-128.5 78t-79.5 119t-31.5 151.5zM305 623l531 -2q23 123 -23.5 197.5t-165.5 74.5q-122 0 -211 -71.5t-131 -198.5zM436 1202l43 211h185l-43 -211h-185zM780 1202l45 211h183l-43 -211h-185z" />
<glyph unicode="&#xec;" horiz-adv-x="520" d="M47 0l221 1049h205l-221 -1049h-205zM135 1413h234l108 -244h-162z" />
<glyph unicode="&#xed;" horiz-adv-x="520" d="M47 0l221 1049h205l-221 -1049h-205zM315 1171l213 242h244l-297 -242h-160z" />
<glyph unicode="&#xee;" horiz-adv-x="520" d="M47 0l221 1049h205l-221 -1049h-205zM94 1147l307 266h86l197 -266h-160l-96 147l-162 -147h-172z" />
<glyph unicode="&#xef;" horiz-adv-x="520" d="M47 0l221 1049h205l-221 -1049h-205zM139 1202l43 211h185l-43 -211h-185zM483 1202l45 211h183l-43 -211h-185z" />
<glyph unicode="&#xf0;" horiz-adv-x="1138" d="M64 395q-2 69 16 142q21 101 71.5 193t123.5 163.5t171 113.5t205 42q85 0 156 -34t98 -77q-7 114 -60.5 191.5t-148.5 136.5l-114 -136l-82 56l110 127q-45 23 -139 63l94 135q93 -38 156 -71l115 129l77 -49l-110 -131q206 -139 265.5 -357.5t-11.5 -535.5 q-22 -101 -74 -193t-126 -163.5t-174.5 -113.5t-211.5 -42q-80 0 -146.5 21t-113.5 58t-81.5 88.5t-49 113t-16.5 130.5zM270.5 370.5q4.5 -60.5 25 -107t67.5 -74t114 -27.5q143 0 242.5 108.5t132.5 266.5q16 92 6.5 166t-61.5 120.5t-140 46.5q-143 0 -242 -107.5 t-132 -266.5q-17 -65 -12.5 -125.5z" />
<glyph unicode="&#xf1;" horiz-adv-x="1181" d="M53 0l221 1049h205l-33 -148l9 8q137 160 333 160q167 0 245 -108.5t40 -282.5l-141 -678h-205l141 666q25 121 -10.5 174t-128.5 53q-122 0 -219 -80.5t-123 -204.5l-129 -608h-205zM365 1182q48 235 229 235q49 0 87 -14.5t62 -35.5t44.5 -41.5t44 -35t51.5 -14.5 q51 0 85.5 41t45.5 108l121 -18q-53 -246 -242 -246q-46 0 -83.5 14.5t-61 35t-44.5 40.5t-44.5 34.5t-49.5 14.5q-50 0 -84.5 -39t-42.5 -98z" />
<glyph unicode="&#xf2;" horiz-adv-x="1173" d="M72 298q-17 105 12 243q54 254 217 391t385 137q114 0 202 -37.5t142.5 -110t70.5 -178.5t-14 -243q-54 -251 -218.5 -387t-383.5 -136q-112 0 -199 36.5t-142 108t-72 176.5zM276 514q-38 -174 20.5 -268t207.5 -94q151 0 253.5 96t141.5 280q38 179 -19.5 273 t-207.5 94q-151 0 -254.5 -99t-141.5 -282zM461 1413h233l109 -244h-162z" />
<glyph unicode="&#xf3;" horiz-adv-x="1173" d="M72 298q-17 105 12 243q54 254 217 391t385 137q114 0 202 -37.5t142.5 -110t70.5 -178.5t-14 -243q-54 -251 -218.5 -387t-383.5 -136q-112 0 -199 36.5t-142 108t-72 176.5zM276 514q-38 -174 20.5 -268t207.5 -94q151 0 253.5 96t141.5 280q38 179 -19.5 273 t-207.5 94q-151 0 -254.5 -99t-141.5 -282zM641 1171l213 242h244l-297 -242h-160z" />
<glyph unicode="&#xf4;" horiz-adv-x="1173" d="M72 298q-17 105 12 243q54 254 217 391t385 137q114 0 202 -37.5t142.5 -110t70.5 -178.5t-14 -243q-54 -251 -218.5 -387t-383.5 -136q-112 0 -199 36.5t-142 108t-72 176.5zM276 514q-38 -174 20.5 -268t207.5 -94q151 0 253.5 96t141.5 280q38 179 -19.5 273 t-207.5 94q-151 0 -254.5 -99t-141.5 -282zM420 1147l307 266h86l197 -266h-160l-96 147l-162 -147h-172z" />
<glyph unicode="&#xf5;" horiz-adv-x="1173" d="M72 298q-17 105 12 243q54 254 217 391t385 137q114 0 202 -37.5t142.5 -110t70.5 -178.5t-14 -243q-54 -251 -218.5 -387t-383.5 -136q-112 0 -199 36.5t-142 108t-72 176.5zM276 514q-38 -174 20.5 -268t207.5 -94q151 0 253.5 96t141.5 280q38 179 -19.5 273 t-207.5 94q-151 0 -254.5 -99t-141.5 -282zM362 1178q48 235 230 235q49 0 87 -14.5t62 -35.5t44.5 -41.5t44 -35t51.5 -14.5q51 0 85.5 41t45.5 108l121 -18q-53 -246 -242 -246q-46 0 -83.5 14.5t-61 35t-44.5 40.5t-44.5 34.5t-49.5 14.5q-50 0 -84.5 -39t-42.5 -98z" />
<glyph unicode="&#xf6;" horiz-adv-x="1173" d="M72 298q-17 105 12 243q54 254 217 391t385 137q114 0 202 -37.5t142.5 -110t70.5 -178.5t-14 -243q-54 -251 -218.5 -387t-383.5 -136q-112 0 -199 36.5t-142 108t-72 176.5zM276 514q-38 -174 20.5 -268t207.5 -94q151 0 253.5 96t141.5 280q38 179 -19.5 273 t-207.5 94q-151 0 -254.5 -99t-141.5 -282zM465 1202l43 211h184l-43 -211h-184zM809 1202l45 211h182l-43 -211h-184z" />
<glyph unicode="&#xf7;" horiz-adv-x="1171" d="M162 432l37 172h809l-37 -172h-809zM367 18l43 205h223l-43 -205h-223zM532 801l43 205h224l-43 -205h-224z" />
<glyph unicode="&#xf8;" horiz-adv-x="1173" d="M39 133l65 55q-65 143 -20 353q54 254 217 391t385 137q216 0 330 -129l53 45l66 -70l-68 -55q68 -146 20 -360q-54 -251 -218.5 -387t-383.5 -136q-215 0 -329 129l-56 -45zM268 322l600 497q-64 76 -196 76q-151 0 -254.5 -99t-141.5 -282q-23 -111 -8 -192zM307 231 q60 -79 197 -79q151 0 253.5 96t141.5 280q25 122 8 201z" />
<glyph unicode="&#xf9;" horiz-adv-x="1187" d="M115 373l141 676h205l-139 -654q-46 -225 143 -225q125 0 219.5 80.5t118.5 198.5l127 600h205l-222 -1049h-204l34 147l-16 -8q-130 -157 -326 -157q-172 0 -247.5 108.5t-38.5 282.5zM459 1413h233l109 -244h-162z" />
<glyph unicode="&#xfa;" horiz-adv-x="1187" d="M115 373l141 676h205l-139 -654q-46 -225 143 -225q125 0 219.5 80.5t118.5 198.5l127 600h205l-222 -1049h-204l34 147l-16 -8q-130 -157 -326 -157q-172 0 -247.5 108.5t-38.5 282.5zM639 1171l213 242h244l-297 -242h-160z" />
<glyph unicode="&#xfb;" horiz-adv-x="1187" d="M115 373l141 676h205l-139 -654q-46 -225 143 -225q125 0 219.5 80.5t118.5 198.5l127 600h205l-222 -1049h-204l34 147l-16 -8q-130 -157 -326 -157q-172 0 -247.5 108.5t-38.5 282.5zM418 1147l307 266h86l197 -266h-160l-96 147l-162 -147h-172z" />
<glyph unicode="&#xfc;" horiz-adv-x="1187" d="M115 373l141 676h205l-139 -654q-46 -225 143 -225q125 0 219.5 80.5t118.5 198.5l127 600h205l-222 -1049h-204l34 147l-16 -8q-130 -157 -326 -157q-172 0 -247.5 108.5t-38.5 282.5zM463 1202l43 211h184l-43 -211h-184zM807 1202l45 211h182l-43 -211h-184z" />
<glyph unicode="&#xfd;" horiz-adv-x="962" d="M-115 -365l21 166q64 0 117.5 13.5t89.5 33t69.5 52t52 58t41.5 62.5l-147 1029h213l76 -803h14l414 803h227l-622 -1100q-48 -84 -99.5 -142t-100 -91.5t-111.5 -52t-118.5 -23.5t-136.5 -5zM541 1171l213 242h243l-297 -242h-159z" />
<glyph unicode="&#xfe;" horiz-adv-x="1214" d="M-25 -365l377 1778h207l-113 -534l5 6q76 70 158 102.5t184 32.5q103 0 179.5 -41.5t116 -114t51.5 -171.5t-14 -214q-47 -220 -188 -359.5t-334 -139.5q-215 0 -305 147l-14 -6l-103 -486h-207zM352 485q-30 -147 20.5 -240t184.5 -93q149 0 250 104.5t131 267.5 q28 151 -23.5 243.5t-187.5 92.5q-147 0 -245.5 -106t-129.5 -269z" />
<glyph unicode="&#xff;" horiz-adv-x="962" d="M-115 -365l21 166q64 0 117.5 13.5t89.5 33t69.5 52t52 58t41.5 62.5l-147 1029h213l76 -803h14l414 803h227l-622 -1100q-48 -84 -99.5 -142t-100 -91.5t-111.5 -52t-118.5 -23.5t-136.5 -5zM365 1202l43 211h184l-43 -211h-184zM709 1202l45 211h182l-43 -211h-184z " />
<glyph unicode="&#x100;" horiz-adv-x="1251" d="M-109 0l781 1413h286l177 -1413h-226l-32 319h-582l-168 -319h-236zM387 494h473l-76 743h-6zM584 1597l24 123h551l-26 -123h-549z" />
<glyph unicode="&#x101;" horiz-adv-x="1099" d="M35 289q12 59 39.5 105.5t73.5 83t96.5 63.5t126.5 52.5t146 45t171 45.5q31 8 48 12t44.5 11.5t50.5 13.5v2q21 95 -26.5 135.5t-161.5 40.5q-103 0 -182.5 -36.5t-151.5 -110.5l-129 112q99 104 211 154.5t258 50.5q92 0 167 -21.5t127.5 -62.5t73.5 -106.5t3 -147.5 l-154 -731h-188l27 125q-84 -68 -190 -108t-191 -40q-160 0 -239 85t-50 227zM248 270q-12 -55 18.5 -84.5t89.5 -29.5q208 0 396 188l43 211q-255 -74 -326 -102q-169 -65 -209 -149q-8 -17 -12 -34zM422 1235l24 123h551l-26 -123h-549z" />
<glyph unicode="&#x102;" horiz-adv-x="1251" d="M-109 0l781 1413h286l177 -1413h-226l-32 319h-582l-168 -319h-236zM387 494h473l-76 743h-6zM586 1786h145q-12 -75 24 -115.5t101 -40.5q70 0 126 43t75 113h147q-25 -136 -122 -208.5t-228 -72.5q-134 0 -211 75t-57 206z" />
<glyph unicode="&#x103;" horiz-adv-x="1099" d="M35 289q12 59 39.5 105.5t73.5 83t96.5 63.5t126.5 52.5t146 45t171 45.5q31 8 48 12t44.5 11.5t50.5 13.5v2q21 95 -26.5 135.5t-161.5 40.5q-103 0 -182.5 -36.5t-151.5 -110.5l-129 112q99 104 211 154.5t258 50.5q92 0 167 -21.5t127.5 -62.5t73.5 -106.5t3 -147.5 l-154 -731h-188l27 125q-84 -68 -190 -108t-191 -40q-160 0 -239 85t-50 227zM248 270q-12 -55 18.5 -84.5t89.5 -29.5q208 0 396 188l43 211q-255 -74 -326 -102q-169 -65 -209 -149q-8 -17 -12 -34zM424 1423h145q-12 -75 24 -115t101 -40q70 0 126 42.5t75 112.5h147 q-25 -135 -122 -207.5t-228 -72.5q-134 0 -211 74.5t-57 205.5z" />
<glyph unicode="&#x104;" horiz-adv-x="1251" d="M-109 0l781 1413h286l177 -1413h2q-175 -95 -217 -223q-14 -49 3 -76t54 -27q68 0 129 74l96 -90q-89 -109 -219 -109q-100 0 -153.5 61t-30.5 165q13 66 60 123.5t116 101.5h-66l-32 319h-582l-168 -319h-236zM387 494h473l-76 743h-6z" />
<glyph unicode="&#x105;" horiz-adv-x="1099" d="M35 289q12 59 39.5 105.5t73.5 83t96.5 63.5t126.5 52.5t146 45t171 45.5q31 8 48 12t44.5 11.5t50.5 13.5v2q21 95 -26.5 135.5t-161.5 40.5q-103 0 -182.5 -36.5t-151.5 -110.5l-129 112q99 104 211 154.5t258 50.5q92 0 167 -21.5t127.5 -62.5t73.5 -106.5t3 -147.5 l-154 -731q-175 -95 -217 -223q-14 -49 3.5 -76t54.5 -27q68 0 129 74l96 -90q-89 -109 -219 -109q-100 0 -154 61t-31 165q25 128 177 225h-27l27 125q-84 -68 -190 -108t-191 -40q-160 0 -239 85t-50 227zM248 270q-12 -55 18.5 -84.5t89.5 -29.5q208 0 396 188l43 211 q-255 -74 -326 -102q-169 -65 -209 -149q-8 -17 -12 -34z" />
<glyph unicode="&#x106;" horiz-adv-x="1343" d="M101.5 426.5q-17.5 137.5 19.5 300.5q68 319 274 514t502 195q205 0 339.5 -108.5t160.5 -293.5l-201 -61q-10 131 -90.5 200.5t-218.5 69.5q-203 0 -356 -148t-205 -399q-52 -242 30 -383t273 -141q135 0 258.5 80t197.5 213l175 -98q-100 -184 -270.5 -285.5 t-368.5 -101.5q-155 0 -268.5 55.5t-173.5 154.5t-77.5 236.5zM821 1534l213 242h244l-297 -242h-160z" />
<glyph unicode="&#x107;" horiz-adv-x="1048" d="M67.5 368.5q-0.5 83.5 16.5 174.5q23 109 73 203t122 166.5t172 114.5t215 42q166 0 263.5 -80t121.5 -219l-183 -49q-4 88 -57.5 134t-144.5 46q-77 0 -144.5 -34.5t-115 -92.5t-79.5 -127t-48 -145q-17 -64 -13 -128t22.5 -114t66 -81.5t118.5 -31.5q102 0 186 55 t127 142l156 -80q-78 -142 -198.5 -214.5t-276.5 -72.5q-97 0 -173.5 30t-123 82.5t-74.5 124t-28.5 155zM590 1171l213 242h244l-297 -242h-160z" />
<glyph unicode="&#x10a;" horiz-adv-x="1343" d="M101.5 426.5q-17.5 137.5 19.5 300.5q68 319 274 514t502 195q205 0 339.5 -108.5t160.5 -293.5l-201 -61q-10 131 -90.5 200.5t-218.5 69.5q-203 0 -356 -148t-205 -399q-52 -242 30 -383t273 -141q135 0 258.5 80t197.5 213l175 -98q-100 -184 -270.5 -285.5 t-368.5 -101.5q-155 0 -268.5 55.5t-173.5 154.5t-77.5 236.5zM821 1571l43 205h178l-43 -205h-178z" />
<glyph unicode="&#x10b;" horiz-adv-x="1048" d="M67.5 368.5q-0.5 83.5 16.5 174.5q23 109 73 203t122 166.5t172 114.5t215 42q166 0 263.5 -80t121.5 -219l-183 -49q-4 88 -57.5 134t-144.5 46q-77 0 -144.5 -34.5t-115 -92.5t-79.5 -127t-48 -145q-17 -64 -13 -128t22.5 -114t66 -81.5t118.5 -31.5q102 0 186 55 t127 142l156 -80q-78 -142 -198.5 -214.5t-276.5 -72.5q-97 0 -173.5 30t-123 82.5t-74.5 124t-28.5 155zM590 1208l43 205h178l-43 -205h-178z" />
<glyph unicode="&#x10c;" horiz-adv-x="1343" d="M101.5 426.5q-17.5 137.5 19.5 300.5q68 319 274 514t502 195q205 0 339.5 -108.5t160.5 -293.5l-201 -61q-10 131 -90.5 200.5t-218.5 69.5q-203 0 -356 -148t-205 -399q-52 -242 30 -383t273 -141q135 0 258.5 80t197.5 213l175 -98q-100 -184 -270.5 -285.5 t-368.5 -101.5q-155 0 -268.5 55.5t-173.5 154.5t-77.5 236.5zM662 1776h159l97 -144l161 144h174l-311 -267h-84z" />
<glyph unicode="&#x10d;" horiz-adv-x="1048" d="M67.5 368.5q-0.5 83.5 16.5 174.5q23 109 73 203t122 166.5t172 114.5t215 42q166 0 263.5 -80t121.5 -219l-183 -49q-4 88 -57.5 134t-144.5 46q-77 0 -144.5 -34.5t-115 -92.5t-79.5 -127t-48 -145q-17 -64 -13 -128t22.5 -114t66 -81.5t118.5 -31.5q102 0 186 55 t127 142l156 -80q-78 -142 -198.5 -214.5t-276.5 -72.5q-97 0 -173.5 30t-123 82.5t-74.5 124t-28.5 155zM430 1413h160l96 -143l162 143h174l-311 -266h-84z" />
<glyph unicode="&#x10e;" horiz-adv-x="1372" d="M70 0l299 1413h383q352 0 501 -190.5t74 -542.5q-69 -329 -291.5 -504.5t-570.5 -175.5h-395zM324 193h141q542 0 657 534q53 250 -45 372t-356 122h-178zM651 1776h160l96 -144l162 144h174l-311 -267h-84z" />
<glyph unicode="&#x10f;" horiz-adv-x="1304" d="M65 319q-10 104 19 226q49 236 192 380t359 144q224 0 321 -164l11 2l104 506h205l-299 -1413h-203l25 125q-151 -148 -365 -148q-115 0 -196.5 43t-122 119t-50.5 180zM283 506q-76 -352 217 -352q143 0 250 105t145 286q34 160 -21.5 252t-185.5 92 q-159 0 -263.5 -100.5t-141.5 -282.5zM1260 911l155 285h-80l45 219h230l-43 -219l-201 -285h-106z" />
<glyph unicode="&#x110;" horiz-adv-x="1349" d="M43 637l31 151h139l133 625h383q352 0 501.5 -190.5t74.5 -542.5q-69 -329 -291.5 -504.5t-571.5 -175.5h-395l135 637h-139zM301 193h141q543 0 658 534q53 250 -45.5 372t-356.5 122h-178l-92 -433h330l-31 -151h-332z" />
<glyph unicode="&#x111;" horiz-adv-x="1251" d="M65 319q-10 104 19 226q49 236 192 380t359 144q224 0 321 -164l11 2l55 264h-287l23 107h284l29 135h205l-29 -135h158l-23 -107h-157l-248 -1171h-203l25 125q-151 -148 -365 -148q-115 0 -196.5 43t-122 119t-50.5 180zM283 506q-76 -352 217 -352q143 0 250 105 t145 286q34 160 -21.5 252t-185.5 92q-159 0 -263.5 -100.5t-141.5 -282.5z" />
<glyph unicode="&#x112;" horiz-adv-x="1214" d="M70 0l299 1413h931l-40 -186h-717l-90 -426h634l-36 -187h-637l-92 -428h716l-37 -186h-931zM602 1597l25 123h551l-27 -123h-549z" />
<glyph unicode="&#x113;" horiz-adv-x="1097" d="M66 356.5q-2 82.5 16 175.5q22 110 72.5 206t123.5 170.5t174 117.5t216 43q95 0 167.5 -29.5t114 -80.5t65.5 -120t21.5 -147.5t-18.5 -163.5q-4 -25 -19 -71l-729 6q-23 -150 35.5 -227.5t200.5 -77.5q153 0 289 104l112 -125q-108 -85 -210 -121t-214 -36 q-99 0 -177.5 28t-128.5 78t-79.5 119t-31.5 151.5zM305 623l531 -2q23 123 -23.5 197.5t-165.5 74.5q-122 0 -211 -71.5t-131 -198.5zM434 1235l25 123h551l-27 -123h-549z" />
<glyph unicode="&#x116;" horiz-adv-x="1214" d="M70 0l299 1413h931l-40 -186h-717l-90 -426h634l-36 -187h-637l-92 -428h716l-37 -186h-931zM780 1571l43 205h178l-43 -205h-178z" />
<glyph unicode="&#x117;" horiz-adv-x="1097" d="M66 356.5q-2 82.5 16 175.5q22 110 72.5 206t123.5 170.5t174 117.5t216 43q95 0 167.5 -29.5t114 -80.5t65.5 -120t21.5 -147.5t-18.5 -163.5q-4 -25 -19 -71l-729 6q-23 -150 35.5 -227.5t200.5 -77.5q153 0 289 104l112 -125q-108 -85 -210 -121t-214 -36 q-99 0 -177.5 28t-128.5 78t-79.5 119t-31.5 151.5zM305 623l531 -2q23 123 -23.5 197.5t-165.5 74.5q-122 0 -211 -71.5t-131 -198.5zM612 1208l43 205h179l-43 -205h-179z" />
<glyph unicode="&#x118;" horiz-adv-x="1214" d="M70 0l299 1413h931l-40 -186h-717l-90 -426h634l-36 -187h-637l-92 -428h716l-37 -186q-175 -95 -217 -223q-14 -49 3.5 -76t54.5 -27q68 0 129 74l96 -90q-89 -109 -219 -109q-100 0 -153.5 61t-30.5 165q13 66 60 123.5t116 101.5h-770z" />
<glyph unicode="&#x119;" horiz-adv-x="1097" d="M66 356.5q-2 82.5 16 175.5q22 110 72.5 206t123.5 170.5t174 117.5t216 43q95 0 167.5 -29.5t114 -80.5t65.5 -120t21.5 -147.5t-18.5 -163.5q-4 -25 -19 -71l-729 6q-23 -150 35.5 -227.5t200.5 -77.5q153 0 289 104l112 -125q-69 -54 -139 -90q-58 -58 -82 -129 q-14 -49 3 -75.5t54 -26.5q69 0 129 73l97 -90q-88 -108 -219 -108q-100 0 -154 60.5t-31 164.5q9 38 27 72q-47 -8 -109 -8q-99 0 -177.5 28t-128.5 78t-79.5 119t-31.5 151.5zM305 623l531 -2q23 123 -23.5 197.5t-165.5 74.5q-122 0 -211 -71.5t-131 -198.5z" />
<glyph unicode="&#x11a;" horiz-adv-x="1214" d="M70 0l299 1413h931l-40 -186h-717l-90 -426h634l-36 -187h-637l-92 -428h716l-37 -186h-931zM621 1776h159l97 -144l161 144h174l-311 -267h-84z" />
<glyph unicode="&#x11b;" horiz-adv-x="1097" d="M66 356.5q-2 82.5 16 175.5q22 110 72.5 206t123.5 170.5t174 117.5t216 43q95 0 167.5 -29.5t114 -80.5t65.5 -120t21.5 -147.5t-18.5 -163.5q-4 -25 -19 -71l-729 6q-23 -150 35.5 -227.5t200.5 -77.5q153 0 289 104l112 -125q-108 -85 -210 -121t-214 -36 q-99 0 -177.5 28t-128.5 78t-79.5 119t-31.5 151.5zM305 623l531 -2q23 123 -23.5 197.5t-165.5 74.5q-122 0 -211 -71.5t-131 -198.5zM453 1413h159l97 -143l161 143h174l-311 -266h-84z" />
<glyph unicode="&#x11e;" horiz-adv-x="1492" d="M99.5 532.5q1.5 95.5 23.5 198.5q30 146 97 272t165.5 223.5t235 153.5t294.5 56q211 0 342 -103.5t170 -288.5l-194 -47q-63 248 -332 248q-117 0 -216 -44t-169 -121.5t-117 -174.5t-71 -211q-19 -86 -20 -162t17.5 -142t57 -114t102.5 -75t150 -27q185 0 325.5 108 t186.5 285h-313l36 176h512l-157 -743h-168l37 211q-81 -101 -212.5 -166t-283.5 -65q-101 0 -183.5 27t-141.5 76t-99 118t-58 152.5t-16.5 179zM684 1786h145q-12 -75 24 -115.5t101 -40.5q70 0 126 43t75 113h148q-25 -135 -122.5 -208t-228.5 -73q-134 0 -211 75 t-57 206z" />
<glyph unicode="&#x11f;" horiz-adv-x="1251" d="M-31 -162l131 90q20 -57 74 -93t112 -48t124 -12q142 0 242.5 71t123.5 187l33 131q-65 -70 -157.5 -108t-200.5 -38q-90 0 -162 27t-117.5 76t-72.5 117.5t-28 151t17 177.5q49 227 197 364.5t366 137.5q103 0 183.5 -40.5t119.5 -117.5l13 11l24 127h207l-219 -1029 q-22 -103 -73.5 -181.5t-125.5 -127t-163 -72.5t-191 -24q-173 0 -296 56t-161 167zM278 393q7 -61 31 -107t76.5 -73t128.5 -27q158 0 256 99.5t129 263.5q11 56 12 106t-12 95.5t-39 78t-72 51.5t-108 19q-155 0 -258 -106t-135 -271q-16 -68 -9 -129zM465 1423h145 q-12 -75 24 -115t101 -40q70 0 126 42.5t75 112.5h147q-25 -135 -122 -207.5t-228 -72.5q-134 0 -211 74.5t-57 205.5z" />
<glyph unicode="&#x120;" horiz-adv-x="1492" d="M99.5 532.5q1.5 95.5 23.5 198.5q30 146 97 272t165.5 223.5t235 153.5t294.5 56q211 0 342 -103.5t170 -288.5l-194 -47q-63 248 -332 248q-117 0 -216 -44t-169 -121.5t-117 -174.5t-71 -211q-19 -86 -20 -162t17.5 -142t57 -114t102.5 -75t150 -27q185 0 325.5 108 t186.5 285h-313l36 176h512l-157 -743h-168l37 211q-81 -101 -212.5 -166t-283.5 -65q-101 0 -183.5 27t-141.5 76t-99 118t-58 152.5t-16.5 179zM860 1571l43 205h178l-43 -205h-178z" />
<glyph unicode="&#x121;" horiz-adv-x="1251" d="M-31 -162l131 90q20 -57 74 -93t112 -48t124 -12q142 0 242.5 71t123.5 187l33 131q-65 -70 -157.5 -108t-200.5 -38q-90 0 -162 27t-117.5 76t-72.5 117.5t-28 151t17 177.5q49 227 197 364.5t366 137.5q103 0 183.5 -40.5t119.5 -117.5l13 11l24 127h207l-219 -1029 q-22 -103 -73.5 -181.5t-125.5 -127t-163 -72.5t-191 -24q-173 0 -296 56t-161 167zM278 393q7 -61 31 -107t76.5 -73t128.5 -27q158 0 256 99.5t129 263.5q11 56 12 106t-12 95.5t-39 78t-72 51.5t-108 19q-155 0 -258 -106t-135 -271q-16 -68 -9 -129zM641 1208l43 205 h178l-43 -205h-178z" />
<glyph unicode="&#x122;" horiz-adv-x="1492" d="M99.5 532.5q1.5 95.5 23.5 198.5q30 146 97 272t165.5 223.5t235 153.5t294.5 56q211 0 342 -103.5t170 -288.5l-194 -47q-63 248 -332 248q-117 0 -216 -44t-169 -121.5t-117 -174.5t-71 -211q-19 -86 -20 -162t17.5 -142t57 -114t102.5 -75t150 -27q185 0 325.5 108 t186.5 285h-313l36 176h512l-157 -743h-168l37 211q-81 -101 -212.5 -166t-283.5 -65q-101 0 -183.5 27t-141.5 76t-99 118t-58 152.5t-16.5 179zM287 -442l194 303h236l-301 -303h-129z" />
<glyph unicode="&#x123;" horiz-adv-x="1243" d="M-31 -162l131 90q20 -57 74 -93t112 -48t124 -12q142 0 242.5 71t123.5 187l33 131q-65 -70 -157.5 -108t-200.5 -38q-90 0 -162 27t-117.5 76t-72.5 117.5t-28 151t17 177.5q49 227 197 364.5t366 137.5q103 0 183.5 -40.5t119.5 -117.5l13 11l24 127h207l-219 -1029 q-22 -103 -73.5 -181.5t-125.5 -127t-163 -72.5t-191 -24q-173 0 -296 56t-161 167zM278 393q7 -61 31 -107t76.5 -73t128.5 -27q158 0 256 99.5t129 263.5q11 56 12 106t-12 95.5t-39 78t-72 51.5t-108 19q-155 0 -258 -106t-135 -271q-16 -68 -9 -129zM524 1143l301 270 h129l-194 -270h-236z" />
<glyph unicode="&#x126;" horiz-adv-x="1445" d="M70 0l221 1047h-103l29 135h102l50 231h215l-49 -231h657l49 231h215l-49 -231h100l-28 -135h-101l-223 -1047h-213l129 612h-657l-131 -612h-213zM453 801h659l51 246h-657z" />
<glyph unicode="&#x127;" horiz-adv-x="1181" d="M53 0l248 1174h-166l23 106h166l28 133h205l-29 -133h277l-23 -106h-276l-57 -273l8 8q138 160 334 160q169 0 244 -109t38 -282l-141 -678h-205l141 666q48 227 -141 227q-122 0 -218.5 -82.5t-121.5 -202.5l-129 -608h-205z" />
<glyph unicode="&#x128;" horiz-adv-x="573" d="M70 0l299 1413h213l-299 -1413h-213zM141 1540q49 236 230 236q49 0 87 -14.5t61.5 -35.5t44 -42t44 -35.5t51.5 -14.5q51 0 86 41.5t46 108.5l120 -19q-53 -245 -241 -245q-46 0 -83.5 14.5t-61 35t-44.5 40.5t-44.5 34.5t-49.5 14.5q-50 0 -84.5 -39t-42.5 -98z" />
<glyph unicode="&#x129;" horiz-adv-x="520" d="M37 1178q48 235 229 235q49 0 87 -14.5t62 -35.5t44.5 -41.5t44 -35t51.5 -14.5q51 0 85.5 41t45.5 108l121 -18q-53 -246 -242 -246q-46 0 -83 14.5t-61 35t-44.5 40.5t-44 34.5t-49.5 14.5q-50 0 -84.5 -39t-42.5 -98zM47 0l221 1049h205l-221 -1049h-205z" />
<glyph unicode="&#x12a;" horiz-adv-x="573" d="M70 0l299 1413h213l-299 -1413h-213zM242 1597l24 123h551l-26 -123h-549z" />
<glyph unicode="&#x12b;" horiz-adv-x="520" d="M47 0l221 1049h205l-221 -1049h-205zM137 1235l25 123h551l-27 -123h-549z" />
<glyph unicode="&#x12e;" horiz-adv-x="573" d="M-55 -225q13 66 60 123.5t116 101.5h-51l299 1413h213l-299 -1413q-175 -95 -217 -223q-14 -49 3 -76t54 -27q68 0 129 74l96 -90q-89 -109 -219 -109q-100 0 -153.5 61t-30.5 165z" />
<glyph unicode="&#x12f;" horiz-adv-x="534" d="M-82 -231q28 134 186 231h-51l221 1049h205l-221 -1049h-31l29 -6q-175 -95 -217 -223q-14 -49 3 -76t54 -27q68 0 129 74l97 -90q-89 -109 -220 -109q-100 0 -153.5 61t-30.5 165zM307 1204l45 209h207l-45 -209h-207z" />
<glyph unicode="&#x130;" horiz-adv-x="573" d="M70 0l299 1413h213l-299 -1413h-213zM420 1571l43 205h178l-43 -205h-178z" />
<glyph unicode="&#x131;" horiz-adv-x="520" d="M47 0l221 1049h205l-221 -1049h-205z" />
<glyph unicode="&#x136;" horiz-adv-x="1320" d="M70 0l299 1413h215l-142 -659l727 659h277l-658 -577l412 -836h-242l-325 698l-248 -217l-102 -481h-213zM258 -442l195 303h235l-301 -303h-129z" />
<glyph unicode="&#x137;" horiz-adv-x="1097" d="M53 0l299 1413h205l-170 -801l537 437h254l-523 -424l351 -625h-218l-272 512l-180 -147l-78 -365h-205zM158 -442l194 303h236l-301 -303h-129z" />
<glyph unicode="&#x139;" horiz-adv-x="1015" d="M70 0l299 1413h213l-260 -1227h604l-39 -186h-817zM430 1536l213 242h244l-297 -242h-160z" />
<glyph unicode="&#x13a;" horiz-adv-x="522" d="M47 0l299 1413h207l-299 -1413h-207zM393 1536l213 242h244l-297 -242h-160z" />
<glyph unicode="&#x13b;" horiz-adv-x="1015" d="M70 0l299 1413h213l-260 -1227h604l-39 -186h-817zM96 -442l195 303h235l-301 -303h-129z" />
<glyph unicode="&#x13c;" horiz-adv-x="522" d="M-193 -442l195 303h236l-301 -303h-130zM47 0l299 1413h207l-299 -1413h-207z" />
<glyph unicode="&#x13d;" horiz-adv-x="1015" d="M70 0l299 1413h213l-260 -1227h604l-39 -186h-817zM788 854l175 317h-91l52 244h254l-50 -244l-221 -317h-119z" />
<glyph unicode="&#x13e;" horiz-adv-x="667" d="M47 0l299 1413h207l-299 -1413h-207zM539 854l174 317h-90l51 244h254l-49 -244l-222 -317h-118z" />
<glyph unicode="&#x141;" horiz-adv-x="1015" d="M-41 336l33 174l215 141l162 762h213l-127 -600l235 156l-37 -185l-237 -153l-94 -445h604l-39 -186h-817l100 471z" />
<glyph unicode="&#x142;" horiz-adv-x="522" d="M-63 408l34 178l232 151l143 676h207l-111 -520l242 158l-39 -187l-242 -155l-149 -709h-207l117 555z" />
<glyph unicode="&#x143;" horiz-adv-x="1511" d="M70 0l299 1413h260l424 -1132h12l242 1132h213l-299 -1413h-265l-421 1137h-11l-241 -1137h-213zM889 1534l213 242h244l-297 -242h-160z" />
<glyph unicode="&#x144;" horiz-adv-x="1181" d="M53 0l221 1049h205l-33 -148l9 8q137 160 333 160q167 0 245 -108.5t40 -282.5l-141 -678h-205l141 666q25 121 -10.5 174t-128.5 53q-122 0 -219 -80.5t-123 -204.5l-129 -608h-205zM643 1176l213 241h244l-297 -241h-160z" />
<glyph unicode="&#x145;" horiz-adv-x="1511" d="M70 0l299 1413h260l424 -1132h12l242 1132h213l-299 -1413h-265l-421 1137h-11l-241 -1137h-213zM303 -442l195 303h235l-301 -303h-129z" />
<glyph unicode="&#x146;" horiz-adv-x="1181" d="M53 0l221 1049h205l-33 -148l9 8q137 160 333 160q167 0 245 -108.5t40 -282.5l-141 -678h-205l141 666q25 121 -10.5 174t-128.5 53q-122 0 -219 -80.5t-123 -204.5l-129 -608h-205zM150 -442l194 303h236l-301 -303h-129z" />
<glyph unicode="&#x147;" horiz-adv-x="1511" d="M70 0l299 1413h260l424 -1132h12l242 1132h213l-299 -1413h-265l-421 1137h-11l-241 -1137h-213zM729 1776h160l96 -144l162 144h174l-311 -267h-84z" />
<glyph unicode="&#x148;" horiz-adv-x="1181" d="M53 0l221 1049h205l-33 -148l9 8q137 160 333 160q167 0 245 -108.5t40 -282.5l-141 -678h-205l141 666q25 121 -10.5 174t-128.5 53q-122 0 -219 -80.5t-123 -204.5l-129 -608h-205zM483 1417h160l96 -143l162 143h174l-311 -266h-84z" />
<glyph unicode="&#x14a;" horiz-adv-x="1511" d="M70 0l299 1413h260l424 -1132h12l242 1132h213l-299 -1413h-103l101 -10q-12 -54 -25.5 -91t-39.5 -75.5t-63 -61t-96 -37t-137 -14.5h-102l26 125h62q134 0 170 164h-58l-421 1137h-11l-241 -1137h-213z" />
<glyph unicode="&#x14b;" horiz-adv-x="1177" d="M41 0l211 999h199l-35 -161l12 8q133 170 342 170q76 0 133 -23.5t89 -63.5t50 -94t15.5 -114.5t-13.5 -124.5l-126 -606q-6 -28 -9.5 -42t-16.5 -48.5t-27.5 -55t-42.5 -49t-62 -44.5t-85.5 -28t-113.5 -12h-112l28 142h51q39 0 72 13t52.5 31t34.5 41.5t21 40t9 31.5 l123 574q12 66 9 120.5t-39.5 89.5t-104.5 35q-118 0 -220 -84.5t-125 -201.5l-116 -543h-203z" />
<glyph unicode="&#x14c;" horiz-adv-x="1462" d="M120 331q-44 166 1 396q69 325 281.5 516t504.5 191q306 0 444 -202.5t66 -545.5q-69 -324 -281 -515t-505 -191q-201 0 -334 92.5t-177 258.5zM332 686q-51 -238 31.5 -377t275.5 -139q205 0 360 151.5t207 405.5q52 238 -30.5 377t-276.5 139q-204 0 -358.5 -151 t-208.5 -406zM686 1597l25 123h551l-27 -123h-549z" />
<glyph unicode="&#x14d;" horiz-adv-x="1173" d="M72 298q-17 105 12 243q54 254 217 391t385 137q114 0 202 -37.5t142.5 -110t70.5 -178.5t-14 -243q-54 -251 -218.5 -387t-383.5 -136q-112 0 -199 36.5t-142 108t-72 176.5zM276 514q-38 -174 20.5 -268t207.5 -94q151 0 253.5 96t141.5 280q38 179 -19.5 273 t-207.5 94q-151 0 -254.5 -99t-141.5 -282zM463 1235l24 123h551l-26 -123h-549z" />
<glyph unicode="&#x150;" horiz-adv-x="1462" d="M120 331q-44 166 1 396q69 325 281.5 516t504.5 191q306 0 444 -202.5t66 -545.5q-69 -324 -281 -515t-505 -191q-201 0 -334 92.5t-177 258.5zM332 686q-51 -238 31.5 -377t275.5 -139q205 0 360 151.5t207 405.5q52 238 -30.5 377t-276.5 139q-204 0 -358.5 -151 t-208.5 -406zM657 1542l261 234h219l-303 -234h-177zM1012 1542l258 234h235l-323 -234h-170z" />
<glyph unicode="&#x151;" horiz-adv-x="1173" d="M72 298q-17 105 12 243q54 254 217 391t385 137q114 0 202 -37.5t142.5 -110t70.5 -178.5t-14 -243q-54 -251 -218.5 -387t-383.5 -136q-112 0 -199 36.5t-142 108t-72 176.5zM276 514q-38 -174 20.5 -268t207.5 -94q151 0 253.5 96t141.5 280q38 179 -19.5 273 t-207.5 94q-151 0 -254.5 -99t-141.5 -282zM434 1180l260 233h219l-303 -233h-176zM788 1180l259 233h235l-324 -233h-170z" />
<glyph unicode="&#x152;" horiz-adv-x="2236" d="M120 331q-44 166 1 396q69 325 281.5 516t504.5 191q161 0 277.5 -59t181.5 -169l43 207h905l-39 -186h-696l-88 -426h616l-34 -187h-621l-88 -428h696l-37 -186h-905l39 190q-216 -210 -526 -210q-201 0 -334 92.5t-177 258.5zM332 686q-51 -238 31.5 -377t275.5 -139 q205 0 360 151.5t207 405.5q52 238 -30.5 377t-276.5 139q-204 0 -358.5 -151t-208.5 -406z" />
<glyph unicode="&#x153;" horiz-adv-x="1947" d="M72 298q-17 105 12 243q54 254 217 391t385 137q134 0 231 -51.5t146 -149.5q80 94 188.5 147.5t239.5 53.5q95 0 167.5 -29.5t114 -80.5t65.5 -120t21.5 -147.5t-18.5 -163.5q-5 -31 -18 -71l-729 6q-48 -305 235 -305q153 0 289 104l113 -125q-108 -85 -210 -121 t-214 -36q-138 0 -232 51.5t-141 144.5q-85 -97 -201.5 -148t-247.5 -51q-112 0 -199 36.5t-142 108t-72 176.5zM276 514q-38 -174 20.5 -268t207.5 -94q151 0 253.5 96t141.5 280q38 179 -19.5 273t-207.5 94q-151 0 -254.5 -99t-141.5 -282zM1128 623l531 -2 q23 123 -23.5 197.5t-165.5 74.5q-122 0 -211 -71.5t-131 -198.5z" />
<glyph unicode="&#x154;" horiz-adv-x="1349" d="M68 -2l301 1415h598q205 0 315.5 -115t71.5 -305q-30 -136 -122.5 -226.5t-234.5 -129.5l195 -639h-225l-176 614h-379l-131 -614h-213zM451 786l411 2q120 4 193.5 64.5t93.5 167.5q19 99 -34 154t-177 55h-395zM774 1534l213 242h244l-297 -242h-160z" />
<glyph unicode="&#x155;" horiz-adv-x="774" d="M53 0l221 1049h197l-37 -172l8 4q58 92 133 138t152 46q84 0 135 -21l-41 -170q-178 26 -300 -87.5t-167 -333.5l-96 -453h-205zM514 1171l213 242h244l-297 -242h-160z" />
<glyph unicode="&#x156;" horiz-adv-x="1349" d="M68 -2l301 1415h598q205 0 315.5 -115t71.5 -305q-30 -136 -122.5 -226.5t-234.5 -129.5l195 -639h-225l-176 614h-379l-131 -614h-213zM221 -442l195 303h235l-301 -303h-129zM451 786l411 2q120 4 193.5 64.5t93.5 167.5q19 99 -34 154t-177 55h-395z" />
<glyph unicode="&#x157;" horiz-adv-x="774" d="M-186 -442l194 303h236l-301 -303h-129zM53 0l221 1049h197l-37 -172l8 4q58 92 133 138t152 46q84 0 135 -21l-41 -170q-178 26 -300 -87.5t-167 -333.5l-96 -453h-205z" />
<glyph unicode="&#x158;" horiz-adv-x="1349" d="M68 -2l301 1415h598q205 0 315.5 -115t71.5 -305q-30 -136 -122.5 -226.5t-234.5 -129.5l195 -639h-225l-176 614h-379l-131 -614h-213zM451 786l411 2q120 4 193.5 64.5t93.5 167.5q19 99 -34 154t-177 55h-395zM614 1776h160l96 -144l162 144h174l-311 -267h-84z" />
<glyph unicode="&#x159;" horiz-adv-x="774" d="M53 0l221 1049h197l-37 -172l8 4q58 92 133 138t152 46q84 0 135 -21l-41 -170q-178 26 -300 -87.5t-167 -333.5l-96 -453h-205zM354 1413h160l96 -143l162 143h174l-311 -266h-84z" />
<glyph unicode="&#x15a;" horiz-adv-x="1118" d="M16 348l179 92q31 -135 111.5 -200.5t193.5 -65.5q119 0 206.5 62t110.5 165q4 21 5 40t-5 36t-10 30.5t-19 28.5t-23 24.5t-30.5 23t-32.5 20t-39 21t-39.5 19.5t-43.5 20q-36 13 -62.5 23t-60.5 25.5t-58 30t-51.5 35t-45 41.5t-33.5 49.5t-23 59.5t-7 69.5t9 81.5 q35 165 170 260t323 95q266 0 402 -222l-144 -116q-95 159 -272 159q-101 0 -176 -52.5t-94 -139.5q-8 -39 1 -69.5t47 -60t63 -43.5t92 -46l14 -7l12 -6q37 -14 63.5 -25t62 -28t60 -32.5t53 -37.5t46.5 -45t34.5 -53.5t23.5 -63.5t7 -74t-10 -87q-40 -181 -189 -291 t-350 -110q-176 0 -303 93t-168 271zM682 1534l213 242h244l-297 -242h-160z" />
<glyph unicode="&#x15b;" horiz-adv-x="983" d="M-8 205l141 102q25 -68 88.5 -114.5t165.5 -49.5q104 -2 185.5 41.5t99.5 126.5q8 33 -0.5 56t-40 40t-57 26t-81.5 24q-24 7 -36 10q-29 6 -52 11.5t-51 13.5t-49 17t-44 20.5t-39.5 25t-32.5 30t-25 36.5t-15 43t-5 51.5t8 60.5q30 143 149.5 218t290.5 75 q247 0 362 -188l-125 -107q-71 123 -227 133q-98 3 -172.5 -36.5t-89.5 -106.5q-19 -57 62 -93q27 -13 155 -51q11 -3 21 -6q31 -7 56.5 -14t54.5 -17t51.5 -21t44.5 -26t38 -32t29 -39.5t18.5 -48t5.5 -57.5t-8 -68q-33 -148 -163.5 -231t-305.5 -83q-143 0 -253.5 65 t-153.5 163zM537 1171l213 242h243l-297 -242h-159z" />
<glyph unicode="&#x15e;" horiz-adv-x="1118" d="M16 348l179 92q31 -135 111.5 -200.5t193.5 -65.5q119 0 206.5 62t110.5 165q4 21 5 40t-5 36t-10 30.5t-19 28.5t-23 24.5t-30.5 23t-32.5 20t-39 21t-39.5 19.5t-43.5 20q-36 13 -62.5 23t-60.5 25.5t-58 30t-51.5 35t-45 41.5t-33.5 49.5t-23 59.5t-7 69.5t9 81.5 q35 165 170 260t323 95q266 0 402 -222l-144 -116q-95 159 -272 159q-101 0 -176 -52.5t-94 -139.5q-8 -39 1 -69.5t47 -60t63 -43.5t92 -46l14 -7l12 -6q37 -14 63.5 -25t62 -28t60 -32.5t53 -37.5t46.5 -45t34.5 -53.5t23.5 -63.5t7 -74t-10 -87q-40 -178 -185.5 -288 t-342.5 -113l-95 -111l29 -16q61 -21 95 -70t18 -123q-12 -56 -49 -95t-81.5 -55t-92.5 -16q-78 0 -128 40.5t-63 99.5l111 34q0 -30 20 -48.5t57 -18.5q44 0 75.5 25.5t37.5 62.5q5 30 -14 57.5t-62 40.5l-123 35l129 170q-130 29 -221 118t-125 234z" />
<glyph unicode="&#x15f;" horiz-adv-x="983" d="M-8 205l141 102q25 -68 88.5 -114.5t165.5 -49.5q104 -2 185.5 41.5t99.5 126.5q8 33 -0.5 56t-40 40t-57 26t-81.5 24q-24 7 -36 10q-29 6 -52 11.5t-51 13.5t-49 17t-44 20.5t-39.5 25t-32.5 30t-25 36.5t-15 43t-5 51.5t8 60.5q30 143 149.5 218t290.5 75 q247 0 362 -188l-125 -107q-71 123 -227 133q-98 3 -172.5 -36.5t-89.5 -106.5q-19 -57 62 -93q27 -13 155 -51q11 -3 21 -6q31 -7 56.5 -14t54.5 -17t51.5 -21t44.5 -26t38 -32t29 -39.5t18.5 -48t5.5 -57.5t-8 -68q-28 -129 -134.5 -210t-254.5 -99l-92 -107l29 -16 q61 -21 94.5 -70t17.5 -123q-12 -56 -49 -95t-81.5 -55t-92.5 -16q-78 0 -127.5 40t-62.5 100l110 34q0 -30 20.5 -48.5t57.5 -18.5q44 0 75.5 25.5t37.5 62.5q5 30 -14 57.5t-62 40.5l-123 35l117 154q-121 15 -212.5 76t-129.5 147z" />
<glyph unicode="&#x160;" horiz-adv-x="1118" d="M16 348l179 92q31 -135 111.5 -200.5t193.5 -65.5q119 0 206.5 62t110.5 165q4 21 5 40t-5 36t-10 30.5t-19 28.5t-23 24.5t-30.5 23t-32.5 20t-39 21t-39.5 19.5t-43.5 20q-36 13 -62.5 23t-60.5 25.5t-58 30t-51.5 35t-45 41.5t-33.5 49.5t-23 59.5t-7 69.5t9 81.5 q35 165 170 260t323 95q266 0 402 -222l-144 -116q-95 159 -272 159q-101 0 -176 -52.5t-94 -139.5q-8 -39 1 -69.5t47 -60t63 -43.5t92 -46l14 -7l12 -6q37 -14 63.5 -25t62 -28t60 -32.5t53 -37.5t46.5 -45t34.5 -53.5t23.5 -63.5t7 -74t-10 -87q-40 -181 -189 -291 t-350 -110q-176 0 -303 93t-168 271zM522 1776h160l96 -144l162 144h174l-311 -267h-84z" />
<glyph unicode="&#x161;" horiz-adv-x="983" d="M-8 205l141 102q25 -68 88.5 -114.5t165.5 -49.5q104 -2 185.5 41.5t99.5 126.5q8 33 -0.5 56t-40 40t-57 26t-81.5 24q-24 7 -36 10q-29 6 -52 11.5t-51 13.5t-49 17t-44 20.5t-39.5 25t-32.5 30t-25 36.5t-15 43t-5 51.5t8 60.5q30 143 149.5 218t290.5 75 q247 0 362 -188l-125 -107q-71 123 -227 133q-98 3 -172.5 -36.5t-89.5 -106.5q-19 -57 62 -93q27 -13 155 -51q11 -3 21 -6q31 -7 56.5 -14t54.5 -17t51.5 -21t44.5 -26t38 -32t29 -39.5t18.5 -48t5.5 -57.5t-8 -68q-33 -148 -163.5 -231t-305.5 -83q-143 0 -253.5 65 t-153.5 163zM377 1413h160l96 -143l162 143h174l-312 -266h-84z" />
<glyph unicode="&#x162;" horiz-adv-x="1165" d="M168 -360l111 34q0 -30 20 -48.5t57 -18.5q44 0 75.5 25.5t37.5 62.5q5 30 -14 57.5t-62 40.5l-123 35l131 172h-36l262 1229h-459l37 184h1130l-39 -184h-456l-260 -1229h-33l-107 -125l29 -16q61 -21 95 -70t18 -123q-12 -56 -49.5 -95t-82 -55t-92.5 -16 q-78 0 -127.5 40t-62.5 100z" />
<glyph unicode="&#x163;" horiz-adv-x="696" d="M111 907l28 142h156l76 364h204l-77 -364h264l-31 -142h-264l-125 -594q-20 -88 0 -118.5t94 -30.5h137l-32 -164h-41l-107 -125l29 -16q61 -21 95 -70t18 -123q-12 -56 -49.5 -95t-82 -55t-92.5 -16q-78 0 -127.5 40t-62.5 100l110 34q0 -30 20.5 -48.5t57.5 -18.5 q44 0 75.5 25.5t37.5 62.5q5 30 -14 57.5t-62 40.5l-123 35l131 172h-12q-132 0 -186 74t-23 211l131 622h-153z" />
<glyph unicode="&#x164;" horiz-adv-x="1165" d="M168 1229l37 184h1130l-39 -184h-456l-260 -1229h-215l262 1229h-459zM553 1776h160l96 -144l162 144h174l-311 -267h-84z" />
<glyph unicode="&#x165;" horiz-adv-x="763" d="M111 907l28 142h156l76 364h204l-77 -364h264l-31 -142h-264l-125 -594q-20 -88 0 -118.5t94 -30.5h137l-32 -164h-199q-132 0 -186 74t-23 211l131 622h-153zM668 1128l174 318h-90l51 244h254l-49 -244l-222 -318h-118z" />
<glyph unicode="&#x166;" horiz-adv-x="1165" d="M168 1229l37 184h1130l-39 -184h-456l-99 -469h211l-22 -107h-211l-139 -653h-215l139 653h-221l22 107h221l101 469h-459z" />
<glyph unicode="&#x167;" horiz-adv-x="696" d="M23 471l20 107h152l69 329h-153l28 142h156l76 364h204l-77 -364h264l-31 -142h-264l-70 -329h236l-21 -107h-237l-33 -158q-20 -88 0 -118.5t94 -30.5h137l-32 -164h-199q-132 0 -186 74t-23 211l39 186h-149z" />
<glyph unicode="&#x168;" horiz-adv-x="1368" d="M162 518l190 895h213l-194 -921q-34 -153 24.5 -235.5t196.5 -82.5q150 0 256.5 91t138.5 245l193 903h213l-191 -903q-54 -256 -213.5 -393t-404.5 -137q-254 0 -364.5 143.5t-57.5 394.5zM539 1540q49 236 229 236q49 0 87 -14.5t62 -35.5t44.5 -42t44 -35.5 t51.5 -14.5q51 0 85.5 41.5t45.5 108.5l121 -19q-53 -245 -242 -245q-46 0 -83.5 14.5t-61 35t-44.5 40.5t-44.5 34.5t-49.5 14.5q-50 0 -84.5 -39t-42.5 -98z" />
<glyph unicode="&#x169;" horiz-adv-x="1187" d="M115 373l141 676h205l-139 -654q-46 -225 143 -225q125 0 219.5 80.5t118.5 198.5l127 600h205l-222 -1049h-204l34 147l-16 -8q-130 -157 -326 -157q-172 0 -247.5 108.5t-38.5 282.5zM360 1178q48 235 230 235q49 0 87 -14.5t62 -35.5t44.5 -41.5t44 -35t51.5 -14.5 q51 0 85.5 41t45.5 108l120 -18q-53 -246 -241 -246q-46 0 -83.5 14.5t-61 35t-44.5 40.5t-44.5 34.5t-49.5 14.5q-50 0 -84.5 -39t-42.5 -98z" />
<glyph unicode="&#x16a;" horiz-adv-x="1368" d="M162 518l190 895h213l-194 -921q-34 -153 24.5 -235.5t196.5 -82.5q150 0 256.5 91t138.5 245l193 903h213l-191 -903q-54 -256 -213.5 -393t-404.5 -137q-254 0 -364.5 143.5t-57.5 394.5zM639 1597l25 123h550l-26 -123h-549z" />
<glyph unicode="&#x16b;" horiz-adv-x="1187" d="M115 373l141 676h205l-139 -654q-46 -225 143 -225q125 0 219.5 80.5t118.5 198.5l127 600h205l-222 -1049h-204l34 147l-16 -8q-130 -157 -326 -157q-172 0 -247.5 108.5t-38.5 282.5zM461 1235l24 123h551l-26 -123h-549z" />
<glyph unicode="&#x16e;" horiz-adv-x="1368" d="M162 518l190 895h213l-194 -921q-34 -153 24.5 -235.5t196.5 -82.5q150 0 256.5 91t138.5 245l193 903h213l-191 -903q-54 -256 -213.5 -393t-404.5 -137q-254 0 -364.5 143.5t-57.5 394.5zM731 1712q15 76 81.5 129t145.5 53q92 0 143.5 -64.5t31.5 -158.5 q-17 -77 -84 -131.5t-146 -54.5q-92 0 -142 66t-30 161zM827 1700q-11 -48 15 -82.5t73 -34.5q43 0 77.5 28.5t43.5 69.5q10 47 -16.5 81t-73.5 34q-41 0 -75.5 -27.5t-43.5 -68.5z" />
<glyph unicode="&#x16f;" horiz-adv-x="1187" d="M115 373l141 676h205l-139 -654q-46 -225 143 -225q125 0 219.5 80.5t118.5 198.5l127 600h205l-222 -1049h-204l34 147l-16 -8q-130 -157 -326 -157q-172 0 -247.5 108.5t-38.5 282.5zM553 1350q15 76 81.5 129t145.5 53q92 0 143 -64.5t31 -158.5q-17 -77 -83.5 -132 t-145.5 -55q-92 0 -142 66.5t-30 161.5zM649 1337q-11 -47 15 -81.5t73 -34.5q43 0 77.5 28.5t43.5 69.5q10 47 -16.5 81t-73.5 34q-41 0 -75.5 -28t-43.5 -69z" />
<glyph unicode="&#x170;" horiz-adv-x="1368" d="M162 518l190 895h213l-194 -921q-34 -153 24.5 -235.5t196.5 -82.5q150 0 256.5 91t138.5 245l193 903h213l-191 -903q-54 -256 -213.5 -393t-404.5 -137q-254 0 -364.5 143.5t-57.5 394.5zM610 1542l260 234h220l-304 -234h-176zM965 1542l258 234h235l-323 -234h-170z " />
<glyph unicode="&#x171;" horiz-adv-x="1187" d="M115 373l141 676h205l-139 -654q-46 -225 143 -225q125 0 219.5 80.5t118.5 198.5l127 600h205l-222 -1049h-204l34 147l-16 -8q-130 -157 -326 -157q-172 0 -247.5 108.5t-38.5 282.5zM432 1180l260 233h219l-303 -233h-176zM786 1180l258 233h236l-324 -233h-170z" />
<glyph unicode="&#x172;" horiz-adv-x="1368" d="M162 518l190 895h213l-194 -921q-34 -153 24.5 -235.5t196.5 -82.5q150 0 256.5 91t138.5 245l193 903h213l-191 -903q-38 -179 -128 -300.5t-226 -178.5q-96 -75 -125 -166q-14 -49 3 -76t54 -27q68 0 129 74l97 -90q-88 -108 -220 -108q-100 0 -153.5 60.5t-30.5 164.5 q11 58 60 121q-54 -4 -78 -4q-254 0 -364.5 143.5t-57.5 394.5z" />
<glyph unicode="&#x173;" horiz-adv-x="1187" d="M115 373l141 676h205l-139 -654q-46 -225 143 -225q125 0 219.5 80.5t118.5 198.5l127 600h205l-222 -1049h2q-175 -95 -217 -223q-14 -49 3.5 -76t54.5 -27q68 0 129 74l96 -90q-89 -109 -219 -109q-100 0 -153.5 61t-30.5 165q13 66 60 123.5t116 101.5h-45l34 147 l-16 -8q-130 -157 -326 -157q-172 0 -247.5 108.5t-38.5 282.5z" />
<glyph unicode="&#x174;" horiz-adv-x="1878" d="M207 1413h219l-6 -1216h8l565 1216h267l49 -1216h6l512 1216h225l-622 -1413h-293l-50 1212l-567 -1212h-295zM852 1511l307 267h86l197 -267h-160l-96 148l-162 -148h-172z" />
<glyph unicode="&#x175;" horiz-adv-x="1529" d="M137 1049h217l-16 -893l442 893h185l63 -902l367 902h223l-469 -1049h-283l-47 782l-379 -784h-282zM598 1147l307 266h86l197 -266h-160l-96 147l-162 -147h-172z" />
<glyph unicode="&#x176;" horiz-adv-x="1359" d="M197 1413h239l285 -668l575 668h252l-753 -862l-119 -551h-215l121 551zM592 1509l307 267h86l197 -267h-160l-96 148l-162 -148h-172z" />
<glyph unicode="&#x177;" horiz-adv-x="962" d="M-115 -365l21 166q64 0 117.5 13.5t89.5 33t69.5 52t52 58t41.5 62.5l-147 1029h213l76 -803h14l414 803h227l-622 -1100q-48 -84 -99.5 -142t-100 -91.5t-111.5 -52t-118.5 -23.5t-136.5 -5zM319 1147l308 266h86l196 -266h-159l-97 147l-161 -147h-173z" />
<glyph unicode="&#x178;" horiz-adv-x="1359" d="M197 1413h239l285 -668l575 668h252l-753 -862l-119 -551h-215l121 551zM637 1565l43 211h184l-43 -211h-184zM981 1565l45 211h182l-43 -211h-184z" />
<glyph unicode="&#x179;" horiz-adv-x="1187" d="M-76 0l31 156l1061 1071h-787l39 186h1073l-30 -164l-1055 -1063h825l-39 -186h-1118zM729 1534l213 242h244l-297 -242h-160z" />
<glyph unicode="&#x17a;" horiz-adv-x="956" d="M-53 0l28 150l752 731h-577l34 168h830l-31 -162l-737 -717h575l-35 -170h-839zM532 1171l213 242h244l-297 -242h-160z" />
<glyph unicode="&#x17b;" horiz-adv-x="1187" d="M-76 0l31 156l1061 1071h-787l39 186h1073l-30 -164l-1055 -1063h825l-39 -186h-1118zM729 1571l43 205h178l-43 -205h-178z" />
<glyph unicode="&#x17c;" horiz-adv-x="956" d="M-53 0l28 150l752 731h-577l34 168h830l-31 -162l-737 -717h575l-35 -170h-839zM532 1208l43 205h179l-43 -205h-179z" />
<glyph unicode="&#x17d;" horiz-adv-x="1187" d="M-76 0l31 156l1061 1071h-787l39 186h1073l-30 -164l-1055 -1063h825l-39 -186h-1118zM569 1776h160l96 -144l162 144h174l-311 -267h-84z" />
<glyph unicode="&#x17e;" horiz-adv-x="956" d="M-53 0l28 150l752 731h-577l34 168h830l-31 -162l-737 -717h575l-35 -170h-839zM373 1413h159l97 -143l162 143h174l-312 -266h-84z" />
<glyph unicode="&#x192;" horiz-adv-x="907" d="M-102 -403l20 174q53 0 92.5 9.5t76 34t62 70.5t39.5 115l193 907h-182l30 142h183l16 75q30 137 124.5 213t240.5 76h155l-33 -158h-112q-64 0 -113 -43t-61 -108l-15 -55h256l-30 -142h-254l-193 -907h2q-90 -403 -497 -403z" />
<glyph unicode="&#x1cd;" horiz-adv-x="1251" d="M-109 0l781 1413h286l177 -1413h-226l-32 319h-582l-168 -319h-236zM387 494h473l-76 743h-6zM602 1776h160l96 -144l162 144h174l-311 -267h-84z" />
<glyph unicode="&#x1ce;" horiz-adv-x="1099" d="M35 289q12 59 39.5 105.5t73.5 83t96.5 63.5t126.5 52.5t146 45t171 45.5q31 8 48 12t44.5 11.5t50.5 13.5v2q21 95 -26.5 135.5t-161.5 40.5q-103 0 -182.5 -36.5t-151.5 -110.5l-129 112q99 104 211 154.5t258 50.5q92 0 167 -21.5t127.5 -62.5t73.5 -106.5t3 -147.5 l-154 -731h-188l27 125q-84 -68 -190 -108t-191 -40q-160 0 -239 85t-50 227zM248 270q-12 -55 18.5 -84.5t89.5 -29.5q208 0 396 188l43 211q-255 -74 -326 -102q-169 -65 -209 -149q-8 -17 -12 -34zM440 1413h160l96 -143l162 143h174l-311 -266h-84z" />
<glyph unicode="&#x1cf;" horiz-adv-x="573" d="M70 0l299 1413h213l-299 -1413h-213zM260 1776h160l96 -144l162 144h174l-311 -267h-84z" />
<glyph unicode="&#x1d0;" horiz-adv-x="520" d="M47 0l221 1049h205l-221 -1049h-205zM156 1413h159l97 -143l161 143h175l-312 -266h-84z" />
<glyph unicode="&#x1d1;" horiz-adv-x="1462" d="M120 331q-44 166 1 396q69 325 281.5 516t504.5 191q306 0 444 -202.5t66 -545.5q-69 -324 -281 -515t-505 -191q-201 0 -334 92.5t-177 258.5zM332 686q-51 -238 31.5 -377t275.5 -139q205 0 360 151.5t207 405.5q52 238 -30.5 377t-276.5 139q-204 0 -358.5 -151 t-208.5 -406zM705 1776h159l97 -144l161 144h174l-311 -267h-84z" />
<glyph unicode="&#x1d2;" horiz-adv-x="1173" d="M72 298q-17 105 12 243q54 254 217 391t385 137q114 0 202 -37.5t142.5 -110t70.5 -178.5t-14 -243q-54 -251 -218.5 -387t-383.5 -136q-112 0 -199 36.5t-142 108t-72 176.5zM276 514q-38 -174 20.5 -268t207.5 -94q151 0 253.5 96t141.5 280q38 179 -19.5 273 t-207.5 94q-151 0 -254.5 -99t-141.5 -282zM481 1413h160l96 -143l162 143h174l-311 -266h-84z" />
<glyph unicode="&#x1d3;" horiz-adv-x="1368" d="M162 518l190 895h213l-194 -921q-34 -153 24.5 -235.5t196.5 -82.5q150 0 256.5 91t138.5 245l193 903h213l-191 -903q-54 -256 -213.5 -393t-404.5 -137q-254 0 -364.5 143.5t-57.5 394.5zM657 1776h160l96 -144l162 144h174l-311 -267h-84z" />
<glyph unicode="&#x1d4;" horiz-adv-x="1187" d="M115 373l141 676h205l-139 -654q-46 -225 143 -225q125 0 219.5 80.5t118.5 198.5l127 600h205l-222 -1049h-204l34 147l-16 -8q-130 -157 -326 -157q-172 0 -247.5 108.5t-38.5 282.5zM479 1413h160l96 -143l162 143h174l-311 -266h-84z" />
<glyph unicode="&#x1d5;" horiz-adv-x="1368" d="M162 518l190 895h213l-194 -921q-34 -153 24.5 -235.5t196.5 -82.5q150 0 256.5 91t138.5 245l193 903h213l-191 -903q-54 -256 -213.5 -393t-404.5 -137q-254 0 -364.5 143.5t-57.5 394.5zM641 1565l43 211h184l-43 -211h-184zM717 1962l24 123h551l-26 -123h-549z M985 1565l45 211h182l-43 -211h-184z" />
<glyph unicode="&#x1d6;" horiz-adv-x="1187" d="M115 373l141 676h205l-139 -654q-46 -225 143 -225q125 0 219.5 80.5t118.5 198.5l127 600h205l-222 -1049h-204l34 147l-16 -8q-130 -157 -326 -157q-172 0 -247.5 108.5t-38.5 282.5zM463 1202l43 211h184l-43 -211h-184zM539 1599l24 123h551l-27 -123h-548zM807 1202 l45 211h182l-43 -211h-184z" />
<glyph unicode="&#x1d7;" horiz-adv-x="1368" d="M162 518l190 895h213l-194 -921q-34 -153 24.5 -235.5t196.5 -82.5q150 0 256.5 91t138.5 245l193 903h213l-191 -903q-54 -256 -213.5 -393t-404.5 -137q-254 0 -364.5 143.5t-57.5 394.5zM641 1565l43 211h184l-43 -211h-184zM895 1898l213 242h244l-297 -242h-160z M985 1565l45 211h182l-43 -211h-184z" />
<glyph unicode="&#x1d8;" horiz-adv-x="1187" d="M115 373l141 676h205l-139 -654q-46 -225 143 -225q125 0 219.5 80.5t118.5 198.5l127 600h205l-222 -1049h-204l34 147l-16 -8q-130 -157 -326 -157q-172 0 -247.5 108.5t-38.5 282.5zM463 1202l43 211h184l-43 -211h-184zM717 1536l213 242h244l-297 -242h-160z M807 1202l45 211h182l-43 -211h-184z" />
<glyph unicode="&#x1d9;" horiz-adv-x="1368" d="M162 518l190 895h213l-194 -921q-34 -153 24.5 -235.5t196.5 -82.5q150 0 256.5 91t138.5 245l193 903h213l-191 -903q-54 -256 -213.5 -393t-404.5 -137q-254 0 -364.5 143.5t-57.5 394.5zM641 1565l43 211h184l-43 -211h-184zM735 2140h160l96 -143l162 143h174 l-311 -266h-84zM985 1565l45 211h182l-43 -211h-184z" />
<glyph unicode="&#x1da;" horiz-adv-x="1187" d="M115 373l141 676h205l-139 -654q-46 -225 143 -225q125 0 219.5 80.5t118.5 198.5l127 600h205l-222 -1049h-204l34 147l-16 -8q-130 -157 -326 -157q-172 0 -247.5 108.5t-38.5 282.5zM463 1202l43 211h184l-43 -211h-184zM557 1778h160l96 -144l162 144h174l-311 -267 h-84zM807 1202l45 211h182l-43 -211h-184z" />
<glyph unicode="&#x1db;" horiz-adv-x="1368" d="M162 518l190 895h213l-194 -921q-34 -153 24.5 -235.5t196.5 -82.5q150 0 256.5 91t138.5 245l193 903h213l-191 -903q-54 -256 -213.5 -393t-404.5 -137q-254 0 -364.5 143.5t-57.5 394.5zM641 1565l43 211h184l-43 -211h-184zM715 2140h233l109 -244h-162zM985 1565 l45 211h182l-43 -211h-184z" />
<glyph unicode="&#x1dc;" horiz-adv-x="1187" d="M115 373l141 676h205l-139 -654q-46 -225 143 -225q125 0 219.5 80.5t118.5 198.5l127 600h205l-222 -1049h-204l34 147l-16 -8q-130 -157 -326 -157q-172 0 -247.5 108.5t-38.5 282.5zM463 1202l43 211h184l-43 -211h-184zM537 1778h233l109 -244h-162zM807 1202l45 211 h182l-43 -211h-184z" />
<glyph unicode="&#x1fe;" horiz-adv-x="1462" d="M-6 152l145 120q-76 188 -18 455q69 325 281.5 516t504.5 191q283 0 424 -177l125 105l92 -100l-149 -123q74 -183 18 -453q-69 -324 -281 -515t-505 -191q-281 0 -422 174l-127 -105zM322 422l843 698q-85 123 -266 123q-204 0 -358.5 -151t-208.5 -406 q-31 -153 -10 -264zM375 291q85 -121 264 -121q205 0 360 151.5t207 405.5q33 141 13 262zM864 1534l213 242h244l-297 -242h-160z" />
<glyph unicode="&#x1ff;" horiz-adv-x="1173" d="M39 133l65 55q-65 143 -20 353q54 254 217 391t385 137q216 0 330 -129l53 45l66 -70l-68 -55q68 -146 20 -360q-54 -251 -218.5 -387t-383.5 -136q-215 0 -329 129l-56 -45zM268 322l600 497q-64 76 -196 76q-151 0 -254.5 -99t-141.5 -282q-23 -111 -8 -192zM307 231 q60 -79 197 -79q151 0 253.5 96t141.5 280q25 122 8 201zM641 1171l213 242h244l-297 -242h-160z" />
<glyph unicode="&#x218;" horiz-adv-x="1118" d="M16 348l179 92q31 -135 111.5 -200.5t193.5 -65.5q119 0 206.5 62t110.5 165q4 21 5 40t-5 36t-10 30.5t-19 28.5t-23 24.5t-30.5 23t-32.5 20t-39 21t-39.5 19.5t-43.5 20q-36 13 -62.5 23t-60.5 25.5t-58 30t-51.5 35t-45 41.5t-33.5 49.5t-23 59.5t-7 69.5t9 81.5 q35 165 170 260t323 95q266 0 402 -222l-144 -116q-95 159 -272 159q-101 0 -176 -52.5t-94 -139.5q-8 -39 1 -69.5t47 -60t63 -43.5t92 -46l14 -7l12 -6q37 -14 63.5 -25t62 -28t60 -32.5t53 -37.5t46.5 -45t34.5 -53.5t23.5 -63.5t7 -74t-10 -87q-40 -181 -189 -291 t-350 -110q-176 0 -303 93t-168 271zM90 -444l195 303h235l-301 -303h-129z" />
<glyph unicode="&#x219;" horiz-adv-x="983" d="M-8 205l141 102q25 -68 88.5 -114.5t165.5 -49.5q104 -2 185.5 41.5t99.5 126.5q8 33 -0.5 56t-40 40t-57 26t-81.5 24q-24 7 -36 10q-29 6 -52 11.5t-51 13.5t-49 17t-44 20.5t-39.5 25t-32.5 30t-25 36.5t-15 43t-5 51.5t8 60.5q30 143 149.5 218t290.5 75 q247 0 362 -188l-125 -107q-71 123 -227 133q-98 3 -172.5 -36.5t-89.5 -106.5q-19 -57 62 -93q27 -13 155 -51q11 -3 21 -6q31 -7 56.5 -14t54.5 -17t51.5 -21t44.5 -26t38 -32t29 -39.5t18.5 -48t5.5 -57.5t-8 -68q-33 -148 -163.5 -231t-305.5 -83q-143 0 -253.5 65 t-153.5 163zM74 -442l194 303h236l-301 -303h-129z" />
<glyph unicode="&#x21a;" horiz-adv-x="1165" d="M127 -442l195 303h235l-301 -303h-129zM168 1229l37 184h1130l-39 -184h-456l-260 -1229h-215l262 1229h-459z" />
<glyph unicode="&#x21b;" horiz-adv-x="696" d="M80 -442l194 303h236l-301 -303h-129zM111 907l28 142h156l76 364h204l-77 -364h264l-31 -142h-264l-125 -594q-20 -88 0 -118.5t94 -30.5h137l-32 -164h-199q-132 0 -186 74t-23 211l131 622h-153z" />
<glyph unicode="&#x237;" horiz-adv-x="520" d="M-240 -365l35 166h86q57 0 94 35.5t50 93.5l237 1119h205l-238 -1129q-32 -144 -111 -214.5t-227 -70.5h-131z" />
<glyph unicode="&#x2c6;" horiz-adv-x="710" d="M182 1102l307 266h86l197 -266h-160l-96 147l-162 -147h-172z" />
<glyph unicode="&#x2c7;" horiz-adv-x="710" d="M242 1364h159l97 -143l161 143h175l-312 -266h-84z" />
<glyph unicode="&#x2d8;" horiz-adv-x="661" d="M199 1374h145q-12 -75 24 -115t101 -40q70 0 126 42.5t75 112.5h147q-25 -135 -122 -207.5t-228 -72.5q-134 0 -211 74.5t-57 205.5z" />
<glyph unicode="&#x2d9;" horiz-adv-x="276" d="M184 1159l43 205h179l-44 -205h-178z" />
<glyph unicode="&#x2da;" horiz-adv-x="460" d="M190 1313q17 78 84 132t146 54q93 0 145.5 -65.5t30.5 -159.5q-15 -79 -82 -134t-149 -55q-93 0 -144 67t-31 161zM262 1305q-14 -62 18.5 -105t92.5 -43q54 0 97 36t54 89q13 60 -20 102.5t-92 42.5q-52 0 -95.5 -35.5t-54.5 -86.5z" />
<glyph unicode="&#x2db;" horiz-adv-x="514" d="M-23 -231q16 76 76 140.5t144 108.5l118 -24q-175 -95 -217 -223q-14 -49 3.5 -76t54.5 -27q68 0 129 74l96 -90q-89 -109 -219 -109q-100 0 -154 61t-31 165z" />
<glyph unicode="&#x2dc;" horiz-adv-x="774" d="M147 1092q49 235 230 235q49 0 86.5 -14.5t60.5 -35.5t42 -41.5t41.5 -35t49.5 -14.5q52 0 89 41.5t51 107.5l121 -18q-53 -246 -242 -246q-47 0 -83.5 14.5t-59.5 35t-42.5 40.5t-42.5 34.5t-49 14.5q-50 0 -86 -39t-47 -98z" />
<glyph unicode="&#x2dd;" horiz-adv-x="841" d="M143 1130l260 234h220l-304 -234h-176zM498 1130l258 234h235l-323 -234h-170z" />
<glyph unicode="&#x300;" d="M-242 1364h234l108 -244h-161z" />
<glyph unicode="&#x301;" d="M-346 1122l213 242h244l-297 -242h-160z" />
<glyph unicode="&#x302;" d="M-528 1102l307 266h86l196 -266h-159l-97 147l-161 -147h-172z" />
<glyph unicode="&#x303;" d="M-627 1092q48 235 230 235q49 0 87 -14.5t61.5 -35.5t44 -41.5t44 -35t51.5 -14.5q51 0 86 41t46 108l120 -18q-53 -246 -241 -246q-46 0 -83.5 14.5t-61 35t-44.5 40.5t-44.5 34.5t-49.5 14.5q-50 0 -84.5 -39t-42.5 -98z" />
<glyph unicode="&#x304;" d="M-475 1186l24 123h551l-26 -123h-549z" />
<glyph unicode="&#x306;" d="M-463 1374h146q-12 -75 23.5 -115t100.5 -40q70 0 126 42.5t75 112.5h148q-25 -135 -122.5 -207.5t-228.5 -72.5q-134 0 -211 74.5t-57 205.5z" />
<glyph unicode="&#x307;" d="M-92 1159l43 205h178l-43 -205h-178z" />
<glyph unicode="&#x308;" d="M-444 1153l43 211h184l-43 -211h-184zM-100 1153l45 211h182l-43 -211h-184z" />
<glyph unicode="&#x30a;" d="M-324 1315q15 76 82 129t146 53q92 0 143 -64.5t31 -158.5q-17 -77 -84 -132t-146 -55q-92 0 -142 66.5t-30 161.5zM-227 1303q-11 -48 15 -82.5t73 -34.5q43 0 77.5 28.5t43.5 69.5q10 47 -17 81t-74 34q-41 0 -75 -27.5t-43 -68.5z" />
<glyph unicode="&#x30b;" d="M-698 1130l260 234h219l-303 -234h-176zM-344 1130l258 234h236l-324 -234h-170z" />
<glyph unicode="&#x30c;" d="M-469 1364h160l96 -143l162 143h174l-311 -266h-84z" />
<glyph unicode="&#x312;" d="M-49 1149l301 270h129l-195 -270h-235z" />
<glyph unicode="&#x326;" d="M-575 -442l194 303h236l-301 -303h-129z" />
<glyph unicode="&#x327;" d="M-614 -360l110 34q0 -30 20.5 -48.5t57.5 -18.5q44 0 75.5 25.5t37.5 62.5q5 30 -14 57.5t-62 40.5l-123 35l131 172h145l-106 -125l29 -16q61 -21 94.5 -70t17.5 -123q-12 -56 -49 -95t-81.5 -55t-92.5 -16q-78 0 -127.5 40t-62.5 100z" />
<glyph unicode="&#x328;" d="M-537 -231q16 76 76 140.5t144 108.5l118 -24q-175 -95 -217 -223q-14 -49 3.5 -76t54.5 -27q68 0 129 74l96 -90q-89 -109 -219 -109q-100 0 -154 61t-31 165z" />
<glyph unicode="&#x335;" d="M-1225 522l23 107h647l-23 -107h-647z" />
<glyph unicode="&#x336;" d="M-1321 502l29 135h1290l-29 -135h-1290z" />
<glyph unicode="&#x337;" d="M-1194 115l45 233l934 613l-49 -246z" />
<glyph unicode="&#x338;" d="M-1405 145l1462 1211l93 -101l-1467 -1212z" />
<glyph unicode="&#x3c0;" horiz-adv-x="1193" d="M129 0l174 827h-82l37 172h770l-37 -172h-82l-127 -606q-15 -65 23.5 -79t95.5 30l21 -160q-57 -32 -131 -32q-101 0 -152 74t-31 165l127 608h-258l-174 -827h-174z" />
<glyph unicode="&#x1e80;" horiz-adv-x="1878" d="M207 1413h219l-6 -1216h8l565 1216h267l49 -1216h6l512 1216h225l-622 -1413h-293l-50 1212l-567 -1212h-295zM893 1778h233l109 -244h-162z" />
<glyph unicode="&#x1e81;" horiz-adv-x="1529" d="M137 1049h217l-16 -893l442 893h185l63 -902l367 902h223l-469 -1049h-283l-47 782l-379 -784h-282zM639 1413h233l109 -244h-162z" />
<glyph unicode="&#x1e82;" horiz-adv-x="1878" d="M207 1413h219l-6 -1216h8l565 1216h267l49 -1216h6l512 1216h225l-622 -1413h-293l-50 1212l-567 -1212h-295zM1073 1536l213 242h244l-297 -242h-160z" />
<glyph unicode="&#x1e83;" horiz-adv-x="1529" d="M137 1049h217l-16 -893l442 893h185l63 -902l367 902h223l-469 -1049h-283l-47 782l-379 -784h-282zM819 1171l213 242h244l-297 -242h-160z" />
<glyph unicode="&#x1e84;" horiz-adv-x="1878" d="M207 1413h219l-6 -1216h8l565 1216h267l49 -1216h6l512 1216h225l-622 -1413h-293l-50 1212l-567 -1212h-295zM897 1567l43 211h184l-43 -211h-184zM1241 1567l45 211h182l-43 -211h-184z" />
<glyph unicode="&#x1e85;" horiz-adv-x="1529" d="M137 1049h217l-16 -893l442 893h185l63 -902l367 902h223l-469 -1049h-283l-47 782l-379 -784h-282zM643 1202l43 211h184l-43 -211h-184zM987 1202l45 211h182l-43 -211h-184z" />
<glyph unicode="&#x1ebc;" horiz-adv-x="1214" d="M70 0l299 1413h931l-40 -186h-717l-90 -426h634l-36 -187h-637l-92 -428h716l-37 -186h-931zM502 1540q49 236 229 236q49 0 87 -14.5t62 -35.5t44.5 -42t44 -35.5t51.5 -14.5q51 0 85.5 41.5t45.5 108.5l121 -19q-53 -245 -242 -245q-46 0 -83 14.5t-61 35t-44.5 40.5 t-44 34.5t-49.5 14.5q-50 0 -84.5 -39t-42.5 -98z" />
<glyph unicode="&#x1ebd;" horiz-adv-x="1097" d="M66 356.5q-2 82.5 16 175.5q22 110 72.5 206t123.5 170.5t174 117.5t216 43q95 0 167.5 -29.5t114 -80.5t65.5 -120t21.5 -147.5t-18.5 -163.5q-4 -25 -19 -71l-729 6q-23 -150 35.5 -227.5t200.5 -77.5q153 0 289 104l112 -125q-108 -85 -210 -121t-214 -36 q-99 0 -177.5 28t-128.5 78t-79.5 119t-31.5 151.5zM305 623l531 -2q23 123 -23.5 197.5t-165.5 74.5q-122 0 -211 -71.5t-131 -198.5zM334 1178q48 235 229 235q49 0 87 -14.5t62 -35.5t44.5 -41.5t44 -35t51.5 -14.5q51 0 85.5 41t45.5 108l121 -18q-53 -246 -242 -246 q-46 0 -83 14.5t-61 35t-44.5 40.5t-44 34.5t-49.5 14.5q-50 0 -84.5 -39t-42.5 -98z" />
<glyph unicode="&#x1ef2;" horiz-adv-x="1359" d="M197 1413h239l285 -668l575 668h252l-753 -862l-119 -551h-215l121 551zM633 1776h233l109 -244h-162z" />
<glyph unicode="&#x1ef3;" horiz-adv-x="962" d="M-115 -365l21 166q64 0 117.5 13.5t89.5 33t69.5 52t52 58t41.5 62.5l-147 1029h213l76 -803h14l414 803h227l-622 -1100q-48 -84 -99.5 -142t-100 -91.5t-111.5 -52t-118.5 -23.5t-136.5 -5zM360 1413h234l108 -244h-161z" />
<glyph unicode="&#x1ef8;" horiz-adv-x="1359" d="M197 1413h239l285 -668l575 668h252l-753 -862l-119 -551h-215l121 551zM535 1540q49 236 229 236q49 0 87 -14.5t62 -35.5t44.5 -42t44 -35.5t51.5 -14.5q51 0 85.5 41.5t45.5 108.5l121 -19q-53 -245 -242 -245q-46 0 -83.5 14.5t-61 35t-44.5 40.5t-44.5 34.5 t-49.5 14.5q-50 0 -84.5 -39t-42.5 -98z" />
<glyph unicode="&#x1ef9;" horiz-adv-x="962" d="M-115 -365l21 166q64 0 117.5 13.5t89.5 33t69.5 52t52 58t41.5 62.5l-147 1029h213l76 -803h14l414 803h227l-622 -1100q-48 -84 -99.5 -142t-100 -91.5t-111.5 -52t-118.5 -23.5t-136.5 -5zM262 1178q48 235 230 235q49 0 87 -14.5t61.5 -35.5t44 -41.5t44 -35 t51.5 -14.5q51 0 85.5 41t45.5 108l121 -18q-53 -246 -241 -246q-46 0 -83.5 14.5t-61 35t-44.5 40.5t-44.5 34.5t-49.5 14.5q-50 0 -84.5 -39t-42.5 -98z" />
<glyph unicode="&#x2000;" horiz-adv-x="1070" />
<glyph unicode="&#x2001;" horiz-adv-x="2140" />
<glyph unicode="&#x2002;" horiz-adv-x="1070" />
<glyph unicode="&#x2003;" horiz-adv-x="2140" />
<glyph unicode="&#x2004;" horiz-adv-x="713" />
<glyph unicode="&#x2005;" horiz-adv-x="535" />
<glyph unicode="&#x2006;" horiz-adv-x="356" />
<glyph unicode="&#x2007;" horiz-adv-x="356" />
<glyph unicode="&#x2008;" horiz-adv-x="267" />
<glyph unicode="&#x2009;" horiz-adv-x="428" />
<glyph unicode="&#x200a;" horiz-adv-x="118" />
<glyph unicode="&#x2010;" horiz-adv-x="1120" d="M162 432l37 172h757l-36 -172h-758z" />
<glyph unicode="&#x2011;" horiz-adv-x="1120" d="M162 432l37 172h757l-36 -172h-758z" />
<glyph unicode="&#x2012;" horiz-adv-x="1120" d="M162 432l37 172h757l-36 -172h-758z" />
<glyph unicode="&#x2013;" horiz-adv-x="802" d="M20 442l31 144h727l-30 -144h-728z" />
<glyph unicode="&#x2014;" horiz-adv-x="2048" d="M-18 442l30 144h2048l-30 -144h-2048z" />
<glyph unicode="&#x2018;" horiz-adv-x="546" d="M225 850l51 254l232 330h125l-182 -330h94l-53 -254h-267z" />
<glyph unicode="&#x2019;" horiz-adv-x="544" d="M170 829l182 330h-94l53 254h267l-52 -254l-231 -330h-125z" />
<glyph unicode="&#x201a;" horiz-adv-x="544" d="M-76 -330l182 330h-94l54 254h266l-51 -254l-232 -330h-125z" />
<glyph unicode="&#x201c;" horiz-adv-x="974" d="M225 850l51 254l232 330h125l-182 -330h94l-53 -254h-267zM655 850l52 254l231 330h125l-182 -330h94l-53 -254h-267z" />
<glyph unicode="&#x201d;" horiz-adv-x="989" d="M170 829l182 330h-94l53 254h267l-52 -254l-231 -330h-125zM612 829l183 330h-95l54 254h266l-51 -254l-232 -330h-125z" />
<glyph unicode="&#x201e;" horiz-adv-x="989" d="M-76 -330l182 330h-94l54 254h266l-51 -254l-232 -330h-125zM369 -330l182 330h-94l53 254h266l-51 -254l-231 -330h-125z" />
<glyph unicode="&#x2020;" horiz-adv-x="829" d="M174 -205l221 1039h-221l35 172h221l88 407h170l-86 -407h221l-35 -172h-221l-223 -1039h-170z" />
<glyph unicode="&#x2021;" horiz-adv-x="829" d="M39 203l37 172h221l98 459h-221l35 172h221l88 407h170l-86 -407h221l-35 -172h-221l-98 -459h221l-37 -172h-221l-88 -408h-170l86 408h-221z" />
<glyph unicode="&#x2022;" horiz-adv-x="843" d="M70 553q29 141 150.5 240.5t264.5 99.5q154 0 240.5 -111t54.5 -268q-31 -141 -152.5 -241.5t-262.5 -100.5q-155 0 -242 112t-53 269z" />
<glyph unicode="&#x2025;" horiz-adv-x="876" d="M4 0l49 233h226l-50 -233h-225zM442 0l50 233h225l-49 -233h-226z" />
<glyph unicode="&#x2026;" horiz-adv-x="1685" d="M4 0l53 254h269l-54 -254h-268zM606 0l53 254h269l-54 -254h-268zM1208 0l54 254h268l-53 -254h-269z" />
<glyph unicode="&#x202f;" horiz-adv-x="428" />
<glyph unicode="&#x2030;" horiz-adv-x="2113" d="M147 2l1055 1409h197l-1055 -1409h-197zM172 1036q1 45 10 88q8 40 23 79.5t42 82.5t61.5 75.5t85 53.5t108.5 21q71 0 121.5 -32t72 -82.5t28.5 -113.5t-9 -125q-12 -55 -38 -107.5t-65 -97.5t-94.5 -72.5t-118.5 -27.5q-64 0 -110.5 23t-71 59.5t-35.5 83.5t-10 92z M306 1016.5q1 -41.5 26 -72.5t71 -31q67 0 115.5 62t63.5 139q17 70 -4 126t-86 56q-68 0 -116 -60t-65 -136q-6 -42 -5 -83.5zM840 256q1 45 10 88q12 51 34 100t58.5 99t95 81t129.5 31q58 0 102.5 -20.5t70 -55.5t40.5 -80.5t13 -95t-11 -100.5q-11 -56 -37 -108.5 t-64.5 -97.5t-94 -72t-119.5 -27q-63 0 -109.5 23t-71 59.5t-36 83.5t-10.5 92zM975.5 236q0.5 -40 25.5 -70.5t72 -30.5q65 0 113 60.5t63 136.5q17 73 -3.5 129.5t-86.5 56.5q-67 0 -114.5 -62t-63.5 -139q-6 -41 -5.5 -81zM1467 256q1 45 10 88q11 50 33.5 99.5 t59.5 99.5t95.5 81t128.5 31q72 0 123 -31.5t73 -82t28.5 -113.5t-9.5 -125q-12 -56 -37.5 -108.5t-63.5 -97.5t-93.5 -72t-120.5 -27q-63 0 -109.5 23t-71 59.5t-36 83.5t-10.5 92zM1601 236q1 -40 26 -70.5t71 -30.5q68 0 115.5 59.5t64.5 137.5q7 44 5 85.5t-27.5 71 t-69.5 29.5q-67 0 -114.5 -61.5t-65.5 -139.5q-6 -41 -5 -81z" />
<glyph unicode="&#x2039;" horiz-adv-x="585" d="M90 510l473 344l-37 -190l-221 -154l152 -152l-35 -190z" />
<glyph unicode="&#x203a;" horiz-adv-x="585" d="M18 168l37 190l221 152l-153 154l37 190l334 -344z" />
<glyph unicode="&#x2044;" horiz-adv-x="329" d="M-436 0l1075 1413h205l-1075 -1413h-205z" />
<glyph unicode="&#x205f;" horiz-adv-x="535" />
<glyph unicode="&#x20ac;" horiz-adv-x="1294" d="M-20 498l83 116h168q5 45 19 109q2 8 5 24.5t5 24.5h-237l86 119h190q42 115 105.5 211t150.5 172.5t203 119t250 42.5q218 0 352 -121l-107 -185q-88 130 -254 130q-156 0 -279.5 -100.5t-199.5 -268.5h586l-80 -123l-551 2q-16 -49 -24 -94l-13 -62h494l-72 -116h-430 q0 -155 76 -245.5t235 -90.5q195 0 336 125l80 -162q-178 -145 -428 -145q-130 0 -228 39.5t-157 111t-88.5 163.5t-30.5 204h-245z" />
<glyph unicode="&#x2122;" horiz-adv-x="1228" d="M178 1303l23 110h450l-22 -110h-162l-96 -457h-127l96 457h-162zM612 846l119 567h174l25 -436l217 436h170l-119 -567h-121l82 389l-192 -389h-117l-33 409l-86 -409h-119z" />
<glyph unicode="&#x2126;" horiz-adv-x="1490" d="M-43 0l35 172l313 6q-122 82 -172 237t-12 333q38 180 159 332t291 239.5t347 87.5q186 0 324.5 -94.5t196 -257.5t17.5 -355q-35 -163 -139 -309t-254 -229l283 8l-35 -170h-531l29 168q160 38 293 197t176 362q26 119 9 213t-68.5 159t-130 99.5t-175.5 34.5 q-141 0 -271.5 -68.5t-224.5 -192.5t-128 -280q-39 -183 27 -325.5t200 -200.5l-29 -166h-530z" />
<glyph unicode="&#x2202;" horiz-adv-x="1232" d="M72 467q34 160 133.5 293t239 208.5t286.5 75.5q209 0 256 -159l19 18q28 171 -26.5 267t-186.5 96q-151 0 -252 -131l-125 106q72 94 172.5 141.5t216.5 47.5q102 0 177.5 -34t120.5 -95.5t65.5 -147.5t17 -188t-28.5 -220q-35 -166 -101.5 -304t-157.5 -239 t-210.5 -157.5t-255.5 -56.5q-215 0 -310 131.5t-50 347.5zM260 422q-22 -119 24 -187.5t160 -68.5q169 0 303 136.5t171 324.5q25 124 -19 191t-154 67q-116 0 -222 -70t-173.5 -174.5t-89.5 -218.5z" />
<glyph unicode="&#x2206;" horiz-adv-x="1163" d="M-109 0l885 1464l268 -1464h-1153zM188 174h643l-137 846z" />
<glyph unicode="&#x220f;" horiz-adv-x="1366" d="M152 0l262 1239h-135l36 174h1112l-36 -174h-136l-262 -1239h-174l262 1239h-493l-262 -1239h-174z" />
<glyph unicode="&#x2211;" horiz-adv-x="1187" d="M-43 0l14 88l711 619l-438 620l14 86h1049l-37 -174h-740l400 -532l-619 -533h733l-36 -174h-1051z" />
<glyph unicode="&#x2212;" horiz-adv-x="1171" d="M162 432l37 172h809l-37 -172h-809z" />
<glyph unicode="&#x221a;" horiz-adv-x="1183" d="M55 557l37 172h279l57 -559l743 1253l154 -61l-919 -1512h-99l-96 707h-156z" />
<glyph unicode="&#x221e;" horiz-adv-x="1513" d="M106 653q27 132 126.5 214.5t224.5 82.5q92 0 179 -53.5t157 -146.5q232 200 409 200q138 0 210 -94.5t42 -243.5q-29 -132 -128.5 -214.5t-225.5 -82.5q-91 0 -178.5 54.5t-155.5 146.5q-236 -201 -412 -201q-136 0 -208 95t-40 243zM254 612q-14 -67 18 -104t95 -37 q114 0 309 176q-105 148 -209 148q-74 0 -135 -50t-78 -133zM881 618q107 -147 211 -147q73 0 134 49t81 133q14 67 -19 104.5t-96 37.5q-115 0 -311 -177z" />
<glyph unicode="&#x222b;" horiz-adv-x="856" d="M-182 -457l20 174q173 0 266 71.5t127 231.5l242 1135q27 131 122 212t210 81q122 0 211 -86l-133 -125q-36 39 -82 39q-52 -2 -98.5 -39.5t-59.5 -103.5l-244 -1135q-46 -224 -199 -339.5t-382 -115.5z" />
<glyph unicode="&#x2248;" horiz-adv-x="972" d="M57 164q32 140 101 216.5t172 76.5q55 0 97.5 -16.5t68 -40.5t47.5 -48t47.5 -40.5t56.5 -16.5q56 0 94.5 42.5t55.5 123.5l151 -19q-32 -151 -107.5 -229t-185.5 -78q-48 0 -87.5 17t-65 41t-48.5 48t-50 41t-58 17q-53 0 -91 -42t-50 -112zM57 631q32 140 101 216.5 t172 76.5q55 0 97.5 -16.5t68 -40.5t47.5 -48t47.5 -40.5t56.5 -16.5q56 0 94.5 42.5t55.5 123.5l151 -19q-32 -151 -107.5 -229t-185.5 -78q-48 0 -87.5 17t-65 41t-48.5 48t-50 41t-58 17q-53 0 -91 -42t-50 -112z" />
<glyph unicode="&#x2260;" horiz-adv-x="1224" d="M-12 -164l315 418h-266l49 176h350l166 217h-461l45 176h549l322 426h190l-321 -426h241l-45 -176h-329l-164 -217h438l-49 -176h-522l-316 -418h-192z" />
<glyph unicode="&#x2264;" horiz-adv-x="1239" d="M12 0l33 154h981l-31 -154h-983zM193 819l1085 527l-37 -189l-706 -338l561 -336l-39 -192z" />
<glyph unicode="&#x2265;" horiz-adv-x="1239" d="M51 0l33 154h981l-33 -154h-981zM115 291l39 192l704 336l-561 338l39 189l862 -527z" />
<glyph unicode="&#x25ca;" horiz-adv-x="1097" d="M121 717l526 717h187l227 -717l-526 -717h-187zM328 717l145 -522l379 522l-145 522z" />
<glyph unicode="&#x25fc;" horiz-adv-x="1044" d="M0 0v1044h1044v-1044h-1044z" />
<glyph unicode="&#xfb00;" horiz-adv-x="1277" d="M102 0l193 907h-182l30 142h183l16 75q30 137 124.5 213t240.5 76h155l-33 -158h-112q-64 0 -113 -43t-61 -108l-15 -55h375l17 75q30 137 124 213t240 76h156l-33 -158h-113q-64 0 -113 -43t-61 -108l-14 -55h256l-31 -142h-254l-192 -907h-205l192 907h-372l-193 -907 h-205z" />
<glyph unicode="&#xfb03;" horiz-adv-x="1783" d="M102 0l193 907h-182l30 142h183l16 75q30 137 124.5 213t240.5 76h155l-33 -158h-112q-64 0 -113 -43t-61 -108l-15 -55h385l17 75q30 137 124 213t240 76h156l-33 -158h-112q-64 0 -113.5 -43t-61.5 -108l-14 -55h256l-31 -142h-254l-192 -907h-205l193 907h-383 l-193 -907h-205zM1305 0l221 1049h205l-222 -1049h-204zM1559 1204l45 209h206l-45 -209h-206z" />
<glyph unicode="&#xfb04;" horiz-adv-x="1699" d="M102 0l193 907h-182l30 142h183l16 75q30 137 124.5 213t240.5 76h155l-33 -158h-112q-64 0 -113 -43t-61 -108l-15 -55h353l16 75q30 137 124.5 213t240.5 76h155l-33 -158h-112q-64 0 -113 -43t-61 -108l-15 -55h256l-30 -142h-254l-193 -907h-205l193 907h-350 l-193 -907h-205zM1225 0l299 1413h207l-299 -1413h-207z" />
<glyph horiz-adv-x="520" d="M47 0l221 1049h205l-221 -1049h-205zM315 1208l43 205h179l-43 -205h-179z" />
<glyph horiz-adv-x="1282" d="M102 0l193 907h-182l30 142h183l16 75q30 137 124.5 213t240.5 76h155l-33 -158h-112q-64 0 -113 -43t-61 -108l-15 -55h353l75 364h205l-78 -364h265l-31 -142h-264l-125 -594q-20 -88 0 -118.5t94 -30.5h137l-33 -164h-198q-132 0 -186 74t-23 211l131 622h-350 l-193 -907h-205z" />
<glyph horiz-adv-x="1273" d="M111 907l28 142h156l76 364h204l-77 -364h372l76 364h205l-78 -364h264l-30 -142h-265l-124 -594q-20 -88 0 -118.5t94 -30.5h137l-33 -164h-198q-132 0 -186 74t-23 211l131 622h-373l-125 -594q-20 -88 0 -118.5t94 -30.5h137l-32 -164h-199q-132 0 -186 74t-23 211 l131 622h-153z" />
<glyph horiz-adv-x="1849" d="M152 713q0 158 61 301t165 247t247 165t301 61t301 -61t246 -165t164 -247t61 -301t-61 -301t-164 -247t-246 -165t-301 -61t-301 61t-247 165t-165 247t-61 301zM223 713q0 -191 94 -353t256 -256t353 -94q143 0 273 55.5t223.5 149.5t148.5 224.5t55 273.5t-55 273 t-148.5 224t-223.5 149.5t-273 55.5t-273.5 -55.5t-224.5 -149.5t-149.5 -224t-55.5 -273zM487 444v537q0 15 10 26t25 11t26 -11t11 -26v-537q0 -15 -11 -24.5t-26 -9.5t-25 9.5t-10 24.5zM623 713q0 15 9.5 25t24.5 10h134q15 0 25.5 -10t10.5 -25t-10.5 -25t-25.5 -10 h-134q-15 0 -24.5 10t-9.5 25zM891 444v537q0 15 10 26t25 11t25 -11t10 -26v-537q0 -15 -10 -24.5t-25 -9.5t-25 9.5t-10 24.5zM1024 713q0 14 10 24l271 269q9 12 22 12t25 -12t12 -25q0 -15 -10 -25l-244 -243l244 -244q10 -10 10 -25q0 -13 -11.5 -23.5t-25.5 -10.5 q-15 0 -22 10l-271 268q-10 13 -10 25z" />
</font>
</defs>
</svg>
