<?xml version="1.0" standalone="no"?>
<!DOCTYPE svg PUBLIC "-//W3C//DTD SVG 1.1//EN" "http://www.w3.org/Graphics/SVG/1.1/DTD/svg11.dtd" >
<svg xmlns="http://www.w3.org/2000/svg">
<metadata></metadata>
<defs>
<font id="radnikalight" horiz-adv-x="1132" >
<font-face units-per-em="2048" ascent="1638" descent="-410" />
<missing-glyph horiz-adv-x="468" />
<glyph unicode="&#x3c;&#x2d;" horiz-adv-x="2281" d="M178 639l866 479v-119l-585 -313h1644v-102h-1642l583 -312v-118z" />
<glyph unicode="&#x2d;&#x3e;" horiz-adv-x="2281" d="M178 584v102h1645l-586 313v119l866 -479l-866 -485v118l584 312h-1643z" />
<glyph unicode="fi" horiz-adv-x="1095" d="M31 940v109h182v120q0 112 80 178t186 66h109v-121h-107q-69 0 -104 -32.5t-35 -92.5v-118h563v-1049h-127v940h-436v-940h-129v940h-182zM778 1223v190h127v-190h-127z" />
<glyph unicode="fl" horiz-adv-x="1085" d="M31 940v109h182v120q0 112 80 178t186 66h129v-121h-127q-69 0 -104 -32.5t-35 -92.5v-118h266v-109h-266v-940h-129v940h-182zM780 0v1413h127v-1413h-127z" />
<glyph unicode=" "  horiz-adv-x="468" />
<glyph unicode="&#x09;" horiz-adv-x="468" />
<glyph unicode="&#xa0;" horiz-adv-x="468" />
<glyph unicode="!" horiz-adv-x="518" d="M170 0v176h178v-176h-178zM182 1413h154l-29 -1042h-96z" />
<glyph unicode="&#x22;" horiz-adv-x="692" d="M145 874v539h117v-539h-117zM436 874v539h115v-539h-115z" />
<glyph unicode="#" horiz-adv-x="1280" d="M72 446v95h262l69 352h-249v90h270l90 430h100l-88 -416h338l88 416h101l-86 -426h241v-94h-262l-69 -352h249v-90h-270l-92 -451h-102l92 436h-338l-90 -436h-103l90 446h-241zM436 541h338l70 352h-338z" />
<glyph unicode="$" horiz-adv-x="1073" d="M61 348l121 60q53 -149 154.5 -222t232.5 -73t213 64.5t82 180.5q0 52 -19 96.5t-46 75t-75 60.5t-86.5 48.5t-100.5 43.5q-161 67 -225 109q-157 101 -168 263q-1 13 -1 27q0 144 90.5 238t241.5 111v147h131v-147q198 -25 334 -209l-90 -84q-131 172 -315 172 q-111 0 -182.5 -60t-71.5 -157q0 -45 18.5 -83.5t45 -65.5t72 -55t84.5 -46.5t97 -43.5q8 -3 12 -5q52 -23 82 -36.5t77 -39t75 -47t61.5 -54t52 -66t31 -78.5t12.5 -95q0 -163 -110.5 -271t-284.5 -120v-146h-131v150q-138 23 -248 112t-166 246z" />
<glyph unicode="%" horiz-adv-x="1507" d="M92 1118q0 54 12.5 106t38.5 101.5t76 80t117 30.5q81 0 140 -48.5t85.5 -118.5t26.5 -151q0 -80 -26 -150t-83.5 -117.5t-136.5 -47.5q-69 0 -120 30t-78 79t-39.5 100.5t-12.5 105.5zM203 1118q0 -83 34.5 -148t100.5 -65t100.5 66t34.5 149t-35 145t-102 62 q-65 0 -99 -63t-34 -146zM301 2l756 1409h133l-754 -1409h-135zM920 315q0 42 7 83.5t24.5 84.5t44.5 76t70 53.5t97 20.5q81 0 140 -48t85.5 -118.5t26.5 -151.5q0 -80 -26 -149.5t-83.5 -116.5t-136.5 -47q-55 0 -99.5 20.5t-72 52.5t-45.5 74.5t-25 83.5t-7 82zM1030 315 q0 -82 34.5 -145.5t102.5 -63.5q65 0 99 64.5t34 146.5q0 85 -34.5 148t-102.5 63q-65 0 -99 -64.5t-34 -148.5z" />
<glyph unicode="&#x26;" horiz-adv-x="1323" d="M94 365q0 277 324 405q-3 3 -9 10q-34 37 -53 61.5t-48 67.5t-43.5 89.5t-14.5 95.5q0 154 97.5 242.5t240.5 88.5q139 0 230 -85.5t91 -235.5q0 -209 -299 -361l318 -331l225 393l113 -64l-248 -424l301 -317h-189l-190 203q-83 -115 -182.5 -171.5t-239.5 -56.5 q-116 0 -211.5 45t-154 135t-58.5 210zM231 360q0 -117 87.5 -194.5t199.5 -77.5q111 0 186.5 50t143.5 159l-361 385q-128 -58 -192 -132t-64 -190zM383 1100q0 -67 45 -140.5t102 -132.5q134 65 194 133t60 148q0 91 -55.5 151t-140.5 60q-89 0 -147 -61t-58 -158z" />
<glyph unicode="'" horiz-adv-x="407" d="M145 903v539h117v-539h-117z" />
<glyph unicode="(" horiz-adv-x="630" d="M164 623q0 233 58 474.5t173 407.5h133q-227 -390 -227 -882q0 -490 227 -883h-133q-115 167 -173 409t-58 474z" />
<glyph unicode=")" horiz-adv-x="630" d="M100 -260q228 395 228 883q0 490 -228 882h133q116 -166 174 -408t58 -474q0 -231 -58.5 -473t-173.5 -410h-133z" />
<glyph unicode="*" horiz-adv-x="612" d="M72 1090l168 79l-168 80l49 86l153 -110l-16 188h96l-16 -188l154 110l49 -86l-168 -80l168 -79l-49 -84l-154 108l16 -188h-96l16 188l-153 -108z" />
<glyph unicode="+" horiz-adv-x="1310" d="M150 459v119h446v458h121v-458h444v-119h-444v-459h-121v459h-446z" />
<glyph unicode="," horiz-adv-x="534" d="M129 -313l84 313h-70v197h191v-197l-117 -313h-88z" />
<glyph unicode="-" horiz-adv-x="1126" d="M197 459v119h733v-119h-733z" />
<glyph unicode="." horiz-adv-x="415" d="M125 0v197h190v-197h-190z" />
<glyph unicode="/" horiz-adv-x="903" d="M82 -156l604 1569h135l-606 -1569h-133z" />
<glyph unicode="0" horiz-adv-x="1085" d="M78 707q0 85 8.5 165t28 165t54.5 154.5t84 125.5t122.5 87.5t163.5 31.5q98 0 178 -41t133.5 -110.5t89.5 -164.5t52 -199t16 -219q0 -143 -26.5 -268.5t-79 -229t-142.5 -164t-207 -60.5q-81 0 -148 24t-115.5 64.5t-86 98t-60.5 121t-38 137t-21 142t-6 140.5z M209 707q0 -69 5 -131t17.5 -133.5t37 -129t60.5 -106t91.5 -75t126.5 -26.5q79 0 138 40.5t92.5 101.5t53.5 146t26.5 159t6.5 156q0 58 -3 111.5t-12.5 115t-24 112.5t-39.5 100t-58.5 82.5t-81.5 54t-106 20.5q-59 0 -108 -20.5t-82.5 -54.5t-59 -83t-40.5 -100.5 t-24.5 -113t-12.5 -115t-3 -111.5z" />
<glyph unicode="1" horiz-adv-x="774" d="M82 1071v141l348 201h119v-1413h-135v1262z" />
<glyph unicode="2" horiz-adv-x="1081" d="M113 0v141q0 90 24.5 165t65.5 128t94 97.5t112 79.5t118 68t112 68.5t94 75t65.5 94t24.5 119.5q0 122 -75 199.5t-195 77.5q-134 0 -214.5 -96.5t-70.5 -255.5l-137 12q0 212 114 335.5t304 123.5q183 0 297.5 -112.5t114.5 -285.5q0 -77 -24.5 -142t-66 -112 t-95.5 -88.5t-113 -75.5t-118.5 -67.5t-113.5 -70.5t-95.5 -78.5t-66 -97.5t-24.5 -122v-61h745v-119h-876z" />
<glyph unicode="3" horiz-adv-x="1103" d="M78 389l125 14q0 -142 102.5 -224.5t245.5 -82.5q67 0 129.5 20t112.5 56.5t80 95.5t30 131t-27.5 128.5t-74.5 90t-105.5 51t-124.5 17.5h-108v127h108q113 0 182.5 65t69.5 181q0 117 -84 186.5t-213 69.5t-212.5 -70.5t-84.5 -189.5l-123 16q0 168 117 265.5t305 97.5 q185 0 302.5 -96.5t117.5 -264.5q0 -115 -63.5 -200t-147.5 -107v-18q135 -24 210 -113t79 -238q0 -135 -64.5 -231t-170 -141t-240.5 -45q-134 0 -239 44.5t-169.5 138.5t-64.5 226z" />
<glyph unicode="4" horiz-adv-x="1081" d="M61 389v98l648 926h125v-905h241v-119h-241v-389h-127v389h-646zM211 508h496v723z" />
<glyph unicode="5" horiz-adv-x="1081" d="M113 375l118 39q28 -140 123 -232t211 -92q140 0 230 103t90 262q0 151 -90.5 248.5t-229.5 97.5q-82 0 -165.5 -46t-125.5 -116l-110 61l121 713h678v-119h-574l-84 -491l4 -2q38 47 120 80.5t155 33.5q195 0 318.5 -130.5t123.5 -333.5q0 -205 -130 -338t-333 -133 q-161 0 -289.5 112t-160.5 283z" />
<glyph unicode="6" horiz-adv-x="1079" d="M78 594q-1 81 1.5 146.5t13.5 156.5t30 161t56 143.5t87.5 122t127.5 79.5t173 31q311 0 426 -297l-116 -47q-83 217 -304 217q-64 0 -117.5 -21.5t-89.5 -56t-64 -83.5t-44 -97.5t-26.5 -104.5t-14 -98.5t-4.5 -85.5q116 147 336 147q206 0 329 -127t123 -334 q0 -123 -58.5 -229t-165 -170.5t-236.5 -64.5q-100 0 -181.5 34t-145.5 104.5t-99.5 191t-36.5 282.5zM219 451q0 -153 89.5 -252t234.5 -99t237 96.5t92 247.5q0 152 -92 248t-237 96q-146 0 -235 -92.5t-89 -244.5z" />
<glyph unicode="7" horiz-adv-x="903" d="M35 1294v119h831v-129q-99 -118 -176.5 -253t-125 -257.5t-82.5 -266.5t-52 -256t-31 -251h-137q17 137 35 247t54.5 258.5t84 272t124 260.5t173.5 252v4h-698z" />
<glyph unicode="8" horiz-adv-x="1089" d="M76 383q0 134 79.5 239.5t202.5 133.5v10q-92 32 -151.5 120.5t-59.5 192.5q0 154 112.5 254.5t285.5 100.5t285 -100.5t112 -254.5q0 -107 -59.5 -195.5t-151.5 -117.5v-10q123 -32 203 -137.5t80 -235.5q0 -175 -132 -289t-335 -114q-204 0 -337.5 114t-133.5 289z M207 395q0 -134 95 -220.5t241 -86.5t241 86.5t95 220.5q0 132 -95 218.5t-241 86.5t-241 -86.5t-95 -218.5zM281 1065q0 -116 76 -190t194 -74q116 0 191 73t75 187t-75 187t-191 73q-118 0 -194 -72.5t-76 -183.5z" />
<glyph unicode="9" horiz-adv-x="1079" d="M78 967q0 123 58.5 229t165.5 171t237 65q100 0 181.5 -34t145 -105t99 -191.5t36.5 -282.5q1 -81 -1.5 -146.5t-13.5 -156.5t-30 -160.5t-56 -143.5t-87.5 -122t-127.5 -79t-173 -31q-311 0 -426 296l117 48q83 -218 303 -218q64 0 117.5 21.5t89.5 56t64 83.5t44 97.5 t26.5 104.5t14 98.5t4.5 85.5q-116 -147 -336 -147q-206 0 -329 127t-123 334zM207 969q0 -152 92.5 -248t237.5 -96q146 0 234.5 93t88.5 245q0 153 -89 251.5t-234 98.5t-237.5 -96.5t-92.5 -247.5z" />
<glyph unicode=":" horiz-adv-x="448" d="M127 776v197h190v-197h-190zM129 0v197h190v-197h-190z" />
<glyph unicode=";" horiz-adv-x="544" d="M117 -313l84 313h-70v197h191v-197l-117 -313h-88zM133 776v197h191v-197h-191z" />
<glyph unicode="&#x3c;" horiz-adv-x="1153" d="M115 674l876 497v-122l-667 -375l667 -369v-129z" />
<glyph unicode="=" horiz-adv-x="1040" d="M150 289v119h741v-119h-741zM150 629v119h741v-119h-741z" />
<glyph unicode="&#x3e;" horiz-adv-x="1153" d="M184 176v129l668 369l-668 375v122l877 -497z" />
<glyph unicode="?" horiz-adv-x="952" d="M70 1079q1 106 56.5 188t144.5 124.5t194 42.5q176 0 290.5 -94t114.5 -261q0 -67 -19 -119t-48.5 -83t-66 -55.5t-73 -44t-66 -40t-48.5 -52t-19 -73.5v-245h-118v247q0 57 18.5 99t47.5 67t65 45t71.5 40t64.5 45.5t47.5 69.5t18.5 103q0 116 -77 176t-195 60 q-110 0 -192.5 -64.5t-83.5 -175.5h-127zM385 0v176h178v-176h-178z" />
<glyph unicode="@" horiz-adv-x="1929" d="M94 543q0 181 67 345t181 283.5t274 190t338 70.5t341.5 -70.5t281.5 -189.5t188 -282t70 -341q0 -111 -27 -214.5t-79 -189.5t-138 -138t-194 -52q-136 0 -202.5 77.5t-45.5 203.5q-56 -76 -143.5 -119t-180.5 -43q-148 0 -227.5 104t-79.5 262q0 76 18 157t56 159 t90.5 139.5t128 99t162.5 37.5q108 0 184.5 -55t89.5 -148l29 152h137l-131 -674q-24 -119 6.5 -168t116.5 -51q66 -1 119 31t85.5 82t54 115.5t30 126t8.5 118.5q0 146 -59.5 283t-159.5 237.5t-239 161t-290 60.5q-152 0 -287 -60t-231.5 -161.5t-152.5 -241t-56 -293.5 q0 -205 95 -379t261.5 -275.5t366.5 -101.5q120 0 248 39l47 -127q-142 -51 -293 -51q-177 0 -336.5 71t-273.5 190.5t-181 284t-67 345.5zM645 436q0 -107 49 -168t148 -61q69 0 129 30t100.5 78.5t70 109.5t43 123.5t13.5 121.5q0 106 -49.5 166.5t-149.5 60.5 q-85 0 -155 -44.5t-112 -114t-64.5 -148.5t-22.5 -154z" />
<glyph unicode="A" horiz-adv-x="1140" d="M12 0l467 1413h189l465 -1413h-146l-100 322h-631l-100 -322h-144zM293 436h557l-277 883h-4z" />
<glyph unicode="B" horiz-adv-x="1308" d="M205 0v1413h508q200 0 316 -101.5t116 -273.5q0 -65 -23 -121.5t-58 -92t-71 -57t-67 -26.5v-8q113 -5 200.5 -104.5t87.5 -245.5q0 -176 -116 -279.5t-303 -103.5h-590zM338 129h440q151 0 225 69t74 193q0 122 -88 193t-211 71h-440v-526zM338 782h348q130 0 220.5 70 t90.5 192q0 244 -290 244h-369v-506z" />
<glyph unicode="C" horiz-adv-x="1347" d="M94 707q0 171 47.5 309.5t133 230t203 140.5t257.5 49q184 0 338.5 -103t212.5 -268l-110 -53q-49 136 -164.5 215.5t-278.5 79.5q-231 0 -368.5 -160.5t-137.5 -429.5q0 -277 139 -442.5t373 -165.5q148 0 266 80.5t171 213.5l110 -51q-57 -165 -211 -268.5t-338 -103.5 q-141 0 -259.5 49t-203.5 140.5t-132.5 229t-47.5 308.5z" />
<glyph unicode="D" horiz-adv-x="1355" d="M205 0v1413h352q340 0 522.5 -184t182.5 -535q0 -333 -185.5 -513.5t-521.5 -180.5h-350zM340 127h190q300 0 446 143t146 437t-140.5 437.5t-428.5 143.5h-213v-1161z" />
<glyph unicode="E" horiz-adv-x="1224" d="M205 0v1413h909v-123h-774v-522h676v-123h-676v-522h774v-123h-909z" />
<glyph unicode="F" horiz-adv-x="1157" d="M205 0v1413h901v-123h-766v-522h678v-123h-678v-645h-135z" />
<glyph unicode="G" horiz-adv-x="1497" d="M94 711q0 118 24 224.5t75 198.5t124.5 159t178.5 105t231 38q394 0 569 -371l-125 -51q-75 150 -185.5 219.5t-260.5 69.5q-127 0 -224.5 -47t-156 -129t-88 -185.5t-29.5 -224.5q0 -99 18.5 -187.5t58 -165.5t96 -133t137.5 -88t178 -32q198 0 330 124t145 353h-328 v117h455v-705h-109l-4 266q-25 -53 -67 -101.5t-102 -91t-143.5 -68t-178.5 -25.5q-147 0 -266 57.5t-195.5 157t-117 232t-40.5 284.5z" />
<glyph unicode="H" horiz-adv-x="1417" d="M205 0v1413h135v-647h737v647h135v-1413h-135v647h-737v-647h-135z" />
<glyph unicode="I" horiz-adv-x="544" d="M205 0v1413h135v-1413h-135z" />
<glyph unicode="J" horiz-adv-x="739" d="M31 0v127q87 -31 151 -31q271 0 271 385v932h135v-917q0 -516 -412 -516q-73 0 -145 20z" />
<glyph unicode="K" horiz-adv-x="1214" d="M205 0v1413h135v-674l616 674h168l-522 -561l602 -852h-178l-510 760l-176 -189v-571h-135z" />
<glyph unicode="L" horiz-adv-x="964" d="M205 0v1413h135v-1290h604v-123h-739z" />
<glyph unicode="M" horiz-adv-x="1691" d="M205 0v1413h233l408 -1300l407 1300h234v-1413h-135v1303h-6l-408 -1303h-184l-408 1303h-6v-1303h-135z" />
<glyph unicode="N" horiz-adv-x="1478" d="M205 0v1413h211l712 -1272h11v1272h135v-1413h-215l-713 1286h-6v-1286h-135z" />
<glyph unicode="O" horiz-adv-x="1449" d="M94 707q0 333 171.5 530t461.5 197q287 0 458 -197t171 -530t-171 -530t-458 -197q-290 0 -461.5 197t-171.5 530zM223 707q0 -276 136 -438.5t368 -162.5q229 0 364.5 163t135.5 438t-135.5 437.5t-364.5 162.5q-232 0 -368 -162.5t-136 -437.5z" />
<glyph unicode="P" horiz-adv-x="1298" d="M205 0v1413h567q216 0 340.5 -112t124.5 -320q0 -200 -120.5 -308t-344.5 -108h-432v-565h-135zM340 688h444q159 0 238.5 71t79.5 218q0 149 -80.5 231t-237.5 82h-444v-602z" />
<glyph unicode="Q" horiz-adv-x="1458" d="M94 707q0 333 171.5 530t461.5 197q287 0 458 -197t171 -530q0 -175 -50 -316.5t-143 -236.5l201 -201l-80 -82l-207 209q-145 -100 -350 -100q-290 0 -461.5 197t-171.5 530zM223 707q0 -276 136 -438.5t368 -162.5q144 0 256 70l-268 273l73 77l283 -280 q156 166 156 461q0 275 -135.5 437.5t-364.5 162.5q-232 0 -368 -162.5t-136 -437.5z" />
<glyph unicode="R" horiz-adv-x="1323" d="M205 -2v1415h567q199 0 320.5 -105t121.5 -282q0 -145 -83 -240.5t-224 -123.5l344 -664h-151l-328 647h-432v-647h-135zM342 768h463q137 6 205.5 72t68.5 186q0 126 -79 195t-226 69h-432v-522z" />
<glyph unicode="S" horiz-adv-x="1073" d="M61 348l121 60q53 -149 154.5 -222t232.5 -73t213 64.5t82 180.5q0 52 -19 96.5t-46 75t-75 60.5t-86.5 48.5t-100.5 43.5q-161 67 -225 109q-157 101 -168 263q-1 13 -1 27q0 158 109.5 255.5t284.5 97.5q245 0 403 -213l-90 -84q-131 172 -315 172q-111 0 -182.5 -60 t-71.5 -157q0 -45 18.5 -83.5t45 -65.5t72 -55t84.5 -46.5t97 -43.5q8 -3 12 -5q52 -23 82 -36.5t77 -39t75 -47t61.5 -54t52 -66t31 -78.5t12.5 -95q0 -173 -123.5 -283t-314.5 -110q-105 0 -199.5 36t-177 120t-125.5 208z" />
<glyph unicode="T" horiz-adv-x="1148" d="M20 1292v121h1108v-121h-485v-1292h-135v1292h-488z" />
<glyph unicode="U" horiz-adv-x="1323" d="M180 487v926h135v-932q0 -177 93 -278t256 -101q160 0 252 101t92 278v932h135v-915q0 -243 -129 -380.5t-350 -137.5q-224 0 -354 134.5t-130 372.5z" />
<glyph unicode="V" horiz-adv-x="1161" d="M20 1413h144l414 -1319h4l413 1319h146l-465 -1413h-189z" />
<glyph unicode="W" horiz-adv-x="1808" d="M20 1413h140l289 -1270h4l352 1270h196l353 -1270h4l289 1270h139l-342 -1413h-172l-369 1327l-368 -1327h-173z" />
<glyph unicode="X" horiz-adv-x="1118" d="M20 0l465 707l-462 706h161l375 -596l375 596h162l-463 -706l465 -707h-162l-379 586l-375 -586h-162z" />
<glyph unicode="Y" horiz-adv-x="1325" d="M10 1413h162l485 -739l496 739h162l-586 -860v-553h-137v553z" />
<glyph unicode="Z" horiz-adv-x="1150" d="M35 0v115l911 1175h-866v123h1036v-119l-921 -1171h921v-123h-1081z" />
<glyph unicode="[" horiz-adv-x="536" d="M143 -274v1779h353v-94h-248v-1589h248v-96h-353z" />
<glyph unicode="\" horiz-adv-x="903" d="M82 1413h133l606 -1569h-135z" />
<glyph unicode="]" horiz-adv-x="536" d="M41 -178h248v1589h-248v94h352v-1779h-352v96z" />
<glyph unicode="^" horiz-adv-x="743" d="M25 645l346 766l348 -766h-123l-225 537l-221 -537h-125z" />
<glyph unicode="_" horiz-adv-x="761" d="M0 0h762v-96h-762v96z" />
<glyph unicode="`" horiz-adv-x="409" d="M-2 1364h188l215 -242h-129z" />
<glyph unicode="a" horiz-adv-x="1067" d="M98 283q0 183 183 272q124 61 530 166v18q0 112 -63 160.5t-191 48.5q-120 0 -201 -40.5t-135 -121.5l-102 70q144 213 422 213q176 0 284.5 -81t108.5 -230v-758h-123v178q-97 -106 -188.5 -153.5t-192.5 -47.5q-143 0 -237.5 84.5t-94.5 221.5zM236 283 q0 -87 63.5 -139t153.5 -52q171 0 358 217v297q-353 -92 -461 -153q-114 -64 -114 -170z" />
<glyph unicode="b" horiz-adv-x="1230" d="M190 0v1413h127v-489h11q71 69 154 107t200 38q119 0 209 -42t143.5 -117.5t80 -172t26.5 -213.5t-26.5 -214.5t-80 -173t-143 -117.5t-207.5 -42q-210 0 -358 148h-9v-125h-127zM307 524q0 -199 92.5 -314.5t253.5 -115.5q181 0 271 113t90 317q0 200 -90 312t-271 112 q-160 0 -253 -115t-93 -309z" />
<glyph unicode="c" horiz-adv-x="1007" d="M90 522q0 150 50 272t156 198.5t253 76.5q142 0 247.5 -70.5t149.5 -195.5l-112 -47q-26 92 -103.5 146t-181.5 54q-71 0 -128.5 -26.5t-94.5 -70t-61.5 -101t-35 -116.5t-10.5 -120q0 -78 17.5 -150.5t54.5 -137t103.5 -103.5t154.5 -39q107 0 184.5 55.5t104.5 141.5 l108 -41q-44 -128 -148.5 -199.5t-246.5 -71.5q-112 0 -201 44.5t-145 120.5t-85.5 173.5t-29.5 206.5z" />
<glyph unicode="d" horiz-adv-x="1230" d="M90 524q0 117 26.5 213.5t80 172t143.5 117.5t209 42q117 0 200 -38t154 -107h10v489h127v-1413h-127v125h-8q-148 -148 -358 -148q-118 0 -207.5 42t-143 117.5t-80 173t-26.5 214.5zM217 524q0 -204 90 -317t271 -113q161 0 253.5 115.5t92.5 314.5q0 194 -93 309 t-253 115q-181 0 -271 -112t-90 -312z" />
<glyph unicode="e" horiz-adv-x="1107" d="M90 526q0 82 15 158t51 147t90 123t137 83.5t186 31.5q106 0 188 -34t130 -86.5t78.5 -125.5t41.5 -142.5t11 -145.5q0 -46 -2 -64h-795q6 -76 29.5 -140t67 -118t115.5 -84.5t167 -30.5q178 0 305 103l70 -86q-160 -135 -373 -135q-110 0 -198 30.5t-145.5 82.5 t-96.5 123t-55.5 148t-16.5 162zM217 582h680q-8 174 -92 271t-242 97q-91 0 -159 -31t-106.5 -85t-58 -116t-22.5 -136z" />
<glyph unicode="f" horiz-adv-x="659" d="M31 938v111h190v65q0 137 81.5 218t219.5 81h111v-113h-111q-79 0 -126.5 -47.5t-47.5 -128.5v-75h285v-111h-285v-938h-127v938h-190z" />
<glyph unicode="g" horiz-adv-x="1232" d="M90 543q0 108 27.5 200.5t83.5 166.5t151.5 116.5t220.5 42.5q214 0 326 -143h14v123h129v-1049q0 -174 -121.5 -279.5t-345.5 -105.5q-110 0 -204 25.5t-161.5 79.5t-86.5 128l100 43q16 -44 54.5 -77.5t89.5 -52.5t105 -28t110 -9q159 0 246 77t87 199v170 q-128 -162 -360 -162q-95 0 -173 29t-131.5 78.5t-90 118t-53.5 146t-17 163.5zM219 539q0 -86 20.5 -159t62.5 -132.5t114 -93t168 -33.5q92 0 160 30t108 85.5t59 126t19 157.5q0 69 -11.5 130.5t-38 119t-66.5 98.5t-102 65.5t-139 24.5q-73 0 -132.5 -22t-100.5 -60 t-68.5 -91.5t-40 -114.5t-12.5 -131z" />
<glyph unicode="h" d="M190 0v1413h127v-526h13q105 182 303 182q158 0 251 -104.5t93 -284.5v-680h-127v668q0 278 -232 278q-129 0 -215 -94.5t-86 -235.5v-616h-127z" />
<glyph unicode="i" horiz-adv-x="507" d="M190 0v1049h127v-1049h-127zM190 1223v190h127v-190h-127z" />
<glyph unicode="j" horiz-adv-x="522" d="M-37 -254q111 0 171.5 58.5t60.5 158.5v1086h127v-1065q0 -172 -94.5 -260.5t-264.5 -88.5v111zM180 1221v192h152v-192h-152z" />
<glyph unicode="k" horiz-adv-x="1019" d="M190 0v1413h127v-835l488 471h160l-443 -431l516 -618h-166l-436 535l-119 -115v-420h-127z" />
<glyph unicode="l" horiz-adv-x="483" d="M178 0v1413h127v-1413h-127z" />
<glyph unicode="m" horiz-adv-x="1705" d="M190 0v1049h127v-146h7q42 76 114.5 121t169.5 45q96 0 173 -48t118 -149h6q57 104 133 151q74 46 180 46h5q160 -1 243.5 -103.5t83.5 -283.5v-682h-127v680q0 122 -55.5 197t-175.5 75q-68 0 -119 -26t-81 -73t-45 -106t-15 -129v-618h-127v684q0 268 -223 268 q-136 0 -200.5 -93.5t-64.5 -240.5v-618h-127z" />
<glyph unicode="n" d="M190 0v1049h129v-162h9q49 85 125.5 133.5t175.5 48.5q162 0 255 -105t93 -284v-680h-127v668q0 147 -57 213.5t-166 66.5q-136 0 -223 -92t-87 -240v-616h-127z" />
<glyph unicode="o" horiz-adv-x="1148" d="M90 520q0 261 132 405t351 144q217 0 351.5 -144.5t134.5 -404.5q0 -256 -134.5 -399.5t-351.5 -143.5q-219 0 -351 143t-132 400zM215 520q0 -209 95.5 -316.5t264.5 -107.5q170 0 266.5 107.5t96.5 316.5q0 213 -96.5 322.5t-266.5 109.5q-169 0 -264.5 -109.5 t-95.5 -322.5z" />
<glyph unicode="p" horiz-adv-x="1228" d="M190 -365v1414h123v-129h19q126 149 350 149q109 0 196.5 -42t144 -116t86.5 -173t30 -214t-30 -214t-86.5 -173.5t-144 -117t-196.5 -42.5q-116 0 -201 40t-157 112h-7v-494h-127zM297 524q0 -202 95.5 -319t258.5 -117q168 0 265.5 117.5t97.5 318.5t-97 317.5 t-266 116.5q-163 0 -258.5 -116.5t-95.5 -317.5z" />
<glyph unicode="q" horiz-adv-x="1228" d="M90 524q0 115 30 214t86.5 173t144 116t196.5 42q224 0 350 -149h18v129h123v-1414h-127v494h-6q-72 -72 -157 -112t-201 -40q-109 0 -196.5 42.5t-144 117t-86.5 173.5t-30 214zM215 524q0 -201 97.5 -318.5t265.5 -117.5q163 0 258.5 117t95.5 319q0 201 -95.5 317.5 t-258.5 116.5q-169 0 -266 -116.5t-97 -317.5z" />
<glyph unicode="r" horiz-adv-x="747" d="M190 0v1049h132v-170h6q38 89 105 137.5t153 48.5q92 0 141 -18v-121q-64 15 -105 15q-12 0 -22 -1q-136 -9 -209.5 -133t-73.5 -344v-463h-127z" />
<glyph unicode="s" horiz-adv-x="950" d="M61 233l121 60q26 -78 104 -136.5t203 -58.5q110 0 187.5 49t77.5 140q0 40 -18.5 71t-39.5 49t-71 36.5t-76 25t-92 21.5q-5 1 -8 2q-47 11 -74 17.5t-69.5 20t-67.5 26.5t-55.5 34.5t-47 45.5t-28 58t-11.5 74q0 139 102.5 220t266.5 81q132 0 226 -60t145 -147 l-103 -67q-96 153 -274 153q-102 0 -173 -46.5t-71 -119.5q0 -27 10.5 -49t32.5 -38.5t45 -29t61.5 -24.5t67.5 -19.5t75 -18.5q9 -2 13 -3q47 -11 77 -19t72 -22.5t68.5 -29t56 -37t46.5 -48.5t28 -62t11 -79q0 -62 -23 -116t-62.5 -92t-91 -65t-109 -40t-116.5 -13 q-148 0 -265 76t-151 180z" />
<glyph unicode="t" horiz-adv-x="671" d="M37 938v111h162v364h125v-364h294v-111h-294v-631q0 -113 37.5 -157t132.5 -44h124v-106h-145q-142 0 -208 68.5t-66 214.5v655h-162z" />
<glyph unicode="u" d="M156 371v678h127v-668q0 -270 223 -270q135 0 222 90t87 231v617h127v-1049h-129v162h-16q-101 -176 -293 -176q-163 0 -255.5 102.5t-92.5 282.5z" />
<glyph unicode="v" horiz-adv-x="915" d="M45 1049h139l275 -990l274 990h137l-313 -1049h-199z" />
<glyph unicode="w" horiz-adv-x="1409" d="M41 1049h141l176 -969l287 969h115l291 -969l176 969h141l-223 -1049h-191l-249 866l-250 -864h-193z" />
<glyph unicode="x" horiz-adv-x="868" d="M23 0l350 528l-350 521h135l274 -426l279 426h135l-348 -521l348 -528h-135l-279 434l-274 -434h-135z" />
<glyph unicode="y" horiz-adv-x="888" d="M35 1049h137l279 -887h6l270 887h139l-377 -1108q-23 -69 -54 -121.5t-68 -85t-73 -53.5t-81 -30.5t-79.5 -12.5t-80.5 -3v111q50 0 91.5 8t71 19t55.5 32t41 37t31 46t23.5 47t20.5 50l6 15z" />
<glyph unicode="z" horiz-adv-x="901" d="M53 0v98l649 836h-624v115h776v-111l-647 -821h639v-117h-793z" />
<glyph unicode="{" horiz-adv-x="641" d="M143 580v100q30 0 47.5 3.5t37 15.5t28 41t8.5 75v488q0 98 69 166.5t167 68.5h59v-125h-59q-49 0 -82 -31.5t-33 -78.5v-476q0 -85 -13.5 -127.5t-64.5 -70.5q51 -24 64.5 -67t13.5 -132v-471q0 -47 33 -79t82 -32h59v-122h-59q-98 0 -167 68t-69 165v485q0 38 -7.5 64 t-17 40t-28.5 21t-31.5 8.5t-36.5 2.5z" />
<glyph unicode="|" horiz-adv-x="501" d="M205 -156v1690h92v-1690h-92z" />
<glyph unicode="}" horiz-adv-x="645" d="M82 -152h59q49 0 82 32t33 79v471q0 89 13.5 132t64.5 67q-51 28 -64.5 70.5t-13.5 127.5v476q0 47 -33 78.5t-82 31.5h-59v125h59q98 0 167 -68.5t69 -166.5v-488q0 -46 8.5 -75t28 -41t37 -15.5t47.5 -3.5v-100q-24 -1 -36.5 -2.5t-31.5 -8.5t-28.5 -21t-17 -40 t-7.5 -64v-485q0 -97 -69 -165t-167 -68h-59v122z" />
<glyph unicode="~" horiz-adv-x="927" d="M92 406q0 109 49 177t142 68q54 0 98.5 -17.5t74 -42t55 -49t54.5 -42t60 -17.5q58 0 80 41t22 121h109q0 -126 -57.5 -196t-160.5 -70q-45 0 -84.5 17.5t-69 43t-57 51t-58.5 43t-64 17.5q-96 0 -92 -145h-101z" />
<glyph unicode="&#xa1;" horiz-adv-x="518" d="M170 872v177h178v-177h-178zM182 -387l29 1065h96l29 -1065h-154z" />
<glyph unicode="&#xa2;" horiz-adv-x="1007" d="M90 522q0 143 45.5 260t140.5 195t228 90v133h92v-133q125 -10 217 -79.5t133 -184.5l-112 -47q-26 92 -103.5 146t-181.5 54q-71 0 -128.5 -26.5t-94.5 -70t-61.5 -101t-35 -116.5t-10.5 -120q0 -78 17.5 -150.5t54.5 -137t103.5 -103.5t154.5 -39q107 0 184.5 55.5 t104.5 141.5l108 -41q-41 -117 -132.5 -187.5t-217.5 -80.5v-185h-92v185q-133 12 -228.5 91t-140.5 195t-45 256z" />
<glyph unicode="&#xa3;" horiz-adv-x="1232" d="M88 571v117h164v279q0 205 127.5 336t327.5 131q141 0 263 -90t163 -226l-127 -55q-22 102 -108.5 169.5t-190.5 67.5q-146 0 -235 -91t-89 -242v-279h381v-117h-381v-448h750v-123h-881v571h-164z" />
<glyph unicode="&#xa4;" horiz-adv-x="1130" d="M123 311l100 101q-94 116 -94 268t94 268l-100 101l72 75l100 -104q122 96 270 96q149 0 271 -96l100 104l72 -75l-101 -101q94 -116 94 -268t-94 -268l101 -101l-72 -75l-100 104q-122 -96 -271 -96q-148 0 -270 96l-100 -104zM233 680q0 -137 97 -234q98 -98 235 -98 q138 0 236 98q96 96 96 234q0 137 -96 233q-99 99 -236 99q-136 0 -235 -99q-97 -97 -97 -233z" />
<glyph unicode="&#xa5;" horiz-adv-x="1148" d="M10 1413h123l442 -711l441 711h123l-477 -774h274v-98h-301v-252h301v-101h-301v-170h-121v170h-303v101h303v252h-303v96h274z" />
<glyph unicode="&#xa6;" horiz-adv-x="495" d="M201 -156v643h94v-643h-94zM201 758v655h94v-655h-94z" />
<glyph unicode="&#xa7;" horiz-adv-x="1093" d="M152 270l137 43q57 -190 276 -190q234 0 234 164q0 41 -25.5 69t-67.5 41.5t-96 26.5t-110 22.5t-110 30.5t-96 49.5t-67.5 80.5t-25.5 122q0 61 27 117t73 96q-47 34 -72.5 85t-25.5 110q0 92 51.5 161.5t129.5 102.5t169 33q134 0 233.5 -70t137.5 -197l-140 -37 q-47 162 -233 162q-85 0 -146 -42t-61 -124q0 -44 33 -71.5t85.5 -41t116.5 -25t128 -30t116.5 -47.5t85.5 -86.5t33 -138.5q0 -129 -94 -211q94 -70 94 -196q0 -77 -32.5 -136t-87 -93t-119.5 -51t-138 -17q-153 0 -261.5 72.5t-151.5 215.5zM344 729q0 -34 19.5 -62 t47.5 -45t69.5 -32t75.5 -22.5t76 -16.5t60 -14q107 45 107 159q0 31 -13 57t-37 43.5t-50.5 31t-63 23.5t-64.5 16t-63.5 13t-52.5 11q-53 -22 -82 -64.5t-29 -97.5z" />
<glyph unicode="&#xa8;" horiz-adv-x="550" d="M45 1174v190h152v-190h-152zM354 1174v190h152v-190h-152z" />
<glyph unicode="&#xa9;" horiz-adv-x="1675" d="M94 707q0 154 59 294t158.5 241t237 160.5t287.5 59.5q202 0 373.5 -101t271.5 -275t100 -379q0 -154 -59 -294t-159 -241t-238 -161t-289 -60q-150 0 -287.5 60t-237 161t-158.5 241t-59 294zM195 707q0 -174 87.5 -325.5t235.5 -241t318 -89.5q129 0 248.5 53 t205.5 142t137.5 210t51.5 251q0 174 -86.5 325t-235 240.5t-321.5 89.5q-127 0 -245.5 -53t-205 -141.5t-138.5 -209.5t-52 -251zM451 711q0 130 43 235.5t134.5 171.5t217.5 66q124 0 215 -61t129 -169l-96 -41q-23 79 -90 125.5t-158 46.5q-75 0 -132.5 -34t-89.5 -90.5 t-47.5 -119.5t-15.5 -130t15.5 -129.5t47.5 -118.5t89.5 -89.5t132.5 -33.5q94 0 160.5 47.5t89.5 122.5l94 -35q-38 -111 -128 -173t-214 -62q-96 0 -173 38.5t-125 104.5t-73.5 150t-25.5 178z" />
<glyph unicode="&#xaa;" horiz-adv-x="700" d="M68 895q0 125 125 186q87 45 360 113v14q0 76 -43 109t-129 33q-159 0 -229 -111l-70 47q98 148 287 148q121 0 194.5 -55.5t73.5 -157.5v-519h-84v123q-125 -139 -260 -139q-97 0 -161 57.5t-64 151.5zM162 895q0 -59 43 -94t104 -35q120 0 244 147v203 q-230 -58 -313 -104q-78 -44 -78 -117z" />
<glyph unicode="&#xab;" horiz-adv-x="1028" d="M154 512l354 317v-147l-197 -170l197 -172v-150zM516 512l354 317v-147l-196 -170l196 -172v-150z" />
<glyph unicode="&#xac;" horiz-adv-x="1159" d="M150 682v115h860v-547h-115v432h-745z" />
<glyph unicode="&#xad;" horiz-adv-x="1126" d="M197 459v119h733v-119h-733z" />
<glyph unicode="&#xae;" horiz-adv-x="1259" d="M100 893q0 147 70.5 271.5t192.5 197t266 72.5t266 -72.5t193 -197t71 -271.5t-71 -271.5t-193 -197t-266 -72.5t-266 72.5t-192.5 197t-70.5 271.5zM172 893q0 -123 62 -230t167.5 -170t227.5 -63t227.5 63t168 170t62.5 230t-62.5 230.5t-168 171t-227.5 63.5 t-227.5 -63.5t-167.5 -171t-62 -230.5zM451 606v563h217q94 0 143 -42t49 -119q0 -68 -33.5 -107t-83.5 -51l144 -244h-109l-127 236h-106v-236h-94zM537 922h131q106 0 106 86t-106 86h-131v-172z" />
<glyph unicode="&#xaf;" horiz-adv-x="661" d="M66 1192v96h528v-96h-528z" />
<glyph unicode="&#xb0;" horiz-adv-x="747" d="M82 1143q0 121 85.5 206t205.5 85q122 0 207.5 -85t85.5 -206q0 -123 -85.5 -208t-207.5 -85q-121 0 -206 85t-85 208zM182 1143q0 -81 56 -137t135 -56t135.5 56t56.5 137q0 79 -57 135.5t-135 56.5t-134.5 -56.5t-56.5 -135.5z" />
<glyph unicode="&#xb1;" horiz-adv-x="1308" d="M150 674v94h456v471h96v-471h457v-94h-457v-471h-96v471h-456zM152 0v96h1007v-96h-1007z" />
<glyph unicode="&#xb4;" horiz-adv-x="409" d="M20 1124l218 240h186l-295 -240h-109z" />
<glyph unicode="&#xb5;" horiz-adv-x="1157" d="M168 -266v1265h139v-598q0 -59 9.5 -108.5t32 -95t66 -71.5t105.5 -26q126 0 216.5 98t90.5 228v573h140v-999h-140v186q-32 -78 -121.5 -143.5t-201.5 -65.5q-110 0 -195 58l-22 -301h-119z" />
<glyph unicode="&#xb6;" horiz-adv-x="1112" d="M82 1018q0 120 65.5 212t167 137.5t220.5 45.5h108v-1700h-108v910q-119 0 -220.5 45.5t-167 137.5t-65.5 212zM823 -287v1700h111v-1700h-111z" />
<glyph unicode="&#xb7;" horiz-adv-x="489" d="M125 831q0 49 33.5 83t83.5 34q51 0 87 -34t36 -83q0 -51 -36 -86.5t-87 -35.5q-48 0 -82.5 35.5t-34.5 86.5z" />
<glyph unicode="&#xb8;" horiz-adv-x="389" d="M23 -379l77 43q6 -32 33 -55t66 -23q42 0 67 25t25 61t-24.5 68.5t-71.5 46.5l-111 37l92 176h92l-75 -133l49 -17q141 -49 141 -172q0 -86 -54.5 -132t-127.5 -46q-64 0 -110 34t-68 87z" />
<glyph unicode="&#xba;" horiz-adv-x="776" d="M61 1061q0 178 89 274.5t237 96.5q146 0 237 -97.5t91 -273.5q0 -172 -91.5 -268.5t-236.5 -96.5q-148 0 -237 96t-89 269zM145 1061q0 -140 64.5 -212.5t179.5 -72.5q113 0 178.5 73t65.5 212q0 144 -65.5 218.5t-178.5 74.5q-115 0 -179.5 -74t-64.5 -219z" />
<glyph unicode="&#xbb;" horiz-adv-x="1028" d="M154 190v150l196 172l-196 170v147l354 -317zM516 190v150l197 172l-197 170v147l354 -317z" />
<glyph unicode="&#xbf;" horiz-adv-x="882" d="M82 -31q0 67 19 119t48.5 83t66 55.5t73 44t66 40t48.5 52t19 73.5v246h119v-248q0 -57 -18.5 -99t-48 -67t-65 -45l-71 -40t-65 -45.5t-48 -69.5t-18.5 -103q0 -116 77 -175.5t195 -59.5q71 0 132.5 26.5t102.5 82t42 130.5h127q-1 -106 -56.5 -188t-145 -124 t-194.5 -42q-176 0 -290.5 93.5t-114.5 260.5zM389 872v177h178v-177h-178z" />
<glyph unicode="&#xc0;" horiz-adv-x="1140" d="M12 0l467 1413h189l465 -1413h-146l-100 322h-631l-100 -322h-144zM236 1778h188l215 -242h-129zM293 436h557l-277 883h-4z" />
<glyph unicode="&#xc1;" horiz-adv-x="1140" d="M12 0l467 1413h189l465 -1413h-146l-100 322h-631l-100 -322h-144zM293 436h557l-277 883h-4zM520 1538l217 240h187l-295 -240h-109z" />
<glyph unicode="&#xc2;" horiz-adv-x="1140" d="M12 0l467 1413h189l465 -1413h-146l-100 322h-631l-100 -322h-144zM293 436h557l-277 883h-4zM305 1507l258 271h23l260 -271h-117l-154 162l-151 -162h-119z" />
<glyph unicode="&#xc3;" horiz-adv-x="1140" d="M12 0l467 1413h189l465 -1413h-146l-100 322h-631l-100 -322h-144zM227 1554q0 100 43.5 162t137.5 62q47 0 87 -16.5t67.5 -40t52.5 -47t54 -40t60 -16.5q102 0 102 160h91q0 -118 -52 -180t-143 -62q-45 0 -83.5 16t-66 38.5t-53 45t-54.5 38.5t-60 16q-53 0 -78 -40 t-23 -96h-82zM293 436h557l-277 883h-4z" />
<glyph unicode="&#xc4;" horiz-adv-x="1140" d="M12 0l467 1413h189l465 -1413h-146l-100 322h-631l-100 -322h-144zM293 436h557l-277 883h-4zM344 1587v191h152v-191h-152zM653 1587v191h152v-191h-152z" />
<glyph unicode="&#xc5;" horiz-adv-x="1140" d="M12 0l451 1366q-82 59 -82 160q0 79 56 134.5t136 55.5q79 0 136 -54.5t57 -135.5q0 -49 -22 -91t-60 -69l449 -1366h-146l-100 322h-631l-100 -322h-144zM293 436h557l-277 883h-4zM465 1524q0 -49 30.5 -79t77.5 -30q45 0 78 32t33 77q0 46 -32 78t-79 32 q-50 0 -79 -29.5t-29 -80.5z" />
<glyph unicode="&#xc6;" horiz-adv-x="1757" d="M12 0l525 1413h1110v-119h-748v-528h662v-119h-662v-520h748v-127h-889v311h-473l-113 -311h-160zM332 442h426v840h-123z" />
<glyph unicode="&#xc7;" horiz-adv-x="1347" d="M94 707q0 171 47.5 309.5t133 230t203 140.5t257.5 49q184 0 338.5 -103t212.5 -268l-110 -53q-49 136 -164.5 215.5t-278.5 79.5q-231 0 -368.5 -160.5t-137.5 -429.5q0 -277 139 -442.5t373 -165.5q148 0 266 80.5t171 213.5l110 -51q-50 -147 -180.5 -246.5 t-292.5 -121.5l-68 -117l50 -17q141 -49 141 -172q0 -86 -54.5 -132t-127.5 -46q-64 0 -110.5 34t-68.5 87l78 43q6 -32 33 -55t66 -23q42 0 67 25t25 61t-24.5 68.5t-71.5 46.5l-111 37l82 156q-138 3 -252.5 53.5t-197.5 142t-129 227.5t-46 304z" />
<glyph unicode="&#xc8;" horiz-adv-x="1224" d="M205 0v1413h909v-123h-774v-522h676v-123h-676v-522h774v-123h-909zM322 1778h188l215 -242h-129z" />
<glyph unicode="&#xc9;" horiz-adv-x="1224" d="M205 0v1413h909v-123h-774v-522h676v-123h-676v-522h774v-123h-909zM606 1538l217 240h187l-295 -240h-109z" />
<glyph unicode="&#xca;" horiz-adv-x="1224" d="M205 0v1413h909v-123h-774v-522h676v-123h-676v-522h774v-123h-909zM391 1507l258 271h23l260 -271h-117l-153 162l-152 -162h-119z" />
<glyph unicode="&#xcb;" horiz-adv-x="1224" d="M205 0v1413h909v-123h-774v-522h676v-123h-676v-522h774v-123h-909zM430 1587v191h152v-191h-152zM739 1587v191h152v-191h-152z" />
<glyph unicode="&#xcc;" horiz-adv-x="544" d="M-66 1778h189l215 -242h-129zM205 0v1413h135v-1413h-135z" />
<glyph unicode="&#xcd;" horiz-adv-x="544" d="M205 0v1413h135v-1413h-135zM219 1538l217 240h187l-295 -240h-109z" />
<glyph unicode="&#xce;" horiz-adv-x="544" d="M4 1507l258 271h23l260 -271h-117l-154 162l-151 -162h-119zM205 0v1413h135v-1413h-135z" />
<glyph unicode="&#xcf;" horiz-adv-x="544" d="M43 1587v191h152v-191h-152zM205 0v1413h135v-1413h-135zM352 1587v191h152v-191h-152z" />
<glyph unicode="&#xd0;" horiz-adv-x="1327" d="M27 657v111h149v645h352q340 0 522.5 -184t182.5 -535q0 -333 -185.5 -513.5t-521.5 -180.5h-350v657h-149zM311 127h191q300 0 446 143t146 437t-141 437.5t-429 143.5h-213v-520h375v-111h-375v-530z" />
<glyph unicode="&#xd1;" horiz-adv-x="1478" d="M205 0v1413h211l712 -1272h11v1272h135v-1413h-215l-713 1286h-6v-1286h-135zM393 1554q0 101 43 162.5t137 61.5q47 0 87 -16.5t68 -40t53 -47t54 -40t60 -16.5q102 0 102 160h90q0 -118 -51.5 -180t-142.5 -62q-55 0 -102 24t-75.5 53t-66 53t-74.5 24q-53 0 -77.5 -40 t-22.5 -96h-82z" />
<glyph unicode="&#xd2;" horiz-adv-x="1449" d="M94 707q0 333 171.5 530t461.5 197q287 0 458 -197t171 -530t-171 -530t-458 -197q-290 0 -461.5 197t-171.5 530zM223 707q0 -276 136 -438.5t368 -162.5q229 0 364.5 163t135.5 438t-135.5 437.5t-364.5 162.5q-232 0 -368 -162.5t-136 -437.5zM387 1778h188l216 -242 h-129z" />
<glyph unicode="&#xd3;" horiz-adv-x="1449" d="M94 707q0 333 171.5 530t461.5 197q287 0 458 -197t171 -530t-171 -530t-458 -197q-290 0 -461.5 197t-171.5 530zM223 707q0 -276 136 -438.5t368 -162.5q229 0 364.5 163t135.5 438t-135.5 437.5t-364.5 162.5q-232 0 -368 -162.5t-136 -437.5zM672 1538l217 240h186 l-295 -240h-108z" />
<glyph unicode="&#xd4;" horiz-adv-x="1449" d="M94 707q0 333 171.5 530t461.5 197q287 0 458 -197t171 -530t-171 -530t-458 -197q-290 0 -461.5 197t-171.5 530zM223 707q0 -276 136 -438.5t368 -162.5q229 0 364.5 163t135.5 438t-135.5 437.5t-364.5 162.5q-232 0 -368 -162.5t-136 -437.5zM457 1507l258 271h22 l260 -271h-116l-154 162l-152 -162h-118z" />
<glyph unicode="&#xd5;" horiz-adv-x="1449" d="M94 707q0 333 171.5 530t461.5 197q287 0 458 -197t171 -530t-171 -530t-458 -197q-290 0 -461.5 197t-171.5 530zM223 707q0 -276 136 -438.5t368 -162.5q229 0 364.5 163t135.5 438t-135.5 437.5t-364.5 162.5q-232 0 -368 -162.5t-136 -437.5zM379 1554 q0 101 43 162.5t137 61.5q47 0 87 -16.5t68 -40t53 -47t54 -40t60 -16.5q102 0 102 160h90q0 -118 -51.5 -180t-142.5 -62q-55 0 -102 24t-75.5 53t-66 53t-74.5 24q-53 0 -77.5 -40t-22.5 -96h-82z" />
<glyph unicode="&#xd6;" horiz-adv-x="1449" d="M94 707q0 333 171.5 530t461.5 197q287 0 458 -197t171 -530t-171 -530t-458 -197q-290 0 -461.5 197t-171.5 530zM223 707q0 -276 136 -438.5t368 -162.5q229 0 364.5 163t135.5 438t-135.5 437.5t-364.5 162.5q-232 0 -368 -162.5t-136 -437.5zM496 1587v191h151v-191 h-151zM805 1587v191h151v-191h-151z" />
<glyph unicode="&#xd7;" horiz-adv-x="1210" d="M197 834l86 84l323 -324l316 313l84 -84l-316 -313l324 -326l-84 -84l-326 324l-315 -315l-84 84l315 315z" />
<glyph unicode="&#xd8;" horiz-adv-x="1449" d="M84 143l119 119q-109 185 -109 445q0 333 171.5 530t461.5 197q140 0 256 -50t199 -143l104 105l82 -76l-121 -121q109 -182 109 -442q0 -333 -171 -530t-458 -197t-457 192l-106 -106zM223 707q0 -203 76 -349l788 789q-135 160 -360 160q-232 0 -368 -162.5 t-136 -437.5zM362 264q139 -158 365 -158q229 0 364.5 163t135.5 438q0 200 -76 346z" />
<glyph unicode="&#xd9;" horiz-adv-x="1323" d="M180 487v926h135v-932q0 -177 93 -278t256 -101q160 0 252 101t92 278v932h135v-915q0 -243 -129 -380.5t-350 -137.5q-224 0 -354 134.5t-130 372.5zM322 1778h188l215 -242h-129z" />
<glyph unicode="&#xda;" horiz-adv-x="1323" d="M180 487v926h135v-932q0 -177 93 -278t256 -101q160 0 252 101t92 278v932h135v-915q0 -243 -129 -380.5t-350 -137.5q-224 0 -354 134.5t-130 372.5zM606 1538l217 240h187l-295 -240h-109z" />
<glyph unicode="&#xdb;" horiz-adv-x="1323" d="M180 487v926h135v-932q0 -177 93 -278t256 -101q160 0 252 101t92 278v932h135v-915q0 -243 -129 -380.5t-350 -137.5q-224 0 -354 134.5t-130 372.5zM391 1507l258 271h23l260 -271h-117l-153 162l-152 -162h-119z" />
<glyph unicode="&#xdc;" horiz-adv-x="1323" d="M180 487v926h135v-932q0 -177 93 -278t256 -101q160 0 252 101t92 278v932h135v-915q0 -243 -129 -380.5t-350 -137.5q-224 0 -354 134.5t-130 372.5zM430 1587v191h152v-191h-152zM739 1587v191h152v-191h-152z" />
<glyph unicode="&#xdd;" horiz-adv-x="1325" d="M10 1413h162l485 -739l496 739h162l-586 -860v-553h-137v553zM608 1538l217 240h187l-295 -240h-109z" />
<glyph unicode="&#xde;" horiz-adv-x="1181" d="M205 0v1413h143v-215h314q212 0 335 -101t123 -276q0 -182 -121 -280.5t-337 -98.5h-314v-442h-143zM348 569h314q153 0 234 63t81 185q0 121 -82 187.5t-233 66.5h-314v-502z" />
<glyph unicode="&#xdf;" horiz-adv-x="1118" d="M172 0v1073q0 164 110.5 262.5t272.5 98.5q105 0 194 -35t145 -104.5t56 -159.5q0 -50 -24 -94.5t-58 -76.5t-67.5 -61.5t-57.5 -63t-24 -67.5q0 -48 32.5 -89.5t78.5 -76.5t92.5 -73.5t79 -98.5t32.5 -135q0 -138 -94 -227.5t-235 -89.5q-87 0 -203 38v136 q113 -52 200 -52q83 0 140 53.5t57 145.5q0 42 -17 77.5t-44 62.5t-59.5 52.5t-65.5 52.5t-60 58t-44 74.5t-17 95.5q0 48 23 89t56 69.5t65.5 56.5t55.5 64.5t23 79.5q0 85 -66.5 136.5t-173.5 51.5q-127 0 -197.5 -69.5t-70.5 -184.5v-1069h-135z" />
<glyph unicode="&#xe0;" horiz-adv-x="1067" d="M98 283q0 183 183 272q124 61 530 166v18q0 112 -63 160.5t-191 48.5q-120 0 -201 -40.5t-135 -121.5l-102 70q144 213 422 213q176 0 284.5 -81t108.5 -230v-758h-123v178q-97 -106 -188.5 -153.5t-192.5 -47.5q-143 0 -237.5 84.5t-94.5 221.5zM205 1413h188l215 -242 h-129zM236 283q0 -87 63.5 -139t153.5 -52q171 0 358 217v297q-353 -92 -461 -153q-114 -64 -114 -170z" />
<glyph unicode="&#xe1;" horiz-adv-x="1067" d="M98 283q0 183 183 272q124 61 530 166v18q0 112 -63 160.5t-191 48.5q-120 0 -201 -40.5t-135 -121.5l-102 70q144 213 422 213q176 0 284.5 -81t108.5 -230v-758h-123v178q-97 -106 -188.5 -153.5t-192.5 -47.5q-143 0 -237.5 84.5t-94.5 221.5zM236 283 q0 -87 63.5 -139t153.5 -52q171 0 358 217v297q-353 -92 -461 -153q-114 -64 -114 -170zM489 1174l218 239h186l-295 -239h-109z" />
<glyph unicode="&#xe2;" horiz-adv-x="1067" d="M98 283q0 183 183 272q124 61 530 166v18q0 112 -63 160.5t-191 48.5q-120 0 -201 -40.5t-135 -121.5l-102 70q144 213 422 213q176 0 284.5 -81t108.5 -230v-758h-123v178q-97 -106 -188.5 -153.5t-192.5 -47.5q-143 0 -237.5 84.5t-94.5 221.5zM236 283 q0 -87 63.5 -139t153.5 -52q171 0 358 217v297q-353 -92 -461 -153q-114 -64 -114 -170zM274 1143l258 270h23l260 -270h-117l-153 162l-152 -162h-119z" />
<glyph unicode="&#xe3;" horiz-adv-x="1067" d="M98 283q0 183 183 272q124 61 530 166v18q0 112 -63 160.5t-191 48.5q-120 0 -201 -40.5t-135 -121.5l-102 70q144 213 422 213q176 0 284.5 -81t108.5 -230v-758h-123v178q-97 -106 -188.5 -153.5t-192.5 -47.5q-143 0 -237.5 84.5t-94.5 221.5zM197 1190q0 101 43 162 t137 61q47 0 87 -16.5t67.5 -40t52.5 -47t54 -40t60 -16.5q53 0 78 43.5t25 116.5h90q0 -118 -52 -180t-143 -62q-45 0 -83.5 16t-66 38.5t-53 45t-54.5 38.5t-60 16q-53 0 -77.5 -39.5t-22.5 -95.5h-82zM236 283q0 -87 63.5 -139t153.5 -52q171 0 358 217v297 q-353 -92 -461 -153q-114 -64 -114 -170z" />
<glyph unicode="&#xe4;" horiz-adv-x="1067" d="M98 283q0 183 183 272q124 61 530 166v18q0 112 -63 160.5t-191 48.5q-120 0 -201 -40.5t-135 -121.5l-102 70q144 213 422 213q176 0 284.5 -81t108.5 -230v-758h-123v178q-97 -106 -188.5 -153.5t-192.5 -47.5q-143 0 -237.5 84.5t-94.5 221.5zM236 283 q0 -87 63.5 -139t153.5 -52q171 0 358 217v297q-353 -92 -461 -153q-114 -64 -114 -170zM313 1223v190h152v-190h-152zM623 1223v190h151v-190h-151z" />
<glyph unicode="&#xe5;" horiz-adv-x="1067" d="M98 283q0 183 183 272q124 61 530 166v18q0 112 -63 160.5t-191 48.5q-120 0 -201 -40.5t-135 -121.5l-102 70q144 213 422 213q176 0 284.5 -81t108.5 -230v-758h-123v178q-97 -106 -188.5 -153.5t-192.5 -47.5q-143 0 -237.5 84.5t-94.5 221.5zM236 283 q0 -87 63.5 -139t153.5 -52q171 0 358 217v297q-353 -92 -461 -153q-114 -64 -114 -170zM350 1319q0 79 56.5 134.5t136.5 55.5q79 0 135.5 -54.5t56.5 -135.5q0 -80 -56.5 -137.5t-135.5 -57.5q-82 0 -137.5 56.5t-55.5 138.5zM434 1317q0 -49 31 -79t78 -30q45 0 77.5 32 t32.5 77q0 46 -31.5 78t-78.5 32q-50 0 -79.5 -29.5t-29.5 -80.5z" />
<glyph unicode="&#xe6;" horiz-adv-x="1826" d="M98 283q0 183 183 272q159 76 530 127v57q0 111 -63 160t-187 49q-102 0 -189.5 -41.5t-140.5 -118.5l-104 70q74 102 186 155.5t244 53.5q121 0 215.5 -47t134.5 -135q123 184 381 184q106 0 188 -34t130 -86.5t78.5 -125.5t41.5 -142.5t11 -145.5q0 -46 -2 -64h-795 q6 -76 29.5 -140t67 -118t115.5 -84.5t167 -30.5q178 0 305 103l70 -86q-160 -135 -373 -135q-333 0 -457 266q-62 -129 -174 -199t-246 -70q-158 0 -252 83t-94 223zM236 279q0 -85 63 -131t162 -46q46 0 91 10t92 36.5t82.5 66.5t59 105.5t25.5 148.5q-2 20 -2 57 q0 29 2 43q-342 -52 -461 -116q-114 -61 -114 -174zM936 582h680q-8 174 -92 271t-242 97q-91 0 -159 -31t-106.5 -85t-58 -116t-22.5 -136z" />
<glyph unicode="&#xe7;" horiz-adv-x="1007" d="M90 522q0 150 50 272t156 198.5t253 76.5q142 0 247.5 -70.5t149.5 -195.5l-112 -47q-26 92 -103.5 146t-181.5 54q-71 0 -128.5 -26.5t-94.5 -70t-61.5 -101t-35 -116.5t-10.5 -120q0 -78 17.5 -150.5t54.5 -137t103.5 -103.5t154.5 -39q107 0 184.5 55.5t104.5 141.5 l108 -41q-38 -109 -120.5 -177t-196.5 -87l-66 -117l49 -17q66 -23 104 -66.5t38 -105.5q0 -86 -55 -132t-128 -46q-64 0 -110 34t-68 87l78 43q7 -32 33 -55t65 -23q43 0 68 25t25 61t-25 68.5t-72 46.5l-110 37l80 153q-108 3 -194.5 48.5t-140 121t-82 171.5t-28.5 204z " />
<glyph unicode="&#xe8;" horiz-adv-x="1107" d="M90 526q0 82 15 158t51 147t90 123t137 83.5t186 31.5q106 0 188 -34t130 -86.5t78.5 -125.5t41.5 -142.5t11 -145.5q0 -46 -2 -64h-795q6 -76 29.5 -140t67 -118t115.5 -84.5t167 -30.5q178 0 305 103l70 -86q-160 -135 -373 -135q-110 0 -198 30.5t-145.5 82.5 t-96.5 123t-55.5 148t-16.5 162zM217 582h680q-8 174 -92 271t-242 97q-91 0 -159 -31t-106.5 -85t-58 -116t-22.5 -136zM225 1413h189l215 -242h-129z" />
<glyph unicode="&#xe9;" horiz-adv-x="1107" d="M90 526q0 82 15 158t51 147t90 123t137 83.5t186 31.5q106 0 188 -34t130 -86.5t78.5 -125.5t41.5 -142.5t11 -145.5q0 -46 -2 -64h-795q6 -76 29.5 -140t67 -118t115.5 -84.5t167 -30.5q178 0 305 103l70 -86q-160 -135 -373 -135q-110 0 -198 30.5t-145.5 82.5 t-96.5 123t-55.5 148t-16.5 162zM217 582h680q-8 174 -92 271t-242 97q-91 0 -159 -31t-106.5 -85t-58 -116t-22.5 -136zM510 1174l217 239h186l-295 -239h-108z" />
<glyph unicode="&#xea;" horiz-adv-x="1107" d="M90 526q0 82 15 158t51 147t90 123t137 83.5t186 31.5q106 0 188 -34t130 -86.5t78.5 -125.5t41.5 -142.5t11 -145.5q0 -46 -2 -64h-795q6 -76 29.5 -140t67 -118t115.5 -84.5t167 -30.5q178 0 305 103l70 -86q-160 -135 -373 -135q-110 0 -198 30.5t-145.5 82.5 t-96.5 123t-55.5 148t-16.5 162zM217 582h680q-8 174 -92 271t-242 97q-91 0 -159 -31t-106.5 -85t-58 -116t-22.5 -136zM295 1143l258 270h22l261 -270h-117l-154 162l-151 -162h-119z" />
<glyph unicode="&#xeb;" horiz-adv-x="1107" d="M90 526q0 82 15 158t51 147t90 123t137 83.5t186 31.5q106 0 188 -34t130 -86.5t78.5 -125.5t41.5 -142.5t11 -145.5q0 -46 -2 -64h-795q6 -76 29.5 -140t67 -118t115.5 -84.5t167 -30.5q178 0 305 103l70 -86q-160 -135 -373 -135q-110 0 -198 30.5t-145.5 82.5 t-96.5 123t-55.5 148t-16.5 162zM217 582h680q-8 174 -92 271t-242 97q-91 0 -159 -31t-106.5 -85t-58 -116t-22.5 -136zM334 1223v190h151v-190h-151zM643 1223v190h152v-190h-152z" />
<glyph unicode="&#xec;" horiz-adv-x="481" d="M-100 1413h188l215 -242h-129zM178 0v1049h125v-1049h-125z" />
<glyph unicode="&#xed;" horiz-adv-x="481" d="M178 0v1049h125v-1049h-125zM184 1174l217 239h187l-295 -239h-109z" />
<glyph unicode="&#xee;" horiz-adv-x="481" d="M-31 1143l258 270h23l260 -270h-117l-153 162l-152 -162h-119zM178 0v1049h125v-1049h-125z" />
<glyph unicode="&#xef;" horiz-adv-x="481" d="M8 1223v190h152v-190h-152zM178 0v1049h125v-1049h-125zM317 1223v190h152v-190h-152z" />
<glyph unicode="&#xf0;" horiz-adv-x="1118" d="M88 516q0 84 20 163t60 146t95.5 117t132 78.5t163.5 28.5q82 0 160.5 -35.5t109.5 -85.5q-23 127 -97 212.5t-200 155.5l-92 -143l-69 43l92 137q-62 30 -174 80l51 103q110 -39 190 -80l82 123l66 -39l-78 -121q240 -135 333 -339t93 -544q0 -106 -31.5 -201.5 t-89.5 -169.5t-147.5 -117.5t-198.5 -43.5q-88 0 -164 28.5t-131.5 78t-95.5 116.5t-60 146t-20 163zM221 516q0 -80 20 -151t59.5 -129t106 -92.5t152.5 -34.5t152.5 34.5t105.5 93t58.5 129t19.5 150.5q0 82 -20.5 154t-60.5 129.5t-105.5 91t-149.5 33.5 q-86 0 -152.5 -34.5t-106 -93t-59.5 -129.5t-20 -151z" />
<glyph unicode="&#xf1;" d="M190 0v1049h129v-162h9q49 85 125.5 133.5t175.5 48.5q162 0 255 -105t93 -284v-680h-127v668q0 147 -57 213.5t-166 66.5q-136 0 -223 -92t-87 -240v-616h-127zM209 1194q0 101 43 162t137 61q47 0 87 -16.5t68 -40t53 -47t54 -40t60 -16.5q102 0 102 160h90 q0 -118 -51.5 -179.5t-142.5 -61.5q-55 0 -102 24t-75.5 52.5t-66 52.5t-74.5 24q-53 0 -77.5 -39.5t-22.5 -95.5h-82z" />
<glyph unicode="&#xf2;" horiz-adv-x="1148" d="M90 520q0 261 132 405t351 144q217 0 351.5 -144.5t134.5 -404.5q0 -256 -134.5 -399.5t-351.5 -143.5q-219 0 -351 143t-132 400zM215 520q0 -209 95.5 -316.5t264.5 -107.5q170 0 266.5 107.5t96.5 316.5q0 213 -96.5 322.5t-266.5 109.5q-169 0 -264.5 -109.5 t-95.5 -322.5zM233 1413h189l215 -242h-129z" />
<glyph unicode="&#xf3;" horiz-adv-x="1148" d="M90 520q0 261 132 405t351 144q217 0 351.5 -144.5t134.5 -404.5q0 -256 -134.5 -399.5t-351.5 -143.5q-219 0 -351 143t-132 400zM215 520q0 -209 95.5 -316.5t264.5 -107.5q170 0 266.5 107.5t96.5 316.5q0 213 -96.5 322.5t-266.5 109.5q-169 0 -264.5 -109.5 t-95.5 -322.5zM518 1174l217 239h187l-295 -239h-109z" />
<glyph unicode="&#xf4;" horiz-adv-x="1148" d="M90 520q0 261 132 405t351 144q217 0 351.5 -144.5t134.5 -404.5q0 -256 -134.5 -399.5t-351.5 -143.5q-219 0 -351 143t-132 400zM215 520q0 -209 95.5 -316.5t264.5 -107.5q170 0 266.5 107.5t96.5 316.5q0 213 -96.5 322.5t-266.5 109.5q-169 0 -264.5 -109.5 t-95.5 -322.5zM303 1143l258 270h23l260 -270h-117l-154 162l-151 -162h-119z" />
<glyph unicode="&#xf5;" horiz-adv-x="1148" d="M90 520q0 261 132 405t351 144q217 0 351.5 -144.5t134.5 -404.5q0 -256 -134.5 -399.5t-351.5 -143.5q-219 0 -351 143t-132 400zM215 520q0 -209 95.5 -316.5t264.5 -107.5q170 0 266.5 107.5t96.5 316.5q0 213 -96.5 322.5t-266.5 109.5q-169 0 -264.5 -109.5 t-95.5 -322.5zM225 1190q0 100 43.5 161.5t137.5 61.5q47 0 87 -16.5t67.5 -40t52.5 -47t54 -40t60 -16.5q102 0 102 160h91q0 -118 -52 -180t-143 -62q-45 0 -83.5 16t-66 38.5t-53 45t-54.5 38.5t-60 16q-53 0 -78 -39.5t-23 -95.5h-82z" />
<glyph unicode="&#xf6;" horiz-adv-x="1148" d="M90 520q0 261 132 405t351 144q217 0 351.5 -144.5t134.5 -404.5q0 -256 -134.5 -399.5t-351.5 -143.5q-219 0 -351 143t-132 400zM215 520q0 -209 95.5 -316.5t264.5 -107.5q170 0 266.5 107.5t96.5 316.5q0 213 -96.5 322.5t-266.5 109.5q-169 0 -264.5 -109.5 t-95.5 -322.5zM342 1223v190h152v-190h-152zM651 1223v190h152v-190h-152z" />
<glyph unicode="&#xf7;" horiz-adv-x="1144" d="M197 457v121h751v-121h-751zM475 27v186h193v-186h-193zM475 807v184h193v-184h-193z" />
<glyph unicode="&#xf8;" horiz-adv-x="1148" d="M90 520q0 261 132 405t351 144q217 0 349 -141l45 45l57 -53l-53 -54q88 -141 88 -346q0 -256 -134.5 -399.5t-351.5 -143.5q-221 0 -350 144l-47 -47l-55 53l55 55q-86 134 -86 338zM215 520q0 -151 51 -248l574 574q-93 106 -265 106q-169 0 -264.5 -109.5 t-95.5 -322.5zM309 207q95 -111 266 -111q170 0 266.5 107.5t96.5 316.5q0 157 -53 260z" />
<glyph unicode="&#xf9;" d="M156 371v678h127v-668q0 -270 223 -270q135 0 222 90t87 231v617h127v-1049h-129v162h-16q-101 -176 -293 -176q-163 0 -255.5 102.5t-92.5 282.5zM209 1413h188l215 -242h-129z" />
<glyph unicode="&#xfa;" d="M156 371v678h127v-668q0 -270 223 -270q135 0 222 90t87 231v617h127v-1049h-129v162h-16q-101 -176 -293 -176q-163 0 -255.5 102.5t-92.5 282.5zM494 1174l217 239h186l-295 -239h-108z" />
<glyph unicode="&#xfb;" d="M156 371v678h127v-668q0 -270 223 -270q135 0 222 90t87 231v617h127v-1049h-129v162h-16q-101 -176 -293 -176q-163 0 -255.5 102.5t-92.5 282.5zM279 1143l258 270h22l260 -270h-117l-153 162l-152 -162h-118z" />
<glyph unicode="&#xfc;" d="M156 371v678h127v-668q0 -270 223 -270q135 0 222 90t87 231v617h127v-1049h-129v162h-16q-101 -176 -293 -176q-163 0 -255.5 102.5t-92.5 282.5zM317 1223v190h152v-190h-152zM627 1223v190h151v-190h-151z" />
<glyph unicode="&#xfd;" horiz-adv-x="888" d="M35 1049h137l279 -887h6l270 887h139l-377 -1108q-23 -69 -54 -121.5t-68 -85t-73 -53.5t-81 -30.5t-79.5 -12.5t-80.5 -3v111q50 0 91.5 8t71 19t55.5 32t41 37t31 46t23.5 47t20.5 50l6 15zM391 1174l217 239h187l-295 -239h-109z" />
<glyph unicode="&#xfe;" horiz-adv-x="1193" d="M190 -365v1778h127v-539h11q64 71 144.5 108.5t197.5 37.5q136 0 235.5 -70t149 -186.5t49.5 -263.5t-49.5 -263.5t-149 -186.5t-235.5 -70q-213 0 -344 145h-7v-490h-129zM305 500q0 -83 19.5 -155t58 -130t103.5 -91.5t149 -33.5q86 0 153 33.5t107 91.5t60 130t20 155 q0 82 -20 153.5t-60 129t-107 91t-153 33.5q-84 0 -149 -33t-103.5 -91t-58 -129.5t-19.5 -153.5z" />
<glyph unicode="&#xff;" horiz-adv-x="888" d="M35 1049h137l279 -887h6l270 887h139l-377 -1108q-23 -69 -54 -121.5t-68 -85t-73 -53.5t-81 -30.5t-79.5 -12.5t-80.5 -3v111q50 0 91.5 8t71 19t55.5 32t41 37t31 46t23.5 47t20.5 50l6 15zM215 1223v190h152v-190h-152zM524 1223v190h152v-190h-152z" />
<glyph unicode="&#x100;" horiz-adv-x="1140" d="M12 0l467 1413h189l465 -1413h-146l-100 322h-631l-100 -322h-144zM293 436h557l-277 883h-4zM311 1606v96h529v-96h-529z" />
<glyph unicode="&#x101;" horiz-adv-x="1067" d="M98 283q0 183 183 272q124 61 530 166v18q0 112 -63 160.5t-191 48.5q-120 0 -201 -40.5t-135 -121.5l-102 70q144 213 422 213q176 0 284.5 -81t108.5 -230v-758h-123v178q-97 -106 -188.5 -153.5t-192.5 -47.5q-143 0 -237.5 84.5t-94.5 221.5zM236 283 q0 -87 63.5 -139t153.5 -52q171 0 358 217v297q-353 -92 -461 -153q-114 -64 -114 -170zM281 1241v96h528v-96h-528z" />
<glyph unicode="&#x102;" horiz-adv-x="1140" d="M12 0l467 1413h189l465 -1413h-146l-100 322h-631l-100 -322h-144zM272 1778h117q0 -73 53.5 -121.5t132.5 -48.5q75 0 130 49t55 121h114q0 -123 -87 -197t-212 -74q-126 0 -214.5 73t-88.5 198zM293 436h557l-277 883h-4z" />
<glyph unicode="&#x103;" horiz-adv-x="1067" d="M98 283q0 183 183 272q124 61 530 166v18q0 112 -63 160.5t-191 48.5q-120 0 -201 -40.5t-135 -121.5l-102 70q144 213 422 213q176 0 284.5 -81t108.5 -230v-758h-123v178q-97 -106 -188.5 -153.5t-192.5 -47.5q-143 0 -237.5 84.5t-94.5 221.5zM236 283 q0 -87 63.5 -139t153.5 -52q171 0 358 217v297q-353 -92 -461 -153q-114 -64 -114 -170zM242 1413h116q0 -73 54 -121.5t133 -48.5q75 0 129.5 49t54.5 121h115q0 -123 -87 -196.5t-212 -73.5q-127 0 -215 72.5t-88 197.5z" />
<glyph unicode="&#x104;" horiz-adv-x="1140" d="M12 0l467 1413h189l465 -1413q-134 -102 -134 -225q0 -63 29.5 -96t75.5 -33q33 0 66 17.5t57 51.5l76 -49q-67 -108 -193 -108q-93 0 -146 54.5t-53 141.5q0 150 146 246h-70l-100 322h-631l-100 -322h-144zM293 436h557l-277 883h-4z" />
<glyph unicode="&#x105;" horiz-adv-x="1067" d="M98 283q0 183 183 272q124 61 530 166v18q0 112 -63 160.5t-191 48.5q-120 0 -201 -40.5t-135 -121.5l-102 70q144 213 422 213q176 0 284.5 -81t108.5 -230v-758q-133 -101 -133 -225q0 -63 29.5 -96t74.5 -33q33 0 66 17.5t57 51.5l76 -49q-67 -108 -193 -108 q-93 0 -145.5 54.5t-52.5 141.5q0 150 145 246h-47v178q-97 -106 -188.5 -153.5t-192.5 -47.5q-143 0 -237.5 84.5t-94.5 221.5zM236 283q0 -87 63.5 -139t153.5 -52q171 0 358 217v297q-353 -92 -461 -153q-114 -64 -114 -170z" />
<glyph unicode="&#x106;" horiz-adv-x="1347" d="M94 707q0 171 47.5 309.5t133 230t203 140.5t257.5 49q184 0 338.5 -103t212.5 -268l-110 -53q-49 136 -164.5 215.5t-278.5 79.5q-231 0 -368.5 -160.5t-137.5 -429.5q0 -277 139 -442.5t373 -165.5q148 0 266 80.5t171 213.5l110 -51q-57 -165 -211 -268.5t-338 -103.5 q-141 0 -259.5 49t-203.5 140.5t-132.5 229t-47.5 308.5zM637 1538l217 240h186l-295 -240h-108z" />
<glyph unicode="&#x107;" horiz-adv-x="1007" d="M90 522q0 150 50 272t156 198.5t253 76.5q142 0 247.5 -70.5t149.5 -195.5l-112 -47q-26 92 -103.5 146t-181.5 54q-71 0 -128.5 -26.5t-94.5 -70t-61.5 -101t-35 -116.5t-10.5 -120q0 -78 17.5 -150.5t54.5 -137t103.5 -103.5t154.5 -39q107 0 184.5 55.5t104.5 141.5 l108 -41q-44 -128 -148.5 -199.5t-246.5 -71.5q-112 0 -201 44.5t-145 120.5t-85.5 173.5t-29.5 206.5zM457 1174l217 239h186l-295 -239h-108z" />
<glyph unicode="&#x10a;" horiz-adv-x="1347" d="M94 707q0 171 47.5 309.5t133 230t203 140.5t257.5 49q184 0 338.5 -103t212.5 -268l-110 -53q-49 136 -164.5 215.5t-278.5 79.5q-231 0 -368.5 -160.5t-137.5 -429.5q0 -277 139 -442.5t373 -165.5q148 0 266 80.5t171 213.5l110 -51q-57 -165 -211 -268.5t-338 -103.5 q-141 0 -259.5 49t-203.5 140.5t-132.5 229t-47.5 308.5zM621 1593v185h141v-185h-141z" />
<glyph unicode="&#x10b;" horiz-adv-x="1007" d="M90 522q0 150 50 272t156 198.5t253 76.5q142 0 247.5 -70.5t149.5 -195.5l-112 -47q-26 92 -103.5 146t-181.5 54q-71 0 -128.5 -26.5t-94.5 -70t-61.5 -101t-35 -116.5t-10.5 -120q0 -78 17.5 -150.5t54.5 -137t103.5 -103.5t154.5 -39q107 0 184.5 55.5t104.5 141.5 l108 -41q-44 -128 -148.5 -199.5t-246.5 -71.5q-112 0 -201 44.5t-145 120.5t-85.5 173.5t-29.5 206.5zM440 1229v184h142v-184h-142z" />
<glyph unicode="&#x10c;" horiz-adv-x="1347" d="M94 707q0 171 47.5 309.5t133 230t203 140.5t257.5 49q184 0 338.5 -103t212.5 -268l-110 -53q-49 136 -164.5 215.5t-278.5 79.5q-231 0 -368.5 -160.5t-137.5 -429.5q0 -277 139 -442.5t373 -165.5q148 0 266 80.5t171 213.5l110 -51q-57 -165 -211 -268.5t-338 -103.5 q-141 0 -259.5 49t-203.5 140.5t-132.5 229t-47.5 308.5zM422 1778h119l151 -158l154 158h117l-261 -273h-22z" />
<glyph unicode="&#x10d;" horiz-adv-x="1007" d="M90 522q0 150 50 272t156 198.5t253 76.5q142 0 247.5 -70.5t149.5 -195.5l-112 -47q-26 92 -103.5 146t-181.5 54q-71 0 -128.5 -26.5t-94.5 -70t-61.5 -101t-35 -116.5t-10.5 -120q0 -78 17.5 -150.5t54.5 -137t103.5 -103.5t154.5 -39q107 0 184.5 55.5t104.5 141.5 l108 -41q-44 -128 -148.5 -199.5t-246.5 -71.5q-112 0 -201 44.5t-145 120.5t-85.5 173.5t-29.5 206.5zM242 1413h118l152 -158l154 158h116l-260 -272h-22z" />
<glyph unicode="&#x10e;" horiz-adv-x="1355" d="M205 0v1413h352q340 0 522.5 -184t182.5 -535q0 -333 -185.5 -513.5t-521.5 -180.5h-350zM340 127h190q300 0 446 143t146 437t-140.5 437.5t-428.5 143.5h-213v-1161zM465 1778h119l151 -158l154 158h117l-261 -273h-22z" />
<glyph unicode="&#x10f;" horiz-adv-x="1200" d="M90 524q0 117 26.5 213.5t80 172t143.5 117.5t209 42q117 0 200 -38t154 -107h10v489h127v-1413h-127v125h-8q-148 -148 -358 -148q-118 0 -207.5 42t-143 117.5t-80 173t-26.5 214.5zM217 524q0 -204 90 -317t271 -113q161 0 253.5 115.5t92.5 314.5q0 194 -93 309 t-253 115q-181 0 -271 -112t-90 -312zM1157 973l74 270h-62v170h164v-170l-100 -270h-76z" />
<glyph unicode="&#x110;" horiz-adv-x="1327" d="M27 657v111h149v645h352q340 0 522.5 -184t182.5 -535q0 -333 -185.5 -513.5t-521.5 -180.5h-350v657h-149zM311 127h191q300 0 446 143t146 437t-141 437.5t-429 143.5h-213v-520h375v-111h-375v-530z" />
<glyph unicode="&#x111;" horiz-adv-x="1230" d="M90 524q0 117 26.5 213.5t80 172t143.5 117.5t209 42q117 0 200 -38t154 -107h10v290h-303v82h303v117h127v-117h205v-82h-205v-1214h-127v125h-8q-148 -148 -358 -148q-118 0 -207.5 42t-143 117.5t-80 173t-26.5 214.5zM217 524q0 -204 90 -317t271 -113 q161 0 253.5 115.5t92.5 314.5q0 194 -93 309t-253 115q-181 0 -271 -112t-90 -312z" />
<glyph unicode="&#x112;" horiz-adv-x="1224" d="M205 0v1413h909v-123h-774v-522h676v-123h-676v-522h774v-123h-909zM397 1606v96h529v-96h-529z" />
<glyph unicode="&#x113;" horiz-adv-x="1107" d="M90 526q0 82 15 158t51 147t90 123t137 83.5t186 31.5q106 0 188 -34t130 -86.5t78.5 -125.5t41.5 -142.5t11 -145.5q0 -46 -2 -64h-795q6 -76 29.5 -140t67 -118t115.5 -84.5t167 -30.5q178 0 305 103l70 -86q-160 -135 -373 -135q-110 0 -198 30.5t-145.5 82.5 t-96.5 123t-55.5 148t-16.5 162zM217 582h680q-8 174 -92 271t-242 97q-91 0 -159 -31t-106.5 -85t-58 -116t-22.5 -136zM301 1241v96h528v-96h-528z" />
<glyph unicode="&#x116;" horiz-adv-x="1224" d="M205 0v1413h909v-123h-774v-522h676v-123h-676v-522h774v-123h-909zM590 1593v185h141v-185h-141z" />
<glyph unicode="&#x117;" horiz-adv-x="1107" d="M90 526q0 82 15 158t51 147t90 123t137 83.5t186 31.5q106 0 188 -34t130 -86.5t78.5 -125.5t41.5 -142.5t11 -145.5q0 -46 -2 -64h-795q6 -76 29.5 -140t67 -118t115.5 -84.5t167 -30.5q178 0 305 103l70 -86q-160 -135 -373 -135q-110 0 -198 30.5t-145.5 82.5 t-96.5 123t-55.5 148t-16.5 162zM217 582h680q-8 174 -92 271t-242 97q-91 0 -159 -31t-106.5 -85t-58 -116t-22.5 -136zM494 1229v184h141v-184h-141z" />
<glyph unicode="&#x118;" horiz-adv-x="1224" d="M205 0v1413h909v-123h-774v-522h676v-123h-676v-522h774v-123q-133 -101 -133 -225q0 -63 29.5 -96t74.5 -33q33 0 66 17.5t57 51.5l76 -49q-67 -108 -192 -108q-93 0 -146 54.5t-53 141.5q0 150 145 246h-833z" />
<glyph unicode="&#x119;" horiz-adv-x="1107" d="M90 526q0 82 15 158t51 147t90 123t137 83.5t186 31.5q106 0 188 -34t130 -86.5t78.5 -125.5t41.5 -142.5t11 -145.5q0 -46 -2 -64h-795q6 -76 29.5 -140t67 -118t115.5 -84.5t167 -30.5q178 0 305 103l70 -86q-12 -12 -27 -21q-106 -90 -106 -205q0 -63 29.5 -96 t74.5 -33q32 0 65.5 18t57.5 52l76 -49q-68 -109 -193 -109q-93 0 -145.5 55t-52.5 142q0 77 41 141q-86 -30 -193 -30q-110 0 -198 30.5t-145.5 82.5t-96.5 123t-55.5 148t-16.5 162zM217 582h680q-8 174 -92 271t-242 97q-91 0 -159 -31t-106.5 -85t-58 -116t-22.5 -136z " />
<glyph unicode="&#x11a;" horiz-adv-x="1224" d="M205 0v1413h909v-123h-774v-522h676v-123h-676v-522h774v-123h-909zM391 1778h119l152 -158l153 158h117l-260 -273h-23z" />
<glyph unicode="&#x11b;" horiz-adv-x="1107" d="M90 526q0 82 15 158t51 147t90 123t137 83.5t186 31.5q106 0 188 -34t130 -86.5t78.5 -125.5t41.5 -142.5t11 -145.5q0 -46 -2 -64h-795q6 -76 29.5 -140t67 -118t115.5 -84.5t167 -30.5q178 0 305 103l70 -86q-160 -135 -373 -135q-110 0 -198 30.5t-145.5 82.5 t-96.5 123t-55.5 148t-16.5 162zM217 582h680q-8 174 -92 271t-242 97q-91 0 -159 -31t-106.5 -85t-58 -116t-22.5 -136zM295 1413h119l151 -158l154 158h117l-261 -272h-22z" />
<glyph unicode="&#x11e;" horiz-adv-x="1497" d="M94 711q0 118 24 224.5t75 198.5t124.5 159t178.5 105t231 38q394 0 569 -371l-125 -51q-75 150 -185.5 219.5t-260.5 69.5q-127 0 -224.5 -47t-156 -129t-88 -185.5t-29.5 -224.5q0 -99 18.5 -187.5t58 -165.5t96 -133t137.5 -88t178 -32q198 0 330 124t145 353h-328 v117h455v-705h-109l-4 266q-25 -53 -67 -101.5t-102 -91t-143.5 -68t-178.5 -25.5q-147 0 -266 57.5t-195.5 157t-117 232t-40.5 284.5zM424 1778h117q0 -73 53.5 -121.5t132.5 -48.5q75 0 129.5 49t54.5 121h115q0 -123 -87 -197t-212 -74q-126 0 -214.5 73t-88.5 198z" />
<glyph unicode="&#x11f;" horiz-adv-x="1232" d="M90 543q0 108 27.5 200.5t83.5 166.5t151.5 116.5t220.5 42.5q214 0 326 -143h14v123h129v-1049q0 -174 -121.5 -279.5t-345.5 -105.5q-110 0 -204 25.5t-161.5 79.5t-86.5 128l100 43q16 -44 54.5 -77.5t89.5 -52.5t105 -28t110 -9q159 0 246 77t87 199v170 q-128 -162 -360 -162q-95 0 -173 29t-131.5 78.5t-90 118t-53.5 146t-17 163.5zM219 539q0 -86 20.5 -159t62.5 -132.5t114 -93t168 -33.5q92 0 160 30t108 85.5t59 126t19 157.5q0 69 -11.5 130.5t-38 119t-66.5 98.5t-102 65.5t-139 24.5q-73 0 -132.5 -22t-100.5 -60 t-68.5 -91.5t-40 -114.5t-12.5 -131zM264 1413h117q0 -73 53.5 -121.5t132.5 -48.5q75 0 130 49t55 121h114q0 -123 -87 -196.5t-212 -73.5q-127 0 -215 72.5t-88 197.5z" />
<glyph unicode="&#x120;" horiz-adv-x="1497" d="M94 711q0 118 24 224.5t75 198.5t124.5 159t178.5 105t231 38q394 0 569 -371l-125 -51q-75 150 -185.5 219.5t-260.5 69.5q-127 0 -224.5 -47t-156 -129t-88 -185.5t-29.5 -224.5q0 -99 18.5 -187.5t58 -165.5t96 -133t137.5 -88t178 -32q198 0 330 124t145 353h-328 v117h455v-705h-109l-4 266q-25 -53 -67 -101.5t-102 -91t-143.5 -68t-178.5 -25.5q-147 0 -266 57.5t-195.5 157t-117 232t-40.5 284.5zM655 1593v185h142v-185h-142z" />
<glyph unicode="&#x121;" horiz-adv-x="1232" d="M90 543q0 108 27.5 200.5t83.5 166.5t151.5 116.5t220.5 42.5q214 0 326 -143h14v123h129v-1049q0 -174 -121.5 -279.5t-345.5 -105.5q-110 0 -204 25.5t-161.5 79.5t-86.5 128l100 43q16 -44 54.5 -77.5t89.5 -52.5t105 -28t110 -9q159 0 246 77t87 199v170 q-128 -162 -360 -162q-95 0 -173 29t-131.5 78.5t-90 118t-53.5 146t-17 163.5zM219 539q0 -86 20.5 -159t62.5 -132.5t114 -93t168 -33.5q92 0 160 30t108 85.5t59 126t19 157.5q0 69 -11.5 130.5t-38 119t-66.5 98.5t-102 65.5t-139 24.5q-73 0 -132.5 -22t-100.5 -60 t-68.5 -91.5t-40 -114.5t-12.5 -131zM496 1229v184h141v-184h-141z" />
<glyph unicode="&#x122;" horiz-adv-x="1497" d="M94 711q0 118 24 224.5t75 198.5t124.5 159t178.5 105t231 38q394 0 569 -371l-125 -51q-75 150 -185.5 219.5t-260.5 69.5q-127 0 -224.5 -47t-156 -129t-88 -185.5t-29.5 -224.5q0 -99 18.5 -187.5t58 -165.5t96 -133t137.5 -88t178 -32q198 0 330 124t145 353h-328 v117h455v-705h-109l-4 266q-25 -53 -67 -101.5t-102 -91t-143.5 -68t-178.5 -25.5q-147 0 -266 57.5t-195.5 157t-117 232t-40.5 284.5zM545 -446l119 303h182l-215 -303h-86z" />
<glyph unicode="&#x123;" horiz-adv-x="1220" d="M90 543q0 108 27.5 200.5t83.5 166.5t151.5 116.5t220.5 42.5q214 0 326 -143h14v123h129v-1049q0 -174 -121.5 -279.5t-345.5 -105.5q-110 0 -204 25.5t-161.5 79.5t-86.5 128l100 43q16 -44 54.5 -77.5t89.5 -52.5t105 -28t110 -9q159 0 246 77t87 199v170 q-128 -162 -360 -162q-95 0 -173 29t-131.5 78.5t-90 118t-53.5 146t-17 163.5zM219 539q0 -86 20.5 -159t62.5 -132.5t114 -93t168 -33.5q92 0 160 30t108 85.5t59 126t19 157.5q0 69 -11.5 130.5t-38 119t-66.5 98.5t-102 65.5t-139 24.5q-73 0 -132.5 -22t-100.5 -60 t-68.5 -91.5t-40 -114.5t-12.5 -131zM434 1143l215 270h86l-119 -270h-182z" />
<glyph unicode="&#x126;" horiz-adv-x="1417" d="M102 1063v102h103v248h135v-248h737v248h135v-248h103v-102h-103v-1063h-135v647h-737v-647h-135v1063h-103zM340 766h737v297h-737v-297z" />
<glyph unicode="&#x127;" d="M0 1182v82h190v149h127v-149h318v-82h-318v-295h13q105 182 303 182q158 0 251 -104.5t93 -284.5v-680h-127v668q0 278 -232 278q-129 0 -215 -94.5t-86 -235.5v-616h-127v1182h-190z" />
<glyph unicode="&#x128;" horiz-adv-x="544" d="M-74 1554q0 101 43 162.5t137 61.5q47 0 87 -16.5t68 -40t53 -47t54 -40t60 -16.5q102 0 102 160h91q0 -118 -52 -180t-143 -62q-45 0 -83.5 16t-66 38.5t-53 45t-54.5 38.5t-60 16q-53 0 -78 -40t-23 -96h-82zM205 0v1413h135v-1413h-135z" />
<glyph unicode="&#x129;" horiz-adv-x="481" d="M-109 1190q0 100 43.5 161.5t137.5 61.5q47 0 87 -16.5t67.5 -40t52.5 -47t54 -40t60 -16.5q53 0 78 43.5t25 116.5h90q0 -118 -52 -180t-143 -62q-45 0 -83.5 16t-66 38.5t-53 45t-54.5 38.5t-60 16q-53 0 -78 -39.5t-23 -95.5h-82zM178 0v1049h125v-1049h-125z" />
<glyph unicode="&#x12a;" horiz-adv-x="544" d="M10 1606v96h529v-96h-529zM205 0v1413h135v-1413h-135z" />
<glyph unicode="&#x12b;" horiz-adv-x="481" d="M-25 1241v96h529v-96h-529zM178 0v1049h125v-1049h-125z" />
<glyph unicode="&#x12e;" horiz-adv-x="544" d="M119 -246q0 150 145 246h-59v1413h135v-1413q-133 -101 -133 -225q0 -63 29.5 -96t74.5 -33q33 0 66 17.5t57 51.5l76 -49q-67 -108 -193 -108q-93 0 -145.5 54.5t-52.5 141.5z" />
<glyph unicode="&#x12f;" horiz-adv-x="507" d="M86 -246q0 150 145 246h-41v1049h127v-1049h-10q-133 -101 -133 -225q0 -63 29.5 -96t75.5 -33q32 0 65 17.5t57 51.5l76 -49q-67 -108 -192 -108q-93 0 -146 54.5t-53 141.5zM190 1223v190h127v-190h-127z" />
<glyph unicode="&#x130;" horiz-adv-x="544" d="M203 1593v185h141v-185h-141zM205 0v1413h135v-1413h-135z" />
<glyph unicode="&#x131;" horiz-adv-x="481" d="M178 0v1049h125v-1049h-125z" />
<glyph unicode="&#x136;" horiz-adv-x="1214" d="M205 0v1413h135v-674l616 674h168l-522 -561l602 -852h-178l-510 760l-176 -189v-571h-135zM473 -446l119 303h182l-215 -303h-86z" />
<glyph unicode="&#x137;" horiz-adv-x="1019" d="M190 0v1413h127v-835l488 471h160l-443 -431l516 -618h-166l-436 535l-119 -115v-420h-127zM385 -446l119 303h182l-215 -303h-86z" />
<glyph unicode="&#x138;" horiz-adv-x="1007" d="M178 0v1049h127v-471l488 471h159l-442 -431l516 -618h-166l-436 535l-119 -115v-420h-127z" />
<glyph unicode="&#x139;" horiz-adv-x="964" d="M205 0v1413h135v-1290h604v-123h-739zM244 1538l217 240h186l-295 -240h-108z" />
<glyph unicode="&#x13a;" horiz-adv-x="483" d="M178 0v1413h127v-1413h-127zM186 1538l217 240h187l-295 -240h-109z" />
<glyph unicode="&#x13b;" horiz-adv-x="964" d="M205 0v1413h135v-1290h604v-123h-739zM285 -446l118 303h183l-215 -303h-86z" />
<glyph unicode="&#x13c;" horiz-adv-x="483" d="M31 -446l119 303h182l-215 -303h-86zM178 0v1413h127v-1413h-127z" />
<glyph unicode="&#x13d;" horiz-adv-x="964" d="M205 0v1413h135v-1290h604v-123h-739zM739 903l84 314h-69v196h190v-196l-117 -314h-88z" />
<glyph unicode="&#x13e;" horiz-adv-x="585" d="M178 0v1413h127v-1413h-127zM440 903l84 314h-69v196h190v-196l-117 -314h-88z" />
<glyph unicode="&#x141;" horiz-adv-x="964" d="M-2 381v131l207 154v747h135v-647l203 149v-133l-203 -149v-510h604v-123h-739v532z" />
<glyph unicode="&#x142;" horiz-adv-x="483" d="M-31 459v131l209 155v668h127v-575l209 155v-133l-209 -153v-707h-127v612z" />
<glyph unicode="&#x143;" horiz-adv-x="1478" d="M205 0v1413h211l712 -1272h11v1272h135v-1413h-215l-713 1286h-6v-1286h-135zM686 1538l217 240h187l-295 -240h-109z" />
<glyph unicode="&#x144;" d="M190 0v1049h129v-162h9q49 85 125.5 133.5t175.5 48.5q162 0 255 -105t93 -284v-680h-127v668q0 147 -57 213.5t-166 66.5q-136 0 -223 -92t-87 -240v-616h-127zM502 1178l217 239h186l-295 -239h-108z" />
<glyph unicode="&#x145;" horiz-adv-x="1478" d="M205 0v1413h211l712 -1272h11v1272h135v-1413h-215l-713 1286h-6v-1286h-135zM530 -446l119 303h182l-215 -303h-86z" />
<glyph unicode="&#x146;" d="M190 0v1049h129v-162h9q49 85 125.5 133.5t175.5 48.5q162 0 255 -105t93 -284v-680h-127v668q0 147 -57 213.5t-166 66.5q-136 0 -223 -92t-87 -240v-616h-127zM373 -446l119 303h182l-215 -303h-86z" />
<glyph unicode="&#x147;" horiz-adv-x="1478" d="M205 0v1413h211l712 -1272h11v1272h135v-1413h-215l-713 1286h-6v-1286h-135zM471 1778h119l151 -158l154 158h117l-260 -273h-23z" />
<glyph unicode="&#x148;" d="M190 0v1049h129v-162h9q49 85 125.5 133.5t175.5 48.5q162 0 255 -105t93 -284v-680h-127v668q0 147 -57 213.5t-166 66.5q-136 0 -223 -92t-87 -240v-616h-127zM287 1417h119l151 -157l154 157h116l-260 -272h-22z" />
<glyph unicode="&#x14a;" horiz-adv-x="1478" d="M205 0v1413h211l712 -1272h11v1272h135v-1413q0 -101 -7 -136q-24 -110 -143 -140q-50 -13 -118 -13h-78v109h76q23 0 42 4t33 8.5t25 15t18 17t12 22t7.5 22.5t4 25t1.5 22.5v23.5v20h-88l-713 1286h-6v-1286h-135z" />
<glyph unicode="&#x14b;" horiz-adv-x="1112" d="M168 0v999h135v-165h12q51 89 132.5 135.5t183.5 46.5q85 0 148.5 -32t101 -89t55.5 -128.5t18 -156.5v-641q0 -258 -258 -258h-78v99h33q42 0 73.5 9.5t49.5 28t29 35t15 40.5t4.5 33t0.5 24v616q0 58 -9.5 106t-32 91.5t-67 68.5t-106.5 25q-127 0 -218 -94t-91 -226 v-567h-131z" />
<glyph unicode="&#x14c;" horiz-adv-x="1449" d="M94 707q0 333 171.5 530t461.5 197q287 0 458 -197t171 -530t-171 -530t-458 -197q-290 0 -461.5 197t-171.5 530zM223 707q0 -276 136 -438.5t368 -162.5q229 0 364.5 163t135.5 438t-135.5 437.5t-364.5 162.5q-232 0 -368 -162.5t-136 -437.5zM463 1606v96h528v-96 h-528z" />
<glyph unicode="&#x14d;" horiz-adv-x="1148" d="M90 520q0 261 132 405t351 144q217 0 351.5 -144.5t134.5 -404.5q0 -256 -134.5 -399.5t-351.5 -143.5q-219 0 -351 143t-132 400zM215 520q0 -209 95.5 -316.5t264.5 -107.5q170 0 266.5 107.5t96.5 316.5q0 213 -96.5 322.5t-266.5 109.5q-169 0 -264.5 -109.5 t-95.5 -322.5zM309 1241v96h529v-96h-529z" />
<glyph unicode="&#x150;" horiz-adv-x="1449" d="M94 707q0 333 171.5 530t461.5 197q287 0 458 -197t171 -530t-171 -530t-458 -197q-290 0 -461.5 197t-171.5 530zM223 707q0 -276 136 -438.5t368 -162.5q229 0 364.5 163t135.5 438t-135.5 437.5t-364.5 162.5q-232 0 -368 -162.5t-136 -437.5zM469 1544l215 234h186 l-270 -234h-131zM799 1544l213 234h188l-272 -234h-129z" />
<glyph unicode="&#x151;" horiz-adv-x="1148" d="M90 520q0 261 132 405t351 144q217 0 351.5 -144.5t134.5 -404.5q0 -256 -134.5 -399.5t-351.5 -143.5q-219 0 -351 143t-132 400zM215 520q0 -209 95.5 -316.5t264.5 -107.5q170 0 266.5 107.5t96.5 316.5q0 213 -96.5 322.5t-266.5 109.5q-169 0 -264.5 -109.5 t-95.5 -322.5zM315 1180l215 233h187l-271 -233h-131zM645 1180l213 233h189l-273 -233h-129z" />
<glyph unicode="&#x152;" horiz-adv-x="2254" d="M94 707q0 333 171.5 530t461.5 197q165 0 295 -69t213 -196v244h909v-123h-774v-522h676v-123h-676v-522h774v-123h-909v244q-83 -127 -212.5 -195.5t-295.5 -68.5q-290 0 -461.5 197t-171.5 530zM223 707q0 -276 136 -438.5t368 -162.5q229 0 364.5 163t135.5 438 t-135.5 437.5t-364.5 162.5q-232 0 -368 -162.5t-136 -437.5z" />
<glyph unicode="&#x153;" horiz-adv-x="1957" d="M90 520q0 261 132 405t351 144q143 0 254 -65.5t170 -188.5q55 117 159.5 185.5t262.5 68.5q106 0 188 -34t130 -86.5t78.5 -125.5t41.5 -142.5t11 -145.5q0 -46 -2 -64h-795q6 -76 29.5 -140t67 -118t115.5 -84.5t167 -30.5q178 0 305 103l70 -86q-160 -135 -373 -135 q-170 0 -281.5 69t-169.5 187q-60 -125 -171 -192t-257 -67q-219 0 -351 143t-132 400zM215 520q0 -209 95.5 -316.5t264.5 -107.5q170 0 266.5 107.5t96.5 316.5q0 213 -96.5 322.5t-266.5 109.5q-169 0 -264.5 -109.5t-95.5 -322.5zM1067 582h680q-8 174 -92 271t-242 97 q-91 0 -159 -31t-106.5 -85t-58 -116t-22.5 -136z" />
<glyph unicode="&#x154;" horiz-adv-x="1323" d="M205 -2v1415h567q199 0 320.5 -105t121.5 -282q0 -145 -83 -240.5t-224 -123.5l344 -664h-151l-328 647h-432v-647h-135zM342 768h463q137 6 205.5 72t68.5 186q0 126 -79 195t-226 69h-432v-522zM580 1538l217 240h186l-295 -240h-108z" />
<glyph unicode="&#x155;" horiz-adv-x="747" d="M190 0v1049h132v-170h6q38 89 105 137.5t153 48.5q92 0 141 -18v-121q-83 20 -127 14q-136 -9 -209.5 -133t-73.5 -344v-463h-127zM403 1174l218 239h186l-295 -239h-109z" />
<glyph unicode="&#x156;" horiz-adv-x="1323" d="M205 -2v1415h567q199 0 320.5 -105t121.5 -282q0 -145 -83 -240.5t-224 -123.5l344 -664h-151l-328 647h-432v-647h-135zM342 768h463q137 6 205.5 72t68.5 186q0 126 -79 195t-226 69h-432v-522zM465 -446l119 303h182l-215 -303h-86z" />
<glyph unicode="&#x157;" horiz-adv-x="747" d="M41 -446l119 303h182l-215 -303h-86zM190 0v1049h132v-170h6q38 89 105 137.5t153 48.5q92 0 141 -18v-121q-83 20 -127 14q-136 -9 -209.5 -133t-73.5 -344v-463h-127z" />
<glyph unicode="&#x158;" horiz-adv-x="1323" d="M205 -2v1415h567q199 0 320.5 -105t121.5 -282q0 -145 -83 -240.5t-224 -123.5l344 -664h-151l-328 647h-432v-647h-135zM342 768h463q137 6 205.5 72t68.5 186q0 126 -79 195t-226 69h-432v-522zM365 1778h118l152 -158l153 158h117l-260 -273h-22z" />
<glyph unicode="&#x159;" horiz-adv-x="747" d="M188 1413h119l152 -158l153 158h117l-260 -272h-23zM190 0v1049h132v-170h6q38 89 105 137.5t153 48.5q92 0 141 -18v-121q-83 20 -127 14q-136 -9 -209.5 -133t-73.5 -344v-463h-127z" />
<glyph unicode="&#x15a;" horiz-adv-x="1073" d="M61 348l121 60q53 -149 154.5 -222t232.5 -73t213 64.5t82 180.5q0 52 -19 96.5t-46 75t-75 60.5t-86.5 48.5t-100.5 43.5q-161 67 -225 109q-157 101 -168 263q-1 13 -1 27q0 158 109.5 255.5t284.5 97.5q245 0 403 -213l-90 -84q-131 172 -315 172q-111 0 -182.5 -60 t-71.5 -157q0 -45 18.5 -83.5t45 -65.5t72 -55t84.5 -46.5t97 -43.5q8 -3 12 -5q52 -23 82 -36.5t77 -39t75 -47t61.5 -54t52 -66t31 -78.5t12.5 -95q0 -173 -123.5 -283t-314.5 -110q-105 0 -199.5 36t-177 120t-125.5 208zM471 1538l217 240h186l-294 -240h-109z" />
<glyph unicode="&#x15b;" horiz-adv-x="950" d="M61 233l121 60q26 -78 104 -136.5t203 -58.5q110 0 187.5 49t77.5 140q0 40 -18.5 71t-39.5 49t-71 36.5t-76 25t-92 21.5q-5 1 -8 2q-47 11 -74 17.5t-69.5 20t-67.5 26.5t-55.5 34.5t-47 45.5t-28 58t-11.5 74q0 139 102.5 220t266.5 81q132 0 226 -60t145 -147 l-103 -67q-96 153 -274 153q-102 0 -173 -46.5t-71 -119.5q0 -27 10.5 -49t32.5 -38.5t45 -29t61.5 -24.5t67.5 -19.5t75 -18.5q9 -2 13 -3q47 -11 77 -19t72 -22.5t68.5 -29t56 -37t46.5 -48.5t28 -62t11 -79q0 -62 -23 -116t-62.5 -92t-91 -65t-109 -40t-116.5 -13 q-148 0 -265 76t-151 180zM406 1174l217 239h186l-295 -239h-108z" />
<glyph unicode="&#x15e;" horiz-adv-x="1073" d="M61 348l121 60q53 -149 154.5 -222t232.5 -73t213 64.5t82 180.5q0 52 -19 96.5t-46 75t-75 60.5t-86.5 48.5t-100.5 43.5q-161 67 -225 109q-157 101 -168 263q-1 13 -1 27q0 158 109.5 255.5t284.5 97.5q245 0 403 -213l-90 -84q-131 172 -315 172q-111 0 -182.5 -60 t-71.5 -157q0 -45 18.5 -83.5t45 -65.5t72 -55t84.5 -46.5t97 -43.5q8 -3 12 -5q52 -23 82 -36.5t77 -39t75 -47t61.5 -54t52 -66t31 -78.5t12.5 -95q0 -173 -123.5 -283t-314.5 -110h-2l-69 -121l49 -17q141 -49 141 -172q0 -86 -54.5 -132t-127.5 -46q-64 0 -110 34 t-68 87l77 43q6 -32 33 -55t66 -23q42 0 67 25t25 61t-24.5 68.5t-71.5 46.5l-111 37l90 172q-138 22 -248 111t-164 245z" />
<glyph unicode="&#x15f;" horiz-adv-x="950" d="M61 233l121 60q26 -78 104 -136.5t203 -58.5q110 0 187.5 49t77.5 140q0 40 -18.5 71t-39.5 49t-71 36.5t-76 25t-92 21.5q-5 1 -8 2q-47 11 -74 17.5t-69.5 20t-67.5 26.5t-55.5 34.5t-47 45.5t-28 58t-11.5 74q0 139 102.5 220t266.5 81q132 0 226 -60t145 -147 l-103 -67q-96 153 -274 153q-102 0 -173 -46.5t-71 -119.5q0 -27 10.5 -49t32.5 -38.5t45 -29t61.5 -24.5t67.5 -19.5t75 -18.5q9 -2 13 -3q47 -11 77 -19t72 -22.5t68.5 -29t56 -37t46.5 -48.5t28 -62t11 -79q0 -132 -94 -215.5t-232 -103.5l-66 -117l50 -17 q141 -49 141 -172q0 -86 -54.5 -132t-127.5 -46q-64 0 -110.5 34t-68.5 87l78 43q6 -32 33 -55t66 -23q42 0 67 25t25 61t-25 68.5t-72 46.5l-110 37l80 153q-143 4 -254.5 79.5t-143.5 176.5z" />
<glyph unicode="&#x160;" horiz-adv-x="1073" d="M61 348l121 60q53 -149 154.5 -222t232.5 -73t213 64.5t82 180.5q0 52 -19 96.5t-46 75t-75 60.5t-86.5 48.5t-100.5 43.5q-161 67 -225 109q-157 101 -168 263q-1 13 -1 27q0 158 109.5 255.5t284.5 97.5q245 0 403 -213l-90 -84q-131 172 -315 172q-111 0 -182.5 -60 t-71.5 -157q0 -45 18.5 -83.5t45 -65.5t72 -55t84.5 -46.5t97 -43.5q8 -3 12 -5q52 -23 82 -36.5t77 -39t75 -47t61.5 -54t52 -66t31 -78.5t12.5 -95q0 -173 -123.5 -283t-314.5 -110q-105 0 -199.5 36t-177 120t-125.5 208zM256 1778h119l151 -158l154 158h117l-260 -273 h-23z" />
<glyph unicode="&#x161;" horiz-adv-x="950" d="M61 233l121 60q26 -78 104 -136.5t203 -58.5q110 0 187.5 49t77.5 140q0 40 -18.5 71t-39.5 49t-71 36.5t-76 25t-92 21.5q-5 1 -8 2q-47 11 -74 17.5t-69.5 20t-67.5 26.5t-55.5 34.5t-47 45.5t-28 58t-11.5 74q0 139 102.5 220t266.5 81q132 0 226 -60t145 -147 l-103 -67q-96 153 -274 153q-102 0 -173 -46.5t-71 -119.5q0 -27 10.5 -49t32.5 -38.5t45 -29t61.5 -24.5t67.5 -19.5t75 -18.5q9 -2 13 -3q47 -11 77 -19t72 -22.5t68.5 -29t56 -37t46.5 -48.5t28 -62t11 -79q0 -62 -23 -116t-62.5 -92t-91 -65t-109 -40t-116.5 -13 q-148 0 -265 76t-151 180zM190 1413h119l152 -158l153 158h117l-260 -272h-22z" />
<glyph unicode="&#x162;" horiz-adv-x="1148" d="M20 1292v121h1108v-121h-485v-1292h-14l-76 -133l49 -17q141 -49 141 -172q0 -86 -54.5 -132t-127.5 -46q-64 0 -110 34t-68 87l78 43q7 -32 33 -55t65 -23q42 0 67 25t25 61t-24.5 68.5t-71.5 46.5l-111 37l93 176h-29v1292h-488z" />
<glyph unicode="&#x163;" horiz-adv-x="671" d="M37 938v111h162v364h125v-364h294v-111h-294v-631q0 -113 37.5 -157t132.5 -44h124v-106h-106l-76 -133l49 -17q66 -23 104 -66.5t38 -105.5q0 -86 -55 -132t-128 -46q-64 0 -110 34t-68 87l78 43q7 -32 33 -55t65 -23q42 0 67.5 25t25.5 61t-25 68.5t-72 46.5l-110 37 l92 176h53q-142 0 -208 68.5t-66 214.5v655h-162z" />
<glyph unicode="&#x164;" horiz-adv-x="1148" d="M20 1292v121h1108v-121h-485v-1292h-135v1292h-488zM305 1778h119l151 -158l154 158h117l-260 -273h-23z" />
<glyph unicode="&#x165;" horiz-adv-x="671" d="M37 938v111h162v364h125v-364h294v-111h-294v-631q0 -113 37.5 -157t132.5 -44h124v-106h-145q-142 0 -208 68.5t-66 214.5v655h-162zM530 1151l84 313h-69v197h190v-197l-117 -313h-88z" />
<glyph unicode="&#x166;" horiz-adv-x="1148" d="M20 1292v121h1108v-121h-485v-544h250v-82h-250v-666h-135v666h-250v82h250v544h-488z" />
<glyph unicode="&#x167;" horiz-adv-x="671" d="M37 938v111h162v364h125v-364h294v-111h-294v-373h268v-82h-268v-176q0 -113 37.5 -157t132.5 -44h124v-106h-145q-142 0 -208 68.5t-66 214.5v200h-160v82h160v373h-162z" />
<glyph unicode="&#x168;" horiz-adv-x="1323" d="M180 487v926h135v-932q0 -177 93 -278t256 -101q160 0 252 101t92 278v932h135v-915q0 -243 -129 -380.5t-350 -137.5q-224 0 -354 134.5t-130 372.5zM313 1554q0 100 43.5 162t137.5 62q47 0 87 -16.5t67.5 -40t52.5 -47t54 -40t60 -16.5q53 0 78 43.5t25 116.5h90 q0 -118 -52 -180t-143 -62q-45 0 -83.5 16t-66 38.5t-53 45t-54.5 38.5t-60 16q-53 0 -78 -40t-23 -96h-82z" />
<glyph unicode="&#x169;" d="M156 371v678h127v-668q0 -270 223 -270q135 0 222 90t87 231v617h127v-1049h-129v162h-16q-101 -176 -293 -176q-163 0 -255.5 102.5t-92.5 282.5zM201 1190q0 101 43 162t137 61q47 0 87 -16.5t67.5 -40t52.5 -47t54 -40t60 -16.5q53 0 78 43.5t25 116.5h90 q0 -118 -52 -180t-143 -62q-45 0 -83.5 16t-66 38.5t-53 45t-54.5 38.5t-60 16q-53 0 -77.5 -39.5t-22.5 -95.5h-82z" />
<glyph unicode="&#x16a;" horiz-adv-x="1323" d="M180 487v926h135v-932q0 -177 93 -278t256 -101q160 0 252 101t92 278v932h135v-915q0 -243 -129 -380.5t-350 -137.5q-224 0 -354 134.5t-130 372.5zM397 1606v96h529v-96h-529z" />
<glyph unicode="&#x16b;" d="M156 371v678h127v-668q0 -270 223 -270q135 0 222 90t87 231v617h127v-1049h-129v162h-16q-101 -176 -293 -176q-163 0 -255.5 102.5t-92.5 282.5zM285 1241v96h528v-96h-528z" />
<glyph unicode="&#x16e;" horiz-adv-x="1323" d="M180 487v926h135v-932q0 -177 93 -278t256 -101q160 0 252 101t92 278v932h135v-915q0 -243 -129 -380.5t-350 -137.5q-224 0 -354 134.5t-130 372.5zM467 1683q0 79 56 135t136 56q79 0 136 -55t57 -136q0 -80 -57 -137t-136 -57q-82 0 -137 56t-55 138zM551 1681 q0 -49 30.5 -78.5t77.5 -29.5q45 0 78 31.5t33 76.5q0 46 -32 78.5t-79 32.5q-50 0 -79 -30t-29 -81z" />
<glyph unicode="&#x16f;" d="M156 371v678h127v-668q0 -270 223 -270q135 0 222 90t87 231v617h127v-1049h-129v162h-16q-101 -176 -293 -176q-163 0 -255.5 102.5t-92.5 282.5zM354 1319q0 79 56.5 134.5t136.5 55.5q79 0 135.5 -54.5t56.5 -135.5q0 -80 -56.5 -137.5t-135.5 -57.5 q-82 0 -137.5 56.5t-55.5 138.5zM438 1317q0 -49 31 -79t78 -30q45 0 77.5 32t32.5 77q0 46 -31.5 78t-78.5 32q-50 0 -79.5 -29.5t-29.5 -80.5z" />
<glyph unicode="&#x170;" horiz-adv-x="1323" d="M180 487v926h135v-932q0 -177 93 -278t256 -101q160 0 252 101t92 278v932h135v-915q0 -243 -129 -380.5t-350 -137.5q-224 0 -354 134.5t-130 372.5zM403 1544l215 234h187l-270 -234h-132zM733 1544l213 234h189l-273 -234h-129z" />
<glyph unicode="&#x171;" d="M156 371v678h127v-668q0 -270 223 -270q135 0 222 90t87 231v617h127v-1049h-129v162h-16q-101 -176 -293 -176q-163 0 -255.5 102.5t-92.5 282.5zM291 1180l215 233h186l-270 -233h-131zM621 1180l213 233h188l-272 -233h-129z" />
<glyph unicode="&#x172;" horiz-adv-x="1323" d="M180 487v926h135v-932q0 -177 93 -278t256 -101q160 0 252 101t92 278v932h135v-915q0 -295 -189 -435q-116 -96 -116 -210q0 -63 29.5 -96t74.5 -33q33 0 66 17.5t57 51.5l76 -49q-68 -109 -193 -109q-93 0 -145.5 55t-52.5 142q0 93 57 164q-72 -16 -143 -16 q-224 0 -354 134.5t-130 372.5z" />
<glyph unicode="&#x173;" d="M156 371v678h127v-668q0 -270 223 -270q135 0 222 90t87 231v617h127v-1049q-133 -101 -133 -225q0 -63 29.5 -96t74.5 -33q33 0 66 17.5t57 51.5l76 -49q-67 -108 -192 -108q-93 0 -146 54.5t-53 141.5q0 150 145 246h-53v162h-16q-101 -176 -293 -176 q-163 0 -255.5 102.5t-92.5 282.5z" />
<glyph unicode="&#x174;" horiz-adv-x="1808" d="M20 1413h140l289 -1270h4l352 1270h196l353 -1270h4l289 1270h139l-342 -1413h-172l-369 1327l-368 -1327h-173zM637 1507l258 271h23l260 -271h-117l-154 162l-151 -162h-119z" />
<glyph unicode="&#x175;" horiz-adv-x="1409" d="M41 1049h141l176 -969l287 969h115l291 -969l176 969h141l-223 -1049h-191l-249 866l-250 -864h-193zM432 1143l258 270h23l260 -270h-117l-154 162l-151 -162h-119z" />
<glyph unicode="&#x176;" horiz-adv-x="1325" d="M10 1413h162l485 -739l496 739h162l-586 -860v-553h-137v553zM393 1507l258 271h23l260 -271h-117l-153 162l-152 -162h-119z" />
<glyph unicode="&#x177;" horiz-adv-x="888" d="M35 1049h137l279 -887h6l270 887h139l-377 -1108q-23 -69 -54 -121.5t-68 -85t-73 -53.5t-81 -30.5t-79.5 -12.5t-80.5 -3v111q50 0 91.5 8t71 19t55.5 32t41 37t31 46t23.5 47t20.5 50l6 15zM176 1143l258 270h23l260 -270h-117l-154 162l-151 -162h-119z" />
<glyph unicode="&#x178;" horiz-adv-x="1325" d="M10 1413h162l485 -739l496 739h162l-586 -860v-553h-137v553zM432 1587v191h152v-191h-152zM741 1587v191h152v-191h-152z" />
<glyph unicode="&#x179;" horiz-adv-x="1150" d="M35 0v115l911 1175h-866v123h1036v-119l-921 -1171h921v-123h-1081zM530 1538l218 240h186l-295 -240h-109z" />
<glyph unicode="&#x17a;" horiz-adv-x="901" d="M53 0v98l649 836h-624v115h776v-111l-647 -821h639v-117h-793zM397 1174l217 239h187l-295 -239h-109z" />
<glyph unicode="&#x17b;" horiz-adv-x="1150" d="M35 0v115l911 1175h-866v123h1036v-119l-921 -1171h921v-123h-1081zM514 1593v185h141v-185h-141z" />
<glyph unicode="&#x17c;" horiz-adv-x="901" d="M53 0v98l649 836h-624v115h776v-111l-647 -821h639v-117h-793zM381 1229v184h141v-184h-141z" />
<glyph unicode="&#x17d;" horiz-adv-x="1150" d="M35 0v115l911 1175h-866v123h1036v-119l-921 -1171h921v-123h-1081zM315 1778h119l152 -158l153 158h117l-260 -273h-23z" />
<glyph unicode="&#x17e;" horiz-adv-x="901" d="M53 0v98l649 836h-624v115h776v-111l-647 -821h639v-117h-793zM182 1413h119l152 -158l153 158h117l-260 -272h-23z" />
<glyph unicode="&#x192;" horiz-adv-x="866" d="M82 -264q52 0 89.5 10.5t70 37.5t49 81t16.5 135v938h-190v111h190v65q0 137 81.5 218t219.5 81h111v-113h-111q-79 0 -126.5 -47.5t-47.5 -128.5v-75h285v-111h-285v-938q0 -107 -28 -183.5t-78.5 -118.5t-110.5 -60.5t-135 -18.5v117z" />
<glyph unicode="&#x1cd;" horiz-adv-x="1140" d="M12 0l467 1413h189l465 -1413h-146l-100 322h-631l-100 -322h-144zM293 436h557l-277 883h-4zM305 1778h119l151 -158l154 158h117l-260 -273h-23z" />
<glyph unicode="&#x1ce;" horiz-adv-x="1067" d="M98 283q0 183 183 272q124 61 530 166v18q0 112 -63 160.5t-191 48.5q-120 0 -201 -40.5t-135 -121.5l-102 70q144 213 422 213q176 0 284.5 -81t108.5 -230v-758h-123v178q-97 -106 -188.5 -153.5t-192.5 -47.5q-143 0 -237.5 84.5t-94.5 221.5zM236 283 q0 -87 63.5 -139t153.5 -52q171 0 358 217v297q-353 -92 -461 -153q-114 -64 -114 -170zM274 1413h119l152 -158l153 158h117l-260 -272h-23z" />
<glyph unicode="&#x1cf;" horiz-adv-x="544" d="M4 1778h119l151 -158l154 158h117l-260 -273h-23zM205 0v1413h135v-1413h-135z" />
<glyph unicode="&#x1d0;" horiz-adv-x="481" d="M-31 1413h119l152 -158l153 158h117l-260 -272h-23zM178 0v1049h125v-1049h-125z" />
<glyph unicode="&#x1d1;" horiz-adv-x="1449" d="M94 707q0 333 171.5 530t461.5 197q287 0 458 -197t171 -530t-171 -530t-458 -197q-290 0 -461.5 197t-171.5 530zM223 707q0 -276 136 -438.5t368 -162.5q229 0 364.5 163t135.5 438t-135.5 437.5t-364.5 162.5q-232 0 -368 -162.5t-136 -437.5zM457 1778h118l152 -158 l154 158h116l-260 -273h-22z" />
<glyph unicode="&#x1d2;" horiz-adv-x="1148" d="M90 520q0 261 132 405t351 144q217 0 351.5 -144.5t134.5 -404.5q0 -256 -134.5 -399.5t-351.5 -143.5q-219 0 -351 143t-132 400zM215 520q0 -209 95.5 -316.5t264.5 -107.5q170 0 266.5 107.5t96.5 316.5q0 213 -96.5 322.5t-266.5 109.5q-169 0 -264.5 -109.5 t-95.5 -322.5zM303 1413h119l151 -158l154 158h117l-260 -272h-23z" />
<glyph unicode="&#x1d3;" horiz-adv-x="1323" d="M180 487v926h135v-932q0 -177 93 -278t256 -101q160 0 252 101t92 278v932h135v-915q0 -243 -129 -380.5t-350 -137.5q-224 0 -354 134.5t-130 372.5zM391 1778h119l152 -158l153 158h117l-260 -273h-23z" />
<glyph unicode="&#x1d4;" d="M156 371v678h127v-668q0 -270 223 -270q135 0 222 90t87 231v617h127v-1049h-129v162h-16q-101 -176 -293 -176q-163 0 -255.5 102.5t-92.5 282.5zM279 1413h118l152 -158l153 158h117l-260 -272h-22z" />
<glyph unicode="&#x1d5;" horiz-adv-x="1323" d="M180 487v926h135v-932q0 -177 93 -278t256 -101q160 0 252 101t92 278v932h135v-915q0 -243 -129 -380.5t-350 -137.5q-224 0 -354 134.5t-130 372.5zM397 1970v96h529v-96h-529zM430 1587v191h152v-191h-152zM739 1587v191h152v-191h-152z" />
<glyph unicode="&#x1d6;" d="M156 371v678h127v-668q0 -270 223 -270q135 0 222 90t87 231v617h127v-1049h-129v162h-16q-101 -176 -293 -176q-163 0 -255.5 102.5t-92.5 282.5zM285 1606v96h528v-96h-528zM317 1223v190h152v-190h-152zM627 1223v190h151v-190h-151z" />
<glyph unicode="&#x1d7;" horiz-adv-x="1323" d="M180 487v926h135v-932q0 -177 93 -278t256 -101q160 0 252 101t92 278v932h135v-915q0 -243 -129 -380.5t-350 -137.5q-224 0 -354 134.5t-130 372.5zM430 1587v191h152v-191h-152zM606 1903l217 239h187l-295 -239h-109zM739 1587v191h152v-191h-152z" />
<glyph unicode="&#x1d8;" d="M156 371v678h127v-668q0 -270 223 -270q135 0 222 90t87 231v617h127v-1049h-129v162h-16q-101 -176 -293 -176q-163 0 -255.5 102.5t-92.5 282.5zM317 1223v190h152v-190h-152zM494 1538l217 240h186l-295 -240h-108zM627 1223v190h151v-190h-151z" />
<glyph unicode="&#x1d9;" horiz-adv-x="1323" d="M180 487v926h135v-932q0 -177 93 -278t256 -101q160 0 252 101t92 278v932h135v-915q0 -243 -129 -380.5t-350 -137.5q-224 0 -354 134.5t-130 372.5zM391 2142h119l152 -157l153 157h117l-260 -272h-23zM430 1587v191h152v-191h-152zM739 1587v191h152v-191h-152z" />
<glyph unicode="&#x1da;" d="M156 371v678h127v-668q0 -270 223 -270q135 0 222 90t87 231v617h127v-1049h-129v162h-16q-101 -176 -293 -176q-163 0 -255.5 102.5t-92.5 282.5zM279 1778h118l152 -158l153 158h117l-260 -273h-22zM317 1223v190h152v-190h-152zM627 1223v190h151v-190h-151z" />
<glyph unicode="&#x1db;" horiz-adv-x="1323" d="M180 487v926h135v-932q0 -177 93 -278t256 -101q160 0 252 101t92 278v932h135v-915q0 -243 -129 -380.5t-350 -137.5q-224 0 -354 134.5t-130 372.5zM322 2142h188l215 -241h-129zM430 1587v191h152v-191h-152zM739 1587v191h152v-191h-152z" />
<glyph unicode="&#x1dc;" d="M156 371v678h127v-668q0 -270 223 -270q135 0 222 90t87 231v617h127v-1049h-129v162h-16q-101 -176 -293 -176q-163 0 -255.5 102.5t-92.5 282.5zM209 1778h188l215 -242h-129zM317 1223v190h152v-190h-152zM627 1223v190h151v-190h-151z" />
<glyph unicode="&#x1fe;" horiz-adv-x="1449" d="M84 143l119 119q-109 185 -109 445q0 333 171.5 530t461.5 197q140 0 256 -50t199 -143l104 105l82 -76l-121 -121q109 -182 109 -442q0 -333 -171 -530t-458 -197t-457 192l-106 -106zM223 707q0 -203 76 -349l788 789q-135 160 -360 160q-232 0 -368 -162.5 t-136 -437.5zM362 264q139 -158 365 -158q229 0 364.5 163t135.5 438q0 200 -76 346zM672 1538l217 240h186l-295 -240h-108z" />
<glyph unicode="&#x1ff;" horiz-adv-x="1148" d="M90 520q0 261 132 405t351 144q217 0 349 -141l45 45l57 -53l-53 -54q88 -141 88 -346q0 -256 -134.5 -399.5t-351.5 -143.5q-221 0 -350 144l-47 -47l-55 53l55 55q-86 134 -86 338zM215 520q0 -151 51 -248l574 574q-93 106 -265 106q-169 0 -264.5 -109.5 t-95.5 -322.5zM309 207q95 -111 266 -111q170 0 266.5 107.5t96.5 316.5q0 157 -53 260zM518 1174l217 239h187l-295 -239h-109z" />
<glyph unicode="&#x218;" horiz-adv-x="1073" d="M61 348l121 60q53 -149 154.5 -222t232.5 -73t213 64.5t82 180.5q0 52 -19 96.5t-46 75t-75 60.5t-86.5 48.5t-100.5 43.5q-161 67 -225 109q-157 101 -168 263q-1 13 -1 27q0 158 109.5 255.5t284.5 97.5q245 0 403 -213l-90 -84q-131 172 -315 172q-111 0 -182.5 -60 t-71.5 -157q0 -45 18.5 -83.5t45 -65.5t72 -55t84.5 -46.5t97 -43.5q8 -3 12 -5q52 -23 82 -36.5t77 -39t75 -47t61.5 -54t52 -66t31 -78.5t12.5 -95q0 -173 -123.5 -283t-314.5 -110q-105 0 -199.5 36t-177 120t-125.5 208zM303 -451l119 304h182l-215 -304h-86z" />
<glyph unicode="&#x219;" horiz-adv-x="950" d="M61 233l121 60q26 -78 104 -136.5t203 -58.5q110 0 187.5 49t77.5 140q0 40 -18.5 71t-39.5 49t-71 36.5t-76 25t-92 21.5q-5 1 -8 2q-47 11 -74 17.5t-69.5 20t-67.5 26.5t-55.5 34.5t-47 45.5t-28 58t-11.5 74q0 139 102.5 220t266.5 81q132 0 226 -60t145 -147 l-103 -67q-96 153 -274 153q-102 0 -173 -46.5t-71 -119.5q0 -27 10.5 -49t32.5 -38.5t45 -29t61.5 -24.5t67.5 -19.5t75 -18.5q9 -2 13 -3q47 -11 77 -19t72 -22.5t68.5 -29t56 -37t46.5 -48.5t28 -62t11 -79q0 -62 -23 -116t-62.5 -92t-91 -65t-109 -40t-116.5 -13 q-148 0 -265 76t-151 180zM299 -446l119 303h182l-215 -303h-86z" />
<glyph unicode="&#x21a;" horiz-adv-x="1148" d="M20 1292v121h1108v-121h-485v-1292h-135v1292h-488zM365 -446l118 303h183l-215 -303h-86z" />
<glyph unicode="&#x21b;" horiz-adv-x="671" d="M37 938v111h162v364h125v-364h294v-111h-294v-631q0 -113 37.5 -157t132.5 -44h124v-106h-145q-142 0 -208 68.5t-66 214.5v655h-162zM248 -446l119 303h182l-215 -303h-86z" />
<glyph unicode="&#x237;" horiz-adv-x="499" d="M-37 -254h103q66 0 91 33.5t25 99.5v1170h127v-1158q0 -137 -55 -196.5t-188 -59.5h-103v111z" />
<glyph unicode="&#x2c6;" horiz-adv-x="659" d="M61 1112l258 270h23l260 -270h-117l-153 162l-152 -162h-119z" />
<glyph unicode="&#x2c7;" horiz-adv-x="659" d="M59 1364h119l152 -158l153 158h117l-260 -272h-23z" />
<glyph unicode="&#x2d8;" horiz-adv-x="610" d="M4 1364h117q0 -73 53.5 -121.5t132.5 -48.5q75 0 130 49t55 121h114q0 -123 -87 -196.5t-212 -73.5q-127 0 -215 72.5t-88 197.5z" />
<glyph unicode="&#x2d9;" horiz-adv-x="231" d="M45 1180v184h141v-184h-141z" />
<glyph unicode="&#x2da;" horiz-adv-x="399" d="M6 1270q0 79 56.5 134.5t136.5 55.5q79 0 135.5 -54.5t56.5 -135.5q0 -80 -56.5 -137.5t-135.5 -57.5q-82 0 -137.5 56.5t-55.5 138.5zM90 1268q0 -49 31 -79t78 -30q45 0 77.5 32t32.5 77q0 46 -31.5 78t-78.5 32q-50 0 -79.5 -29.5t-29.5 -80.5z" />
<glyph unicode="&#x2db;" horiz-adv-x="466" d="M170 -246q0 158 162 256l59 -10q-133 -101 -133 -225q0 -63 29.5 -96t74.5 -33q33 0 66 17.5t57 51.5l76 -49q-67 -108 -192 -108q-93 0 -146 54.5t-53 141.5z" />
<glyph unicode="&#x2dc;" horiz-adv-x="712" d="M10 1085q0 101 43 162.5t137 61.5q47 0 87 -16.5t68 -40t53 -47t54 -40t60 -16.5q102 0 102 160h91q0 -118 -52 -180t-143 -62q-45 0 -83.5 16t-66 38.5t-53 45t-54.5 38.5t-60 16q-53 0 -78 -40t-23 -96h-82z" />
<glyph unicode="&#x2dd;" horiz-adv-x="747" d="M0 1130l215 234h186l-270 -234h-131zM330 1130l213 234h188l-272 -234h-129z" />
<glyph unicode="&#x300;" horiz-adv-x="0" d="M-412 1364h189l215 -242h-129z" />
<glyph unicode="&#x301;" horiz-adv-x="0" d="M-389 1124l217 240h186l-295 -240h-108z" />
<glyph unicode="&#x302;" horiz-adv-x="0" d="M-598 1112l258 270h23l260 -270h-117l-154 162l-151 -162h-119z" />
<glyph unicode="&#x303;" horiz-adv-x="0" d="M-702 1085q0 101 43 162.5t137 61.5q47 0 87 -16.5t67.5 -40t52.5 -47t54 -40t60 -16.5q53 0 78 43.5t25 116.5h90q0 -118 -52 -180t-143 -62q-45 0 -83.5 16t-66 38.5t-53 45t-54.5 38.5t-60 16q-53 0 -78 -40t-23 -96h-81z" />
<glyph unicode="&#x304;" horiz-adv-x="0" d="M-596 1192v96h528v-96h-528z" />
<glyph unicode="&#x306;" horiz-adv-x="0" d="M-606 1364h117q0 -73 53.5 -121.5t132.5 -48.5q75 0 129.5 49t54.5 121h115q0 -123 -87 -196.5t-212 -73.5q-127 0 -215 72.5t-88 197.5z" />
<glyph unicode="&#x307;" horiz-adv-x="0" d="M-186 1180v184h141v-184h-141z" />
<glyph unicode="&#x308;" horiz-adv-x="0" d="M-506 1174v190h152v-190h-152zM-197 1174v190h152v-190h-152z" />
<glyph unicode="&#x30a;" horiz-adv-x="0" d="M-475 1270q0 79 56 134.5t136 55.5q79 0 136 -54.5t57 -135.5q0 -80 -57 -137.5t-136 -57.5q-81 0 -136.5 56.5t-55.5 138.5zM-391 1268q0 -49 30.5 -79t77.5 -30q45 0 78 32t33 77q0 46 -32 78t-79 32q-50 0 -79 -29.5t-29 -80.5z" />
<glyph unicode="&#x30b;" horiz-adv-x="0" d="M-748 1130l216 234h186l-270 -234h-132zM-418 1130l213 234h189l-273 -234h-129z" />
<glyph unicode="&#x30c;" horiz-adv-x="0" d="M-600 1364h119l151 -158l154 158h117l-260 -272h-23z" />
<glyph unicode="&#x312;" horiz-adv-x="0" d="M-31 1153l215 270h86l-118 -270h-183z" />
<glyph unicode="&#x326;" horiz-adv-x="0" d="M-285 -446l119 303h182l-215 -303h-86z" />
<glyph unicode="&#x327;" horiz-adv-x="0" d="M-367 -379l78 43q6 -32 33 -55t66 -23q42 0 67 25t25 61t-25 68.5t-72 46.5l-110 37l92 176h92l-76 -133l50 -17q141 -49 141 -172q0 -86 -54.5 -132t-127.5 -46q-64 0 -110.5 34t-68.5 87z" />
<glyph unicode="&#x328;" horiz-adv-x="0" d="M-297 -246q0 158 162 256l59 -10q-133 -101 -133 -225q0 -63 29.5 -96t75.5 -33q32 0 65 17.5t57 51.5l76 -49q-67 -108 -192 -108q-93 0 -146 54.5t-53 141.5z" />
<glyph unicode="&#x335;" horiz-adv-x="0" d="M-1432 528v82h635v-82h-635z" />
<glyph unicode="&#x336;" horiz-adv-x="0" d="M-1223 518v103h1213v-103h-1213z" />
<glyph unicode="&#x337;" horiz-adv-x="0" d="M-1141 82v176l729 539v-179z" />
<glyph unicode="&#x338;" horiz-adv-x="0" d="M-1270 135l1202 1202l82 -75l-1204 -1205z" />
<glyph unicode="&#x3c0;" horiz-adv-x="1173" d="M178 885v114h713v-114h-82v-690q0 -78 46.5 -105t109.5 19l18 -101q-51 -28 -102 -28q-81 0 -135 66.5t-54 154.5v684h-315v-885h-117v885h-82z" />
<glyph unicode="&#x1e80;" horiz-adv-x="1808" d="M20 1413h140l289 -1270h4l352 1270h196l353 -1270h4l289 1270h139l-342 -1413h-172l-369 1327l-368 -1327h-173zM567 1778h189l215 -242h-129z" />
<glyph unicode="&#x1e81;" horiz-adv-x="1409" d="M41 1049h141l176 -969l287 969h115l291 -969l176 969h141l-223 -1049h-191l-249 866l-250 -864h-193zM362 1413h189l215 -242h-129z" />
<glyph unicode="&#x1e82;" horiz-adv-x="1808" d="M20 1413h140l289 -1270h4l352 1270h196l353 -1270h4l289 1270h139l-342 -1413h-172l-369 1327l-368 -1327h-173zM852 1538l217 240h186l-294 -240h-109z" />
<glyph unicode="&#x1e83;" horiz-adv-x="1409" d="M41 1049h141l176 -969l287 969h115l291 -969l176 969h141l-223 -1049h-191l-249 866l-250 -864h-193zM647 1174l217 239h187l-295 -239h-109z" />
<glyph unicode="&#x1e84;" horiz-adv-x="1808" d="M20 1413h140l289 -1270h4l352 1270h196l353 -1270h4l289 1270h139l-342 -1413h-172l-369 1327l-368 -1327h-173zM676 1587v191h151v-191h-151zM985 1587v191h152v-191h-152z" />
<glyph unicode="&#x1e85;" horiz-adv-x="1409" d="M41 1049h141l176 -969l287 969h115l291 -969l176 969h141l-223 -1049h-191l-249 866l-250 -864h-193zM471 1223v190h152v-190h-152zM780 1223v190h152v-190h-152z" />
<glyph unicode="&#x1ebc;" horiz-adv-x="1224" d="M205 0v1413h909v-123h-774v-522h676v-123h-676v-522h774v-123h-909zM313 1554q0 100 43.5 162t137.5 62q47 0 87 -16.5t67.5 -40t52.5 -47t54 -40t60 -16.5q53 0 78 43.5t25 116.5h90q0 -118 -52 -180t-143 -62q-45 0 -83.5 16t-66 38.5t-53 45t-54.5 38.5t-60 16 q-53 0 -78 -40t-23 -96h-82z" />
<glyph unicode="&#x1ebd;" horiz-adv-x="1107" d="M90 526q0 82 15 158t51 147t90 123t137 83.5t186 31.5q106 0 188 -34t130 -86.5t78.5 -125.5t41.5 -142.5t11 -145.5q0 -46 -2 -64h-795q6 -76 29.5 -140t67 -118t115.5 -84.5t167 -30.5q178 0 305 103l70 -86q-160 -135 -373 -135q-110 0 -198 30.5t-145.5 82.5 t-96.5 123t-55.5 148t-16.5 162zM217 582h680q-8 174 -92 271t-242 97q-91 0 -159 -31t-106.5 -85t-58 -116t-22.5 -136zM217 1190q0 101 43 162t137 61q47 0 87 -16.5t68 -40t53 -47t54 -40t60 -16.5q102 0 102 160h90q0 -118 -51.5 -180t-142.5 -62q-55 0 -102 24 t-75.5 53t-66 53t-74.5 24q-53 0 -77.5 -39.5t-22.5 -95.5h-82z" />
<glyph unicode="&#x1ef2;" horiz-adv-x="1325" d="M10 1413h162l485 -739l496 739h162l-586 -860v-553h-137v553zM324 1778h188l215 -242h-129z" />
<glyph unicode="&#x1ef3;" horiz-adv-x="888" d="M35 1049h137l279 -887h6l270 887h139l-377 -1108q-23 -69 -54 -121.5t-68 -85t-73 -53.5t-81 -30.5t-79.5 -12.5t-80.5 -3v111q50 0 91.5 8t71 19t55.5 32t41 37t31 46t23.5 47t20.5 50l6 15zM106 1413h189l215 -242h-129z" />
<glyph unicode="&#x1ef8;" horiz-adv-x="1325" d="M10 1413h162l485 -739l496 739h162l-586 -860v-553h-137v553zM315 1554q0 100 43.5 162t137.5 62q47 0 87 -16.5t67.5 -40t52.5 -47t54 -40t60 -16.5q53 0 78 43.5t25 116.5h90q0 -118 -52 -180t-143 -62q-45 0 -83.5 16t-66 38.5t-53 45t-54.5 38.5t-60 16 q-53 0 -78 -40t-23 -96h-82z" />
<glyph unicode="&#x1ef9;" horiz-adv-x="888" d="M35 1049h137l279 -887h6l270 887h139l-377 -1108q-23 -69 -54 -121.5t-68 -85t-73 -53.5t-81 -30.5t-79.5 -12.5t-80.5 -3v111q50 0 91.5 8t71 19t55.5 32t41 37t31 46t23.5 47t20.5 50l6 15zM98 1190q0 100 43.5 161.5t137.5 61.5q47 0 87 -16.5t67.5 -40t52.5 -47 t54 -40t60 -16.5q102 0 102 160h91q0 -118 -52 -180t-143 -62q-45 0 -83.5 16t-66 38.5t-53 45t-54.5 38.5t-60 16q-53 0 -78 -39.5t-23 -95.5h-82z" />
<glyph unicode="&#x2000;" horiz-adv-x="1071" />
<glyph unicode="&#x2001;" horiz-adv-x="2142" />
<glyph unicode="&#x2002;" horiz-adv-x="1071" />
<glyph unicode="&#x2003;" horiz-adv-x="2142" />
<glyph unicode="&#x2004;" horiz-adv-x="714" />
<glyph unicode="&#x2005;" horiz-adv-x="535" />
<glyph unicode="&#x2006;" horiz-adv-x="357" />
<glyph unicode="&#x2007;" horiz-adv-x="357" />
<glyph unicode="&#x2008;" horiz-adv-x="267" />
<glyph unicode="&#x2009;" horiz-adv-x="428" />
<glyph unicode="&#x200a;" horiz-adv-x="119" />
<glyph unicode="&#x2010;" horiz-adv-x="1126" d="M197 459v119h733v-119h-733z" />
<glyph unicode="&#x2011;" horiz-adv-x="1126" d="M197 459v119h733v-119h-733z" />
<glyph unicode="&#x2012;" horiz-adv-x="1126" d="M197 459v119h733v-119h-733z" />
<glyph unicode="&#x2013;" horiz-adv-x="761" d="M41 469v84h680v-84h-680z" />
<glyph unicode="&#x2014;" horiz-adv-x="2048" d="M0 469v84h2048v-84h-2048z" />
<glyph unicode="&#x2018;" horiz-adv-x="475" d="M117 903v197l116 313h89l-84 -313h69v-197h-190z" />
<glyph unicode="&#x2019;" horiz-adv-x="475" d="M145 903l84 314h-69v196h190v-196l-117 -314h-88z" />
<glyph unicode="&#x201a;" horiz-adv-x="534" d="M129 -313l84 313h-70v197h191v-197l-117 -313h-88z" />
<glyph unicode="&#x201c;" horiz-adv-x="839" d="M117 903v197l116 313h89l-84 -313h69v-197h-190zM481 903v197l117 313h88l-84 -313h70v-197h-191z" />
<glyph unicode="&#x201d;" horiz-adv-x="864" d="M145 903l84 314h-69v196h190v-196l-117 -314h-88zM535 903l83 314h-69v196h190v-196l-116 -314h-88z" />
<glyph unicode="&#x201e;" horiz-adv-x="923" d="M129 -313l84 313h-70v197h191v-197l-117 -313h-88zM518 -313l84 313h-70v197h191v-197l-117 -313h-88z" />
<glyph unicode="&#x2020;" horiz-adv-x="759" d="M111 872v95h221v446h96v-446h221v-95h-221v-1077h-96v1077h-221z" />
<glyph unicode="&#x2021;" horiz-adv-x="759" d="M111 242v94h221v536h-221v95h221v446h96v-446h221v-95h-221v-536h221v-94h-221v-447h-96v447h-221z" />
<glyph unicode="&#x2022;" horiz-adv-x="712" d="M59 537q0 123 87 210t210 87t210 -87t87 -210t-87 -211t-210 -88t-210 88t-87 211z" />
<glyph unicode="&#x2025;" horiz-adv-x="827" d="M125 0v176h188v-176h-188zM539 0v176h188v-176h-188z" />
<glyph unicode="&#x2026;" horiz-adv-x="1595" d="M125 0v197h190v-197h-190zM715 0v197h190v-197h-190zM1305 0v197h190v-197h-190z" />
<glyph unicode="&#x202f;" horiz-adv-x="428" />
<glyph unicode="&#x2030;" horiz-adv-x="2039" d="M57 1118q0 54 12.5 106t38.5 101.5t76 80t117 30.5q81 0 140 -48.5t85.5 -118.5t26.5 -151q0 -80 -26 -150t-83.5 -117.5t-136.5 -47.5q-69 0 -120 30t-78 79t-39.5 100.5t-12.5 105.5zM168 1118q0 -83 34.5 -148t100.5 -65t100.5 66t34.5 149t-35 145t-102 62 q-65 0 -99 -63t-34 -146zM266 2l756 1409h133l-754 -1409h-135zM885 315q0 42 7 83.5t24.5 84.5t44.5 76t70 53.5t97 20.5q81 0 140 -48t85.5 -118.5t26.5 -151.5q0 -80 -25.5 -149.5t-83 -116.5t-136.5 -47q-69 0 -120 30t-78 79t-39.5 100t-12.5 104zM995 315 q0 -82 35 -145.5t103 -63.5q65 0 99 64.5t34 146.5q0 85 -35 148t-103 63q-65 0 -99 -64.5t-34 -148.5zM1485 315q0 42 7.5 83.5t25.5 84.5t44.5 76t70 53.5t96.5 20.5q82 0 140 -48t83.5 -118t25.5 -152q0 -60 -14.5 -114.5t-43.5 -99.5t-76.5 -72t-108.5 -27 q-55 0 -99 20.5t-71.5 52.5t-46 74.5t-26 83.5t-7.5 82zM1593 315q0 -81 35.5 -145t102.5 -64q66 0 100.5 64.5t34.5 146.5q0 84 -35 147.5t-102 63.5q-65 0 -100.5 -65t-35.5 -148z" />
<glyph unicode="&#x2039;" horiz-adv-x="557" d="M102 510l355 321v-149l-197 -172l197 -170v-150z" />
<glyph unicode="&#x203a;" horiz-adv-x="557" d="M102 190v150l197 170l-197 172v149l355 -321z" />
<glyph unicode="&#x2044;" horiz-adv-x="235" d="M-317 0l743 1413h129l-741 -1413h-131z" />
<glyph unicode="&#x205f;" horiz-adv-x="535" />
<glyph unicode="&#x20ac;" horiz-adv-x="1310" d="M-47 791l49 100h229q20 117 67 215t119.5 172.5t177.5 116t232 41.5q215 0 363 -123l-39 -111q-147 127 -326 127q-186 0 -301 -121.5t-155 -316.5h657l-49 -105l-623 2q-4 -62 -4 -96q0 -28 4 -86h551l-41 -100h-495q38 -185 153.5 -297.5t313.5 -112.5q211 0 331 123 l82 -67q-156 -172 -422 -172q-246 0 -397.5 143.5t-196.5 382.5h-243l49 100h180q-4 62 -4 96q0 32 4 86z" />
<glyph unicode="&#x2122;" horiz-adv-x="1167" d="M12 1331v82h434v-82h-174v-454h-86v454h-174zM532 877v536h115l141 -448l148 448h108v-536h-86v380l-127 -380h-81l-132 389v-389h-86z" />
<glyph unicode="&#x2126;" horiz-adv-x="1460" d="M82 0v115h362q-162 84 -260 245t-98 359q0 186 85.5 344t234 251t325.5 93t325.5 -93.5t233 -252t84.5 -344.5q0 -195 -91.5 -357t-248.5 -241h344v-119h-491v121q107 35 191 129t127.5 219t43.5 258q0 128 -42.5 235t-114 178t-165 110.5t-196.5 39.5q-142 0 -261 -71 t-189 -198.5t-70 -285.5q0 -191 100 -363t262 -251v-121h-491z" />
<glyph unicode="&#x2202;" horiz-adv-x="1218" d="M100 430q0 163 72 301t199.5 219.5t281.5 81.5q96 0 162 -36t111 -115h8q-11 201 -96 312.5t-238 111.5q-175 0 -248 -162l-131 37q49 120 152 185t241 65q116 0 204 -48t142.5 -136.5t81.5 -207.5t27 -268q0 -234 -63 -409t-188.5 -274t-299.5 -99q-195 0 -306.5 120.5 t-111.5 321.5zM240 424q0 -141 73 -228t207 -87q119 0 211 70.5t138 180.5t46 236q0 148 -68.5 232.5t-199.5 84.5q-92 0 -170.5 -44t-129 -115t-79 -157t-28.5 -173z" />
<glyph unicode="&#x2206;" horiz-adv-x="1093" d="M12 0l537 1411l536 -1411h-1073zM184 117h729l-364 956z" />
<glyph unicode="&#x220f;" horiz-adv-x="1357" d="M164 1296v117h1030v-117h-123v-1296h-117v1296h-551v-1296h-116v1296h-123z" />
<glyph unicode="&#x2211;" horiz-adv-x="1136" d="M72 0v55l583 652l-583 653v53h993v-117h-774l532 -589l-532 -590h774v-117h-993z" />
<glyph unicode="&#x2212;" horiz-adv-x="1144" d="M197 457v121h751v-121h-751z" />
<glyph unicode="&#x221a;" horiz-adv-x="1075" d="M51 586v114h230l174 -544l471 1261l108 -47l-569 -1485h-33l-233 701h-148z" />
<glyph unicode="&#x221e;" horiz-adv-x="1492" d="M94 633q0 131 80 211t199 80q87 0 184 -55.5t188 -157.5q91 102 188.5 157.5t184.5 55.5q120 0 200.5 -80t80.5 -211t-80.5 -211t-200.5 -80q-87 0 -184.5 55.5t-188.5 157.5q-91 -102 -188 -157.5t-184 -55.5q-119 0 -199 80t-80 211zM199 633q0 -88 51.5 -138.5 t128.5 -50.5q132 0 297 189q-164 188 -297 188q-77 0 -128.5 -50t-51.5 -138zM815 633q79 -90 156.5 -139.5t142.5 -49.5q77 0 128.5 50.5t51.5 138.5t-51.5 138t-128.5 50q-65 0 -142.5 -49t-156.5 -139z" />
<glyph unicode="&#x222b;" horiz-adv-x="854" d="M25 -340q182 0 267 79t85 251v1173q0 124 75 204.5t181 80.5q100 0 196 -74l-77 -92q-52 49 -119 49q-59 0 -100 -43t-41 -121v-1171q0 -222 -122.5 -337.5t-344.5 -115.5v117z" />
<glyph unicode="&#x2248;" horiz-adv-x="931" d="M135 178q0 109 49 177.5t142 68.5q54 0 98.5 -17.5t74 -42t55 -49t54.5 -42t60 -17.5q58 0 80 41t22 121h109q0 -126 -57 -196t-160 -70q-45 0 -85 17.5t-69 43t-56.5 51t-59 43t-64.5 17.5q-96 0 -92 -146h-101zM135 627q0 109 49 177t142 68q54 0 98.5 -17t74 -42 t55 -49.5t54.5 -41.5t60 -17q58 0 80 40.5t22 120.5h109q0 -126 -57 -196t-160 -70q-45 0 -85 17.5t-69 43t-56.5 51t-59 43t-64.5 17.5q-96 0 -92 -145h-101z" />
<glyph unicode="&#x2260;" horiz-adv-x="1189" d="M131 309v119h332l117 221h-449v119h512l254 481h143l-256 -481h256v-119h-317l-119 -221h436v-119h-497l-252 -473h-141l249 473h-268z" />
<glyph unicode="&#x2264;" horiz-adv-x="1175" d="M92 0v96h899v-96h-899zM115 690l876 498v-123l-667 -375l667 -368v-129z" />
<glyph unicode="&#x2265;" horiz-adv-x="1155" d="M164 0v96h899v-96h-899zM164 193v129l667 368l-667 375v123l876 -498z" />
<glyph unicode="&#x25ca;" horiz-adv-x="1038" d="M82 717l360 717h154l360 -717l-360 -717h-154zM223 717l297 -586l295 586l-295 586z" />
<glyph unicode="&#x25fc;" horiz-adv-x="1044" d="M0 0v1044h1044v-1044h-1044z" />
<glyph unicode="&#xfb00;" horiz-adv-x="1206" d="M31 938v111h190v65q0 137 81.5 218t219.5 81h111v-113h-111q-79 0 -126.5 -47.5t-47.5 -128.5v-75h420v65q0 137 81.5 218t219.5 81h111v-113h-111q-79 0 -126.5 -47.5t-47.5 -128.5v-75h285v-111h-285v-938h-127v938h-420v-938h-127v938h-190z" />
<glyph unicode="&#xfb03;" horiz-adv-x="1687" d="M31 938v111h190v65q0 137 81.5 218t219.5 81h111v-113h-111q-79 0 -126.5 -47.5t-47.5 -128.5v-75h445v65q0 137 81.5 218t219.5 81h110v-113h-110q-79 0 -126.5 -47.5t-47.5 -128.5v-75h284v-111h-284v-938h-127v938h-445v-938h-127v938h-190zM1370 0v1049h127v-1049 h-127zM1370 1223v190h127v-190h-127z" />
<glyph unicode="&#xfb04;" horiz-adv-x="1568" d="M31 938v111h190v65q0 137 81.5 218t219.5 81h111v-113h-111q-79 0 -126.5 -47.5t-47.5 -128.5v-75h389v65q0 137 81.5 218t219.5 81h111v-113h-111q-79 0 -126.5 -47.5t-47.5 -128.5v-75h285v-111h-285v-938h-127v938h-389v-938h-127v938h-190zM1264 0v1413h127v-1413 h-127z" />
<glyph horiz-adv-x="481" d="M168 1229v184h141v-184h-141zM178 0v1049h125v-1049h-125z" />
<glyph horiz-adv-x="1208" d="M31 938v111h190v65q0 137 81.5 218t219.5 81h111v-113h-111q-79 0 -126.5 -47.5t-47.5 -128.5v-75h387v364h125v-364h295v-111h-295v-631q0 -113 37.5 -157t132.5 -44h125v-106h-145q-142 0 -208.5 68.5t-66.5 214.5v655h-387v-938h-127v938h-190z" />
<glyph horiz-adv-x="1216" d="M37 938v111h162v364h125v-364h419v364h125v-364h295v-111h-295v-631q0 -113 37.5 -157t132.5 -44h125v-106h-145q-142 0 -208.5 68.5t-66.5 214.5v655h-419v-631q0 -113 37.5 -157t132.5 -44h124v-106h-145q-142 0 -208 68.5t-66 214.5v655h-162z" />
<glyph horiz-adv-x="1855" d="M154 713q0 158 61 301t165 247t247 165t301 61t301 -61t247 -165t165 -247t61 -301t-61 -301t-165 -247t-247 -165t-301 -61t-301 61t-247 165t-165 247t-61 301zM225 713q0 -191 94 -353t256 -256t353 -94q143 0 273 55.5t224 149.5t149.5 224.5t55.5 273.5t-55.5 273 t-149.5 224t-224 149.5t-273 55.5t-273.5 -55.5t-224.5 -149.5t-149.5 -224t-55.5 -273zM489 444v537q0 15 10.5 26t24.5 11q15 0 26 -11t11 -26v-537q0 -15 -11 -24.5t-26 -9.5q-14 0 -24.5 9.5t-10.5 24.5zM625 713q0 15 9.5 25t24.5 10h134q15 0 25.5 -10t10.5 -25 t-10.5 -25t-25.5 -10h-134q-15 0 -24.5 10t-9.5 25zM893 444v537q0 15 10 26t25 11t25 -11t10 -26v-537q0 -15 -10 -24.5t-25 -9.5t-25 9.5t-10 24.5zM1026 713q0 14 10 24l271 269q9 12 22 12q14 0 25.5 -12t11.5 -27q0 -13 -10 -23l-244 -243l244 -244q10 -10 10 -23 q0 -15 -11.5 -25.5t-25.5 -10.5q-15 0 -22 10l-271 268q-10 10 -10 25z" />
</font>
</defs>
</svg>
